<?xml version="1.0" encoding="utf-8" standalone="no"?>
<!DOCTYPE svg PUBLIC "-//W3C//DTD SVG 1.1//EN"
  "http://www.w3.org/Graphics/SVG/1.1/DTD/svg11.dtd">
<svg xmlns:xlink="http://www.w3.org/1999/xlink" width="1144.8pt" height="297.36pt" viewBox="0 0 1144.8 297.36" xmlns="http://www.w3.org/2000/svg" version="1.1">
 <metadata>
  <rdf:RDF xmlns:dc="http://purl.org/dc/elements/1.1/" xmlns:cc="http://creativecommons.org/ns#" xmlns:rdf="http://www.w3.org/1999/02/22-rdf-syntax-ns#">
   <cc:Work>
    <dc:type rdf:resource="http://purl.org/dc/dcmitype/StillImage"/>
    <dc:date>2026-05-26T11:32:35.972454</dc:date>
    <dc:format>image/svg+xml</dc:format>
    <dc:creator>
     <cc:Agent>
      <dc:title>Matplotlib v3.10.8, https://matplotlib.org/</dc:title>
     </cc:Agent>
    </dc:creator>
   </cc:Work>
  </rdf:RDF>
 </metadata>
 <defs>
  <style type="text/css">*{stroke-linejoin: round; stroke-linecap: butt}</style>
 </defs>
 <g id="figure_1">
  <g id="patch_1">
   <path d="M 0 297.36 
L 1144.8 297.36 
L 1144.8 0 
L 0 0 
z
" style="fill: #ffffff"/>
  </g>
  <g id="axes_1">
   <g id="patch_2">
    <path d="M 7.2 290.16 
L 281.7 290.16 
L 281.7 47.52 
L 7.2 47.52 
z
" style="fill: #ffffff"/>
   </g>
   <g id="patch_3">
    <path d="M 20.925 193.104 
L 267.975 193.104 
L 267.975 120.312 
L 20.925 120.312 
z
" clip-path="url(#p14b8eab0ba)" style="fill: #7aa6c2; opacity: 0.7; stroke: #000000; stroke-width: 1.5; stroke-linejoin: miter"/>
   </g>
   <g id="matplotlib.axis_1"/>
   <g id="matplotlib.axis_2"/>
   <g id="patch_4">
    <path d="M 7.2 290.16 
L 7.2 47.52 
" style="fill: none; stroke: #000000; stroke-width: 0.8; stroke-linejoin: miter; stroke-linecap: square"/>
   </g>
   <g id="patch_5">
    <path d="M 281.7 290.16 
L 281.7 47.52 
" style="fill: none; stroke: #000000; stroke-width: 0.8; stroke-linejoin: miter; stroke-linecap: square"/>
   </g>
   <g id="patch_6">
    <path d="M 7.2 290.16 
L 281.7 290.16 
" style="fill: none; stroke: #000000; stroke-width: 0.8; stroke-linejoin: miter; stroke-linecap: square"/>
   </g>
   <g id="patch_7">
    <path d="M 7.2 47.52 
L 281.7 47.52 
" style="fill: none; stroke: #000000; stroke-width: 0.8; stroke-linejoin: miter; stroke-linecap: square"/>
   </g>
   <g id="text_1">
    <!-- Scheduled -->
    <g style="fill: #ffffff" transform="translate(115.111719 153.829406) scale(0.1 -0.1)">
     <defs>
      <path id="DejaVuSans-Bold-53" d="M 3834 4519 
L 3834 3531 
Q 3450 3703 3084 3790 
Q 2719 3878 2394 3878 
Q 1963 3878 1756 3759 
Q 1550 3641 1550 3391 
Q 1550 3203 1689 3098 
Q 1828 2994 2194 2919 
L 2706 2816 
Q 3484 2659 3812 2340 
Q 4141 2022 4141 1434 
Q 4141 663 3683 286 
Q 3225 -91 2284 -91 
Q 1841 -91 1394 -6 
Q 947 78 500 244 
L 500 1259 
Q 947 1022 1364 901 
Q 1781 781 2169 781 
Q 2563 781 2772 912 
Q 2981 1044 2981 1288 
Q 2981 1506 2839 1625 
Q 2697 1744 2272 1838 
L 1806 1941 
Q 1106 2091 782 2419 
Q 459 2747 459 3303 
Q 459 4000 909 4375 
Q 1359 4750 2203 4750 
Q 2588 4750 2994 4692 
Q 3400 4634 3834 4519 
z
" transform="scale(0.015625)"/>
      <path id="DejaVuSans-Bold-63" d="M 3366 3391 
L 3366 2478 
Q 3138 2634 2908 2709 
Q 2678 2784 2431 2784 
Q 1963 2784 1702 2511 
Q 1441 2238 1441 1747 
Q 1441 1256 1702 982 
Q 1963 709 2431 709 
Q 2694 709 2930 787 
Q 3166 866 3366 1019 
L 3366 103 
Q 3103 6 2833 -42 
Q 2563 -91 2291 -91 
Q 1344 -91 809 395 
Q 275 881 275 1747 
Q 275 2613 809 3098 
Q 1344 3584 2291 3584 
Q 2566 3584 2833 3536 
Q 3100 3488 3366 3391 
z
" transform="scale(0.015625)"/>
      <path id="DejaVuSans-Bold-68" d="M 4056 2131 
L 4056 0 
L 2931 0 
L 2931 347 
L 2931 1625 
Q 2931 2084 2911 2256 
Q 2891 2428 2841 2509 
Q 2775 2619 2662 2680 
Q 2550 2741 2406 2741 
Q 2056 2741 1856 2470 
Q 1656 2200 1656 1722 
L 1656 0 
L 538 0 
L 538 4863 
L 1656 4863 
L 1656 2988 
Q 1909 3294 2193 3439 
Q 2478 3584 2822 3584 
Q 3428 3584 3742 3212 
Q 4056 2841 4056 2131 
z
" transform="scale(0.015625)"/>
      <path id="DejaVuSans-Bold-65" d="M 4031 1759 
L 4031 1441 
L 1416 1441 
Q 1456 1047 1700 850 
Q 1944 653 2381 653 
Q 2734 653 3104 758 
Q 3475 863 3866 1075 
L 3866 213 
Q 3469 63 3072 -14 
Q 2675 -91 2278 -91 
Q 1328 -91 801 392 
Q 275 875 275 1747 
Q 275 2603 792 3093 
Q 1309 3584 2216 3584 
Q 3041 3584 3536 3087 
Q 4031 2591 4031 1759 
z
M 2881 2131 
Q 2881 2450 2695 2645 
Q 2509 2841 2209 2841 
Q 1884 2841 1681 2658 
Q 1478 2475 1428 2131 
L 2881 2131 
z
" transform="scale(0.015625)"/>
      <path id="DejaVuSans-Bold-64" d="M 2919 2988 
L 2919 4863 
L 4044 4863 
L 4044 0 
L 2919 0 
L 2919 506 
Q 2688 197 2409 53 
Q 2131 -91 1766 -91 
Q 1119 -91 703 423 
Q 288 938 288 1747 
Q 288 2556 703 3070 
Q 1119 3584 1766 3584 
Q 2128 3584 2408 3439 
Q 2688 3294 2919 2988 
z
M 2181 722 
Q 2541 722 2730 984 
Q 2919 1247 2919 1747 
Q 2919 2247 2730 2509 
Q 2541 2772 2181 2772 
Q 1825 2772 1636 2509 
Q 1447 2247 1447 1747 
Q 1447 1247 1636 984 
Q 1825 722 2181 722 
z
" transform="scale(0.015625)"/>
      <path id="DejaVuSans-Bold-75" d="M 500 1363 
L 500 3500 
L 1625 3500 
L 1625 3150 
Q 1625 2866 1622 2436 
Q 1619 2006 1619 1863 
Q 1619 1441 1641 1255 
Q 1663 1069 1716 984 
Q 1784 875 1895 815 
Q 2006 756 2150 756 
Q 2500 756 2700 1025 
Q 2900 1294 2900 1772 
L 2900 3500 
L 4019 3500 
L 4019 0 
L 2900 0 
L 2900 506 
Q 2647 200 2364 54 
Q 2081 -91 1741 -91 
Q 1134 -91 817 281 
Q 500 653 500 1363 
z
" transform="scale(0.015625)"/>
      <path id="DejaVuSans-Bold-6c" d="M 538 4863 
L 1656 4863 
L 1656 0 
L 538 0 
L 538 4863 
z
" transform="scale(0.015625)"/>
     </defs>
     <use xlink:href="#DejaVuSans-Bold-53"/>
     <use xlink:href="#DejaVuSans-Bold-63" transform="translate(72.021484 0)"/>
     <use xlink:href="#DejaVuSans-Bold-68" transform="translate(131.298828 0)"/>
     <use xlink:href="#DejaVuSans-Bold-65" transform="translate(202.490234 0)"/>
     <use xlink:href="#DejaVuSans-Bold-64" transform="translate(270.3125 0)"/>
     <use xlink:href="#DejaVuSans-Bold-75" transform="translate(341.894531 0)"/>
     <use xlink:href="#DejaVuSans-Bold-6c" transform="translate(413.085938 0)"/>
     <use xlink:href="#DejaVuSans-Bold-65" transform="translate(447.363281 0)"/>
     <use xlink:href="#DejaVuSans-Bold-64" transform="translate(515.185547 0)"/>
    </g>
    <!-- (daily / weekly / monthly) -->
    <g style="fill: #ffffff" transform="translate(72.795312 165.027219) scale(0.1 -0.1)">
     <defs>
      <path id="DejaVuSans-Bold-28" d="M 2413 -844 
L 1484 -844 
Q 1006 -72 778 623 
Q 550 1319 550 2003 
Q 550 2688 779 3389 
Q 1009 4091 1484 4856 
L 2413 4856 
Q 2013 4116 1813 3408 
Q 1613 2700 1613 2009 
Q 1613 1319 1811 609 
Q 2009 -100 2413 -844 
z
" transform="scale(0.015625)"/>
      <path id="DejaVuSans-Bold-61" d="M 2106 1575 
Q 1756 1575 1579 1456 
Q 1403 1338 1403 1106 
Q 1403 894 1545 773 
Q 1688 653 1941 653 
Q 2256 653 2472 879 
Q 2688 1106 2688 1447 
L 2688 1575 
L 2106 1575 
z
M 3816 1997 
L 3816 0 
L 2688 0 
L 2688 519 
Q 2463 200 2181 54 
Q 1900 -91 1497 -91 
Q 953 -91 614 226 
Q 275 544 275 1050 
Q 275 1666 698 1953 
Q 1122 2241 2028 2241 
L 2688 2241 
L 2688 2328 
Q 2688 2594 2478 2717 
Q 2269 2841 1825 2841 
Q 1466 2841 1156 2769 
Q 847 2697 581 2553 
L 581 3406 
Q 941 3494 1303 3539 
Q 1666 3584 2028 3584 
Q 2975 3584 3395 3211 
Q 3816 2838 3816 1997 
z
" transform="scale(0.015625)"/>
      <path id="DejaVuSans-Bold-69" d="M 538 3500 
L 1656 3500 
L 1656 0 
L 538 0 
L 538 3500 
z
M 538 4863 
L 1656 4863 
L 1656 3950 
L 538 3950 
L 538 4863 
z
" transform="scale(0.015625)"/>
      <path id="DejaVuSans-Bold-79" d="M 78 3500 
L 1197 3500 
L 2138 1125 
L 2938 3500 
L 4056 3500 
L 2584 -331 
Q 2363 -916 2067 -1148 
Q 1772 -1381 1288 -1381 
L 641 -1381 
L 641 -647 
L 991 -647 
Q 1275 -647 1404 -556 
Q 1534 -466 1606 -231 
L 1638 -134 
L 78 3500 
z
" transform="scale(0.015625)"/>
      <path id="DejaVuSans-Bold-20" transform="scale(0.015625)"/>
      <path id="DejaVuSans-Bold-2f" d="M 1644 4666 
L 2338 4666 
L 691 -594 
L 0 -594 
L 1644 4666 
z
" transform="scale(0.015625)"/>
      <path id="DejaVuSans-Bold-77" d="M 225 3500 
L 1313 3500 
L 1900 1088 
L 2491 3500 
L 3425 3500 
L 4013 1113 
L 4603 3500 
L 5691 3500 
L 4769 0 
L 3547 0 
L 2956 2406 
L 2369 0 
L 1147 0 
L 225 3500 
z
" transform="scale(0.015625)"/>
      <path id="DejaVuSans-Bold-6b" d="M 538 4863 
L 1656 4863 
L 1656 2216 
L 2944 3500 
L 4244 3500 
L 2534 1894 
L 4378 0 
L 3022 0 
L 1656 1459 
L 1656 0 
L 538 0 
L 538 4863 
z
" transform="scale(0.015625)"/>
      <path id="DejaVuSans-Bold-6d" d="M 3781 2919 
Q 3994 3244 4286 3414 
Q 4578 3584 4928 3584 
Q 5531 3584 5847 3212 
Q 6163 2841 6163 2131 
L 6163 0 
L 5038 0 
L 5038 1825 
Q 5041 1866 5042 1909 
Q 5044 1953 5044 2034 
Q 5044 2406 4934 2573 
Q 4825 2741 4581 2741 
Q 4263 2741 4089 2478 
Q 3916 2216 3909 1719 
L 3909 0 
L 2784 0 
L 2784 1825 
Q 2784 2406 2684 2573 
Q 2584 2741 2328 2741 
Q 2006 2741 1831 2477 
Q 1656 2213 1656 1722 
L 1656 0 
L 531 0 
L 531 3500 
L 1656 3500 
L 1656 2988 
Q 1863 3284 2130 3434 
Q 2397 3584 2719 3584 
Q 3081 3584 3359 3409 
Q 3638 3234 3781 2919 
z
" transform="scale(0.015625)"/>
      <path id="DejaVuSans-Bold-6f" d="M 2203 2784 
Q 1831 2784 1636 2517 
Q 1441 2250 1441 1747 
Q 1441 1244 1636 976 
Q 1831 709 2203 709 
Q 2569 709 2762 976 
Q 2956 1244 2956 1747 
Q 2956 2250 2762 2517 
Q 2569 2784 2203 2784 
z
M 2203 3584 
Q 3106 3584 3614 3096 
Q 4122 2609 4122 1747 
Q 4122 884 3614 396 
Q 3106 -91 2203 -91 
Q 1297 -91 786 396 
Q 275 884 275 1747 
Q 275 2609 786 3096 
Q 1297 3584 2203 3584 
z
" transform="scale(0.015625)"/>
      <path id="DejaVuSans-Bold-6e" d="M 4056 2131 
L 4056 0 
L 2931 0 
L 2931 347 
L 2931 1631 
Q 2931 2084 2911 2256 
Q 2891 2428 2841 2509 
Q 2775 2619 2662 2680 
Q 2550 2741 2406 2741 
Q 2056 2741 1856 2470 
Q 1656 2200 1656 1722 
L 1656 0 
L 538 0 
L 538 3500 
L 1656 3500 
L 1656 2988 
Q 1909 3294 2193 3439 
Q 2478 3584 2822 3584 
Q 3428 3584 3742 3212 
Q 4056 2841 4056 2131 
z
" transform="scale(0.015625)"/>
      <path id="DejaVuSans-Bold-74" d="M 1759 4494 
L 1759 3500 
L 2913 3500 
L 2913 2700 
L 1759 2700 
L 1759 1216 
Q 1759 972 1856 886 
Q 1953 800 2241 800 
L 2816 800 
L 2816 0 
L 1856 0 
Q 1194 0 917 276 
Q 641 553 641 1216 
L 641 2700 
L 84 2700 
L 84 3500 
L 641 3500 
L 641 4494 
L 1759 4494 
z
" transform="scale(0.015625)"/>
      <path id="DejaVuSans-Bold-29" d="M 513 -844 
Q 913 -100 1113 609 
Q 1313 1319 1313 2009 
Q 1313 2700 1113 3408 
Q 913 4116 513 4856 
L 1441 4856 
Q 1916 4091 2145 3389 
Q 2375 2688 2375 2003 
Q 2375 1319 2147 623 
Q 1919 -72 1441 -844 
L 513 -844 
z
" transform="scale(0.015625)"/>
     </defs>
     <use xlink:href="#DejaVuSans-Bold-28"/>
     <use xlink:href="#DejaVuSans-Bold-64" transform="translate(45.703125 0)"/>
     <use xlink:href="#DejaVuSans-Bold-61" transform="translate(117.285156 0)"/>
     <use xlink:href="#DejaVuSans-Bold-69" transform="translate(184.765625 0)"/>
     <use xlink:href="#DejaVuSans-Bold-6c" transform="translate(219.042969 0)"/>
     <use xlink:href="#DejaVuSans-Bold-79" transform="translate(253.320312 0)"/>
     <use xlink:href="#DejaVuSans-Bold-20" transform="translate(318.505859 0)"/>
     <use xlink:href="#DejaVuSans-Bold-2f" transform="translate(353.320312 0)"/>
     <use xlink:href="#DejaVuSans-Bold-20" transform="translate(389.84375 0)"/>
     <use xlink:href="#DejaVuSans-Bold-77" transform="translate(424.658203 0)"/>
     <use xlink:href="#DejaVuSans-Bold-65" transform="translate(517.041016 0)"/>
     <use xlink:href="#DejaVuSans-Bold-65" transform="translate(584.863281 0)"/>
     <use xlink:href="#DejaVuSans-Bold-6b" transform="translate(652.685547 0)"/>
     <use xlink:href="#DejaVuSans-Bold-6c" transform="translate(719.189453 0)"/>
     <use xlink:href="#DejaVuSans-Bold-79" transform="translate(753.466797 0)"/>
     <use xlink:href="#DejaVuSans-Bold-20" transform="translate(818.652344 0)"/>
     <use xlink:href="#DejaVuSans-Bold-2f" transform="translate(853.466797 0)"/>
     <use xlink:href="#DejaVuSans-Bold-20" transform="translate(889.990234 0)"/>
     <use xlink:href="#DejaVuSans-Bold-6d" transform="translate(924.804688 0)"/>
     <use xlink:href="#DejaVuSans-Bold-6f" transform="translate(1029.003906 0)"/>
     <use xlink:href="#DejaVuSans-Bold-6e" transform="translate(1097.705078 0)"/>
     <use xlink:href="#DejaVuSans-Bold-74" transform="translate(1168.896484 0)"/>
     <use xlink:href="#DejaVuSans-Bold-68" transform="translate(1216.699219 0)"/>
     <use xlink:href="#DejaVuSans-Bold-6c" transform="translate(1287.890625 0)"/>
     <use xlink:href="#DejaVuSans-Bold-79" transform="translate(1322.167969 0)"/>
     <use xlink:href="#DejaVuSans-Bold-29" transform="translate(1387.353516 0)"/>
    </g>
   </g>
   <g id="text_2">
    <!-- predictable -->
    <g transform="translate(118.995469 239.076422) scale(0.09 -0.09)">
     <defs>
      <path id="DejaVuSans-Oblique-70" d="M 3175 2156 
Q 3175 2616 2975 2859 
Q 2775 3103 2400 3103 
Q 2144 3103 1911 2972 
Q 1678 2841 1497 2591 
Q 1319 2344 1212 1994 
Q 1106 1644 1106 1300 
Q 1106 863 1306 627 
Q 1506 391 1875 391 
Q 2147 391 2380 519 
Q 2613 647 2778 891 
Q 2956 1147 3065 1494 
Q 3175 1841 3175 2156 
z
M 1394 2969 
Q 1625 3272 1939 3428 
Q 2253 3584 2638 3584 
Q 3175 3584 3472 3232 
Q 3769 2881 3769 2247 
Q 3769 1728 3584 1258 
Q 3400 788 3053 416 
Q 2822 169 2531 39 
Q 2241 -91 1919 -91 
Q 1547 -91 1294 64 
Q 1041 219 916 525 
L 556 -1331 
L -19 -1331 
L 922 3500 
L 1497 3500 
L 1394 2969 
z
" transform="scale(0.015625)"/>
      <path id="DejaVuSans-Oblique-72" d="M 2853 2969 
Q 2766 3016 2653 3041 
Q 2541 3066 2413 3066 
Q 1953 3066 1609 2717 
Q 1266 2369 1153 1784 
L 800 0 
L 225 0 
L 909 3500 
L 1484 3500 
L 1375 2956 
Q 1603 3259 1920 3421 
Q 2238 3584 2597 3584 
Q 2691 3584 2781 3573 
Q 2872 3563 2963 3538 
L 2853 2969 
z
" transform="scale(0.015625)"/>
      <path id="DejaVuSans-Oblique-65" d="M 3078 2063 
Q 3088 2113 3092 2166 
Q 3097 2219 3097 2272 
Q 3097 2653 2873 2875 
Q 2650 3097 2266 3097 
Q 1838 3097 1509 2826 
Q 1181 2556 1013 2059 
L 3078 2063 
z
M 3578 1613 
L 903 1613 
Q 884 1494 878 1425 
Q 872 1356 872 1306 
Q 872 872 1139 634 
Q 1406 397 1894 397 
Q 2269 397 2603 481 
Q 2938 566 3225 728 
L 3116 159 
Q 2806 34 2476 -28 
Q 2147 -91 1806 -91 
Q 1078 -91 686 257 
Q 294 606 294 1247 
Q 294 1794 489 2264 
Q 684 2734 1063 3103 
Q 1306 3334 1642 3459 
Q 1978 3584 2356 3584 
Q 2950 3584 3301 3228 
Q 3653 2872 3653 2272 
Q 3653 2128 3634 1964 
Q 3616 1800 3578 1613 
z
" transform="scale(0.015625)"/>
      <path id="DejaVuSans-Oblique-64" d="M 2675 525 
Q 2444 222 2128 65 
Q 1813 -91 1428 -91 
Q 903 -91 598 267 
Q 294 625 294 1247 
Q 294 1766 478 2236 
Q 663 2706 1013 3078 
Q 1244 3325 1534 3454 
Q 1825 3584 2144 3584 
Q 2481 3584 2739 3421 
Q 2997 3259 3138 2956 
L 3513 4863 
L 4091 4863 
L 3144 0 
L 2566 0 
L 2675 525 
z
M 891 1350 
Q 891 897 1095 644 
Q 1300 391 1663 391 
Q 1931 391 2161 520 
Q 2391 650 2566 903 
Q 2750 1166 2856 1509 
Q 2963 1853 2963 2188 
Q 2963 2622 2758 2865 
Q 2553 3109 2194 3109 
Q 1922 3109 1687 2981 
Q 1453 2853 1288 2613 
Q 1106 2353 998 2009 
Q 891 1666 891 1350 
z
" transform="scale(0.015625)"/>
      <path id="DejaVuSans-Oblique-69" d="M 1172 4863 
L 1747 4863 
L 1606 4134 
L 1031 4134 
L 1172 4863 
z
M 909 3500 
L 1484 3500 
L 800 0 
L 225 0 
L 909 3500 
z
" transform="scale(0.015625)"/>
      <path id="DejaVuSans-Oblique-63" d="M 3431 3366 
L 3316 2797 
Q 3109 2947 2876 3022 
Q 2644 3097 2394 3097 
Q 2119 3097 1870 3000 
Q 1622 2903 1453 2725 
Q 1184 2453 1037 2087 
Q 891 1722 891 1331 
Q 891 859 1127 628 
Q 1363 397 1844 397 
Q 2081 397 2348 469 
Q 2616 541 2906 684 
L 2797 116 
Q 2547 13 2283 -39 
Q 2019 -91 1741 -91 
Q 1044 -91 669 257 
Q 294 606 294 1253 
Q 294 1797 489 2255 
Q 684 2713 1069 3078 
Q 1331 3328 1684 3456 
Q 2038 3584 2456 3584 
Q 2700 3584 2940 3529 
Q 3181 3475 3431 3366 
z
" transform="scale(0.015625)"/>
      <path id="DejaVuSans-Oblique-74" d="M 2706 3500 
L 2619 3053 
L 1472 3053 
L 1100 1153 
Q 1081 1047 1072 975 
Q 1063 903 1063 863 
Q 1063 663 1183 572 
Q 1303 481 1569 481 
L 2150 481 
L 2053 0 
L 1503 0 
Q 991 0 739 200 
Q 488 400 488 806 
Q 488 878 497 964 
Q 506 1050 525 1153 
L 897 3053 
L 409 3053 
L 500 3500 
L 978 3500 
L 1172 4494 
L 1747 4494 
L 1556 3500 
L 2706 3500 
z
" transform="scale(0.015625)"/>
      <path id="DejaVuSans-Oblique-61" d="M 3438 1997 
L 3047 0 
L 2472 0 
L 2578 531 
Q 2325 219 2001 64 
Q 1678 -91 1281 -91 
Q 834 -91 548 182 
Q 263 456 263 884 
Q 263 1497 752 1853 
Q 1241 2209 2100 2209 
L 2900 2209 
L 2931 2363 
Q 2938 2388 2941 2417 
Q 2944 2447 2944 2509 
Q 2944 2788 2717 2942 
Q 2491 3097 2081 3097 
Q 1800 3097 1504 3025 
Q 1209 2953 897 2809 
L 997 3341 
Q 1322 3463 1633 3523 
Q 1944 3584 2234 3584 
Q 2853 3584 3176 3315 
Q 3500 3047 3500 2534 
Q 3500 2431 3484 2292 
Q 3469 2153 3438 1997 
z
M 2816 1759 
L 2241 1759 
Q 1534 1759 1195 1570 
Q 856 1381 856 984 
Q 856 709 1029 553 
Q 1203 397 1509 397 
Q 1978 397 2328 733 
Q 2678 1069 2791 1631 
L 2816 1759 
z
" transform="scale(0.015625)"/>
      <path id="DejaVuSans-Oblique-62" d="M 3169 2138 
Q 3169 2591 2961 2847 
Q 2753 3103 2388 3103 
Q 2122 3103 1889 2973 
Q 1656 2844 1484 2597 
Q 1303 2338 1198 1995 
Q 1094 1653 1094 1313 
Q 1094 881 1298 636 
Q 1503 391 1863 391 
Q 2134 391 2365 517 
Q 2597 644 2772 891 
Q 2950 1147 3059 1487 
Q 3169 1828 3169 2138 
z
M 1381 2969 
Q 1594 3256 1914 3420 
Q 2234 3584 2584 3584 
Q 3122 3584 3439 3221 
Q 3756 2859 3756 2241 
Q 3756 1734 3570 1259 
Q 3384 784 3041 416 
Q 2816 172 2522 40 
Q 2228 -91 1906 -91 
Q 1566 -91 1316 65 
Q 1066 222 909 531 
L 806 0 
L 231 0 
L 1178 4863 
L 1753 4863 
L 1381 2969 
z
" transform="scale(0.015625)"/>
      <path id="DejaVuSans-Oblique-6c" d="M 1172 4863 
L 1747 4863 
L 800 0 
L 225 0 
L 1172 4863 
z
" transform="scale(0.015625)"/>
     </defs>
     <use xlink:href="#DejaVuSans-Oblique-70"/>
     <use xlink:href="#DejaVuSans-Oblique-72" transform="translate(63.476562 0)"/>
     <use xlink:href="#DejaVuSans-Oblique-65" transform="translate(104.589844 0)"/>
     <use xlink:href="#DejaVuSans-Oblique-64" transform="translate(166.113281 0)"/>
     <use xlink:href="#DejaVuSans-Oblique-69" transform="translate(229.589844 0)"/>
     <use xlink:href="#DejaVuSans-Oblique-63" transform="translate(257.373047 0)"/>
     <use xlink:href="#DejaVuSans-Oblique-74" transform="translate(312.353516 0)"/>
     <use xlink:href="#DejaVuSans-Oblique-61" transform="translate(351.5625 0)"/>
     <use xlink:href="#DejaVuSans-Oblique-62" transform="translate(412.841797 0)"/>
     <use xlink:href="#DejaVuSans-Oblique-6c" transform="translate(476.318359 0)"/>
     <use xlink:href="#DejaVuSans-Oblique-65" transform="translate(504.101562 0)"/>
    </g>
    <!-- blind to drift -->
    <g transform="translate(116.701172 249.154453) scale(0.09 -0.09)">
     <defs>
      <path id="DejaVuSans-Oblique-6e" d="M 3566 2113 
L 3156 0 
L 2578 0 
L 2988 2091 
Q 3016 2238 3031 2350 
Q 3047 2463 3047 2528 
Q 3047 2791 2881 2937 
Q 2716 3084 2419 3084 
Q 1956 3084 1622 2776 
Q 1288 2469 1184 1941 
L 800 0 
L 225 0 
L 903 3500 
L 1478 3500 
L 1363 2950 
Q 1603 3253 1940 3418 
Q 2278 3584 2650 3584 
Q 3113 3584 3367 3334 
Q 3622 3084 3622 2631 
Q 3622 2519 3608 2391 
Q 3594 2263 3566 2113 
z
" transform="scale(0.015625)"/>
      <path id="DejaVuSans-Oblique-20" transform="scale(0.015625)"/>
      <path id="DejaVuSans-Oblique-6f" d="M 1625 -91 
Q 1009 -91 651 289 
Q 294 669 294 1325 
Q 294 1706 417 2101 
Q 541 2497 738 2766 
Q 1047 3184 1428 3384 
Q 1809 3584 2291 3584 
Q 2888 3584 3255 3212 
Q 3622 2841 3622 2241 
Q 3622 1825 3500 1412 
Q 3378 1000 3181 728 
Q 2875 309 2494 109 
Q 2113 -91 1625 -91 
z
M 891 1344 
Q 891 869 1089 633 
Q 1288 397 1691 397 
Q 2269 397 2648 901 
Q 3028 1406 3028 2181 
Q 3028 2634 2825 2865 
Q 2622 3097 2228 3097 
Q 1903 3097 1650 2945 
Q 1397 2794 1197 2484 
Q 1050 2253 970 1956 
Q 891 1659 891 1344 
z
" transform="scale(0.015625)"/>
      <path id="DejaVuSans-Oblique-66" d="M 3059 4863 
L 2969 4384 
L 2419 4384 
Q 2106 4384 1964 4261 
Q 1822 4138 1753 3809 
L 1691 3500 
L 2638 3500 
L 2553 3053 
L 1606 3053 
L 1013 0 
L 434 0 
L 1031 3053 
L 481 3053 
L 563 3500 
L 1113 3500 
L 1159 3744 
Q 1278 4363 1576 4613 
Q 1875 4863 2516 4863 
L 3059 4863 
z
" transform="scale(0.015625)"/>
     </defs>
     <use xlink:href="#DejaVuSans-Oblique-62"/>
     <use xlink:href="#DejaVuSans-Oblique-6c" transform="translate(63.476562 0)"/>
     <use xlink:href="#DejaVuSans-Oblique-69" transform="translate(91.259766 0)"/>
     <use xlink:href="#DejaVuSans-Oblique-6e" transform="translate(119.042969 0)"/>
     <use xlink:href="#DejaVuSans-Oblique-64" transform="translate(182.421875 0)"/>
     <use xlink:href="#DejaVuSans-Oblique-20" transform="translate(245.898438 0)"/>
     <use xlink:href="#DejaVuSans-Oblique-74" transform="translate(277.685547 0)"/>
     <use xlink:href="#DejaVuSans-Oblique-6f" transform="translate(316.894531 0)"/>
     <use xlink:href="#DejaVuSans-Oblique-20" transform="translate(378.076172 0)"/>
     <use xlink:href="#DejaVuSans-Oblique-64" transform="translate(409.863281 0)"/>
     <use xlink:href="#DejaVuSans-Oblique-72" transform="translate(473.339844 0)"/>
     <use xlink:href="#DejaVuSans-Oblique-69" transform="translate(514.453125 0)"/>
     <use xlink:href="#DejaVuSans-Oblique-66" transform="translate(542.236328 0)"/>
     <use xlink:href="#DejaVuSans-Oblique-74" transform="translate(577.441406 0)"/>
    </g>
   </g>
  </g>
  <g id="axes_2">
   <g id="patch_8">
    <path d="M 292.5 290.16 
L 567 290.16 
L 567 47.52 
L 292.5 47.52 
z
" style="fill: #ffffff"/>
   </g>
   <g id="patch_9">
    <path d="M 306.225 193.104 
L 553.275 193.104 
L 553.275 120.312 
L 306.225 120.312 
z
" clip-path="url(#p12450dff00)" style="fill: #f28e2b; opacity: 0.7; stroke: #000000; stroke-width: 1.5; stroke-linejoin: miter"/>
   </g>
   <g id="matplotlib.axis_3"/>
   <g id="matplotlib.axis_4"/>
   <g id="patch_10">
    <path d="M 292.5 290.16 
L 292.5 47.52 
" style="fill: none; stroke: #000000; stroke-width: 0.8; stroke-linejoin: miter; stroke-linecap: square"/>
   </g>
   <g id="patch_11">
    <path d="M 567 290.16 
L 567 47.52 
" style="fill: none; stroke: #000000; stroke-width: 0.8; stroke-linejoin: miter; stroke-linecap: square"/>
   </g>
   <g id="patch_12">
    <path d="M 292.5 290.16 
L 567 290.16 
" style="fill: none; stroke: #000000; stroke-width: 0.8; stroke-linejoin: miter; stroke-linecap: square"/>
   </g>
   <g id="patch_13">
    <path d="M 292.5 47.52 
L 567 47.52 
" style="fill: none; stroke: #000000; stroke-width: 0.8; stroke-linejoin: miter; stroke-linecap: square"/>
   </g>
   <g id="text_3">
    <!-- Drift-based -->
    <g style="fill: #ffffff" transform="translate(397.880469 153.829406) scale(0.1 -0.1)">
     <defs>
      <path id="DejaVuSans-Bold-44" d="M 1791 3756 
L 1791 909 
L 2222 909 
Q 2959 909 3348 1275 
Q 3738 1641 3738 2338 
Q 3738 3031 3350 3393 
Q 2963 3756 2222 3756 
L 1791 3756 
z
M 588 4666 
L 1856 4666 
Q 2919 4666 3439 4514 
Q 3959 4363 4331 4000 
Q 4659 3684 4818 3271 
Q 4978 2859 4978 2338 
Q 4978 1809 4818 1395 
Q 4659 981 4331 666 
Q 3956 303 3431 151 
Q 2906 0 1856 0 
L 588 0 
L 588 4666 
z
" transform="scale(0.015625)"/>
      <path id="DejaVuSans-Bold-72" d="M 3138 2547 
Q 2991 2616 2845 2648 
Q 2700 2681 2553 2681 
Q 2122 2681 1889 2404 
Q 1656 2128 1656 1613 
L 1656 0 
L 538 0 
L 538 3500 
L 1656 3500 
L 1656 2925 
Q 1872 3269 2151 3426 
Q 2431 3584 2822 3584 
Q 2878 3584 2943 3579 
Q 3009 3575 3134 3559 
L 3138 2547 
z
" transform="scale(0.015625)"/>
      <path id="DejaVuSans-Bold-66" d="M 2841 4863 
L 2841 4128 
L 2222 4128 
Q 1984 4128 1890 4042 
Q 1797 3956 1797 3744 
L 1797 3500 
L 2753 3500 
L 2753 2700 
L 1797 2700 
L 1797 0 
L 678 0 
L 678 2700 
L 122 2700 
L 122 3500 
L 678 3500 
L 678 3744 
Q 678 4316 997 4589 
Q 1316 4863 1984 4863 
L 2841 4863 
z
" transform="scale(0.015625)"/>
      <path id="DejaVuSans-Bold-2d" d="M 347 2297 
L 2309 2297 
L 2309 1388 
L 347 1388 
L 347 2297 
z
" transform="scale(0.015625)"/>
      <path id="DejaVuSans-Bold-62" d="M 2400 722 
Q 2759 722 2948 984 
Q 3138 1247 3138 1747 
Q 3138 2247 2948 2509 
Q 2759 2772 2400 2772 
Q 2041 2772 1848 2508 
Q 1656 2244 1656 1747 
Q 1656 1250 1848 986 
Q 2041 722 2400 722 
z
M 1656 2988 
Q 1888 3294 2169 3439 
Q 2450 3584 2816 3584 
Q 3463 3584 3878 3070 
Q 4294 2556 4294 1747 
Q 4294 938 3878 423 
Q 3463 -91 2816 -91 
Q 2450 -91 2169 54 
Q 1888 200 1656 506 
L 1656 0 
L 538 0 
L 538 4863 
L 1656 4863 
L 1656 2988 
z
" transform="scale(0.015625)"/>
      <path id="DejaVuSans-Bold-73" d="M 3272 3391 
L 3272 2541 
Q 2913 2691 2578 2766 
Q 2244 2841 1947 2841 
Q 1628 2841 1473 2761 
Q 1319 2681 1319 2516 
Q 1319 2381 1436 2309 
Q 1553 2238 1856 2203 
L 2053 2175 
Q 2913 2066 3209 1816 
Q 3506 1566 3506 1031 
Q 3506 472 3093 190 
Q 2681 -91 1863 -91 
Q 1516 -91 1145 -36 
Q 775 19 384 128 
L 384 978 
Q 719 816 1070 734 
Q 1422 653 1784 653 
Q 2113 653 2278 743 
Q 2444 834 2444 1013 
Q 2444 1163 2330 1236 
Q 2216 1309 1875 1350 
L 1678 1375 
Q 931 1469 631 1722 
Q 331 1975 331 2491 
Q 331 3047 712 3315 
Q 1094 3584 1881 3584 
Q 2191 3584 2531 3537 
Q 2872 3491 3272 3391 
z
" transform="scale(0.015625)"/>
     </defs>
     <use xlink:href="#DejaVuSans-Bold-44"/>
     <use xlink:href="#DejaVuSans-Bold-72" transform="translate(83.007812 0)"/>
     <use xlink:href="#DejaVuSans-Bold-69" transform="translate(132.324219 0)"/>
     <use xlink:href="#DejaVuSans-Bold-66" transform="translate(166.601562 0)"/>
     <use xlink:href="#DejaVuSans-Bold-74" transform="translate(210.107422 0)"/>
     <use xlink:href="#DejaVuSans-Bold-2d" transform="translate(257.910156 0)"/>
     <use xlink:href="#DejaVuSans-Bold-62" transform="translate(299.414062 0)"/>
     <use xlink:href="#DejaVuSans-Bold-61" transform="translate(370.996094 0)"/>
     <use xlink:href="#DejaVuSans-Bold-73" transform="translate(438.476562 0)"/>
     <use xlink:href="#DejaVuSans-Bold-65" transform="translate(497.998047 0)"/>
     <use xlink:href="#DejaVuSans-Bold-64" transform="translate(565.820312 0)"/>
    </g>
    <!-- (input distribution change) -->
    <g style="fill: #ffffff" transform="translate(353.394531 165.027219) scale(0.1 -0.1)">
     <defs>
      <path id="DejaVuSans-Bold-70" d="M 1656 506 
L 1656 -1331 
L 538 -1331 
L 538 3500 
L 1656 3500 
L 1656 2988 
Q 1888 3294 2169 3439 
Q 2450 3584 2816 3584 
Q 3463 3584 3878 3070 
Q 4294 2556 4294 1747 
Q 4294 938 3878 423 
Q 3463 -91 2816 -91 
Q 2450 -91 2169 54 
Q 1888 200 1656 506 
z
M 2400 2772 
Q 2041 2772 1848 2508 
Q 1656 2244 1656 1747 
Q 1656 1250 1848 986 
Q 2041 722 2400 722 
Q 2759 722 2948 984 
Q 3138 1247 3138 1747 
Q 3138 2247 2948 2509 
Q 2759 2772 2400 2772 
z
" transform="scale(0.015625)"/>
      <path id="DejaVuSans-Bold-67" d="M 2919 594 
Q 2688 288 2409 144 
Q 2131 0 1766 0 
Q 1125 0 706 504 
Q 288 1009 288 1791 
Q 288 2575 706 3076 
Q 1125 3578 1766 3578 
Q 2131 3578 2409 3434 
Q 2688 3291 2919 2981 
L 2919 3500 
L 4044 3500 
L 4044 353 
Q 4044 -491 3511 -936 
Q 2978 -1381 1966 -1381 
Q 1638 -1381 1331 -1331 
Q 1025 -1281 716 -1178 
L 716 -306 
Q 1009 -475 1290 -558 
Q 1572 -641 1856 -641 
Q 2406 -641 2662 -400 
Q 2919 -159 2919 353 
L 2919 594 
z
M 2181 2772 
Q 1834 2772 1640 2515 
Q 1447 2259 1447 1791 
Q 1447 1309 1634 1061 
Q 1822 813 2181 813 
Q 2531 813 2725 1069 
Q 2919 1325 2919 1791 
Q 2919 2259 2725 2515 
Q 2531 2772 2181 2772 
z
" transform="scale(0.015625)"/>
     </defs>
     <use xlink:href="#DejaVuSans-Bold-28"/>
     <use xlink:href="#DejaVuSans-Bold-69" transform="translate(45.703125 0)"/>
     <use xlink:href="#DejaVuSans-Bold-6e" transform="translate(79.980469 0)"/>
     <use xlink:href="#DejaVuSans-Bold-70" transform="translate(151.171875 0)"/>
     <use xlink:href="#DejaVuSans-Bold-75" transform="translate(222.753906 0)"/>
     <use xlink:href="#DejaVuSans-Bold-74" transform="translate(293.945312 0)"/>
     <use xlink:href="#DejaVuSans-Bold-20" transform="translate(341.748047 0)"/>
     <use xlink:href="#DejaVuSans-Bold-64" transform="translate(376.5625 0)"/>
     <use xlink:href="#DejaVuSans-Bold-69" transform="translate(448.144531 0)"/>
     <use xlink:href="#DejaVuSans-Bold-73" transform="translate(482.421875 0)"/>
     <use xlink:href="#DejaVuSans-Bold-74" transform="translate(541.943359 0)"/>
     <use xlink:href="#DejaVuSans-Bold-72" transform="translate(589.746094 0)"/>
     <use xlink:href="#DejaVuSans-Bold-69" transform="translate(639.0625 0)"/>
     <use xlink:href="#DejaVuSans-Bold-62" transform="translate(673.339844 0)"/>
     <use xlink:href="#DejaVuSans-Bold-75" transform="translate(744.921875 0)"/>
     <use xlink:href="#DejaVuSans-Bold-74" transform="translate(816.113281 0)"/>
     <use xlink:href="#DejaVuSans-Bold-69" transform="translate(863.916016 0)"/>
     <use xlink:href="#DejaVuSans-Bold-6f" transform="translate(898.193359 0)"/>
     <use xlink:href="#DejaVuSans-Bold-6e" transform="translate(966.894531 0)"/>
     <use xlink:href="#DejaVuSans-Bold-20" transform="translate(1038.085938 0)"/>
     <use xlink:href="#DejaVuSans-Bold-63" transform="translate(1072.900391 0)"/>
     <use xlink:href="#DejaVuSans-Bold-68" transform="translate(1132.177734 0)"/>
     <use xlink:href="#DejaVuSans-Bold-61" transform="translate(1203.369141 0)"/>
     <use xlink:href="#DejaVuSans-Bold-6e" transform="translate(1270.849609 0)"/>
     <use xlink:href="#DejaVuSans-Bold-67" transform="translate(1342.041016 0)"/>
     <use xlink:href="#DejaVuSans-Bold-65" transform="translate(1413.623047 0)"/>
     <use xlink:href="#DejaVuSans-Bold-29" transform="translate(1481.445312 0)"/>
    </g>
   </g>
   <g id="text_4">
    <!-- responsive to drift -->
    <g transform="translate(388.615078 239.076422) scale(0.09 -0.09)">
     <defs>
      <path id="DejaVuSans-Oblique-73" d="M 3200 3397 
L 3091 2853 
Q 2863 2978 2609 3040 
Q 2356 3103 2088 3103 
Q 1634 3103 1373 2948 
Q 1113 2794 1113 2528 
Q 1113 2219 1719 2053 
Q 1766 2041 1788 2034 
L 1972 1978 
Q 2547 1819 2739 1644 
Q 2931 1469 2931 1166 
Q 2931 609 2489 259 
Q 2047 -91 1331 -91 
Q 1053 -91 747 -37 
Q 441 16 72 128 
L 184 722 
Q 500 559 806 475 
Q 1113 391 1394 391 
Q 1816 391 2080 572 
Q 2344 753 2344 1031 
Q 2344 1331 1650 1516 
L 1591 1531 
L 1394 1581 
Q 956 1697 753 1886 
Q 550 2075 550 2369 
Q 550 2928 970 3256 
Q 1391 3584 2113 3584 
Q 2397 3584 2667 3537 
Q 2938 3491 3200 3397 
z
" transform="scale(0.015625)"/>
      <path id="DejaVuSans-Oblique-76" d="M 459 3500 
L 1069 3500 
L 1581 525 
L 3256 3500 
L 3866 3500 
L 1875 0 
L 1100 0 
L 459 3500 
z
" transform="scale(0.015625)"/>
     </defs>
     <use xlink:href="#DejaVuSans-Oblique-72"/>
     <use xlink:href="#DejaVuSans-Oblique-65" transform="translate(41.113281 0)"/>
     <use xlink:href="#DejaVuSans-Oblique-73" transform="translate(102.636719 0)"/>
     <use xlink:href="#DejaVuSans-Oblique-70" transform="translate(154.736328 0)"/>
     <use xlink:href="#DejaVuSans-Oblique-6f" transform="translate(218.212891 0)"/>
     <use xlink:href="#DejaVuSans-Oblique-6e" transform="translate(279.394531 0)"/>
     <use xlink:href="#DejaVuSans-Oblique-73" transform="translate(342.773438 0)"/>
     <use xlink:href="#DejaVuSans-Oblique-69" transform="translate(394.873047 0)"/>
     <use xlink:href="#DejaVuSans-Oblique-76" transform="translate(422.65625 0)"/>
     <use xlink:href="#DejaVuSans-Oblique-65" transform="translate(481.835938 0)"/>
     <use xlink:href="#DejaVuSans-Oblique-20" transform="translate(543.359375 0)"/>
     <use xlink:href="#DejaVuSans-Oblique-74" transform="translate(575.146484 0)"/>
     <use xlink:href="#DejaVuSans-Oblique-6f" transform="translate(614.355469 0)"/>
     <use xlink:href="#DejaVuSans-Oblique-20" transform="translate(675.537109 0)"/>
     <use xlink:href="#DejaVuSans-Oblique-64" transform="translate(707.324219 0)"/>
     <use xlink:href="#DejaVuSans-Oblique-72" transform="translate(770.800781 0)"/>
     <use xlink:href="#DejaVuSans-Oblique-69" transform="translate(811.914062 0)"/>
     <use xlink:href="#DejaVuSans-Oblique-66" transform="translate(839.697266 0)"/>
     <use xlink:href="#DejaVuSans-Oblique-74" transform="translate(874.902344 0)"/>
    </g>
    <!-- false-positive risk -->
    <g transform="translate(390.289922 249.154453) scale(0.09 -0.09)">
     <defs>
      <path id="DejaVuSans-Oblique-2d" d="M 391 2009 
L 2075 2009 
L 1978 1497 
L 288 1497 
L 391 2009 
z
" transform="scale(0.015625)"/>
      <path id="DejaVuSans-Oblique-6b" d="M 1172 4863 
L 1747 4863 
L 1197 2028 
L 3169 3500 
L 3916 3500 
L 1716 1825 
L 3322 0 
L 2625 0 
L 1131 1709 
L 800 0 
L 225 0 
L 1172 4863 
z
" transform="scale(0.015625)"/>
     </defs>
     <use xlink:href="#DejaVuSans-Oblique-66"/>
     <use xlink:href="#DejaVuSans-Oblique-61" transform="translate(35.205078 0)"/>
     <use xlink:href="#DejaVuSans-Oblique-6c" transform="translate(96.484375 0)"/>
     <use xlink:href="#DejaVuSans-Oblique-73" transform="translate(124.267578 0)"/>
     <use xlink:href="#DejaVuSans-Oblique-65" transform="translate(176.367188 0)"/>
     <use xlink:href="#DejaVuSans-Oblique-2d" transform="translate(237.890625 0)"/>
     <use xlink:href="#DejaVuSans-Oblique-70" transform="translate(273.974609 0)"/>
     <use xlink:href="#DejaVuSans-Oblique-6f" transform="translate(337.451172 0)"/>
     <use xlink:href="#DejaVuSans-Oblique-73" transform="translate(398.632812 0)"/>
     <use xlink:href="#DejaVuSans-Oblique-69" transform="translate(450.732422 0)"/>
     <use xlink:href="#DejaVuSans-Oblique-74" transform="translate(478.515625 0)"/>
     <use xlink:href="#DejaVuSans-Oblique-69" transform="translate(517.724609 0)"/>
     <use xlink:href="#DejaVuSans-Oblique-76" transform="translate(545.507812 0)"/>
     <use xlink:href="#DejaVuSans-Oblique-65" transform="translate(604.6875 0)"/>
     <use xlink:href="#DejaVuSans-Oblique-20" transform="translate(666.210938 0)"/>
     <use xlink:href="#DejaVuSans-Oblique-72" transform="translate(697.998047 0)"/>
     <use xlink:href="#DejaVuSans-Oblique-69" transform="translate(739.111328 0)"/>
     <use xlink:href="#DejaVuSans-Oblique-73" transform="translate(766.894531 0)"/>
     <use xlink:href="#DejaVuSans-Oblique-6b" transform="translate(818.994141 0)"/>
    </g>
   </g>
  </g>
  <g id="axes_3">
   <g id="patch_14">
    <path d="M 577.8 290.16 
L 852.3 290.16 
L 852.3 47.52 
L 577.8 47.52 
z
" style="fill: #ffffff"/>
   </g>
   <g id="patch_15">
    <path d="M 591.525 193.104 
L 838.575 193.104 
L 838.575 120.312 
L 591.525 120.312 
z
" clip-path="url(#pbd35aecb3b)" style="fill: #e15759; opacity: 0.7; stroke: #000000; stroke-width: 1.5; stroke-linejoin: miter"/>
   </g>
   <g id="matplotlib.axis_5"/>
   <g id="matplotlib.axis_6"/>
   <g id="patch_16">
    <path d="M 577.8 290.16 
L 577.8 47.52 
" style="fill: none; stroke: #000000; stroke-width: 0.8; stroke-linejoin: miter; stroke-linecap: square"/>
   </g>
   <g id="patch_17">
    <path d="M 852.3 290.16 
L 852.3 47.52 
" style="fill: none; stroke: #000000; stroke-width: 0.8; stroke-linejoin: miter; stroke-linecap: square"/>
   </g>
   <g id="patch_18">
    <path d="M 577.8 290.16 
L 852.3 290.16 
" style="fill: none; stroke: #000000; stroke-width: 0.8; stroke-linejoin: miter; stroke-linecap: square"/>
   </g>
   <g id="patch_19">
    <path d="M 577.8 47.52 
L 852.3 47.52 
" style="fill: none; stroke: #000000; stroke-width: 0.8; stroke-linejoin: miter; stroke-linecap: square"/>
   </g>
   <g id="text_5">
    <!-- Performance-based -->
    <g style="fill: #ffffff" transform="translate(659.978906 153.868469) scale(0.1 -0.1)">
     <defs>
      <path id="DejaVuSans-Bold-50" d="M 588 4666 
L 2584 4666 
Q 3475 4666 3951 4270 
Q 4428 3875 4428 3144 
Q 4428 2409 3951 2014 
Q 3475 1619 2584 1619 
L 1791 1619 
L 1791 0 
L 588 0 
L 588 4666 
z
M 1791 3794 
L 1791 2491 
L 2456 2491 
Q 2806 2491 2997 2661 
Q 3188 2831 3188 3144 
Q 3188 3456 2997 3625 
Q 2806 3794 2456 3794 
L 1791 3794 
z
" transform="scale(0.015625)"/>
     </defs>
     <use xlink:href="#DejaVuSans-Bold-50"/>
     <use xlink:href="#DejaVuSans-Bold-65" transform="translate(73.291016 0)"/>
     <use xlink:href="#DejaVuSans-Bold-72" transform="translate(141.113281 0)"/>
     <use xlink:href="#DejaVuSans-Bold-66" transform="translate(190.429688 0)"/>
     <use xlink:href="#DejaVuSans-Bold-6f" transform="translate(233.935547 0)"/>
     <use xlink:href="#DejaVuSans-Bold-72" transform="translate(302.636719 0)"/>
     <use xlink:href="#DejaVuSans-Bold-6d" transform="translate(351.953125 0)"/>
     <use xlink:href="#DejaVuSans-Bold-61" transform="translate(456.152344 0)"/>
     <use xlink:href="#DejaVuSans-Bold-6e" transform="translate(523.632812 0)"/>
     <use xlink:href="#DejaVuSans-Bold-63" transform="translate(594.824219 0)"/>
     <use xlink:href="#DejaVuSans-Bold-65" transform="translate(654.101562 0)"/>
     <use xlink:href="#DejaVuSans-Bold-2d" transform="translate(721.923828 0)"/>
     <use xlink:href="#DejaVuSans-Bold-62" transform="translate(763.427734 0)"/>
     <use xlink:href="#DejaVuSans-Bold-61" transform="translate(835.009766 0)"/>
     <use xlink:href="#DejaVuSans-Bold-73" transform="translate(902.490234 0)"/>
     <use xlink:href="#DejaVuSans-Bold-65" transform="translate(962.011719 0)"/>
     <use xlink:href="#DejaVuSans-Bold-64" transform="translate(1029.833984 0)"/>
    </g>
    <!-- (metric drop) -->
    <g style="fill: #ffffff" transform="translate(677.545312 165.066281) scale(0.1 -0.1)">
     <use xlink:href="#DejaVuSans-Bold-28"/>
     <use xlink:href="#DejaVuSans-Bold-6d" transform="translate(45.703125 0)"/>
     <use xlink:href="#DejaVuSans-Bold-65" transform="translate(149.902344 0)"/>
     <use xlink:href="#DejaVuSans-Bold-74" transform="translate(217.724609 0)"/>
     <use xlink:href="#DejaVuSans-Bold-72" transform="translate(265.527344 0)"/>
     <use xlink:href="#DejaVuSans-Bold-69" transform="translate(314.84375 0)"/>
     <use xlink:href="#DejaVuSans-Bold-63" transform="translate(349.121094 0)"/>
     <use xlink:href="#DejaVuSans-Bold-20" transform="translate(408.398438 0)"/>
     <use xlink:href="#DejaVuSans-Bold-64" transform="translate(443.212891 0)"/>
     <use xlink:href="#DejaVuSans-Bold-72" transform="translate(514.794922 0)"/>
     <use xlink:href="#DejaVuSans-Bold-6f" transform="translate(564.111328 0)"/>
     <use xlink:href="#DejaVuSans-Bold-70" transform="translate(632.8125 0)"/>
     <use xlink:href="#DejaVuSans-Bold-29" transform="translate(704.394531 0)"/>
    </g>
   </g>
   <g id="text_6">
    <!-- reactive: damage -->
    <g transform="translate(675.425391 239.076422) scale(0.09 -0.09)">
     <defs>
      <path id="DejaVuSans-Oblique-3a" d="M 978 3309 
L 1638 3309 
L 1484 2516 
L 825 2516 
L 978 3309 
z
M 488 794 
L 1147 794 
L 991 0 
L 331 0 
L 488 794 
z
" transform="scale(0.015625)"/>
      <path id="DejaVuSans-Oblique-6d" d="M 5747 2113 
L 5338 0 
L 4763 0 
L 5166 2094 
Q 5191 2228 5203 2325 
Q 5216 2422 5216 2491 
Q 5216 2772 5059 2928 
Q 4903 3084 4622 3084 
Q 4203 3084 3875 2770 
Q 3547 2456 3450 1953 
L 3066 0 
L 2491 0 
L 2900 2094 
Q 2925 2209 2937 2307 
Q 2950 2406 2950 2484 
Q 2950 2769 2794 2926 
Q 2638 3084 2363 3084 
Q 1938 3084 1609 2770 
Q 1281 2456 1184 1953 
L 800 0 
L 225 0 
L 909 3500 
L 1484 3500 
L 1375 2956 
Q 1609 3263 1923 3423 
Q 2238 3584 2597 3584 
Q 2978 3584 3223 3384 
Q 3469 3184 3519 2828 
Q 3781 3197 4126 3390 
Q 4472 3584 4856 3584 
Q 5306 3584 5551 3325 
Q 5797 3066 5797 2591 
Q 5797 2488 5784 2364 
Q 5772 2241 5747 2113 
z
" transform="scale(0.015625)"/>
      <path id="DejaVuSans-Oblique-67" d="M 3816 3500 
L 3219 434 
Q 3047 -456 2561 -893 
Q 2075 -1331 1253 -1331 
Q 950 -1331 690 -1286 
Q 431 -1241 206 -1147 
L 313 -588 
Q 525 -725 762 -790 
Q 1000 -856 1269 -856 
Q 1816 -856 2167 -557 
Q 2519 -259 2631 300 
L 2681 563 
Q 2441 288 2122 144 
Q 1803 0 1434 0 
Q 903 0 598 351 
Q 294 703 294 1319 
Q 294 1803 478 2267 
Q 663 2731 997 3091 
Q 1219 3328 1514 3456 
Q 1809 3584 2131 3584 
Q 2484 3584 2746 3420 
Q 3009 3256 3138 2956 
L 3238 3500 
L 3816 3500 
z
M 2950 2216 
Q 2950 2641 2750 2872 
Q 2550 3103 2181 3103 
Q 1953 3103 1747 3012 
Q 1541 2922 1394 2759 
Q 1156 2491 1023 2127 
Q 891 1763 891 1375 
Q 891 944 1092 712 
Q 1294 481 1672 481 
Q 2219 481 2584 976 
Q 2950 1472 2950 2216 
z
" transform="scale(0.015625)"/>
     </defs>
     <use xlink:href="#DejaVuSans-Oblique-72"/>
     <use xlink:href="#DejaVuSans-Oblique-65" transform="translate(41.113281 0)"/>
     <use xlink:href="#DejaVuSans-Oblique-61" transform="translate(102.636719 0)"/>
     <use xlink:href="#DejaVuSans-Oblique-63" transform="translate(163.916016 0)"/>
     <use xlink:href="#DejaVuSans-Oblique-74" transform="translate(218.896484 0)"/>
     <use xlink:href="#DejaVuSans-Oblique-69" transform="translate(258.105469 0)"/>
     <use xlink:href="#DejaVuSans-Oblique-76" transform="translate(285.888672 0)"/>
     <use xlink:href="#DejaVuSans-Oblique-65" transform="translate(345.068359 0)"/>
     <use xlink:href="#DejaVuSans-Oblique-3a" transform="translate(406.591797 0)"/>
     <use xlink:href="#DejaVuSans-Oblique-20" transform="translate(440.283203 0)"/>
     <use xlink:href="#DejaVuSans-Oblique-64" transform="translate(472.070312 0)"/>
     <use xlink:href="#DejaVuSans-Oblique-61" transform="translate(535.546875 0)"/>
     <use xlink:href="#DejaVuSans-Oblique-6d" transform="translate(596.826172 0)"/>
     <use xlink:href="#DejaVuSans-Oblique-61" transform="translate(694.238281 0)"/>
     <use xlink:href="#DejaVuSans-Oblique-67" transform="translate(755.517578 0)"/>
     <use xlink:href="#DejaVuSans-Oblique-65" transform="translate(818.994141 0)"/>
    </g>
    <!-- is already done -->
    <g transform="translate(680.459766 249.154453) scale(0.09 -0.09)">
     <defs>
      <path id="DejaVuSans-Oblique-79" d="M 1588 -325 
Q 1188 -997 936 -1164 
Q 684 -1331 294 -1331 
L -159 -1331 
L -63 -850 
L 269 -850 
Q 509 -850 678 -719 
Q 847 -588 1056 -206 
L 1234 128 
L 459 3500 
L 1069 3500 
L 1650 819 
L 3256 3500 
L 3859 3500 
L 1588 -325 
z
" transform="scale(0.015625)"/>
     </defs>
     <use xlink:href="#DejaVuSans-Oblique-69"/>
     <use xlink:href="#DejaVuSans-Oblique-73" transform="translate(27.783203 0)"/>
     <use xlink:href="#DejaVuSans-Oblique-20" transform="translate(79.882812 0)"/>
     <use xlink:href="#DejaVuSans-Oblique-61" transform="translate(111.669922 0)"/>
     <use xlink:href="#DejaVuSans-Oblique-6c" transform="translate(172.949219 0)"/>
     <use xlink:href="#DejaVuSans-Oblique-72" transform="translate(200.732422 0)"/>
     <use xlink:href="#DejaVuSans-Oblique-65" transform="translate(241.845703 0)"/>
     <use xlink:href="#DejaVuSans-Oblique-61" transform="translate(303.369141 0)"/>
     <use xlink:href="#DejaVuSans-Oblique-64" transform="translate(364.648438 0)"/>
     <use xlink:href="#DejaVuSans-Oblique-79" transform="translate(428.125 0)"/>
     <use xlink:href="#DejaVuSans-Oblique-20" transform="translate(487.304688 0)"/>
     <use xlink:href="#DejaVuSans-Oblique-64" transform="translate(519.091797 0)"/>
     <use xlink:href="#DejaVuSans-Oblique-6f" transform="translate(582.568359 0)"/>
     <use xlink:href="#DejaVuSans-Oblique-6e" transform="translate(643.75 0)"/>
     <use xlink:href="#DejaVuSans-Oblique-65" transform="translate(707.128906 0)"/>
    </g>
   </g>
  </g>
  <g id="axes_4">
   <g id="patch_20">
    <path d="M 863.1 290.16 
L 1137.6 290.16 
L 1137.6 47.52 
L 863.1 47.52 
z
" style="fill: #ffffff"/>
   </g>
   <g id="patch_21">
    <path d="M 876.825 193.104 
L 1123.875 193.104 
L 1123.875 120.312 
L 876.825 120.312 
z
" clip-path="url(#p469481311d)" style="fill: #59a14f; opacity: 0.7; stroke: #000000; stroke-width: 1.5; stroke-linejoin: miter"/>
   </g>
   <g id="matplotlib.axis_7"/>
   <g id="matplotlib.axis_8"/>
   <g id="patch_22">
    <path d="M 863.1 290.16 
L 863.1 47.52 
" style="fill: none; stroke: #000000; stroke-width: 0.8; stroke-linejoin: miter; stroke-linecap: square"/>
   </g>
   <g id="patch_23">
    <path d="M 1137.6 290.16 
L 1137.6 47.52 
" style="fill: none; stroke: #000000; stroke-width: 0.8; stroke-linejoin: miter; stroke-linecap: square"/>
   </g>
   <g id="patch_24">
    <path d="M 863.1 290.16 
L 1137.6 290.16 
" style="fill: none; stroke: #000000; stroke-width: 0.8; stroke-linejoin: miter; stroke-linecap: square"/>
   </g>
   <g id="patch_25">
    <path d="M 863.1 47.52 
L 1137.6 47.52 
" style="fill: none; stroke: #000000; stroke-width: 0.8; stroke-linejoin: miter; stroke-linecap: square"/>
   </g>
   <g id="text_7">
    <!-- Manual / event-based -->
    <g style="fill: #ffffff" transform="translate(939.519531 153.829406) scale(0.1 -0.1)">
     <defs>
      <path id="DejaVuSans-Bold-4d" d="M 588 4666 
L 2119 4666 
L 3181 2169 
L 4250 4666 
L 5778 4666 
L 5778 0 
L 4641 0 
L 4641 3413 
L 3566 897 
L 2803 897 
L 1728 3413 
L 1728 0 
L 588 0 
L 588 4666 
z
" transform="scale(0.015625)"/>
      <path id="DejaVuSans-Bold-76" d="M 97 3500 
L 1216 3500 
L 2088 1081 
L 2956 3500 
L 4078 3500 
L 2700 0 
L 1472 0 
L 97 3500 
z
" transform="scale(0.015625)"/>
     </defs>
     <use xlink:href="#DejaVuSans-Bold-4d"/>
     <use xlink:href="#DejaVuSans-Bold-61" transform="translate(99.511719 0)"/>
     <use xlink:href="#DejaVuSans-Bold-6e" transform="translate(166.992188 0)"/>
     <use xlink:href="#DejaVuSans-Bold-75" transform="translate(238.183594 0)"/>
     <use xlink:href="#DejaVuSans-Bold-61" transform="translate(309.375 0)"/>
     <use xlink:href="#DejaVuSans-Bold-6c" transform="translate(376.855469 0)"/>
     <use xlink:href="#DejaVuSans-Bold-20" transform="translate(411.132812 0)"/>
     <use xlink:href="#DejaVuSans-Bold-2f" transform="translate(445.947266 0)"/>
     <use xlink:href="#DejaVuSans-Bold-20" transform="translate(482.470703 0)"/>
     <use xlink:href="#DejaVuSans-Bold-65" transform="translate(517.285156 0)"/>
     <use xlink:href="#DejaVuSans-Bold-76" transform="translate(585.107422 0)"/>
     <use xlink:href="#DejaVuSans-Bold-65" transform="translate(650.292969 0)"/>
     <use xlink:href="#DejaVuSans-Bold-6e" transform="translate(718.115234 0)"/>
     <use xlink:href="#DejaVuSans-Bold-74" transform="translate(789.306641 0)"/>
     <use xlink:href="#DejaVuSans-Bold-2d" transform="translate(837.109375 0)"/>
     <use xlink:href="#DejaVuSans-Bold-62" transform="translate(878.613281 0)"/>
     <use xlink:href="#DejaVuSans-Bold-61" transform="translate(950.195312 0)"/>
     <use xlink:href="#DejaVuSans-Bold-73" transform="translate(1017.675781 0)"/>
     <use xlink:href="#DejaVuSans-Bold-65" transform="translate(1077.197266 0)"/>
     <use xlink:href="#DejaVuSans-Bold-64" transform="translate(1145.019531 0)"/>
    </g>
    <!-- (release, policy change) -->
    <g style="fill: #ffffff" transform="translate(932.602344 165.027219) scale(0.1 -0.1)">
     <defs>
      <path id="DejaVuSans-Bold-2c" d="M 653 1209 
L 1778 1209 
L 1778 256 
L 1006 -909 
L 341 -909 
L 653 256 
L 653 1209 
z
" transform="scale(0.015625)"/>
     </defs>
     <use xlink:href="#DejaVuSans-Bold-28"/>
     <use xlink:href="#DejaVuSans-Bold-72" transform="translate(45.703125 0)"/>
     <use xlink:href="#DejaVuSans-Bold-65" transform="translate(95.019531 0)"/>
     <use xlink:href="#DejaVuSans-Bold-6c" transform="translate(162.841797 0)"/>
     <use xlink:href="#DejaVuSans-Bold-65" transform="translate(197.119141 0)"/>
     <use xlink:href="#DejaVuSans-Bold-61" transform="translate(264.941406 0)"/>
     <use xlink:href="#DejaVuSans-Bold-73" transform="translate(332.421875 0)"/>
     <use xlink:href="#DejaVuSans-Bold-65" transform="translate(391.943359 0)"/>
     <use xlink:href="#DejaVuSans-Bold-2c" transform="translate(459.765625 0)"/>
     <use xlink:href="#DejaVuSans-Bold-20" transform="translate(497.753906 0)"/>
     <use xlink:href="#DejaVuSans-Bold-70" transform="translate(532.568359 0)"/>
     <use xlink:href="#DejaVuSans-Bold-6f" transform="translate(604.150391 0)"/>
     <use xlink:href="#DejaVuSans-Bold-6c" transform="translate(672.851562 0)"/>
     <use xlink:href="#DejaVuSans-Bold-69" transform="translate(707.128906 0)"/>
     <use xlink:href="#DejaVuSans-Bold-63" transform="translate(741.40625 0)"/>
     <use xlink:href="#DejaVuSans-Bold-79" transform="translate(800.683594 0)"/>
     <use xlink:href="#DejaVuSans-Bold-20" transform="translate(865.869141 0)"/>
     <use xlink:href="#DejaVuSans-Bold-63" transform="translate(900.683594 0)"/>
     <use xlink:href="#DejaVuSans-Bold-68" transform="translate(959.960938 0)"/>
     <use xlink:href="#DejaVuSans-Bold-61" transform="translate(1031.152344 0)"/>
     <use xlink:href="#DejaVuSans-Bold-6e" transform="translate(1098.632812 0)"/>
     <use xlink:href="#DejaVuSans-Bold-67" transform="translate(1169.824219 0)"/>
     <use xlink:href="#DejaVuSans-Bold-65" transform="translate(1241.40625 0)"/>
     <use xlink:href="#DejaVuSans-Bold-29" transform="translate(1309.228516 0)"/>
    </g>
   </g>
   <g id="text_8">
    <!-- human-in-the-loop -->
    <g transform="translate(958.682109 239.076422) scale(0.09 -0.09)">
     <defs>
      <path id="DejaVuSans-Oblique-68" d="M 3566 2113 
L 3156 0 
L 2578 0 
L 2988 2091 
Q 3016 2238 3031 2350 
Q 3047 2463 3047 2528 
Q 3047 2791 2881 2937 
Q 2716 3084 2419 3084 
Q 1956 3084 1617 2771 
Q 1278 2459 1178 1941 
L 800 0 
L 225 0 
L 1172 4863 
L 1747 4863 
L 1375 2950 
Q 1594 3244 1934 3414 
Q 2275 3584 2650 3584 
Q 3113 3584 3367 3334 
Q 3622 3084 3622 2631 
Q 3622 2519 3608 2391 
Q 3594 2263 3566 2113 
z
" transform="scale(0.015625)"/>
      <path id="DejaVuSans-Oblique-75" d="M 428 1388 
L 838 3500 
L 1416 3500 
L 1006 1409 
Q 975 1256 961 1147 
Q 947 1038 947 966 
Q 947 700 1109 554 
Q 1272 409 1569 409 
Q 2031 409 2368 721 
Q 2706 1034 2809 1563 
L 3194 3500 
L 3769 3500 
L 3091 0 
L 2516 0 
L 2631 550 
Q 2388 244 2052 76 
Q 1716 -91 1338 -91 
Q 878 -91 622 161 
Q 366 413 366 863 
Q 366 956 381 1097 
Q 397 1238 428 1388 
z
" transform="scale(0.015625)"/>
     </defs>
     <use xlink:href="#DejaVuSans-Oblique-68"/>
     <use xlink:href="#DejaVuSans-Oblique-75" transform="translate(63.378906 0)"/>
     <use xlink:href="#DejaVuSans-Oblique-6d" transform="translate(126.757812 0)"/>
     <use xlink:href="#DejaVuSans-Oblique-61" transform="translate(224.169922 0)"/>
     <use xlink:href="#DejaVuSans-Oblique-6e" transform="translate(285.449219 0)"/>
     <use xlink:href="#DejaVuSans-Oblique-2d" transform="translate(348.828125 0)"/>
     <use xlink:href="#DejaVuSans-Oblique-69" transform="translate(384.912109 0)"/>
     <use xlink:href="#DejaVuSans-Oblique-6e" transform="translate(412.695312 0)"/>
     <use xlink:href="#DejaVuSans-Oblique-2d" transform="translate(476.074219 0)"/>
     <use xlink:href="#DejaVuSans-Oblique-74" transform="translate(512.158203 0)"/>
     <use xlink:href="#DejaVuSans-Oblique-68" transform="translate(551.367188 0)"/>
     <use xlink:href="#DejaVuSans-Oblique-65" transform="translate(614.746094 0)"/>
     <use xlink:href="#DejaVuSans-Oblique-2d" transform="translate(676.269531 0)"/>
     <use xlink:href="#DejaVuSans-Oblique-6c" transform="translate(712.353516 0)"/>
     <use xlink:href="#DejaVuSans-Oblique-6f" transform="translate(740.136719 0)"/>
     <use xlink:href="#DejaVuSans-Oblique-6f" transform="translate(801.318359 0)"/>
     <use xlink:href="#DejaVuSans-Oblique-70" transform="translate(862.5 0)"/>
    </g>
    <!-- not scalable -->
    <g transform="translate(973.090547 249.154453) scale(0.09 -0.09)">
     <use xlink:href="#DejaVuSans-Oblique-6e"/>
     <use xlink:href="#DejaVuSans-Oblique-6f" transform="translate(63.378906 0)"/>
     <use xlink:href="#DejaVuSans-Oblique-74" transform="translate(124.560547 0)"/>
     <use xlink:href="#DejaVuSans-Oblique-20" transform="translate(163.769531 0)"/>
     <use xlink:href="#DejaVuSans-Oblique-73" transform="translate(195.556641 0)"/>
     <use xlink:href="#DejaVuSans-Oblique-63" transform="translate(247.65625 0)"/>
     <use xlink:href="#DejaVuSans-Oblique-61" transform="translate(302.636719 0)"/>
     <use xlink:href="#DejaVuSans-Oblique-6c" transform="translate(363.916016 0)"/>
     <use xlink:href="#DejaVuSans-Oblique-61" transform="translate(391.699219 0)"/>
     <use xlink:href="#DejaVuSans-Oblique-62" transform="translate(452.978516 0)"/>
     <use xlink:href="#DejaVuSans-Oblique-6c" transform="translate(516.455078 0)"/>
     <use xlink:href="#DejaVuSans-Oblique-65" transform="translate(544.238281 0)"/>
    </g>
   </g>
  </g>
  <g id="text_9">
   <!-- 4 retraining triggers: when to start retraining? -->
   <g transform="translate(433.813125 16.318125) scale(0.12 -0.12)">
    <defs>
     <path id="DejaVuSans-34" d="M 2419 4116 
L 825 1625 
L 2419 1625 
L 2419 4116 
z
M 2253 4666 
L 3047 4666 
L 3047 1625 
L 3713 1625 
L 3713 1100 
L 3047 1100 
L 3047 0 
L 2419 0 
L 2419 1100 
L 313 1100 
L 313 1709 
L 2253 4666 
z
" transform="scale(0.015625)"/>
     <path id="DejaVuSans-20" transform="scale(0.015625)"/>
     <path id="DejaVuSans-72" d="M 2631 2963 
Q 2534 3019 2420 3045 
Q 2306 3072 2169 3072 
Q 1681 3072 1420 2755 
Q 1159 2438 1159 1844 
L 1159 0 
L 581 0 
L 581 3500 
L 1159 3500 
L 1159 2956 
Q 1341 3275 1631 3429 
Q 1922 3584 2338 3584 
Q 2397 3584 2469 3576 
Q 2541 3569 2628 3553 
L 2631 2963 
z
" transform="scale(0.015625)"/>
     <path id="DejaVuSans-65" d="M 3597 1894 
L 3597 1613 
L 953 1613 
Q 991 1019 1311 708 
Q 1631 397 2203 397 
Q 2534 397 2845 478 
Q 3156 559 3463 722 
L 3463 178 
Q 3153 47 2828 -22 
Q 2503 -91 2169 -91 
Q 1331 -91 842 396 
Q 353 884 353 1716 
Q 353 2575 817 3079 
Q 1281 3584 2069 3584 
Q 2775 3584 3186 3129 
Q 3597 2675 3597 1894 
z
M 3022 2063 
Q 3016 2534 2758 2815 
Q 2500 3097 2075 3097 
Q 1594 3097 1305 2825 
Q 1016 2553 972 2059 
L 3022 2063 
z
" transform="scale(0.015625)"/>
     <path id="DejaVuSans-74" d="M 1172 4494 
L 1172 3500 
L 2356 3500 
L 2356 3053 
L 1172 3053 
L 1172 1153 
Q 1172 725 1289 603 
Q 1406 481 1766 481 
L 2356 481 
L 2356 0 
L 1766 0 
Q 1100 0 847 248 
Q 594 497 594 1153 
L 594 3053 
L 172 3053 
L 172 3500 
L 594 3500 
L 594 4494 
L 1172 4494 
z
" transform="scale(0.015625)"/>
     <path id="DejaVuSans-61" d="M 2194 1759 
Q 1497 1759 1228 1600 
Q 959 1441 959 1056 
Q 959 750 1161 570 
Q 1363 391 1709 391 
Q 2188 391 2477 730 
Q 2766 1069 2766 1631 
L 2766 1759 
L 2194 1759 
z
M 3341 1997 
L 3341 0 
L 2766 0 
L 2766 531 
Q 2569 213 2275 61 
Q 1981 -91 1556 -91 
Q 1019 -91 701 211 
Q 384 513 384 1019 
Q 384 1609 779 1909 
Q 1175 2209 1959 2209 
L 2766 2209 
L 2766 2266 
Q 2766 2663 2505 2880 
Q 2244 3097 1772 3097 
Q 1472 3097 1187 3025 
Q 903 2953 641 2809 
L 641 3341 
Q 956 3463 1253 3523 
Q 1550 3584 1831 3584 
Q 2591 3584 2966 3190 
Q 3341 2797 3341 1997 
z
" transform="scale(0.015625)"/>
     <path id="DejaVuSans-69" d="M 603 3500 
L 1178 3500 
L 1178 0 
L 603 0 
L 603 3500 
z
M 603 4863 
L 1178 4863 
L 1178 4134 
L 603 4134 
L 603 4863 
z
" transform="scale(0.015625)"/>
     <path id="DejaVuSans-6e" d="M 3513 2113 
L 3513 0 
L 2938 0 
L 2938 2094 
Q 2938 2591 2744 2837 
Q 2550 3084 2163 3084 
Q 1697 3084 1428 2787 
Q 1159 2491 1159 1978 
L 1159 0 
L 581 0 
L 581 3500 
L 1159 3500 
L 1159 2956 
Q 1366 3272 1645 3428 
Q 1925 3584 2291 3584 
Q 2894 3584 3203 3211 
Q 3513 2838 3513 2113 
z
" transform="scale(0.015625)"/>
     <path id="DejaVuSans-67" d="M 2906 1791 
Q 2906 2416 2648 2759 
Q 2391 3103 1925 3103 
Q 1463 3103 1205 2759 
Q 947 2416 947 1791 
Q 947 1169 1205 825 
Q 1463 481 1925 481 
Q 2391 481 2648 825 
Q 2906 1169 2906 1791 
z
M 3481 434 
Q 3481 -459 3084 -895 
Q 2688 -1331 1869 -1331 
Q 1566 -1331 1297 -1286 
Q 1028 -1241 775 -1147 
L 775 -588 
Q 1028 -725 1275 -790 
Q 1522 -856 1778 -856 
Q 2344 -856 2625 -561 
Q 2906 -266 2906 331 
L 2906 616 
Q 2728 306 2450 153 
Q 2172 0 1784 0 
Q 1141 0 747 490 
Q 353 981 353 1791 
Q 353 2603 747 3093 
Q 1141 3584 1784 3584 
Q 2172 3584 2450 3431 
Q 2728 3278 2906 2969 
L 2906 3500 
L 3481 3500 
L 3481 434 
z
" transform="scale(0.015625)"/>
     <path id="DejaVuSans-73" d="M 2834 3397 
L 2834 2853 
Q 2591 2978 2328 3040 
Q 2066 3103 1784 3103 
Q 1356 3103 1142 2972 
Q 928 2841 928 2578 
Q 928 2378 1081 2264 
Q 1234 2150 1697 2047 
L 1894 2003 
Q 2506 1872 2764 1633 
Q 3022 1394 3022 966 
Q 3022 478 2636 193 
Q 2250 -91 1575 -91 
Q 1294 -91 989 -36 
Q 684 19 347 128 
L 347 722 
Q 666 556 975 473 
Q 1284 391 1588 391 
Q 1994 391 2212 530 
Q 2431 669 2431 922 
Q 2431 1156 2273 1281 
Q 2116 1406 1581 1522 
L 1381 1569 
Q 847 1681 609 1914 
Q 372 2147 372 2553 
Q 372 3047 722 3315 
Q 1072 3584 1716 3584 
Q 2034 3584 2315 3537 
Q 2597 3491 2834 3397 
z
" transform="scale(0.015625)"/>
     <path id="DejaVuSans-3a" d="M 750 794 
L 1409 794 
L 1409 0 
L 750 0 
L 750 794 
z
M 750 3309 
L 1409 3309 
L 1409 2516 
L 750 2516 
L 750 3309 
z
" transform="scale(0.015625)"/>
     <path id="DejaVuSans-77" d="M 269 3500 
L 844 3500 
L 1563 769 
L 2278 3500 
L 2956 3500 
L 3675 769 
L 4391 3500 
L 4966 3500 
L 4050 0 
L 3372 0 
L 2619 2869 
L 1863 0 
L 1184 0 
L 269 3500 
z
" transform="scale(0.015625)"/>
     <path id="DejaVuSans-68" d="M 3513 2113 
L 3513 0 
L 2938 0 
L 2938 2094 
Q 2938 2591 2744 2837 
Q 2550 3084 2163 3084 
Q 1697 3084 1428 2787 
Q 1159 2491 1159 1978 
L 1159 0 
L 581 0 
L 581 4863 
L 1159 4863 
L 1159 2956 
Q 1366 3272 1645 3428 
Q 1925 3584 2291 3584 
Q 2894 3584 3203 3211 
Q 3513 2838 3513 2113 
z
" transform="scale(0.015625)"/>
     <path id="DejaVuSans-6f" d="M 1959 3097 
Q 1497 3097 1228 2736 
Q 959 2375 959 1747 
Q 959 1119 1226 758 
Q 1494 397 1959 397 
Q 2419 397 2687 759 
Q 2956 1122 2956 1747 
Q 2956 2369 2687 2733 
Q 2419 3097 1959 3097 
z
M 1959 3584 
Q 2709 3584 3137 3096 
Q 3566 2609 3566 1747 
Q 3566 888 3137 398 
Q 2709 -91 1959 -91 
Q 1206 -91 779 398 
Q 353 888 353 1747 
Q 353 2609 779 3096 
Q 1206 3584 1959 3584 
z
" transform="scale(0.015625)"/>
     <path id="DejaVuSans-3f" d="M 1222 794 
L 1856 794 
L 1856 0 
L 1222 0 
L 1222 794 
z
M 1838 1253 
L 1241 1253 
L 1241 1734 
Q 1241 2050 1328 2253 
Q 1416 2456 1697 2725 
L 1978 3003 
Q 2156 3169 2236 3316 
Q 2316 3463 2316 3616 
Q 2316 3894 2111 4066 
Q 1906 4238 1569 4238 
Q 1322 4238 1042 4128 
Q 763 4019 459 3809 
L 459 4397 
Q 753 4575 1054 4662 
Q 1356 4750 1678 4750 
Q 2253 4750 2601 4447 
Q 2950 4144 2950 3647 
Q 2950 3409 2837 3195 
Q 2725 2981 2444 2713 
L 2169 2444 
Q 2022 2297 1961 2214 
Q 1900 2131 1875 2053 
Q 1856 1988 1847 1894 
Q 1838 1800 1838 1638 
L 1838 1253 
z
" transform="scale(0.015625)"/>
    </defs>
    <use xlink:href="#DejaVuSans-34"/>
    <use xlink:href="#DejaVuSans-20" transform="translate(63.623047 0)"/>
    <use xlink:href="#DejaVuSans-72" transform="translate(95.410156 0)"/>
    <use xlink:href="#DejaVuSans-65" transform="translate(134.273438 0)"/>
    <use xlink:href="#DejaVuSans-74" transform="translate(195.796875 0)"/>
    <use xlink:href="#DejaVuSans-72" transform="translate(235.005859 0)"/>
    <use xlink:href="#DejaVuSans-61" transform="translate(276.119141 0)"/>
    <use xlink:href="#DejaVuSans-69" transform="translate(337.398438 0)"/>
    <use xlink:href="#DejaVuSans-6e" transform="translate(365.181641 0)"/>
    <use xlink:href="#DejaVuSans-69" transform="translate(428.560547 0)"/>
    <use xlink:href="#DejaVuSans-6e" transform="translate(456.34375 0)"/>
    <use xlink:href="#DejaVuSans-67" transform="translate(519.722656 0)"/>
    <use xlink:href="#DejaVuSans-20" transform="translate(583.199219 0)"/>
    <use xlink:href="#DejaVuSans-74" transform="translate(614.986328 0)"/>
    <use xlink:href="#DejaVuSans-72" transform="translate(654.195312 0)"/>
    <use xlink:href="#DejaVuSans-69" transform="translate(695.308594 0)"/>
    <use xlink:href="#DejaVuSans-67" transform="translate(723.091797 0)"/>
    <use xlink:href="#DejaVuSans-67" transform="translate(786.568359 0)"/>
    <use xlink:href="#DejaVuSans-65" transform="translate(850.044922 0)"/>
    <use xlink:href="#DejaVuSans-72" transform="translate(911.568359 0)"/>
    <use xlink:href="#DejaVuSans-73" transform="translate(952.681641 0)"/>
    <use xlink:href="#DejaVuSans-3a" transform="translate(1004.78125 0)"/>
    <use xlink:href="#DejaVuSans-20" transform="translate(1038.472656 0)"/>
    <use xlink:href="#DejaVuSans-77" transform="translate(1070.259766 0)"/>
    <use xlink:href="#DejaVuSans-68" transform="translate(1152.046875 0)"/>
    <use xlink:href="#DejaVuSans-65" transform="translate(1215.425781 0)"/>
    <use xlink:href="#DejaVuSans-6e" transform="translate(1276.949219 0)"/>
    <use xlink:href="#DejaVuSans-20" transform="translate(1340.328125 0)"/>
    <use xlink:href="#DejaVuSans-74" transform="translate(1372.115234 0)"/>
    <use xlink:href="#DejaVuSans-6f" transform="translate(1411.324219 0)"/>
    <use xlink:href="#DejaVuSans-20" transform="translate(1472.505859 0)"/>
    <use xlink:href="#DejaVuSans-73" transform="translate(1504.292969 0)"/>
    <use xlink:href="#DejaVuSans-74" transform="translate(1556.392578 0)"/>
    <use xlink:href="#DejaVuSans-61" transform="translate(1595.601562 0)"/>
    <use xlink:href="#DejaVuSans-72" transform="translate(1656.880859 0)"/>
    <use xlink:href="#DejaVuSans-74" transform="translate(1697.994141 0)"/>
    <use xlink:href="#DejaVuSans-20" transform="translate(1737.203125 0)"/>
    <use xlink:href="#DejaVuSans-72" transform="translate(1768.990234 0)"/>
    <use xlink:href="#DejaVuSans-65" transform="translate(1807.853516 0)"/>
    <use xlink:href="#DejaVuSans-74" transform="translate(1869.376953 0)"/>
    <use xlink:href="#DejaVuSans-72" transform="translate(1908.585938 0)"/>
    <use xlink:href="#DejaVuSans-61" transform="translate(1949.699219 0)"/>
    <use xlink:href="#DejaVuSans-69" transform="translate(2010.978516 0)"/>
    <use xlink:href="#DejaVuSans-6e" transform="translate(2038.761719 0)"/>
    <use xlink:href="#DejaVuSans-69" transform="translate(2102.140625 0)"/>
    <use xlink:href="#DejaVuSans-6e" transform="translate(2129.923828 0)"/>
    <use xlink:href="#DejaVuSans-67" transform="translate(2193.302734 0)"/>
    <use xlink:href="#DejaVuSans-3f" transform="translate(2256.779297 0)"/>
   </g>
  </g>
 </g>
 <defs>
  <clipPath id="p14b8eab0ba">
   <rect x="7.2" y="47.52" width="274.5" height="242.64"/>
  </clipPath>
  <clipPath id="p12450dff00">
   <rect x="292.5" y="47.52" width="274.5" height="242.64"/>
  </clipPath>
  <clipPath id="pbd35aecb3b">
   <rect x="577.8" y="47.52" width="274.5" height="242.64"/>
  </clipPath>
  <clipPath id="p469481311d">
   <rect x="863.1" y="47.52" width="274.5" height="242.64"/>
  </clipPath>
 </defs>
</svg>
