<?xml version="1.0" encoding="utf-8" standalone="no"?>
<!DOCTYPE svg PUBLIC "-//W3C//DTD SVG 1.1//EN"
  "http://www.w3.org/Graphics/SVG/1.1/DTD/svg11.dtd">
<svg xmlns:xlink="http://www.w3.org/1999/xlink" width="640.620625pt" height="311.722375pt" viewBox="0 0 640.620625 311.722375" xmlns="http://www.w3.org/2000/svg" version="1.1">
 <metadata>
  <rdf:RDF xmlns:dc="http://purl.org/dc/elements/1.1/" xmlns:cc="http://creativecommons.org/ns#" xmlns:rdf="http://www.w3.org/1999/02/22-rdf-syntax-ns#">
   <cc:Work>
    <dc:type rdf:resource="http://purl.org/dc/dcmitype/StillImage"/>
    <dc:date>2026-05-26T11:32:36.497102</dc:date>
    <dc:format>image/svg+xml</dc:format>
    <dc:creator>
     <cc:Agent>
      <dc:title>Matplotlib v3.10.8, https://matplotlib.org/</dc:title>
     </cc:Agent>
    </dc:creator>
   </cc:Work>
  </rdf:RDF>
 </metadata>
 <defs>
  <style type="text/css">*{stroke-linejoin: round; stroke-linecap: butt}</style>
 </defs>
 <g id="figure_1">
  <g id="patch_1">
   <path d="M -0 311.722375 
L 640.620625 311.722375 
L 640.620625 0 
L -0 0 
z
" style="fill: #ffffff"/>
  </g>
  <g id="axes_1">
   <g id="patch_2">
    <path d="M 59.690625 274.166125 
L 633.420625 274.166125 
L 633.420625 22.318125 
L 59.690625 22.318125 
z
" style="fill: #ffffff"/>
   </g>
   <g id="matplotlib.axis_1">
    <g id="xtick_1">
     <g id="line2d_1">
      <path d="M 85.769261 274.166125 
L 85.769261 22.318125 
" clip-path="url(#p581381cfaa)" style="fill: none; stroke: #b0b0b0; stroke-opacity: 0.25; stroke-width: 0.8; stroke-linecap: square"/>
     </g>
     <g id="line2d_2">
      <defs>
       <path id="mb5df0aa206" d="M 0 0 
L 0 3.5 
" style="stroke: #000000; stroke-width: 0.8"/>
      </defs>
      <g>
       <use xlink:href="#mb5df0aa206" x="85.769261" y="274.166125" style="stroke: #000000; stroke-width: 0.8"/>
      </g>
     </g>
     <g id="text_1">
      <!-- $\mathdefault{10^{0}}$ -->
      <g transform="translate(76.969261 288.764563) scale(0.1 -0.1)">
       <defs>
        <path id="DejaVuSans-31" d="M 794 531 
L 1825 531 
L 1825 4091 
L 703 3866 
L 703 4441 
L 1819 4666 
L 2450 4666 
L 2450 531 
L 3481 531 
L 3481 0 
L 794 0 
L 794 531 
z
" transform="scale(0.015625)"/>
        <path id="DejaVuSans-30" d="M 2034 4250 
Q 1547 4250 1301 3770 
Q 1056 3291 1056 2328 
Q 1056 1369 1301 889 
Q 1547 409 2034 409 
Q 2525 409 2770 889 
Q 3016 1369 3016 2328 
Q 3016 3291 2770 3770 
Q 2525 4250 2034 4250 
z
M 2034 4750 
Q 2819 4750 3233 4129 
Q 3647 3509 3647 2328 
Q 3647 1150 3233 529 
Q 2819 -91 2034 -91 
Q 1250 -91 836 529 
Q 422 1150 422 2328 
Q 422 3509 836 4129 
Q 1250 4750 2034 4750 
z
" transform="scale(0.015625)"/>
       </defs>
       <use xlink:href="#DejaVuSans-31" transform="translate(0 0.765625)"/>
       <use xlink:href="#DejaVuSans-30" transform="translate(63.623047 0.765625)"/>
       <use xlink:href="#DejaVuSans-30" transform="translate(128.203125 39.046875) scale(0.7)"/>
      </g>
     </g>
    </g>
    <g id="xtick_2">
     <g id="line2d_3">
      <path d="M 317.037423 274.166125 
L 317.037423 22.318125 
" clip-path="url(#p581381cfaa)" style="fill: none; stroke: #b0b0b0; stroke-opacity: 0.25; stroke-width: 0.8; stroke-linecap: square"/>
     </g>
     <g id="line2d_4">
      <g>
       <use xlink:href="#mb5df0aa206" x="317.037423" y="274.166125" style="stroke: #000000; stroke-width: 0.8"/>
      </g>
     </g>
     <g id="text_2">
      <!-- $\mathdefault{10^{1}}$ -->
      <g transform="translate(308.237423 288.764563) scale(0.1 -0.1)">
       <use xlink:href="#DejaVuSans-31" transform="translate(0 0.684375)"/>
       <use xlink:href="#DejaVuSans-30" transform="translate(63.623047 0.684375)"/>
       <use xlink:href="#DejaVuSans-31" transform="translate(128.203125 38.965625) scale(0.7)"/>
      </g>
     </g>
    </g>
    <g id="xtick_3">
     <g id="line2d_5">
      <path d="M 548.305586 274.166125 
L 548.305586 22.318125 
" clip-path="url(#p581381cfaa)" style="fill: none; stroke: #b0b0b0; stroke-opacity: 0.25; stroke-width: 0.8; stroke-linecap: square"/>
     </g>
     <g id="line2d_6">
      <g>
       <use xlink:href="#mb5df0aa206" x="548.305586" y="274.166125" style="stroke: #000000; stroke-width: 0.8"/>
      </g>
     </g>
     <g id="text_3">
      <!-- $\mathdefault{10^{2}}$ -->
      <g transform="translate(539.505586 288.764563) scale(0.1 -0.1)">
       <defs>
        <path id="DejaVuSans-32" d="M 1228 531 
L 3431 531 
L 3431 0 
L 469 0 
L 469 531 
Q 828 903 1448 1529 
Q 2069 2156 2228 2338 
Q 2531 2678 2651 2914 
Q 2772 3150 2772 3378 
Q 2772 3750 2511 3984 
Q 2250 4219 1831 4219 
Q 1534 4219 1204 4116 
Q 875 4013 500 3803 
L 500 4441 
Q 881 4594 1212 4672 
Q 1544 4750 1819 4750 
Q 2544 4750 2975 4387 
Q 3406 4025 3406 3419 
Q 3406 3131 3298 2873 
Q 3191 2616 2906 2266 
Q 2828 2175 2409 1742 
Q 1991 1309 1228 531 
z
" transform="scale(0.015625)"/>
       </defs>
       <use xlink:href="#DejaVuSans-31" transform="translate(0 0.765625)"/>
       <use xlink:href="#DejaVuSans-30" transform="translate(63.623047 0.765625)"/>
       <use xlink:href="#DejaVuSans-32" transform="translate(128.203125 39.046875) scale(0.7)"/>
      </g>
     </g>
    </g>
    <g id="xtick_4">
     <g id="line2d_7">
      <defs>
       <path id="m64b079567e" d="M 0 0 
L 0 2 
" style="stroke: #000000; stroke-width: 0.6"/>
      </defs>
      <g>
       <use xlink:href="#m64b079567e" x="63.357061" y="274.166125" style="stroke: #000000; stroke-width: 0.6"/>
      </g>
     </g>
    </g>
    <g id="xtick_5">
     <g id="line2d_8">
      <g>
       <use xlink:href="#m64b079567e" x="75.187011" y="274.166125" style="stroke: #000000; stroke-width: 0.6"/>
      </g>
     </g>
    </g>
    <g id="xtick_6">
     <g id="line2d_9">
      <g>
       <use xlink:href="#m64b079567e" x="155.387915" y="274.166125" style="stroke: #000000; stroke-width: 0.6"/>
      </g>
     </g>
    </g>
    <g id="xtick_7">
     <g id="line2d_10">
      <g>
       <use xlink:href="#m64b079567e" x="196.112217" y="274.166125" style="stroke: #000000; stroke-width: 0.6"/>
      </g>
     </g>
    </g>
    <g id="xtick_8">
     <g id="line2d_11">
      <g>
       <use xlink:href="#m64b079567e" x="225.006569" y="274.166125" style="stroke: #000000; stroke-width: 0.6"/>
      </g>
     </g>
    </g>
    <g id="xtick_9">
     <g id="line2d_12">
      <g>
       <use xlink:href="#m64b079567e" x="247.41877" y="274.166125" style="stroke: #000000; stroke-width: 0.6"/>
      </g>
     </g>
    </g>
    <g id="xtick_10">
     <g id="line2d_13">
      <g>
       <use xlink:href="#m64b079567e" x="265.730871" y="274.166125" style="stroke: #000000; stroke-width: 0.6"/>
      </g>
     </g>
    </g>
    <g id="xtick_11">
     <g id="line2d_14">
      <g>
       <use xlink:href="#m64b079567e" x="281.213532" y="274.166125" style="stroke: #000000; stroke-width: 0.6"/>
      </g>
     </g>
    </g>
    <g id="xtick_12">
     <g id="line2d_15">
      <g>
       <use xlink:href="#m64b079567e" x="294.625223" y="274.166125" style="stroke: #000000; stroke-width: 0.6"/>
      </g>
     </g>
    </g>
    <g id="xtick_13">
     <g id="line2d_16">
      <g>
       <use xlink:href="#m64b079567e" x="306.455173" y="274.166125" style="stroke: #000000; stroke-width: 0.6"/>
      </g>
     </g>
    </g>
    <g id="xtick_14">
     <g id="line2d_17">
      <g>
       <use xlink:href="#m64b079567e" x="386.656077" y="274.166125" style="stroke: #000000; stroke-width: 0.6"/>
      </g>
     </g>
    </g>
    <g id="xtick_15">
     <g id="line2d_18">
      <g>
       <use xlink:href="#m64b079567e" x="427.380379" y="274.166125" style="stroke: #000000; stroke-width: 0.6"/>
      </g>
     </g>
    </g>
    <g id="xtick_16">
     <g id="line2d_19">
      <g>
       <use xlink:href="#m64b079567e" x="456.274731" y="274.166125" style="stroke: #000000; stroke-width: 0.6"/>
      </g>
     </g>
    </g>
    <g id="xtick_17">
     <g id="line2d_20">
      <g>
       <use xlink:href="#m64b079567e" x="478.686932" y="274.166125" style="stroke: #000000; stroke-width: 0.6"/>
      </g>
     </g>
    </g>
    <g id="xtick_18">
     <g id="line2d_21">
      <g>
       <use xlink:href="#m64b079567e" x="496.999033" y="274.166125" style="stroke: #000000; stroke-width: 0.6"/>
      </g>
     </g>
    </g>
    <g id="xtick_19">
     <g id="line2d_22">
      <g>
       <use xlink:href="#m64b079567e" x="512.481694" y="274.166125" style="stroke: #000000; stroke-width: 0.6"/>
      </g>
     </g>
    </g>
    <g id="xtick_20">
     <g id="line2d_23">
      <g>
       <use xlink:href="#m64b079567e" x="525.893385" y="274.166125" style="stroke: #000000; stroke-width: 0.6"/>
      </g>
     </g>
    </g>
    <g id="xtick_21">
     <g id="line2d_24">
      <g>
       <use xlink:href="#m64b079567e" x="537.723335" y="274.166125" style="stroke: #000000; stroke-width: 0.6"/>
      </g>
     </g>
    </g>
    <g id="xtick_22">
     <g id="line2d_25">
      <g>
       <use xlink:href="#m64b079567e" x="617.924239" y="274.166125" style="stroke: #000000; stroke-width: 0.6"/>
      </g>
     </g>
    </g>
    <g id="text_4">
     <!-- retraining interval (days, log scale) -->
     <g transform="translate(258.948594 302.442687) scale(0.1 -0.1)">
      <defs>
       <path id="DejaVuSans-72" d="M 2631 2963 
Q 2534 3019 2420 3045 
Q 2306 3072 2169 3072 
Q 1681 3072 1420 2755 
Q 1159 2438 1159 1844 
L 1159 0 
L 581 0 
L 581 3500 
L 1159 3500 
L 1159 2956 
Q 1341 3275 1631 3429 
Q 1922 3584 2338 3584 
Q 2397 3584 2469 3576 
Q 2541 3569 2628 3553 
L 2631 2963 
z
" transform="scale(0.015625)"/>
       <path id="DejaVuSans-65" d="M 3597 1894 
L 3597 1613 
L 953 1613 
Q 991 1019 1311 708 
Q 1631 397 2203 397 
Q 2534 397 2845 478 
Q 3156 559 3463 722 
L 3463 178 
Q 3153 47 2828 -22 
Q 2503 -91 2169 -91 
Q 1331 -91 842 396 
Q 353 884 353 1716 
Q 353 2575 817 3079 
Q 1281 3584 2069 3584 
Q 2775 3584 3186 3129 
Q 3597 2675 3597 1894 
z
M 3022 2063 
Q 3016 2534 2758 2815 
Q 2500 3097 2075 3097 
Q 1594 3097 1305 2825 
Q 1016 2553 972 2059 
L 3022 2063 
z
" transform="scale(0.015625)"/>
       <path id="DejaVuSans-74" d="M 1172 4494 
L 1172 3500 
L 2356 3500 
L 2356 3053 
L 1172 3053 
L 1172 1153 
Q 1172 725 1289 603 
Q 1406 481 1766 481 
L 2356 481 
L 2356 0 
L 1766 0 
Q 1100 0 847 248 
Q 594 497 594 1153 
L 594 3053 
L 172 3053 
L 172 3500 
L 594 3500 
L 594 4494 
L 1172 4494 
z
" transform="scale(0.015625)"/>
       <path id="DejaVuSans-61" d="M 2194 1759 
Q 1497 1759 1228 1600 
Q 959 1441 959 1056 
Q 959 750 1161 570 
Q 1363 391 1709 391 
Q 2188 391 2477 730 
Q 2766 1069 2766 1631 
L 2766 1759 
L 2194 1759 
z
M 3341 1997 
L 3341 0 
L 2766 0 
L 2766 531 
Q 2569 213 2275 61 
Q 1981 -91 1556 -91 
Q 1019 -91 701 211 
Q 384 513 384 1019 
Q 384 1609 779 1909 
Q 1175 2209 1959 2209 
L 2766 2209 
L 2766 2266 
Q 2766 2663 2505 2880 
Q 2244 3097 1772 3097 
Q 1472 3097 1187 3025 
Q 903 2953 641 2809 
L 641 3341 
Q 956 3463 1253 3523 
Q 1550 3584 1831 3584 
Q 2591 3584 2966 3190 
Q 3341 2797 3341 1997 
z
" transform="scale(0.015625)"/>
       <path id="DejaVuSans-69" d="M 603 3500 
L 1178 3500 
L 1178 0 
L 603 0 
L 603 3500 
z
M 603 4863 
L 1178 4863 
L 1178 4134 
L 603 4134 
L 603 4863 
z
" transform="scale(0.015625)"/>
       <path id="DejaVuSans-6e" d="M 3513 2113 
L 3513 0 
L 2938 0 
L 2938 2094 
Q 2938 2591 2744 2837 
Q 2550 3084 2163 3084 
Q 1697 3084 1428 2787 
Q 1159 2491 1159 1978 
L 1159 0 
L 581 0 
L 581 3500 
L 1159 3500 
L 1159 2956 
Q 1366 3272 1645 3428 
Q 1925 3584 2291 3584 
Q 2894 3584 3203 3211 
Q 3513 2838 3513 2113 
z
" transform="scale(0.015625)"/>
       <path id="DejaVuSans-67" d="M 2906 1791 
Q 2906 2416 2648 2759 
Q 2391 3103 1925 3103 
Q 1463 3103 1205 2759 
Q 947 2416 947 1791 
Q 947 1169 1205 825 
Q 1463 481 1925 481 
Q 2391 481 2648 825 
Q 2906 1169 2906 1791 
z
M 3481 434 
Q 3481 -459 3084 -895 
Q 2688 -1331 1869 -1331 
Q 1566 -1331 1297 -1286 
Q 1028 -1241 775 -1147 
L 775 -588 
Q 1028 -725 1275 -790 
Q 1522 -856 1778 -856 
Q 2344 -856 2625 -561 
Q 2906 -266 2906 331 
L 2906 616 
Q 2728 306 2450 153 
Q 2172 0 1784 0 
Q 1141 0 747 490 
Q 353 981 353 1791 
Q 353 2603 747 3093 
Q 1141 3584 1784 3584 
Q 2172 3584 2450 3431 
Q 2728 3278 2906 2969 
L 2906 3500 
L 3481 3500 
L 3481 434 
z
" transform="scale(0.015625)"/>
       <path id="DejaVuSans-20" transform="scale(0.015625)"/>
       <path id="DejaVuSans-76" d="M 191 3500 
L 800 3500 
L 1894 563 
L 2988 3500 
L 3597 3500 
L 2284 0 
L 1503 0 
L 191 3500 
z
" transform="scale(0.015625)"/>
       <path id="DejaVuSans-6c" d="M 603 4863 
L 1178 4863 
L 1178 0 
L 603 0 
L 603 4863 
z
" transform="scale(0.015625)"/>
       <path id="DejaVuSans-28" d="M 1984 4856 
Q 1566 4138 1362 3434 
Q 1159 2731 1159 2009 
Q 1159 1288 1364 580 
Q 1569 -128 1984 -844 
L 1484 -844 
Q 1016 -109 783 600 
Q 550 1309 550 2009 
Q 550 2706 781 3412 
Q 1013 4119 1484 4856 
L 1984 4856 
z
" transform="scale(0.015625)"/>
       <path id="DejaVuSans-64" d="M 2906 2969 
L 2906 4863 
L 3481 4863 
L 3481 0 
L 2906 0 
L 2906 525 
Q 2725 213 2448 61 
Q 2172 -91 1784 -91 
Q 1150 -91 751 415 
Q 353 922 353 1747 
Q 353 2572 751 3078 
Q 1150 3584 1784 3584 
Q 2172 3584 2448 3432 
Q 2725 3281 2906 2969 
z
M 947 1747 
Q 947 1113 1208 752 
Q 1469 391 1925 391 
Q 2381 391 2643 752 
Q 2906 1113 2906 1747 
Q 2906 2381 2643 2742 
Q 2381 3103 1925 3103 
Q 1469 3103 1208 2742 
Q 947 2381 947 1747 
z
" transform="scale(0.015625)"/>
       <path id="DejaVuSans-79" d="M 2059 -325 
Q 1816 -950 1584 -1140 
Q 1353 -1331 966 -1331 
L 506 -1331 
L 506 -850 
L 844 -850 
Q 1081 -850 1212 -737 
Q 1344 -625 1503 -206 
L 1606 56 
L 191 3500 
L 800 3500 
L 1894 763 
L 2988 3500 
L 3597 3500 
L 2059 -325 
z
" transform="scale(0.015625)"/>
       <path id="DejaVuSans-73" d="M 2834 3397 
L 2834 2853 
Q 2591 2978 2328 3040 
Q 2066 3103 1784 3103 
Q 1356 3103 1142 2972 
Q 928 2841 928 2578 
Q 928 2378 1081 2264 
Q 1234 2150 1697 2047 
L 1894 2003 
Q 2506 1872 2764 1633 
Q 3022 1394 3022 966 
Q 3022 478 2636 193 
Q 2250 -91 1575 -91 
Q 1294 -91 989 -36 
Q 684 19 347 128 
L 347 722 
Q 666 556 975 473 
Q 1284 391 1588 391 
Q 1994 391 2212 530 
Q 2431 669 2431 922 
Q 2431 1156 2273 1281 
Q 2116 1406 1581 1522 
L 1381 1569 
Q 847 1681 609 1914 
Q 372 2147 372 2553 
Q 372 3047 722 3315 
Q 1072 3584 1716 3584 
Q 2034 3584 2315 3537 
Q 2597 3491 2834 3397 
z
" transform="scale(0.015625)"/>
       <path id="DejaVuSans-2c" d="M 750 794 
L 1409 794 
L 1409 256 
L 897 -744 
L 494 -744 
L 750 256 
L 750 794 
z
" transform="scale(0.015625)"/>
       <path id="DejaVuSans-6f" d="M 1959 3097 
Q 1497 3097 1228 2736 
Q 959 2375 959 1747 
Q 959 1119 1226 758 
Q 1494 397 1959 397 
Q 2419 397 2687 759 
Q 2956 1122 2956 1747 
Q 2956 2369 2687 2733 
Q 2419 3097 1959 3097 
z
M 1959 3584 
Q 2709 3584 3137 3096 
Q 3566 2609 3566 1747 
Q 3566 888 3137 398 
Q 2709 -91 1959 -91 
Q 1206 -91 779 398 
Q 353 888 353 1747 
Q 353 2609 779 3096 
Q 1206 3584 1959 3584 
z
" transform="scale(0.015625)"/>
       <path id="DejaVuSans-63" d="M 3122 3366 
L 3122 2828 
Q 2878 2963 2633 3030 
Q 2388 3097 2138 3097 
Q 1578 3097 1268 2742 
Q 959 2388 959 1747 
Q 959 1106 1268 751 
Q 1578 397 2138 397 
Q 2388 397 2633 464 
Q 2878 531 3122 666 
L 3122 134 
Q 2881 22 2623 -34 
Q 2366 -91 2075 -91 
Q 1284 -91 818 406 
Q 353 903 353 1747 
Q 353 2603 823 3093 
Q 1294 3584 2113 3584 
Q 2378 3584 2631 3529 
Q 2884 3475 3122 3366 
z
" transform="scale(0.015625)"/>
       <path id="DejaVuSans-29" d="M 513 4856 
L 1013 4856 
Q 1481 4119 1714 3412 
Q 1947 2706 1947 2009 
Q 1947 1309 1714 600 
Q 1481 -109 1013 -844 
L 513 -844 
Q 928 -128 1133 580 
Q 1338 1288 1338 2009 
Q 1338 2731 1133 3434 
Q 928 4138 513 4856 
z
" transform="scale(0.015625)"/>
      </defs>
      <use xlink:href="#DejaVuSans-72"/>
      <use xlink:href="#DejaVuSans-65" transform="translate(38.863281 0)"/>
      <use xlink:href="#DejaVuSans-74" transform="translate(100.386719 0)"/>
      <use xlink:href="#DejaVuSans-72" transform="translate(139.595703 0)"/>
      <use xlink:href="#DejaVuSans-61" transform="translate(180.708984 0)"/>
      <use xlink:href="#DejaVuSans-69" transform="translate(241.988281 0)"/>
      <use xlink:href="#DejaVuSans-6e" transform="translate(269.771484 0)"/>
      <use xlink:href="#DejaVuSans-69" transform="translate(333.150391 0)"/>
      <use xlink:href="#DejaVuSans-6e" transform="translate(360.933594 0)"/>
      <use xlink:href="#DejaVuSans-67" transform="translate(424.3125 0)"/>
      <use xlink:href="#DejaVuSans-20" transform="translate(487.789062 0)"/>
      <use xlink:href="#DejaVuSans-69" transform="translate(519.576172 0)"/>
      <use xlink:href="#DejaVuSans-6e" transform="translate(547.359375 0)"/>
      <use xlink:href="#DejaVuSans-74" transform="translate(610.738281 0)"/>
      <use xlink:href="#DejaVuSans-65" transform="translate(649.947266 0)"/>
      <use xlink:href="#DejaVuSans-72" transform="translate(711.470703 0)"/>
      <use xlink:href="#DejaVuSans-76" transform="translate(752.583984 0)"/>
      <use xlink:href="#DejaVuSans-61" transform="translate(811.763672 0)"/>
      <use xlink:href="#DejaVuSans-6c" transform="translate(873.042969 0)"/>
      <use xlink:href="#DejaVuSans-20" transform="translate(900.826172 0)"/>
      <use xlink:href="#DejaVuSans-28" transform="translate(932.613281 0)"/>
      <use xlink:href="#DejaVuSans-64" transform="translate(971.626953 0)"/>
      <use xlink:href="#DejaVuSans-61" transform="translate(1035.103516 0)"/>
      <use xlink:href="#DejaVuSans-79" transform="translate(1096.382812 0)"/>
      <use xlink:href="#DejaVuSans-73" transform="translate(1155.5625 0)"/>
      <use xlink:href="#DejaVuSans-2c" transform="translate(1207.662109 0)"/>
      <use xlink:href="#DejaVuSans-20" transform="translate(1239.449219 0)"/>
      <use xlink:href="#DejaVuSans-6c" transform="translate(1271.236328 0)"/>
      <use xlink:href="#DejaVuSans-6f" transform="translate(1299.019531 0)"/>
      <use xlink:href="#DejaVuSans-67" transform="translate(1360.201172 0)"/>
      <use xlink:href="#DejaVuSans-20" transform="translate(1423.677734 0)"/>
      <use xlink:href="#DejaVuSans-73" transform="translate(1455.464844 0)"/>
      <use xlink:href="#DejaVuSans-63" transform="translate(1507.564453 0)"/>
      <use xlink:href="#DejaVuSans-61" transform="translate(1562.544922 0)"/>
      <use xlink:href="#DejaVuSans-6c" transform="translate(1623.824219 0)"/>
      <use xlink:href="#DejaVuSans-65" transform="translate(1651.607422 0)"/>
      <use xlink:href="#DejaVuSans-29" transform="translate(1713.130859 0)"/>
     </g>
    </g>
   </g>
   <g id="matplotlib.axis_2">
    <g id="ytick_1">
     <g id="line2d_26">
      <path d="M 59.690625 263.475357 
L 633.420625 263.475357 
" clip-path="url(#p581381cfaa)" style="fill: none; stroke: #b0b0b0; stroke-opacity: 0.25; stroke-width: 0.8; stroke-linecap: square"/>
     </g>
     <g id="line2d_27">
      <defs>
       <path id="m33b60cfa06" d="M 0 0 
L -3.5 0 
" style="stroke: #000000; stroke-width: 0.8"/>
      </defs>
      <g>
       <use xlink:href="#m33b60cfa06" x="59.690625" y="263.475357" style="stroke: #000000; stroke-width: 0.8"/>
      </g>
     </g>
     <g id="text_5">
      <!-- 0 -->
      <g transform="translate(46.328125 267.274576) scale(0.1 -0.1)">
       <use xlink:href="#DejaVuSans-30"/>
      </g>
     </g>
    </g>
    <g id="ytick_2">
     <g id="line2d_28">
      <path d="M 59.690625 225.631931 
L 633.420625 225.631931 
" clip-path="url(#p581381cfaa)" style="fill: none; stroke: #b0b0b0; stroke-opacity: 0.25; stroke-width: 0.8; stroke-linecap: square"/>
     </g>
     <g id="line2d_29">
      <g>
       <use xlink:href="#m33b60cfa06" x="59.690625" y="225.631931" style="stroke: #000000; stroke-width: 0.8"/>
      </g>
     </g>
     <g id="text_6">
      <!-- 10000 -->
      <g transform="translate(20.878125 229.43115) scale(0.1 -0.1)">
       <use xlink:href="#DejaVuSans-31"/>
       <use xlink:href="#DejaVuSans-30" transform="translate(63.623047 0)"/>
       <use xlink:href="#DejaVuSans-30" transform="translate(127.246094 0)"/>
       <use xlink:href="#DejaVuSans-30" transform="translate(190.869141 0)"/>
       <use xlink:href="#DejaVuSans-30" transform="translate(254.492188 0)"/>
      </g>
     </g>
    </g>
    <g id="ytick_3">
     <g id="line2d_30">
      <path d="M 59.690625 187.788505 
L 633.420625 187.788505 
" clip-path="url(#p581381cfaa)" style="fill: none; stroke: #b0b0b0; stroke-opacity: 0.25; stroke-width: 0.8; stroke-linecap: square"/>
     </g>
     <g id="line2d_31">
      <g>
       <use xlink:href="#m33b60cfa06" x="59.690625" y="187.788505" style="stroke: #000000; stroke-width: 0.8"/>
      </g>
     </g>
     <g id="text_7">
      <!-- 20000 -->
      <g transform="translate(20.878125 191.587724) scale(0.1 -0.1)">
       <use xlink:href="#DejaVuSans-32"/>
       <use xlink:href="#DejaVuSans-30" transform="translate(63.623047 0)"/>
       <use xlink:href="#DejaVuSans-30" transform="translate(127.246094 0)"/>
       <use xlink:href="#DejaVuSans-30" transform="translate(190.869141 0)"/>
       <use xlink:href="#DejaVuSans-30" transform="translate(254.492188 0)"/>
      </g>
     </g>
    </g>
    <g id="ytick_4">
     <g id="line2d_32">
      <path d="M 59.690625 149.945079 
L 633.420625 149.945079 
" clip-path="url(#p581381cfaa)" style="fill: none; stroke: #b0b0b0; stroke-opacity: 0.25; stroke-width: 0.8; stroke-linecap: square"/>
     </g>
     <g id="line2d_33">
      <g>
       <use xlink:href="#m33b60cfa06" x="59.690625" y="149.945079" style="stroke: #000000; stroke-width: 0.8"/>
      </g>
     </g>
     <g id="text_8">
      <!-- 30000 -->
      <g transform="translate(20.878125 153.744298) scale(0.1 -0.1)">
       <defs>
        <path id="DejaVuSans-33" d="M 2597 2516 
Q 3050 2419 3304 2112 
Q 3559 1806 3559 1356 
Q 3559 666 3084 287 
Q 2609 -91 1734 -91 
Q 1441 -91 1130 -33 
Q 819 25 488 141 
L 488 750 
Q 750 597 1062 519 
Q 1375 441 1716 441 
Q 2309 441 2620 675 
Q 2931 909 2931 1356 
Q 2931 1769 2642 2001 
Q 2353 2234 1838 2234 
L 1294 2234 
L 1294 2753 
L 1863 2753 
Q 2328 2753 2575 2939 
Q 2822 3125 2822 3475 
Q 2822 3834 2567 4026 
Q 2313 4219 1838 4219 
Q 1578 4219 1281 4162 
Q 984 4106 628 3988 
L 628 4550 
Q 988 4650 1302 4700 
Q 1616 4750 1894 4750 
Q 2613 4750 3031 4423 
Q 3450 4097 3450 3541 
Q 3450 3153 3228 2886 
Q 3006 2619 2597 2516 
z
" transform="scale(0.015625)"/>
       </defs>
       <use xlink:href="#DejaVuSans-33"/>
       <use xlink:href="#DejaVuSans-30" transform="translate(63.623047 0)"/>
       <use xlink:href="#DejaVuSans-30" transform="translate(127.246094 0)"/>
       <use xlink:href="#DejaVuSans-30" transform="translate(190.869141 0)"/>
       <use xlink:href="#DejaVuSans-30" transform="translate(254.492188 0)"/>
      </g>
     </g>
    </g>
    <g id="ytick_5">
     <g id="line2d_34">
      <path d="M 59.690625 112.101653 
L 633.420625 112.101653 
" clip-path="url(#p581381cfaa)" style="fill: none; stroke: #b0b0b0; stroke-opacity: 0.25; stroke-width: 0.8; stroke-linecap: square"/>
     </g>
     <g id="line2d_35">
      <g>
       <use xlink:href="#m33b60cfa06" x="59.690625" y="112.101653" style="stroke: #000000; stroke-width: 0.8"/>
      </g>
     </g>
     <g id="text_9">
      <!-- 40000 -->
      <g transform="translate(20.878125 115.900872) scale(0.1 -0.1)">
       <defs>
        <path id="DejaVuSans-34" d="M 2419 4116 
L 825 1625 
L 2419 1625 
L 2419 4116 
z
M 2253 4666 
L 3047 4666 
L 3047 1625 
L 3713 1625 
L 3713 1100 
L 3047 1100 
L 3047 0 
L 2419 0 
L 2419 1100 
L 313 1100 
L 313 1709 
L 2253 4666 
z
" transform="scale(0.015625)"/>
       </defs>
       <use xlink:href="#DejaVuSans-34"/>
       <use xlink:href="#DejaVuSans-30" transform="translate(63.623047 0)"/>
       <use xlink:href="#DejaVuSans-30" transform="translate(127.246094 0)"/>
       <use xlink:href="#DejaVuSans-30" transform="translate(190.869141 0)"/>
       <use xlink:href="#DejaVuSans-30" transform="translate(254.492188 0)"/>
      </g>
     </g>
    </g>
    <g id="ytick_6">
     <g id="line2d_36">
      <path d="M 59.690625 74.258227 
L 633.420625 74.258227 
" clip-path="url(#p581381cfaa)" style="fill: none; stroke: #b0b0b0; stroke-opacity: 0.25; stroke-width: 0.8; stroke-linecap: square"/>
     </g>
     <g id="line2d_37">
      <g>
       <use xlink:href="#m33b60cfa06" x="59.690625" y="74.258227" style="stroke: #000000; stroke-width: 0.8"/>
      </g>
     </g>
     <g id="text_10">
      <!-- 50000 -->
      <g transform="translate(20.878125 78.057446) scale(0.1 -0.1)">
       <defs>
        <path id="DejaVuSans-35" d="M 691 4666 
L 3169 4666 
L 3169 4134 
L 1269 4134 
L 1269 2991 
Q 1406 3038 1543 3061 
Q 1681 3084 1819 3084 
Q 2600 3084 3056 2656 
Q 3513 2228 3513 1497 
Q 3513 744 3044 326 
Q 2575 -91 1722 -91 
Q 1428 -91 1123 -41 
Q 819 9 494 109 
L 494 744 
Q 775 591 1075 516 
Q 1375 441 1709 441 
Q 2250 441 2565 725 
Q 2881 1009 2881 1497 
Q 2881 1984 2565 2268 
Q 2250 2553 1709 2553 
Q 1456 2553 1204 2497 
Q 953 2441 691 2322 
L 691 4666 
z
" transform="scale(0.015625)"/>
       </defs>
       <use xlink:href="#DejaVuSans-35"/>
       <use xlink:href="#DejaVuSans-30" transform="translate(63.623047 0)"/>
       <use xlink:href="#DejaVuSans-30" transform="translate(127.246094 0)"/>
       <use xlink:href="#DejaVuSans-30" transform="translate(190.869141 0)"/>
       <use xlink:href="#DejaVuSans-30" transform="translate(254.492188 0)"/>
      </g>
     </g>
    </g>
    <g id="ytick_7">
     <g id="line2d_38">
      <path d="M 59.690625 36.414801 
L 633.420625 36.414801 
" clip-path="url(#p581381cfaa)" style="fill: none; stroke: #b0b0b0; stroke-opacity: 0.25; stroke-width: 0.8; stroke-linecap: square"/>
     </g>
     <g id="line2d_39">
      <g>
       <use xlink:href="#m33b60cfa06" x="59.690625" y="36.414801" style="stroke: #000000; stroke-width: 0.8"/>
      </g>
     </g>
     <g id="text_11">
      <!-- 60000 -->
      <g transform="translate(20.878125 40.21402) scale(0.1 -0.1)">
       <defs>
        <path id="DejaVuSans-36" d="M 2113 2584 
Q 1688 2584 1439 2293 
Q 1191 2003 1191 1497 
Q 1191 994 1439 701 
Q 1688 409 2113 409 
Q 2538 409 2786 701 
Q 3034 994 3034 1497 
Q 3034 2003 2786 2293 
Q 2538 2584 2113 2584 
z
M 3366 4563 
L 3366 3988 
Q 3128 4100 2886 4159 
Q 2644 4219 2406 4219 
Q 1781 4219 1451 3797 
Q 1122 3375 1075 2522 
Q 1259 2794 1537 2939 
Q 1816 3084 2150 3084 
Q 2853 3084 3261 2657 
Q 3669 2231 3669 1497 
Q 3669 778 3244 343 
Q 2819 -91 2113 -91 
Q 1303 -91 875 529 
Q 447 1150 447 2328 
Q 447 3434 972 4092 
Q 1497 4750 2381 4750 
Q 2619 4750 2861 4703 
Q 3103 4656 3366 4563 
z
" transform="scale(0.015625)"/>
       </defs>
       <use xlink:href="#DejaVuSans-36"/>
       <use xlink:href="#DejaVuSans-30" transform="translate(63.623047 0)"/>
       <use xlink:href="#DejaVuSans-30" transform="translate(127.246094 0)"/>
       <use xlink:href="#DejaVuSans-30" transform="translate(190.869141 0)"/>
       <use xlink:href="#DejaVuSans-30" transform="translate(254.492188 0)"/>
      </g>
     </g>
    </g>
    <g id="text_12">
     <!-- monthly cost (USD) -->
     <g transform="translate(14.798438 196.954625) rotate(-90) scale(0.1 -0.1)">
      <defs>
       <path id="DejaVuSans-6d" d="M 3328 2828 
Q 3544 3216 3844 3400 
Q 4144 3584 4550 3584 
Q 5097 3584 5394 3201 
Q 5691 2819 5691 2113 
L 5691 0 
L 5113 0 
L 5113 2094 
Q 5113 2597 4934 2840 
Q 4756 3084 4391 3084 
Q 3944 3084 3684 2787 
Q 3425 2491 3425 1978 
L 3425 0 
L 2847 0 
L 2847 2094 
Q 2847 2600 2669 2842 
Q 2491 3084 2119 3084 
Q 1678 3084 1418 2786 
Q 1159 2488 1159 1978 
L 1159 0 
L 581 0 
L 581 3500 
L 1159 3500 
L 1159 2956 
Q 1356 3278 1631 3431 
Q 1906 3584 2284 3584 
Q 2666 3584 2933 3390 
Q 3200 3197 3328 2828 
z
" transform="scale(0.015625)"/>
       <path id="DejaVuSans-68" d="M 3513 2113 
L 3513 0 
L 2938 0 
L 2938 2094 
Q 2938 2591 2744 2837 
Q 2550 3084 2163 3084 
Q 1697 3084 1428 2787 
Q 1159 2491 1159 1978 
L 1159 0 
L 581 0 
L 581 4863 
L 1159 4863 
L 1159 2956 
Q 1366 3272 1645 3428 
Q 1925 3584 2291 3584 
Q 2894 3584 3203 3211 
Q 3513 2838 3513 2113 
z
" transform="scale(0.015625)"/>
       <path id="DejaVuSans-55" d="M 556 4666 
L 1191 4666 
L 1191 1831 
Q 1191 1081 1462 751 
Q 1734 422 2344 422 
Q 2950 422 3222 751 
Q 3494 1081 3494 1831 
L 3494 4666 
L 4128 4666 
L 4128 1753 
Q 4128 841 3676 375 
Q 3225 -91 2344 -91 
Q 1459 -91 1007 375 
Q 556 841 556 1753 
L 556 4666 
z
" transform="scale(0.015625)"/>
       <path id="DejaVuSans-53" d="M 3425 4513 
L 3425 3897 
Q 3066 4069 2747 4153 
Q 2428 4238 2131 4238 
Q 1616 4238 1336 4038 
Q 1056 3838 1056 3469 
Q 1056 3159 1242 3001 
Q 1428 2844 1947 2747 
L 2328 2669 
Q 3034 2534 3370 2195 
Q 3706 1856 3706 1288 
Q 3706 609 3251 259 
Q 2797 -91 1919 -91 
Q 1588 -91 1214 -16 
Q 841 59 441 206 
L 441 856 
Q 825 641 1194 531 
Q 1563 422 1919 422 
Q 2459 422 2753 634 
Q 3047 847 3047 1241 
Q 3047 1584 2836 1778 
Q 2625 1972 2144 2069 
L 1759 2144 
Q 1053 2284 737 2584 
Q 422 2884 422 3419 
Q 422 4038 858 4394 
Q 1294 4750 2059 4750 
Q 2388 4750 2728 4690 
Q 3069 4631 3425 4513 
z
" transform="scale(0.015625)"/>
       <path id="DejaVuSans-44" d="M 1259 4147 
L 1259 519 
L 2022 519 
Q 2988 519 3436 956 
Q 3884 1394 3884 2338 
Q 3884 3275 3436 3711 
Q 2988 4147 2022 4147 
L 1259 4147 
z
M 628 4666 
L 1925 4666 
Q 3281 4666 3915 4102 
Q 4550 3538 4550 2338 
Q 4550 1131 3912 565 
Q 3275 0 1925 0 
L 628 0 
L 628 4666 
z
" transform="scale(0.015625)"/>
      </defs>
      <use xlink:href="#DejaVuSans-6d"/>
      <use xlink:href="#DejaVuSans-6f" transform="translate(97.412109 0)"/>
      <use xlink:href="#DejaVuSans-6e" transform="translate(158.59375 0)"/>
      <use xlink:href="#DejaVuSans-74" transform="translate(221.972656 0)"/>
      <use xlink:href="#DejaVuSans-68" transform="translate(261.181641 0)"/>
      <use xlink:href="#DejaVuSans-6c" transform="translate(324.560547 0)"/>
      <use xlink:href="#DejaVuSans-79" transform="translate(352.34375 0)"/>
      <use xlink:href="#DejaVuSans-20" transform="translate(411.523438 0)"/>
      <use xlink:href="#DejaVuSans-63" transform="translate(443.310547 0)"/>
      <use xlink:href="#DejaVuSans-6f" transform="translate(498.291016 0)"/>
      <use xlink:href="#DejaVuSans-73" transform="translate(559.472656 0)"/>
      <use xlink:href="#DejaVuSans-74" transform="translate(611.572266 0)"/>
      <use xlink:href="#DejaVuSans-20" transform="translate(650.78125 0)"/>
      <use xlink:href="#DejaVuSans-28" transform="translate(682.568359 0)"/>
      <use xlink:href="#DejaVuSans-55" transform="translate(721.582031 0)"/>
      <use xlink:href="#DejaVuSans-53" transform="translate(794.775391 0)"/>
      <use xlink:href="#DejaVuSans-44" transform="translate(858.251953 0)"/>
      <use xlink:href="#DejaVuSans-29" transform="translate(935.253906 0)"/>
     </g>
    </g>
   </g>
   <g id="line2d_40">
    <path d="M 85.769261 74.258227 
L 196.112217 187.788505 
L 281.213532 225.631931 
L 350.832186 242.661473 
L 427.380379 252.122329 
L 496.999033 257.041975 
L 537.723335 258.934146 
L 607.341989 260.826317 
" clip-path="url(#p581381cfaa)" style="fill: none; stroke: #7aa6c2; stroke-width: 2; stroke-linecap: square"/>
    <defs>
     <path id="m17400af94a" d="M 0 3 
C 0.795609 3 1.55874 2.683901 2.12132 2.12132 
C 2.683901 1.55874 3 0.795609 3 0 
C 3 -0.795609 2.683901 -1.55874 2.12132 -2.12132 
C 1.55874 -2.683901 0.795609 -3 0 -3 
C -0.795609 -3 -1.55874 -2.683901 -2.12132 -2.12132 
C -2.683901 -1.55874 -3 -0.795609 -3 0 
C -3 0.795609 -2.683901 1.55874 -2.12132 2.12132 
C -1.55874 2.683901 -0.795609 3 0 3 
z
" style="stroke: #7aa6c2"/>
    </defs>
    <g clip-path="url(#p581381cfaa)">
     <use xlink:href="#m17400af94a" x="85.769261" y="74.258227" style="fill: #7aa6c2; stroke: #7aa6c2"/>
     <use xlink:href="#m17400af94a" x="196.112217" y="187.788505" style="fill: #7aa6c2; stroke: #7aa6c2"/>
     <use xlink:href="#m17400af94a" x="281.213532" y="225.631931" style="fill: #7aa6c2; stroke: #7aa6c2"/>
     <use xlink:href="#m17400af94a" x="350.832186" y="242.661473" style="fill: #7aa6c2; stroke: #7aa6c2"/>
     <use xlink:href="#m17400af94a" x="427.380379" y="252.122329" style="fill: #7aa6c2; stroke: #7aa6c2"/>
     <use xlink:href="#m17400af94a" x="496.999033" y="257.041975" style="fill: #7aa6c2; stroke: #7aa6c2"/>
     <use xlink:href="#m17400af94a" x="537.723335" y="258.934146" style="fill: #7aa6c2; stroke: #7aa6c2"/>
     <use xlink:href="#m17400af94a" x="607.341989" y="260.826317" style="fill: #7aa6c2; stroke: #7aa6c2"/>
    </g>
   </g>
   <g id="line2d_41">
    <path d="M 85.769261 262.718489 
L 196.112217 261.204752 
L 281.213532 258.177278 
L 350.832186 254.014501 
L 427.380379 244.553644 
L 496.999033 218.063246 
L 537.723335 168.866792 
L 607.341989 36.414801 
" clip-path="url(#p581381cfaa)" style="fill: none; stroke: #e15759; stroke-width: 2; stroke-linecap: square"/>
    <defs>
     <path id="m7d4102a80c" d="M -3 3 
L 3 3 
L 3 -3 
L -3 -3 
z
" style="stroke: #e15759; stroke-linejoin: miter"/>
    </defs>
    <g clip-path="url(#p581381cfaa)">
     <use xlink:href="#m7d4102a80c" x="85.769261" y="262.718489" style="fill: #e15759; stroke: #e15759; stroke-linejoin: miter"/>
     <use xlink:href="#m7d4102a80c" x="196.112217" y="261.204752" style="fill: #e15759; stroke: #e15759; stroke-linejoin: miter"/>
     <use xlink:href="#m7d4102a80c" x="281.213532" y="258.177278" style="fill: #e15759; stroke: #e15759; stroke-linejoin: miter"/>
     <use xlink:href="#m7d4102a80c" x="350.832186" y="254.014501" style="fill: #e15759; stroke: #e15759; stroke-linejoin: miter"/>
     <use xlink:href="#m7d4102a80c" x="427.380379" y="244.553644" style="fill: #e15759; stroke: #e15759; stroke-linejoin: miter"/>
     <use xlink:href="#m7d4102a80c" x="496.999033" y="218.063246" style="fill: #e15759; stroke: #e15759; stroke-linejoin: miter"/>
     <use xlink:href="#m7d4102a80c" x="537.723335" y="168.866792" style="fill: #e15759; stroke: #e15759; stroke-linejoin: miter"/>
     <use xlink:href="#m7d4102a80c" x="607.341989" y="36.414801" style="fill: #e15759; stroke: #e15759; stroke-linejoin: miter"/>
    </g>
   </g>
   <g id="line2d_42">
    <path d="M 85.769261 73.501359 
L 196.112217 185.5179 
L 281.213532 220.333852 
L 350.832186 233.200616 
L 427.380379 233.200616 
L 496.999033 211.629864 
L 537.723335 164.325581 
L 607.341989 33.765761 
" clip-path="url(#p581381cfaa)" style="fill: none; stroke: #59a14f; stroke-width: 2.5; stroke-linecap: square"/>
    <defs>
     <path id="macf04841bd" d="M 0 -3 
L -3 3 
L 3 3 
z
" style="stroke: #59a14f; stroke-linejoin: miter"/>
    </defs>
    <g clip-path="url(#p581381cfaa)">
     <use xlink:href="#macf04841bd" x="85.769261" y="73.501359" style="fill: #59a14f; stroke: #59a14f; stroke-linejoin: miter"/>
     <use xlink:href="#macf04841bd" x="196.112217" y="185.5179" style="fill: #59a14f; stroke: #59a14f; stroke-linejoin: miter"/>
     <use xlink:href="#macf04841bd" x="281.213532" y="220.333852" style="fill: #59a14f; stroke: #59a14f; stroke-linejoin: miter"/>
     <use xlink:href="#macf04841bd" x="350.832186" y="233.200616" style="fill: #59a14f; stroke: #59a14f; stroke-linejoin: miter"/>
     <use xlink:href="#macf04841bd" x="427.380379" y="233.200616" style="fill: #59a14f; stroke: #59a14f; stroke-linejoin: miter"/>
     <use xlink:href="#macf04841bd" x="496.999033" y="211.629864" style="fill: #59a14f; stroke: #59a14f; stroke-linejoin: miter"/>
     <use xlink:href="#macf04841bd" x="537.723335" y="164.325581" style="fill: #59a14f; stroke: #59a14f; stroke-linejoin: miter"/>
     <use xlink:href="#macf04841bd" x="607.341989" y="33.765761" style="fill: #59a14f; stroke: #59a14f; stroke-linejoin: miter"/>
    </g>
   </g>
   <g id="line2d_43">
    <path d="M 350.832186 274.166125 
L 350.832186 22.318125 
" clip-path="url(#p581381cfaa)" style="fill: none; stroke-dasharray: 3.7,1.6; stroke-dashoffset: 0; stroke: #000000"/>
   </g>
   <g id="patch_3">
    <path d="M 59.690625 274.166125 
L 59.690625 22.318125 
" style="fill: none; stroke: #000000; stroke-width: 0.8; stroke-linejoin: miter; stroke-linecap: square"/>
   </g>
   <g id="patch_4">
    <path d="M 633.420625 274.166125 
L 633.420625 22.318125 
" style="fill: none; stroke: #000000; stroke-width: 0.8; stroke-linejoin: miter; stroke-linecap: square"/>
   </g>
   <g id="patch_5">
    <path d="M 59.690625 274.166125 
L 633.420625 274.166125 
" style="fill: none; stroke: #000000; stroke-width: 0.8; stroke-linejoin: miter; stroke-linecap: square"/>
   </g>
   <g id="patch_6">
    <path d="M 59.690625 22.318125 
L 633.420625 22.318125 
" style="fill: none; stroke: #000000; stroke-width: 0.8; stroke-linejoin: miter; stroke-linecap: square"/>
   </g>
   <g id="text_13">
    <!-- Tradeoff: too often = expensive retraining, too rare = expensive staleness -->
    <g transform="translate(123.839375 16.318125) scale(0.12 -0.12)">
     <defs>
      <path id="DejaVuSans-54" d="M -19 4666 
L 3928 4666 
L 3928 4134 
L 2272 4134 
L 2272 0 
L 1638 0 
L 1638 4134 
L -19 4134 
L -19 4666 
z
" transform="scale(0.015625)"/>
      <path id="DejaVuSans-66" d="M 2375 4863 
L 2375 4384 
L 1825 4384 
Q 1516 4384 1395 4259 
Q 1275 4134 1275 3809 
L 1275 3500 
L 2222 3500 
L 2222 3053 
L 1275 3053 
L 1275 0 
L 697 0 
L 697 3053 
L 147 3053 
L 147 3500 
L 697 3500 
L 697 3744 
Q 697 4328 969 4595 
Q 1241 4863 1831 4863 
L 2375 4863 
z
" transform="scale(0.015625)"/>
      <path id="DejaVuSans-3a" d="M 750 794 
L 1409 794 
L 1409 0 
L 750 0 
L 750 794 
z
M 750 3309 
L 1409 3309 
L 1409 2516 
L 750 2516 
L 750 3309 
z
" transform="scale(0.015625)"/>
      <path id="DejaVuSans-3d" d="M 678 2906 
L 4684 2906 
L 4684 2381 
L 678 2381 
L 678 2906 
z
M 678 1631 
L 4684 1631 
L 4684 1100 
L 678 1100 
L 678 1631 
z
" transform="scale(0.015625)"/>
      <path id="DejaVuSans-78" d="M 3513 3500 
L 2247 1797 
L 3578 0 
L 2900 0 
L 1881 1375 
L 863 0 
L 184 0 
L 1544 1831 
L 300 3500 
L 978 3500 
L 1906 2253 
L 2834 3500 
L 3513 3500 
z
" transform="scale(0.015625)"/>
      <path id="DejaVuSans-70" d="M 1159 525 
L 1159 -1331 
L 581 -1331 
L 581 3500 
L 1159 3500 
L 1159 2969 
Q 1341 3281 1617 3432 
Q 1894 3584 2278 3584 
Q 2916 3584 3314 3078 
Q 3713 2572 3713 1747 
Q 3713 922 3314 415 
Q 2916 -91 2278 -91 
Q 1894 -91 1617 61 
Q 1341 213 1159 525 
z
M 3116 1747 
Q 3116 2381 2855 2742 
Q 2594 3103 2138 3103 
Q 1681 3103 1420 2742 
Q 1159 2381 1159 1747 
Q 1159 1113 1420 752 
Q 1681 391 2138 391 
Q 2594 391 2855 752 
Q 3116 1113 3116 1747 
z
" transform="scale(0.015625)"/>
     </defs>
     <use xlink:href="#DejaVuSans-54"/>
     <use xlink:href="#DejaVuSans-72" transform="translate(46.333984 0)"/>
     <use xlink:href="#DejaVuSans-61" transform="translate(87.447266 0)"/>
     <use xlink:href="#DejaVuSans-64" transform="translate(148.726562 0)"/>
     <use xlink:href="#DejaVuSans-65" transform="translate(212.203125 0)"/>
     <use xlink:href="#DejaVuSans-6f" transform="translate(273.726562 0)"/>
     <use xlink:href="#DejaVuSans-66" transform="translate(334.908203 0)"/>
     <use xlink:href="#DejaVuSans-66" transform="translate(370.113281 0)"/>
     <use xlink:href="#DejaVuSans-3a" transform="translate(401.693359 0)"/>
     <use xlink:href="#DejaVuSans-20" transform="translate(435.384766 0)"/>
     <use xlink:href="#DejaVuSans-74" transform="translate(467.171875 0)"/>
     <use xlink:href="#DejaVuSans-6f" transform="translate(506.380859 0)"/>
     <use xlink:href="#DejaVuSans-6f" transform="translate(567.5625 0)"/>
     <use xlink:href="#DejaVuSans-20" transform="translate(628.744141 0)"/>
     <use xlink:href="#DejaVuSans-6f" transform="translate(660.53125 0)"/>
     <use xlink:href="#DejaVuSans-66" transform="translate(721.712891 0)"/>
     <use xlink:href="#DejaVuSans-74" transform="translate(755.167969 0)"/>
     <use xlink:href="#DejaVuSans-65" transform="translate(794.376953 0)"/>
     <use xlink:href="#DejaVuSans-6e" transform="translate(855.900391 0)"/>
     <use xlink:href="#DejaVuSans-20" transform="translate(919.279297 0)"/>
     <use xlink:href="#DejaVuSans-3d" transform="translate(951.066406 0)"/>
     <use xlink:href="#DejaVuSans-20" transform="translate(1034.855469 0)"/>
     <use xlink:href="#DejaVuSans-65" transform="translate(1066.642578 0)"/>
     <use xlink:href="#DejaVuSans-78" transform="translate(1126.416016 0)"/>
     <use xlink:href="#DejaVuSans-70" transform="translate(1185.595703 0)"/>
     <use xlink:href="#DejaVuSans-65" transform="translate(1249.072266 0)"/>
     <use xlink:href="#DejaVuSans-6e" transform="translate(1310.595703 0)"/>
     <use xlink:href="#DejaVuSans-73" transform="translate(1373.974609 0)"/>
     <use xlink:href="#DejaVuSans-69" transform="translate(1426.074219 0)"/>
     <use xlink:href="#DejaVuSans-76" transform="translate(1453.857422 0)"/>
     <use xlink:href="#DejaVuSans-65" transform="translate(1513.037109 0)"/>
     <use xlink:href="#DejaVuSans-20" transform="translate(1574.560547 0)"/>
     <use xlink:href="#DejaVuSans-72" transform="translate(1606.347656 0)"/>
     <use xlink:href="#DejaVuSans-65" transform="translate(1645.210938 0)"/>
     <use xlink:href="#DejaVuSans-74" transform="translate(1706.734375 0)"/>
     <use xlink:href="#DejaVuSans-72" transform="translate(1745.943359 0)"/>
     <use xlink:href="#DejaVuSans-61" transform="translate(1787.056641 0)"/>
     <use xlink:href="#DejaVuSans-69" transform="translate(1848.335938 0)"/>
     <use xlink:href="#DejaVuSans-6e" transform="translate(1876.119141 0)"/>
     <use xlink:href="#DejaVuSans-69" transform="translate(1939.498047 0)"/>
     <use xlink:href="#DejaVuSans-6e" transform="translate(1967.28125 0)"/>
     <use xlink:href="#DejaVuSans-67" transform="translate(2030.660156 0)"/>
     <use xlink:href="#DejaVuSans-2c" transform="translate(2094.136719 0)"/>
     <use xlink:href="#DejaVuSans-20" transform="translate(2125.923828 0)"/>
     <use xlink:href="#DejaVuSans-74" transform="translate(2157.710938 0)"/>
     <use xlink:href="#DejaVuSans-6f" transform="translate(2196.919922 0)"/>
     <use xlink:href="#DejaVuSans-6f" transform="translate(2258.101562 0)"/>
     <use xlink:href="#DejaVuSans-20" transform="translate(2319.283203 0)"/>
     <use xlink:href="#DejaVuSans-72" transform="translate(2351.070312 0)"/>
     <use xlink:href="#DejaVuSans-61" transform="translate(2392.183594 0)"/>
     <use xlink:href="#DejaVuSans-72" transform="translate(2453.462891 0)"/>
     <use xlink:href="#DejaVuSans-65" transform="translate(2492.326172 0)"/>
     <use xlink:href="#DejaVuSans-20" transform="translate(2553.849609 0)"/>
     <use xlink:href="#DejaVuSans-3d" transform="translate(2585.636719 0)"/>
     <use xlink:href="#DejaVuSans-20" transform="translate(2669.425781 0)"/>
     <use xlink:href="#DejaVuSans-65" transform="translate(2701.212891 0)"/>
     <use xlink:href="#DejaVuSans-78" transform="translate(2760.986328 0)"/>
     <use xlink:href="#DejaVuSans-70" transform="translate(2820.166016 0)"/>
     <use xlink:href="#DejaVuSans-65" transform="translate(2883.642578 0)"/>
     <use xlink:href="#DejaVuSans-6e" transform="translate(2945.166016 0)"/>
     <use xlink:href="#DejaVuSans-73" transform="translate(3008.544922 0)"/>
     <use xlink:href="#DejaVuSans-69" transform="translate(3060.644531 0)"/>
     <use xlink:href="#DejaVuSans-76" transform="translate(3088.427734 0)"/>
     <use xlink:href="#DejaVuSans-65" transform="translate(3147.607422 0)"/>
     <use xlink:href="#DejaVuSans-20" transform="translate(3209.130859 0)"/>
     <use xlink:href="#DejaVuSans-73" transform="translate(3240.917969 0)"/>
     <use xlink:href="#DejaVuSans-74" transform="translate(3293.017578 0)"/>
     <use xlink:href="#DejaVuSans-61" transform="translate(3332.226562 0)"/>
     <use xlink:href="#DejaVuSans-6c" transform="translate(3393.505859 0)"/>
     <use xlink:href="#DejaVuSans-65" transform="translate(3421.289062 0)"/>
     <use xlink:href="#DejaVuSans-6e" transform="translate(3482.8125 0)"/>
     <use xlink:href="#DejaVuSans-65" transform="translate(3546.191406 0)"/>
     <use xlink:href="#DejaVuSans-73" transform="translate(3607.714844 0)"/>
     <use xlink:href="#DejaVuSans-73" transform="translate(3659.814453 0)"/>
    </g>
   </g>
   <g id="legend_1">
    <g id="patch_7">
     <path d="M 280.33375 89.030625 
L 412.7775 89.030625 
Q 414.7775 89.030625 414.7775 87.030625 
L 414.7775 29.318125 
Q 414.7775 27.318125 412.7775 27.318125 
L 280.33375 27.318125 
Q 278.33375 27.318125 278.33375 29.318125 
L 278.33375 87.030625 
Q 278.33375 89.030625 280.33375 89.030625 
z
" style="fill: #ffffff; opacity: 0.8; stroke: #cccccc; stroke-linejoin: miter"/>
    </g>
    <g id="line2d_44">
     <path d="M 282.33375 35.416562 
L 292.33375 35.416562 
L 302.33375 35.416562 
" style="fill: none; stroke: #7aa6c2; stroke-width: 2; stroke-linecap: square"/>
     <g>
      <use xlink:href="#m17400af94a" x="292.33375" y="35.416562" style="fill: #7aa6c2; stroke: #7aa6c2"/>
     </g>
    </g>
    <g id="text_14">
     <!-- Retraining cost -->
     <g transform="translate(310.33375 38.916562) scale(0.1 -0.1)">
      <defs>
       <path id="DejaVuSans-52" d="M 2841 2188 
Q 3044 2119 3236 1894 
Q 3428 1669 3622 1275 
L 4263 0 
L 3584 0 
L 2988 1197 
Q 2756 1666 2539 1819 
Q 2322 1972 1947 1972 
L 1259 1972 
L 1259 0 
L 628 0 
L 628 4666 
L 2053 4666 
Q 2853 4666 3247 4331 
Q 3641 3997 3641 3322 
Q 3641 2881 3436 2590 
Q 3231 2300 2841 2188 
z
M 1259 4147 
L 1259 2491 
L 2053 2491 
Q 2509 2491 2742 2702 
Q 2975 2913 2975 3322 
Q 2975 3731 2742 3939 
Q 2509 4147 2053 4147 
L 1259 4147 
z
" transform="scale(0.015625)"/>
      </defs>
      <use xlink:href="#DejaVuSans-52"/>
      <use xlink:href="#DejaVuSans-65" transform="translate(64.982422 0)"/>
      <use xlink:href="#DejaVuSans-74" transform="translate(126.505859 0)"/>
      <use xlink:href="#DejaVuSans-72" transform="translate(165.714844 0)"/>
      <use xlink:href="#DejaVuSans-61" transform="translate(206.828125 0)"/>
      <use xlink:href="#DejaVuSans-69" transform="translate(268.107422 0)"/>
      <use xlink:href="#DejaVuSans-6e" transform="translate(295.890625 0)"/>
      <use xlink:href="#DejaVuSans-69" transform="translate(359.269531 0)"/>
      <use xlink:href="#DejaVuSans-6e" transform="translate(387.052734 0)"/>
      <use xlink:href="#DejaVuSans-67" transform="translate(450.431641 0)"/>
      <use xlink:href="#DejaVuSans-20" transform="translate(513.908203 0)"/>
      <use xlink:href="#DejaVuSans-63" transform="translate(545.695312 0)"/>
      <use xlink:href="#DejaVuSans-6f" transform="translate(600.675781 0)"/>
      <use xlink:href="#DejaVuSans-73" transform="translate(661.857422 0)"/>
      <use xlink:href="#DejaVuSans-74" transform="translate(713.957031 0)"/>
     </g>
    </g>
    <g id="line2d_45">
     <path d="M 282.33375 50.094688 
L 292.33375 50.094688 
L 302.33375 50.094688 
" style="fill: none; stroke: #e15759; stroke-width: 2; stroke-linecap: square"/>
     <g>
      <use xlink:href="#m7d4102a80c" x="292.33375" y="50.094688" style="fill: #e15759; stroke: #e15759; stroke-linejoin: miter"/>
     </g>
    </g>
    <g id="text_15">
     <!-- Stale-model cost -->
     <g transform="translate(310.33375 53.594688) scale(0.1 -0.1)">
      <defs>
       <path id="DejaVuSans-2d" d="M 313 2009 
L 1997 2009 
L 1997 1497 
L 313 1497 
L 313 2009 
z
" transform="scale(0.015625)"/>
      </defs>
      <use xlink:href="#DejaVuSans-53"/>
      <use xlink:href="#DejaVuSans-74" transform="translate(63.476562 0)"/>
      <use xlink:href="#DejaVuSans-61" transform="translate(102.685547 0)"/>
      <use xlink:href="#DejaVuSans-6c" transform="translate(163.964844 0)"/>
      <use xlink:href="#DejaVuSans-65" transform="translate(191.748047 0)"/>
      <use xlink:href="#DejaVuSans-2d" transform="translate(253.271484 0)"/>
      <use xlink:href="#DejaVuSans-6d" transform="translate(289.355469 0)"/>
      <use xlink:href="#DejaVuSans-6f" transform="translate(386.767578 0)"/>
      <use xlink:href="#DejaVuSans-64" transform="translate(447.949219 0)"/>
      <use xlink:href="#DejaVuSans-65" transform="translate(511.425781 0)"/>
      <use xlink:href="#DejaVuSans-6c" transform="translate(572.949219 0)"/>
      <use xlink:href="#DejaVuSans-20" transform="translate(600.732422 0)"/>
      <use xlink:href="#DejaVuSans-63" transform="translate(632.519531 0)"/>
      <use xlink:href="#DejaVuSans-6f" transform="translate(687.5 0)"/>
      <use xlink:href="#DejaVuSans-73" transform="translate(748.681641 0)"/>
      <use xlink:href="#DejaVuSans-74" transform="translate(800.78125 0)"/>
     </g>
    </g>
    <g id="line2d_46">
     <path d="M 282.33375 64.772812 
L 292.33375 64.772812 
L 302.33375 64.772812 
" style="fill: none; stroke: #59a14f; stroke-width: 2.5; stroke-linecap: square"/>
     <g>
      <use xlink:href="#macf04841bd" x="292.33375" y="64.772812" style="fill: #59a14f; stroke: #59a14f; stroke-linejoin: miter"/>
     </g>
    </g>
    <g id="text_16">
     <!-- Total cost -->
     <g transform="translate(310.33375 68.272812) scale(0.1 -0.1)">
      <use xlink:href="#DejaVuSans-54"/>
      <use xlink:href="#DejaVuSans-6f" transform="translate(44.083984 0)"/>
      <use xlink:href="#DejaVuSans-74" transform="translate(105.265625 0)"/>
      <use xlink:href="#DejaVuSans-61" transform="translate(144.474609 0)"/>
      <use xlink:href="#DejaVuSans-6c" transform="translate(205.753906 0)"/>
      <use xlink:href="#DejaVuSans-20" transform="translate(233.537109 0)"/>
      <use xlink:href="#DejaVuSans-63" transform="translate(265.324219 0)"/>
      <use xlink:href="#DejaVuSans-6f" transform="translate(320.304688 0)"/>
      <use xlink:href="#DejaVuSans-73" transform="translate(381.486328 0)"/>
      <use xlink:href="#DejaVuSans-74" transform="translate(433.585938 0)"/>
     </g>
    </g>
    <g id="line2d_47">
     <path d="M 282.33375 79.450938 
L 292.33375 79.450938 
L 302.33375 79.450938 
" style="fill: none; stroke-dasharray: 3.7,1.6; stroke-dashoffset: 0; stroke: #000000"/>
    </g>
    <g id="text_17">
     <!-- sweet spot: 14 days -->
     <g transform="translate(310.33375 82.950938) scale(0.1 -0.1)">
      <defs>
       <path id="DejaVuSans-77" d="M 269 3500 
L 844 3500 
L 1563 769 
L 2278 3500 
L 2956 3500 
L 3675 769 
L 4391 3500 
L 4966 3500 
L 4050 0 
L 3372 0 
L 2619 2869 
L 1863 0 
L 1184 0 
L 269 3500 
z
" transform="scale(0.015625)"/>
      </defs>
      <use xlink:href="#DejaVuSans-73"/>
      <use xlink:href="#DejaVuSans-77" transform="translate(52.099609 0)"/>
      <use xlink:href="#DejaVuSans-65" transform="translate(133.886719 0)"/>
      <use xlink:href="#DejaVuSans-65" transform="translate(195.410156 0)"/>
      <use xlink:href="#DejaVuSans-74" transform="translate(256.933594 0)"/>
      <use xlink:href="#DejaVuSans-20" transform="translate(296.142578 0)"/>
      <use xlink:href="#DejaVuSans-73" transform="translate(327.929688 0)"/>
      <use xlink:href="#DejaVuSans-70" transform="translate(380.029297 0)"/>
      <use xlink:href="#DejaVuSans-6f" transform="translate(443.505859 0)"/>
      <use xlink:href="#DejaVuSans-74" transform="translate(504.6875 0)"/>
      <use xlink:href="#DejaVuSans-3a" transform="translate(543.896484 0)"/>
      <use xlink:href="#DejaVuSans-20" transform="translate(577.587891 0)"/>
      <use xlink:href="#DejaVuSans-31" transform="translate(609.375 0)"/>
      <use xlink:href="#DejaVuSans-34" transform="translate(672.998047 0)"/>
      <use xlink:href="#DejaVuSans-20" transform="translate(736.621094 0)"/>
      <use xlink:href="#DejaVuSans-64" transform="translate(768.408203 0)"/>
      <use xlink:href="#DejaVuSans-61" transform="translate(831.884766 0)"/>
      <use xlink:href="#DejaVuSans-79" transform="translate(893.164062 0)"/>
      <use xlink:href="#DejaVuSans-73" transform="translate(952.34375 0)"/>
     </g>
    </g>
   </g>
  </g>
 </g>
 <defs>
  <clipPath id="p581381cfaa">
   <rect x="59.690625" y="22.318125" width="573.73" height="251.848"/>
  </clipPath>
 </defs>
</svg>
