<?xml version="1.0" encoding="utf-8" standalone="no"?>
<!DOCTYPE svg PUBLIC "-//W3C//DTD SVG 1.1//EN"
  "http://www.w3.org/Graphics/SVG/1.1/DTD/svg11.dtd">
<svg xmlns:xlink="http://www.w3.org/1999/xlink" width="712.52375pt" height="315.034375pt" viewBox="0 0 712.52375 315.034375" xmlns="http://www.w3.org/2000/svg" version="1.1">
 <metadata>
  <rdf:RDF xmlns:dc="http://purl.org/dc/elements/1.1/" xmlns:cc="http://creativecommons.org/ns#" xmlns:rdf="http://www.w3.org/1999/02/22-rdf-syntax-ns#">
   <cc:Work>
    <dc:type rdf:resource="http://purl.org/dc/dcmitype/StillImage"/>
    <dc:date>2026-05-26T11:32:36.137719</dc:date>
    <dc:format>image/svg+xml</dc:format>
    <dc:creator>
     <cc:Agent>
      <dc:title>Matplotlib v3.10.8, https://matplotlib.org/</dc:title>
     </cc:Agent>
    </dc:creator>
   </cc:Work>
  </rdf:RDF>
 </metadata>
 <defs>
  <style type="text/css">*{stroke-linejoin: round; stroke-linecap: butt}</style>
 </defs>
 <g id="figure_1">
  <g id="patch_1">
   <path d="M 0 315.034375 
L 712.52375 315.034375 
L 712.52375 0 
L 0 0 
z
" style="fill: #ffffff"/>
  </g>
  <g id="axes_1">
   <g id="patch_2">
    <path d="M 50.14375 277.478125 
L 705.32375 277.478125 
L 705.32375 22.318125 
L 50.14375 22.318125 
z
" style="fill: #ffffff"/>
   </g>
   <g id="matplotlib.axis_1">
    <g id="xtick_1">
     <g id="line2d_1">
      <path d="M 79.924659 277.478125 
L 79.924659 22.318125 
" clip-path="url(#p77fdb2a7a1)" style="fill: none; stroke: #b0b0b0; stroke-opacity: 0.25; stroke-width: 0.8; stroke-linecap: square"/>
     </g>
     <g id="line2d_2">
      <defs>
       <path id="me0953b4030" d="M 0 0 
L 0 3.5 
" style="stroke: #000000; stroke-width: 0.8"/>
      </defs>
      <g>
       <use xlink:href="#me0953b4030" x="79.924659" y="277.478125" style="stroke: #000000; stroke-width: 0.8"/>
      </g>
     </g>
     <g id="text_1">
      <!-- 0 -->
      <g transform="translate(76.743409 292.076563) scale(0.1 -0.1)">
       <defs>
        <path id="DejaVuSans-30" d="M 2034 4250 
Q 1547 4250 1301 3770 
Q 1056 3291 1056 2328 
Q 1056 1369 1301 889 
Q 1547 409 2034 409 
Q 2525 409 2770 889 
Q 3016 1369 3016 2328 
Q 3016 3291 2770 3770 
Q 2525 4250 2034 4250 
z
M 2034 4750 
Q 2819 4750 3233 4129 
Q 3647 3509 3647 2328 
Q 3647 1150 3233 529 
Q 2819 -91 2034 -91 
Q 1250 -91 836 529 
Q 422 1150 422 2328 
Q 422 3509 836 4129 
Q 1250 4750 2034 4750 
z
" transform="scale(0.015625)"/>
       </defs>
       <use xlink:href="#DejaVuSans-30"/>
      </g>
     </g>
    </g>
    <g id="xtick_2">
     <g id="line2d_3">
      <path d="M 161.740343 277.478125 
L 161.740343 22.318125 
" clip-path="url(#p77fdb2a7a1)" style="fill: none; stroke: #b0b0b0; stroke-opacity: 0.25; stroke-width: 0.8; stroke-linecap: square"/>
     </g>
     <g id="line2d_4">
      <g>
       <use xlink:href="#me0953b4030" x="161.740343" y="277.478125" style="stroke: #000000; stroke-width: 0.8"/>
      </g>
     </g>
     <g id="text_2">
      <!-- 50 -->
      <g transform="translate(155.377843 292.076563) scale(0.1 -0.1)">
       <defs>
        <path id="DejaVuSans-35" d="M 691 4666 
L 3169 4666 
L 3169 4134 
L 1269 4134 
L 1269 2991 
Q 1406 3038 1543 3061 
Q 1681 3084 1819 3084 
Q 2600 3084 3056 2656 
Q 3513 2228 3513 1497 
Q 3513 744 3044 326 
Q 2575 -91 1722 -91 
Q 1428 -91 1123 -41 
Q 819 9 494 109 
L 494 744 
Q 775 591 1075 516 
Q 1375 441 1709 441 
Q 2250 441 2565 725 
Q 2881 1009 2881 1497 
Q 2881 1984 2565 2268 
Q 2250 2553 1709 2553 
Q 1456 2553 1204 2497 
Q 953 2441 691 2322 
L 691 4666 
z
" transform="scale(0.015625)"/>
       </defs>
       <use xlink:href="#DejaVuSans-35"/>
       <use xlink:href="#DejaVuSans-30" transform="translate(63.623047 0)"/>
      </g>
     </g>
    </g>
    <g id="xtick_3">
     <g id="line2d_5">
      <path d="M 243.556028 277.478125 
L 243.556028 22.318125 
" clip-path="url(#p77fdb2a7a1)" style="fill: none; stroke: #b0b0b0; stroke-opacity: 0.25; stroke-width: 0.8; stroke-linecap: square"/>
     </g>
     <g id="line2d_6">
      <g>
       <use xlink:href="#me0953b4030" x="243.556028" y="277.478125" style="stroke: #000000; stroke-width: 0.8"/>
      </g>
     </g>
     <g id="text_3">
      <!-- 100 -->
      <g transform="translate(234.012278 292.076563) scale(0.1 -0.1)">
       <defs>
        <path id="DejaVuSans-31" d="M 794 531 
L 1825 531 
L 1825 4091 
L 703 3866 
L 703 4441 
L 1819 4666 
L 2450 4666 
L 2450 531 
L 3481 531 
L 3481 0 
L 794 0 
L 794 531 
z
" transform="scale(0.015625)"/>
       </defs>
       <use xlink:href="#DejaVuSans-31"/>
       <use xlink:href="#DejaVuSans-30" transform="translate(63.623047 0)"/>
       <use xlink:href="#DejaVuSans-30" transform="translate(127.246094 0)"/>
      </g>
     </g>
    </g>
    <g id="xtick_4">
     <g id="line2d_7">
      <path d="M 325.371712 277.478125 
L 325.371712 22.318125 
" clip-path="url(#p77fdb2a7a1)" style="fill: none; stroke: #b0b0b0; stroke-opacity: 0.25; stroke-width: 0.8; stroke-linecap: square"/>
     </g>
     <g id="line2d_8">
      <g>
       <use xlink:href="#me0953b4030" x="325.371712" y="277.478125" style="stroke: #000000; stroke-width: 0.8"/>
      </g>
     </g>
     <g id="text_4">
      <!-- 150 -->
      <g transform="translate(315.827962 292.076563) scale(0.1 -0.1)">
       <use xlink:href="#DejaVuSans-31"/>
       <use xlink:href="#DejaVuSans-35" transform="translate(63.623047 0)"/>
       <use xlink:href="#DejaVuSans-30" transform="translate(127.246094 0)"/>
      </g>
     </g>
    </g>
    <g id="xtick_5">
     <g id="line2d_9">
      <path d="M 407.187396 277.478125 
L 407.187396 22.318125 
" clip-path="url(#p77fdb2a7a1)" style="fill: none; stroke: #b0b0b0; stroke-opacity: 0.25; stroke-width: 0.8; stroke-linecap: square"/>
     </g>
     <g id="line2d_10">
      <g>
       <use xlink:href="#me0953b4030" x="407.187396" y="277.478125" style="stroke: #000000; stroke-width: 0.8"/>
      </g>
     </g>
     <g id="text_5">
      <!-- 200 -->
      <g transform="translate(397.643646 292.076563) scale(0.1 -0.1)">
       <defs>
        <path id="DejaVuSans-32" d="M 1228 531 
L 3431 531 
L 3431 0 
L 469 0 
L 469 531 
Q 828 903 1448 1529 
Q 2069 2156 2228 2338 
Q 2531 2678 2651 2914 
Q 2772 3150 2772 3378 
Q 2772 3750 2511 3984 
Q 2250 4219 1831 4219 
Q 1534 4219 1204 4116 
Q 875 4013 500 3803 
L 500 4441 
Q 881 4594 1212 4672 
Q 1544 4750 1819 4750 
Q 2544 4750 2975 4387 
Q 3406 4025 3406 3419 
Q 3406 3131 3298 2873 
Q 3191 2616 2906 2266 
Q 2828 2175 2409 1742 
Q 1991 1309 1228 531 
z
" transform="scale(0.015625)"/>
       </defs>
       <use xlink:href="#DejaVuSans-32"/>
       <use xlink:href="#DejaVuSans-30" transform="translate(63.623047 0)"/>
       <use xlink:href="#DejaVuSans-30" transform="translate(127.246094 0)"/>
      </g>
     </g>
    </g>
    <g id="xtick_6">
     <g id="line2d_11">
      <path d="M 489.003081 277.478125 
L 489.003081 22.318125 
" clip-path="url(#p77fdb2a7a1)" style="fill: none; stroke: #b0b0b0; stroke-opacity: 0.25; stroke-width: 0.8; stroke-linecap: square"/>
     </g>
     <g id="line2d_12">
      <g>
       <use xlink:href="#me0953b4030" x="489.003081" y="277.478125" style="stroke: #000000; stroke-width: 0.8"/>
      </g>
     </g>
     <g id="text_6">
      <!-- 250 -->
      <g transform="translate(479.459331 292.076563) scale(0.1 -0.1)">
       <use xlink:href="#DejaVuSans-32"/>
       <use xlink:href="#DejaVuSans-35" transform="translate(63.623047 0)"/>
       <use xlink:href="#DejaVuSans-30" transform="translate(127.246094 0)"/>
      </g>
     </g>
    </g>
    <g id="xtick_7">
     <g id="line2d_13">
      <path d="M 570.818765 277.478125 
L 570.818765 22.318125 
" clip-path="url(#p77fdb2a7a1)" style="fill: none; stroke: #b0b0b0; stroke-opacity: 0.25; stroke-width: 0.8; stroke-linecap: square"/>
     </g>
     <g id="line2d_14">
      <g>
       <use xlink:href="#me0953b4030" x="570.818765" y="277.478125" style="stroke: #000000; stroke-width: 0.8"/>
      </g>
     </g>
     <g id="text_7">
      <!-- 300 -->
      <g transform="translate(561.275015 292.076563) scale(0.1 -0.1)">
       <defs>
        <path id="DejaVuSans-33" d="M 2597 2516 
Q 3050 2419 3304 2112 
Q 3559 1806 3559 1356 
Q 3559 666 3084 287 
Q 2609 -91 1734 -91 
Q 1441 -91 1130 -33 
Q 819 25 488 141 
L 488 750 
Q 750 597 1062 519 
Q 1375 441 1716 441 
Q 2309 441 2620 675 
Q 2931 909 2931 1356 
Q 2931 1769 2642 2001 
Q 2353 2234 1838 2234 
L 1294 2234 
L 1294 2753 
L 1863 2753 
Q 2328 2753 2575 2939 
Q 2822 3125 2822 3475 
Q 2822 3834 2567 4026 
Q 2313 4219 1838 4219 
Q 1578 4219 1281 4162 
Q 984 4106 628 3988 
L 628 4550 
Q 988 4650 1302 4700 
Q 1616 4750 1894 4750 
Q 2613 4750 3031 4423 
Q 3450 4097 3450 3541 
Q 3450 3153 3228 2886 
Q 3006 2619 2597 2516 
z
" transform="scale(0.015625)"/>
       </defs>
       <use xlink:href="#DejaVuSans-33"/>
       <use xlink:href="#DejaVuSans-30" transform="translate(63.623047 0)"/>
       <use xlink:href="#DejaVuSans-30" transform="translate(127.246094 0)"/>
      </g>
     </g>
    </g>
    <g id="xtick_8">
     <g id="line2d_15">
      <path d="M 652.634449 277.478125 
L 652.634449 22.318125 
" clip-path="url(#p77fdb2a7a1)" style="fill: none; stroke: #b0b0b0; stroke-opacity: 0.25; stroke-width: 0.8; stroke-linecap: square"/>
     </g>
     <g id="line2d_16">
      <g>
       <use xlink:href="#me0953b4030" x="652.634449" y="277.478125" style="stroke: #000000; stroke-width: 0.8"/>
      </g>
     </g>
     <g id="text_8">
      <!-- 350 -->
      <g transform="translate(643.090699 292.076563) scale(0.1 -0.1)">
       <use xlink:href="#DejaVuSans-33"/>
       <use xlink:href="#DejaVuSans-35" transform="translate(63.623047 0)"/>
       <use xlink:href="#DejaVuSans-30" transform="translate(127.246094 0)"/>
      </g>
     </g>
    </g>
    <g id="text_9">
     <!-- days in production -->
     <g transform="translate(331.349375 305.754687) scale(0.1 -0.1)">
      <defs>
       <path id="DejaVuSans-64" d="M 2906 2969 
L 2906 4863 
L 3481 4863 
L 3481 0 
L 2906 0 
L 2906 525 
Q 2725 213 2448 61 
Q 2172 -91 1784 -91 
Q 1150 -91 751 415 
Q 353 922 353 1747 
Q 353 2572 751 3078 
Q 1150 3584 1784 3584 
Q 2172 3584 2448 3432 
Q 2725 3281 2906 2969 
z
M 947 1747 
Q 947 1113 1208 752 
Q 1469 391 1925 391 
Q 2381 391 2643 752 
Q 2906 1113 2906 1747 
Q 2906 2381 2643 2742 
Q 2381 3103 1925 3103 
Q 1469 3103 1208 2742 
Q 947 2381 947 1747 
z
" transform="scale(0.015625)"/>
       <path id="DejaVuSans-61" d="M 2194 1759 
Q 1497 1759 1228 1600 
Q 959 1441 959 1056 
Q 959 750 1161 570 
Q 1363 391 1709 391 
Q 2188 391 2477 730 
Q 2766 1069 2766 1631 
L 2766 1759 
L 2194 1759 
z
M 3341 1997 
L 3341 0 
L 2766 0 
L 2766 531 
Q 2569 213 2275 61 
Q 1981 -91 1556 -91 
Q 1019 -91 701 211 
Q 384 513 384 1019 
Q 384 1609 779 1909 
Q 1175 2209 1959 2209 
L 2766 2209 
L 2766 2266 
Q 2766 2663 2505 2880 
Q 2244 3097 1772 3097 
Q 1472 3097 1187 3025 
Q 903 2953 641 2809 
L 641 3341 
Q 956 3463 1253 3523 
Q 1550 3584 1831 3584 
Q 2591 3584 2966 3190 
Q 3341 2797 3341 1997 
z
" transform="scale(0.015625)"/>
       <path id="DejaVuSans-79" d="M 2059 -325 
Q 1816 -950 1584 -1140 
Q 1353 -1331 966 -1331 
L 506 -1331 
L 506 -850 
L 844 -850 
Q 1081 -850 1212 -737 
Q 1344 -625 1503 -206 
L 1606 56 
L 191 3500 
L 800 3500 
L 1894 763 
L 2988 3500 
L 3597 3500 
L 2059 -325 
z
" transform="scale(0.015625)"/>
       <path id="DejaVuSans-73" d="M 2834 3397 
L 2834 2853 
Q 2591 2978 2328 3040 
Q 2066 3103 1784 3103 
Q 1356 3103 1142 2972 
Q 928 2841 928 2578 
Q 928 2378 1081 2264 
Q 1234 2150 1697 2047 
L 1894 2003 
Q 2506 1872 2764 1633 
Q 3022 1394 3022 966 
Q 3022 478 2636 193 
Q 2250 -91 1575 -91 
Q 1294 -91 989 -36 
Q 684 19 347 128 
L 347 722 
Q 666 556 975 473 
Q 1284 391 1588 391 
Q 1994 391 2212 530 
Q 2431 669 2431 922 
Q 2431 1156 2273 1281 
Q 2116 1406 1581 1522 
L 1381 1569 
Q 847 1681 609 1914 
Q 372 2147 372 2553 
Q 372 3047 722 3315 
Q 1072 3584 1716 3584 
Q 2034 3584 2315 3537 
Q 2597 3491 2834 3397 
z
" transform="scale(0.015625)"/>
       <path id="DejaVuSans-20" transform="scale(0.015625)"/>
       <path id="DejaVuSans-69" d="M 603 3500 
L 1178 3500 
L 1178 0 
L 603 0 
L 603 3500 
z
M 603 4863 
L 1178 4863 
L 1178 4134 
L 603 4134 
L 603 4863 
z
" transform="scale(0.015625)"/>
       <path id="DejaVuSans-6e" d="M 3513 2113 
L 3513 0 
L 2938 0 
L 2938 2094 
Q 2938 2591 2744 2837 
Q 2550 3084 2163 3084 
Q 1697 3084 1428 2787 
Q 1159 2491 1159 1978 
L 1159 0 
L 581 0 
L 581 3500 
L 1159 3500 
L 1159 2956 
Q 1366 3272 1645 3428 
Q 1925 3584 2291 3584 
Q 2894 3584 3203 3211 
Q 3513 2838 3513 2113 
z
" transform="scale(0.015625)"/>
       <path id="DejaVuSans-70" d="M 1159 525 
L 1159 -1331 
L 581 -1331 
L 581 3500 
L 1159 3500 
L 1159 2969 
Q 1341 3281 1617 3432 
Q 1894 3584 2278 3584 
Q 2916 3584 3314 3078 
Q 3713 2572 3713 1747 
Q 3713 922 3314 415 
Q 2916 -91 2278 -91 
Q 1894 -91 1617 61 
Q 1341 213 1159 525 
z
M 3116 1747 
Q 3116 2381 2855 2742 
Q 2594 3103 2138 3103 
Q 1681 3103 1420 2742 
Q 1159 2381 1159 1747 
Q 1159 1113 1420 752 
Q 1681 391 2138 391 
Q 2594 391 2855 752 
Q 3116 1113 3116 1747 
z
" transform="scale(0.015625)"/>
       <path id="DejaVuSans-72" d="M 2631 2963 
Q 2534 3019 2420 3045 
Q 2306 3072 2169 3072 
Q 1681 3072 1420 2755 
Q 1159 2438 1159 1844 
L 1159 0 
L 581 0 
L 581 3500 
L 1159 3500 
L 1159 2956 
Q 1341 3275 1631 3429 
Q 1922 3584 2338 3584 
Q 2397 3584 2469 3576 
Q 2541 3569 2628 3553 
L 2631 2963 
z
" transform="scale(0.015625)"/>
       <path id="DejaVuSans-6f" d="M 1959 3097 
Q 1497 3097 1228 2736 
Q 959 2375 959 1747 
Q 959 1119 1226 758 
Q 1494 397 1959 397 
Q 2419 397 2687 759 
Q 2956 1122 2956 1747 
Q 2956 2369 2687 2733 
Q 2419 3097 1959 3097 
z
M 1959 3584 
Q 2709 3584 3137 3096 
Q 3566 2609 3566 1747 
Q 3566 888 3137 398 
Q 2709 -91 1959 -91 
Q 1206 -91 779 398 
Q 353 888 353 1747 
Q 353 2609 779 3096 
Q 1206 3584 1959 3584 
z
" transform="scale(0.015625)"/>
       <path id="DejaVuSans-75" d="M 544 1381 
L 544 3500 
L 1119 3500 
L 1119 1403 
Q 1119 906 1312 657 
Q 1506 409 1894 409 
Q 2359 409 2629 706 
Q 2900 1003 2900 1516 
L 2900 3500 
L 3475 3500 
L 3475 0 
L 2900 0 
L 2900 538 
Q 2691 219 2414 64 
Q 2138 -91 1772 -91 
Q 1169 -91 856 284 
Q 544 659 544 1381 
z
M 1991 3584 
L 1991 3584 
z
" transform="scale(0.015625)"/>
       <path id="DejaVuSans-63" d="M 3122 3366 
L 3122 2828 
Q 2878 2963 2633 3030 
Q 2388 3097 2138 3097 
Q 1578 3097 1268 2742 
Q 959 2388 959 1747 
Q 959 1106 1268 751 
Q 1578 397 2138 397 
Q 2388 397 2633 464 
Q 2878 531 3122 666 
L 3122 134 
Q 2881 22 2623 -34 
Q 2366 -91 2075 -91 
Q 1284 -91 818 406 
Q 353 903 353 1747 
Q 353 2603 823 3093 
Q 1294 3584 2113 3584 
Q 2378 3584 2631 3529 
Q 2884 3475 3122 3366 
z
" transform="scale(0.015625)"/>
       <path id="DejaVuSans-74" d="M 1172 4494 
L 1172 3500 
L 2356 3500 
L 2356 3053 
L 1172 3053 
L 1172 1153 
Q 1172 725 1289 603 
Q 1406 481 1766 481 
L 2356 481 
L 2356 0 
L 1766 0 
Q 1100 0 847 248 
Q 594 497 594 1153 
L 594 3053 
L 172 3053 
L 172 3500 
L 594 3500 
L 594 4494 
L 1172 4494 
z
" transform="scale(0.015625)"/>
      </defs>
      <use xlink:href="#DejaVuSans-64"/>
      <use xlink:href="#DejaVuSans-61" transform="translate(63.476562 0)"/>
      <use xlink:href="#DejaVuSans-79" transform="translate(124.755859 0)"/>
      <use xlink:href="#DejaVuSans-73" transform="translate(183.935547 0)"/>
      <use xlink:href="#DejaVuSans-20" transform="translate(236.035156 0)"/>
      <use xlink:href="#DejaVuSans-69" transform="translate(267.822266 0)"/>
      <use xlink:href="#DejaVuSans-6e" transform="translate(295.605469 0)"/>
      <use xlink:href="#DejaVuSans-20" transform="translate(358.984375 0)"/>
      <use xlink:href="#DejaVuSans-70" transform="translate(390.771484 0)"/>
      <use xlink:href="#DejaVuSans-72" transform="translate(454.248047 0)"/>
      <use xlink:href="#DejaVuSans-6f" transform="translate(493.111328 0)"/>
      <use xlink:href="#DejaVuSans-64" transform="translate(554.292969 0)"/>
      <use xlink:href="#DejaVuSans-75" transform="translate(617.769531 0)"/>
      <use xlink:href="#DejaVuSans-63" transform="translate(681.148438 0)"/>
      <use xlink:href="#DejaVuSans-74" transform="translate(736.128906 0)"/>
      <use xlink:href="#DejaVuSans-69" transform="translate(775.337891 0)"/>
      <use xlink:href="#DejaVuSans-6f" transform="translate(803.121094 0)"/>
      <use xlink:href="#DejaVuSans-6e" transform="translate(864.302734 0)"/>
     </g>
    </g>
   </g>
   <g id="matplotlib.axis_2">
    <g id="ytick_1">
     <g id="line2d_17">
      <path d="M 50.14375 260.896618 
L 705.32375 260.896618 
" clip-path="url(#p77fdb2a7a1)" style="fill: none; stroke: #b0b0b0; stroke-opacity: 0.25; stroke-width: 0.8; stroke-linecap: square"/>
     </g>
     <g id="line2d_18">
      <defs>
       <path id="me83494812f" d="M 0 0 
L -3.5 0 
" style="stroke: #000000; stroke-width: 0.8"/>
      </defs>
      <g>
       <use xlink:href="#me83494812f" x="50.14375" y="260.896618" style="stroke: #000000; stroke-width: 0.8"/>
      </g>
     </g>
     <g id="text_10">
      <!-- 0.55 -->
      <g transform="translate(20.878125 264.695837) scale(0.1 -0.1)">
       <defs>
        <path id="DejaVuSans-2e" d="M 684 794 
L 1344 794 
L 1344 0 
L 684 0 
L 684 794 
z
" transform="scale(0.015625)"/>
       </defs>
       <use xlink:href="#DejaVuSans-30"/>
       <use xlink:href="#DejaVuSans-2e" transform="translate(63.623047 0)"/>
       <use xlink:href="#DejaVuSans-35" transform="translate(95.410156 0)"/>
       <use xlink:href="#DejaVuSans-35" transform="translate(159.033203 0)"/>
      </g>
     </g>
    </g>
    <g id="ytick_2">
     <g id="line2d_19">
      <path d="M 50.14375 230.109885 
L 705.32375 230.109885 
" clip-path="url(#p77fdb2a7a1)" style="fill: none; stroke: #b0b0b0; stroke-opacity: 0.25; stroke-width: 0.8; stroke-linecap: square"/>
     </g>
     <g id="line2d_20">
      <g>
       <use xlink:href="#me83494812f" x="50.14375" y="230.109885" style="stroke: #000000; stroke-width: 0.8"/>
      </g>
     </g>
     <g id="text_11">
      <!-- 0.60 -->
      <g transform="translate(20.878125 233.909104) scale(0.1 -0.1)">
       <defs>
        <path id="DejaVuSans-36" d="M 2113 2584 
Q 1688 2584 1439 2293 
Q 1191 2003 1191 1497 
Q 1191 994 1439 701 
Q 1688 409 2113 409 
Q 2538 409 2786 701 
Q 3034 994 3034 1497 
Q 3034 2003 2786 2293 
Q 2538 2584 2113 2584 
z
M 3366 4563 
L 3366 3988 
Q 3128 4100 2886 4159 
Q 2644 4219 2406 4219 
Q 1781 4219 1451 3797 
Q 1122 3375 1075 2522 
Q 1259 2794 1537 2939 
Q 1816 3084 2150 3084 
Q 2853 3084 3261 2657 
Q 3669 2231 3669 1497 
Q 3669 778 3244 343 
Q 2819 -91 2113 -91 
Q 1303 -91 875 529 
Q 447 1150 447 2328 
Q 447 3434 972 4092 
Q 1497 4750 2381 4750 
Q 2619 4750 2861 4703 
Q 3103 4656 3366 4563 
z
" transform="scale(0.015625)"/>
       </defs>
       <use xlink:href="#DejaVuSans-30"/>
       <use xlink:href="#DejaVuSans-2e" transform="translate(63.623047 0)"/>
       <use xlink:href="#DejaVuSans-36" transform="translate(95.410156 0)"/>
       <use xlink:href="#DejaVuSans-30" transform="translate(159.033203 0)"/>
      </g>
     </g>
    </g>
    <g id="ytick_3">
     <g id="line2d_21">
      <path d="M 50.14375 199.323151 
L 705.32375 199.323151 
" clip-path="url(#p77fdb2a7a1)" style="fill: none; stroke: #b0b0b0; stroke-opacity: 0.25; stroke-width: 0.8; stroke-linecap: square"/>
     </g>
     <g id="line2d_22">
      <g>
       <use xlink:href="#me83494812f" x="50.14375" y="199.323151" style="stroke: #000000; stroke-width: 0.8"/>
      </g>
     </g>
     <g id="text_12">
      <!-- 0.65 -->
      <g transform="translate(20.878125 203.12237) scale(0.1 -0.1)">
       <use xlink:href="#DejaVuSans-30"/>
       <use xlink:href="#DejaVuSans-2e" transform="translate(63.623047 0)"/>
       <use xlink:href="#DejaVuSans-36" transform="translate(95.410156 0)"/>
       <use xlink:href="#DejaVuSans-35" transform="translate(159.033203 0)"/>
      </g>
     </g>
    </g>
    <g id="ytick_4">
     <g id="line2d_23">
      <path d="M 50.14375 168.536418 
L 705.32375 168.536418 
" clip-path="url(#p77fdb2a7a1)" style="fill: none; stroke: #b0b0b0; stroke-opacity: 0.25; stroke-width: 0.8; stroke-linecap: square"/>
     </g>
     <g id="line2d_24">
      <g>
       <use xlink:href="#me83494812f" x="50.14375" y="168.536418" style="stroke: #000000; stroke-width: 0.8"/>
      </g>
     </g>
     <g id="text_13">
      <!-- 0.70 -->
      <g transform="translate(20.878125 172.335637) scale(0.1 -0.1)">
       <defs>
        <path id="DejaVuSans-37" d="M 525 4666 
L 3525 4666 
L 3525 4397 
L 1831 0 
L 1172 0 
L 2766 4134 
L 525 4134 
L 525 4666 
z
" transform="scale(0.015625)"/>
       </defs>
       <use xlink:href="#DejaVuSans-30"/>
       <use xlink:href="#DejaVuSans-2e" transform="translate(63.623047 0)"/>
       <use xlink:href="#DejaVuSans-37" transform="translate(95.410156 0)"/>
       <use xlink:href="#DejaVuSans-30" transform="translate(159.033203 0)"/>
      </g>
     </g>
    </g>
    <g id="ytick_5">
     <g id="line2d_25">
      <path d="M 50.14375 137.749684 
L 705.32375 137.749684 
" clip-path="url(#p77fdb2a7a1)" style="fill: none; stroke: #b0b0b0; stroke-opacity: 0.25; stroke-width: 0.8; stroke-linecap: square"/>
     </g>
     <g id="line2d_26">
      <g>
       <use xlink:href="#me83494812f" x="50.14375" y="137.749684" style="stroke: #000000; stroke-width: 0.8"/>
      </g>
     </g>
     <g id="text_14">
      <!-- 0.75 -->
      <g transform="translate(20.878125 141.548903) scale(0.1 -0.1)">
       <use xlink:href="#DejaVuSans-30"/>
       <use xlink:href="#DejaVuSans-2e" transform="translate(63.623047 0)"/>
       <use xlink:href="#DejaVuSans-37" transform="translate(95.410156 0)"/>
       <use xlink:href="#DejaVuSans-35" transform="translate(159.033203 0)"/>
      </g>
     </g>
    </g>
    <g id="ytick_6">
     <g id="line2d_27">
      <path d="M 50.14375 106.962951 
L 705.32375 106.962951 
" clip-path="url(#p77fdb2a7a1)" style="fill: none; stroke: #b0b0b0; stroke-opacity: 0.25; stroke-width: 0.8; stroke-linecap: square"/>
     </g>
     <g id="line2d_28">
      <g>
       <use xlink:href="#me83494812f" x="50.14375" y="106.962951" style="stroke: #000000; stroke-width: 0.8"/>
      </g>
     </g>
     <g id="text_15">
      <!-- 0.80 -->
      <g transform="translate(20.878125 110.76217) scale(0.1 -0.1)">
       <defs>
        <path id="DejaVuSans-38" d="M 2034 2216 
Q 1584 2216 1326 1975 
Q 1069 1734 1069 1313 
Q 1069 891 1326 650 
Q 1584 409 2034 409 
Q 2484 409 2743 651 
Q 3003 894 3003 1313 
Q 3003 1734 2745 1975 
Q 2488 2216 2034 2216 
z
M 1403 2484 
Q 997 2584 770 2862 
Q 544 3141 544 3541 
Q 544 4100 942 4425 
Q 1341 4750 2034 4750 
Q 2731 4750 3128 4425 
Q 3525 4100 3525 3541 
Q 3525 3141 3298 2862 
Q 3072 2584 2669 2484 
Q 3125 2378 3379 2068 
Q 3634 1759 3634 1313 
Q 3634 634 3220 271 
Q 2806 -91 2034 -91 
Q 1263 -91 848 271 
Q 434 634 434 1313 
Q 434 1759 690 2068 
Q 947 2378 1403 2484 
z
M 1172 3481 
Q 1172 3119 1398 2916 
Q 1625 2713 2034 2713 
Q 2441 2713 2670 2916 
Q 2900 3119 2900 3481 
Q 2900 3844 2670 4047 
Q 2441 4250 2034 4250 
Q 1625 4250 1398 4047 
Q 1172 3844 1172 3481 
z
" transform="scale(0.015625)"/>
       </defs>
       <use xlink:href="#DejaVuSans-30"/>
       <use xlink:href="#DejaVuSans-2e" transform="translate(63.623047 0)"/>
       <use xlink:href="#DejaVuSans-38" transform="translate(95.410156 0)"/>
       <use xlink:href="#DejaVuSans-30" transform="translate(159.033203 0)"/>
      </g>
     </g>
    </g>
    <g id="ytick_7">
     <g id="line2d_29">
      <path d="M 50.14375 76.176217 
L 705.32375 76.176217 
" clip-path="url(#p77fdb2a7a1)" style="fill: none; stroke: #b0b0b0; stroke-opacity: 0.25; stroke-width: 0.8; stroke-linecap: square"/>
     </g>
     <g id="line2d_30">
      <g>
       <use xlink:href="#me83494812f" x="50.14375" y="76.176217" style="stroke: #000000; stroke-width: 0.8"/>
      </g>
     </g>
     <g id="text_16">
      <!-- 0.85 -->
      <g transform="translate(20.878125 79.975436) scale(0.1 -0.1)">
       <use xlink:href="#DejaVuSans-30"/>
       <use xlink:href="#DejaVuSans-2e" transform="translate(63.623047 0)"/>
       <use xlink:href="#DejaVuSans-38" transform="translate(95.410156 0)"/>
       <use xlink:href="#DejaVuSans-35" transform="translate(159.033203 0)"/>
      </g>
     </g>
    </g>
    <g id="ytick_8">
     <g id="line2d_31">
      <path d="M 50.14375 45.389484 
L 705.32375 45.389484 
" clip-path="url(#p77fdb2a7a1)" style="fill: none; stroke: #b0b0b0; stroke-opacity: 0.25; stroke-width: 0.8; stroke-linecap: square"/>
     </g>
     <g id="line2d_32">
      <g>
       <use xlink:href="#me83494812f" x="50.14375" y="45.389484" style="stroke: #000000; stroke-width: 0.8"/>
      </g>
     </g>
     <g id="text_17">
      <!-- 0.90 -->
      <g transform="translate(20.878125 49.188703) scale(0.1 -0.1)">
       <defs>
        <path id="DejaVuSans-39" d="M 703 97 
L 703 672 
Q 941 559 1184 500 
Q 1428 441 1663 441 
Q 2288 441 2617 861 
Q 2947 1281 2994 2138 
Q 2813 1869 2534 1725 
Q 2256 1581 1919 1581 
Q 1219 1581 811 2004 
Q 403 2428 403 3163 
Q 403 3881 828 4315 
Q 1253 4750 1959 4750 
Q 2769 4750 3195 4129 
Q 3622 3509 3622 2328 
Q 3622 1225 3098 567 
Q 2575 -91 1691 -91 
Q 1453 -91 1209 -44 
Q 966 3 703 97 
z
M 1959 2075 
Q 2384 2075 2632 2365 
Q 2881 2656 2881 3163 
Q 2881 3666 2632 3958 
Q 2384 4250 1959 4250 
Q 1534 4250 1286 3958 
Q 1038 3666 1038 3163 
Q 1038 2656 1286 2365 
Q 1534 2075 1959 2075 
z
" transform="scale(0.015625)"/>
       </defs>
       <use xlink:href="#DejaVuSans-30"/>
       <use xlink:href="#DejaVuSans-2e" transform="translate(63.623047 0)"/>
       <use xlink:href="#DejaVuSans-39" transform="translate(95.410156 0)"/>
       <use xlink:href="#DejaVuSans-30" transform="translate(159.033203 0)"/>
      </g>
     </g>
    </g>
    <g id="text_18">
     <!-- test accuracy -->
     <g transform="translate(14.798438 183.648125) rotate(-90) scale(0.1 -0.1)">
      <defs>
       <path id="DejaVuSans-65" d="M 3597 1894 
L 3597 1613 
L 953 1613 
Q 991 1019 1311 708 
Q 1631 397 2203 397 
Q 2534 397 2845 478 
Q 3156 559 3463 722 
L 3463 178 
Q 3153 47 2828 -22 
Q 2503 -91 2169 -91 
Q 1331 -91 842 396 
Q 353 884 353 1716 
Q 353 2575 817 3079 
Q 1281 3584 2069 3584 
Q 2775 3584 3186 3129 
Q 3597 2675 3597 1894 
z
M 3022 2063 
Q 3016 2534 2758 2815 
Q 2500 3097 2075 3097 
Q 1594 3097 1305 2825 
Q 1016 2553 972 2059 
L 3022 2063 
z
" transform="scale(0.015625)"/>
      </defs>
      <use xlink:href="#DejaVuSans-74"/>
      <use xlink:href="#DejaVuSans-65" transform="translate(39.208984 0)"/>
      <use xlink:href="#DejaVuSans-73" transform="translate(100.732422 0)"/>
      <use xlink:href="#DejaVuSans-74" transform="translate(152.832031 0)"/>
      <use xlink:href="#DejaVuSans-20" transform="translate(192.041016 0)"/>
      <use xlink:href="#DejaVuSans-61" transform="translate(223.828125 0)"/>
      <use xlink:href="#DejaVuSans-63" transform="translate(285.107422 0)"/>
      <use xlink:href="#DejaVuSans-63" transform="translate(340.087891 0)"/>
      <use xlink:href="#DejaVuSans-75" transform="translate(395.068359 0)"/>
      <use xlink:href="#DejaVuSans-72" transform="translate(458.447266 0)"/>
      <use xlink:href="#DejaVuSans-61" transform="translate(499.560547 0)"/>
      <use xlink:href="#DejaVuSans-63" transform="translate(560.839844 0)"/>
      <use xlink:href="#DejaVuSans-79" transform="translate(615.820312 0)"/>
     </g>
    </g>
   </g>
   <g id="line2d_33">
    <path d="M 79.924659 38.845055 
L 81.560973 40.25458 
L 83.197286 38.491954 
L 84.8336 40.756388 
L 86.469914 43.344227 
L 89.742541 38.911955 
L 91.378855 40.626527 
L 93.015169 46.324586 
L 94.651482 48.669569 
L 97.92411 45.877989 
L 99.560423 53.778964 
L 101.196737 47.910276 
L 102.833051 51.688175 
L 104.469364 50.722569 
L 106.105678 50.759488 
L 107.741992 50.673412 
L 109.378305 49.048085 
L 111.014619 47.721538 
L 112.650933 51.942547 
L 114.287247 47.955671 
L 115.92356 54.826217 
L 117.559874 52.31185 
L 119.196188 51.22828 
L 122.468815 57.53023 
L 124.105129 58.694665 
L 125.741442 57.881896 
L 127.377756 56.410534 
L 129.01407 60.812462 
L 130.650383 58.963895 
L 132.286697 59.425848 
L 133.923011 57.886294 
L 135.559324 59.506251 
L 137.195638 59.688774 
L 138.831952 63.41151 
L 140.468265 62.413358 
L 142.104579 60.21645 
L 143.740893 58.648003 
L 145.377207 67.737776 
L 147.01352 59.816382 
L 148.649834 60.949483 
L 153.558775 67.906663 
L 155.195089 63.067163 
L 156.831402 62.136672 
L 158.467716 63.240756 
L 160.10403 65.354361 
L 161.740343 68.918613 
L 163.376657 74.354624 
L 165.012971 71.264053 
L 166.649284 69.845003 
L 168.285598 76.448254 
L 169.921912 71.881092 
L 171.558226 72.389869 
L 173.194539 72.186125 
L 174.830853 78.590261 
L 176.467167 77.597649 
L 178.10348 77.519859 
L 179.739794 80.39339 
L 181.376108 72.052741 
L 183.012421 79.550169 
L 184.648735 77.626366 
L 186.285049 80.050951 
L 187.921362 74.99563 
L 189.557676 76.4214 
L 191.19399 79.152209 
L 192.830303 88.501717 
L 194.466617 82.173384 
L 196.102931 80.844452 
L 197.739245 80.474164 
L 199.375558 86.083102 
L 201.011872 79.187125 
L 202.648186 89.477413 
L 204.284499 88.064601 
L 205.920813 83.764993 
L 207.557127 87.108418 
L 209.19344 81.710463 
L 210.829754 87.910522 
L 212.466068 91.056043 
L 214.102381 90.884775 
L 215.738695 93.697397 
L 217.375009 94.887409 
L 219.011322 89.628753 
L 220.647636 90.396099 
L 222.28395 88.81553 
L 223.920263 95.739973 
L 225.556577 88.832313 
L 227.192891 95.53303 
L 228.829205 90.416903 
L 230.465518 97.212133 
L 232.101832 98.759774 
L 233.738146 96.342189 
L 235.374459 94.551424 
L 237.010773 97.84697 
L 240.2834 103.703312 
L 241.919714 104.504692 
L 243.556028 99.258008 
L 245.192341 98.374336 
L 246.828655 102.542883 
L 248.464969 105.960427 
L 250.101282 100.580731 
L 251.737596 107.826192 
L 253.37391 106.695316 
L 255.010224 103.203836 
L 256.646537 112.658931 
L 258.282851 105.15771 
L 259.919165 108.753633 
L 261.555478 107.242249 
L 263.191792 108.427481 
L 264.828106 108.187911 
L 266.464419 107.288761 
L 268.100733 112.376397 
L 269.737047 106.282619 
L 271.37336 109.037688 
L 273.009674 109.291251 
L 274.645988 108.918327 
L 276.282301 110.695571 
L 277.918615 111.13739 
L 279.554929 114.119039 
L 281.191243 119.360072 
L 282.827556 115.998996 
L 286.100184 121.194863 
L 287.736497 116.634749 
L 289.372811 119.796553 
L 291.009125 121.832341 
L 292.645438 122.488704 
L 294.281752 119.06701 
L 295.918066 119.40488 
L 297.554379 117.053434 
L 299.190693 121.783422 
L 300.827007 119.148833 
L 302.46332 118.654937 
L 304.099634 120.046803 
L 305.735948 131.48552 
L 307.372261 121.03654 
L 309.008575 124.389412 
L 310.644889 124.746072 
L 312.281203 125.523572 
L 313.917516 126.103811 
L 315.55383 126.914558 
L 317.190144 129.618641 
L 318.826457 134.983913 
L 320.462771 130.080447 
L 322.099085 132.835296 
L 323.735398 127.651133 
L 325.371712 132.481355 
L 327.008026 131.951079 
L 328.644339 135.439466 
L 330.280653 135.011581 
L 331.916967 134.090783 
L 333.55328 139.243996 
L 335.189594 134.361034 
L 336.825908 136.229042 
L 338.462222 140.168659 
L 340.098535 144.517325 
L 341.734849 136.170164 
L 343.371163 139.281583 
L 345.007476 140.612876 
L 346.64379 140.323931 
L 348.280104 134.620287 
L 349.916417 140.981679 
L 351.552731 141.17742 
L 353.189045 146.638039 
L 354.825358 137.603943 
L 356.461672 140.466651 
L 358.097986 140.622287 
L 359.734299 144.375997 
L 361.370613 142.31642 
L 363.006927 144.612211 
L 364.643241 144.482161 
L 366.279554 147.454257 
L 367.915868 152.139059 
L 369.552182 145.049667 
L 371.188495 154.790017 
L 372.824809 150.18733 
L 374.461123 150.694036 
L 376.097436 153.890738 
L 377.73375 149.408241 
L 379.370064 152.528331 
L 381.006377 153.872291 
L 382.642691 151.542628 
L 384.279005 155.226017 
L 385.915318 150.098305 
L 387.551632 153.90824 
L 389.187946 157.066306 
L 390.824259 162.207481 
L 392.460573 160.863604 
L 394.096887 154.107197 
L 395.733201 158.224722 
L 397.369514 159.556313 
L 399.005828 154.241363 
L 400.642142 163.864991 
L 402.278455 162.334916 
L 403.914769 162.602545 
L 405.551083 159.958196 
L 407.187396 164.421879 
L 408.82371 164.883319 
L 410.460024 168.552271 
L 412.096337 161.980847 
L 413.732651 162.36017 
L 415.368965 166.924353 
L 417.005278 165.570609 
L 418.641592 170.668849 
L 420.277906 168.757507 
L 421.91422 163.678422 
L 423.550533 168.118547 
L 425.186847 162.039298 
L 426.823161 172.191396 
L 428.459474 168.597116 
L 430.095788 171.601255 
L 431.732102 169.873123 
L 435.004729 174.574306 
L 436.641043 176.133404 
L 438.277356 164.638704 
L 439.91367 174.931885 
L 441.549984 181.518139 
L 444.822611 174.453506 
L 446.458925 178.696066 
L 448.095239 173.584068 
L 449.731552 175.302116 
L 451.367866 179.472908 
L 453.00418 181.073441 
L 454.640493 183.328831 
L 456.276807 183.00608 
L 457.913121 186.002172 
L 459.549434 178.374638 
L 461.185748 177.801067 
L 462.822062 187.181289 
L 464.458375 187.5678 
L 466.094689 189.99019 
L 467.731003 188.128646 
L 469.367316 195.340385 
L 471.00363 189.909427 
L 472.639944 183.015679 
L 474.276257 188.688405 
L 475.912571 185.608942 
L 477.548885 190.361038 
L 479.185199 184.050877 
L 480.821512 189.473804 
L 482.457826 191.878926 
L 484.09414 183.460521 
L 485.730453 192.933278 
L 487.366767 196.309818 
L 489.003081 192.54419 
L 490.639394 193.9011 
L 492.275708 191.114409 
L 493.912022 197.850418 
L 495.548335 193.151283 
L 497.184649 193.619144 
L 498.820963 198.915804 
L 500.457276 196.973372 
L 502.09359 200.649296 
L 503.729904 191.48544 
L 505.366218 201.490967 
L 507.002531 201.333754 
L 508.638845 203.835988 
L 510.275159 202.23595 
L 511.911472 201.80418 
L 513.547786 200.038053 
L 515.1841 204.897048 
L 516.820413 204.205231 
L 518.456727 208.609937 
L 520.093041 207.412065 
L 521.729354 196.996267 
L 525.001982 209.117717 
L 526.638295 211.445111 
L 528.274609 210.946938 
L 529.910923 208.62595 
L 531.547237 209.06799 
L 533.18355 212.082284 
L 534.819864 214.367318 
L 536.456178 206.643071 
L 538.092491 210.247253 
L 539.728805 213.406752 
L 541.365119 213.548658 
L 543.001432 215.1153 
L 544.637746 223.139908 
L 546.27406 214.360433 
L 547.910373 218.628109 
L 549.546687 219.034925 
L 551.183001 218.534881 
L 552.819314 214.924939 
L 554.455628 221.398873 
L 556.091942 222.82661 
L 557.728255 217.056765 
L 559.364569 217.31994 
L 561.000883 223.210374 
L 562.637197 219.142426 
L 564.27351 222.38744 
L 565.909824 221.177754 
L 567.546138 226.603154 
L 569.182451 220.772593 
L 570.818765 220.248097 
L 572.455079 222.606932 
L 574.091392 223.465061 
L 575.727706 237.413345 
L 577.36402 225.613083 
L 579.000333 227.109549 
L 580.636647 228.099651 
L 582.272961 230.204024 
L 583.909274 228.707965 
L 585.545588 228.225375 
L 587.181902 230.922002 
L 588.818216 232.152043 
L 590.454529 227.555344 
L 592.090843 235.360153 
L 593.727157 229.401312 
L 595.36347 232.64421 
L 596.999784 236.280487 
L 598.636098 235.312787 
L 600.272411 237.868122 
L 601.908725 233.573194 
L 603.545039 235.196156 
L 605.181352 238.59716 
L 606.817666 240.892071 
L 608.45398 237.18555 
L 610.090293 235.782693 
L 611.726607 239.69637 
L 613.362921 238.673669 
L 614.999235 241.735039 
L 616.635548 240.985085 
L 618.271862 242.705608 
L 619.908176 241.519318 
L 621.544489 247.688409 
L 623.180803 241.672795 
L 624.817117 244.979669 
L 626.45343 243.78348 
L 628.089744 246.550955 
L 629.726058 245.132699 
L 631.362371 250.036791 
L 632.998685 243.689438 
L 634.634999 253.210848 
L 636.271312 251.781402 
L 639.54394 245.309781 
L 641.180253 249.572869 
L 642.816567 251.808093 
L 644.452881 256.047985 
L 646.089195 252.865211 
L 647.725508 252.953262 
L 649.361822 248.303094 
L 650.998136 252.208217 
L 652.634449 259.446849 
L 654.270763 249.115215 
L 655.907077 257.186847 
L 657.54339 259.294045 
L 659.179704 252.661713 
L 660.816018 257.971127 
L 662.452331 259.564792 
L 665.724959 257.064012 
L 667.361272 257.222726 
L 668.997586 265.130417 
L 670.6339 255.359681 
L 672.270214 259.21301 
L 673.906527 263.911258 
L 675.542841 265.879943 
L 675.542841 265.879943 
" clip-path="url(#p77fdb2a7a1)" style="fill: none; stroke: #e15759; stroke-width: 2; stroke-linecap: square"/>
   </g>
   <g id="line2d_34">
    <path d="M 79.924659 42.21541 
L 81.560973 39.46803 
L 83.197286 42.458637 
L 84.8336 43.434138 
L 86.469914 39.197489 
L 88.106228 41.188427 
L 89.742541 44.141301 
L 91.378855 41.281771 
L 93.015169 39.948303 
L 94.651482 48.143346 
L 96.287796 47.246823 
L 97.92411 43.103194 
L 99.560423 44.40757 
L 101.196737 46.538756 
L 102.833051 44.273708 
L 104.469364 51.818406 
L 106.105678 53.637674 
L 107.741992 52.36732 
L 109.378305 49.938088 
L 111.014619 53.381987 
L 112.650933 53.046816 
L 114.287247 55.164272 
L 115.92356 54.688399 
L 117.559874 56.487446 
L 119.196188 52.878461 
L 120.832501 52.178294 
L 122.468815 56.720375 
L 124.105129 56.495077 
L 125.741442 58.261518 
L 127.377756 55.452894 
L 129.01407 38.957963 
L 130.650383 34.939984 
L 132.286697 43.836207 
L 133.923011 39.963315 
L 135.559324 40.328171 
L 137.195638 43.420488 
L 138.831952 41.130034 
L 140.468265 47.971021 
L 142.104579 37.634912 
L 143.740893 48.905466 
L 145.377207 42.557698 
L 147.01352 49.456789 
L 148.649834 43.07776 
L 150.286148 48.421282 
L 151.922461 47.36469 
L 153.558775 48.303929 
L 155.195089 45.695091 
L 156.831402 50.689566 
L 158.467716 59.450351 
L 160.10403 53.271069 
L 161.740343 50.98124 
L 163.376657 53.518623 
L 165.012971 50.408273 
L 166.649284 50.268175 
L 168.285598 54.46471 
L 169.921912 59.211636 
L 171.558226 50.979846 
L 173.194539 52.522605 
L 174.830853 57.39382 
L 176.467167 50.597711 
L 178.10348 40.306211 
L 179.739794 43.348692 
L 181.376108 40.94349 
L 183.012421 37.761043 
L 184.648735 44.581189 
L 186.285049 36.303626 
L 187.921362 45.686657 
L 189.557676 40.603926 
L 191.19399 42.481793 
L 192.830303 45.248041 
L 194.466617 42.062876 
L 196.102931 50.622609 
L 197.739245 42.441433 
L 199.375558 47.43275 
L 201.011872 49.522404 
L 202.648186 46.161695 
L 204.284499 45.820809 
L 205.920813 47.329678 
L 207.557127 44.159542 
L 209.19344 47.603893 
L 210.829754 47.595333 
L 212.466068 53.82463 
L 214.102381 52.450348 
L 215.738695 51.660795 
L 217.375009 54.064392 
L 219.011322 53.696868 
L 220.647636 53.929401 
L 222.28395 53.257822 
L 223.920263 56.785529 
L 225.556577 58.16536 
L 227.192891 41.782251 
L 228.829205 42.593224 
L 230.465518 36.854012 
L 232.101832 41.339555 
L 233.738146 39.272331 
L 235.374459 46.30497 
L 237.010773 48.893532 
L 238.647087 46.772089 
L 240.2834 40.627925 
L 241.919714 41.485488 
L 243.556028 44.367246 
L 245.192341 48.474839 
L 246.828655 47.023652 
L 248.464969 48.153395 
L 250.101282 48.914483 
L 251.737596 56.183528 
L 253.37391 51.725167 
L 255.010224 50.28491 
L 256.646537 45.646776 
L 258.282851 50.436221 
L 259.919165 47.233953 
L 261.555478 53.37466 
L 263.191792 53.556246 
L 264.828106 65.39908 
L 266.464419 52.583327 
L 268.100733 52.941175 
L 269.737047 49.811201 
L 271.37336 57.355552 
L 273.009674 56.182838 
L 274.645988 59.260533 
L 276.282301 42.853449 
L 277.918615 42.043298 
L 279.554929 41.525744 
L 281.191243 36.90639 
L 282.827556 41.688267 
L 284.46387 44.74464 
L 286.100184 42.48975 
L 287.736497 42.872449 
L 289.372811 46.239912 
L 291.009125 41.254106 
L 292.645438 51.203093 
L 294.281752 46.662653 
L 295.918066 44.573432 
L 297.554379 51.357285 
L 299.190693 46.74024 
L 300.827007 44.487762 
L 302.46332 47.687186 
L 304.099634 54.903077 
L 305.735948 52.557236 
L 307.372261 47.137236 
L 309.008575 50.628354 
L 310.644889 52.192918 
L 312.281203 51.419987 
L 313.917516 51.17416 
L 315.55383 56.190902 
L 318.826457 54.801254 
L 320.462771 57.531641 
L 322.099085 56.883562 
L 323.735398 53.092719 
L 325.371712 42.211739 
L 327.008026 33.916307 
L 328.644339 34.677719 
L 330.280653 46.354462 
L 331.916967 42.129239 
L 333.55328 41.255775 
L 335.189594 45.269019 
L 336.825908 45.823825 
L 338.462222 44.88894 
L 340.098535 42.498061 
L 341.734849 46.963714 
L 343.371163 40.381425 
L 345.007476 45.728218 
L 346.64379 47.552484 
L 348.280104 43.390625 
L 349.916417 46.540042 
L 351.552731 47.946979 
L 353.189045 50.7191 
L 354.825358 44.730692 
L 358.097986 52.173068 
L 359.734299 57.018246 
L 361.370613 51.630104 
L 363.006927 56.915237 
L 364.643241 59.292606 
L 366.279554 55.48492 
L 367.915868 54.374681 
L 369.552182 51.908633 
L 371.188495 55.603131 
L 372.824809 54.606972 
L 374.461123 43.00623 
L 376.097436 39.917241 
L 377.73375 40.081201 
L 379.370064 38.424767 
L 381.006377 41.337763 
L 382.642691 39.835314 
L 384.279005 44.47881 
L 385.915318 42.440254 
L 387.551632 42.880777 
L 389.187946 48.621401 
L 390.824259 44.849058 
L 392.460573 46.99151 
L 394.096887 52.483018 
L 395.733201 44.286067 
L 397.369514 48.966467 
L 399.005828 51.092388 
L 402.278455 49.274153 
L 403.914769 45.673001 
L 405.551083 51.44195 
L 407.187396 50.092442 
L 408.82371 47.933763 
L 410.460024 51.135672 
L 412.096337 50.104275 
L 413.732651 55.476788 
L 415.368965 52.251695 
L 417.005278 55.419728 
L 418.641592 52.549212 
L 420.277906 59.56234 
L 421.91422 59.488446 
L 423.550533 35.326127 
L 425.186847 40.45155 
L 426.823161 41.568729 
L 428.459474 40.840521 
L 430.095788 43.817813 
L 431.732102 38.210198 
L 433.368415 46.772309 
L 435.004729 44.005922 
L 436.641043 43.08986 
L 438.277356 45.095308 
L 439.91367 47.859465 
L 441.549984 48.678705 
L 443.186297 45.311303 
L 444.822611 50.409201 
L 446.458925 45.862852 
L 448.095239 53.160512 
L 449.731552 50.792504 
L 451.367866 49.587852 
L 453.00418 54.170328 
L 454.640493 48.923768 
L 456.276807 51.603906 
L 457.913121 55.352298 
L 459.549434 57.454461 
L 461.185748 58.213973 
L 462.822062 53.852652 
L 464.458375 58.187006 
L 466.094689 59.443257 
L 467.731003 56.568842 
L 469.367316 49.461028 
L 471.00363 56.233987 
L 472.639944 36.883359 
L 474.276257 39.192982 
L 475.912571 38.05306 
L 477.548885 45.214273 
L 479.185199 43.020482 
L 480.821512 41.506197 
L 482.457826 42.981705 
L 484.09414 44.133364 
L 485.730453 46.20803 
L 487.366767 45.569226 
L 489.003081 47.772986 
L 490.639394 53.461251 
L 492.275708 50.298455 
L 493.912022 45.772308 
L 495.548335 43.058688 
L 497.184649 42.884736 
L 498.820963 48.786025 
L 500.457276 46.94919 
L 502.09359 47.519994 
L 503.729904 53.062336 
L 505.366218 56.774233 
L 507.002531 52.067473 
L 508.638845 58.203541 
L 510.275159 54.378993 
L 511.911472 52.137575 
L 513.547786 58.997434 
L 515.1841 55.141812 
L 516.820413 52.039363 
L 518.456727 55.359729 
L 520.093041 55.480385 
L 521.729354 36.44058 
L 523.365668 34.512645 
L 525.001982 39.997424 
L 526.638295 37.29411 
L 528.274609 41.892632 
L 529.910923 43.992286 
L 531.547237 41.957314 
L 533.18355 45.40738 
L 534.819864 45.922492 
L 536.456178 46.644784 
L 538.092491 52.456345 
L 539.728805 45.68042 
L 541.365119 50.51189 
L 543.001432 47.566935 
L 544.637746 43.388442 
L 546.27406 50.072147 
L 547.910373 50.752561 
L 549.546687 45.500595 
L 551.183001 48.633464 
L 552.819314 47.924688 
L 554.455628 52.640656 
L 556.091942 49.859461 
L 557.728255 54.890789 
L 559.364569 55.475223 
L 561.000883 52.174128 
L 562.637197 56.4677 
L 564.27351 52.879531 
L 565.909824 48.493758 
L 567.546138 61.663821 
L 569.182451 59.404234 
L 570.818765 35.783573 
L 572.455079 40.29452 
L 574.091392 36.88899 
L 575.727706 44.188999 
L 577.36402 40.674975 
L 579.000333 42.774324 
L 580.636647 42.49439 
L 582.272961 42.522882 
L 583.909274 47.914016 
L 585.545588 48.080668 
L 587.181902 41.081669 
L 588.818216 45.102509 
L 592.090843 47.37238 
L 593.727157 46.754745 
L 595.36347 52.026909 
L 596.999784 52.159571 
L 598.636098 45.683472 
L 600.272411 49.849634 
L 601.908725 48.313297 
L 603.545039 53.411472 
L 605.181352 47.924078 
L 606.817666 51.715301 
L 608.45398 51.912436 
L 610.090293 52.320411 
L 611.726607 57.079235 
L 613.362921 60.985184 
L 614.999235 59.16594 
L 616.635548 51.452861 
L 618.271862 53.084062 
L 619.908176 40.300195 
L 621.544489 40.776635 
L 623.180803 37.272236 
L 626.45343 45.695073 
L 628.089744 38.414617 
L 629.726058 41.457468 
L 631.362371 51.289268 
L 632.998685 45.122225 
L 634.634999 44.331436 
L 636.271312 43.907882 
L 637.907626 45.536795 
L 639.54394 48.578195 
L 641.180253 47.593072 
L 642.816567 46.944829 
L 644.452881 49.293254 
L 646.089195 50.228853 
L 647.725508 45.844869 
L 649.361822 53.229657 
L 650.998136 52.00698 
L 652.634449 57.800444 
L 654.270763 50.497096 
L 655.907077 50.228344 
L 657.54339 51.705423 
L 659.179704 51.184556 
L 660.816018 53.268712 
L 662.452331 54.186746 
L 664.088645 54.397845 
L 665.724959 57.295663 
L 667.361272 53.429969 
L 668.997586 40.305277 
L 670.6339 44.349976 
L 672.270214 37.8474 
L 673.906527 35.381632 
L 675.542841 44.651068 
L 675.542841 44.651068 
" clip-path="url(#p77fdb2a7a1)" style="fill: none; stroke: #59a14f; stroke-width: 2; stroke-linecap: square"/>
   </g>
   <g id="line2d_35">
    <path d="M 79.924659 277.478125 
L 79.924659 22.318125 
" clip-path="url(#p77fdb2a7a1)" style="fill: none; stroke-dasharray: 0.6,0.99; stroke-dashoffset: 0; stroke: #59a14f; stroke-opacity: 0.6; stroke-width: 0.6"/>
   </g>
   <g id="line2d_36">
    <path d="M 129.01407 277.478125 
L 129.01407 22.318125 
" clip-path="url(#p77fdb2a7a1)" style="fill: none; stroke-dasharray: 0.6,0.99; stroke-dashoffset: 0; stroke: #59a14f; stroke-opacity: 0.6; stroke-width: 0.6"/>
   </g>
   <g id="line2d_37">
    <path d="M 178.10348 277.478125 
L 178.10348 22.318125 
" clip-path="url(#p77fdb2a7a1)" style="fill: none; stroke-dasharray: 0.6,0.99; stroke-dashoffset: 0; stroke: #59a14f; stroke-opacity: 0.6; stroke-width: 0.6"/>
   </g>
   <g id="line2d_38">
    <path d="M 227.192891 277.478125 
L 227.192891 22.318125 
" clip-path="url(#p77fdb2a7a1)" style="fill: none; stroke-dasharray: 0.6,0.99; stroke-dashoffset: 0; stroke: #59a14f; stroke-opacity: 0.6; stroke-width: 0.6"/>
   </g>
   <g id="line2d_39">
    <path d="M 276.282301 277.478125 
L 276.282301 22.318125 
" clip-path="url(#p77fdb2a7a1)" style="fill: none; stroke-dasharray: 0.6,0.99; stroke-dashoffset: 0; stroke: #59a14f; stroke-opacity: 0.6; stroke-width: 0.6"/>
   </g>
   <g id="line2d_40">
    <path d="M 325.371712 277.478125 
L 325.371712 22.318125 
" clip-path="url(#p77fdb2a7a1)" style="fill: none; stroke-dasharray: 0.6,0.99; stroke-dashoffset: 0; stroke: #59a14f; stroke-opacity: 0.6; stroke-width: 0.6"/>
   </g>
   <g id="line2d_41">
    <path d="M 374.461123 277.478125 
L 374.461123 22.318125 
" clip-path="url(#p77fdb2a7a1)" style="fill: none; stroke-dasharray: 0.6,0.99; stroke-dashoffset: 0; stroke: #59a14f; stroke-opacity: 0.6; stroke-width: 0.6"/>
   </g>
   <g id="line2d_42">
    <path d="M 423.550533 277.478125 
L 423.550533 22.318125 
" clip-path="url(#p77fdb2a7a1)" style="fill: none; stroke-dasharray: 0.6,0.99; stroke-dashoffset: 0; stroke: #59a14f; stroke-opacity: 0.6; stroke-width: 0.6"/>
   </g>
   <g id="line2d_43">
    <path d="M 472.639944 277.478125 
L 472.639944 22.318125 
" clip-path="url(#p77fdb2a7a1)" style="fill: none; stroke-dasharray: 0.6,0.99; stroke-dashoffset: 0; stroke: #59a14f; stroke-opacity: 0.6; stroke-width: 0.6"/>
   </g>
   <g id="line2d_44">
    <path d="M 521.729354 277.478125 
L 521.729354 22.318125 
" clip-path="url(#p77fdb2a7a1)" style="fill: none; stroke-dasharray: 0.6,0.99; stroke-dashoffset: 0; stroke: #59a14f; stroke-opacity: 0.6; stroke-width: 0.6"/>
   </g>
   <g id="line2d_45">
    <path d="M 570.818765 277.478125 
L 570.818765 22.318125 
" clip-path="url(#p77fdb2a7a1)" style="fill: none; stroke-dasharray: 0.6,0.99; stroke-dashoffset: 0; stroke: #59a14f; stroke-opacity: 0.6; stroke-width: 0.6"/>
   </g>
   <g id="line2d_46">
    <path d="M 619.908176 277.478125 
L 619.908176 22.318125 
" clip-path="url(#p77fdb2a7a1)" style="fill: none; stroke-dasharray: 0.6,0.99; stroke-dashoffset: 0; stroke: #59a14f; stroke-opacity: 0.6; stroke-width: 0.6"/>
   </g>
   <g id="line2d_47">
    <path d="M 668.997586 277.478125 
L 668.997586 22.318125 
" clip-path="url(#p77fdb2a7a1)" style="fill: none; stroke-dasharray: 0.6,0.99; stroke-dashoffset: 0; stroke: #59a14f; stroke-opacity: 0.6; stroke-width: 0.6"/>
   </g>
   <g id="line2d_48">
    <path d="M 50.14375 76.176217 
L 705.32375 76.176217 
" clip-path="url(#p77fdb2a7a1)" style="fill: none; stroke-dasharray: 3.7,1.6; stroke-dashoffset: 0; stroke: #000000"/>
   </g>
   <g id="patch_3">
    <path d="M 50.14375 277.478125 
L 50.14375 22.318125 
" style="fill: none; stroke: #000000; stroke-width: 0.8; stroke-linejoin: miter; stroke-linecap: square"/>
   </g>
   <g id="patch_4">
    <path d="M 705.32375 277.478125 
L 705.32375 22.318125 
" style="fill: none; stroke: #000000; stroke-width: 0.8; stroke-linejoin: miter; stroke-linecap: square"/>
   </g>
   <g id="patch_5">
    <path d="M 50.14375 277.478125 
L 705.32375 277.478125 
" style="fill: none; stroke: #000000; stroke-width: 0.8; stroke-linejoin: miter; stroke-linecap: square"/>
   </g>
   <g id="patch_6">
    <path d="M 50.14375 22.318125 
L 705.32375 22.318125 
" style="fill: none; stroke: #000000; stroke-width: 0.8; stroke-linejoin: miter; stroke-linecap: square"/>
   </g>
   <g id="text_19">
    <!-- Retraining keeps the model above SLO; no-retrain drifts below -->
    <g transform="translate(190.546875 16.318125) scale(0.12 -0.12)">
     <defs>
      <path id="DejaVuSans-52" d="M 2841 2188 
Q 3044 2119 3236 1894 
Q 3428 1669 3622 1275 
L 4263 0 
L 3584 0 
L 2988 1197 
Q 2756 1666 2539 1819 
Q 2322 1972 1947 1972 
L 1259 1972 
L 1259 0 
L 628 0 
L 628 4666 
L 2053 4666 
Q 2853 4666 3247 4331 
Q 3641 3997 3641 3322 
Q 3641 2881 3436 2590 
Q 3231 2300 2841 2188 
z
M 1259 4147 
L 1259 2491 
L 2053 2491 
Q 2509 2491 2742 2702 
Q 2975 2913 2975 3322 
Q 2975 3731 2742 3939 
Q 2509 4147 2053 4147 
L 1259 4147 
z
" transform="scale(0.015625)"/>
      <path id="DejaVuSans-67" d="M 2906 1791 
Q 2906 2416 2648 2759 
Q 2391 3103 1925 3103 
Q 1463 3103 1205 2759 
Q 947 2416 947 1791 
Q 947 1169 1205 825 
Q 1463 481 1925 481 
Q 2391 481 2648 825 
Q 2906 1169 2906 1791 
z
M 3481 434 
Q 3481 -459 3084 -895 
Q 2688 -1331 1869 -1331 
Q 1566 -1331 1297 -1286 
Q 1028 -1241 775 -1147 
L 775 -588 
Q 1028 -725 1275 -790 
Q 1522 -856 1778 -856 
Q 2344 -856 2625 -561 
Q 2906 -266 2906 331 
L 2906 616 
Q 2728 306 2450 153 
Q 2172 0 1784 0 
Q 1141 0 747 490 
Q 353 981 353 1791 
Q 353 2603 747 3093 
Q 1141 3584 1784 3584 
Q 2172 3584 2450 3431 
Q 2728 3278 2906 2969 
L 2906 3500 
L 3481 3500 
L 3481 434 
z
" transform="scale(0.015625)"/>
      <path id="DejaVuSans-6b" d="M 581 4863 
L 1159 4863 
L 1159 1991 
L 2875 3500 
L 3609 3500 
L 1753 1863 
L 3688 0 
L 2938 0 
L 1159 1709 
L 1159 0 
L 581 0 
L 581 4863 
z
" transform="scale(0.015625)"/>
      <path id="DejaVuSans-68" d="M 3513 2113 
L 3513 0 
L 2938 0 
L 2938 2094 
Q 2938 2591 2744 2837 
Q 2550 3084 2163 3084 
Q 1697 3084 1428 2787 
Q 1159 2491 1159 1978 
L 1159 0 
L 581 0 
L 581 4863 
L 1159 4863 
L 1159 2956 
Q 1366 3272 1645 3428 
Q 1925 3584 2291 3584 
Q 2894 3584 3203 3211 
Q 3513 2838 3513 2113 
z
" transform="scale(0.015625)"/>
      <path id="DejaVuSans-6d" d="M 3328 2828 
Q 3544 3216 3844 3400 
Q 4144 3584 4550 3584 
Q 5097 3584 5394 3201 
Q 5691 2819 5691 2113 
L 5691 0 
L 5113 0 
L 5113 2094 
Q 5113 2597 4934 2840 
Q 4756 3084 4391 3084 
Q 3944 3084 3684 2787 
Q 3425 2491 3425 1978 
L 3425 0 
L 2847 0 
L 2847 2094 
Q 2847 2600 2669 2842 
Q 2491 3084 2119 3084 
Q 1678 3084 1418 2786 
Q 1159 2488 1159 1978 
L 1159 0 
L 581 0 
L 581 3500 
L 1159 3500 
L 1159 2956 
Q 1356 3278 1631 3431 
Q 1906 3584 2284 3584 
Q 2666 3584 2933 3390 
Q 3200 3197 3328 2828 
z
" transform="scale(0.015625)"/>
      <path id="DejaVuSans-6c" d="M 603 4863 
L 1178 4863 
L 1178 0 
L 603 0 
L 603 4863 
z
" transform="scale(0.015625)"/>
      <path id="DejaVuSans-62" d="M 3116 1747 
Q 3116 2381 2855 2742 
Q 2594 3103 2138 3103 
Q 1681 3103 1420 2742 
Q 1159 2381 1159 1747 
Q 1159 1113 1420 752 
Q 1681 391 2138 391 
Q 2594 391 2855 752 
Q 3116 1113 3116 1747 
z
M 1159 2969 
Q 1341 3281 1617 3432 
Q 1894 3584 2278 3584 
Q 2916 3584 3314 3078 
Q 3713 2572 3713 1747 
Q 3713 922 3314 415 
Q 2916 -91 2278 -91 
Q 1894 -91 1617 61 
Q 1341 213 1159 525 
L 1159 0 
L 581 0 
L 581 4863 
L 1159 4863 
L 1159 2969 
z
" transform="scale(0.015625)"/>
      <path id="DejaVuSans-76" d="M 191 3500 
L 800 3500 
L 1894 563 
L 2988 3500 
L 3597 3500 
L 2284 0 
L 1503 0 
L 191 3500 
z
" transform="scale(0.015625)"/>
      <path id="DejaVuSans-53" d="M 3425 4513 
L 3425 3897 
Q 3066 4069 2747 4153 
Q 2428 4238 2131 4238 
Q 1616 4238 1336 4038 
Q 1056 3838 1056 3469 
Q 1056 3159 1242 3001 
Q 1428 2844 1947 2747 
L 2328 2669 
Q 3034 2534 3370 2195 
Q 3706 1856 3706 1288 
Q 3706 609 3251 259 
Q 2797 -91 1919 -91 
Q 1588 -91 1214 -16 
Q 841 59 441 206 
L 441 856 
Q 825 641 1194 531 
Q 1563 422 1919 422 
Q 2459 422 2753 634 
Q 3047 847 3047 1241 
Q 3047 1584 2836 1778 
Q 2625 1972 2144 2069 
L 1759 2144 
Q 1053 2284 737 2584 
Q 422 2884 422 3419 
Q 422 4038 858 4394 
Q 1294 4750 2059 4750 
Q 2388 4750 2728 4690 
Q 3069 4631 3425 4513 
z
" transform="scale(0.015625)"/>
      <path id="DejaVuSans-4c" d="M 628 4666 
L 1259 4666 
L 1259 531 
L 3531 531 
L 3531 0 
L 628 0 
L 628 4666 
z
" transform="scale(0.015625)"/>
      <path id="DejaVuSans-4f" d="M 2522 4238 
Q 1834 4238 1429 3725 
Q 1025 3213 1025 2328 
Q 1025 1447 1429 934 
Q 1834 422 2522 422 
Q 3209 422 3611 934 
Q 4013 1447 4013 2328 
Q 4013 3213 3611 3725 
Q 3209 4238 2522 4238 
z
M 2522 4750 
Q 3503 4750 4090 4092 
Q 4678 3434 4678 2328 
Q 4678 1225 4090 567 
Q 3503 -91 2522 -91 
Q 1538 -91 948 565 
Q 359 1222 359 2328 
Q 359 3434 948 4092 
Q 1538 4750 2522 4750 
z
" transform="scale(0.015625)"/>
      <path id="DejaVuSans-3b" d="M 750 3309 
L 1409 3309 
L 1409 2516 
L 750 2516 
L 750 3309 
z
M 750 794 
L 1409 794 
L 1409 256 
L 897 -744 
L 494 -744 
L 750 256 
L 750 794 
z
" transform="scale(0.015625)"/>
      <path id="DejaVuSans-2d" d="M 313 2009 
L 1997 2009 
L 1997 1497 
L 313 1497 
L 313 2009 
z
" transform="scale(0.015625)"/>
      <path id="DejaVuSans-66" d="M 2375 4863 
L 2375 4384 
L 1825 4384 
Q 1516 4384 1395 4259 
Q 1275 4134 1275 3809 
L 1275 3500 
L 2222 3500 
L 2222 3053 
L 1275 3053 
L 1275 0 
L 697 0 
L 697 3053 
L 147 3053 
L 147 3500 
L 697 3500 
L 697 3744 
Q 697 4328 969 4595 
Q 1241 4863 1831 4863 
L 2375 4863 
z
" transform="scale(0.015625)"/>
      <path id="DejaVuSans-77" d="M 269 3500 
L 844 3500 
L 1563 769 
L 2278 3500 
L 2956 3500 
L 3675 769 
L 4391 3500 
L 4966 3500 
L 4050 0 
L 3372 0 
L 2619 2869 
L 1863 0 
L 1184 0 
L 269 3500 
z
" transform="scale(0.015625)"/>
     </defs>
     <use xlink:href="#DejaVuSans-52"/>
     <use xlink:href="#DejaVuSans-65" transform="translate(64.982422 0)"/>
     <use xlink:href="#DejaVuSans-74" transform="translate(126.505859 0)"/>
     <use xlink:href="#DejaVuSans-72" transform="translate(165.714844 0)"/>
     <use xlink:href="#DejaVuSans-61" transform="translate(206.828125 0)"/>
     <use xlink:href="#DejaVuSans-69" transform="translate(268.107422 0)"/>
     <use xlink:href="#DejaVuSans-6e" transform="translate(295.890625 0)"/>
     <use xlink:href="#DejaVuSans-69" transform="translate(359.269531 0)"/>
     <use xlink:href="#DejaVuSans-6e" transform="translate(387.052734 0)"/>
     <use xlink:href="#DejaVuSans-67" transform="translate(450.431641 0)"/>
     <use xlink:href="#DejaVuSans-20" transform="translate(513.908203 0)"/>
     <use xlink:href="#DejaVuSans-6b" transform="translate(545.695312 0)"/>
     <use xlink:href="#DejaVuSans-65" transform="translate(599.980469 0)"/>
     <use xlink:href="#DejaVuSans-65" transform="translate(661.503906 0)"/>
     <use xlink:href="#DejaVuSans-70" transform="translate(723.027344 0)"/>
     <use xlink:href="#DejaVuSans-73" transform="translate(786.503906 0)"/>
     <use xlink:href="#DejaVuSans-20" transform="translate(838.603516 0)"/>
     <use xlink:href="#DejaVuSans-74" transform="translate(870.390625 0)"/>
     <use xlink:href="#DejaVuSans-68" transform="translate(909.599609 0)"/>
     <use xlink:href="#DejaVuSans-65" transform="translate(972.978516 0)"/>
     <use xlink:href="#DejaVuSans-20" transform="translate(1034.501953 0)"/>
     <use xlink:href="#DejaVuSans-6d" transform="translate(1066.289062 0)"/>
     <use xlink:href="#DejaVuSans-6f" transform="translate(1163.701172 0)"/>
     <use xlink:href="#DejaVuSans-64" transform="translate(1224.882812 0)"/>
     <use xlink:href="#DejaVuSans-65" transform="translate(1288.359375 0)"/>
     <use xlink:href="#DejaVuSans-6c" transform="translate(1349.882812 0)"/>
     <use xlink:href="#DejaVuSans-20" transform="translate(1377.666016 0)"/>
     <use xlink:href="#DejaVuSans-61" transform="translate(1409.453125 0)"/>
     <use xlink:href="#DejaVuSans-62" transform="translate(1470.732422 0)"/>
     <use xlink:href="#DejaVuSans-6f" transform="translate(1534.208984 0)"/>
     <use xlink:href="#DejaVuSans-76" transform="translate(1595.390625 0)"/>
     <use xlink:href="#DejaVuSans-65" transform="translate(1654.570312 0)"/>
     <use xlink:href="#DejaVuSans-20" transform="translate(1716.09375 0)"/>
     <use xlink:href="#DejaVuSans-53" transform="translate(1747.880859 0)"/>
     <use xlink:href="#DejaVuSans-4c" transform="translate(1811.357422 0)"/>
     <use xlink:href="#DejaVuSans-4f" transform="translate(1863.445312 0)"/>
     <use xlink:href="#DejaVuSans-3b" transform="translate(1942.15625 0)"/>
     <use xlink:href="#DejaVuSans-20" transform="translate(1975.847656 0)"/>
     <use xlink:href="#DejaVuSans-6e" transform="translate(2007.634766 0)"/>
     <use xlink:href="#DejaVuSans-6f" transform="translate(2071.013672 0)"/>
     <use xlink:href="#DejaVuSans-2d" transform="translate(2134.070312 0)"/>
     <use xlink:href="#DejaVuSans-72" transform="translate(2170.154297 0)"/>
     <use xlink:href="#DejaVuSans-65" transform="translate(2209.017578 0)"/>
     <use xlink:href="#DejaVuSans-74" transform="translate(2270.541016 0)"/>
     <use xlink:href="#DejaVuSans-72" transform="translate(2309.75 0)"/>
     <use xlink:href="#DejaVuSans-61" transform="translate(2350.863281 0)"/>
     <use xlink:href="#DejaVuSans-69" transform="translate(2412.142578 0)"/>
     <use xlink:href="#DejaVuSans-6e" transform="translate(2439.925781 0)"/>
     <use xlink:href="#DejaVuSans-20" transform="translate(2503.304688 0)"/>
     <use xlink:href="#DejaVuSans-64" transform="translate(2535.091797 0)"/>
     <use xlink:href="#DejaVuSans-72" transform="translate(2598.568359 0)"/>
     <use xlink:href="#DejaVuSans-69" transform="translate(2639.681641 0)"/>
     <use xlink:href="#DejaVuSans-66" transform="translate(2667.464844 0)"/>
     <use xlink:href="#DejaVuSans-74" transform="translate(2700.919922 0)"/>
     <use xlink:href="#DejaVuSans-73" transform="translate(2740.128906 0)"/>
     <use xlink:href="#DejaVuSans-20" transform="translate(2792.228516 0)"/>
     <use xlink:href="#DejaVuSans-62" transform="translate(2824.015625 0)"/>
     <use xlink:href="#DejaVuSans-65" transform="translate(2887.492188 0)"/>
     <use xlink:href="#DejaVuSans-6c" transform="translate(2949.015625 0)"/>
     <use xlink:href="#DejaVuSans-6f" transform="translate(2976.798828 0)"/>
     <use xlink:href="#DejaVuSans-77" transform="translate(3037.980469 0)"/>
    </g>
   </g>
   <g id="legend_1">
    <g id="patch_7">
     <path d="M 57.14375 272.478125 
L 199.189063 272.478125 
Q 201.189063 272.478125 201.189063 270.478125 
L 201.189063 227.44375 
Q 201.189063 225.44375 199.189063 225.44375 
L 57.14375 225.44375 
Q 55.14375 225.44375 55.14375 227.44375 
L 55.14375 270.478125 
Q 55.14375 272.478125 57.14375 272.478125 
z
" style="fill: #ffffff; opacity: 0.8; stroke: #cccccc; stroke-linejoin: miter"/>
    </g>
    <g id="line2d_49">
     <path d="M 59.14375 233.542188 
L 69.14375 233.542188 
L 79.14375 233.542188 
" style="fill: none; stroke: #e15759; stroke-width: 2; stroke-linecap: square"/>
    </g>
    <g id="text_20">
     <!-- No retraining -->
     <g transform="translate(87.14375 237.042188) scale(0.1 -0.1)">
      <defs>
       <path id="DejaVuSans-4e" d="M 628 4666 
L 1478 4666 
L 3547 763 
L 3547 4666 
L 4159 4666 
L 4159 0 
L 3309 0 
L 1241 3903 
L 1241 0 
L 628 0 
L 628 4666 
z
" transform="scale(0.015625)"/>
      </defs>
      <use xlink:href="#DejaVuSans-4e"/>
      <use xlink:href="#DejaVuSans-6f" transform="translate(74.804688 0)"/>
      <use xlink:href="#DejaVuSans-20" transform="translate(135.986328 0)"/>
      <use xlink:href="#DejaVuSans-72" transform="translate(167.773438 0)"/>
      <use xlink:href="#DejaVuSans-65" transform="translate(206.636719 0)"/>
      <use xlink:href="#DejaVuSans-74" transform="translate(268.160156 0)"/>
      <use xlink:href="#DejaVuSans-72" transform="translate(307.369141 0)"/>
      <use xlink:href="#DejaVuSans-61" transform="translate(348.482422 0)"/>
      <use xlink:href="#DejaVuSans-69" transform="translate(409.761719 0)"/>
      <use xlink:href="#DejaVuSans-6e" transform="translate(437.544922 0)"/>
      <use xlink:href="#DejaVuSans-69" transform="translate(500.923828 0)"/>
      <use xlink:href="#DejaVuSans-6e" transform="translate(528.707031 0)"/>
      <use xlink:href="#DejaVuSans-67" transform="translate(592.085938 0)"/>
     </g>
    </g>
    <g id="line2d_50">
     <path d="M 59.14375 248.220313 
L 69.14375 248.220313 
L 79.14375 248.220313 
" style="fill: none; stroke: #59a14f; stroke-width: 2; stroke-linecap: square"/>
    </g>
    <g id="text_21">
     <!-- Retrain every 30 days -->
     <g transform="translate(87.14375 251.720313) scale(0.1 -0.1)">
      <use xlink:href="#DejaVuSans-52"/>
      <use xlink:href="#DejaVuSans-65" transform="translate(64.982422 0)"/>
      <use xlink:href="#DejaVuSans-74" transform="translate(126.505859 0)"/>
      <use xlink:href="#DejaVuSans-72" transform="translate(165.714844 0)"/>
      <use xlink:href="#DejaVuSans-61" transform="translate(206.828125 0)"/>
      <use xlink:href="#DejaVuSans-69" transform="translate(268.107422 0)"/>
      <use xlink:href="#DejaVuSans-6e" transform="translate(295.890625 0)"/>
      <use xlink:href="#DejaVuSans-20" transform="translate(359.269531 0)"/>
      <use xlink:href="#DejaVuSans-65" transform="translate(391.056641 0)"/>
      <use xlink:href="#DejaVuSans-76" transform="translate(452.580078 0)"/>
      <use xlink:href="#DejaVuSans-65" transform="translate(511.759766 0)"/>
      <use xlink:href="#DejaVuSans-72" transform="translate(573.283203 0)"/>
      <use xlink:href="#DejaVuSans-79" transform="translate(614.396484 0)"/>
      <use xlink:href="#DejaVuSans-20" transform="translate(673.576172 0)"/>
      <use xlink:href="#DejaVuSans-33" transform="translate(705.363281 0)"/>
      <use xlink:href="#DejaVuSans-30" transform="translate(768.986328 0)"/>
      <use xlink:href="#DejaVuSans-20" transform="translate(832.609375 0)"/>
      <use xlink:href="#DejaVuSans-64" transform="translate(864.396484 0)"/>
      <use xlink:href="#DejaVuSans-61" transform="translate(927.873047 0)"/>
      <use xlink:href="#DejaVuSans-79" transform="translate(989.152344 0)"/>
      <use xlink:href="#DejaVuSans-73" transform="translate(1048.332031 0)"/>
     </g>
    </g>
    <g id="line2d_51">
     <path d="M 59.14375 262.898438 
L 69.14375 262.898438 
L 79.14375 262.898438 
" style="fill: none; stroke-dasharray: 3.7,1.6; stroke-dashoffset: 0; stroke: #000000"/>
    </g>
    <g id="text_22">
     <!-- SLO threshold (0.85) -->
     <g transform="translate(87.14375 266.398438) scale(0.1 -0.1)">
      <defs>
       <path id="DejaVuSans-28" d="M 1984 4856 
Q 1566 4138 1362 3434 
Q 1159 2731 1159 2009 
Q 1159 1288 1364 580 
Q 1569 -128 1984 -844 
L 1484 -844 
Q 1016 -109 783 600 
Q 550 1309 550 2009 
Q 550 2706 781 3412 
Q 1013 4119 1484 4856 
L 1984 4856 
z
" transform="scale(0.015625)"/>
       <path id="DejaVuSans-29" d="M 513 4856 
L 1013 4856 
Q 1481 4119 1714 3412 
Q 1947 2706 1947 2009 
Q 1947 1309 1714 600 
Q 1481 -109 1013 -844 
L 513 -844 
Q 928 -128 1133 580 
Q 1338 1288 1338 2009 
Q 1338 2731 1133 3434 
Q 928 4138 513 4856 
z
" transform="scale(0.015625)"/>
      </defs>
      <use xlink:href="#DejaVuSans-53"/>
      <use xlink:href="#DejaVuSans-4c" transform="translate(63.476562 0)"/>
      <use xlink:href="#DejaVuSans-4f" transform="translate(115.564453 0)"/>
      <use xlink:href="#DejaVuSans-20" transform="translate(194.275391 0)"/>
      <use xlink:href="#DejaVuSans-74" transform="translate(226.0625 0)"/>
      <use xlink:href="#DejaVuSans-68" transform="translate(265.271484 0)"/>
      <use xlink:href="#DejaVuSans-72" transform="translate(328.650391 0)"/>
      <use xlink:href="#DejaVuSans-65" transform="translate(367.513672 0)"/>
      <use xlink:href="#DejaVuSans-73" transform="translate(429.037109 0)"/>
      <use xlink:href="#DejaVuSans-68" transform="translate(481.136719 0)"/>
      <use xlink:href="#DejaVuSans-6f" transform="translate(544.515625 0)"/>
      <use xlink:href="#DejaVuSans-6c" transform="translate(605.697266 0)"/>
      <use xlink:href="#DejaVuSans-64" transform="translate(633.480469 0)"/>
      <use xlink:href="#DejaVuSans-20" transform="translate(696.957031 0)"/>
      <use xlink:href="#DejaVuSans-28" transform="translate(728.744141 0)"/>
      <use xlink:href="#DejaVuSans-30" transform="translate(767.757812 0)"/>
      <use xlink:href="#DejaVuSans-2e" transform="translate(831.380859 0)"/>
      <use xlink:href="#DejaVuSans-38" transform="translate(863.167969 0)"/>
      <use xlink:href="#DejaVuSans-35" transform="translate(926.791016 0)"/>
      <use xlink:href="#DejaVuSans-29" transform="translate(990.414062 0)"/>
     </g>
    </g>
   </g>
  </g>
 </g>
 <defs>
  <clipPath id="p77fdb2a7a1">
   <rect x="50.14375" y="22.318125" width="655.18" height="255.16"/>
  </clipPath>
 </defs>
</svg>
