<?xml version="1.0" encoding="utf-8" standalone="no"?>
<!DOCTYPE svg PUBLIC "-//W3C//DTD SVG 1.1//EN"
  "http://www.w3.org/Graphics/SVG/1.1/DTD/svg11.dtd">
<svg xmlns:xlink="http://www.w3.org/1999/xlink" width="784.442812pt" height="567.034375pt" viewBox="0 0 784.442812 567.034375" xmlns="http://www.w3.org/2000/svg" version="1.1">
 <metadata>
  <rdf:RDF xmlns:dc="http://purl.org/dc/elements/1.1/" xmlns:cc="http://creativecommons.org/ns#" xmlns:rdf="http://www.w3.org/1999/02/22-rdf-syntax-ns#">
   <cc:Work>
    <dc:type rdf:resource="http://purl.org/dc/dcmitype/StillImage"/>
    <dc:date>2026-05-26T14:30:58.871430</dc:date>
    <dc:format>image/svg+xml</dc:format>
    <dc:creator>
     <cc:Agent>
      <dc:title>Matplotlib v3.10.8, https://matplotlib.org/</dc:title>
     </cc:Agent>
    </dc:creator>
   </cc:Work>
  </rdf:RDF>
 </metadata>
 <defs>
  <style type="text/css">*{stroke-linejoin: round; stroke-linecap: butt}</style>
 </defs>
 <g id="figure_1">
  <g id="patch_1">
   <path d="M 0 567.034375 
L 784.442812 567.034375 
L 784.442812 0 
L 0 0 
z
" style="fill: #ffffff"/>
  </g>
  <g id="axes_1">
   <g id="patch_2">
    <path d="M 48.982813 126.323125 
L 777.242812 126.323125 
L 777.242812 22.318125 
L 48.982813 22.318125 
z
" style="fill: #ffffff"/>
   </g>
   <g id="matplotlib.axis_1">
    <g id="xtick_1">
     <g id="line2d_1">
      <path d="M 82.08554 126.323125 
L 82.08554 22.318125 
" clip-path="url(#p697f665c78)" style="fill: none; stroke: #b0b0b0; stroke-opacity: 0.25; stroke-width: 0.8; stroke-linecap: square"/>
     </g>
     <g id="line2d_2">
      <defs>
       <path id="md861811b7f" d="M 0 0 
L 0 3.5 
" style="stroke: #000000; stroke-width: 0.8"/>
      </defs>
      <g>
       <use xlink:href="#md861811b7f" x="82.08554" y="126.323125" style="stroke: #000000; stroke-width: 0.8"/>
      </g>
     </g>
    </g>
    <g id="xtick_2">
     <g id="line2d_3">
      <path d="M 194.298175 126.323125 
L 194.298175 22.318125 
" clip-path="url(#p697f665c78)" style="fill: none; stroke: #b0b0b0; stroke-opacity: 0.25; stroke-width: 0.8; stroke-linecap: square"/>
     </g>
     <g id="line2d_4">
      <g>
       <use xlink:href="#md861811b7f" x="194.298175" y="126.323125" style="stroke: #000000; stroke-width: 0.8"/>
      </g>
     </g>
    </g>
    <g id="xtick_3">
     <g id="line2d_5">
      <path d="M 306.510809 126.323125 
L 306.510809 22.318125 
" clip-path="url(#p697f665c78)" style="fill: none; stroke: #b0b0b0; stroke-opacity: 0.25; stroke-width: 0.8; stroke-linecap: square"/>
     </g>
     <g id="line2d_6">
      <g>
       <use xlink:href="#md861811b7f" x="306.510809" y="126.323125" style="stroke: #000000; stroke-width: 0.8"/>
      </g>
     </g>
    </g>
    <g id="xtick_4">
     <g id="line2d_7">
      <path d="M 418.723444 126.323125 
L 418.723444 22.318125 
" clip-path="url(#p697f665c78)" style="fill: none; stroke: #b0b0b0; stroke-opacity: 0.25; stroke-width: 0.8; stroke-linecap: square"/>
     </g>
     <g id="line2d_8">
      <g>
       <use xlink:href="#md861811b7f" x="418.723444" y="126.323125" style="stroke: #000000; stroke-width: 0.8"/>
      </g>
     </g>
    </g>
    <g id="xtick_5">
     <g id="line2d_9">
      <path d="M 530.936079 126.323125 
L 530.936079 22.318125 
" clip-path="url(#p697f665c78)" style="fill: none; stroke: #b0b0b0; stroke-opacity: 0.25; stroke-width: 0.8; stroke-linecap: square"/>
     </g>
     <g id="line2d_10">
      <g>
       <use xlink:href="#md861811b7f" x="530.936079" y="126.323125" style="stroke: #000000; stroke-width: 0.8"/>
      </g>
     </g>
    </g>
    <g id="xtick_6">
     <g id="line2d_11">
      <path d="M 643.148714 126.323125 
L 643.148714 22.318125 
" clip-path="url(#p697f665c78)" style="fill: none; stroke: #b0b0b0; stroke-opacity: 0.25; stroke-width: 0.8; stroke-linecap: square"/>
     </g>
     <g id="line2d_12">
      <g>
       <use xlink:href="#md861811b7f" x="643.148714" y="126.323125" style="stroke: #000000; stroke-width: 0.8"/>
      </g>
     </g>
    </g>
    <g id="xtick_7">
     <g id="line2d_13">
      <path d="M 755.361349 126.323125 
L 755.361349 22.318125 
" clip-path="url(#p697f665c78)" style="fill: none; stroke: #b0b0b0; stroke-opacity: 0.25; stroke-width: 0.8; stroke-linecap: square"/>
     </g>
     <g id="line2d_14">
      <g>
       <use xlink:href="#md861811b7f" x="755.361349" y="126.323125" style="stroke: #000000; stroke-width: 0.8"/>
      </g>
     </g>
    </g>
   </g>
   <g id="matplotlib.axis_2">
    <g id="ytick_1">
     <g id="line2d_15">
      <path d="M 48.982813 103.562172 
L 777.242812 103.562172 
" clip-path="url(#p697f665c78)" style="fill: none; stroke: #b0b0b0; stroke-opacity: 0.25; stroke-width: 0.8; stroke-linecap: square"/>
     </g>
     <g id="line2d_16">
      <defs>
       <path id="m2ae8213e64" d="M 0 0 
L -3.5 0 
" style="stroke: #000000; stroke-width: 0.8"/>
      </defs>
      <g>
       <use xlink:href="#m2ae8213e64" x="48.982813" y="103.562172" style="stroke: #000000; stroke-width: 0.8"/>
      </g>
     </g>
     <g id="text_1">
      <!-- 100 -->
      <g transform="translate(22.895313 107.361391) scale(0.1 -0.1)">
       <defs>
        <path id="DejaVuSans-31" d="M 794 531 
L 1825 531 
L 1825 4091 
L 703 3866 
L 703 4441 
L 1819 4666 
L 2450 4666 
L 2450 531 
L 3481 531 
L 3481 0 
L 794 0 
L 794 531 
z
" transform="scale(0.015625)"/>
        <path id="DejaVuSans-30" d="M 2034 4250 
Q 1547 4250 1301 3770 
Q 1056 3291 1056 2328 
Q 1056 1369 1301 889 
Q 1547 409 2034 409 
Q 2525 409 2770 889 
Q 3016 1369 3016 2328 
Q 3016 3291 2770 3770 
Q 2525 4250 2034 4250 
z
M 2034 4750 
Q 2819 4750 3233 4129 
Q 3647 3509 3647 2328 
Q 3647 1150 3233 529 
Q 2819 -91 2034 -91 
Q 1250 -91 836 529 
Q 422 1150 422 2328 
Q 422 3509 836 4129 
Q 1250 4750 2034 4750 
z
" transform="scale(0.015625)"/>
       </defs>
       <use xlink:href="#DejaVuSans-31"/>
       <use xlink:href="#DejaVuSans-30" transform="translate(63.623047 0)"/>
       <use xlink:href="#DejaVuSans-30" transform="translate(127.246094 0)"/>
      </g>
     </g>
    </g>
    <g id="ytick_2">
     <g id="line2d_17">
      <path d="M 48.982813 75.520042 
L 777.242812 75.520042 
" clip-path="url(#p697f665c78)" style="fill: none; stroke: #b0b0b0; stroke-opacity: 0.25; stroke-width: 0.8; stroke-linecap: square"/>
     </g>
     <g id="line2d_18">
      <g>
       <use xlink:href="#m2ae8213e64" x="48.982813" y="75.520042" style="stroke: #000000; stroke-width: 0.8"/>
      </g>
     </g>
     <g id="text_2">
      <!-- 120 -->
      <g transform="translate(22.895313 79.319261) scale(0.1 -0.1)">
       <defs>
        <path id="DejaVuSans-32" d="M 1228 531 
L 3431 531 
L 3431 0 
L 469 0 
L 469 531 
Q 828 903 1448 1529 
Q 2069 2156 2228 2338 
Q 2531 2678 2651 2914 
Q 2772 3150 2772 3378 
Q 2772 3750 2511 3984 
Q 2250 4219 1831 4219 
Q 1534 4219 1204 4116 
Q 875 4013 500 3803 
L 500 4441 
Q 881 4594 1212 4672 
Q 1544 4750 1819 4750 
Q 2544 4750 2975 4387 
Q 3406 4025 3406 3419 
Q 3406 3131 3298 2873 
Q 3191 2616 2906 2266 
Q 2828 2175 2409 1742 
Q 1991 1309 1228 531 
z
" transform="scale(0.015625)"/>
       </defs>
       <use xlink:href="#DejaVuSans-31"/>
       <use xlink:href="#DejaVuSans-32" transform="translate(63.623047 0)"/>
       <use xlink:href="#DejaVuSans-30" transform="translate(127.246094 0)"/>
      </g>
     </g>
    </g>
    <g id="ytick_3">
     <g id="line2d_19">
      <path d="M 48.982813 47.477912 
L 777.242812 47.477912 
" clip-path="url(#p697f665c78)" style="fill: none; stroke: #b0b0b0; stroke-opacity: 0.25; stroke-width: 0.8; stroke-linecap: square"/>
     </g>
     <g id="line2d_20">
      <g>
       <use xlink:href="#m2ae8213e64" x="48.982813" y="47.477912" style="stroke: #000000; stroke-width: 0.8"/>
      </g>
     </g>
     <g id="text_3">
      <!-- 140 -->
      <g transform="translate(22.895313 51.277131) scale(0.1 -0.1)">
       <defs>
        <path id="DejaVuSans-34" d="M 2419 4116 
L 825 1625 
L 2419 1625 
L 2419 4116 
z
M 2253 4666 
L 3047 4666 
L 3047 1625 
L 3713 1625 
L 3713 1100 
L 3047 1100 
L 3047 0 
L 2419 0 
L 2419 1100 
L 313 1100 
L 313 1709 
L 2253 4666 
z
" transform="scale(0.015625)"/>
       </defs>
       <use xlink:href="#DejaVuSans-31"/>
       <use xlink:href="#DejaVuSans-34" transform="translate(63.623047 0)"/>
       <use xlink:href="#DejaVuSans-30" transform="translate(127.246094 0)"/>
      </g>
     </g>
    </g>
    <g id="text_4">
     <!-- y -->
     <g transform="translate(16.815625 77.28) rotate(-90) scale(0.1 -0.1)">
      <defs>
       <path id="DejaVuSans-79" d="M 2059 -325 
Q 1816 -950 1584 -1140 
Q 1353 -1331 966 -1331 
L 506 -1331 
L 506 -850 
L 844 -850 
Q 1081 -850 1212 -737 
Q 1344 -625 1503 -206 
L 1606 56 
L 191 3500 
L 800 3500 
L 1894 763 
L 2988 3500 
L 3597 3500 
L 2059 -325 
z
" transform="scale(0.015625)"/>
      </defs>
      <use xlink:href="#DejaVuSans-79"/>
     </g>
    </g>
   </g>
   <g id="line2d_21">
    <path d="M 82.08554 102.857023 
L 93.306803 92.665588 
L 104.528067 79.513141 
L 115.74933 78.577194 
L 126.970594 83.865795 
L 138.191857 85.409968 
L 149.413121 89.518673 
L 160.634384 100.914541 
L 171.855648 116.749435 
L 183.076911 121.595625 
L 194.298175 114.054806 
L 205.519438 101.50766 
L 216.740702 103.141712 
L 227.961965 79.691542 
L 239.183229 76.632281 
L 250.404492 69.812164 
L 261.625755 70.453747 
L 272.847019 75.751671 
L 284.068282 81.063239 
L 295.289546 86.919093 
L 306.510809 100.063243 
L 317.732073 93.374671 
L 328.953336 100.82969 
L 340.1746 86.307793 
L 351.395863 71.574682 
L 362.617127 64.476982 
L 373.83839 60.35432 
L 385.059654 57.414503 
L 396.280917 56.50821 
L 407.502181 59.282555 
L 418.723444 75.573985 
L 429.944708 80.478875 
L 441.165971 86.775145 
L 452.387235 84.544865 
L 463.608498 82.434873 
L 474.829762 72.825907 
L 486.051025 66.848454 
L 497.272289 52.27095 
L 508.493552 38.327369 
L 519.714816 30.409054 
L 530.936079 47.542242 
L 542.157343 38.566551 
L 553.378606 48.903151 
L 564.59987 61.46358 
L 575.821133 70.938741 
L 587.042396 75.878548 
L 598.26366 62.00135 
L 609.484923 50.364803 
L 620.706187 39.616947 
L 631.92745 30.708137 
L 643.148714 27.259673 
L 654.369977 32.101395 
L 665.591241 27.045625 
L 676.812504 29.915267 
L 688.033768 50.216851 
L 699.255031 50.169272 
L 710.476295 56.55084 
L 721.697558 56.754009 
L 732.918822 63.359366 
L 744.140085 51.609654 
" clip-path="url(#p697f665c78)" style="fill: none; stroke: #7aa6c2; stroke-width: 1.5; stroke-linecap: square"/>
   </g>
   <g id="patch_3">
    <path d="M 48.982813 126.323125 
L 48.982813 22.318125 
" style="fill: none; stroke: #000000; stroke-width: 0.8; stroke-linejoin: miter; stroke-linecap: square"/>
   </g>
   <g id="patch_4">
    <path d="M 777.242812 126.323125 
L 777.242812 22.318125 
" style="fill: none; stroke: #000000; stroke-width: 0.8; stroke-linejoin: miter; stroke-linecap: square"/>
   </g>
   <g id="patch_5">
    <path d="M 48.982813 126.323125 
L 777.242812 126.323125 
" style="fill: none; stroke: #000000; stroke-width: 0.8; stroke-linejoin: miter; stroke-linecap: square"/>
   </g>
   <g id="patch_6">
    <path d="M 48.982813 22.318125 
L 777.242812 22.318125 
" style="fill: none; stroke: #000000; stroke-width: 0.8; stroke-linejoin: miter; stroke-linecap: square"/>
   </g>
   <g id="text_5">
    <!-- Observed = trend + seasonal + residual -->
    <g transform="translate(291.52375 16.318125) scale(0.12 -0.12)">
     <defs>
      <path id="DejaVuSans-4f" d="M 2522 4238 
Q 1834 4238 1429 3725 
Q 1025 3213 1025 2328 
Q 1025 1447 1429 934 
Q 1834 422 2522 422 
Q 3209 422 3611 934 
Q 4013 1447 4013 2328 
Q 4013 3213 3611 3725 
Q 3209 4238 2522 4238 
z
M 2522 4750 
Q 3503 4750 4090 4092 
Q 4678 3434 4678 2328 
Q 4678 1225 4090 567 
Q 3503 -91 2522 -91 
Q 1538 -91 948 565 
Q 359 1222 359 2328 
Q 359 3434 948 4092 
Q 1538 4750 2522 4750 
z
" transform="scale(0.015625)"/>
      <path id="DejaVuSans-62" d="M 3116 1747 
Q 3116 2381 2855 2742 
Q 2594 3103 2138 3103 
Q 1681 3103 1420 2742 
Q 1159 2381 1159 1747 
Q 1159 1113 1420 752 
Q 1681 391 2138 391 
Q 2594 391 2855 752 
Q 3116 1113 3116 1747 
z
M 1159 2969 
Q 1341 3281 1617 3432 
Q 1894 3584 2278 3584 
Q 2916 3584 3314 3078 
Q 3713 2572 3713 1747 
Q 3713 922 3314 415 
Q 2916 -91 2278 -91 
Q 1894 -91 1617 61 
Q 1341 213 1159 525 
L 1159 0 
L 581 0 
L 581 4863 
L 1159 4863 
L 1159 2969 
z
" transform="scale(0.015625)"/>
      <path id="DejaVuSans-73" d="M 2834 3397 
L 2834 2853 
Q 2591 2978 2328 3040 
Q 2066 3103 1784 3103 
Q 1356 3103 1142 2972 
Q 928 2841 928 2578 
Q 928 2378 1081 2264 
Q 1234 2150 1697 2047 
L 1894 2003 
Q 2506 1872 2764 1633 
Q 3022 1394 3022 966 
Q 3022 478 2636 193 
Q 2250 -91 1575 -91 
Q 1294 -91 989 -36 
Q 684 19 347 128 
L 347 722 
Q 666 556 975 473 
Q 1284 391 1588 391 
Q 1994 391 2212 530 
Q 2431 669 2431 922 
Q 2431 1156 2273 1281 
Q 2116 1406 1581 1522 
L 1381 1569 
Q 847 1681 609 1914 
Q 372 2147 372 2553 
Q 372 3047 722 3315 
Q 1072 3584 1716 3584 
Q 2034 3584 2315 3537 
Q 2597 3491 2834 3397 
z
" transform="scale(0.015625)"/>
      <path id="DejaVuSans-65" d="M 3597 1894 
L 3597 1613 
L 953 1613 
Q 991 1019 1311 708 
Q 1631 397 2203 397 
Q 2534 397 2845 478 
Q 3156 559 3463 722 
L 3463 178 
Q 3153 47 2828 -22 
Q 2503 -91 2169 -91 
Q 1331 -91 842 396 
Q 353 884 353 1716 
Q 353 2575 817 3079 
Q 1281 3584 2069 3584 
Q 2775 3584 3186 3129 
Q 3597 2675 3597 1894 
z
M 3022 2063 
Q 3016 2534 2758 2815 
Q 2500 3097 2075 3097 
Q 1594 3097 1305 2825 
Q 1016 2553 972 2059 
L 3022 2063 
z
" transform="scale(0.015625)"/>
      <path id="DejaVuSans-72" d="M 2631 2963 
Q 2534 3019 2420 3045 
Q 2306 3072 2169 3072 
Q 1681 3072 1420 2755 
Q 1159 2438 1159 1844 
L 1159 0 
L 581 0 
L 581 3500 
L 1159 3500 
L 1159 2956 
Q 1341 3275 1631 3429 
Q 1922 3584 2338 3584 
Q 2397 3584 2469 3576 
Q 2541 3569 2628 3553 
L 2631 2963 
z
" transform="scale(0.015625)"/>
      <path id="DejaVuSans-76" d="M 191 3500 
L 800 3500 
L 1894 563 
L 2988 3500 
L 3597 3500 
L 2284 0 
L 1503 0 
L 191 3500 
z
" transform="scale(0.015625)"/>
      <path id="DejaVuSans-64" d="M 2906 2969 
L 2906 4863 
L 3481 4863 
L 3481 0 
L 2906 0 
L 2906 525 
Q 2725 213 2448 61 
Q 2172 -91 1784 -91 
Q 1150 -91 751 415 
Q 353 922 353 1747 
Q 353 2572 751 3078 
Q 1150 3584 1784 3584 
Q 2172 3584 2448 3432 
Q 2725 3281 2906 2969 
z
M 947 1747 
Q 947 1113 1208 752 
Q 1469 391 1925 391 
Q 2381 391 2643 752 
Q 2906 1113 2906 1747 
Q 2906 2381 2643 2742 
Q 2381 3103 1925 3103 
Q 1469 3103 1208 2742 
Q 947 2381 947 1747 
z
" transform="scale(0.015625)"/>
      <path id="DejaVuSans-20" transform="scale(0.015625)"/>
      <path id="DejaVuSans-3d" d="M 678 2906 
L 4684 2906 
L 4684 2381 
L 678 2381 
L 678 2906 
z
M 678 1631 
L 4684 1631 
L 4684 1100 
L 678 1100 
L 678 1631 
z
" transform="scale(0.015625)"/>
      <path id="DejaVuSans-74" d="M 1172 4494 
L 1172 3500 
L 2356 3500 
L 2356 3053 
L 1172 3053 
L 1172 1153 
Q 1172 725 1289 603 
Q 1406 481 1766 481 
L 2356 481 
L 2356 0 
L 1766 0 
Q 1100 0 847 248 
Q 594 497 594 1153 
L 594 3053 
L 172 3053 
L 172 3500 
L 594 3500 
L 594 4494 
L 1172 4494 
z
" transform="scale(0.015625)"/>
      <path id="DejaVuSans-6e" d="M 3513 2113 
L 3513 0 
L 2938 0 
L 2938 2094 
Q 2938 2591 2744 2837 
Q 2550 3084 2163 3084 
Q 1697 3084 1428 2787 
Q 1159 2491 1159 1978 
L 1159 0 
L 581 0 
L 581 3500 
L 1159 3500 
L 1159 2956 
Q 1366 3272 1645 3428 
Q 1925 3584 2291 3584 
Q 2894 3584 3203 3211 
Q 3513 2838 3513 2113 
z
" transform="scale(0.015625)"/>
      <path id="DejaVuSans-2b" d="M 2944 4013 
L 2944 2272 
L 4684 2272 
L 4684 1741 
L 2944 1741 
L 2944 0 
L 2419 0 
L 2419 1741 
L 678 1741 
L 678 2272 
L 2419 2272 
L 2419 4013 
L 2944 4013 
z
" transform="scale(0.015625)"/>
      <path id="DejaVuSans-61" d="M 2194 1759 
Q 1497 1759 1228 1600 
Q 959 1441 959 1056 
Q 959 750 1161 570 
Q 1363 391 1709 391 
Q 2188 391 2477 730 
Q 2766 1069 2766 1631 
L 2766 1759 
L 2194 1759 
z
M 3341 1997 
L 3341 0 
L 2766 0 
L 2766 531 
Q 2569 213 2275 61 
Q 1981 -91 1556 -91 
Q 1019 -91 701 211 
Q 384 513 384 1019 
Q 384 1609 779 1909 
Q 1175 2209 1959 2209 
L 2766 2209 
L 2766 2266 
Q 2766 2663 2505 2880 
Q 2244 3097 1772 3097 
Q 1472 3097 1187 3025 
Q 903 2953 641 2809 
L 641 3341 
Q 956 3463 1253 3523 
Q 1550 3584 1831 3584 
Q 2591 3584 2966 3190 
Q 3341 2797 3341 1997 
z
" transform="scale(0.015625)"/>
      <path id="DejaVuSans-6f" d="M 1959 3097 
Q 1497 3097 1228 2736 
Q 959 2375 959 1747 
Q 959 1119 1226 758 
Q 1494 397 1959 397 
Q 2419 397 2687 759 
Q 2956 1122 2956 1747 
Q 2956 2369 2687 2733 
Q 2419 3097 1959 3097 
z
M 1959 3584 
Q 2709 3584 3137 3096 
Q 3566 2609 3566 1747 
Q 3566 888 3137 398 
Q 2709 -91 1959 -91 
Q 1206 -91 779 398 
Q 353 888 353 1747 
Q 353 2609 779 3096 
Q 1206 3584 1959 3584 
z
" transform="scale(0.015625)"/>
      <path id="DejaVuSans-6c" d="M 603 4863 
L 1178 4863 
L 1178 0 
L 603 0 
L 603 4863 
z
" transform="scale(0.015625)"/>
      <path id="DejaVuSans-69" d="M 603 3500 
L 1178 3500 
L 1178 0 
L 603 0 
L 603 3500 
z
M 603 4863 
L 1178 4863 
L 1178 4134 
L 603 4134 
L 603 4863 
z
" transform="scale(0.015625)"/>
      <path id="DejaVuSans-75" d="M 544 1381 
L 544 3500 
L 1119 3500 
L 1119 1403 
Q 1119 906 1312 657 
Q 1506 409 1894 409 
Q 2359 409 2629 706 
Q 2900 1003 2900 1516 
L 2900 3500 
L 3475 3500 
L 3475 0 
L 2900 0 
L 2900 538 
Q 2691 219 2414 64 
Q 2138 -91 1772 -91 
Q 1169 -91 856 284 
Q 544 659 544 1381 
z
M 1991 3584 
L 1991 3584 
z
" transform="scale(0.015625)"/>
     </defs>
     <use xlink:href="#DejaVuSans-4f"/>
     <use xlink:href="#DejaVuSans-62" transform="translate(78.710938 0)"/>
     <use xlink:href="#DejaVuSans-73" transform="translate(142.1875 0)"/>
     <use xlink:href="#DejaVuSans-65" transform="translate(194.287109 0)"/>
     <use xlink:href="#DejaVuSans-72" transform="translate(255.810547 0)"/>
     <use xlink:href="#DejaVuSans-76" transform="translate(296.923828 0)"/>
     <use xlink:href="#DejaVuSans-65" transform="translate(356.103516 0)"/>
     <use xlink:href="#DejaVuSans-64" transform="translate(417.626953 0)"/>
     <use xlink:href="#DejaVuSans-20" transform="translate(481.103516 0)"/>
     <use xlink:href="#DejaVuSans-3d" transform="translate(512.890625 0)"/>
     <use xlink:href="#DejaVuSans-20" transform="translate(596.679688 0)"/>
     <use xlink:href="#DejaVuSans-74" transform="translate(628.466797 0)"/>
     <use xlink:href="#DejaVuSans-72" transform="translate(667.675781 0)"/>
     <use xlink:href="#DejaVuSans-65" transform="translate(706.539062 0)"/>
     <use xlink:href="#DejaVuSans-6e" transform="translate(768.0625 0)"/>
     <use xlink:href="#DejaVuSans-64" transform="translate(831.441406 0)"/>
     <use xlink:href="#DejaVuSans-20" transform="translate(894.917969 0)"/>
     <use xlink:href="#DejaVuSans-2b" transform="translate(926.705078 0)"/>
     <use xlink:href="#DejaVuSans-20" transform="translate(1010.494141 0)"/>
     <use xlink:href="#DejaVuSans-73" transform="translate(1042.28125 0)"/>
     <use xlink:href="#DejaVuSans-65" transform="translate(1094.380859 0)"/>
     <use xlink:href="#DejaVuSans-61" transform="translate(1155.904297 0)"/>
     <use xlink:href="#DejaVuSans-73" transform="translate(1217.183594 0)"/>
     <use xlink:href="#DejaVuSans-6f" transform="translate(1269.283203 0)"/>
     <use xlink:href="#DejaVuSans-6e" transform="translate(1330.464844 0)"/>
     <use xlink:href="#DejaVuSans-61" transform="translate(1393.84375 0)"/>
     <use xlink:href="#DejaVuSans-6c" transform="translate(1455.123047 0)"/>
     <use xlink:href="#DejaVuSans-20" transform="translate(1482.90625 0)"/>
     <use xlink:href="#DejaVuSans-2b" transform="translate(1514.693359 0)"/>
     <use xlink:href="#DejaVuSans-20" transform="translate(1598.482422 0)"/>
     <use xlink:href="#DejaVuSans-72" transform="translate(1630.269531 0)"/>
     <use xlink:href="#DejaVuSans-65" transform="translate(1669.132812 0)"/>
     <use xlink:href="#DejaVuSans-73" transform="translate(1730.65625 0)"/>
     <use xlink:href="#DejaVuSans-69" transform="translate(1782.755859 0)"/>
     <use xlink:href="#DejaVuSans-64" transform="translate(1810.539062 0)"/>
     <use xlink:href="#DejaVuSans-75" transform="translate(1874.015625 0)"/>
     <use xlink:href="#DejaVuSans-61" transform="translate(1937.394531 0)"/>
     <use xlink:href="#DejaVuSans-6c" transform="translate(1998.673828 0)"/>
    </g>
   </g>
  </g>
  <g id="axes_2">
   <g id="patch_7">
    <path d="M 48.982813 260.708125 
L 777.242812 260.708125 
L 777.242812 156.703125 
L 48.982813 156.703125 
z
" style="fill: #ffffff"/>
   </g>
   <g id="matplotlib.axis_3">
    <g id="xtick_8">
     <g id="line2d_22">
      <path d="M 82.08554 260.708125 
L 82.08554 156.703125 
" clip-path="url(#pa42686df79)" style="fill: none; stroke: #b0b0b0; stroke-opacity: 0.25; stroke-width: 0.8; stroke-linecap: square"/>
     </g>
     <g id="line2d_23">
      <g>
       <use xlink:href="#md861811b7f" x="82.08554" y="260.708125" style="stroke: #000000; stroke-width: 0.8"/>
      </g>
     </g>
    </g>
    <g id="xtick_9">
     <g id="line2d_24">
      <path d="M 194.298175 260.708125 
L 194.298175 156.703125 
" clip-path="url(#pa42686df79)" style="fill: none; stroke: #b0b0b0; stroke-opacity: 0.25; stroke-width: 0.8; stroke-linecap: square"/>
     </g>
     <g id="line2d_25">
      <g>
       <use xlink:href="#md861811b7f" x="194.298175" y="260.708125" style="stroke: #000000; stroke-width: 0.8"/>
      </g>
     </g>
    </g>
    <g id="xtick_10">
     <g id="line2d_26">
      <path d="M 306.510809 260.708125 
L 306.510809 156.703125 
" clip-path="url(#pa42686df79)" style="fill: none; stroke: #b0b0b0; stroke-opacity: 0.25; stroke-width: 0.8; stroke-linecap: square"/>
     </g>
     <g id="line2d_27">
      <g>
       <use xlink:href="#md861811b7f" x="306.510809" y="260.708125" style="stroke: #000000; stroke-width: 0.8"/>
      </g>
     </g>
    </g>
    <g id="xtick_11">
     <g id="line2d_28">
      <path d="M 418.723444 260.708125 
L 418.723444 156.703125 
" clip-path="url(#pa42686df79)" style="fill: none; stroke: #b0b0b0; stroke-opacity: 0.25; stroke-width: 0.8; stroke-linecap: square"/>
     </g>
     <g id="line2d_29">
      <g>
       <use xlink:href="#md861811b7f" x="418.723444" y="260.708125" style="stroke: #000000; stroke-width: 0.8"/>
      </g>
     </g>
    </g>
    <g id="xtick_12">
     <g id="line2d_30">
      <path d="M 530.936079 260.708125 
L 530.936079 156.703125 
" clip-path="url(#pa42686df79)" style="fill: none; stroke: #b0b0b0; stroke-opacity: 0.25; stroke-width: 0.8; stroke-linecap: square"/>
     </g>
     <g id="line2d_31">
      <g>
       <use xlink:href="#md861811b7f" x="530.936079" y="260.708125" style="stroke: #000000; stroke-width: 0.8"/>
      </g>
     </g>
    </g>
    <g id="xtick_13">
     <g id="line2d_32">
      <path d="M 643.148714 260.708125 
L 643.148714 156.703125 
" clip-path="url(#pa42686df79)" style="fill: none; stroke: #b0b0b0; stroke-opacity: 0.25; stroke-width: 0.8; stroke-linecap: square"/>
     </g>
     <g id="line2d_33">
      <g>
       <use xlink:href="#md861811b7f" x="643.148714" y="260.708125" style="stroke: #000000; stroke-width: 0.8"/>
      </g>
     </g>
    </g>
    <g id="xtick_14">
     <g id="line2d_34">
      <path d="M 755.361349 260.708125 
L 755.361349 156.703125 
" clip-path="url(#pa42686df79)" style="fill: none; stroke: #b0b0b0; stroke-opacity: 0.25; stroke-width: 0.8; stroke-linecap: square"/>
     </g>
     <g id="line2d_35">
      <g>
       <use xlink:href="#md861811b7f" x="755.361349" y="260.708125" style="stroke: #000000; stroke-width: 0.8"/>
      </g>
     </g>
    </g>
   </g>
   <g id="matplotlib.axis_4">
    <g id="ytick_4">
     <g id="line2d_36">
      <path d="M 48.982813 255.980625 
L 777.242812 255.980625 
" clip-path="url(#pa42686df79)" style="fill: none; stroke: #b0b0b0; stroke-opacity: 0.25; stroke-width: 0.8; stroke-linecap: square"/>
     </g>
     <g id="line2d_37">
      <g>
       <use xlink:href="#m2ae8213e64" x="48.982813" y="255.980625" style="stroke: #000000; stroke-width: 0.8"/>
      </g>
     </g>
     <g id="text_6">
      <!-- 100 -->
      <g transform="translate(22.895313 259.779844) scale(0.1 -0.1)">
       <use xlink:href="#DejaVuSans-31"/>
       <use xlink:href="#DejaVuSans-30" transform="translate(63.623047 0)"/>
       <use xlink:href="#DejaVuSans-30" transform="translate(127.246094 0)"/>
      </g>
     </g>
    </g>
    <g id="ytick_5">
     <g id="line2d_38">
      <path d="M 48.982813 215.917066 
L 777.242812 215.917066 
" clip-path="url(#pa42686df79)" style="fill: none; stroke: #b0b0b0; stroke-opacity: 0.25; stroke-width: 0.8; stroke-linecap: square"/>
     </g>
     <g id="line2d_39">
      <g>
       <use xlink:href="#m2ae8213e64" x="48.982813" y="215.917066" style="stroke: #000000; stroke-width: 0.8"/>
      </g>
     </g>
     <g id="text_7">
      <!-- 120 -->
      <g transform="translate(22.895313 219.716284) scale(0.1 -0.1)">
       <use xlink:href="#DejaVuSans-31"/>
       <use xlink:href="#DejaVuSans-32" transform="translate(63.623047 0)"/>
       <use xlink:href="#DejaVuSans-30" transform="translate(127.246094 0)"/>
      </g>
     </g>
    </g>
    <g id="ytick_6">
     <g id="line2d_40">
      <path d="M 48.982813 175.853506 
L 777.242812 175.853506 
" clip-path="url(#pa42686df79)" style="fill: none; stroke: #b0b0b0; stroke-opacity: 0.25; stroke-width: 0.8; stroke-linecap: square"/>
     </g>
     <g id="line2d_41">
      <g>
       <use xlink:href="#m2ae8213e64" x="48.982813" y="175.853506" style="stroke: #000000; stroke-width: 0.8"/>
      </g>
     </g>
     <g id="text_8">
      <!-- 140 -->
      <g transform="translate(22.895313 179.652725) scale(0.1 -0.1)">
       <use xlink:href="#DejaVuSans-31"/>
       <use xlink:href="#DejaVuSans-34" transform="translate(63.623047 0)"/>
       <use xlink:href="#DejaVuSans-30" transform="translate(127.246094 0)"/>
      </g>
     </g>
    </g>
    <g id="text_9">
     <!-- trend -->
     <g transform="translate(16.815625 222.028281) rotate(-90) scale(0.1 -0.1)">
      <use xlink:href="#DejaVuSans-74"/>
      <use xlink:href="#DejaVuSans-72" transform="translate(39.208984 0)"/>
      <use xlink:href="#DejaVuSans-65" transform="translate(78.072266 0)"/>
      <use xlink:href="#DejaVuSans-6e" transform="translate(139.595703 0)"/>
      <use xlink:href="#DejaVuSans-64" transform="translate(202.974609 0)"/>
     </g>
    </g>
   </g>
   <g id="line2d_42">
    <path d="M 82.08554 255.980625 
L 93.306803 254.378083 
L 104.528067 252.77554 
L 115.74933 251.172998 
L 126.970594 249.570456 
L 138.191857 247.967913 
L 149.413121 246.365371 
L 160.634384 244.762828 
L 171.855648 243.160286 
L 183.076911 241.557744 
L 194.298175 239.955201 
L 205.519438 238.352659 
L 216.740702 236.750117 
L 227.961965 235.147574 
L 239.183229 233.545032 
L 250.404492 231.942489 
L 261.625755 230.339947 
L 272.847019 228.737405 
L 284.068282 227.134862 
L 295.289546 225.53232 
L 306.510809 223.929778 
L 317.732073 222.327235 
L 328.953336 220.724693 
L 340.1746 219.12215 
L 351.395863 217.519608 
L 362.617127 215.917066 
L 373.83839 214.314523 
L 385.059654 212.711981 
L 396.280917 211.109439 
L 407.502181 209.506896 
L 418.723444 207.904354 
L 429.944708 206.301811 
L 441.165971 204.699269 
L 452.387235 203.096727 
L 463.608498 201.494184 
L 474.829762 199.891642 
L 486.051025 198.2891 
L 497.272289 196.686557 
L 508.493552 195.084015 
L 519.714816 193.481472 
L 530.936079 191.87893 
L 542.157343 190.276388 
L 553.378606 188.673845 
L 564.59987 187.071303 
L 575.821133 185.468761 
L 587.042396 183.866218 
L 598.26366 182.263676 
L 609.484923 180.661133 
L 620.706187 179.058591 
L 631.92745 177.456049 
L 643.148714 175.853506 
L 654.369977 174.250964 
L 665.591241 172.648422 
L 676.812504 171.045879 
L 688.033768 169.443337 
L 699.255031 167.840794 
L 710.476295 166.238252 
L 721.697558 164.63571 
L 732.918822 163.033167 
L 744.140085 161.430625 
" clip-path="url(#pa42686df79)" style="fill: none; stroke: #59a14f; stroke-width: 2; stroke-linecap: square"/>
   </g>
   <g id="patch_8">
    <path d="M 48.982813 260.708125 
L 48.982813 156.703125 
" style="fill: none; stroke: #000000; stroke-width: 0.8; stroke-linejoin: miter; stroke-linecap: square"/>
   </g>
   <g id="patch_9">
    <path d="M 777.242812 260.708125 
L 777.242812 156.703125 
" style="fill: none; stroke: #000000; stroke-width: 0.8; stroke-linejoin: miter; stroke-linecap: square"/>
   </g>
   <g id="patch_10">
    <path d="M 48.982813 260.708125 
L 777.242812 260.708125 
" style="fill: none; stroke: #000000; stroke-width: 0.8; stroke-linejoin: miter; stroke-linecap: square"/>
   </g>
   <g id="patch_11">
    <path d="M 48.982813 156.703125 
L 777.242812 156.703125 
" style="fill: none; stroke: #000000; stroke-width: 0.8; stroke-linejoin: miter; stroke-linecap: square"/>
   </g>
   <g id="text_10">
    <!-- Trend (long-term direction) -->
    <g transform="translate(332.546875 150.703125) scale(0.12 -0.12)">
     <defs>
      <path id="DejaVuSans-54" d="M -19 4666 
L 3928 4666 
L 3928 4134 
L 2272 4134 
L 2272 0 
L 1638 0 
L 1638 4134 
L -19 4134 
L -19 4666 
z
" transform="scale(0.015625)"/>
      <path id="DejaVuSans-28" d="M 1984 4856 
Q 1566 4138 1362 3434 
Q 1159 2731 1159 2009 
Q 1159 1288 1364 580 
Q 1569 -128 1984 -844 
L 1484 -844 
Q 1016 -109 783 600 
Q 550 1309 550 2009 
Q 550 2706 781 3412 
Q 1013 4119 1484 4856 
L 1984 4856 
z
" transform="scale(0.015625)"/>
      <path id="DejaVuSans-67" d="M 2906 1791 
Q 2906 2416 2648 2759 
Q 2391 3103 1925 3103 
Q 1463 3103 1205 2759 
Q 947 2416 947 1791 
Q 947 1169 1205 825 
Q 1463 481 1925 481 
Q 2391 481 2648 825 
Q 2906 1169 2906 1791 
z
M 3481 434 
Q 3481 -459 3084 -895 
Q 2688 -1331 1869 -1331 
Q 1566 -1331 1297 -1286 
Q 1028 -1241 775 -1147 
L 775 -588 
Q 1028 -725 1275 -790 
Q 1522 -856 1778 -856 
Q 2344 -856 2625 -561 
Q 2906 -266 2906 331 
L 2906 616 
Q 2728 306 2450 153 
Q 2172 0 1784 0 
Q 1141 0 747 490 
Q 353 981 353 1791 
Q 353 2603 747 3093 
Q 1141 3584 1784 3584 
Q 2172 3584 2450 3431 
Q 2728 3278 2906 2969 
L 2906 3500 
L 3481 3500 
L 3481 434 
z
" transform="scale(0.015625)"/>
      <path id="DejaVuSans-2d" d="M 313 2009 
L 1997 2009 
L 1997 1497 
L 313 1497 
L 313 2009 
z
" transform="scale(0.015625)"/>
      <path id="DejaVuSans-6d" d="M 3328 2828 
Q 3544 3216 3844 3400 
Q 4144 3584 4550 3584 
Q 5097 3584 5394 3201 
Q 5691 2819 5691 2113 
L 5691 0 
L 5113 0 
L 5113 2094 
Q 5113 2597 4934 2840 
Q 4756 3084 4391 3084 
Q 3944 3084 3684 2787 
Q 3425 2491 3425 1978 
L 3425 0 
L 2847 0 
L 2847 2094 
Q 2847 2600 2669 2842 
Q 2491 3084 2119 3084 
Q 1678 3084 1418 2786 
Q 1159 2488 1159 1978 
L 1159 0 
L 581 0 
L 581 3500 
L 1159 3500 
L 1159 2956 
Q 1356 3278 1631 3431 
Q 1906 3584 2284 3584 
Q 2666 3584 2933 3390 
Q 3200 3197 3328 2828 
z
" transform="scale(0.015625)"/>
      <path id="DejaVuSans-63" d="M 3122 3366 
L 3122 2828 
Q 2878 2963 2633 3030 
Q 2388 3097 2138 3097 
Q 1578 3097 1268 2742 
Q 959 2388 959 1747 
Q 959 1106 1268 751 
Q 1578 397 2138 397 
Q 2388 397 2633 464 
Q 2878 531 3122 666 
L 3122 134 
Q 2881 22 2623 -34 
Q 2366 -91 2075 -91 
Q 1284 -91 818 406 
Q 353 903 353 1747 
Q 353 2603 823 3093 
Q 1294 3584 2113 3584 
Q 2378 3584 2631 3529 
Q 2884 3475 3122 3366 
z
" transform="scale(0.015625)"/>
      <path id="DejaVuSans-29" d="M 513 4856 
L 1013 4856 
Q 1481 4119 1714 3412 
Q 1947 2706 1947 2009 
Q 1947 1309 1714 600 
Q 1481 -109 1013 -844 
L 513 -844 
Q 928 -128 1133 580 
Q 1338 1288 1338 2009 
Q 1338 2731 1133 3434 
Q 928 4138 513 4856 
z
" transform="scale(0.015625)"/>
     </defs>
     <use xlink:href="#DejaVuSans-54"/>
     <use xlink:href="#DejaVuSans-72" transform="translate(46.333984 0)"/>
     <use xlink:href="#DejaVuSans-65" transform="translate(85.197266 0)"/>
     <use xlink:href="#DejaVuSans-6e" transform="translate(146.720703 0)"/>
     <use xlink:href="#DejaVuSans-64" transform="translate(210.099609 0)"/>
     <use xlink:href="#DejaVuSans-20" transform="translate(273.576172 0)"/>
     <use xlink:href="#DejaVuSans-28" transform="translate(305.363281 0)"/>
     <use xlink:href="#DejaVuSans-6c" transform="translate(344.376953 0)"/>
     <use xlink:href="#DejaVuSans-6f" transform="translate(372.160156 0)"/>
     <use xlink:href="#DejaVuSans-6e" transform="translate(433.341797 0)"/>
     <use xlink:href="#DejaVuSans-67" transform="translate(496.720703 0)"/>
     <use xlink:href="#DejaVuSans-2d" transform="translate(560.197266 0)"/>
     <use xlink:href="#DejaVuSans-74" transform="translate(596.28125 0)"/>
     <use xlink:href="#DejaVuSans-65" transform="translate(635.490234 0)"/>
     <use xlink:href="#DejaVuSans-72" transform="translate(697.013672 0)"/>
     <use xlink:href="#DejaVuSans-6d" transform="translate(736.376953 0)"/>
     <use xlink:href="#DejaVuSans-20" transform="translate(833.789062 0)"/>
     <use xlink:href="#DejaVuSans-64" transform="translate(865.576172 0)"/>
     <use xlink:href="#DejaVuSans-69" transform="translate(929.052734 0)"/>
     <use xlink:href="#DejaVuSans-72" transform="translate(956.835938 0)"/>
     <use xlink:href="#DejaVuSans-65" transform="translate(995.699219 0)"/>
     <use xlink:href="#DejaVuSans-63" transform="translate(1057.222656 0)"/>
     <use xlink:href="#DejaVuSans-74" transform="translate(1112.203125 0)"/>
     <use xlink:href="#DejaVuSans-69" transform="translate(1151.412109 0)"/>
     <use xlink:href="#DejaVuSans-6f" transform="translate(1179.195312 0)"/>
     <use xlink:href="#DejaVuSans-6e" transform="translate(1240.376953 0)"/>
     <use xlink:href="#DejaVuSans-29" transform="translate(1303.755859 0)"/>
    </g>
   </g>
  </g>
  <g id="axes_3">
   <g id="patch_12">
    <path d="M 48.982813 395.093125 
L 777.242812 395.093125 
L 777.242812 291.088125 
L 48.982813 291.088125 
z
" style="fill: #ffffff"/>
   </g>
   <g id="matplotlib.axis_5">
    <g id="xtick_15">
     <g id="line2d_43">
      <path d="M 82.08554 395.093125 
L 82.08554 291.088125 
" clip-path="url(#pa51ab768ca)" style="fill: none; stroke: #b0b0b0; stroke-opacity: 0.25; stroke-width: 0.8; stroke-linecap: square"/>
     </g>
     <g id="line2d_44">
      <g>
       <use xlink:href="#md861811b7f" x="82.08554" y="395.093125" style="stroke: #000000; stroke-width: 0.8"/>
      </g>
     </g>
    </g>
    <g id="xtick_16">
     <g id="line2d_45">
      <path d="M 194.298175 395.093125 
L 194.298175 291.088125 
" clip-path="url(#pa51ab768ca)" style="fill: none; stroke: #b0b0b0; stroke-opacity: 0.25; stroke-width: 0.8; stroke-linecap: square"/>
     </g>
     <g id="line2d_46">
      <g>
       <use xlink:href="#md861811b7f" x="194.298175" y="395.093125" style="stroke: #000000; stroke-width: 0.8"/>
      </g>
     </g>
    </g>
    <g id="xtick_17">
     <g id="line2d_47">
      <path d="M 306.510809 395.093125 
L 306.510809 291.088125 
" clip-path="url(#pa51ab768ca)" style="fill: none; stroke: #b0b0b0; stroke-opacity: 0.25; stroke-width: 0.8; stroke-linecap: square"/>
     </g>
     <g id="line2d_48">
      <g>
       <use xlink:href="#md861811b7f" x="306.510809" y="395.093125" style="stroke: #000000; stroke-width: 0.8"/>
      </g>
     </g>
    </g>
    <g id="xtick_18">
     <g id="line2d_49">
      <path d="M 418.723444 395.093125 
L 418.723444 291.088125 
" clip-path="url(#pa51ab768ca)" style="fill: none; stroke: #b0b0b0; stroke-opacity: 0.25; stroke-width: 0.8; stroke-linecap: square"/>
     </g>
     <g id="line2d_50">
      <g>
       <use xlink:href="#md861811b7f" x="418.723444" y="395.093125" style="stroke: #000000; stroke-width: 0.8"/>
      </g>
     </g>
    </g>
    <g id="xtick_19">
     <g id="line2d_51">
      <path d="M 530.936079 395.093125 
L 530.936079 291.088125 
" clip-path="url(#pa51ab768ca)" style="fill: none; stroke: #b0b0b0; stroke-opacity: 0.25; stroke-width: 0.8; stroke-linecap: square"/>
     </g>
     <g id="line2d_52">
      <g>
       <use xlink:href="#md861811b7f" x="530.936079" y="395.093125" style="stroke: #000000; stroke-width: 0.8"/>
      </g>
     </g>
    </g>
    <g id="xtick_20">
     <g id="line2d_53">
      <path d="M 643.148714 395.093125 
L 643.148714 291.088125 
" clip-path="url(#pa51ab768ca)" style="fill: none; stroke: #b0b0b0; stroke-opacity: 0.25; stroke-width: 0.8; stroke-linecap: square"/>
     </g>
     <g id="line2d_54">
      <g>
       <use xlink:href="#md861811b7f" x="643.148714" y="395.093125" style="stroke: #000000; stroke-width: 0.8"/>
      </g>
     </g>
    </g>
    <g id="xtick_21">
     <g id="line2d_55">
      <path d="M 755.361349 395.093125 
L 755.361349 291.088125 
" clip-path="url(#pa51ab768ca)" style="fill: none; stroke: #b0b0b0; stroke-opacity: 0.25; stroke-width: 0.8; stroke-linecap: square"/>
     </g>
     <g id="line2d_56">
      <g>
       <use xlink:href="#md861811b7f" x="755.361349" y="395.093125" style="stroke: #000000; stroke-width: 0.8"/>
      </g>
     </g>
    </g>
   </g>
   <g id="matplotlib.axis_6">
    <g id="ytick_7">
     <g id="line2d_57">
      <path d="M 48.982813 374.607292 
L 777.242812 374.607292 
" clip-path="url(#pa51ab768ca)" style="fill: none; stroke: #b0b0b0; stroke-opacity: 0.25; stroke-width: 0.8; stroke-linecap: square"/>
     </g>
     <g id="line2d_58">
      <g>
       <use xlink:href="#m2ae8213e64" x="48.982813" y="374.607292" style="stroke: #000000; stroke-width: 0.8"/>
      </g>
     </g>
     <g id="text_11">
      <!-- −10 -->
      <g transform="translate(20.878125 378.40651) scale(0.1 -0.1)">
       <defs>
        <path id="DejaVuSans-2212" d="M 678 2272 
L 4684 2272 
L 4684 1741 
L 678 1741 
L 678 2272 
z
" transform="scale(0.015625)"/>
       </defs>
       <use xlink:href="#DejaVuSans-2212"/>
       <use xlink:href="#DejaVuSans-31" transform="translate(83.789062 0)"/>
       <use xlink:href="#DejaVuSans-30" transform="translate(147.412109 0)"/>
      </g>
     </g>
    </g>
    <g id="ytick_8">
     <g id="line2d_59">
      <path d="M 48.982813 343.090625 
L 777.242812 343.090625 
" clip-path="url(#pa51ab768ca)" style="fill: none; stroke: #b0b0b0; stroke-opacity: 0.25; stroke-width: 0.8; stroke-linecap: square"/>
     </g>
     <g id="line2d_60">
      <g>
       <use xlink:href="#m2ae8213e64" x="48.982813" y="343.090625" style="stroke: #000000; stroke-width: 0.8"/>
      </g>
     </g>
     <g id="text_12">
      <!-- 0 -->
      <g transform="translate(35.620313 346.889844) scale(0.1 -0.1)">
       <use xlink:href="#DejaVuSans-30"/>
      </g>
     </g>
    </g>
    <g id="ytick_9">
     <g id="line2d_61">
      <path d="M 48.982813 311.573958 
L 777.242812 311.573958 
" clip-path="url(#pa51ab768ca)" style="fill: none; stroke: #b0b0b0; stroke-opacity: 0.25; stroke-width: 0.8; stroke-linecap: square"/>
     </g>
     <g id="line2d_62">
      <g>
       <use xlink:href="#m2ae8213e64" x="48.982813" y="311.573958" style="stroke: #000000; stroke-width: 0.8"/>
      </g>
     </g>
     <g id="text_13">
      <!-- 10 -->
      <g transform="translate(29.257813 315.373177) scale(0.1 -0.1)">
       <use xlink:href="#DejaVuSans-31"/>
       <use xlink:href="#DejaVuSans-30" transform="translate(63.623047 0)"/>
      </g>
     </g>
    </g>
    <g id="text_14">
     <!-- seasonal -->
     <g transform="translate(14.798438 365.121875) rotate(-90) scale(0.1 -0.1)">
      <use xlink:href="#DejaVuSans-73"/>
      <use xlink:href="#DejaVuSans-65" transform="translate(52.099609 0)"/>
      <use xlink:href="#DejaVuSans-61" transform="translate(113.623047 0)"/>
      <use xlink:href="#DejaVuSans-73" transform="translate(174.902344 0)"/>
      <use xlink:href="#DejaVuSans-6f" transform="translate(227.001953 0)"/>
      <use xlink:href="#DejaVuSans-6e" transform="translate(288.183594 0)"/>
      <use xlink:href="#DejaVuSans-61" transform="translate(351.5625 0)"/>
      <use xlink:href="#DejaVuSans-6c" transform="translate(412.841797 0)"/>
     </g>
    </g>
   </g>
   <g id="line2d_63">
    <path d="M 82.08554 343.090625 
L 93.306803 319.453125 
L 104.528067 302.149274 
L 115.74933 295.815625 
L 126.970594 302.149274 
L 138.191857 319.453125 
L 149.413121 343.090625 
L 160.634384 366.728125 
L 171.855648 384.031976 
L 183.076911 390.365625 
L 194.298175 384.031976 
L 205.519438 366.728125 
L 216.740702 343.090625 
L 227.961965 319.453125 
L 239.183229 302.149274 
L 250.404492 295.815625 
L 261.625755 302.149274 
L 272.847019 319.453125 
L 284.068282 343.090625 
L 295.289546 366.728125 
L 306.510809 384.031976 
L 317.732073 390.365625 
L 328.953336 384.031976 
L 340.1746 366.728125 
L 351.395863 343.090625 
L 362.617127 319.453125 
L 373.83839 302.149274 
L 385.059654 295.815625 
L 396.280917 302.149274 
L 407.502181 319.453125 
L 418.723444 343.090625 
L 429.944708 366.728125 
L 441.165971 384.031976 
L 452.387235 390.365625 
L 463.608498 384.031976 
L 474.829762 366.728125 
L 486.051025 343.090625 
L 497.272289 319.453125 
L 508.493552 302.149274 
L 519.714816 295.815625 
L 530.936079 302.149274 
L 542.157343 319.453125 
L 553.378606 343.090625 
L 564.59987 366.728125 
L 575.821133 384.031976 
L 587.042396 390.365625 
L 598.26366 384.031976 
L 609.484923 366.728125 
L 620.706187 343.090625 
L 631.92745 319.453125 
L 643.148714 302.149274 
L 654.369977 295.815625 
L 665.591241 302.149274 
L 676.812504 319.453125 
L 688.033768 343.090625 
L 699.255031 366.728125 
L 710.476295 384.031976 
L 721.697558 390.365625 
L 732.918822 384.031976 
L 744.140085 366.728125 
" clip-path="url(#pa51ab768ca)" style="fill: none; stroke: #f28e2b; stroke-width: 2; stroke-linecap: square"/>
   </g>
   <g id="patch_13">
    <path d="M 48.982813 395.093125 
L 48.982813 291.088125 
" style="fill: none; stroke: #000000; stroke-width: 0.8; stroke-linejoin: miter; stroke-linecap: square"/>
   </g>
   <g id="patch_14">
    <path d="M 777.242812 395.093125 
L 777.242812 291.088125 
" style="fill: none; stroke: #000000; stroke-width: 0.8; stroke-linejoin: miter; stroke-linecap: square"/>
   </g>
   <g id="patch_15">
    <path d="M 48.982813 395.093125 
L 777.242812 395.093125 
" style="fill: none; stroke: #000000; stroke-width: 0.8; stroke-linejoin: miter; stroke-linecap: square"/>
   </g>
   <g id="patch_16">
    <path d="M 48.982813 291.088125 
L 777.242812 291.088125 
" style="fill: none; stroke: #000000; stroke-width: 0.8; stroke-linejoin: miter; stroke-linecap: square"/>
   </g>
   <g id="text_15">
    <!-- Seasonal (repeats every 12 months) -->
    <g transform="translate(303.817187 285.088125) scale(0.12 -0.12)">
     <defs>
      <path id="DejaVuSans-53" d="M 3425 4513 
L 3425 3897 
Q 3066 4069 2747 4153 
Q 2428 4238 2131 4238 
Q 1616 4238 1336 4038 
Q 1056 3838 1056 3469 
Q 1056 3159 1242 3001 
Q 1428 2844 1947 2747 
L 2328 2669 
Q 3034 2534 3370 2195 
Q 3706 1856 3706 1288 
Q 3706 609 3251 259 
Q 2797 -91 1919 -91 
Q 1588 -91 1214 -16 
Q 841 59 441 206 
L 441 856 
Q 825 641 1194 531 
Q 1563 422 1919 422 
Q 2459 422 2753 634 
Q 3047 847 3047 1241 
Q 3047 1584 2836 1778 
Q 2625 1972 2144 2069 
L 1759 2144 
Q 1053 2284 737 2584 
Q 422 2884 422 3419 
Q 422 4038 858 4394 
Q 1294 4750 2059 4750 
Q 2388 4750 2728 4690 
Q 3069 4631 3425 4513 
z
" transform="scale(0.015625)"/>
      <path id="DejaVuSans-70" d="M 1159 525 
L 1159 -1331 
L 581 -1331 
L 581 3500 
L 1159 3500 
L 1159 2969 
Q 1341 3281 1617 3432 
Q 1894 3584 2278 3584 
Q 2916 3584 3314 3078 
Q 3713 2572 3713 1747 
Q 3713 922 3314 415 
Q 2916 -91 2278 -91 
Q 1894 -91 1617 61 
Q 1341 213 1159 525 
z
M 3116 1747 
Q 3116 2381 2855 2742 
Q 2594 3103 2138 3103 
Q 1681 3103 1420 2742 
Q 1159 2381 1159 1747 
Q 1159 1113 1420 752 
Q 1681 391 2138 391 
Q 2594 391 2855 752 
Q 3116 1113 3116 1747 
z
" transform="scale(0.015625)"/>
      <path id="DejaVuSans-68" d="M 3513 2113 
L 3513 0 
L 2938 0 
L 2938 2094 
Q 2938 2591 2744 2837 
Q 2550 3084 2163 3084 
Q 1697 3084 1428 2787 
Q 1159 2491 1159 1978 
L 1159 0 
L 581 0 
L 581 4863 
L 1159 4863 
L 1159 2956 
Q 1366 3272 1645 3428 
Q 1925 3584 2291 3584 
Q 2894 3584 3203 3211 
Q 3513 2838 3513 2113 
z
" transform="scale(0.015625)"/>
     </defs>
     <use xlink:href="#DejaVuSans-53"/>
     <use xlink:href="#DejaVuSans-65" transform="translate(63.476562 0)"/>
     <use xlink:href="#DejaVuSans-61" transform="translate(125 0)"/>
     <use xlink:href="#DejaVuSans-73" transform="translate(186.279297 0)"/>
     <use xlink:href="#DejaVuSans-6f" transform="translate(238.378906 0)"/>
     <use xlink:href="#DejaVuSans-6e" transform="translate(299.560547 0)"/>
     <use xlink:href="#DejaVuSans-61" transform="translate(362.939453 0)"/>
     <use xlink:href="#DejaVuSans-6c" transform="translate(424.21875 0)"/>
     <use xlink:href="#DejaVuSans-20" transform="translate(452.001953 0)"/>
     <use xlink:href="#DejaVuSans-28" transform="translate(483.789062 0)"/>
     <use xlink:href="#DejaVuSans-72" transform="translate(522.802734 0)"/>
     <use xlink:href="#DejaVuSans-65" transform="translate(561.666016 0)"/>
     <use xlink:href="#DejaVuSans-70" transform="translate(623.189453 0)"/>
     <use xlink:href="#DejaVuSans-65" transform="translate(686.666016 0)"/>
     <use xlink:href="#DejaVuSans-61" transform="translate(748.189453 0)"/>
     <use xlink:href="#DejaVuSans-74" transform="translate(809.46875 0)"/>
     <use xlink:href="#DejaVuSans-73" transform="translate(848.677734 0)"/>
     <use xlink:href="#DejaVuSans-20" transform="translate(900.777344 0)"/>
     <use xlink:href="#DejaVuSans-65" transform="translate(932.564453 0)"/>
     <use xlink:href="#DejaVuSans-76" transform="translate(994.087891 0)"/>
     <use xlink:href="#DejaVuSans-65" transform="translate(1053.267578 0)"/>
     <use xlink:href="#DejaVuSans-72" transform="translate(1114.791016 0)"/>
     <use xlink:href="#DejaVuSans-79" transform="translate(1155.904297 0)"/>
     <use xlink:href="#DejaVuSans-20" transform="translate(1215.083984 0)"/>
     <use xlink:href="#DejaVuSans-31" transform="translate(1246.871094 0)"/>
     <use xlink:href="#DejaVuSans-32" transform="translate(1310.494141 0)"/>
     <use xlink:href="#DejaVuSans-20" transform="translate(1374.117188 0)"/>
     <use xlink:href="#DejaVuSans-6d" transform="translate(1405.904297 0)"/>
     <use xlink:href="#DejaVuSans-6f" transform="translate(1503.316406 0)"/>
     <use xlink:href="#DejaVuSans-6e" transform="translate(1564.498047 0)"/>
     <use xlink:href="#DejaVuSans-74" transform="translate(1627.876953 0)"/>
     <use xlink:href="#DejaVuSans-68" transform="translate(1667.085938 0)"/>
     <use xlink:href="#DejaVuSans-73" transform="translate(1730.464844 0)"/>
     <use xlink:href="#DejaVuSans-29" transform="translate(1782.564453 0)"/>
    </g>
   </g>
  </g>
  <g id="axes_4">
   <g id="patch_17">
    <path d="M 48.982813 529.478125 
L 777.242812 529.478125 
L 777.242812 425.473125 
L 48.982813 425.473125 
z
" style="fill: #ffffff"/>
   </g>
   <g id="matplotlib.axis_7">
    <g id="xtick_22">
     <g id="line2d_64">
      <path d="M 82.08554 529.478125 
L 82.08554 425.473125 
" clip-path="url(#p52c7dece02)" style="fill: none; stroke: #b0b0b0; stroke-opacity: 0.25; stroke-width: 0.8; stroke-linecap: square"/>
     </g>
     <g id="line2d_65">
      <g>
       <use xlink:href="#md861811b7f" x="82.08554" y="529.478125" style="stroke: #000000; stroke-width: 0.8"/>
      </g>
     </g>
     <g id="text_16">
      <!-- 0 -->
      <g transform="translate(78.90429 544.076562) scale(0.1 -0.1)">
       <use xlink:href="#DejaVuSans-30"/>
      </g>
     </g>
    </g>
    <g id="xtick_23">
     <g id="line2d_66">
      <path d="M 194.298175 529.478125 
L 194.298175 425.473125 
" clip-path="url(#p52c7dece02)" style="fill: none; stroke: #b0b0b0; stroke-opacity: 0.25; stroke-width: 0.8; stroke-linecap: square"/>
     </g>
     <g id="line2d_67">
      <g>
       <use xlink:href="#md861811b7f" x="194.298175" y="529.478125" style="stroke: #000000; stroke-width: 0.8"/>
      </g>
     </g>
     <g id="text_17">
      <!-- 10 -->
      <g transform="translate(187.935675 544.076562) scale(0.1 -0.1)">
       <use xlink:href="#DejaVuSans-31"/>
       <use xlink:href="#DejaVuSans-30" transform="translate(63.623047 0)"/>
      </g>
     </g>
    </g>
    <g id="xtick_24">
     <g id="line2d_68">
      <path d="M 306.510809 529.478125 
L 306.510809 425.473125 
" clip-path="url(#p52c7dece02)" style="fill: none; stroke: #b0b0b0; stroke-opacity: 0.25; stroke-width: 0.8; stroke-linecap: square"/>
     </g>
     <g id="line2d_69">
      <g>
       <use xlink:href="#md861811b7f" x="306.510809" y="529.478125" style="stroke: #000000; stroke-width: 0.8"/>
      </g>
     </g>
     <g id="text_18">
      <!-- 20 -->
      <g transform="translate(300.148309 544.076562) scale(0.1 -0.1)">
       <use xlink:href="#DejaVuSans-32"/>
       <use xlink:href="#DejaVuSans-30" transform="translate(63.623047 0)"/>
      </g>
     </g>
    </g>
    <g id="xtick_25">
     <g id="line2d_70">
      <path d="M 418.723444 529.478125 
L 418.723444 425.473125 
" clip-path="url(#p52c7dece02)" style="fill: none; stroke: #b0b0b0; stroke-opacity: 0.25; stroke-width: 0.8; stroke-linecap: square"/>
     </g>
     <g id="line2d_71">
      <g>
       <use xlink:href="#md861811b7f" x="418.723444" y="529.478125" style="stroke: #000000; stroke-width: 0.8"/>
      </g>
     </g>
     <g id="text_19">
      <!-- 30 -->
      <g transform="translate(412.360944 544.076562) scale(0.1 -0.1)">
       <defs>
        <path id="DejaVuSans-33" d="M 2597 2516 
Q 3050 2419 3304 2112 
Q 3559 1806 3559 1356 
Q 3559 666 3084 287 
Q 2609 -91 1734 -91 
Q 1441 -91 1130 -33 
Q 819 25 488 141 
L 488 750 
Q 750 597 1062 519 
Q 1375 441 1716 441 
Q 2309 441 2620 675 
Q 2931 909 2931 1356 
Q 2931 1769 2642 2001 
Q 2353 2234 1838 2234 
L 1294 2234 
L 1294 2753 
L 1863 2753 
Q 2328 2753 2575 2939 
Q 2822 3125 2822 3475 
Q 2822 3834 2567 4026 
Q 2313 4219 1838 4219 
Q 1578 4219 1281 4162 
Q 984 4106 628 3988 
L 628 4550 
Q 988 4650 1302 4700 
Q 1616 4750 1894 4750 
Q 2613 4750 3031 4423 
Q 3450 4097 3450 3541 
Q 3450 3153 3228 2886 
Q 3006 2619 2597 2516 
z
" transform="scale(0.015625)"/>
       </defs>
       <use xlink:href="#DejaVuSans-33"/>
       <use xlink:href="#DejaVuSans-30" transform="translate(63.623047 0)"/>
      </g>
     </g>
    </g>
    <g id="xtick_26">
     <g id="line2d_72">
      <path d="M 530.936079 529.478125 
L 530.936079 425.473125 
" clip-path="url(#p52c7dece02)" style="fill: none; stroke: #b0b0b0; stroke-opacity: 0.25; stroke-width: 0.8; stroke-linecap: square"/>
     </g>
     <g id="line2d_73">
      <g>
       <use xlink:href="#md861811b7f" x="530.936079" y="529.478125" style="stroke: #000000; stroke-width: 0.8"/>
      </g>
     </g>
     <g id="text_20">
      <!-- 40 -->
      <g transform="translate(524.573579 544.076562) scale(0.1 -0.1)">
       <use xlink:href="#DejaVuSans-34"/>
       <use xlink:href="#DejaVuSans-30" transform="translate(63.623047 0)"/>
      </g>
     </g>
    </g>
    <g id="xtick_27">
     <g id="line2d_74">
      <path d="M 643.148714 529.478125 
L 643.148714 425.473125 
" clip-path="url(#p52c7dece02)" style="fill: none; stroke: #b0b0b0; stroke-opacity: 0.25; stroke-width: 0.8; stroke-linecap: square"/>
     </g>
     <g id="line2d_75">
      <g>
       <use xlink:href="#md861811b7f" x="643.148714" y="529.478125" style="stroke: #000000; stroke-width: 0.8"/>
      </g>
     </g>
     <g id="text_21">
      <!-- 50 -->
      <g transform="translate(636.786214 544.076562) scale(0.1 -0.1)">
       <defs>
        <path id="DejaVuSans-35" d="M 691 4666 
L 3169 4666 
L 3169 4134 
L 1269 4134 
L 1269 2991 
Q 1406 3038 1543 3061 
Q 1681 3084 1819 3084 
Q 2600 3084 3056 2656 
Q 3513 2228 3513 1497 
Q 3513 744 3044 326 
Q 2575 -91 1722 -91 
Q 1428 -91 1123 -41 
Q 819 9 494 109 
L 494 744 
Q 775 591 1075 516 
Q 1375 441 1709 441 
Q 2250 441 2565 725 
Q 2881 1009 2881 1497 
Q 2881 1984 2565 2268 
Q 2250 2553 1709 2553 
Q 1456 2553 1204 2497 
Q 953 2441 691 2322 
L 691 4666 
z
" transform="scale(0.015625)"/>
       </defs>
       <use xlink:href="#DejaVuSans-35"/>
       <use xlink:href="#DejaVuSans-30" transform="translate(63.623047 0)"/>
      </g>
     </g>
    </g>
    <g id="xtick_28">
     <g id="line2d_76">
      <path d="M 755.361349 529.478125 
L 755.361349 425.473125 
" clip-path="url(#p52c7dece02)" style="fill: none; stroke: #b0b0b0; stroke-opacity: 0.25; stroke-width: 0.8; stroke-linecap: square"/>
     </g>
     <g id="line2d_77">
      <g>
       <use xlink:href="#md861811b7f" x="755.361349" y="529.478125" style="stroke: #000000; stroke-width: 0.8"/>
      </g>
     </g>
     <g id="text_22">
      <!-- 60 -->
      <g transform="translate(748.998849 544.076562) scale(0.1 -0.1)">
       <defs>
        <path id="DejaVuSans-36" d="M 2113 2584 
Q 1688 2584 1439 2293 
Q 1191 2003 1191 1497 
Q 1191 994 1439 701 
Q 1688 409 2113 409 
Q 2538 409 2786 701 
Q 3034 994 3034 1497 
Q 3034 2003 2786 2293 
Q 2538 2584 2113 2584 
z
M 3366 4563 
L 3366 3988 
Q 3128 4100 2886 4159 
Q 2644 4219 2406 4219 
Q 1781 4219 1451 3797 
Q 1122 3375 1075 2522 
Q 1259 2794 1537 2939 
Q 1816 3084 2150 3084 
Q 2853 3084 3261 2657 
Q 3669 2231 3669 1497 
Q 3669 778 3244 343 
Q 2819 -91 2113 -91 
Q 1303 -91 875 529 
Q 447 1150 447 2328 
Q 447 3434 972 4092 
Q 1497 4750 2381 4750 
Q 2619 4750 2861 4703 
Q 3103 4656 3366 4563 
z
" transform="scale(0.015625)"/>
       </defs>
       <use xlink:href="#DejaVuSans-36"/>
       <use xlink:href="#DejaVuSans-30" transform="translate(63.623047 0)"/>
      </g>
     </g>
    </g>
    <g id="text_23">
     <!-- month -->
     <g transform="translate(396.885469 557.754687) scale(0.1 -0.1)">
      <use xlink:href="#DejaVuSans-6d"/>
      <use xlink:href="#DejaVuSans-6f" transform="translate(97.412109 0)"/>
      <use xlink:href="#DejaVuSans-6e" transform="translate(158.59375 0)"/>
      <use xlink:href="#DejaVuSans-74" transform="translate(221.972656 0)"/>
      <use xlink:href="#DejaVuSans-68" transform="translate(261.181641 0)"/>
     </g>
    </g>
   </g>
   <g id="matplotlib.axis_8">
    <g id="ytick_10">
     <g id="line2d_78">
      <path d="M 48.982813 528.611121 
L 777.242812 528.611121 
" clip-path="url(#p52c7dece02)" style="fill: none; stroke: #b0b0b0; stroke-opacity: 0.25; stroke-width: 0.8; stroke-linecap: square"/>
     </g>
     <g id="line2d_79">
      <g>
       <use xlink:href="#m2ae8213e64" x="48.982813" y="528.611121" style="stroke: #000000; stroke-width: 0.8"/>
      </g>
     </g>
     <g id="text_24">
      <!-- −10 -->
      <g transform="translate(20.878125 532.410339) scale(0.1 -0.1)">
       <use xlink:href="#DejaVuSans-2212"/>
       <use xlink:href="#DejaVuSans-31" transform="translate(83.789062 0)"/>
       <use xlink:href="#DejaVuSans-30" transform="translate(147.412109 0)"/>
      </g>
     </g>
    </g>
    <g id="ytick_11">
     <g id="line2d_80">
      <path d="M 48.982813 501.031301 
L 777.242812 501.031301 
" clip-path="url(#p52c7dece02)" style="fill: none; stroke: #b0b0b0; stroke-opacity: 0.25; stroke-width: 0.8; stroke-linecap: square"/>
     </g>
     <g id="line2d_81">
      <g>
       <use xlink:href="#m2ae8213e64" x="48.982813" y="501.031301" style="stroke: #000000; stroke-width: 0.8"/>
      </g>
     </g>
     <g id="text_25">
      <!-- −5 -->
      <g transform="translate(27.240625 504.83052) scale(0.1 -0.1)">
       <use xlink:href="#DejaVuSans-2212"/>
       <use xlink:href="#DejaVuSans-35" transform="translate(83.789062 0)"/>
      </g>
     </g>
    </g>
    <g id="ytick_12">
     <g id="line2d_82">
      <path d="M 48.982813 473.451482 
L 777.242812 473.451482 
" clip-path="url(#p52c7dece02)" style="fill: none; stroke: #b0b0b0; stroke-opacity: 0.25; stroke-width: 0.8; stroke-linecap: square"/>
     </g>
     <g id="line2d_83">
      <g>
       <use xlink:href="#m2ae8213e64" x="48.982813" y="473.451482" style="stroke: #000000; stroke-width: 0.8"/>
      </g>
     </g>
     <g id="text_26">
      <!-- 0 -->
      <g transform="translate(35.620313 477.2507) scale(0.1 -0.1)">
       <use xlink:href="#DejaVuSans-30"/>
      </g>
     </g>
    </g>
    <g id="ytick_13">
     <g id="line2d_84">
      <path d="M 48.982813 445.871662 
L 777.242812 445.871662 
" clip-path="url(#p52c7dece02)" style="fill: none; stroke: #b0b0b0; stroke-opacity: 0.25; stroke-width: 0.8; stroke-linecap: square"/>
     </g>
     <g id="line2d_85">
      <g>
       <use xlink:href="#m2ae8213e64" x="48.982813" y="445.871662" style="stroke: #000000; stroke-width: 0.8"/>
      </g>
     </g>
     <g id="text_27">
      <!-- 5 -->
      <g transform="translate(35.620313 449.670881) scale(0.1 -0.1)">
       <use xlink:href="#DejaVuSans-35"/>
      </g>
     </g>
    </g>
    <g id="text_28">
     <!-- residual -->
     <g transform="translate(14.798438 497.285) rotate(-90) scale(0.1 -0.1)">
      <use xlink:href="#DejaVuSans-72"/>
      <use xlink:href="#DejaVuSans-65" transform="translate(38.863281 0)"/>
      <use xlink:href="#DejaVuSans-73" transform="translate(100.386719 0)"/>
      <use xlink:href="#DejaVuSans-69" transform="translate(152.486328 0)"/>
      <use xlink:href="#DejaVuSans-64" transform="translate(180.269531 0)"/>
      <use xlink:href="#DejaVuSans-75" transform="translate(243.746094 0)"/>
      <use xlink:href="#DejaVuSans-61" transform="translate(307.125 0)"/>
      <use xlink:href="#DejaVuSans-6c" transform="translate(368.404297 0)"/>
     </g>
    </g>
   </g>
   <g id="line2d_86">
    <path d="M 82.08554 470.677388 
L 93.306803 476.366224 
L 104.528067 459.321289 
L 115.74933 471.136981 
L 126.970594 485.270413 
L 138.191857 465.4733 
L 149.413121 444.680213 
L 160.634384 452.555224 
L 171.855648 488.978594 
L 183.076911 501.371558 
L 194.298175 487.203319 
L 205.519438 472.539671 
L 216.740702 524.750625 
L 227.961965 478.278869 
L 239.183229 500.941081 
L 250.404492 489.608123 
L 261.625755 485.459933 
L 272.847019 480.430283 
L 284.068282 464.369325 
L 295.289546 450.449617 
L 306.510809 476.287452 
L 317.732073 443.302029 
L 328.953336 488.128241 
L 340.1746 465.695814 
L 351.395863 453.517446 
L 362.617127 471.377208 
L 373.83839 489.855942 
L 385.059654 493.788297 
L 396.280917 483.550678 
L 407.502181 468.593128 
L 418.723444 495.727551 
L 429.944708 478.066701 
L 441.165971 476.964599 
L 452.387235 461.518343 
L 463.608498 468.715274 
L 474.829762 465.610589 
L 486.051025 487.877462 
L 497.272289 476.311258 
L 508.493552 456.15396 
L 519.714816 440.500632 
L 530.936079 501.231322 
L 542.157343 440.048486 
L 553.378606 443.75628 
L 564.59987 456.21274 
L 575.821133 467.616571 
L 587.042396 480.377829 
L 598.26366 441.281924 
L 609.484923 430.200625 
L 620.706187 433.70047 
L 631.92745 444.435222 
L 643.148714 465.566292 
L 654.369977 500.111649 
L 665.591241 473.549757 
L 676.812504 458.967113 
L 688.033768 501.877703 
L 699.255031 464.733565 
L 710.476295 463.967031 
L 721.697558 458.094095 
L 732.918822 499.577689 
L 744.140085 488.051192 
" clip-path="url(#p52c7dece02)" style="fill: none; stroke: #e15759; stroke-opacity: 0.6; stroke-linecap: square"/>
   </g>
   <g id="line2d_87">
    <path d="M 48.982813 473.451482 
L 777.242812 473.451482 
" clip-path="url(#p52c7dece02)" style="fill: none; stroke: #000000; stroke-width: 0.5; stroke-linecap: square"/>
   </g>
   <g id="patch_18">
    <path d="M 48.982813 529.478125 
L 48.982813 425.473125 
" style="fill: none; stroke: #000000; stroke-width: 0.8; stroke-linejoin: miter; stroke-linecap: square"/>
   </g>
   <g id="patch_19">
    <path d="M 777.242812 529.478125 
L 777.242812 425.473125 
" style="fill: none; stroke: #000000; stroke-width: 0.8; stroke-linejoin: miter; stroke-linecap: square"/>
   </g>
   <g id="patch_20">
    <path d="M 48.982813 529.478125 
L 777.242812 529.478125 
" style="fill: none; stroke: #000000; stroke-width: 0.8; stroke-linejoin: miter; stroke-linecap: square"/>
   </g>
   <g id="patch_21">
    <path d="M 48.982813 425.473125 
L 777.242812 425.473125 
" style="fill: none; stroke: #000000; stroke-width: 0.8; stroke-linejoin: miter; stroke-linecap: square"/>
   </g>
   <g id="text_29">
    <!-- Residual (random noise) -->
    <g transform="translate(340.049687 419.473125) scale(0.12 -0.12)">
     <defs>
      <path id="DejaVuSans-52" d="M 2841 2188 
Q 3044 2119 3236 1894 
Q 3428 1669 3622 1275 
L 4263 0 
L 3584 0 
L 2988 1197 
Q 2756 1666 2539 1819 
Q 2322 1972 1947 1972 
L 1259 1972 
L 1259 0 
L 628 0 
L 628 4666 
L 2053 4666 
Q 2853 4666 3247 4331 
Q 3641 3997 3641 3322 
Q 3641 2881 3436 2590 
Q 3231 2300 2841 2188 
z
M 1259 4147 
L 1259 2491 
L 2053 2491 
Q 2509 2491 2742 2702 
Q 2975 2913 2975 3322 
Q 2975 3731 2742 3939 
Q 2509 4147 2053 4147 
L 1259 4147 
z
" transform="scale(0.015625)"/>
     </defs>
     <use xlink:href="#DejaVuSans-52"/>
     <use xlink:href="#DejaVuSans-65" transform="translate(64.982422 0)"/>
     <use xlink:href="#DejaVuSans-73" transform="translate(126.505859 0)"/>
     <use xlink:href="#DejaVuSans-69" transform="translate(178.605469 0)"/>
     <use xlink:href="#DejaVuSans-64" transform="translate(206.388672 0)"/>
     <use xlink:href="#DejaVuSans-75" transform="translate(269.865234 0)"/>
     <use xlink:href="#DejaVuSans-61" transform="translate(333.244141 0)"/>
     <use xlink:href="#DejaVuSans-6c" transform="translate(394.523438 0)"/>
     <use xlink:href="#DejaVuSans-20" transform="translate(422.306641 0)"/>
     <use xlink:href="#DejaVuSans-28" transform="translate(454.09375 0)"/>
     <use xlink:href="#DejaVuSans-72" transform="translate(493.107422 0)"/>
     <use xlink:href="#DejaVuSans-61" transform="translate(534.220703 0)"/>
     <use xlink:href="#DejaVuSans-6e" transform="translate(595.5 0)"/>
     <use xlink:href="#DejaVuSans-64" transform="translate(658.878906 0)"/>
     <use xlink:href="#DejaVuSans-6f" transform="translate(722.355469 0)"/>
     <use xlink:href="#DejaVuSans-6d" transform="translate(783.537109 0)"/>
     <use xlink:href="#DejaVuSans-20" transform="translate(880.949219 0)"/>
     <use xlink:href="#DejaVuSans-6e" transform="translate(912.736328 0)"/>
     <use xlink:href="#DejaVuSans-6f" transform="translate(976.115234 0)"/>
     <use xlink:href="#DejaVuSans-69" transform="translate(1037.296875 0)"/>
     <use xlink:href="#DejaVuSans-73" transform="translate(1065.080078 0)"/>
     <use xlink:href="#DejaVuSans-65" transform="translate(1117.179688 0)"/>
     <use xlink:href="#DejaVuSans-29" transform="translate(1178.703125 0)"/>
    </g>
   </g>
  </g>
 </g>
 <defs>
  <clipPath id="p697f665c78">
   <rect x="48.982813" y="22.318125" width="728.26" height="104.005"/>
  </clipPath>
  <clipPath id="pa42686df79">
   <rect x="48.982813" y="156.703125" width="728.26" height="104.005"/>
  </clipPath>
  <clipPath id="pa51ab768ca">
   <rect x="48.982813" y="291.088125" width="728.26" height="104.005"/>
  </clipPath>
  <clipPath id="p52c7dece02">
   <rect x="48.982813" y="425.473125" width="728.26" height="104.005"/>
  </clipPath>
 </defs>
</svg>
