<?xml version="1.0" encoding="utf-8" standalone="no"?>
<!DOCTYPE svg PUBLIC "-//W3C//DTD SVG 1.1//EN"
  "http://www.w3.org/Graphics/SVG/1.1/DTD/svg11.dtd">
<svg xmlns:xlink="http://www.w3.org/1999/xlink" width="513.310937pt" height="423.034375pt" viewBox="0 0 513.310937 423.034375" xmlns="http://www.w3.org/2000/svg" version="1.1">
 <metadata>
  <rdf:RDF xmlns:dc="http://purl.org/dc/elements/1.1/" xmlns:cc="http://creativecommons.org/ns#" xmlns:rdf="http://www.w3.org/1999/02/22-rdf-syntax-ns#">
   <cc:Work>
    <dc:type rdf:resource="http://purl.org/dc/dcmitype/StillImage"/>
    <dc:date>2026-05-26T14:33:03.111086</dc:date>
    <dc:format>image/svg+xml</dc:format>
    <dc:creator>
     <cc:Agent>
      <dc:title>Matplotlib v3.10.8, https://matplotlib.org/</dc:title>
     </cc:Agent>
    </dc:creator>
   </cc:Work>
  </rdf:RDF>
 </metadata>
 <defs>
  <style type="text/css">*{stroke-linejoin: round; stroke-linecap: butt}</style>
 </defs>
 <g id="figure_1">
  <g id="patch_1">
   <path d="M 0 423.034375 
L 513.310937 423.034375 
L 513.310937 0 
L 0 0 
z
" style="fill: #ffffff"/>
  </g>
  <g id="axes_1">
   <g id="patch_2">
    <path d="M 52.160938 385.478125 
L 506.110937 385.478125 
L 506.110937 22.318125 
L 52.160938 22.318125 
z
" style="fill: #ffffff"/>
   </g>
   <g id="PathCollection_1">
    <defs>
     <path id="m28bc3431b3" d="M 0 5.477226 
C 1.452577 5.477226 2.845856 4.900111 3.872983 3.872983 
C 4.900111 2.845856 5.477226 1.452577 5.477226 0 
C 5.477226 -1.452577 4.900111 -2.845856 3.872983 -3.872983 
C 2.845856 -4.900111 1.452577 -5.477226 0 -5.477226 
C -1.452577 -5.477226 -2.845856 -4.900111 -3.872983 -3.872983 
C -4.900111 -2.845856 -5.477226 -1.452577 -5.477226 0 
C -5.477226 1.452577 -4.900111 2.845856 -3.872983 3.872983 
C -2.845856 4.900111 -1.452577 5.477226 0 5.477226 
z
" style="stroke: #000000"/>
    </defs>
    <g clip-path="url(#p7e0beb9310)">
     <use xlink:href="#m28bc3431b3" x="283.286864" y="208.259507" style="fill: #e15759; stroke: #000000"/>
     <use xlink:href="#m28bc3431b3" x="300.2792" y="200.434895" style="fill: #e15759; stroke: #000000"/>
     <use xlink:href="#m28bc3431b3" x="261.451057" y="191.960229" style="fill: #e15759; stroke: #000000"/>
     <use xlink:href="#m28bc3431b3" x="322.186906" y="172.630677" style="fill: #e15759; stroke: #000000"/>
     <use xlink:href="#m28bc3431b3" x="255.902439" y="245.67544" style="fill: #e15759; stroke: #000000"/>
     <use xlink:href="#m28bc3431b3" x="258.558814" y="202.533767" style="fill: #e15759; stroke: #000000"/>
     <use xlink:href="#m28bc3431b3" x="202.376103" y="211.121432" style="fill: #e15759; stroke: #000000"/>
     <use xlink:href="#m28bc3431b3" x="238.002754" y="228.073599" style="fill: #e15759; stroke: #000000"/>
     <use xlink:href="#m28bc3431b3" x="261.167475" y="214.340631" style="fill: #e15759; stroke: #000000"/>
     <use xlink:href="#m28bc3431b3" x="292.725733" y="169.48002" style="fill: #e15759; stroke: #000000"/>
     <use xlink:href="#m28bc3431b3" x="274.892424" y="158.784955" style="fill: #e15759; stroke: #000000"/>
     <use xlink:href="#m28bc3431b3" x="257.174838" y="192.29318" style="fill: #e15759; stroke: #000000"/>
     <use xlink:href="#m28bc3431b3" x="308.963595" y="200.794352" style="fill: #e15759; stroke: #000000"/>
     <use xlink:href="#m28bc3431b3" x="254.589648" y="234.328469" style="fill: #e15759; stroke: #000000"/>
     <use xlink:href="#m28bc3431b3" x="264.024327" y="196.628483" style="fill: #e15759; stroke: #000000"/>
     <use xlink:href="#m28bc3431b3" x="245.803852" y="210.803962" style="fill: #e15759; stroke: #000000"/>
     <use xlink:href="#m28bc3431b3" x="273.879196" y="186.042354" style="fill: #e15759; stroke: #000000"/>
     <use xlink:href="#m28bc3431b3" x="286.222811" y="192.165657" style="fill: #e15759; stroke: #000000"/>
     <use xlink:href="#m28bc3431b3" x="257.550083" y="208.17726" style="fill: #e15759; stroke: #000000"/>
     <use xlink:href="#m28bc3431b3" x="305.018531" y="154.593175" style="fill: #e15759; stroke: #000000"/>
     <use xlink:href="#m28bc3431b3" x="237.568461" y="153.91662" style="fill: #e15759; stroke: #000000"/>
     <use xlink:href="#m28bc3431b3" x="323.569403" y="178.103484" style="fill: #e15759; stroke: #000000"/>
     <use xlink:href="#m28bc3431b3" x="287.86682" y="214.262144" style="fill: #e15759; stroke: #000000"/>
     <use xlink:href="#m28bc3431b3" x="327.271828" y="139.181088" style="fill: #e15759; stroke: #000000"/>
     <use xlink:href="#m28bc3431b3" x="338.616094" y="160.480572" style="fill: #e15759; stroke: #000000"/>
     <use xlink:href="#m28bc3431b3" x="290.934689" y="243.790215" style="fill: #e15759; stroke: #000000"/>
     <use xlink:href="#m28bc3431b3" x="278.988886" y="182.224903" style="fill: #e15759; stroke: #000000"/>
     <use xlink:href="#m28bc3431b3" x="236.601269" y="190.85335" style="fill: #e15759; stroke: #000000"/>
     <use xlink:href="#m28bc3431b3" x="293.327692" y="180.918591" style="fill: #e15759; stroke: #000000"/>
     <use xlink:href="#m28bc3431b3" x="240.042821" y="225.743935" style="fill: #e15759; stroke: #000000"/>
    </g>
   </g>
   <g id="PathCollection_2"/>
   <g id="PathCollection_3">
    <defs>
     <path id="m233f585140" d="M -4.472136 4.472136 
L 4.472136 -4.472136 
M -4.472136 -4.472136 
L 4.472136 4.472136 
" style="stroke: #808080; stroke-width: 1.5"/>
    </defs>
    <g clip-path="url(#p7e0beb9310)">
     <use xlink:href="#m233f585140" x="485.476847" y="80.09358" style="fill: #808080; stroke: #808080; stroke-width: 1.5"/>
     <use xlink:href="#m233f585140" x="72.795028" y="38.825398" style="fill: #808080; stroke: #808080; stroke-width: 1.5"/>
     <use xlink:href="#m233f585140" x="444.208665" y="368.970852" style="fill: #808080; stroke: #808080; stroke-width: 1.5"/>
    </g>
   </g>
   <g id="patch_3">
    <path d="M 283.286864 257.781325 
C 296.420203 257.781325 309.017403 252.563394 318.304077 243.27672 
C 327.590751 233.990047 332.808682 221.392847 332.808682 208.259507 
C 332.808682 195.126167 327.590751 182.528967 318.304077 173.242294 
C 309.017403 163.95562 296.420203 158.737689 283.286864 158.737689 
C 270.153524 158.737689 257.556324 163.95562 248.26965 173.242294 
C 238.982977 182.528967 233.765045 195.126167 233.765045 208.259507 
C 233.765045 221.392847 238.982977 233.990047 248.26965 243.27672 
C 257.556324 252.563394 270.153524 257.781325 283.286864 257.781325 
L 283.286864 257.781325 
z
" clip-path="url(#p7e0beb9310)" style="fill: none; opacity: 0.15; stroke: #e15759; stroke-width: 0.8; stroke-linejoin: miter"/>
   </g>
   <g id="patch_4">
    <path d="M 300.2792 249.956713 
C 313.41254 249.956713 326.00974 244.738782 335.296414 235.452109 
C 344.583087 226.165435 349.801018 213.568235 349.801018 200.434895 
C 349.801018 187.301556 344.583087 174.704355 335.296414 165.417682 
C 326.00974 156.131008 313.41254 150.913077 300.2792 150.913077 
C 287.145861 150.913077 274.54866 156.131008 265.261987 165.417682 
C 255.975313 174.704355 250.757382 187.301556 250.757382 200.434895 
C 250.757382 213.568235 255.975313 226.165435 265.261987 235.452109 
C 274.54866 244.738782 287.145861 249.956713 300.2792 249.956713 
L 300.2792 249.956713 
z
" clip-path="url(#p7e0beb9310)" style="fill: none; opacity: 0.15; stroke: #e15759; stroke-width: 0.8; stroke-linejoin: miter"/>
   </g>
   <g id="patch_5">
    <path d="M 261.451057 241.482047 
C 274.584396 241.482047 287.181597 236.264116 296.46827 226.977442 
C 305.754944 217.690769 310.972875 205.093568 310.972875 191.960229 
C 310.972875 178.826889 305.754944 166.229689 296.46827 156.943015 
C 287.181597 147.656342 274.584396 142.43841 261.451057 142.43841 
C 248.317717 142.43841 235.720517 147.656342 226.433843 156.943015 
C 217.14717 166.229689 211.929238 178.826889 211.929238 191.960229 
C 211.929238 205.093568 217.14717 217.690769 226.433843 226.977442 
C 235.720517 236.264116 248.317717 241.482047 261.451057 241.482047 
L 261.451057 241.482047 
z
" clip-path="url(#p7e0beb9310)" style="fill: none; opacity: 0.15; stroke: #e15759; stroke-width: 0.8; stroke-linejoin: miter"/>
   </g>
   <g id="patch_6">
    <path d="M 322.186906 222.152496 
C 335.320246 222.152496 347.917446 216.934565 357.20412 207.647891 
C 366.490793 198.361217 371.708724 185.764017 371.708724 172.630677 
C 371.708724 159.497338 366.490793 146.900138 357.20412 137.613464 
C 347.917446 128.32679 335.320246 123.108859 322.186906 123.108859 
C 309.053567 123.108859 296.456366 128.32679 287.169693 137.613464 
C 277.883019 146.900138 272.665088 159.497338 272.665088 172.630677 
C 272.665088 185.764017 277.883019 198.361217 287.169693 207.647891 
C 296.456366 216.934565 309.053567 222.152496 322.186906 222.152496 
L 322.186906 222.152496 
z
" clip-path="url(#p7e0beb9310)" style="fill: none; opacity: 0.15; stroke: #e15759; stroke-width: 0.8; stroke-linejoin: miter"/>
   </g>
   <g id="patch_7">
    <path d="M 255.902439 295.197258 
C 269.035778 295.197258 281.632978 289.979327 290.919652 280.692653 
C 300.206326 271.40598 305.424257 258.808779 305.424257 245.67544 
C 305.424257 232.5421 300.206326 219.9449 290.919652 210.658226 
C 281.632978 201.371553 269.035778 196.153621 255.902439 196.153621 
C 242.769099 196.153621 230.171899 201.371553 220.885225 210.658226 
C 211.598552 219.9449 206.38062 232.5421 206.38062 245.67544 
C 206.38062 258.808779 211.598552 271.40598 220.885225 280.692653 
C 230.171899 289.979327 242.769099 295.197258 255.902439 295.197258 
L 255.902439 295.197258 
z
" clip-path="url(#p7e0beb9310)" style="fill: none; opacity: 0.15; stroke: #e15759; stroke-width: 0.8; stroke-linejoin: miter"/>
   </g>
   <g id="patch_8">
    <path d="M 258.558814 252.055585 
C 271.692154 252.055585 284.289354 246.837654 293.576028 237.55098 
C 302.862701 228.264306 308.080633 215.667106 308.080633 202.533767 
C 308.080633 189.400427 302.862701 176.803227 293.576028 167.516553 
C 284.289354 158.22988 271.692154 153.011948 258.558814 153.011948 
C 245.425475 153.011948 232.828275 158.22988 223.541601 167.516553 
C 214.254927 176.803227 209.036996 189.400427 209.036996 202.533767 
C 209.036996 215.667106 214.254927 228.264306 223.541601 237.55098 
C 232.828275 246.837654 245.425475 252.055585 258.558814 252.055585 
L 258.558814 252.055585 
z
" clip-path="url(#p7e0beb9310)" style="fill: none; opacity: 0.15; stroke: #e15759; stroke-width: 0.8; stroke-linejoin: miter"/>
   </g>
   <g id="patch_9">
    <path d="M 202.376103 260.643251 
C 215.509443 260.643251 228.106643 255.425319 237.393317 246.138646 
C 246.67999 236.851972 251.897921 224.254772 251.897921 211.121432 
C 251.897921 197.988093 246.67999 185.390892 237.393317 176.104219 
C 228.106643 166.817545 215.509443 161.599614 202.376103 161.599614 
C 189.242764 161.599614 176.645563 166.817545 167.35889 176.104219 
C 158.072216 185.390892 152.854285 197.988093 152.854285 211.121432 
C 152.854285 224.254772 158.072216 236.851972 167.35889 246.138646 
C 176.645563 255.425319 189.242764 260.643251 202.376103 260.643251 
L 202.376103 260.643251 
z
" clip-path="url(#p7e0beb9310)" style="fill: none; opacity: 0.15; stroke: #e15759; stroke-width: 0.8; stroke-linejoin: miter"/>
   </g>
   <g id="patch_10">
    <path d="M 238.002754 277.595417 
C 251.136094 277.595417 263.733294 272.377486 273.019967 263.090812 
C 282.306641 253.804139 287.524572 241.206939 287.524572 228.073599 
C 287.524572 214.940259 282.306641 202.343059 273.019967 193.056385 
C 263.733294 183.769712 251.136094 178.551781 238.002754 178.551781 
C 224.869414 178.551781 212.272214 183.769712 202.98554 193.056385 
C 193.698867 202.343059 188.480936 214.940259 188.480936 228.073599 
C 188.480936 241.206939 193.698867 253.804139 202.98554 263.090812 
C 212.272214 272.377486 224.869414 277.595417 238.002754 277.595417 
L 238.002754 277.595417 
z
" clip-path="url(#p7e0beb9310)" style="fill: none; opacity: 0.15; stroke: #e15759; stroke-width: 0.8; stroke-linejoin: miter"/>
   </g>
   <g id="patch_11">
    <path d="M 261.167475 263.862449 
C 274.300814 263.862449 286.898014 258.644518 296.184688 249.357844 
C 305.471362 240.071171 310.689293 227.473971 310.689293 214.340631 
C 310.689293 201.207291 305.471362 188.610091 296.184688 179.323417 
C 286.898014 170.036744 274.300814 164.818813 261.167475 164.818813 
C 248.034135 164.818813 235.436935 170.036744 226.150261 179.323417 
C 216.863588 188.610091 211.645656 201.207291 211.645656 214.340631 
C 211.645656 227.473971 216.863588 240.071171 226.150261 249.357844 
C 235.436935 258.644518 248.034135 263.862449 261.167475 263.862449 
L 261.167475 263.862449 
z
" clip-path="url(#p7e0beb9310)" style="fill: none; opacity: 0.15; stroke: #e15759; stroke-width: 0.8; stroke-linejoin: miter"/>
   </g>
   <g id="patch_12">
    <path d="M 292.725733 219.001838 
C 305.859072 219.001838 318.456272 213.783907 327.742946 204.497233 
C 337.02962 195.21056 342.247551 182.61336 342.247551 169.48002 
C 342.247551 156.34668 337.02962 143.74948 327.742946 134.462807 
C 318.456272 125.176133 305.859072 119.958202 292.725733 119.958202 
C 279.592393 119.958202 266.995193 125.176133 257.708519 134.462807 
C 248.421846 143.74948 243.203914 156.34668 243.203914 169.48002 
C 243.203914 182.61336 248.421846 195.21056 257.708519 204.497233 
C 266.995193 213.783907 279.592393 219.001838 292.725733 219.001838 
L 292.725733 219.001838 
z
" clip-path="url(#p7e0beb9310)" style="fill: none; opacity: 0.15; stroke: #e15759; stroke-width: 0.8; stroke-linejoin: miter"/>
   </g>
   <g id="patch_13">
    <path d="M 274.892424 208.306773 
C 288.025764 208.306773 300.622964 203.088842 309.909637 193.802168 
C 319.196311 184.515495 324.414242 171.918294 324.414242 158.784955 
C 324.414242 145.651615 319.196311 133.054415 309.909637 123.767741 
C 300.622964 114.481068 288.025764 109.263136 274.892424 109.263136 
C 261.759084 109.263136 249.161884 114.481068 239.875211 123.767741 
C 230.588537 133.054415 225.370606 145.651615 225.370606 158.784955 
C 225.370606 171.918294 230.588537 184.515495 239.875211 193.802168 
C 249.161884 203.088842 261.759084 208.306773 274.892424 208.306773 
L 274.892424 208.306773 
z
" clip-path="url(#p7e0beb9310)" style="fill: none; opacity: 0.15; stroke: #e15759; stroke-width: 0.8; stroke-linejoin: miter"/>
   </g>
   <g id="patch_14">
    <path d="M 257.174838 241.814998 
C 270.308177 241.814998 282.905378 236.597067 292.192051 227.310393 
C 301.478725 218.02372 306.696656 205.42652 306.696656 192.29318 
C 306.696656 179.15984 301.478725 166.56264 292.192051 157.275966 
C 282.905378 147.989293 270.308177 142.771362 257.174838 142.771362 
C 244.041498 142.771362 231.444298 147.989293 222.157624 157.275966 
C 212.870951 166.56264 207.65302 179.15984 207.65302 192.29318 
C 207.65302 205.42652 212.870951 218.02372 222.157624 227.310393 
C 231.444298 236.597067 244.041498 241.814998 257.174838 241.814998 
L 257.174838 241.814998 
z
" clip-path="url(#p7e0beb9310)" style="fill: none; opacity: 0.15; stroke: #e15759; stroke-width: 0.8; stroke-linejoin: miter"/>
   </g>
   <g id="patch_15">
    <path d="M 308.963595 250.31617 
C 322.096935 250.31617 334.694135 245.098239 343.980808 235.811565 
C 353.267482 226.524892 358.485413 213.927691 358.485413 200.794352 
C 358.485413 187.661012 353.267482 175.063812 343.980808 165.777138 
C 334.694135 156.490465 322.096935 151.272534 308.963595 151.272534 
C 295.830255 151.272534 283.233055 156.490465 273.946381 165.777138 
C 264.659708 175.063812 259.441777 187.661012 259.441777 200.794352 
C 259.441777 213.927691 264.659708 226.524892 273.946381 235.811565 
C 283.233055 245.098239 295.830255 250.31617 308.963595 250.31617 
L 308.963595 250.31617 
z
" clip-path="url(#p7e0beb9310)" style="fill: none; opacity: 0.15; stroke: #e15759; stroke-width: 0.8; stroke-linejoin: miter"/>
   </g>
   <g id="patch_16">
    <path d="M 254.589648 283.850288 
C 267.722987 283.850288 280.320188 278.632356 289.606861 269.345683 
C 298.893535 260.059009 304.111466 247.461809 304.111466 234.328469 
C 304.111466 221.19513 298.893535 208.597929 289.606861 199.311256 
C 280.320188 190.024582 267.722987 184.806651 254.589648 184.806651 
C 241.456308 184.806651 228.859108 190.024582 219.572434 199.311256 
C 210.285761 208.597929 205.06783 221.19513 205.06783 234.328469 
C 205.06783 247.461809 210.285761 260.059009 219.572434 269.345683 
C 228.859108 278.632356 241.456308 283.850288 254.589648 283.850288 
L 254.589648 283.850288 
z
" clip-path="url(#p7e0beb9310)" style="fill: none; opacity: 0.15; stroke: #e15759; stroke-width: 0.8; stroke-linejoin: miter"/>
   </g>
   <g id="patch_17">
    <path d="M 264.024327 246.150301 
C 277.157667 246.150301 289.754867 240.93237 299.041541 231.645697 
C 308.328214 222.359023 313.546146 209.761823 313.546146 196.628483 
C 313.546146 183.495143 308.328214 170.897943 299.041541 161.61127 
C 289.754867 152.324596 277.157667 147.106665 264.024327 147.106665 
C 250.890988 147.106665 238.293788 152.324596 229.007114 161.61127 
C 219.72044 170.897943 214.502509 183.495143 214.502509 196.628483 
C 214.502509 209.761823 219.72044 222.359023 229.007114 231.645697 
C 238.293788 240.93237 250.890988 246.150301 264.024327 246.150301 
L 264.024327 246.150301 
z
" clip-path="url(#p7e0beb9310)" style="fill: none; opacity: 0.15; stroke: #e15759; stroke-width: 0.8; stroke-linejoin: miter"/>
   </g>
   <g id="patch_18">
    <path d="M 245.803852 260.32578 
C 258.937192 260.32578 271.534392 255.107849 280.821066 245.821175 
C 290.107739 236.534501 295.32567 223.937301 295.32567 210.803962 
C 295.32567 197.670622 290.107739 185.073422 280.821066 175.786748 
C 271.534392 166.500075 258.937192 161.282143 245.803852 161.282143 
C 232.670512 161.282143 220.073312 166.500075 210.786639 175.786748 
C 201.499965 185.073422 196.282034 197.670622 196.282034 210.803962 
C 196.282034 223.937301 201.499965 236.534501 210.786639 245.821175 
C 220.073312 255.107849 232.670512 260.32578 245.803852 260.32578 
L 245.803852 260.32578 
z
" clip-path="url(#p7e0beb9310)" style="fill: none; opacity: 0.15; stroke: #e15759; stroke-width: 0.8; stroke-linejoin: miter"/>
   </g>
   <g id="patch_19">
    <path d="M 273.879196 235.564172 
C 287.012536 235.564172 299.609736 230.346241 308.89641 221.059567 
C 318.183083 211.772894 323.401014 199.175694 323.401014 186.042354 
C 323.401014 172.909014 318.183083 160.311814 308.89641 151.02514 
C 299.609736 141.738467 287.012536 136.520536 273.879196 136.520536 
C 260.745856 136.520536 248.148656 141.738467 238.861983 151.02514 
C 229.575309 160.311814 224.357378 172.909014 224.357378 186.042354 
C 224.357378 199.175694 229.575309 211.772894 238.861983 221.059567 
C 248.148656 230.346241 260.745856 235.564172 273.879196 235.564172 
L 273.879196 235.564172 
z
" clip-path="url(#p7e0beb9310)" style="fill: none; opacity: 0.15; stroke: #e15759; stroke-width: 0.8; stroke-linejoin: miter"/>
   </g>
   <g id="patch_20">
    <path d="M 286.222811 241.687475 
C 299.356151 241.687475 311.953351 236.469544 321.240024 227.18287 
C 330.526698 217.896196 335.744629 205.298996 335.744629 192.165657 
C 335.744629 179.032317 330.526698 166.435117 321.240024 157.148443 
C 311.953351 147.86177 299.356151 142.643838 286.222811 142.643838 
C 273.089471 142.643838 260.492271 147.86177 251.205597 157.148443 
C 241.918924 166.435117 236.700993 179.032317 236.700993 192.165657 
C 236.700993 205.298996 241.918924 217.896196 251.205597 227.18287 
C 260.492271 236.469544 273.089471 241.687475 286.222811 241.687475 
L 286.222811 241.687475 
z
" clip-path="url(#p7e0beb9310)" style="fill: none; opacity: 0.15; stroke: #e15759; stroke-width: 0.8; stroke-linejoin: miter"/>
   </g>
   <g id="patch_21">
    <path d="M 257.550083 257.699078 
C 270.683423 257.699078 283.280623 252.481147 292.567297 243.194474 
C 301.85397 233.9078 307.071901 221.3106 307.071901 208.17726 
C 307.071901 195.043921 301.85397 182.44672 292.567297 173.160047 
C 283.280623 163.873373 270.683423 158.655442 257.550083 158.655442 
C 244.416743 158.655442 231.819543 163.873373 222.53287 173.160047 
C 213.246196 182.44672 208.028265 195.043921 208.028265 208.17726 
C 208.028265 221.3106 213.246196 233.9078 222.53287 243.194474 
C 231.819543 252.481147 244.416743 257.699078 257.550083 257.699078 
L 257.550083 257.699078 
z
" clip-path="url(#p7e0beb9310)" style="fill: none; opacity: 0.15; stroke: #e15759; stroke-width: 0.8; stroke-linejoin: miter"/>
   </g>
   <g id="patch_22">
    <path d="M 305.018531 204.114993 
C 318.151871 204.114993 330.749071 198.897062 340.035745 189.610388 
C 349.322418 180.323714 354.540349 167.726514 354.540349 154.593175 
C 354.540349 141.459835 349.322418 128.862635 340.035745 119.575961 
C 330.749071 110.289288 318.151871 105.071356 305.018531 105.071356 
C 291.885192 105.071356 279.287991 110.289288 270.001318 119.575961 
C 260.714644 128.862635 255.496713 141.459835 255.496713 154.593175 
C 255.496713 167.726514 260.714644 180.323714 270.001318 189.610388 
C 279.287991 198.897062 291.885192 204.114993 305.018531 204.114993 
L 305.018531 204.114993 
z
" clip-path="url(#p7e0beb9310)" style="fill: none; opacity: 0.15; stroke: #e15759; stroke-width: 0.8; stroke-linejoin: miter"/>
   </g>
   <g id="patch_23">
    <path d="M 237.568461 203.438438 
C 250.701801 203.438438 263.299001 198.220507 272.585675 188.933833 
C 281.872348 179.64716 287.090279 167.049959 287.090279 153.91662 
C 287.090279 140.78328 281.872348 128.18608 272.585675 118.899406 
C 263.299001 109.612733 250.701801 104.394802 237.568461 104.394802 
C 224.435122 104.394802 211.837921 109.612733 202.551248 118.899406 
C 193.264574 128.18608 188.046643 140.78328 188.046643 153.91662 
C 188.046643 167.049959 193.264574 179.64716 202.551248 188.933833 
C 211.837921 198.220507 224.435122 203.438438 237.568461 203.438438 
L 237.568461 203.438438 
z
" clip-path="url(#p7e0beb9310)" style="fill: none; opacity: 0.15; stroke: #e15759; stroke-width: 0.8; stroke-linejoin: miter"/>
   </g>
   <g id="patch_24">
    <path d="M 323.569403 227.625302 
C 336.702743 227.625302 349.299943 222.407371 358.586616 213.120698 
C 367.87329 203.834024 373.091221 191.236824 373.091221 178.103484 
C 373.091221 164.970145 367.87329 152.372944 358.586616 143.086271 
C 349.299943 133.799597 336.702743 128.581666 323.569403 128.581666 
C 310.436063 128.581666 297.838863 133.799597 288.552189 143.086271 
C 279.265516 152.372944 274.047585 164.970145 274.047585 178.103484 
C 274.047585 191.236824 279.265516 203.834024 288.552189 213.120698 
C 297.838863 222.407371 310.436063 227.625302 323.569403 227.625302 
L 323.569403 227.625302 
z
" clip-path="url(#p7e0beb9310)" style="fill: none; opacity: 0.15; stroke: #e15759; stroke-width: 0.8; stroke-linejoin: miter"/>
   </g>
   <g id="patch_25">
    <path d="M 287.86682 263.783962 
C 301.00016 263.783962 313.59736 258.566031 322.884033 249.279357 
C 332.170707 239.992684 337.388638 227.395484 337.388638 214.262144 
C 337.388638 201.128804 332.170707 188.531604 322.884033 179.244931 
C 313.59736 169.958257 301.00016 164.740326 287.86682 164.740326 
C 274.73348 164.740326 262.13628 169.958257 252.849606 179.244931 
C 243.562933 188.531604 238.345002 201.128804 238.345002 214.262144 
C 238.345002 227.395484 243.562933 239.992684 252.849606 249.279357 
C 262.13628 258.566031 274.73348 263.783962 287.86682 263.783962 
L 287.86682 263.783962 
z
" clip-path="url(#p7e0beb9310)" style="fill: none; opacity: 0.15; stroke: #e15759; stroke-width: 0.8; stroke-linejoin: miter"/>
   </g>
   <g id="patch_26">
    <path d="M 327.271828 188.702906 
C 340.405167 188.702906 353.002368 183.484975 362.289041 174.198301 
C 371.575715 164.911628 376.793646 152.314427 376.793646 139.181088 
C 376.793646 126.047748 371.575715 113.450548 362.289041 104.163874 
C 353.002368 94.877201 340.405167 89.65927 327.271828 89.65927 
C 314.138488 89.65927 301.541288 94.877201 292.254614 104.163874 
C 282.967941 113.450548 277.750009 126.047748 277.750009 139.181088 
C 277.750009 152.314427 282.967941 164.911628 292.254614 174.198301 
C 301.541288 183.484975 314.138488 188.702906 327.271828 188.702906 
L 327.271828 188.702906 
z
" clip-path="url(#p7e0beb9310)" style="fill: none; opacity: 0.15; stroke: #e15759; stroke-width: 0.8; stroke-linejoin: miter"/>
   </g>
   <g id="patch_27">
    <path d="M 338.616094 210.00239 
C 351.749434 210.00239 364.346634 204.784459 373.633307 195.497785 
C 382.919981 186.211112 388.137912 173.613912 388.137912 160.480572 
C 388.137912 147.347232 382.919981 134.750032 373.633307 125.463359 
C 364.346634 116.176685 351.749434 110.958754 338.616094 110.958754 
C 325.482754 110.958754 312.885554 116.176685 303.59888 125.463359 
C 294.312207 134.750032 289.094276 147.347232 289.094276 160.480572 
C 289.094276 173.613912 294.312207 186.211112 303.59888 195.497785 
C 312.885554 204.784459 325.482754 210.00239 338.616094 210.00239 
L 338.616094 210.00239 
z
" clip-path="url(#p7e0beb9310)" style="fill: none; opacity: 0.15; stroke: #e15759; stroke-width: 0.8; stroke-linejoin: miter"/>
   </g>
   <g id="patch_28">
    <path d="M 290.934689 293.312034 
C 304.068029 293.312034 316.665229 288.094102 325.951903 278.807429 
C 335.238576 269.520755 340.456507 256.923555 340.456507 243.790215 
C 340.456507 230.656876 335.238576 218.059676 325.951903 208.773002 
C 316.665229 199.486328 304.068029 194.268397 290.934689 194.268397 
C 277.80135 194.268397 265.204149 199.486328 255.917476 208.773002 
C 246.630802 218.059676 241.412871 230.656876 241.412871 243.790215 
C 241.412871 256.923555 246.630802 269.520755 255.917476 278.807429 
C 265.204149 288.094102 277.80135 293.312034 290.934689 293.312034 
L 290.934689 293.312034 
z
" clip-path="url(#p7e0beb9310)" style="fill: none; opacity: 0.15; stroke: #e15759; stroke-width: 0.8; stroke-linejoin: miter"/>
   </g>
   <g id="patch_29">
    <path d="M 278.988886 231.746722 
C 292.122226 231.746722 304.719426 226.52879 314.0061 217.242117 
C 323.292773 207.955443 328.510705 195.358243 328.510705 182.224903 
C 328.510705 169.091564 323.292773 156.494364 314.0061 147.20769 
C 304.719426 137.921016 292.122226 132.703085 278.988886 132.703085 
C 265.855547 132.703085 253.258346 137.921016 243.971673 147.20769 
C 234.684999 156.494364 229.467068 169.091564 229.467068 182.224903 
C 229.467068 195.358243 234.684999 207.955443 243.971673 217.242117 
C 253.258346 226.52879 265.855547 231.746722 278.988886 231.746722 
L 278.988886 231.746722 
z
" clip-path="url(#p7e0beb9310)" style="fill: none; opacity: 0.15; stroke: #e15759; stroke-width: 0.8; stroke-linejoin: miter"/>
   </g>
   <g id="patch_30">
    <path d="M 236.601269 240.375168 
C 249.734609 240.375168 262.331809 235.157237 271.618483 225.870563 
C 280.905156 216.58389 286.123088 203.986689 286.123088 190.85335 
C 286.123088 177.72001 280.905156 165.12281 271.618483 155.836136 
C 262.331809 146.549463 249.734609 141.331532 236.601269 141.331532 
C 223.46793 141.331532 210.87073 146.549463 201.584056 155.836136 
C 192.297382 165.12281 187.079451 177.72001 187.079451 190.85335 
C 187.079451 203.986689 192.297382 216.58389 201.584056 225.870563 
C 210.87073 235.157237 223.46793 240.375168 236.601269 240.375168 
L 236.601269 240.375168 
z
" clip-path="url(#p7e0beb9310)" style="fill: none; opacity: 0.15; stroke: #e15759; stroke-width: 0.8; stroke-linejoin: miter"/>
   </g>
   <g id="patch_31">
    <path d="M 293.327692 230.440409 
C 306.461032 230.440409 319.058232 225.222478 328.344905 215.935804 
C 337.631579 206.649131 342.84951 194.051931 342.84951 180.918591 
C 342.84951 167.785251 337.631579 155.188051 328.344905 145.901377 
C 319.058232 136.614704 306.461032 131.396773 293.327692 131.396773 
C 280.194352 131.396773 267.597152 136.614704 258.310479 145.901377 
C 249.023805 155.188051 243.805874 167.785251 243.805874 180.918591 
C 243.805874 194.051931 249.023805 206.649131 258.310479 215.935804 
C 267.597152 225.222478 280.194352 230.440409 293.327692 230.440409 
L 293.327692 230.440409 
z
" clip-path="url(#p7e0beb9310)" style="fill: none; opacity: 0.15; stroke: #e15759; stroke-width: 0.8; stroke-linejoin: miter"/>
   </g>
   <g id="patch_32">
    <path d="M 240.042821 275.265753 
C 253.176161 275.265753 265.773361 270.047822 275.060035 260.761148 
C 284.346708 251.474475 289.564639 238.877274 289.564639 225.743935 
C 289.564639 212.610595 284.346708 200.013395 275.060035 190.726721 
C 265.773361 181.440048 253.176161 176.222116 240.042821 176.222116 
C 226.909481 176.222116 214.312281 181.440048 205.025608 190.726721 
C 195.738934 200.013395 190.521003 212.610595 190.521003 225.743935 
C 190.521003 238.877274 195.738934 251.474475 205.025608 260.761148 
C 214.312281 270.047822 226.909481 275.265753 240.042821 275.265753 
L 240.042821 275.265753 
z
" clip-path="url(#p7e0beb9310)" style="fill: none; opacity: 0.15; stroke: #e15759; stroke-width: 0.8; stroke-linejoin: miter"/>
   </g>
   <g id="matplotlib.axis_1">
    <g id="xtick_1">
     <g id="line2d_1">
      <path d="M 114.06321 385.478125 
L 114.06321 22.318125 
" clip-path="url(#p7e0beb9310)" style="fill: none; stroke: #b0b0b0; stroke-opacity: 0.25; stroke-width: 0.8; stroke-linecap: square"/>
     </g>
     <g id="line2d_2">
      <defs>
       <path id="m78c7ee220f" d="M 0 0 
L 0 3.5 
" style="stroke: #000000; stroke-width: 0.8"/>
      </defs>
      <g>
       <use xlink:href="#m78c7ee220f" x="114.06321" y="385.478125" style="stroke: #000000; stroke-width: 0.8"/>
      </g>
     </g>
     <g id="text_1">
      <!-- −2 -->
      <g transform="translate(106.692116 400.076562) scale(0.1 -0.1)">
       <defs>
        <path id="DejaVuSans-2212" d="M 678 2272 
L 4684 2272 
L 4684 1741 
L 678 1741 
L 678 2272 
z
" transform="scale(0.015625)"/>
        <path id="DejaVuSans-32" d="M 1228 531 
L 3431 531 
L 3431 0 
L 469 0 
L 469 531 
Q 828 903 1448 1529 
Q 2069 2156 2228 2338 
Q 2531 2678 2651 2914 
Q 2772 3150 2772 3378 
Q 2772 3750 2511 3984 
Q 2250 4219 1831 4219 
Q 1534 4219 1204 4116 
Q 875 4013 500 3803 
L 500 4441 
Q 881 4594 1212 4672 
Q 1544 4750 1819 4750 
Q 2544 4750 2975 4387 
Q 3406 4025 3406 3419 
Q 3406 3131 3298 2873 
Q 3191 2616 2906 2266 
Q 2828 2175 2409 1742 
Q 1991 1309 1228 531 
z
" transform="scale(0.015625)"/>
       </defs>
       <use xlink:href="#DejaVuSans-2212"/>
       <use xlink:href="#DejaVuSans-32" transform="translate(83.789062 0)"/>
      </g>
     </g>
    </g>
    <g id="xtick_2">
     <g id="line2d_3">
      <path d="M 196.599574 385.478125 
L 196.599574 22.318125 
" clip-path="url(#p7e0beb9310)" style="fill: none; stroke: #b0b0b0; stroke-opacity: 0.25; stroke-width: 0.8; stroke-linecap: square"/>
     </g>
     <g id="line2d_4">
      <g>
       <use xlink:href="#m78c7ee220f" x="196.599574" y="385.478125" style="stroke: #000000; stroke-width: 0.8"/>
      </g>
     </g>
     <g id="text_2">
      <!-- −1 -->
      <g transform="translate(189.22848 400.076562) scale(0.1 -0.1)">
       <defs>
        <path id="DejaVuSans-31" d="M 794 531 
L 1825 531 
L 1825 4091 
L 703 3866 
L 703 4441 
L 1819 4666 
L 2450 4666 
L 2450 531 
L 3481 531 
L 3481 0 
L 794 0 
L 794 531 
z
" transform="scale(0.015625)"/>
       </defs>
       <use xlink:href="#DejaVuSans-2212"/>
       <use xlink:href="#DejaVuSans-31" transform="translate(83.789062 0)"/>
      </g>
     </g>
    </g>
    <g id="xtick_3">
     <g id="line2d_5">
      <path d="M 279.135937 385.478125 
L 279.135937 22.318125 
" clip-path="url(#p7e0beb9310)" style="fill: none; stroke: #b0b0b0; stroke-opacity: 0.25; stroke-width: 0.8; stroke-linecap: square"/>
     </g>
     <g id="line2d_6">
      <g>
       <use xlink:href="#m78c7ee220f" x="279.135937" y="385.478125" style="stroke: #000000; stroke-width: 0.8"/>
      </g>
     </g>
     <g id="text_3">
      <!-- 0 -->
      <g transform="translate(275.954687 400.076562) scale(0.1 -0.1)">
       <defs>
        <path id="DejaVuSans-30" d="M 2034 4250 
Q 1547 4250 1301 3770 
Q 1056 3291 1056 2328 
Q 1056 1369 1301 889 
Q 1547 409 2034 409 
Q 2525 409 2770 889 
Q 3016 1369 3016 2328 
Q 3016 3291 2770 3770 
Q 2525 4250 2034 4250 
z
M 2034 4750 
Q 2819 4750 3233 4129 
Q 3647 3509 3647 2328 
Q 3647 1150 3233 529 
Q 2819 -91 2034 -91 
Q 1250 -91 836 529 
Q 422 1150 422 2328 
Q 422 3509 836 4129 
Q 1250 4750 2034 4750 
z
" transform="scale(0.015625)"/>
       </defs>
       <use xlink:href="#DejaVuSans-30"/>
      </g>
     </g>
    </g>
    <g id="xtick_4">
     <g id="line2d_7">
      <path d="M 361.672301 385.478125 
L 361.672301 22.318125 
" clip-path="url(#p7e0beb9310)" style="fill: none; stroke: #b0b0b0; stroke-opacity: 0.25; stroke-width: 0.8; stroke-linecap: square"/>
     </g>
     <g id="line2d_8">
      <g>
       <use xlink:href="#m78c7ee220f" x="361.672301" y="385.478125" style="stroke: #000000; stroke-width: 0.8"/>
      </g>
     </g>
     <g id="text_4">
      <!-- 1 -->
      <g transform="translate(358.491051 400.076562) scale(0.1 -0.1)">
       <use xlink:href="#DejaVuSans-31"/>
      </g>
     </g>
    </g>
    <g id="xtick_5">
     <g id="line2d_9">
      <path d="M 444.208665 385.478125 
L 444.208665 22.318125 
" clip-path="url(#p7e0beb9310)" style="fill: none; stroke: #b0b0b0; stroke-opacity: 0.25; stroke-width: 0.8; stroke-linecap: square"/>
     </g>
     <g id="line2d_10">
      <g>
       <use xlink:href="#m78c7ee220f" x="444.208665" y="385.478125" style="stroke: #000000; stroke-width: 0.8"/>
      </g>
     </g>
     <g id="text_5">
      <!-- 2 -->
      <g transform="translate(441.027415 400.076562) scale(0.1 -0.1)">
       <use xlink:href="#DejaVuSans-32"/>
      </g>
     </g>
    </g>
    <g id="text_6">
     <!-- x1 -->
     <g transform="translate(272.995312 413.754687) scale(0.1 -0.1)">
      <defs>
       <path id="DejaVuSans-78" d="M 3513 3500 
L 2247 1797 
L 3578 0 
L 2900 0 
L 1881 1375 
L 863 0 
L 184 0 
L 1544 1831 
L 300 3500 
L 978 3500 
L 1906 2253 
L 2834 3500 
L 3513 3500 
z
" transform="scale(0.015625)"/>
      </defs>
      <use xlink:href="#DejaVuSans-78"/>
      <use xlink:href="#DejaVuSans-31" transform="translate(59.179688 0)"/>
     </g>
    </g>
   </g>
   <g id="matplotlib.axis_2">
    <g id="ytick_1">
     <g id="line2d_11">
      <path d="M 52.160938 368.970852 
L 506.110937 368.970852 
" clip-path="url(#p7e0beb9310)" style="fill: none; stroke: #b0b0b0; stroke-opacity: 0.25; stroke-width: 0.8; stroke-linecap: square"/>
     </g>
     <g id="line2d_12">
      <defs>
       <path id="m364d9149f7" d="M 0 0 
L -3.5 0 
" style="stroke: #000000; stroke-width: 0.8"/>
      </defs>
      <g>
       <use xlink:href="#m364d9149f7" x="52.160938" y="368.970852" style="stroke: #000000; stroke-width: 0.8"/>
      </g>
     </g>
     <g id="text_7">
      <!-- −2.0 -->
      <g transform="translate(20.878125 372.770071) scale(0.1 -0.1)">
       <defs>
        <path id="DejaVuSans-2e" d="M 684 794 
L 1344 794 
L 1344 0 
L 684 0 
L 684 794 
z
" transform="scale(0.015625)"/>
       </defs>
       <use xlink:href="#DejaVuSans-2212"/>
       <use xlink:href="#DejaVuSans-32" transform="translate(83.789062 0)"/>
       <use xlink:href="#DejaVuSans-2e" transform="translate(147.412109 0)"/>
       <use xlink:href="#DejaVuSans-30" transform="translate(179.199219 0)"/>
      </g>
     </g>
    </g>
    <g id="ytick_2">
     <g id="line2d_13">
      <path d="M 52.160938 327.70267 
L 506.110937 327.70267 
" clip-path="url(#p7e0beb9310)" style="fill: none; stroke: #b0b0b0; stroke-opacity: 0.25; stroke-width: 0.8; stroke-linecap: square"/>
     </g>
     <g id="line2d_14">
      <g>
       <use xlink:href="#m364d9149f7" x="52.160938" y="327.70267" style="stroke: #000000; stroke-width: 0.8"/>
      </g>
     </g>
     <g id="text_8">
      <!-- −1.5 -->
      <g transform="translate(20.878125 331.501889) scale(0.1 -0.1)">
       <defs>
        <path id="DejaVuSans-35" d="M 691 4666 
L 3169 4666 
L 3169 4134 
L 1269 4134 
L 1269 2991 
Q 1406 3038 1543 3061 
Q 1681 3084 1819 3084 
Q 2600 3084 3056 2656 
Q 3513 2228 3513 1497 
Q 3513 744 3044 326 
Q 2575 -91 1722 -91 
Q 1428 -91 1123 -41 
Q 819 9 494 109 
L 494 744 
Q 775 591 1075 516 
Q 1375 441 1709 441 
Q 2250 441 2565 725 
Q 2881 1009 2881 1497 
Q 2881 1984 2565 2268 
Q 2250 2553 1709 2553 
Q 1456 2553 1204 2497 
Q 953 2441 691 2322 
L 691 4666 
z
" transform="scale(0.015625)"/>
       </defs>
       <use xlink:href="#DejaVuSans-2212"/>
       <use xlink:href="#DejaVuSans-31" transform="translate(83.789062 0)"/>
       <use xlink:href="#DejaVuSans-2e" transform="translate(147.412109 0)"/>
       <use xlink:href="#DejaVuSans-35" transform="translate(179.199219 0)"/>
      </g>
     </g>
    </g>
    <g id="ytick_3">
     <g id="line2d_15">
      <path d="M 52.160938 286.434489 
L 506.110937 286.434489 
" clip-path="url(#p7e0beb9310)" style="fill: none; stroke: #b0b0b0; stroke-opacity: 0.25; stroke-width: 0.8; stroke-linecap: square"/>
     </g>
     <g id="line2d_16">
      <g>
       <use xlink:href="#m364d9149f7" x="52.160938" y="286.434489" style="stroke: #000000; stroke-width: 0.8"/>
      </g>
     </g>
     <g id="text_9">
      <!-- −1.0 -->
      <g transform="translate(20.878125 290.233707) scale(0.1 -0.1)">
       <use xlink:href="#DejaVuSans-2212"/>
       <use xlink:href="#DejaVuSans-31" transform="translate(83.789062 0)"/>
       <use xlink:href="#DejaVuSans-2e" transform="translate(147.412109 0)"/>
       <use xlink:href="#DejaVuSans-30" transform="translate(179.199219 0)"/>
      </g>
     </g>
    </g>
    <g id="ytick_4">
     <g id="line2d_17">
      <path d="M 52.160938 245.166307 
L 506.110937 245.166307 
" clip-path="url(#p7e0beb9310)" style="fill: none; stroke: #b0b0b0; stroke-opacity: 0.25; stroke-width: 0.8; stroke-linecap: square"/>
     </g>
     <g id="line2d_18">
      <g>
       <use xlink:href="#m364d9149f7" x="52.160938" y="245.166307" style="stroke: #000000; stroke-width: 0.8"/>
      </g>
     </g>
     <g id="text_10">
      <!-- −0.5 -->
      <g transform="translate(20.878125 248.965526) scale(0.1 -0.1)">
       <use xlink:href="#DejaVuSans-2212"/>
       <use xlink:href="#DejaVuSans-30" transform="translate(83.789062 0)"/>
       <use xlink:href="#DejaVuSans-2e" transform="translate(147.412109 0)"/>
       <use xlink:href="#DejaVuSans-35" transform="translate(179.199219 0)"/>
      </g>
     </g>
    </g>
    <g id="ytick_5">
     <g id="line2d_19">
      <path d="M 52.160938 203.898125 
L 506.110937 203.898125 
" clip-path="url(#p7e0beb9310)" style="fill: none; stroke: #b0b0b0; stroke-opacity: 0.25; stroke-width: 0.8; stroke-linecap: square"/>
     </g>
     <g id="line2d_20">
      <g>
       <use xlink:href="#m364d9149f7" x="52.160938" y="203.898125" style="stroke: #000000; stroke-width: 0.8"/>
      </g>
     </g>
     <g id="text_11">
      <!-- 0.0 -->
      <g transform="translate(29.257813 207.697344) scale(0.1 -0.1)">
       <use xlink:href="#DejaVuSans-30"/>
       <use xlink:href="#DejaVuSans-2e" transform="translate(63.623047 0)"/>
       <use xlink:href="#DejaVuSans-30" transform="translate(95.410156 0)"/>
      </g>
     </g>
    </g>
    <g id="ytick_6">
     <g id="line2d_21">
      <path d="M 52.160938 162.629943 
L 506.110937 162.629943 
" clip-path="url(#p7e0beb9310)" style="fill: none; stroke: #b0b0b0; stroke-opacity: 0.25; stroke-width: 0.8; stroke-linecap: square"/>
     </g>
     <g id="line2d_22">
      <g>
       <use xlink:href="#m364d9149f7" x="52.160938" y="162.629943" style="stroke: #000000; stroke-width: 0.8"/>
      </g>
     </g>
     <g id="text_12">
      <!-- 0.5 -->
      <g transform="translate(29.257813 166.429162) scale(0.1 -0.1)">
       <use xlink:href="#DejaVuSans-30"/>
       <use xlink:href="#DejaVuSans-2e" transform="translate(63.623047 0)"/>
       <use xlink:href="#DejaVuSans-35" transform="translate(95.410156 0)"/>
      </g>
     </g>
    </g>
    <g id="ytick_7">
     <g id="line2d_23">
      <path d="M 52.160938 121.361761 
L 506.110937 121.361761 
" clip-path="url(#p7e0beb9310)" style="fill: none; stroke: #b0b0b0; stroke-opacity: 0.25; stroke-width: 0.8; stroke-linecap: square"/>
     </g>
     <g id="line2d_24">
      <g>
       <use xlink:href="#m364d9149f7" x="52.160938" y="121.361761" style="stroke: #000000; stroke-width: 0.8"/>
      </g>
     </g>
     <g id="text_13">
      <!-- 1.0 -->
      <g transform="translate(29.257813 125.16098) scale(0.1 -0.1)">
       <use xlink:href="#DejaVuSans-31"/>
       <use xlink:href="#DejaVuSans-2e" transform="translate(63.623047 0)"/>
       <use xlink:href="#DejaVuSans-30" transform="translate(95.410156 0)"/>
      </g>
     </g>
    </g>
    <g id="ytick_8">
     <g id="line2d_25">
      <path d="M 52.160938 80.09358 
L 506.110937 80.09358 
" clip-path="url(#p7e0beb9310)" style="fill: none; stroke: #b0b0b0; stroke-opacity: 0.25; stroke-width: 0.8; stroke-linecap: square"/>
     </g>
     <g id="line2d_26">
      <g>
       <use xlink:href="#m364d9149f7" x="52.160938" y="80.09358" style="stroke: #000000; stroke-width: 0.8"/>
      </g>
     </g>
     <g id="text_14">
      <!-- 1.5 -->
      <g transform="translate(29.257813 83.892798) scale(0.1 -0.1)">
       <use xlink:href="#DejaVuSans-31"/>
       <use xlink:href="#DejaVuSans-2e" transform="translate(63.623047 0)"/>
       <use xlink:href="#DejaVuSans-35" transform="translate(95.410156 0)"/>
      </g>
     </g>
    </g>
    <g id="ytick_9">
     <g id="line2d_27">
      <path d="M 52.160938 38.825398 
L 506.110937 38.825398 
" clip-path="url(#p7e0beb9310)" style="fill: none; stroke: #b0b0b0; stroke-opacity: 0.25; stroke-width: 0.8; stroke-linecap: square"/>
     </g>
     <g id="line2d_28">
      <g>
       <use xlink:href="#m364d9149f7" x="52.160938" y="38.825398" style="stroke: #000000; stroke-width: 0.8"/>
      </g>
     </g>
     <g id="text_15">
      <!-- 2.0 -->
      <g transform="translate(29.257813 42.624616) scale(0.1 -0.1)">
       <use xlink:href="#DejaVuSans-32"/>
       <use xlink:href="#DejaVuSans-2e" transform="translate(63.623047 0)"/>
       <use xlink:href="#DejaVuSans-30" transform="translate(95.410156 0)"/>
      </g>
     </g>
    </g>
    <g id="text_16">
     <!-- x2 -->
     <g transform="translate(14.798438 210.03875) rotate(-90) scale(0.1 -0.1)">
      <use xlink:href="#DejaVuSans-78"/>
      <use xlink:href="#DejaVuSans-32" transform="translate(59.179688 0)"/>
     </g>
    </g>
   </g>
   <g id="patch_33">
    <path d="M 52.160938 385.478125 
L 52.160938 22.318125 
" style="fill: none; stroke: #000000; stroke-width: 0.8; stroke-linejoin: miter; stroke-linecap: square"/>
   </g>
   <g id="patch_34">
    <path d="M 506.110937 385.478125 
L 506.110937 22.318125 
" style="fill: none; stroke: #000000; stroke-width: 0.8; stroke-linejoin: miter; stroke-linecap: square"/>
   </g>
   <g id="patch_35">
    <path d="M 52.160937 385.478125 
L 506.110937 385.478125 
" style="fill: none; stroke: #000000; stroke-width: 0.8; stroke-linejoin: miter; stroke-linecap: square"/>
   </g>
   <g id="patch_36">
    <path d="M 52.160937 22.318125 
L 506.110937 22.318125 
" style="fill: none; stroke: #000000; stroke-width: 0.8; stroke-linejoin: miter; stroke-linecap: square"/>
   </g>
   <g id="text_17">
    <!-- DBSCAN core/border/noise (eps=0.6, min_samples=5) -->
    <g transform="translate(115.50375 16.318125) scale(0.12 -0.12)">
     <defs>
      <path id="DejaVuSans-44" d="M 1259 4147 
L 1259 519 
L 2022 519 
Q 2988 519 3436 956 
Q 3884 1394 3884 2338 
Q 3884 3275 3436 3711 
Q 2988 4147 2022 4147 
L 1259 4147 
z
M 628 4666 
L 1925 4666 
Q 3281 4666 3915 4102 
Q 4550 3538 4550 2338 
Q 4550 1131 3912 565 
Q 3275 0 1925 0 
L 628 0 
L 628 4666 
z
" transform="scale(0.015625)"/>
      <path id="DejaVuSans-42" d="M 1259 2228 
L 1259 519 
L 2272 519 
Q 2781 519 3026 730 
Q 3272 941 3272 1375 
Q 3272 1813 3026 2020 
Q 2781 2228 2272 2228 
L 1259 2228 
z
M 1259 4147 
L 1259 2741 
L 2194 2741 
Q 2656 2741 2882 2914 
Q 3109 3088 3109 3444 
Q 3109 3797 2882 3972 
Q 2656 4147 2194 4147 
L 1259 4147 
z
M 628 4666 
L 2241 4666 
Q 2963 4666 3353 4366 
Q 3744 4066 3744 3513 
Q 3744 3084 3544 2831 
Q 3344 2578 2956 2516 
Q 3422 2416 3680 2098 
Q 3938 1781 3938 1306 
Q 3938 681 3513 340 
Q 3088 0 2303 0 
L 628 0 
L 628 4666 
z
" transform="scale(0.015625)"/>
      <path id="DejaVuSans-53" d="M 3425 4513 
L 3425 3897 
Q 3066 4069 2747 4153 
Q 2428 4238 2131 4238 
Q 1616 4238 1336 4038 
Q 1056 3838 1056 3469 
Q 1056 3159 1242 3001 
Q 1428 2844 1947 2747 
L 2328 2669 
Q 3034 2534 3370 2195 
Q 3706 1856 3706 1288 
Q 3706 609 3251 259 
Q 2797 -91 1919 -91 
Q 1588 -91 1214 -16 
Q 841 59 441 206 
L 441 856 
Q 825 641 1194 531 
Q 1563 422 1919 422 
Q 2459 422 2753 634 
Q 3047 847 3047 1241 
Q 3047 1584 2836 1778 
Q 2625 1972 2144 2069 
L 1759 2144 
Q 1053 2284 737 2584 
Q 422 2884 422 3419 
Q 422 4038 858 4394 
Q 1294 4750 2059 4750 
Q 2388 4750 2728 4690 
Q 3069 4631 3425 4513 
z
" transform="scale(0.015625)"/>
      <path id="DejaVuSans-43" d="M 4122 4306 
L 4122 3641 
Q 3803 3938 3442 4084 
Q 3081 4231 2675 4231 
Q 1875 4231 1450 3742 
Q 1025 3253 1025 2328 
Q 1025 1406 1450 917 
Q 1875 428 2675 428 
Q 3081 428 3442 575 
Q 3803 722 4122 1019 
L 4122 359 
Q 3791 134 3420 21 
Q 3050 -91 2638 -91 
Q 1578 -91 968 557 
Q 359 1206 359 2328 
Q 359 3453 968 4101 
Q 1578 4750 2638 4750 
Q 3056 4750 3426 4639 
Q 3797 4528 4122 4306 
z
" transform="scale(0.015625)"/>
      <path id="DejaVuSans-41" d="M 2188 4044 
L 1331 1722 
L 3047 1722 
L 2188 4044 
z
M 1831 4666 
L 2547 4666 
L 4325 0 
L 3669 0 
L 3244 1197 
L 1141 1197 
L 716 0 
L 50 0 
L 1831 4666 
z
" transform="scale(0.015625)"/>
      <path id="DejaVuSans-4e" d="M 628 4666 
L 1478 4666 
L 3547 763 
L 3547 4666 
L 4159 4666 
L 4159 0 
L 3309 0 
L 1241 3903 
L 1241 0 
L 628 0 
L 628 4666 
z
" transform="scale(0.015625)"/>
      <path id="DejaVuSans-20" transform="scale(0.015625)"/>
      <path id="DejaVuSans-63" d="M 3122 3366 
L 3122 2828 
Q 2878 2963 2633 3030 
Q 2388 3097 2138 3097 
Q 1578 3097 1268 2742 
Q 959 2388 959 1747 
Q 959 1106 1268 751 
Q 1578 397 2138 397 
Q 2388 397 2633 464 
Q 2878 531 3122 666 
L 3122 134 
Q 2881 22 2623 -34 
Q 2366 -91 2075 -91 
Q 1284 -91 818 406 
Q 353 903 353 1747 
Q 353 2603 823 3093 
Q 1294 3584 2113 3584 
Q 2378 3584 2631 3529 
Q 2884 3475 3122 3366 
z
" transform="scale(0.015625)"/>
      <path id="DejaVuSans-6f" d="M 1959 3097 
Q 1497 3097 1228 2736 
Q 959 2375 959 1747 
Q 959 1119 1226 758 
Q 1494 397 1959 397 
Q 2419 397 2687 759 
Q 2956 1122 2956 1747 
Q 2956 2369 2687 2733 
Q 2419 3097 1959 3097 
z
M 1959 3584 
Q 2709 3584 3137 3096 
Q 3566 2609 3566 1747 
Q 3566 888 3137 398 
Q 2709 -91 1959 -91 
Q 1206 -91 779 398 
Q 353 888 353 1747 
Q 353 2609 779 3096 
Q 1206 3584 1959 3584 
z
" transform="scale(0.015625)"/>
      <path id="DejaVuSans-72" d="M 2631 2963 
Q 2534 3019 2420 3045 
Q 2306 3072 2169 3072 
Q 1681 3072 1420 2755 
Q 1159 2438 1159 1844 
L 1159 0 
L 581 0 
L 581 3500 
L 1159 3500 
L 1159 2956 
Q 1341 3275 1631 3429 
Q 1922 3584 2338 3584 
Q 2397 3584 2469 3576 
Q 2541 3569 2628 3553 
L 2631 2963 
z
" transform="scale(0.015625)"/>
      <path id="DejaVuSans-65" d="M 3597 1894 
L 3597 1613 
L 953 1613 
Q 991 1019 1311 708 
Q 1631 397 2203 397 
Q 2534 397 2845 478 
Q 3156 559 3463 722 
L 3463 178 
Q 3153 47 2828 -22 
Q 2503 -91 2169 -91 
Q 1331 -91 842 396 
Q 353 884 353 1716 
Q 353 2575 817 3079 
Q 1281 3584 2069 3584 
Q 2775 3584 3186 3129 
Q 3597 2675 3597 1894 
z
M 3022 2063 
Q 3016 2534 2758 2815 
Q 2500 3097 2075 3097 
Q 1594 3097 1305 2825 
Q 1016 2553 972 2059 
L 3022 2063 
z
" transform="scale(0.015625)"/>
      <path id="DejaVuSans-2f" d="M 1625 4666 
L 2156 4666 
L 531 -594 
L 0 -594 
L 1625 4666 
z
" transform="scale(0.015625)"/>
      <path id="DejaVuSans-62" d="M 3116 1747 
Q 3116 2381 2855 2742 
Q 2594 3103 2138 3103 
Q 1681 3103 1420 2742 
Q 1159 2381 1159 1747 
Q 1159 1113 1420 752 
Q 1681 391 2138 391 
Q 2594 391 2855 752 
Q 3116 1113 3116 1747 
z
M 1159 2969 
Q 1341 3281 1617 3432 
Q 1894 3584 2278 3584 
Q 2916 3584 3314 3078 
Q 3713 2572 3713 1747 
Q 3713 922 3314 415 
Q 2916 -91 2278 -91 
Q 1894 -91 1617 61 
Q 1341 213 1159 525 
L 1159 0 
L 581 0 
L 581 4863 
L 1159 4863 
L 1159 2969 
z
" transform="scale(0.015625)"/>
      <path id="DejaVuSans-64" d="M 2906 2969 
L 2906 4863 
L 3481 4863 
L 3481 0 
L 2906 0 
L 2906 525 
Q 2725 213 2448 61 
Q 2172 -91 1784 -91 
Q 1150 -91 751 415 
Q 353 922 353 1747 
Q 353 2572 751 3078 
Q 1150 3584 1784 3584 
Q 2172 3584 2448 3432 
Q 2725 3281 2906 2969 
z
M 947 1747 
Q 947 1113 1208 752 
Q 1469 391 1925 391 
Q 2381 391 2643 752 
Q 2906 1113 2906 1747 
Q 2906 2381 2643 2742 
Q 2381 3103 1925 3103 
Q 1469 3103 1208 2742 
Q 947 2381 947 1747 
z
" transform="scale(0.015625)"/>
      <path id="DejaVuSans-6e" d="M 3513 2113 
L 3513 0 
L 2938 0 
L 2938 2094 
Q 2938 2591 2744 2837 
Q 2550 3084 2163 3084 
Q 1697 3084 1428 2787 
Q 1159 2491 1159 1978 
L 1159 0 
L 581 0 
L 581 3500 
L 1159 3500 
L 1159 2956 
Q 1366 3272 1645 3428 
Q 1925 3584 2291 3584 
Q 2894 3584 3203 3211 
Q 3513 2838 3513 2113 
z
" transform="scale(0.015625)"/>
      <path id="DejaVuSans-69" d="M 603 3500 
L 1178 3500 
L 1178 0 
L 603 0 
L 603 3500 
z
M 603 4863 
L 1178 4863 
L 1178 4134 
L 603 4134 
L 603 4863 
z
" transform="scale(0.015625)"/>
      <path id="DejaVuSans-73" d="M 2834 3397 
L 2834 2853 
Q 2591 2978 2328 3040 
Q 2066 3103 1784 3103 
Q 1356 3103 1142 2972 
Q 928 2841 928 2578 
Q 928 2378 1081 2264 
Q 1234 2150 1697 2047 
L 1894 2003 
Q 2506 1872 2764 1633 
Q 3022 1394 3022 966 
Q 3022 478 2636 193 
Q 2250 -91 1575 -91 
Q 1294 -91 989 -36 
Q 684 19 347 128 
L 347 722 
Q 666 556 975 473 
Q 1284 391 1588 391 
Q 1994 391 2212 530 
Q 2431 669 2431 922 
Q 2431 1156 2273 1281 
Q 2116 1406 1581 1522 
L 1381 1569 
Q 847 1681 609 1914 
Q 372 2147 372 2553 
Q 372 3047 722 3315 
Q 1072 3584 1716 3584 
Q 2034 3584 2315 3537 
Q 2597 3491 2834 3397 
z
" transform="scale(0.015625)"/>
      <path id="DejaVuSans-28" d="M 1984 4856 
Q 1566 4138 1362 3434 
Q 1159 2731 1159 2009 
Q 1159 1288 1364 580 
Q 1569 -128 1984 -844 
L 1484 -844 
Q 1016 -109 783 600 
Q 550 1309 550 2009 
Q 550 2706 781 3412 
Q 1013 4119 1484 4856 
L 1984 4856 
z
" transform="scale(0.015625)"/>
      <path id="DejaVuSans-70" d="M 1159 525 
L 1159 -1331 
L 581 -1331 
L 581 3500 
L 1159 3500 
L 1159 2969 
Q 1341 3281 1617 3432 
Q 1894 3584 2278 3584 
Q 2916 3584 3314 3078 
Q 3713 2572 3713 1747 
Q 3713 922 3314 415 
Q 2916 -91 2278 -91 
Q 1894 -91 1617 61 
Q 1341 213 1159 525 
z
M 3116 1747 
Q 3116 2381 2855 2742 
Q 2594 3103 2138 3103 
Q 1681 3103 1420 2742 
Q 1159 2381 1159 1747 
Q 1159 1113 1420 752 
Q 1681 391 2138 391 
Q 2594 391 2855 752 
Q 3116 1113 3116 1747 
z
" transform="scale(0.015625)"/>
      <path id="DejaVuSans-3d" d="M 678 2906 
L 4684 2906 
L 4684 2381 
L 678 2381 
L 678 2906 
z
M 678 1631 
L 4684 1631 
L 4684 1100 
L 678 1100 
L 678 1631 
z
" transform="scale(0.015625)"/>
      <path id="DejaVuSans-36" d="M 2113 2584 
Q 1688 2584 1439 2293 
Q 1191 2003 1191 1497 
Q 1191 994 1439 701 
Q 1688 409 2113 409 
Q 2538 409 2786 701 
Q 3034 994 3034 1497 
Q 3034 2003 2786 2293 
Q 2538 2584 2113 2584 
z
M 3366 4563 
L 3366 3988 
Q 3128 4100 2886 4159 
Q 2644 4219 2406 4219 
Q 1781 4219 1451 3797 
Q 1122 3375 1075 2522 
Q 1259 2794 1537 2939 
Q 1816 3084 2150 3084 
Q 2853 3084 3261 2657 
Q 3669 2231 3669 1497 
Q 3669 778 3244 343 
Q 2819 -91 2113 -91 
Q 1303 -91 875 529 
Q 447 1150 447 2328 
Q 447 3434 972 4092 
Q 1497 4750 2381 4750 
Q 2619 4750 2861 4703 
Q 3103 4656 3366 4563 
z
" transform="scale(0.015625)"/>
      <path id="DejaVuSans-2c" d="M 750 794 
L 1409 794 
L 1409 256 
L 897 -744 
L 494 -744 
L 750 256 
L 750 794 
z
" transform="scale(0.015625)"/>
      <path id="DejaVuSans-6d" d="M 3328 2828 
Q 3544 3216 3844 3400 
Q 4144 3584 4550 3584 
Q 5097 3584 5394 3201 
Q 5691 2819 5691 2113 
L 5691 0 
L 5113 0 
L 5113 2094 
Q 5113 2597 4934 2840 
Q 4756 3084 4391 3084 
Q 3944 3084 3684 2787 
Q 3425 2491 3425 1978 
L 3425 0 
L 2847 0 
L 2847 2094 
Q 2847 2600 2669 2842 
Q 2491 3084 2119 3084 
Q 1678 3084 1418 2786 
Q 1159 2488 1159 1978 
L 1159 0 
L 581 0 
L 581 3500 
L 1159 3500 
L 1159 2956 
Q 1356 3278 1631 3431 
Q 1906 3584 2284 3584 
Q 2666 3584 2933 3390 
Q 3200 3197 3328 2828 
z
" transform="scale(0.015625)"/>
      <path id="DejaVuSans-5f" d="M 3263 -1063 
L 3263 -1509 
L -63 -1509 
L -63 -1063 
L 3263 -1063 
z
" transform="scale(0.015625)"/>
      <path id="DejaVuSans-61" d="M 2194 1759 
Q 1497 1759 1228 1600 
Q 959 1441 959 1056 
Q 959 750 1161 570 
Q 1363 391 1709 391 
Q 2188 391 2477 730 
Q 2766 1069 2766 1631 
L 2766 1759 
L 2194 1759 
z
M 3341 1997 
L 3341 0 
L 2766 0 
L 2766 531 
Q 2569 213 2275 61 
Q 1981 -91 1556 -91 
Q 1019 -91 701 211 
Q 384 513 384 1019 
Q 384 1609 779 1909 
Q 1175 2209 1959 2209 
L 2766 2209 
L 2766 2266 
Q 2766 2663 2505 2880 
Q 2244 3097 1772 3097 
Q 1472 3097 1187 3025 
Q 903 2953 641 2809 
L 641 3341 
Q 956 3463 1253 3523 
Q 1550 3584 1831 3584 
Q 2591 3584 2966 3190 
Q 3341 2797 3341 1997 
z
" transform="scale(0.015625)"/>
      <path id="DejaVuSans-6c" d="M 603 4863 
L 1178 4863 
L 1178 0 
L 603 0 
L 603 4863 
z
" transform="scale(0.015625)"/>
      <path id="DejaVuSans-29" d="M 513 4856 
L 1013 4856 
Q 1481 4119 1714 3412 
Q 1947 2706 1947 2009 
Q 1947 1309 1714 600 
Q 1481 -109 1013 -844 
L 513 -844 
Q 928 -128 1133 580 
Q 1338 1288 1338 2009 
Q 1338 2731 1133 3434 
Q 928 4138 513 4856 
z
" transform="scale(0.015625)"/>
     </defs>
     <use xlink:href="#DejaVuSans-44"/>
     <use xlink:href="#DejaVuSans-42" transform="translate(77.001953 0)"/>
     <use xlink:href="#DejaVuSans-53" transform="translate(143.855469 0)"/>
     <use xlink:href="#DejaVuSans-43" transform="translate(207.332031 0)"/>
     <use xlink:href="#DejaVuSans-41" transform="translate(277.15625 0)"/>
     <use xlink:href="#DejaVuSans-4e" transform="translate(345.564453 0)"/>
     <use xlink:href="#DejaVuSans-20" transform="translate(420.369141 0)"/>
     <use xlink:href="#DejaVuSans-63" transform="translate(452.15625 0)"/>
     <use xlink:href="#DejaVuSans-6f" transform="translate(507.136719 0)"/>
     <use xlink:href="#DejaVuSans-72" transform="translate(568.318359 0)"/>
     <use xlink:href="#DejaVuSans-65" transform="translate(607.181641 0)"/>
     <use xlink:href="#DejaVuSans-2f" transform="translate(668.705078 0)"/>
     <use xlink:href="#DejaVuSans-62" transform="translate(702.396484 0)"/>
     <use xlink:href="#DejaVuSans-6f" transform="translate(765.873047 0)"/>
     <use xlink:href="#DejaVuSans-72" transform="translate(827.054688 0)"/>
     <use xlink:href="#DejaVuSans-64" transform="translate(866.417969 0)"/>
     <use xlink:href="#DejaVuSans-65" transform="translate(929.894531 0)"/>
     <use xlink:href="#DejaVuSans-72" transform="translate(991.417969 0)"/>
     <use xlink:href="#DejaVuSans-2f" transform="translate(1032.53125 0)"/>
     <use xlink:href="#DejaVuSans-6e" transform="translate(1066.222656 0)"/>
     <use xlink:href="#DejaVuSans-6f" transform="translate(1129.601562 0)"/>
     <use xlink:href="#DejaVuSans-69" transform="translate(1190.783203 0)"/>
     <use xlink:href="#DejaVuSans-73" transform="translate(1218.566406 0)"/>
     <use xlink:href="#DejaVuSans-65" transform="translate(1270.666016 0)"/>
     <use xlink:href="#DejaVuSans-20" transform="translate(1332.189453 0)"/>
     <use xlink:href="#DejaVuSans-28" transform="translate(1363.976562 0)"/>
     <use xlink:href="#DejaVuSans-65" transform="translate(1402.990234 0)"/>
     <use xlink:href="#DejaVuSans-70" transform="translate(1464.513672 0)"/>
     <use xlink:href="#DejaVuSans-73" transform="translate(1527.990234 0)"/>
     <use xlink:href="#DejaVuSans-3d" transform="translate(1580.089844 0)"/>
     <use xlink:href="#DejaVuSans-30" transform="translate(1663.878906 0)"/>
     <use xlink:href="#DejaVuSans-2e" transform="translate(1727.501953 0)"/>
     <use xlink:href="#DejaVuSans-36" transform="translate(1759.289062 0)"/>
     <use xlink:href="#DejaVuSans-2c" transform="translate(1822.912109 0)"/>
     <use xlink:href="#DejaVuSans-20" transform="translate(1854.699219 0)"/>
     <use xlink:href="#DejaVuSans-6d" transform="translate(1886.486328 0)"/>
     <use xlink:href="#DejaVuSans-69" transform="translate(1983.898438 0)"/>
     <use xlink:href="#DejaVuSans-6e" transform="translate(2011.681641 0)"/>
     <use xlink:href="#DejaVuSans-5f" transform="translate(2075.060547 0)"/>
     <use xlink:href="#DejaVuSans-73" transform="translate(2125.060547 0)"/>
     <use xlink:href="#DejaVuSans-61" transform="translate(2177.160156 0)"/>
     <use xlink:href="#DejaVuSans-6d" transform="translate(2238.439453 0)"/>
     <use xlink:href="#DejaVuSans-70" transform="translate(2335.851562 0)"/>
     <use xlink:href="#DejaVuSans-6c" transform="translate(2399.328125 0)"/>
     <use xlink:href="#DejaVuSans-65" transform="translate(2427.111328 0)"/>
     <use xlink:href="#DejaVuSans-73" transform="translate(2488.634766 0)"/>
     <use xlink:href="#DejaVuSans-3d" transform="translate(2540.734375 0)"/>
     <use xlink:href="#DejaVuSans-35" transform="translate(2624.523438 0)"/>
     <use xlink:href="#DejaVuSans-29" transform="translate(2688.146484 0)"/>
    </g>
   </g>
   <g id="legend_1">
    <g id="patch_37">
     <path d="M 416.751562 74.3525 
L 499.110937 74.3525 
Q 501.110937 74.3525 501.110937 72.3525 
L 501.110937 29.318125 
Q 501.110937 27.318125 499.110937 27.318125 
L 416.751562 27.318125 
Q 414.751562 27.318125 414.751562 29.318125 
L 414.751562 72.3525 
Q 414.751562 74.3525 416.751562 74.3525 
z
" style="fill: #ffffff; opacity: 0.8; stroke: #cccccc; stroke-linejoin: miter"/>
    </g>
    <g id="PathCollection_4">
     <g>
      <use xlink:href="#m28bc3431b3" x="428.751562" y="36.291562" style="fill: #e15759; stroke: #000000"/>
     </g>
    </g>
    <g id="text_18">
     <!-- core (30) -->
     <g transform="translate(446.751562 38.916562) scale(0.1 -0.1)">
      <defs>
       <path id="DejaVuSans-33" d="M 2597 2516 
Q 3050 2419 3304 2112 
Q 3559 1806 3559 1356 
Q 3559 666 3084 287 
Q 2609 -91 1734 -91 
Q 1441 -91 1130 -33 
Q 819 25 488 141 
L 488 750 
Q 750 597 1062 519 
Q 1375 441 1716 441 
Q 2309 441 2620 675 
Q 2931 909 2931 1356 
Q 2931 1769 2642 2001 
Q 2353 2234 1838 2234 
L 1294 2234 
L 1294 2753 
L 1863 2753 
Q 2328 2753 2575 2939 
Q 2822 3125 2822 3475 
Q 2822 3834 2567 4026 
Q 2313 4219 1838 4219 
Q 1578 4219 1281 4162 
Q 984 4106 628 3988 
L 628 4550 
Q 988 4650 1302 4700 
Q 1616 4750 1894 4750 
Q 2613 4750 3031 4423 
Q 3450 4097 3450 3541 
Q 3450 3153 3228 2886 
Q 3006 2619 2597 2516 
z
" transform="scale(0.015625)"/>
      </defs>
      <use xlink:href="#DejaVuSans-63"/>
      <use xlink:href="#DejaVuSans-6f" transform="translate(54.980469 0)"/>
      <use xlink:href="#DejaVuSans-72" transform="translate(116.162109 0)"/>
      <use xlink:href="#DejaVuSans-65" transform="translate(155.025391 0)"/>
      <use xlink:href="#DejaVuSans-20" transform="translate(216.548828 0)"/>
      <use xlink:href="#DejaVuSans-28" transform="translate(248.335938 0)"/>
      <use xlink:href="#DejaVuSans-33" transform="translate(287.349609 0)"/>
      <use xlink:href="#DejaVuSans-30" transform="translate(350.972656 0)"/>
      <use xlink:href="#DejaVuSans-29" transform="translate(414.595703 0)"/>
     </g>
    </g>
    <g id="PathCollection_5">
     <defs>
      <path id="m144b006d00" d="M 0 4.1833 
C 1.109424 4.1833 2.173559 3.742521 2.95804 2.95804 
C 3.742521 2.173559 4.1833 1.109424 4.1833 0 
C 4.1833 -1.109424 3.742521 -2.173559 2.95804 -2.95804 
C 2.173559 -3.742521 1.109424 -4.1833 0 -4.1833 
C -1.109424 -4.1833 -2.173559 -3.742521 -2.95804 -2.95804 
C -3.742521 -2.173559 -4.1833 -1.109424 -4.1833 0 
C -4.1833 1.109424 -3.742521 2.173559 -2.95804 2.95804 
C -2.173559 3.742521 -1.109424 4.1833 0 4.1833 
z
" style="stroke: #000000; stroke-width: 0.8"/>
     </defs>
     <g>
      <use xlink:href="#m144b006d00" x="428.751562" y="50.969687" style="fill: #f28e2b; stroke: #000000; stroke-width: 0.8"/>
     </g>
    </g>
    <g id="text_19">
     <!-- border (0) -->
     <g transform="translate(446.751562 53.594687) scale(0.1 -0.1)">
      <use xlink:href="#DejaVuSans-62"/>
      <use xlink:href="#DejaVuSans-6f" transform="translate(63.476562 0)"/>
      <use xlink:href="#DejaVuSans-72" transform="translate(124.658203 0)"/>
      <use xlink:href="#DejaVuSans-64" transform="translate(164.021484 0)"/>
      <use xlink:href="#DejaVuSans-65" transform="translate(227.498047 0)"/>
      <use xlink:href="#DejaVuSans-72" transform="translate(289.021484 0)"/>
      <use xlink:href="#DejaVuSans-20" transform="translate(330.134766 0)"/>
      <use xlink:href="#DejaVuSans-28" transform="translate(361.921875 0)"/>
      <use xlink:href="#DejaVuSans-30" transform="translate(400.935547 0)"/>
      <use xlink:href="#DejaVuSans-29" transform="translate(464.558594 0)"/>
     </g>
    </g>
    <g id="PathCollection_6">
     <g>
      <use xlink:href="#m233f585140" x="428.751562" y="65.647812" style="fill: #808080; stroke: #808080; stroke-width: 1.5"/>
     </g>
    </g>
    <g id="text_20">
     <!-- noise (3) -->
     <g transform="translate(446.751562 68.272812) scale(0.1 -0.1)">
      <use xlink:href="#DejaVuSans-6e"/>
      <use xlink:href="#DejaVuSans-6f" transform="translate(63.378906 0)"/>
      <use xlink:href="#DejaVuSans-69" transform="translate(124.560547 0)"/>
      <use xlink:href="#DejaVuSans-73" transform="translate(152.34375 0)"/>
      <use xlink:href="#DejaVuSans-65" transform="translate(204.443359 0)"/>
      <use xlink:href="#DejaVuSans-20" transform="translate(265.966797 0)"/>
      <use xlink:href="#DejaVuSans-28" transform="translate(297.753906 0)"/>
      <use xlink:href="#DejaVuSans-33" transform="translate(336.767578 0)"/>
      <use xlink:href="#DejaVuSans-29" transform="translate(400.390625 0)"/>
     </g>
    </g>
   </g>
  </g>
 </g>
 <defs>
  <clipPath id="p7e0beb9310">
   <rect x="52.160938" y="22.318125" width="453.95" height="363.16"/>
  </clipPath>
 </defs>
</svg>
