<?xml version="1.0" encoding="utf-8" standalone="no"?>
<!DOCTYPE svg PUBLIC "-//W3C//DTD SVG 1.1//EN"
  "http://www.w3.org/Graphics/SVG/1.1/DTD/svg11.dtd">
<svg xmlns:xlink="http://www.w3.org/1999/xlink" width="640.380312pt" height="222.074687pt" viewBox="0 0 640.380312 222.074687" xmlns="http://www.w3.org/2000/svg" version="1.1">
 <metadata>
  <rdf:RDF xmlns:dc="http://purl.org/dc/elements/1.1/" xmlns:cc="http://creativecommons.org/ns#" xmlns:rdf="http://www.w3.org/1999/02/22-rdf-syntax-ns#">
   <cc:Work>
    <dc:type rdf:resource="http://purl.org/dc/dcmitype/StillImage"/>
    <dc:date>2026-05-24T15:11:06.596887</dc:date>
    <dc:format>image/svg+xml</dc:format>
    <dc:creator>
     <cc:Agent>
      <dc:title>Matplotlib v3.10.8, https://matplotlib.org/</dc:title>
     </cc:Agent>
    </dc:creator>
   </cc:Work>
  </rdf:RDF>
 </metadata>
 <defs>
  <style type="text/css">*{stroke-linejoin: round; stroke-linecap: butt}</style>
 </defs>
 <g id="figure_1">
  <g id="patch_1">
   <path d="M 0 222.074687 
L 640.380312 222.074687 
L 640.380312 0 
L 0 0 
z
" style="fill: #ffffff"/>
  </g>
  <g id="axes_1">
   <g id="patch_2">
    <path d="M 42.620313 184.518437 
L 229.940312 184.518437 
L 229.940312 20.798437 
L 42.620313 20.798437 
z
" style="fill: #ffffff"/>
   </g>
   <g id="matplotlib.axis_1">
    <g id="xtick_1">
     <g id="line2d_1">
      <path d="M 77.742812 184.518437 
L 77.742812 20.798437 
" clip-path="url(#pb381dd14d6)" style="fill: none; stroke: #b0b0b0; stroke-opacity: 0.25; stroke-width: 0.8; stroke-linecap: square"/>
     </g>
     <g id="line2d_2">
      <defs>
       <path id="mc4e1c423e0" d="M 0 0 
L 0 3.5 
" style="stroke: #000000; stroke-width: 0.8"/>
      </defs>
      <g>
       <use xlink:href="#mc4e1c423e0" x="77.742812" y="184.518437" style="stroke: #000000; stroke-width: 0.8"/>
      </g>
     </g>
     <g id="text_1">
      <!-- −2 -->
      <g transform="translate(70.371719 199.116875) scale(0.1 -0.1)">
       <defs>
        <path id="DejaVuSans-2212" d="M 678 2272 
L 4684 2272 
L 4684 1741 
L 678 1741 
L 678 2272 
z
" transform="scale(0.015625)"/>
        <path id="DejaVuSans-32" d="M 1228 531 
L 3431 531 
L 3431 0 
L 469 0 
L 469 531 
Q 828 903 1448 1529 
Q 2069 2156 2228 2338 
Q 2531 2678 2651 2914 
Q 2772 3150 2772 3378 
Q 2772 3750 2511 3984 
Q 2250 4219 1831 4219 
Q 1534 4219 1204 4116 
Q 875 4013 500 3803 
L 500 4441 
Q 881 4594 1212 4672 
Q 1544 4750 1819 4750 
Q 2544 4750 2975 4387 
Q 3406 4025 3406 3419 
Q 3406 3131 3298 2873 
Q 3191 2616 2906 2266 
Q 2828 2175 2409 1742 
Q 1991 1309 1228 531 
z
" transform="scale(0.015625)"/>
       </defs>
       <use xlink:href="#DejaVuSans-2212"/>
       <use xlink:href="#DejaVuSans-32" transform="translate(83.789062 0)"/>
      </g>
     </g>
    </g>
    <g id="xtick_2">
     <g id="line2d_3">
      <path d="M 136.280312 184.518437 
L 136.280312 20.798437 
" clip-path="url(#pb381dd14d6)" style="fill: none; stroke: #b0b0b0; stroke-opacity: 0.25; stroke-width: 0.8; stroke-linecap: square"/>
     </g>
     <g id="line2d_4">
      <g>
       <use xlink:href="#mc4e1c423e0" x="136.280312" y="184.518437" style="stroke: #000000; stroke-width: 0.8"/>
      </g>
     </g>
     <g id="text_2">
      <!-- 0 -->
      <g transform="translate(133.099062 199.116875) scale(0.1 -0.1)">
       <defs>
        <path id="DejaVuSans-30" d="M 2034 4250 
Q 1547 4250 1301 3770 
Q 1056 3291 1056 2328 
Q 1056 1369 1301 889 
Q 1547 409 2034 409 
Q 2525 409 2770 889 
Q 3016 1369 3016 2328 
Q 3016 3291 2770 3770 
Q 2525 4250 2034 4250 
z
M 2034 4750 
Q 2819 4750 3233 4129 
Q 3647 3509 3647 2328 
Q 3647 1150 3233 529 
Q 2819 -91 2034 -91 
Q 1250 -91 836 529 
Q 422 1150 422 2328 
Q 422 3509 836 4129 
Q 1250 4750 2034 4750 
z
" transform="scale(0.015625)"/>
       </defs>
       <use xlink:href="#DejaVuSans-30"/>
      </g>
     </g>
    </g>
    <g id="xtick_3">
     <g id="line2d_5">
      <path d="M 194.817812 184.518437 
L 194.817812 20.798437 
" clip-path="url(#pb381dd14d6)" style="fill: none; stroke: #b0b0b0; stroke-opacity: 0.25; stroke-width: 0.8; stroke-linecap: square"/>
     </g>
     <g id="line2d_6">
      <g>
       <use xlink:href="#mc4e1c423e0" x="194.817812" y="184.518437" style="stroke: #000000; stroke-width: 0.8"/>
      </g>
     </g>
     <g id="text_3">
      <!-- 2 -->
      <g transform="translate(191.636562 199.116875) scale(0.1 -0.1)">
       <use xlink:href="#DejaVuSans-32"/>
      </g>
     </g>
    </g>
    <g id="text_4">
     <!-- x -->
     <g transform="translate(133.320937 212.795) scale(0.1 -0.1)">
      <defs>
       <path id="DejaVuSans-78" d="M 3513 3500 
L 2247 1797 
L 3578 0 
L 2900 0 
L 1881 1375 
L 863 0 
L 184 0 
L 1544 1831 
L 300 3500 
L 978 3500 
L 1906 2253 
L 2834 3500 
L 3513 3500 
z
" transform="scale(0.015625)"/>
      </defs>
      <use xlink:href="#DejaVuSans-78"/>
     </g>
    </g>
   </g>
   <g id="matplotlib.axis_2">
    <g id="ytick_1">
     <g id="line2d_7">
      <path d="M 42.620313 174.494764 
L 229.940312 174.494764 
" clip-path="url(#pb381dd14d6)" style="fill: none; stroke: #b0b0b0; stroke-opacity: 0.25; stroke-width: 0.8; stroke-linecap: square"/>
     </g>
     <g id="line2d_8">
      <defs>
       <path id="mf83dd71ea1" d="M 0 0 
L -3.5 0 
" style="stroke: #000000; stroke-width: 0.8"/>
      </defs>
      <g>
       <use xlink:href="#mf83dd71ea1" x="42.620313" y="174.494764" style="stroke: #000000; stroke-width: 0.8"/>
      </g>
     </g>
     <g id="text_5">
      <!-- −2 -->
      <g transform="translate(20.878125 178.293983) scale(0.1 -0.1)">
       <use xlink:href="#DejaVuSans-2212"/>
       <use xlink:href="#DejaVuSans-32" transform="translate(83.789062 0)"/>
      </g>
     </g>
    </g>
    <g id="ytick_2">
     <g id="line2d_9">
      <path d="M 42.620313 141.082519 
L 229.940312 141.082519 
" clip-path="url(#pb381dd14d6)" style="fill: none; stroke: #b0b0b0; stroke-opacity: 0.25; stroke-width: 0.8; stroke-linecap: square"/>
     </g>
     <g id="line2d_10">
      <g>
       <use xlink:href="#mf83dd71ea1" x="42.620313" y="141.082519" style="stroke: #000000; stroke-width: 0.8"/>
      </g>
     </g>
     <g id="text_6">
      <!-- −1 -->
      <g transform="translate(20.878125 144.881738) scale(0.1 -0.1)">
       <defs>
        <path id="DejaVuSans-31" d="M 794 531 
L 1825 531 
L 1825 4091 
L 703 3866 
L 703 4441 
L 1819 4666 
L 2450 4666 
L 2450 531 
L 3481 531 
L 3481 0 
L 794 0 
L 794 531 
z
" transform="scale(0.015625)"/>
       </defs>
       <use xlink:href="#DejaVuSans-2212"/>
       <use xlink:href="#DejaVuSans-31" transform="translate(83.789062 0)"/>
      </g>
     </g>
    </g>
    <g id="ytick_3">
     <g id="line2d_11">
      <path d="M 42.620313 107.670274 
L 229.940312 107.670274 
" clip-path="url(#pb381dd14d6)" style="fill: none; stroke: #b0b0b0; stroke-opacity: 0.25; stroke-width: 0.8; stroke-linecap: square"/>
     </g>
     <g id="line2d_12">
      <g>
       <use xlink:href="#mf83dd71ea1" x="42.620313" y="107.670274" style="stroke: #000000; stroke-width: 0.8"/>
      </g>
     </g>
     <g id="text_7">
      <!-- 0 -->
      <g transform="translate(29.257813 111.469493) scale(0.1 -0.1)">
       <use xlink:href="#DejaVuSans-30"/>
      </g>
     </g>
    </g>
    <g id="ytick_4">
     <g id="line2d_13">
      <path d="M 42.620313 74.258029 
L 229.940312 74.258029 
" clip-path="url(#pb381dd14d6)" style="fill: none; stroke: #b0b0b0; stroke-opacity: 0.25; stroke-width: 0.8; stroke-linecap: square"/>
     </g>
     <g id="line2d_14">
      <g>
       <use xlink:href="#mf83dd71ea1" x="42.620313" y="74.258029" style="stroke: #000000; stroke-width: 0.8"/>
      </g>
     </g>
     <g id="text_8">
      <!-- 1 -->
      <g transform="translate(29.257813 78.057248) scale(0.1 -0.1)">
       <use xlink:href="#DejaVuSans-31"/>
      </g>
     </g>
    </g>
    <g id="ytick_5">
     <g id="line2d_15">
      <path d="M 42.620313 40.845784 
L 229.940312 40.845784 
" clip-path="url(#pb381dd14d6)" style="fill: none; stroke: #b0b0b0; stroke-opacity: 0.25; stroke-width: 0.8; stroke-linecap: square"/>
     </g>
     <g id="line2d_16">
      <g>
       <use xlink:href="#mf83dd71ea1" x="42.620313" y="40.845784" style="stroke: #000000; stroke-width: 0.8"/>
      </g>
     </g>
     <g id="text_9">
      <!-- 2 -->
      <g transform="translate(29.257813 44.645003) scale(0.1 -0.1)">
       <use xlink:href="#DejaVuSans-32"/>
      </g>
     </g>
    </g>
    <g id="text_10">
     <!-- y -->
     <g transform="translate(14.798438 105.617812) rotate(-90) scale(0.1 -0.1)">
      <defs>
       <path id="DejaVuSans-79" d="M 2059 -325 
Q 1816 -950 1584 -1140 
Q 1353 -1331 966 -1331 
L 506 -1331 
L 506 -850 
L 844 -850 
Q 1081 -850 1212 -737 
Q 1344 -625 1503 -206 
L 1606 56 
L 191 3500 
L 800 3500 
L 1894 763 
L 2988 3500 
L 3597 3500 
L 2059 -325 
z
" transform="scale(0.015625)"/>
      </defs>
      <use xlink:href="#DejaVuSans-79"/>
     </g>
    </g>
   </g>
   <g id="line2d_17">
    <path d="M 42.620312 137.795618 
L 52.948734 145.906335 
L 57.64347 149.280743 
L 61.39926 151.714757 
L 64.685576 153.598298 
L 67.971891 155.212221 
L 70.788734 156.354737 
L 73.605576 157.254255 
L 76.422418 157.893521 
L 78.769786 158.216655 
L 81.117155 158.341459 
L 83.464523 158.261964 
L 85.811891 157.973512 
L 88.15926 157.47279 
L 90.506628 156.757848 
L 92.853997 155.828115 
L 95.201365 154.684399 
L 98.018207 153.032656 
L 100.835049 151.082354 
L 103.651891 148.842616 
L 106.468734 146.325243 
L 109.755049 143.056715 
L 113.041365 139.456944 
L 116.797155 134.977463 
L 120.552944 130.158672 
L 125.247681 123.746974 
L 130.881365 115.647621 
L 149.190839 88.983883 
L 153.885576 82.733578 
L 157.641365 78.077508 
L 161.397155 73.787758 
L 164.68347 70.373712 
L 167.969786 67.306866 
L 170.786628 64.973143 
L 173.60347 62.925215 
L 176.420312 61.173107 
L 179.237155 59.724108 
L 181.584523 58.75147 
L 183.931891 57.993572 
L 186.27926 57.450117 
L 188.626628 57.119433 
L 190.973997 56.998476 
L 193.321365 57.082857 
L 195.668734 57.366864 
L 198.016102 57.843504 
L 200.832944 58.658073 
L 203.649786 59.721649 
L 206.466628 61.01546 
L 209.752944 62.787903 
L 213.03926 64.808696 
L 216.795049 67.371324 
L 221.489786 70.861102 
L 228.531891 76.420569 
L 229.940312 77.54493 
L 229.940312 77.54493 
" clip-path="url(#pb381dd14d6)" style="fill: none; stroke-dasharray: 5.55,2.4; stroke-dashoffset: 0; stroke: #59a14f; stroke-width: 1.5"/>
   </g>
   <g id="line2d_18">
    <path d="M 42.620312 173.774581 
L 229.940312 34.308227 
L 229.940312 34.308227 
" clip-path="url(#pb381dd14d6)" style="fill: none; stroke: #e15759; stroke-width: 2; stroke-linecap: square"/>
   </g>
   <g id="patch_3">
    <path d="M 42.620313 184.518437 
L 42.620313 20.798437 
" style="fill: none; stroke: #000000; stroke-width: 0.8; stroke-linejoin: miter; stroke-linecap: square"/>
   </g>
   <g id="patch_4">
    <path d="M 229.940312 184.518437 
L 229.940312 20.798437 
" style="fill: none; stroke: #000000; stroke-width: 0.8; stroke-linejoin: miter; stroke-linecap: square"/>
   </g>
   <g id="patch_5">
    <path d="M 42.620312 184.518437 
L 229.940312 184.518437 
" style="fill: none; stroke: #000000; stroke-width: 0.8; stroke-linejoin: miter; stroke-linecap: square"/>
   </g>
   <g id="patch_6">
    <path d="M 42.620312 20.798437 
L 229.940312 20.798437 
" style="fill: none; stroke: #000000; stroke-width: 0.8; stroke-linejoin: miter; stroke-linecap: square"/>
   </g>
   <g id="PathCollection_1">
    <defs>
     <path id="m6e290f72df" d="M 0 2.645751 
C 0.701661 2.645751 1.374679 2.366978 1.870829 1.870829 
C 2.366978 1.374679 2.645751 0.701661 2.645751 0 
C 2.645751 -0.701661 2.366978 -1.374679 1.870829 -1.870829 
C 1.374679 -2.366978 0.701661 -2.645751 0 -2.645751 
C -0.701661 -2.645751 -1.374679 -2.366978 -1.870829 -1.870829 
C -2.366978 -1.374679 -2.645751 -0.701661 -2.645751 0 
C -2.645751 0.701661 -2.366978 1.374679 -1.870829 1.870829 
C -1.374679 2.366978 -0.701661 2.645751 0 2.645751 
z
" style="stroke: #ffffff; stroke-width: 0.5"/>
    </defs>
    <g clip-path="url(#pb381dd14d6)">
     <use xlink:href="#m6e290f72df" x="59.68117" y="154.16495" style="fill: #7aa6c2; stroke: #ffffff; stroke-width: 0.5"/>
     <use xlink:href="#m6e290f72df" x="65.012782" y="148.435978" style="fill: #7aa6c2; stroke: #ffffff; stroke-width: 0.5"/>
     <use xlink:href="#m6e290f72df" x="70.972418" y="152.757907" style="fill: #7aa6c2; stroke: #ffffff; stroke-width: 0.5"/>
     <use xlink:href="#m6e290f72df" x="88.380023" y="153.2776" style="fill: #7aa6c2; stroke: #ffffff; stroke-width: 0.5"/>
     <use xlink:href="#m6e290f72df" x="110.733254" y="137.700091" style="fill: #7aa6c2; stroke: #ffffff; stroke-width: 0.5"/>
     <use xlink:href="#m6e290f72df" x="113.590831" y="117.35771" style="fill: #7aa6c2; stroke: #ffffff; stroke-width: 0.5"/>
     <use xlink:href="#m6e290f72df" x="125.546603" y="127.400456" style="fill: #7aa6c2; stroke: #ffffff; stroke-width: 0.5"/>
     <use xlink:href="#m6e290f72df" x="126.343138" y="127.335281" style="fill: #7aa6c2; stroke: #ffffff; stroke-width: 0.5"/>
     <use xlink:href="#m6e290f72df" x="127.567463" y="128.61121" style="fill: #7aa6c2; stroke: #ffffff; stroke-width: 0.5"/>
     <use xlink:href="#m6e290f72df" x="145.866083" y="87.464833" style="fill: #7aa6c2; stroke: #ffffff; stroke-width: 0.5"/>
     <use xlink:href="#m6e290f72df" x="159.402227" y="64.701081" style="fill: #7aa6c2; stroke: #ffffff; stroke-width: 0.5"/>
     <use xlink:href="#m6e290f72df" x="161.544826" y="74.769456" style="fill: #7aa6c2; stroke: #ffffff; stroke-width: 0.5"/>
     <use xlink:href="#m6e290f72df" x="170.940606" y="73.275164" style="fill: #7aa6c2; stroke: #ffffff; stroke-width: 0.5"/>
     <use xlink:href="#m6e290f72df" x="181.603746" y="67.008721" style="fill: #7aa6c2; stroke: #ffffff; stroke-width: 0.5"/>
     <use xlink:href="#m6e290f72df" x="182.139708" y="52.031487" style="fill: #7aa6c2; stroke: #ffffff; stroke-width: 0.5"/>
     <use xlink:href="#m6e290f72df" x="184.390419" y="50.420458" style="fill: #7aa6c2; stroke: #ffffff; stroke-width: 0.5"/>
     <use xlink:href="#m6e290f72df" x="185.167934" y="52.23635" style="fill: #7aa6c2; stroke: #ffffff; stroke-width: 0.5"/>
     <use xlink:href="#m6e290f72df" x="186.51678" y="64.077873" style="fill: #7aa6c2; stroke: #ffffff; stroke-width: 0.5"/>
     <use xlink:href="#m6e290f72df" x="192.961286" y="54.729684" style="fill: #7aa6c2; stroke: #ffffff; stroke-width: 0.5"/>
     <use xlink:href="#m6e290f72df" x="193.816442" y="55.95674" style="fill: #7aa6c2; stroke: #ffffff; stroke-width: 0.5"/>
     <use xlink:href="#m6e290f72df" x="199.25459" y="55.977802" style="fill: #7aa6c2; stroke: #ffffff; stroke-width: 0.5"/>
     <use xlink:href="#m6e290f72df" x="205.317295" y="51.726128" style="fill: #7aa6c2; stroke: #ffffff; stroke-width: 0.5"/>
     <use xlink:href="#m6e290f72df" x="211.225579" y="61.423783" style="fill: #7aa6c2; stroke: #ffffff; stroke-width: 0.5"/>
     <use xlink:href="#m6e290f72df" x="218.940769" y="62.128306" style="fill: #7aa6c2; stroke: #ffffff; stroke-width: 0.5"/>
     <use xlink:href="#m6e290f72df" x="219.805543" y="68.902264" style="fill: #7aa6c2; stroke: #ffffff; stroke-width: 0.5"/>
    </g>
   </g>
   <g id="text_11">
    <!-- underfit (degree=1) -->
    <g transform="translate(86.144375 14.798437) scale(0.1 -0.1)">
     <defs>
      <path id="DejaVuSans-75" d="M 544 1381 
L 544 3500 
L 1119 3500 
L 1119 1403 
Q 1119 906 1312 657 
Q 1506 409 1894 409 
Q 2359 409 2629 706 
Q 2900 1003 2900 1516 
L 2900 3500 
L 3475 3500 
L 3475 0 
L 2900 0 
L 2900 538 
Q 2691 219 2414 64 
Q 2138 -91 1772 -91 
Q 1169 -91 856 284 
Q 544 659 544 1381 
z
M 1991 3584 
L 1991 3584 
z
" transform="scale(0.015625)"/>
      <path id="DejaVuSans-6e" d="M 3513 2113 
L 3513 0 
L 2938 0 
L 2938 2094 
Q 2938 2591 2744 2837 
Q 2550 3084 2163 3084 
Q 1697 3084 1428 2787 
Q 1159 2491 1159 1978 
L 1159 0 
L 581 0 
L 581 3500 
L 1159 3500 
L 1159 2956 
Q 1366 3272 1645 3428 
Q 1925 3584 2291 3584 
Q 2894 3584 3203 3211 
Q 3513 2838 3513 2113 
z
" transform="scale(0.015625)"/>
      <path id="DejaVuSans-64" d="M 2906 2969 
L 2906 4863 
L 3481 4863 
L 3481 0 
L 2906 0 
L 2906 525 
Q 2725 213 2448 61 
Q 2172 -91 1784 -91 
Q 1150 -91 751 415 
Q 353 922 353 1747 
Q 353 2572 751 3078 
Q 1150 3584 1784 3584 
Q 2172 3584 2448 3432 
Q 2725 3281 2906 2969 
z
M 947 1747 
Q 947 1113 1208 752 
Q 1469 391 1925 391 
Q 2381 391 2643 752 
Q 2906 1113 2906 1747 
Q 2906 2381 2643 2742 
Q 2381 3103 1925 3103 
Q 1469 3103 1208 2742 
Q 947 2381 947 1747 
z
" transform="scale(0.015625)"/>
      <path id="DejaVuSans-65" d="M 3597 1894 
L 3597 1613 
L 953 1613 
Q 991 1019 1311 708 
Q 1631 397 2203 397 
Q 2534 397 2845 478 
Q 3156 559 3463 722 
L 3463 178 
Q 3153 47 2828 -22 
Q 2503 -91 2169 -91 
Q 1331 -91 842 396 
Q 353 884 353 1716 
Q 353 2575 817 3079 
Q 1281 3584 2069 3584 
Q 2775 3584 3186 3129 
Q 3597 2675 3597 1894 
z
M 3022 2063 
Q 3016 2534 2758 2815 
Q 2500 3097 2075 3097 
Q 1594 3097 1305 2825 
Q 1016 2553 972 2059 
L 3022 2063 
z
" transform="scale(0.015625)"/>
      <path id="DejaVuSans-72" d="M 2631 2963 
Q 2534 3019 2420 3045 
Q 2306 3072 2169 3072 
Q 1681 3072 1420 2755 
Q 1159 2438 1159 1844 
L 1159 0 
L 581 0 
L 581 3500 
L 1159 3500 
L 1159 2956 
Q 1341 3275 1631 3429 
Q 1922 3584 2338 3584 
Q 2397 3584 2469 3576 
Q 2541 3569 2628 3553 
L 2631 2963 
z
" transform="scale(0.015625)"/>
      <path id="DejaVuSans-66" d="M 2375 4863 
L 2375 4384 
L 1825 4384 
Q 1516 4384 1395 4259 
Q 1275 4134 1275 3809 
L 1275 3500 
L 2222 3500 
L 2222 3053 
L 1275 3053 
L 1275 0 
L 697 0 
L 697 3053 
L 147 3053 
L 147 3500 
L 697 3500 
L 697 3744 
Q 697 4328 969 4595 
Q 1241 4863 1831 4863 
L 2375 4863 
z
" transform="scale(0.015625)"/>
      <path id="DejaVuSans-69" d="M 603 3500 
L 1178 3500 
L 1178 0 
L 603 0 
L 603 3500 
z
M 603 4863 
L 1178 4863 
L 1178 4134 
L 603 4134 
L 603 4863 
z
" transform="scale(0.015625)"/>
      <path id="DejaVuSans-74" d="M 1172 4494 
L 1172 3500 
L 2356 3500 
L 2356 3053 
L 1172 3053 
L 1172 1153 
Q 1172 725 1289 603 
Q 1406 481 1766 481 
L 2356 481 
L 2356 0 
L 1766 0 
Q 1100 0 847 248 
Q 594 497 594 1153 
L 594 3053 
L 172 3053 
L 172 3500 
L 594 3500 
L 594 4494 
L 1172 4494 
z
" transform="scale(0.015625)"/>
      <path id="DejaVuSans-20" transform="scale(0.015625)"/>
      <path id="DejaVuSans-28" d="M 1984 4856 
Q 1566 4138 1362 3434 
Q 1159 2731 1159 2009 
Q 1159 1288 1364 580 
Q 1569 -128 1984 -844 
L 1484 -844 
Q 1016 -109 783 600 
Q 550 1309 550 2009 
Q 550 2706 781 3412 
Q 1013 4119 1484 4856 
L 1984 4856 
z
" transform="scale(0.015625)"/>
      <path id="DejaVuSans-67" d="M 2906 1791 
Q 2906 2416 2648 2759 
Q 2391 3103 1925 3103 
Q 1463 3103 1205 2759 
Q 947 2416 947 1791 
Q 947 1169 1205 825 
Q 1463 481 1925 481 
Q 2391 481 2648 825 
Q 2906 1169 2906 1791 
z
M 3481 434 
Q 3481 -459 3084 -895 
Q 2688 -1331 1869 -1331 
Q 1566 -1331 1297 -1286 
Q 1028 -1241 775 -1147 
L 775 -588 
Q 1028 -725 1275 -790 
Q 1522 -856 1778 -856 
Q 2344 -856 2625 -561 
Q 2906 -266 2906 331 
L 2906 616 
Q 2728 306 2450 153 
Q 2172 0 1784 0 
Q 1141 0 747 490 
Q 353 981 353 1791 
Q 353 2603 747 3093 
Q 1141 3584 1784 3584 
Q 2172 3584 2450 3431 
Q 2728 3278 2906 2969 
L 2906 3500 
L 3481 3500 
L 3481 434 
z
" transform="scale(0.015625)"/>
      <path id="DejaVuSans-3d" d="M 678 2906 
L 4684 2906 
L 4684 2381 
L 678 2381 
L 678 2906 
z
M 678 1631 
L 4684 1631 
L 4684 1100 
L 678 1100 
L 678 1631 
z
" transform="scale(0.015625)"/>
      <path id="DejaVuSans-29" d="M 513 4856 
L 1013 4856 
Q 1481 4119 1714 3412 
Q 1947 2706 1947 2009 
Q 1947 1309 1714 600 
Q 1481 -109 1013 -844 
L 513 -844 
Q 928 -128 1133 580 
Q 1338 1288 1338 2009 
Q 1338 2731 1133 3434 
Q 928 4138 513 4856 
z
" transform="scale(0.015625)"/>
     </defs>
     <use xlink:href="#DejaVuSans-75"/>
     <use xlink:href="#DejaVuSans-6e" transform="translate(63.378906 0)"/>
     <use xlink:href="#DejaVuSans-64" transform="translate(126.757812 0)"/>
     <use xlink:href="#DejaVuSans-65" transform="translate(190.234375 0)"/>
     <use xlink:href="#DejaVuSans-72" transform="translate(251.757812 0)"/>
     <use xlink:href="#DejaVuSans-66" transform="translate(292.871094 0)"/>
     <use xlink:href="#DejaVuSans-69" transform="translate(328.076172 0)"/>
     <use xlink:href="#DejaVuSans-74" transform="translate(355.859375 0)"/>
     <use xlink:href="#DejaVuSans-20" transform="translate(395.068359 0)"/>
     <use xlink:href="#DejaVuSans-28" transform="translate(426.855469 0)"/>
     <use xlink:href="#DejaVuSans-64" transform="translate(465.869141 0)"/>
     <use xlink:href="#DejaVuSans-65" transform="translate(529.345703 0)"/>
     <use xlink:href="#DejaVuSans-67" transform="translate(590.869141 0)"/>
     <use xlink:href="#DejaVuSans-72" transform="translate(654.345703 0)"/>
     <use xlink:href="#DejaVuSans-65" transform="translate(693.208984 0)"/>
     <use xlink:href="#DejaVuSans-65" transform="translate(754.732422 0)"/>
     <use xlink:href="#DejaVuSans-3d" transform="translate(816.255859 0)"/>
     <use xlink:href="#DejaVuSans-31" transform="translate(900.044922 0)"/>
     <use xlink:href="#DejaVuSans-29" transform="translate(963.667969 0)"/>
    </g>
   </g>
   <g id="legend_1">
    <g id="patch_7">
     <path d="M 131.152812 180.518437 
L 224.340312 180.518437 
Q 225.940312 180.518437 225.940312 178.918437 
L 225.940312 144.490937 
Q 225.940312 142.890937 224.340312 142.890937 
L 131.152812 142.890937 
Q 129.552812 142.890937 129.552812 144.490937 
L 129.552812 178.918437 
Q 129.552812 180.518437 131.152812 180.518437 
z
" style="fill: #ffffff; opacity: 0.8; stroke: #cccccc; stroke-linejoin: miter"/>
    </g>
    <g id="line2d_19">
     <path d="M 132.752812 149.369687 
L 140.752812 149.369687 
L 148.752812 149.369687 
" style="fill: none; stroke-dasharray: 5.55,2.4; stroke-dashoffset: 0; stroke: #59a14f; stroke-width: 1.5"/>
    </g>
    <g id="text_12">
     <!-- true function -->
     <g transform="translate(155.152812 152.169687) scale(0.08 -0.08)">
      <defs>
       <path id="DejaVuSans-63" d="M 3122 3366 
L 3122 2828 
Q 2878 2963 2633 3030 
Q 2388 3097 2138 3097 
Q 1578 3097 1268 2742 
Q 959 2388 959 1747 
Q 959 1106 1268 751 
Q 1578 397 2138 397 
Q 2388 397 2633 464 
Q 2878 531 3122 666 
L 3122 134 
Q 2881 22 2623 -34 
Q 2366 -91 2075 -91 
Q 1284 -91 818 406 
Q 353 903 353 1747 
Q 353 2603 823 3093 
Q 1294 3584 2113 3584 
Q 2378 3584 2631 3529 
Q 2884 3475 3122 3366 
z
" transform="scale(0.015625)"/>
       <path id="DejaVuSans-6f" d="M 1959 3097 
Q 1497 3097 1228 2736 
Q 959 2375 959 1747 
Q 959 1119 1226 758 
Q 1494 397 1959 397 
Q 2419 397 2687 759 
Q 2956 1122 2956 1747 
Q 2956 2369 2687 2733 
Q 2419 3097 1959 3097 
z
M 1959 3584 
Q 2709 3584 3137 3096 
Q 3566 2609 3566 1747 
Q 3566 888 3137 398 
Q 2709 -91 1959 -91 
Q 1206 -91 779 398 
Q 353 888 353 1747 
Q 353 2609 779 3096 
Q 1206 3584 1959 3584 
z
" transform="scale(0.015625)"/>
      </defs>
      <use xlink:href="#DejaVuSans-74"/>
      <use xlink:href="#DejaVuSans-72" transform="translate(39.208984 0)"/>
      <use xlink:href="#DejaVuSans-75" transform="translate(80.322266 0)"/>
      <use xlink:href="#DejaVuSans-65" transform="translate(143.701172 0)"/>
      <use xlink:href="#DejaVuSans-20" transform="translate(205.224609 0)"/>
      <use xlink:href="#DejaVuSans-66" transform="translate(237.011719 0)"/>
      <use xlink:href="#DejaVuSans-75" transform="translate(272.216797 0)"/>
      <use xlink:href="#DejaVuSans-6e" transform="translate(335.595703 0)"/>
      <use xlink:href="#DejaVuSans-63" transform="translate(398.974609 0)"/>
      <use xlink:href="#DejaVuSans-74" transform="translate(453.955078 0)"/>
      <use xlink:href="#DejaVuSans-69" transform="translate(493.164062 0)"/>
      <use xlink:href="#DejaVuSans-6f" transform="translate(520.947266 0)"/>
      <use xlink:href="#DejaVuSans-6e" transform="translate(582.128906 0)"/>
     </g>
    </g>
    <g id="line2d_20">
     <path d="M 132.752812 161.112187 
L 140.752812 161.112187 
L 148.752812 161.112187 
" style="fill: none; stroke: #e15759; stroke-width: 2; stroke-linecap: square"/>
    </g>
    <g id="text_13">
     <!-- model prediction -->
     <g transform="translate(155.152812 163.912187) scale(0.08 -0.08)">
      <defs>
       <path id="DejaVuSans-6d" d="M 3328 2828 
Q 3544 3216 3844 3400 
Q 4144 3584 4550 3584 
Q 5097 3584 5394 3201 
Q 5691 2819 5691 2113 
L 5691 0 
L 5113 0 
L 5113 2094 
Q 5113 2597 4934 2840 
Q 4756 3084 4391 3084 
Q 3944 3084 3684 2787 
Q 3425 2491 3425 1978 
L 3425 0 
L 2847 0 
L 2847 2094 
Q 2847 2600 2669 2842 
Q 2491 3084 2119 3084 
Q 1678 3084 1418 2786 
Q 1159 2488 1159 1978 
L 1159 0 
L 581 0 
L 581 3500 
L 1159 3500 
L 1159 2956 
Q 1356 3278 1631 3431 
Q 1906 3584 2284 3584 
Q 2666 3584 2933 3390 
Q 3200 3197 3328 2828 
z
" transform="scale(0.015625)"/>
       <path id="DejaVuSans-6c" d="M 603 4863 
L 1178 4863 
L 1178 0 
L 603 0 
L 603 4863 
z
" transform="scale(0.015625)"/>
       <path id="DejaVuSans-70" d="M 1159 525 
L 1159 -1331 
L 581 -1331 
L 581 3500 
L 1159 3500 
L 1159 2969 
Q 1341 3281 1617 3432 
Q 1894 3584 2278 3584 
Q 2916 3584 3314 3078 
Q 3713 2572 3713 1747 
Q 3713 922 3314 415 
Q 2916 -91 2278 -91 
Q 1894 -91 1617 61 
Q 1341 213 1159 525 
z
M 3116 1747 
Q 3116 2381 2855 2742 
Q 2594 3103 2138 3103 
Q 1681 3103 1420 2742 
Q 1159 2381 1159 1747 
Q 1159 1113 1420 752 
Q 1681 391 2138 391 
Q 2594 391 2855 752 
Q 3116 1113 3116 1747 
z
" transform="scale(0.015625)"/>
      </defs>
      <use xlink:href="#DejaVuSans-6d"/>
      <use xlink:href="#DejaVuSans-6f" transform="translate(97.412109 0)"/>
      <use xlink:href="#DejaVuSans-64" transform="translate(158.59375 0)"/>
      <use xlink:href="#DejaVuSans-65" transform="translate(222.070312 0)"/>
      <use xlink:href="#DejaVuSans-6c" transform="translate(283.59375 0)"/>
      <use xlink:href="#DejaVuSans-20" transform="translate(311.376953 0)"/>
      <use xlink:href="#DejaVuSans-70" transform="translate(343.164062 0)"/>
      <use xlink:href="#DejaVuSans-72" transform="translate(406.640625 0)"/>
      <use xlink:href="#DejaVuSans-65" transform="translate(445.503906 0)"/>
      <use xlink:href="#DejaVuSans-64" transform="translate(507.027344 0)"/>
      <use xlink:href="#DejaVuSans-69" transform="translate(570.503906 0)"/>
      <use xlink:href="#DejaVuSans-63" transform="translate(598.287109 0)"/>
      <use xlink:href="#DejaVuSans-74" transform="translate(653.267578 0)"/>
      <use xlink:href="#DejaVuSans-69" transform="translate(692.476562 0)"/>
      <use xlink:href="#DejaVuSans-6f" transform="translate(720.259766 0)"/>
      <use xlink:href="#DejaVuSans-6e" transform="translate(781.441406 0)"/>
     </g>
    </g>
    <g id="PathCollection_2">
     <g>
      <use xlink:href="#m6e290f72df" x="140.752812" y="173.554687" style="fill: #7aa6c2; stroke: #ffffff; stroke-width: 0.5"/>
     </g>
    </g>
    <g id="text_14">
     <!-- training data -->
     <g transform="translate(155.152812 175.654687) scale(0.08 -0.08)">
      <defs>
       <path id="DejaVuSans-61" d="M 2194 1759 
Q 1497 1759 1228 1600 
Q 959 1441 959 1056 
Q 959 750 1161 570 
Q 1363 391 1709 391 
Q 2188 391 2477 730 
Q 2766 1069 2766 1631 
L 2766 1759 
L 2194 1759 
z
M 3341 1997 
L 3341 0 
L 2766 0 
L 2766 531 
Q 2569 213 2275 61 
Q 1981 -91 1556 -91 
Q 1019 -91 701 211 
Q 384 513 384 1019 
Q 384 1609 779 1909 
Q 1175 2209 1959 2209 
L 2766 2209 
L 2766 2266 
Q 2766 2663 2505 2880 
Q 2244 3097 1772 3097 
Q 1472 3097 1187 3025 
Q 903 2953 641 2809 
L 641 3341 
Q 956 3463 1253 3523 
Q 1550 3584 1831 3584 
Q 2591 3584 2966 3190 
Q 3341 2797 3341 1997 
z
" transform="scale(0.015625)"/>
      </defs>
      <use xlink:href="#DejaVuSans-74"/>
      <use xlink:href="#DejaVuSans-72" transform="translate(39.208984 0)"/>
      <use xlink:href="#DejaVuSans-61" transform="translate(80.322266 0)"/>
      <use xlink:href="#DejaVuSans-69" transform="translate(141.601562 0)"/>
      <use xlink:href="#DejaVuSans-6e" transform="translate(169.384766 0)"/>
      <use xlink:href="#DejaVuSans-69" transform="translate(232.763672 0)"/>
      <use xlink:href="#DejaVuSans-6e" transform="translate(260.546875 0)"/>
      <use xlink:href="#DejaVuSans-67" transform="translate(323.925781 0)"/>
      <use xlink:href="#DejaVuSans-20" transform="translate(387.402344 0)"/>
      <use xlink:href="#DejaVuSans-64" transform="translate(419.189453 0)"/>
      <use xlink:href="#DejaVuSans-61" transform="translate(482.666016 0)"/>
      <use xlink:href="#DejaVuSans-74" transform="translate(543.945312 0)"/>
      <use xlink:href="#DejaVuSans-61" transform="translate(583.154297 0)"/>
     </g>
    </g>
   </g>
  </g>
  <g id="axes_2">
   <g id="patch_8">
    <path d="M 244.240313 184.518437 
L 431.560312 184.518437 
L 431.560312 20.798437 
L 244.240313 20.798437 
z
" style="fill: #ffffff"/>
   </g>
   <g id="matplotlib.axis_3">
    <g id="xtick_4">
     <g id="line2d_21">
      <path d="M 279.362813 184.518437 
L 279.362813 20.798437 
" clip-path="url(#pc97ec65f85)" style="fill: none; stroke: #b0b0b0; stroke-opacity: 0.25; stroke-width: 0.8; stroke-linecap: square"/>
     </g>
     <g id="line2d_22">
      <g>
       <use xlink:href="#mc4e1c423e0" x="279.362813" y="184.518437" style="stroke: #000000; stroke-width: 0.8"/>
      </g>
     </g>
     <g id="text_15">
      <!-- −2 -->
      <g transform="translate(271.991719 199.116875) scale(0.1 -0.1)">
       <use xlink:href="#DejaVuSans-2212"/>
       <use xlink:href="#DejaVuSans-32" transform="translate(83.789062 0)"/>
      </g>
     </g>
    </g>
    <g id="xtick_5">
     <g id="line2d_23">
      <path d="M 337.900312 184.518437 
L 337.900312 20.798437 
" clip-path="url(#pc97ec65f85)" style="fill: none; stroke: #b0b0b0; stroke-opacity: 0.25; stroke-width: 0.8; stroke-linecap: square"/>
     </g>
     <g id="line2d_24">
      <g>
       <use xlink:href="#mc4e1c423e0" x="337.900312" y="184.518437" style="stroke: #000000; stroke-width: 0.8"/>
      </g>
     </g>
     <g id="text_16">
      <!-- 0 -->
      <g transform="translate(334.719063 199.116875) scale(0.1 -0.1)">
       <use xlink:href="#DejaVuSans-30"/>
      </g>
     </g>
    </g>
    <g id="xtick_6">
     <g id="line2d_25">
      <path d="M 396.437812 184.518437 
L 396.437812 20.798437 
" clip-path="url(#pc97ec65f85)" style="fill: none; stroke: #b0b0b0; stroke-opacity: 0.25; stroke-width: 0.8; stroke-linecap: square"/>
     </g>
     <g id="line2d_26">
      <g>
       <use xlink:href="#mc4e1c423e0" x="396.437812" y="184.518437" style="stroke: #000000; stroke-width: 0.8"/>
      </g>
     </g>
     <g id="text_17">
      <!-- 2 -->
      <g transform="translate(393.256562 199.116875) scale(0.1 -0.1)">
       <use xlink:href="#DejaVuSans-32"/>
      </g>
     </g>
    </g>
    <g id="text_18">
     <!-- x -->
     <g transform="translate(334.940937 212.795) scale(0.1 -0.1)">
      <use xlink:href="#DejaVuSans-78"/>
     </g>
    </g>
   </g>
   <g id="matplotlib.axis_4">
    <g id="ytick_6">
     <g id="line2d_27">
      <path d="M 244.240313 174.494764 
L 431.560312 174.494764 
" clip-path="url(#pc97ec65f85)" style="fill: none; stroke: #b0b0b0; stroke-opacity: 0.25; stroke-width: 0.8; stroke-linecap: square"/>
     </g>
     <g id="line2d_28">
      <g>
       <use xlink:href="#mf83dd71ea1" x="244.240313" y="174.494764" style="stroke: #000000; stroke-width: 0.8"/>
      </g>
     </g>
    </g>
    <g id="ytick_7">
     <g id="line2d_29">
      <path d="M 244.240313 141.082519 
L 431.560312 141.082519 
" clip-path="url(#pc97ec65f85)" style="fill: none; stroke: #b0b0b0; stroke-opacity: 0.25; stroke-width: 0.8; stroke-linecap: square"/>
     </g>
     <g id="line2d_30">
      <g>
       <use xlink:href="#mf83dd71ea1" x="244.240313" y="141.082519" style="stroke: #000000; stroke-width: 0.8"/>
      </g>
     </g>
    </g>
    <g id="ytick_8">
     <g id="line2d_31">
      <path d="M 244.240313 107.670274 
L 431.560312 107.670274 
" clip-path="url(#pc97ec65f85)" style="fill: none; stroke: #b0b0b0; stroke-opacity: 0.25; stroke-width: 0.8; stroke-linecap: square"/>
     </g>
     <g id="line2d_32">
      <g>
       <use xlink:href="#mf83dd71ea1" x="244.240313" y="107.670274" style="stroke: #000000; stroke-width: 0.8"/>
      </g>
     </g>
    </g>
    <g id="ytick_9">
     <g id="line2d_33">
      <path d="M 244.240313 74.258029 
L 431.560312 74.258029 
" clip-path="url(#pc97ec65f85)" style="fill: none; stroke: #b0b0b0; stroke-opacity: 0.25; stroke-width: 0.8; stroke-linecap: square"/>
     </g>
     <g id="line2d_34">
      <g>
       <use xlink:href="#mf83dd71ea1" x="244.240313" y="74.258029" style="stroke: #000000; stroke-width: 0.8"/>
      </g>
     </g>
    </g>
    <g id="ytick_10">
     <g id="line2d_35">
      <path d="M 244.240313 40.845784 
L 431.560312 40.845784 
" clip-path="url(#pc97ec65f85)" style="fill: none; stroke: #b0b0b0; stroke-opacity: 0.25; stroke-width: 0.8; stroke-linecap: square"/>
     </g>
     <g id="line2d_36">
      <g>
       <use xlink:href="#mf83dd71ea1" x="244.240313" y="40.845784" style="stroke: #000000; stroke-width: 0.8"/>
      </g>
     </g>
    </g>
   </g>
   <g id="line2d_37">
    <path d="M 244.240313 137.795618 
L 254.568734 145.906335 
L 259.26347 149.280743 
L 263.01926 151.714757 
L 266.305576 153.598298 
L 269.591891 155.212221 
L 272.408734 156.354737 
L 275.225576 157.254255 
L 278.042418 157.893521 
L 280.389786 158.216655 
L 282.737155 158.341459 
L 285.084523 158.261964 
L 287.431891 157.973512 
L 289.77926 157.47279 
L 292.126628 156.757848 
L 294.473997 155.828115 
L 296.821365 154.684399 
L 299.638207 153.032656 
L 302.455049 151.082354 
L 305.271891 148.842616 
L 308.088734 146.325243 
L 311.375049 143.056715 
L 314.661365 139.456944 
L 318.417155 134.977463 
L 322.172944 130.158672 
L 326.867681 123.746974 
L 332.501365 115.647621 
L 350.810839 88.983883 
L 355.505576 82.733578 
L 359.261365 78.077508 
L 363.017155 73.787758 
L 366.30347 70.373712 
L 369.589786 67.306866 
L 372.406628 64.973143 
L 375.22347 62.925215 
L 378.040312 61.173107 
L 380.857155 59.724108 
L 383.204523 58.75147 
L 385.551891 57.993572 
L 387.89926 57.450117 
L 390.246628 57.119433 
L 392.593997 56.998476 
L 394.941365 57.082857 
L 397.288734 57.366864 
L 399.636102 57.843504 
L 402.452944 58.658073 
L 405.269786 59.721649 
L 408.086628 61.01546 
L 411.372944 62.787903 
L 414.65926 64.808696 
L 418.415049 67.371324 
L 423.109786 70.861102 
L 430.151891 76.420569 
L 431.560312 77.54493 
L 431.560312 77.54493 
" clip-path="url(#pc97ec65f85)" style="fill: none; stroke-dasharray: 5.55,2.4; stroke-dashoffset: 0; stroke: #59a14f; stroke-width: 1.5"/>
   </g>
   <g id="line2d_38">
    <path d="M 244.240313 132.543788 
L 247.057155 136.300404 
L 249.873997 139.68676 
L 252.690839 142.70933 
L 255.507681 145.374861 
L 258.324523 147.690379 
L 260.671891 149.357867 
L 263.01926 150.791729 
L 265.366628 151.996469 
L 267.713997 152.976727 
L 270.061365 153.737276 
L 272.408734 154.283019 
L 274.756102 154.618996 
L 277.10347 154.750379 
L 279.450839 154.682472 
L 281.798207 154.420714 
L 284.615049 153.858576 
L 287.431891 153.035203 
L 290.248734 151.960754 
L 293.065576 150.645662 
L 295.882418 149.100638 
L 299.168734 147.022174 
L 302.455049 144.663632 
L 305.741365 142.043448 
L 309.497155 138.752899 
L 313.252944 135.174475 
L 317.478207 130.841999 
L 322.172944 125.698901 
L 327.337155 119.713381 
L 333.909786 111.730672 
L 345.177155 97.601816 
L 354.097155 86.574266 
L 359.730839 79.93805 
L 364.425576 74.720554 
L 368.650839 70.339775 
L 372.406628 66.747346 
L 375.692944 63.872647 
L 378.97926 61.279958 
L 381.796102 59.305108 
L 384.612944 57.579158 
L 387.429786 56.121801 
L 389.777155 55.12691 
L 392.124523 54.344105 
L 394.471891 53.785224 
L 396.81926 53.462234 
L 399.166628 53.387237 
L 401.513997 53.572469 
L 403.861365 54.030299 
L 405.73926 54.601231 
L 407.617155 55.361086 
L 409.495049 56.316381 
L 411.372944 57.473689 
L 413.720312 59.214503 
L 416.067681 61.29438 
L 418.415049 63.726516 
L 420.762418 66.524238 
L 423.109786 69.701007 
L 425.457155 73.27042 
L 427.804523 77.246204 
L 430.151891 81.64222 
L 431.560312 84.487357 
L 431.560312 84.487357 
" clip-path="url(#pc97ec65f85)" style="fill: none; stroke: #e15759; stroke-width: 2; stroke-linecap: square"/>
   </g>
   <g id="patch_9">
    <path d="M 244.240313 184.518437 
L 244.240313 20.798437 
" style="fill: none; stroke: #000000; stroke-width: 0.8; stroke-linejoin: miter; stroke-linecap: square"/>
   </g>
   <g id="patch_10">
    <path d="M 431.560312 184.518437 
L 431.560312 20.798437 
" style="fill: none; stroke: #000000; stroke-width: 0.8; stroke-linejoin: miter; stroke-linecap: square"/>
   </g>
   <g id="patch_11">
    <path d="M 244.240313 184.518437 
L 431.560312 184.518437 
" style="fill: none; stroke: #000000; stroke-width: 0.8; stroke-linejoin: miter; stroke-linecap: square"/>
   </g>
   <g id="patch_12">
    <path d="M 244.240313 20.798437 
L 431.560312 20.798437 
" style="fill: none; stroke: #000000; stroke-width: 0.8; stroke-linejoin: miter; stroke-linecap: square"/>
   </g>
   <g id="PathCollection_3">
    <g clip-path="url(#pc97ec65f85)">
     <use xlink:href="#m6e290f72df" x="261.30117" y="154.16495" style="fill: #7aa6c2; stroke: #ffffff; stroke-width: 0.5"/>
     <use xlink:href="#m6e290f72df" x="266.632782" y="148.435978" style="fill: #7aa6c2; stroke: #ffffff; stroke-width: 0.5"/>
     <use xlink:href="#m6e290f72df" x="272.592418" y="152.757907" style="fill: #7aa6c2; stroke: #ffffff; stroke-width: 0.5"/>
     <use xlink:href="#m6e290f72df" x="290.000023" y="153.2776" style="fill: #7aa6c2; stroke: #ffffff; stroke-width: 0.5"/>
     <use xlink:href="#m6e290f72df" x="312.353254" y="137.700091" style="fill: #7aa6c2; stroke: #ffffff; stroke-width: 0.5"/>
     <use xlink:href="#m6e290f72df" x="315.210831" y="117.35771" style="fill: #7aa6c2; stroke: #ffffff; stroke-width: 0.5"/>
     <use xlink:href="#m6e290f72df" x="327.166603" y="127.400456" style="fill: #7aa6c2; stroke: #ffffff; stroke-width: 0.5"/>
     <use xlink:href="#m6e290f72df" x="327.963138" y="127.335281" style="fill: #7aa6c2; stroke: #ffffff; stroke-width: 0.5"/>
     <use xlink:href="#m6e290f72df" x="329.187463" y="128.61121" style="fill: #7aa6c2; stroke: #ffffff; stroke-width: 0.5"/>
     <use xlink:href="#m6e290f72df" x="347.486083" y="87.464833" style="fill: #7aa6c2; stroke: #ffffff; stroke-width: 0.5"/>
     <use xlink:href="#m6e290f72df" x="361.022227" y="64.701081" style="fill: #7aa6c2; stroke: #ffffff; stroke-width: 0.5"/>
     <use xlink:href="#m6e290f72df" x="363.164826" y="74.769456" style="fill: #7aa6c2; stroke: #ffffff; stroke-width: 0.5"/>
     <use xlink:href="#m6e290f72df" x="372.560606" y="73.275164" style="fill: #7aa6c2; stroke: #ffffff; stroke-width: 0.5"/>
     <use xlink:href="#m6e290f72df" x="383.223746" y="67.008721" style="fill: #7aa6c2; stroke: #ffffff; stroke-width: 0.5"/>
     <use xlink:href="#m6e290f72df" x="383.759708" y="52.031487" style="fill: #7aa6c2; stroke: #ffffff; stroke-width: 0.5"/>
     <use xlink:href="#m6e290f72df" x="386.010419" y="50.420458" style="fill: #7aa6c2; stroke: #ffffff; stroke-width: 0.5"/>
     <use xlink:href="#m6e290f72df" x="386.787934" y="52.23635" style="fill: #7aa6c2; stroke: #ffffff; stroke-width: 0.5"/>
     <use xlink:href="#m6e290f72df" x="388.13678" y="64.077873" style="fill: #7aa6c2; stroke: #ffffff; stroke-width: 0.5"/>
     <use xlink:href="#m6e290f72df" x="394.581286" y="54.729684" style="fill: #7aa6c2; stroke: #ffffff; stroke-width: 0.5"/>
     <use xlink:href="#m6e290f72df" x="395.436442" y="55.95674" style="fill: #7aa6c2; stroke: #ffffff; stroke-width: 0.5"/>
     <use xlink:href="#m6e290f72df" x="400.87459" y="55.977802" style="fill: #7aa6c2; stroke: #ffffff; stroke-width: 0.5"/>
     <use xlink:href="#m6e290f72df" x="406.937295" y="51.726128" style="fill: #7aa6c2; stroke: #ffffff; stroke-width: 0.5"/>
     <use xlink:href="#m6e290f72df" x="412.845579" y="61.423783" style="fill: #7aa6c2; stroke: #ffffff; stroke-width: 0.5"/>
     <use xlink:href="#m6e290f72df" x="420.560769" y="62.128306" style="fill: #7aa6c2; stroke: #ffffff; stroke-width: 0.5"/>
     <use xlink:href="#m6e290f72df" x="421.425543" y="68.902264" style="fill: #7aa6c2; stroke: #ffffff; stroke-width: 0.5"/>
    </g>
   </g>
   <g id="text_19">
    <!-- good fit (degree=4) -->
    <g transform="translate(288.351875 14.798437) scale(0.1 -0.1)">
     <defs>
      <path id="DejaVuSans-34" d="M 2419 4116 
L 825 1625 
L 2419 1625 
L 2419 4116 
z
M 2253 4666 
L 3047 4666 
L 3047 1625 
L 3713 1625 
L 3713 1100 
L 3047 1100 
L 3047 0 
L 2419 0 
L 2419 1100 
L 313 1100 
L 313 1709 
L 2253 4666 
z
" transform="scale(0.015625)"/>
     </defs>
     <use xlink:href="#DejaVuSans-67"/>
     <use xlink:href="#DejaVuSans-6f" transform="translate(63.476562 0)"/>
     <use xlink:href="#DejaVuSans-6f" transform="translate(124.658203 0)"/>
     <use xlink:href="#DejaVuSans-64" transform="translate(185.839844 0)"/>
     <use xlink:href="#DejaVuSans-20" transform="translate(249.316406 0)"/>
     <use xlink:href="#DejaVuSans-66" transform="translate(281.103516 0)"/>
     <use xlink:href="#DejaVuSans-69" transform="translate(316.308594 0)"/>
     <use xlink:href="#DejaVuSans-74" transform="translate(344.091797 0)"/>
     <use xlink:href="#DejaVuSans-20" transform="translate(383.300781 0)"/>
     <use xlink:href="#DejaVuSans-28" transform="translate(415.087891 0)"/>
     <use xlink:href="#DejaVuSans-64" transform="translate(454.101562 0)"/>
     <use xlink:href="#DejaVuSans-65" transform="translate(517.578125 0)"/>
     <use xlink:href="#DejaVuSans-67" transform="translate(579.101562 0)"/>
     <use xlink:href="#DejaVuSans-72" transform="translate(642.578125 0)"/>
     <use xlink:href="#DejaVuSans-65" transform="translate(681.441406 0)"/>
     <use xlink:href="#DejaVuSans-65" transform="translate(742.964844 0)"/>
     <use xlink:href="#DejaVuSans-3d" transform="translate(804.488281 0)"/>
     <use xlink:href="#DejaVuSans-34" transform="translate(888.277344 0)"/>
     <use xlink:href="#DejaVuSans-29" transform="translate(951.900391 0)"/>
    </g>
   </g>
  </g>
  <g id="axes_3">
   <g id="patch_13">
    <path d="M 445.860313 184.518437 
L 633.180313 184.518437 
L 633.180313 20.798437 
L 445.860313 20.798437 
z
" style="fill: #ffffff"/>
   </g>
   <g id="matplotlib.axis_5">
    <g id="xtick_7">
     <g id="line2d_39">
      <path d="M 480.982813 184.518437 
L 480.982813 20.798437 
" clip-path="url(#pddb3c273e9)" style="fill: none; stroke: #b0b0b0; stroke-opacity: 0.25; stroke-width: 0.8; stroke-linecap: square"/>
     </g>
     <g id="line2d_40">
      <g>
       <use xlink:href="#mc4e1c423e0" x="480.982813" y="184.518437" style="stroke: #000000; stroke-width: 0.8"/>
      </g>
     </g>
     <g id="text_20">
      <!-- −2 -->
      <g transform="translate(473.611719 199.116875) scale(0.1 -0.1)">
       <use xlink:href="#DejaVuSans-2212"/>
       <use xlink:href="#DejaVuSans-32" transform="translate(83.789062 0)"/>
      </g>
     </g>
    </g>
    <g id="xtick_8">
     <g id="line2d_41">
      <path d="M 539.520313 184.518437 
L 539.520313 20.798437 
" clip-path="url(#pddb3c273e9)" style="fill: none; stroke: #b0b0b0; stroke-opacity: 0.25; stroke-width: 0.8; stroke-linecap: square"/>
     </g>
     <g id="line2d_42">
      <g>
       <use xlink:href="#mc4e1c423e0" x="539.520313" y="184.518437" style="stroke: #000000; stroke-width: 0.8"/>
      </g>
     </g>
     <g id="text_21">
      <!-- 0 -->
      <g transform="translate(536.339063 199.116875) scale(0.1 -0.1)">
       <use xlink:href="#DejaVuSans-30"/>
      </g>
     </g>
    </g>
    <g id="xtick_9">
     <g id="line2d_43">
      <path d="M 598.057813 184.518437 
L 598.057813 20.798437 
" clip-path="url(#pddb3c273e9)" style="fill: none; stroke: #b0b0b0; stroke-opacity: 0.25; stroke-width: 0.8; stroke-linecap: square"/>
     </g>
     <g id="line2d_44">
      <g>
       <use xlink:href="#mc4e1c423e0" x="598.057813" y="184.518437" style="stroke: #000000; stroke-width: 0.8"/>
      </g>
     </g>
     <g id="text_22">
      <!-- 2 -->
      <g transform="translate(594.876563 199.116875) scale(0.1 -0.1)">
       <use xlink:href="#DejaVuSans-32"/>
      </g>
     </g>
    </g>
    <g id="text_23">
     <!-- x -->
     <g transform="translate(536.560938 212.795) scale(0.1 -0.1)">
      <use xlink:href="#DejaVuSans-78"/>
     </g>
    </g>
   </g>
   <g id="matplotlib.axis_6">
    <g id="ytick_11">
     <g id="line2d_45">
      <path d="M 445.860313 174.494764 
L 633.180313 174.494764 
" clip-path="url(#pddb3c273e9)" style="fill: none; stroke: #b0b0b0; stroke-opacity: 0.25; stroke-width: 0.8; stroke-linecap: square"/>
     </g>
     <g id="line2d_46">
      <g>
       <use xlink:href="#mf83dd71ea1" x="445.860313" y="174.494764" style="stroke: #000000; stroke-width: 0.8"/>
      </g>
     </g>
    </g>
    <g id="ytick_12">
     <g id="line2d_47">
      <path d="M 445.860313 141.082519 
L 633.180313 141.082519 
" clip-path="url(#pddb3c273e9)" style="fill: none; stroke: #b0b0b0; stroke-opacity: 0.25; stroke-width: 0.8; stroke-linecap: square"/>
     </g>
     <g id="line2d_48">
      <g>
       <use xlink:href="#mf83dd71ea1" x="445.860313" y="141.082519" style="stroke: #000000; stroke-width: 0.8"/>
      </g>
     </g>
    </g>
    <g id="ytick_13">
     <g id="line2d_49">
      <path d="M 445.860313 107.670274 
L 633.180313 107.670274 
" clip-path="url(#pddb3c273e9)" style="fill: none; stroke: #b0b0b0; stroke-opacity: 0.25; stroke-width: 0.8; stroke-linecap: square"/>
     </g>
     <g id="line2d_50">
      <g>
       <use xlink:href="#mf83dd71ea1" x="445.860313" y="107.670274" style="stroke: #000000; stroke-width: 0.8"/>
      </g>
     </g>
    </g>
    <g id="ytick_14">
     <g id="line2d_51">
      <path d="M 445.860313 74.258029 
L 633.180313 74.258029 
" clip-path="url(#pddb3c273e9)" style="fill: none; stroke: #b0b0b0; stroke-opacity: 0.25; stroke-width: 0.8; stroke-linecap: square"/>
     </g>
     <g id="line2d_52">
      <g>
       <use xlink:href="#mf83dd71ea1" x="445.860313" y="74.258029" style="stroke: #000000; stroke-width: 0.8"/>
      </g>
     </g>
    </g>
    <g id="ytick_15">
     <g id="line2d_53">
      <path d="M 445.860313 40.845784 
L 633.180313 40.845784 
" clip-path="url(#pddb3c273e9)" style="fill: none; stroke: #b0b0b0; stroke-opacity: 0.25; stroke-width: 0.8; stroke-linecap: square"/>
     </g>
     <g id="line2d_54">
      <g>
       <use xlink:href="#mf83dd71ea1" x="445.860313" y="40.845784" style="stroke: #000000; stroke-width: 0.8"/>
      </g>
     </g>
    </g>
   </g>
   <g id="line2d_55">
    <path d="M 445.860313 137.795618 
L 456.188734 145.906335 
L 460.88347 149.280743 
L 464.63926 151.714757 
L 467.925576 153.598298 
L 471.211891 155.212221 
L 474.028734 156.354737 
L 476.845576 157.254255 
L 479.662418 157.893521 
L 482.009786 158.216655 
L 484.357155 158.341459 
L 486.704523 158.261964 
L 489.051891 157.973512 
L 491.39926 157.47279 
L 493.746628 156.757848 
L 496.093997 155.828115 
L 498.441365 154.684399 
L 501.258207 153.032656 
L 504.075049 151.082354 
L 506.891891 148.842616 
L 509.708734 146.325243 
L 512.995049 143.056715 
L 516.281365 139.456944 
L 520.037155 134.977463 
L 523.792944 130.158672 
L 528.487681 123.746974 
L 534.121365 115.647621 
L 552.430839 88.983883 
L 557.125576 82.733578 
L 560.881365 78.077508 
L 564.637155 73.787758 
L 567.92347 70.373712 
L 571.209786 67.306866 
L 574.026628 64.973143 
L 576.84347 62.925215 
L 579.660313 61.173107 
L 582.477155 59.724108 
L 584.824523 58.75147 
L 587.171891 57.993572 
L 589.51926 57.450117 
L 591.866628 57.119433 
L 594.213997 56.998476 
L 596.561365 57.082857 
L 598.908734 57.366864 
L 601.256102 57.843504 
L 604.072944 58.658073 
L 606.889786 59.721649 
L 609.706628 61.01546 
L 612.992944 62.787903 
L 616.27926 64.808696 
L 620.035049 67.371324 
L 624.729786 70.861102 
L 631.771891 76.420569 
L 633.180313 77.54493 
L 633.180313 77.54493 
" clip-path="url(#pddb3c273e9)" style="fill: none; stroke-dasharray: 5.55,2.4; stroke-dashoffset: 0; stroke: #59a14f; stroke-width: 1.5"/>
   </g>
   <g id="line2d_56">
    <path d="M 462.321237 223.074687 
L 462.761365 169.556244 
L 463.230839 129.445239 
L 463.700313 103.145958 
L 464.169786 87.90613 
L 464.63926 81.345374 
L 465.108734 81.418285 
L 465.578207 86.380311 
L 466.047681 94.756277 
L 466.986628 117.024502 
L 468.395049 151.606309 
L 469.333997 169.262314 
L 469.80347 175.609253 
L 470.272944 180.135329 
L 470.742418 182.804021 
L 471.211891 183.635764 
L 471.681365 182.697736 
L 472.150839 180.094731 
L 472.620313 175.961041 
L 473.55926 163.743984 
L 474.498207 147.458557 
L 476.376102 108.682201 
L 478.253997 70.838561 
L 479.192944 55.078864 
L 480.131891 42.492248 
L 481.070839 33.588918 
L 481.540313 30.616845 
L 482.009786 28.657313 
L 482.47926 27.714633 
L 482.948734 27.781798 
L 483.418207 28.841309 
L 483.887681 30.866043 
L 484.357155 33.820152 
L 485.296102 42.334937 
L 486.235049 53.959042 
L 487.173997 68.184339 
L 488.582418 93.161955 
L 494.216102 200.257695 
L 495.624523 220.650618 
L 495.821713 223.074687 
M 505.817511 223.074687 
L 506.891891 212.103798 
L 509.708734 180.58945 
L 512.056102 155.148968 
L 513.464523 141.688287 
L 514.872944 130.190786 
L 516.281365 120.972649 
L 517.220313 116.177664 
L 518.15926 112.477731 
L 519.098207 109.853617 
L 519.567681 108.931862 
L 520.037155 108.260321 
L 520.506628 107.8298 
L 520.976102 107.629861 
L 521.445576 107.648927 
L 521.915049 107.874393 
L 522.384523 108.29273 
L 523.32347 109.649974 
L 524.262418 111.5983 
L 525.670839 115.343832 
L 528.018207 122.666972 
L 529.896102 128.34216 
L 531.304523 131.894716 
L 532.24347 133.753504 
L 533.182418 135.119467 
L 534.121365 135.937627 
L 534.590839 136.128647 
L 535.060313 136.16966 
L 535.529786 136.058503 
L 535.99926 135.794047 
L 536.468734 135.376187 
L 537.407681 134.084793 
L 538.346628 132.202895 
L 539.285576 129.763437 
L 540.224523 126.81232 
L 541.632944 121.554076 
L 543.510839 113.360086 
L 550.08347 82.890667 
L 551.491891 77.672139 
L 552.900313 73.332931 
L 553.83926 70.976605 
L 554.778207 69.06651 
L 555.717155 67.604444 
L 556.656102 66.581121 
L 557.595049 65.976747 
L 558.533997 65.76185 
L 559.472944 65.898334 
L 560.411891 66.340734 
L 561.350839 67.037637 
L 562.75926 68.437288 
L 567.92347 74.215088 
L 568.862418 74.914372 
L 569.801365 75.402025 
L 570.740313 75.652558 
L 571.67926 75.649423 
L 572.618207 75.385316 
L 573.557155 74.8622 
L 574.496102 74.091042 
L 575.435049 73.091268 
L 576.84347 71.223991 
L 578.721365 68.238315 
L 583.416102 60.439545 
L 584.824523 58.580791 
L 586.232944 57.127315 
L 587.171891 56.406851 
L 588.110839 55.888377 
L 589.049786 55.564156 
L 589.988734 55.417438 
L 591.397155 55.473437 
L 593.275049 55.880443 
L 596.091891 56.537433 
L 597.500313 56.602097 
L 598.908734 56.369141 
L 600.317155 55.814047 
L 601.725576 54.981592 
L 605.481365 52.506601 
L 606.420313 52.17581 
L 607.35926 52.100438 
L 608.298207 52.338522 
L 609.237155 52.929063 
L 610.176102 53.883795 
L 611.115049 55.179458 
L 612.52347 57.608948 
L 614.870839 61.826459 
L 615.809786 63.02832 
L 616.27926 63.424796 
L 616.748734 63.656992 
L 617.218207 63.710295 
L 617.687681 63.577897 
L 618.157155 63.263554 
L 619.096102 62.176832 
L 620.504523 60.288939 
L 620.973997 60.034466 
L 621.44347 60.268116 
L 621.912944 61.248375 
L 622.382418 63.29868 
L 622.851891 66.818198 
L 623.321365 72.293905 
L 623.790839 80.314105 
L 624.260313 91.583496 
L 624.729786 106.939943 
L 625.19926 127.373093 
L 625.668734 154.045001 
L 626.513878 223.074687 
L 626.513878 223.074687 
" clip-path="url(#pddb3c273e9)" style="fill: none; stroke: #e15759; stroke-width: 2; stroke-linecap: square"/>
   </g>
   <g id="patch_14">
    <path d="M 445.860313 184.518437 
L 445.860313 20.798437 
" style="fill: none; stroke: #000000; stroke-width: 0.8; stroke-linejoin: miter; stroke-linecap: square"/>
   </g>
   <g id="patch_15">
    <path d="M 633.180313 184.518437 
L 633.180313 20.798437 
" style="fill: none; stroke: #000000; stroke-width: 0.8; stroke-linejoin: miter; stroke-linecap: square"/>
   </g>
   <g id="patch_16">
    <path d="M 445.860313 184.518437 
L 633.180313 184.518437 
" style="fill: none; stroke: #000000; stroke-width: 0.8; stroke-linejoin: miter; stroke-linecap: square"/>
   </g>
   <g id="patch_17">
    <path d="M 445.860313 20.798437 
L 633.180313 20.798437 
" style="fill: none; stroke: #000000; stroke-width: 0.8; stroke-linejoin: miter; stroke-linecap: square"/>
   </g>
   <g id="PathCollection_4">
    <g clip-path="url(#pddb3c273e9)">
     <use xlink:href="#m6e290f72df" x="462.92117" y="154.16495" style="fill: #7aa6c2; stroke: #ffffff; stroke-width: 0.5"/>
     <use xlink:href="#m6e290f72df" x="468.252782" y="148.435978" style="fill: #7aa6c2; stroke: #ffffff; stroke-width: 0.5"/>
     <use xlink:href="#m6e290f72df" x="474.212418" y="152.757907" style="fill: #7aa6c2; stroke: #ffffff; stroke-width: 0.5"/>
     <use xlink:href="#m6e290f72df" x="491.620023" y="153.2776" style="fill: #7aa6c2; stroke: #ffffff; stroke-width: 0.5"/>
     <use xlink:href="#m6e290f72df" x="513.973254" y="137.700091" style="fill: #7aa6c2; stroke: #ffffff; stroke-width: 0.5"/>
     <use xlink:href="#m6e290f72df" x="516.830831" y="117.35771" style="fill: #7aa6c2; stroke: #ffffff; stroke-width: 0.5"/>
     <use xlink:href="#m6e290f72df" x="528.786603" y="127.400456" style="fill: #7aa6c2; stroke: #ffffff; stroke-width: 0.5"/>
     <use xlink:href="#m6e290f72df" x="529.583138" y="127.335281" style="fill: #7aa6c2; stroke: #ffffff; stroke-width: 0.5"/>
     <use xlink:href="#m6e290f72df" x="530.807463" y="128.61121" style="fill: #7aa6c2; stroke: #ffffff; stroke-width: 0.5"/>
     <use xlink:href="#m6e290f72df" x="549.106083" y="87.464833" style="fill: #7aa6c2; stroke: #ffffff; stroke-width: 0.5"/>
     <use xlink:href="#m6e290f72df" x="562.642227" y="64.701081" style="fill: #7aa6c2; stroke: #ffffff; stroke-width: 0.5"/>
     <use xlink:href="#m6e290f72df" x="564.784826" y="74.769456" style="fill: #7aa6c2; stroke: #ffffff; stroke-width: 0.5"/>
     <use xlink:href="#m6e290f72df" x="574.180606" y="73.275164" style="fill: #7aa6c2; stroke: #ffffff; stroke-width: 0.5"/>
     <use xlink:href="#m6e290f72df" x="584.843746" y="67.008721" style="fill: #7aa6c2; stroke: #ffffff; stroke-width: 0.5"/>
     <use xlink:href="#m6e290f72df" x="585.379708" y="52.031487" style="fill: #7aa6c2; stroke: #ffffff; stroke-width: 0.5"/>
     <use xlink:href="#m6e290f72df" x="587.630419" y="50.420458" style="fill: #7aa6c2; stroke: #ffffff; stroke-width: 0.5"/>
     <use xlink:href="#m6e290f72df" x="588.407934" y="52.23635" style="fill: #7aa6c2; stroke: #ffffff; stroke-width: 0.5"/>
     <use xlink:href="#m6e290f72df" x="589.75678" y="64.077873" style="fill: #7aa6c2; stroke: #ffffff; stroke-width: 0.5"/>
     <use xlink:href="#m6e290f72df" x="596.201286" y="54.729684" style="fill: #7aa6c2; stroke: #ffffff; stroke-width: 0.5"/>
     <use xlink:href="#m6e290f72df" x="597.056442" y="55.95674" style="fill: #7aa6c2; stroke: #ffffff; stroke-width: 0.5"/>
     <use xlink:href="#m6e290f72df" x="602.49459" y="55.977802" style="fill: #7aa6c2; stroke: #ffffff; stroke-width: 0.5"/>
     <use xlink:href="#m6e290f72df" x="608.557295" y="51.726128" style="fill: #7aa6c2; stroke: #ffffff; stroke-width: 0.5"/>
     <use xlink:href="#m6e290f72df" x="614.465579" y="61.423783" style="fill: #7aa6c2; stroke: #ffffff; stroke-width: 0.5"/>
     <use xlink:href="#m6e290f72df" x="622.180769" y="62.128306" style="fill: #7aa6c2; stroke: #ffffff; stroke-width: 0.5"/>
     <use xlink:href="#m6e290f72df" x="623.045543" y="68.902264" style="fill: #7aa6c2; stroke: #ffffff; stroke-width: 0.5"/>
    </g>
   </g>
   <g id="text_24">
    <!-- overfit (degree=15) -->
    <g transform="translate(489.696094 14.798437) scale(0.1 -0.1)">
     <defs>
      <path id="DejaVuSans-76" d="M 191 3500 
L 800 3500 
L 1894 563 
L 2988 3500 
L 3597 3500 
L 2284 0 
L 1503 0 
L 191 3500 
z
" transform="scale(0.015625)"/>
      <path id="DejaVuSans-35" d="M 691 4666 
L 3169 4666 
L 3169 4134 
L 1269 4134 
L 1269 2991 
Q 1406 3038 1543 3061 
Q 1681 3084 1819 3084 
Q 2600 3084 3056 2656 
Q 3513 2228 3513 1497 
Q 3513 744 3044 326 
Q 2575 -91 1722 -91 
Q 1428 -91 1123 -41 
Q 819 9 494 109 
L 494 744 
Q 775 591 1075 516 
Q 1375 441 1709 441 
Q 2250 441 2565 725 
Q 2881 1009 2881 1497 
Q 2881 1984 2565 2268 
Q 2250 2553 1709 2553 
Q 1456 2553 1204 2497 
Q 953 2441 691 2322 
L 691 4666 
z
" transform="scale(0.015625)"/>
     </defs>
     <use xlink:href="#DejaVuSans-6f"/>
     <use xlink:href="#DejaVuSans-76" transform="translate(61.181641 0)"/>
     <use xlink:href="#DejaVuSans-65" transform="translate(120.361328 0)"/>
     <use xlink:href="#DejaVuSans-72" transform="translate(181.884766 0)"/>
     <use xlink:href="#DejaVuSans-66" transform="translate(222.998047 0)"/>
     <use xlink:href="#DejaVuSans-69" transform="translate(258.203125 0)"/>
     <use xlink:href="#DejaVuSans-74" transform="translate(285.986328 0)"/>
     <use xlink:href="#DejaVuSans-20" transform="translate(325.195312 0)"/>
     <use xlink:href="#DejaVuSans-28" transform="translate(356.982422 0)"/>
     <use xlink:href="#DejaVuSans-64" transform="translate(395.996094 0)"/>
     <use xlink:href="#DejaVuSans-65" transform="translate(459.472656 0)"/>
     <use xlink:href="#DejaVuSans-67" transform="translate(520.996094 0)"/>
     <use xlink:href="#DejaVuSans-72" transform="translate(584.472656 0)"/>
     <use xlink:href="#DejaVuSans-65" transform="translate(623.335938 0)"/>
     <use xlink:href="#DejaVuSans-65" transform="translate(684.859375 0)"/>
     <use xlink:href="#DejaVuSans-3d" transform="translate(746.382812 0)"/>
     <use xlink:href="#DejaVuSans-31" transform="translate(830.171875 0)"/>
     <use xlink:href="#DejaVuSans-35" transform="translate(893.794922 0)"/>
     <use xlink:href="#DejaVuSans-29" transform="translate(957.417969 0)"/>
    </g>
   </g>
  </g>
 </g>
 <defs>
  <clipPath id="pb381dd14d6">
   <rect x="42.620313" y="20.798437" width="187.32" height="163.72"/>
  </clipPath>
  <clipPath id="pc97ec65f85">
   <rect x="244.240313" y="20.798437" width="187.32" height="163.72"/>
  </clipPath>
  <clipPath id="pddb3c273e9">
   <rect x="445.860313" y="20.798437" width="187.32" height="163.72"/>
  </clipPath>
 </defs>
</svg>
