<?xml version="1.0" encoding="utf-8" standalone="no"?>
<!DOCTYPE svg PUBLIC "-//W3C//DTD SVG 1.1//EN"
  "http://www.w3.org/Graphics/SVG/1.1/DTD/svg11.dtd">
<svg xmlns:xlink="http://www.w3.org/1999/xlink" width="488.161562pt" height="495.034375pt" viewBox="0 0 488.161562 495.034375" xmlns="http://www.w3.org/2000/svg" version="1.1">
 <metadata>
  <rdf:RDF xmlns:dc="http://purl.org/dc/elements/1.1/" xmlns:cc="http://creativecommons.org/ns#" xmlns:rdf="http://www.w3.org/1999/02/22-rdf-syntax-ns#">
   <cc:Work>
    <dc:type rdf:resource="http://purl.org/dc/dcmitype/StillImage"/>
    <dc:date>2026-05-26T14:42:16.041231</dc:date>
    <dc:format>image/svg+xml</dc:format>
    <dc:creator>
     <cc:Agent>
      <dc:title>Matplotlib v3.10.8, https://matplotlib.org/</dc:title>
     </cc:Agent>
    </dc:creator>
   </cc:Work>
  </rdf:RDF>
 </metadata>
 <defs>
  <style type="text/css">*{stroke-linejoin: round; stroke-linecap: butt}</style>
 </defs>
 <g id="figure_1">
  <g id="patch_1">
   <path d="M 0 495.034375 
L 488.161563 495.034375 
L 488.161563 0 
L 0 0 
z
" style="fill: #ffffff"/>
  </g>
  <g id="axes_1">
   <g id="patch_2">
    <path d="M 42.620313 457.478125 
L 477.780313 457.478125 
L 477.780313 22.318125 
L 42.620313 22.318125 
z
" style="fill: #ffffff"/>
   </g>
   <g id="PathCollection_1">
    <defs>
     <path id="m48b1557e22" d="M 0 3.162278 
C 0.838646 3.162278 1.643056 2.82908 2.236068 2.236068 
C 2.82908 1.643056 3.162278 0.838646 3.162278 0 
C 3.162278 -0.838646 2.82908 -1.643056 2.236068 -2.236068 
C 1.643056 -2.82908 0.838646 -3.162278 0 -3.162278 
C -0.838646 -3.162278 -1.643056 -2.82908 -2.236068 -2.236068 
C -2.82908 -1.643056 -3.162278 -0.838646 -3.162278 0 
C -3.162278 0.838646 -2.82908 1.643056 -2.236068 2.236068 
C -1.643056 2.82908 -0.838646 3.162278 0 3.162278 
z
" style="stroke: #7aa6c2; stroke-opacity: 0.7"/>
    </defs>
    <g clip-path="url(#p3003ee3dc5)">
     <use xlink:href="#m48b1557e22" x="142.015733" y="257.524869" style="fill: #7aa6c2; fill-opacity: 0.7; stroke: #7aa6c2; stroke-opacity: 0.7"/>
     <use xlink:href="#m48b1557e22" x="236.479575" y="284.091836" style="fill: #7aa6c2; fill-opacity: 0.7; stroke: #7aa6c2; stroke-opacity: 0.7"/>
     <use xlink:href="#m48b1557e22" x="197.263689" y="323.808679" style="fill: #7aa6c2; fill-opacity: 0.7; stroke: #7aa6c2; stroke-opacity: 0.7"/>
     <use xlink:href="#m48b1557e22" x="240.546336" y="241.339291" style="fill: #7aa6c2; fill-opacity: 0.7; stroke: #7aa6c2; stroke-opacity: 0.7"/>
     <use xlink:href="#m48b1557e22" x="253.006932" y="264.734745" style="fill: #7aa6c2; fill-opacity: 0.7; stroke: #7aa6c2; stroke-opacity: 0.7"/>
     <use xlink:href="#m48b1557e22" x="200.633451" y="356.242453" style="fill: #7aa6c2; fill-opacity: 0.7; stroke: #7aa6c2; stroke-opacity: 0.7"/>
     <use xlink:href="#m48b1557e22" x="187.512124" y="288.618822" style="fill: #7aa6c2; fill-opacity: 0.7; stroke: #7aa6c2; stroke-opacity: 0.7"/>
     <use xlink:href="#m48b1557e22" x="140.953365" y="298.096349" style="fill: #7aa6c2; fill-opacity: 0.7; stroke: #7aa6c2; stroke-opacity: 0.7"/>
     <use xlink:href="#m48b1557e22" x="203.261936" y="287.183962" style="fill: #7aa6c2; fill-opacity: 0.7; stroke: #7aa6c2; stroke-opacity: 0.7"/>
     <use xlink:href="#m48b1557e22" x="144.733581" y="336.420333" style="fill: #7aa6c2; fill-opacity: 0.7; stroke: #7aa6c2; stroke-opacity: 0.7"/>
     <use xlink:href="#m48b1557e22" x="171.847049" y="354.845708" style="fill: #7aa6c2; fill-opacity: 0.7; stroke: #7aa6c2; stroke-opacity: 0.7"/>
     <use xlink:href="#m48b1557e22" x="250.748923" y="330.408168" style="fill: #7aa6c2; fill-opacity: 0.7; stroke: #7aa6c2; stroke-opacity: 0.7"/>
     <use xlink:href="#m48b1557e22" x="199.603181" y="321.801494" style="fill: #7aa6c2; fill-opacity: 0.7; stroke: #7aa6c2; stroke-opacity: 0.7"/>
     <use xlink:href="#m48b1557e22" x="245.095651" y="264.544101" style="fill: #7aa6c2; fill-opacity: 0.7; stroke: #7aa6c2; stroke-opacity: 0.7"/>
     <use xlink:href="#m48b1557e22" x="210.641123" y="392.331405" style="fill: #7aa6c2; fill-opacity: 0.7; stroke: #7aa6c2; stroke-opacity: 0.7"/>
     <use xlink:href="#m48b1557e22" x="189.56039" y="287.632051" style="fill: #7aa6c2; fill-opacity: 0.7; stroke: #7aa6c2; stroke-opacity: 0.7"/>
     <use xlink:href="#m48b1557e22" x="224.080639" y="334.832161" style="fill: #7aa6c2; fill-opacity: 0.7; stroke: #7aa6c2; stroke-opacity: 0.7"/>
     <use xlink:href="#m48b1557e22" x="253.745851" y="360.30802" style="fill: #7aa6c2; fill-opacity: 0.7; stroke: #7aa6c2; stroke-opacity: 0.7"/>
     <use xlink:href="#m48b1557e22" x="163.684435" y="278.516762" style="fill: #7aa6c2; fill-opacity: 0.7; stroke: #7aa6c2; stroke-opacity: 0.7"/>
     <use xlink:href="#m48b1557e22" x="189.45253" y="239.811362" style="fill: #7aa6c2; fill-opacity: 0.7; stroke: #7aa6c2; stroke-opacity: 0.7"/>
     <use xlink:href="#m48b1557e22" x="194.50998" y="335.38652" style="fill: #7aa6c2; fill-opacity: 0.7; stroke: #7aa6c2; stroke-opacity: 0.7"/>
     <use xlink:href="#m48b1557e22" x="173.981935" y="351.993387" style="fill: #7aa6c2; fill-opacity: 0.7; stroke: #7aa6c2; stroke-opacity: 0.7"/>
     <use xlink:href="#m48b1557e22" x="141.340704" y="289.56397" style="fill: #7aa6c2; fill-opacity: 0.7; stroke: #7aa6c2; stroke-opacity: 0.7"/>
     <use xlink:href="#m48b1557e22" x="208.748655" y="265.479774" style="fill: #7aa6c2; fill-opacity: 0.7; stroke: #7aa6c2; stroke-opacity: 0.7"/>
     <use xlink:href="#m48b1557e22" x="160.309124" y="251.172125" style="fill: #7aa6c2; fill-opacity: 0.7; stroke: #7aa6c2; stroke-opacity: 0.7"/>
     <use xlink:href="#m48b1557e22" x="177.25201" y="255.331499" style="fill: #7aa6c2; fill-opacity: 0.7; stroke: #7aa6c2; stroke-opacity: 0.7"/>
     <use xlink:href="#m48b1557e22" x="171.979388" y="339.095867" style="fill: #7aa6c2; fill-opacity: 0.7; stroke: #7aa6c2; stroke-opacity: 0.7"/>
     <use xlink:href="#m48b1557e22" x="196.731696" y="275.020865" style="fill: #7aa6c2; fill-opacity: 0.7; stroke: #7aa6c2; stroke-opacity: 0.7"/>
     <use xlink:href="#m48b1557e22" x="193.51239" y="333.658019" style="fill: #7aa6c2; fill-opacity: 0.7; stroke: #7aa6c2; stroke-opacity: 0.7"/>
     <use xlink:href="#m48b1557e22" x="139.036548" y="363.248586" style="fill: #7aa6c2; fill-opacity: 0.7; stroke: #7aa6c2; stroke-opacity: 0.7"/>
     <use xlink:href="#m48b1557e22" x="205.902602" y="276.534498" style="fill: #7aa6c2; fill-opacity: 0.7; stroke: #7aa6c2; stroke-opacity: 0.7"/>
     <use xlink:href="#m48b1557e22" x="181.715776" y="351.384843" style="fill: #7aa6c2; fill-opacity: 0.7; stroke: #7aa6c2; stroke-opacity: 0.7"/>
     <use xlink:href="#m48b1557e22" x="219.333064" y="358.856144" style="fill: #7aa6c2; fill-opacity: 0.7; stroke: #7aa6c2; stroke-opacity: 0.7"/>
     <use xlink:href="#m48b1557e22" x="161.81542" y="289.904614" style="fill: #7aa6c2; fill-opacity: 0.7; stroke: #7aa6c2; stroke-opacity: 0.7"/>
     <use xlink:href="#m48b1557e22" x="106.076026" y="298.413742" style="fill: #7aa6c2; fill-opacity: 0.7; stroke: #7aa6c2; stroke-opacity: 0.7"/>
     <use xlink:href="#m48b1557e22" x="166.58141" y="308.461946" style="fill: #7aa6c2; fill-opacity: 0.7; stroke: #7aa6c2; stroke-opacity: 0.7"/>
     <use xlink:href="#m48b1557e22" x="184.928456" y="305.09545" style="fill: #7aa6c2; fill-opacity: 0.7; stroke: #7aa6c2; stroke-opacity: 0.7"/>
     <use xlink:href="#m48b1557e22" x="212.846634" y="339.925807" style="fill: #7aa6c2; fill-opacity: 0.7; stroke: #7aa6c2; stroke-opacity: 0.7"/>
     <use xlink:href="#m48b1557e22" x="239.203191" y="286.094211" style="fill: #7aa6c2; fill-opacity: 0.7; stroke: #7aa6c2; stroke-opacity: 0.7"/>
     <use xlink:href="#m48b1557e22" x="218.270205" y="270.182941" style="fill: #7aa6c2; fill-opacity: 0.7; stroke: #7aa6c2; stroke-opacity: 0.7"/>
     <use xlink:href="#m48b1557e22" x="216.23422" y="281.815685" style="fill: #7aa6c2; fill-opacity: 0.7; stroke: #7aa6c2; stroke-opacity: 0.7"/>
     <use xlink:href="#m48b1557e22" x="190.414922" y="364.164367" style="fill: #7aa6c2; fill-opacity: 0.7; stroke: #7aa6c2; stroke-opacity: 0.7"/>
     <use xlink:href="#m48b1557e22" x="182.77646" y="340.329958" style="fill: #7aa6c2; fill-opacity: 0.7; stroke: #7aa6c2; stroke-opacity: 0.7"/>
     <use xlink:href="#m48b1557e22" x="136.080287" y="303.052432" style="fill: #7aa6c2; fill-opacity: 0.7; stroke: #7aa6c2; stroke-opacity: 0.7"/>
     <use xlink:href="#m48b1557e22" x="167.056147" y="349.768933" style="fill: #7aa6c2; fill-opacity: 0.7; stroke: #7aa6c2; stroke-opacity: 0.7"/>
     <use xlink:href="#m48b1557e22" x="149.85095" y="302.691094" style="fill: #7aa6c2; fill-opacity: 0.7; stroke: #7aa6c2; stroke-opacity: 0.7"/>
     <use xlink:href="#m48b1557e22" x="200.680286" y="264.468076" style="fill: #7aa6c2; fill-opacity: 0.7; stroke: #7aa6c2; stroke-opacity: 0.7"/>
     <use xlink:href="#m48b1557e22" x="187.169054" y="274.644209" style="fill: #7aa6c2; fill-opacity: 0.7; stroke: #7aa6c2; stroke-opacity: 0.7"/>
     <use xlink:href="#m48b1557e22" x="238.524443" y="270.715952" style="fill: #7aa6c2; fill-opacity: 0.7; stroke: #7aa6c2; stroke-opacity: 0.7"/>
     <use xlink:href="#m48b1557e22" x="101.899842" y="267.868624" style="fill: #7aa6c2; fill-opacity: 0.7; stroke: #7aa6c2; stroke-opacity: 0.7"/>
    </g>
   </g>
   <g id="PathCollection_2">
    <defs>
     <path id="md553eb0dd1" d="M 0 -7.071068 
L -1.587554 -2.18508 
L -6.724985 -2.18508 
L -2.568716 0.834626 
L -4.156269 5.720614 
L -0 2.700907 
L 4.156269 5.720614 
L 2.568716 0.834626 
L 6.724985 -2.18508 
L 1.587554 -2.18508 
z
" style="stroke: #e15759"/>
    </defs>
    <g clip-path="url(#p3003ee3dc5)">
     <use xlink:href="#md553eb0dd1" x="405.253646" y="94.844792" style="fill: #e15759; stroke: #e15759"/>
    </g>
   </g>
   <g id="matplotlib.axis_1">
    <g id="xtick_1">
     <g id="line2d_1">
      <path d="M 42.620313 457.478125 
L 42.620313 22.318125 
" clip-path="url(#p3003ee3dc5)" style="fill: none; stroke: #b0b0b0; stroke-opacity: 0.25; stroke-width: 0.8; stroke-linecap: square"/>
     </g>
     <g id="line2d_2">
      <defs>
       <path id="mf9a75abc8c" d="M 0 0 
L 0 3.5 
" style="stroke: #000000; stroke-width: 0.8"/>
      </defs>
      <g>
       <use xlink:href="#mf9a75abc8c" x="42.620313" y="457.478125" style="stroke: #000000; stroke-width: 0.8"/>
      </g>
     </g>
     <g id="text_1">
      <!-- −2 -->
      <g transform="translate(35.249219 472.076563) scale(0.1 -0.1)">
       <defs>
        <path id="DejaVuSans-2212" d="M 678 2272 
L 4684 2272 
L 4684 1741 
L 678 1741 
L 678 2272 
z
" transform="scale(0.015625)"/>
        <path id="DejaVuSans-32" d="M 1228 531 
L 3431 531 
L 3431 0 
L 469 0 
L 469 531 
Q 828 903 1448 1529 
Q 2069 2156 2228 2338 
Q 2531 2678 2651 2914 
Q 2772 3150 2772 3378 
Q 2772 3750 2511 3984 
Q 2250 4219 1831 4219 
Q 1534 4219 1204 4116 
Q 875 4013 500 3803 
L 500 4441 
Q 881 4594 1212 4672 
Q 1544 4750 1819 4750 
Q 2544 4750 2975 4387 
Q 3406 4025 3406 3419 
Q 3406 3131 3298 2873 
Q 3191 2616 2906 2266 
Q 2828 2175 2409 1742 
Q 1991 1309 1228 531 
z
" transform="scale(0.015625)"/>
       </defs>
       <use xlink:href="#DejaVuSans-2212"/>
       <use xlink:href="#DejaVuSans-32" transform="translate(83.789062 0)"/>
      </g>
     </g>
    </g>
    <g id="xtick_2">
     <g id="line2d_3">
      <path d="M 115.146979 457.478125 
L 115.146979 22.318125 
" clip-path="url(#p3003ee3dc5)" style="fill: none; stroke: #b0b0b0; stroke-opacity: 0.25; stroke-width: 0.8; stroke-linecap: square"/>
     </g>
     <g id="line2d_4">
      <g>
       <use xlink:href="#mf9a75abc8c" x="115.146979" y="457.478125" style="stroke: #000000; stroke-width: 0.8"/>
      </g>
     </g>
     <g id="text_2">
      <!-- −1 -->
      <g transform="translate(107.775885 472.076563) scale(0.1 -0.1)">
       <defs>
        <path id="DejaVuSans-31" d="M 794 531 
L 1825 531 
L 1825 4091 
L 703 3866 
L 703 4441 
L 1819 4666 
L 2450 4666 
L 2450 531 
L 3481 531 
L 3481 0 
L 794 0 
L 794 531 
z
" transform="scale(0.015625)"/>
       </defs>
       <use xlink:href="#DejaVuSans-2212"/>
       <use xlink:href="#DejaVuSans-31" transform="translate(83.789062 0)"/>
      </g>
     </g>
    </g>
    <g id="xtick_3">
     <g id="line2d_5">
      <path d="M 187.673646 457.478125 
L 187.673646 22.318125 
" clip-path="url(#p3003ee3dc5)" style="fill: none; stroke: #b0b0b0; stroke-opacity: 0.25; stroke-width: 0.8; stroke-linecap: square"/>
     </g>
     <g id="line2d_6">
      <g>
       <use xlink:href="#mf9a75abc8c" x="187.673646" y="457.478125" style="stroke: #000000; stroke-width: 0.8"/>
      </g>
     </g>
     <g id="text_3">
      <!-- 0 -->
      <g transform="translate(184.492396 472.076563) scale(0.1 -0.1)">
       <defs>
        <path id="DejaVuSans-30" d="M 2034 4250 
Q 1547 4250 1301 3770 
Q 1056 3291 1056 2328 
Q 1056 1369 1301 889 
Q 1547 409 2034 409 
Q 2525 409 2770 889 
Q 3016 1369 3016 2328 
Q 3016 3291 2770 3770 
Q 2525 4250 2034 4250 
z
M 2034 4750 
Q 2819 4750 3233 4129 
Q 3647 3509 3647 2328 
Q 3647 1150 3233 529 
Q 2819 -91 2034 -91 
Q 1250 -91 836 529 
Q 422 1150 422 2328 
Q 422 3509 836 4129 
Q 1250 4750 2034 4750 
z
" transform="scale(0.015625)"/>
       </defs>
       <use xlink:href="#DejaVuSans-30"/>
      </g>
     </g>
    </g>
    <g id="xtick_4">
     <g id="line2d_7">
      <path d="M 260.200312 457.478125 
L 260.200312 22.318125 
" clip-path="url(#p3003ee3dc5)" style="fill: none; stroke: #b0b0b0; stroke-opacity: 0.25; stroke-width: 0.8; stroke-linecap: square"/>
     </g>
     <g id="line2d_8">
      <g>
       <use xlink:href="#mf9a75abc8c" x="260.200312" y="457.478125" style="stroke: #000000; stroke-width: 0.8"/>
      </g>
     </g>
     <g id="text_4">
      <!-- 1 -->
      <g transform="translate(257.019063 472.076563) scale(0.1 -0.1)">
       <use xlink:href="#DejaVuSans-31"/>
      </g>
     </g>
    </g>
    <g id="xtick_5">
     <g id="line2d_9">
      <path d="M 332.726979 457.478125 
L 332.726979 22.318125 
" clip-path="url(#p3003ee3dc5)" style="fill: none; stroke: #b0b0b0; stroke-opacity: 0.25; stroke-width: 0.8; stroke-linecap: square"/>
     </g>
     <g id="line2d_10">
      <g>
       <use xlink:href="#mf9a75abc8c" x="332.726979" y="457.478125" style="stroke: #000000; stroke-width: 0.8"/>
      </g>
     </g>
     <g id="text_5">
      <!-- 2 -->
      <g transform="translate(329.545729 472.076563) scale(0.1 -0.1)">
       <use xlink:href="#DejaVuSans-32"/>
      </g>
     </g>
    </g>
    <g id="xtick_6">
     <g id="line2d_11">
      <path d="M 405.253646 457.478125 
L 405.253646 22.318125 
" clip-path="url(#p3003ee3dc5)" style="fill: none; stroke: #b0b0b0; stroke-opacity: 0.25; stroke-width: 0.8; stroke-linecap: square"/>
     </g>
     <g id="line2d_12">
      <g>
       <use xlink:href="#mf9a75abc8c" x="405.253646" y="457.478125" style="stroke: #000000; stroke-width: 0.8"/>
      </g>
     </g>
     <g id="text_6">
      <!-- 3 -->
      <g transform="translate(402.072396 472.076563) scale(0.1 -0.1)">
       <defs>
        <path id="DejaVuSans-33" d="M 2597 2516 
Q 3050 2419 3304 2112 
Q 3559 1806 3559 1356 
Q 3559 666 3084 287 
Q 2609 -91 1734 -91 
Q 1441 -91 1130 -33 
Q 819 25 488 141 
L 488 750 
Q 750 597 1062 519 
Q 1375 441 1716 441 
Q 2309 441 2620 675 
Q 2931 909 2931 1356 
Q 2931 1769 2642 2001 
Q 2353 2234 1838 2234 
L 1294 2234 
L 1294 2753 
L 1863 2753 
Q 2328 2753 2575 2939 
Q 2822 3125 2822 3475 
Q 2822 3834 2567 4026 
Q 2313 4219 1838 4219 
Q 1578 4219 1281 4162 
Q 984 4106 628 3988 
L 628 4550 
Q 988 4650 1302 4700 
Q 1616 4750 1894 4750 
Q 2613 4750 3031 4423 
Q 3450 4097 3450 3541 
Q 3450 3153 3228 2886 
Q 3006 2619 2597 2516 
z
" transform="scale(0.015625)"/>
       </defs>
       <use xlink:href="#DejaVuSans-33"/>
      </g>
     </g>
    </g>
    <g id="xtick_7">
     <g id="line2d_13">
      <path d="M 477.780313 457.478125 
L 477.780313 22.318125 
" clip-path="url(#p3003ee3dc5)" style="fill: none; stroke: #b0b0b0; stroke-opacity: 0.25; stroke-width: 0.8; stroke-linecap: square"/>
     </g>
     <g id="line2d_14">
      <g>
       <use xlink:href="#mf9a75abc8c" x="477.780313" y="457.478125" style="stroke: #000000; stroke-width: 0.8"/>
      </g>
     </g>
     <g id="text_7">
      <!-- 4 -->
      <g transform="translate(474.599063 472.076563) scale(0.1 -0.1)">
       <defs>
        <path id="DejaVuSans-34" d="M 2419 4116 
L 825 1625 
L 2419 1625 
L 2419 4116 
z
M 2253 4666 
L 3047 4666 
L 3047 1625 
L 3713 1625 
L 3713 1100 
L 3047 1100 
L 3047 0 
L 2419 0 
L 2419 1100 
L 313 1100 
L 313 1709 
L 2253 4666 
z
" transform="scale(0.015625)"/>
       </defs>
       <use xlink:href="#DejaVuSans-34"/>
      </g>
     </g>
    </g>
    <g id="text_8">
     <!-- x1 -->
     <g transform="translate(254.059688 485.754688) scale(0.1 -0.1)">
      <defs>
       <path id="DejaVuSans-78" d="M 3513 3500 
L 2247 1797 
L 3578 0 
L 2900 0 
L 1881 1375 
L 863 0 
L 184 0 
L 1544 1831 
L 300 3500 
L 978 3500 
L 1906 2253 
L 2834 3500 
L 3513 3500 
z
" transform="scale(0.015625)"/>
      </defs>
      <use xlink:href="#DejaVuSans-78"/>
      <use xlink:href="#DejaVuSans-31" transform="translate(59.179688 0)"/>
     </g>
    </g>
   </g>
   <g id="matplotlib.axis_2">
    <g id="ytick_1">
     <g id="line2d_15">
      <path d="M 42.620313 457.478125 
L 477.780313 457.478125 
" clip-path="url(#p3003ee3dc5)" style="fill: none; stroke: #b0b0b0; stroke-opacity: 0.25; stroke-width: 0.8; stroke-linecap: square"/>
     </g>
     <g id="line2d_16">
      <defs>
       <path id="mc906e50a39" d="M 0 0 
L -3.5 0 
" style="stroke: #000000; stroke-width: 0.8"/>
      </defs>
      <g>
       <use xlink:href="#mc906e50a39" x="42.620313" y="457.478125" style="stroke: #000000; stroke-width: 0.8"/>
      </g>
     </g>
     <g id="text_9">
      <!-- −2 -->
      <g transform="translate(20.878125 461.277344) scale(0.1 -0.1)">
       <use xlink:href="#DejaVuSans-2212"/>
       <use xlink:href="#DejaVuSans-32" transform="translate(83.789062 0)"/>
      </g>
     </g>
    </g>
    <g id="ytick_2">
     <g id="line2d_17">
      <path d="M 42.620313 384.951458 
L 477.780313 384.951458 
" clip-path="url(#p3003ee3dc5)" style="fill: none; stroke: #b0b0b0; stroke-opacity: 0.25; stroke-width: 0.8; stroke-linecap: square"/>
     </g>
     <g id="line2d_18">
      <g>
       <use xlink:href="#mc906e50a39" x="42.620313" y="384.951458" style="stroke: #000000; stroke-width: 0.8"/>
      </g>
     </g>
     <g id="text_10">
      <!-- −1 -->
      <g transform="translate(20.878125 388.750677) scale(0.1 -0.1)">
       <use xlink:href="#DejaVuSans-2212"/>
       <use xlink:href="#DejaVuSans-31" transform="translate(83.789062 0)"/>
      </g>
     </g>
    </g>
    <g id="ytick_3">
     <g id="line2d_19">
      <path d="M 42.620313 312.424792 
L 477.780313 312.424792 
" clip-path="url(#p3003ee3dc5)" style="fill: none; stroke: #b0b0b0; stroke-opacity: 0.25; stroke-width: 0.8; stroke-linecap: square"/>
     </g>
     <g id="line2d_20">
      <g>
       <use xlink:href="#mc906e50a39" x="42.620313" y="312.424792" style="stroke: #000000; stroke-width: 0.8"/>
      </g>
     </g>
     <g id="text_11">
      <!-- 0 -->
      <g transform="translate(29.257813 316.22401) scale(0.1 -0.1)">
       <use xlink:href="#DejaVuSans-30"/>
      </g>
     </g>
    </g>
    <g id="ytick_4">
     <g id="line2d_21">
      <path d="M 42.620313 239.898125 
L 477.780313 239.898125 
" clip-path="url(#p3003ee3dc5)" style="fill: none; stroke: #b0b0b0; stroke-opacity: 0.25; stroke-width: 0.8; stroke-linecap: square"/>
     </g>
     <g id="line2d_22">
      <g>
       <use xlink:href="#mc906e50a39" x="42.620313" y="239.898125" style="stroke: #000000; stroke-width: 0.8"/>
      </g>
     </g>
     <g id="text_12">
      <!-- 1 -->
      <g transform="translate(29.257813 243.697344) scale(0.1 -0.1)">
       <use xlink:href="#DejaVuSans-31"/>
      </g>
     </g>
    </g>
    <g id="ytick_5">
     <g id="line2d_23">
      <path d="M 42.620313 167.371458 
L 477.780313 167.371458 
" clip-path="url(#p3003ee3dc5)" style="fill: none; stroke: #b0b0b0; stroke-opacity: 0.25; stroke-width: 0.8; stroke-linecap: square"/>
     </g>
     <g id="line2d_24">
      <g>
       <use xlink:href="#mc906e50a39" x="42.620313" y="167.371458" style="stroke: #000000; stroke-width: 0.8"/>
      </g>
     </g>
     <g id="text_13">
      <!-- 2 -->
      <g transform="translate(29.257813 171.170677) scale(0.1 -0.1)">
       <use xlink:href="#DejaVuSans-32"/>
      </g>
     </g>
    </g>
    <g id="ytick_6">
     <g id="line2d_25">
      <path d="M 42.620313 94.844792 
L 477.780313 94.844792 
" clip-path="url(#p3003ee3dc5)" style="fill: none; stroke: #b0b0b0; stroke-opacity: 0.25; stroke-width: 0.8; stroke-linecap: square"/>
     </g>
     <g id="line2d_26">
      <g>
       <use xlink:href="#mc906e50a39" x="42.620313" y="94.844792" style="stroke: #000000; stroke-width: 0.8"/>
      </g>
     </g>
     <g id="text_14">
      <!-- 3 -->
      <g transform="translate(29.257813 98.64401) scale(0.1 -0.1)">
       <use xlink:href="#DejaVuSans-33"/>
      </g>
     </g>
    </g>
    <g id="ytick_7">
     <g id="line2d_27">
      <path d="M 42.620313 22.318125 
L 477.780313 22.318125 
" clip-path="url(#p3003ee3dc5)" style="fill: none; stroke: #b0b0b0; stroke-opacity: 0.25; stroke-width: 0.8; stroke-linecap: square"/>
     </g>
     <g id="line2d_28">
      <g>
       <use xlink:href="#mc906e50a39" x="42.620313" y="22.318125" style="stroke: #000000; stroke-width: 0.8"/>
      </g>
     </g>
     <g id="text_15">
      <!-- 4 -->
      <g transform="translate(29.257813 26.117344) scale(0.1 -0.1)">
       <use xlink:href="#DejaVuSans-34"/>
      </g>
     </g>
    </g>
    <g id="text_16">
     <!-- x2 -->
     <g transform="translate(14.798438 246.03875) rotate(-90) scale(0.1 -0.1)">
      <use xlink:href="#DejaVuSans-78"/>
      <use xlink:href="#DejaVuSans-32" transform="translate(59.179688 0)"/>
     </g>
    </g>
   </g>
   <g id="line2d_29">
    <path d="M 296.463646 457.478125 
L 296.463646 22.318125 
" clip-path="url(#p3003ee3dc5)" style="fill: none; stroke: #59a14f; stroke-width: 2; stroke-linecap: square"/>
   </g>
   <g id="line2d_30">
    <path d="M 42.620313 181.876792 
L 477.780313 181.876792 
" clip-path="url(#p3003ee3dc5)" style="fill: none; stroke: #59a14f; stroke-width: 2; stroke-linecap: square"/>
   </g>
   <g id="patch_3">
    <path d="M 42.620313 457.478125 
L 42.620313 22.318125 
" style="fill: none; stroke: #000000; stroke-width: 0.8; stroke-linejoin: miter; stroke-linecap: square"/>
   </g>
   <g id="patch_4">
    <path d="M 477.780313 457.478125 
L 477.780313 22.318125 
" style="fill: none; stroke: #000000; stroke-width: 0.8; stroke-linejoin: miter; stroke-linecap: square"/>
   </g>
   <g id="patch_5">
    <path d="M 42.620313 457.478125 
L 477.780313 457.478125 
" style="fill: none; stroke: #000000; stroke-width: 0.8; stroke-linejoin: miter; stroke-linecap: square"/>
   </g>
   <g id="patch_6">
    <path d="M 42.620313 22.318125 
L 477.780313 22.318125 
" style="fill: none; stroke: #000000; stroke-width: 0.8; stroke-linejoin: miter; stroke-linecap: square"/>
   </g>
   <g id="text_17">
    <!-- Isolation Forest: anomalies are isolated in fewer random splits -->
    <g transform="translate(73.575 16.318125) scale(0.12 -0.12)">
     <defs>
      <path id="DejaVuSans-49" d="M 628 4666 
L 1259 4666 
L 1259 0 
L 628 0 
L 628 4666 
z
" transform="scale(0.015625)"/>
      <path id="DejaVuSans-73" d="M 2834 3397 
L 2834 2853 
Q 2591 2978 2328 3040 
Q 2066 3103 1784 3103 
Q 1356 3103 1142 2972 
Q 928 2841 928 2578 
Q 928 2378 1081 2264 
Q 1234 2150 1697 2047 
L 1894 2003 
Q 2506 1872 2764 1633 
Q 3022 1394 3022 966 
Q 3022 478 2636 193 
Q 2250 -91 1575 -91 
Q 1294 -91 989 -36 
Q 684 19 347 128 
L 347 722 
Q 666 556 975 473 
Q 1284 391 1588 391 
Q 1994 391 2212 530 
Q 2431 669 2431 922 
Q 2431 1156 2273 1281 
Q 2116 1406 1581 1522 
L 1381 1569 
Q 847 1681 609 1914 
Q 372 2147 372 2553 
Q 372 3047 722 3315 
Q 1072 3584 1716 3584 
Q 2034 3584 2315 3537 
Q 2597 3491 2834 3397 
z
" transform="scale(0.015625)"/>
      <path id="DejaVuSans-6f" d="M 1959 3097 
Q 1497 3097 1228 2736 
Q 959 2375 959 1747 
Q 959 1119 1226 758 
Q 1494 397 1959 397 
Q 2419 397 2687 759 
Q 2956 1122 2956 1747 
Q 2956 2369 2687 2733 
Q 2419 3097 1959 3097 
z
M 1959 3584 
Q 2709 3584 3137 3096 
Q 3566 2609 3566 1747 
Q 3566 888 3137 398 
Q 2709 -91 1959 -91 
Q 1206 -91 779 398 
Q 353 888 353 1747 
Q 353 2609 779 3096 
Q 1206 3584 1959 3584 
z
" transform="scale(0.015625)"/>
      <path id="DejaVuSans-6c" d="M 603 4863 
L 1178 4863 
L 1178 0 
L 603 0 
L 603 4863 
z
" transform="scale(0.015625)"/>
      <path id="DejaVuSans-61" d="M 2194 1759 
Q 1497 1759 1228 1600 
Q 959 1441 959 1056 
Q 959 750 1161 570 
Q 1363 391 1709 391 
Q 2188 391 2477 730 
Q 2766 1069 2766 1631 
L 2766 1759 
L 2194 1759 
z
M 3341 1997 
L 3341 0 
L 2766 0 
L 2766 531 
Q 2569 213 2275 61 
Q 1981 -91 1556 -91 
Q 1019 -91 701 211 
Q 384 513 384 1019 
Q 384 1609 779 1909 
Q 1175 2209 1959 2209 
L 2766 2209 
L 2766 2266 
Q 2766 2663 2505 2880 
Q 2244 3097 1772 3097 
Q 1472 3097 1187 3025 
Q 903 2953 641 2809 
L 641 3341 
Q 956 3463 1253 3523 
Q 1550 3584 1831 3584 
Q 2591 3584 2966 3190 
Q 3341 2797 3341 1997 
z
" transform="scale(0.015625)"/>
      <path id="DejaVuSans-74" d="M 1172 4494 
L 1172 3500 
L 2356 3500 
L 2356 3053 
L 1172 3053 
L 1172 1153 
Q 1172 725 1289 603 
Q 1406 481 1766 481 
L 2356 481 
L 2356 0 
L 1766 0 
Q 1100 0 847 248 
Q 594 497 594 1153 
L 594 3053 
L 172 3053 
L 172 3500 
L 594 3500 
L 594 4494 
L 1172 4494 
z
" transform="scale(0.015625)"/>
      <path id="DejaVuSans-69" d="M 603 3500 
L 1178 3500 
L 1178 0 
L 603 0 
L 603 3500 
z
M 603 4863 
L 1178 4863 
L 1178 4134 
L 603 4134 
L 603 4863 
z
" transform="scale(0.015625)"/>
      <path id="DejaVuSans-6e" d="M 3513 2113 
L 3513 0 
L 2938 0 
L 2938 2094 
Q 2938 2591 2744 2837 
Q 2550 3084 2163 3084 
Q 1697 3084 1428 2787 
Q 1159 2491 1159 1978 
L 1159 0 
L 581 0 
L 581 3500 
L 1159 3500 
L 1159 2956 
Q 1366 3272 1645 3428 
Q 1925 3584 2291 3584 
Q 2894 3584 3203 3211 
Q 3513 2838 3513 2113 
z
" transform="scale(0.015625)"/>
      <path id="DejaVuSans-20" transform="scale(0.015625)"/>
      <path id="DejaVuSans-46" d="M 628 4666 
L 3309 4666 
L 3309 4134 
L 1259 4134 
L 1259 2759 
L 3109 2759 
L 3109 2228 
L 1259 2228 
L 1259 0 
L 628 0 
L 628 4666 
z
" transform="scale(0.015625)"/>
      <path id="DejaVuSans-72" d="M 2631 2963 
Q 2534 3019 2420 3045 
Q 2306 3072 2169 3072 
Q 1681 3072 1420 2755 
Q 1159 2438 1159 1844 
L 1159 0 
L 581 0 
L 581 3500 
L 1159 3500 
L 1159 2956 
Q 1341 3275 1631 3429 
Q 1922 3584 2338 3584 
Q 2397 3584 2469 3576 
Q 2541 3569 2628 3553 
L 2631 2963 
z
" transform="scale(0.015625)"/>
      <path id="DejaVuSans-65" d="M 3597 1894 
L 3597 1613 
L 953 1613 
Q 991 1019 1311 708 
Q 1631 397 2203 397 
Q 2534 397 2845 478 
Q 3156 559 3463 722 
L 3463 178 
Q 3153 47 2828 -22 
Q 2503 -91 2169 -91 
Q 1331 -91 842 396 
Q 353 884 353 1716 
Q 353 2575 817 3079 
Q 1281 3584 2069 3584 
Q 2775 3584 3186 3129 
Q 3597 2675 3597 1894 
z
M 3022 2063 
Q 3016 2534 2758 2815 
Q 2500 3097 2075 3097 
Q 1594 3097 1305 2825 
Q 1016 2553 972 2059 
L 3022 2063 
z
" transform="scale(0.015625)"/>
      <path id="DejaVuSans-3a" d="M 750 794 
L 1409 794 
L 1409 0 
L 750 0 
L 750 794 
z
M 750 3309 
L 1409 3309 
L 1409 2516 
L 750 2516 
L 750 3309 
z
" transform="scale(0.015625)"/>
      <path id="DejaVuSans-6d" d="M 3328 2828 
Q 3544 3216 3844 3400 
Q 4144 3584 4550 3584 
Q 5097 3584 5394 3201 
Q 5691 2819 5691 2113 
L 5691 0 
L 5113 0 
L 5113 2094 
Q 5113 2597 4934 2840 
Q 4756 3084 4391 3084 
Q 3944 3084 3684 2787 
Q 3425 2491 3425 1978 
L 3425 0 
L 2847 0 
L 2847 2094 
Q 2847 2600 2669 2842 
Q 2491 3084 2119 3084 
Q 1678 3084 1418 2786 
Q 1159 2488 1159 1978 
L 1159 0 
L 581 0 
L 581 3500 
L 1159 3500 
L 1159 2956 
Q 1356 3278 1631 3431 
Q 1906 3584 2284 3584 
Q 2666 3584 2933 3390 
Q 3200 3197 3328 2828 
z
" transform="scale(0.015625)"/>
      <path id="DejaVuSans-64" d="M 2906 2969 
L 2906 4863 
L 3481 4863 
L 3481 0 
L 2906 0 
L 2906 525 
Q 2725 213 2448 61 
Q 2172 -91 1784 -91 
Q 1150 -91 751 415 
Q 353 922 353 1747 
Q 353 2572 751 3078 
Q 1150 3584 1784 3584 
Q 2172 3584 2448 3432 
Q 2725 3281 2906 2969 
z
M 947 1747 
Q 947 1113 1208 752 
Q 1469 391 1925 391 
Q 2381 391 2643 752 
Q 2906 1113 2906 1747 
Q 2906 2381 2643 2742 
Q 2381 3103 1925 3103 
Q 1469 3103 1208 2742 
Q 947 2381 947 1747 
z
" transform="scale(0.015625)"/>
      <path id="DejaVuSans-66" d="M 2375 4863 
L 2375 4384 
L 1825 4384 
Q 1516 4384 1395 4259 
Q 1275 4134 1275 3809 
L 1275 3500 
L 2222 3500 
L 2222 3053 
L 1275 3053 
L 1275 0 
L 697 0 
L 697 3053 
L 147 3053 
L 147 3500 
L 697 3500 
L 697 3744 
Q 697 4328 969 4595 
Q 1241 4863 1831 4863 
L 2375 4863 
z
" transform="scale(0.015625)"/>
      <path id="DejaVuSans-77" d="M 269 3500 
L 844 3500 
L 1563 769 
L 2278 3500 
L 2956 3500 
L 3675 769 
L 4391 3500 
L 4966 3500 
L 4050 0 
L 3372 0 
L 2619 2869 
L 1863 0 
L 1184 0 
L 269 3500 
z
" transform="scale(0.015625)"/>
      <path id="DejaVuSans-70" d="M 1159 525 
L 1159 -1331 
L 581 -1331 
L 581 3500 
L 1159 3500 
L 1159 2969 
Q 1341 3281 1617 3432 
Q 1894 3584 2278 3584 
Q 2916 3584 3314 3078 
Q 3713 2572 3713 1747 
Q 3713 922 3314 415 
Q 2916 -91 2278 -91 
Q 1894 -91 1617 61 
Q 1341 213 1159 525 
z
M 3116 1747 
Q 3116 2381 2855 2742 
Q 2594 3103 2138 3103 
Q 1681 3103 1420 2742 
Q 1159 2381 1159 1747 
Q 1159 1113 1420 752 
Q 1681 391 2138 391 
Q 2594 391 2855 752 
Q 3116 1113 3116 1747 
z
" transform="scale(0.015625)"/>
     </defs>
     <use xlink:href="#DejaVuSans-49"/>
     <use xlink:href="#DejaVuSans-73" transform="translate(29.492188 0)"/>
     <use xlink:href="#DejaVuSans-6f" transform="translate(81.591797 0)"/>
     <use xlink:href="#DejaVuSans-6c" transform="translate(142.773438 0)"/>
     <use xlink:href="#DejaVuSans-61" transform="translate(170.556641 0)"/>
     <use xlink:href="#DejaVuSans-74" transform="translate(231.835938 0)"/>
     <use xlink:href="#DejaVuSans-69" transform="translate(271.044922 0)"/>
     <use xlink:href="#DejaVuSans-6f" transform="translate(298.828125 0)"/>
     <use xlink:href="#DejaVuSans-6e" transform="translate(360.009766 0)"/>
     <use xlink:href="#DejaVuSans-20" transform="translate(423.388672 0)"/>
     <use xlink:href="#DejaVuSans-46" transform="translate(455.175781 0)"/>
     <use xlink:href="#DejaVuSans-6f" transform="translate(509.070312 0)"/>
     <use xlink:href="#DejaVuSans-72" transform="translate(570.251953 0)"/>
     <use xlink:href="#DejaVuSans-65" transform="translate(609.115234 0)"/>
     <use xlink:href="#DejaVuSans-73" transform="translate(670.638672 0)"/>
     <use xlink:href="#DejaVuSans-74" transform="translate(722.738281 0)"/>
     <use xlink:href="#DejaVuSans-3a" transform="translate(761.947266 0)"/>
     <use xlink:href="#DejaVuSans-20" transform="translate(795.638672 0)"/>
     <use xlink:href="#DejaVuSans-61" transform="translate(827.425781 0)"/>
     <use xlink:href="#DejaVuSans-6e" transform="translate(888.705078 0)"/>
     <use xlink:href="#DejaVuSans-6f" transform="translate(952.083984 0)"/>
     <use xlink:href="#DejaVuSans-6d" transform="translate(1013.265625 0)"/>
     <use xlink:href="#DejaVuSans-61" transform="translate(1110.677734 0)"/>
     <use xlink:href="#DejaVuSans-6c" transform="translate(1171.957031 0)"/>
     <use xlink:href="#DejaVuSans-69" transform="translate(1199.740234 0)"/>
     <use xlink:href="#DejaVuSans-65" transform="translate(1227.523438 0)"/>
     <use xlink:href="#DejaVuSans-73" transform="translate(1289.046875 0)"/>
     <use xlink:href="#DejaVuSans-20" transform="translate(1341.146484 0)"/>
     <use xlink:href="#DejaVuSans-61" transform="translate(1372.933594 0)"/>
     <use xlink:href="#DejaVuSans-72" transform="translate(1434.212891 0)"/>
     <use xlink:href="#DejaVuSans-65" transform="translate(1473.076172 0)"/>
     <use xlink:href="#DejaVuSans-20" transform="translate(1534.599609 0)"/>
     <use xlink:href="#DejaVuSans-69" transform="translate(1566.386719 0)"/>
     <use xlink:href="#DejaVuSans-73" transform="translate(1594.169922 0)"/>
     <use xlink:href="#DejaVuSans-6f" transform="translate(1646.269531 0)"/>
     <use xlink:href="#DejaVuSans-6c" transform="translate(1707.451172 0)"/>
     <use xlink:href="#DejaVuSans-61" transform="translate(1735.234375 0)"/>
     <use xlink:href="#DejaVuSans-74" transform="translate(1796.513672 0)"/>
     <use xlink:href="#DejaVuSans-65" transform="translate(1835.722656 0)"/>
     <use xlink:href="#DejaVuSans-64" transform="translate(1897.246094 0)"/>
     <use xlink:href="#DejaVuSans-20" transform="translate(1960.722656 0)"/>
     <use xlink:href="#DejaVuSans-69" transform="translate(1992.509766 0)"/>
     <use xlink:href="#DejaVuSans-6e" transform="translate(2020.292969 0)"/>
     <use xlink:href="#DejaVuSans-20" transform="translate(2083.671875 0)"/>
     <use xlink:href="#DejaVuSans-66" transform="translate(2115.458984 0)"/>
     <use xlink:href="#DejaVuSans-65" transform="translate(2150.664062 0)"/>
     <use xlink:href="#DejaVuSans-77" transform="translate(2212.1875 0)"/>
     <use xlink:href="#DejaVuSans-65" transform="translate(2293.974609 0)"/>
     <use xlink:href="#DejaVuSans-72" transform="translate(2355.498047 0)"/>
     <use xlink:href="#DejaVuSans-20" transform="translate(2396.611328 0)"/>
     <use xlink:href="#DejaVuSans-72" transform="translate(2428.398438 0)"/>
     <use xlink:href="#DejaVuSans-61" transform="translate(2469.511719 0)"/>
     <use xlink:href="#DejaVuSans-6e" transform="translate(2530.791016 0)"/>
     <use xlink:href="#DejaVuSans-64" transform="translate(2594.169922 0)"/>
     <use xlink:href="#DejaVuSans-6f" transform="translate(2657.646484 0)"/>
     <use xlink:href="#DejaVuSans-6d" transform="translate(2718.828125 0)"/>
     <use xlink:href="#DejaVuSans-20" transform="translate(2816.240234 0)"/>
     <use xlink:href="#DejaVuSans-73" transform="translate(2848.027344 0)"/>
     <use xlink:href="#DejaVuSans-70" transform="translate(2900.126953 0)"/>
     <use xlink:href="#DejaVuSans-6c" transform="translate(2963.603516 0)"/>
     <use xlink:href="#DejaVuSans-69" transform="translate(2991.386719 0)"/>
     <use xlink:href="#DejaVuSans-74" transform="translate(3019.169922 0)"/>
     <use xlink:href="#DejaVuSans-73" transform="translate(3058.378906 0)"/>
    </g>
   </g>
   <g id="legend_1">
    <g id="patch_7">
     <path d="M 49.620313 59.674375 
L 226.442188 59.674375 
Q 228.442188 59.674375 228.442188 57.674375 
L 228.442188 29.318125 
Q 228.442188 27.318125 226.442188 27.318125 
L 49.620313 27.318125 
Q 47.620313 27.318125 47.620313 29.318125 
L 47.620313 57.674375 
Q 47.620313 59.674375 49.620313 59.674375 
z
" style="fill: #ffffff; opacity: 0.8; stroke: #cccccc; stroke-linejoin: miter"/>
    </g>
    <g id="PathCollection_3">
     <g>
      <use xlink:href="#m48b1557e22" x="61.620313" y="36.291562" style="fill: #7aa6c2; fill-opacity: 0.7; stroke: #7aa6c2; stroke-opacity: 0.7"/>
     </g>
    </g>
    <g id="text_18">
     <!-- normal -->
     <g transform="translate(79.620313 38.916562) scale(0.1 -0.1)">
      <use xlink:href="#DejaVuSans-6e"/>
      <use xlink:href="#DejaVuSans-6f" transform="translate(63.378906 0)"/>
      <use xlink:href="#DejaVuSans-72" transform="translate(124.560547 0)"/>
      <use xlink:href="#DejaVuSans-6d" transform="translate(163.923828 0)"/>
      <use xlink:href="#DejaVuSans-61" transform="translate(261.335938 0)"/>
      <use xlink:href="#DejaVuSans-6c" transform="translate(322.615234 0)"/>
     </g>
    </g>
    <g id="PathCollection_4">
     <g>
      <use xlink:href="#md553eb0dd1" x="61.620313" y="50.969687" style="fill: #e15759; stroke: #e15759"/>
     </g>
    </g>
    <g id="text_19">
     <!-- anomaly (isolated in 2 splits) -->
     <g transform="translate(79.620313 53.594687) scale(0.1 -0.1)">
      <defs>
       <path id="DejaVuSans-79" d="M 2059 -325 
Q 1816 -950 1584 -1140 
Q 1353 -1331 966 -1331 
L 506 -1331 
L 506 -850 
L 844 -850 
Q 1081 -850 1212 -737 
Q 1344 -625 1503 -206 
L 1606 56 
L 191 3500 
L 800 3500 
L 1894 763 
L 2988 3500 
L 3597 3500 
L 2059 -325 
z
" transform="scale(0.015625)"/>
       <path id="DejaVuSans-28" d="M 1984 4856 
Q 1566 4138 1362 3434 
Q 1159 2731 1159 2009 
Q 1159 1288 1364 580 
Q 1569 -128 1984 -844 
L 1484 -844 
Q 1016 -109 783 600 
Q 550 1309 550 2009 
Q 550 2706 781 3412 
Q 1013 4119 1484 4856 
L 1984 4856 
z
" transform="scale(0.015625)"/>
       <path id="DejaVuSans-29" d="M 513 4856 
L 1013 4856 
Q 1481 4119 1714 3412 
Q 1947 2706 1947 2009 
Q 1947 1309 1714 600 
Q 1481 -109 1013 -844 
L 513 -844 
Q 928 -128 1133 580 
Q 1338 1288 1338 2009 
Q 1338 2731 1133 3434 
Q 928 4138 513 4856 
z
" transform="scale(0.015625)"/>
      </defs>
      <use xlink:href="#DejaVuSans-61"/>
      <use xlink:href="#DejaVuSans-6e" transform="translate(61.279297 0)"/>
      <use xlink:href="#DejaVuSans-6f" transform="translate(124.658203 0)"/>
      <use xlink:href="#DejaVuSans-6d" transform="translate(185.839844 0)"/>
      <use xlink:href="#DejaVuSans-61" transform="translate(283.251953 0)"/>
      <use xlink:href="#DejaVuSans-6c" transform="translate(344.53125 0)"/>
      <use xlink:href="#DejaVuSans-79" transform="translate(372.314453 0)"/>
      <use xlink:href="#DejaVuSans-20" transform="translate(431.494141 0)"/>
      <use xlink:href="#DejaVuSans-28" transform="translate(463.28125 0)"/>
      <use xlink:href="#DejaVuSans-69" transform="translate(502.294922 0)"/>
      <use xlink:href="#DejaVuSans-73" transform="translate(530.078125 0)"/>
      <use xlink:href="#DejaVuSans-6f" transform="translate(582.177734 0)"/>
      <use xlink:href="#DejaVuSans-6c" transform="translate(643.359375 0)"/>
      <use xlink:href="#DejaVuSans-61" transform="translate(671.142578 0)"/>
      <use xlink:href="#DejaVuSans-74" transform="translate(732.421875 0)"/>
      <use xlink:href="#DejaVuSans-65" transform="translate(771.630859 0)"/>
      <use xlink:href="#DejaVuSans-64" transform="translate(833.154297 0)"/>
      <use xlink:href="#DejaVuSans-20" transform="translate(896.630859 0)"/>
      <use xlink:href="#DejaVuSans-69" transform="translate(928.417969 0)"/>
      <use xlink:href="#DejaVuSans-6e" transform="translate(956.201172 0)"/>
      <use xlink:href="#DejaVuSans-20" transform="translate(1019.580078 0)"/>
      <use xlink:href="#DejaVuSans-32" transform="translate(1051.367188 0)"/>
      <use xlink:href="#DejaVuSans-20" transform="translate(1114.990234 0)"/>
      <use xlink:href="#DejaVuSans-73" transform="translate(1146.777344 0)"/>
      <use xlink:href="#DejaVuSans-70" transform="translate(1198.876953 0)"/>
      <use xlink:href="#DejaVuSans-6c" transform="translate(1262.353516 0)"/>
      <use xlink:href="#DejaVuSans-69" transform="translate(1290.136719 0)"/>
      <use xlink:href="#DejaVuSans-74" transform="translate(1317.919922 0)"/>
      <use xlink:href="#DejaVuSans-73" transform="translate(1357.128906 0)"/>
      <use xlink:href="#DejaVuSans-29" transform="translate(1409.228516 0)"/>
     </g>
    </g>
   </g>
  </g>
 </g>
 <defs>
  <clipPath id="p3003ee3dc5">
   <rect x="42.620313" y="22.318125" width="435.16" height="435.16"/>
  </clipPath>
 </defs>
</svg>
