<?xml version="1.0" encoding="utf-8" standalone="no"?>
<!DOCTYPE svg PUBLIC "-//W3C//DTD SVG 1.1//EN"
  "http://www.w3.org/Graphics/SVG/1.1/DTD/svg11.dtd">
<svg xmlns:xlink="http://www.w3.org/1999/xlink" width="640.433125pt" height="315.034375pt" viewBox="0 0 640.433125 315.034375" xmlns="http://www.w3.org/2000/svg" version="1.1">
 <metadata>
  <rdf:RDF xmlns:dc="http://purl.org/dc/elements/1.1/" xmlns:cc="http://creativecommons.org/ns#" xmlns:rdf="http://www.w3.org/1999/02/22-rdf-syntax-ns#">
   <cc:Work>
    <dc:type rdf:resource="http://purl.org/dc/dcmitype/StillImage"/>
    <dc:date>2026-05-26T14:42:16.333436</dc:date>
    <dc:format>image/svg+xml</dc:format>
    <dc:creator>
     <cc:Agent>
      <dc:title>Matplotlib v3.10.8, https://matplotlib.org/</dc:title>
     </cc:Agent>
    </dc:creator>
   </cc:Work>
  </rdf:RDF>
 </metadata>
 <defs>
  <style type="text/css">*{stroke-linejoin: round; stroke-linecap: butt}</style>
 </defs>
 <g id="figure_1">
  <g id="patch_1">
   <path d="M 0 315.034375 
L 640.433125 315.034375 
L 640.433125 0 
L 0 0 
z
" style="fill: #ffffff"/>
  </g>
  <g id="axes_1">
   <g id="patch_2">
    <path d="M 40.603125 277.478125 
L 633.233125 277.478125 
L 633.233125 22.318125 
L 40.603125 22.318125 
z
" style="fill: #ffffff"/>
   </g>
   <g id="patch_3">
    <path d="M 344.372792 277.478125 
L 350.920857 277.478125 
L 350.920857 261.27749 
L 344.372792 261.27749 
z
" clip-path="url(#p7af36de282)" style="fill: #7aa6c2; opacity: 0.6"/>
   </g>
   <g id="patch_4">
    <path d="M 350.920857 277.478125 
L 357.468922 277.478125 
L 357.468922 277.478125 
L 350.920857 277.478125 
z
" clip-path="url(#p7af36de282)" style="fill: #7aa6c2; opacity: 0.6"/>
   </g>
   <g id="patch_5">
    <path d="M 357.468922 277.478125 
L 364.016988 277.478125 
L 364.016988 277.478125 
L 357.468922 277.478125 
z
" clip-path="url(#p7af36de282)" style="fill: #7aa6c2; opacity: 0.6"/>
   </g>
   <g id="patch_6">
    <path d="M 364.016988 277.478125 
L 370.565053 277.478125 
L 370.565053 277.478125 
L 364.016988 277.478125 
z
" clip-path="url(#p7af36de282)" style="fill: #7aa6c2; opacity: 0.6"/>
   </g>
   <g id="patch_7">
    <path d="M 370.565053 277.478125 
L 377.113118 277.478125 
L 377.113118 261.27749 
L 370.565053 261.27749 
z
" clip-path="url(#p7af36de282)" style="fill: #7aa6c2; opacity: 0.6"/>
   </g>
   <g id="patch_8">
    <path d="M 377.113118 277.478125 
L 383.661183 277.478125 
L 383.661183 277.478125 
L 377.113118 277.478125 
z
" clip-path="url(#p7af36de282)" style="fill: #7aa6c2; opacity: 0.6"/>
   </g>
   <g id="patch_9">
    <path d="M 383.661183 277.478125 
L 390.209248 277.478125 
L 390.209248 269.377808 
L 383.661183 269.377808 
z
" clip-path="url(#p7af36de282)" style="fill: #7aa6c2; opacity: 0.6"/>
   </g>
   <g id="patch_10">
    <path d="M 390.209248 277.478125 
L 396.757313 277.478125 
L 396.757313 269.377808 
L 390.209248 269.377808 
z
" clip-path="url(#p7af36de282)" style="fill: #7aa6c2; opacity: 0.6"/>
   </g>
   <g id="patch_11">
    <path d="M 396.757313 277.478125 
L 403.305378 277.478125 
L 403.305378 277.478125 
L 396.757313 277.478125 
z
" clip-path="url(#p7af36de282)" style="fill: #7aa6c2; opacity: 0.6"/>
   </g>
   <g id="patch_12">
    <path d="M 403.305378 277.478125 
L 409.853444 277.478125 
L 409.853444 277.478125 
L 403.305378 277.478125 
z
" clip-path="url(#p7af36de282)" style="fill: #7aa6c2; opacity: 0.6"/>
   </g>
   <g id="patch_13">
    <path d="M 409.853444 277.478125 
L 416.401509 277.478125 
L 416.401509 253.177173 
L 409.853444 253.177173 
z
" clip-path="url(#p7af36de282)" style="fill: #7aa6c2; opacity: 0.6"/>
   </g>
   <g id="patch_14">
    <path d="M 416.401509 277.478125 
L 422.949574 277.478125 
L 422.949574 245.076855 
L 416.401509 245.076855 
z
" clip-path="url(#p7af36de282)" style="fill: #7aa6c2; opacity: 0.6"/>
   </g>
   <g id="patch_15">
    <path d="M 422.949574 277.478125 
L 429.497639 277.478125 
L 429.497639 277.478125 
L 422.949574 277.478125 
z
" clip-path="url(#p7af36de282)" style="fill: #7aa6c2; opacity: 0.6"/>
   </g>
   <g id="patch_16">
    <path d="M 429.497639 277.478125 
L 436.045704 277.478125 
L 436.045704 261.27749 
L 429.497639 261.27749 
z
" clip-path="url(#p7af36de282)" style="fill: #7aa6c2; opacity: 0.6"/>
   </g>
   <g id="patch_17">
    <path d="M 436.045704 277.478125 
L 442.593769 277.478125 
L 442.593769 245.076855 
L 436.045704 245.076855 
z
" clip-path="url(#p7af36de282)" style="fill: #7aa6c2; opacity: 0.6"/>
   </g>
   <g id="patch_18">
    <path d="M 442.593769 277.478125 
L 449.141834 277.478125 
L 449.141834 253.177173 
L 442.593769 253.177173 
z
" clip-path="url(#p7af36de282)" style="fill: #7aa6c2; opacity: 0.6"/>
   </g>
   <g id="patch_19">
    <path d="M 449.141834 277.478125 
L 455.6899 277.478125 
L 455.6899 261.27749 
L 449.141834 261.27749 
z
" clip-path="url(#p7af36de282)" style="fill: #7aa6c2; opacity: 0.6"/>
   </g>
   <g id="patch_20">
    <path d="M 455.6899 277.478125 
L 462.237965 277.478125 
L 462.237965 245.076855 
L 455.6899 245.076855 
z
" clip-path="url(#p7af36de282)" style="fill: #7aa6c2; opacity: 0.6"/>
   </g>
   <g id="patch_21">
    <path d="M 462.237965 277.478125 
L 468.78603 277.478125 
L 468.78603 245.076855 
L 462.237965 245.076855 
z
" clip-path="url(#p7af36de282)" style="fill: #7aa6c2; opacity: 0.6"/>
   </g>
   <g id="patch_22">
    <path d="M 468.78603 277.478125 
L 475.334095 277.478125 
L 475.334095 245.076855 
L 468.78603 245.076855 
z
" clip-path="url(#p7af36de282)" style="fill: #7aa6c2; opacity: 0.6"/>
   </g>
   <g id="patch_23">
    <path d="M 475.334095 277.478125 
L 481.88216 277.478125 
L 481.88216 220.775903 
L 475.334095 220.775903 
z
" clip-path="url(#p7af36de282)" style="fill: #7aa6c2; opacity: 0.6"/>
   </g>
   <g id="patch_24">
    <path d="M 481.88216 277.478125 
L 488.430225 277.478125 
L 488.430225 212.675585 
L 481.88216 212.675585 
z
" clip-path="url(#p7af36de282)" style="fill: #7aa6c2; opacity: 0.6"/>
   </g>
   <g id="patch_25">
    <path d="M 488.430225 277.478125 
L 494.97829 277.478125 
L 494.97829 228.87622 
L 488.430225 228.87622 
z
" clip-path="url(#p7af36de282)" style="fill: #7aa6c2; opacity: 0.6"/>
   </g>
   <g id="patch_26">
    <path d="M 494.97829 277.478125 
L 501.526355 277.478125 
L 501.526355 204.575268 
L 494.97829 204.575268 
z
" clip-path="url(#p7af36de282)" style="fill: #7aa6c2; opacity: 0.6"/>
   </g>
   <g id="patch_27">
    <path d="M 501.526355 277.478125 
L 508.074421 277.478125 
L 508.074421 220.775903 
L 501.526355 220.775903 
z
" clip-path="url(#p7af36de282)" style="fill: #7aa6c2; opacity: 0.6"/>
   </g>
   <g id="patch_28">
    <path d="M 508.074421 277.478125 
L 514.622486 277.478125 
L 514.622486 196.47495 
L 508.074421 196.47495 
z
" clip-path="url(#p7af36de282)" style="fill: #7aa6c2; opacity: 0.6"/>
   </g>
   <g id="patch_29">
    <path d="M 514.622486 277.478125 
L 521.170551 277.478125 
L 521.170551 180.274315 
L 514.622486 180.274315 
z
" clip-path="url(#p7af36de282)" style="fill: #7aa6c2; opacity: 0.6"/>
   </g>
   <g id="patch_30">
    <path d="M 521.170551 277.478125 
L 527.718616 277.478125 
L 527.718616 204.575268 
L 521.170551 204.575268 
z
" clip-path="url(#p7af36de282)" style="fill: #7aa6c2; opacity: 0.6"/>
   </g>
   <g id="patch_31">
    <path d="M 527.718616 277.478125 
L 534.266681 277.478125 
L 534.266681 220.775903 
L 527.718616 220.775903 
z
" clip-path="url(#p7af36de282)" style="fill: #7aa6c2; opacity: 0.6"/>
   </g>
   <g id="patch_32">
    <path d="M 534.266681 277.478125 
L 540.814746 277.478125 
L 540.814746 220.775903 
L 534.266681 220.775903 
z
" clip-path="url(#p7af36de282)" style="fill: #7aa6c2; opacity: 0.6"/>
   </g>
   <g id="patch_33">
    <path d="M 540.814746 277.478125 
L 547.362811 277.478125 
L 547.362811 172.173998 
L 540.814746 172.173998 
z
" clip-path="url(#p7af36de282)" style="fill: #7aa6c2; opacity: 0.6"/>
   </g>
   <g id="patch_34">
    <path d="M 547.362811 277.478125 
L 553.910877 277.478125 
L 553.910877 196.47495 
L 547.362811 196.47495 
z
" clip-path="url(#p7af36de282)" style="fill: #7aa6c2; opacity: 0.6"/>
   </g>
   <g id="patch_35">
    <path d="M 553.910877 277.478125 
L 560.458942 277.478125 
L 560.458942 180.274315 
L 553.910877 180.274315 
z
" clip-path="url(#p7af36de282)" style="fill: #7aa6c2; opacity: 0.6"/>
   </g>
   <g id="patch_36">
    <path d="M 560.458942 277.478125 
L 567.007007 277.478125 
L 567.007007 164.073681 
L 560.458942 164.073681 
z
" clip-path="url(#p7af36de282)" style="fill: #7aa6c2; opacity: 0.6"/>
   </g>
   <g id="patch_37">
    <path d="M 567.007007 277.478125 
L 573.555072 277.478125 
L 573.555072 99.271141 
L 567.007007 99.271141 
z
" clip-path="url(#p7af36de282)" style="fill: #7aa6c2; opacity: 0.6"/>
   </g>
   <g id="patch_38">
    <path d="M 573.555072 277.478125 
L 580.103137 277.478125 
L 580.103137 147.873046 
L 573.555072 147.873046 
z
" clip-path="url(#p7af36de282)" style="fill: #7aa6c2; opacity: 0.6"/>
   </g>
   <g id="patch_39">
    <path d="M 580.103137 277.478125 
L 586.651202 277.478125 
L 586.651202 34.468601 
L 580.103137 34.468601 
z
" clip-path="url(#p7af36de282)" style="fill: #7aa6c2; opacity: 0.6"/>
   </g>
   <g id="patch_40">
    <path d="M 586.651202 277.478125 
L 593.199267 277.478125 
L 593.199267 42.568919 
L 586.651202 42.568919 
z
" clip-path="url(#p7af36de282)" style="fill: #7aa6c2; opacity: 0.6"/>
   </g>
   <g id="patch_41">
    <path d="M 593.199267 277.478125 
L 599.747333 277.478125 
L 599.747333 58.769554 
L 593.199267 58.769554 
z
" clip-path="url(#p7af36de282)" style="fill: #7aa6c2; opacity: 0.6"/>
   </g>
   <g id="patch_42">
    <path d="M 599.747333 277.478125 
L 606.295398 277.478125 
L 606.295398 204.575268 
L 599.747333 204.575268 
z
" clip-path="url(#p7af36de282)" style="fill: #7aa6c2; opacity: 0.6"/>
   </g>
   <g id="patch_43">
    <path d="M 67.540852 277.478125 
L 102.973342 277.478125 
L 102.973342 232.568997 
L 67.540852 232.568997 
z
" clip-path="url(#p7af36de282)" style="fill: #e15759; opacity: 0.7"/>
   </g>
   <g id="patch_44">
    <path d="M 102.973342 277.478125 
L 138.405831 277.478125 
L 138.405831 255.023561 
L 102.973342 255.023561 
z
" clip-path="url(#p7af36de282)" style="fill: #e15759; opacity: 0.7"/>
   </g>
   <g id="patch_45">
    <path d="M 138.405831 277.478125 
L 173.838321 277.478125 
L 173.838321 210.114434 
L 138.405831 210.114434 
z
" clip-path="url(#p7af36de282)" style="fill: #e15759; opacity: 0.7"/>
   </g>
   <g id="patch_46">
    <path d="M 173.838321 277.478125 
L 209.27081 277.478125 
L 209.27081 232.568997 
L 173.838321 232.568997 
z
" clip-path="url(#p7af36de282)" style="fill: #e15759; opacity: 0.7"/>
   </g>
   <g id="patch_47">
    <path d="M 209.27081 277.478125 
L 244.7033 277.478125 
L 244.7033 232.568997 
L 209.27081 232.568997 
z
" clip-path="url(#p7af36de282)" style="fill: #e15759; opacity: 0.7"/>
   </g>
   <g id="patch_48">
    <path d="M 244.7033 277.478125 
L 280.135789 277.478125 
L 280.135789 232.568997 
L 244.7033 232.568997 
z
" clip-path="url(#p7af36de282)" style="fill: #e15759; opacity: 0.7"/>
   </g>
   <g id="patch_49">
    <path d="M 280.135789 277.478125 
L 315.568279 277.478125 
L 315.568279 277.478125 
L 280.135789 277.478125 
z
" clip-path="url(#p7af36de282)" style="fill: #e15759; opacity: 0.7"/>
   </g>
   <g id="patch_50">
    <path d="M 315.568279 277.478125 
L 351.000768 277.478125 
L 351.000768 277.478125 
L 315.568279 277.478125 
z
" clip-path="url(#p7af36de282)" style="fill: #e15759; opacity: 0.7"/>
   </g>
   <g id="patch_51">
    <path d="M 351.000768 277.478125 
L 386.433258 277.478125 
L 386.433258 255.023561 
L 351.000768 255.023561 
z
" clip-path="url(#p7af36de282)" style="fill: #e15759; opacity: 0.7"/>
   </g>
   <g id="patch_52">
    <path d="M 386.433258 277.478125 
L 421.865747 277.478125 
L 421.865747 255.023561 
L 386.433258 255.023561 
z
" clip-path="url(#p7af36de282)" style="fill: #e15759; opacity: 0.7"/>
   </g>
   <g id="patch_53">
    <path d="M 421.865747 277.478125 
L 457.298237 277.478125 
L 457.298237 232.568997 
L 421.865747 232.568997 
z
" clip-path="url(#p7af36de282)" style="fill: #e15759; opacity: 0.7"/>
   </g>
   <g id="patch_54">
    <path d="M 457.298237 277.478125 
L 492.730726 277.478125 
L 492.730726 277.478125 
L 457.298237 277.478125 
z
" clip-path="url(#p7af36de282)" style="fill: #e15759; opacity: 0.7"/>
   </g>
   <g id="patch_55">
    <path d="M 492.730726 277.478125 
L 528.163215 277.478125 
L 528.163215 255.023561 
L 492.730726 255.023561 
z
" clip-path="url(#p7af36de282)" style="fill: #e15759; opacity: 0.7"/>
   </g>
   <g id="patch_56">
    <path d="M 528.163215 277.478125 
L 563.595705 277.478125 
L 563.595705 255.023561 
L 528.163215 255.023561 
z
" clip-path="url(#p7af36de282)" style="fill: #e15759; opacity: 0.7"/>
   </g>
   <g id="patch_57">
    <path d="M 563.595705 277.478125 
L 599.028194 277.478125 
L 599.028194 232.568997 
L 563.595705 232.568997 
z
" clip-path="url(#p7af36de282)" style="fill: #e15759; opacity: 0.7"/>
   </g>
   <g id="matplotlib.axis_1">
    <g id="xtick_1">
     <g id="line2d_1">
      <path d="M 103.699837 277.478125 
L 103.699837 22.318125 
" clip-path="url(#p7af36de282)" style="fill: none; stroke: #b0b0b0; stroke-opacity: 0.25; stroke-width: 0.8; stroke-linecap: square"/>
     </g>
     <g id="line2d_2">
      <defs>
       <path id="m79b5e90daa" d="M 0 0 
L 0 3.5 
" style="stroke: #000000; stroke-width: 0.8"/>
      </defs>
      <g>
       <use xlink:href="#m79b5e90daa" x="103.699837" y="277.478125" style="stroke: #000000; stroke-width: 0.8"/>
      </g>
     </g>
     <g id="text_1">
      <!-- −0.25 -->
      <g transform="translate(88.37718 292.076563) scale(0.1 -0.1)">
       <defs>
        <path id="DejaVuSans-2212" d="M 678 2272 
L 4684 2272 
L 4684 1741 
L 678 1741 
L 678 2272 
z
" transform="scale(0.015625)"/>
        <path id="DejaVuSans-30" d="M 2034 4250 
Q 1547 4250 1301 3770 
Q 1056 3291 1056 2328 
Q 1056 1369 1301 889 
Q 1547 409 2034 409 
Q 2525 409 2770 889 
Q 3016 1369 3016 2328 
Q 3016 3291 2770 3770 
Q 2525 4250 2034 4250 
z
M 2034 4750 
Q 2819 4750 3233 4129 
Q 3647 3509 3647 2328 
Q 3647 1150 3233 529 
Q 2819 -91 2034 -91 
Q 1250 -91 836 529 
Q 422 1150 422 2328 
Q 422 3509 836 4129 
Q 1250 4750 2034 4750 
z
" transform="scale(0.015625)"/>
        <path id="DejaVuSans-2e" d="M 684 794 
L 1344 794 
L 1344 0 
L 684 0 
L 684 794 
z
" transform="scale(0.015625)"/>
        <path id="DejaVuSans-32" d="M 1228 531 
L 3431 531 
L 3431 0 
L 469 0 
L 469 531 
Q 828 903 1448 1529 
Q 2069 2156 2228 2338 
Q 2531 2678 2651 2914 
Q 2772 3150 2772 3378 
Q 2772 3750 2511 3984 
Q 2250 4219 1831 4219 
Q 1534 4219 1204 4116 
Q 875 4013 500 3803 
L 500 4441 
Q 881 4594 1212 4672 
Q 1544 4750 1819 4750 
Q 2544 4750 2975 4387 
Q 3406 4025 3406 3419 
Q 3406 3131 3298 2873 
Q 3191 2616 2906 2266 
Q 2828 2175 2409 1742 
Q 1991 1309 1228 531 
z
" transform="scale(0.015625)"/>
        <path id="DejaVuSans-35" d="M 691 4666 
L 3169 4666 
L 3169 4134 
L 1269 4134 
L 1269 2991 
Q 1406 3038 1543 3061 
Q 1681 3084 1819 3084 
Q 2600 3084 3056 2656 
Q 3513 2228 3513 1497 
Q 3513 744 3044 326 
Q 2575 -91 1722 -91 
Q 1428 -91 1123 -41 
Q 819 9 494 109 
L 494 744 
Q 775 591 1075 516 
Q 1375 441 1709 441 
Q 2250 441 2565 725 
Q 2881 1009 2881 1497 
Q 2881 1984 2565 2268 
Q 2250 2553 1709 2553 
Q 1456 2553 1204 2497 
Q 953 2441 691 2322 
L 691 4666 
z
" transform="scale(0.015625)"/>
       </defs>
       <use xlink:href="#DejaVuSans-2212"/>
       <use xlink:href="#DejaVuSans-30" transform="translate(83.789062 0)"/>
       <use xlink:href="#DejaVuSans-2e" transform="translate(147.412109 0)"/>
       <use xlink:href="#DejaVuSans-32" transform="translate(179.199219 0)"/>
       <use xlink:href="#DejaVuSans-35" transform="translate(242.822266 0)"/>
      </g>
     </g>
    </g>
    <g id="xtick_2">
     <g id="line2d_3">
      <path d="M 173.945633 277.478125 
L 173.945633 22.318125 
" clip-path="url(#p7af36de282)" style="fill: none; stroke: #b0b0b0; stroke-opacity: 0.25; stroke-width: 0.8; stroke-linecap: square"/>
     </g>
     <g id="line2d_4">
      <g>
       <use xlink:href="#m79b5e90daa" x="173.945633" y="277.478125" style="stroke: #000000; stroke-width: 0.8"/>
      </g>
     </g>
     <g id="text_2">
      <!-- −0.20 -->
      <g transform="translate(158.622977 292.076563) scale(0.1 -0.1)">
       <use xlink:href="#DejaVuSans-2212"/>
       <use xlink:href="#DejaVuSans-30" transform="translate(83.789062 0)"/>
       <use xlink:href="#DejaVuSans-2e" transform="translate(147.412109 0)"/>
       <use xlink:href="#DejaVuSans-32" transform="translate(179.199219 0)"/>
       <use xlink:href="#DejaVuSans-30" transform="translate(242.822266 0)"/>
      </g>
     </g>
    </g>
    <g id="xtick_3">
     <g id="line2d_5">
      <path d="M 244.19143 277.478125 
L 244.19143 22.318125 
" clip-path="url(#p7af36de282)" style="fill: none; stroke: #b0b0b0; stroke-opacity: 0.25; stroke-width: 0.8; stroke-linecap: square"/>
     </g>
     <g id="line2d_6">
      <g>
       <use xlink:href="#m79b5e90daa" x="244.19143" y="277.478125" style="stroke: #000000; stroke-width: 0.8"/>
      </g>
     </g>
     <g id="text_3">
      <!-- −0.15 -->
      <g transform="translate(228.868774 292.076563) scale(0.1 -0.1)">
       <defs>
        <path id="DejaVuSans-31" d="M 794 531 
L 1825 531 
L 1825 4091 
L 703 3866 
L 703 4441 
L 1819 4666 
L 2450 4666 
L 2450 531 
L 3481 531 
L 3481 0 
L 794 0 
L 794 531 
z
" transform="scale(0.015625)"/>
       </defs>
       <use xlink:href="#DejaVuSans-2212"/>
       <use xlink:href="#DejaVuSans-30" transform="translate(83.789062 0)"/>
       <use xlink:href="#DejaVuSans-2e" transform="translate(147.412109 0)"/>
       <use xlink:href="#DejaVuSans-31" transform="translate(179.199219 0)"/>
       <use xlink:href="#DejaVuSans-35" transform="translate(242.822266 0)"/>
      </g>
     </g>
    </g>
    <g id="xtick_4">
     <g id="line2d_7">
      <path d="M 314.437227 277.478125 
L 314.437227 22.318125 
" clip-path="url(#p7af36de282)" style="fill: none; stroke: #b0b0b0; stroke-opacity: 0.25; stroke-width: 0.8; stroke-linecap: square"/>
     </g>
     <g id="line2d_8">
      <g>
       <use xlink:href="#m79b5e90daa" x="314.437227" y="277.478125" style="stroke: #000000; stroke-width: 0.8"/>
      </g>
     </g>
     <g id="text_4">
      <!-- −0.10 -->
      <g transform="translate(299.11457 292.076563) scale(0.1 -0.1)">
       <use xlink:href="#DejaVuSans-2212"/>
       <use xlink:href="#DejaVuSans-30" transform="translate(83.789062 0)"/>
       <use xlink:href="#DejaVuSans-2e" transform="translate(147.412109 0)"/>
       <use xlink:href="#DejaVuSans-31" transform="translate(179.199219 0)"/>
       <use xlink:href="#DejaVuSans-30" transform="translate(242.822266 0)"/>
      </g>
     </g>
    </g>
    <g id="xtick_5">
     <g id="line2d_9">
      <path d="M 384.683023 277.478125 
L 384.683023 22.318125 
" clip-path="url(#p7af36de282)" style="fill: none; stroke: #b0b0b0; stroke-opacity: 0.25; stroke-width: 0.8; stroke-linecap: square"/>
     </g>
     <g id="line2d_10">
      <g>
       <use xlink:href="#m79b5e90daa" x="384.683023" y="277.478125" style="stroke: #000000; stroke-width: 0.8"/>
      </g>
     </g>
     <g id="text_5">
      <!-- −0.05 -->
      <g transform="translate(369.360367 292.076563) scale(0.1 -0.1)">
       <use xlink:href="#DejaVuSans-2212"/>
       <use xlink:href="#DejaVuSans-30" transform="translate(83.789062 0)"/>
       <use xlink:href="#DejaVuSans-2e" transform="translate(147.412109 0)"/>
       <use xlink:href="#DejaVuSans-30" transform="translate(179.199219 0)"/>
       <use xlink:href="#DejaVuSans-35" transform="translate(242.822266 0)"/>
      </g>
     </g>
    </g>
    <g id="xtick_6">
     <g id="line2d_11">
      <path d="M 454.92882 277.478125 
L 454.92882 22.318125 
" clip-path="url(#p7af36de282)" style="fill: none; stroke: #b0b0b0; stroke-opacity: 0.25; stroke-width: 0.8; stroke-linecap: square"/>
     </g>
     <g id="line2d_12">
      <g>
       <use xlink:href="#m79b5e90daa" x="454.92882" y="277.478125" style="stroke: #000000; stroke-width: 0.8"/>
      </g>
     </g>
     <g id="text_6">
      <!-- 0.00 -->
      <g transform="translate(443.796007 292.076563) scale(0.1 -0.1)">
       <use xlink:href="#DejaVuSans-30"/>
       <use xlink:href="#DejaVuSans-2e" transform="translate(63.623047 0)"/>
       <use xlink:href="#DejaVuSans-30" transform="translate(95.410156 0)"/>
       <use xlink:href="#DejaVuSans-30" transform="translate(159.033203 0)"/>
      </g>
     </g>
    </g>
    <g id="xtick_7">
     <g id="line2d_13">
      <path d="M 525.174617 277.478125 
L 525.174617 22.318125 
" clip-path="url(#p7af36de282)" style="fill: none; stroke: #b0b0b0; stroke-opacity: 0.25; stroke-width: 0.8; stroke-linecap: square"/>
     </g>
     <g id="line2d_14">
      <g>
       <use xlink:href="#m79b5e90daa" x="525.174617" y="277.478125" style="stroke: #000000; stroke-width: 0.8"/>
      </g>
     </g>
     <g id="text_7">
      <!-- 0.05 -->
      <g transform="translate(514.041804 292.076563) scale(0.1 -0.1)">
       <use xlink:href="#DejaVuSans-30"/>
       <use xlink:href="#DejaVuSans-2e" transform="translate(63.623047 0)"/>
       <use xlink:href="#DejaVuSans-30" transform="translate(95.410156 0)"/>
       <use xlink:href="#DejaVuSans-35" transform="translate(159.033203 0)"/>
      </g>
     </g>
    </g>
    <g id="xtick_8">
     <g id="line2d_15">
      <path d="M 595.420413 277.478125 
L 595.420413 22.318125 
" clip-path="url(#p7af36de282)" style="fill: none; stroke: #b0b0b0; stroke-opacity: 0.25; stroke-width: 0.8; stroke-linecap: square"/>
     </g>
     <g id="line2d_16">
      <g>
       <use xlink:href="#m79b5e90daa" x="595.420413" y="277.478125" style="stroke: #000000; stroke-width: 0.8"/>
      </g>
     </g>
     <g id="text_8">
      <!-- 0.10 -->
      <g transform="translate(584.287601 292.076563) scale(0.1 -0.1)">
       <use xlink:href="#DejaVuSans-30"/>
       <use xlink:href="#DejaVuSans-2e" transform="translate(63.623047 0)"/>
       <use xlink:href="#DejaVuSans-31" transform="translate(95.410156 0)"/>
       <use xlink:href="#DejaVuSans-30" transform="translate(159.033203 0)"/>
      </g>
     </g>
    </g>
    <g id="text_9">
     <!-- anomaly score (higher = more normal) -->
     <g transform="translate(239.372031 305.754687) scale(0.1 -0.1)">
      <defs>
       <path id="DejaVuSans-61" d="M 2194 1759 
Q 1497 1759 1228 1600 
Q 959 1441 959 1056 
Q 959 750 1161 570 
Q 1363 391 1709 391 
Q 2188 391 2477 730 
Q 2766 1069 2766 1631 
L 2766 1759 
L 2194 1759 
z
M 3341 1997 
L 3341 0 
L 2766 0 
L 2766 531 
Q 2569 213 2275 61 
Q 1981 -91 1556 -91 
Q 1019 -91 701 211 
Q 384 513 384 1019 
Q 384 1609 779 1909 
Q 1175 2209 1959 2209 
L 2766 2209 
L 2766 2266 
Q 2766 2663 2505 2880 
Q 2244 3097 1772 3097 
Q 1472 3097 1187 3025 
Q 903 2953 641 2809 
L 641 3341 
Q 956 3463 1253 3523 
Q 1550 3584 1831 3584 
Q 2591 3584 2966 3190 
Q 3341 2797 3341 1997 
z
" transform="scale(0.015625)"/>
       <path id="DejaVuSans-6e" d="M 3513 2113 
L 3513 0 
L 2938 0 
L 2938 2094 
Q 2938 2591 2744 2837 
Q 2550 3084 2163 3084 
Q 1697 3084 1428 2787 
Q 1159 2491 1159 1978 
L 1159 0 
L 581 0 
L 581 3500 
L 1159 3500 
L 1159 2956 
Q 1366 3272 1645 3428 
Q 1925 3584 2291 3584 
Q 2894 3584 3203 3211 
Q 3513 2838 3513 2113 
z
" transform="scale(0.015625)"/>
       <path id="DejaVuSans-6f" d="M 1959 3097 
Q 1497 3097 1228 2736 
Q 959 2375 959 1747 
Q 959 1119 1226 758 
Q 1494 397 1959 397 
Q 2419 397 2687 759 
Q 2956 1122 2956 1747 
Q 2956 2369 2687 2733 
Q 2419 3097 1959 3097 
z
M 1959 3584 
Q 2709 3584 3137 3096 
Q 3566 2609 3566 1747 
Q 3566 888 3137 398 
Q 2709 -91 1959 -91 
Q 1206 -91 779 398 
Q 353 888 353 1747 
Q 353 2609 779 3096 
Q 1206 3584 1959 3584 
z
" transform="scale(0.015625)"/>
       <path id="DejaVuSans-6d" d="M 3328 2828 
Q 3544 3216 3844 3400 
Q 4144 3584 4550 3584 
Q 5097 3584 5394 3201 
Q 5691 2819 5691 2113 
L 5691 0 
L 5113 0 
L 5113 2094 
Q 5113 2597 4934 2840 
Q 4756 3084 4391 3084 
Q 3944 3084 3684 2787 
Q 3425 2491 3425 1978 
L 3425 0 
L 2847 0 
L 2847 2094 
Q 2847 2600 2669 2842 
Q 2491 3084 2119 3084 
Q 1678 3084 1418 2786 
Q 1159 2488 1159 1978 
L 1159 0 
L 581 0 
L 581 3500 
L 1159 3500 
L 1159 2956 
Q 1356 3278 1631 3431 
Q 1906 3584 2284 3584 
Q 2666 3584 2933 3390 
Q 3200 3197 3328 2828 
z
" transform="scale(0.015625)"/>
       <path id="DejaVuSans-6c" d="M 603 4863 
L 1178 4863 
L 1178 0 
L 603 0 
L 603 4863 
z
" transform="scale(0.015625)"/>
       <path id="DejaVuSans-79" d="M 2059 -325 
Q 1816 -950 1584 -1140 
Q 1353 -1331 966 -1331 
L 506 -1331 
L 506 -850 
L 844 -850 
Q 1081 -850 1212 -737 
Q 1344 -625 1503 -206 
L 1606 56 
L 191 3500 
L 800 3500 
L 1894 763 
L 2988 3500 
L 3597 3500 
L 2059 -325 
z
" transform="scale(0.015625)"/>
       <path id="DejaVuSans-20" transform="scale(0.015625)"/>
       <path id="DejaVuSans-73" d="M 2834 3397 
L 2834 2853 
Q 2591 2978 2328 3040 
Q 2066 3103 1784 3103 
Q 1356 3103 1142 2972 
Q 928 2841 928 2578 
Q 928 2378 1081 2264 
Q 1234 2150 1697 2047 
L 1894 2003 
Q 2506 1872 2764 1633 
Q 3022 1394 3022 966 
Q 3022 478 2636 193 
Q 2250 -91 1575 -91 
Q 1294 -91 989 -36 
Q 684 19 347 128 
L 347 722 
Q 666 556 975 473 
Q 1284 391 1588 391 
Q 1994 391 2212 530 
Q 2431 669 2431 922 
Q 2431 1156 2273 1281 
Q 2116 1406 1581 1522 
L 1381 1569 
Q 847 1681 609 1914 
Q 372 2147 372 2553 
Q 372 3047 722 3315 
Q 1072 3584 1716 3584 
Q 2034 3584 2315 3537 
Q 2597 3491 2834 3397 
z
" transform="scale(0.015625)"/>
       <path id="DejaVuSans-63" d="M 3122 3366 
L 3122 2828 
Q 2878 2963 2633 3030 
Q 2388 3097 2138 3097 
Q 1578 3097 1268 2742 
Q 959 2388 959 1747 
Q 959 1106 1268 751 
Q 1578 397 2138 397 
Q 2388 397 2633 464 
Q 2878 531 3122 666 
L 3122 134 
Q 2881 22 2623 -34 
Q 2366 -91 2075 -91 
Q 1284 -91 818 406 
Q 353 903 353 1747 
Q 353 2603 823 3093 
Q 1294 3584 2113 3584 
Q 2378 3584 2631 3529 
Q 2884 3475 3122 3366 
z
" transform="scale(0.015625)"/>
       <path id="DejaVuSans-72" d="M 2631 2963 
Q 2534 3019 2420 3045 
Q 2306 3072 2169 3072 
Q 1681 3072 1420 2755 
Q 1159 2438 1159 1844 
L 1159 0 
L 581 0 
L 581 3500 
L 1159 3500 
L 1159 2956 
Q 1341 3275 1631 3429 
Q 1922 3584 2338 3584 
Q 2397 3584 2469 3576 
Q 2541 3569 2628 3553 
L 2631 2963 
z
" transform="scale(0.015625)"/>
       <path id="DejaVuSans-65" d="M 3597 1894 
L 3597 1613 
L 953 1613 
Q 991 1019 1311 708 
Q 1631 397 2203 397 
Q 2534 397 2845 478 
Q 3156 559 3463 722 
L 3463 178 
Q 3153 47 2828 -22 
Q 2503 -91 2169 -91 
Q 1331 -91 842 396 
Q 353 884 353 1716 
Q 353 2575 817 3079 
Q 1281 3584 2069 3584 
Q 2775 3584 3186 3129 
Q 3597 2675 3597 1894 
z
M 3022 2063 
Q 3016 2534 2758 2815 
Q 2500 3097 2075 3097 
Q 1594 3097 1305 2825 
Q 1016 2553 972 2059 
L 3022 2063 
z
" transform="scale(0.015625)"/>
       <path id="DejaVuSans-28" d="M 1984 4856 
Q 1566 4138 1362 3434 
Q 1159 2731 1159 2009 
Q 1159 1288 1364 580 
Q 1569 -128 1984 -844 
L 1484 -844 
Q 1016 -109 783 600 
Q 550 1309 550 2009 
Q 550 2706 781 3412 
Q 1013 4119 1484 4856 
L 1984 4856 
z
" transform="scale(0.015625)"/>
       <path id="DejaVuSans-68" d="M 3513 2113 
L 3513 0 
L 2938 0 
L 2938 2094 
Q 2938 2591 2744 2837 
Q 2550 3084 2163 3084 
Q 1697 3084 1428 2787 
Q 1159 2491 1159 1978 
L 1159 0 
L 581 0 
L 581 4863 
L 1159 4863 
L 1159 2956 
Q 1366 3272 1645 3428 
Q 1925 3584 2291 3584 
Q 2894 3584 3203 3211 
Q 3513 2838 3513 2113 
z
" transform="scale(0.015625)"/>
       <path id="DejaVuSans-69" d="M 603 3500 
L 1178 3500 
L 1178 0 
L 603 0 
L 603 3500 
z
M 603 4863 
L 1178 4863 
L 1178 4134 
L 603 4134 
L 603 4863 
z
" transform="scale(0.015625)"/>
       <path id="DejaVuSans-67" d="M 2906 1791 
Q 2906 2416 2648 2759 
Q 2391 3103 1925 3103 
Q 1463 3103 1205 2759 
Q 947 2416 947 1791 
Q 947 1169 1205 825 
Q 1463 481 1925 481 
Q 2391 481 2648 825 
Q 2906 1169 2906 1791 
z
M 3481 434 
Q 3481 -459 3084 -895 
Q 2688 -1331 1869 -1331 
Q 1566 -1331 1297 -1286 
Q 1028 -1241 775 -1147 
L 775 -588 
Q 1028 -725 1275 -790 
Q 1522 -856 1778 -856 
Q 2344 -856 2625 -561 
Q 2906 -266 2906 331 
L 2906 616 
Q 2728 306 2450 153 
Q 2172 0 1784 0 
Q 1141 0 747 490 
Q 353 981 353 1791 
Q 353 2603 747 3093 
Q 1141 3584 1784 3584 
Q 2172 3584 2450 3431 
Q 2728 3278 2906 2969 
L 2906 3500 
L 3481 3500 
L 3481 434 
z
" transform="scale(0.015625)"/>
       <path id="DejaVuSans-3d" d="M 678 2906 
L 4684 2906 
L 4684 2381 
L 678 2381 
L 678 2906 
z
M 678 1631 
L 4684 1631 
L 4684 1100 
L 678 1100 
L 678 1631 
z
" transform="scale(0.015625)"/>
       <path id="DejaVuSans-29" d="M 513 4856 
L 1013 4856 
Q 1481 4119 1714 3412 
Q 1947 2706 1947 2009 
Q 1947 1309 1714 600 
Q 1481 -109 1013 -844 
L 513 -844 
Q 928 -128 1133 580 
Q 1338 1288 1338 2009 
Q 1338 2731 1133 3434 
Q 928 4138 513 4856 
z
" transform="scale(0.015625)"/>
      </defs>
      <use xlink:href="#DejaVuSans-61"/>
      <use xlink:href="#DejaVuSans-6e" transform="translate(61.279297 0)"/>
      <use xlink:href="#DejaVuSans-6f" transform="translate(124.658203 0)"/>
      <use xlink:href="#DejaVuSans-6d" transform="translate(185.839844 0)"/>
      <use xlink:href="#DejaVuSans-61" transform="translate(283.251953 0)"/>
      <use xlink:href="#DejaVuSans-6c" transform="translate(344.53125 0)"/>
      <use xlink:href="#DejaVuSans-79" transform="translate(372.314453 0)"/>
      <use xlink:href="#DejaVuSans-20" transform="translate(431.494141 0)"/>
      <use xlink:href="#DejaVuSans-73" transform="translate(463.28125 0)"/>
      <use xlink:href="#DejaVuSans-63" transform="translate(515.380859 0)"/>
      <use xlink:href="#DejaVuSans-6f" transform="translate(570.361328 0)"/>
      <use xlink:href="#DejaVuSans-72" transform="translate(631.542969 0)"/>
      <use xlink:href="#DejaVuSans-65" transform="translate(670.40625 0)"/>
      <use xlink:href="#DejaVuSans-20" transform="translate(731.929688 0)"/>
      <use xlink:href="#DejaVuSans-28" transform="translate(763.716797 0)"/>
      <use xlink:href="#DejaVuSans-68" transform="translate(802.730469 0)"/>
      <use xlink:href="#DejaVuSans-69" transform="translate(866.109375 0)"/>
      <use xlink:href="#DejaVuSans-67" transform="translate(893.892578 0)"/>
      <use xlink:href="#DejaVuSans-68" transform="translate(957.369141 0)"/>
      <use xlink:href="#DejaVuSans-65" transform="translate(1020.748047 0)"/>
      <use xlink:href="#DejaVuSans-72" transform="translate(1082.271484 0)"/>
      <use xlink:href="#DejaVuSans-20" transform="translate(1123.384766 0)"/>
      <use xlink:href="#DejaVuSans-3d" transform="translate(1155.171875 0)"/>
      <use xlink:href="#DejaVuSans-20" transform="translate(1238.960938 0)"/>
      <use xlink:href="#DejaVuSans-6d" transform="translate(1270.748047 0)"/>
      <use xlink:href="#DejaVuSans-6f" transform="translate(1368.160156 0)"/>
      <use xlink:href="#DejaVuSans-72" transform="translate(1429.341797 0)"/>
      <use xlink:href="#DejaVuSans-65" transform="translate(1468.205078 0)"/>
      <use xlink:href="#DejaVuSans-20" transform="translate(1529.728516 0)"/>
      <use xlink:href="#DejaVuSans-6e" transform="translate(1561.515625 0)"/>
      <use xlink:href="#DejaVuSans-6f" transform="translate(1624.894531 0)"/>
      <use xlink:href="#DejaVuSans-72" transform="translate(1686.076172 0)"/>
      <use xlink:href="#DejaVuSans-6d" transform="translate(1725.439453 0)"/>
      <use xlink:href="#DejaVuSans-61" transform="translate(1822.851562 0)"/>
      <use xlink:href="#DejaVuSans-6c" transform="translate(1884.130859 0)"/>
      <use xlink:href="#DejaVuSans-29" transform="translate(1911.914062 0)"/>
     </g>
    </g>
   </g>
   <g id="matplotlib.axis_2">
    <g id="ytick_1">
     <g id="line2d_17">
      <path d="M 40.603125 277.478125 
L 633.233125 277.478125 
" clip-path="url(#p7af36de282)" style="fill: none; stroke: #b0b0b0; stroke-opacity: 0.25; stroke-width: 0.8; stroke-linecap: square"/>
     </g>
     <g id="line2d_18">
      <defs>
       <path id="ma2a4bb1d64" d="M 0 0 
L -3.5 0 
" style="stroke: #000000; stroke-width: 0.8"/>
      </defs>
      <g>
       <use xlink:href="#ma2a4bb1d64" x="40.603125" y="277.478125" style="stroke: #000000; stroke-width: 0.8"/>
      </g>
     </g>
     <g id="text_10">
      <!-- 0 -->
      <g transform="translate(27.240625 281.277344) scale(0.1 -0.1)">
       <use xlink:href="#DejaVuSans-30"/>
      </g>
     </g>
    </g>
    <g id="ytick_2">
     <g id="line2d_19">
      <path d="M 40.603125 220.846901 
L 633.233125 220.846901 
" clip-path="url(#p7af36de282)" style="fill: none; stroke: #b0b0b0; stroke-opacity: 0.25; stroke-width: 0.8; stroke-linecap: square"/>
     </g>
     <g id="line2d_20">
      <g>
       <use xlink:href="#ma2a4bb1d64" x="40.603125" y="220.846901" style="stroke: #000000; stroke-width: 0.8"/>
      </g>
     </g>
     <g id="text_11">
      <!-- 5 -->
      <g transform="translate(27.240625 224.646119) scale(0.1 -0.1)">
       <use xlink:href="#DejaVuSans-35"/>
      </g>
     </g>
    </g>
    <g id="ytick_3">
     <g id="line2d_21">
      <path d="M 40.603125 164.215676 
L 633.233125 164.215676 
" clip-path="url(#p7af36de282)" style="fill: none; stroke: #b0b0b0; stroke-opacity: 0.25; stroke-width: 0.8; stroke-linecap: square"/>
     </g>
     <g id="line2d_22">
      <g>
       <use xlink:href="#ma2a4bb1d64" x="40.603125" y="164.215676" style="stroke: #000000; stroke-width: 0.8"/>
      </g>
     </g>
     <g id="text_12">
      <!-- 10 -->
      <g transform="translate(20.878125 168.014895) scale(0.1 -0.1)">
       <use xlink:href="#DejaVuSans-31"/>
       <use xlink:href="#DejaVuSans-30" transform="translate(63.623047 0)"/>
      </g>
     </g>
    </g>
    <g id="ytick_4">
     <g id="line2d_23">
      <path d="M 40.603125 107.584452 
L 633.233125 107.584452 
" clip-path="url(#p7af36de282)" style="fill: none; stroke: #b0b0b0; stroke-opacity: 0.25; stroke-width: 0.8; stroke-linecap: square"/>
     </g>
     <g id="line2d_24">
      <g>
       <use xlink:href="#ma2a4bb1d64" x="40.603125" y="107.584452" style="stroke: #000000; stroke-width: 0.8"/>
      </g>
     </g>
     <g id="text_13">
      <!-- 15 -->
      <g transform="translate(20.878125 111.38367) scale(0.1 -0.1)">
       <use xlink:href="#DejaVuSans-31"/>
       <use xlink:href="#DejaVuSans-35" transform="translate(63.623047 0)"/>
      </g>
     </g>
    </g>
    <g id="ytick_5">
     <g id="line2d_25">
      <path d="M 40.603125 50.953227 
L 633.233125 50.953227 
" clip-path="url(#p7af36de282)" style="fill: none; stroke: #b0b0b0; stroke-opacity: 0.25; stroke-width: 0.8; stroke-linecap: square"/>
     </g>
     <g id="line2d_26">
      <g>
       <use xlink:href="#ma2a4bb1d64" x="40.603125" y="50.953227" style="stroke: #000000; stroke-width: 0.8"/>
      </g>
     </g>
     <g id="text_14">
      <!-- 20 -->
      <g transform="translate(20.878125 54.752446) scale(0.1 -0.1)">
       <use xlink:href="#DejaVuSans-32"/>
       <use xlink:href="#DejaVuSans-30" transform="translate(63.623047 0)"/>
      </g>
     </g>
    </g>
    <g id="text_15">
     <!-- density -->
     <g transform="translate(14.798438 168.230937) rotate(-90) scale(0.1 -0.1)">
      <defs>
       <path id="DejaVuSans-64" d="M 2906 2969 
L 2906 4863 
L 3481 4863 
L 3481 0 
L 2906 0 
L 2906 525 
Q 2725 213 2448 61 
Q 2172 -91 1784 -91 
Q 1150 -91 751 415 
Q 353 922 353 1747 
Q 353 2572 751 3078 
Q 1150 3584 1784 3584 
Q 2172 3584 2448 3432 
Q 2725 3281 2906 2969 
z
M 947 1747 
Q 947 1113 1208 752 
Q 1469 391 1925 391 
Q 2381 391 2643 752 
Q 2906 1113 2906 1747 
Q 2906 2381 2643 2742 
Q 2381 3103 1925 3103 
Q 1469 3103 1208 2742 
Q 947 2381 947 1747 
z
" transform="scale(0.015625)"/>
       <path id="DejaVuSans-74" d="M 1172 4494 
L 1172 3500 
L 2356 3500 
L 2356 3053 
L 1172 3053 
L 1172 1153 
Q 1172 725 1289 603 
Q 1406 481 1766 481 
L 2356 481 
L 2356 0 
L 1766 0 
Q 1100 0 847 248 
Q 594 497 594 1153 
L 594 3053 
L 172 3053 
L 172 3500 
L 594 3500 
L 594 4494 
L 1172 4494 
z
" transform="scale(0.015625)"/>
      </defs>
      <use xlink:href="#DejaVuSans-64"/>
      <use xlink:href="#DejaVuSans-65" transform="translate(63.476562 0)"/>
      <use xlink:href="#DejaVuSans-6e" transform="translate(125 0)"/>
      <use xlink:href="#DejaVuSans-73" transform="translate(188.378906 0)"/>
      <use xlink:href="#DejaVuSans-69" transform="translate(240.478516 0)"/>
      <use xlink:href="#DejaVuSans-74" transform="translate(268.261719 0)"/>
      <use xlink:href="#DejaVuSans-79" transform="translate(307.470703 0)"/>
     </g>
    </g>
   </g>
   <g id="line2d_27">
    <path d="M 249.326071 277.478125 
L 249.326071 22.318125 
" clip-path="url(#p7af36de282)" style="fill: none; stroke-dasharray: 5.55,2.4; stroke-dashoffset: 0; stroke: #59a14f; stroke-width: 1.5"/>
   </g>
   <g id="line2d_28">
    <path d="M 414.520899 277.478125 
L 414.520899 22.318125 
" clip-path="url(#p7af36de282)" style="fill: none; stroke: #f28e2b; stroke-width: 1.5; stroke-linecap: square"/>
   </g>
   <g id="line2d_29">
    <path d="M 471.311329 277.478125 
L 471.311329 22.318125 
" clip-path="url(#p7af36de282)" style="fill: none; stroke-dasharray: 1.5,2.475; stroke-dashoffset: 0; stroke: #800080; stroke-width: 1.5"/>
   </g>
   <g id="patch_58">
    <path d="M 40.603125 277.478125 
L 40.603125 22.318125 
" style="fill: none; stroke: #000000; stroke-width: 0.8; stroke-linejoin: miter; stroke-linecap: square"/>
   </g>
   <g id="patch_59">
    <path d="M 633.233125 277.478125 
L 633.233125 22.318125 
" style="fill: none; stroke: #000000; stroke-width: 0.8; stroke-linejoin: miter; stroke-linecap: square"/>
   </g>
   <g id="patch_60">
    <path d="M 40.603125 277.478125 
L 633.233125 277.478125 
" style="fill: none; stroke: #000000; stroke-width: 0.8; stroke-linejoin: miter; stroke-linecap: square"/>
   </g>
   <g id="patch_61">
    <path d="M 40.603125 22.318125 
L 633.233125 22.318125 
" style="fill: none; stroke: #000000; stroke-width: 0.8; stroke-linejoin: miter; stroke-linecap: square"/>
   </g>
   <g id="text_16">
    <!-- Score histogram + threshold selection -->
    <g transform="translate(221.823125 16.318125) scale(0.12 -0.12)">
     <defs>
      <path id="DejaVuSans-53" d="M 3425 4513 
L 3425 3897 
Q 3066 4069 2747 4153 
Q 2428 4238 2131 4238 
Q 1616 4238 1336 4038 
Q 1056 3838 1056 3469 
Q 1056 3159 1242 3001 
Q 1428 2844 1947 2747 
L 2328 2669 
Q 3034 2534 3370 2195 
Q 3706 1856 3706 1288 
Q 3706 609 3251 259 
Q 2797 -91 1919 -91 
Q 1588 -91 1214 -16 
Q 841 59 441 206 
L 441 856 
Q 825 641 1194 531 
Q 1563 422 1919 422 
Q 2459 422 2753 634 
Q 3047 847 3047 1241 
Q 3047 1584 2836 1778 
Q 2625 1972 2144 2069 
L 1759 2144 
Q 1053 2284 737 2584 
Q 422 2884 422 3419 
Q 422 4038 858 4394 
Q 1294 4750 2059 4750 
Q 2388 4750 2728 4690 
Q 3069 4631 3425 4513 
z
" transform="scale(0.015625)"/>
      <path id="DejaVuSans-2b" d="M 2944 4013 
L 2944 2272 
L 4684 2272 
L 4684 1741 
L 2944 1741 
L 2944 0 
L 2419 0 
L 2419 1741 
L 678 1741 
L 678 2272 
L 2419 2272 
L 2419 4013 
L 2944 4013 
z
" transform="scale(0.015625)"/>
     </defs>
     <use xlink:href="#DejaVuSans-53"/>
     <use xlink:href="#DejaVuSans-63" transform="translate(63.476562 0)"/>
     <use xlink:href="#DejaVuSans-6f" transform="translate(118.457031 0)"/>
     <use xlink:href="#DejaVuSans-72" transform="translate(179.638672 0)"/>
     <use xlink:href="#DejaVuSans-65" transform="translate(218.501953 0)"/>
     <use xlink:href="#DejaVuSans-20" transform="translate(280.025391 0)"/>
     <use xlink:href="#DejaVuSans-68" transform="translate(311.8125 0)"/>
     <use xlink:href="#DejaVuSans-69" transform="translate(375.191406 0)"/>
     <use xlink:href="#DejaVuSans-73" transform="translate(402.974609 0)"/>
     <use xlink:href="#DejaVuSans-74" transform="translate(455.074219 0)"/>
     <use xlink:href="#DejaVuSans-6f" transform="translate(494.283203 0)"/>
     <use xlink:href="#DejaVuSans-67" transform="translate(555.464844 0)"/>
     <use xlink:href="#DejaVuSans-72" transform="translate(618.941406 0)"/>
     <use xlink:href="#DejaVuSans-61" transform="translate(660.054688 0)"/>
     <use xlink:href="#DejaVuSans-6d" transform="translate(721.333984 0)"/>
     <use xlink:href="#DejaVuSans-20" transform="translate(818.746094 0)"/>
     <use xlink:href="#DejaVuSans-2b" transform="translate(850.533203 0)"/>
     <use xlink:href="#DejaVuSans-20" transform="translate(934.322266 0)"/>
     <use xlink:href="#DejaVuSans-74" transform="translate(966.109375 0)"/>
     <use xlink:href="#DejaVuSans-68" transform="translate(1005.318359 0)"/>
     <use xlink:href="#DejaVuSans-72" transform="translate(1068.697266 0)"/>
     <use xlink:href="#DejaVuSans-65" transform="translate(1107.560547 0)"/>
     <use xlink:href="#DejaVuSans-73" transform="translate(1169.083984 0)"/>
     <use xlink:href="#DejaVuSans-68" transform="translate(1221.183594 0)"/>
     <use xlink:href="#DejaVuSans-6f" transform="translate(1284.5625 0)"/>
     <use xlink:href="#DejaVuSans-6c" transform="translate(1345.744141 0)"/>
     <use xlink:href="#DejaVuSans-64" transform="translate(1373.527344 0)"/>
     <use xlink:href="#DejaVuSans-20" transform="translate(1437.003906 0)"/>
     <use xlink:href="#DejaVuSans-73" transform="translate(1468.791016 0)"/>
     <use xlink:href="#DejaVuSans-65" transform="translate(1520.890625 0)"/>
     <use xlink:href="#DejaVuSans-6c" transform="translate(1582.414062 0)"/>
     <use xlink:href="#DejaVuSans-65" transform="translate(1610.197266 0)"/>
     <use xlink:href="#DejaVuSans-63" transform="translate(1671.720703 0)"/>
     <use xlink:href="#DejaVuSans-74" transform="translate(1726.701172 0)"/>
     <use xlink:href="#DejaVuSans-69" transform="translate(1765.910156 0)"/>
     <use xlink:href="#DejaVuSans-6f" transform="translate(1793.693359 0)"/>
     <use xlink:href="#DejaVuSans-6e" transform="translate(1854.875 0)"/>
    </g>
   </g>
   <g id="legend_1">
    <g id="patch_62">
     <path d="M 46.903125 95.569687 
L 225.312656 95.569687 
Q 227.112656 95.569687 227.112656 93.769687 
L 227.112656 28.618125 
Q 227.112656 26.818125 225.312656 26.818125 
L 46.903125 26.818125 
Q 45.103125 26.818125 45.103125 28.618125 
L 45.103125 93.769687 
Q 45.103125 95.569687 46.903125 95.569687 
z
" style="fill: #ffffff; opacity: 0.8; stroke: #cccccc; stroke-linejoin: miter"/>
    </g>
    <g id="patch_63">
     <path d="M 48.703125 37.256719 
L 66.703125 37.256719 
L 66.703125 30.956719 
L 48.703125 30.956719 
z
" style="fill: #7aa6c2; opacity: 0.6"/>
    </g>
    <g id="text_17">
     <!-- true normal -->
     <g transform="translate(73.903125 37.256719) scale(0.09 -0.09)">
      <defs>
       <path id="DejaVuSans-75" d="M 544 1381 
L 544 3500 
L 1119 3500 
L 1119 1403 
Q 1119 906 1312 657 
Q 1506 409 1894 409 
Q 2359 409 2629 706 
Q 2900 1003 2900 1516 
L 2900 3500 
L 3475 3500 
L 3475 0 
L 2900 0 
L 2900 538 
Q 2691 219 2414 64 
Q 2138 -91 1772 -91 
Q 1169 -91 856 284 
Q 544 659 544 1381 
z
M 1991 3584 
L 1991 3584 
z
" transform="scale(0.015625)"/>
      </defs>
      <use xlink:href="#DejaVuSans-74"/>
      <use xlink:href="#DejaVuSans-72" transform="translate(39.208984 0)"/>
      <use xlink:href="#DejaVuSans-75" transform="translate(80.322266 0)"/>
      <use xlink:href="#DejaVuSans-65" transform="translate(143.701172 0)"/>
      <use xlink:href="#DejaVuSans-20" transform="translate(205.224609 0)"/>
      <use xlink:href="#DejaVuSans-6e" transform="translate(237.011719 0)"/>
      <use xlink:href="#DejaVuSans-6f" transform="translate(300.390625 0)"/>
      <use xlink:href="#DejaVuSans-72" transform="translate(361.572266 0)"/>
      <use xlink:href="#DejaVuSans-6d" transform="translate(400.935547 0)"/>
      <use xlink:href="#DejaVuSans-61" transform="translate(498.347656 0)"/>
      <use xlink:href="#DejaVuSans-6c" transform="translate(559.626953 0)"/>
     </g>
    </g>
    <g id="patch_64">
     <path d="M 48.703125 50.467031 
L 66.703125 50.467031 
L 66.703125 44.167031 
L 48.703125 44.167031 
z
" style="fill: #e15759; opacity: 0.7"/>
    </g>
    <g id="text_18">
     <!-- true anomaly -->
     <g transform="translate(73.903125 50.467031) scale(0.09 -0.09)">
      <use xlink:href="#DejaVuSans-74"/>
      <use xlink:href="#DejaVuSans-72" transform="translate(39.208984 0)"/>
      <use xlink:href="#DejaVuSans-75" transform="translate(80.322266 0)"/>
      <use xlink:href="#DejaVuSans-65" transform="translate(143.701172 0)"/>
      <use xlink:href="#DejaVuSans-20" transform="translate(205.224609 0)"/>
      <use xlink:href="#DejaVuSans-61" transform="translate(237.011719 0)"/>
      <use xlink:href="#DejaVuSans-6e" transform="translate(298.291016 0)"/>
      <use xlink:href="#DejaVuSans-6f" transform="translate(361.669922 0)"/>
      <use xlink:href="#DejaVuSans-6d" transform="translate(422.851562 0)"/>
      <use xlink:href="#DejaVuSans-61" transform="translate(520.263672 0)"/>
      <use xlink:href="#DejaVuSans-6c" transform="translate(581.542969 0)"/>
      <use xlink:href="#DejaVuSans-79" transform="translate(609.326172 0)"/>
     </g>
    </g>
    <g id="line2d_30">
     <path d="M 48.703125 60.527344 
L 57.703125 60.527344 
L 66.703125 60.527344 
" style="fill: none; stroke-dasharray: 5.55,2.4; stroke-dashoffset: 0; stroke: #59a14f; stroke-width: 1.5"/>
    </g>
    <g id="text_19">
     <!-- threshold @ contamination=0.03 -->
     <g transform="translate(73.903125 63.677344) scale(0.09 -0.09)">
      <defs>
       <path id="DejaVuSans-40" d="M 2381 1678 
Q 2381 1231 2603 976 
Q 2825 722 3213 722 
Q 3597 722 3817 978 
Q 4038 1234 4038 1678 
Q 4038 2116 3813 2373 
Q 3588 2631 3206 2631 
Q 2828 2631 2604 2375 
Q 2381 2119 2381 1678 
z
M 4084 744 
Q 3897 503 3655 389 
Q 3413 275 3091 275 
Q 2553 275 2217 664 
Q 1881 1053 1881 1678 
Q 1881 2303 2218 2693 
Q 2556 3084 3091 3084 
Q 3413 3084 3656 2967 
Q 3900 2850 4084 2613 
L 4084 3022 
L 4531 3022 
L 4531 722 
Q 4988 791 5245 1139 
Q 5503 1488 5503 2041 
Q 5503 2375 5404 2669 
Q 5306 2963 5106 3213 
Q 4781 3622 4314 3839 
Q 3847 4056 3297 4056 
Q 2913 4056 2559 3954 
Q 2206 3853 1906 3653 
Q 1416 3334 1139 2817 
Q 863 2300 863 1697 
Q 863 1200 1042 765 
Q 1222 331 1563 0 
Q 1891 -325 2322 -495 
Q 2753 -666 3244 -666 
Q 3647 -666 4036 -530 
Q 4425 -394 4750 -141 
L 5031 -488 
Q 4641 -791 4180 -952 
Q 3719 -1113 3244 -1113 
Q 2666 -1113 2153 -908 
Q 1641 -703 1241 -313 
Q 841 78 631 592 
Q 422 1106 422 1697 
Q 422 2266 634 2781 
Q 847 3297 1241 3688 
Q 1644 4084 2172 4295 
Q 2700 4506 3291 4506 
Q 3953 4506 4520 4234 
Q 5088 3963 5472 3463 
Q 5706 3156 5829 2797 
Q 5953 2438 5953 2053 
Q 5953 1231 5456 756 
Q 4959 281 4084 263 
L 4084 744 
z
" transform="scale(0.015625)"/>
       <path id="DejaVuSans-33" d="M 2597 2516 
Q 3050 2419 3304 2112 
Q 3559 1806 3559 1356 
Q 3559 666 3084 287 
Q 2609 -91 1734 -91 
Q 1441 -91 1130 -33 
Q 819 25 488 141 
L 488 750 
Q 750 597 1062 519 
Q 1375 441 1716 441 
Q 2309 441 2620 675 
Q 2931 909 2931 1356 
Q 2931 1769 2642 2001 
Q 2353 2234 1838 2234 
L 1294 2234 
L 1294 2753 
L 1863 2753 
Q 2328 2753 2575 2939 
Q 2822 3125 2822 3475 
Q 2822 3834 2567 4026 
Q 2313 4219 1838 4219 
Q 1578 4219 1281 4162 
Q 984 4106 628 3988 
L 628 4550 
Q 988 4650 1302 4700 
Q 1616 4750 1894 4750 
Q 2613 4750 3031 4423 
Q 3450 4097 3450 3541 
Q 3450 3153 3228 2886 
Q 3006 2619 2597 2516 
z
" transform="scale(0.015625)"/>
      </defs>
      <use xlink:href="#DejaVuSans-74"/>
      <use xlink:href="#DejaVuSans-68" transform="translate(39.208984 0)"/>
      <use xlink:href="#DejaVuSans-72" transform="translate(102.587891 0)"/>
      <use xlink:href="#DejaVuSans-65" transform="translate(141.451172 0)"/>
      <use xlink:href="#DejaVuSans-73" transform="translate(202.974609 0)"/>
      <use xlink:href="#DejaVuSans-68" transform="translate(255.074219 0)"/>
      <use xlink:href="#DejaVuSans-6f" transform="translate(318.453125 0)"/>
      <use xlink:href="#DejaVuSans-6c" transform="translate(379.634766 0)"/>
      <use xlink:href="#DejaVuSans-64" transform="translate(407.417969 0)"/>
      <use xlink:href="#DejaVuSans-20" transform="translate(470.894531 0)"/>
      <use xlink:href="#DejaVuSans-40" transform="translate(502.681641 0)"/>
      <use xlink:href="#DejaVuSans-20" transform="translate(602.681641 0)"/>
      <use xlink:href="#DejaVuSans-63" transform="translate(634.46875 0)"/>
      <use xlink:href="#DejaVuSans-6f" transform="translate(689.449219 0)"/>
      <use xlink:href="#DejaVuSans-6e" transform="translate(750.630859 0)"/>
      <use xlink:href="#DejaVuSans-74" transform="translate(814.009766 0)"/>
      <use xlink:href="#DejaVuSans-61" transform="translate(853.21875 0)"/>
      <use xlink:href="#DejaVuSans-6d" transform="translate(914.498047 0)"/>
      <use xlink:href="#DejaVuSans-69" transform="translate(1011.910156 0)"/>
      <use xlink:href="#DejaVuSans-6e" transform="translate(1039.693359 0)"/>
      <use xlink:href="#DejaVuSans-61" transform="translate(1103.072266 0)"/>
      <use xlink:href="#DejaVuSans-74" transform="translate(1164.351562 0)"/>
      <use xlink:href="#DejaVuSans-69" transform="translate(1203.560547 0)"/>
      <use xlink:href="#DejaVuSans-6f" transform="translate(1231.34375 0)"/>
      <use xlink:href="#DejaVuSans-6e" transform="translate(1292.525391 0)"/>
      <use xlink:href="#DejaVuSans-3d" transform="translate(1355.904297 0)"/>
      <use xlink:href="#DejaVuSans-30" transform="translate(1439.693359 0)"/>
      <use xlink:href="#DejaVuSans-2e" transform="translate(1503.316406 0)"/>
      <use xlink:href="#DejaVuSans-30" transform="translate(1535.103516 0)"/>
      <use xlink:href="#DejaVuSans-33" transform="translate(1598.726562 0)"/>
     </g>
    </g>
    <g id="line2d_31">
     <path d="M 48.703125 73.737656 
L 57.703125 73.737656 
L 66.703125 73.737656 
" style="fill: none; stroke: #f28e2b; stroke-width: 1.5; stroke-linecap: square"/>
    </g>
    <g id="text_20">
     <!-- threshold @ contamination=0.07 -->
     <g transform="translate(73.903125 76.887656) scale(0.09 -0.09)">
      <defs>
       <path id="DejaVuSans-37" d="M 525 4666 
L 3525 4666 
L 3525 4397 
L 1831 0 
L 1172 0 
L 2766 4134 
L 525 4134 
L 525 4666 
z
" transform="scale(0.015625)"/>
      </defs>
      <use xlink:href="#DejaVuSans-74"/>
      <use xlink:href="#DejaVuSans-68" transform="translate(39.208984 0)"/>
      <use xlink:href="#DejaVuSans-72" transform="translate(102.587891 0)"/>
      <use xlink:href="#DejaVuSans-65" transform="translate(141.451172 0)"/>
      <use xlink:href="#DejaVuSans-73" transform="translate(202.974609 0)"/>
      <use xlink:href="#DejaVuSans-68" transform="translate(255.074219 0)"/>
      <use xlink:href="#DejaVuSans-6f" transform="translate(318.453125 0)"/>
      <use xlink:href="#DejaVuSans-6c" transform="translate(379.634766 0)"/>
      <use xlink:href="#DejaVuSans-64" transform="translate(407.417969 0)"/>
      <use xlink:href="#DejaVuSans-20" transform="translate(470.894531 0)"/>
      <use xlink:href="#DejaVuSans-40" transform="translate(502.681641 0)"/>
      <use xlink:href="#DejaVuSans-20" transform="translate(602.681641 0)"/>
      <use xlink:href="#DejaVuSans-63" transform="translate(634.46875 0)"/>
      <use xlink:href="#DejaVuSans-6f" transform="translate(689.449219 0)"/>
      <use xlink:href="#DejaVuSans-6e" transform="translate(750.630859 0)"/>
      <use xlink:href="#DejaVuSans-74" transform="translate(814.009766 0)"/>
      <use xlink:href="#DejaVuSans-61" transform="translate(853.21875 0)"/>
      <use xlink:href="#DejaVuSans-6d" transform="translate(914.498047 0)"/>
      <use xlink:href="#DejaVuSans-69" transform="translate(1011.910156 0)"/>
      <use xlink:href="#DejaVuSans-6e" transform="translate(1039.693359 0)"/>
      <use xlink:href="#DejaVuSans-61" transform="translate(1103.072266 0)"/>
      <use xlink:href="#DejaVuSans-74" transform="translate(1164.351562 0)"/>
      <use xlink:href="#DejaVuSans-69" transform="translate(1203.560547 0)"/>
      <use xlink:href="#DejaVuSans-6f" transform="translate(1231.34375 0)"/>
      <use xlink:href="#DejaVuSans-6e" transform="translate(1292.525391 0)"/>
      <use xlink:href="#DejaVuSans-3d" transform="translate(1355.904297 0)"/>
      <use xlink:href="#DejaVuSans-30" transform="translate(1439.693359 0)"/>
      <use xlink:href="#DejaVuSans-2e" transform="translate(1503.316406 0)"/>
      <use xlink:href="#DejaVuSans-30" transform="translate(1535.103516 0)"/>
      <use xlink:href="#DejaVuSans-37" transform="translate(1598.726562 0)"/>
     </g>
    </g>
    <g id="line2d_32">
     <path d="M 48.703125 86.947969 
L 57.703125 86.947969 
L 66.703125 86.947969 
" style="fill: none; stroke-dasharray: 1.5,2.475; stroke-dashoffset: 0; stroke: #800080; stroke-width: 1.5"/>
    </g>
    <g id="text_21">
     <!-- threshold @ contamination=0.15 -->
     <g transform="translate(73.903125 90.097969) scale(0.09 -0.09)">
      <use xlink:href="#DejaVuSans-74"/>
      <use xlink:href="#DejaVuSans-68" transform="translate(39.208984 0)"/>
      <use xlink:href="#DejaVuSans-72" transform="translate(102.587891 0)"/>
      <use xlink:href="#DejaVuSans-65" transform="translate(141.451172 0)"/>
      <use xlink:href="#DejaVuSans-73" transform="translate(202.974609 0)"/>
      <use xlink:href="#DejaVuSans-68" transform="translate(255.074219 0)"/>
      <use xlink:href="#DejaVuSans-6f" transform="translate(318.453125 0)"/>
      <use xlink:href="#DejaVuSans-6c" transform="translate(379.634766 0)"/>
      <use xlink:href="#DejaVuSans-64" transform="translate(407.417969 0)"/>
      <use xlink:href="#DejaVuSans-20" transform="translate(470.894531 0)"/>
      <use xlink:href="#DejaVuSans-40" transform="translate(502.681641 0)"/>
      <use xlink:href="#DejaVuSans-20" transform="translate(602.681641 0)"/>
      <use xlink:href="#DejaVuSans-63" transform="translate(634.46875 0)"/>
      <use xlink:href="#DejaVuSans-6f" transform="translate(689.449219 0)"/>
      <use xlink:href="#DejaVuSans-6e" transform="translate(750.630859 0)"/>
      <use xlink:href="#DejaVuSans-74" transform="translate(814.009766 0)"/>
      <use xlink:href="#DejaVuSans-61" transform="translate(853.21875 0)"/>
      <use xlink:href="#DejaVuSans-6d" transform="translate(914.498047 0)"/>
      <use xlink:href="#DejaVuSans-69" transform="translate(1011.910156 0)"/>
      <use xlink:href="#DejaVuSans-6e" transform="translate(1039.693359 0)"/>
      <use xlink:href="#DejaVuSans-61" transform="translate(1103.072266 0)"/>
      <use xlink:href="#DejaVuSans-74" transform="translate(1164.351562 0)"/>
      <use xlink:href="#DejaVuSans-69" transform="translate(1203.560547 0)"/>
      <use xlink:href="#DejaVuSans-6f" transform="translate(1231.34375 0)"/>
      <use xlink:href="#DejaVuSans-6e" transform="translate(1292.525391 0)"/>
      <use xlink:href="#DejaVuSans-3d" transform="translate(1355.904297 0)"/>
      <use xlink:href="#DejaVuSans-30" transform="translate(1439.693359 0)"/>
      <use xlink:href="#DejaVuSans-2e" transform="translate(1503.316406 0)"/>
      <use xlink:href="#DejaVuSans-31" transform="translate(1535.103516 0)"/>
      <use xlink:href="#DejaVuSans-35" transform="translate(1598.726562 0)"/>
     </g>
    </g>
   </g>
  </g>
 </g>
 <defs>
  <clipPath id="p7af36de282">
   <rect x="40.603125" y="22.318125" width="592.63" height="255.16"/>
  </clipPath>
 </defs>
</svg>
