<?xml version="1.0" encoding="utf-8" standalone="no"?>
<!DOCTYPE svg PUBLIC "-//W3C//DTD SVG 1.1//EN"
  "http://www.w3.org/Graphics/SVG/1.1/DTD/svg11.dtd">
<svg xmlns:xlink="http://www.w3.org/1999/xlink" width="928.433125pt" height="315.034375pt" viewBox="0 0 928.433125 315.034375" xmlns="http://www.w3.org/2000/svg" version="1.1">
 <metadata>
  <rdf:RDF xmlns:dc="http://purl.org/dc/elements/1.1/" xmlns:cc="http://creativecommons.org/ns#" xmlns:rdf="http://www.w3.org/1999/02/22-rdf-syntax-ns#">
   <cc:Work>
    <dc:type rdf:resource="http://purl.org/dc/dcmitype/StillImage"/>
    <dc:date>2026-05-26T14:42:16.530312</dc:date>
    <dc:format>image/svg+xml</dc:format>
    <dc:creator>
     <cc:Agent>
      <dc:title>Matplotlib v3.10.8, https://matplotlib.org/</dc:title>
     </cc:Agent>
    </dc:creator>
   </cc:Work>
  </rdf:RDF>
 </metadata>
 <defs>
  <style type="text/css">*{stroke-linejoin: round; stroke-linecap: butt}</style>
 </defs>
 <g id="figure_1">
  <g id="patch_1">
   <path d="M 0 315.034375 
L 928.433125 315.034375 
L 928.433125 0 
L 0 0 
z
" style="fill: #ffffff"/>
  </g>
  <g id="axes_1">
   <g id="patch_2">
    <path d="M 40.603125 277.478125 
L 921.233125 277.478125 
L 921.233125 22.318125 
L 40.603125 22.318125 
z
" style="fill: #ffffff"/>
   </g>
   <g id="PathCollection_1">
    <defs>
     <path id="C0_0_6d81521bc7" d="M 0 7.071068 
C 1.875269 7.071068 3.673985 6.326016 5 5 
C 6.326016 3.673985 7.071068 1.875269 7.071068 -0 
C 7.071068 -1.875269 6.326016 -3.673985 5 -5 
C 3.673985 -6.326016 1.875269 -7.071068 0 -7.071068 
C -1.875269 -7.071068 -3.673985 -6.326016 -5 -5 
C -6.326016 -3.673985 -7.071068 -1.875269 -7.071068 0 
C -7.071068 1.875269 -6.326016 3.673985 -5 5 
C -3.673985 6.326016 -1.875269 7.071068 0 7.071068 
z
"/>
    </defs>
    <g clip-path="url(#p0b030d089e)">
     <use xlink:href="#C0_0_6d81521bc7" x="273.154261" y="89.748694" style="fill: none; stroke: #59a14f; stroke-width: 2"/>
    </g>
    <g clip-path="url(#p0b030d089e)">
     <use xlink:href="#C0_0_6d81521bc7" x="401.502594" y="105.00407" style="fill: none; stroke: #59a14f; stroke-width: 2"/>
    </g>
    <g clip-path="url(#p0b030d089e)">
     <use xlink:href="#C0_0_6d81521bc7" x="594.025093" y="56.28172" style="fill: none; stroke: #59a14f; stroke-width: 2"/>
    </g>
    <g clip-path="url(#p0b030d089e)">
     <use xlink:href="#C0_0_6d81521bc7" x="754.46051" y="33.916307" style="fill: none; stroke: #59a14f; stroke-width: 2"/>
    </g>
   </g>
   <g id="PathCollection_2">
    <defs>
     <path id="mbf08ae6ce0" d="M -4.472136 4.472136 
L 4.472136 -4.472136 
M -4.472136 -4.472136 
L 4.472136 4.472136 
" style="stroke: #e15759; stroke-width: 1.5"/>
    </defs>
    <g clip-path="url(#p0b030d089e)">
     <use xlink:href="#mbf08ae6ce0" x="123.949324" y="228.999526" style="fill: #e15759; stroke: #e15759; stroke-width: 1.5"/>
     <use xlink:href="#mbf08ae6ce0" x="210.584449" y="243.457019" style="fill: #e15759; stroke: #e15759; stroke-width: 1.5"/>
     <use xlink:href="#mbf08ae6ce0" x="401.502594" y="105.00407" style="fill: #e15759; stroke: #e15759; stroke-width: 1.5"/>
    </g>
   </g>
   <g id="matplotlib.axis_1">
    <g id="xtick_1">
     <g id="line2d_1">
      <path d="M 80.631761 277.478125 
L 80.631761 22.318125 
" clip-path="url(#p0b030d089e)" style="fill: none; stroke: #b0b0b0; stroke-opacity: 0.25; stroke-width: 0.8; stroke-linecap: square"/>
     </g>
     <g id="line2d_2">
      <defs>
       <path id="me3aca18e56" d="M 0 0 
L 0 3.5 
" style="stroke: #000000; stroke-width: 0.8"/>
      </defs>
      <g>
       <use xlink:href="#me3aca18e56" x="80.631761" y="277.478125" style="stroke: #000000; stroke-width: 0.8"/>
      </g>
     </g>
     <g id="text_1">
      <!-- 0 -->
      <g transform="translate(77.450511 292.076563) scale(0.1 -0.1)">
       <defs>
        <path id="DejaVuSans-30" d="M 2034 4250 
Q 1547 4250 1301 3770 
Q 1056 3291 1056 2328 
Q 1056 1369 1301 889 
Q 1547 409 2034 409 
Q 2525 409 2770 889 
Q 3016 1369 3016 2328 
Q 3016 3291 2770 3770 
Q 2525 4250 2034 4250 
z
M 2034 4750 
Q 2819 4750 3233 4129 
Q 3647 3509 3647 2328 
Q 3647 1150 3233 529 
Q 2819 -91 2034 -91 
Q 1250 -91 836 529 
Q 422 1150 422 2328 
Q 422 3509 836 4129 
Q 1250 4750 2034 4750 
z
" transform="scale(0.015625)"/>
       </defs>
       <use xlink:href="#DejaVuSans-30"/>
      </g>
     </g>
    </g>
    <g id="xtick_2">
     <g id="line2d_3">
      <path d="M 241.067178 277.478125 
L 241.067178 22.318125 
" clip-path="url(#p0b030d089e)" style="fill: none; stroke: #b0b0b0; stroke-opacity: 0.25; stroke-width: 0.8; stroke-linecap: square"/>
     </g>
     <g id="line2d_4">
      <g>
       <use xlink:href="#me3aca18e56" x="241.067178" y="277.478125" style="stroke: #000000; stroke-width: 0.8"/>
      </g>
     </g>
     <g id="text_2">
      <!-- 100 -->
      <g transform="translate(231.523428 292.076563) scale(0.1 -0.1)">
       <defs>
        <path id="DejaVuSans-31" d="M 794 531 
L 1825 531 
L 1825 4091 
L 703 3866 
L 703 4441 
L 1819 4666 
L 2450 4666 
L 2450 531 
L 3481 531 
L 3481 0 
L 794 0 
L 794 531 
z
" transform="scale(0.015625)"/>
       </defs>
       <use xlink:href="#DejaVuSans-31"/>
       <use xlink:href="#DejaVuSans-30" transform="translate(63.623047 0)"/>
       <use xlink:href="#DejaVuSans-30" transform="translate(127.246094 0)"/>
      </g>
     </g>
    </g>
    <g id="xtick_3">
     <g id="line2d_5">
      <path d="M 401.502594 277.478125 
L 401.502594 22.318125 
" clip-path="url(#p0b030d089e)" style="fill: none; stroke: #b0b0b0; stroke-opacity: 0.25; stroke-width: 0.8; stroke-linecap: square"/>
     </g>
     <g id="line2d_6">
      <g>
       <use xlink:href="#me3aca18e56" x="401.502594" y="277.478125" style="stroke: #000000; stroke-width: 0.8"/>
      </g>
     </g>
     <g id="text_3">
      <!-- 200 -->
      <g transform="translate(391.958844 292.076563) scale(0.1 -0.1)">
       <defs>
        <path id="DejaVuSans-32" d="M 1228 531 
L 3431 531 
L 3431 0 
L 469 0 
L 469 531 
Q 828 903 1448 1529 
Q 2069 2156 2228 2338 
Q 2531 2678 2651 2914 
Q 2772 3150 2772 3378 
Q 2772 3750 2511 3984 
Q 2250 4219 1831 4219 
Q 1534 4219 1204 4116 
Q 875 4013 500 3803 
L 500 4441 
Q 881 4594 1212 4672 
Q 1544 4750 1819 4750 
Q 2544 4750 2975 4387 
Q 3406 4025 3406 3419 
Q 3406 3131 3298 2873 
Q 3191 2616 2906 2266 
Q 2828 2175 2409 1742 
Q 1991 1309 1228 531 
z
" transform="scale(0.015625)"/>
       </defs>
       <use xlink:href="#DejaVuSans-32"/>
       <use xlink:href="#DejaVuSans-30" transform="translate(63.623047 0)"/>
       <use xlink:href="#DejaVuSans-30" transform="translate(127.246094 0)"/>
      </g>
     </g>
    </g>
    <g id="xtick_4">
     <g id="line2d_7">
      <path d="M 561.93801 277.478125 
L 561.93801 22.318125 
" clip-path="url(#p0b030d089e)" style="fill: none; stroke: #b0b0b0; stroke-opacity: 0.25; stroke-width: 0.8; stroke-linecap: square"/>
     </g>
     <g id="line2d_8">
      <g>
       <use xlink:href="#me3aca18e56" x="561.93801" y="277.478125" style="stroke: #000000; stroke-width: 0.8"/>
      </g>
     </g>
     <g id="text_4">
      <!-- 300 -->
      <g transform="translate(552.39426 292.076563) scale(0.1 -0.1)">
       <defs>
        <path id="DejaVuSans-33" d="M 2597 2516 
Q 3050 2419 3304 2112 
Q 3559 1806 3559 1356 
Q 3559 666 3084 287 
Q 2609 -91 1734 -91 
Q 1441 -91 1130 -33 
Q 819 25 488 141 
L 488 750 
Q 750 597 1062 519 
Q 1375 441 1716 441 
Q 2309 441 2620 675 
Q 2931 909 2931 1356 
Q 2931 1769 2642 2001 
Q 2353 2234 1838 2234 
L 1294 2234 
L 1294 2753 
L 1863 2753 
Q 2328 2753 2575 2939 
Q 2822 3125 2822 3475 
Q 2822 3834 2567 4026 
Q 2313 4219 1838 4219 
Q 1578 4219 1281 4162 
Q 984 4106 628 3988 
L 628 4550 
Q 988 4650 1302 4700 
Q 1616 4750 1894 4750 
Q 2613 4750 3031 4423 
Q 3450 4097 3450 3541 
Q 3450 3153 3228 2886 
Q 3006 2619 2597 2516 
z
" transform="scale(0.015625)"/>
       </defs>
       <use xlink:href="#DejaVuSans-33"/>
       <use xlink:href="#DejaVuSans-30" transform="translate(63.623047 0)"/>
       <use xlink:href="#DejaVuSans-30" transform="translate(127.246094 0)"/>
      </g>
     </g>
    </g>
    <g id="xtick_5">
     <g id="line2d_9">
      <path d="M 722.373427 277.478125 
L 722.373427 22.318125 
" clip-path="url(#p0b030d089e)" style="fill: none; stroke: #b0b0b0; stroke-opacity: 0.25; stroke-width: 0.8; stroke-linecap: square"/>
     </g>
     <g id="line2d_10">
      <g>
       <use xlink:href="#me3aca18e56" x="722.373427" y="277.478125" style="stroke: #000000; stroke-width: 0.8"/>
      </g>
     </g>
     <g id="text_5">
      <!-- 400 -->
      <g transform="translate(712.829677 292.076563) scale(0.1 -0.1)">
       <defs>
        <path id="DejaVuSans-34" d="M 2419 4116 
L 825 1625 
L 2419 1625 
L 2419 4116 
z
M 2253 4666 
L 3047 4666 
L 3047 1625 
L 3713 1625 
L 3713 1100 
L 3047 1100 
L 3047 0 
L 2419 0 
L 2419 1100 
L 313 1100 
L 313 1709 
L 2253 4666 
z
" transform="scale(0.015625)"/>
       </defs>
       <use xlink:href="#DejaVuSans-34"/>
       <use xlink:href="#DejaVuSans-30" transform="translate(63.623047 0)"/>
       <use xlink:href="#DejaVuSans-30" transform="translate(127.246094 0)"/>
      </g>
     </g>
    </g>
    <g id="xtick_6">
     <g id="line2d_11">
      <path d="M 882.808843 277.478125 
L 882.808843 22.318125 
" clip-path="url(#p0b030d089e)" style="fill: none; stroke: #b0b0b0; stroke-opacity: 0.25; stroke-width: 0.8; stroke-linecap: square"/>
     </g>
     <g id="line2d_12">
      <g>
       <use xlink:href="#me3aca18e56" x="882.808843" y="277.478125" style="stroke: #000000; stroke-width: 0.8"/>
      </g>
     </g>
     <g id="text_6">
      <!-- 500 -->
      <g transform="translate(873.265093 292.076563) scale(0.1 -0.1)">
       <defs>
        <path id="DejaVuSans-35" d="M 691 4666 
L 3169 4666 
L 3169 4134 
L 1269 4134 
L 1269 2991 
Q 1406 3038 1543 3061 
Q 1681 3084 1819 3084 
Q 2600 3084 3056 2656 
Q 3513 2228 3513 1497 
Q 3513 744 3044 326 
Q 2575 -91 1722 -91 
Q 1428 -91 1123 -41 
Q 819 9 494 109 
L 494 744 
Q 775 591 1075 516 
Q 1375 441 1709 441 
Q 2250 441 2565 725 
Q 2881 1009 2881 1497 
Q 2881 1984 2565 2268 
Q 2250 2553 1709 2553 
Q 1456 2553 1204 2497 
Q 953 2441 691 2322 
L 691 4666 
z
" transform="scale(0.015625)"/>
       </defs>
       <use xlink:href="#DejaVuSans-35"/>
       <use xlink:href="#DejaVuSans-30" transform="translate(63.623047 0)"/>
       <use xlink:href="#DejaVuSans-30" transform="translate(127.246094 0)"/>
      </g>
     </g>
    </g>
    <g id="text_7">
     <!-- time -->
     <g transform="translate(469.622031 305.754687) scale(0.1 -0.1)">
      <defs>
       <path id="DejaVuSans-74" d="M 1172 4494 
L 1172 3500 
L 2356 3500 
L 2356 3053 
L 1172 3053 
L 1172 1153 
Q 1172 725 1289 603 
Q 1406 481 1766 481 
L 2356 481 
L 2356 0 
L 1766 0 
Q 1100 0 847 248 
Q 594 497 594 1153 
L 594 3053 
L 172 3053 
L 172 3500 
L 594 3500 
L 594 4494 
L 1172 4494 
z
" transform="scale(0.015625)"/>
       <path id="DejaVuSans-69" d="M 603 3500 
L 1178 3500 
L 1178 0 
L 603 0 
L 603 3500 
z
M 603 4863 
L 1178 4863 
L 1178 4134 
L 603 4134 
L 603 4863 
z
" transform="scale(0.015625)"/>
       <path id="DejaVuSans-6d" d="M 3328 2828 
Q 3544 3216 3844 3400 
Q 4144 3584 4550 3584 
Q 5097 3584 5394 3201 
Q 5691 2819 5691 2113 
L 5691 0 
L 5113 0 
L 5113 2094 
Q 5113 2597 4934 2840 
Q 4756 3084 4391 3084 
Q 3944 3084 3684 2787 
Q 3425 2491 3425 1978 
L 3425 0 
L 2847 0 
L 2847 2094 
Q 2847 2600 2669 2842 
Q 2491 3084 2119 3084 
Q 1678 3084 1418 2786 
Q 1159 2488 1159 1978 
L 1159 0 
L 581 0 
L 581 3500 
L 1159 3500 
L 1159 2956 
Q 1356 3278 1631 3431 
Q 1906 3584 2284 3584 
Q 2666 3584 2933 3390 
Q 3200 3197 3328 2828 
z
" transform="scale(0.015625)"/>
       <path id="DejaVuSans-65" d="M 3597 1894 
L 3597 1613 
L 953 1613 
Q 991 1019 1311 708 
Q 1631 397 2203 397 
Q 2534 397 2845 478 
Q 3156 559 3463 722 
L 3463 178 
Q 3153 47 2828 -22 
Q 2503 -91 2169 -91 
Q 1331 -91 842 396 
Q 353 884 353 1716 
Q 353 2575 817 3079 
Q 1281 3584 2069 3584 
Q 2775 3584 3186 3129 
Q 3597 2675 3597 1894 
z
M 3022 2063 
Q 3016 2534 2758 2815 
Q 2500 3097 2075 3097 
Q 1594 3097 1305 2825 
Q 1016 2553 972 2059 
L 3022 2063 
z
" transform="scale(0.015625)"/>
      </defs>
      <use xlink:href="#DejaVuSans-74"/>
      <use xlink:href="#DejaVuSans-69" transform="translate(39.208984 0)"/>
      <use xlink:href="#DejaVuSans-6d" transform="translate(66.992188 0)"/>
      <use xlink:href="#DejaVuSans-65" transform="translate(164.404297 0)"/>
     </g>
    </g>
   </g>
   <g id="matplotlib.axis_2">
    <g id="ytick_1">
     <g id="line2d_13">
      <path d="M 40.603125 258.493393 
L 921.233125 258.493393 
" clip-path="url(#p0b030d089e)" style="fill: none; stroke: #b0b0b0; stroke-opacity: 0.25; stroke-width: 0.8; stroke-linecap: square"/>
     </g>
     <g id="line2d_14">
      <defs>
       <path id="m0040a4ecde" d="M 0 0 
L -3.5 0 
" style="stroke: #000000; stroke-width: 0.8"/>
      </defs>
      <g>
       <use xlink:href="#m0040a4ecde" x="40.603125" y="258.493393" style="stroke: #000000; stroke-width: 0.8"/>
      </g>
     </g>
     <g id="text_8">
      <!-- 5 -->
      <g transform="translate(27.240625 262.292611) scale(0.1 -0.1)">
       <use xlink:href="#DejaVuSans-35"/>
      </g>
     </g>
    </g>
    <g id="ytick_2">
     <g id="line2d_15">
      <path d="M 40.603125 211.028171 
L 921.233125 211.028171 
" clip-path="url(#p0b030d089e)" style="fill: none; stroke: #b0b0b0; stroke-opacity: 0.25; stroke-width: 0.8; stroke-linecap: square"/>
     </g>
     <g id="line2d_16">
      <g>
       <use xlink:href="#m0040a4ecde" x="40.603125" y="211.028171" style="stroke: #000000; stroke-width: 0.8"/>
      </g>
     </g>
     <g id="text_9">
      <!-- 10 -->
      <g transform="translate(20.878125 214.827389) scale(0.1 -0.1)">
       <use xlink:href="#DejaVuSans-31"/>
       <use xlink:href="#DejaVuSans-30" transform="translate(63.623047 0)"/>
      </g>
     </g>
    </g>
    <g id="ytick_3">
     <g id="line2d_17">
      <path d="M 40.603125 163.562949 
L 921.233125 163.562949 
" clip-path="url(#p0b030d089e)" style="fill: none; stroke: #b0b0b0; stroke-opacity: 0.25; stroke-width: 0.8; stroke-linecap: square"/>
     </g>
     <g id="line2d_18">
      <g>
       <use xlink:href="#m0040a4ecde" x="40.603125" y="163.562949" style="stroke: #000000; stroke-width: 0.8"/>
      </g>
     </g>
     <g id="text_10">
      <!-- 15 -->
      <g transform="translate(20.878125 167.362168) scale(0.1 -0.1)">
       <use xlink:href="#DejaVuSans-31"/>
       <use xlink:href="#DejaVuSans-35" transform="translate(63.623047 0)"/>
      </g>
     </g>
    </g>
    <g id="ytick_4">
     <g id="line2d_19">
      <path d="M 40.603125 116.097727 
L 921.233125 116.097727 
" clip-path="url(#p0b030d089e)" style="fill: none; stroke: #b0b0b0; stroke-opacity: 0.25; stroke-width: 0.8; stroke-linecap: square"/>
     </g>
     <g id="line2d_20">
      <g>
       <use xlink:href="#m0040a4ecde" x="40.603125" y="116.097727" style="stroke: #000000; stroke-width: 0.8"/>
      </g>
     </g>
     <g id="text_11">
      <!-- 20 -->
      <g transform="translate(20.878125 119.896946) scale(0.1 -0.1)">
       <use xlink:href="#DejaVuSans-32"/>
       <use xlink:href="#DejaVuSans-30" transform="translate(63.623047 0)"/>
      </g>
     </g>
    </g>
    <g id="ytick_5">
     <g id="line2d_21">
      <path d="M 40.603125 68.632505 
L 921.233125 68.632505 
" clip-path="url(#p0b030d089e)" style="fill: none; stroke: #b0b0b0; stroke-opacity: 0.25; stroke-width: 0.8; stroke-linecap: square"/>
     </g>
     <g id="line2d_22">
      <g>
       <use xlink:href="#m0040a4ecde" x="40.603125" y="68.632505" style="stroke: #000000; stroke-width: 0.8"/>
      </g>
     </g>
     <g id="text_12">
      <!-- 25 -->
      <g transform="translate(20.878125 72.431724) scale(0.1 -0.1)">
       <use xlink:href="#DejaVuSans-32"/>
       <use xlink:href="#DejaVuSans-35" transform="translate(63.623047 0)"/>
      </g>
     </g>
    </g>
    <g id="text_13">
     <!-- value -->
     <g transform="translate(14.798438 163.555937) rotate(-90) scale(0.1 -0.1)">
      <defs>
       <path id="DejaVuSans-76" d="M 191 3500 
L 800 3500 
L 1894 563 
L 2988 3500 
L 3597 3500 
L 2284 0 
L 1503 0 
L 191 3500 
z
" transform="scale(0.015625)"/>
       <path id="DejaVuSans-61" d="M 2194 1759 
Q 1497 1759 1228 1600 
Q 959 1441 959 1056 
Q 959 750 1161 570 
Q 1363 391 1709 391 
Q 2188 391 2477 730 
Q 2766 1069 2766 1631 
L 2766 1759 
L 2194 1759 
z
M 3341 1997 
L 3341 0 
L 2766 0 
L 2766 531 
Q 2569 213 2275 61 
Q 1981 -91 1556 -91 
Q 1019 -91 701 211 
Q 384 513 384 1019 
Q 384 1609 779 1909 
Q 1175 2209 1959 2209 
L 2766 2209 
L 2766 2266 
Q 2766 2663 2505 2880 
Q 2244 3097 1772 3097 
Q 1472 3097 1187 3025 
Q 903 2953 641 2809 
L 641 3341 
Q 956 3463 1253 3523 
Q 1550 3584 1831 3584 
Q 2591 3584 2966 3190 
Q 3341 2797 3341 1997 
z
" transform="scale(0.015625)"/>
       <path id="DejaVuSans-6c" d="M 603 4863 
L 1178 4863 
L 1178 0 
L 603 0 
L 603 4863 
z
" transform="scale(0.015625)"/>
       <path id="DejaVuSans-75" d="M 544 1381 
L 544 3500 
L 1119 3500 
L 1119 1403 
Q 1119 906 1312 657 
Q 1506 409 1894 409 
Q 2359 409 2629 706 
Q 2900 1003 2900 1516 
L 2900 3500 
L 3475 3500 
L 3475 0 
L 2900 0 
L 2900 538 
Q 2691 219 2414 64 
Q 2138 -91 1772 -91 
Q 1169 -91 856 284 
Q 544 659 544 1381 
z
M 1991 3584 
L 1991 3584 
z
" transform="scale(0.015625)"/>
      </defs>
      <use xlink:href="#DejaVuSans-76"/>
      <use xlink:href="#DejaVuSans-61" transform="translate(59.179688 0)"/>
      <use xlink:href="#DejaVuSans-6c" transform="translate(120.458984 0)"/>
      <use xlink:href="#DejaVuSans-75" transform="translate(148.242188 0)"/>
      <use xlink:href="#DejaVuSans-65" transform="translate(211.621094 0)"/>
     </g>
    </g>
   </g>
   <g id="line2d_23">
    <path d="M 80.631761 208.448948 
L 82.236116 201.671036 
L 87.049178 184.976411 
L 88.653532 184.905253 
L 90.257886 191.838672 
L 91.862241 173.953708 
L 93.466595 175.536961 
L 95.070949 158.168374 
L 96.675303 166.180472 
L 98.279657 161.68127 
L 99.884011 167.830558 
L 101.488365 165.066308 
L 103.09272 161.833223 
L 104.697074 174.318735 
L 106.301428 162.759046 
L 107.905782 168.529882 
L 109.510136 180.042965 
L 111.11449 193.141858 
L 112.718845 175.435254 
L 114.323199 186.43453 
L 115.927553 193.403232 
L 117.531907 196.650711 
L 119.136261 186.72743 
L 120.740615 206.659859 
L 122.34497 211.382933 
L 123.949324 228.999526 
L 125.553678 210.674569 
L 127.158032 221.420947 
L 128.762386 225.128933 
L 130.36674 237.272616 
L 131.971095 234.563729 
L 133.575449 242.021842 
L 135.179803 242.863892 
L 136.784157 250.680968 
L 138.388511 262.011008 
L 139.992865 243.56131 
L 141.59722 265.879943 
L 143.201574 252.070262 
L 144.805928 250.129077 
L 146.410282 254.111625 
L 148.014636 238.473902 
L 149.61899 240.958126 
L 151.223345 238.48424 
L 152.827699 226.435884 
L 154.432053 228.780464 
L 156.036407 209.029304 
L 157.640761 211.049866 
L 159.245115 211.276248 
L 160.84947 216.300721 
L 162.453824 205.327943 
L 164.058178 181.097418 
L 165.662532 183.876739 
L 167.266886 180.059313 
L 168.87124 160.206896 
L 170.475594 177.644778 
L 172.079949 168.081258 
L 173.684303 163.529063 
L 175.288657 152.425661 
L 176.893011 159.533584 
L 178.497365 157.480737 
L 180.101719 164.075439 
L 181.706074 146.156378 
L 183.310428 146.130418 
L 184.914782 157.162917 
L 186.519136 154.309061 
L 188.12349 168.048196 
L 189.727844 165.128203 
L 191.332199 154.97083 
L 192.936553 168.807753 
L 194.540907 157.135596 
L 196.145261 185.863358 
L 197.749615 180.957273 
L 199.353969 192.514252 
L 200.958324 192.491537 
L 204.167032 212.474986 
L 205.771386 220.281195 
L 207.37574 195.610887 
L 208.980094 224.326049 
L 210.584449 243.457019 
L 213.793157 230.1966 
L 215.397511 241.824955 
L 217.001865 229.700283 
L 218.606219 233.711968 
L 220.210574 243.038759 
L 221.814928 245.278186 
L 223.419282 248.38593 
L 225.023636 244.39865 
L 226.62799 247.886337 
L 228.232344 224.490471 
L 229.836699 217.863216 
L 231.441053 235.213087 
L 233.045407 229.864959 
L 234.649761 229.09892 
L 236.254115 217.404707 
L 237.858469 227.816799 
L 239.462823 206.855876 
L 241.067178 182.192742 
L 242.671532 188.528439 
L 244.275886 173.368155 
L 245.88024 177.71283 
L 247.484594 155.044819 
L 249.088948 161.680472 
L 250.693303 161.311828 
L 252.297657 134.756254 
L 253.902011 152.911163 
L 255.506365 156.660019 
L 257.110719 143.467972 
L 258.715073 143.62406 
L 260.319428 134.294058 
L 261.923782 149.20162 
L 263.528136 136.648176 
L 265.13249 137.575917 
L 266.736844 151.127199 
L 268.341198 147.498488 
L 269.945553 158.361096 
L 271.549907 138.127457 
L 273.154261 89.748694 
L 274.758615 168.629303 
L 276.362969 178.486467 
L 277.967323 178.499757 
L 279.571678 181.581076 
L 281.176032 181.464635 
L 282.780386 197.69097 
L 284.38474 200.130807 
L 285.989094 214.956528 
L 287.593448 215.686314 
L 289.197803 193.31681 
L 292.406511 228.47359 
L 294.010865 236.009662 
L 295.615219 235.943629 
L 297.219573 230.703789 
L 298.823928 231.567834 
L 300.428282 238.041788 
L 302.032636 241.969735 
L 303.63699 220.459828 
L 305.241344 226.159459 
L 306.845698 230.050235 
L 308.450052 225.819934 
L 310.054407 224.472131 
L 311.658761 238.477991 
L 313.263115 210.519313 
L 314.867469 214.305207 
L 316.471823 208.206555 
L 318.076177 199.595312 
L 319.680532 183.12645 
L 321.284886 191.438558 
L 322.88924 187.302765 
L 324.493594 165.50588 
L 326.097948 158.777335 
L 327.702302 166.205609 
L 329.306657 149.429283 
L 330.911011 151.132476 
L 332.515365 142.359285 
L 334.119719 150.53022 
L 335.724073 131.56711 
L 337.328427 126.370248 
L 338.932782 128.997874 
L 340.537136 128.65887 
L 342.14149 161.357586 
L 343.745844 131.287167 
L 345.350198 134.752258 
L 346.954552 137.680174 
L 348.558907 144.034074 
L 350.163261 142.138494 
L 351.767615 143.319701 
L 353.371969 152.855785 
L 354.976323 159.214099 
L 356.580677 151.559698 
L 358.185032 174.772756 
L 359.789386 164.219959 
L 361.39374 176.459724 
L 362.998094 189.669872 
L 364.602448 191.429163 
L 366.206802 201.692878 
L 367.811157 194.782883 
L 369.415511 202.110451 
L 371.019865 213.384083 
L 372.624219 221.416797 
L 374.228573 214.068477 
L 375.832927 211.770781 
L 377.437281 221.910538 
L 379.041636 219.161377 
L 380.64599 225.751459 
L 382.250344 222.192734 
L 383.854698 223.981074 
L 385.459052 217.863627 
L 387.063406 229.178428 
L 388.667761 209.758829 
L 390.272115 212.703809 
L 391.876469 203.963913 
L 393.480823 204.489118 
L 395.085177 194.249019 
L 396.689531 199.244198 
L 398.293886 176.208879 
L 399.89824 192.132283 
L 401.502594 105.00407 
L 403.106948 165.127412 
L 404.711302 149.762689 
L 406.315656 152.901085 
L 407.920011 151.312729 
L 409.524365 155.030086 
L 411.128719 140.877286 
L 412.733073 135.30534 
L 414.337427 118.621979 
L 415.941781 123.674738 
L 417.546136 137.627873 
L 419.15049 108.950798 
L 420.754844 126.405979 
L 422.359198 129.895242 
L 423.963552 112.573013 
L 425.567906 125.443838 
L 427.172261 129.860617 
L 428.776615 128.09059 
L 430.380969 126.649462 
L 431.985323 129.412628 
L 433.589677 151.803304 
L 435.194031 131.025031 
L 436.798386 144.215061 
L 438.40274 159.76489 
L 440.007094 168.767622 
L 441.611448 175.668573 
L 443.215802 173.13159 
L 444.820156 184.655188 
L 446.42451 191.021788 
L 448.028865 184.255553 
L 449.633219 192.490841 
L 451.237573 202.659032 
L 452.841927 197.976831 
L 454.446281 196.482327 
L 456.050635 217.860621 
L 457.65499 216.134632 
L 459.259344 205.686803 
L 460.863698 207.942753 
L 462.468052 211.49119 
L 464.072406 203.447968 
L 465.67676 218.86802 
L 467.281115 219.45273 
L 468.885469 211.738682 
L 470.489823 200.533904 
L 472.094177 203.240124 
L 473.698531 196.111757 
L 475.302885 194.593513 
L 476.90724 186.317454 
L 478.511594 183.377583 
L 480.115948 166.911081 
L 481.720302 157.5262 
L 483.324656 161.072834 
L 484.92901 152.953173 
L 486.533365 149.932867 
L 488.137719 135.902407 
L 489.742073 134.037957 
L 491.346427 117.824881 
L 492.950781 133.980832 
L 494.555135 119.214848 
L 496.15949 115.53452 
L 497.763844 119.259571 
L 499.368198 110.418384 
L 500.972552 124.837826 
L 502.576906 97.632084 
L 504.18126 124.472484 
L 505.785615 108.58751 
L 507.389969 126.091652 
L 508.994323 111.518794 
L 510.598677 126.495012 
L 512.203031 126.260279 
L 513.807385 131.461258 
L 515.41174 128.349871 
L 517.016094 144.354867 
L 518.620448 169.926113 
L 520.224802 158.829535 
L 521.829156 157.421235 
L 523.43351 167.920643 
L 525.037864 164.394471 
L 526.642219 168.009122 
L 528.246573 182.045772 
L 529.850927 197.079495 
L 531.455281 179.657489 
L 533.059635 185.834802 
L 534.663989 199.64594 
L 536.268344 184.044235 
L 537.872698 204.709438 
L 539.477052 211.988222 
L 541.081406 205.093427 
L 542.68576 195.534257 
L 544.290114 209.902286 
L 545.894469 186.292169 
L 547.498823 205.53508 
L 549.103177 188.416705 
L 550.707531 187.836628 
L 552.311885 188.871226 
L 553.916239 174.712528 
L 555.520594 189.086018 
L 557.124948 161.802609 
L 558.729302 166.737391 
L 560.333656 164.328225 
L 561.93801 148.38035 
L 563.542364 139.881739 
L 565.146719 136.0399 
L 566.751073 120.842105 
L 568.355427 122.236411 
L 569.959781 115.473734 
L 571.564135 124.538521 
L 573.168489 115.359308 
L 574.772844 108.19927 
L 576.377198 109.548082 
L 577.981552 104.738438 
L 579.585906 102.120927 
L 581.19026 98.008458 
L 582.794614 105.001815 
L 584.398969 107.443897 
L 586.003323 112.370472 
L 587.607677 114.856517 
L 589.212031 101.861952 
L 590.816385 114.721719 
L 592.420739 111.993969 
L 594.025093 56.28172 
L 595.629448 141.935573 
L 597.233802 140.387107 
L 598.838156 129.190999 
L 600.44251 135.452828 
L 602.046864 146.801736 
L 603.651218 161.174521 
L 605.255573 161.741153 
L 606.859927 168.488236 
L 608.464281 174.050362 
L 610.068635 195.305621 
L 611.672989 187.191864 
L 613.277343 186.010708 
L 614.881698 176.364294 
L 616.486052 189.341698 
L 618.090406 181.927926 
L 619.69476 196.849376 
L 621.299114 196.335639 
L 622.903468 223.840658 
L 624.507823 189.77108 
L 626.112177 187.462695 
L 627.716531 175.83867 
L 629.320885 189.868636 
L 630.925239 181.763421 
L 632.529593 183.566292 
L 634.133948 182.35853 
L 637.342656 165.239625 
L 638.94701 146.466916 
L 640.551364 150.698895 
L 642.155718 150.580602 
L 643.760073 137.360547 
L 645.364427 130.740686 
L 646.968781 131.669765 
L 648.573135 112.268657 
L 650.177489 130.069142 
L 651.781843 112.567265 
L 653.386198 101.62445 
L 654.990552 113.1464 
L 656.594906 97.176777 
L 658.19926 87.71735 
L 659.803614 92.418531 
L 661.407968 107.76278 
L 663.012322 100.267339 
L 664.616677 85.935677 
L 666.221031 94.32115 
L 667.825385 98.666142 
L 669.429739 97.922343 
L 671.034093 99.110822 
L 672.638447 113.857716 
L 674.242802 115.08571 
L 675.847156 116.637888 
L 677.45151 127.057859 
L 679.055864 129.419428 
L 680.660218 124.214626 
L 682.264572 147.180383 
L 683.868927 130.957531 
L 685.473281 136.982177 
L 687.077635 169.746474 
L 688.681989 163.008427 
L 690.286343 164.177842 
L 691.890697 176.961739 
L 693.495052 180.701982 
L 695.099406 180.190701 
L 696.70376 175.455766 
L 698.308114 186.957129 
L 699.912468 170.493642 
L 701.516822 182.721378 
L 703.121177 185.512708 
L 704.725531 172.790459 
L 706.329885 177.368281 
L 707.934239 176.935856 
L 709.538593 179.193739 
L 711.142947 159.209227 
L 712.747302 162.549835 
L 714.351656 165.477272 
L 715.95601 170.687741 
L 717.560364 150.294155 
L 719.164718 155.953718 
L 720.769072 154.254287 
L 722.373427 137.203814 
L 723.977781 126.807371 
L 725.582135 113.160252 
L 727.186489 114.896057 
L 728.790843 105.336564 
L 730.395197 115.545041 
L 731.999551 101.623589 
L 733.603906 96.238893 
L 735.20826 86.940443 
L 736.812614 89.545836 
L 738.416968 81.936572 
L 740.021322 90.199972 
L 741.625676 82.715459 
L 743.230031 82.093388 
L 744.834385 95.292622 
L 746.438739 85.760677 
L 748.043093 91.531197 
L 749.647447 106.240441 
L 751.251801 87.81518 
L 752.856156 101.732391 
L 754.46051 33.916307 
L 756.064864 111.0957 
L 757.669218 112.384209 
L 759.273572 107.461173 
L 760.877926 125.838354 
L 762.482281 126.749625 
L 764.086635 125.664842 
L 765.690989 137.709677 
L 767.295343 139.125683 
L 768.899697 156.063218 
L 770.504051 151.431662 
L 772.108406 162.130603 
L 773.71276 157.421302 
L 775.317114 176.516087 
L 776.921468 177.496663 
L 778.525822 163.945493 
L 780.130176 176.362453 
L 781.734531 178.156626 
L 783.338885 174.651543 
L 784.943239 179.540067 
L 786.547593 162.516146 
L 788.151947 179.734021 
L 789.756301 168.329577 
L 791.360656 160.857469 
L 792.96501 160.015333 
L 794.569364 160.532354 
L 796.173718 155.811686 
L 797.778072 140.402837 
L 799.382426 145.600531 
L 800.98678 126.821753 
L 802.591135 137.165818 
L 804.195489 123.666724 
L 805.799843 113.131205 
L 807.404197 117.057462 
L 809.008551 97.013128 
L 810.612905 96.882901 
L 812.21726 99.82782 
L 813.821614 99.224262 
L 815.425968 95.885439 
L 817.030322 80.546632 
L 818.634676 87.335525 
L 820.23903 87.243309 
L 821.843385 77.696911 
L 823.447739 58.454689 
L 825.052093 74.200474 
L 826.656447 71.806812 
L 828.260801 77.989705 
L 829.865155 76.340616 
L 831.46951 95.800693 
L 833.073864 92.76073 
L 834.678218 91.909384 
L 837.886926 105.398798 
L 839.49128 114.476803 
L 841.095635 117.047414 
L 842.699989 126.723845 
L 844.304343 144.995813 
L 845.908697 141.340265 
L 847.513051 134.135464 
L 849.117405 131.126222 
L 850.72176 134.021184 
L 852.326114 151.462489 
L 853.930468 149.303061 
L 855.534822 152.505995 
L 857.139176 167.340636 
L 858.74353 176.982643 
L 860.347885 165.14569 
L 861.952239 179.3204 
L 863.556593 168.177302 
L 865.160947 160.192373 
L 866.765301 173.92307 
L 868.369655 160.509026 
L 869.974009 148.275589 
L 871.578364 151.253852 
L 873.182718 145.762334 
L 874.787072 138.060207 
L 876.391426 126.562839 
L 877.99578 132.99045 
L 879.600134 118.944204 
L 881.204489 122.723887 
L 881.204489 122.723887 
" clip-path="url(#p0b030d089e)" style="fill: none; stroke: #7aa6c2; stroke-opacity: 0.7; stroke-linecap: square"/>
   </g>
   <g id="patch_3">
    <path d="M 40.603125 277.478125 
L 40.603125 22.318125 
" style="fill: none; stroke: #000000; stroke-width: 0.8; stroke-linejoin: miter; stroke-linecap: square"/>
   </g>
   <g id="patch_4">
    <path d="M 921.233125 277.478125 
L 921.233125 22.318125 
" style="fill: none; stroke: #000000; stroke-width: 0.8; stroke-linejoin: miter; stroke-linecap: square"/>
   </g>
   <g id="patch_5">
    <path d="M 40.603125 277.478125 
L 921.233125 277.478125 
" style="fill: none; stroke: #000000; stroke-width: 0.8; stroke-linejoin: miter; stroke-linecap: square"/>
   </g>
   <g id="patch_6">
    <path d="M 40.603125 22.318125 
L 921.233125 22.318125 
" style="fill: none; stroke: #000000; stroke-width: 0.8; stroke-linejoin: miter; stroke-linecap: square"/>
   </g>
   <g id="text_14">
    <!-- Time-series anomaly detection: rolling z-score with threshold -->
    <g transform="translate(297.585313 16.318125) scale(0.12 -0.12)">
     <defs>
      <path id="DejaVuSans-54" d="M -19 4666 
L 3928 4666 
L 3928 4134 
L 2272 4134 
L 2272 0 
L 1638 0 
L 1638 4134 
L -19 4134 
L -19 4666 
z
" transform="scale(0.015625)"/>
      <path id="DejaVuSans-2d" d="M 313 2009 
L 1997 2009 
L 1997 1497 
L 313 1497 
L 313 2009 
z
" transform="scale(0.015625)"/>
      <path id="DejaVuSans-73" d="M 2834 3397 
L 2834 2853 
Q 2591 2978 2328 3040 
Q 2066 3103 1784 3103 
Q 1356 3103 1142 2972 
Q 928 2841 928 2578 
Q 928 2378 1081 2264 
Q 1234 2150 1697 2047 
L 1894 2003 
Q 2506 1872 2764 1633 
Q 3022 1394 3022 966 
Q 3022 478 2636 193 
Q 2250 -91 1575 -91 
Q 1294 -91 989 -36 
Q 684 19 347 128 
L 347 722 
Q 666 556 975 473 
Q 1284 391 1588 391 
Q 1994 391 2212 530 
Q 2431 669 2431 922 
Q 2431 1156 2273 1281 
Q 2116 1406 1581 1522 
L 1381 1569 
Q 847 1681 609 1914 
Q 372 2147 372 2553 
Q 372 3047 722 3315 
Q 1072 3584 1716 3584 
Q 2034 3584 2315 3537 
Q 2597 3491 2834 3397 
z
" transform="scale(0.015625)"/>
      <path id="DejaVuSans-72" d="M 2631 2963 
Q 2534 3019 2420 3045 
Q 2306 3072 2169 3072 
Q 1681 3072 1420 2755 
Q 1159 2438 1159 1844 
L 1159 0 
L 581 0 
L 581 3500 
L 1159 3500 
L 1159 2956 
Q 1341 3275 1631 3429 
Q 1922 3584 2338 3584 
Q 2397 3584 2469 3576 
Q 2541 3569 2628 3553 
L 2631 2963 
z
" transform="scale(0.015625)"/>
      <path id="DejaVuSans-20" transform="scale(0.015625)"/>
      <path id="DejaVuSans-6e" d="M 3513 2113 
L 3513 0 
L 2938 0 
L 2938 2094 
Q 2938 2591 2744 2837 
Q 2550 3084 2163 3084 
Q 1697 3084 1428 2787 
Q 1159 2491 1159 1978 
L 1159 0 
L 581 0 
L 581 3500 
L 1159 3500 
L 1159 2956 
Q 1366 3272 1645 3428 
Q 1925 3584 2291 3584 
Q 2894 3584 3203 3211 
Q 3513 2838 3513 2113 
z
" transform="scale(0.015625)"/>
      <path id="DejaVuSans-6f" d="M 1959 3097 
Q 1497 3097 1228 2736 
Q 959 2375 959 1747 
Q 959 1119 1226 758 
Q 1494 397 1959 397 
Q 2419 397 2687 759 
Q 2956 1122 2956 1747 
Q 2956 2369 2687 2733 
Q 2419 3097 1959 3097 
z
M 1959 3584 
Q 2709 3584 3137 3096 
Q 3566 2609 3566 1747 
Q 3566 888 3137 398 
Q 2709 -91 1959 -91 
Q 1206 -91 779 398 
Q 353 888 353 1747 
Q 353 2609 779 3096 
Q 1206 3584 1959 3584 
z
" transform="scale(0.015625)"/>
      <path id="DejaVuSans-79" d="M 2059 -325 
Q 1816 -950 1584 -1140 
Q 1353 -1331 966 -1331 
L 506 -1331 
L 506 -850 
L 844 -850 
Q 1081 -850 1212 -737 
Q 1344 -625 1503 -206 
L 1606 56 
L 191 3500 
L 800 3500 
L 1894 763 
L 2988 3500 
L 3597 3500 
L 2059 -325 
z
" transform="scale(0.015625)"/>
      <path id="DejaVuSans-64" d="M 2906 2969 
L 2906 4863 
L 3481 4863 
L 3481 0 
L 2906 0 
L 2906 525 
Q 2725 213 2448 61 
Q 2172 -91 1784 -91 
Q 1150 -91 751 415 
Q 353 922 353 1747 
Q 353 2572 751 3078 
Q 1150 3584 1784 3584 
Q 2172 3584 2448 3432 
Q 2725 3281 2906 2969 
z
M 947 1747 
Q 947 1113 1208 752 
Q 1469 391 1925 391 
Q 2381 391 2643 752 
Q 2906 1113 2906 1747 
Q 2906 2381 2643 2742 
Q 2381 3103 1925 3103 
Q 1469 3103 1208 2742 
Q 947 2381 947 1747 
z
" transform="scale(0.015625)"/>
      <path id="DejaVuSans-63" d="M 3122 3366 
L 3122 2828 
Q 2878 2963 2633 3030 
Q 2388 3097 2138 3097 
Q 1578 3097 1268 2742 
Q 959 2388 959 1747 
Q 959 1106 1268 751 
Q 1578 397 2138 397 
Q 2388 397 2633 464 
Q 2878 531 3122 666 
L 3122 134 
Q 2881 22 2623 -34 
Q 2366 -91 2075 -91 
Q 1284 -91 818 406 
Q 353 903 353 1747 
Q 353 2603 823 3093 
Q 1294 3584 2113 3584 
Q 2378 3584 2631 3529 
Q 2884 3475 3122 3366 
z
" transform="scale(0.015625)"/>
      <path id="DejaVuSans-3a" d="M 750 794 
L 1409 794 
L 1409 0 
L 750 0 
L 750 794 
z
M 750 3309 
L 1409 3309 
L 1409 2516 
L 750 2516 
L 750 3309 
z
" transform="scale(0.015625)"/>
      <path id="DejaVuSans-67" d="M 2906 1791 
Q 2906 2416 2648 2759 
Q 2391 3103 1925 3103 
Q 1463 3103 1205 2759 
Q 947 2416 947 1791 
Q 947 1169 1205 825 
Q 1463 481 1925 481 
Q 2391 481 2648 825 
Q 2906 1169 2906 1791 
z
M 3481 434 
Q 3481 -459 3084 -895 
Q 2688 -1331 1869 -1331 
Q 1566 -1331 1297 -1286 
Q 1028 -1241 775 -1147 
L 775 -588 
Q 1028 -725 1275 -790 
Q 1522 -856 1778 -856 
Q 2344 -856 2625 -561 
Q 2906 -266 2906 331 
L 2906 616 
Q 2728 306 2450 153 
Q 2172 0 1784 0 
Q 1141 0 747 490 
Q 353 981 353 1791 
Q 353 2603 747 3093 
Q 1141 3584 1784 3584 
Q 2172 3584 2450 3431 
Q 2728 3278 2906 2969 
L 2906 3500 
L 3481 3500 
L 3481 434 
z
" transform="scale(0.015625)"/>
      <path id="DejaVuSans-7a" d="M 353 3500 
L 3084 3500 
L 3084 2975 
L 922 459 
L 3084 459 
L 3084 0 
L 275 0 
L 275 525 
L 2438 3041 
L 353 3041 
L 353 3500 
z
" transform="scale(0.015625)"/>
      <path id="DejaVuSans-77" d="M 269 3500 
L 844 3500 
L 1563 769 
L 2278 3500 
L 2956 3500 
L 3675 769 
L 4391 3500 
L 4966 3500 
L 4050 0 
L 3372 0 
L 2619 2869 
L 1863 0 
L 1184 0 
L 269 3500 
z
" transform="scale(0.015625)"/>
      <path id="DejaVuSans-68" d="M 3513 2113 
L 3513 0 
L 2938 0 
L 2938 2094 
Q 2938 2591 2744 2837 
Q 2550 3084 2163 3084 
Q 1697 3084 1428 2787 
Q 1159 2491 1159 1978 
L 1159 0 
L 581 0 
L 581 4863 
L 1159 4863 
L 1159 2956 
Q 1366 3272 1645 3428 
Q 1925 3584 2291 3584 
Q 2894 3584 3203 3211 
Q 3513 2838 3513 2113 
z
" transform="scale(0.015625)"/>
     </defs>
     <use xlink:href="#DejaVuSans-54"/>
     <use xlink:href="#DejaVuSans-69" transform="translate(57.958984 0)"/>
     <use xlink:href="#DejaVuSans-6d" transform="translate(85.742188 0)"/>
     <use xlink:href="#DejaVuSans-65" transform="translate(183.154297 0)"/>
     <use xlink:href="#DejaVuSans-2d" transform="translate(244.677734 0)"/>
     <use xlink:href="#DejaVuSans-73" transform="translate(280.761719 0)"/>
     <use xlink:href="#DejaVuSans-65" transform="translate(332.861328 0)"/>
     <use xlink:href="#DejaVuSans-72" transform="translate(394.384766 0)"/>
     <use xlink:href="#DejaVuSans-69" transform="translate(435.498047 0)"/>
     <use xlink:href="#DejaVuSans-65" transform="translate(463.28125 0)"/>
     <use xlink:href="#DejaVuSans-73" transform="translate(524.804688 0)"/>
     <use xlink:href="#DejaVuSans-20" transform="translate(576.904297 0)"/>
     <use xlink:href="#DejaVuSans-61" transform="translate(608.691406 0)"/>
     <use xlink:href="#DejaVuSans-6e" transform="translate(669.970703 0)"/>
     <use xlink:href="#DejaVuSans-6f" transform="translate(733.349609 0)"/>
     <use xlink:href="#DejaVuSans-6d" transform="translate(794.53125 0)"/>
     <use xlink:href="#DejaVuSans-61" transform="translate(891.943359 0)"/>
     <use xlink:href="#DejaVuSans-6c" transform="translate(953.222656 0)"/>
     <use xlink:href="#DejaVuSans-79" transform="translate(981.005859 0)"/>
     <use xlink:href="#DejaVuSans-20" transform="translate(1040.185547 0)"/>
     <use xlink:href="#DejaVuSans-64" transform="translate(1071.972656 0)"/>
     <use xlink:href="#DejaVuSans-65" transform="translate(1135.449219 0)"/>
     <use xlink:href="#DejaVuSans-74" transform="translate(1196.972656 0)"/>
     <use xlink:href="#DejaVuSans-65" transform="translate(1236.181641 0)"/>
     <use xlink:href="#DejaVuSans-63" transform="translate(1297.705078 0)"/>
     <use xlink:href="#DejaVuSans-74" transform="translate(1352.685547 0)"/>
     <use xlink:href="#DejaVuSans-69" transform="translate(1391.894531 0)"/>
     <use xlink:href="#DejaVuSans-6f" transform="translate(1419.677734 0)"/>
     <use xlink:href="#DejaVuSans-6e" transform="translate(1480.859375 0)"/>
     <use xlink:href="#DejaVuSans-3a" transform="translate(1544.238281 0)"/>
     <use xlink:href="#DejaVuSans-20" transform="translate(1577.929688 0)"/>
     <use xlink:href="#DejaVuSans-72" transform="translate(1609.716797 0)"/>
     <use xlink:href="#DejaVuSans-6f" transform="translate(1648.580078 0)"/>
     <use xlink:href="#DejaVuSans-6c" transform="translate(1709.761719 0)"/>
     <use xlink:href="#DejaVuSans-6c" transform="translate(1737.544922 0)"/>
     <use xlink:href="#DejaVuSans-69" transform="translate(1765.328125 0)"/>
     <use xlink:href="#DejaVuSans-6e" transform="translate(1793.111328 0)"/>
     <use xlink:href="#DejaVuSans-67" transform="translate(1856.490234 0)"/>
     <use xlink:href="#DejaVuSans-20" transform="translate(1919.966797 0)"/>
     <use xlink:href="#DejaVuSans-7a" transform="translate(1951.753906 0)"/>
     <use xlink:href="#DejaVuSans-2d" transform="translate(2004.244141 0)"/>
     <use xlink:href="#DejaVuSans-73" transform="translate(2040.328125 0)"/>
     <use xlink:href="#DejaVuSans-63" transform="translate(2092.427734 0)"/>
     <use xlink:href="#DejaVuSans-6f" transform="translate(2147.408203 0)"/>
     <use xlink:href="#DejaVuSans-72" transform="translate(2208.589844 0)"/>
     <use xlink:href="#DejaVuSans-65" transform="translate(2247.453125 0)"/>
     <use xlink:href="#DejaVuSans-20" transform="translate(2308.976562 0)"/>
     <use xlink:href="#DejaVuSans-77" transform="translate(2340.763672 0)"/>
     <use xlink:href="#DejaVuSans-69" transform="translate(2422.550781 0)"/>
     <use xlink:href="#DejaVuSans-74" transform="translate(2450.333984 0)"/>
     <use xlink:href="#DejaVuSans-68" transform="translate(2489.542969 0)"/>
     <use xlink:href="#DejaVuSans-20" transform="translate(2552.921875 0)"/>
     <use xlink:href="#DejaVuSans-74" transform="translate(2584.708984 0)"/>
     <use xlink:href="#DejaVuSans-68" transform="translate(2623.917969 0)"/>
     <use xlink:href="#DejaVuSans-72" transform="translate(2687.296875 0)"/>
     <use xlink:href="#DejaVuSans-65" transform="translate(2726.160156 0)"/>
     <use xlink:href="#DejaVuSans-73" transform="translate(2787.683594 0)"/>
     <use xlink:href="#DejaVuSans-68" transform="translate(2839.783203 0)"/>
     <use xlink:href="#DejaVuSans-6f" transform="translate(2903.162109 0)"/>
     <use xlink:href="#DejaVuSans-6c" transform="translate(2964.34375 0)"/>
     <use xlink:href="#DejaVuSans-64" transform="translate(2992.126953 0)"/>
    </g>
   </g>
   <g id="legend_1">
    <g id="patch_7">
     <path d="M 47.603125 74.674375 
L 161.807813 74.674375 
Q 163.807813 74.674375 163.807813 72.674375 
L 163.807813 29.318125 
Q 163.807813 27.318125 161.807813 27.318125 
L 47.603125 27.318125 
Q 45.603125 27.318125 45.603125 29.318125 
L 45.603125 72.674375 
Q 45.603125 74.674375 47.603125 74.674375 
z
" style="fill: #ffffff; opacity: 0.8; stroke: #cccccc; stroke-linejoin: miter"/>
    </g>
    <g id="line2d_24">
     <path d="M 49.603125 35.416562 
L 59.603125 35.416562 
L 69.603125 35.416562 
" style="fill: none; stroke: #7aa6c2; stroke-opacity: 0.7; stroke-linecap: square"/>
    </g>
    <g id="text_15">
     <!-- time series -->
     <g transform="translate(77.603125 38.916562) scale(0.1 -0.1)">
      <use xlink:href="#DejaVuSans-74"/>
      <use xlink:href="#DejaVuSans-69" transform="translate(39.208984 0)"/>
      <use xlink:href="#DejaVuSans-6d" transform="translate(66.992188 0)"/>
      <use xlink:href="#DejaVuSans-65" transform="translate(164.404297 0)"/>
      <use xlink:href="#DejaVuSans-20" transform="translate(225.927734 0)"/>
      <use xlink:href="#DejaVuSans-73" transform="translate(257.714844 0)"/>
      <use xlink:href="#DejaVuSans-65" transform="translate(309.814453 0)"/>
      <use xlink:href="#DejaVuSans-72" transform="translate(371.337891 0)"/>
      <use xlink:href="#DejaVuSans-69" transform="translate(412.451172 0)"/>
      <use xlink:href="#DejaVuSans-65" transform="translate(440.234375 0)"/>
      <use xlink:href="#DejaVuSans-73" transform="translate(501.757812 0)"/>
     </g>
    </g>
    <g id="PathCollection_3">
     <path d="M 59.603125 58.040755 
C 61.478394 58.040755 63.27711 57.295703 64.603125 55.969688 
C 65.929141 54.643672 66.674193 52.844957 66.674193 50.969688 
C 66.674193 49.094418 65.929141 47.295703 64.603125 45.969688 
C 63.27711 44.643672 61.478394 43.89862 59.603125 43.89862 
C 57.727856 43.89862 55.929141 44.643672 54.603125 45.969688 
C 53.27711 47.295703 52.532057 49.094418 52.532057 50.969688 
C 52.532057 52.844957 53.27711 54.643672 54.603125 55.969688 
C 55.929141 57.295703 57.727856 58.040755 59.603125 58.040755 
L 59.603125 58.040755 
z
" style="fill: none; stroke: #59a14f; stroke-width: 2"/>
    </g>
    <g id="text_16">
     <!-- true anomalies -->
     <g transform="translate(77.603125 53.594688) scale(0.1 -0.1)">
      <use xlink:href="#DejaVuSans-74"/>
      <use xlink:href="#DejaVuSans-72" transform="translate(39.208984 0)"/>
      <use xlink:href="#DejaVuSans-75" transform="translate(80.322266 0)"/>
      <use xlink:href="#DejaVuSans-65" transform="translate(143.701172 0)"/>
      <use xlink:href="#DejaVuSans-20" transform="translate(205.224609 0)"/>
      <use xlink:href="#DejaVuSans-61" transform="translate(237.011719 0)"/>
      <use xlink:href="#DejaVuSans-6e" transform="translate(298.291016 0)"/>
      <use xlink:href="#DejaVuSans-6f" transform="translate(361.669922 0)"/>
      <use xlink:href="#DejaVuSans-6d" transform="translate(422.851562 0)"/>
      <use xlink:href="#DejaVuSans-61" transform="translate(520.263672 0)"/>
      <use xlink:href="#DejaVuSans-6c" transform="translate(581.542969 0)"/>
      <use xlink:href="#DejaVuSans-69" transform="translate(609.326172 0)"/>
      <use xlink:href="#DejaVuSans-65" transform="translate(637.109375 0)"/>
      <use xlink:href="#DejaVuSans-73" transform="translate(698.632812 0)"/>
     </g>
    </g>
    <g id="PathCollection_4">
     <g>
      <use xlink:href="#mbf08ae6ce0" x="59.603125" y="65.691563" style="fill: #e15759; stroke: #e15759; stroke-width: 1.5"/>
     </g>
    </g>
    <g id="text_17">
     <!-- detected (|z|&gt;3) -->
     <g transform="translate(77.603125 68.316563) scale(0.1 -0.1)">
      <defs>
       <path id="DejaVuSans-28" d="M 1984 4856 
Q 1566 4138 1362 3434 
Q 1159 2731 1159 2009 
Q 1159 1288 1364 580 
Q 1569 -128 1984 -844 
L 1484 -844 
Q 1016 -109 783 600 
Q 550 1309 550 2009 
Q 550 2706 781 3412 
Q 1013 4119 1484 4856 
L 1984 4856 
z
" transform="scale(0.015625)"/>
       <path id="DejaVuSans-7c" d="M 1344 4891 
L 1344 -1509 
L 813 -1509 
L 813 4891 
L 1344 4891 
z
" transform="scale(0.015625)"/>
       <path id="DejaVuSans-3e" d="M 678 3150 
L 678 3719 
L 4684 2266 
L 4684 1747 
L 678 294 
L 678 863 
L 3897 2003 
L 678 3150 
z
" transform="scale(0.015625)"/>
       <path id="DejaVuSans-29" d="M 513 4856 
L 1013 4856 
Q 1481 4119 1714 3412 
Q 1947 2706 1947 2009 
Q 1947 1309 1714 600 
Q 1481 -109 1013 -844 
L 513 -844 
Q 928 -128 1133 580 
Q 1338 1288 1338 2009 
Q 1338 2731 1133 3434 
Q 928 4138 513 4856 
z
" transform="scale(0.015625)"/>
      </defs>
      <use xlink:href="#DejaVuSans-64"/>
      <use xlink:href="#DejaVuSans-65" transform="translate(63.476562 0)"/>
      <use xlink:href="#DejaVuSans-74" transform="translate(125 0)"/>
      <use xlink:href="#DejaVuSans-65" transform="translate(164.208984 0)"/>
      <use xlink:href="#DejaVuSans-63" transform="translate(225.732422 0)"/>
      <use xlink:href="#DejaVuSans-74" transform="translate(280.712891 0)"/>
      <use xlink:href="#DejaVuSans-65" transform="translate(319.921875 0)"/>
      <use xlink:href="#DejaVuSans-64" transform="translate(381.445312 0)"/>
      <use xlink:href="#DejaVuSans-20" transform="translate(444.921875 0)"/>
      <use xlink:href="#DejaVuSans-28" transform="translate(476.708984 0)"/>
      <use xlink:href="#DejaVuSans-7c" transform="translate(515.722656 0)"/>
      <use xlink:href="#DejaVuSans-7a" transform="translate(549.414062 0)"/>
      <use xlink:href="#DejaVuSans-7c" transform="translate(601.904297 0)"/>
      <use xlink:href="#DejaVuSans-3e" transform="translate(635.595703 0)"/>
      <use xlink:href="#DejaVuSans-33" transform="translate(719.384766 0)"/>
      <use xlink:href="#DejaVuSans-29" transform="translate(783.007812 0)"/>
     </g>
    </g>
   </g>
  </g>
 </g>
 <defs>
  <clipPath id="p0b030d089e">
   <rect x="40.603125" y="22.318125" width="880.63" height="255.16"/>
  </clipPath>
 </defs>
</svg>
