<?xml version="1.0" encoding="utf-8" standalone="no"?>
<!DOCTYPE svg PUBLIC "-//W3C//DTD SVG 1.1//EN"
  "http://www.w3.org/Graphics/SVG/1.1/DTD/svg11.dtd">
<svg xmlns:xlink="http://www.w3.org/1999/xlink" width="604.46125pt" height="315.034375pt" viewBox="0 0 604.46125 315.034375" xmlns="http://www.w3.org/2000/svg" version="1.1">
 <metadata>
  <rdf:RDF xmlns:dc="http://purl.org/dc/elements/1.1/" xmlns:cc="http://creativecommons.org/ns#" xmlns:rdf="http://www.w3.org/1999/02/22-rdf-syntax-ns#">
   <cc:Work>
    <dc:type rdf:resource="http://purl.org/dc/dcmitype/StillImage"/>
    <dc:date>2026-05-26T11:24:38.717976</dc:date>
    <dc:format>image/svg+xml</dc:format>
    <dc:creator>
     <cc:Agent>
      <dc:title>Matplotlib v3.10.8, https://matplotlib.org/</dc:title>
     </cc:Agent>
    </dc:creator>
   </cc:Work>
  </rdf:RDF>
 </metadata>
 <defs>
  <style type="text/css">*{stroke-linejoin: round; stroke-linecap: butt}</style>
 </defs>
 <g id="figure_1">
  <g id="patch_1">
   <path d="M 0 315.034375 
L 604.46125 315.034375 
L 604.46125 0 
L 0 0 
z
" style="fill: #ffffff"/>
  </g>
  <g id="axes_1">
   <g id="patch_2">
    <path d="M 43.78125 277.478125 
L 597.26125 277.478125 
L 597.26125 22.318125 
L 43.78125 22.318125 
z
" style="fill: #ffffff"/>
   </g>
   <g id="matplotlib.axis_1">
    <g id="xtick_1">
     <g id="line2d_1">
      <path d="M 58.670786 277.478125 
L 58.670786 22.318125 
" clip-path="url(#p0a37a26b6d)" style="fill: none; stroke: #b0b0b0; stroke-opacity: 0.25; stroke-width: 0.8; stroke-linecap: square"/>
     </g>
     <g id="line2d_2">
      <defs>
       <path id="mfbf851e798" d="M 0 0 
L 0 3.5 
" style="stroke: #000000; stroke-width: 0.8"/>
      </defs>
      <g>
       <use xlink:href="#mfbf851e798" x="58.670786" y="277.478125" style="stroke: #000000; stroke-width: 0.8"/>
      </g>
     </g>
     <g id="text_1">
      <!-- 0 -->
      <g transform="translate(55.489536 292.076563) scale(0.1 -0.1)">
       <defs>
        <path id="DejaVuSans-30" d="M 2034 4250 
Q 1547 4250 1301 3770 
Q 1056 3291 1056 2328 
Q 1056 1369 1301 889 
Q 1547 409 2034 409 
Q 2525 409 2770 889 
Q 3016 1369 3016 2328 
Q 3016 3291 2770 3770 
Q 2525 4250 2034 4250 
z
M 2034 4750 
Q 2819 4750 3233 4129 
Q 3647 3509 3647 2328 
Q 3647 1150 3233 529 
Q 2819 -91 2034 -91 
Q 1250 -91 836 529 
Q 422 1150 422 2328 
Q 422 3509 836 4129 
Q 1250 4750 2034 4750 
z
" transform="scale(0.015625)"/>
       </defs>
       <use xlink:href="#DejaVuSans-30"/>
      </g>
     </g>
    </g>
    <g id="xtick_2">
     <g id="line2d_3">
      <path d="M 161.357243 277.478125 
L 161.357243 22.318125 
" clip-path="url(#p0a37a26b6d)" style="fill: none; stroke: #b0b0b0; stroke-opacity: 0.25; stroke-width: 0.8; stroke-linecap: square"/>
     </g>
     <g id="line2d_4">
      <g>
       <use xlink:href="#mfbf851e798" x="161.357243" y="277.478125" style="stroke: #000000; stroke-width: 0.8"/>
      </g>
     </g>
     <g id="text_2">
      <!-- 10 -->
      <g transform="translate(154.994743 292.076563) scale(0.1 -0.1)">
       <defs>
        <path id="DejaVuSans-31" d="M 794 531 
L 1825 531 
L 1825 4091 
L 703 3866 
L 703 4441 
L 1819 4666 
L 2450 4666 
L 2450 531 
L 3481 531 
L 3481 0 
L 794 0 
L 794 531 
z
" transform="scale(0.015625)"/>
       </defs>
       <use xlink:href="#DejaVuSans-31"/>
       <use xlink:href="#DejaVuSans-30" transform="translate(63.623047 0)"/>
      </g>
     </g>
    </g>
    <g id="xtick_3">
     <g id="line2d_5">
      <path d="M 264.043699 277.478125 
L 264.043699 22.318125 
" clip-path="url(#p0a37a26b6d)" style="fill: none; stroke: #b0b0b0; stroke-opacity: 0.25; stroke-width: 0.8; stroke-linecap: square"/>
     </g>
     <g id="line2d_6">
      <g>
       <use xlink:href="#mfbf851e798" x="264.043699" y="277.478125" style="stroke: #000000; stroke-width: 0.8"/>
      </g>
     </g>
     <g id="text_3">
      <!-- 20 -->
      <g transform="translate(257.681199 292.076563) scale(0.1 -0.1)">
       <defs>
        <path id="DejaVuSans-32" d="M 1228 531 
L 3431 531 
L 3431 0 
L 469 0 
L 469 531 
Q 828 903 1448 1529 
Q 2069 2156 2228 2338 
Q 2531 2678 2651 2914 
Q 2772 3150 2772 3378 
Q 2772 3750 2511 3984 
Q 2250 4219 1831 4219 
Q 1534 4219 1204 4116 
Q 875 4013 500 3803 
L 500 4441 
Q 881 4594 1212 4672 
Q 1544 4750 1819 4750 
Q 2544 4750 2975 4387 
Q 3406 4025 3406 3419 
Q 3406 3131 3298 2873 
Q 3191 2616 2906 2266 
Q 2828 2175 2409 1742 
Q 1991 1309 1228 531 
z
" transform="scale(0.015625)"/>
       </defs>
       <use xlink:href="#DejaVuSans-32"/>
       <use xlink:href="#DejaVuSans-30" transform="translate(63.623047 0)"/>
      </g>
     </g>
    </g>
    <g id="xtick_4">
     <g id="line2d_7">
      <path d="M 366.730155 277.478125 
L 366.730155 22.318125 
" clip-path="url(#p0a37a26b6d)" style="fill: none; stroke: #b0b0b0; stroke-opacity: 0.25; stroke-width: 0.8; stroke-linecap: square"/>
     </g>
     <g id="line2d_8">
      <g>
       <use xlink:href="#mfbf851e798" x="366.730155" y="277.478125" style="stroke: #000000; stroke-width: 0.8"/>
      </g>
     </g>
     <g id="text_4">
      <!-- 30 -->
      <g transform="translate(360.367655 292.076563) scale(0.1 -0.1)">
       <defs>
        <path id="DejaVuSans-33" d="M 2597 2516 
Q 3050 2419 3304 2112 
Q 3559 1806 3559 1356 
Q 3559 666 3084 287 
Q 2609 -91 1734 -91 
Q 1441 -91 1130 -33 
Q 819 25 488 141 
L 488 750 
Q 750 597 1062 519 
Q 1375 441 1716 441 
Q 2309 441 2620 675 
Q 2931 909 2931 1356 
Q 2931 1769 2642 2001 
Q 2353 2234 1838 2234 
L 1294 2234 
L 1294 2753 
L 1863 2753 
Q 2328 2753 2575 2939 
Q 2822 3125 2822 3475 
Q 2822 3834 2567 4026 
Q 2313 4219 1838 4219 
Q 1578 4219 1281 4162 
Q 984 4106 628 3988 
L 628 4550 
Q 988 4650 1302 4700 
Q 1616 4750 1894 4750 
Q 2613 4750 3031 4423 
Q 3450 4097 3450 3541 
Q 3450 3153 3228 2886 
Q 3006 2619 2597 2516 
z
" transform="scale(0.015625)"/>
       </defs>
       <use xlink:href="#DejaVuSans-33"/>
       <use xlink:href="#DejaVuSans-30" transform="translate(63.623047 0)"/>
      </g>
     </g>
    </g>
    <g id="xtick_5">
     <g id="line2d_9">
      <path d="M 469.416612 277.478125 
L 469.416612 22.318125 
" clip-path="url(#p0a37a26b6d)" style="fill: none; stroke: #b0b0b0; stroke-opacity: 0.25; stroke-width: 0.8; stroke-linecap: square"/>
     </g>
     <g id="line2d_10">
      <g>
       <use xlink:href="#mfbf851e798" x="469.416612" y="277.478125" style="stroke: #000000; stroke-width: 0.8"/>
      </g>
     </g>
     <g id="text_5">
      <!-- 40 -->
      <g transform="translate(463.054112 292.076563) scale(0.1 -0.1)">
       <defs>
        <path id="DejaVuSans-34" d="M 2419 4116 
L 825 1625 
L 2419 1625 
L 2419 4116 
z
M 2253 4666 
L 3047 4666 
L 3047 1625 
L 3713 1625 
L 3713 1100 
L 3047 1100 
L 3047 0 
L 2419 0 
L 2419 1100 
L 313 1100 
L 313 1709 
L 2253 4666 
z
" transform="scale(0.015625)"/>
       </defs>
       <use xlink:href="#DejaVuSans-34"/>
       <use xlink:href="#DejaVuSans-30" transform="translate(63.623047 0)"/>
      </g>
     </g>
    </g>
    <g id="xtick_6">
     <g id="line2d_11">
      <path d="M 572.103068 277.478125 
L 572.103068 22.318125 
" clip-path="url(#p0a37a26b6d)" style="fill: none; stroke: #b0b0b0; stroke-opacity: 0.25; stroke-width: 0.8; stroke-linecap: square"/>
     </g>
     <g id="line2d_12">
      <g>
       <use xlink:href="#mfbf851e798" x="572.103068" y="277.478125" style="stroke: #000000; stroke-width: 0.8"/>
      </g>
     </g>
     <g id="text_6">
      <!-- 50 -->
      <g transform="translate(565.740568 292.076563) scale(0.1 -0.1)">
       <defs>
        <path id="DejaVuSans-35" d="M 691 4666 
L 3169 4666 
L 3169 4134 
L 1269 4134 
L 1269 2991 
Q 1406 3038 1543 3061 
Q 1681 3084 1819 3084 
Q 2600 3084 3056 2656 
Q 3513 2228 3513 1497 
Q 3513 744 3044 326 
Q 2575 -91 1722 -91 
Q 1428 -91 1123 -41 
Q 819 9 494 109 
L 494 744 
Q 775 591 1075 516 
Q 1375 441 1709 441 
Q 2250 441 2565 725 
Q 2881 1009 2881 1497 
Q 2881 1984 2565 2268 
Q 2250 2553 1709 2553 
Q 1456 2553 1204 2497 
Q 953 2441 691 2322 
L 691 4666 
z
" transform="scale(0.015625)"/>
       </defs>
       <use xlink:href="#DejaVuSans-35"/>
       <use xlink:href="#DejaVuSans-30" transform="translate(63.623047 0)"/>
      </g>
     </g>
    </g>
    <g id="text_7">
     <!-- epoch -->
     <g transform="translate(305.293125 305.754687) scale(0.1 -0.1)">
      <defs>
       <path id="DejaVuSans-65" d="M 3597 1894 
L 3597 1613 
L 953 1613 
Q 991 1019 1311 708 
Q 1631 397 2203 397 
Q 2534 397 2845 478 
Q 3156 559 3463 722 
L 3463 178 
Q 3153 47 2828 -22 
Q 2503 -91 2169 -91 
Q 1331 -91 842 396 
Q 353 884 353 1716 
Q 353 2575 817 3079 
Q 1281 3584 2069 3584 
Q 2775 3584 3186 3129 
Q 3597 2675 3597 1894 
z
M 3022 2063 
Q 3016 2534 2758 2815 
Q 2500 3097 2075 3097 
Q 1594 3097 1305 2825 
Q 1016 2553 972 2059 
L 3022 2063 
z
" transform="scale(0.015625)"/>
       <path id="DejaVuSans-70" d="M 1159 525 
L 1159 -1331 
L 581 -1331 
L 581 3500 
L 1159 3500 
L 1159 2969 
Q 1341 3281 1617 3432 
Q 1894 3584 2278 3584 
Q 2916 3584 3314 3078 
Q 3713 2572 3713 1747 
Q 3713 922 3314 415 
Q 2916 -91 2278 -91 
Q 1894 -91 1617 61 
Q 1341 213 1159 525 
z
M 3116 1747 
Q 3116 2381 2855 2742 
Q 2594 3103 2138 3103 
Q 1681 3103 1420 2742 
Q 1159 2381 1159 1747 
Q 1159 1113 1420 752 
Q 1681 391 2138 391 
Q 2594 391 2855 752 
Q 3116 1113 3116 1747 
z
" transform="scale(0.015625)"/>
       <path id="DejaVuSans-6f" d="M 1959 3097 
Q 1497 3097 1228 2736 
Q 959 2375 959 1747 
Q 959 1119 1226 758 
Q 1494 397 1959 397 
Q 2419 397 2687 759 
Q 2956 1122 2956 1747 
Q 2956 2369 2687 2733 
Q 2419 3097 1959 3097 
z
M 1959 3584 
Q 2709 3584 3137 3096 
Q 3566 2609 3566 1747 
Q 3566 888 3137 398 
Q 2709 -91 1959 -91 
Q 1206 -91 779 398 
Q 353 888 353 1747 
Q 353 2609 779 3096 
Q 1206 3584 1959 3584 
z
" transform="scale(0.015625)"/>
       <path id="DejaVuSans-63" d="M 3122 3366 
L 3122 2828 
Q 2878 2963 2633 3030 
Q 2388 3097 2138 3097 
Q 1578 3097 1268 2742 
Q 959 2388 959 1747 
Q 959 1106 1268 751 
Q 1578 397 2138 397 
Q 2388 397 2633 464 
Q 2878 531 3122 666 
L 3122 134 
Q 2881 22 2623 -34 
Q 2366 -91 2075 -91 
Q 1284 -91 818 406 
Q 353 903 353 1747 
Q 353 2603 823 3093 
Q 1294 3584 2113 3584 
Q 2378 3584 2631 3529 
Q 2884 3475 3122 3366 
z
" transform="scale(0.015625)"/>
       <path id="DejaVuSans-68" d="M 3513 2113 
L 3513 0 
L 2938 0 
L 2938 2094 
Q 2938 2591 2744 2837 
Q 2550 3084 2163 3084 
Q 1697 3084 1428 2787 
Q 1159 2491 1159 1978 
L 1159 0 
L 581 0 
L 581 4863 
L 1159 4863 
L 1159 2956 
Q 1366 3272 1645 3428 
Q 1925 3584 2291 3584 
Q 2894 3584 3203 3211 
Q 3513 2838 3513 2113 
z
" transform="scale(0.015625)"/>
      </defs>
      <use xlink:href="#DejaVuSans-65"/>
      <use xlink:href="#DejaVuSans-70" transform="translate(61.523438 0)"/>
      <use xlink:href="#DejaVuSans-6f" transform="translate(125 0)"/>
      <use xlink:href="#DejaVuSans-63" transform="translate(186.181641 0)"/>
      <use xlink:href="#DejaVuSans-68" transform="translate(241.162109 0)"/>
     </g>
    </g>
   </g>
   <g id="matplotlib.axis_2">
    <g id="ytick_1">
     <g id="line2d_13">
      <path d="M 43.78125 269.320777 
L 597.26125 269.320777 
" clip-path="url(#p0a37a26b6d)" style="fill: none; stroke: #b0b0b0; stroke-opacity: 0.25; stroke-width: 0.8; stroke-linecap: square"/>
     </g>
     <g id="line2d_14">
      <defs>
       <path id="m0b764a3df9" d="M 0 0 
L -3.5 0 
" style="stroke: #000000; stroke-width: 0.8"/>
      </defs>
      <g>
       <use xlink:href="#m0b764a3df9" x="43.78125" y="269.320777" style="stroke: #000000; stroke-width: 0.8"/>
      </g>
     </g>
     <g id="text_8">
      <!-- 0.0 -->
      <g transform="translate(20.878125 273.119996) scale(0.1 -0.1)">
       <defs>
        <path id="DejaVuSans-2e" d="M 684 794 
L 1344 794 
L 1344 0 
L 684 0 
L 684 794 
z
" transform="scale(0.015625)"/>
       </defs>
       <use xlink:href="#DejaVuSans-30"/>
       <use xlink:href="#DejaVuSans-2e" transform="translate(63.623047 0)"/>
       <use xlink:href="#DejaVuSans-30" transform="translate(95.410156 0)"/>
      </g>
     </g>
    </g>
    <g id="ytick_2">
     <g id="line2d_15">
      <path d="M 43.78125 214.785087 
L 597.26125 214.785087 
" clip-path="url(#p0a37a26b6d)" style="fill: none; stroke: #b0b0b0; stroke-opacity: 0.25; stroke-width: 0.8; stroke-linecap: square"/>
     </g>
     <g id="line2d_16">
      <g>
       <use xlink:href="#m0b764a3df9" x="43.78125" y="214.785087" style="stroke: #000000; stroke-width: 0.8"/>
      </g>
     </g>
     <g id="text_9">
      <!-- 0.2 -->
      <g transform="translate(20.878125 218.584306) scale(0.1 -0.1)">
       <use xlink:href="#DejaVuSans-30"/>
       <use xlink:href="#DejaVuSans-2e" transform="translate(63.623047 0)"/>
       <use xlink:href="#DejaVuSans-32" transform="translate(95.410156 0)"/>
      </g>
     </g>
    </g>
    <g id="ytick_3">
     <g id="line2d_17">
      <path d="M 43.78125 160.249397 
L 597.26125 160.249397 
" clip-path="url(#p0a37a26b6d)" style="fill: none; stroke: #b0b0b0; stroke-opacity: 0.25; stroke-width: 0.8; stroke-linecap: square"/>
     </g>
     <g id="line2d_18">
      <g>
       <use xlink:href="#m0b764a3df9" x="43.78125" y="160.249397" style="stroke: #000000; stroke-width: 0.8"/>
      </g>
     </g>
     <g id="text_10">
      <!-- 0.4 -->
      <g transform="translate(20.878125 164.048615) scale(0.1 -0.1)">
       <use xlink:href="#DejaVuSans-30"/>
       <use xlink:href="#DejaVuSans-2e" transform="translate(63.623047 0)"/>
       <use xlink:href="#DejaVuSans-34" transform="translate(95.410156 0)"/>
      </g>
     </g>
    </g>
    <g id="ytick_4">
     <g id="line2d_19">
      <path d="M 43.78125 105.713706 
L 597.26125 105.713706 
" clip-path="url(#p0a37a26b6d)" style="fill: none; stroke: #b0b0b0; stroke-opacity: 0.25; stroke-width: 0.8; stroke-linecap: square"/>
     </g>
     <g id="line2d_20">
      <g>
       <use xlink:href="#m0b764a3df9" x="43.78125" y="105.713706" style="stroke: #000000; stroke-width: 0.8"/>
      </g>
     </g>
     <g id="text_11">
      <!-- 0.6 -->
      <g transform="translate(20.878125 109.512925) scale(0.1 -0.1)">
       <defs>
        <path id="DejaVuSans-36" d="M 2113 2584 
Q 1688 2584 1439 2293 
Q 1191 2003 1191 1497 
Q 1191 994 1439 701 
Q 1688 409 2113 409 
Q 2538 409 2786 701 
Q 3034 994 3034 1497 
Q 3034 2003 2786 2293 
Q 2538 2584 2113 2584 
z
M 3366 4563 
L 3366 3988 
Q 3128 4100 2886 4159 
Q 2644 4219 2406 4219 
Q 1781 4219 1451 3797 
Q 1122 3375 1075 2522 
Q 1259 2794 1537 2939 
Q 1816 3084 2150 3084 
Q 2853 3084 3261 2657 
Q 3669 2231 3669 1497 
Q 3669 778 3244 343 
Q 2819 -91 2113 -91 
Q 1303 -91 875 529 
Q 447 1150 447 2328 
Q 447 3434 972 4092 
Q 1497 4750 2381 4750 
Q 2619 4750 2861 4703 
Q 3103 4656 3366 4563 
z
" transform="scale(0.015625)"/>
       </defs>
       <use xlink:href="#DejaVuSans-30"/>
       <use xlink:href="#DejaVuSans-2e" transform="translate(63.623047 0)"/>
       <use xlink:href="#DejaVuSans-36" transform="translate(95.410156 0)"/>
      </g>
     </g>
    </g>
    <g id="ytick_5">
     <g id="line2d_21">
      <path d="M 43.78125 51.178016 
L 597.26125 51.178016 
" clip-path="url(#p0a37a26b6d)" style="fill: none; stroke: #b0b0b0; stroke-opacity: 0.25; stroke-width: 0.8; stroke-linecap: square"/>
     </g>
     <g id="line2d_22">
      <g>
       <use xlink:href="#m0b764a3df9" x="43.78125" y="51.178016" style="stroke: #000000; stroke-width: 0.8"/>
      </g>
     </g>
     <g id="text_12">
      <!-- 0.8 -->
      <g transform="translate(20.878125 54.977235) scale(0.1 -0.1)">
       <defs>
        <path id="DejaVuSans-38" d="M 2034 2216 
Q 1584 2216 1326 1975 
Q 1069 1734 1069 1313 
Q 1069 891 1326 650 
Q 1584 409 2034 409 
Q 2484 409 2743 651 
Q 3003 894 3003 1313 
Q 3003 1734 2745 1975 
Q 2488 2216 2034 2216 
z
M 1403 2484 
Q 997 2584 770 2862 
Q 544 3141 544 3541 
Q 544 4100 942 4425 
Q 1341 4750 2034 4750 
Q 2731 4750 3128 4425 
Q 3525 4100 3525 3541 
Q 3525 3141 3298 2862 
Q 3072 2584 2669 2484 
Q 3125 2378 3379 2068 
Q 3634 1759 3634 1313 
Q 3634 634 3220 271 
Q 2806 -91 2034 -91 
Q 1263 -91 848 271 
Q 434 634 434 1313 
Q 434 1759 690 2068 
Q 947 2378 1403 2484 
z
M 1172 3481 
Q 1172 3119 1398 2916 
Q 1625 2713 2034 2713 
Q 2441 2713 2670 2916 
Q 2900 3119 2900 3481 
Q 2900 3844 2670 4047 
Q 2441 4250 2034 4250 
Q 1625 4250 1398 4047 
Q 1172 3844 1172 3481 
z
" transform="scale(0.015625)"/>
       </defs>
       <use xlink:href="#DejaVuSans-30"/>
       <use xlink:href="#DejaVuSans-2e" transform="translate(63.623047 0)"/>
       <use xlink:href="#DejaVuSans-38" transform="translate(95.410156 0)"/>
      </g>
     </g>
    </g>
    <g id="text_13">
     <!-- val accuracy -->
     <g transform="translate(14.798438 181.459062) rotate(-90) scale(0.1 -0.1)">
      <defs>
       <path id="DejaVuSans-76" d="M 191 3500 
L 800 3500 
L 1894 563 
L 2988 3500 
L 3597 3500 
L 2284 0 
L 1503 0 
L 191 3500 
z
" transform="scale(0.015625)"/>
       <path id="DejaVuSans-61" d="M 2194 1759 
Q 1497 1759 1228 1600 
Q 959 1441 959 1056 
Q 959 750 1161 570 
Q 1363 391 1709 391 
Q 2188 391 2477 730 
Q 2766 1069 2766 1631 
L 2766 1759 
L 2194 1759 
z
M 3341 1997 
L 3341 0 
L 2766 0 
L 2766 531 
Q 2569 213 2275 61 
Q 1981 -91 1556 -91 
Q 1019 -91 701 211 
Q 384 513 384 1019 
Q 384 1609 779 1909 
Q 1175 2209 1959 2209 
L 2766 2209 
L 2766 2266 
Q 2766 2663 2505 2880 
Q 2244 3097 1772 3097 
Q 1472 3097 1187 3025 
Q 903 2953 641 2809 
L 641 3341 
Q 956 3463 1253 3523 
Q 1550 3584 1831 3584 
Q 2591 3584 2966 3190 
Q 3341 2797 3341 1997 
z
" transform="scale(0.015625)"/>
       <path id="DejaVuSans-6c" d="M 603 4863 
L 1178 4863 
L 1178 0 
L 603 0 
L 603 4863 
z
" transform="scale(0.015625)"/>
       <path id="DejaVuSans-20" transform="scale(0.015625)"/>
       <path id="DejaVuSans-75" d="M 544 1381 
L 544 3500 
L 1119 3500 
L 1119 1403 
Q 1119 906 1312 657 
Q 1506 409 1894 409 
Q 2359 409 2629 706 
Q 2900 1003 2900 1516 
L 2900 3500 
L 3475 3500 
L 3475 0 
L 2900 0 
L 2900 538 
Q 2691 219 2414 64 
Q 2138 -91 1772 -91 
Q 1169 -91 856 284 
Q 544 659 544 1381 
z
M 1991 3584 
L 1991 3584 
z
" transform="scale(0.015625)"/>
       <path id="DejaVuSans-72" d="M 2631 2963 
Q 2534 3019 2420 3045 
Q 2306 3072 2169 3072 
Q 1681 3072 1420 2755 
Q 1159 2438 1159 1844 
L 1159 0 
L 581 0 
L 581 3500 
L 1159 3500 
L 1159 2956 
Q 1341 3275 1631 3429 
Q 1922 3584 2338 3584 
Q 2397 3584 2469 3576 
Q 2541 3569 2628 3553 
L 2631 2963 
z
" transform="scale(0.015625)"/>
       <path id="DejaVuSans-79" d="M 2059 -325 
Q 1816 -950 1584 -1140 
Q 1353 -1331 966 -1331 
L 506 -1331 
L 506 -850 
L 844 -850 
Q 1081 -850 1212 -737 
Q 1344 -625 1503 -206 
L 1606 56 
L 191 3500 
L 800 3500 
L 1894 763 
L 2988 3500 
L 3597 3500 
L 2059 -325 
z
" transform="scale(0.015625)"/>
      </defs>
      <use xlink:href="#DejaVuSans-76"/>
      <use xlink:href="#DejaVuSans-61" transform="translate(59.179688 0)"/>
      <use xlink:href="#DejaVuSans-6c" transform="translate(120.458984 0)"/>
      <use xlink:href="#DejaVuSans-20" transform="translate(148.242188 0)"/>
      <use xlink:href="#DejaVuSans-61" transform="translate(180.029297 0)"/>
      <use xlink:href="#DejaVuSans-63" transform="translate(241.308594 0)"/>
      <use xlink:href="#DejaVuSans-63" transform="translate(296.289062 0)"/>
      <use xlink:href="#DejaVuSans-75" transform="translate(351.269531 0)"/>
      <use xlink:href="#DejaVuSans-72" transform="translate(414.648438 0)"/>
      <use xlink:href="#DejaVuSans-61" transform="translate(455.761719 0)"/>
      <use xlink:href="#DejaVuSans-63" transform="translate(517.041016 0)"/>
      <use xlink:href="#DejaVuSans-79" transform="translate(572.021484 0)"/>
     </g>
    </g>
   </g>
   <g id="line2d_23">
    <path d="M 68.939432 265.879943 
L 79.208077 262.320058 
L 89.476723 260.136506 
L 99.745369 259.567008 
L 110.014014 253.81459 
L 120.28266 251.753296 
L 130.551306 250.460098 
L 140.819951 246.354024 
L 151.088597 244.118677 
L 161.357243 241.73424 
L 171.625888 239.665149 
L 181.894534 236.575302 
L 192.163179 235.988739 
L 202.431825 232.917006 
L 212.700471 231.107788 
L 222.969116 227.434024 
L 233.237762 226.039908 
L 243.506408 224.379077 
L 253.775053 222.974525 
L 264.043699 220.228291 
L 274.312345 217.875908 
L 284.58099 216.311554 
L 294.849636 212.258908 
L 305.118282 210.775962 
L 315.386927 214.007319 
L 325.655573 211.085213 
L 335.924218 206.982502 
L 346.192864 205.589262 
L 356.46151 203.026071 
L 366.730155 201.358343 
L 376.998801 197.137405 
L 387.267447 199.943454 
L 397.536092 197.376275 
L 407.804738 192.541475 
L 418.073384 192.940381 
L 428.342029 191.443382 
L 438.610675 191.602697 
L 448.879321 191.732008 
L 459.147966 187.867902 
L 469.416612 186.586279 
L 479.685257 187.073913 
L 489.953903 185.024121 
L 500.222549 182.908802 
L 510.491194 182.841995 
L 520.75984 180.456141 
L 531.028486 178.984603 
L 541.297131 177.882797 
L 551.565777 177.461555 
L 561.834423 174.824705 
L 572.103068 173.304657 
" clip-path="url(#p0a37a26b6d)" style="fill: none; stroke: #999999; stroke-width: 2; stroke-linecap: square"/>
   </g>
   <g id="line2d_24">
    <path d="M 68.939432 259.044534 
L 79.208077 251.191675 
L 89.476723 240.08659 
L 99.745369 233.171461 
L 110.014014 223.071102 
L 120.28266 217.874567 
L 130.551306 207.655784 
L 140.819951 201.749668 
L 151.088597 196.560549 
L 161.357243 188.72373 
L 171.625888 181.948502 
L 181.894534 175.652896 
L 192.163179 171.630381 
L 202.431825 166.319803 
L 212.700471 159.297842 
L 222.969116 155.196828 
L 233.237762 149.45032 
L 243.506408 144.157555 
L 253.775053 143.064152 
L 264.043699 136.2851 
L 274.312345 130.962099 
L 284.58099 129.213277 
L 294.849636 126.257221 
L 305.118282 120.631157 
L 315.386927 117.97 
L 325.655573 113.899916 
L 335.924218 112.538382 
L 346.192864 111.168746 
L 356.46151 106.507619 
L 366.730155 104.297457 
L 376.998801 100.081934 
L 387.267447 98.436627 
L 397.536092 98.593026 
L 407.804738 95.770504 
L 418.073384 90.805625 
L 428.342029 89.047084 
L 438.610675 88.899687 
L 448.879321 86.166804 
L 459.147966 83.77838 
L 469.416612 82.046053 
L 479.685257 79.863667 
L 489.953903 79.153859 
L 500.222549 78.146472 
L 510.491194 76.949133 
L 520.75984 73.798394 
L 531.028486 77.007922 
L 541.297131 72.886649 
L 551.565777 71.465729 
L 561.834423 72.31937 
L 572.103068 68.837571 
" clip-path="url(#p0a37a26b6d)" style="fill: none; stroke: #f28e2b; stroke-width: 2; stroke-linecap: square"/>
   </g>
   <g id="line2d_25">
    <path d="M 68.939432 255.758332 
L 79.208077 240.085659 
L 89.476723 228.616389 
L 99.745369 215.462853 
L 110.014014 203.346325 
L 120.28266 193.780886 
L 130.551306 185.415221 
L 140.819951 176.791293 
L 151.088597 163.394467 
L 161.357243 157.515809 
L 171.625888 150.372312 
L 181.894534 141.768142 
L 192.163179 135.192027 
L 202.431825 127.145105 
L 212.700471 122.022264 
L 222.969116 116.174682 
L 233.237762 111.634726 
L 243.506408 104.809529 
L 253.775053 101.95201 
L 264.043699 95.013064 
L 274.312345 89.490832 
L 284.58099 89.548388 
L 294.849636 86.97187 
L 305.118282 79.132975 
L 315.386927 73.076538 
L 325.655573 74.690656 
L 335.924218 71.994642 
L 346.192864 66.626743 
L 356.46151 65.882794 
L 366.730155 62.890132 
L 376.998801 60.286207 
L 387.267447 56.836728 
L 397.536092 55.996113 
L 407.804738 53.069508 
L 418.073384 51.810089 
L 428.342029 50.951479 
L 438.610675 48.569416 
L 448.879321 47.85969 
L 459.147966 45.076993 
L 469.416612 45.226173 
L 479.685257 43.873036 
L 489.953903 39.162013 
L 500.222549 40.058261 
L 510.491194 38.964275 
L 520.75984 37.162162 
L 531.028486 37.462234 
L 541.297131 36.285433 
L 551.565777 34.532875 
L 561.834423 33.916307 
L 572.103068 35.117996 
" clip-path="url(#p0a37a26b6d)" style="fill: none; stroke: #59a14f; stroke-width: 2; stroke-linecap: square"/>
   </g>
   <g id="line2d_26">
    <path d="M 68.939432 264.977478 
L 79.208077 263.759267 
L 89.476723 261.281782 
L 99.745369 258.003628 
L 110.014014 254.288036 
L 120.28266 248.561531 
L 130.551306 249.451804 
L 140.819951 244.743386 
L 151.088597 245.03186 
L 161.357243 239.317186 
L 171.625888 235.328189 
L 181.894534 234.158014 
L 192.163179 232.01459 
L 202.431825 228.201957 
L 212.700471 224.96337 
L 222.969116 222.452184 
L 233.237762 218.144939 
L 243.506408 218.063763 
L 253.775053 216.708373 
L 264.043699 213.66064 
L 274.312345 211.211828 
L 284.58099 208.624207 
L 294.849636 206.507719 
L 305.118282 203.958244 
L 315.386927 204.235916 
L 325.655573 198.622559 
L 335.924218 198.365857 
L 346.192864 197.042659 
L 356.46151 192.466446 
L 366.730155 189.46406 
L 376.998801 188.542947 
L 387.267447 186.980906 
L 397.536092 186.487095 
L 407.804738 179.34607 
L 418.073384 180.135139 
L 428.342029 180.99139 
L 438.610675 178.63209 
L 448.879321 175.609428 
L 459.147966 176.034012 
L 469.416612 171.897686 
L 479.685257 170.993382 
L 489.953903 166.961696 
L 500.222549 165.6137 
L 510.491194 168.939381 
L 520.75984 163.528371 
L 531.028486 164.157542 
L 541.297131 158.83081 
L 551.565777 158.529819 
L 561.834423 156.450246 
L 572.103068 157.112286 
" clip-path="url(#p0a37a26b6d)" style="fill: none; stroke: #7aa6c2; stroke-width: 2; stroke-linecap: square"/>
   </g>
   <g id="patch_3">
    <path d="M 43.78125 277.478125 
L 43.78125 22.318125 
" style="fill: none; stroke: #000000; stroke-width: 0.8; stroke-linejoin: miter; stroke-linecap: square"/>
   </g>
   <g id="patch_4">
    <path d="M 597.26125 277.478125 
L 597.26125 22.318125 
" style="fill: none; stroke: #000000; stroke-width: 0.8; stroke-linejoin: miter; stroke-linecap: square"/>
   </g>
   <g id="patch_5">
    <path d="M 43.78125 277.478125 
L 597.26125 277.478125 
" style="fill: none; stroke: #000000; stroke-width: 0.8; stroke-linejoin: miter; stroke-linecap: square"/>
   </g>
   <g id="patch_6">
    <path d="M 43.78125 22.318125 
L 597.26125 22.318125 
" style="fill: none; stroke: #000000; stroke-width: 0.8; stroke-linejoin: miter; stroke-linecap: square"/>
   </g>
   <g id="text_14">
    <!-- Tracked runs let you compare training trajectories side by side -->
    <g transform="translate(132.80375 16.318125) scale(0.12 -0.12)">
     <defs>
      <path id="DejaVuSans-54" d="M -19 4666 
L 3928 4666 
L 3928 4134 
L 2272 4134 
L 2272 0 
L 1638 0 
L 1638 4134 
L -19 4134 
L -19 4666 
z
" transform="scale(0.015625)"/>
      <path id="DejaVuSans-6b" d="M 581 4863 
L 1159 4863 
L 1159 1991 
L 2875 3500 
L 3609 3500 
L 1753 1863 
L 3688 0 
L 2938 0 
L 1159 1709 
L 1159 0 
L 581 0 
L 581 4863 
z
" transform="scale(0.015625)"/>
      <path id="DejaVuSans-64" d="M 2906 2969 
L 2906 4863 
L 3481 4863 
L 3481 0 
L 2906 0 
L 2906 525 
Q 2725 213 2448 61 
Q 2172 -91 1784 -91 
Q 1150 -91 751 415 
Q 353 922 353 1747 
Q 353 2572 751 3078 
Q 1150 3584 1784 3584 
Q 2172 3584 2448 3432 
Q 2725 3281 2906 2969 
z
M 947 1747 
Q 947 1113 1208 752 
Q 1469 391 1925 391 
Q 2381 391 2643 752 
Q 2906 1113 2906 1747 
Q 2906 2381 2643 2742 
Q 2381 3103 1925 3103 
Q 1469 3103 1208 2742 
Q 947 2381 947 1747 
z
" transform="scale(0.015625)"/>
      <path id="DejaVuSans-6e" d="M 3513 2113 
L 3513 0 
L 2938 0 
L 2938 2094 
Q 2938 2591 2744 2837 
Q 2550 3084 2163 3084 
Q 1697 3084 1428 2787 
Q 1159 2491 1159 1978 
L 1159 0 
L 581 0 
L 581 3500 
L 1159 3500 
L 1159 2956 
Q 1366 3272 1645 3428 
Q 1925 3584 2291 3584 
Q 2894 3584 3203 3211 
Q 3513 2838 3513 2113 
z
" transform="scale(0.015625)"/>
      <path id="DejaVuSans-73" d="M 2834 3397 
L 2834 2853 
Q 2591 2978 2328 3040 
Q 2066 3103 1784 3103 
Q 1356 3103 1142 2972 
Q 928 2841 928 2578 
Q 928 2378 1081 2264 
Q 1234 2150 1697 2047 
L 1894 2003 
Q 2506 1872 2764 1633 
Q 3022 1394 3022 966 
Q 3022 478 2636 193 
Q 2250 -91 1575 -91 
Q 1294 -91 989 -36 
Q 684 19 347 128 
L 347 722 
Q 666 556 975 473 
Q 1284 391 1588 391 
Q 1994 391 2212 530 
Q 2431 669 2431 922 
Q 2431 1156 2273 1281 
Q 2116 1406 1581 1522 
L 1381 1569 
Q 847 1681 609 1914 
Q 372 2147 372 2553 
Q 372 3047 722 3315 
Q 1072 3584 1716 3584 
Q 2034 3584 2315 3537 
Q 2597 3491 2834 3397 
z
" transform="scale(0.015625)"/>
      <path id="DejaVuSans-74" d="M 1172 4494 
L 1172 3500 
L 2356 3500 
L 2356 3053 
L 1172 3053 
L 1172 1153 
Q 1172 725 1289 603 
Q 1406 481 1766 481 
L 2356 481 
L 2356 0 
L 1766 0 
Q 1100 0 847 248 
Q 594 497 594 1153 
L 594 3053 
L 172 3053 
L 172 3500 
L 594 3500 
L 594 4494 
L 1172 4494 
z
" transform="scale(0.015625)"/>
      <path id="DejaVuSans-6d" d="M 3328 2828 
Q 3544 3216 3844 3400 
Q 4144 3584 4550 3584 
Q 5097 3584 5394 3201 
Q 5691 2819 5691 2113 
L 5691 0 
L 5113 0 
L 5113 2094 
Q 5113 2597 4934 2840 
Q 4756 3084 4391 3084 
Q 3944 3084 3684 2787 
Q 3425 2491 3425 1978 
L 3425 0 
L 2847 0 
L 2847 2094 
Q 2847 2600 2669 2842 
Q 2491 3084 2119 3084 
Q 1678 3084 1418 2786 
Q 1159 2488 1159 1978 
L 1159 0 
L 581 0 
L 581 3500 
L 1159 3500 
L 1159 2956 
Q 1356 3278 1631 3431 
Q 1906 3584 2284 3584 
Q 2666 3584 2933 3390 
Q 3200 3197 3328 2828 
z
" transform="scale(0.015625)"/>
      <path id="DejaVuSans-69" d="M 603 3500 
L 1178 3500 
L 1178 0 
L 603 0 
L 603 3500 
z
M 603 4863 
L 1178 4863 
L 1178 4134 
L 603 4134 
L 603 4863 
z
" transform="scale(0.015625)"/>
      <path id="DejaVuSans-67" d="M 2906 1791 
Q 2906 2416 2648 2759 
Q 2391 3103 1925 3103 
Q 1463 3103 1205 2759 
Q 947 2416 947 1791 
Q 947 1169 1205 825 
Q 1463 481 1925 481 
Q 2391 481 2648 825 
Q 2906 1169 2906 1791 
z
M 3481 434 
Q 3481 -459 3084 -895 
Q 2688 -1331 1869 -1331 
Q 1566 -1331 1297 -1286 
Q 1028 -1241 775 -1147 
L 775 -588 
Q 1028 -725 1275 -790 
Q 1522 -856 1778 -856 
Q 2344 -856 2625 -561 
Q 2906 -266 2906 331 
L 2906 616 
Q 2728 306 2450 153 
Q 2172 0 1784 0 
Q 1141 0 747 490 
Q 353 981 353 1791 
Q 353 2603 747 3093 
Q 1141 3584 1784 3584 
Q 2172 3584 2450 3431 
Q 2728 3278 2906 2969 
L 2906 3500 
L 3481 3500 
L 3481 434 
z
" transform="scale(0.015625)"/>
      <path id="DejaVuSans-6a" d="M 603 3500 
L 1178 3500 
L 1178 -63 
Q 1178 -731 923 -1031 
Q 669 -1331 103 -1331 
L -116 -1331 
L -116 -844 
L 38 -844 
Q 366 -844 484 -692 
Q 603 -541 603 -63 
L 603 3500 
z
M 603 4863 
L 1178 4863 
L 1178 4134 
L 603 4134 
L 603 4863 
z
" transform="scale(0.015625)"/>
      <path id="DejaVuSans-62" d="M 3116 1747 
Q 3116 2381 2855 2742 
Q 2594 3103 2138 3103 
Q 1681 3103 1420 2742 
Q 1159 2381 1159 1747 
Q 1159 1113 1420 752 
Q 1681 391 2138 391 
Q 2594 391 2855 752 
Q 3116 1113 3116 1747 
z
M 1159 2969 
Q 1341 3281 1617 3432 
Q 1894 3584 2278 3584 
Q 2916 3584 3314 3078 
Q 3713 2572 3713 1747 
Q 3713 922 3314 415 
Q 2916 -91 2278 -91 
Q 1894 -91 1617 61 
Q 1341 213 1159 525 
L 1159 0 
L 581 0 
L 581 4863 
L 1159 4863 
L 1159 2969 
z
" transform="scale(0.015625)"/>
     </defs>
     <use xlink:href="#DejaVuSans-54"/>
     <use xlink:href="#DejaVuSans-72" transform="translate(46.333984 0)"/>
     <use xlink:href="#DejaVuSans-61" transform="translate(87.447266 0)"/>
     <use xlink:href="#DejaVuSans-63" transform="translate(148.726562 0)"/>
     <use xlink:href="#DejaVuSans-6b" transform="translate(203.707031 0)"/>
     <use xlink:href="#DejaVuSans-65" transform="translate(257.992188 0)"/>
     <use xlink:href="#DejaVuSans-64" transform="translate(319.515625 0)"/>
     <use xlink:href="#DejaVuSans-20" transform="translate(382.992188 0)"/>
     <use xlink:href="#DejaVuSans-72" transform="translate(414.779297 0)"/>
     <use xlink:href="#DejaVuSans-75" transform="translate(455.892578 0)"/>
     <use xlink:href="#DejaVuSans-6e" transform="translate(519.271484 0)"/>
     <use xlink:href="#DejaVuSans-73" transform="translate(582.650391 0)"/>
     <use xlink:href="#DejaVuSans-20" transform="translate(634.75 0)"/>
     <use xlink:href="#DejaVuSans-6c" transform="translate(666.537109 0)"/>
     <use xlink:href="#DejaVuSans-65" transform="translate(694.320312 0)"/>
     <use xlink:href="#DejaVuSans-74" transform="translate(755.84375 0)"/>
     <use xlink:href="#DejaVuSans-20" transform="translate(795.052734 0)"/>
     <use xlink:href="#DejaVuSans-79" transform="translate(826.839844 0)"/>
     <use xlink:href="#DejaVuSans-6f" transform="translate(886.019531 0)"/>
     <use xlink:href="#DejaVuSans-75" transform="translate(947.201172 0)"/>
     <use xlink:href="#DejaVuSans-20" transform="translate(1010.580078 0)"/>
     <use xlink:href="#DejaVuSans-63" transform="translate(1042.367188 0)"/>
     <use xlink:href="#DejaVuSans-6f" transform="translate(1097.347656 0)"/>
     <use xlink:href="#DejaVuSans-6d" transform="translate(1158.529297 0)"/>
     <use xlink:href="#DejaVuSans-70" transform="translate(1255.941406 0)"/>
     <use xlink:href="#DejaVuSans-61" transform="translate(1319.417969 0)"/>
     <use xlink:href="#DejaVuSans-72" transform="translate(1380.697266 0)"/>
     <use xlink:href="#DejaVuSans-65" transform="translate(1419.560547 0)"/>
     <use xlink:href="#DejaVuSans-20" transform="translate(1481.083984 0)"/>
     <use xlink:href="#DejaVuSans-74" transform="translate(1512.871094 0)"/>
     <use xlink:href="#DejaVuSans-72" transform="translate(1552.080078 0)"/>
     <use xlink:href="#DejaVuSans-61" transform="translate(1593.193359 0)"/>
     <use xlink:href="#DejaVuSans-69" transform="translate(1654.472656 0)"/>
     <use xlink:href="#DejaVuSans-6e" transform="translate(1682.255859 0)"/>
     <use xlink:href="#DejaVuSans-69" transform="translate(1745.634766 0)"/>
     <use xlink:href="#DejaVuSans-6e" transform="translate(1773.417969 0)"/>
     <use xlink:href="#DejaVuSans-67" transform="translate(1836.796875 0)"/>
     <use xlink:href="#DejaVuSans-20" transform="translate(1900.273438 0)"/>
     <use xlink:href="#DejaVuSans-74" transform="translate(1932.060547 0)"/>
     <use xlink:href="#DejaVuSans-72" transform="translate(1971.269531 0)"/>
     <use xlink:href="#DejaVuSans-61" transform="translate(2012.382812 0)"/>
     <use xlink:href="#DejaVuSans-6a" transform="translate(2073.662109 0)"/>
     <use xlink:href="#DejaVuSans-65" transform="translate(2101.445312 0)"/>
     <use xlink:href="#DejaVuSans-63" transform="translate(2162.96875 0)"/>
     <use xlink:href="#DejaVuSans-74" transform="translate(2217.949219 0)"/>
     <use xlink:href="#DejaVuSans-6f" transform="translate(2257.158203 0)"/>
     <use xlink:href="#DejaVuSans-72" transform="translate(2318.339844 0)"/>
     <use xlink:href="#DejaVuSans-69" transform="translate(2359.453125 0)"/>
     <use xlink:href="#DejaVuSans-65" transform="translate(2387.236328 0)"/>
     <use xlink:href="#DejaVuSans-73" transform="translate(2448.759766 0)"/>
     <use xlink:href="#DejaVuSans-20" transform="translate(2500.859375 0)"/>
     <use xlink:href="#DejaVuSans-73" transform="translate(2532.646484 0)"/>
     <use xlink:href="#DejaVuSans-69" transform="translate(2584.746094 0)"/>
     <use xlink:href="#DejaVuSans-64" transform="translate(2612.529297 0)"/>
     <use xlink:href="#DejaVuSans-65" transform="translate(2676.005859 0)"/>
     <use xlink:href="#DejaVuSans-20" transform="translate(2737.529297 0)"/>
     <use xlink:href="#DejaVuSans-62" transform="translate(2769.316406 0)"/>
     <use xlink:href="#DejaVuSans-79" transform="translate(2832.792969 0)"/>
     <use xlink:href="#DejaVuSans-20" transform="translate(2891.972656 0)"/>
     <use xlink:href="#DejaVuSans-73" transform="translate(2923.759766 0)"/>
     <use xlink:href="#DejaVuSans-69" transform="translate(2975.859375 0)"/>
     <use xlink:href="#DejaVuSans-64" transform="translate(3003.642578 0)"/>
     <use xlink:href="#DejaVuSans-65" transform="translate(3067.119141 0)"/>
    </g>
   </g>
   <g id="legend_1">
    <g id="patch_7">
     <path d="M 450.377031 272.978125 
L 590.96125 272.978125 
Q 592.76125 272.978125 592.76125 271.178125 
L 592.76125 219.236875 
Q 592.76125 217.436875 590.96125 217.436875 
L 450.377031 217.436875 
Q 448.577031 217.436875 448.577031 219.236875 
L 448.577031 271.178125 
Q 448.577031 272.978125 450.377031 272.978125 
z
" style="fill: #ffffff; opacity: 0.8; stroke: #cccccc; stroke-linejoin: miter"/>
    </g>
    <g id="line2d_27">
     <path d="M 452.177031 224.725469 
L 461.177031 224.725469 
L 470.177031 224.725469 
" style="fill: none; stroke: #999999; stroke-width: 2; stroke-linecap: square"/>
    </g>
    <g id="text_15">
     <!-- run #12 lr=1e-2 bs=128 -->
     <g transform="translate(477.377031 227.875469) scale(0.09 -0.09)">
      <defs>
       <path id="DejaVuSans-23" d="M 3272 2816 
L 2363 2816 
L 2100 1772 
L 3016 1772 
L 3272 2816 
z
M 2803 4594 
L 2478 3297 
L 3391 3297 
L 3719 4594 
L 4219 4594 
L 3897 3297 
L 4872 3297 
L 4872 2816 
L 3775 2816 
L 3519 1772 
L 4513 1772 
L 4513 1294 
L 3397 1294 
L 3072 0 
L 2572 0 
L 2894 1294 
L 1978 1294 
L 1656 0 
L 1153 0 
L 1478 1294 
L 494 1294 
L 494 1772 
L 1594 1772 
L 1856 2816 
L 850 2816 
L 850 3297 
L 1978 3297 
L 2297 4594 
L 2803 4594 
z
" transform="scale(0.015625)"/>
       <path id="DejaVuSans-3d" d="M 678 2906 
L 4684 2906 
L 4684 2381 
L 678 2381 
L 678 2906 
z
M 678 1631 
L 4684 1631 
L 4684 1100 
L 678 1100 
L 678 1631 
z
" transform="scale(0.015625)"/>
       <path id="DejaVuSans-2d" d="M 313 2009 
L 1997 2009 
L 1997 1497 
L 313 1497 
L 313 2009 
z
" transform="scale(0.015625)"/>
      </defs>
      <use xlink:href="#DejaVuSans-72"/>
      <use xlink:href="#DejaVuSans-75" transform="translate(41.113281 0)"/>
      <use xlink:href="#DejaVuSans-6e" transform="translate(104.492188 0)"/>
      <use xlink:href="#DejaVuSans-20" transform="translate(167.871094 0)"/>
      <use xlink:href="#DejaVuSans-23" transform="translate(199.658203 0)"/>
      <use xlink:href="#DejaVuSans-31" transform="translate(283.447266 0)"/>
      <use xlink:href="#DejaVuSans-32" transform="translate(347.070312 0)"/>
      <use xlink:href="#DejaVuSans-20" transform="translate(410.693359 0)"/>
      <use xlink:href="#DejaVuSans-6c" transform="translate(442.480469 0)"/>
      <use xlink:href="#DejaVuSans-72" transform="translate(470.263672 0)"/>
      <use xlink:href="#DejaVuSans-3d" transform="translate(511.376953 0)"/>
      <use xlink:href="#DejaVuSans-31" transform="translate(595.166016 0)"/>
      <use xlink:href="#DejaVuSans-65" transform="translate(658.789062 0)"/>
      <use xlink:href="#DejaVuSans-2d" transform="translate(720.3125 0)"/>
      <use xlink:href="#DejaVuSans-32" transform="translate(756.396484 0)"/>
      <use xlink:href="#DejaVuSans-20" transform="translate(820.019531 0)"/>
      <use xlink:href="#DejaVuSans-62" transform="translate(851.806641 0)"/>
      <use xlink:href="#DejaVuSans-73" transform="translate(915.283203 0)"/>
      <use xlink:href="#DejaVuSans-3d" transform="translate(967.382812 0)"/>
      <use xlink:href="#DejaVuSans-31" transform="translate(1051.171875 0)"/>
      <use xlink:href="#DejaVuSans-32" transform="translate(1114.794922 0)"/>
      <use xlink:href="#DejaVuSans-38" transform="translate(1178.417969 0)"/>
     </g>
    </g>
    <g id="line2d_28">
     <path d="M 452.177031 237.935781 
L 461.177031 237.935781 
L 470.177031 237.935781 
" style="fill: none; stroke: #f28e2b; stroke-width: 2; stroke-linecap: square"/>
    </g>
    <g id="text_16">
     <!-- run #18 lr=3e-3 bs=64 -->
     <g transform="translate(477.377031 241.085781) scale(0.09 -0.09)">
      <use xlink:href="#DejaVuSans-72"/>
      <use xlink:href="#DejaVuSans-75" transform="translate(41.113281 0)"/>
      <use xlink:href="#DejaVuSans-6e" transform="translate(104.492188 0)"/>
      <use xlink:href="#DejaVuSans-20" transform="translate(167.871094 0)"/>
      <use xlink:href="#DejaVuSans-23" transform="translate(199.658203 0)"/>
      <use xlink:href="#DejaVuSans-31" transform="translate(283.447266 0)"/>
      <use xlink:href="#DejaVuSans-38" transform="translate(347.070312 0)"/>
      <use xlink:href="#DejaVuSans-20" transform="translate(410.693359 0)"/>
      <use xlink:href="#DejaVuSans-6c" transform="translate(442.480469 0)"/>
      <use xlink:href="#DejaVuSans-72" transform="translate(470.263672 0)"/>
      <use xlink:href="#DejaVuSans-3d" transform="translate(511.376953 0)"/>
      <use xlink:href="#DejaVuSans-33" transform="translate(595.166016 0)"/>
      <use xlink:href="#DejaVuSans-65" transform="translate(658.789062 0)"/>
      <use xlink:href="#DejaVuSans-2d" transform="translate(720.3125 0)"/>
      <use xlink:href="#DejaVuSans-33" transform="translate(756.396484 0)"/>
      <use xlink:href="#DejaVuSans-20" transform="translate(820.019531 0)"/>
      <use xlink:href="#DejaVuSans-62" transform="translate(851.806641 0)"/>
      <use xlink:href="#DejaVuSans-73" transform="translate(915.283203 0)"/>
      <use xlink:href="#DejaVuSans-3d" transform="translate(967.382812 0)"/>
      <use xlink:href="#DejaVuSans-36" transform="translate(1051.171875 0)"/>
      <use xlink:href="#DejaVuSans-34" transform="translate(1114.794922 0)"/>
     </g>
    </g>
    <g id="line2d_29">
     <path d="M 452.177031 251.146094 
L 461.177031 251.146094 
L 470.177031 251.146094 
" style="fill: none; stroke: #59a14f; stroke-width: 2; stroke-linecap: square"/>
    </g>
    <g id="text_17">
     <!-- run #23 lr=1e-3 bs=64 -->
     <g transform="translate(477.377031 254.296094) scale(0.09 -0.09)">
      <use xlink:href="#DejaVuSans-72"/>
      <use xlink:href="#DejaVuSans-75" transform="translate(41.113281 0)"/>
      <use xlink:href="#DejaVuSans-6e" transform="translate(104.492188 0)"/>
      <use xlink:href="#DejaVuSans-20" transform="translate(167.871094 0)"/>
      <use xlink:href="#DejaVuSans-23" transform="translate(199.658203 0)"/>
      <use xlink:href="#DejaVuSans-32" transform="translate(283.447266 0)"/>
      <use xlink:href="#DejaVuSans-33" transform="translate(347.070312 0)"/>
      <use xlink:href="#DejaVuSans-20" transform="translate(410.693359 0)"/>
      <use xlink:href="#DejaVuSans-6c" transform="translate(442.480469 0)"/>
      <use xlink:href="#DejaVuSans-72" transform="translate(470.263672 0)"/>
      <use xlink:href="#DejaVuSans-3d" transform="translate(511.376953 0)"/>
      <use xlink:href="#DejaVuSans-31" transform="translate(595.166016 0)"/>
      <use xlink:href="#DejaVuSans-65" transform="translate(658.789062 0)"/>
      <use xlink:href="#DejaVuSans-2d" transform="translate(720.3125 0)"/>
      <use xlink:href="#DejaVuSans-33" transform="translate(756.396484 0)"/>
      <use xlink:href="#DejaVuSans-20" transform="translate(820.019531 0)"/>
      <use xlink:href="#DejaVuSans-62" transform="translate(851.806641 0)"/>
      <use xlink:href="#DejaVuSans-73" transform="translate(915.283203 0)"/>
      <use xlink:href="#DejaVuSans-3d" transform="translate(967.382812 0)"/>
      <use xlink:href="#DejaVuSans-36" transform="translate(1051.171875 0)"/>
      <use xlink:href="#DejaVuSans-34" transform="translate(1114.794922 0)"/>
     </g>
    </g>
    <g id="line2d_30">
     <path d="M 452.177031 264.356406 
L 461.177031 264.356406 
L 470.177031 264.356406 
" style="fill: none; stroke: #7aa6c2; stroke-width: 2; stroke-linecap: square"/>
    </g>
    <g id="text_18">
     <!-- run #27 lr=1e-4 bs=32 -->
     <g transform="translate(477.377031 267.506406) scale(0.09 -0.09)">
      <defs>
       <path id="DejaVuSans-37" d="M 525 4666 
L 3525 4666 
L 3525 4397 
L 1831 0 
L 1172 0 
L 2766 4134 
L 525 4134 
L 525 4666 
z
" transform="scale(0.015625)"/>
      </defs>
      <use xlink:href="#DejaVuSans-72"/>
      <use xlink:href="#DejaVuSans-75" transform="translate(41.113281 0)"/>
      <use xlink:href="#DejaVuSans-6e" transform="translate(104.492188 0)"/>
      <use xlink:href="#DejaVuSans-20" transform="translate(167.871094 0)"/>
      <use xlink:href="#DejaVuSans-23" transform="translate(199.658203 0)"/>
      <use xlink:href="#DejaVuSans-32" transform="translate(283.447266 0)"/>
      <use xlink:href="#DejaVuSans-37" transform="translate(347.070312 0)"/>
      <use xlink:href="#DejaVuSans-20" transform="translate(410.693359 0)"/>
      <use xlink:href="#DejaVuSans-6c" transform="translate(442.480469 0)"/>
      <use xlink:href="#DejaVuSans-72" transform="translate(470.263672 0)"/>
      <use xlink:href="#DejaVuSans-3d" transform="translate(511.376953 0)"/>
      <use xlink:href="#DejaVuSans-31" transform="translate(595.166016 0)"/>
      <use xlink:href="#DejaVuSans-65" transform="translate(658.789062 0)"/>
      <use xlink:href="#DejaVuSans-2d" transform="translate(720.3125 0)"/>
      <use xlink:href="#DejaVuSans-34" transform="translate(756.396484 0)"/>
      <use xlink:href="#DejaVuSans-20" transform="translate(820.019531 0)"/>
      <use xlink:href="#DejaVuSans-62" transform="translate(851.806641 0)"/>
      <use xlink:href="#DejaVuSans-73" transform="translate(915.283203 0)"/>
      <use xlink:href="#DejaVuSans-3d" transform="translate(967.382812 0)"/>
      <use xlink:href="#DejaVuSans-33" transform="translate(1051.171875 0)"/>
      <use xlink:href="#DejaVuSans-32" transform="translate(1114.794922 0)"/>
     </g>
    </g>
   </g>
  </g>
 </g>
 <defs>
  <clipPath id="p0a37a26b6d">
   <rect x="43.78125" y="22.318125" width="553.48" height="255.16"/>
  </clipPath>
 </defs>
</svg>
