<?xml version="1.0" encoding="utf-8" standalone="no"?>
<!DOCTYPE svg PUBLIC "-//W3C//DTD SVG 1.1//EN"
  "http://www.w3.org/Graphics/SVG/1.1/DTD/svg11.dtd">
<svg xmlns:xlink="http://www.w3.org/1999/xlink" width="360.387125pt" height="385.49575pt" viewBox="0 0 360.387125 385.49575" xmlns="http://www.w3.org/2000/svg" version="1.1">
 <metadata>
  <rdf:RDF xmlns:dc="http://purl.org/dc/elements/1.1/" xmlns:cc="http://creativecommons.org/ns#" xmlns:rdf="http://www.w3.org/1999/02/22-rdf-syntax-ns#">
   <cc:Work>
    <dc:type rdf:resource="http://purl.org/dc/dcmitype/StillImage"/>
    <dc:date>2026-05-26T10:44:23.042704</dc:date>
    <dc:format>image/svg+xml</dc:format>
    <dc:creator>
     <cc:Agent>
      <dc:title>Matplotlib v3.10.8, https://matplotlib.org/</dc:title>
     </cc:Agent>
    </dc:creator>
   </cc:Work>
  </rdf:RDF>
 </metadata>
 <defs>
  <style type="text/css">*{stroke-linejoin: round; stroke-linecap: butt}</style>
 </defs>
 <g id="figure_1">
  <g id="patch_1">
   <path d="M 0 385.49575 
L 360.387125 385.49575 
L 360.387125 0 
L 0 0 
z
" style="fill: #ffffff"/>
  </g>
  <g id="axes_1">
   <g id="patch_2">
    <path d="M 41.003125 347.9395 
L 353.187125 347.9395 
L 353.187125 35.7555 
L 41.003125 35.7555 
z
" style="fill: #ffffff"/>
   </g>
   <g id="PathCollection_1">
    <defs>
     <path id="mb46b47b5f5" d="M 0 2.738613 
C 0.726289 2.738613 1.422928 2.450055 1.936492 1.936492 
C 2.450055 1.422928 2.738613 0.726289 2.738613 0 
C 2.738613 -0.726289 2.450055 -1.422928 1.936492 -1.936492 
C 1.422928 -2.450055 0.726289 -2.738613 0 -2.738613 
C -0.726289 -2.738613 -1.422928 -2.450055 -1.936492 -1.936492 
C -2.450055 -1.422928 -2.738613 -0.726289 -2.738613 0 
C -2.738613 0.726289 -2.450055 1.422928 -1.936492 1.936492 
C -1.422928 2.450055 -0.726289 2.738613 0 2.738613 
z
" style="stroke: #7aa6c2; stroke-opacity: 0.6"/>
    </defs>
    <g clip-path="url(#pa62bccffee)">
     <use xlink:href="#mb46b47b5f5" x="83.146578" y="308.642387" style="fill: #7aa6c2; fill-opacity: 0.6; stroke: #7aa6c2; stroke-opacity: 0.6"/>
     <use xlink:href="#mb46b47b5f5" x="79.345247" y="306.158325" style="fill: #7aa6c2; fill-opacity: 0.6; stroke: #7aa6c2; stroke-opacity: 0.6"/>
     <use xlink:href="#mb46b47b5f5" x="100.519208" y="303.674262" style="fill: #7aa6c2; fill-opacity: 0.6; stroke: #7aa6c2; stroke-opacity: 0.6"/>
     <use xlink:href="#mb46b47b5f5" x="89.98692" y="301.1902" style="fill: #7aa6c2; fill-opacity: 0.6; stroke: #7aa6c2; stroke-opacity: 0.6"/>
     <use xlink:href="#mb46b47b5f5" x="76.908365" y="298.706138" style="fill: #7aa6c2; fill-opacity: 0.6; stroke: #7aa6c2; stroke-opacity: 0.6"/>
     <use xlink:href="#mb46b47b5f5" x="101.105865" y="296.222076" style="fill: #7aa6c2; fill-opacity: 0.6; stroke: #7aa6c2; stroke-opacity: 0.6"/>
     <use xlink:href="#mb46b47b5f5" x="126.397542" y="293.738014" style="fill: #7aa6c2; fill-opacity: 0.6; stroke: #7aa6c2; stroke-opacity: 0.6"/>
     <use xlink:href="#mb46b47b5f5" x="120.194481" y="291.253952" style="fill: #7aa6c2; fill-opacity: 0.6; stroke: #7aa6c2; stroke-opacity: 0.6"/>
     <use xlink:href="#mb46b47b5f5" x="82.628229" y="288.76989" style="fill: #7aa6c2; fill-opacity: 0.6; stroke: #7aa6c2; stroke-opacity: 0.6"/>
     <use xlink:href="#mb46b47b5f5" x="71.461751" y="286.285828" style="fill: #7aa6c2; fill-opacity: 0.6; stroke: #7aa6c2; stroke-opacity: 0.6"/>
     <use xlink:href="#mb46b47b5f5" x="89.475377" y="283.801766" style="fill: #7aa6c2; fill-opacity: 0.6; stroke: #7aa6c2; stroke-opacity: 0.6"/>
     <use xlink:href="#mb46b47b5f5" x="108.033259" y="281.317704" style="fill: #7aa6c2; fill-opacity: 0.6; stroke: #7aa6c2; stroke-opacity: 0.6"/>
     <use xlink:href="#mb46b47b5f5" x="53.122787" y="278.833642" style="fill: #7aa6c2; fill-opacity: 0.6; stroke: #7aa6c2; stroke-opacity: 0.6"/>
     <use xlink:href="#mb46b47b5f5" x="106.625016" y="276.349579" style="fill: #7aa6c2; fill-opacity: 0.6; stroke: #7aa6c2; stroke-opacity: 0.6"/>
     <use xlink:href="#mb46b47b5f5" x="84.176755" y="273.865517" style="fill: #7aa6c2; fill-opacity: 0.6; stroke: #7aa6c2; stroke-opacity: 0.6"/>
     <use xlink:href="#mb46b47b5f5" x="99.075545" y="271.381455" style="fill: #7aa6c2; fill-opacity: 0.6; stroke: #7aa6c2; stroke-opacity: 0.6"/>
     <use xlink:href="#mb46b47b5f5" x="106.081158" y="268.897393" style="fill: #7aa6c2; fill-opacity: 0.6; stroke: #7aa6c2; stroke-opacity: 0.6"/>
     <use xlink:href="#mb46b47b5f5" x="114.055142" y="266.413331" style="fill: #7aa6c2; fill-opacity: 0.6; stroke: #7aa6c2; stroke-opacity: 0.6"/>
     <use xlink:href="#mb46b47b5f5" x="134.148107" y="263.929269" style="fill: #7aa6c2; fill-opacity: 0.6; stroke: #7aa6c2; stroke-opacity: 0.6"/>
     <use xlink:href="#mb46b47b5f5" x="151.888697" y="261.445207" style="fill: #7aa6c2; fill-opacity: 0.6; stroke: #7aa6c2; stroke-opacity: 0.6"/>
     <use xlink:href="#mb46b47b5f5" x="125.951701" y="258.961145" style="fill: #7aa6c2; fill-opacity: 0.6; stroke: #7aa6c2; stroke-opacity: 0.6"/>
     <use xlink:href="#mb46b47b5f5" x="164.637861" y="256.477083" style="fill: #7aa6c2; fill-opacity: 0.6; stroke: #7aa6c2; stroke-opacity: 0.6"/>
     <use xlink:href="#mb46b47b5f5" x="117.840258" y="253.993021" style="fill: #7aa6c2; fill-opacity: 0.6; stroke: #7aa6c2; stroke-opacity: 0.6"/>
     <use xlink:href="#mb46b47b5f5" x="144.93291" y="251.508959" style="fill: #7aa6c2; fill-opacity: 0.6; stroke: #7aa6c2; stroke-opacity: 0.6"/>
     <use xlink:href="#mb46b47b5f5" x="160.760467" y="249.024896" style="fill: #7aa6c2; fill-opacity: 0.6; stroke: #7aa6c2; stroke-opacity: 0.6"/>
     <use xlink:href="#mb46b47b5f5" x="143.588171" y="246.540834" style="fill: #7aa6c2; fill-opacity: 0.6; stroke: #7aa6c2; stroke-opacity: 0.6"/>
     <use xlink:href="#mb46b47b5f5" x="125.735874" y="244.056772" style="fill: #7aa6c2; fill-opacity: 0.6; stroke: #7aa6c2; stroke-opacity: 0.6"/>
     <use xlink:href="#mb46b47b5f5" x="123.86421" y="241.57271" style="fill: #7aa6c2; fill-opacity: 0.6; stroke: #7aa6c2; stroke-opacity: 0.6"/>
     <use xlink:href="#mb46b47b5f5" x="137.559662" y="239.088648" style="fill: #7aa6c2; fill-opacity: 0.6; stroke: #7aa6c2; stroke-opacity: 0.6"/>
     <use xlink:href="#mb46b47b5f5" x="156.440424" y="236.604586" style="fill: #7aa6c2; fill-opacity: 0.6; stroke: #7aa6c2; stroke-opacity: 0.6"/>
     <use xlink:href="#mb46b47b5f5" x="129.078997" y="234.120524" style="fill: #7aa6c2; fill-opacity: 0.6; stroke: #7aa6c2; stroke-opacity: 0.6"/>
     <use xlink:href="#mb46b47b5f5" x="150.929602" y="231.636462" style="fill: #7aa6c2; fill-opacity: 0.6; stroke: #7aa6c2; stroke-opacity: 0.6"/>
     <use xlink:href="#mb46b47b5f5" x="154.588786" y="229.1524" style="fill: #7aa6c2; fill-opacity: 0.6; stroke: #7aa6c2; stroke-opacity: 0.6"/>
     <use xlink:href="#mb46b47b5f5" x="174.006441" y="226.668338" style="fill: #7aa6c2; fill-opacity: 0.6; stroke: #7aa6c2; stroke-opacity: 0.6"/>
     <use xlink:href="#mb46b47b5f5" x="168.548318" y="224.184276" style="fill: #7aa6c2; fill-opacity: 0.6; stroke: #7aa6c2; stroke-opacity: 0.6"/>
     <use xlink:href="#mb46b47b5f5" x="174.407537" y="221.700213" style="fill: #7aa6c2; fill-opacity: 0.6; stroke: #7aa6c2; stroke-opacity: 0.6"/>
     <use xlink:href="#mb46b47b5f5" x="152.393596" y="219.216151" style="fill: #7aa6c2; fill-opacity: 0.6; stroke: #7aa6c2; stroke-opacity: 0.6"/>
     <use xlink:href="#mb46b47b5f5" x="167.548629" y="216.732089" style="fill: #7aa6c2; fill-opacity: 0.6; stroke: #7aa6c2; stroke-opacity: 0.6"/>
     <use xlink:href="#mb46b47b5f5" x="192.141828" y="214.248027" style="fill: #7aa6c2; fill-opacity: 0.6; stroke: #7aa6c2; stroke-opacity: 0.6"/>
     <use xlink:href="#mb46b47b5f5" x="211.78697" y="211.763965" style="fill: #7aa6c2; fill-opacity: 0.6; stroke: #7aa6c2; stroke-opacity: 0.6"/>
     <use xlink:href="#mb46b47b5f5" x="147.516728" y="209.279903" style="fill: #7aa6c2; fill-opacity: 0.6; stroke: #7aa6c2; stroke-opacity: 0.6"/>
     <use xlink:href="#mb46b47b5f5" x="217.180531" y="206.795841" style="fill: #7aa6c2; fill-opacity: 0.6; stroke: #7aa6c2; stroke-opacity: 0.6"/>
     <use xlink:href="#mb46b47b5f5" x="215.555569" y="204.311779" style="fill: #7aa6c2; fill-opacity: 0.6; stroke: #7aa6c2; stroke-opacity: 0.6"/>
     <use xlink:href="#mb46b47b5f5" x="204.319335" y="201.827717" style="fill: #7aa6c2; fill-opacity: 0.6; stroke: #7aa6c2; stroke-opacity: 0.6"/>
     <use xlink:href="#mb46b47b5f5" x="194.239517" y="199.343655" style="fill: #7aa6c2; fill-opacity: 0.6; stroke: #7aa6c2; stroke-opacity: 0.6"/>
     <use xlink:href="#mb46b47b5f5" x="182.668431" y="196.859593" style="fill: #7aa6c2; fill-opacity: 0.6; stroke: #7aa6c2; stroke-opacity: 0.6"/>
     <use xlink:href="#mb46b47b5f5" x="228.067561" y="194.37553" style="fill: #7aa6c2; fill-opacity: 0.6; stroke: #7aa6c2; stroke-opacity: 0.6"/>
     <use xlink:href="#mb46b47b5f5" x="242.689878" y="191.891468" style="fill: #7aa6c2; fill-opacity: 0.6; stroke: #7aa6c2; stroke-opacity: 0.6"/>
     <use xlink:href="#mb46b47b5f5" x="241.293369" y="189.407406" style="fill: #7aa6c2; fill-opacity: 0.6; stroke: #7aa6c2; stroke-opacity: 0.6"/>
     <use xlink:href="#mb46b47b5f5" x="231.948601" y="186.923344" style="fill: #7aa6c2; fill-opacity: 0.6; stroke: #7aa6c2; stroke-opacity: 0.6"/>
     <use xlink:href="#mb46b47b5f5" x="211.182451" y="184.439282" style="fill: #7aa6c2; fill-opacity: 0.6; stroke: #7aa6c2; stroke-opacity: 0.6"/>
     <use xlink:href="#mb46b47b5f5" x="175.679381" y="181.95522" style="fill: #7aa6c2; fill-opacity: 0.6; stroke: #7aa6c2; stroke-opacity: 0.6"/>
     <use xlink:href="#mb46b47b5f5" x="207.308659" y="179.471158" style="fill: #7aa6c2; fill-opacity: 0.6; stroke: #7aa6c2; stroke-opacity: 0.6"/>
     <use xlink:href="#mb46b47b5f5" x="225.777549" y="176.987096" style="fill: #7aa6c2; fill-opacity: 0.6; stroke: #7aa6c2; stroke-opacity: 0.6"/>
     <use xlink:href="#mb46b47b5f5" x="181.084446" y="174.503034" style="fill: #7aa6c2; fill-opacity: 0.6; stroke: #7aa6c2; stroke-opacity: 0.6"/>
     <use xlink:href="#mb46b47b5f5" x="224.339366" y="172.018972" style="fill: #7aa6c2; fill-opacity: 0.6; stroke: #7aa6c2; stroke-opacity: 0.6"/>
     <use xlink:href="#mb46b47b5f5" x="227.629896" y="169.53491" style="fill: #7aa6c2; fill-opacity: 0.6; stroke: #7aa6c2; stroke-opacity: 0.6"/>
     <use xlink:href="#mb46b47b5f5" x="236.530312" y="167.050847" style="fill: #7aa6c2; fill-opacity: 0.6; stroke: #7aa6c2; stroke-opacity: 0.6"/>
     <use xlink:href="#mb46b47b5f5" x="193.404905" y="164.566785" style="fill: #7aa6c2; fill-opacity: 0.6; stroke: #7aa6c2; stroke-opacity: 0.6"/>
     <use xlink:href="#mb46b47b5f5" x="208.516317" y="162.082723" style="fill: #7aa6c2; fill-opacity: 0.6; stroke: #7aa6c2; stroke-opacity: 0.6"/>
     <use xlink:href="#mb46b47b5f5" x="216.425061" y="159.598661" style="fill: #7aa6c2; fill-opacity: 0.6; stroke: #7aa6c2; stroke-opacity: 0.6"/>
     <use xlink:href="#mb46b47b5f5" x="201.097166" y="157.114599" style="fill: #7aa6c2; fill-opacity: 0.6; stroke: #7aa6c2; stroke-opacity: 0.6"/>
     <use xlink:href="#mb46b47b5f5" x="274.061892" y="154.630537" style="fill: #7aa6c2; fill-opacity: 0.6; stroke: #7aa6c2; stroke-opacity: 0.6"/>
     <use xlink:href="#mb46b47b5f5" x="222.328666" y="152.146475" style="fill: #7aa6c2; fill-opacity: 0.6; stroke: #7aa6c2; stroke-opacity: 0.6"/>
     <use xlink:href="#mb46b47b5f5" x="244.771625" y="149.662413" style="fill: #7aa6c2; fill-opacity: 0.6; stroke: #7aa6c2; stroke-opacity: 0.6"/>
     <use xlink:href="#mb46b47b5f5" x="232.978416" y="147.178351" style="fill: #7aa6c2; fill-opacity: 0.6; stroke: #7aa6c2; stroke-opacity: 0.6"/>
     <use xlink:href="#mb46b47b5f5" x="280.076768" y="144.694289" style="fill: #7aa6c2; fill-opacity: 0.6; stroke: #7aa6c2; stroke-opacity: 0.6"/>
     <use xlink:href="#mb46b47b5f5" x="276.147531" y="142.210227" style="fill: #7aa6c2; fill-opacity: 0.6; stroke: #7aa6c2; stroke-opacity: 0.6"/>
     <use xlink:href="#mb46b47b5f5" x="261.943329" y="139.726164" style="fill: #7aa6c2; fill-opacity: 0.6; stroke: #7aa6c2; stroke-opacity: 0.6"/>
     <use xlink:href="#mb46b47b5f5" x="195.628116" y="137.242102" style="fill: #7aa6c2; fill-opacity: 0.6; stroke: #7aa6c2; stroke-opacity: 0.6"/>
     <use xlink:href="#mb46b47b5f5" x="252.74927" y="134.75804" style="fill: #7aa6c2; fill-opacity: 0.6; stroke: #7aa6c2; stroke-opacity: 0.6"/>
     <use xlink:href="#mb46b47b5f5" x="270.50863" y="132.273978" style="fill: #7aa6c2; fill-opacity: 0.6; stroke: #7aa6c2; stroke-opacity: 0.6"/>
     <use xlink:href="#mb46b47b5f5" x="280.720306" y="129.789916" style="fill: #7aa6c2; fill-opacity: 0.6; stroke: #7aa6c2; stroke-opacity: 0.6"/>
     <use xlink:href="#mb46b47b5f5" x="243.855723" y="127.305854" style="fill: #7aa6c2; fill-opacity: 0.6; stroke: #7aa6c2; stroke-opacity: 0.6"/>
     <use xlink:href="#mb46b47b5f5" x="305.446113" y="124.821792" style="fill: #7aa6c2; fill-opacity: 0.6; stroke: #7aa6c2; stroke-opacity: 0.6"/>
     <use xlink:href="#mb46b47b5f5" x="231.723851" y="122.33773" style="fill: #7aa6c2; fill-opacity: 0.6; stroke: #7aa6c2; stroke-opacity: 0.6"/>
     <use xlink:href="#mb46b47b5f5" x="250.14363" y="119.853668" style="fill: #7aa6c2; fill-opacity: 0.6; stroke: #7aa6c2; stroke-opacity: 0.6"/>
     <use xlink:href="#mb46b47b5f5" x="291.292018" y="117.369606" style="fill: #7aa6c2; fill-opacity: 0.6; stroke: #7aa6c2; stroke-opacity: 0.6"/>
     <use xlink:href="#mb46b47b5f5" x="272.264506" y="114.885544" style="fill: #7aa6c2; fill-opacity: 0.6; stroke: #7aa6c2; stroke-opacity: 0.6"/>
     <use xlink:href="#mb46b47b5f5" x="322.060514" y="112.401481" style="fill: #7aa6c2; fill-opacity: 0.6; stroke: #7aa6c2; stroke-opacity: 0.6"/>
     <use xlink:href="#mb46b47b5f5" x="280.541866" y="109.917419" style="fill: #7aa6c2; fill-opacity: 0.6; stroke: #7aa6c2; stroke-opacity: 0.6"/>
     <use xlink:href="#mb46b47b5f5" x="263.072508" y="107.433357" style="fill: #7aa6c2; fill-opacity: 0.6; stroke: #7aa6c2; stroke-opacity: 0.6"/>
     <use xlink:href="#mb46b47b5f5" x="271.717237" y="104.949295" style="fill: #7aa6c2; fill-opacity: 0.6; stroke: #7aa6c2; stroke-opacity: 0.6"/>
     <use xlink:href="#mb46b47b5f5" x="256.868894" y="102.465233" style="fill: #7aa6c2; fill-opacity: 0.6; stroke: #7aa6c2; stroke-opacity: 0.6"/>
     <use xlink:href="#mb46b47b5f5" x="254.795851" y="99.981171" style="fill: #7aa6c2; fill-opacity: 0.6; stroke: #7aa6c2; stroke-opacity: 0.6"/>
     <use xlink:href="#mb46b47b5f5" x="303.495119" y="97.497109" style="fill: #7aa6c2; fill-opacity: 0.6; stroke: #7aa6c2; stroke-opacity: 0.6"/>
     <use xlink:href="#mb46b47b5f5" x="304.749854" y="95.013047" style="fill: #7aa6c2; fill-opacity: 0.6; stroke: #7aa6c2; stroke-opacity: 0.6"/>
     <use xlink:href="#mb46b47b5f5" x="324.490435" y="92.528985" style="fill: #7aa6c2; fill-opacity: 0.6; stroke: #7aa6c2; stroke-opacity: 0.6"/>
     <use xlink:href="#mb46b47b5f5" x="277.268486" y="90.044923" style="fill: #7aa6c2; fill-opacity: 0.6; stroke: #7aa6c2; stroke-opacity: 0.6"/>
     <use xlink:href="#mb46b47b5f5" x="338.95086" y="87.560861" style="fill: #7aa6c2; fill-opacity: 0.6; stroke: #7aa6c2; stroke-opacity: 0.6"/>
     <use xlink:href="#mb46b47b5f5" x="293.49037" y="85.076798" style="fill: #7aa6c2; fill-opacity: 0.6; stroke: #7aa6c2; stroke-opacity: 0.6"/>
     <use xlink:href="#mb46b47b5f5" x="341.067463" y="82.592736" style="fill: #7aa6c2; fill-opacity: 0.6; stroke: #7aa6c2; stroke-opacity: 0.6"/>
     <use xlink:href="#mb46b47b5f5" x="294.862851" y="80.108674" style="fill: #7aa6c2; fill-opacity: 0.6; stroke: #7aa6c2; stroke-opacity: 0.6"/>
     <use xlink:href="#mb46b47b5f5" x="289.974086" y="77.624612" style="fill: #7aa6c2; fill-opacity: 0.6; stroke: #7aa6c2; stroke-opacity: 0.6"/>
     <use xlink:href="#mb46b47b5f5" x="316.304749" y="75.14055" style="fill: #7aa6c2; fill-opacity: 0.6; stroke: #7aa6c2; stroke-opacity: 0.6"/>
     <use xlink:href="#mb46b47b5f5" x="337.700262" y="72.656488" style="fill: #7aa6c2; fill-opacity: 0.6; stroke: #7aa6c2; stroke-opacity: 0.6"/>
     <use xlink:href="#mb46b47b5f5" x="319.049717" y="70.172426" style="fill: #7aa6c2; fill-opacity: 0.6; stroke: #7aa6c2; stroke-opacity: 0.6"/>
     <use xlink:href="#mb46b47b5f5" x="303.402547" y="67.688364" style="fill: #7aa6c2; fill-opacity: 0.6; stroke: #7aa6c2; stroke-opacity: 0.6"/>
     <use xlink:href="#mb46b47b5f5" x="287.533527" y="65.204302" style="fill: #7aa6c2; fill-opacity: 0.6; stroke: #7aa6c2; stroke-opacity: 0.6"/>
     <use xlink:href="#mb46b47b5f5" x="288.5203" y="62.72024" style="fill: #7aa6c2; fill-opacity: 0.6; stroke: #7aa6c2; stroke-opacity: 0.6"/>
    </g>
   </g>
   <g id="matplotlib.axis_1">
    <g id="xtick_1">
     <g id="line2d_1">
      <path d="M 67.979301 347.9395 
L 67.979301 35.7555 
" clip-path="url(#pa62bccffee)" style="fill: none; stroke: #b0b0b0; stroke-opacity: 0.25; stroke-width: 0.8; stroke-linecap: square"/>
     </g>
     <g id="line2d_2">
      <defs>
       <path id="mbaed46075d" d="M 0 0 
L 0 3.5 
" style="stroke: #000000; stroke-width: 0.8"/>
      </defs>
      <g>
       <use xlink:href="#mbaed46075d" x="67.979301" y="347.9395" style="stroke: #000000; stroke-width: 0.8"/>
      </g>
     </g>
     <g id="text_1">
      <!-- 0 -->
      <g transform="translate(64.798051 362.537937) scale(0.1 -0.1)">
       <defs>
        <path id="DejaVuSans-30" d="M 2034 4250 
Q 1547 4250 1301 3770 
Q 1056 3291 1056 2328 
Q 1056 1369 1301 889 
Q 1547 409 2034 409 
Q 2525 409 2770 889 
Q 3016 1369 3016 2328 
Q 3016 3291 2770 3770 
Q 2525 4250 2034 4250 
z
M 2034 4750 
Q 2819 4750 3233 4129 
Q 3647 3509 3647 2328 
Q 3647 1150 3233 529 
Q 2819 -91 2034 -91 
Q 1250 -91 836 529 
Q 422 1150 422 2328 
Q 422 3509 836 4129 
Q 1250 4750 2034 4750 
z
" transform="scale(0.015625)"/>
       </defs>
       <use xlink:href="#DejaVuSans-30"/>
      </g>
     </g>
    </g>
    <g id="xtick_2">
     <g id="line2d_3">
      <path d="M 128.577611 347.9395 
L 128.577611 35.7555 
" clip-path="url(#pa62bccffee)" style="fill: none; stroke: #b0b0b0; stroke-opacity: 0.25; stroke-width: 0.8; stroke-linecap: square"/>
     </g>
     <g id="line2d_4">
      <g>
       <use xlink:href="#mbaed46075d" x="128.577611" y="347.9395" style="stroke: #000000; stroke-width: 0.8"/>
      </g>
     </g>
     <g id="text_2">
      <!-- 5 -->
      <g transform="translate(125.396361 362.537937) scale(0.1 -0.1)">
       <defs>
        <path id="DejaVuSans-35" d="M 691 4666 
L 3169 4666 
L 3169 4134 
L 1269 4134 
L 1269 2991 
Q 1406 3038 1543 3061 
Q 1681 3084 1819 3084 
Q 2600 3084 3056 2656 
Q 3513 2228 3513 1497 
Q 3513 744 3044 326 
Q 2575 -91 1722 -91 
Q 1428 -91 1123 -41 
Q 819 9 494 109 
L 494 744 
Q 775 591 1075 516 
Q 1375 441 1709 441 
Q 2250 441 2565 725 
Q 2881 1009 2881 1497 
Q 2881 1984 2565 2268 
Q 2250 2553 1709 2553 
Q 1456 2553 1204 2497 
Q 953 2441 691 2322 
L 691 4666 
z
" transform="scale(0.015625)"/>
       </defs>
       <use xlink:href="#DejaVuSans-35"/>
      </g>
     </g>
    </g>
    <g id="xtick_3">
     <g id="line2d_5">
      <path d="M 189.175921 347.9395 
L 189.175921 35.7555 
" clip-path="url(#pa62bccffee)" style="fill: none; stroke: #b0b0b0; stroke-opacity: 0.25; stroke-width: 0.8; stroke-linecap: square"/>
     </g>
     <g id="line2d_6">
      <g>
       <use xlink:href="#mbaed46075d" x="189.175921" y="347.9395" style="stroke: #000000; stroke-width: 0.8"/>
      </g>
     </g>
     <g id="text_3">
      <!-- 10 -->
      <g transform="translate(182.813421 362.537937) scale(0.1 -0.1)">
       <defs>
        <path id="DejaVuSans-31" d="M 794 531 
L 1825 531 
L 1825 4091 
L 703 3866 
L 703 4441 
L 1819 4666 
L 2450 4666 
L 2450 531 
L 3481 531 
L 3481 0 
L 794 0 
L 794 531 
z
" transform="scale(0.015625)"/>
       </defs>
       <use xlink:href="#DejaVuSans-31"/>
       <use xlink:href="#DejaVuSans-30" transform="translate(63.623047 0)"/>
      </g>
     </g>
    </g>
    <g id="xtick_4">
     <g id="line2d_7">
      <path d="M 249.774231 347.9395 
L 249.774231 35.7555 
" clip-path="url(#pa62bccffee)" style="fill: none; stroke: #b0b0b0; stroke-opacity: 0.25; stroke-width: 0.8; stroke-linecap: square"/>
     </g>
     <g id="line2d_8">
      <g>
       <use xlink:href="#mbaed46075d" x="249.774231" y="347.9395" style="stroke: #000000; stroke-width: 0.8"/>
      </g>
     </g>
     <g id="text_4">
      <!-- 15 -->
      <g transform="translate(243.411731 362.537937) scale(0.1 -0.1)">
       <use xlink:href="#DejaVuSans-31"/>
       <use xlink:href="#DejaVuSans-35" transform="translate(63.623047 0)"/>
      </g>
     </g>
    </g>
    <g id="xtick_5">
     <g id="line2d_9">
      <path d="M 310.372541 347.9395 
L 310.372541 35.7555 
" clip-path="url(#pa62bccffee)" style="fill: none; stroke: #b0b0b0; stroke-opacity: 0.25; stroke-width: 0.8; stroke-linecap: square"/>
     </g>
     <g id="line2d_10">
      <g>
       <use xlink:href="#mbaed46075d" x="310.372541" y="347.9395" style="stroke: #000000; stroke-width: 0.8"/>
      </g>
     </g>
     <g id="text_5">
      <!-- 20 -->
      <g transform="translate(304.010041 362.537937) scale(0.1 -0.1)">
       <defs>
        <path id="DejaVuSans-32" d="M 1228 531 
L 3431 531 
L 3431 0 
L 469 0 
L 469 531 
Q 828 903 1448 1529 
Q 2069 2156 2228 2338 
Q 2531 2678 2651 2914 
Q 2772 3150 2772 3378 
Q 2772 3750 2511 3984 
Q 2250 4219 1831 4219 
Q 1534 4219 1204 4116 
Q 875 4013 500 3803 
L 500 4441 
Q 881 4594 1212 4672 
Q 1544 4750 1819 4750 
Q 2544 4750 2975 4387 
Q 3406 4025 3406 3419 
Q 3406 3131 3298 2873 
Q 3191 2616 2906 2266 
Q 2828 2175 2409 1742 
Q 1991 1309 1228 531 
z
" transform="scale(0.015625)"/>
       </defs>
       <use xlink:href="#DejaVuSans-32"/>
       <use xlink:href="#DejaVuSans-30" transform="translate(63.623047 0)"/>
      </g>
     </g>
    </g>
    <g id="text_6">
     <!-- true y -->
     <g transform="translate(182.28575 376.216062) scale(0.1 -0.1)">
      <defs>
       <path id="DejaVuSans-74" d="M 1172 4494 
L 1172 3500 
L 2356 3500 
L 2356 3053 
L 1172 3053 
L 1172 1153 
Q 1172 725 1289 603 
Q 1406 481 1766 481 
L 2356 481 
L 2356 0 
L 1766 0 
Q 1100 0 847 248 
Q 594 497 594 1153 
L 594 3053 
L 172 3053 
L 172 3500 
L 594 3500 
L 594 4494 
L 1172 4494 
z
" transform="scale(0.015625)"/>
       <path id="DejaVuSans-72" d="M 2631 2963 
Q 2534 3019 2420 3045 
Q 2306 3072 2169 3072 
Q 1681 3072 1420 2755 
Q 1159 2438 1159 1844 
L 1159 0 
L 581 0 
L 581 3500 
L 1159 3500 
L 1159 2956 
Q 1341 3275 1631 3429 
Q 1922 3584 2338 3584 
Q 2397 3584 2469 3576 
Q 2541 3569 2628 3553 
L 2631 2963 
z
" transform="scale(0.015625)"/>
       <path id="DejaVuSans-75" d="M 544 1381 
L 544 3500 
L 1119 3500 
L 1119 1403 
Q 1119 906 1312 657 
Q 1506 409 1894 409 
Q 2359 409 2629 706 
Q 2900 1003 2900 1516 
L 2900 3500 
L 3475 3500 
L 3475 0 
L 2900 0 
L 2900 538 
Q 2691 219 2414 64 
Q 2138 -91 1772 -91 
Q 1169 -91 856 284 
Q 544 659 544 1381 
z
M 1991 3584 
L 1991 3584 
z
" transform="scale(0.015625)"/>
       <path id="DejaVuSans-65" d="M 3597 1894 
L 3597 1613 
L 953 1613 
Q 991 1019 1311 708 
Q 1631 397 2203 397 
Q 2534 397 2845 478 
Q 3156 559 3463 722 
L 3463 178 
Q 3153 47 2828 -22 
Q 2503 -91 2169 -91 
Q 1331 -91 842 396 
Q 353 884 353 1716 
Q 353 2575 817 3079 
Q 1281 3584 2069 3584 
Q 2775 3584 3186 3129 
Q 3597 2675 3597 1894 
z
M 3022 2063 
Q 3016 2534 2758 2815 
Q 2500 3097 2075 3097 
Q 1594 3097 1305 2825 
Q 1016 2553 972 2059 
L 3022 2063 
z
" transform="scale(0.015625)"/>
       <path id="DejaVuSans-20" transform="scale(0.015625)"/>
       <path id="DejaVuSans-79" d="M 2059 -325 
Q 1816 -950 1584 -1140 
Q 1353 -1331 966 -1331 
L 506 -1331 
L 506 -850 
L 844 -850 
Q 1081 -850 1212 -737 
Q 1344 -625 1503 -206 
L 1606 56 
L 191 3500 
L 800 3500 
L 1894 763 
L 2988 3500 
L 3597 3500 
L 2059 -325 
z
" transform="scale(0.015625)"/>
      </defs>
      <use xlink:href="#DejaVuSans-74"/>
      <use xlink:href="#DejaVuSans-72" transform="translate(39.208984 0)"/>
      <use xlink:href="#DejaVuSans-75" transform="translate(80.322266 0)"/>
      <use xlink:href="#DejaVuSans-65" transform="translate(143.701172 0)"/>
      <use xlink:href="#DejaVuSans-20" transform="translate(205.224609 0)"/>
      <use xlink:href="#DejaVuSans-79" transform="translate(237.011719 0)"/>
     </g>
    </g>
   </g>
   <g id="matplotlib.axis_2">
    <g id="ytick_1">
     <g id="line2d_11">
      <path d="M 41.003125 320.963324 
L 353.187125 320.963324 
" clip-path="url(#pa62bccffee)" style="fill: none; stroke: #b0b0b0; stroke-opacity: 0.25; stroke-width: 0.8; stroke-linecap: square"/>
     </g>
     <g id="line2d_12">
      <defs>
       <path id="mc20b082b6e" d="M 0 0 
L -3.5 0 
" style="stroke: #000000; stroke-width: 0.8"/>
      </defs>
      <g>
       <use xlink:href="#mc20b082b6e" x="41.003125" y="320.963324" style="stroke: #000000; stroke-width: 0.8"/>
      </g>
     </g>
     <g id="text_7">
      <!-- 0 -->
      <g transform="translate(27.640625 324.762543) scale(0.1 -0.1)">
       <use xlink:href="#DejaVuSans-30"/>
      </g>
     </g>
    </g>
    <g id="ytick_2">
     <g id="line2d_13">
      <path d="M 41.003125 260.365014 
L 353.187125 260.365014 
" clip-path="url(#pa62bccffee)" style="fill: none; stroke: #b0b0b0; stroke-opacity: 0.25; stroke-width: 0.8; stroke-linecap: square"/>
     </g>
     <g id="line2d_14">
      <g>
       <use xlink:href="#mc20b082b6e" x="41.003125" y="260.365014" style="stroke: #000000; stroke-width: 0.8"/>
      </g>
     </g>
     <g id="text_8">
      <!-- 5 -->
      <g transform="translate(27.640625 264.164233) scale(0.1 -0.1)">
       <use xlink:href="#DejaVuSans-35"/>
      </g>
     </g>
    </g>
    <g id="ytick_3">
     <g id="line2d_15">
      <path d="M 41.003125 199.766704 
L 353.187125 199.766704 
" clip-path="url(#pa62bccffee)" style="fill: none; stroke: #b0b0b0; stroke-opacity: 0.25; stroke-width: 0.8; stroke-linecap: square"/>
     </g>
     <g id="line2d_16">
      <g>
       <use xlink:href="#mc20b082b6e" x="41.003125" y="199.766704" style="stroke: #000000; stroke-width: 0.8"/>
      </g>
     </g>
     <g id="text_9">
      <!-- 10 -->
      <g transform="translate(21.278125 203.565923) scale(0.1 -0.1)">
       <use xlink:href="#DejaVuSans-31"/>
       <use xlink:href="#DejaVuSans-30" transform="translate(63.623047 0)"/>
      </g>
     </g>
    </g>
    <g id="ytick_4">
     <g id="line2d_17">
      <path d="M 41.003125 139.168394 
L 353.187125 139.168394 
" clip-path="url(#pa62bccffee)" style="fill: none; stroke: #b0b0b0; stroke-opacity: 0.25; stroke-width: 0.8; stroke-linecap: square"/>
     </g>
     <g id="line2d_18">
      <g>
       <use xlink:href="#mc20b082b6e" x="41.003125" y="139.168394" style="stroke: #000000; stroke-width: 0.8"/>
      </g>
     </g>
     <g id="text_10">
      <!-- 15 -->
      <g transform="translate(21.278125 142.967613) scale(0.1 -0.1)">
       <use xlink:href="#DejaVuSans-31"/>
       <use xlink:href="#DejaVuSans-35" transform="translate(63.623047 0)"/>
      </g>
     </g>
    </g>
    <g id="ytick_5">
     <g id="line2d_19">
      <path d="M 41.003125 78.570084 
L 353.187125 78.570084 
" clip-path="url(#pa62bccffee)" style="fill: none; stroke: #b0b0b0; stroke-opacity: 0.25; stroke-width: 0.8; stroke-linecap: square"/>
     </g>
     <g id="line2d_20">
      <g>
       <use xlink:href="#mc20b082b6e" x="41.003125" y="78.570084" style="stroke: #000000; stroke-width: 0.8"/>
      </g>
     </g>
     <g id="text_11">
      <!-- 20 -->
      <g transform="translate(21.278125 82.369303) scale(0.1 -0.1)">
       <use xlink:href="#DejaVuSans-32"/>
       <use xlink:href="#DejaVuSans-30" transform="translate(63.623047 0)"/>
      </g>
     </g>
    </g>
    <g id="text_12">
     <!-- predicted ŷ -->
     <g transform="translate(15.198437 220.113125) rotate(-90) scale(0.1 -0.1)">
      <defs>
       <path id="DejaVuSans-70" d="M 1159 525 
L 1159 -1331 
L 581 -1331 
L 581 3500 
L 1159 3500 
L 1159 2969 
Q 1341 3281 1617 3432 
Q 1894 3584 2278 3584 
Q 2916 3584 3314 3078 
Q 3713 2572 3713 1747 
Q 3713 922 3314 415 
Q 2916 -91 2278 -91 
Q 1894 -91 1617 61 
Q 1341 213 1159 525 
z
M 3116 1747 
Q 3116 2381 2855 2742 
Q 2594 3103 2138 3103 
Q 1681 3103 1420 2742 
Q 1159 2381 1159 1747 
Q 1159 1113 1420 752 
Q 1681 391 2138 391 
Q 2594 391 2855 752 
Q 3116 1113 3116 1747 
z
" transform="scale(0.015625)"/>
       <path id="DejaVuSans-64" d="M 2906 2969 
L 2906 4863 
L 3481 4863 
L 3481 0 
L 2906 0 
L 2906 525 
Q 2725 213 2448 61 
Q 2172 -91 1784 -91 
Q 1150 -91 751 415 
Q 353 922 353 1747 
Q 353 2572 751 3078 
Q 1150 3584 1784 3584 
Q 2172 3584 2448 3432 
Q 2725 3281 2906 2969 
z
M 947 1747 
Q 947 1113 1208 752 
Q 1469 391 1925 391 
Q 2381 391 2643 752 
Q 2906 1113 2906 1747 
Q 2906 2381 2643 2742 
Q 2381 3103 1925 3103 
Q 1469 3103 1208 2742 
Q 947 2381 947 1747 
z
" transform="scale(0.015625)"/>
       <path id="DejaVuSans-69" d="M 603 3500 
L 1178 3500 
L 1178 0 
L 603 0 
L 603 3500 
z
M 603 4863 
L 1178 4863 
L 1178 4134 
L 603 4134 
L 603 4863 
z
" transform="scale(0.015625)"/>
       <path id="DejaVuSans-63" d="M 3122 3366 
L 3122 2828 
Q 2878 2963 2633 3030 
Q 2388 3097 2138 3097 
Q 1578 3097 1268 2742 
Q 959 2388 959 1747 
Q 959 1106 1268 751 
Q 1578 397 2138 397 
Q 2388 397 2633 464 
Q 2878 531 3122 666 
L 3122 134 
Q 2881 22 2623 -34 
Q 2366 -91 2075 -91 
Q 1284 -91 818 406 
Q 353 903 353 1747 
Q 353 2603 823 3093 
Q 1294 3584 2113 3584 
Q 2378 3584 2631 3529 
Q 2884 3475 3122 3366 
z
" transform="scale(0.015625)"/>
       <path id="DejaVuSans-177" d="M 1665 5119 
L 2127 5119 
L 2893 3944 
L 2459 3944 
L 1896 4709 
L 1334 3944 
L 899 3944 
L 1665 5119 
z
M 2059 -325 
Q 1816 -950 1584 -1140 
Q 1353 -1331 966 -1331 
L 506 -1331 
L 506 -850 
L 844 -850 
Q 1081 -850 1212 -737 
Q 1344 -625 1503 -206 
L 1606 56 
L 191 3500 
L 800 3500 
L 1894 763 
L 2988 3500 
L 3597 3500 
L 2059 -325 
z
" transform="scale(0.015625)"/>
      </defs>
      <use xlink:href="#DejaVuSans-70"/>
      <use xlink:href="#DejaVuSans-72" transform="translate(63.476562 0)"/>
      <use xlink:href="#DejaVuSans-65" transform="translate(102.339844 0)"/>
      <use xlink:href="#DejaVuSans-64" transform="translate(163.863281 0)"/>
      <use xlink:href="#DejaVuSans-69" transform="translate(227.339844 0)"/>
      <use xlink:href="#DejaVuSans-63" transform="translate(255.123047 0)"/>
      <use xlink:href="#DejaVuSans-74" transform="translate(310.103516 0)"/>
      <use xlink:href="#DejaVuSans-65" transform="translate(349.3125 0)"/>
      <use xlink:href="#DejaVuSans-64" transform="translate(410.835938 0)"/>
      <use xlink:href="#DejaVuSans-20" transform="translate(474.3125 0)"/>
      <use xlink:href="#DejaVuSans-177" transform="translate(506.099609 0)"/>
     </g>
    </g>
   </g>
   <g id="line2d_21">
    <path d="M 41.003125 347.9395 
L 353.187125 35.7555 
" clip-path="url(#pa62bccffee)" style="fill: none; stroke-dasharray: 5.55,2.4; stroke-dashoffset: 0; stroke: #e15759; stroke-width: 1.5"/>
   </g>
   <g id="patch_3">
    <path d="M 41.003125 347.9395 
L 41.003125 35.7555 
" style="fill: none; stroke: #000000; stroke-width: 0.8; stroke-linejoin: miter; stroke-linecap: square"/>
   </g>
   <g id="patch_4">
    <path d="M 353.187125 347.9395 
L 353.187125 35.7555 
" style="fill: none; stroke: #000000; stroke-width: 0.8; stroke-linejoin: miter; stroke-linecap: square"/>
   </g>
   <g id="patch_5">
    <path d="M 41.003125 347.9395 
L 353.187125 347.9395 
" style="fill: none; stroke: #000000; stroke-width: 0.8; stroke-linejoin: miter; stroke-linecap: square"/>
   </g>
   <g id="patch_6">
    <path d="M 41.003125 35.7555 
L 353.187125 35.7555 
" style="fill: none; stroke: #000000; stroke-width: 0.8; stroke-linejoin: miter; stroke-linecap: square"/>
   </g>
   <g id="text_13">
    <!-- True vs predicted -->
    <g transform="translate(145.40325 16.318125) scale(0.12 -0.12)">
     <defs>
      <path id="DejaVuSans-54" d="M -19 4666 
L 3928 4666 
L 3928 4134 
L 2272 4134 
L 2272 0 
L 1638 0 
L 1638 4134 
L -19 4134 
L -19 4666 
z
" transform="scale(0.015625)"/>
      <path id="DejaVuSans-76" d="M 191 3500 
L 800 3500 
L 1894 563 
L 2988 3500 
L 3597 3500 
L 2284 0 
L 1503 0 
L 191 3500 
z
" transform="scale(0.015625)"/>
      <path id="DejaVuSans-73" d="M 2834 3397 
L 2834 2853 
Q 2591 2978 2328 3040 
Q 2066 3103 1784 3103 
Q 1356 3103 1142 2972 
Q 928 2841 928 2578 
Q 928 2378 1081 2264 
Q 1234 2150 1697 2047 
L 1894 2003 
Q 2506 1872 2764 1633 
Q 3022 1394 3022 966 
Q 3022 478 2636 193 
Q 2250 -91 1575 -91 
Q 1294 -91 989 -36 
Q 684 19 347 128 
L 347 722 
Q 666 556 975 473 
Q 1284 391 1588 391 
Q 1994 391 2212 530 
Q 2431 669 2431 922 
Q 2431 1156 2273 1281 
Q 2116 1406 1581 1522 
L 1381 1569 
Q 847 1681 609 1914 
Q 372 2147 372 2553 
Q 372 3047 722 3315 
Q 1072 3584 1716 3584 
Q 2034 3584 2315 3537 
Q 2597 3491 2834 3397 
z
" transform="scale(0.015625)"/>
     </defs>
     <use xlink:href="#DejaVuSans-54"/>
     <use xlink:href="#DejaVuSans-72" transform="translate(46.333984 0)"/>
     <use xlink:href="#DejaVuSans-75" transform="translate(87.447266 0)"/>
     <use xlink:href="#DejaVuSans-65" transform="translate(150.826172 0)"/>
     <use xlink:href="#DejaVuSans-20" transform="translate(212.349609 0)"/>
     <use xlink:href="#DejaVuSans-76" transform="translate(244.136719 0)"/>
     <use xlink:href="#DejaVuSans-73" transform="translate(303.316406 0)"/>
     <use xlink:href="#DejaVuSans-20" transform="translate(355.416016 0)"/>
     <use xlink:href="#DejaVuSans-70" transform="translate(387.203125 0)"/>
     <use xlink:href="#DejaVuSans-72" transform="translate(450.679688 0)"/>
     <use xlink:href="#DejaVuSans-65" transform="translate(489.542969 0)"/>
     <use xlink:href="#DejaVuSans-64" transform="translate(551.066406 0)"/>
     <use xlink:href="#DejaVuSans-69" transform="translate(614.542969 0)"/>
     <use xlink:href="#DejaVuSans-63" transform="translate(642.326172 0)"/>
     <use xlink:href="#DejaVuSans-74" transform="translate(697.306641 0)"/>
     <use xlink:href="#DejaVuSans-65" transform="translate(736.515625 0)"/>
     <use xlink:href="#DejaVuSans-64" transform="translate(798.039062 0)"/>
    </g>
    <!-- RMSE = 1.92, MAE = 1.58, R² = 0.905 -->
    <g transform="translate(82.453875 29.7555) scale(0.12 -0.12)">
     <defs>
      <path id="DejaVuSans-52" d="M 2841 2188 
Q 3044 2119 3236 1894 
Q 3428 1669 3622 1275 
L 4263 0 
L 3584 0 
L 2988 1197 
Q 2756 1666 2539 1819 
Q 2322 1972 1947 1972 
L 1259 1972 
L 1259 0 
L 628 0 
L 628 4666 
L 2053 4666 
Q 2853 4666 3247 4331 
Q 3641 3997 3641 3322 
Q 3641 2881 3436 2590 
Q 3231 2300 2841 2188 
z
M 1259 4147 
L 1259 2491 
L 2053 2491 
Q 2509 2491 2742 2702 
Q 2975 2913 2975 3322 
Q 2975 3731 2742 3939 
Q 2509 4147 2053 4147 
L 1259 4147 
z
" transform="scale(0.015625)"/>
      <path id="DejaVuSans-4d" d="M 628 4666 
L 1569 4666 
L 2759 1491 
L 3956 4666 
L 4897 4666 
L 4897 0 
L 4281 0 
L 4281 4097 
L 3078 897 
L 2444 897 
L 1241 4097 
L 1241 0 
L 628 0 
L 628 4666 
z
" transform="scale(0.015625)"/>
      <path id="DejaVuSans-53" d="M 3425 4513 
L 3425 3897 
Q 3066 4069 2747 4153 
Q 2428 4238 2131 4238 
Q 1616 4238 1336 4038 
Q 1056 3838 1056 3469 
Q 1056 3159 1242 3001 
Q 1428 2844 1947 2747 
L 2328 2669 
Q 3034 2534 3370 2195 
Q 3706 1856 3706 1288 
Q 3706 609 3251 259 
Q 2797 -91 1919 -91 
Q 1588 -91 1214 -16 
Q 841 59 441 206 
L 441 856 
Q 825 641 1194 531 
Q 1563 422 1919 422 
Q 2459 422 2753 634 
Q 3047 847 3047 1241 
Q 3047 1584 2836 1778 
Q 2625 1972 2144 2069 
L 1759 2144 
Q 1053 2284 737 2584 
Q 422 2884 422 3419 
Q 422 4038 858 4394 
Q 1294 4750 2059 4750 
Q 2388 4750 2728 4690 
Q 3069 4631 3425 4513 
z
" transform="scale(0.015625)"/>
      <path id="DejaVuSans-45" d="M 628 4666 
L 3578 4666 
L 3578 4134 
L 1259 4134 
L 1259 2753 
L 3481 2753 
L 3481 2222 
L 1259 2222 
L 1259 531 
L 3634 531 
L 3634 0 
L 628 0 
L 628 4666 
z
" transform="scale(0.015625)"/>
      <path id="DejaVuSans-3d" d="M 678 2906 
L 4684 2906 
L 4684 2381 
L 678 2381 
L 678 2906 
z
M 678 1631 
L 4684 1631 
L 4684 1100 
L 678 1100 
L 678 1631 
z
" transform="scale(0.015625)"/>
      <path id="DejaVuSans-2e" d="M 684 794 
L 1344 794 
L 1344 0 
L 684 0 
L 684 794 
z
" transform="scale(0.015625)"/>
      <path id="DejaVuSans-39" d="M 703 97 
L 703 672 
Q 941 559 1184 500 
Q 1428 441 1663 441 
Q 2288 441 2617 861 
Q 2947 1281 2994 2138 
Q 2813 1869 2534 1725 
Q 2256 1581 1919 1581 
Q 1219 1581 811 2004 
Q 403 2428 403 3163 
Q 403 3881 828 4315 
Q 1253 4750 1959 4750 
Q 2769 4750 3195 4129 
Q 3622 3509 3622 2328 
Q 3622 1225 3098 567 
Q 2575 -91 1691 -91 
Q 1453 -91 1209 -44 
Q 966 3 703 97 
z
M 1959 2075 
Q 2384 2075 2632 2365 
Q 2881 2656 2881 3163 
Q 2881 3666 2632 3958 
Q 2384 4250 1959 4250 
Q 1534 4250 1286 3958 
Q 1038 3666 1038 3163 
Q 1038 2656 1286 2365 
Q 1534 2075 1959 2075 
z
" transform="scale(0.015625)"/>
      <path id="DejaVuSans-2c" d="M 750 794 
L 1409 794 
L 1409 256 
L 897 -744 
L 494 -744 
L 750 256 
L 750 794 
z
" transform="scale(0.015625)"/>
      <path id="DejaVuSans-41" d="M 2188 4044 
L 1331 1722 
L 3047 1722 
L 2188 4044 
z
M 1831 4666 
L 2547 4666 
L 4325 0 
L 3669 0 
L 3244 1197 
L 1141 1197 
L 716 0 
L 50 0 
L 1831 4666 
z
" transform="scale(0.015625)"/>
      <path id="DejaVuSans-38" d="M 2034 2216 
Q 1584 2216 1326 1975 
Q 1069 1734 1069 1313 
Q 1069 891 1326 650 
Q 1584 409 2034 409 
Q 2484 409 2743 651 
Q 3003 894 3003 1313 
Q 3003 1734 2745 1975 
Q 2488 2216 2034 2216 
z
M 1403 2484 
Q 997 2584 770 2862 
Q 544 3141 544 3541 
Q 544 4100 942 4425 
Q 1341 4750 2034 4750 
Q 2731 4750 3128 4425 
Q 3525 4100 3525 3541 
Q 3525 3141 3298 2862 
Q 3072 2584 2669 2484 
Q 3125 2378 3379 2068 
Q 3634 1759 3634 1313 
Q 3634 634 3220 271 
Q 2806 -91 2034 -91 
Q 1263 -91 848 271 
Q 434 634 434 1313 
Q 434 1759 690 2068 
Q 947 2378 1403 2484 
z
M 1172 3481 
Q 1172 3119 1398 2916 
Q 1625 2713 2034 2713 
Q 2441 2713 2670 2916 
Q 2900 3119 2900 3481 
Q 2900 3844 2670 4047 
Q 2441 4250 2034 4250 
Q 1625 4250 1398 4047 
Q 1172 3844 1172 3481 
z
" transform="scale(0.015625)"/>
      <path id="DejaVuSans-b2" d="M 838 2444 
L 2163 2444 
L 2163 2088 
L 294 2088 
L 294 2431 
Q 400 2528 597 2703 
Q 1672 3656 1672 3950 
Q 1672 4156 1509 4282 
Q 1347 4409 1081 4409 
Q 919 4409 728 4354 
Q 538 4300 313 4191 
L 313 4575 
Q 553 4663 761 4706 
Q 969 4750 1147 4750 
Q 1600 4750 1872 4544 
Q 2144 4338 2144 4000 
Q 2144 3566 1109 2678 
Q 934 2528 838 2444 
z
" transform="scale(0.015625)"/>
     </defs>
     <use xlink:href="#DejaVuSans-52"/>
     <use xlink:href="#DejaVuSans-4d" transform="translate(69.482422 0)"/>
     <use xlink:href="#DejaVuSans-53" transform="translate(155.761719 0)"/>
     <use xlink:href="#DejaVuSans-45" transform="translate(219.238281 0)"/>
     <use xlink:href="#DejaVuSans-20" transform="translate(282.421875 0)"/>
     <use xlink:href="#DejaVuSans-3d" transform="translate(314.208984 0)"/>
     <use xlink:href="#DejaVuSans-20" transform="translate(397.998047 0)"/>
     <use xlink:href="#DejaVuSans-31" transform="translate(429.785156 0)"/>
     <use xlink:href="#DejaVuSans-2e" transform="translate(493.408203 0)"/>
     <use xlink:href="#DejaVuSans-39" transform="translate(525.195312 0)"/>
     <use xlink:href="#DejaVuSans-32" transform="translate(588.818359 0)"/>
     <use xlink:href="#DejaVuSans-2c" transform="translate(652.441406 0)"/>
     <use xlink:href="#DejaVuSans-20" transform="translate(684.228516 0)"/>
     <use xlink:href="#DejaVuSans-4d" transform="translate(716.015625 0)"/>
     <use xlink:href="#DejaVuSans-41" transform="translate(802.294922 0)"/>
     <use xlink:href="#DejaVuSans-45" transform="translate(870.703125 0)"/>
     <use xlink:href="#DejaVuSans-20" transform="translate(933.886719 0)"/>
     <use xlink:href="#DejaVuSans-3d" transform="translate(965.673828 0)"/>
     <use xlink:href="#DejaVuSans-20" transform="translate(1049.462891 0)"/>
     <use xlink:href="#DejaVuSans-31" transform="translate(1081.25 0)"/>
     <use xlink:href="#DejaVuSans-2e" transform="translate(1144.873047 0)"/>
     <use xlink:href="#DejaVuSans-35" transform="translate(1176.660156 0)"/>
     <use xlink:href="#DejaVuSans-38" transform="translate(1240.283203 0)"/>
     <use xlink:href="#DejaVuSans-2c" transform="translate(1303.90625 0)"/>
     <use xlink:href="#DejaVuSans-20" transform="translate(1335.693359 0)"/>
     <use xlink:href="#DejaVuSans-52" transform="translate(1367.480469 0)"/>
     <use xlink:href="#DejaVuSans-b2" transform="translate(1436.962891 0)"/>
     <use xlink:href="#DejaVuSans-20" transform="translate(1477.050781 0)"/>
     <use xlink:href="#DejaVuSans-3d" transform="translate(1508.837891 0)"/>
     <use xlink:href="#DejaVuSans-20" transform="translate(1592.626953 0)"/>
     <use xlink:href="#DejaVuSans-30" transform="translate(1624.414062 0)"/>
     <use xlink:href="#DejaVuSans-2e" transform="translate(1688.037109 0)"/>
     <use xlink:href="#DejaVuSans-39" transform="translate(1719.824219 0)"/>
     <use xlink:href="#DejaVuSans-30" transform="translate(1783.447266 0)"/>
     <use xlink:href="#DejaVuSans-35" transform="translate(1847.070312 0)"/>
    </g>
   </g>
   <g id="legend_1">
    <g id="patch_7">
     <path d="M 48.003125 58.833625 
L 141.74375 58.833625 
Q 143.74375 58.833625 143.74375 56.833625 
L 143.74375 42.7555 
Q 143.74375 40.7555 141.74375 40.7555 
L 48.003125 40.7555 
Q 46.003125 40.7555 46.003125 42.7555 
L 46.003125 56.833625 
Q 46.003125 58.833625 48.003125 58.833625 
z
" style="fill: #ffffff; opacity: 0.8; stroke: #cccccc; stroke-linejoin: miter"/>
    </g>
    <g id="line2d_22">
     <path d="M 50.003125 49.253938 
L 60.003125 49.253938 
L 70.003125 49.253938 
" style="fill: none; stroke-dasharray: 5.55,2.4; stroke-dashoffset: 0; stroke: #e15759; stroke-width: 1.5"/>
    </g>
    <g id="text_14">
     <!-- y = ŷ (ideal) -->
     <g transform="translate(78.003125 52.753938) scale(0.1 -0.1)">
      <defs>
       <path id="DejaVuSans-28" d="M 1984 4856 
Q 1566 4138 1362 3434 
Q 1159 2731 1159 2009 
Q 1159 1288 1364 580 
Q 1569 -128 1984 -844 
L 1484 -844 
Q 1016 -109 783 600 
Q 550 1309 550 2009 
Q 550 2706 781 3412 
Q 1013 4119 1484 4856 
L 1984 4856 
z
" transform="scale(0.015625)"/>
       <path id="DejaVuSans-61" d="M 2194 1759 
Q 1497 1759 1228 1600 
Q 959 1441 959 1056 
Q 959 750 1161 570 
Q 1363 391 1709 391 
Q 2188 391 2477 730 
Q 2766 1069 2766 1631 
L 2766 1759 
L 2194 1759 
z
M 3341 1997 
L 3341 0 
L 2766 0 
L 2766 531 
Q 2569 213 2275 61 
Q 1981 -91 1556 -91 
Q 1019 -91 701 211 
Q 384 513 384 1019 
Q 384 1609 779 1909 
Q 1175 2209 1959 2209 
L 2766 2209 
L 2766 2266 
Q 2766 2663 2505 2880 
Q 2244 3097 1772 3097 
Q 1472 3097 1187 3025 
Q 903 2953 641 2809 
L 641 3341 
Q 956 3463 1253 3523 
Q 1550 3584 1831 3584 
Q 2591 3584 2966 3190 
Q 3341 2797 3341 1997 
z
" transform="scale(0.015625)"/>
       <path id="DejaVuSans-6c" d="M 603 4863 
L 1178 4863 
L 1178 0 
L 603 0 
L 603 4863 
z
" transform="scale(0.015625)"/>
       <path id="DejaVuSans-29" d="M 513 4856 
L 1013 4856 
Q 1481 4119 1714 3412 
Q 1947 2706 1947 2009 
Q 1947 1309 1714 600 
Q 1481 -109 1013 -844 
L 513 -844 
Q 928 -128 1133 580 
Q 1338 1288 1338 2009 
Q 1338 2731 1133 3434 
Q 928 4138 513 4856 
z
" transform="scale(0.015625)"/>
      </defs>
      <use xlink:href="#DejaVuSans-79"/>
      <use xlink:href="#DejaVuSans-20" transform="translate(59.179688 0)"/>
      <use xlink:href="#DejaVuSans-3d" transform="translate(90.966797 0)"/>
      <use xlink:href="#DejaVuSans-20" transform="translate(174.755859 0)"/>
      <use xlink:href="#DejaVuSans-177" transform="translate(206.542969 0)"/>
      <use xlink:href="#DejaVuSans-20" transform="translate(265.722656 0)"/>
      <use xlink:href="#DejaVuSans-28" transform="translate(297.509766 0)"/>
      <use xlink:href="#DejaVuSans-69" transform="translate(336.523438 0)"/>
      <use xlink:href="#DejaVuSans-64" transform="translate(364.306641 0)"/>
      <use xlink:href="#DejaVuSans-65" transform="translate(427.783203 0)"/>
      <use xlink:href="#DejaVuSans-61" transform="translate(489.306641 0)"/>
      <use xlink:href="#DejaVuSans-6c" transform="translate(550.585938 0)"/>
      <use xlink:href="#DejaVuSans-29" transform="translate(578.369141 0)"/>
     </g>
    </g>
   </g>
  </g>
 </g>
 <defs>
  <clipPath id="pa62bccffee">
   <rect x="41.003125" y="35.7555" width="312.184" height="312.184"/>
  </clipPath>
 </defs>
</svg>
