<?xml version="1.0" encoding="utf-8" standalone="no"?>
<!DOCTYPE svg PUBLIC "-//W3C//DTD SVG 1.1//EN"
  "http://www.w3.org/Graphics/SVG/1.1/DTD/svg11.dtd">
<svg xmlns:xlink="http://www.w3.org/1999/xlink" width="496.46125pt" height="315.21125pt" viewBox="0 0 496.46125 315.21125" xmlns="http://www.w3.org/2000/svg" version="1.1">
 <metadata>
  <rdf:RDF xmlns:dc="http://purl.org/dc/elements/1.1/" xmlns:cc="http://creativecommons.org/ns#" xmlns:rdf="http://www.w3.org/1999/02/22-rdf-syntax-ns#">
   <cc:Work>
    <dc:type rdf:resource="http://purl.org/dc/dcmitype/StillImage"/>
    <dc:date>2026-05-24T22:02:34.416579</dc:date>
    <dc:format>image/svg+xml</dc:format>
    <dc:creator>
     <cc:Agent>
      <dc:title>Matplotlib v3.10.8, https://matplotlib.org/</dc:title>
     </cc:Agent>
    </dc:creator>
   </cc:Work>
  </rdf:RDF>
 </metadata>
 <defs>
  <style type="text/css">*{stroke-linejoin: round; stroke-linecap: butt}</style>
 </defs>
 <g id="figure_1">
  <g id="patch_1">
   <path d="M 0 315.21125 
L 496.46125 315.21125 
L 496.46125 0 
L 0 0 
z
" style="fill: #ffffff"/>
  </g>
  <g id="axes_1">
   <g id="patch_2">
    <path d="M 43.78125 277.376875 
L 489.26125 277.376875 
L 489.26125 22.318125 
L 43.78125 22.318125 
z
" style="fill: #ffffff"/>
   </g>
   <g id="matplotlib.axis_1">
    <g id="xtick_1">
     <g id="line2d_1">
      <path d="M 63.218754 277.376875 
L 63.218754 22.318125 
" clip-path="url(#p92cf37fc9c)" style="fill: none; stroke: #b0b0b0; stroke-opacity: 0.2; stroke-width: 0.8; stroke-linecap: square"/>
     </g>
     <g id="line2d_2">
      <defs>
       <path id="m552dd96c9e" d="M 0 0 
L 0 3.5 
" style="stroke: #000000; stroke-width: 0.8"/>
      </defs>
      <g>
       <use xlink:href="#m552dd96c9e" x="63.218754" y="277.376875" style="stroke: #000000; stroke-width: 0.8"/>
      </g>
     </g>
     <g id="text_1">
      <!-- 0 -->
      <g transform="translate(60.037504 291.975312) scale(0.1 -0.1)">
       <defs>
        <path id="DejaVuSans-30" d="M 2034 4250 
Q 1547 4250 1301 3770 
Q 1056 3291 1056 2328 
Q 1056 1369 1301 889 
Q 1547 409 2034 409 
Q 2525 409 2770 889 
Q 3016 1369 3016 2328 
Q 3016 3291 2770 3770 
Q 2525 4250 2034 4250 
z
M 2034 4750 
Q 2819 4750 3233 4129 
Q 3647 3509 3647 2328 
Q 3647 1150 3233 529 
Q 2819 -91 2034 -91 
Q 1250 -91 836 529 
Q 422 1150 422 2328 
Q 422 3509 836 4129 
Q 1250 4750 2034 4750 
z
" transform="scale(0.015625)"/>
       </defs>
       <use xlink:href="#DejaVuSans-30"/>
      </g>
     </g>
    </g>
    <g id="xtick_2">
     <g id="line2d_3">
      <path d="M 144.377435 277.376875 
L 144.377435 22.318125 
" clip-path="url(#p92cf37fc9c)" style="fill: none; stroke: #b0b0b0; stroke-opacity: 0.2; stroke-width: 0.8; stroke-linecap: square"/>
     </g>
     <g id="line2d_4">
      <g>
       <use xlink:href="#m552dd96c9e" x="144.377435" y="277.376875" style="stroke: #000000; stroke-width: 0.8"/>
      </g>
     </g>
     <g id="text_2">
      <!-- 100 -->
      <g transform="translate(134.833685 291.975312) scale(0.1 -0.1)">
       <defs>
        <path id="DejaVuSans-31" d="M 794 531 
L 1825 531 
L 1825 4091 
L 703 3866 
L 703 4441 
L 1819 4666 
L 2450 4666 
L 2450 531 
L 3481 531 
L 3481 0 
L 794 0 
L 794 531 
z
" transform="scale(0.015625)"/>
       </defs>
       <use xlink:href="#DejaVuSans-31"/>
       <use xlink:href="#DejaVuSans-30" transform="translate(63.623047 0)"/>
       <use xlink:href="#DejaVuSans-30" transform="translate(127.246094 0)"/>
      </g>
     </g>
    </g>
    <g id="xtick_3">
     <g id="line2d_5">
      <path d="M 225.536116 277.376875 
L 225.536116 22.318125 
" clip-path="url(#p92cf37fc9c)" style="fill: none; stroke: #b0b0b0; stroke-opacity: 0.2; stroke-width: 0.8; stroke-linecap: square"/>
     </g>
     <g id="line2d_6">
      <g>
       <use xlink:href="#m552dd96c9e" x="225.536116" y="277.376875" style="stroke: #000000; stroke-width: 0.8"/>
      </g>
     </g>
     <g id="text_3">
      <!-- 200 -->
      <g transform="translate(215.992366 291.975312) scale(0.1 -0.1)">
       <defs>
        <path id="DejaVuSans-32" d="M 1228 531 
L 3431 531 
L 3431 0 
L 469 0 
L 469 531 
Q 828 903 1448 1529 
Q 2069 2156 2228 2338 
Q 2531 2678 2651 2914 
Q 2772 3150 2772 3378 
Q 2772 3750 2511 3984 
Q 2250 4219 1831 4219 
Q 1534 4219 1204 4116 
Q 875 4013 500 3803 
L 500 4441 
Q 881 4594 1212 4672 
Q 1544 4750 1819 4750 
Q 2544 4750 2975 4387 
Q 3406 4025 3406 3419 
Q 3406 3131 3298 2873 
Q 3191 2616 2906 2266 
Q 2828 2175 2409 1742 
Q 1991 1309 1228 531 
z
" transform="scale(0.015625)"/>
       </defs>
       <use xlink:href="#DejaVuSans-32"/>
       <use xlink:href="#DejaVuSans-30" transform="translate(63.623047 0)"/>
       <use xlink:href="#DejaVuSans-30" transform="translate(127.246094 0)"/>
      </g>
     </g>
    </g>
    <g id="xtick_4">
     <g id="line2d_7">
      <path d="M 306.694797 277.376875 
L 306.694797 22.318125 
" clip-path="url(#p92cf37fc9c)" style="fill: none; stroke: #b0b0b0; stroke-opacity: 0.2; stroke-width: 0.8; stroke-linecap: square"/>
     </g>
     <g id="line2d_8">
      <g>
       <use xlink:href="#m552dd96c9e" x="306.694797" y="277.376875" style="stroke: #000000; stroke-width: 0.8"/>
      </g>
     </g>
     <g id="text_4">
      <!-- 300 -->
      <g transform="translate(297.151047 291.975312) scale(0.1 -0.1)">
       <defs>
        <path id="DejaVuSans-33" d="M 2597 2516 
Q 3050 2419 3304 2112 
Q 3559 1806 3559 1356 
Q 3559 666 3084 287 
Q 2609 -91 1734 -91 
Q 1441 -91 1130 -33 
Q 819 25 488 141 
L 488 750 
Q 750 597 1062 519 
Q 1375 441 1716 441 
Q 2309 441 2620 675 
Q 2931 909 2931 1356 
Q 2931 1769 2642 2001 
Q 2353 2234 1838 2234 
L 1294 2234 
L 1294 2753 
L 1863 2753 
Q 2328 2753 2575 2939 
Q 2822 3125 2822 3475 
Q 2822 3834 2567 4026 
Q 2313 4219 1838 4219 
Q 1578 4219 1281 4162 
Q 984 4106 628 3988 
L 628 4550 
Q 988 4650 1302 4700 
Q 1616 4750 1894 4750 
Q 2613 4750 3031 4423 
Q 3450 4097 3450 3541 
Q 3450 3153 3228 2886 
Q 3006 2619 2597 2516 
z
" transform="scale(0.015625)"/>
       </defs>
       <use xlink:href="#DejaVuSans-33"/>
       <use xlink:href="#DejaVuSans-30" transform="translate(63.623047 0)"/>
       <use xlink:href="#DejaVuSans-30" transform="translate(127.246094 0)"/>
      </g>
     </g>
    </g>
    <g id="xtick_5">
     <g id="line2d_9">
      <path d="M 387.853478 277.376875 
L 387.853478 22.318125 
" clip-path="url(#p92cf37fc9c)" style="fill: none; stroke: #b0b0b0; stroke-opacity: 0.2; stroke-width: 0.8; stroke-linecap: square"/>
     </g>
     <g id="line2d_10">
      <g>
       <use xlink:href="#m552dd96c9e" x="387.853478" y="277.376875" style="stroke: #000000; stroke-width: 0.8"/>
      </g>
     </g>
     <g id="text_5">
      <!-- 400 -->
      <g transform="translate(378.309728 291.975312) scale(0.1 -0.1)">
       <defs>
        <path id="DejaVuSans-34" d="M 2419 4116 
L 825 1625 
L 2419 1625 
L 2419 4116 
z
M 2253 4666 
L 3047 4666 
L 3047 1625 
L 3713 1625 
L 3713 1100 
L 3047 1100 
L 3047 0 
L 2419 0 
L 2419 1100 
L 313 1100 
L 313 1709 
L 2253 4666 
z
" transform="scale(0.015625)"/>
       </defs>
       <use xlink:href="#DejaVuSans-34"/>
       <use xlink:href="#DejaVuSans-30" transform="translate(63.623047 0)"/>
       <use xlink:href="#DejaVuSans-30" transform="translate(127.246094 0)"/>
      </g>
     </g>
    </g>
    <g id="xtick_6">
     <g id="line2d_11">
      <path d="M 469.012159 277.376875 
L 469.012159 22.318125 
" clip-path="url(#p92cf37fc9c)" style="fill: none; stroke: #b0b0b0; stroke-opacity: 0.2; stroke-width: 0.8; stroke-linecap: square"/>
     </g>
     <g id="line2d_12">
      <g>
       <use xlink:href="#m552dd96c9e" x="469.012159" y="277.376875" style="stroke: #000000; stroke-width: 0.8"/>
      </g>
     </g>
     <g id="text_6">
      <!-- 500 -->
      <g transform="translate(459.468409 291.975312) scale(0.1 -0.1)">
       <defs>
        <path id="DejaVuSans-35" d="M 691 4666 
L 3169 4666 
L 3169 4134 
L 1269 4134 
L 1269 2991 
Q 1406 3038 1543 3061 
Q 1681 3084 1819 3084 
Q 2600 3084 3056 2656 
Q 3513 2228 3513 1497 
Q 3513 744 3044 326 
Q 2575 -91 1722 -91 
Q 1428 -91 1123 -41 
Q 819 9 494 109 
L 494 744 
Q 775 591 1075 516 
Q 1375 441 1709 441 
Q 2250 441 2565 725 
Q 2881 1009 2881 1497 
Q 2881 1984 2565 2268 
Q 2250 2553 1709 2553 
Q 1456 2553 1204 2497 
Q 953 2441 691 2322 
L 691 4666 
z
" transform="scale(0.015625)"/>
       </defs>
       <use xlink:href="#DejaVuSans-35"/>
       <use xlink:href="#DejaVuSans-30" transform="translate(63.623047 0)"/>
       <use xlink:href="#DejaVuSans-30" transform="translate(127.246094 0)"/>
      </g>
     </g>
    </g>
    <g id="text_7">
     <!-- n_estimators -->
     <g transform="translate(234.207969 305.653437) scale(0.1 -0.1)">
      <defs>
       <path id="DejaVuSans-6e" d="M 3513 2113 
L 3513 0 
L 2938 0 
L 2938 2094 
Q 2938 2591 2744 2837 
Q 2550 3084 2163 3084 
Q 1697 3084 1428 2787 
Q 1159 2491 1159 1978 
L 1159 0 
L 581 0 
L 581 3500 
L 1159 3500 
L 1159 2956 
Q 1366 3272 1645 3428 
Q 1925 3584 2291 3584 
Q 2894 3584 3203 3211 
Q 3513 2838 3513 2113 
z
" transform="scale(0.015625)"/>
       <path id="DejaVuSans-5f" d="M 3263 -1063 
L 3263 -1509 
L -63 -1509 
L -63 -1063 
L 3263 -1063 
z
" transform="scale(0.015625)"/>
       <path id="DejaVuSans-65" d="M 3597 1894 
L 3597 1613 
L 953 1613 
Q 991 1019 1311 708 
Q 1631 397 2203 397 
Q 2534 397 2845 478 
Q 3156 559 3463 722 
L 3463 178 
Q 3153 47 2828 -22 
Q 2503 -91 2169 -91 
Q 1331 -91 842 396 
Q 353 884 353 1716 
Q 353 2575 817 3079 
Q 1281 3584 2069 3584 
Q 2775 3584 3186 3129 
Q 3597 2675 3597 1894 
z
M 3022 2063 
Q 3016 2534 2758 2815 
Q 2500 3097 2075 3097 
Q 1594 3097 1305 2825 
Q 1016 2553 972 2059 
L 3022 2063 
z
" transform="scale(0.015625)"/>
       <path id="DejaVuSans-73" d="M 2834 3397 
L 2834 2853 
Q 2591 2978 2328 3040 
Q 2066 3103 1784 3103 
Q 1356 3103 1142 2972 
Q 928 2841 928 2578 
Q 928 2378 1081 2264 
Q 1234 2150 1697 2047 
L 1894 2003 
Q 2506 1872 2764 1633 
Q 3022 1394 3022 966 
Q 3022 478 2636 193 
Q 2250 -91 1575 -91 
Q 1294 -91 989 -36 
Q 684 19 347 128 
L 347 722 
Q 666 556 975 473 
Q 1284 391 1588 391 
Q 1994 391 2212 530 
Q 2431 669 2431 922 
Q 2431 1156 2273 1281 
Q 2116 1406 1581 1522 
L 1381 1569 
Q 847 1681 609 1914 
Q 372 2147 372 2553 
Q 372 3047 722 3315 
Q 1072 3584 1716 3584 
Q 2034 3584 2315 3537 
Q 2597 3491 2834 3397 
z
" transform="scale(0.015625)"/>
       <path id="DejaVuSans-74" d="M 1172 4494 
L 1172 3500 
L 2356 3500 
L 2356 3053 
L 1172 3053 
L 1172 1153 
Q 1172 725 1289 603 
Q 1406 481 1766 481 
L 2356 481 
L 2356 0 
L 1766 0 
Q 1100 0 847 248 
Q 594 497 594 1153 
L 594 3053 
L 172 3053 
L 172 3500 
L 594 3500 
L 594 4494 
L 1172 4494 
z
" transform="scale(0.015625)"/>
       <path id="DejaVuSans-69" d="M 603 3500 
L 1178 3500 
L 1178 0 
L 603 0 
L 603 3500 
z
M 603 4863 
L 1178 4863 
L 1178 4134 
L 603 4134 
L 603 4863 
z
" transform="scale(0.015625)"/>
       <path id="DejaVuSans-6d" d="M 3328 2828 
Q 3544 3216 3844 3400 
Q 4144 3584 4550 3584 
Q 5097 3584 5394 3201 
Q 5691 2819 5691 2113 
L 5691 0 
L 5113 0 
L 5113 2094 
Q 5113 2597 4934 2840 
Q 4756 3084 4391 3084 
Q 3944 3084 3684 2787 
Q 3425 2491 3425 1978 
L 3425 0 
L 2847 0 
L 2847 2094 
Q 2847 2600 2669 2842 
Q 2491 3084 2119 3084 
Q 1678 3084 1418 2786 
Q 1159 2488 1159 1978 
L 1159 0 
L 581 0 
L 581 3500 
L 1159 3500 
L 1159 2956 
Q 1356 3278 1631 3431 
Q 1906 3584 2284 3584 
Q 2666 3584 2933 3390 
Q 3200 3197 3328 2828 
z
" transform="scale(0.015625)"/>
       <path id="DejaVuSans-61" d="M 2194 1759 
Q 1497 1759 1228 1600 
Q 959 1441 959 1056 
Q 959 750 1161 570 
Q 1363 391 1709 391 
Q 2188 391 2477 730 
Q 2766 1069 2766 1631 
L 2766 1759 
L 2194 1759 
z
M 3341 1997 
L 3341 0 
L 2766 0 
L 2766 531 
Q 2569 213 2275 61 
Q 1981 -91 1556 -91 
Q 1019 -91 701 211 
Q 384 513 384 1019 
Q 384 1609 779 1909 
Q 1175 2209 1959 2209 
L 2766 2209 
L 2766 2266 
Q 2766 2663 2505 2880 
Q 2244 3097 1772 3097 
Q 1472 3097 1187 3025 
Q 903 2953 641 2809 
L 641 3341 
Q 956 3463 1253 3523 
Q 1550 3584 1831 3584 
Q 2591 3584 2966 3190 
Q 3341 2797 3341 1997 
z
" transform="scale(0.015625)"/>
       <path id="DejaVuSans-6f" d="M 1959 3097 
Q 1497 3097 1228 2736 
Q 959 2375 959 1747 
Q 959 1119 1226 758 
Q 1494 397 1959 397 
Q 2419 397 2687 759 
Q 2956 1122 2956 1747 
Q 2956 2369 2687 2733 
Q 2419 3097 1959 3097 
z
M 1959 3584 
Q 2709 3584 3137 3096 
Q 3566 2609 3566 1747 
Q 3566 888 3137 398 
Q 2709 -91 1959 -91 
Q 1206 -91 779 398 
Q 353 888 353 1747 
Q 353 2609 779 3096 
Q 1206 3584 1959 3584 
z
" transform="scale(0.015625)"/>
       <path id="DejaVuSans-72" d="M 2631 2963 
Q 2534 3019 2420 3045 
Q 2306 3072 2169 3072 
Q 1681 3072 1420 2755 
Q 1159 2438 1159 1844 
L 1159 0 
L 581 0 
L 581 3500 
L 1159 3500 
L 1159 2956 
Q 1341 3275 1631 3429 
Q 1922 3584 2338 3584 
Q 2397 3584 2469 3576 
Q 2541 3569 2628 3553 
L 2631 2963 
z
" transform="scale(0.015625)"/>
      </defs>
      <use xlink:href="#DejaVuSans-6e"/>
      <use xlink:href="#DejaVuSans-5f" transform="translate(63.378906 0)"/>
      <use xlink:href="#DejaVuSans-65" transform="translate(113.378906 0)"/>
      <use xlink:href="#DejaVuSans-73" transform="translate(174.902344 0)"/>
      <use xlink:href="#DejaVuSans-74" transform="translate(227.001953 0)"/>
      <use xlink:href="#DejaVuSans-69" transform="translate(266.210938 0)"/>
      <use xlink:href="#DejaVuSans-6d" transform="translate(293.994141 0)"/>
      <use xlink:href="#DejaVuSans-61" transform="translate(391.40625 0)"/>
      <use xlink:href="#DejaVuSans-74" transform="translate(452.685547 0)"/>
      <use xlink:href="#DejaVuSans-6f" transform="translate(491.894531 0)"/>
      <use xlink:href="#DejaVuSans-72" transform="translate(553.076172 0)"/>
      <use xlink:href="#DejaVuSans-73" transform="translate(594.189453 0)"/>
     </g>
    </g>
   </g>
   <g id="matplotlib.axis_2">
    <g id="ytick_1">
     <g id="line2d_13">
      <path d="M 43.78125 267.753558 
L 489.26125 267.753558 
" clip-path="url(#p92cf37fc9c)" style="fill: none; stroke: #b0b0b0; stroke-opacity: 0.2; stroke-width: 0.8; stroke-linecap: square"/>
     </g>
     <g id="line2d_14">
      <defs>
       <path id="me1bfa218bf" d="M 0 0 
L -3.5 0 
" style="stroke: #000000; stroke-width: 0.8"/>
      </defs>
      <g>
       <use xlink:href="#me1bfa218bf" x="43.78125" y="267.753558" style="stroke: #000000; stroke-width: 0.8"/>
      </g>
     </g>
     <g id="text_8">
      <!-- 0.0 -->
      <g transform="translate(20.878125 271.552777) scale(0.1 -0.1)">
       <defs>
        <path id="DejaVuSans-2e" d="M 684 794 
L 1344 794 
L 1344 0 
L 684 0 
L 684 794 
z
" transform="scale(0.015625)"/>
       </defs>
       <use xlink:href="#DejaVuSans-30"/>
       <use xlink:href="#DejaVuSans-2e" transform="translate(63.623047 0)"/>
       <use xlink:href="#DejaVuSans-30" transform="translate(95.410156 0)"/>
      </g>
     </g>
    </g>
    <g id="ytick_2">
     <g id="line2d_15">
      <path d="M 43.78125 230.964772 
L 489.26125 230.964772 
" clip-path="url(#p92cf37fc9c)" style="fill: none; stroke: #b0b0b0; stroke-opacity: 0.2; stroke-width: 0.8; stroke-linecap: square"/>
     </g>
     <g id="line2d_16">
      <g>
       <use xlink:href="#me1bfa218bf" x="43.78125" y="230.964772" style="stroke: #000000; stroke-width: 0.8"/>
      </g>
     </g>
     <g id="text_9">
      <!-- 0.1 -->
      <g transform="translate(20.878125 234.76399) scale(0.1 -0.1)">
       <use xlink:href="#DejaVuSans-30"/>
       <use xlink:href="#DejaVuSans-2e" transform="translate(63.623047 0)"/>
       <use xlink:href="#DejaVuSans-31" transform="translate(95.410156 0)"/>
      </g>
     </g>
    </g>
    <g id="ytick_3">
     <g id="line2d_17">
      <path d="M 43.78125 194.175985 
L 489.26125 194.175985 
" clip-path="url(#p92cf37fc9c)" style="fill: none; stroke: #b0b0b0; stroke-opacity: 0.2; stroke-width: 0.8; stroke-linecap: square"/>
     </g>
     <g id="line2d_18">
      <g>
       <use xlink:href="#me1bfa218bf" x="43.78125" y="194.175985" style="stroke: #000000; stroke-width: 0.8"/>
      </g>
     </g>
     <g id="text_10">
      <!-- 0.2 -->
      <g transform="translate(20.878125 197.975204) scale(0.1 -0.1)">
       <use xlink:href="#DejaVuSans-30"/>
       <use xlink:href="#DejaVuSans-2e" transform="translate(63.623047 0)"/>
       <use xlink:href="#DejaVuSans-32" transform="translate(95.410156 0)"/>
      </g>
     </g>
    </g>
    <g id="ytick_4">
     <g id="line2d_19">
      <path d="M 43.78125 157.387198 
L 489.26125 157.387198 
" clip-path="url(#p92cf37fc9c)" style="fill: none; stroke: #b0b0b0; stroke-opacity: 0.2; stroke-width: 0.8; stroke-linecap: square"/>
     </g>
     <g id="line2d_20">
      <g>
       <use xlink:href="#me1bfa218bf" x="43.78125" y="157.387198" style="stroke: #000000; stroke-width: 0.8"/>
      </g>
     </g>
     <g id="text_11">
      <!-- 0.3 -->
      <g transform="translate(20.878125 161.186417) scale(0.1 -0.1)">
       <use xlink:href="#DejaVuSans-30"/>
       <use xlink:href="#DejaVuSans-2e" transform="translate(63.623047 0)"/>
       <use xlink:href="#DejaVuSans-33" transform="translate(95.410156 0)"/>
      </g>
     </g>
    </g>
    <g id="ytick_5">
     <g id="line2d_21">
      <path d="M 43.78125 120.598412 
L 489.26125 120.598412 
" clip-path="url(#p92cf37fc9c)" style="fill: none; stroke: #b0b0b0; stroke-opacity: 0.2; stroke-width: 0.8; stroke-linecap: square"/>
     </g>
     <g id="line2d_22">
      <g>
       <use xlink:href="#me1bfa218bf" x="43.78125" y="120.598412" style="stroke: #000000; stroke-width: 0.8"/>
      </g>
     </g>
     <g id="text_12">
      <!-- 0.4 -->
      <g transform="translate(20.878125 124.39763) scale(0.1 -0.1)">
       <use xlink:href="#DejaVuSans-30"/>
       <use xlink:href="#DejaVuSans-2e" transform="translate(63.623047 0)"/>
       <use xlink:href="#DejaVuSans-34" transform="translate(95.410156 0)"/>
      </g>
     </g>
    </g>
    <g id="ytick_6">
     <g id="line2d_23">
      <path d="M 43.78125 83.809625 
L 489.26125 83.809625 
" clip-path="url(#p92cf37fc9c)" style="fill: none; stroke: #b0b0b0; stroke-opacity: 0.2; stroke-width: 0.8; stroke-linecap: square"/>
     </g>
     <g id="line2d_24">
      <g>
       <use xlink:href="#me1bfa218bf" x="43.78125" y="83.809625" style="stroke: #000000; stroke-width: 0.8"/>
      </g>
     </g>
     <g id="text_13">
      <!-- 0.5 -->
      <g transform="translate(20.878125 87.608844) scale(0.1 -0.1)">
       <use xlink:href="#DejaVuSans-30"/>
       <use xlink:href="#DejaVuSans-2e" transform="translate(63.623047 0)"/>
       <use xlink:href="#DejaVuSans-35" transform="translate(95.410156 0)"/>
      </g>
     </g>
    </g>
    <g id="ytick_7">
     <g id="line2d_25">
      <path d="M 43.78125 47.020838 
L 489.26125 47.020838 
" clip-path="url(#p92cf37fc9c)" style="fill: none; stroke: #b0b0b0; stroke-opacity: 0.2; stroke-width: 0.8; stroke-linecap: square"/>
     </g>
     <g id="line2d_26">
      <g>
       <use xlink:href="#me1bfa218bf" x="43.78125" y="47.020838" style="stroke: #000000; stroke-width: 0.8"/>
      </g>
     </g>
     <g id="text_14">
      <!-- 0.6 -->
      <g transform="translate(20.878125 50.820057) scale(0.1 -0.1)">
       <defs>
        <path id="DejaVuSans-36" d="M 2113 2584 
Q 1688 2584 1439 2293 
Q 1191 2003 1191 1497 
Q 1191 994 1439 701 
Q 1688 409 2113 409 
Q 2538 409 2786 701 
Q 3034 994 3034 1497 
Q 3034 2003 2786 2293 
Q 2538 2584 2113 2584 
z
M 3366 4563 
L 3366 3988 
Q 3128 4100 2886 4159 
Q 2644 4219 2406 4219 
Q 1781 4219 1451 3797 
Q 1122 3375 1075 2522 
Q 1259 2794 1537 2939 
Q 1816 3084 2150 3084 
Q 2853 3084 3261 2657 
Q 3669 2231 3669 1497 
Q 3669 778 3244 343 
Q 2819 -91 2113 -91 
Q 1303 -91 875 529 
Q 447 1150 447 2328 
Q 447 3434 972 4092 
Q 1497 4750 2381 4750 
Q 2619 4750 2861 4703 
Q 3103 4656 3366 4563 
z
" transform="scale(0.015625)"/>
       </defs>
       <use xlink:href="#DejaVuSans-30"/>
       <use xlink:href="#DejaVuSans-2e" transform="translate(63.623047 0)"/>
       <use xlink:href="#DejaVuSans-36" transform="translate(95.410156 0)"/>
      </g>
     </g>
    </g>
    <g id="text_15">
     <!-- Log loss -->
     <g transform="translate(14.798438 170.026406) rotate(-90) scale(0.1 -0.1)">
      <defs>
       <path id="DejaVuSans-4c" d="M 628 4666 
L 1259 4666 
L 1259 531 
L 3531 531 
L 3531 0 
L 628 0 
L 628 4666 
z
" transform="scale(0.015625)"/>
       <path id="DejaVuSans-67" d="M 2906 1791 
Q 2906 2416 2648 2759 
Q 2391 3103 1925 3103 
Q 1463 3103 1205 2759 
Q 947 2416 947 1791 
Q 947 1169 1205 825 
Q 1463 481 1925 481 
Q 2391 481 2648 825 
Q 2906 1169 2906 1791 
z
M 3481 434 
Q 3481 -459 3084 -895 
Q 2688 -1331 1869 -1331 
Q 1566 -1331 1297 -1286 
Q 1028 -1241 775 -1147 
L 775 -588 
Q 1028 -725 1275 -790 
Q 1522 -856 1778 -856 
Q 2344 -856 2625 -561 
Q 2906 -266 2906 331 
L 2906 616 
Q 2728 306 2450 153 
Q 2172 0 1784 0 
Q 1141 0 747 490 
Q 353 981 353 1791 
Q 353 2603 747 3093 
Q 1141 3584 1784 3584 
Q 2172 3584 2450 3431 
Q 2728 3278 2906 2969 
L 2906 3500 
L 3481 3500 
L 3481 434 
z
" transform="scale(0.015625)"/>
       <path id="DejaVuSans-20" transform="scale(0.015625)"/>
       <path id="DejaVuSans-6c" d="M 603 4863 
L 1178 4863 
L 1178 0 
L 603 0 
L 603 4863 
z
" transform="scale(0.015625)"/>
      </defs>
      <use xlink:href="#DejaVuSans-4c"/>
      <use xlink:href="#DejaVuSans-6f" transform="translate(53.962891 0)"/>
      <use xlink:href="#DejaVuSans-67" transform="translate(115.144531 0)"/>
      <use xlink:href="#DejaVuSans-20" transform="translate(178.621094 0)"/>
      <use xlink:href="#DejaVuSans-6c" transform="translate(210.408203 0)"/>
      <use xlink:href="#DejaVuSans-6f" transform="translate(238.191406 0)"/>
      <use xlink:href="#DejaVuSans-73" transform="translate(299.373047 0)"/>
      <use xlink:href="#DejaVuSans-73" transform="translate(351.472656 0)"/>
     </g>
    </g>
   </g>
   <g id="line2d_27">
    <path d="M 64.030341 35.222833 
L 64.841928 54.805647 
L 65.653515 71.060015 
L 67.276688 96.620942 
L 68.899862 115.146327 
L 69.711449 123.115092 
L 71.334622 136.580095 
L 73.769383 152.015347 
L 76.204143 163.644689 
L 78.638903 172.328188 
L 80.262077 177.086042 
L 81.073664 179.360142 
L 81.885251 181.296092 
L 82.696838 183.590728 
L 86.754772 191.326194 
L 88.377945 193.446318 
L 89.189532 194.636544 
L 90.001119 196.407275 
L 90.812706 197.247163 
L 91.624292 198.24713 
L 93.247466 199.996318 
L 94.059053 200.882144 
L 94.87064 201.55478 
L 96.493813 203.337042 
L 97.3054 204.051939 
L 98.116987 204.507176 
L 98.928574 205.299908 
L 99.740161 206.806675 
L 100.551747 207.759243 
L 101.363334 208.383473 
L 102.174921 209.733387 
L 102.986508 210.424061 
L 103.798095 211.421587 
L 105.421268 212.830298 
L 106.232855 213.6366 
L 108.667615 215.27845 
L 109.479202 215.751751 
L 110.290789 216.391599 
L 111.102376 217.182025 
L 111.913963 217.369689 
L 114.348723 218.898058 
L 115.16031 219.063186 
L 115.971897 220.078989 
L 116.783484 220.636892 
L 117.59507 220.920692 
L 118.406657 221.073853 
L 119.218244 222.026873 
L 120.841418 222.714858 
L 121.653004 223.531287 
L 123.276178 224.372049 
L 124.087765 225.023834 
L 124.899352 225.18205 
L 127.334112 226.763898 
L 128.145699 227.113578 
L 129.768873 228.032787 
L 132.203633 228.958744 
L 133.01522 229.081621 
L 136.261567 230.584422 
L 137.073154 230.780661 
L 137.884741 231.223988 
L 142.754261 233.083098 
L 143.565848 233.584461 
L 144.377435 233.798687 
L 145.189022 234.356841 
L 149.246956 235.703228 
L 150.87013 236.084736 
L 151.681716 236.519212 
L 154.116477 237.358605 
L 155.73965 237.886494 
L 156.551237 238.321773 
L 157.362824 238.58084 
L 158.985998 238.755467 
L 159.797584 239.047794 
L 160.609171 239.124275 
L 163.043932 239.773303 
L 163.855519 240.163593 
L 164.667105 240.236379 
L 165.478692 240.479596 
L 166.290279 240.903018 
L 167.913453 241.38418 
L 168.725039 241.752764 
L 169.536626 241.821586 
L 171.971387 242.445584 
L 172.782973 242.520603 
L 174.406147 243.017866 
L 175.217734 243.22869 
L 176.029321 243.324512 
L 179.275668 244.223866 
L 180.087255 244.329652 
L 180.898842 244.632196 
L 182.522015 245.043117 
L 183.333602 245.235815 
L 184.956776 245.443289 
L 186.579949 245.706127 
L 190.637883 246.566598 
L 191.44947 246.816553 
L 193.072644 247.089334 
L 196.318991 247.655205 
L 200.376925 248.28766 
L 202.000099 248.597232 
L 206.869619 249.612104 
L 219.855008 251.684808 
L 236.898331 253.728238 
L 239.333092 254.008691 
L 241.767852 254.322851 
L 249.88372 255.296513 
L 252.318481 255.585861 
L 256.376415 256.021435 
L 263.680696 256.824569 
L 266.115457 257.130597 
L 267.73863 257.29593 
L 270.173391 257.465255 
L 272.608151 257.711522 
L 277.477672 258.191026 
L 294.520995 259.452127 
L 296.955755 259.573364 
L 301.013689 259.820916 
L 304.260037 260.001008 
L 326.984467 261.33298 
L 331.853988 261.603273 
L 336.723509 261.898201 
L 368.375395 263.344439 
L 432.490753 265.085313 
L 454.403597 265.565468 
L 469.012159 265.783295 
L 469.012159 265.783295 
" clip-path="url(#p92cf37fc9c)" style="fill: none; stroke: #7aa6c2; stroke-width: 1.5; stroke-linecap: square"/>
   </g>
   <g id="line2d_28">
    <path d="M 64.030341 33.911705 
L 64.841928 50.959945 
L 65.653515 65.323703 
L 66.465101 77.563133 
L 68.088275 96.549218 
L 69.711449 109.551638 
L 71.334622 120.316902 
L 72.957796 127.819892 
L 73.769383 131.526349 
L 74.580969 134.627525 
L 77.01573 141.821197 
L 78.638903 145.223774 
L 79.45049 146.668689 
L 80.262077 147.738985 
L 81.073664 148.555874 
L 82.696838 149.982757 
L 83.508424 150.681823 
L 84.320011 150.994629 
L 85.131598 151.85606 
L 85.943185 152.437895 
L 86.754772 152.810067 
L 87.566358 152.837413 
L 88.377945 153.624998 
L 89.189532 154.203128 
L 90.001119 155.219427 
L 90.812706 155.247862 
L 91.624292 155.911943 
L 92.435879 156.181637 
L 93.247466 156.289808 
L 94.059053 156.602703 
L 94.87064 156.383814 
L 95.682226 156.883693 
L 97.3054 156.788127 
L 98.116987 156.628761 
L 98.928574 156.747425 
L 99.740161 156.566681 
L 100.551747 156.593396 
L 101.363334 156.370999 
L 102.174921 156.6387 
L 103.798095 157.970801 
L 105.421268 157.558979 
L 106.232855 157.823073 
L 107.044442 157.945518 
L 107.856029 157.750072 
L 110.290789 157.925078 
L 111.102376 157.771618 
L 111.913963 157.912463 
L 112.72555 158.174499 
L 114.348723 158.252847 
L 115.16031 158.398396 
L 115.971897 158.855613 
L 116.783484 159.147449 
L 118.406657 159.311468 
L 119.218244 159.738806 
L 120.841418 159.788495 
L 121.653004 160.14158 
L 122.464591 160.263433 
L 123.276178 160.113249 
L 124.087765 160.354264 
L 124.899352 160.43834 
L 125.710938 160.668366 
L 127.334112 160.345811 
L 128.145699 160.290106 
L 128.957286 160.539671 
L 129.768873 160.453408 
L 130.580459 160.22487 
L 131.392046 160.366433 
L 133.01522 160.398944 
L 133.826807 160.462538 
L 134.638393 160.664981 
L 135.44998 160.751642 
L 138.696327 160.265787 
L 139.507914 160.24459 
L 141.131088 160.451453 
L 142.754261 160.294048 
L 143.565848 160.251855 
L 144.377435 160.060883 
L 146.000609 160.313913 
L 148.435369 160.029044 
L 149.246956 160.151237 
L 150.058543 160.041593 
L 150.87013 159.792771 
L 151.681716 160.068477 
L 154.116477 160.216069 
L 154.928064 160.120695 
L 155.73965 160.325384 
L 156.551237 160.351943 
L 157.362824 160.120316 
L 159.797584 160.356093 
L 161.420758 160.164791 
L 162.232345 160.313768 
L 163.043932 160.100933 
L 163.855519 160.171976 
L 165.478692 159.919374 
L 166.290279 160.101318 
L 167.913453 159.487747 
L 168.725039 159.007076 
L 169.536626 159.147948 
L 171.1598 159.02062 
L 171.971387 159.127081 
L 174.406147 158.950007 
L 176.029321 159.072442 
L 177.652494 159.326805 
L 179.275668 159.149105 
L 183.333602 158.738222 
L 184.145189 158.673607 
L 184.956776 158.73055 
L 185.768362 158.528312 
L 186.579949 158.693823 
L 189.01471 158.388065 
L 192.261057 158.052078 
L 193.072644 157.87578 
L 193.884231 158.084646 
L 194.695817 158.075654 
L 195.507404 157.928396 
L 196.318991 157.936045 
L 197.942165 157.568751 
L 198.753751 157.619423 
L 201.188512 157.42365 
L 203.623272 157.402066 
L 204.434859 157.214118 
L 206.058033 157.337636 
L 207.681206 156.725164 
L 209.30438 156.762566 
L 211.73914 156.324575 
L 212.550727 156.467751 
L 214.173901 156.277266 
L 214.985488 156.361575 
L 215.797074 156.671022 
L 217.420248 156.374165 
L 218.231835 156.361038 
L 222.289769 155.782428 
L 223.101356 155.708444 
L 223.912942 155.768397 
L 224.724529 156.010318 
L 225.536116 156.008131 
L 226.347703 155.886551 
L 227.15929 155.927016 
L 227.970877 155.53143 
L 229.59405 155.127246 
L 230.405637 155.246329 
L 232.028811 155.056605 
L 232.840397 155.232501 
L 234.463571 155.088502 
L 235.275158 154.859444 
L 236.086745 154.980957 
L 236.898331 154.791209 
L 237.709918 154.894556 
L 239.333092 154.529298 
L 240.144679 154.596214 
L 241.767852 154.253459 
L 242.579439 154.345118 
L 246.637373 153.86538 
L 247.44896 153.67129 
L 248.260547 153.747724 
L 251.506894 153.067281 
L 252.318481 153.193415 
L 253.941654 153.030777 
L 256.376415 152.889901 
L 257.999588 152.997972 
L 258.811175 153.0567 
L 260.434349 152.824722 
L 261.245936 152.815239 
L 262.057523 152.576581 
L 266.115457 152.22344 
L 269.361804 152.357761 
L 270.984977 152.245454 
L 271.796564 152.393408 
L 275.042912 151.754713 
L 275.854498 151.381916 
L 277.477672 151.632238 
L 279.100846 151.45866 
L 282.347193 151.207315 
L 283.15878 151.434131 
L 283.970366 151.217509 
L 284.781953 151.142127 
L 285.59354 151.247322 
L 286.405127 151.10351 
L 287.216714 150.757626 
L 288.0283 150.669621 
L 289.651474 150.027513 
L 290.463061 149.809906 
L 291.274648 149.928517 
L 292.086235 149.878136 
L 292.897821 150.031227 
L 294.520995 149.786017 
L 295.332582 149.850334 
L 298.578929 149.069085 
L 301.013689 149.018839 
L 301.825276 149.106051 
L 302.636863 148.980516 
L 303.44845 148.697328 
L 304.260037 148.724685 
L 305.88321 148.369579 
L 308.317971 148.403913 
L 310.752731 147.756634 
L 311.564318 147.723902 
L 312.375905 147.352775 
L 313.187492 147.449568 
L 315.622252 147.121198 
L 316.433839 147.132181 
L 318.057012 146.808592 
L 320.491773 146.452667 
L 323.73812 145.917713 
L 325.361294 145.500379 
L 326.172881 145.690569 
L 326.984467 145.396107 
L 327.796054 145.402777 
L 328.607641 145.540762 
L 330.230815 145.034817 
L 331.042401 145.070459 
L 334.288749 144.606837 
L 335.100335 144.758018 
L 335.911922 145.025047 
L 337.535096 144.632739 
L 338.346683 144.677343 
L 339.158269 144.369098 
L 339.969856 144.229478 
L 340.781443 144.217906 
L 341.59303 144.391194 
L 342.404617 144.249055 
L 344.02779 144.336991 
L 346.462551 144.237184 
L 347.274138 144.090527 
L 349.708898 144.128759 
L 350.520485 143.790317 
L 351.332072 143.852971 
L 352.143658 143.632975 
L 353.766832 143.558777 
L 354.578419 143.339839 
L 355.390006 143.519237 
L 356.201593 143.562906 
L 357.013179 143.448885 
L 357.824766 143.490196 
L 359.44794 143.38143 
L 360.259527 143.383743 
L 361.071113 143.257569 
L 361.8827 142.98598 
L 365.940634 142.639297 
L 367.563808 142.63859 
L 369.186981 142.513141 
L 370.810155 142.55202 
L 372.433329 142.363694 
L 373.244916 142.329266 
L 374.056502 142.452455 
L 374.868089 142.265242 
L 376.491263 142.141245 
L 377.30285 141.833195 
L 378.114436 141.684392 
L 379.73761 141.620947 
L 380.549197 141.439529 
L 383.795544 141.308679 
L 384.607131 140.981437 
L 387.853478 140.543815 
L 388.665065 140.718324 
L 397.59252 140.152074 
L 398.404107 140.032532 
L 399.215693 140.100135 
L 400.02728 139.943646 
L 400.838867 140.082563 
L 402.462041 139.922611 
L 404.085214 139.698201 
L 407.331562 139.291446 
L 408.143148 139.267201 
L 408.954735 138.869611 
L 412.201082 138.562904 
L 413.012669 138.532828 
L 413.824256 138.695776 
L 415.44743 138.644666 
L 416.259016 138.172426 
L 418.693777 137.256003 
L 420.31695 137.048973 
L 421.128537 137.03635 
L 421.940124 136.895588 
L 424.374885 136.765049 
L 425.186471 136.498692 
L 427.621232 136.46017 
L 428.432819 136.560466 
L 430.867579 136.226108 
L 431.679166 135.98547 
L 432.490753 136.026622 
L 434.113926 135.345731 
L 434.925513 135.35174 
L 440.606621 134.161367 
L 443.041381 133.733724 
L 444.664555 133.465851 
L 448.722489 133.373484 
L 449.534076 133.195984 
L 450.345662 133.529582 
L 451.157249 133.475572 
L 451.968836 133.245521 
L 452.780423 133.149334 
L 453.59201 132.879307 
L 454.403597 132.86553 
L 456.02677 132.525075 
L 458.461531 132.262051 
L 459.273117 132.451374 
L 464.142638 131.667859 
L 466.577399 131.435793 
L 467.388985 131.003276 
L 469.012159 131.182771 
L 469.012159 131.182771 
" clip-path="url(#p92cf37fc9c)" style="fill: none; stroke: #e15759; stroke-width: 1.5; stroke-linecap: square"/>
   </g>
   <g id="line2d_29">
    <path d="M 135.44998 277.376875 
L 135.44998 22.318125 
" clip-path="url(#p92cf37fc9c)" style="fill: none; stroke-dasharray: 5.55,2.4; stroke-dashoffset: 0; stroke: #808080; stroke-opacity: 0.7; stroke-width: 1.5"/>
   </g>
   <g id="patch_3">
    <path d="M 43.78125 277.376875 
L 43.78125 22.318125 
" style="fill: none; stroke: #000000; stroke-width: 0.8; stroke-linejoin: miter; stroke-linecap: square"/>
   </g>
   <g id="patch_4">
    <path d="M 489.26125 277.376875 
L 489.26125 22.318125 
" style="fill: none; stroke: #000000; stroke-width: 0.8; stroke-linejoin: miter; stroke-linecap: square"/>
   </g>
   <g id="patch_5">
    <path d="M 43.78125 277.376875 
L 489.26125 277.376875 
" style="fill: none; stroke: #000000; stroke-width: 0.8; stroke-linejoin: miter; stroke-linecap: square"/>
   </g>
   <g id="patch_6">
    <path d="M 43.78125 22.318125 
L 489.26125 22.318125 
" style="fill: none; stroke: #000000; stroke-width: 0.8; stroke-linejoin: miter; stroke-linecap: square"/>
   </g>
   <g id="text_16">
    <!-- Train keeps falling, test bottoms out then rises -->
    <g transform="translate(126.997813 16.318125) scale(0.12 -0.12)">
     <defs>
      <path id="DejaVuSans-54" d="M -19 4666 
L 3928 4666 
L 3928 4134 
L 2272 4134 
L 2272 0 
L 1638 0 
L 1638 4134 
L -19 4134 
L -19 4666 
z
" transform="scale(0.015625)"/>
      <path id="DejaVuSans-6b" d="M 581 4863 
L 1159 4863 
L 1159 1991 
L 2875 3500 
L 3609 3500 
L 1753 1863 
L 3688 0 
L 2938 0 
L 1159 1709 
L 1159 0 
L 581 0 
L 581 4863 
z
" transform="scale(0.015625)"/>
      <path id="DejaVuSans-70" d="M 1159 525 
L 1159 -1331 
L 581 -1331 
L 581 3500 
L 1159 3500 
L 1159 2969 
Q 1341 3281 1617 3432 
Q 1894 3584 2278 3584 
Q 2916 3584 3314 3078 
Q 3713 2572 3713 1747 
Q 3713 922 3314 415 
Q 2916 -91 2278 -91 
Q 1894 -91 1617 61 
Q 1341 213 1159 525 
z
M 3116 1747 
Q 3116 2381 2855 2742 
Q 2594 3103 2138 3103 
Q 1681 3103 1420 2742 
Q 1159 2381 1159 1747 
Q 1159 1113 1420 752 
Q 1681 391 2138 391 
Q 2594 391 2855 752 
Q 3116 1113 3116 1747 
z
" transform="scale(0.015625)"/>
      <path id="DejaVuSans-66" d="M 2375 4863 
L 2375 4384 
L 1825 4384 
Q 1516 4384 1395 4259 
Q 1275 4134 1275 3809 
L 1275 3500 
L 2222 3500 
L 2222 3053 
L 1275 3053 
L 1275 0 
L 697 0 
L 697 3053 
L 147 3053 
L 147 3500 
L 697 3500 
L 697 3744 
Q 697 4328 969 4595 
Q 1241 4863 1831 4863 
L 2375 4863 
z
" transform="scale(0.015625)"/>
      <path id="DejaVuSans-2c" d="M 750 794 
L 1409 794 
L 1409 256 
L 897 -744 
L 494 -744 
L 750 256 
L 750 794 
z
" transform="scale(0.015625)"/>
      <path id="DejaVuSans-62" d="M 3116 1747 
Q 3116 2381 2855 2742 
Q 2594 3103 2138 3103 
Q 1681 3103 1420 2742 
Q 1159 2381 1159 1747 
Q 1159 1113 1420 752 
Q 1681 391 2138 391 
Q 2594 391 2855 752 
Q 3116 1113 3116 1747 
z
M 1159 2969 
Q 1341 3281 1617 3432 
Q 1894 3584 2278 3584 
Q 2916 3584 3314 3078 
Q 3713 2572 3713 1747 
Q 3713 922 3314 415 
Q 2916 -91 2278 -91 
Q 1894 -91 1617 61 
Q 1341 213 1159 525 
L 1159 0 
L 581 0 
L 581 4863 
L 1159 4863 
L 1159 2969 
z
" transform="scale(0.015625)"/>
      <path id="DejaVuSans-75" d="M 544 1381 
L 544 3500 
L 1119 3500 
L 1119 1403 
Q 1119 906 1312 657 
Q 1506 409 1894 409 
Q 2359 409 2629 706 
Q 2900 1003 2900 1516 
L 2900 3500 
L 3475 3500 
L 3475 0 
L 2900 0 
L 2900 538 
Q 2691 219 2414 64 
Q 2138 -91 1772 -91 
Q 1169 -91 856 284 
Q 544 659 544 1381 
z
M 1991 3584 
L 1991 3584 
z
" transform="scale(0.015625)"/>
      <path id="DejaVuSans-68" d="M 3513 2113 
L 3513 0 
L 2938 0 
L 2938 2094 
Q 2938 2591 2744 2837 
Q 2550 3084 2163 3084 
Q 1697 3084 1428 2787 
Q 1159 2491 1159 1978 
L 1159 0 
L 581 0 
L 581 4863 
L 1159 4863 
L 1159 2956 
Q 1366 3272 1645 3428 
Q 1925 3584 2291 3584 
Q 2894 3584 3203 3211 
Q 3513 2838 3513 2113 
z
" transform="scale(0.015625)"/>
     </defs>
     <use xlink:href="#DejaVuSans-54"/>
     <use xlink:href="#DejaVuSans-72" transform="translate(46.333984 0)"/>
     <use xlink:href="#DejaVuSans-61" transform="translate(87.447266 0)"/>
     <use xlink:href="#DejaVuSans-69" transform="translate(148.726562 0)"/>
     <use xlink:href="#DejaVuSans-6e" transform="translate(176.509766 0)"/>
     <use xlink:href="#DejaVuSans-20" transform="translate(239.888672 0)"/>
     <use xlink:href="#DejaVuSans-6b" transform="translate(271.675781 0)"/>
     <use xlink:href="#DejaVuSans-65" transform="translate(325.960938 0)"/>
     <use xlink:href="#DejaVuSans-65" transform="translate(387.484375 0)"/>
     <use xlink:href="#DejaVuSans-70" transform="translate(449.007812 0)"/>
     <use xlink:href="#DejaVuSans-73" transform="translate(512.484375 0)"/>
     <use xlink:href="#DejaVuSans-20" transform="translate(564.583984 0)"/>
     <use xlink:href="#DejaVuSans-66" transform="translate(596.371094 0)"/>
     <use xlink:href="#DejaVuSans-61" transform="translate(631.576172 0)"/>
     <use xlink:href="#DejaVuSans-6c" transform="translate(692.855469 0)"/>
     <use xlink:href="#DejaVuSans-6c" transform="translate(720.638672 0)"/>
     <use xlink:href="#DejaVuSans-69" transform="translate(748.421875 0)"/>
     <use xlink:href="#DejaVuSans-6e" transform="translate(776.205078 0)"/>
     <use xlink:href="#DejaVuSans-67" transform="translate(839.583984 0)"/>
     <use xlink:href="#DejaVuSans-2c" transform="translate(903.060547 0)"/>
     <use xlink:href="#DejaVuSans-20" transform="translate(934.847656 0)"/>
     <use xlink:href="#DejaVuSans-74" transform="translate(966.634766 0)"/>
     <use xlink:href="#DejaVuSans-65" transform="translate(1005.84375 0)"/>
     <use xlink:href="#DejaVuSans-73" transform="translate(1067.367188 0)"/>
     <use xlink:href="#DejaVuSans-74" transform="translate(1119.466797 0)"/>
     <use xlink:href="#DejaVuSans-20" transform="translate(1158.675781 0)"/>
     <use xlink:href="#DejaVuSans-62" transform="translate(1190.462891 0)"/>
     <use xlink:href="#DejaVuSans-6f" transform="translate(1253.939453 0)"/>
     <use xlink:href="#DejaVuSans-74" transform="translate(1315.121094 0)"/>
     <use xlink:href="#DejaVuSans-74" transform="translate(1354.330078 0)"/>
     <use xlink:href="#DejaVuSans-6f" transform="translate(1393.539062 0)"/>
     <use xlink:href="#DejaVuSans-6d" transform="translate(1454.720703 0)"/>
     <use xlink:href="#DejaVuSans-73" transform="translate(1552.132812 0)"/>
     <use xlink:href="#DejaVuSans-20" transform="translate(1604.232422 0)"/>
     <use xlink:href="#DejaVuSans-6f" transform="translate(1636.019531 0)"/>
     <use xlink:href="#DejaVuSans-75" transform="translate(1697.201172 0)"/>
     <use xlink:href="#DejaVuSans-74" transform="translate(1760.580078 0)"/>
     <use xlink:href="#DejaVuSans-20" transform="translate(1799.789062 0)"/>
     <use xlink:href="#DejaVuSans-74" transform="translate(1831.576172 0)"/>
     <use xlink:href="#DejaVuSans-68" transform="translate(1870.785156 0)"/>
     <use xlink:href="#DejaVuSans-65" transform="translate(1934.164062 0)"/>
     <use xlink:href="#DejaVuSans-6e" transform="translate(1995.6875 0)"/>
     <use xlink:href="#DejaVuSans-20" transform="translate(2059.066406 0)"/>
     <use xlink:href="#DejaVuSans-72" transform="translate(2090.853516 0)"/>
     <use xlink:href="#DejaVuSans-69" transform="translate(2131.966797 0)"/>
     <use xlink:href="#DejaVuSans-73" transform="translate(2159.75 0)"/>
     <use xlink:href="#DejaVuSans-65" transform="translate(2211.849609 0)"/>
     <use xlink:href="#DejaVuSans-73" transform="translate(2273.373047 0)"/>
    </g>
   </g>
   <g id="legend_1">
    <g id="patch_7">
     <path d="M 300.855 74.3525 
L 482.26125 74.3525 
Q 484.26125 74.3525 484.26125 72.3525 
L 484.26125 29.318125 
Q 484.26125 27.318125 482.26125 27.318125 
L 300.855 27.318125 
Q 298.855 27.318125 298.855 29.318125 
L 298.855 72.3525 
Q 298.855 74.3525 300.855 74.3525 
z
" style="fill: #ffffff; opacity: 0.8; stroke: #cccccc; stroke-linejoin: miter"/>
    </g>
    <g id="line2d_30">
     <path d="M 302.855 35.416562 
L 312.855 35.416562 
L 322.855 35.416562 
" style="fill: none; stroke: #7aa6c2; stroke-width: 1.5; stroke-linecap: square"/>
    </g>
    <g id="text_17">
     <!-- train -->
     <g transform="translate(330.855 38.916562) scale(0.1 -0.1)">
      <use xlink:href="#DejaVuSans-74"/>
      <use xlink:href="#DejaVuSans-72" transform="translate(39.208984 0)"/>
      <use xlink:href="#DejaVuSans-61" transform="translate(80.322266 0)"/>
      <use xlink:href="#DejaVuSans-69" transform="translate(141.601562 0)"/>
      <use xlink:href="#DejaVuSans-6e" transform="translate(169.384766 0)"/>
     </g>
    </g>
    <g id="line2d_31">
     <path d="M 302.855 50.094687 
L 312.855 50.094687 
L 322.855 50.094687 
" style="fill: none; stroke: #e15759; stroke-width: 1.5; stroke-linecap: square"/>
    </g>
    <g id="text_18">
     <!-- test -->
     <g transform="translate(330.855 53.594687) scale(0.1 -0.1)">
      <use xlink:href="#DejaVuSans-74"/>
      <use xlink:href="#DejaVuSans-65" transform="translate(39.208984 0)"/>
      <use xlink:href="#DejaVuSans-73" transform="translate(100.732422 0)"/>
      <use xlink:href="#DejaVuSans-74" transform="translate(152.832031 0)"/>
     </g>
    </g>
    <g id="line2d_32">
     <path d="M 302.855 64.772812 
L 312.855 64.772812 
L 322.855 64.772812 
" style="fill: none; stroke-dasharray: 5.55,2.4; stroke-dashoffset: 0; stroke: #808080; stroke-opacity: 0.7; stroke-width: 1.5"/>
    </g>
    <g id="text_19">
     <!-- early stopping point (iter=89) -->
     <g transform="translate(330.855 68.272812) scale(0.1 -0.1)">
      <defs>
       <path id="DejaVuSans-79" d="M 2059 -325 
Q 1816 -950 1584 -1140 
Q 1353 -1331 966 -1331 
L 506 -1331 
L 506 -850 
L 844 -850 
Q 1081 -850 1212 -737 
Q 1344 -625 1503 -206 
L 1606 56 
L 191 3500 
L 800 3500 
L 1894 763 
L 2988 3500 
L 3597 3500 
L 2059 -325 
z
" transform="scale(0.015625)"/>
       <path id="DejaVuSans-28" d="M 1984 4856 
Q 1566 4138 1362 3434 
Q 1159 2731 1159 2009 
Q 1159 1288 1364 580 
Q 1569 -128 1984 -844 
L 1484 -844 
Q 1016 -109 783 600 
Q 550 1309 550 2009 
Q 550 2706 781 3412 
Q 1013 4119 1484 4856 
L 1984 4856 
z
" transform="scale(0.015625)"/>
       <path id="DejaVuSans-3d" d="M 678 2906 
L 4684 2906 
L 4684 2381 
L 678 2381 
L 678 2906 
z
M 678 1631 
L 4684 1631 
L 4684 1100 
L 678 1100 
L 678 1631 
z
" transform="scale(0.015625)"/>
       <path id="DejaVuSans-38" d="M 2034 2216 
Q 1584 2216 1326 1975 
Q 1069 1734 1069 1313 
Q 1069 891 1326 650 
Q 1584 409 2034 409 
Q 2484 409 2743 651 
Q 3003 894 3003 1313 
Q 3003 1734 2745 1975 
Q 2488 2216 2034 2216 
z
M 1403 2484 
Q 997 2584 770 2862 
Q 544 3141 544 3541 
Q 544 4100 942 4425 
Q 1341 4750 2034 4750 
Q 2731 4750 3128 4425 
Q 3525 4100 3525 3541 
Q 3525 3141 3298 2862 
Q 3072 2584 2669 2484 
Q 3125 2378 3379 2068 
Q 3634 1759 3634 1313 
Q 3634 634 3220 271 
Q 2806 -91 2034 -91 
Q 1263 -91 848 271 
Q 434 634 434 1313 
Q 434 1759 690 2068 
Q 947 2378 1403 2484 
z
M 1172 3481 
Q 1172 3119 1398 2916 
Q 1625 2713 2034 2713 
Q 2441 2713 2670 2916 
Q 2900 3119 2900 3481 
Q 2900 3844 2670 4047 
Q 2441 4250 2034 4250 
Q 1625 4250 1398 4047 
Q 1172 3844 1172 3481 
z
" transform="scale(0.015625)"/>
       <path id="DejaVuSans-39" d="M 703 97 
L 703 672 
Q 941 559 1184 500 
Q 1428 441 1663 441 
Q 2288 441 2617 861 
Q 2947 1281 2994 2138 
Q 2813 1869 2534 1725 
Q 2256 1581 1919 1581 
Q 1219 1581 811 2004 
Q 403 2428 403 3163 
Q 403 3881 828 4315 
Q 1253 4750 1959 4750 
Q 2769 4750 3195 4129 
Q 3622 3509 3622 2328 
Q 3622 1225 3098 567 
Q 2575 -91 1691 -91 
Q 1453 -91 1209 -44 
Q 966 3 703 97 
z
M 1959 2075 
Q 2384 2075 2632 2365 
Q 2881 2656 2881 3163 
Q 2881 3666 2632 3958 
Q 2384 4250 1959 4250 
Q 1534 4250 1286 3958 
Q 1038 3666 1038 3163 
Q 1038 2656 1286 2365 
Q 1534 2075 1959 2075 
z
" transform="scale(0.015625)"/>
       <path id="DejaVuSans-29" d="M 513 4856 
L 1013 4856 
Q 1481 4119 1714 3412 
Q 1947 2706 1947 2009 
Q 1947 1309 1714 600 
Q 1481 -109 1013 -844 
L 513 -844 
Q 928 -128 1133 580 
Q 1338 1288 1338 2009 
Q 1338 2731 1133 3434 
Q 928 4138 513 4856 
z
" transform="scale(0.015625)"/>
      </defs>
      <use xlink:href="#DejaVuSans-65"/>
      <use xlink:href="#DejaVuSans-61" transform="translate(61.523438 0)"/>
      <use xlink:href="#DejaVuSans-72" transform="translate(122.802734 0)"/>
      <use xlink:href="#DejaVuSans-6c" transform="translate(163.916016 0)"/>
      <use xlink:href="#DejaVuSans-79" transform="translate(191.699219 0)"/>
      <use xlink:href="#DejaVuSans-20" transform="translate(250.878906 0)"/>
      <use xlink:href="#DejaVuSans-73" transform="translate(282.666016 0)"/>
      <use xlink:href="#DejaVuSans-74" transform="translate(334.765625 0)"/>
      <use xlink:href="#DejaVuSans-6f" transform="translate(373.974609 0)"/>
      <use xlink:href="#DejaVuSans-70" transform="translate(435.15625 0)"/>
      <use xlink:href="#DejaVuSans-70" transform="translate(498.632812 0)"/>
      <use xlink:href="#DejaVuSans-69" transform="translate(562.109375 0)"/>
      <use xlink:href="#DejaVuSans-6e" transform="translate(589.892578 0)"/>
      <use xlink:href="#DejaVuSans-67" transform="translate(653.271484 0)"/>
      <use xlink:href="#DejaVuSans-20" transform="translate(716.748047 0)"/>
      <use xlink:href="#DejaVuSans-70" transform="translate(748.535156 0)"/>
      <use xlink:href="#DejaVuSans-6f" transform="translate(812.011719 0)"/>
      <use xlink:href="#DejaVuSans-69" transform="translate(873.193359 0)"/>
      <use xlink:href="#DejaVuSans-6e" transform="translate(900.976562 0)"/>
      <use xlink:href="#DejaVuSans-74" transform="translate(964.355469 0)"/>
      <use xlink:href="#DejaVuSans-20" transform="translate(1003.564453 0)"/>
      <use xlink:href="#DejaVuSans-28" transform="translate(1035.351562 0)"/>
      <use xlink:href="#DejaVuSans-69" transform="translate(1074.365234 0)"/>
      <use xlink:href="#DejaVuSans-74" transform="translate(1102.148438 0)"/>
      <use xlink:href="#DejaVuSans-65" transform="translate(1141.357422 0)"/>
      <use xlink:href="#DejaVuSans-72" transform="translate(1202.880859 0)"/>
      <use xlink:href="#DejaVuSans-3d" transform="translate(1243.994141 0)"/>
      <use xlink:href="#DejaVuSans-38" transform="translate(1327.783203 0)"/>
      <use xlink:href="#DejaVuSans-39" transform="translate(1391.40625 0)"/>
      <use xlink:href="#DejaVuSans-29" transform="translate(1455.029297 0)"/>
     </g>
    </g>
   </g>
  </g>
 </g>
 <defs>
  <clipPath id="p92cf37fc9c">
   <rect x="43.78125" y="22.318125" width="445.48" height="255.05875"/>
  </clipPath>
 </defs>
</svg>
