<?xml version="1.0" encoding="utf-8" standalone="no"?>
<!DOCTYPE svg PUBLIC "-//W3C//DTD SVG 1.1//EN"
  "http://www.w3.org/Graphics/SVG/1.1/DTD/svg11.dtd">
<svg xmlns:xlink="http://www.w3.org/1999/xlink" width="496.52375pt" height="315.21125pt" viewBox="0 0 496.52375 315.21125" xmlns="http://www.w3.org/2000/svg" version="1.1">
 <metadata>
  <rdf:RDF xmlns:dc="http://purl.org/dc/elements/1.1/" xmlns:cc="http://creativecommons.org/ns#" xmlns:rdf="http://www.w3.org/1999/02/22-rdf-syntax-ns#">
   <cc:Work>
    <dc:type rdf:resource="http://purl.org/dc/dcmitype/StillImage"/>
    <dc:date>2026-05-24T22:02:32.306306</dc:date>
    <dc:format>image/svg+xml</dc:format>
    <dc:creator>
     <cc:Agent>
      <dc:title>Matplotlib v3.10.8, https://matplotlib.org/</dc:title>
     </cc:Agent>
    </dc:creator>
   </cc:Work>
  </rdf:RDF>
 </metadata>
 <defs>
  <style type="text/css">*{stroke-linejoin: round; stroke-linecap: butt}</style>
 </defs>
 <g id="figure_1">
  <g id="patch_1">
   <path d="M 0 315.21125 
L 496.52375 315.21125 
L 496.52375 0 
L 0 0 
z
" style="fill: #ffffff"/>
  </g>
  <g id="axes_1">
   <g id="patch_2">
    <path d="M 50.14375 277.376875 
L 489.32375 277.376875 
L 489.32375 22.318125 
L 50.14375 22.318125 
z
" style="fill: #ffffff"/>
   </g>
   <g id="matplotlib.axis_1">
    <g id="xtick_1">
     <g id="line2d_1">
      <path d="M 68.771178 277.376875 
L 68.771178 22.318125 
" clip-path="url(#pd8cef448e2)" style="fill: none; stroke: #b0b0b0; stroke-opacity: 0.2; stroke-width: 0.8; stroke-linecap: square"/>
     </g>
     <g id="line2d_2">
      <defs>
       <path id="mafc491467e" d="M 0 0 
L 0 3.5 
" style="stroke: #000000; stroke-width: 0.8"/>
      </defs>
      <g>
       <use xlink:href="#mafc491467e" x="68.771178" y="277.376875" style="stroke: #000000; stroke-width: 0.8"/>
      </g>
     </g>
     <g id="text_1">
      <!-- 0 -->
      <g transform="translate(65.589928 291.975312) scale(0.1 -0.1)">
       <defs>
        <path id="DejaVuSans-30" d="M 2034 4250 
Q 1547 4250 1301 3770 
Q 1056 3291 1056 2328 
Q 1056 1369 1301 889 
Q 1547 409 2034 409 
Q 2525 409 2770 889 
Q 3016 1369 3016 2328 
Q 3016 3291 2770 3770 
Q 2525 4250 2034 4250 
z
M 2034 4750 
Q 2819 4750 3233 4129 
Q 3647 3509 3647 2328 
Q 3647 1150 3233 529 
Q 2819 -91 2034 -91 
Q 1250 -91 836 529 
Q 422 1150 422 2328 
Q 422 3509 836 4129 
Q 1250 4750 2034 4750 
z
" transform="scale(0.015625)"/>
       </defs>
       <use xlink:href="#DejaVuSans-30"/>
      </g>
     </g>
    </g>
    <g id="xtick_2">
     <g id="line2d_3">
      <path d="M 135.536152 277.376875 
L 135.536152 22.318125 
" clip-path="url(#pd8cef448e2)" style="fill: none; stroke: #b0b0b0; stroke-opacity: 0.2; stroke-width: 0.8; stroke-linecap: square"/>
     </g>
     <g id="line2d_4">
      <g>
       <use xlink:href="#mafc491467e" x="135.536152" y="277.376875" style="stroke: #000000; stroke-width: 0.8"/>
      </g>
     </g>
     <g id="text_2">
      <!-- 50 -->
      <g transform="translate(129.173652 291.975312) scale(0.1 -0.1)">
       <defs>
        <path id="DejaVuSans-35" d="M 691 4666 
L 3169 4666 
L 3169 4134 
L 1269 4134 
L 1269 2991 
Q 1406 3038 1543 3061 
Q 1681 3084 1819 3084 
Q 2600 3084 3056 2656 
Q 3513 2228 3513 1497 
Q 3513 744 3044 326 
Q 2575 -91 1722 -91 
Q 1428 -91 1123 -41 
Q 819 9 494 109 
L 494 744 
Q 775 591 1075 516 
Q 1375 441 1709 441 
Q 2250 441 2565 725 
Q 2881 1009 2881 1497 
Q 2881 1984 2565 2268 
Q 2250 2553 1709 2553 
Q 1456 2553 1204 2497 
Q 953 2441 691 2322 
L 691 4666 
z
" transform="scale(0.015625)"/>
       </defs>
       <use xlink:href="#DejaVuSans-35"/>
       <use xlink:href="#DejaVuSans-30" transform="translate(63.623047 0)"/>
      </g>
     </g>
    </g>
    <g id="xtick_3">
     <g id="line2d_5">
      <path d="M 202.301126 277.376875 
L 202.301126 22.318125 
" clip-path="url(#pd8cef448e2)" style="fill: none; stroke: #b0b0b0; stroke-opacity: 0.2; stroke-width: 0.8; stroke-linecap: square"/>
     </g>
     <g id="line2d_6">
      <g>
       <use xlink:href="#mafc491467e" x="202.301126" y="277.376875" style="stroke: #000000; stroke-width: 0.8"/>
      </g>
     </g>
     <g id="text_3">
      <!-- 100 -->
      <g transform="translate(192.757376 291.975312) scale(0.1 -0.1)">
       <defs>
        <path id="DejaVuSans-31" d="M 794 531 
L 1825 531 
L 1825 4091 
L 703 3866 
L 703 4441 
L 1819 4666 
L 2450 4666 
L 2450 531 
L 3481 531 
L 3481 0 
L 794 0 
L 794 531 
z
" transform="scale(0.015625)"/>
       </defs>
       <use xlink:href="#DejaVuSans-31"/>
       <use xlink:href="#DejaVuSans-30" transform="translate(63.623047 0)"/>
       <use xlink:href="#DejaVuSans-30" transform="translate(127.246094 0)"/>
      </g>
     </g>
    </g>
    <g id="xtick_4">
     <g id="line2d_7">
      <path d="M 269.0661 277.376875 
L 269.0661 22.318125 
" clip-path="url(#pd8cef448e2)" style="fill: none; stroke: #b0b0b0; stroke-opacity: 0.2; stroke-width: 0.8; stroke-linecap: square"/>
     </g>
     <g id="line2d_8">
      <g>
       <use xlink:href="#mafc491467e" x="269.0661" y="277.376875" style="stroke: #000000; stroke-width: 0.8"/>
      </g>
     </g>
     <g id="text_4">
      <!-- 150 -->
      <g transform="translate(259.52235 291.975312) scale(0.1 -0.1)">
       <use xlink:href="#DejaVuSans-31"/>
       <use xlink:href="#DejaVuSans-35" transform="translate(63.623047 0)"/>
       <use xlink:href="#DejaVuSans-30" transform="translate(127.246094 0)"/>
      </g>
     </g>
    </g>
    <g id="xtick_5">
     <g id="line2d_9">
      <path d="M 335.831074 277.376875 
L 335.831074 22.318125 
" clip-path="url(#pd8cef448e2)" style="fill: none; stroke: #b0b0b0; stroke-opacity: 0.2; stroke-width: 0.8; stroke-linecap: square"/>
     </g>
     <g id="line2d_10">
      <g>
       <use xlink:href="#mafc491467e" x="335.831074" y="277.376875" style="stroke: #000000; stroke-width: 0.8"/>
      </g>
     </g>
     <g id="text_5">
      <!-- 200 -->
      <g transform="translate(326.287324 291.975312) scale(0.1 -0.1)">
       <defs>
        <path id="DejaVuSans-32" d="M 1228 531 
L 3431 531 
L 3431 0 
L 469 0 
L 469 531 
Q 828 903 1448 1529 
Q 2069 2156 2228 2338 
Q 2531 2678 2651 2914 
Q 2772 3150 2772 3378 
Q 2772 3750 2511 3984 
Q 2250 4219 1831 4219 
Q 1534 4219 1204 4116 
Q 875 4013 500 3803 
L 500 4441 
Q 881 4594 1212 4672 
Q 1544 4750 1819 4750 
Q 2544 4750 2975 4387 
Q 3406 4025 3406 3419 
Q 3406 3131 3298 2873 
Q 3191 2616 2906 2266 
Q 2828 2175 2409 1742 
Q 1991 1309 1228 531 
z
" transform="scale(0.015625)"/>
       </defs>
       <use xlink:href="#DejaVuSans-32"/>
       <use xlink:href="#DejaVuSans-30" transform="translate(63.623047 0)"/>
       <use xlink:href="#DejaVuSans-30" transform="translate(127.246094 0)"/>
      </g>
     </g>
    </g>
    <g id="xtick_6">
     <g id="line2d_11">
      <path d="M 402.596049 277.376875 
L 402.596049 22.318125 
" clip-path="url(#pd8cef448e2)" style="fill: none; stroke: #b0b0b0; stroke-opacity: 0.2; stroke-width: 0.8; stroke-linecap: square"/>
     </g>
     <g id="line2d_12">
      <g>
       <use xlink:href="#mafc491467e" x="402.596049" y="277.376875" style="stroke: #000000; stroke-width: 0.8"/>
      </g>
     </g>
     <g id="text_6">
      <!-- 250 -->
      <g transform="translate(393.052299 291.975312) scale(0.1 -0.1)">
       <use xlink:href="#DejaVuSans-32"/>
       <use xlink:href="#DejaVuSans-35" transform="translate(63.623047 0)"/>
       <use xlink:href="#DejaVuSans-30" transform="translate(127.246094 0)"/>
      </g>
     </g>
    </g>
    <g id="xtick_7">
     <g id="line2d_13">
      <path d="M 469.361023 277.376875 
L 469.361023 22.318125 
" clip-path="url(#pd8cef448e2)" style="fill: none; stroke: #b0b0b0; stroke-opacity: 0.2; stroke-width: 0.8; stroke-linecap: square"/>
     </g>
     <g id="line2d_14">
      <g>
       <use xlink:href="#mafc491467e" x="469.361023" y="277.376875" style="stroke: #000000; stroke-width: 0.8"/>
      </g>
     </g>
     <g id="text_7">
      <!-- 300 -->
      <g transform="translate(459.817273 291.975312) scale(0.1 -0.1)">
       <defs>
        <path id="DejaVuSans-33" d="M 2597 2516 
Q 3050 2419 3304 2112 
Q 3559 1806 3559 1356 
Q 3559 666 3084 287 
Q 2609 -91 1734 -91 
Q 1441 -91 1130 -33 
Q 819 25 488 141 
L 488 750 
Q 750 597 1062 519 
Q 1375 441 1716 441 
Q 2309 441 2620 675 
Q 2931 909 2931 1356 
Q 2931 1769 2642 2001 
Q 2353 2234 1838 2234 
L 1294 2234 
L 1294 2753 
L 1863 2753 
Q 2328 2753 2575 2939 
Q 2822 3125 2822 3475 
Q 2822 3834 2567 4026 
Q 2313 4219 1838 4219 
Q 1578 4219 1281 4162 
Q 984 4106 628 3988 
L 628 4550 
Q 988 4650 1302 4700 
Q 1616 4750 1894 4750 
Q 2613 4750 3031 4423 
Q 3450 4097 3450 3541 
Q 3450 3153 3228 2886 
Q 3006 2619 2597 2516 
z
" transform="scale(0.015625)"/>
       </defs>
       <use xlink:href="#DejaVuSans-33"/>
       <use xlink:href="#DejaVuSans-30" transform="translate(63.623047 0)"/>
       <use xlink:href="#DejaVuSans-30" transform="translate(127.246094 0)"/>
      </g>
     </g>
    </g>
    <g id="text_8">
     <!-- n_estimators (iteration) -->
     <g transform="translate(210.807187 305.653437) scale(0.1 -0.1)">
      <defs>
       <path id="DejaVuSans-6e" d="M 3513 2113 
L 3513 0 
L 2938 0 
L 2938 2094 
Q 2938 2591 2744 2837 
Q 2550 3084 2163 3084 
Q 1697 3084 1428 2787 
Q 1159 2491 1159 1978 
L 1159 0 
L 581 0 
L 581 3500 
L 1159 3500 
L 1159 2956 
Q 1366 3272 1645 3428 
Q 1925 3584 2291 3584 
Q 2894 3584 3203 3211 
Q 3513 2838 3513 2113 
z
" transform="scale(0.015625)"/>
       <path id="DejaVuSans-5f" d="M 3263 -1063 
L 3263 -1509 
L -63 -1509 
L -63 -1063 
L 3263 -1063 
z
" transform="scale(0.015625)"/>
       <path id="DejaVuSans-65" d="M 3597 1894 
L 3597 1613 
L 953 1613 
Q 991 1019 1311 708 
Q 1631 397 2203 397 
Q 2534 397 2845 478 
Q 3156 559 3463 722 
L 3463 178 
Q 3153 47 2828 -22 
Q 2503 -91 2169 -91 
Q 1331 -91 842 396 
Q 353 884 353 1716 
Q 353 2575 817 3079 
Q 1281 3584 2069 3584 
Q 2775 3584 3186 3129 
Q 3597 2675 3597 1894 
z
M 3022 2063 
Q 3016 2534 2758 2815 
Q 2500 3097 2075 3097 
Q 1594 3097 1305 2825 
Q 1016 2553 972 2059 
L 3022 2063 
z
" transform="scale(0.015625)"/>
       <path id="DejaVuSans-73" d="M 2834 3397 
L 2834 2853 
Q 2591 2978 2328 3040 
Q 2066 3103 1784 3103 
Q 1356 3103 1142 2972 
Q 928 2841 928 2578 
Q 928 2378 1081 2264 
Q 1234 2150 1697 2047 
L 1894 2003 
Q 2506 1872 2764 1633 
Q 3022 1394 3022 966 
Q 3022 478 2636 193 
Q 2250 -91 1575 -91 
Q 1294 -91 989 -36 
Q 684 19 347 128 
L 347 722 
Q 666 556 975 473 
Q 1284 391 1588 391 
Q 1994 391 2212 530 
Q 2431 669 2431 922 
Q 2431 1156 2273 1281 
Q 2116 1406 1581 1522 
L 1381 1569 
Q 847 1681 609 1914 
Q 372 2147 372 2553 
Q 372 3047 722 3315 
Q 1072 3584 1716 3584 
Q 2034 3584 2315 3537 
Q 2597 3491 2834 3397 
z
" transform="scale(0.015625)"/>
       <path id="DejaVuSans-74" d="M 1172 4494 
L 1172 3500 
L 2356 3500 
L 2356 3053 
L 1172 3053 
L 1172 1153 
Q 1172 725 1289 603 
Q 1406 481 1766 481 
L 2356 481 
L 2356 0 
L 1766 0 
Q 1100 0 847 248 
Q 594 497 594 1153 
L 594 3053 
L 172 3053 
L 172 3500 
L 594 3500 
L 594 4494 
L 1172 4494 
z
" transform="scale(0.015625)"/>
       <path id="DejaVuSans-69" d="M 603 3500 
L 1178 3500 
L 1178 0 
L 603 0 
L 603 3500 
z
M 603 4863 
L 1178 4863 
L 1178 4134 
L 603 4134 
L 603 4863 
z
" transform="scale(0.015625)"/>
       <path id="DejaVuSans-6d" d="M 3328 2828 
Q 3544 3216 3844 3400 
Q 4144 3584 4550 3584 
Q 5097 3584 5394 3201 
Q 5691 2819 5691 2113 
L 5691 0 
L 5113 0 
L 5113 2094 
Q 5113 2597 4934 2840 
Q 4756 3084 4391 3084 
Q 3944 3084 3684 2787 
Q 3425 2491 3425 1978 
L 3425 0 
L 2847 0 
L 2847 2094 
Q 2847 2600 2669 2842 
Q 2491 3084 2119 3084 
Q 1678 3084 1418 2786 
Q 1159 2488 1159 1978 
L 1159 0 
L 581 0 
L 581 3500 
L 1159 3500 
L 1159 2956 
Q 1356 3278 1631 3431 
Q 1906 3584 2284 3584 
Q 2666 3584 2933 3390 
Q 3200 3197 3328 2828 
z
" transform="scale(0.015625)"/>
       <path id="DejaVuSans-61" d="M 2194 1759 
Q 1497 1759 1228 1600 
Q 959 1441 959 1056 
Q 959 750 1161 570 
Q 1363 391 1709 391 
Q 2188 391 2477 730 
Q 2766 1069 2766 1631 
L 2766 1759 
L 2194 1759 
z
M 3341 1997 
L 3341 0 
L 2766 0 
L 2766 531 
Q 2569 213 2275 61 
Q 1981 -91 1556 -91 
Q 1019 -91 701 211 
Q 384 513 384 1019 
Q 384 1609 779 1909 
Q 1175 2209 1959 2209 
L 2766 2209 
L 2766 2266 
Q 2766 2663 2505 2880 
Q 2244 3097 1772 3097 
Q 1472 3097 1187 3025 
Q 903 2953 641 2809 
L 641 3341 
Q 956 3463 1253 3523 
Q 1550 3584 1831 3584 
Q 2591 3584 2966 3190 
Q 3341 2797 3341 1997 
z
" transform="scale(0.015625)"/>
       <path id="DejaVuSans-6f" d="M 1959 3097 
Q 1497 3097 1228 2736 
Q 959 2375 959 1747 
Q 959 1119 1226 758 
Q 1494 397 1959 397 
Q 2419 397 2687 759 
Q 2956 1122 2956 1747 
Q 2956 2369 2687 2733 
Q 2419 3097 1959 3097 
z
M 1959 3584 
Q 2709 3584 3137 3096 
Q 3566 2609 3566 1747 
Q 3566 888 3137 398 
Q 2709 -91 1959 -91 
Q 1206 -91 779 398 
Q 353 888 353 1747 
Q 353 2609 779 3096 
Q 1206 3584 1959 3584 
z
" transform="scale(0.015625)"/>
       <path id="DejaVuSans-72" d="M 2631 2963 
Q 2534 3019 2420 3045 
Q 2306 3072 2169 3072 
Q 1681 3072 1420 2755 
Q 1159 2438 1159 1844 
L 1159 0 
L 581 0 
L 581 3500 
L 1159 3500 
L 1159 2956 
Q 1341 3275 1631 3429 
Q 1922 3584 2338 3584 
Q 2397 3584 2469 3576 
Q 2541 3569 2628 3553 
L 2631 2963 
z
" transform="scale(0.015625)"/>
       <path id="DejaVuSans-20" transform="scale(0.015625)"/>
       <path id="DejaVuSans-28" d="M 1984 4856 
Q 1566 4138 1362 3434 
Q 1159 2731 1159 2009 
Q 1159 1288 1364 580 
Q 1569 -128 1984 -844 
L 1484 -844 
Q 1016 -109 783 600 
Q 550 1309 550 2009 
Q 550 2706 781 3412 
Q 1013 4119 1484 4856 
L 1984 4856 
z
" transform="scale(0.015625)"/>
       <path id="DejaVuSans-29" d="M 513 4856 
L 1013 4856 
Q 1481 4119 1714 3412 
Q 1947 2706 1947 2009 
Q 1947 1309 1714 600 
Q 1481 -109 1013 -844 
L 513 -844 
Q 928 -128 1133 580 
Q 1338 1288 1338 2009 
Q 1338 2731 1133 3434 
Q 928 4138 513 4856 
z
" transform="scale(0.015625)"/>
      </defs>
      <use xlink:href="#DejaVuSans-6e"/>
      <use xlink:href="#DejaVuSans-5f" transform="translate(63.378906 0)"/>
      <use xlink:href="#DejaVuSans-65" transform="translate(113.378906 0)"/>
      <use xlink:href="#DejaVuSans-73" transform="translate(174.902344 0)"/>
      <use xlink:href="#DejaVuSans-74" transform="translate(227.001953 0)"/>
      <use xlink:href="#DejaVuSans-69" transform="translate(266.210938 0)"/>
      <use xlink:href="#DejaVuSans-6d" transform="translate(293.994141 0)"/>
      <use xlink:href="#DejaVuSans-61" transform="translate(391.40625 0)"/>
      <use xlink:href="#DejaVuSans-74" transform="translate(452.685547 0)"/>
      <use xlink:href="#DejaVuSans-6f" transform="translate(491.894531 0)"/>
      <use xlink:href="#DejaVuSans-72" transform="translate(553.076172 0)"/>
      <use xlink:href="#DejaVuSans-73" transform="translate(594.189453 0)"/>
      <use xlink:href="#DejaVuSans-20" transform="translate(646.289062 0)"/>
      <use xlink:href="#DejaVuSans-28" transform="translate(678.076172 0)"/>
      <use xlink:href="#DejaVuSans-69" transform="translate(717.089844 0)"/>
      <use xlink:href="#DejaVuSans-74" transform="translate(744.873047 0)"/>
      <use xlink:href="#DejaVuSans-65" transform="translate(784.082031 0)"/>
      <use xlink:href="#DejaVuSans-72" transform="translate(845.605469 0)"/>
      <use xlink:href="#DejaVuSans-61" transform="translate(886.71875 0)"/>
      <use xlink:href="#DejaVuSans-74" transform="translate(947.998047 0)"/>
      <use xlink:href="#DejaVuSans-69" transform="translate(987.207031 0)"/>
      <use xlink:href="#DejaVuSans-6f" transform="translate(1014.990234 0)"/>
      <use xlink:href="#DejaVuSans-6e" transform="translate(1076.171875 0)"/>
      <use xlink:href="#DejaVuSans-29" transform="translate(1139.550781 0)"/>
     </g>
    </g>
   </g>
   <g id="matplotlib.axis_2">
    <g id="ytick_1">
     <g id="line2d_15">
      <path d="M 50.14375 260.011679 
L 489.32375 260.011679 
" clip-path="url(#pd8cef448e2)" style="fill: none; stroke: #b0b0b0; stroke-opacity: 0.2; stroke-width: 0.8; stroke-linecap: square"/>
     </g>
     <g id="line2d_16">
      <defs>
       <path id="m4a8efcc688" d="M 0 0 
L -3.5 0 
" style="stroke: #000000; stroke-width: 0.8"/>
      </defs>
      <g>
       <use xlink:href="#m4a8efcc688" x="50.14375" y="260.011679" style="stroke: #000000; stroke-width: 0.8"/>
      </g>
     </g>
     <g id="text_9">
      <!-- 0.30 -->
      <g transform="translate(20.878125 263.810898) scale(0.1 -0.1)">
       <defs>
        <path id="DejaVuSans-2e" d="M 684 794 
L 1344 794 
L 1344 0 
L 684 0 
L 684 794 
z
" transform="scale(0.015625)"/>
       </defs>
       <use xlink:href="#DejaVuSans-30"/>
       <use xlink:href="#DejaVuSans-2e" transform="translate(63.623047 0)"/>
       <use xlink:href="#DejaVuSans-33" transform="translate(95.410156 0)"/>
       <use xlink:href="#DejaVuSans-30" transform="translate(159.033203 0)"/>
      </g>
     </g>
    </g>
    <g id="ytick_2">
     <g id="line2d_17">
      <path d="M 50.14375 230.91952 
L 489.32375 230.91952 
" clip-path="url(#pd8cef448e2)" style="fill: none; stroke: #b0b0b0; stroke-opacity: 0.2; stroke-width: 0.8; stroke-linecap: square"/>
     </g>
     <g id="line2d_18">
      <g>
       <use xlink:href="#m4a8efcc688" x="50.14375" y="230.91952" style="stroke: #000000; stroke-width: 0.8"/>
      </g>
     </g>
     <g id="text_10">
      <!-- 0.35 -->
      <g transform="translate(20.878125 234.718739) scale(0.1 -0.1)">
       <use xlink:href="#DejaVuSans-30"/>
       <use xlink:href="#DejaVuSans-2e" transform="translate(63.623047 0)"/>
       <use xlink:href="#DejaVuSans-33" transform="translate(95.410156 0)"/>
       <use xlink:href="#DejaVuSans-35" transform="translate(159.033203 0)"/>
      </g>
     </g>
    </g>
    <g id="ytick_3">
     <g id="line2d_19">
      <path d="M 50.14375 201.827362 
L 489.32375 201.827362 
" clip-path="url(#pd8cef448e2)" style="fill: none; stroke: #b0b0b0; stroke-opacity: 0.2; stroke-width: 0.8; stroke-linecap: square"/>
     </g>
     <g id="line2d_20">
      <g>
       <use xlink:href="#m4a8efcc688" x="50.14375" y="201.827362" style="stroke: #000000; stroke-width: 0.8"/>
      </g>
     </g>
     <g id="text_11">
      <!-- 0.40 -->
      <g transform="translate(20.878125 205.62658) scale(0.1 -0.1)">
       <defs>
        <path id="DejaVuSans-34" d="M 2419 4116 
L 825 1625 
L 2419 1625 
L 2419 4116 
z
M 2253 4666 
L 3047 4666 
L 3047 1625 
L 3713 1625 
L 3713 1100 
L 3047 1100 
L 3047 0 
L 2419 0 
L 2419 1100 
L 313 1100 
L 313 1709 
L 2253 4666 
z
" transform="scale(0.015625)"/>
       </defs>
       <use xlink:href="#DejaVuSans-30"/>
       <use xlink:href="#DejaVuSans-2e" transform="translate(63.623047 0)"/>
       <use xlink:href="#DejaVuSans-34" transform="translate(95.410156 0)"/>
       <use xlink:href="#DejaVuSans-30" transform="translate(159.033203 0)"/>
      </g>
     </g>
    </g>
    <g id="ytick_4">
     <g id="line2d_21">
      <path d="M 50.14375 172.735203 
L 489.32375 172.735203 
" clip-path="url(#pd8cef448e2)" style="fill: none; stroke: #b0b0b0; stroke-opacity: 0.2; stroke-width: 0.8; stroke-linecap: square"/>
     </g>
     <g id="line2d_22">
      <g>
       <use xlink:href="#m4a8efcc688" x="50.14375" y="172.735203" style="stroke: #000000; stroke-width: 0.8"/>
      </g>
     </g>
     <g id="text_12">
      <!-- 0.45 -->
      <g transform="translate(20.878125 176.534422) scale(0.1 -0.1)">
       <use xlink:href="#DejaVuSans-30"/>
       <use xlink:href="#DejaVuSans-2e" transform="translate(63.623047 0)"/>
       <use xlink:href="#DejaVuSans-34" transform="translate(95.410156 0)"/>
       <use xlink:href="#DejaVuSans-35" transform="translate(159.033203 0)"/>
      </g>
     </g>
    </g>
    <g id="ytick_5">
     <g id="line2d_23">
      <path d="M 50.14375 143.643044 
L 489.32375 143.643044 
" clip-path="url(#pd8cef448e2)" style="fill: none; stroke: #b0b0b0; stroke-opacity: 0.2; stroke-width: 0.8; stroke-linecap: square"/>
     </g>
     <g id="line2d_24">
      <g>
       <use xlink:href="#m4a8efcc688" x="50.14375" y="143.643044" style="stroke: #000000; stroke-width: 0.8"/>
      </g>
     </g>
     <g id="text_13">
      <!-- 0.50 -->
      <g transform="translate(20.878125 147.442263) scale(0.1 -0.1)">
       <use xlink:href="#DejaVuSans-30"/>
       <use xlink:href="#DejaVuSans-2e" transform="translate(63.623047 0)"/>
       <use xlink:href="#DejaVuSans-35" transform="translate(95.410156 0)"/>
       <use xlink:href="#DejaVuSans-30" transform="translate(159.033203 0)"/>
      </g>
     </g>
    </g>
    <g id="ytick_6">
     <g id="line2d_25">
      <path d="M 50.14375 114.550886 
L 489.32375 114.550886 
" clip-path="url(#pd8cef448e2)" style="fill: none; stroke: #b0b0b0; stroke-opacity: 0.2; stroke-width: 0.8; stroke-linecap: square"/>
     </g>
     <g id="line2d_26">
      <g>
       <use xlink:href="#m4a8efcc688" x="50.14375" y="114.550886" style="stroke: #000000; stroke-width: 0.8"/>
      </g>
     </g>
     <g id="text_14">
      <!-- 0.55 -->
      <g transform="translate(20.878125 118.350104) scale(0.1 -0.1)">
       <use xlink:href="#DejaVuSans-30"/>
       <use xlink:href="#DejaVuSans-2e" transform="translate(63.623047 0)"/>
       <use xlink:href="#DejaVuSans-35" transform="translate(95.410156 0)"/>
       <use xlink:href="#DejaVuSans-35" transform="translate(159.033203 0)"/>
      </g>
     </g>
    </g>
    <g id="ytick_7">
     <g id="line2d_27">
      <path d="M 50.14375 85.458727 
L 489.32375 85.458727 
" clip-path="url(#pd8cef448e2)" style="fill: none; stroke: #b0b0b0; stroke-opacity: 0.2; stroke-width: 0.8; stroke-linecap: square"/>
     </g>
     <g id="line2d_28">
      <g>
       <use xlink:href="#m4a8efcc688" x="50.14375" y="85.458727" style="stroke: #000000; stroke-width: 0.8"/>
      </g>
     </g>
     <g id="text_15">
      <!-- 0.60 -->
      <g transform="translate(20.878125 89.257946) scale(0.1 -0.1)">
       <defs>
        <path id="DejaVuSans-36" d="M 2113 2584 
Q 1688 2584 1439 2293 
Q 1191 2003 1191 1497 
Q 1191 994 1439 701 
Q 1688 409 2113 409 
Q 2538 409 2786 701 
Q 3034 994 3034 1497 
Q 3034 2003 2786 2293 
Q 2538 2584 2113 2584 
z
M 3366 4563 
L 3366 3988 
Q 3128 4100 2886 4159 
Q 2644 4219 2406 4219 
Q 1781 4219 1451 3797 
Q 1122 3375 1075 2522 
Q 1259 2794 1537 2939 
Q 1816 3084 2150 3084 
Q 2853 3084 3261 2657 
Q 3669 2231 3669 1497 
Q 3669 778 3244 343 
Q 2819 -91 2113 -91 
Q 1303 -91 875 529 
Q 447 1150 447 2328 
Q 447 3434 972 4092 
Q 1497 4750 2381 4750 
Q 2619 4750 2861 4703 
Q 3103 4656 3366 4563 
z
" transform="scale(0.015625)"/>
       </defs>
       <use xlink:href="#DejaVuSans-30"/>
       <use xlink:href="#DejaVuSans-2e" transform="translate(63.623047 0)"/>
       <use xlink:href="#DejaVuSans-36" transform="translate(95.410156 0)"/>
       <use xlink:href="#DejaVuSans-30" transform="translate(159.033203 0)"/>
      </g>
     </g>
    </g>
    <g id="ytick_8">
     <g id="line2d_29">
      <path d="M 50.14375 56.366568 
L 489.32375 56.366568 
" clip-path="url(#pd8cef448e2)" style="fill: none; stroke: #b0b0b0; stroke-opacity: 0.2; stroke-width: 0.8; stroke-linecap: square"/>
     </g>
     <g id="line2d_30">
      <g>
       <use xlink:href="#m4a8efcc688" x="50.14375" y="56.366568" style="stroke: #000000; stroke-width: 0.8"/>
      </g>
     </g>
     <g id="text_16">
      <!-- 0.65 -->
      <g transform="translate(20.878125 60.165787) scale(0.1 -0.1)">
       <use xlink:href="#DejaVuSans-30"/>
       <use xlink:href="#DejaVuSans-2e" transform="translate(63.623047 0)"/>
       <use xlink:href="#DejaVuSans-36" transform="translate(95.410156 0)"/>
       <use xlink:href="#DejaVuSans-35" transform="translate(159.033203 0)"/>
      </g>
     </g>
    </g>
    <g id="ytick_9">
     <g id="line2d_31">
      <path d="M 50.14375 27.27441 
L 489.32375 27.27441 
" clip-path="url(#pd8cef448e2)" style="fill: none; stroke: #b0b0b0; stroke-opacity: 0.2; stroke-width: 0.8; stroke-linecap: square"/>
     </g>
     <g id="line2d_32">
      <g>
       <use xlink:href="#m4a8efcc688" x="50.14375" y="27.27441" style="stroke: #000000; stroke-width: 0.8"/>
      </g>
     </g>
     <g id="text_17">
      <!-- 0.70 -->
      <g transform="translate(20.878125 31.073628) scale(0.1 -0.1)">
       <defs>
        <path id="DejaVuSans-37" d="M 525 4666 
L 3525 4666 
L 3525 4397 
L 1831 0 
L 1172 0 
L 2766 4134 
L 525 4134 
L 525 4666 
z
" transform="scale(0.015625)"/>
       </defs>
       <use xlink:href="#DejaVuSans-30"/>
       <use xlink:href="#DejaVuSans-2e" transform="translate(63.623047 0)"/>
       <use xlink:href="#DejaVuSans-37" transform="translate(95.410156 0)"/>
       <use xlink:href="#DejaVuSans-30" transform="translate(159.033203 0)"/>
      </g>
     </g>
    </g>
    <g id="text_18">
     <!-- Test log loss -->
     <g transform="translate(14.798438 180.151406) rotate(-90) scale(0.1 -0.1)">
      <defs>
       <path id="DejaVuSans-54" d="M -19 4666 
L 3928 4666 
L 3928 4134 
L 2272 4134 
L 2272 0 
L 1638 0 
L 1638 4134 
L -19 4134 
L -19 4666 
z
" transform="scale(0.015625)"/>
       <path id="DejaVuSans-6c" d="M 603 4863 
L 1178 4863 
L 1178 0 
L 603 0 
L 603 4863 
z
" transform="scale(0.015625)"/>
       <path id="DejaVuSans-67" d="M 2906 1791 
Q 2906 2416 2648 2759 
Q 2391 3103 1925 3103 
Q 1463 3103 1205 2759 
Q 947 2416 947 1791 
Q 947 1169 1205 825 
Q 1463 481 1925 481 
Q 2391 481 2648 825 
Q 2906 1169 2906 1791 
z
M 3481 434 
Q 3481 -459 3084 -895 
Q 2688 -1331 1869 -1331 
Q 1566 -1331 1297 -1286 
Q 1028 -1241 775 -1147 
L 775 -588 
Q 1028 -725 1275 -790 
Q 1522 -856 1778 -856 
Q 2344 -856 2625 -561 
Q 2906 -266 2906 331 
L 2906 616 
Q 2728 306 2450 153 
Q 2172 0 1784 0 
Q 1141 0 747 490 
Q 353 981 353 1791 
Q 353 2603 747 3093 
Q 1141 3584 1784 3584 
Q 2172 3584 2450 3431 
Q 2728 3278 2906 2969 
L 2906 3500 
L 3481 3500 
L 3481 434 
z
" transform="scale(0.015625)"/>
      </defs>
      <use xlink:href="#DejaVuSans-54"/>
      <use xlink:href="#DejaVuSans-65" transform="translate(44.083984 0)"/>
      <use xlink:href="#DejaVuSans-73" transform="translate(105.607422 0)"/>
      <use xlink:href="#DejaVuSans-74" transform="translate(157.707031 0)"/>
      <use xlink:href="#DejaVuSans-20" transform="translate(196.916016 0)"/>
      <use xlink:href="#DejaVuSans-6c" transform="translate(228.703125 0)"/>
      <use xlink:href="#DejaVuSans-6f" transform="translate(256.486328 0)"/>
      <use xlink:href="#DejaVuSans-67" transform="translate(317.667969 0)"/>
      <use xlink:href="#DejaVuSans-20" transform="translate(381.144531 0)"/>
      <use xlink:href="#DejaVuSans-6c" transform="translate(412.931641 0)"/>
      <use xlink:href="#DejaVuSans-6f" transform="translate(440.714844 0)"/>
      <use xlink:href="#DejaVuSans-73" transform="translate(501.896484 0)"/>
      <use xlink:href="#DejaVuSans-73" transform="translate(553.996094 0)"/>
     </g>
    </g>
   </g>
   <g id="line2d_33">
    <path d="M 70.106477 33.911705 
L 74.112376 42.685505 
L 78.118274 50.934818 
L 82.124173 58.666327 
L 87.465371 68.396804 
L 92.806568 77.490068 
L 99.483066 87.94314 
L 106.159563 97.748082 
L 108.830162 101.490357 
L 116.841959 111.886584 
L 124.853756 121.568895 
L 128.859655 126.027796 
L 134.200852 131.771569 
L 142.212649 139.628898 
L 143.547949 140.833806 
L 144.883248 142.203558 
L 152.895045 149.294877 
L 164.912741 158.891318 
L 166.24804 159.789713 
L 168.918639 161.766602 
L 172.924537 164.601344 
L 186.277532 173.415299 
L 188.948131 175.005922 
L 199.630527 181.212716 
L 208.977624 186.326784 
L 219.660019 191.561405 
L 231.677715 196.782003 
L 239.689512 199.999326 
L 247.701309 203.035068 
L 250.371907 203.989222 
L 254.377806 205.407472 
L 262.389603 207.979568 
L 265.060202 208.889913 
L 279.748496 213.079234 
L 297.107389 217.579048 
L 299.777988 218.196215 
L 303.783887 219.178134 
L 307.789785 220.007127 
L 309.125085 220.381697 
L 311.795684 220.889825 
L 314.466283 221.536185 
L 315.801582 221.76439 
L 317.136882 222.108317 
L 322.47808 223.061981 
L 327.819278 224.108141 
L 330.489876 224.57595 
L 353.189968 228.682336 
L 363.872364 230.321173 
L 365.207663 230.575599 
L 370.548861 231.233468 
L 374.554759 231.762067 
L 379.895957 232.366995 
L 395.919551 234.308065 
L 426.631439 237.476098 
L 429.302038 237.885267 
L 431.972637 238.138232 
L 434.643236 238.454564 
L 438.649135 238.725558 
L 441.319734 239.085816 
L 446.660932 239.507353 
L 453.337429 240.168022 
L 456.008028 240.338297 
L 461.349226 240.765933 
L 464.019825 241.115579 
L 465.355124 241.178643 
L 466.690424 241.370612 
L 469.361023 241.453337 
L 469.361023 241.453337 
" clip-path="url(#pd8cef448e2)" style="fill: none; stroke: #7aa6c2; stroke-width: 1.5; stroke-linecap: square"/>
   </g>
   <g id="line2d_34">
    <path d="M 70.106477 59.871279 
L 71.441777 83.483255 
L 72.777076 102.93371 
L 74.112376 120.36994 
L 75.447675 135.305977 
L 76.782975 148.198725 
L 78.118274 159.565343 
L 80.788873 177.742046 
L 82.124173 185.231309 
L 83.459472 191.029745 
L 84.794772 197.454002 
L 86.130071 203.158658 
L 90.13597 215.734895 
L 91.471269 219.795425 
L 92.806568 222.987078 
L 94.141868 225.289146 
L 95.477167 227.308431 
L 96.812467 229.645657 
L 98.147766 231.325245 
L 99.483066 233.330771 
L 100.818365 234.519937 
L 103.488964 237.422028 
L 104.824264 238.463167 
L 106.159563 240.631344 
L 107.494863 242.14275 
L 108.830162 242.639026 
L 111.500761 244.987937 
L 112.836061 245.660954 
L 114.17136 246.980564 
L 116.841959 248.252206 
L 119.512558 249.825798 
L 120.847858 249.803672 
L 122.183157 250.367875 
L 123.518457 251.269594 
L 124.853756 251.82543 
L 126.189056 252.074135 
L 127.524355 251.894007 
L 130.194954 252.609698 
L 131.530253 253.551901 
L 132.865553 253.399654 
L 134.200852 253.649303 
L 135.536152 254.172066 
L 136.871451 254.185019 
L 138.206751 254.510019 
L 139.54205 254.185531 
L 140.87735 253.993588 
L 142.212649 254.412863 
L 143.547949 254.680964 
L 144.883248 255.27753 
L 146.218548 254.881893 
L 147.553847 255.514894 
L 148.889147 255.935238 
L 150.224446 255.921174 
L 151.559746 256.111175 
L 152.895045 255.894401 
L 154.230345 256.175396 
L 156.900944 257.116138 
L 158.236243 257.112023 
L 159.571543 256.719583 
L 160.906842 256.854608 
L 162.242142 257.365404 
L 164.912741 257.261087 
L 172.924537 258.226351 
L 174.259837 258.758148 
L 175.595136 259.137716 
L 178.265735 259.024263 
L 179.601035 258.950767 
L 180.936334 259.2188 
L 184.942233 259.449674 
L 188.948131 260.238098 
L 191.61873 260.257277 
L 195.624629 260.17733 
L 198.295228 260.529975 
L 199.630527 260.357907 
L 200.965827 260.71011 
L 202.301126 259.729036 
L 203.636426 260.552191 
L 204.971725 260.873764 
L 206.307025 260.300825 
L 207.642324 260.706782 
L 208.977624 260.96619 
L 210.312923 260.910909 
L 211.648222 260.996069 
L 214.318821 261.544626 
L 215.654121 261.690714 
L 216.98942 262.037925 
L 218.32472 262.223743 
L 219.660019 262.673002 
L 222.330618 262.441139 
L 223.665918 262.750268 
L 225.001217 262.617491 
L 227.671816 262.735338 
L 233.013014 262.908001 
L 234.348314 263.272333 
L 235.683613 263.408156 
L 237.018913 263.814751 
L 238.354212 263.772272 
L 239.689512 264.097984 
L 242.360111 264.276302 
L 243.69541 264.668941 
L 245.03071 264.73916 
L 247.701309 264.671827 
L 249.036608 265.047521 
L 253.042506 264.822866 
L 254.377806 265.010575 
L 255.713105 265.083421 
L 258.383704 265.028685 
L 259.719004 265.453717 
L 261.054303 265.533007 
L 262.389603 265.783295 
L 263.724902 265.559188 
L 265.060202 265.483083 
L 266.395501 265.592866 
L 269.0661 265.301013 
L 271.736699 265.300912 
L 273.071999 265.044534 
L 274.407298 265.346668 
L 279.748496 264.617216 
L 282.419095 264.630556 
L 283.754395 264.404006 
L 285.089694 264.616691 
L 286.424994 264.604802 
L 287.760293 264.347567 
L 290.430892 264.787166 
L 291.766191 264.731872 
L 293.101491 264.898249 
L 294.43679 264.892929 
L 297.107389 264.503669 
L 298.442689 264.569853 
L 301.113288 264.84343 
L 302.448587 265.267549 
L 303.783887 265.477369 
L 306.454486 265.05202 
L 307.789785 265.147024 
L 309.125085 265.376961 
L 311.795684 265.596792 
L 314.466283 265.261442 
L 315.801582 265.537247 
L 318.472181 265.288485 
L 319.807481 265.311678 
L 321.14278 265.15515 
L 322.47808 265.16584 
L 323.813379 265.368786 
L 325.148679 265.36625 
L 326.483978 265.135614 
L 329.154577 265.20122 
L 330.489876 265.458358 
L 333.160475 265.520921 
L 335.831074 265.643438 
L 337.166374 265.488053 
L 338.501673 265.532294 
L 339.836973 265.430178 
L 341.172272 265.53689 
L 342.507572 265.530425 
L 343.842871 265.146533 
L 345.178171 264.985382 
L 349.184069 264.157726 
L 350.519369 264.345025 
L 351.854668 264.393636 
L 354.525267 264.085195 
L 355.860567 264.196408 
L 357.195866 264.033132 
L 358.531166 264.215398 
L 361.201765 263.766918 
L 365.207663 263.62703 
L 369.213561 262.988716 
L 370.548861 263.432004 
L 371.88416 263.491676 
L 373.21946 263.393693 
L 374.554759 262.838846 
L 375.890059 262.731617 
L 379.895957 262.881203 
L 382.566556 262.455499 
L 385.237155 262.396165 
L 387.907754 261.786839 
L 389.243054 261.748653 
L 393.248952 262.020158 
L 394.584252 261.878666 
L 397.254851 262.001464 
L 398.59015 261.725649 
L 407.937247 261.629571 
L 409.272546 261.514385 
L 410.607845 261.769238 
L 411.943145 261.837389 
L 413.278444 262.044709 
L 418.619642 261.506713 
L 419.954942 261.747572 
L 423.96084 261.827917 
L 425.29614 261.595228 
L 427.966739 261.667584 
L 429.302038 261.472261 
L 431.972637 261.374015 
L 433.307937 261.142438 
L 443.990333 261.203135 
L 445.325632 261.113441 
L 446.660932 260.794109 
L 447.996231 260.816114 
L 449.33153 261.08265 
L 450.66683 261.061158 
L 452.002129 261.467586 
L 453.337429 261.231992 
L 454.672728 261.11845 
L 456.008028 261.313837 
L 461.349226 260.683887 
L 464.019825 260.646078 
L 466.690424 260.202597 
L 468.025723 259.833761 
L 469.361023 259.769395 
L 469.361023 259.769395 
" clip-path="url(#pd8cef448e2)" style="fill: none; stroke: #59a14f; stroke-width: 1.5; stroke-linecap: square"/>
   </g>
   <g id="line2d_35">
    <path d="M 70.106477 144.483301 
L 71.441777 193.273499 
L 72.777076 216.591645 
L 74.112376 228.117492 
L 76.782975 246.906583 
L 78.118274 250.242455 
L 79.453574 253.185123 
L 80.788873 255.296731 
L 82.124173 241.545281 
L 83.459472 243.51581 
L 84.794772 243.224099 
L 86.130071 244.150275 
L 87.465371 245.608705 
L 88.80067 248.746249 
L 90.13597 247.775387 
L 91.471269 248.91592 
L 92.806568 246.731471 
L 94.141868 245.367425 
L 95.477167 244.757003 
L 96.812467 244.291257 
L 98.147766 241.989784 
L 99.483066 244.771038 
L 102.153665 247.713125 
L 103.488964 249.338046 
L 104.824264 251.814662 
L 106.159563 253.296276 
L 107.494863 252.612419 
L 108.830162 252.245362 
L 110.165462 249.997202 
L 111.500761 249.583719 
L 112.836061 249.605711 
L 114.17136 250.501617 
L 115.50666 252.694496 
L 116.841959 250.867464 
L 118.177259 249.529818 
L 119.512558 250.689595 
L 120.847858 250.979003 
L 122.183157 248.983105 
L 123.518457 249.906695 
L 124.853756 249.82694 
L 126.189056 248.52173 
L 127.524355 248.635663 
L 128.859655 250.536044 
L 130.194954 248.459673 
L 131.530253 245.904575 
L 132.865553 247.984691 
L 134.200852 247.506557 
L 136.871451 245.646528 
L 138.206751 244.45745 
L 139.54205 242.317623 
L 140.87735 241.640255 
L 142.212649 241.687941 
L 143.547949 241.280953 
L 144.883248 240.395585 
L 146.218548 240.397391 
L 147.553847 240.015183 
L 148.889147 236.208261 
L 150.224446 235.500963 
L 151.559746 236.507533 
L 152.895045 234.737986 
L 154.230345 233.927017 
L 155.565644 234.46182 
L 156.900944 232.950745 
L 159.571543 229.359168 
L 162.242142 229.00487 
L 164.912741 230.181959 
L 166.24804 228.537403 
L 167.58334 228.099639 
L 168.918639 227.187225 
L 170.253939 227.097567 
L 171.589238 227.186789 
L 172.924537 225.979498 
L 174.259837 225.319328 
L 175.595136 225.12837 
L 176.930436 224.485218 
L 178.265735 224.543117 
L 179.601035 224.360581 
L 180.936334 224.523091 
L 182.271634 222.80145 
L 183.606933 222.929431 
L 186.277532 222.194289 
L 190.283431 218.12037 
L 191.61873 217.228731 
L 192.95403 216.832861 
L 194.289329 217.042031 
L 195.624629 216.595838 
L 196.959928 218.082642 
L 198.295228 218.946524 
L 199.630527 219.357099 
L 200.965827 218.406273 
L 202.301126 217.678314 
L 203.636426 216.568213 
L 204.971725 214.412892 
L 206.307025 214.960923 
L 207.642324 213.455807 
L 208.977624 212.66284 
L 211.648222 210.612291 
L 212.983522 209.750072 
L 214.318821 209.186292 
L 215.654121 208.453418 
L 216.98942 207.178355 
L 219.660019 206.764534 
L 220.995319 205.787337 
L 222.330618 206.57789 
L 223.665918 205.76793 
L 226.336517 206.431124 
L 227.671816 206.345979 
L 230.342415 205.659713 
L 231.677715 205.833014 
L 233.013014 205.242275 
L 234.348314 204.415435 
L 235.683613 205.535188 
L 237.018913 204.680266 
L 238.354212 203.612858 
L 239.689512 203.475578 
L 242.360111 201.70383 
L 243.69541 202.061834 
L 245.03071 201.879871 
L 246.366009 202.008986 
L 247.701309 200.697877 
L 249.036608 200.665244 
L 250.371907 200.375048 
L 251.707207 200.997602 
L 253.042506 201.041185 
L 254.377806 199.552062 
L 255.713105 198.359837 
L 258.383704 195.483577 
L 259.719004 196.111356 
L 261.054303 196.030805 
L 263.724902 195.522264 
L 265.060202 194.895937 
L 266.395501 193.307848 
L 267.730801 193.242453 
L 269.0661 193.390227 
L 270.4014 194.63088 
L 273.071999 193.964116 
L 274.407298 194.014038 
L 275.742598 191.201114 
L 277.077897 190.633875 
L 278.413197 191.522705 
L 279.748496 191.019313 
L 281.083796 190.888783 
L 282.419095 191.59741 
L 283.754395 190.054766 
L 286.424994 190.566022 
L 287.760293 190.653339 
L 289.095593 190.449486 
L 290.430892 190.121122 
L 291.766191 189.209121 
L 293.101491 189.552589 
L 294.43679 190.266246 
L 295.77209 190.160965 
L 297.107389 190.40834 
L 298.442689 191.281666 
L 299.777988 191.159877 
L 301.113288 190.642575 
L 302.448587 189.839333 
L 303.783887 189.879699 
L 305.119186 188.805398 
L 306.454486 189.224615 
L 307.789785 188.527439 
L 309.125085 189.599053 
L 310.460384 189.578338 
L 311.795684 190.049489 
L 313.130983 189.656802 
L 314.466283 190.058333 
L 315.801582 188.687431 
L 317.136882 188.16622 
L 319.807481 185.617521 
L 321.14278 185.188957 
L 322.47808 185.828675 
L 323.813379 185.507471 
L 325.148679 183.825157 
L 326.483978 185.046589 
L 327.819278 184.904508 
L 329.154577 184.064798 
L 330.489876 184.092816 
L 331.825176 182.194642 
L 333.160475 181.61127 
L 334.495775 180.654278 
L 335.831074 179.118322 
L 337.166374 179.15118 
L 338.501673 178.815764 
L 339.836973 177.437349 
L 341.172272 176.549721 
L 342.507572 176.321857 
L 343.842871 177.12019 
L 345.178171 177.349737 
L 346.51347 177.237848 
L 349.184069 176.099483 
L 351.854668 175.973139 
L 353.189968 175.442469 
L 354.525267 175.033693 
L 355.860567 174.134583 
L 357.195866 174.526956 
L 358.531166 174.716609 
L 359.866465 175.044248 
L 361.201765 173.653413 
L 362.537064 171.808019 
L 363.872364 171.21776 
L 365.207663 171.476594 
L 366.542963 171.220823 
L 367.878262 170.43172 
L 369.213561 170.655682 
L 370.548861 169.89234 
L 371.88416 170.283935 
L 373.21946 170.05145 
L 374.554759 170.209008 
L 375.890059 168.952538 
L 377.225358 169.700368 
L 378.560658 168.930093 
L 379.895957 168.450368 
L 381.231257 168.50399 
L 382.566556 167.204891 
L 383.901856 165.45152 
L 385.237155 165.387615 
L 386.572455 164.102815 
L 387.907754 164.766479 
L 389.243054 164.847883 
L 390.578353 164.591708 
L 393.248952 162.520191 
L 394.584252 162.669958 
L 395.919551 163.509734 
L 397.254851 161.674259 
L 398.59015 161.562917 
L 399.92545 161.853798 
L 401.260749 161.649104 
L 402.596049 161.002738 
L 403.931348 161.190983 
L 405.266648 161.6922 
L 406.601947 161.401271 
L 407.937247 161.291082 
L 409.272546 160.879065 
L 410.607845 160.236056 
L 411.943145 160.378779 
L 413.278444 159.957318 
L 414.613744 158.427505 
L 415.949043 159.110187 
L 417.284343 159.136827 
L 418.619642 158.613098 
L 419.954942 159.043654 
L 421.290241 158.178715 
L 422.625541 157.082533 
L 423.96084 156.711891 
L 425.29614 155.718493 
L 426.631439 155.324556 
L 427.966739 153.438938 
L 429.302038 152.158395 
L 430.637338 151.763595 
L 431.972637 151.217752 
L 433.307937 150.966342 
L 434.643236 150.567773 
L 435.978536 149.661421 
L 437.313835 147.916952 
L 438.649135 147.037961 
L 439.984434 144.914191 
L 441.319734 143.152702 
L 442.655033 143.03397 
L 443.990333 141.566473 
L 445.325632 140.778097 
L 446.660932 140.124445 
L 447.996231 140.265942 
L 449.33153 138.465157 
L 450.66683 139.308911 
L 452.002129 138.580783 
L 453.337429 136.029008 
L 454.672728 136.503246 
L 456.008028 136.133156 
L 458.678627 136.370528 
L 460.013926 136.592413 
L 461.349226 136.2804 
L 462.684525 135.77455 
L 464.019825 134.574984 
L 465.355124 135.157022 
L 466.690424 133.820744 
L 468.025723 133.847164 
L 469.361023 131.926543 
L 469.361023 131.926543 
" clip-path="url(#pd8cef448e2)" style="fill: none; stroke: #e15759; stroke-width: 1.5; stroke-linecap: square"/>
   </g>
   <g id="patch_3">
    <path d="M 50.14375 277.376875 
L 50.14375 22.318125 
" style="fill: none; stroke: #000000; stroke-width: 0.8; stroke-linejoin: miter; stroke-linecap: square"/>
   </g>
   <g id="patch_4">
    <path d="M 489.32375 277.376875 
L 489.32375 22.318125 
" style="fill: none; stroke: #000000; stroke-width: 0.8; stroke-linejoin: miter; stroke-linecap: square"/>
   </g>
   <g id="patch_5">
    <path d="M 50.14375 277.376875 
L 489.32375 277.376875 
" style="fill: none; stroke: #000000; stroke-width: 0.8; stroke-linejoin: miter; stroke-linecap: square"/>
   </g>
   <g id="patch_6">
    <path d="M 50.14375 22.318125 
L 489.32375 22.318125 
" style="fill: none; stroke: #000000; stroke-width: 0.8; stroke-linejoin: miter; stroke-linecap: square"/>
   </g>
   <g id="text_19">
    <!-- learning_rate trades off speed vs final performance -->
    <g transform="translate(115.452187 16.318125) scale(0.12 -0.12)">
     <defs>
      <path id="DejaVuSans-64" d="M 2906 2969 
L 2906 4863 
L 3481 4863 
L 3481 0 
L 2906 0 
L 2906 525 
Q 2725 213 2448 61 
Q 2172 -91 1784 -91 
Q 1150 -91 751 415 
Q 353 922 353 1747 
Q 353 2572 751 3078 
Q 1150 3584 1784 3584 
Q 2172 3584 2448 3432 
Q 2725 3281 2906 2969 
z
M 947 1747 
Q 947 1113 1208 752 
Q 1469 391 1925 391 
Q 2381 391 2643 752 
Q 2906 1113 2906 1747 
Q 2906 2381 2643 2742 
Q 2381 3103 1925 3103 
Q 1469 3103 1208 2742 
Q 947 2381 947 1747 
z
" transform="scale(0.015625)"/>
      <path id="DejaVuSans-66" d="M 2375 4863 
L 2375 4384 
L 1825 4384 
Q 1516 4384 1395 4259 
Q 1275 4134 1275 3809 
L 1275 3500 
L 2222 3500 
L 2222 3053 
L 1275 3053 
L 1275 0 
L 697 0 
L 697 3053 
L 147 3053 
L 147 3500 
L 697 3500 
L 697 3744 
Q 697 4328 969 4595 
Q 1241 4863 1831 4863 
L 2375 4863 
z
" transform="scale(0.015625)"/>
      <path id="DejaVuSans-70" d="M 1159 525 
L 1159 -1331 
L 581 -1331 
L 581 3500 
L 1159 3500 
L 1159 2969 
Q 1341 3281 1617 3432 
Q 1894 3584 2278 3584 
Q 2916 3584 3314 3078 
Q 3713 2572 3713 1747 
Q 3713 922 3314 415 
Q 2916 -91 2278 -91 
Q 1894 -91 1617 61 
Q 1341 213 1159 525 
z
M 3116 1747 
Q 3116 2381 2855 2742 
Q 2594 3103 2138 3103 
Q 1681 3103 1420 2742 
Q 1159 2381 1159 1747 
Q 1159 1113 1420 752 
Q 1681 391 2138 391 
Q 2594 391 2855 752 
Q 3116 1113 3116 1747 
z
" transform="scale(0.015625)"/>
      <path id="DejaVuSans-76" d="M 191 3500 
L 800 3500 
L 1894 563 
L 2988 3500 
L 3597 3500 
L 2284 0 
L 1503 0 
L 191 3500 
z
" transform="scale(0.015625)"/>
      <path id="DejaVuSans-63" d="M 3122 3366 
L 3122 2828 
Q 2878 2963 2633 3030 
Q 2388 3097 2138 3097 
Q 1578 3097 1268 2742 
Q 959 2388 959 1747 
Q 959 1106 1268 751 
Q 1578 397 2138 397 
Q 2388 397 2633 464 
Q 2878 531 3122 666 
L 3122 134 
Q 2881 22 2623 -34 
Q 2366 -91 2075 -91 
Q 1284 -91 818 406 
Q 353 903 353 1747 
Q 353 2603 823 3093 
Q 1294 3584 2113 3584 
Q 2378 3584 2631 3529 
Q 2884 3475 3122 3366 
z
" transform="scale(0.015625)"/>
     </defs>
     <use xlink:href="#DejaVuSans-6c"/>
     <use xlink:href="#DejaVuSans-65" transform="translate(27.783203 0)"/>
     <use xlink:href="#DejaVuSans-61" transform="translate(89.306641 0)"/>
     <use xlink:href="#DejaVuSans-72" transform="translate(150.585938 0)"/>
     <use xlink:href="#DejaVuSans-6e" transform="translate(189.949219 0)"/>
     <use xlink:href="#DejaVuSans-69" transform="translate(253.328125 0)"/>
     <use xlink:href="#DejaVuSans-6e" transform="translate(281.111328 0)"/>
     <use xlink:href="#DejaVuSans-67" transform="translate(344.490234 0)"/>
     <use xlink:href="#DejaVuSans-5f" transform="translate(407.966797 0)"/>
     <use xlink:href="#DejaVuSans-72" transform="translate(457.966797 0)"/>
     <use xlink:href="#DejaVuSans-61" transform="translate(499.080078 0)"/>
     <use xlink:href="#DejaVuSans-74" transform="translate(560.359375 0)"/>
     <use xlink:href="#DejaVuSans-65" transform="translate(599.568359 0)"/>
     <use xlink:href="#DejaVuSans-20" transform="translate(661.091797 0)"/>
     <use xlink:href="#DejaVuSans-74" transform="translate(692.878906 0)"/>
     <use xlink:href="#DejaVuSans-72" transform="translate(732.087891 0)"/>
     <use xlink:href="#DejaVuSans-61" transform="translate(773.201172 0)"/>
     <use xlink:href="#DejaVuSans-64" transform="translate(834.480469 0)"/>
     <use xlink:href="#DejaVuSans-65" transform="translate(897.957031 0)"/>
     <use xlink:href="#DejaVuSans-73" transform="translate(959.480469 0)"/>
     <use xlink:href="#DejaVuSans-20" transform="translate(1011.580078 0)"/>
     <use xlink:href="#DejaVuSans-6f" transform="translate(1043.367188 0)"/>
     <use xlink:href="#DejaVuSans-66" transform="translate(1104.548828 0)"/>
     <use xlink:href="#DejaVuSans-66" transform="translate(1139.753906 0)"/>
     <use xlink:href="#DejaVuSans-20" transform="translate(1174.958984 0)"/>
     <use xlink:href="#DejaVuSans-73" transform="translate(1206.746094 0)"/>
     <use xlink:href="#DejaVuSans-70" transform="translate(1258.845703 0)"/>
     <use xlink:href="#DejaVuSans-65" transform="translate(1322.322266 0)"/>
     <use xlink:href="#DejaVuSans-65" transform="translate(1383.845703 0)"/>
     <use xlink:href="#DejaVuSans-64" transform="translate(1445.369141 0)"/>
     <use xlink:href="#DejaVuSans-20" transform="translate(1508.845703 0)"/>
     <use xlink:href="#DejaVuSans-76" transform="translate(1540.632812 0)"/>
     <use xlink:href="#DejaVuSans-73" transform="translate(1599.8125 0)"/>
     <use xlink:href="#DejaVuSans-20" transform="translate(1651.912109 0)"/>
     <use xlink:href="#DejaVuSans-66" transform="translate(1683.699219 0)"/>
     <use xlink:href="#DejaVuSans-69" transform="translate(1718.904297 0)"/>
     <use xlink:href="#DejaVuSans-6e" transform="translate(1746.6875 0)"/>
     <use xlink:href="#DejaVuSans-61" transform="translate(1810.066406 0)"/>
     <use xlink:href="#DejaVuSans-6c" transform="translate(1871.345703 0)"/>
     <use xlink:href="#DejaVuSans-20" transform="translate(1899.128906 0)"/>
     <use xlink:href="#DejaVuSans-70" transform="translate(1930.916016 0)"/>
     <use xlink:href="#DejaVuSans-65" transform="translate(1994.392578 0)"/>
     <use xlink:href="#DejaVuSans-72" transform="translate(2055.916016 0)"/>
     <use xlink:href="#DejaVuSans-66" transform="translate(2097.029297 0)"/>
     <use xlink:href="#DejaVuSans-6f" transform="translate(2132.234375 0)"/>
     <use xlink:href="#DejaVuSans-72" transform="translate(2193.416016 0)"/>
     <use xlink:href="#DejaVuSans-6d" transform="translate(2232.779297 0)"/>
     <use xlink:href="#DejaVuSans-61" transform="translate(2330.191406 0)"/>
     <use xlink:href="#DejaVuSans-6e" transform="translate(2391.470703 0)"/>
     <use xlink:href="#DejaVuSans-63" transform="translate(2454.849609 0)"/>
     <use xlink:href="#DejaVuSans-65" transform="translate(2509.830078 0)"/>
    </g>
   </g>
   <g id="legend_1">
    <g id="patch_7">
     <path d="M 347.212812 75.186875 
L 482.32375 75.186875 
Q 484.32375 75.186875 484.32375 73.186875 
L 484.32375 29.318125 
Q 484.32375 27.318125 482.32375 27.318125 
L 347.212812 27.318125 
Q 345.212812 27.318125 345.212812 29.318125 
L 345.212812 73.186875 
Q 345.212812 75.186875 347.212812 75.186875 
z
" style="fill: #ffffff; opacity: 0.8; stroke: #cccccc; stroke-linejoin: miter"/>
    </g>
    <g id="line2d_36">
     <path d="M 349.212812 35.416562 
L 359.212812 35.416562 
L 369.212812 35.416562 
" style="fill: none; stroke: #7aa6c2; stroke-width: 1.5; stroke-linecap: square"/>
    </g>
    <g id="text_20">
     <!-- learning_rate = 0.01 -->
     <g transform="translate(377.212812 38.916562) scale(0.1 -0.1)">
      <defs>
       <path id="DejaVuSans-3d" d="M 678 2906 
L 4684 2906 
L 4684 2381 
L 678 2381 
L 678 2906 
z
M 678 1631 
L 4684 1631 
L 4684 1100 
L 678 1100 
L 678 1631 
z
" transform="scale(0.015625)"/>
      </defs>
      <use xlink:href="#DejaVuSans-6c"/>
      <use xlink:href="#DejaVuSans-65" transform="translate(27.783203 0)"/>
      <use xlink:href="#DejaVuSans-61" transform="translate(89.306641 0)"/>
      <use xlink:href="#DejaVuSans-72" transform="translate(150.585938 0)"/>
      <use xlink:href="#DejaVuSans-6e" transform="translate(189.949219 0)"/>
      <use xlink:href="#DejaVuSans-69" transform="translate(253.328125 0)"/>
      <use xlink:href="#DejaVuSans-6e" transform="translate(281.111328 0)"/>
      <use xlink:href="#DejaVuSans-67" transform="translate(344.490234 0)"/>
      <use xlink:href="#DejaVuSans-5f" transform="translate(407.966797 0)"/>
      <use xlink:href="#DejaVuSans-72" transform="translate(457.966797 0)"/>
      <use xlink:href="#DejaVuSans-61" transform="translate(499.080078 0)"/>
      <use xlink:href="#DejaVuSans-74" transform="translate(560.359375 0)"/>
      <use xlink:href="#DejaVuSans-65" transform="translate(599.568359 0)"/>
      <use xlink:href="#DejaVuSans-20" transform="translate(661.091797 0)"/>
      <use xlink:href="#DejaVuSans-3d" transform="translate(692.878906 0)"/>
      <use xlink:href="#DejaVuSans-20" transform="translate(776.667969 0)"/>
      <use xlink:href="#DejaVuSans-30" transform="translate(808.455078 0)"/>
      <use xlink:href="#DejaVuSans-2e" transform="translate(872.078125 0)"/>
      <use xlink:href="#DejaVuSans-30" transform="translate(903.865234 0)"/>
      <use xlink:href="#DejaVuSans-31" transform="translate(967.488281 0)"/>
     </g>
    </g>
    <g id="line2d_37">
     <path d="M 349.212812 50.372812 
L 359.212812 50.372812 
L 369.212812 50.372812 
" style="fill: none; stroke: #59a14f; stroke-width: 1.5; stroke-linecap: square"/>
    </g>
    <g id="text_21">
     <!-- learning_rate = 0.1 -->
     <g transform="translate(377.212812 53.872812) scale(0.1 -0.1)">
      <use xlink:href="#DejaVuSans-6c"/>
      <use xlink:href="#DejaVuSans-65" transform="translate(27.783203 0)"/>
      <use xlink:href="#DejaVuSans-61" transform="translate(89.306641 0)"/>
      <use xlink:href="#DejaVuSans-72" transform="translate(150.585938 0)"/>
      <use xlink:href="#DejaVuSans-6e" transform="translate(189.949219 0)"/>
      <use xlink:href="#DejaVuSans-69" transform="translate(253.328125 0)"/>
      <use xlink:href="#DejaVuSans-6e" transform="translate(281.111328 0)"/>
      <use xlink:href="#DejaVuSans-67" transform="translate(344.490234 0)"/>
      <use xlink:href="#DejaVuSans-5f" transform="translate(407.966797 0)"/>
      <use xlink:href="#DejaVuSans-72" transform="translate(457.966797 0)"/>
      <use xlink:href="#DejaVuSans-61" transform="translate(499.080078 0)"/>
      <use xlink:href="#DejaVuSans-74" transform="translate(560.359375 0)"/>
      <use xlink:href="#DejaVuSans-65" transform="translate(599.568359 0)"/>
      <use xlink:href="#DejaVuSans-20" transform="translate(661.091797 0)"/>
      <use xlink:href="#DejaVuSans-3d" transform="translate(692.878906 0)"/>
      <use xlink:href="#DejaVuSans-20" transform="translate(776.667969 0)"/>
      <use xlink:href="#DejaVuSans-30" transform="translate(808.455078 0)"/>
      <use xlink:href="#DejaVuSans-2e" transform="translate(872.078125 0)"/>
      <use xlink:href="#DejaVuSans-31" transform="translate(903.865234 0)"/>
     </g>
    </g>
    <g id="line2d_38">
     <path d="M 349.212812 65.329062 
L 359.212812 65.329062 
L 369.212812 65.329062 
" style="fill: none; stroke: #e15759; stroke-width: 1.5; stroke-linecap: square"/>
    </g>
    <g id="text_22">
     <!-- learning_rate = 0.5 -->
     <g transform="translate(377.212812 68.829062) scale(0.1 -0.1)">
      <use xlink:href="#DejaVuSans-6c"/>
      <use xlink:href="#DejaVuSans-65" transform="translate(27.783203 0)"/>
      <use xlink:href="#DejaVuSans-61" transform="translate(89.306641 0)"/>
      <use xlink:href="#DejaVuSans-72" transform="translate(150.585938 0)"/>
      <use xlink:href="#DejaVuSans-6e" transform="translate(189.949219 0)"/>
      <use xlink:href="#DejaVuSans-69" transform="translate(253.328125 0)"/>
      <use xlink:href="#DejaVuSans-6e" transform="translate(281.111328 0)"/>
      <use xlink:href="#DejaVuSans-67" transform="translate(344.490234 0)"/>
      <use xlink:href="#DejaVuSans-5f" transform="translate(407.966797 0)"/>
      <use xlink:href="#DejaVuSans-72" transform="translate(457.966797 0)"/>
      <use xlink:href="#DejaVuSans-61" transform="translate(499.080078 0)"/>
      <use xlink:href="#DejaVuSans-74" transform="translate(560.359375 0)"/>
      <use xlink:href="#DejaVuSans-65" transform="translate(599.568359 0)"/>
      <use xlink:href="#DejaVuSans-20" transform="translate(661.091797 0)"/>
      <use xlink:href="#DejaVuSans-3d" transform="translate(692.878906 0)"/>
      <use xlink:href="#DejaVuSans-20" transform="translate(776.667969 0)"/>
      <use xlink:href="#DejaVuSans-30" transform="translate(808.455078 0)"/>
      <use xlink:href="#DejaVuSans-2e" transform="translate(872.078125 0)"/>
      <use xlink:href="#DejaVuSans-35" transform="translate(903.865234 0)"/>
     </g>
    </g>
   </g>
  </g>
 </g>
 <defs>
  <clipPath id="pd8cef448e2">
   <rect x="50.14375" y="22.318125" width="439.18" height="255.05875"/>
  </clipPath>
 </defs>
</svg>
