<?xml version="1.0" encoding="utf-8" standalone="no"?>
<!DOCTYPE svg PUBLIC "-//W3C//DTD SVG 1.1//EN"
  "http://www.w3.org/Graphics/SVG/1.1/DTD/svg11.dtd">
<svg xmlns:xlink="http://www.w3.org/1999/xlink" width="856.52375pt" height="315.034375pt" viewBox="0 0 856.52375 315.034375" xmlns="http://www.w3.org/2000/svg" version="1.1">
 <metadata>
  <rdf:RDF xmlns:dc="http://purl.org/dc/elements/1.1/" xmlns:cc="http://creativecommons.org/ns#" xmlns:rdf="http://www.w3.org/1999/02/22-rdf-syntax-ns#">
   <cc:Work>
    <dc:type rdf:resource="http://purl.org/dc/dcmitype/StillImage"/>
    <dc:date>2026-05-26T08:46:44.029979</dc:date>
    <dc:format>image/svg+xml</dc:format>
    <dc:creator>
     <cc:Agent>
      <dc:title>Matplotlib v3.10.8, https://matplotlib.org/</dc:title>
     </cc:Agent>
    </dc:creator>
   </cc:Work>
  </rdf:RDF>
 </metadata>
 <defs>
  <style type="text/css">*{stroke-linejoin: round; stroke-linecap: butt}</style>
 </defs>
 <g id="figure_1">
  <g id="patch_1">
   <path d="M 0 315.034375 
L 856.52375 315.034375 
L 856.52375 0 
L 0 0 
z
" style="fill: #ffffff"/>
  </g>
  <g id="axes_1">
   <g id="patch_2">
    <path d="M 50.14375 277.478125 
L 422.72375 277.478125 
L 422.72375 22.318125 
L 50.14375 22.318125 
z
" style="fill: #ffffff"/>
   </g>
   <g id="FillBetweenPolyCollection_1">
    <defs>
     <path id="m14c56907ca" d="M 67.079205 -49.154432 
L 67.079205 -50.051202 
L 67.9281 -50.10902 
L 68.776994 -50.170206 
L 69.625889 -50.234933 
L 70.474784 -50.303377 
L 71.323679 -50.375726 
L 72.172574 -50.452172 
L 73.021469 -50.532916 
L 73.870364 -50.618167 
L 74.719259 -50.70814 
L 75.568154 -50.803062 
L 76.417049 -50.903165 
L 77.265944 -51.00869 
L 78.114839 -51.119889 
L 78.963734 -51.23702 
L 79.812629 -51.360353 
L 80.661524 -51.490163 
L 81.510419 -51.626739 
L 82.359314 -51.770376 
L 83.208209 -51.921381 
L 84.057104 -52.080069 
L 84.905999 -52.246764 
L 85.754894 -52.421803 
L 86.603789 -52.60553 
L 87.452684 -52.7983 
L 88.301579 -53.00048 
L 89.150474 -53.212443 
L 89.999369 -53.434575 
L 90.848264 -53.667271 
L 91.697159 -53.910938 
L 92.546053 -54.16599 
L 93.394948 -54.432853 
L 94.243843 -54.711962 
L 95.092738 -55.003763 
L 95.941633 -55.30871 
L 96.790528 -55.627268 
L 97.639423 -55.95991 
L 98.488318 -56.307119 
L 99.337213 -56.669387 
L 100.186108 -57.047213 
L 101.035003 -57.441107 
L 101.883898 -57.851585 
L 102.732793 -58.279171 
L 103.581688 -58.724397 
L 104.430583 -59.187801 
L 105.279478 -59.669929 
L 106.128373 -60.17133 
L 106.977268 -60.692562 
L 107.826163 -61.234186 
L 108.675058 -61.796768 
L 109.523953 -62.380875 
L 110.372848 -62.987082 
L 111.221743 -63.615962 
L 112.070638 -64.268093 
L 112.919533 -64.944051 
L 113.768428 -65.644413 
L 114.617323 -66.369757 
L 115.466218 -67.120658 
L 116.315112 -67.897688 
L 117.164007 -68.701416 
L 118.012902 -69.532408 
L 118.861797 -70.391222 
L 119.710692 -71.278413 
L 120.559587 -72.194524 
L 121.408482 -73.140093 
L 122.257377 -74.115648 
L 123.106272 -75.121704 
L 123.955167 -76.158766 
L 124.804062 -77.227325 
L 125.652957 -78.327858 
L 126.501852 -79.460823 
L 127.350747 -80.626667 
L 128.199642 -81.825813 
L 129.048537 -83.058667 
L 129.897432 -84.325614 
L 130.746327 -85.627015 
L 131.595222 -86.96321 
L 132.444117 -88.334511 
L 133.293012 -89.741205 
L 134.141907 -91.183552 
L 134.990802 -92.66178 
L 135.839697 -94.176091 
L 136.688592 -95.72665 
L 137.537487 -97.313591 
L 138.386382 -98.937015 
L 139.235277 -100.596985 
L 140.084172 -102.293526 
L 140.933066 -104.026627 
L 141.781961 -105.796236 
L 142.630856 -107.602258 
L 143.479751 -109.44456 
L 144.328646 -111.322963 
L 145.177541 -113.237243 
L 146.026436 -115.187132 
L 146.875331 -117.172314 
L 147.724226 -119.192428 
L 148.573121 -121.247061 
L 149.422016 -123.335755 
L 150.270911 -125.457998 
L 151.119806 -127.613229 
L 151.968701 -129.800836 
L 152.817596 -132.020155 
L 153.666491 -134.270469 
L 154.515386 -136.551007 
L 155.364281 -138.860947 
L 156.213176 -141.199413 
L 157.062071 -143.565473 
L 157.910966 -145.958145 
L 158.759861 -148.376391 
L 159.608756 -150.819119 
L 160.457651 -153.285186 
L 161.306546 -155.773394 
L 162.155441 -158.282494 
L 163.004336 -160.811182 
L 163.853231 -163.358106 
L 164.702125 -165.921862 
L 165.55102 -168.500995 
L 166.399915 -171.094004 
L 167.24881 -173.699338 
L 168.097705 -176.315399 
L 168.9466 -178.940546 
L 169.795495 -181.573091 
L 170.64439 -184.211306 
L 171.493285 -186.853423 
L 172.34218 -189.497631 
L 173.191075 -192.142085 
L 174.03997 -194.784903 
L 174.888865 -197.424171 
L 175.73776 -200.057944 
L 176.586655 -202.684245 
L 177.43555 -205.301073 
L 178.284445 -207.906403 
L 179.13334 -210.498185 
L 179.982235 -213.074354 
L 180.83113 -215.632824 
L 181.680025 -218.171498 
L 182.52892 -220.688267 
L 183.377815 -223.181013 
L 184.22671 -225.647613 
L 185.075605 -228.085941 
L 185.9245 -230.493873 
L 186.773395 -232.869286 
L 187.62229 -235.210065 
L 188.471184 -237.514104 
L 189.320079 -239.779311 
L 190.168974 -242.003608 
L 191.017869 -244.184938 
L 191.866764 -246.321264 
L 192.715659 -248.410576 
L 193.564554 -250.450892 
L 194.413449 -252.440261 
L 195.262344 -254.376767 
L 196.111239 -256.258532 
L 196.960134 -258.083718 
L 197.809029 -259.850531 
L 198.657924 -261.557225 
L 199.506819 -263.202101 
L 200.355714 -264.783514 
L 201.204609 -266.299875 
L 202.053504 -267.749649 
L 202.902399 -269.131365 
L 203.751294 -270.443614 
L 204.600189 -271.685051 
L 205.449084 -272.854399 
L 206.297979 -273.950451 
L 207.146874 -274.972072 
L 207.995769 -275.9182 
L 208.844664 -276.787849 
L 209.693559 -277.58011 
L 210.542454 -278.294153 
L 211.391349 -278.929228 
L 212.240244 -279.484666 
L 213.089138 -279.959883 
L 213.938033 -280.354377 
L 214.786928 -280.667731 
L 215.635823 -280.899614 
L 216.484718 -281.049779 
L 217.333613 -281.118068 
L 218.182508 -281.104409 
L 219.031403 -281.008815 
L 219.880298 -280.831389 
L 220.729193 -280.572318 
L 221.578088 -280.231876 
L 222.426983 -279.810424 
L 223.275878 -279.308406 
L 224.124773 -278.726353 
L 224.973668 -278.064877 
L 225.822563 -277.324675 
L 226.671458 -276.506522 
L 227.520353 -275.611275 
L 228.369248 -274.639869 
L 229.218143 -273.593316 
L 230.067038 -272.472702 
L 230.915933 -271.279187 
L 231.764828 -270.014001 
L 232.613723 -268.678443 
L 233.462618 -267.273881 
L 234.311513 -265.801745 
L 235.160408 -264.263527 
L 236.009303 -262.66078 
L 236.858197 -260.995113 
L 237.707092 -259.268188 
L 238.555987 -257.48172 
L 239.404882 -255.637473 
L 240.253777 -253.737255 
L 241.102672 -251.782917 
L 241.951567 -249.776352 
L 242.800462 -247.719485 
L 243.649357 -245.61428 
L 244.498252 -243.462728 
L 245.347147 -241.266849 
L 246.196042 -239.028685 
L 247.044937 -236.750302 
L 247.893832 -234.433783 
L 248.742727 -232.081225 
L 249.591622 -229.694738 
L 250.440517 -227.276438 
L 251.289412 -224.828449 
L 252.138307 -222.352898 
L 252.987202 -219.851908 
L 253.836097 -217.327603 
L 254.684992 -214.782096 
L 255.533887 -212.217494 
L 256.382782 -209.63589 
L 257.231677 -207.039363 
L 258.080572 -204.429974 
L 258.929467 -201.809764 
L 259.778362 -199.180752 
L 260.627256 -196.544929 
L 261.476151 -193.904263 
L 262.325046 -191.260688 
L 263.173941 -188.616109 
L 264.022836 -185.972395 
L 264.871731 -183.33138 
L 265.720626 -180.69486 
L 266.569521 -178.06459 
L 267.418416 -175.442287 
L 268.267311 -172.829621 
L 269.116206 -170.228221 
L 269.965101 -167.639667 
L 270.813996 -165.065495 
L 271.662891 -162.507191 
L 272.511786 -159.966192 
L 273.360681 -157.443885 
L 274.209576 -154.941608 
L 275.058471 -152.460644 
L 275.907366 -150.002226 
L 276.756261 -147.567534 
L 277.605156 -145.157694 
L 278.454051 -142.77378 
L 279.302946 -140.416811 
L 280.151841 -138.087753 
L 281.000736 -135.787519 
L 281.849631 -133.516967 
L 282.698526 -131.276902 
L 283.547421 -129.068076 
L 284.396316 -126.89119 
L 285.24521 -124.746889 
L 286.094105 -122.635769 
L 286.943 -120.558375 
L 287.791895 -118.515199 
L 288.64079 -116.506686 
L 289.489685 -114.533231 
L 290.33858 -112.595179 
L 291.187475 -110.69283 
L 292.03637 -108.826439 
L 292.885265 -106.996212 
L 293.73416 -105.202315 
L 294.583055 -103.444867 
L 295.43195 -101.723949 
L 296.280845 -100.039599 
L 297.12974 -98.391816 
L 297.978635 -96.780561 
L 298.82753 -95.20576 
L 299.676425 -93.667301 
L 300.52532 -92.165038 
L 301.374215 -90.698793 
L 302.22311 -89.268358 
L 303.072005 -87.873491 
L 303.9209 -86.513926 
L 304.769795 -85.189365 
L 305.61869 -83.899487 
L 306.467585 -82.643946 
L 307.31648 -81.422372 
L 308.165375 -80.234373 
L 309.014269 -79.079537 
L 309.863164 -77.957432 
L 310.712059 -76.86761 
L 311.560954 -75.809603 
L 312.409849 -74.782932 
L 313.258744 -73.787099 
L 314.107639 -72.821598 
L 314.956534 -71.885907 
L 315.805429 -70.979496 
L 316.654324 -70.101825 
L 317.503219 -69.252347 
L 318.352114 -68.430505 
L 319.201009 -67.63574 
L 320.049904 -66.867483 
L 320.898799 -66.125165 
L 321.747694 -65.408212 
L 322.596589 -64.716048 
L 323.445484 -64.048097 
L 324.294379 -63.403781 
L 325.143274 -62.782522 
L 325.992169 -62.183746 
L 326.841064 -61.606877 
L 327.689959 -61.051344 
L 328.538854 -60.51658 
L 329.387749 -60.002021 
L 330.236644 -59.507105 
L 331.085539 -59.03128 
L 331.934434 -58.573995 
L 332.783328 -58.134708 
L 333.632223 -57.712884 
L 334.481118 -57.307992 
L 335.330013 -56.919511 
L 336.178908 -56.546927 
L 337.027803 -56.189734 
L 337.876698 -55.847435 
L 338.725593 -55.519541 
L 339.574488 -55.205572 
L 340.423383 -54.905058 
L 341.272278 -54.617538 
L 342.121173 -54.342559 
L 342.970068 -54.079681 
L 343.818963 -53.828471 
L 344.667858 -53.588507 
L 345.516753 -53.359376 
L 346.365648 -53.140678 
L 347.214543 -52.932018 
L 348.063438 -52.733016 
L 348.912333 -52.5433 
L 349.761228 -52.362508 
L 350.610123 -52.190289 
L 351.459018 -52.026299 
L 352.307913 -51.870208 
L 353.156808 -51.721694 
L 354.005703 -51.580444 
L 354.854598 -51.446156 
L 355.703493 -51.318536 
L 356.552388 -51.197301 
L 357.401282 -51.082177 
L 358.250177 -50.972897 
L 359.099072 -50.869207 
L 359.947967 -50.770858 
L 360.796862 -50.677611 
L 361.645757 -50.589236 
L 362.494652 -50.505511 
L 363.343547 -50.426223 
L 364.192442 -50.351164 
L 365.041337 -50.280138 
L 365.890232 -50.212953 
L 366.739127 -50.149426 
L 367.588022 -50.089381 
L 368.436917 -50.03265 
L 369.285812 -49.979069 
L 370.134707 -49.928484 
L 370.983602 -49.880745 
L 371.832497 -49.83571 
L 372.681392 -49.793241 
L 373.530287 -49.753208 
L 374.379182 -49.715486 
L 375.228077 -49.679954 
L 376.076972 -49.646499 
L 376.925867 -49.615011 
L 377.774762 -49.585385 
L 378.623657 -49.557523 
L 379.472552 -49.531329 
L 380.321447 -49.506712 
L 381.170341 -49.483587 
L 382.019236 -49.461871 
L 382.868131 -49.441487 
L 383.717026 -49.422359 
L 384.565921 -49.404418 
L 385.414816 -49.387596 
L 386.263711 -49.371828 
L 387.112606 -49.357056 
L 387.961501 -49.34322 
L 388.810396 -49.330268 
L 389.659291 -49.318146 
L 390.508186 -49.306805 
L 391.357081 -49.296201 
L 392.205976 -49.286287 
L 393.054871 -49.277024 
L 393.903766 -49.268371 
L 394.752661 -49.260291 
L 395.601556 -49.25275 
L 396.450451 -49.245714 
L 397.299346 -49.239151 
L 398.148241 -49.233032 
L 398.997136 -49.22733 
L 399.846031 -49.222017 
L 400.694926 -49.217069 
L 401.543821 -49.212463 
L 402.392716 -49.208177 
L 403.241611 -49.20419 
L 404.090506 -49.200482 
L 404.9394 -49.197036 
L 405.788295 -49.193833 
L 405.788295 -49.154432 
L 405.788295 -49.154432 
L 404.9394 -49.154432 
L 404.090506 -49.154432 
L 403.241611 -49.154432 
L 402.392716 -49.154432 
L 401.543821 -49.154432 
L 400.694926 -49.154432 
L 399.846031 -49.154432 
L 398.997136 -49.154432 
L 398.148241 -49.154432 
L 397.299346 -49.154432 
L 396.450451 -49.154432 
L 395.601556 -49.154432 
L 394.752661 -49.154432 
L 393.903766 -49.154432 
L 393.054871 -49.154432 
L 392.205976 -49.154432 
L 391.357081 -49.154432 
L 390.508186 -49.154432 
L 389.659291 -49.154432 
L 388.810396 -49.154432 
L 387.961501 -49.154432 
L 387.112606 -49.154432 
L 386.263711 -49.154432 
L 385.414816 -49.154432 
L 384.565921 -49.154432 
L 383.717026 -49.154432 
L 382.868131 -49.154432 
L 382.019236 -49.154432 
L 381.170341 -49.154432 
L 380.321447 -49.154432 
L 379.472552 -49.154432 
L 378.623657 -49.154432 
L 377.774762 -49.154432 
L 376.925867 -49.154432 
L 376.076972 -49.154432 
L 375.228077 -49.154432 
L 374.379182 -49.154432 
L 373.530287 -49.154432 
L 372.681392 -49.154432 
L 371.832497 -49.154432 
L 370.983602 -49.154432 
L 370.134707 -49.154432 
L 369.285812 -49.154432 
L 368.436917 -49.154432 
L 367.588022 -49.154432 
L 366.739127 -49.154432 
L 365.890232 -49.154432 
L 365.041337 -49.154432 
L 364.192442 -49.154432 
L 363.343547 -49.154432 
L 362.494652 -49.154432 
L 361.645757 -49.154432 
L 360.796862 -49.154432 
L 359.947967 -49.154432 
L 359.099072 -49.154432 
L 358.250177 -49.154432 
L 357.401282 -49.154432 
L 356.552388 -49.154432 
L 355.703493 -49.154432 
L 354.854598 -49.154432 
L 354.005703 -49.154432 
L 353.156808 -49.154432 
L 352.307913 -49.154432 
L 351.459018 -49.154432 
L 350.610123 -49.154432 
L 349.761228 -49.154432 
L 348.912333 -49.154432 
L 348.063438 -49.154432 
L 347.214543 -49.154432 
L 346.365648 -49.154432 
L 345.516753 -49.154432 
L 344.667858 -49.154432 
L 343.818963 -49.154432 
L 342.970068 -49.154432 
L 342.121173 -49.154432 
L 341.272278 -49.154432 
L 340.423383 -49.154432 
L 339.574488 -49.154432 
L 338.725593 -49.154432 
L 337.876698 -49.154432 
L 337.027803 -49.154432 
L 336.178908 -49.154432 
L 335.330013 -49.154432 
L 334.481118 -49.154432 
L 333.632223 -49.154432 
L 332.783328 -49.154432 
L 331.934434 -49.154432 
L 331.085539 -49.154432 
L 330.236644 -49.154432 
L 329.387749 -49.154432 
L 328.538854 -49.154432 
L 327.689959 -49.154432 
L 326.841064 -49.154432 
L 325.992169 -49.154432 
L 325.143274 -49.154432 
L 324.294379 -49.154432 
L 323.445484 -49.154432 
L 322.596589 -49.154432 
L 321.747694 -49.154432 
L 320.898799 -49.154432 
L 320.049904 -49.154432 
L 319.201009 -49.154432 
L 318.352114 -49.154432 
L 317.503219 -49.154432 
L 316.654324 -49.154432 
L 315.805429 -49.154432 
L 314.956534 -49.154432 
L 314.107639 -49.154432 
L 313.258744 -49.154432 
L 312.409849 -49.154432 
L 311.560954 -49.154432 
L 310.712059 -49.154432 
L 309.863164 -49.154432 
L 309.014269 -49.154432 
L 308.165375 -49.154432 
L 307.31648 -49.154432 
L 306.467585 -49.154432 
L 305.61869 -49.154432 
L 304.769795 -49.154432 
L 303.9209 -49.154432 
L 303.072005 -49.154432 
L 302.22311 -49.154432 
L 301.374215 -49.154432 
L 300.52532 -49.154432 
L 299.676425 -49.154432 
L 298.82753 -49.154432 
L 297.978635 -49.154432 
L 297.12974 -49.154432 
L 296.280845 -49.154432 
L 295.43195 -49.154432 
L 294.583055 -49.154432 
L 293.73416 -49.154432 
L 292.885265 -49.154432 
L 292.03637 -49.154432 
L 291.187475 -49.154432 
L 290.33858 -49.154432 
L 289.489685 -49.154432 
L 288.64079 -49.154432 
L 287.791895 -49.154432 
L 286.943 -49.154432 
L 286.094105 -49.154432 
L 285.24521 -49.154432 
L 284.396316 -49.154432 
L 283.547421 -49.154432 
L 282.698526 -49.154432 
L 281.849631 -49.154432 
L 281.000736 -49.154432 
L 280.151841 -49.154432 
L 279.302946 -49.154432 
L 278.454051 -49.154432 
L 277.605156 -49.154432 
L 276.756261 -49.154432 
L 275.907366 -49.154432 
L 275.058471 -49.154432 
L 274.209576 -49.154432 
L 273.360681 -49.154432 
L 272.511786 -49.154432 
L 271.662891 -49.154432 
L 270.813996 -49.154432 
L 269.965101 -49.154432 
L 269.116206 -49.154432 
L 268.267311 -49.154432 
L 267.418416 -49.154432 
L 266.569521 -49.154432 
L 265.720626 -49.154432 
L 264.871731 -49.154432 
L 264.022836 -49.154432 
L 263.173941 -49.154432 
L 262.325046 -49.154432 
L 261.476151 -49.154432 
L 260.627256 -49.154432 
L 259.778362 -49.154432 
L 258.929467 -49.154432 
L 258.080572 -49.154432 
L 257.231677 -49.154432 
L 256.382782 -49.154432 
L 255.533887 -49.154432 
L 254.684992 -49.154432 
L 253.836097 -49.154432 
L 252.987202 -49.154432 
L 252.138307 -49.154432 
L 251.289412 -49.154432 
L 250.440517 -49.154432 
L 249.591622 -49.154432 
L 248.742727 -49.154432 
L 247.893832 -49.154432 
L 247.044937 -49.154432 
L 246.196042 -49.154432 
L 245.347147 -49.154432 
L 244.498252 -49.154432 
L 243.649357 -49.154432 
L 242.800462 -49.154432 
L 241.951567 -49.154432 
L 241.102672 -49.154432 
L 240.253777 -49.154432 
L 239.404882 -49.154432 
L 238.555987 -49.154432 
L 237.707092 -49.154432 
L 236.858197 -49.154432 
L 236.009303 -49.154432 
L 235.160408 -49.154432 
L 234.311513 -49.154432 
L 233.462618 -49.154432 
L 232.613723 -49.154432 
L 231.764828 -49.154432 
L 230.915933 -49.154432 
L 230.067038 -49.154432 
L 229.218143 -49.154432 
L 228.369248 -49.154432 
L 227.520353 -49.154432 
L 226.671458 -49.154432 
L 225.822563 -49.154432 
L 224.973668 -49.154432 
L 224.124773 -49.154432 
L 223.275878 -49.154432 
L 222.426983 -49.154432 
L 221.578088 -49.154432 
L 220.729193 -49.154432 
L 219.880298 -49.154432 
L 219.031403 -49.154432 
L 218.182508 -49.154432 
L 217.333613 -49.154432 
L 216.484718 -49.154432 
L 215.635823 -49.154432 
L 214.786928 -49.154432 
L 213.938033 -49.154432 
L 213.089138 -49.154432 
L 212.240244 -49.154432 
L 211.391349 -49.154432 
L 210.542454 -49.154432 
L 209.693559 -49.154432 
L 208.844664 -49.154432 
L 207.995769 -49.154432 
L 207.146874 -49.154432 
L 206.297979 -49.154432 
L 205.449084 -49.154432 
L 204.600189 -49.154432 
L 203.751294 -49.154432 
L 202.902399 -49.154432 
L 202.053504 -49.154432 
L 201.204609 -49.154432 
L 200.355714 -49.154432 
L 199.506819 -49.154432 
L 198.657924 -49.154432 
L 197.809029 -49.154432 
L 196.960134 -49.154432 
L 196.111239 -49.154432 
L 195.262344 -49.154432 
L 194.413449 -49.154432 
L 193.564554 -49.154432 
L 192.715659 -49.154432 
L 191.866764 -49.154432 
L 191.017869 -49.154432 
L 190.168974 -49.154432 
L 189.320079 -49.154432 
L 188.471184 -49.154432 
L 187.62229 -49.154432 
L 186.773395 -49.154432 
L 185.9245 -49.154432 
L 185.075605 -49.154432 
L 184.22671 -49.154432 
L 183.377815 -49.154432 
L 182.52892 -49.154432 
L 181.680025 -49.154432 
L 180.83113 -49.154432 
L 179.982235 -49.154432 
L 179.13334 -49.154432 
L 178.284445 -49.154432 
L 177.43555 -49.154432 
L 176.586655 -49.154432 
L 175.73776 -49.154432 
L 174.888865 -49.154432 
L 174.03997 -49.154432 
L 173.191075 -49.154432 
L 172.34218 -49.154432 
L 171.493285 -49.154432 
L 170.64439 -49.154432 
L 169.795495 -49.154432 
L 168.9466 -49.154432 
L 168.097705 -49.154432 
L 167.24881 -49.154432 
L 166.399915 -49.154432 
L 165.55102 -49.154432 
L 164.702125 -49.154432 
L 163.853231 -49.154432 
L 163.004336 -49.154432 
L 162.155441 -49.154432 
L 161.306546 -49.154432 
L 160.457651 -49.154432 
L 159.608756 -49.154432 
L 158.759861 -49.154432 
L 157.910966 -49.154432 
L 157.062071 -49.154432 
L 156.213176 -49.154432 
L 155.364281 -49.154432 
L 154.515386 -49.154432 
L 153.666491 -49.154432 
L 152.817596 -49.154432 
L 151.968701 -49.154432 
L 151.119806 -49.154432 
L 150.270911 -49.154432 
L 149.422016 -49.154432 
L 148.573121 -49.154432 
L 147.724226 -49.154432 
L 146.875331 -49.154432 
L 146.026436 -49.154432 
L 145.177541 -49.154432 
L 144.328646 -49.154432 
L 143.479751 -49.154432 
L 142.630856 -49.154432 
L 141.781961 -49.154432 
L 140.933066 -49.154432 
L 140.084172 -49.154432 
L 139.235277 -49.154432 
L 138.386382 -49.154432 
L 137.537487 -49.154432 
L 136.688592 -49.154432 
L 135.839697 -49.154432 
L 134.990802 -49.154432 
L 134.141907 -49.154432 
L 133.293012 -49.154432 
L 132.444117 -49.154432 
L 131.595222 -49.154432 
L 130.746327 -49.154432 
L 129.897432 -49.154432 
L 129.048537 -49.154432 
L 128.199642 -49.154432 
L 127.350747 -49.154432 
L 126.501852 -49.154432 
L 125.652957 -49.154432 
L 124.804062 -49.154432 
L 123.955167 -49.154432 
L 123.106272 -49.154432 
L 122.257377 -49.154432 
L 121.408482 -49.154432 
L 120.559587 -49.154432 
L 119.710692 -49.154432 
L 118.861797 -49.154432 
L 118.012902 -49.154432 
L 117.164007 -49.154432 
L 116.315112 -49.154432 
L 115.466218 -49.154432 
L 114.617323 -49.154432 
L 113.768428 -49.154432 
L 112.919533 -49.154432 
L 112.070638 -49.154432 
L 111.221743 -49.154432 
L 110.372848 -49.154432 
L 109.523953 -49.154432 
L 108.675058 -49.154432 
L 107.826163 -49.154432 
L 106.977268 -49.154432 
L 106.128373 -49.154432 
L 105.279478 -49.154432 
L 104.430583 -49.154432 
L 103.581688 -49.154432 
L 102.732793 -49.154432 
L 101.883898 -49.154432 
L 101.035003 -49.154432 
L 100.186108 -49.154432 
L 99.337213 -49.154432 
L 98.488318 -49.154432 
L 97.639423 -49.154432 
L 96.790528 -49.154432 
L 95.941633 -49.154432 
L 95.092738 -49.154432 
L 94.243843 -49.154432 
L 93.394948 -49.154432 
L 92.546053 -49.154432 
L 91.697159 -49.154432 
L 90.848264 -49.154432 
L 89.999369 -49.154432 
L 89.150474 -49.154432 
L 88.301579 -49.154432 
L 87.452684 -49.154432 
L 86.603789 -49.154432 
L 85.754894 -49.154432 
L 84.905999 -49.154432 
L 84.057104 -49.154432 
L 83.208209 -49.154432 
L 82.359314 -49.154432 
L 81.510419 -49.154432 
L 80.661524 -49.154432 
L 79.812629 -49.154432 
L 78.963734 -49.154432 
L 78.114839 -49.154432 
L 77.265944 -49.154432 
L 76.417049 -49.154432 
L 75.568154 -49.154432 
L 74.719259 -49.154432 
L 73.870364 -49.154432 
L 73.021469 -49.154432 
L 72.172574 -49.154432 
L 71.323679 -49.154432 
L 70.474784 -49.154432 
L 69.625889 -49.154432 
L 68.776994 -49.154432 
L 67.9281 -49.154432 
L 67.079205 -49.154432 
z
" style="stroke: #7aa6c2; stroke-opacity: 0.3"/>
    </defs>
    <g clip-path="url(#pb6d4341e4d)">
     <use xlink:href="#m14c56907ca" x="0" y="315.034375" style="fill: #7aa6c2; fill-opacity: 0.3; stroke: #7aa6c2; stroke-opacity: 0.3"/>
    </g>
   </g>
   <g id="matplotlib.axis_1">
    <g id="xtick_1">
     <g id="line2d_1">
      <path d="M 104.713548 277.478125 
L 104.713548 22.318125 
" clip-path="url(#pb6d4341e4d)" style="fill: none; stroke: #b0b0b0; stroke-opacity: 0.25; stroke-width: 0.8; stroke-linecap: square"/>
     </g>
     <g id="line2d_2">
      <defs>
       <path id="m6c9b07241e" d="M 0 0 
L 0 3.5 
" style="stroke: #000000; stroke-width: 0.8"/>
      </defs>
      <g>
       <use xlink:href="#m6c9b07241e" x="104.713548" y="277.478125" style="stroke: #000000; stroke-width: 0.8"/>
      </g>
     </g>
     <g id="text_1">
      <!-- 0 -->
      <g transform="translate(101.532298 292.076563) scale(0.1 -0.1)">
       <defs>
        <path id="DejaVuSans-30" d="M 2034 4250 
Q 1547 4250 1301 3770 
Q 1056 3291 1056 2328 
Q 1056 1369 1301 889 
Q 1547 409 2034 409 
Q 2525 409 2770 889 
Q 3016 1369 3016 2328 
Q 3016 3291 2770 3770 
Q 2525 4250 2034 4250 
z
M 2034 4750 
Q 2819 4750 3233 4129 
Q 3647 3509 3647 2328 
Q 3647 1150 3233 529 
Q 2819 -91 2034 -91 
Q 1250 -91 836 529 
Q 422 1150 422 2328 
Q 422 3509 836 4129 
Q 1250 4750 2034 4750 
z
" transform="scale(0.015625)"/>
       </defs>
       <use xlink:href="#DejaVuSans-30"/>
      </g>
     </g>
    </g>
    <g id="xtick_2">
     <g id="line2d_3">
      <path d="M 179.982235 277.478125 
L 179.982235 22.318125 
" clip-path="url(#pb6d4341e4d)" style="fill: none; stroke: #b0b0b0; stroke-opacity: 0.25; stroke-width: 0.8; stroke-linecap: square"/>
     </g>
     <g id="line2d_4">
      <g>
       <use xlink:href="#m6c9b07241e" x="179.982235" y="277.478125" style="stroke: #000000; stroke-width: 0.8"/>
      </g>
     </g>
     <g id="text_2">
      <!-- 2 -->
      <g transform="translate(176.800985 292.076563) scale(0.1 -0.1)">
       <defs>
        <path id="DejaVuSans-32" d="M 1228 531 
L 3431 531 
L 3431 0 
L 469 0 
L 469 531 
Q 828 903 1448 1529 
Q 2069 2156 2228 2338 
Q 2531 2678 2651 2914 
Q 2772 3150 2772 3378 
Q 2772 3750 2511 3984 
Q 2250 4219 1831 4219 
Q 1534 4219 1204 4116 
Q 875 4013 500 3803 
L 500 4441 
Q 881 4594 1212 4672 
Q 1544 4750 1819 4750 
Q 2544 4750 2975 4387 
Q 3406 4025 3406 3419 
Q 3406 3131 3298 2873 
Q 3191 2616 2906 2266 
Q 2828 2175 2409 1742 
Q 1991 1309 1228 531 
z
" transform="scale(0.015625)"/>
       </defs>
       <use xlink:href="#DejaVuSans-32"/>
      </g>
     </g>
    </g>
    <g id="xtick_3">
     <g id="line2d_5">
      <path d="M 255.250922 277.478125 
L 255.250922 22.318125 
" clip-path="url(#pb6d4341e4d)" style="fill: none; stroke: #b0b0b0; stroke-opacity: 0.25; stroke-width: 0.8; stroke-linecap: square"/>
     </g>
     <g id="line2d_6">
      <g>
       <use xlink:href="#m6c9b07241e" x="255.250922" y="277.478125" style="stroke: #000000; stroke-width: 0.8"/>
      </g>
     </g>
     <g id="text_3">
      <!-- 4 -->
      <g transform="translate(252.069672 292.076563) scale(0.1 -0.1)">
       <defs>
        <path id="DejaVuSans-34" d="M 2419 4116 
L 825 1625 
L 2419 1625 
L 2419 4116 
z
M 2253 4666 
L 3047 4666 
L 3047 1625 
L 3713 1625 
L 3713 1100 
L 3047 1100 
L 3047 0 
L 2419 0 
L 2419 1100 
L 313 1100 
L 313 1709 
L 2253 4666 
z
" transform="scale(0.015625)"/>
       </defs>
       <use xlink:href="#DejaVuSans-34"/>
      </g>
     </g>
    </g>
    <g id="xtick_4">
     <g id="line2d_7">
      <path d="M 330.519609 277.478125 
L 330.519609 22.318125 
" clip-path="url(#pb6d4341e4d)" style="fill: none; stroke: #b0b0b0; stroke-opacity: 0.25; stroke-width: 0.8; stroke-linecap: square"/>
     </g>
     <g id="line2d_8">
      <g>
       <use xlink:href="#m6c9b07241e" x="330.519609" y="277.478125" style="stroke: #000000; stroke-width: 0.8"/>
      </g>
     </g>
     <g id="text_4">
      <!-- 6 -->
      <g transform="translate(327.338359 292.076563) scale(0.1 -0.1)">
       <defs>
        <path id="DejaVuSans-36" d="M 2113 2584 
Q 1688 2584 1439 2293 
Q 1191 2003 1191 1497 
Q 1191 994 1439 701 
Q 1688 409 2113 409 
Q 2538 409 2786 701 
Q 3034 994 3034 1497 
Q 3034 2003 2786 2293 
Q 2538 2584 2113 2584 
z
M 3366 4563 
L 3366 3988 
Q 3128 4100 2886 4159 
Q 2644 4219 2406 4219 
Q 1781 4219 1451 3797 
Q 1122 3375 1075 2522 
Q 1259 2794 1537 2939 
Q 1816 3084 2150 3084 
Q 2853 3084 3261 2657 
Q 3669 2231 3669 1497 
Q 3669 778 3244 343 
Q 2819 -91 2113 -91 
Q 1303 -91 875 529 
Q 447 1150 447 2328 
Q 447 3434 972 4092 
Q 1497 4750 2381 4750 
Q 2619 4750 2861 4703 
Q 3103 4656 3366 4563 
z
" transform="scale(0.015625)"/>
       </defs>
       <use xlink:href="#DejaVuSans-36"/>
      </g>
     </g>
    </g>
    <g id="xtick_5">
     <g id="line2d_9">
      <path d="M 405.788295 277.478125 
L 405.788295 22.318125 
" clip-path="url(#pb6d4341e4d)" style="fill: none; stroke: #b0b0b0; stroke-opacity: 0.25; stroke-width: 0.8; stroke-linecap: square"/>
     </g>
     <g id="line2d_10">
      <g>
       <use xlink:href="#m6c9b07241e" x="405.788295" y="277.478125" style="stroke: #000000; stroke-width: 0.8"/>
      </g>
     </g>
     <g id="text_5">
      <!-- 8 -->
      <g transform="translate(402.607045 292.076563) scale(0.1 -0.1)">
       <defs>
        <path id="DejaVuSans-38" d="M 2034 2216 
Q 1584 2216 1326 1975 
Q 1069 1734 1069 1313 
Q 1069 891 1326 650 
Q 1584 409 2034 409 
Q 2484 409 2743 651 
Q 3003 894 3003 1313 
Q 3003 1734 2745 1975 
Q 2488 2216 2034 2216 
z
M 1403 2484 
Q 997 2584 770 2862 
Q 544 3141 544 3541 
Q 544 4100 942 4425 
Q 1341 4750 2034 4750 
Q 2731 4750 3128 4425 
Q 3525 4100 3525 3541 
Q 3525 3141 3298 2862 
Q 3072 2584 2669 2484 
Q 3125 2378 3379 2068 
Q 3634 1759 3634 1313 
Q 3634 634 3220 271 
Q 2806 -91 2034 -91 
Q 1263 -91 848 271 
Q 434 634 434 1313 
Q 434 1759 690 2068 
Q 947 2378 1403 2484 
z
M 1172 3481 
Q 1172 3119 1398 2916 
Q 1625 2713 2034 2713 
Q 2441 2713 2670 2916 
Q 2900 3119 2900 3481 
Q 2900 3844 2670 4047 
Q 2441 4250 2034 4250 
Q 1625 4250 1398 4047 
Q 1172 3844 1172 3481 
z
" transform="scale(0.015625)"/>
       </defs>
       <use xlink:href="#DejaVuSans-38"/>
      </g>
     </g>
    </g>
    <g id="text_6">
     <!-- x -->
     <g transform="translate(233.474375 305.754687) scale(0.1 -0.1)">
      <defs>
       <path id="DejaVuSans-78" d="M 3513 3500 
L 2247 1797 
L 3578 0 
L 2900 0 
L 1881 1375 
L 863 0 
L 184 0 
L 1544 1831 
L 300 3500 
L 978 3500 
L 1906 2253 
L 2834 3500 
L 3513 3500 
z
" transform="scale(0.015625)"/>
      </defs>
      <use xlink:href="#DejaVuSans-78"/>
     </g>
    </g>
   </g>
   <g id="matplotlib.axis_2">
    <g id="ytick_1">
     <g id="line2d_11">
      <path d="M 50.14375 265.879943 
L 422.72375 265.879943 
" clip-path="url(#pb6d4341e4d)" style="fill: none; stroke: #b0b0b0; stroke-opacity: 0.25; stroke-width: 0.8; stroke-linecap: square"/>
     </g>
     <g id="line2d_12">
      <defs>
       <path id="md573b903f3" d="M 0 0 
L -3.5 0 
" style="stroke: #000000; stroke-width: 0.8"/>
      </defs>
      <g>
       <use xlink:href="#md573b903f3" x="50.14375" y="265.879943" style="stroke: #000000; stroke-width: 0.8"/>
      </g>
     </g>
     <g id="text_7">
      <!-- 0.00 -->
      <g transform="translate(20.878125 269.679162) scale(0.1 -0.1)">
       <defs>
        <path id="DejaVuSans-2e" d="M 684 794 
L 1344 794 
L 1344 0 
L 684 0 
L 684 794 
z
" transform="scale(0.015625)"/>
       </defs>
       <use xlink:href="#DejaVuSans-30"/>
       <use xlink:href="#DejaVuSans-2e" transform="translate(63.623047 0)"/>
       <use xlink:href="#DejaVuSans-30" transform="translate(95.410156 0)"/>
       <use xlink:href="#DejaVuSans-30" transform="translate(159.033203 0)"/>
      </g>
     </g>
    </g>
    <g id="ytick_2">
     <g id="line2d_13">
      <path d="M 50.14375 230.992462 
L 422.72375 230.992462 
" clip-path="url(#pb6d4341e4d)" style="fill: none; stroke: #b0b0b0; stroke-opacity: 0.25; stroke-width: 0.8; stroke-linecap: square"/>
     </g>
     <g id="line2d_14">
      <g>
       <use xlink:href="#md573b903f3" x="50.14375" y="230.992462" style="stroke: #000000; stroke-width: 0.8"/>
      </g>
     </g>
     <g id="text_8">
      <!-- 0.05 -->
      <g transform="translate(20.878125 234.791681) scale(0.1 -0.1)">
       <defs>
        <path id="DejaVuSans-35" d="M 691 4666 
L 3169 4666 
L 3169 4134 
L 1269 4134 
L 1269 2991 
Q 1406 3038 1543 3061 
Q 1681 3084 1819 3084 
Q 2600 3084 3056 2656 
Q 3513 2228 3513 1497 
Q 3513 744 3044 326 
Q 2575 -91 1722 -91 
Q 1428 -91 1123 -41 
Q 819 9 494 109 
L 494 744 
Q 775 591 1075 516 
Q 1375 441 1709 441 
Q 2250 441 2565 725 
Q 2881 1009 2881 1497 
Q 2881 1984 2565 2268 
Q 2250 2553 1709 2553 
Q 1456 2553 1204 2497 
Q 953 2441 691 2322 
L 691 4666 
z
" transform="scale(0.015625)"/>
       </defs>
       <use xlink:href="#DejaVuSans-30"/>
       <use xlink:href="#DejaVuSans-2e" transform="translate(63.623047 0)"/>
       <use xlink:href="#DejaVuSans-30" transform="translate(95.410156 0)"/>
       <use xlink:href="#DejaVuSans-35" transform="translate(159.033203 0)"/>
      </g>
     </g>
    </g>
    <g id="ytick_3">
     <g id="line2d_15">
      <path d="M 50.14375 196.10498 
L 422.72375 196.10498 
" clip-path="url(#pb6d4341e4d)" style="fill: none; stroke: #b0b0b0; stroke-opacity: 0.25; stroke-width: 0.8; stroke-linecap: square"/>
     </g>
     <g id="line2d_16">
      <g>
       <use xlink:href="#md573b903f3" x="50.14375" y="196.10498" style="stroke: #000000; stroke-width: 0.8"/>
      </g>
     </g>
     <g id="text_9">
      <!-- 0.10 -->
      <g transform="translate(20.878125 199.904199) scale(0.1 -0.1)">
       <defs>
        <path id="DejaVuSans-31" d="M 794 531 
L 1825 531 
L 1825 4091 
L 703 3866 
L 703 4441 
L 1819 4666 
L 2450 4666 
L 2450 531 
L 3481 531 
L 3481 0 
L 794 0 
L 794 531 
z
" transform="scale(0.015625)"/>
       </defs>
       <use xlink:href="#DejaVuSans-30"/>
       <use xlink:href="#DejaVuSans-2e" transform="translate(63.623047 0)"/>
       <use xlink:href="#DejaVuSans-31" transform="translate(95.410156 0)"/>
       <use xlink:href="#DejaVuSans-30" transform="translate(159.033203 0)"/>
      </g>
     </g>
    </g>
    <g id="ytick_4">
     <g id="line2d_17">
      <path d="M 50.14375 161.217499 
L 422.72375 161.217499 
" clip-path="url(#pb6d4341e4d)" style="fill: none; stroke: #b0b0b0; stroke-opacity: 0.25; stroke-width: 0.8; stroke-linecap: square"/>
     </g>
     <g id="line2d_18">
      <g>
       <use xlink:href="#md573b903f3" x="50.14375" y="161.217499" style="stroke: #000000; stroke-width: 0.8"/>
      </g>
     </g>
     <g id="text_10">
      <!-- 0.15 -->
      <g transform="translate(20.878125 165.016718) scale(0.1 -0.1)">
       <use xlink:href="#DejaVuSans-30"/>
       <use xlink:href="#DejaVuSans-2e" transform="translate(63.623047 0)"/>
       <use xlink:href="#DejaVuSans-31" transform="translate(95.410156 0)"/>
       <use xlink:href="#DejaVuSans-35" transform="translate(159.033203 0)"/>
      </g>
     </g>
    </g>
    <g id="ytick_5">
     <g id="line2d_19">
      <path d="M 50.14375 126.330018 
L 422.72375 126.330018 
" clip-path="url(#pb6d4341e4d)" style="fill: none; stroke: #b0b0b0; stroke-opacity: 0.25; stroke-width: 0.8; stroke-linecap: square"/>
     </g>
     <g id="line2d_20">
      <g>
       <use xlink:href="#md573b903f3" x="50.14375" y="126.330018" style="stroke: #000000; stroke-width: 0.8"/>
      </g>
     </g>
     <g id="text_11">
      <!-- 0.20 -->
      <g transform="translate(20.878125 130.129236) scale(0.1 -0.1)">
       <use xlink:href="#DejaVuSans-30"/>
       <use xlink:href="#DejaVuSans-2e" transform="translate(63.623047 0)"/>
       <use xlink:href="#DejaVuSans-32" transform="translate(95.410156 0)"/>
       <use xlink:href="#DejaVuSans-30" transform="translate(159.033203 0)"/>
      </g>
     </g>
    </g>
    <g id="ytick_6">
     <g id="line2d_21">
      <path d="M 50.14375 91.442536 
L 422.72375 91.442536 
" clip-path="url(#pb6d4341e4d)" style="fill: none; stroke: #b0b0b0; stroke-opacity: 0.25; stroke-width: 0.8; stroke-linecap: square"/>
     </g>
     <g id="line2d_22">
      <g>
       <use xlink:href="#md573b903f3" x="50.14375" y="91.442536" style="stroke: #000000; stroke-width: 0.8"/>
      </g>
     </g>
     <g id="text_12">
      <!-- 0.25 -->
      <g transform="translate(20.878125 95.241755) scale(0.1 -0.1)">
       <use xlink:href="#DejaVuSans-30"/>
       <use xlink:href="#DejaVuSans-2e" transform="translate(63.623047 0)"/>
       <use xlink:href="#DejaVuSans-32" transform="translate(95.410156 0)"/>
       <use xlink:href="#DejaVuSans-35" transform="translate(159.033203 0)"/>
      </g>
     </g>
    </g>
    <g id="ytick_7">
     <g id="line2d_23">
      <path d="M 50.14375 56.555055 
L 422.72375 56.555055 
" clip-path="url(#pb6d4341e4d)" style="fill: none; stroke: #b0b0b0; stroke-opacity: 0.25; stroke-width: 0.8; stroke-linecap: square"/>
     </g>
     <g id="line2d_24">
      <g>
       <use xlink:href="#md573b903f3" x="50.14375" y="56.555055" style="stroke: #000000; stroke-width: 0.8"/>
      </g>
     </g>
     <g id="text_13">
      <!-- 0.30 -->
      <g transform="translate(20.878125 60.354274) scale(0.1 -0.1)">
       <defs>
        <path id="DejaVuSans-33" d="M 2597 2516 
Q 3050 2419 3304 2112 
Q 3559 1806 3559 1356 
Q 3559 666 3084 287 
Q 2609 -91 1734 -91 
Q 1441 -91 1130 -33 
Q 819 25 488 141 
L 488 750 
Q 750 597 1062 519 
Q 1375 441 1716 441 
Q 2309 441 2620 675 
Q 2931 909 2931 1356 
Q 2931 1769 2642 2001 
Q 2353 2234 1838 2234 
L 1294 2234 
L 1294 2753 
L 1863 2753 
Q 2328 2753 2575 2939 
Q 2822 3125 2822 3475 
Q 2822 3834 2567 4026 
Q 2313 4219 1838 4219 
Q 1578 4219 1281 4162 
Q 984 4106 628 3988 
L 628 4550 
Q 988 4650 1302 4700 
Q 1616 4750 1894 4750 
Q 2613 4750 3031 4423 
Q 3450 4097 3450 3541 
Q 3450 3153 3228 2886 
Q 3006 2619 2597 2516 
z
" transform="scale(0.015625)"/>
       </defs>
       <use xlink:href="#DejaVuSans-30"/>
       <use xlink:href="#DejaVuSans-2e" transform="translate(63.623047 0)"/>
       <use xlink:href="#DejaVuSans-33" transform="translate(95.410156 0)"/>
       <use xlink:href="#DejaVuSans-30" transform="translate(159.033203 0)"/>
      </g>
     </g>
    </g>
    <g id="text_14">
     <!-- PDF f(x) -->
     <g transform="translate(14.798438 169.848906) rotate(-90) scale(0.1 -0.1)">
      <defs>
       <path id="DejaVuSans-50" d="M 1259 4147 
L 1259 2394 
L 2053 2394 
Q 2494 2394 2734 2622 
Q 2975 2850 2975 3272 
Q 2975 3691 2734 3919 
Q 2494 4147 2053 4147 
L 1259 4147 
z
M 628 4666 
L 2053 4666 
Q 2838 4666 3239 4311 
Q 3641 3956 3641 3272 
Q 3641 2581 3239 2228 
Q 2838 1875 2053 1875 
L 1259 1875 
L 1259 0 
L 628 0 
L 628 4666 
z
" transform="scale(0.015625)"/>
       <path id="DejaVuSans-44" d="M 1259 4147 
L 1259 519 
L 2022 519 
Q 2988 519 3436 956 
Q 3884 1394 3884 2338 
Q 3884 3275 3436 3711 
Q 2988 4147 2022 4147 
L 1259 4147 
z
M 628 4666 
L 1925 4666 
Q 3281 4666 3915 4102 
Q 4550 3538 4550 2338 
Q 4550 1131 3912 565 
Q 3275 0 1925 0 
L 628 0 
L 628 4666 
z
" transform="scale(0.015625)"/>
       <path id="DejaVuSans-46" d="M 628 4666 
L 3309 4666 
L 3309 4134 
L 1259 4134 
L 1259 2759 
L 3109 2759 
L 3109 2228 
L 1259 2228 
L 1259 0 
L 628 0 
L 628 4666 
z
" transform="scale(0.015625)"/>
       <path id="DejaVuSans-20" transform="scale(0.015625)"/>
       <path id="DejaVuSans-66" d="M 2375 4863 
L 2375 4384 
L 1825 4384 
Q 1516 4384 1395 4259 
Q 1275 4134 1275 3809 
L 1275 3500 
L 2222 3500 
L 2222 3053 
L 1275 3053 
L 1275 0 
L 697 0 
L 697 3053 
L 147 3053 
L 147 3500 
L 697 3500 
L 697 3744 
Q 697 4328 969 4595 
Q 1241 4863 1831 4863 
L 2375 4863 
z
" transform="scale(0.015625)"/>
       <path id="DejaVuSans-28" d="M 1984 4856 
Q 1566 4138 1362 3434 
Q 1159 2731 1159 2009 
Q 1159 1288 1364 580 
Q 1569 -128 1984 -844 
L 1484 -844 
Q 1016 -109 783 600 
Q 550 1309 550 2009 
Q 550 2706 781 3412 
Q 1013 4119 1484 4856 
L 1984 4856 
z
" transform="scale(0.015625)"/>
       <path id="DejaVuSans-29" d="M 513 4856 
L 1013 4856 
Q 1481 4119 1714 3412 
Q 1947 2706 1947 2009 
Q 1947 1309 1714 600 
Q 1481 -109 1013 -844 
L 513 -844 
Q 928 -128 1133 580 
Q 1338 1288 1338 2009 
Q 1338 2731 1133 3434 
Q 928 4138 513 4856 
z
" transform="scale(0.015625)"/>
      </defs>
      <use xlink:href="#DejaVuSans-50"/>
      <use xlink:href="#DejaVuSans-44" transform="translate(60.302734 0)"/>
      <use xlink:href="#DejaVuSans-46" transform="translate(137.304688 0)"/>
      <use xlink:href="#DejaVuSans-20" transform="translate(194.824219 0)"/>
      <use xlink:href="#DejaVuSans-66" transform="translate(226.611328 0)"/>
      <use xlink:href="#DejaVuSans-28" transform="translate(261.816406 0)"/>
      <use xlink:href="#DejaVuSans-78" transform="translate(300.830078 0)"/>
      <use xlink:href="#DejaVuSans-29" transform="translate(360.009766 0)"/>
     </g>
    </g>
   </g>
   <g id="line2d_25">
    <path d="M 67.079205 264.983173 
L 73.870364 264.416208 
L 78.963734 263.797355 
L 84.057104 262.954306 
L 88.301579 262.033895 
L 92.546053 260.868385 
L 95.941633 259.725665 
L 99.337213 258.364988 
L 102.732793 256.755204 
L 106.128373 254.863045 
L 109.523953 252.6535 
L 112.070638 250.766282 
L 114.617323 248.664618 
L 117.164007 246.332959 
L 119.710692 243.755962 
L 122.257377 240.918727 
L 124.804062 237.80705 
L 127.350747 234.407708 
L 129.897432 230.708761 
L 132.444117 226.699864 
L 135.839697 220.858284 
L 139.235277 214.43739 
L 142.630856 207.432117 
L 146.026436 199.847243 
L 149.422016 191.69862 
L 152.817596 183.01422 
L 157.062071 171.468902 
L 161.306546 159.260981 
L 166.399915 143.940371 
L 185.075605 86.948434 
L 188.471184 77.520271 
L 191.866764 68.713111 
L 194.413449 62.594114 
L 196.960134 56.950657 
L 199.506819 51.832274 
L 202.053504 47.284726 
L 204.600189 43.349324 
L 206.297979 41.083924 
L 207.995769 39.116175 
L 209.693559 37.454265 
L 211.391349 36.105147 
L 213.089138 35.074492 
L 214.786928 34.366644 
L 216.484718 33.984596 
L 218.182508 33.929966 
L 219.880298 34.202986 
L 221.578088 34.802499 
L 223.275878 35.725969 
L 224.973668 36.969498 
L 226.671458 38.527853 
L 228.369248 40.394506 
L 230.067038 42.561673 
L 231.764828 45.020374 
L 234.311513 49.23263 
L 236.858197 54.039262 
L 239.404882 59.396902 
L 241.951567 65.258023 
L 245.347147 73.767526 
L 248.742727 82.95315 
L 252.987202 95.182467 
L 258.080572 110.604401 
L 274.209576 160.092767 
L 278.454051 172.260595 
L 282.698526 183.757473 
L 286.094105 192.398606 
L 289.489685 200.501144 
L 292.885265 208.038163 
L 296.280845 214.994776 
L 299.676425 221.367074 
L 303.072005 227.160884 
L 306.467585 232.390429 
L 309.014269 235.954838 
L 311.560954 239.224772 
L 314.107639 242.212777 
L 316.654324 244.93255 
L 319.201009 247.398635 
L 321.747694 249.626163 
L 325.143274 252.251853 
L 328.538854 254.517795 
L 331.934434 256.46038 
L 335.330013 258.114864 
L 338.725593 259.514834 
L 342.121173 260.691816 
L 346.365648 261.893697 
L 350.610123 262.844086 
L 355.703493 263.715839 
L 360.796862 264.356764 
L 366.739127 264.884949 
L 374.379182 265.318889 
L 383.717026 265.612016 
L 397.299346 265.795224 
L 405.788295 265.840542 
L 405.788295 265.840542 
" clip-path="url(#pb6d4341e4d)" style="fill: none; stroke: #7aa6c2; stroke-width: 2; stroke-linecap: square"/>
   </g>
   <g id="line2d_26">
    <path d="M 217.616578 277.478125 
L 217.616578 22.318125 
" clip-path="url(#pb6d4341e4d)" style="fill: none; stroke-dasharray: 7.4,3.2; stroke-dashoffset: 0; stroke: #e15759; stroke-width: 2"/>
   </g>
   <g id="patch_3">
    <path d="M 50.14375 277.478125 
L 50.14375 22.318125 
" style="fill: none; stroke: #000000; stroke-width: 0.8; stroke-linejoin: miter; stroke-linecap: square"/>
   </g>
   <g id="patch_4">
    <path d="M 422.72375 277.478125 
L 422.72375 22.318125 
" style="fill: none; stroke: #000000; stroke-width: 0.8; stroke-linejoin: miter; stroke-linecap: square"/>
   </g>
   <g id="patch_5">
    <path d="M 50.14375 277.478125 
L 422.72375 277.478125 
" style="fill: none; stroke: #000000; stroke-width: 0.8; stroke-linejoin: miter; stroke-linecap: square"/>
   </g>
   <g id="patch_6">
    <path d="M 50.14375 22.318125 
L 422.72375 22.318125 
" style="fill: none; stroke: #000000; stroke-width: 0.8; stroke-linejoin: miter; stroke-linecap: square"/>
   </g>
   <g id="text_15">
    <!-- Symmetric (Normal): E[X] = mode = median -->
    <g transform="translate(101.907188 16.318125) scale(0.12 -0.12)">
     <defs>
      <path id="DejaVuSans-53" d="M 3425 4513 
L 3425 3897 
Q 3066 4069 2747 4153 
Q 2428 4238 2131 4238 
Q 1616 4238 1336 4038 
Q 1056 3838 1056 3469 
Q 1056 3159 1242 3001 
Q 1428 2844 1947 2747 
L 2328 2669 
Q 3034 2534 3370 2195 
Q 3706 1856 3706 1288 
Q 3706 609 3251 259 
Q 2797 -91 1919 -91 
Q 1588 -91 1214 -16 
Q 841 59 441 206 
L 441 856 
Q 825 641 1194 531 
Q 1563 422 1919 422 
Q 2459 422 2753 634 
Q 3047 847 3047 1241 
Q 3047 1584 2836 1778 
Q 2625 1972 2144 2069 
L 1759 2144 
Q 1053 2284 737 2584 
Q 422 2884 422 3419 
Q 422 4038 858 4394 
Q 1294 4750 2059 4750 
Q 2388 4750 2728 4690 
Q 3069 4631 3425 4513 
z
" transform="scale(0.015625)"/>
      <path id="DejaVuSans-79" d="M 2059 -325 
Q 1816 -950 1584 -1140 
Q 1353 -1331 966 -1331 
L 506 -1331 
L 506 -850 
L 844 -850 
Q 1081 -850 1212 -737 
Q 1344 -625 1503 -206 
L 1606 56 
L 191 3500 
L 800 3500 
L 1894 763 
L 2988 3500 
L 3597 3500 
L 2059 -325 
z
" transform="scale(0.015625)"/>
      <path id="DejaVuSans-6d" d="M 3328 2828 
Q 3544 3216 3844 3400 
Q 4144 3584 4550 3584 
Q 5097 3584 5394 3201 
Q 5691 2819 5691 2113 
L 5691 0 
L 5113 0 
L 5113 2094 
Q 5113 2597 4934 2840 
Q 4756 3084 4391 3084 
Q 3944 3084 3684 2787 
Q 3425 2491 3425 1978 
L 3425 0 
L 2847 0 
L 2847 2094 
Q 2847 2600 2669 2842 
Q 2491 3084 2119 3084 
Q 1678 3084 1418 2786 
Q 1159 2488 1159 1978 
L 1159 0 
L 581 0 
L 581 3500 
L 1159 3500 
L 1159 2956 
Q 1356 3278 1631 3431 
Q 1906 3584 2284 3584 
Q 2666 3584 2933 3390 
Q 3200 3197 3328 2828 
z
" transform="scale(0.015625)"/>
      <path id="DejaVuSans-65" d="M 3597 1894 
L 3597 1613 
L 953 1613 
Q 991 1019 1311 708 
Q 1631 397 2203 397 
Q 2534 397 2845 478 
Q 3156 559 3463 722 
L 3463 178 
Q 3153 47 2828 -22 
Q 2503 -91 2169 -91 
Q 1331 -91 842 396 
Q 353 884 353 1716 
Q 353 2575 817 3079 
Q 1281 3584 2069 3584 
Q 2775 3584 3186 3129 
Q 3597 2675 3597 1894 
z
M 3022 2063 
Q 3016 2534 2758 2815 
Q 2500 3097 2075 3097 
Q 1594 3097 1305 2825 
Q 1016 2553 972 2059 
L 3022 2063 
z
" transform="scale(0.015625)"/>
      <path id="DejaVuSans-74" d="M 1172 4494 
L 1172 3500 
L 2356 3500 
L 2356 3053 
L 1172 3053 
L 1172 1153 
Q 1172 725 1289 603 
Q 1406 481 1766 481 
L 2356 481 
L 2356 0 
L 1766 0 
Q 1100 0 847 248 
Q 594 497 594 1153 
L 594 3053 
L 172 3053 
L 172 3500 
L 594 3500 
L 594 4494 
L 1172 4494 
z
" transform="scale(0.015625)"/>
      <path id="DejaVuSans-72" d="M 2631 2963 
Q 2534 3019 2420 3045 
Q 2306 3072 2169 3072 
Q 1681 3072 1420 2755 
Q 1159 2438 1159 1844 
L 1159 0 
L 581 0 
L 581 3500 
L 1159 3500 
L 1159 2956 
Q 1341 3275 1631 3429 
Q 1922 3584 2338 3584 
Q 2397 3584 2469 3576 
Q 2541 3569 2628 3553 
L 2631 2963 
z
" transform="scale(0.015625)"/>
      <path id="DejaVuSans-69" d="M 603 3500 
L 1178 3500 
L 1178 0 
L 603 0 
L 603 3500 
z
M 603 4863 
L 1178 4863 
L 1178 4134 
L 603 4134 
L 603 4863 
z
" transform="scale(0.015625)"/>
      <path id="DejaVuSans-63" d="M 3122 3366 
L 3122 2828 
Q 2878 2963 2633 3030 
Q 2388 3097 2138 3097 
Q 1578 3097 1268 2742 
Q 959 2388 959 1747 
Q 959 1106 1268 751 
Q 1578 397 2138 397 
Q 2388 397 2633 464 
Q 2878 531 3122 666 
L 3122 134 
Q 2881 22 2623 -34 
Q 2366 -91 2075 -91 
Q 1284 -91 818 406 
Q 353 903 353 1747 
Q 353 2603 823 3093 
Q 1294 3584 2113 3584 
Q 2378 3584 2631 3529 
Q 2884 3475 3122 3366 
z
" transform="scale(0.015625)"/>
      <path id="DejaVuSans-4e" d="M 628 4666 
L 1478 4666 
L 3547 763 
L 3547 4666 
L 4159 4666 
L 4159 0 
L 3309 0 
L 1241 3903 
L 1241 0 
L 628 0 
L 628 4666 
z
" transform="scale(0.015625)"/>
      <path id="DejaVuSans-6f" d="M 1959 3097 
Q 1497 3097 1228 2736 
Q 959 2375 959 1747 
Q 959 1119 1226 758 
Q 1494 397 1959 397 
Q 2419 397 2687 759 
Q 2956 1122 2956 1747 
Q 2956 2369 2687 2733 
Q 2419 3097 1959 3097 
z
M 1959 3584 
Q 2709 3584 3137 3096 
Q 3566 2609 3566 1747 
Q 3566 888 3137 398 
Q 2709 -91 1959 -91 
Q 1206 -91 779 398 
Q 353 888 353 1747 
Q 353 2609 779 3096 
Q 1206 3584 1959 3584 
z
" transform="scale(0.015625)"/>
      <path id="DejaVuSans-61" d="M 2194 1759 
Q 1497 1759 1228 1600 
Q 959 1441 959 1056 
Q 959 750 1161 570 
Q 1363 391 1709 391 
Q 2188 391 2477 730 
Q 2766 1069 2766 1631 
L 2766 1759 
L 2194 1759 
z
M 3341 1997 
L 3341 0 
L 2766 0 
L 2766 531 
Q 2569 213 2275 61 
Q 1981 -91 1556 -91 
Q 1019 -91 701 211 
Q 384 513 384 1019 
Q 384 1609 779 1909 
Q 1175 2209 1959 2209 
L 2766 2209 
L 2766 2266 
Q 2766 2663 2505 2880 
Q 2244 3097 1772 3097 
Q 1472 3097 1187 3025 
Q 903 2953 641 2809 
L 641 3341 
Q 956 3463 1253 3523 
Q 1550 3584 1831 3584 
Q 2591 3584 2966 3190 
Q 3341 2797 3341 1997 
z
" transform="scale(0.015625)"/>
      <path id="DejaVuSans-6c" d="M 603 4863 
L 1178 4863 
L 1178 0 
L 603 0 
L 603 4863 
z
" transform="scale(0.015625)"/>
      <path id="DejaVuSans-3a" d="M 750 794 
L 1409 794 
L 1409 0 
L 750 0 
L 750 794 
z
M 750 3309 
L 1409 3309 
L 1409 2516 
L 750 2516 
L 750 3309 
z
" transform="scale(0.015625)"/>
      <path id="DejaVuSans-45" d="M 628 4666 
L 3578 4666 
L 3578 4134 
L 1259 4134 
L 1259 2753 
L 3481 2753 
L 3481 2222 
L 1259 2222 
L 1259 531 
L 3634 531 
L 3634 0 
L 628 0 
L 628 4666 
z
" transform="scale(0.015625)"/>
      <path id="DejaVuSans-5b" d="M 550 4863 
L 1875 4863 
L 1875 4416 
L 1125 4416 
L 1125 -397 
L 1875 -397 
L 1875 -844 
L 550 -844 
L 550 4863 
z
" transform="scale(0.015625)"/>
      <path id="DejaVuSans-58" d="M 403 4666 
L 1081 4666 
L 2241 2931 
L 3406 4666 
L 4084 4666 
L 2584 2425 
L 4184 0 
L 3506 0 
L 2194 1984 
L 872 0 
L 191 0 
L 1856 2491 
L 403 4666 
z
" transform="scale(0.015625)"/>
      <path id="DejaVuSans-5d" d="M 1947 4863 
L 1947 -844 
L 622 -844 
L 622 -397 
L 1369 -397 
L 1369 4416 
L 622 4416 
L 622 4863 
L 1947 4863 
z
" transform="scale(0.015625)"/>
      <path id="DejaVuSans-3d" d="M 678 2906 
L 4684 2906 
L 4684 2381 
L 678 2381 
L 678 2906 
z
M 678 1631 
L 4684 1631 
L 4684 1100 
L 678 1100 
L 678 1631 
z
" transform="scale(0.015625)"/>
      <path id="DejaVuSans-64" d="M 2906 2969 
L 2906 4863 
L 3481 4863 
L 3481 0 
L 2906 0 
L 2906 525 
Q 2725 213 2448 61 
Q 2172 -91 1784 -91 
Q 1150 -91 751 415 
Q 353 922 353 1747 
Q 353 2572 751 3078 
Q 1150 3584 1784 3584 
Q 2172 3584 2448 3432 
Q 2725 3281 2906 2969 
z
M 947 1747 
Q 947 1113 1208 752 
Q 1469 391 1925 391 
Q 2381 391 2643 752 
Q 2906 1113 2906 1747 
Q 2906 2381 2643 2742 
Q 2381 3103 1925 3103 
Q 1469 3103 1208 2742 
Q 947 2381 947 1747 
z
" transform="scale(0.015625)"/>
      <path id="DejaVuSans-6e" d="M 3513 2113 
L 3513 0 
L 2938 0 
L 2938 2094 
Q 2938 2591 2744 2837 
Q 2550 3084 2163 3084 
Q 1697 3084 1428 2787 
Q 1159 2491 1159 1978 
L 1159 0 
L 581 0 
L 581 3500 
L 1159 3500 
L 1159 2956 
Q 1366 3272 1645 3428 
Q 1925 3584 2291 3584 
Q 2894 3584 3203 3211 
Q 3513 2838 3513 2113 
z
" transform="scale(0.015625)"/>
     </defs>
     <use xlink:href="#DejaVuSans-53"/>
     <use xlink:href="#DejaVuSans-79" transform="translate(63.476562 0)"/>
     <use xlink:href="#DejaVuSans-6d" transform="translate(122.65625 0)"/>
     <use xlink:href="#DejaVuSans-6d" transform="translate(220.068359 0)"/>
     <use xlink:href="#DejaVuSans-65" transform="translate(317.480469 0)"/>
     <use xlink:href="#DejaVuSans-74" transform="translate(379.003906 0)"/>
     <use xlink:href="#DejaVuSans-72" transform="translate(418.212891 0)"/>
     <use xlink:href="#DejaVuSans-69" transform="translate(459.326172 0)"/>
     <use xlink:href="#DejaVuSans-63" transform="translate(487.109375 0)"/>
     <use xlink:href="#DejaVuSans-20" transform="translate(542.089844 0)"/>
     <use xlink:href="#DejaVuSans-28" transform="translate(573.876953 0)"/>
     <use xlink:href="#DejaVuSans-4e" transform="translate(612.890625 0)"/>
     <use xlink:href="#DejaVuSans-6f" transform="translate(687.695312 0)"/>
     <use xlink:href="#DejaVuSans-72" transform="translate(748.876953 0)"/>
     <use xlink:href="#DejaVuSans-6d" transform="translate(788.240234 0)"/>
     <use xlink:href="#DejaVuSans-61" transform="translate(885.652344 0)"/>
     <use xlink:href="#DejaVuSans-6c" transform="translate(946.931641 0)"/>
     <use xlink:href="#DejaVuSans-29" transform="translate(974.714844 0)"/>
     <use xlink:href="#DejaVuSans-3a" transform="translate(1013.728516 0)"/>
     <use xlink:href="#DejaVuSans-20" transform="translate(1047.419922 0)"/>
     <use xlink:href="#DejaVuSans-45" transform="translate(1079.207031 0)"/>
     <use xlink:href="#DejaVuSans-5b" transform="translate(1142.390625 0)"/>
     <use xlink:href="#DejaVuSans-58" transform="translate(1181.404297 0)"/>
     <use xlink:href="#DejaVuSans-5d" transform="translate(1249.910156 0)"/>
     <use xlink:href="#DejaVuSans-20" transform="translate(1288.923828 0)"/>
     <use xlink:href="#DejaVuSans-3d" transform="translate(1320.710938 0)"/>
     <use xlink:href="#DejaVuSans-20" transform="translate(1404.5 0)"/>
     <use xlink:href="#DejaVuSans-6d" transform="translate(1436.287109 0)"/>
     <use xlink:href="#DejaVuSans-6f" transform="translate(1533.699219 0)"/>
     <use xlink:href="#DejaVuSans-64" transform="translate(1594.880859 0)"/>
     <use xlink:href="#DejaVuSans-65" transform="translate(1658.357422 0)"/>
     <use xlink:href="#DejaVuSans-20" transform="translate(1719.880859 0)"/>
     <use xlink:href="#DejaVuSans-3d" transform="translate(1751.667969 0)"/>
     <use xlink:href="#DejaVuSans-20" transform="translate(1835.457031 0)"/>
     <use xlink:href="#DejaVuSans-6d" transform="translate(1867.244141 0)"/>
     <use xlink:href="#DejaVuSans-65" transform="translate(1964.65625 0)"/>
     <use xlink:href="#DejaVuSans-64" transform="translate(2026.179688 0)"/>
     <use xlink:href="#DejaVuSans-69" transform="translate(2089.65625 0)"/>
     <use xlink:href="#DejaVuSans-61" transform="translate(2117.439453 0)"/>
     <use xlink:href="#DejaVuSans-6e" transform="translate(2178.71875 0)"/>
    </g>
   </g>
   <g id="legend_1">
    <g id="patch_7">
     <path d="M 325.750313 44.99625 
L 415.72375 44.99625 
Q 417.72375 44.99625 417.72375 42.99625 
L 417.72375 29.318125 
Q 417.72375 27.318125 415.72375 27.318125 
L 325.750313 27.318125 
Q 323.750313 27.318125 323.750313 29.318125 
L 323.750313 42.99625 
Q 323.750313 44.99625 325.750313 44.99625 
z
" style="fill: #ffffff; opacity: 0.8; stroke: #cccccc; stroke-linejoin: miter"/>
    </g>
    <g id="line2d_27">
     <path d="M 327.750313 35.416562 
L 337.750313 35.416562 
L 347.750313 35.416562 
" style="fill: none; stroke-dasharray: 7.4,3.2; stroke-dashoffset: 0; stroke: #e15759; stroke-width: 2"/>
    </g>
    <g id="text_16">
     <!-- E[X] = 3.00 -->
     <g transform="translate(355.750313 38.916562) scale(0.1 -0.1)">
      <use xlink:href="#DejaVuSans-45"/>
      <use xlink:href="#DejaVuSans-5b" transform="translate(63.183594 0)"/>
      <use xlink:href="#DejaVuSans-58" transform="translate(102.197266 0)"/>
      <use xlink:href="#DejaVuSans-5d" transform="translate(170.703125 0)"/>
      <use xlink:href="#DejaVuSans-20" transform="translate(209.716797 0)"/>
      <use xlink:href="#DejaVuSans-3d" transform="translate(241.503906 0)"/>
      <use xlink:href="#DejaVuSans-20" transform="translate(325.292969 0)"/>
      <use xlink:href="#DejaVuSans-33" transform="translate(357.080078 0)"/>
      <use xlink:href="#DejaVuSans-2e" transform="translate(420.703125 0)"/>
      <use xlink:href="#DejaVuSans-30" transform="translate(452.490234 0)"/>
      <use xlink:href="#DejaVuSans-30" transform="translate(516.113281 0)"/>
     </g>
    </g>
   </g>
  </g>
  <g id="axes_2">
   <g id="patch_8">
    <path d="M 476.74375 277.478125 
L 849.32375 277.478125 
L 849.32375 22.318125 
L 476.74375 22.318125 
z
" style="fill: #ffffff"/>
   </g>
   <g id="FillBetweenPolyCollection_2">
    <defs>
     <path id="m0da467ecfc" d="M 493.679205 -49.154432 
L 493.679205 -49.154432 
L 494.5281 -49.154432 
L 495.376994 -49.154432 
L 496.225889 -49.154432 
L 497.074784 -49.154432 
L 497.923679 -49.154432 
L 498.772574 -49.154432 
L 499.621469 -49.154432 
L 500.470364 -49.154432 
L 501.319259 -49.154432 
L 502.168154 -49.154432 
L 503.017049 -49.154432 
L 503.865944 -49.154432 
L 504.714839 -49.154432 
L 505.563734 -49.154432 
L 506.412629 -49.154432 
L 507.261524 -49.154432 
L 508.110419 -49.154432 
L 508.959314 -49.154432 
L 509.808209 -49.154432 
L 510.657104 -49.154432 
L 511.505999 -49.154432 
L 512.354894 -49.154432 
L 513.203789 -49.154432 
L 514.052684 -49.154432 
L 514.901579 -49.154432 
L 515.750474 -49.154432 
L 516.599369 -49.154432 
L 517.448264 -49.154432 
L 518.297159 -49.154432 
L 519.146053 -49.154432 
L 519.994948 -49.154432 
L 520.843843 -49.154432 
L 521.692738 -49.154432 
L 522.541633 -49.154432 
L 523.390528 -49.154432 
L 524.239423 -49.154432 
L 525.088318 -49.154432 
L 525.937213 -49.154432 
L 526.786108 -49.154432 
L 527.635003 -49.154432 
L 528.483898 -49.154432 
L 529.332793 -49.154432 
L 530.181688 -49.154432 
L 531.030583 -49.154432 
L 531.879478 -49.154432 
L 532.728373 -49.154433 
L 533.577268 -49.154545 
L 534.426163 -49.156095 
L 535.275058 -49.165077 
L 536.123953 -49.196853 
L 536.972848 -49.279294 
L 537.821743 -49.452891 
L 538.670638 -49.768107 
L 539.519533 -50.281157 
L 540.368428 -51.049357 
L 541.217323 -52.1269 
L 542.066218 -53.561503 
L 542.915112 -55.392088 
L 543.764007 -57.647453 
L 544.612902 -60.345793 
L 545.461797 -63.494885 
L 546.310692 -67.092768 
L 547.159587 -71.128727 
L 548.008482 -75.58448 
L 548.857377 -80.435427 
L 549.706272 -85.651911 
L 550.555167 -91.200417 
L 551.404062 -97.044676 
L 552.252957 -103.146669 
L 553.101852 -109.467492 
L 553.950747 -115.96811 
L 554.799642 -122.609981 
L 555.648537 -129.355575 
L 556.497432 -136.168781 
L 557.346327 -143.015232 
L 558.195222 -149.862533 
L 559.044117 -156.680435 
L 559.893012 -163.440937 
L 560.741907 -170.118342 
L 561.590802 -176.689267 
L 562.439697 -183.132627 
L 563.288592 -189.429577 
L 564.137487 -195.563448 
L 564.986382 -201.519654 
L 565.835277 -207.285597 
L 566.684172 -212.850552 
L 567.533066 -218.205559 
L 568.381961 -223.343302 
L 569.230856 -228.257993 
L 570.079751 -232.945257 
L 570.928646 -237.402013 
L 571.777541 -241.626368 
L 572.626436 -245.617507 
L 573.475331 -249.37559 
L 574.324226 -252.901658 
L 575.173121 -256.197538 
L 576.022016 -259.265757 
L 576.870911 -262.109464 
L 577.719806 -264.732349 
L 578.568701 -267.138577 
L 579.417596 -269.332724 
L 580.266491 -271.319712 
L 581.115386 -273.104759 
L 581.964281 -274.693327 
L 582.813176 -276.091074 
L 583.662071 -277.303816 
L 584.510966 -278.337485 
L 585.359861 -279.198098 
L 586.208756 -279.891722 
L 587.057651 -280.424451 
L 587.906546 -280.802378 
L 588.755441 -281.031575 
L 589.604336 -281.118068 
L 590.453231 -281.067829 
L 591.302125 -280.886751 
L 592.15102 -280.580643 
L 592.999915 -280.155212 
L 593.84881 -279.616058 
L 594.697705 -278.968664 
L 595.5466 -278.218386 
L 596.395495 -277.370454 
L 597.24439 -276.42996 
L 598.093285 -275.40186 
L 598.94218 -274.290969 
L 599.791075 -273.101958 
L 600.63997 -271.839355 
L 601.488865 -270.507544 
L 602.33776 -269.110762 
L 603.186655 -267.653105 
L 604.03555 -266.138523 
L 604.884445 -264.570828 
L 605.73334 -262.953689 
L 606.582235 -261.290638 
L 607.43113 -259.585072 
L 608.280025 -257.840255 
L 609.12892 -256.059319 
L 609.977815 -254.245269 
L 610.82671 -252.400986 
L 611.675605 -250.52923 
L 612.5245 -248.632641 
L 613.373395 -246.713744 
L 614.22229 -244.774952 
L 615.071184 -242.818571 
L 615.920079 -240.846798 
L 616.768974 -238.861731 
L 617.617869 -236.865367 
L 618.466764 -234.859609 
L 619.315659 -232.846265 
L 620.164554 -230.827057 
L 621.013449 -228.803618 
L 621.862344 -226.777499 
L 622.711239 -224.75017 
L 623.560134 -222.723025 
L 624.409029 -220.697383 
L 625.257924 -218.67449 
L 626.106819 -216.655527 
L 626.955714 -214.641606 
L 627.804609 -212.633776 
L 628.653504 -210.633025 
L 629.502399 -208.640284 
L 630.351294 -206.656427 
L 631.200189 -204.682273 
L 632.049084 -202.718592 
L 632.897979 -200.766104 
L 633.746874 -198.825481 
L 634.595769 -196.89735 
L 635.444664 -194.982295 
L 636.293559 -193.080861 
L 637.142454 -191.19355 
L 637.991349 -189.320828 
L 638.840244 -187.463127 
L 639.689138 -185.620842 
L 640.538033 -183.794336 
L 641.386928 -181.983943 
L 642.235823 -180.189964 
L 643.084718 -178.412674 
L 643.933613 -176.652321 
L 644.782508 -174.909127 
L 645.631403 -173.18329 
L 646.480298 -171.474984 
L 647.329193 -169.784363 
L 648.178088 -168.111559 
L 649.026983 -166.456684 
L 649.875878 -164.819831 
L 650.724773 -163.201077 
L 651.573668 -161.60048 
L 652.422563 -160.018085 
L 653.271458 -158.453918 
L 654.120353 -156.907995 
L 654.969248 -155.380316 
L 655.818143 -153.870868 
L 656.667038 -152.379628 
L 657.515933 -150.906561 
L 658.364828 -149.45162 
L 659.213723 -148.01475 
L 660.062618 -146.595887 
L 660.911513 -145.194956 
L 661.760408 -143.811874 
L 662.609303 -142.446554 
L 663.458197 -141.098897 
L 664.307092 -139.7688 
L 665.155987 -138.456153 
L 666.004882 -137.160841 
L 666.853777 -135.882742 
L 667.702672 -134.62173 
L 668.551567 -133.377675 
L 669.400462 -132.150442 
L 670.249357 -130.939891 
L 671.098252 -129.745881 
L 671.947147 -128.568265 
L 672.796042 -127.406895 
L 673.644937 -126.26162 
L 674.493832 -125.132284 
L 675.342727 -124.018732 
L 676.191622 -122.920806 
L 677.040517 -121.838346 
L 677.889412 -120.77119 
L 678.738307 -119.719176 
L 679.587202 -118.682139 
L 680.436097 -117.659915 
L 681.284992 -116.652338 
L 682.133887 -115.659242 
L 682.982782 -114.68046 
L 683.831677 -113.715825 
L 684.680572 -112.76517 
L 685.529467 -111.828327 
L 686.378362 -110.90513 
L 687.227256 -109.99541 
L 688.076151 -109.099002 
L 688.925046 -108.215739 
L 689.773941 -107.345456 
L 690.622836 -106.487986 
L 691.471731 -105.643165 
L 692.320626 -104.81083 
L 693.169521 -103.990817 
L 694.018416 -103.182964 
L 694.867311 -102.38711 
L 695.716206 -101.603094 
L 696.565101 -100.830758 
L 697.413996 -100.069944 
L 698.262891 -99.320494 
L 699.111786 -98.582253 
L 699.960681 -97.855066 
L 700.809576 -97.138781 
L 701.658471 -96.433245 
L 702.507366 -95.738308 
L 703.356261 -95.053821 
L 704.205156 -94.379637 
L 705.054051 -93.715608 
L 705.902946 -93.061591 
L 706.751841 -92.417442 
L 707.600736 -91.783019 
L 708.449631 -91.158181 
L 709.298526 -90.542791 
L 710.147421 -89.93671 
L 710.996316 -89.339803 
L 711.84521 -88.751935 
L 712.694105 -88.172974 
L 713.543 -87.60279 
L 714.391895 -87.041251 
L 715.24079 -86.488231 
L 716.089685 -85.943602 
L 716.93858 -85.40724 
L 717.787475 -84.879022 
L 718.63637 -84.358825 
L 719.485265 -83.846529 
L 720.33416 -83.342017 
L 721.183055 -82.845169 
L 722.03195 -82.355872 
L 722.880845 -81.87401 
L 723.72974 -81.399471 
L 724.578635 -80.932145 
L 725.42753 -80.47192 
L 726.276425 -80.01869 
L 727.12532 -79.572347 
L 727.974215 -79.132787 
L 728.82311 -78.699906 
L 729.672005 -78.2736 
L 730.5209 -77.853771 
L 731.369795 -77.440318 
L 732.21869 -77.033142 
L 733.067585 -76.632149 
L 733.91648 -76.237241 
L 734.765375 -75.848326 
L 735.614269 -75.465311 
L 736.463164 -75.088105 
L 737.312059 -74.716618 
L 738.160954 -74.350761 
L 739.009849 -73.990447 
L 739.858744 -73.635591 
L 740.707639 -73.286107 
L 741.556534 -72.941913 
L 742.405429 -72.602925 
L 743.254324 -72.269064 
L 744.103219 -71.940249 
L 744.952114 -71.616403 
L 745.801009 -71.297446 
L 746.649904 -70.983305 
L 747.498799 -70.673902 
L 748.347694 -70.369165 
L 749.196589 -70.069022 
L 750.045484 -69.773399 
L 750.894379 -69.482227 
L 751.743274 -69.195436 
L 752.592169 -68.912958 
L 753.441064 -68.634726 
L 754.289959 -68.360673 
L 755.138854 -68.090734 
L 755.987749 -67.824845 
L 756.836644 -67.562942 
L 757.685539 -67.304964 
L 758.534434 -67.050849 
L 759.383328 -66.800536 
L 760.232223 -66.553967 
L 761.081118 -66.311082 
L 761.930013 -66.071825 
L 762.778908 -65.836139 
L 763.627803 -65.603967 
L 764.476698 -65.375256 
L 765.325593 -65.14995 
L 766.174488 -64.927998 
L 767.023383 -64.709346 
L 767.872278 -64.493943 
L 768.721173 -64.281738 
L 769.570068 -64.072682 
L 770.418963 -63.866726 
L 771.267858 -63.66382 
L 772.116753 -63.463918 
L 772.965648 -63.266973 
L 773.814543 -63.072939 
L 774.663438 -62.881771 
L 775.512333 -62.693423 
L 776.361228 -62.507852 
L 777.210123 -62.325015 
L 778.059018 -62.14487 
L 778.907913 -61.967374 
L 779.756808 -61.792486 
L 780.605703 -61.620167 
L 781.454598 -61.450375 
L 782.303493 -61.283072 
L 783.152388 -61.11822 
L 784.001282 -60.95578 
L 784.850177 -60.795715 
L 785.699072 -60.637988 
L 786.547967 -60.482563 
L 787.396862 -60.329405 
L 788.245757 -60.178478 
L 789.094652 -60.029748 
L 789.943547 -59.883181 
L 790.792442 -59.738744 
L 791.641337 -59.596404 
L 792.490232 -59.456128 
L 793.339127 -59.317885 
L 794.188022 -59.181644 
L 795.036917 -59.047373 
L 795.885812 -58.915042 
L 796.734707 -58.784622 
L 797.583602 -58.656084 
L 798.432497 -58.529398 
L 799.281392 -58.404535 
L 800.130287 -58.281469 
L 800.979182 -58.160172 
L 801.828077 -58.040616 
L 802.676972 -57.922774 
L 803.525867 -57.806622 
L 804.374762 -57.692132 
L 805.223657 -57.57928 
L 806.072552 -57.46804 
L 806.921447 -57.358389 
L 807.770341 -57.250301 
L 808.619236 -57.143753 
L 809.468131 -57.038722 
L 810.317026 -56.935184 
L 811.165921 -56.833117 
L 812.014816 -56.732499 
L 812.863711 -56.633307 
L 813.712606 -56.535521 
L 814.561501 -56.439118 
L 815.410396 -56.344078 
L 816.259291 -56.250381 
L 817.108186 -56.158005 
L 817.957081 -56.066931 
L 818.805976 -55.97714 
L 819.654871 -55.888612 
L 820.503766 -55.801328 
L 821.352661 -55.71527 
L 822.201556 -55.630418 
L 823.050451 -55.546755 
L 823.899346 -55.464264 
L 824.748241 -55.382926 
L 825.597136 -55.302724 
L 826.446031 -55.223641 
L 827.294926 -55.145661 
L 828.143821 -55.068767 
L 828.992716 -54.992942 
L 829.841611 -54.918172 
L 830.690506 -54.84444 
L 831.5394 -54.77173 
L 832.388295 -54.700028 
L 832.388295 -49.154432 
L 832.388295 -49.154432 
L 831.5394 -49.154432 
L 830.690506 -49.154432 
L 829.841611 -49.154432 
L 828.992716 -49.154432 
L 828.143821 -49.154432 
L 827.294926 -49.154432 
L 826.446031 -49.154432 
L 825.597136 -49.154432 
L 824.748241 -49.154432 
L 823.899346 -49.154432 
L 823.050451 -49.154432 
L 822.201556 -49.154432 
L 821.352661 -49.154432 
L 820.503766 -49.154432 
L 819.654871 -49.154432 
L 818.805976 -49.154432 
L 817.957081 -49.154432 
L 817.108186 -49.154432 
L 816.259291 -49.154432 
L 815.410396 -49.154432 
L 814.561501 -49.154432 
L 813.712606 -49.154432 
L 812.863711 -49.154432 
L 812.014816 -49.154432 
L 811.165921 -49.154432 
L 810.317026 -49.154432 
L 809.468131 -49.154432 
L 808.619236 -49.154432 
L 807.770341 -49.154432 
L 806.921447 -49.154432 
L 806.072552 -49.154432 
L 805.223657 -49.154432 
L 804.374762 -49.154432 
L 803.525867 -49.154432 
L 802.676972 -49.154432 
L 801.828077 -49.154432 
L 800.979182 -49.154432 
L 800.130287 -49.154432 
L 799.281392 -49.154432 
L 798.432497 -49.154432 
L 797.583602 -49.154432 
L 796.734707 -49.154432 
L 795.885812 -49.154432 
L 795.036917 -49.154432 
L 794.188022 -49.154432 
L 793.339127 -49.154432 
L 792.490232 -49.154432 
L 791.641337 -49.154432 
L 790.792442 -49.154432 
L 789.943547 -49.154432 
L 789.094652 -49.154432 
L 788.245757 -49.154432 
L 787.396862 -49.154432 
L 786.547967 -49.154432 
L 785.699072 -49.154432 
L 784.850177 -49.154432 
L 784.001282 -49.154432 
L 783.152388 -49.154432 
L 782.303493 -49.154432 
L 781.454598 -49.154432 
L 780.605703 -49.154432 
L 779.756808 -49.154432 
L 778.907913 -49.154432 
L 778.059018 -49.154432 
L 777.210123 -49.154432 
L 776.361228 -49.154432 
L 775.512333 -49.154432 
L 774.663438 -49.154432 
L 773.814543 -49.154432 
L 772.965648 -49.154432 
L 772.116753 -49.154432 
L 771.267858 -49.154432 
L 770.418963 -49.154432 
L 769.570068 -49.154432 
L 768.721173 -49.154432 
L 767.872278 -49.154432 
L 767.023383 -49.154432 
L 766.174488 -49.154432 
L 765.325593 -49.154432 
L 764.476698 -49.154432 
L 763.627803 -49.154432 
L 762.778908 -49.154432 
L 761.930013 -49.154432 
L 761.081118 -49.154432 
L 760.232223 -49.154432 
L 759.383328 -49.154432 
L 758.534434 -49.154432 
L 757.685539 -49.154432 
L 756.836644 -49.154432 
L 755.987749 -49.154432 
L 755.138854 -49.154432 
L 754.289959 -49.154432 
L 753.441064 -49.154432 
L 752.592169 -49.154432 
L 751.743274 -49.154432 
L 750.894379 -49.154432 
L 750.045484 -49.154432 
L 749.196589 -49.154432 
L 748.347694 -49.154432 
L 747.498799 -49.154432 
L 746.649904 -49.154432 
L 745.801009 -49.154432 
L 744.952114 -49.154432 
L 744.103219 -49.154432 
L 743.254324 -49.154432 
L 742.405429 -49.154432 
L 741.556534 -49.154432 
L 740.707639 -49.154432 
L 739.858744 -49.154432 
L 739.009849 -49.154432 
L 738.160954 -49.154432 
L 737.312059 -49.154432 
L 736.463164 -49.154432 
L 735.614269 -49.154432 
L 734.765375 -49.154432 
L 733.91648 -49.154432 
L 733.067585 -49.154432 
L 732.21869 -49.154432 
L 731.369795 -49.154432 
L 730.5209 -49.154432 
L 729.672005 -49.154432 
L 728.82311 -49.154432 
L 727.974215 -49.154432 
L 727.12532 -49.154432 
L 726.276425 -49.154432 
L 725.42753 -49.154432 
L 724.578635 -49.154432 
L 723.72974 -49.154432 
L 722.880845 -49.154432 
L 722.03195 -49.154432 
L 721.183055 -49.154432 
L 720.33416 -49.154432 
L 719.485265 -49.154432 
L 718.63637 -49.154432 
L 717.787475 -49.154432 
L 716.93858 -49.154432 
L 716.089685 -49.154432 
L 715.24079 -49.154432 
L 714.391895 -49.154432 
L 713.543 -49.154432 
L 712.694105 -49.154432 
L 711.84521 -49.154432 
L 710.996316 -49.154432 
L 710.147421 -49.154432 
L 709.298526 -49.154432 
L 708.449631 -49.154432 
L 707.600736 -49.154432 
L 706.751841 -49.154432 
L 705.902946 -49.154432 
L 705.054051 -49.154432 
L 704.205156 -49.154432 
L 703.356261 -49.154432 
L 702.507366 -49.154432 
L 701.658471 -49.154432 
L 700.809576 -49.154432 
L 699.960681 -49.154432 
L 699.111786 -49.154432 
L 698.262891 -49.154432 
L 697.413996 -49.154432 
L 696.565101 -49.154432 
L 695.716206 -49.154432 
L 694.867311 -49.154432 
L 694.018416 -49.154432 
L 693.169521 -49.154432 
L 692.320626 -49.154432 
L 691.471731 -49.154432 
L 690.622836 -49.154432 
L 689.773941 -49.154432 
L 688.925046 -49.154432 
L 688.076151 -49.154432 
L 687.227256 -49.154432 
L 686.378362 -49.154432 
L 685.529467 -49.154432 
L 684.680572 -49.154432 
L 683.831677 -49.154432 
L 682.982782 -49.154432 
L 682.133887 -49.154432 
L 681.284992 -49.154432 
L 680.436097 -49.154432 
L 679.587202 -49.154432 
L 678.738307 -49.154432 
L 677.889412 -49.154432 
L 677.040517 -49.154432 
L 676.191622 -49.154432 
L 675.342727 -49.154432 
L 674.493832 -49.154432 
L 673.644937 -49.154432 
L 672.796042 -49.154432 
L 671.947147 -49.154432 
L 671.098252 -49.154432 
L 670.249357 -49.154432 
L 669.400462 -49.154432 
L 668.551567 -49.154432 
L 667.702672 -49.154432 
L 666.853777 -49.154432 
L 666.004882 -49.154432 
L 665.155987 -49.154432 
L 664.307092 -49.154432 
L 663.458197 -49.154432 
L 662.609303 -49.154432 
L 661.760408 -49.154432 
L 660.911513 -49.154432 
L 660.062618 -49.154432 
L 659.213723 -49.154432 
L 658.364828 -49.154432 
L 657.515933 -49.154432 
L 656.667038 -49.154432 
L 655.818143 -49.154432 
L 654.969248 -49.154432 
L 654.120353 -49.154432 
L 653.271458 -49.154432 
L 652.422563 -49.154432 
L 651.573668 -49.154432 
L 650.724773 -49.154432 
L 649.875878 -49.154432 
L 649.026983 -49.154432 
L 648.178088 -49.154432 
L 647.329193 -49.154432 
L 646.480298 -49.154432 
L 645.631403 -49.154432 
L 644.782508 -49.154432 
L 643.933613 -49.154432 
L 643.084718 -49.154432 
L 642.235823 -49.154432 
L 641.386928 -49.154432 
L 640.538033 -49.154432 
L 639.689138 -49.154432 
L 638.840244 -49.154432 
L 637.991349 -49.154432 
L 637.142454 -49.154432 
L 636.293559 -49.154432 
L 635.444664 -49.154432 
L 634.595769 -49.154432 
L 633.746874 -49.154432 
L 632.897979 -49.154432 
L 632.049084 -49.154432 
L 631.200189 -49.154432 
L 630.351294 -49.154432 
L 629.502399 -49.154432 
L 628.653504 -49.154432 
L 627.804609 -49.154432 
L 626.955714 -49.154432 
L 626.106819 -49.154432 
L 625.257924 -49.154432 
L 624.409029 -49.154432 
L 623.560134 -49.154432 
L 622.711239 -49.154432 
L 621.862344 -49.154432 
L 621.013449 -49.154432 
L 620.164554 -49.154432 
L 619.315659 -49.154432 
L 618.466764 -49.154432 
L 617.617869 -49.154432 
L 616.768974 -49.154432 
L 615.920079 -49.154432 
L 615.071184 -49.154432 
L 614.22229 -49.154432 
L 613.373395 -49.154432 
L 612.5245 -49.154432 
L 611.675605 -49.154432 
L 610.82671 -49.154432 
L 609.977815 -49.154432 
L 609.12892 -49.154432 
L 608.280025 -49.154432 
L 607.43113 -49.154432 
L 606.582235 -49.154432 
L 605.73334 -49.154432 
L 604.884445 -49.154432 
L 604.03555 -49.154432 
L 603.186655 -49.154432 
L 602.33776 -49.154432 
L 601.488865 -49.154432 
L 600.63997 -49.154432 
L 599.791075 -49.154432 
L 598.94218 -49.154432 
L 598.093285 -49.154432 
L 597.24439 -49.154432 
L 596.395495 -49.154432 
L 595.5466 -49.154432 
L 594.697705 -49.154432 
L 593.84881 -49.154432 
L 592.999915 -49.154432 
L 592.15102 -49.154432 
L 591.302125 -49.154432 
L 590.453231 -49.154432 
L 589.604336 -49.154432 
L 588.755441 -49.154432 
L 587.906546 -49.154432 
L 587.057651 -49.154432 
L 586.208756 -49.154432 
L 585.359861 -49.154432 
L 584.510966 -49.154432 
L 583.662071 -49.154432 
L 582.813176 -49.154432 
L 581.964281 -49.154432 
L 581.115386 -49.154432 
L 580.266491 -49.154432 
L 579.417596 -49.154432 
L 578.568701 -49.154432 
L 577.719806 -49.154432 
L 576.870911 -49.154432 
L 576.022016 -49.154432 
L 575.173121 -49.154432 
L 574.324226 -49.154432 
L 573.475331 -49.154432 
L 572.626436 -49.154432 
L 571.777541 -49.154432 
L 570.928646 -49.154432 
L 570.079751 -49.154432 
L 569.230856 -49.154432 
L 568.381961 -49.154432 
L 567.533066 -49.154432 
L 566.684172 -49.154432 
L 565.835277 -49.154432 
L 564.986382 -49.154432 
L 564.137487 -49.154432 
L 563.288592 -49.154432 
L 562.439697 -49.154432 
L 561.590802 -49.154432 
L 560.741907 -49.154432 
L 559.893012 -49.154432 
L 559.044117 -49.154432 
L 558.195222 -49.154432 
L 557.346327 -49.154432 
L 556.497432 -49.154432 
L 555.648537 -49.154432 
L 554.799642 -49.154432 
L 553.950747 -49.154432 
L 553.101852 -49.154432 
L 552.252957 -49.154432 
L 551.404062 -49.154432 
L 550.555167 -49.154432 
L 549.706272 -49.154432 
L 548.857377 -49.154432 
L 548.008482 -49.154432 
L 547.159587 -49.154432 
L 546.310692 -49.154432 
L 545.461797 -49.154432 
L 544.612902 -49.154432 
L 543.764007 -49.154432 
L 542.915112 -49.154432 
L 542.066218 -49.154432 
L 541.217323 -49.154432 
L 540.368428 -49.154432 
L 539.519533 -49.154432 
L 538.670638 -49.154432 
L 537.821743 -49.154432 
L 536.972848 -49.154432 
L 536.123953 -49.154432 
L 535.275058 -49.154432 
L 534.426163 -49.154432 
L 533.577268 -49.154432 
L 532.728373 -49.154432 
L 531.879478 -49.154432 
L 531.030583 -49.154432 
L 530.181688 -49.154432 
L 529.332793 -49.154432 
L 528.483898 -49.154432 
L 527.635003 -49.154432 
L 526.786108 -49.154432 
L 525.937213 -49.154432 
L 525.088318 -49.154432 
L 524.239423 -49.154432 
L 523.390528 -49.154432 
L 522.541633 -49.154432 
L 521.692738 -49.154432 
L 520.843843 -49.154432 
L 519.994948 -49.154432 
L 519.146053 -49.154432 
L 518.297159 -49.154432 
L 517.448264 -49.154432 
L 516.599369 -49.154432 
L 515.750474 -49.154432 
L 514.901579 -49.154432 
L 514.052684 -49.154432 
L 513.203789 -49.154432 
L 512.354894 -49.154432 
L 511.505999 -49.154432 
L 510.657104 -49.154432 
L 509.808209 -49.154432 
L 508.959314 -49.154432 
L 508.110419 -49.154432 
L 507.261524 -49.154432 
L 506.412629 -49.154432 
L 505.563734 -49.154432 
L 504.714839 -49.154432 
L 503.865944 -49.154432 
L 503.017049 -49.154432 
L 502.168154 -49.154432 
L 501.319259 -49.154432 
L 500.470364 -49.154432 
L 499.621469 -49.154432 
L 498.772574 -49.154432 
L 497.923679 -49.154432 
L 497.074784 -49.154432 
L 496.225889 -49.154432 
L 495.376994 -49.154432 
L 494.5281 -49.154432 
L 493.679205 -49.154432 
z
" style="stroke: #7aa6c2; stroke-opacity: 0.3"/>
    </defs>
    <g clip-path="url(#p5ef7004627)">
     <use xlink:href="#m0da467ecfc" x="0" y="315.034375" style="fill: #7aa6c2; fill-opacity: 0.3; stroke: #7aa6c2; stroke-opacity: 0.3"/>
    </g>
   </g>
   <g id="matplotlib.axis_3">
    <g id="xtick_6">
     <g id="line2d_28">
      <path d="M 531.313548 277.478125 
L 531.313548 22.318125 
" clip-path="url(#p5ef7004627)" style="fill: none; stroke: #b0b0b0; stroke-opacity: 0.25; stroke-width: 0.8; stroke-linecap: square"/>
     </g>
     <g id="line2d_29">
      <g>
       <use xlink:href="#m6c9b07241e" x="531.313548" y="277.478125" style="stroke: #000000; stroke-width: 0.8"/>
      </g>
     </g>
     <g id="text_17">
      <!-- 0 -->
      <g transform="translate(528.132298 292.076563) scale(0.1 -0.1)">
       <use xlink:href="#DejaVuSans-30"/>
      </g>
     </g>
    </g>
    <g id="xtick_7">
     <g id="line2d_30">
      <path d="M 606.582235 277.478125 
L 606.582235 22.318125 
" clip-path="url(#p5ef7004627)" style="fill: none; stroke: #b0b0b0; stroke-opacity: 0.25; stroke-width: 0.8; stroke-linecap: square"/>
     </g>
     <g id="line2d_31">
      <g>
       <use xlink:href="#m6c9b07241e" x="606.582235" y="277.478125" style="stroke: #000000; stroke-width: 0.8"/>
      </g>
     </g>
     <g id="text_18">
      <!-- 2 -->
      <g transform="translate(603.400985 292.076563) scale(0.1 -0.1)">
       <use xlink:href="#DejaVuSans-32"/>
      </g>
     </g>
    </g>
    <g id="xtick_8">
     <g id="line2d_32">
      <path d="M 681.850922 277.478125 
L 681.850922 22.318125 
" clip-path="url(#p5ef7004627)" style="fill: none; stroke: #b0b0b0; stroke-opacity: 0.25; stroke-width: 0.8; stroke-linecap: square"/>
     </g>
     <g id="line2d_33">
      <g>
       <use xlink:href="#m6c9b07241e" x="681.850922" y="277.478125" style="stroke: #000000; stroke-width: 0.8"/>
      </g>
     </g>
     <g id="text_19">
      <!-- 4 -->
      <g transform="translate(678.669672 292.076563) scale(0.1 -0.1)">
       <use xlink:href="#DejaVuSans-34"/>
      </g>
     </g>
    </g>
    <g id="xtick_9">
     <g id="line2d_34">
      <path d="M 757.119609 277.478125 
L 757.119609 22.318125 
" clip-path="url(#p5ef7004627)" style="fill: none; stroke: #b0b0b0; stroke-opacity: 0.25; stroke-width: 0.8; stroke-linecap: square"/>
     </g>
     <g id="line2d_35">
      <g>
       <use xlink:href="#m6c9b07241e" x="757.119609" y="277.478125" style="stroke: #000000; stroke-width: 0.8"/>
      </g>
     </g>
     <g id="text_20">
      <!-- 6 -->
      <g transform="translate(753.938359 292.076563) scale(0.1 -0.1)">
       <use xlink:href="#DejaVuSans-36"/>
      </g>
     </g>
    </g>
    <g id="xtick_10">
     <g id="line2d_36">
      <path d="M 832.388295 277.478125 
L 832.388295 22.318125 
" clip-path="url(#p5ef7004627)" style="fill: none; stroke: #b0b0b0; stroke-opacity: 0.25; stroke-width: 0.8; stroke-linecap: square"/>
     </g>
     <g id="line2d_37">
      <g>
       <use xlink:href="#m6c9b07241e" x="832.388295" y="277.478125" style="stroke: #000000; stroke-width: 0.8"/>
      </g>
     </g>
     <g id="text_21">
      <!-- 8 -->
      <g transform="translate(829.207045 292.076563) scale(0.1 -0.1)">
       <use xlink:href="#DejaVuSans-38"/>
      </g>
     </g>
    </g>
    <g id="text_22">
     <!-- x -->
     <g transform="translate(660.074375 305.754687) scale(0.1 -0.1)">
      <use xlink:href="#DejaVuSans-78"/>
     </g>
    </g>
   </g>
   <g id="matplotlib.axis_4">
    <g id="ytick_8">
     <g id="line2d_38">
      <path d="M 476.74375 265.879943 
L 849.32375 265.879943 
" clip-path="url(#p5ef7004627)" style="fill: none; stroke: #b0b0b0; stroke-opacity: 0.25; stroke-width: 0.8; stroke-linecap: square"/>
     </g>
     <g id="line2d_39">
      <g>
       <use xlink:href="#md573b903f3" x="476.74375" y="265.879943" style="stroke: #000000; stroke-width: 0.8"/>
      </g>
     </g>
     <g id="text_23">
      <!-- 0.00 -->
      <g transform="translate(447.478125 269.679162) scale(0.1 -0.1)">
       <use xlink:href="#DejaVuSans-30"/>
       <use xlink:href="#DejaVuSans-2e" transform="translate(63.623047 0)"/>
       <use xlink:href="#DejaVuSans-30" transform="translate(95.410156 0)"/>
       <use xlink:href="#DejaVuSans-30" transform="translate(159.033203 0)"/>
      </g>
     </g>
    </g>
    <g id="ytick_9">
     <g id="line2d_40">
      <path d="M 476.74375 233.453771 
L 849.32375 233.453771 
" clip-path="url(#p5ef7004627)" style="fill: none; stroke: #b0b0b0; stroke-opacity: 0.25; stroke-width: 0.8; stroke-linecap: square"/>
     </g>
     <g id="line2d_41">
      <g>
       <use xlink:href="#md573b903f3" x="476.74375" y="233.453771" style="stroke: #000000; stroke-width: 0.8"/>
      </g>
     </g>
     <g id="text_24">
      <!-- 0.05 -->
      <g transform="translate(447.478125 237.252989) scale(0.1 -0.1)">
       <use xlink:href="#DejaVuSans-30"/>
       <use xlink:href="#DejaVuSans-2e" transform="translate(63.623047 0)"/>
       <use xlink:href="#DejaVuSans-30" transform="translate(95.410156 0)"/>
       <use xlink:href="#DejaVuSans-35" transform="translate(159.033203 0)"/>
      </g>
     </g>
    </g>
    <g id="ytick_10">
     <g id="line2d_42">
      <path d="M 476.74375 201.027598 
L 849.32375 201.027598 
" clip-path="url(#p5ef7004627)" style="fill: none; stroke: #b0b0b0; stroke-opacity: 0.25; stroke-width: 0.8; stroke-linecap: square"/>
     </g>
     <g id="line2d_43">
      <g>
       <use xlink:href="#md573b903f3" x="476.74375" y="201.027598" style="stroke: #000000; stroke-width: 0.8"/>
      </g>
     </g>
     <g id="text_25">
      <!-- 0.10 -->
      <g transform="translate(447.478125 204.826817) scale(0.1 -0.1)">
       <use xlink:href="#DejaVuSans-30"/>
       <use xlink:href="#DejaVuSans-2e" transform="translate(63.623047 0)"/>
       <use xlink:href="#DejaVuSans-31" transform="translate(95.410156 0)"/>
       <use xlink:href="#DejaVuSans-30" transform="translate(159.033203 0)"/>
      </g>
     </g>
    </g>
    <g id="ytick_11">
     <g id="line2d_44">
      <path d="M 476.74375 168.601425 
L 849.32375 168.601425 
" clip-path="url(#p5ef7004627)" style="fill: none; stroke: #b0b0b0; stroke-opacity: 0.25; stroke-width: 0.8; stroke-linecap: square"/>
     </g>
     <g id="line2d_45">
      <g>
       <use xlink:href="#md573b903f3" x="476.74375" y="168.601425" style="stroke: #000000; stroke-width: 0.8"/>
      </g>
     </g>
     <g id="text_26">
      <!-- 0.15 -->
      <g transform="translate(447.478125 172.400644) scale(0.1 -0.1)">
       <use xlink:href="#DejaVuSans-30"/>
       <use xlink:href="#DejaVuSans-2e" transform="translate(63.623047 0)"/>
       <use xlink:href="#DejaVuSans-31" transform="translate(95.410156 0)"/>
       <use xlink:href="#DejaVuSans-35" transform="translate(159.033203 0)"/>
      </g>
     </g>
    </g>
    <g id="ytick_12">
     <g id="line2d_46">
      <path d="M 476.74375 136.175253 
L 849.32375 136.175253 
" clip-path="url(#p5ef7004627)" style="fill: none; stroke: #b0b0b0; stroke-opacity: 0.25; stroke-width: 0.8; stroke-linecap: square"/>
     </g>
     <g id="line2d_47">
      <g>
       <use xlink:href="#md573b903f3" x="476.74375" y="136.175253" style="stroke: #000000; stroke-width: 0.8"/>
      </g>
     </g>
     <g id="text_27">
      <!-- 0.20 -->
      <g transform="translate(447.478125 139.974471) scale(0.1 -0.1)">
       <use xlink:href="#DejaVuSans-30"/>
       <use xlink:href="#DejaVuSans-2e" transform="translate(63.623047 0)"/>
       <use xlink:href="#DejaVuSans-32" transform="translate(95.410156 0)"/>
       <use xlink:href="#DejaVuSans-30" transform="translate(159.033203 0)"/>
      </g>
     </g>
    </g>
    <g id="ytick_13">
     <g id="line2d_48">
      <path d="M 476.74375 103.74908 
L 849.32375 103.74908 
" clip-path="url(#p5ef7004627)" style="fill: none; stroke: #b0b0b0; stroke-opacity: 0.25; stroke-width: 0.8; stroke-linecap: square"/>
     </g>
     <g id="line2d_49">
      <g>
       <use xlink:href="#md573b903f3" x="476.74375" y="103.74908" style="stroke: #000000; stroke-width: 0.8"/>
      </g>
     </g>
     <g id="text_28">
      <!-- 0.25 -->
      <g transform="translate(447.478125 107.548299) scale(0.1 -0.1)">
       <use xlink:href="#DejaVuSans-30"/>
       <use xlink:href="#DejaVuSans-2e" transform="translate(63.623047 0)"/>
       <use xlink:href="#DejaVuSans-32" transform="translate(95.410156 0)"/>
       <use xlink:href="#DejaVuSans-35" transform="translate(159.033203 0)"/>
      </g>
     </g>
    </g>
    <g id="ytick_14">
     <g id="line2d_50">
      <path d="M 476.74375 71.322907 
L 849.32375 71.322907 
" clip-path="url(#p5ef7004627)" style="fill: none; stroke: #b0b0b0; stroke-opacity: 0.25; stroke-width: 0.8; stroke-linecap: square"/>
     </g>
     <g id="line2d_51">
      <g>
       <use xlink:href="#md573b903f3" x="476.74375" y="71.322907" style="stroke: #000000; stroke-width: 0.8"/>
      </g>
     </g>
     <g id="text_29">
      <!-- 0.30 -->
      <g transform="translate(447.478125 75.122126) scale(0.1 -0.1)">
       <use xlink:href="#DejaVuSans-30"/>
       <use xlink:href="#DejaVuSans-2e" transform="translate(63.623047 0)"/>
       <use xlink:href="#DejaVuSans-33" transform="translate(95.410156 0)"/>
       <use xlink:href="#DejaVuSans-30" transform="translate(159.033203 0)"/>
      </g>
     </g>
    </g>
    <g id="ytick_15">
     <g id="line2d_52">
      <path d="M 476.74375 38.896735 
L 849.32375 38.896735 
" clip-path="url(#p5ef7004627)" style="fill: none; stroke: #b0b0b0; stroke-opacity: 0.25; stroke-width: 0.8; stroke-linecap: square"/>
     </g>
     <g id="line2d_53">
      <g>
       <use xlink:href="#md573b903f3" x="476.74375" y="38.896735" style="stroke: #000000; stroke-width: 0.8"/>
      </g>
     </g>
     <g id="text_30">
      <!-- 0.35 -->
      <g transform="translate(447.478125 42.695953) scale(0.1 -0.1)">
       <use xlink:href="#DejaVuSans-30"/>
       <use xlink:href="#DejaVuSans-2e" transform="translate(63.623047 0)"/>
       <use xlink:href="#DejaVuSans-33" transform="translate(95.410156 0)"/>
       <use xlink:href="#DejaVuSans-35" transform="translate(159.033203 0)"/>
      </g>
     </g>
    </g>
    <g id="text_31">
     <!-- PDF f(x) -->
     <g transform="translate(441.398438 169.848906) rotate(-90) scale(0.1 -0.1)">
      <use xlink:href="#DejaVuSans-50"/>
      <use xlink:href="#DejaVuSans-44" transform="translate(60.302734 0)"/>
      <use xlink:href="#DejaVuSans-46" transform="translate(137.304688 0)"/>
      <use xlink:href="#DejaVuSans-20" transform="translate(194.824219 0)"/>
      <use xlink:href="#DejaVuSans-66" transform="translate(226.611328 0)"/>
      <use xlink:href="#DejaVuSans-28" transform="translate(261.816406 0)"/>
      <use xlink:href="#DejaVuSans-78" transform="translate(300.830078 0)"/>
      <use xlink:href="#DejaVuSans-29" transform="translate(360.009766 0)"/>
     </g>
    </g>
   </g>
   <g id="line2d_54">
    <path d="M 493.679205 265.879943 
L 536.123953 265.837522 
L 537.821743 265.581484 
L 538.670638 265.266268 
L 539.519533 264.753218 
L 540.368428 263.985018 
L 541.217323 262.907475 
L 542.066218 261.472872 
L 542.915112 259.642287 
L 543.764007 257.386922 
L 544.612902 254.688582 
L 545.461797 251.53949 
L 547.159587 243.905648 
L 548.857377 234.598948 
L 550.555167 223.833958 
L 553.101852 205.566883 
L 556.497432 178.865594 
L 561.590802 138.345108 
L 564.137487 119.470927 
L 566.684172 102.183823 
L 569.230856 86.776382 
L 570.928646 77.632362 
L 572.626436 69.416868 
L 574.324226 62.132717 
L 576.022016 55.768618 
L 577.719806 50.302026 
L 579.417596 45.701651 
L 581.115386 41.929616 
L 582.813176 38.943301 
L 584.510966 36.69689 
L 585.359861 35.836277 
L 586.208756 35.142653 
L 587.057651 34.609924 
L 587.906546 34.231997 
L 588.755441 34.0028 
L 589.604336 33.916307 
L 590.453231 33.966546 
L 591.302125 34.147624 
L 592.15102 34.453732 
L 593.84881 35.418317 
L 595.5466 36.815989 
L 597.24439 38.604415 
L 598.94218 40.743406 
L 600.63997 43.19502 
L 603.186655 47.38127 
L 605.73334 52.080686 
L 609.12892 58.975056 
L 612.5245 66.401734 
L 617.617869 78.169008 
L 635.444664 120.05208 
L 640.538033 131.240039 
L 645.631403 141.851085 
L 649.875878 150.214544 
L 654.120353 158.12638 
L 658.364828 165.582755 
L 662.609303 172.587821 
L 666.853777 179.151633 
L 671.098252 185.288494 
L 675.342727 191.015643 
L 679.587202 196.352236 
L 683.831677 201.31855 
L 688.076151 205.935373 
L 692.320626 210.223545 
L 696.565101 214.203617 
L 700.809576 217.895594 
L 705.054051 221.318767 
L 709.298526 224.491584 
L 714.391895 227.993124 
L 719.485265 231.187846 
L 724.578635 234.10223 
L 729.672005 236.760775 
L 734.765375 239.186049 
L 740.707639 241.748268 
L 746.649904 244.05107 
L 752.592169 246.121417 
L 759.383328 248.233839 
L 766.174488 250.106377 
L 773.814543 251.961436 
L 781.454598 253.584 
L 789.943547 255.151194 
L 799.281392 256.62984 
L 809.468131 257.995653 
L 820.503766 259.233047 
L 832.388295 260.334347 
L 832.388295 260.334347 
" clip-path="url(#p5ef7004627)" style="fill: none; stroke: #7aa6c2; stroke-width: 2; stroke-linecap: square"/>
   </g>
   <g id="line2d_55">
    <path d="M 631.588609 277.478125 
L 631.588609 22.318125 
" clip-path="url(#p5ef7004627)" style="fill: none; stroke-dasharray: 7.4,3.2; stroke-dashoffset: 0; stroke: #e15759; stroke-width: 2"/>
   </g>
   <g id="line2d_56">
    <path d="M 589.748665 277.478125 
L 589.748665 22.318125 
" clip-path="url(#p5ef7004627)" style="fill: none; stroke-dasharray: 2,3.3; stroke-dashoffset: 0; stroke: #59a14f; stroke-width: 2"/>
   </g>
   <g id="patch_9">
    <path d="M 476.74375 277.478125 
L 476.74375 22.318125 
" style="fill: none; stroke: #000000; stroke-width: 0.8; stroke-linejoin: miter; stroke-linecap: square"/>
   </g>
   <g id="patch_10">
    <path d="M 849.32375 277.478125 
L 849.32375 22.318125 
" style="fill: none; stroke: #000000; stroke-width: 0.8; stroke-linejoin: miter; stroke-linecap: square"/>
   </g>
   <g id="patch_11">
    <path d="M 476.74375 277.478125 
L 849.32375 277.478125 
" style="fill: none; stroke: #000000; stroke-width: 0.8; stroke-linejoin: miter; stroke-linecap: square"/>
   </g>
   <g id="patch_12">
    <path d="M 476.74375 22.318125 
L 849.32375 22.318125 
" style="fill: none; stroke: #000000; stroke-width: 0.8; stroke-linejoin: miter; stroke-linecap: square"/>
   </g>
   <g id="text_32">
    <!-- Skewed (Log-Normal): E[X] pulled by long tail -->
    <g transform="translate(526.42875 16.318125) scale(0.12 -0.12)">
     <defs>
      <path id="DejaVuSans-6b" d="M 581 4863 
L 1159 4863 
L 1159 1991 
L 2875 3500 
L 3609 3500 
L 1753 1863 
L 3688 0 
L 2938 0 
L 1159 1709 
L 1159 0 
L 581 0 
L 581 4863 
z
" transform="scale(0.015625)"/>
      <path id="DejaVuSans-77" d="M 269 3500 
L 844 3500 
L 1563 769 
L 2278 3500 
L 2956 3500 
L 3675 769 
L 4391 3500 
L 4966 3500 
L 4050 0 
L 3372 0 
L 2619 2869 
L 1863 0 
L 1184 0 
L 269 3500 
z
" transform="scale(0.015625)"/>
      <path id="DejaVuSans-4c" d="M 628 4666 
L 1259 4666 
L 1259 531 
L 3531 531 
L 3531 0 
L 628 0 
L 628 4666 
z
" transform="scale(0.015625)"/>
      <path id="DejaVuSans-67" d="M 2906 1791 
Q 2906 2416 2648 2759 
Q 2391 3103 1925 3103 
Q 1463 3103 1205 2759 
Q 947 2416 947 1791 
Q 947 1169 1205 825 
Q 1463 481 1925 481 
Q 2391 481 2648 825 
Q 2906 1169 2906 1791 
z
M 3481 434 
Q 3481 -459 3084 -895 
Q 2688 -1331 1869 -1331 
Q 1566 -1331 1297 -1286 
Q 1028 -1241 775 -1147 
L 775 -588 
Q 1028 -725 1275 -790 
Q 1522 -856 1778 -856 
Q 2344 -856 2625 -561 
Q 2906 -266 2906 331 
L 2906 616 
Q 2728 306 2450 153 
Q 2172 0 1784 0 
Q 1141 0 747 490 
Q 353 981 353 1791 
Q 353 2603 747 3093 
Q 1141 3584 1784 3584 
Q 2172 3584 2450 3431 
Q 2728 3278 2906 2969 
L 2906 3500 
L 3481 3500 
L 3481 434 
z
" transform="scale(0.015625)"/>
      <path id="DejaVuSans-2d" d="M 313 2009 
L 1997 2009 
L 1997 1497 
L 313 1497 
L 313 2009 
z
" transform="scale(0.015625)"/>
      <path id="DejaVuSans-70" d="M 1159 525 
L 1159 -1331 
L 581 -1331 
L 581 3500 
L 1159 3500 
L 1159 2969 
Q 1341 3281 1617 3432 
Q 1894 3584 2278 3584 
Q 2916 3584 3314 3078 
Q 3713 2572 3713 1747 
Q 3713 922 3314 415 
Q 2916 -91 2278 -91 
Q 1894 -91 1617 61 
Q 1341 213 1159 525 
z
M 3116 1747 
Q 3116 2381 2855 2742 
Q 2594 3103 2138 3103 
Q 1681 3103 1420 2742 
Q 1159 2381 1159 1747 
Q 1159 1113 1420 752 
Q 1681 391 2138 391 
Q 2594 391 2855 752 
Q 3116 1113 3116 1747 
z
" transform="scale(0.015625)"/>
      <path id="DejaVuSans-75" d="M 544 1381 
L 544 3500 
L 1119 3500 
L 1119 1403 
Q 1119 906 1312 657 
Q 1506 409 1894 409 
Q 2359 409 2629 706 
Q 2900 1003 2900 1516 
L 2900 3500 
L 3475 3500 
L 3475 0 
L 2900 0 
L 2900 538 
Q 2691 219 2414 64 
Q 2138 -91 1772 -91 
Q 1169 -91 856 284 
Q 544 659 544 1381 
z
M 1991 3584 
L 1991 3584 
z
" transform="scale(0.015625)"/>
      <path id="DejaVuSans-62" d="M 3116 1747 
Q 3116 2381 2855 2742 
Q 2594 3103 2138 3103 
Q 1681 3103 1420 2742 
Q 1159 2381 1159 1747 
Q 1159 1113 1420 752 
Q 1681 391 2138 391 
Q 2594 391 2855 752 
Q 3116 1113 3116 1747 
z
M 1159 2969 
Q 1341 3281 1617 3432 
Q 1894 3584 2278 3584 
Q 2916 3584 3314 3078 
Q 3713 2572 3713 1747 
Q 3713 922 3314 415 
Q 2916 -91 2278 -91 
Q 1894 -91 1617 61 
Q 1341 213 1159 525 
L 1159 0 
L 581 0 
L 581 4863 
L 1159 4863 
L 1159 2969 
z
" transform="scale(0.015625)"/>
     </defs>
     <use xlink:href="#DejaVuSans-53"/>
     <use xlink:href="#DejaVuSans-6b" transform="translate(63.476562 0)"/>
     <use xlink:href="#DejaVuSans-65" transform="translate(117.761719 0)"/>
     <use xlink:href="#DejaVuSans-77" transform="translate(179.285156 0)"/>
     <use xlink:href="#DejaVuSans-65" transform="translate(261.072266 0)"/>
     <use xlink:href="#DejaVuSans-64" transform="translate(322.595703 0)"/>
     <use xlink:href="#DejaVuSans-20" transform="translate(386.072266 0)"/>
     <use xlink:href="#DejaVuSans-28" transform="translate(417.859375 0)"/>
     <use xlink:href="#DejaVuSans-4c" transform="translate(456.873047 0)"/>
     <use xlink:href="#DejaVuSans-6f" transform="translate(510.835938 0)"/>
     <use xlink:href="#DejaVuSans-67" transform="translate(572.017578 0)"/>
     <use xlink:href="#DejaVuSans-2d" transform="translate(635.494141 0)"/>
     <use xlink:href="#DejaVuSans-4e" transform="translate(671.578125 0)"/>
     <use xlink:href="#DejaVuSans-6f" transform="translate(746.382812 0)"/>
     <use xlink:href="#DejaVuSans-72" transform="translate(807.564453 0)"/>
     <use xlink:href="#DejaVuSans-6d" transform="translate(846.927734 0)"/>
     <use xlink:href="#DejaVuSans-61" transform="translate(944.339844 0)"/>
     <use xlink:href="#DejaVuSans-6c" transform="translate(1005.619141 0)"/>
     <use xlink:href="#DejaVuSans-29" transform="translate(1033.402344 0)"/>
     <use xlink:href="#DejaVuSans-3a" transform="translate(1072.416016 0)"/>
     <use xlink:href="#DejaVuSans-20" transform="translate(1106.107422 0)"/>
     <use xlink:href="#DejaVuSans-45" transform="translate(1137.894531 0)"/>
     <use xlink:href="#DejaVuSans-5b" transform="translate(1201.078125 0)"/>
     <use xlink:href="#DejaVuSans-58" transform="translate(1240.091797 0)"/>
     <use xlink:href="#DejaVuSans-5d" transform="translate(1308.597656 0)"/>
     <use xlink:href="#DejaVuSans-20" transform="translate(1347.611328 0)"/>
     <use xlink:href="#DejaVuSans-70" transform="translate(1379.398438 0)"/>
     <use xlink:href="#DejaVuSans-75" transform="translate(1442.875 0)"/>
     <use xlink:href="#DejaVuSans-6c" transform="translate(1506.253906 0)"/>
     <use xlink:href="#DejaVuSans-6c" transform="translate(1534.037109 0)"/>
     <use xlink:href="#DejaVuSans-65" transform="translate(1561.820312 0)"/>
     <use xlink:href="#DejaVuSans-64" transform="translate(1623.34375 0)"/>
     <use xlink:href="#DejaVuSans-20" transform="translate(1686.820312 0)"/>
     <use xlink:href="#DejaVuSans-62" transform="translate(1718.607422 0)"/>
     <use xlink:href="#DejaVuSans-79" transform="translate(1782.083984 0)"/>
     <use xlink:href="#DejaVuSans-20" transform="translate(1841.263672 0)"/>
     <use xlink:href="#DejaVuSans-6c" transform="translate(1873.050781 0)"/>
     <use xlink:href="#DejaVuSans-6f" transform="translate(1900.833984 0)"/>
     <use xlink:href="#DejaVuSans-6e" transform="translate(1962.015625 0)"/>
     <use xlink:href="#DejaVuSans-67" transform="translate(2025.394531 0)"/>
     <use xlink:href="#DejaVuSans-20" transform="translate(2088.871094 0)"/>
     <use xlink:href="#DejaVuSans-74" transform="translate(2120.658203 0)"/>
     <use xlink:href="#DejaVuSans-61" transform="translate(2159.867188 0)"/>
     <use xlink:href="#DejaVuSans-69" transform="translate(2221.146484 0)"/>
     <use xlink:href="#DejaVuSans-6c" transform="translate(2248.929688 0)"/>
    </g>
   </g>
   <g id="legend_2">
    <g id="patch_13">
     <path d="M 744.96125 59.674375 
L 842.32375 59.674375 
Q 844.32375 59.674375 844.32375 57.674375 
L 844.32375 29.318125 
Q 844.32375 27.318125 842.32375 27.318125 
L 744.96125 27.318125 
Q 742.96125 27.318125 742.96125 29.318125 
L 742.96125 57.674375 
Q 742.96125 59.674375 744.96125 59.674375 
z
" style="fill: #ffffff; opacity: 0.8; stroke: #cccccc; stroke-linejoin: miter"/>
    </g>
    <g id="line2d_57">
     <path d="M 746.96125 35.416562 
L 756.96125 35.416562 
L 766.96125 35.416562 
" style="fill: none; stroke-dasharray: 7.4,3.2; stroke-dashoffset: 0; stroke: #e15759; stroke-width: 2"/>
    </g>
    <g id="text_33">
     <!-- E[X] = 2.66 -->
     <g transform="translate(774.96125 38.916562) scale(0.1 -0.1)">
      <use xlink:href="#DejaVuSans-45"/>
      <use xlink:href="#DejaVuSans-5b" transform="translate(63.183594 0)"/>
      <use xlink:href="#DejaVuSans-58" transform="translate(102.197266 0)"/>
      <use xlink:href="#DejaVuSans-5d" transform="translate(170.703125 0)"/>
      <use xlink:href="#DejaVuSans-20" transform="translate(209.716797 0)"/>
      <use xlink:href="#DejaVuSans-3d" transform="translate(241.503906 0)"/>
      <use xlink:href="#DejaVuSans-20" transform="translate(325.292969 0)"/>
      <use xlink:href="#DejaVuSans-32" transform="translate(357.080078 0)"/>
      <use xlink:href="#DejaVuSans-2e" transform="translate(420.703125 0)"/>
      <use xlink:href="#DejaVuSans-36" transform="translate(452.490234 0)"/>
      <use xlink:href="#DejaVuSans-36" transform="translate(516.113281 0)"/>
     </g>
    </g>
    <g id="line2d_58">
     <path d="M 746.96125 50.094688 
L 756.96125 50.094688 
L 766.96125 50.094688 
" style="fill: none; stroke-dasharray: 2,3.3; stroke-dashoffset: 0; stroke: #59a14f; stroke-width: 2"/>
    </g>
    <g id="text_34">
     <!-- mode = 1.55 -->
     <g transform="translate(774.96125 53.594688) scale(0.1 -0.1)">
      <use xlink:href="#DejaVuSans-6d"/>
      <use xlink:href="#DejaVuSans-6f" transform="translate(97.412109 0)"/>
      <use xlink:href="#DejaVuSans-64" transform="translate(158.59375 0)"/>
      <use xlink:href="#DejaVuSans-65" transform="translate(222.070312 0)"/>
      <use xlink:href="#DejaVuSans-20" transform="translate(283.59375 0)"/>
      <use xlink:href="#DejaVuSans-3d" transform="translate(315.380859 0)"/>
      <use xlink:href="#DejaVuSans-20" transform="translate(399.169922 0)"/>
      <use xlink:href="#DejaVuSans-31" transform="translate(430.957031 0)"/>
      <use xlink:href="#DejaVuSans-2e" transform="translate(494.580078 0)"/>
      <use xlink:href="#DejaVuSans-35" transform="translate(526.367188 0)"/>
      <use xlink:href="#DejaVuSans-35" transform="translate(589.990234 0)"/>
     </g>
    </g>
   </g>
  </g>
 </g>
 <defs>
  <clipPath id="pb6d4341e4d">
   <rect x="50.14375" y="22.318125" width="372.58" height="255.16"/>
  </clipPath>
  <clipPath id="p5ef7004627">
   <rect x="476.74375" y="22.318125" width="372.58" height="255.16"/>
  </clipPath>
 </defs>
</svg>
