<?xml version="1.0" encoding="utf-8" standalone="no"?>
<!DOCTYPE svg PUBLIC "-//W3C//DTD SVG 1.1//EN"
  "http://www.w3.org/Graphics/SVG/1.1/DTD/svg11.dtd">
<svg xmlns:xlink="http://www.w3.org/1999/xlink" width="1000.433125pt" height="351.763287pt" viewBox="0 0 1000.433125 351.763287" xmlns="http://www.w3.org/2000/svg" version="1.1">
 <metadata>
  <rdf:RDF xmlns:dc="http://purl.org/dc/elements/1.1/" xmlns:cc="http://creativecommons.org/ns#" xmlns:rdf="http://www.w3.org/1999/02/22-rdf-syntax-ns#">
   <cc:Work>
    <dc:type rdf:resource="http://purl.org/dc/dcmitype/StillImage"/>
    <dc:date>2026-05-26T14:34:38.541096</dc:date>
    <dc:format>image/svg+xml</dc:format>
    <dc:creator>
     <cc:Agent>
      <dc:title>Matplotlib v3.10.8, https://matplotlib.org/</dc:title>
     </cc:Agent>
    </dc:creator>
   </cc:Work>
  </rdf:RDF>
 </metadata>
 <defs>
  <style type="text/css">*{stroke-linejoin: round; stroke-linecap: butt}</style>
 </defs>
 <g id="figure_1">
  <g id="patch_1">
   <path d="M 0 351.763287 
L 1000.433125 351.763287 
L 1000.433125 0 
L 0 0 
z
" style="fill: #ffffff"/>
  </g>
  <g id="axes_1">
   <g id="patch_2">
    <path d="M 40.603125 311.212041 
L 496.931832 311.212041 
L 496.931832 22.318125 
L 40.603125 22.318125 
z
" style="fill: #ffffff"/>
   </g>
   <g id="matplotlib.axis_1">
    <g id="xtick_1">
     <g id="text_1">
      <!-- 13 -->
      <g transform="translate(44.268999 329.708713) rotate(-45) scale(0.08 -0.08)">
       <defs>
        <path id="DejaVuSans-31" d="M 794 531 
L 1825 531 
L 1825 4091 
L 703 3866 
L 703 4441 
L 1819 4666 
L 2450 4666 
L 2450 531 
L 3481 531 
L 3481 0 
L 794 0 
L 794 531 
z
" transform="scale(0.015625)"/>
        <path id="DejaVuSans-33" d="M 2597 2516 
Q 3050 2419 3304 2112 
Q 3559 1806 3559 1356 
Q 3559 666 3084 287 
Q 2609 -91 1734 -91 
Q 1441 -91 1130 -33 
Q 819 25 488 141 
L 488 750 
Q 750 597 1062 519 
Q 1375 441 1716 441 
Q 2309 441 2620 675 
Q 2931 909 2931 1356 
Q 2931 1769 2642 2001 
Q 2353 2234 1838 2234 
L 1294 2234 
L 1294 2753 
L 1863 2753 
Q 2328 2753 2575 2939 
Q 2822 3125 2822 3475 
Q 2822 3834 2567 4026 
Q 2313 4219 1838 4219 
Q 1578 4219 1281 4162 
Q 984 4106 628 3988 
L 628 4550 
Q 988 4650 1302 4700 
Q 1616 4750 1894 4750 
Q 2613 4750 3031 4423 
Q 3450 4097 3450 3541 
Q 3450 3153 3228 2886 
Q 3006 2619 2597 2516 
z
" transform="scale(0.015625)"/>
       </defs>
       <use xlink:href="#DejaVuSans-31"/>
       <use xlink:href="#DejaVuSans-33" transform="translate(63.623047 0)"/>
      </g>
     </g>
    </g>
    <g id="xtick_2">
     <g id="text_2">
      <!-- 14 -->
      <g transform="translate(55.677216 329.708713) rotate(-45) scale(0.08 -0.08)">
       <defs>
        <path id="DejaVuSans-34" d="M 2419 4116 
L 825 1625 
L 2419 1625 
L 2419 4116 
z
M 2253 4666 
L 3047 4666 
L 3047 1625 
L 3713 1625 
L 3713 1100 
L 3047 1100 
L 3047 0 
L 2419 0 
L 2419 1100 
L 313 1100 
L 313 1709 
L 2253 4666 
z
" transform="scale(0.015625)"/>
       </defs>
       <use xlink:href="#DejaVuSans-31"/>
       <use xlink:href="#DejaVuSans-34" transform="translate(63.623047 0)"/>
      </g>
     </g>
    </g>
    <g id="xtick_3">
     <g id="text_3">
      <!-- 0 -->
      <g transform="translate(68.885021 326.109539) rotate(-45) scale(0.08 -0.08)">
       <defs>
        <path id="DejaVuSans-30" d="M 2034 4250 
Q 1547 4250 1301 3770 
Q 1056 3291 1056 2328 
Q 1056 1369 1301 889 
Q 1547 409 2034 409 
Q 2525 409 2770 889 
Q 3016 1369 3016 2328 
Q 3016 3291 2770 3770 
Q 2525 4250 2034 4250 
z
M 2034 4750 
Q 2819 4750 3233 4129 
Q 3647 3509 3647 2328 
Q 3647 1150 3233 529 
Q 2819 -91 2034 -91 
Q 1250 -91 836 529 
Q 422 1150 422 2328 
Q 422 3509 836 4129 
Q 1250 4750 2034 4750 
z
" transform="scale(0.015625)"/>
       </defs>
       <use xlink:href="#DejaVuSans-30"/>
      </g>
     </g>
    </g>
    <g id="xtick_4">
     <g id="text_4">
      <!-- 4 -->
      <g transform="translate(80.293238 326.109539) rotate(-45) scale(0.08 -0.08)">
       <use xlink:href="#DejaVuSans-34"/>
      </g>
     </g>
    </g>
    <g id="xtick_5">
     <g id="text_5">
      <!-- 25 -->
      <g transform="translate(89.901869 329.708713) rotate(-45) scale(0.08 -0.08)">
       <defs>
        <path id="DejaVuSans-32" d="M 1228 531 
L 3431 531 
L 3431 0 
L 469 0 
L 469 531 
Q 828 903 1448 1529 
Q 2069 2156 2228 2338 
Q 2531 2678 2651 2914 
Q 2772 3150 2772 3378 
Q 2772 3750 2511 3984 
Q 2250 4219 1831 4219 
Q 1534 4219 1204 4116 
Q 875 4013 500 3803 
L 500 4441 
Q 881 4594 1212 4672 
Q 1544 4750 1819 4750 
Q 2544 4750 2975 4387 
Q 3406 4025 3406 3419 
Q 3406 3131 3298 2873 
Q 3191 2616 2906 2266 
Q 2828 2175 2409 1742 
Q 1991 1309 1228 531 
z
" transform="scale(0.015625)"/>
        <path id="DejaVuSans-35" d="M 691 4666 
L 3169 4666 
L 3169 4134 
L 1269 4134 
L 1269 2991 
Q 1406 3038 1543 3061 
Q 1681 3084 1819 3084 
Q 2600 3084 3056 2656 
Q 3513 2228 3513 1497 
Q 3513 744 3044 326 
Q 2575 -91 1722 -91 
Q 1428 -91 1123 -41 
Q 819 9 494 109 
L 494 744 
Q 775 591 1075 516 
Q 1375 441 1709 441 
Q 2250 441 2565 725 
Q 2881 1009 2881 1497 
Q 2881 1984 2565 2268 
Q 2250 2553 1709 2553 
Q 1456 2553 1204 2497 
Q 953 2441 691 2322 
L 691 4666 
z
" transform="scale(0.015625)"/>
       </defs>
       <use xlink:href="#DejaVuSans-32"/>
       <use xlink:href="#DejaVuSans-35" transform="translate(63.623047 0)"/>
      </g>
     </g>
    </g>
    <g id="xtick_6">
     <g id="text_6">
      <!-- 6 -->
      <g transform="translate(103.109674 326.109539) rotate(-45) scale(0.08 -0.08)">
       <defs>
        <path id="DejaVuSans-36" d="M 2113 2584 
Q 1688 2584 1439 2293 
Q 1191 2003 1191 1497 
Q 1191 994 1439 701 
Q 1688 409 2113 409 
Q 2538 409 2786 701 
Q 3034 994 3034 1497 
Q 3034 2003 2786 2293 
Q 2538 2584 2113 2584 
z
M 3366 4563 
L 3366 3988 
Q 3128 4100 2886 4159 
Q 2644 4219 2406 4219 
Q 1781 4219 1451 3797 
Q 1122 3375 1075 2522 
Q 1259 2794 1537 2939 
Q 1816 3084 2150 3084 
Q 2853 3084 3261 2657 
Q 3669 2231 3669 1497 
Q 3669 778 3244 343 
Q 2819 -91 2113 -91 
Q 1303 -91 875 529 
Q 447 1150 447 2328 
Q 447 3434 972 4092 
Q 1497 4750 2381 4750 
Q 2619 4750 2861 4703 
Q 3103 4656 3366 4563 
z
" transform="scale(0.015625)"/>
       </defs>
       <use xlink:href="#DejaVuSans-36"/>
      </g>
     </g>
    </g>
    <g id="xtick_7">
     <g id="text_7">
      <!-- 33 -->
      <g transform="translate(112.718305 329.708713) rotate(-45) scale(0.08 -0.08)">
       <use xlink:href="#DejaVuSans-33"/>
       <use xlink:href="#DejaVuSans-33" transform="translate(63.623047 0)"/>
      </g>
     </g>
    </g>
    <g id="xtick_8">
     <g id="text_8">
      <!-- 27 -->
      <g transform="translate(124.126522 329.708713) rotate(-45) scale(0.08 -0.08)">
       <defs>
        <path id="DejaVuSans-37" d="M 525 4666 
L 3525 4666 
L 3525 4397 
L 1831 0 
L 1172 0 
L 2766 4134 
L 525 4134 
L 525 4666 
z
" transform="scale(0.015625)"/>
       </defs>
       <use xlink:href="#DejaVuSans-32"/>
       <use xlink:href="#DejaVuSans-37" transform="translate(63.623047 0)"/>
      </g>
     </g>
    </g>
    <g id="xtick_9">
     <g id="text_9">
      <!-- 3 -->
      <g transform="translate(137.334327 326.109539) rotate(-45) scale(0.08 -0.08)">
       <use xlink:href="#DejaVuSans-33"/>
      </g>
     </g>
    </g>
    <g id="xtick_10">
     <g id="text_10">
      <!-- 20 -->
      <g transform="translate(146.942958 329.708713) rotate(-45) scale(0.08 -0.08)">
       <use xlink:href="#DejaVuSans-32"/>
       <use xlink:href="#DejaVuSans-30" transform="translate(63.623047 0)"/>
      </g>
     </g>
    </g>
    <g id="xtick_11">
     <g id="text_11">
      <!-- 38 -->
      <g transform="translate(158.351175 329.708713) rotate(-45) scale(0.08 -0.08)">
       <defs>
        <path id="DejaVuSans-38" d="M 2034 2216 
Q 1584 2216 1326 1975 
Q 1069 1734 1069 1313 
Q 1069 891 1326 650 
Q 1584 409 2034 409 
Q 2484 409 2743 651 
Q 3003 894 3003 1313 
Q 3003 1734 2745 1975 
Q 2488 2216 2034 2216 
z
M 1403 2484 
Q 997 2584 770 2862 
Q 544 3141 544 3541 
Q 544 4100 942 4425 
Q 1341 4750 2034 4750 
Q 2731 4750 3128 4425 
Q 3525 4100 3525 3541 
Q 3525 3141 3298 2862 
Q 3072 2584 2669 2484 
Q 3125 2378 3379 2068 
Q 3634 1759 3634 1313 
Q 3634 634 3220 271 
Q 2806 -91 2034 -91 
Q 1263 -91 848 271 
Q 434 634 434 1313 
Q 434 1759 690 2068 
Q 947 2378 1403 2484 
z
M 1172 3481 
Q 1172 3119 1398 2916 
Q 1625 2713 2034 2713 
Q 2441 2713 2670 2916 
Q 2900 3119 2900 3481 
Q 2900 3844 2670 4047 
Q 2441 4250 2034 4250 
Q 1625 4250 1398 4047 
Q 1172 3844 1172 3481 
z
" transform="scale(0.015625)"/>
       </defs>
       <use xlink:href="#DejaVuSans-33"/>
       <use xlink:href="#DejaVuSans-38" transform="translate(63.623047 0)"/>
      </g>
     </g>
    </g>
    <g id="xtick_12">
     <g id="text_12">
      <!-- 28 -->
      <g transform="translate(169.759393 329.708713) rotate(-45) scale(0.08 -0.08)">
       <use xlink:href="#DejaVuSans-32"/>
       <use xlink:href="#DejaVuSans-38" transform="translate(63.623047 0)"/>
      </g>
     </g>
    </g>
    <g id="xtick_13">
     <g id="text_13">
      <!-- 31 -->
      <g transform="translate(181.167611 329.708713) rotate(-45) scale(0.08 -0.08)">
       <use xlink:href="#DejaVuSans-33"/>
       <use xlink:href="#DejaVuSans-31" transform="translate(63.623047 0)"/>
      </g>
     </g>
    </g>
    <g id="xtick_14">
     <g id="text_14">
      <!-- 5 -->
      <g transform="translate(194.375415 326.109539) rotate(-45) scale(0.08 -0.08)">
       <use xlink:href="#DejaVuSans-35"/>
      </g>
     </g>
    </g>
    <g id="xtick_15">
     <g id="text_15">
      <!-- 34 -->
      <g transform="translate(203.984046 329.708713) rotate(-45) scale(0.08 -0.08)">
       <use xlink:href="#DejaVuSans-33"/>
       <use xlink:href="#DejaVuSans-34" transform="translate(63.623047 0)"/>
      </g>
     </g>
    </g>
    <g id="xtick_16">
     <g id="text_16">
      <!-- 7 -->
      <g transform="translate(217.19185 326.109539) rotate(-45) scale(0.08 -0.08)">
       <use xlink:href="#DejaVuSans-37"/>
      </g>
     </g>
    </g>
    <g id="xtick_17">
     <g id="text_17">
      <!-- 36 -->
      <g transform="translate(226.800481 329.708713) rotate(-45) scale(0.08 -0.08)">
       <use xlink:href="#DejaVuSans-33"/>
       <use xlink:href="#DejaVuSans-36" transform="translate(63.623047 0)"/>
      </g>
     </g>
    </g>
    <g id="xtick_18">
     <g id="text_18">
      <!-- 1 -->
      <g transform="translate(240.008286 326.109539) rotate(-45) scale(0.08 -0.08)">
       <use xlink:href="#DejaVuSans-31"/>
      </g>
     </g>
    </g>
    <g id="xtick_19">
     <g id="text_19">
      <!-- 19 -->
      <g transform="translate(249.616917 329.708713) rotate(-45) scale(0.08 -0.08)">
       <defs>
        <path id="DejaVuSans-39" d="M 703 97 
L 703 672 
Q 941 559 1184 500 
Q 1428 441 1663 441 
Q 2288 441 2617 861 
Q 2947 1281 2994 2138 
Q 2813 1869 2534 1725 
Q 2256 1581 1919 1581 
Q 1219 1581 811 2004 
Q 403 2428 403 3163 
Q 403 3881 828 4315 
Q 1253 4750 1959 4750 
Q 2769 4750 3195 4129 
Q 3622 3509 3622 2328 
Q 3622 1225 3098 567 
Q 2575 -91 1691 -91 
Q 1453 -91 1209 -44 
Q 966 3 703 97 
z
M 1959 2075 
Q 2384 2075 2632 2365 
Q 2881 2656 2881 3163 
Q 2881 3666 2632 3958 
Q 2384 4250 1959 4250 
Q 1534 4250 1286 3958 
Q 1038 3666 1038 3163 
Q 1038 2656 1286 2365 
Q 1534 2075 1959 2075 
z
" transform="scale(0.015625)"/>
       </defs>
       <use xlink:href="#DejaVuSans-31"/>
       <use xlink:href="#DejaVuSans-39" transform="translate(63.623047 0)"/>
      </g>
     </g>
    </g>
    <g id="xtick_20">
     <g id="text_20">
      <!-- 12 -->
      <g transform="translate(261.025134 329.708713) rotate(-45) scale(0.08 -0.08)">
       <use xlink:href="#DejaVuSans-31"/>
       <use xlink:href="#DejaVuSans-32" transform="translate(63.623047 0)"/>
      </g>
     </g>
    </g>
    <g id="xtick_21">
     <g id="text_21">
      <!-- 18 -->
      <g transform="translate(272.433352 329.708713) rotate(-45) scale(0.08 -0.08)">
       <use xlink:href="#DejaVuSans-31"/>
       <use xlink:href="#DejaVuSans-38" transform="translate(63.623047 0)"/>
      </g>
     </g>
    </g>
    <g id="xtick_22">
     <g id="text_22">
      <!-- 11 -->
      <g transform="translate(283.84157 329.708713) rotate(-45) scale(0.08 -0.08)">
       <use xlink:href="#DejaVuSans-31"/>
       <use xlink:href="#DejaVuSans-31" transform="translate(63.623047 0)"/>
      </g>
     </g>
    </g>
    <g id="xtick_23">
     <g id="text_23">
      <!-- 17 -->
      <g transform="translate(295.249787 329.708713) rotate(-45) scale(0.08 -0.08)">
       <use xlink:href="#DejaVuSans-31"/>
       <use xlink:href="#DejaVuSans-37" transform="translate(63.623047 0)"/>
      </g>
     </g>
    </g>
    <g id="xtick_24">
     <g id="text_24">
      <!-- 39 -->
      <g transform="translate(306.658005 329.708713) rotate(-45) scale(0.08 -0.08)">
       <use xlink:href="#DejaVuSans-33"/>
       <use xlink:href="#DejaVuSans-39" transform="translate(63.623047 0)"/>
      </g>
     </g>
    </g>
    <g id="xtick_25">
     <g id="text_25">
      <!-- 9 -->
      <g transform="translate(319.865809 326.109539) rotate(-45) scale(0.08 -0.08)">
       <use xlink:href="#DejaVuSans-39"/>
      </g>
     </g>
    </g>
    <g id="xtick_26">
     <g id="text_26">
      <!-- 32 -->
      <g transform="translate(329.47444 329.708713) rotate(-45) scale(0.08 -0.08)">
       <use xlink:href="#DejaVuSans-33"/>
       <use xlink:href="#DejaVuSans-32" transform="translate(63.623047 0)"/>
      </g>
     </g>
    </g>
    <g id="xtick_27">
     <g id="text_27">
      <!-- 26 -->
      <g transform="translate(340.882658 329.708713) rotate(-45) scale(0.08 -0.08)">
       <use xlink:href="#DejaVuSans-32"/>
       <use xlink:href="#DejaVuSans-36" transform="translate(63.623047 0)"/>
      </g>
     </g>
    </g>
    <g id="xtick_28">
     <g id="text_28">
      <!-- 22 -->
      <g transform="translate(352.290876 329.708713) rotate(-45) scale(0.08 -0.08)">
       <use xlink:href="#DejaVuSans-32"/>
       <use xlink:href="#DejaVuSans-32" transform="translate(63.623047 0)"/>
      </g>
     </g>
    </g>
    <g id="xtick_29">
     <g id="text_29">
      <!-- 24 -->
      <g transform="translate(363.699093 329.708713) rotate(-45) scale(0.08 -0.08)">
       <use xlink:href="#DejaVuSans-32"/>
       <use xlink:href="#DejaVuSans-34" transform="translate(63.623047 0)"/>
      </g>
     </g>
    </g>
    <g id="xtick_30">
     <g id="text_30">
      <!-- 37 -->
      <g transform="translate(375.107311 329.708713) rotate(-45) scale(0.08 -0.08)">
       <use xlink:href="#DejaVuSans-33"/>
       <use xlink:href="#DejaVuSans-37" transform="translate(63.623047 0)"/>
      </g>
     </g>
    </g>
    <g id="xtick_31">
     <g id="text_31">
      <!-- 15 -->
      <g transform="translate(386.515529 329.708713) rotate(-45) scale(0.08 -0.08)">
       <use xlink:href="#DejaVuSans-31"/>
       <use xlink:href="#DejaVuSans-35" transform="translate(63.623047 0)"/>
      </g>
     </g>
    </g>
    <g id="xtick_32">
     <g id="text_32">
      <!-- 29 -->
      <g transform="translate(397.923746 329.708713) rotate(-45) scale(0.08 -0.08)">
       <use xlink:href="#DejaVuSans-32"/>
       <use xlink:href="#DejaVuSans-39" transform="translate(63.623047 0)"/>
      </g>
     </g>
    </g>
    <g id="xtick_33">
     <g id="text_33">
      <!-- 10 -->
      <g transform="translate(409.331964 329.708713) rotate(-45) scale(0.08 -0.08)">
       <use xlink:href="#DejaVuSans-31"/>
       <use xlink:href="#DejaVuSans-30" transform="translate(63.623047 0)"/>
      </g>
     </g>
    </g>
    <g id="xtick_34">
     <g id="text_34">
      <!-- 35 -->
      <g transform="translate(420.740182 329.708713) rotate(-45) scale(0.08 -0.08)">
       <use xlink:href="#DejaVuSans-33"/>
       <use xlink:href="#DejaVuSans-35" transform="translate(63.623047 0)"/>
      </g>
     </g>
    </g>
    <g id="xtick_35">
     <g id="text_35">
      <!-- 8 -->
      <g transform="translate(433.947986 326.109539) rotate(-45) scale(0.08 -0.08)">
       <use xlink:href="#DejaVuSans-38"/>
      </g>
     </g>
    </g>
    <g id="xtick_36">
     <g id="text_36">
      <!-- 30 -->
      <g transform="translate(443.556617 329.708713) rotate(-45) scale(0.08 -0.08)">
       <use xlink:href="#DejaVuSans-33"/>
       <use xlink:href="#DejaVuSans-30" transform="translate(63.623047 0)"/>
      </g>
     </g>
    </g>
    <g id="xtick_37">
     <g id="text_37">
      <!-- 2 -->
      <g transform="translate(456.764422 326.109539) rotate(-45) scale(0.08 -0.08)">
       <use xlink:href="#DejaVuSans-32"/>
      </g>
     </g>
    </g>
    <g id="xtick_38">
     <g id="text_38">
      <!-- 23 -->
      <g transform="translate(466.373053 329.708713) rotate(-45) scale(0.08 -0.08)">
       <use xlink:href="#DejaVuSans-32"/>
       <use xlink:href="#DejaVuSans-33" transform="translate(63.623047 0)"/>
      </g>
     </g>
    </g>
    <g id="xtick_39">
     <g id="text_39">
      <!-- 16 -->
      <g transform="translate(477.78127 329.708713) rotate(-45) scale(0.08 -0.08)">
       <use xlink:href="#DejaVuSans-31"/>
       <use xlink:href="#DejaVuSans-36" transform="translate(63.623047 0)"/>
      </g>
     </g>
    </g>
    <g id="xtick_40">
     <g id="text_40">
      <!-- 21 -->
      <g transform="translate(489.189488 329.708713) rotate(-45) scale(0.08 -0.08)">
       <use xlink:href="#DejaVuSans-32"/>
       <use xlink:href="#DejaVuSans-31" transform="translate(63.623047 0)"/>
      </g>
     </g>
    </g>
    <g id="text_41">
     <!-- sample index -->
     <g transform="translate(235.319041 342.483599) scale(0.1 -0.1)">
      <defs>
       <path id="DejaVuSans-73" d="M 2834 3397 
L 2834 2853 
Q 2591 2978 2328 3040 
Q 2066 3103 1784 3103 
Q 1356 3103 1142 2972 
Q 928 2841 928 2578 
Q 928 2378 1081 2264 
Q 1234 2150 1697 2047 
L 1894 2003 
Q 2506 1872 2764 1633 
Q 3022 1394 3022 966 
Q 3022 478 2636 193 
Q 2250 -91 1575 -91 
Q 1294 -91 989 -36 
Q 684 19 347 128 
L 347 722 
Q 666 556 975 473 
Q 1284 391 1588 391 
Q 1994 391 2212 530 
Q 2431 669 2431 922 
Q 2431 1156 2273 1281 
Q 2116 1406 1581 1522 
L 1381 1569 
Q 847 1681 609 1914 
Q 372 2147 372 2553 
Q 372 3047 722 3315 
Q 1072 3584 1716 3584 
Q 2034 3584 2315 3537 
Q 2597 3491 2834 3397 
z
" transform="scale(0.015625)"/>
       <path id="DejaVuSans-61" d="M 2194 1759 
Q 1497 1759 1228 1600 
Q 959 1441 959 1056 
Q 959 750 1161 570 
Q 1363 391 1709 391 
Q 2188 391 2477 730 
Q 2766 1069 2766 1631 
L 2766 1759 
L 2194 1759 
z
M 3341 1997 
L 3341 0 
L 2766 0 
L 2766 531 
Q 2569 213 2275 61 
Q 1981 -91 1556 -91 
Q 1019 -91 701 211 
Q 384 513 384 1019 
Q 384 1609 779 1909 
Q 1175 2209 1959 2209 
L 2766 2209 
L 2766 2266 
Q 2766 2663 2505 2880 
Q 2244 3097 1772 3097 
Q 1472 3097 1187 3025 
Q 903 2953 641 2809 
L 641 3341 
Q 956 3463 1253 3523 
Q 1550 3584 1831 3584 
Q 2591 3584 2966 3190 
Q 3341 2797 3341 1997 
z
" transform="scale(0.015625)"/>
       <path id="DejaVuSans-6d" d="M 3328 2828 
Q 3544 3216 3844 3400 
Q 4144 3584 4550 3584 
Q 5097 3584 5394 3201 
Q 5691 2819 5691 2113 
L 5691 0 
L 5113 0 
L 5113 2094 
Q 5113 2597 4934 2840 
Q 4756 3084 4391 3084 
Q 3944 3084 3684 2787 
Q 3425 2491 3425 1978 
L 3425 0 
L 2847 0 
L 2847 2094 
Q 2847 2600 2669 2842 
Q 2491 3084 2119 3084 
Q 1678 3084 1418 2786 
Q 1159 2488 1159 1978 
L 1159 0 
L 581 0 
L 581 3500 
L 1159 3500 
L 1159 2956 
Q 1356 3278 1631 3431 
Q 1906 3584 2284 3584 
Q 2666 3584 2933 3390 
Q 3200 3197 3328 2828 
z
" transform="scale(0.015625)"/>
       <path id="DejaVuSans-70" d="M 1159 525 
L 1159 -1331 
L 581 -1331 
L 581 3500 
L 1159 3500 
L 1159 2969 
Q 1341 3281 1617 3432 
Q 1894 3584 2278 3584 
Q 2916 3584 3314 3078 
Q 3713 2572 3713 1747 
Q 3713 922 3314 415 
Q 2916 -91 2278 -91 
Q 1894 -91 1617 61 
Q 1341 213 1159 525 
z
M 3116 1747 
Q 3116 2381 2855 2742 
Q 2594 3103 2138 3103 
Q 1681 3103 1420 2742 
Q 1159 2381 1159 1747 
Q 1159 1113 1420 752 
Q 1681 391 2138 391 
Q 2594 391 2855 752 
Q 3116 1113 3116 1747 
z
" transform="scale(0.015625)"/>
       <path id="DejaVuSans-6c" d="M 603 4863 
L 1178 4863 
L 1178 0 
L 603 0 
L 603 4863 
z
" transform="scale(0.015625)"/>
       <path id="DejaVuSans-65" d="M 3597 1894 
L 3597 1613 
L 953 1613 
Q 991 1019 1311 708 
Q 1631 397 2203 397 
Q 2534 397 2845 478 
Q 3156 559 3463 722 
L 3463 178 
Q 3153 47 2828 -22 
Q 2503 -91 2169 -91 
Q 1331 -91 842 396 
Q 353 884 353 1716 
Q 353 2575 817 3079 
Q 1281 3584 2069 3584 
Q 2775 3584 3186 3129 
Q 3597 2675 3597 1894 
z
M 3022 2063 
Q 3016 2534 2758 2815 
Q 2500 3097 2075 3097 
Q 1594 3097 1305 2825 
Q 1016 2553 972 2059 
L 3022 2063 
z
" transform="scale(0.015625)"/>
       <path id="DejaVuSans-20" transform="scale(0.015625)"/>
       <path id="DejaVuSans-69" d="M 603 3500 
L 1178 3500 
L 1178 0 
L 603 0 
L 603 3500 
z
M 603 4863 
L 1178 4863 
L 1178 4134 
L 603 4134 
L 603 4863 
z
" transform="scale(0.015625)"/>
       <path id="DejaVuSans-6e" d="M 3513 2113 
L 3513 0 
L 2938 0 
L 2938 2094 
Q 2938 2591 2744 2837 
Q 2550 3084 2163 3084 
Q 1697 3084 1428 2787 
Q 1159 2491 1159 1978 
L 1159 0 
L 581 0 
L 581 3500 
L 1159 3500 
L 1159 2956 
Q 1366 3272 1645 3428 
Q 1925 3584 2291 3584 
Q 2894 3584 3203 3211 
Q 3513 2838 3513 2113 
z
" transform="scale(0.015625)"/>
       <path id="DejaVuSans-64" d="M 2906 2969 
L 2906 4863 
L 3481 4863 
L 3481 0 
L 2906 0 
L 2906 525 
Q 2725 213 2448 61 
Q 2172 -91 1784 -91 
Q 1150 -91 751 415 
Q 353 922 353 1747 
Q 353 2572 751 3078 
Q 1150 3584 1784 3584 
Q 2172 3584 2448 3432 
Q 2725 3281 2906 2969 
z
M 947 1747 
Q 947 1113 1208 752 
Q 1469 391 1925 391 
Q 2381 391 2643 752 
Q 2906 1113 2906 1747 
Q 2906 2381 2643 2742 
Q 2381 3103 1925 3103 
Q 1469 3103 1208 2742 
Q 947 2381 947 1747 
z
" transform="scale(0.015625)"/>
       <path id="DejaVuSans-78" d="M 3513 3500 
L 2247 1797 
L 3578 0 
L 2900 0 
L 1881 1375 
L 863 0 
L 184 0 
L 1544 1831 
L 300 3500 
L 978 3500 
L 1906 2253 
L 2834 3500 
L 3513 3500 
z
" transform="scale(0.015625)"/>
      </defs>
      <use xlink:href="#DejaVuSans-73"/>
      <use xlink:href="#DejaVuSans-61" transform="translate(52.099609 0)"/>
      <use xlink:href="#DejaVuSans-6d" transform="translate(113.378906 0)"/>
      <use xlink:href="#DejaVuSans-70" transform="translate(210.791016 0)"/>
      <use xlink:href="#DejaVuSans-6c" transform="translate(274.267578 0)"/>
      <use xlink:href="#DejaVuSans-65" transform="translate(302.050781 0)"/>
      <use xlink:href="#DejaVuSans-20" transform="translate(363.574219 0)"/>
      <use xlink:href="#DejaVuSans-69" transform="translate(395.361328 0)"/>
      <use xlink:href="#DejaVuSans-6e" transform="translate(423.144531 0)"/>
      <use xlink:href="#DejaVuSans-64" transform="translate(486.523438 0)"/>
      <use xlink:href="#DejaVuSans-65" transform="translate(550 0)"/>
      <use xlink:href="#DejaVuSans-78" transform="translate(609.773438 0)"/>
     </g>
    </g>
   </g>
   <g id="matplotlib.axis_2">
    <g id="ytick_1">
     <g id="line2d_1">
      <defs>
       <path id="m5d136f66ae" d="M 0 0 
L -3.5 0 
" style="stroke: #000000; stroke-width: 0.8"/>
      </defs>
      <g>
       <use xlink:href="#m5d136f66ae" x="40.603125" y="311.212041" style="stroke: #000000; stroke-width: 0.8"/>
      </g>
     </g>
     <g id="text_42">
      <!-- 0 -->
      <g transform="translate(27.240625 315.011259) scale(0.1 -0.1)">
       <use xlink:href="#DejaVuSans-30"/>
      </g>
     </g>
    </g>
    <g id="ytick_2">
     <g id="line2d_2">
      <g>
       <use xlink:href="#m5d136f66ae" x="40.603125" y="269.48028" style="stroke: #000000; stroke-width: 0.8"/>
      </g>
     </g>
     <g id="text_43">
      <!-- 2 -->
      <g transform="translate(27.240625 273.279499) scale(0.1 -0.1)">
       <use xlink:href="#DejaVuSans-32"/>
      </g>
     </g>
    </g>
    <g id="ytick_3">
     <g id="line2d_3">
      <g>
       <use xlink:href="#m5d136f66ae" x="40.603125" y="227.74852" style="stroke: #000000; stroke-width: 0.8"/>
      </g>
     </g>
     <g id="text_44">
      <!-- 4 -->
      <g transform="translate(27.240625 231.547738) scale(0.1 -0.1)">
       <use xlink:href="#DejaVuSans-34"/>
      </g>
     </g>
    </g>
    <g id="ytick_4">
     <g id="line2d_4">
      <g>
       <use xlink:href="#m5d136f66ae" x="40.603125" y="186.016759" style="stroke: #000000; stroke-width: 0.8"/>
      </g>
     </g>
     <g id="text_45">
      <!-- 6 -->
      <g transform="translate(27.240625 189.815978) scale(0.1 -0.1)">
       <use xlink:href="#DejaVuSans-36"/>
      </g>
     </g>
    </g>
    <g id="ytick_5">
     <g id="line2d_5">
      <g>
       <use xlink:href="#m5d136f66ae" x="40.603125" y="144.284999" style="stroke: #000000; stroke-width: 0.8"/>
      </g>
     </g>
     <g id="text_46">
      <!-- 8 -->
      <g transform="translate(27.240625 148.084218) scale(0.1 -0.1)">
       <use xlink:href="#DejaVuSans-38"/>
      </g>
     </g>
    </g>
    <g id="ytick_6">
     <g id="line2d_6">
      <g>
       <use xlink:href="#m5d136f66ae" x="40.603125" y="102.553238" style="stroke: #000000; stroke-width: 0.8"/>
      </g>
     </g>
     <g id="text_47">
      <!-- 10 -->
      <g transform="translate(20.878125 106.352457) scale(0.1 -0.1)">
       <use xlink:href="#DejaVuSans-31"/>
       <use xlink:href="#DejaVuSans-30" transform="translate(63.623047 0)"/>
      </g>
     </g>
    </g>
    <g id="ytick_7">
     <g id="line2d_7">
      <g>
       <use xlink:href="#m5d136f66ae" x="40.603125" y="60.821478" style="stroke: #000000; stroke-width: 0.8"/>
      </g>
     </g>
     <g id="text_48">
      <!-- 12 -->
      <g transform="translate(20.878125 64.620697) scale(0.1 -0.1)">
       <use xlink:href="#DejaVuSans-31"/>
       <use xlink:href="#DejaVuSans-32" transform="translate(63.623047 0)"/>
      </g>
     </g>
    </g>
    <g id="text_49">
     <!-- merge distance -->
     <g transform="translate(14.798438 205.706489) rotate(-90) scale(0.1 -0.1)">
      <defs>
       <path id="DejaVuSans-72" d="M 2631 2963 
Q 2534 3019 2420 3045 
Q 2306 3072 2169 3072 
Q 1681 3072 1420 2755 
Q 1159 2438 1159 1844 
L 1159 0 
L 581 0 
L 581 3500 
L 1159 3500 
L 1159 2956 
Q 1341 3275 1631 3429 
Q 1922 3584 2338 3584 
Q 2397 3584 2469 3576 
Q 2541 3569 2628 3553 
L 2631 2963 
z
" transform="scale(0.015625)"/>
       <path id="DejaVuSans-67" d="M 2906 1791 
Q 2906 2416 2648 2759 
Q 2391 3103 1925 3103 
Q 1463 3103 1205 2759 
Q 947 2416 947 1791 
Q 947 1169 1205 825 
Q 1463 481 1925 481 
Q 2391 481 2648 825 
Q 2906 1169 2906 1791 
z
M 3481 434 
Q 3481 -459 3084 -895 
Q 2688 -1331 1869 -1331 
Q 1566 -1331 1297 -1286 
Q 1028 -1241 775 -1147 
L 775 -588 
Q 1028 -725 1275 -790 
Q 1522 -856 1778 -856 
Q 2344 -856 2625 -561 
Q 2906 -266 2906 331 
L 2906 616 
Q 2728 306 2450 153 
Q 2172 0 1784 0 
Q 1141 0 747 490 
Q 353 981 353 1791 
Q 353 2603 747 3093 
Q 1141 3584 1784 3584 
Q 2172 3584 2450 3431 
Q 2728 3278 2906 2969 
L 2906 3500 
L 3481 3500 
L 3481 434 
z
" transform="scale(0.015625)"/>
       <path id="DejaVuSans-74" d="M 1172 4494 
L 1172 3500 
L 2356 3500 
L 2356 3053 
L 1172 3053 
L 1172 1153 
Q 1172 725 1289 603 
Q 1406 481 1766 481 
L 2356 481 
L 2356 0 
L 1766 0 
Q 1100 0 847 248 
Q 594 497 594 1153 
L 594 3053 
L 172 3053 
L 172 3500 
L 594 3500 
L 594 4494 
L 1172 4494 
z
" transform="scale(0.015625)"/>
       <path id="DejaVuSans-63" d="M 3122 3366 
L 3122 2828 
Q 2878 2963 2633 3030 
Q 2388 3097 2138 3097 
Q 1578 3097 1268 2742 
Q 959 2388 959 1747 
Q 959 1106 1268 751 
Q 1578 397 2138 397 
Q 2388 397 2633 464 
Q 2878 531 3122 666 
L 3122 134 
Q 2881 22 2623 -34 
Q 2366 -91 2075 -91 
Q 1284 -91 818 406 
Q 353 903 353 1747 
Q 353 2603 823 3093 
Q 1294 3584 2113 3584 
Q 2378 3584 2631 3529 
Q 2884 3475 3122 3366 
z
" transform="scale(0.015625)"/>
      </defs>
      <use xlink:href="#DejaVuSans-6d"/>
      <use xlink:href="#DejaVuSans-65" transform="translate(97.412109 0)"/>
      <use xlink:href="#DejaVuSans-72" transform="translate(158.935547 0)"/>
      <use xlink:href="#DejaVuSans-67" transform="translate(198.298828 0)"/>
      <use xlink:href="#DejaVuSans-65" transform="translate(261.775391 0)"/>
      <use xlink:href="#DejaVuSans-20" transform="translate(323.298828 0)"/>
      <use xlink:href="#DejaVuSans-64" transform="translate(355.085938 0)"/>
      <use xlink:href="#DejaVuSans-69" transform="translate(418.5625 0)"/>
      <use xlink:href="#DejaVuSans-73" transform="translate(446.345703 0)"/>
      <use xlink:href="#DejaVuSans-74" transform="translate(498.445312 0)"/>
      <use xlink:href="#DejaVuSans-61" transform="translate(537.654297 0)"/>
      <use xlink:href="#DejaVuSans-6e" transform="translate(598.933594 0)"/>
      <use xlink:href="#DejaVuSans-63" transform="translate(662.3125 0)"/>
      <use xlink:href="#DejaVuSans-65" transform="translate(717.292969 0)"/>
     </g>
    </g>
   </g>
   <g id="LineCollection_1">
    <path d="M 46.307234 311.212041 
L 46.307234 283.994405 
L 57.715452 283.994405 
L 57.715452 311.212041 
" clip-path="url(#paad2653610)" style="fill: none; stroke: #ff7f0e; stroke-width: 1.5"/>
    <path d="M 69.123669 311.212041 
L 69.123669 301.386314 
L 80.531887 301.386314 
L 80.531887 311.212041 
" clip-path="url(#paad2653610)" style="fill: none; stroke: #ff7f0e; stroke-width: 1.5"/>
    <path d="M 103.348322 311.212041 
L 103.348322 302.375264 
L 114.75654 302.375264 
L 114.75654 311.212041 
" clip-path="url(#paad2653610)" style="fill: none; stroke: #ff7f0e; stroke-width: 1.5"/>
    <path d="M 91.940105 311.212041 
L 91.940105 292.691185 
L 109.052431 292.691185 
L 109.052431 302.375264 
" clip-path="url(#paad2653610)" style="fill: none; stroke: #ff7f0e; stroke-width: 1.5"/>
    <path d="M 137.572975 311.212041 
L 137.572975 308.780534 
L 148.981193 308.780534 
L 148.981193 311.212041 
" clip-path="url(#paad2653610)" style="fill: none; stroke: #ff7f0e; stroke-width: 1.5"/>
    <path d="M 126.164758 311.212041 
L 126.164758 307.181567 
L 143.277084 307.181567 
L 143.277084 308.780534 
" clip-path="url(#paad2653610)" style="fill: none; stroke: #ff7f0e; stroke-width: 1.5"/>
    <path d="M 171.797628 311.212041 
L 171.797628 308.582809 
L 183.205846 308.582809 
L 183.205846 311.212041 
" clip-path="url(#paad2653610)" style="fill: none; stroke: #ff7f0e; stroke-width: 1.5"/>
    <path d="M 160.389411 311.212041 
L 160.389411 303.069591 
L 177.501737 303.069591 
L 177.501737 308.582809 
" clip-path="url(#paad2653610)" style="fill: none; stroke: #ff7f0e; stroke-width: 1.5"/>
    <path d="M 134.720921 307.181567 
L 134.720921 288.705166 
L 168.945574 288.705166 
L 168.945574 303.069591 
" clip-path="url(#paad2653610)" style="fill: none; stroke: #ff7f0e; stroke-width: 1.5"/>
    <path d="M 100.496268 292.691185 
L 100.496268 277.461018 
L 151.833247 277.461018 
L 151.833247 288.705166 
" clip-path="url(#paad2653610)" style="fill: none; stroke: #ff7f0e; stroke-width: 1.5"/>
    <path d="M 74.827778 301.386314 
L 74.827778 269.207186 
L 126.164758 269.207186 
L 126.164758 277.461018 
" clip-path="url(#paad2653610)" style="fill: none; stroke: #ff7f0e; stroke-width: 1.5"/>
    <path d="M 52.011343 283.994405 
L 52.011343 225.989549 
L 100.496268 225.989549 
L 100.496268 269.207186 
" clip-path="url(#paad2653610)" style="fill: none; stroke: #ff7f0e; stroke-width: 1.5"/>
   </g>
   <g id="LineCollection_2">
    <path d="M 194.614064 311.212041 
L 194.614064 288.02892 
L 206.022281 288.02892 
L 206.022281 311.212041 
" clip-path="url(#paad2653610)" style="fill: none; stroke: #2ca02c; stroke-width: 1.5"/>
    <path d="M 240.246934 311.212041 
L 240.246934 306.868667 
L 251.655152 306.868667 
L 251.655152 311.212041 
" clip-path="url(#paad2653610)" style="fill: none; stroke: #2ca02c; stroke-width: 1.5"/>
    <path d="M 228.838717 311.212041 
L 228.838717 303.070555 
L 245.951043 303.070555 
L 245.951043 306.868667 
" clip-path="url(#paad2653610)" style="fill: none; stroke: #2ca02c; stroke-width: 1.5"/>
    <path d="M 217.430499 311.212041 
L 217.430499 299.479151 
L 237.39488 299.479151 
L 237.39488 303.070555 
" clip-path="url(#paad2653610)" style="fill: none; stroke: #2ca02c; stroke-width: 1.5"/>
    <path d="M 263.06337 311.212041 
L 263.06337 301.820474 
L 274.471587 301.820474 
L 274.471587 311.212041 
" clip-path="url(#paad2653610)" style="fill: none; stroke: #2ca02c; stroke-width: 1.5"/>
    <path d="M 297.288023 311.212041 
L 297.288023 305.668485 
L 308.69624 305.668485 
L 308.69624 311.212041 
" clip-path="url(#paad2653610)" style="fill: none; stroke: #2ca02c; stroke-width: 1.5"/>
    <path d="M 285.879805 311.212041 
L 285.879805 298.369527 
L 302.992132 298.369527 
L 302.992132 305.668485 
" clip-path="url(#paad2653610)" style="fill: none; stroke: #2ca02c; stroke-width: 1.5"/>
    <path d="M 268.767478 301.820474 
L 268.767478 288.842597 
L 294.435968 288.842597 
L 294.435968 298.369527 
" clip-path="url(#paad2653610)" style="fill: none; stroke: #2ca02c; stroke-width: 1.5"/>
    <path d="M 227.412689 299.479151 
L 227.412689 277.652306 
L 281.601723 277.652306 
L 281.601723 288.842597 
" clip-path="url(#paad2653610)" style="fill: none; stroke: #2ca02c; stroke-width: 1.5"/>
    <path d="M 200.318172 288.02892 
L 200.318172 263.248326 
L 254.507206 263.248326 
L 254.507206 277.652306 
" clip-path="url(#paad2653610)" style="fill: none; stroke: #2ca02c; stroke-width: 1.5"/>
   </g>
   <g id="LineCollection_3">
    <path d="M 320.104458 311.212041 
L 320.104458 300.820807 
L 331.512676 300.820807 
L 331.512676 311.212041 
" clip-path="url(#paad2653610)" style="fill: none; stroke: #d62728; stroke-width: 1.5"/>
    <path d="M 354.329111 311.212041 
L 354.329111 298.891333 
L 365.737329 298.891333 
L 365.737329 311.212041 
" clip-path="url(#paad2653610)" style="fill: none; stroke: #d62728; stroke-width: 1.5"/>
    <path d="M 388.553764 311.212041 
L 388.553764 305.177392 
L 399.961982 305.177392 
L 399.961982 311.212041 
" clip-path="url(#paad2653610)" style="fill: none; stroke: #d62728; stroke-width: 1.5"/>
    <path d="M 377.145546 311.212041 
L 377.145546 295.733534 
L 394.257873 295.733534 
L 394.257873 305.177392 
" clip-path="url(#paad2653610)" style="fill: none; stroke: #d62728; stroke-width: 1.5"/>
    <path d="M 360.03322 298.891333 
L 360.03322 282.055283 
L 385.70171 282.055283 
L 385.70171 295.733534 
" clip-path="url(#paad2653610)" style="fill: none; stroke: #d62728; stroke-width: 1.5"/>
    <path d="M 342.920893 311.212041 
L 342.920893 274.449575 
L 372.867465 274.449575 
L 372.867465 282.055283 
" clip-path="url(#paad2653610)" style="fill: none; stroke: #d62728; stroke-width: 1.5"/>
    <path d="M 325.808567 300.820807 
L 325.808567 247.231902 
L 357.894179 247.231902 
L 357.894179 274.449575 
" clip-path="url(#paad2653610)" style="fill: none; stroke: #d62728; stroke-width: 1.5"/>
    <path d="M 411.370199 311.212041 
L 411.370199 293.925191 
L 422.778417 293.925191 
L 422.778417 311.212041 
" clip-path="url(#paad2653610)" style="fill: none; stroke: #d62728; stroke-width: 1.5"/>
    <path d="M 434.186635 311.212041 
L 434.186635 300.547599 
L 445.594852 300.547599 
L 445.594852 311.212041 
" clip-path="url(#paad2653610)" style="fill: none; stroke: #d62728; stroke-width: 1.5"/>
    <path d="M 457.00307 311.212041 
L 457.00307 306.276293 
L 468.411288 306.276293 
L 468.411288 311.212041 
" clip-path="url(#paad2653610)" style="fill: none; stroke: #d62728; stroke-width: 1.5"/>
    <path d="M 479.819505 311.212041 
L 479.819505 301.267182 
L 491.227723 301.267182 
L 491.227723 311.212041 
" clip-path="url(#paad2653610)" style="fill: none; stroke: #d62728; stroke-width: 1.5"/>
    <path d="M 462.707179 306.276293 
L 462.707179 298.279609 
L 485.523614 298.279609 
L 485.523614 301.267182 
" clip-path="url(#paad2653610)" style="fill: none; stroke: #d62728; stroke-width: 1.5"/>
    <path d="M 439.890744 300.547599 
L 439.890744 280.239101 
L 474.115397 280.239101 
L 474.115397 298.279609 
" clip-path="url(#paad2653610)" style="fill: none; stroke: #d62728; stroke-width: 1.5"/>
    <path d="M 417.074308 293.925191 
L 417.074308 229.199497 
L 457.00307 229.199497 
L 457.00307 280.239101 
" clip-path="url(#paad2653610)" style="fill: none; stroke: #d62728; stroke-width: 1.5"/>
    <path d="M 341.851373 247.231902 
L 341.851373 220.632592 
L 437.038689 220.632592 
L 437.038689 229.199497 
" clip-path="url(#paad2653610)" style="fill: none; stroke: #d62728; stroke-width: 1.5"/>
   </g>
   <g id="LineCollection_4">
    <path d="M 227.412689 263.248326 
L 227.412689 67.857984 
L 389.445031 67.857984 
L 389.445031 220.632592 
" clip-path="url(#paad2653610)" style="fill: none; stroke: #1f77b4; stroke-width: 1.5"/>
    <path d="M 76.253805 225.989549 
L 76.253805 36.074978 
L 308.42886 36.074978 
L 308.42886 67.857984 
" clip-path="url(#paad2653610)" style="fill: none; stroke: #1f77b4; stroke-width: 1.5"/>
   </g>
   <g id="line2d_8">
    <path d="M 40.603125 144.284999 
L 496.931832 144.284999 
" clip-path="url(#paad2653610)" style="fill: none; stroke-dasharray: 5.55,2.4; stroke-dashoffset: 0; stroke: #e15759; stroke-width: 1.5"/>
   </g>
   <g id="line2d_9">
    <path clip-path="url(#paad2653610)" style="fill: none; stroke-dasharray: 5.55,2.4; stroke-dashoffset: 0; stroke: #59a14f; stroke-width: 1.5"/>
   </g>
   <g id="patch_3">
    <path d="M 40.603125 311.212041 
L 40.603125 22.318125 
" style="fill: none; stroke: #000000; stroke-width: 0.8; stroke-linejoin: miter; stroke-linecap: square"/>
   </g>
   <g id="patch_4">
    <path d="M 496.931832 311.212041 
L 496.931832 22.318125 
" style="fill: none; stroke: #000000; stroke-width: 0.8; stroke-linejoin: miter; stroke-linecap: square"/>
   </g>
   <g id="patch_5">
    <path d="M 40.603125 311.212041 
L 496.931832 311.212041 
" style="fill: none; stroke: #000000; stroke-width: 0.8; stroke-linejoin: miter; stroke-linecap: square"/>
   </g>
   <g id="patch_6">
    <path d="M 40.603125 22.318125 
L 496.931832 22.318125 
" style="fill: none; stroke: #000000; stroke-width: 0.8; stroke-linejoin: miter; stroke-linecap: square"/>
   </g>
   <g id="text_50">
    <!-- Dendrogram: tree of merges from bottom up -->
    <g transform="translate(133.935291 16.318125) scale(0.12 -0.12)">
     <defs>
      <path id="DejaVuSans-44" d="M 1259 4147 
L 1259 519 
L 2022 519 
Q 2988 519 3436 956 
Q 3884 1394 3884 2338 
Q 3884 3275 3436 3711 
Q 2988 4147 2022 4147 
L 1259 4147 
z
M 628 4666 
L 1925 4666 
Q 3281 4666 3915 4102 
Q 4550 3538 4550 2338 
Q 4550 1131 3912 565 
Q 3275 0 1925 0 
L 628 0 
L 628 4666 
z
" transform="scale(0.015625)"/>
      <path id="DejaVuSans-6f" d="M 1959 3097 
Q 1497 3097 1228 2736 
Q 959 2375 959 1747 
Q 959 1119 1226 758 
Q 1494 397 1959 397 
Q 2419 397 2687 759 
Q 2956 1122 2956 1747 
Q 2956 2369 2687 2733 
Q 2419 3097 1959 3097 
z
M 1959 3584 
Q 2709 3584 3137 3096 
Q 3566 2609 3566 1747 
Q 3566 888 3137 398 
Q 2709 -91 1959 -91 
Q 1206 -91 779 398 
Q 353 888 353 1747 
Q 353 2609 779 3096 
Q 1206 3584 1959 3584 
z
" transform="scale(0.015625)"/>
      <path id="DejaVuSans-3a" d="M 750 794 
L 1409 794 
L 1409 0 
L 750 0 
L 750 794 
z
M 750 3309 
L 1409 3309 
L 1409 2516 
L 750 2516 
L 750 3309 
z
" transform="scale(0.015625)"/>
      <path id="DejaVuSans-66" d="M 2375 4863 
L 2375 4384 
L 1825 4384 
Q 1516 4384 1395 4259 
Q 1275 4134 1275 3809 
L 1275 3500 
L 2222 3500 
L 2222 3053 
L 1275 3053 
L 1275 0 
L 697 0 
L 697 3053 
L 147 3053 
L 147 3500 
L 697 3500 
L 697 3744 
Q 697 4328 969 4595 
Q 1241 4863 1831 4863 
L 2375 4863 
z
" transform="scale(0.015625)"/>
      <path id="DejaVuSans-62" d="M 3116 1747 
Q 3116 2381 2855 2742 
Q 2594 3103 2138 3103 
Q 1681 3103 1420 2742 
Q 1159 2381 1159 1747 
Q 1159 1113 1420 752 
Q 1681 391 2138 391 
Q 2594 391 2855 752 
Q 3116 1113 3116 1747 
z
M 1159 2969 
Q 1341 3281 1617 3432 
Q 1894 3584 2278 3584 
Q 2916 3584 3314 3078 
Q 3713 2572 3713 1747 
Q 3713 922 3314 415 
Q 2916 -91 2278 -91 
Q 1894 -91 1617 61 
Q 1341 213 1159 525 
L 1159 0 
L 581 0 
L 581 4863 
L 1159 4863 
L 1159 2969 
z
" transform="scale(0.015625)"/>
      <path id="DejaVuSans-75" d="M 544 1381 
L 544 3500 
L 1119 3500 
L 1119 1403 
Q 1119 906 1312 657 
Q 1506 409 1894 409 
Q 2359 409 2629 706 
Q 2900 1003 2900 1516 
L 2900 3500 
L 3475 3500 
L 3475 0 
L 2900 0 
L 2900 538 
Q 2691 219 2414 64 
Q 2138 -91 1772 -91 
Q 1169 -91 856 284 
Q 544 659 544 1381 
z
M 1991 3584 
L 1991 3584 
z
" transform="scale(0.015625)"/>
     </defs>
     <use xlink:href="#DejaVuSans-44"/>
     <use xlink:href="#DejaVuSans-65" transform="translate(77.001953 0)"/>
     <use xlink:href="#DejaVuSans-6e" transform="translate(138.525391 0)"/>
     <use xlink:href="#DejaVuSans-64" transform="translate(201.904297 0)"/>
     <use xlink:href="#DejaVuSans-72" transform="translate(265.380859 0)"/>
     <use xlink:href="#DejaVuSans-6f" transform="translate(304.244141 0)"/>
     <use xlink:href="#DejaVuSans-67" transform="translate(365.425781 0)"/>
     <use xlink:href="#DejaVuSans-72" transform="translate(428.902344 0)"/>
     <use xlink:href="#DejaVuSans-61" transform="translate(470.015625 0)"/>
     <use xlink:href="#DejaVuSans-6d" transform="translate(531.294922 0)"/>
     <use xlink:href="#DejaVuSans-3a" transform="translate(628.707031 0)"/>
     <use xlink:href="#DejaVuSans-20" transform="translate(662.398438 0)"/>
     <use xlink:href="#DejaVuSans-74" transform="translate(694.185547 0)"/>
     <use xlink:href="#DejaVuSans-72" transform="translate(733.394531 0)"/>
     <use xlink:href="#DejaVuSans-65" transform="translate(772.257812 0)"/>
     <use xlink:href="#DejaVuSans-65" transform="translate(833.78125 0)"/>
     <use xlink:href="#DejaVuSans-20" transform="translate(895.304688 0)"/>
     <use xlink:href="#DejaVuSans-6f" transform="translate(927.091797 0)"/>
     <use xlink:href="#DejaVuSans-66" transform="translate(988.273438 0)"/>
     <use xlink:href="#DejaVuSans-20" transform="translate(1023.478516 0)"/>
     <use xlink:href="#DejaVuSans-6d" transform="translate(1055.265625 0)"/>
     <use xlink:href="#DejaVuSans-65" transform="translate(1152.677734 0)"/>
     <use xlink:href="#DejaVuSans-72" transform="translate(1214.201172 0)"/>
     <use xlink:href="#DejaVuSans-67" transform="translate(1253.564453 0)"/>
     <use xlink:href="#DejaVuSans-65" transform="translate(1317.041016 0)"/>
     <use xlink:href="#DejaVuSans-73" transform="translate(1378.564453 0)"/>
     <use xlink:href="#DejaVuSans-20" transform="translate(1430.664062 0)"/>
     <use xlink:href="#DejaVuSans-66" transform="translate(1462.451172 0)"/>
     <use xlink:href="#DejaVuSans-72" transform="translate(1497.65625 0)"/>
     <use xlink:href="#DejaVuSans-6f" transform="translate(1536.519531 0)"/>
     <use xlink:href="#DejaVuSans-6d" transform="translate(1597.701172 0)"/>
     <use xlink:href="#DejaVuSans-20" transform="translate(1695.113281 0)"/>
     <use xlink:href="#DejaVuSans-62" transform="translate(1726.900391 0)"/>
     <use xlink:href="#DejaVuSans-6f" transform="translate(1790.376953 0)"/>
     <use xlink:href="#DejaVuSans-74" transform="translate(1851.558594 0)"/>
     <use xlink:href="#DejaVuSans-74" transform="translate(1890.767578 0)"/>
     <use xlink:href="#DejaVuSans-6f" transform="translate(1929.976562 0)"/>
     <use xlink:href="#DejaVuSans-6d" transform="translate(1991.158203 0)"/>
     <use xlink:href="#DejaVuSans-20" transform="translate(2088.570312 0)"/>
     <use xlink:href="#DejaVuSans-75" transform="translate(2120.357422 0)"/>
     <use xlink:href="#DejaVuSans-70" transform="translate(2183.736328 0)"/>
    </g>
   </g>
   <g id="legend_1">
    <g id="patch_7">
     <path d="M 351.044644 55.93875 
L 490.631832 55.93875 
Q 492.431832 55.93875 492.431832 54.13875 
L 492.431832 28.618125 
Q 492.431832 26.818125 490.631832 26.818125 
L 351.044644 26.818125 
Q 349.244644 26.818125 349.244644 28.618125 
L 349.244644 54.13875 
Q 349.244644 55.93875 351.044644 55.93875 
z
" style="fill: #ffffff; opacity: 0.8; stroke: #cccccc; stroke-linejoin: miter"/>
    </g>
    <g id="line2d_10">
     <path d="M 352.844644 34.106719 
L 361.844644 34.106719 
L 370.844644 34.106719 
" style="fill: none; stroke-dasharray: 5.55,2.4; stroke-dashoffset: 0; stroke: #e15759; stroke-width: 1.5"/>
    </g>
    <g id="text_51">
     <!-- cut at h=8 → 3 clusters -->
     <g transform="translate(378.044644 37.256719) scale(0.09 -0.09)">
      <defs>
       <path id="DejaVuSans-68" d="M 3513 2113 
L 3513 0 
L 2938 0 
L 2938 2094 
Q 2938 2591 2744 2837 
Q 2550 3084 2163 3084 
Q 1697 3084 1428 2787 
Q 1159 2491 1159 1978 
L 1159 0 
L 581 0 
L 581 4863 
L 1159 4863 
L 1159 2956 
Q 1366 3272 1645 3428 
Q 1925 3584 2291 3584 
Q 2894 3584 3203 3211 
Q 3513 2838 3513 2113 
z
" transform="scale(0.015625)"/>
       <path id="DejaVuSans-3d" d="M 678 2906 
L 4684 2906 
L 4684 2381 
L 678 2381 
L 678 2906 
z
M 678 1631 
L 4684 1631 
L 4684 1100 
L 678 1100 
L 678 1631 
z
" transform="scale(0.015625)"/>
       <path id="DejaVuSans-2192" d="M 5050 2147 
L 5050 1866 
L 3822 638 
L 3447 1013 
L 4175 1741 
L 366 1741 
L 366 2272 
L 4175 2272 
L 3447 3000 
L 3822 3375 
L 5050 2147 
z
" transform="scale(0.015625)"/>
      </defs>
      <use xlink:href="#DejaVuSans-63"/>
      <use xlink:href="#DejaVuSans-75" transform="translate(54.980469 0)"/>
      <use xlink:href="#DejaVuSans-74" transform="translate(118.359375 0)"/>
      <use xlink:href="#DejaVuSans-20" transform="translate(157.568359 0)"/>
      <use xlink:href="#DejaVuSans-61" transform="translate(189.355469 0)"/>
      <use xlink:href="#DejaVuSans-74" transform="translate(250.634766 0)"/>
      <use xlink:href="#DejaVuSans-20" transform="translate(289.84375 0)"/>
      <use xlink:href="#DejaVuSans-68" transform="translate(321.630859 0)"/>
      <use xlink:href="#DejaVuSans-3d" transform="translate(385.009766 0)"/>
      <use xlink:href="#DejaVuSans-38" transform="translate(468.798828 0)"/>
      <use xlink:href="#DejaVuSans-20" transform="translate(532.421875 0)"/>
      <use xlink:href="#DejaVuSans-2192" transform="translate(564.208984 0)"/>
      <use xlink:href="#DejaVuSans-20" transform="translate(647.998047 0)"/>
      <use xlink:href="#DejaVuSans-33" transform="translate(679.785156 0)"/>
      <use xlink:href="#DejaVuSans-20" transform="translate(743.408203 0)"/>
      <use xlink:href="#DejaVuSans-63" transform="translate(775.195312 0)"/>
      <use xlink:href="#DejaVuSans-6c" transform="translate(830.175781 0)"/>
      <use xlink:href="#DejaVuSans-75" transform="translate(857.958984 0)"/>
      <use xlink:href="#DejaVuSans-73" transform="translate(921.337891 0)"/>
      <use xlink:href="#DejaVuSans-74" transform="translate(973.4375 0)"/>
      <use xlink:href="#DejaVuSans-65" transform="translate(1012.646484 0)"/>
      <use xlink:href="#DejaVuSans-72" transform="translate(1074.169922 0)"/>
      <use xlink:href="#DejaVuSans-73" transform="translate(1115.283203 0)"/>
     </g>
    </g>
    <g id="line2d_11">
     <path d="M 352.844644 47.317031 
L 361.844644 47.317031 
L 370.844644 47.317031 
" style="fill: none; stroke-dasharray: 5.55,2.4; stroke-dashoffset: 0; stroke: #59a14f; stroke-width: 1.5"/>
    </g>
    <g id="text_52">
     <!-- cut at h=15 → 2 clusters -->
     <g transform="translate(378.044644 50.467031) scale(0.09 -0.09)">
      <use xlink:href="#DejaVuSans-63"/>
      <use xlink:href="#DejaVuSans-75" transform="translate(54.980469 0)"/>
      <use xlink:href="#DejaVuSans-74" transform="translate(118.359375 0)"/>
      <use xlink:href="#DejaVuSans-20" transform="translate(157.568359 0)"/>
      <use xlink:href="#DejaVuSans-61" transform="translate(189.355469 0)"/>
      <use xlink:href="#DejaVuSans-74" transform="translate(250.634766 0)"/>
      <use xlink:href="#DejaVuSans-20" transform="translate(289.84375 0)"/>
      <use xlink:href="#DejaVuSans-68" transform="translate(321.630859 0)"/>
      <use xlink:href="#DejaVuSans-3d" transform="translate(385.009766 0)"/>
      <use xlink:href="#DejaVuSans-31" transform="translate(468.798828 0)"/>
      <use xlink:href="#DejaVuSans-35" transform="translate(532.421875 0)"/>
      <use xlink:href="#DejaVuSans-20" transform="translate(596.044922 0)"/>
      <use xlink:href="#DejaVuSans-2192" transform="translate(627.832031 0)"/>
      <use xlink:href="#DejaVuSans-20" transform="translate(711.621094 0)"/>
      <use xlink:href="#DejaVuSans-32" transform="translate(743.408203 0)"/>
      <use xlink:href="#DejaVuSans-20" transform="translate(807.03125 0)"/>
      <use xlink:href="#DejaVuSans-63" transform="translate(838.818359 0)"/>
      <use xlink:href="#DejaVuSans-6c" transform="translate(893.798828 0)"/>
      <use xlink:href="#DejaVuSans-75" transform="translate(921.582031 0)"/>
      <use xlink:href="#DejaVuSans-73" transform="translate(984.960938 0)"/>
      <use xlink:href="#DejaVuSans-74" transform="translate(1037.060547 0)"/>
      <use xlink:href="#DejaVuSans-65" transform="translate(1076.269531 0)"/>
      <use xlink:href="#DejaVuSans-72" transform="translate(1137.792969 0)"/>
      <use xlink:href="#DejaVuSans-73" transform="translate(1178.90625 0)"/>
     </g>
    </g>
   </g>
  </g>
  <g id="axes_2">
   <g id="patch_8">
    <path d="M 536.904418 311.212041 
L 993.233125 311.212041 
L 993.233125 22.318125 
L 536.904418 22.318125 
z
" style="fill: #ffffff"/>
   </g>
   <g id="PathCollection_1">
    <defs>
     <path id="C0_0_5f7e6e726f" d="M 0 4.472136 
C 1.186024 4.472136 2.323632 4.000923 3.162278 3.162278 
C 4.000923 2.323632 4.472136 1.186024 4.472136 -0 
C 4.472136 -1.186024 4.000923 -2.323632 3.162278 -3.162278 
C 2.323632 -4.000923 1.186024 -4.472136 0 -4.472136 
C -1.186024 -4.472136 -2.323632 -4.000923 -3.162278 -3.162278 
C -4.000923 -2.323632 -4.472136 -1.186024 -4.472136 0 
C -4.472136 1.186024 -4.000923 2.323632 -3.162278 3.162278 
C -2.323632 4.000923 -1.186024 4.472136 0 4.472136 
z
"/>
    </defs>
    <g clip-path="url(#p9e4398763b)">
     <use xlink:href="#C0_0_5f7e6e726f" x="874.063054" y="289.283828" style="fill: #1f77b4; stroke: #ffffff"/>
    </g>
    <g clip-path="url(#p9e4398763b)">
     <use xlink:href="#C0_0_5f7e6e726f" x="835.451934" y="75.547683" style="fill: #8c564b; stroke: #ffffff"/>
    </g>
    <g clip-path="url(#p9e4398763b)">
     <use xlink:href="#C0_0_5f7e6e726f" x="600.5772" y="174.374403" style="fill: #17becf; stroke: #ffffff"/>
    </g>
    <g clip-path="url(#p9e4398763b)">
     <use xlink:href="#C0_0_5f7e6e726f" x="867.080377" y="259.228916" style="fill: #1f77b4; stroke: #ffffff"/>
    </g>
    <g clip-path="url(#p9e4398763b)">
     <use xlink:href="#C0_0_5f7e6e726f" x="843.663023" y="298.080499" style="fill: #1f77b4; stroke: #ffffff"/>
    </g>
    <g clip-path="url(#p9e4398763b)">
     <use xlink:href="#C0_0_5f7e6e726f" x="834.835516" y="36.004002" style="fill: #8c564b; stroke: #ffffff"/>
    </g>
    <g clip-path="url(#p9e4398763b)">
     <use xlink:href="#C0_0_5f7e6e726f" x="832.116766" y="217.329008" style="fill: #1f77b4; stroke: #ffffff"/>
    </g>
    <g clip-path="url(#p9e4398763b)">
     <use xlink:href="#C0_0_5f7e6e726f" x="829.279252" y="96.322377" style="fill: #8c564b; stroke: #ffffff"/>
    </g>
    <g clip-path="url(#p9e4398763b)">
     <use xlink:href="#C0_0_5f7e6e726f" x="557.646632" y="136.097719" style="fill: #17becf; stroke: #ffffff"/>
    </g>
    <g clip-path="url(#p9e4398763b)">
     <use xlink:href="#C0_0_5f7e6e726f" x="806.480867" y="174.214488" style="fill: #17becf; stroke: #ffffff"/>
    </g>
    <g clip-path="url(#p9e4398763b)">
     <use xlink:href="#C0_0_5f7e6e726f" x="682.366471" y="65.425542" style="fill: #17becf; stroke: #ffffff"/>
    </g>
    <g clip-path="url(#p9e4398763b)">
     <use xlink:href="#C0_0_5f7e6e726f" x="911.1559" y="96.98288" style="fill: #8c564b; stroke: #ffffff"/>
    </g>
    <g clip-path="url(#p9e4398763b)">
     <use xlink:href="#C0_0_5f7e6e726f" x="844.39081" y="120.829283" style="fill: #8c564b; stroke: #ffffff"/>
    </g>
    <g clip-path="url(#p9e4398763b)">
     <use xlink:href="#C0_0_5f7e6e726f" x="955.006492" y="142.887308" style="fill: #1f77b4; stroke: #ffffff"/>
    </g>
    <g clip-path="url(#p9e4398763b)">
     <use xlink:href="#C0_0_5f7e6e726f" x="972.490911" y="201.715661" style="fill: #1f77b4; stroke: #ffffff"/>
    </g>
    <g clip-path="url(#p9e4398763b)">
     <use xlink:href="#C0_0_5f7e6e726f" x="659.835497" y="167.867686" style="fill: #17becf; stroke: #ffffff"/>
    </g>
    <g clip-path="url(#p9e4398763b)">
     <use xlink:href="#C0_0_5f7e6e726f" x="632.19249" y="151.039607" style="fill: #17becf; stroke: #ffffff"/>
    </g>
    <g clip-path="url(#p9e4398763b)">
     <use xlink:href="#C0_0_5f7e6e726f" x="880.402949" y="95.005861" style="fill: #8c564b; stroke: #ffffff"/>
    </g>
    <g clip-path="url(#p9e4398763b)">
     <use xlink:href="#C0_0_5f7e6e726f" x="875.560846" y="116.716183" style="fill: #8c564b; stroke: #ffffff"/>
    </g>
    <g clip-path="url(#p9e4398763b)">
     <use xlink:href="#C0_0_5f7e6e726f" x="820.857244" y="74.355763" style="fill: #8c564b; stroke: #ffffff"/>
    </g>
    <g clip-path="url(#p9e4398763b)">
     <use xlink:href="#C0_0_5f7e6e726f" x="874.128233" y="261.997171" style="fill: #1f77b4; stroke: #ffffff"/>
    </g>
    <g clip-path="url(#p9e4398763b)">
     <use xlink:href="#C0_0_5f7e6e726f" x="598.513709" y="151.194676" style="fill: #17becf; stroke: #ffffff"/>
    </g>
    <g clip-path="url(#p9e4398763b)">
     <use xlink:href="#C0_0_5f7e6e726f" x="714.217967" y="198.479455" style="fill: #17becf; stroke: #ffffff"/>
    </g>
    <g clip-path="url(#p9e4398763b)">
     <use xlink:href="#C0_0_5f7e6e726f" x="611.789596" y="166.315949" style="fill: #17becf; stroke: #ffffff"/>
    </g>
    <g clip-path="url(#p9e4398763b)">
     <use xlink:href="#C0_0_5f7e6e726f" x="676.130109" y="209.55561" style="fill: #17becf; stroke: #ffffff"/>
    </g>
    <g clip-path="url(#p9e4398763b)">
     <use xlink:href="#C0_0_5f7e6e726f" x="811.702872" y="253.716857" style="fill: #1f77b4; stroke: #ffffff"/>
    </g>
    <g clip-path="url(#p9e4398763b)">
     <use xlink:href="#C0_0_5f7e6e726f" x="603.836326" y="216.53894" style="fill: #17becf; stroke: #ffffff"/>
    </g>
    <g clip-path="url(#p9e4398763b)">
     <use xlink:href="#C0_0_5f7e6e726f" x="881.043547" y="257.007995" style="fill: #1f77b4; stroke: #ffffff"/>
    </g>
    <g clip-path="url(#p9e4398763b)">
     <use xlink:href="#C0_0_5f7e6e726f" x="901.346756" y="230.15948" style="fill: #1f77b4; stroke: #ffffff"/>
    </g>
    <g clip-path="url(#p9e4398763b)">
     <use xlink:href="#C0_0_5f7e6e726f" x="672.550449" y="178.268114" style="fill: #17becf; stroke: #ffffff"/>
    </g>
    <g clip-path="url(#p9e4398763b)">
     <use xlink:href="#C0_0_5f7e6e726f" x="583.936815" y="120.000977" style="fill: #17becf; stroke: #ffffff"/>
    </g>
    <g clip-path="url(#p9e4398763b)">
     <use xlink:href="#C0_0_5f7e6e726f" x="906.700317" y="234.784437" style="fill: #1f77b4; stroke: #ffffff"/>
    </g>
    <g clip-path="url(#p9e4398763b)">
     <use xlink:href="#C0_0_5f7e6e726f" x="776.504006" y="162.231977" style="fill: #17becf; stroke: #ffffff"/>
    </g>
    <g clip-path="url(#p9e4398763b)">
     <use xlink:href="#C0_0_5f7e6e726f" x="852.317324" y="231.681879" style="fill: #1f77b4; stroke: #ffffff"/>
    </g>
    <g clip-path="url(#p9e4398763b)">
     <use xlink:href="#C0_0_5f7e6e726f" x="913.343701" y="35.449667" style="fill: #8c564b; stroke: #ffffff"/>
    </g>
    <g clip-path="url(#p9e4398763b)">
     <use xlink:href="#C0_0_5f7e6e726f" x="733.939287" y="83.435565" style="fill: #17becf; stroke: #ffffff"/>
    </g>
    <g clip-path="url(#p9e4398763b)">
     <use xlink:href="#C0_0_5f7e6e726f" x="851.78496" y="77.182484" style="fill: #8c564b; stroke: #ffffff"/>
    </g>
    <g clip-path="url(#p9e4398763b)">
     <use xlink:href="#C0_0_5f7e6e726f" x="691.022262" y="148.363791" style="fill: #17becf; stroke: #ffffff"/>
    </g>
    <g clip-path="url(#p9e4398763b)">
     <use xlink:href="#C0_0_5f7e6e726f" x="883.271742" y="240.153993" style="fill: #1f77b4; stroke: #ffffff"/>
    </g>
    <g clip-path="url(#p9e4398763b)">
     <use xlink:href="#C0_0_5f7e6e726f" x="869.71551" y="84.972789" style="fill: #8c564b; stroke: #ffffff"/>
    </g>
   </g>
   <g id="matplotlib.axis_3">
    <g id="xtick_41">
     <g id="line2d_12">
      <path d="M 545.708649 311.212041 
L 545.708649 22.318125 
" clip-path="url(#p9e4398763b)" style="fill: none; stroke: #b0b0b0; stroke-opacity: 0.25; stroke-width: 0.8; stroke-linecap: square"/>
     </g>
     <g id="line2d_13">
      <defs>
       <path id="m9d8972c4a2" d="M 0 0 
L 0 3.5 
" style="stroke: #000000; stroke-width: 0.8"/>
      </defs>
      <g>
       <use xlink:href="#m9d8972c4a2" x="545.708649" y="311.212041" style="stroke: #000000; stroke-width: 0.8"/>
      </g>
     </g>
     <g id="text_53">
      <!-- −3 -->
      <g transform="translate(538.337556 325.810478) scale(0.1 -0.1)">
       <defs>
        <path id="DejaVuSans-2212" d="M 678 2272 
L 4684 2272 
L 4684 1741 
L 678 1741 
L 678 2272 
z
" transform="scale(0.015625)"/>
       </defs>
       <use xlink:href="#DejaVuSans-2212"/>
       <use xlink:href="#DejaVuSans-33" transform="translate(83.789062 0)"/>
      </g>
     </g>
    </g>
    <g id="xtick_42">
     <g id="line2d_14">
      <path d="M 616.373813 311.212041 
L 616.373813 22.318125 
" clip-path="url(#p9e4398763b)" style="fill: none; stroke: #b0b0b0; stroke-opacity: 0.25; stroke-width: 0.8; stroke-linecap: square"/>
     </g>
     <g id="line2d_15">
      <g>
       <use xlink:href="#m9d8972c4a2" x="616.373813" y="311.212041" style="stroke: #000000; stroke-width: 0.8"/>
      </g>
     </g>
     <g id="text_54">
      <!-- −2 -->
      <g transform="translate(609.002719 325.810478) scale(0.1 -0.1)">
       <use xlink:href="#DejaVuSans-2212"/>
       <use xlink:href="#DejaVuSans-32" transform="translate(83.789062 0)"/>
      </g>
     </g>
    </g>
    <g id="xtick_43">
     <g id="line2d_16">
      <path d="M 687.038977 311.212041 
L 687.038977 22.318125 
" clip-path="url(#p9e4398763b)" style="fill: none; stroke: #b0b0b0; stroke-opacity: 0.25; stroke-width: 0.8; stroke-linecap: square"/>
     </g>
     <g id="line2d_17">
      <g>
       <use xlink:href="#m9d8972c4a2" x="687.038977" y="311.212041" style="stroke: #000000; stroke-width: 0.8"/>
      </g>
     </g>
     <g id="text_55">
      <!-- −1 -->
      <g transform="translate(679.667883 325.810478) scale(0.1 -0.1)">
       <use xlink:href="#DejaVuSans-2212"/>
       <use xlink:href="#DejaVuSans-31" transform="translate(83.789062 0)"/>
      </g>
     </g>
    </g>
    <g id="xtick_44">
     <g id="line2d_18">
      <path d="M 757.704141 311.212041 
L 757.704141 22.318125 
" clip-path="url(#p9e4398763b)" style="fill: none; stroke: #b0b0b0; stroke-opacity: 0.25; stroke-width: 0.8; stroke-linecap: square"/>
     </g>
     <g id="line2d_19">
      <g>
       <use xlink:href="#m9d8972c4a2" x="757.704141" y="311.212041" style="stroke: #000000; stroke-width: 0.8"/>
      </g>
     </g>
     <g id="text_56">
      <!-- 0 -->
      <g transform="translate(754.522891 325.810478) scale(0.1 -0.1)">
       <use xlink:href="#DejaVuSans-30"/>
      </g>
     </g>
    </g>
    <g id="xtick_45">
     <g id="line2d_20">
      <path d="M 828.369305 311.212041 
L 828.369305 22.318125 
" clip-path="url(#p9e4398763b)" style="fill: none; stroke: #b0b0b0; stroke-opacity: 0.25; stroke-width: 0.8; stroke-linecap: square"/>
     </g>
     <g id="line2d_21">
      <g>
       <use xlink:href="#m9d8972c4a2" x="828.369305" y="311.212041" style="stroke: #000000; stroke-width: 0.8"/>
      </g>
     </g>
     <g id="text_57">
      <!-- 1 -->
      <g transform="translate(825.188055 325.810478) scale(0.1 -0.1)">
       <use xlink:href="#DejaVuSans-31"/>
      </g>
     </g>
    </g>
    <g id="xtick_46">
     <g id="line2d_22">
      <path d="M 899.034469 311.212041 
L 899.034469 22.318125 
" clip-path="url(#p9e4398763b)" style="fill: none; stroke: #b0b0b0; stroke-opacity: 0.25; stroke-width: 0.8; stroke-linecap: square"/>
     </g>
     <g id="line2d_23">
      <g>
       <use xlink:href="#m9d8972c4a2" x="899.034469" y="311.212041" style="stroke: #000000; stroke-width: 0.8"/>
      </g>
     </g>
     <g id="text_58">
      <!-- 2 -->
      <g transform="translate(895.853219 325.810478) scale(0.1 -0.1)">
       <use xlink:href="#DejaVuSans-32"/>
      </g>
     </g>
    </g>
    <g id="xtick_47">
     <g id="line2d_24">
      <path d="M 969.699632 311.212041 
L 969.699632 22.318125 
" clip-path="url(#p9e4398763b)" style="fill: none; stroke: #b0b0b0; stroke-opacity: 0.25; stroke-width: 0.8; stroke-linecap: square"/>
     </g>
     <g id="line2d_25">
      <g>
       <use xlink:href="#m9d8972c4a2" x="969.699632" y="311.212041" style="stroke: #000000; stroke-width: 0.8"/>
      </g>
     </g>
     <g id="text_59">
      <!-- 3 -->
      <g transform="translate(966.518382 325.810478) scale(0.1 -0.1)">
       <use xlink:href="#DejaVuSans-33"/>
      </g>
     </g>
    </g>
    <g id="text_60">
     <!-- x1 -->
     <g transform="translate(758.928147 339.488603) scale(0.1 -0.1)">
      <use xlink:href="#DejaVuSans-78"/>
      <use xlink:href="#DejaVuSans-31" transform="translate(59.179688 0)"/>
     </g>
    </g>
   </g>
   <g id="matplotlib.axis_4">
    <g id="ytick_8">
     <g id="line2d_26">
      <path d="M 536.904418 287.132205 
L 993.233125 287.132205 
" clip-path="url(#p9e4398763b)" style="fill: none; stroke: #b0b0b0; stroke-opacity: 0.25; stroke-width: 0.8; stroke-linecap: square"/>
     </g>
     <g id="line2d_27">
      <g>
       <use xlink:href="#m5d136f66ae" x="536.904418" y="287.132205" style="stroke: #000000; stroke-width: 0.8"/>
      </g>
     </g>
     <g id="text_61">
      <!-- 0 -->
      <g transform="translate(523.541918 290.931424) scale(0.1 -0.1)">
       <use xlink:href="#DejaVuSans-30"/>
      </g>
     </g>
    </g>
    <g id="ytick_9">
     <g id="line2d_28">
      <path d="M 536.904418 241.198652 
L 993.233125 241.198652 
" clip-path="url(#p9e4398763b)" style="fill: none; stroke: #b0b0b0; stroke-opacity: 0.25; stroke-width: 0.8; stroke-linecap: square"/>
     </g>
     <g id="line2d_29">
      <g>
       <use xlink:href="#m5d136f66ae" x="536.904418" y="241.198652" style="stroke: #000000; stroke-width: 0.8"/>
      </g>
     </g>
     <g id="text_62">
      <!-- 1 -->
      <g transform="translate(523.541918 244.997871) scale(0.1 -0.1)">
       <use xlink:href="#DejaVuSans-31"/>
      </g>
     </g>
    </g>
    <g id="ytick_10">
     <g id="line2d_30">
      <path d="M 536.904418 195.265099 
L 993.233125 195.265099 
" clip-path="url(#p9e4398763b)" style="fill: none; stroke: #b0b0b0; stroke-opacity: 0.25; stroke-width: 0.8; stroke-linecap: square"/>
     </g>
     <g id="line2d_31">
      <g>
       <use xlink:href="#m5d136f66ae" x="536.904418" y="195.265099" style="stroke: #000000; stroke-width: 0.8"/>
      </g>
     </g>
     <g id="text_63">
      <!-- 2 -->
      <g transform="translate(523.541918 199.064318) scale(0.1 -0.1)">
       <use xlink:href="#DejaVuSans-32"/>
      </g>
     </g>
    </g>
    <g id="ytick_11">
     <g id="line2d_32">
      <path d="M 536.904418 149.331546 
L 993.233125 149.331546 
" clip-path="url(#p9e4398763b)" style="fill: none; stroke: #b0b0b0; stroke-opacity: 0.25; stroke-width: 0.8; stroke-linecap: square"/>
     </g>
     <g id="line2d_33">
      <g>
       <use xlink:href="#m5d136f66ae" x="536.904418" y="149.331546" style="stroke: #000000; stroke-width: 0.8"/>
      </g>
     </g>
     <g id="text_64">
      <!-- 3 -->
      <g transform="translate(523.541918 153.130765) scale(0.1 -0.1)">
       <use xlink:href="#DejaVuSans-33"/>
      </g>
     </g>
    </g>
    <g id="ytick_12">
     <g id="line2d_34">
      <path d="M 536.904418 103.397993 
L 993.233125 103.397993 
" clip-path="url(#p9e4398763b)" style="fill: none; stroke: #b0b0b0; stroke-opacity: 0.25; stroke-width: 0.8; stroke-linecap: square"/>
     </g>
     <g id="line2d_35">
      <g>
       <use xlink:href="#m5d136f66ae" x="536.904418" y="103.397993" style="stroke: #000000; stroke-width: 0.8"/>
      </g>
     </g>
     <g id="text_65">
      <!-- 4 -->
      <g transform="translate(523.541918 107.197212) scale(0.1 -0.1)">
       <use xlink:href="#DejaVuSans-34"/>
      </g>
     </g>
    </g>
    <g id="ytick_13">
     <g id="line2d_36">
      <path d="M 536.904418 57.46444 
L 993.233125 57.46444 
" clip-path="url(#p9e4398763b)" style="fill: none; stroke: #b0b0b0; stroke-opacity: 0.25; stroke-width: 0.8; stroke-linecap: square"/>
     </g>
     <g id="line2d_37">
      <g>
       <use xlink:href="#m5d136f66ae" x="536.904418" y="57.46444" style="stroke: #000000; stroke-width: 0.8"/>
      </g>
     </g>
     <g id="text_66">
      <!-- 5 -->
      <g transform="translate(523.541918 61.263659) scale(0.1 -0.1)">
       <use xlink:href="#DejaVuSans-35"/>
      </g>
     </g>
    </g>
    <g id="text_67">
     <!-- x2 -->
     <g transform="translate(517.462231 172.905708) rotate(-90) scale(0.1 -0.1)">
      <use xlink:href="#DejaVuSans-78"/>
      <use xlink:href="#DejaVuSans-32" transform="translate(59.179688 0)"/>
     </g>
    </g>
   </g>
   <g id="patch_9">
    <path d="M 536.904418 311.212041 
L 536.904418 22.318125 
" style="fill: none; stroke: #000000; stroke-width: 0.8; stroke-linejoin: miter; stroke-linecap: square"/>
   </g>
   <g id="patch_10">
    <path d="M 993.233125 311.212041 
L 993.233125 22.318125 
" style="fill: none; stroke: #000000; stroke-width: 0.8; stroke-linejoin: miter; stroke-linecap: square"/>
   </g>
   <g id="patch_11">
    <path d="M 536.904418 311.212041 
L 993.233125 311.212041 
" style="fill: none; stroke: #000000; stroke-width: 0.8; stroke-linejoin: miter; stroke-linecap: square"/>
   </g>
   <g id="patch_12">
    <path d="M 536.904418 22.318125 
L 993.233125 22.318125 
" style="fill: none; stroke: #000000; stroke-width: 0.8; stroke-linejoin: miter; stroke-linecap: square"/>
   </g>
   <g id="text_68">
    <!-- Cut at h=8 → 3 clusters -->
    <g transform="translate(694.137522 16.318125) scale(0.12 -0.12)">
     <defs>
      <path id="DejaVuSans-43" d="M 4122 4306 
L 4122 3641 
Q 3803 3938 3442 4084 
Q 3081 4231 2675 4231 
Q 1875 4231 1450 3742 
Q 1025 3253 1025 2328 
Q 1025 1406 1450 917 
Q 1875 428 2675 428 
Q 3081 428 3442 575 
Q 3803 722 4122 1019 
L 4122 359 
Q 3791 134 3420 21 
Q 3050 -91 2638 -91 
Q 1578 -91 968 557 
Q 359 1206 359 2328 
Q 359 3453 968 4101 
Q 1578 4750 2638 4750 
Q 3056 4750 3426 4639 
Q 3797 4528 4122 4306 
z
" transform="scale(0.015625)"/>
     </defs>
     <use xlink:href="#DejaVuSans-43"/>
     <use xlink:href="#DejaVuSans-75" transform="translate(69.824219 0)"/>
     <use xlink:href="#DejaVuSans-74" transform="translate(133.203125 0)"/>
     <use xlink:href="#DejaVuSans-20" transform="translate(172.412109 0)"/>
     <use xlink:href="#DejaVuSans-61" transform="translate(204.199219 0)"/>
     <use xlink:href="#DejaVuSans-74" transform="translate(265.478516 0)"/>
     <use xlink:href="#DejaVuSans-20" transform="translate(304.6875 0)"/>
     <use xlink:href="#DejaVuSans-68" transform="translate(336.474609 0)"/>
     <use xlink:href="#DejaVuSans-3d" transform="translate(399.853516 0)"/>
     <use xlink:href="#DejaVuSans-38" transform="translate(483.642578 0)"/>
     <use xlink:href="#DejaVuSans-20" transform="translate(547.265625 0)"/>
     <use xlink:href="#DejaVuSans-2192" transform="translate(579.052734 0)"/>
     <use xlink:href="#DejaVuSans-20" transform="translate(662.841797 0)"/>
     <use xlink:href="#DejaVuSans-33" transform="translate(694.628906 0)"/>
     <use xlink:href="#DejaVuSans-20" transform="translate(758.251953 0)"/>
     <use xlink:href="#DejaVuSans-63" transform="translate(790.039062 0)"/>
     <use xlink:href="#DejaVuSans-6c" transform="translate(845.019531 0)"/>
     <use xlink:href="#DejaVuSans-75" transform="translate(872.802734 0)"/>
     <use xlink:href="#DejaVuSans-73" transform="translate(936.181641 0)"/>
     <use xlink:href="#DejaVuSans-74" transform="translate(988.28125 0)"/>
     <use xlink:href="#DejaVuSans-65" transform="translate(1027.490234 0)"/>
     <use xlink:href="#DejaVuSans-72" transform="translate(1089.013672 0)"/>
     <use xlink:href="#DejaVuSans-73" transform="translate(1130.126953 0)"/>
    </g>
   </g>
  </g>
 </g>
 <defs>
  <clipPath id="paad2653610">
   <rect x="40.603125" y="22.318125" width="456.328707" height="288.893916"/>
  </clipPath>
  <clipPath id="p9e4398763b">
   <rect x="536.904418" y="22.318125" width="456.328707" height="288.893916"/>
  </clipPath>
 </defs>
</svg>
