<?xml version="1.0" encoding="utf-8" standalone="no"?>
<!DOCTYPE svg PUBLIC "-//W3C//DTD SVG 1.1//EN"
  "http://www.w3.org/Graphics/SVG/1.1/DTD/svg11.dtd">
<svg xmlns:xlink="http://www.w3.org/1999/xlink" width="1072.813437pt" height="321.4105pt" viewBox="0 0 1072.813437 321.4105" xmlns="http://www.w3.org/2000/svg" version="1.1">
 <metadata>
  <rdf:RDF xmlns:dc="http://purl.org/dc/elements/1.1/" xmlns:cc="http://creativecommons.org/ns#" xmlns:rdf="http://www.w3.org/1999/02/22-rdf-syntax-ns#">
   <cc:Work>
    <dc:type rdf:resource="http://purl.org/dc/dcmitype/StillImage"/>
    <dc:date>2026-05-26T08:44:18.475582</dc:date>
    <dc:format>image/svg+xml</dc:format>
    <dc:creator>
     <cc:Agent>
      <dc:title>Matplotlib v3.10.8, https://matplotlib.org/</dc:title>
     </cc:Agent>
    </dc:creator>
   </cc:Work>
  </rdf:RDF>
 </metadata>
 <defs>
  <style type="text/css">*{stroke-linejoin: round; stroke-linecap: butt}</style>
 </defs>
 <g id="figure_1">
  <g id="patch_1">
   <path d="M 0 321.4105 
L 1072.813437 321.4105 
L 1072.813437 0 
L 0 0 
z
" style="fill: #ffffff"/>
  </g>
  <g id="axes_1">
   <g id="patch_2">
    <path d="M 28.942188 297.532375 
L 271.350937 297.532375 
L 271.350937 55.123625 
L 28.942188 55.123625 
z
" style="fill: #ffffff"/>
   </g>
   <g id="patch_3">
    <path d="M 180.447656 176.328 
L 180.38665 174.406186 
L 180.203878 172.49211 
L 179.900076 170.59348 
L 179.476467 168.717941 
L 178.934757 166.873045 
L 178.277126 165.066221 
L 177.506224 163.304744 
L 176.625154 161.595707 
L 175.637465 159.945992 
L 174.547132 158.362241 
L 173.358547 156.850832 
L 172.076495 155.417851 
L 170.70614 154.069068 
L 169.252998 152.809913 
L 167.722921 151.645458 
L 166.122071 150.58039 
L 164.456893 149.618999 
L 162.734092 148.765156 
L 160.960605 148.022298 
L 159.143575 147.393418 
L 157.290316 146.881047 
L 155.408292 146.487248 
L 153.505081 146.213608 
L 151.588347 146.061227 
L 149.665806 146.03072 
L 147.745202 146.12221 
L 145.834267 146.335328 
L 143.940696 146.669215 
L 142.072114 147.122528 
L 140.236045 147.693442 
L 138.439883 148.379656 
L 136.690858 149.178409 
L 134.996016 150.086483 
L 133.362179 151.100223 
L 131.795927 152.215546 
L 130.303566 153.427961 
L 128.891106 154.732587 
L 127.564235 156.12417 
L 126.328294 157.597107 
L 125.188261 159.145466 
L 124.148727 160.763013 
L 123.213876 162.443235 
L 122.387474 164.179366 
L 121.672848 165.964416 
L 121.072876 167.791195 
L 120.589973 169.65235 
L 120.226084 171.540385 
L 119.982674 173.447698 
L 119.860724 175.366609 
L 119.860724 177.289391 
L 119.982674 179.208302 
L 120.226084 181.115615 
L 120.589973 183.00365 
L 121.072876 184.864805 
L 121.672848 186.691584 
L 122.387474 188.476634 
L 123.213876 190.212765 
L 124.148727 191.892987 
L 125.188261 193.510534 
L 126.328294 195.058893 
L 127.564235 196.53183 
L 128.891106 197.923413 
L 130.303566 199.228039 
L 131.795927 200.440454 
L 133.362179 201.555777 
L 134.996016 202.569517 
L 136.690858 203.477591 
L 138.439883 204.276344 
L 140.236045 204.962558 
L 142.072114 205.533472 
L 143.940696 205.986785 
L 145.834267 206.320672 
L 147.745202 206.53379 
L 149.665806 206.62528 
L 151.588347 206.594773 
L 153.505081 206.442392 
L 155.408292 206.168752 
L 157.290316 205.774953 
L 159.143575 205.262582 
L 160.960605 204.633702 
L 162.734092 203.890844 
L 164.456893 203.037001 
L 166.122071 202.07561 
L 167.722921 201.010542 
L 169.252998 199.846087 
L 170.70614 198.586932 
L 172.076495 197.238149 
L 173.358547 195.805168 
L 174.547132 194.293759 
L 175.637465 192.710008 
L 176.625154 191.060293 
L 177.506224 189.351256 
L 178.277126 187.589779 
L 178.934757 185.782955 
L 179.476467 183.938059 
L 179.900076 182.06252 
L 180.203878 180.16389 
L 180.38665 178.249814 
L 180.447656 176.328 
z
" clip-path="url(#p440f002ef3)" style="fill: #7aa6c2; opacity: 0.2; stroke: #7aa6c2; stroke-linejoin: miter"/>
   </g>
   <g id="matplotlib.axis_1">
    <g id="xtick_1">
     <g id="line2d_1">
      <path d="M 28.942187 297.532375 
L 28.942187 55.123625 
" clip-path="url(#p440f002ef3)" style="fill: none; stroke: #b0b0b0; stroke-opacity: 0.25; stroke-width: 0.8; stroke-linecap: square"/>
     </g>
     <g id="line2d_2">
      <defs>
       <path id="m896cbf6658" d="M 0 0 
L 0 3.5 
" style="stroke: #000000; stroke-width: 0.8"/>
      </defs>
      <g>
       <use xlink:href="#m896cbf6658" x="28.942187" y="297.532375" style="stroke: #000000; stroke-width: 0.8"/>
      </g>
     </g>
     <g id="text_1">
      <!-- −4 -->
      <g transform="translate(21.571094 312.130812) scale(0.1 -0.1)">
       <defs>
        <path id="DejaVuSans-2212" d="M 678 2272 
L 4684 2272 
L 4684 1741 
L 678 1741 
L 678 2272 
z
" transform="scale(0.015625)"/>
        <path id="DejaVuSans-34" d="M 2419 4116 
L 825 1625 
L 2419 1625 
L 2419 4116 
z
M 2253 4666 
L 3047 4666 
L 3047 1625 
L 3713 1625 
L 3713 1100 
L 3047 1100 
L 3047 0 
L 2419 0 
L 2419 1100 
L 313 1100 
L 313 1709 
L 2253 4666 
z
" transform="scale(0.015625)"/>
       </defs>
       <use xlink:href="#DejaVuSans-2212"/>
       <use xlink:href="#DejaVuSans-34" transform="translate(83.789062 0)"/>
      </g>
     </g>
    </g>
    <g id="xtick_2">
     <g id="line2d_3">
      <path d="M 59.243281 297.532375 
L 59.243281 55.123625 
" clip-path="url(#p440f002ef3)" style="fill: none; stroke: #b0b0b0; stroke-opacity: 0.25; stroke-width: 0.8; stroke-linecap: square"/>
     </g>
     <g id="line2d_4">
      <g>
       <use xlink:href="#m896cbf6658" x="59.243281" y="297.532375" style="stroke: #000000; stroke-width: 0.8"/>
      </g>
     </g>
     <g id="text_2">
      <!-- −3 -->
      <g transform="translate(51.872187 312.130812) scale(0.1 -0.1)">
       <defs>
        <path id="DejaVuSans-33" d="M 2597 2516 
Q 3050 2419 3304 2112 
Q 3559 1806 3559 1356 
Q 3559 666 3084 287 
Q 2609 -91 1734 -91 
Q 1441 -91 1130 -33 
Q 819 25 488 141 
L 488 750 
Q 750 597 1062 519 
Q 1375 441 1716 441 
Q 2309 441 2620 675 
Q 2931 909 2931 1356 
Q 2931 1769 2642 2001 
Q 2353 2234 1838 2234 
L 1294 2234 
L 1294 2753 
L 1863 2753 
Q 2328 2753 2575 2939 
Q 2822 3125 2822 3475 
Q 2822 3834 2567 4026 
Q 2313 4219 1838 4219 
Q 1578 4219 1281 4162 
Q 984 4106 628 3988 
L 628 4550 
Q 988 4650 1302 4700 
Q 1616 4750 1894 4750 
Q 2613 4750 3031 4423 
Q 3450 4097 3450 3541 
Q 3450 3153 3228 2886 
Q 3006 2619 2597 2516 
z
" transform="scale(0.015625)"/>
       </defs>
       <use xlink:href="#DejaVuSans-2212"/>
       <use xlink:href="#DejaVuSans-33" transform="translate(83.789062 0)"/>
      </g>
     </g>
    </g>
    <g id="xtick_3">
     <g id="line2d_5">
      <path d="M 89.544375 297.532375 
L 89.544375 55.123625 
" clip-path="url(#p440f002ef3)" style="fill: none; stroke: #b0b0b0; stroke-opacity: 0.25; stroke-width: 0.8; stroke-linecap: square"/>
     </g>
     <g id="line2d_6">
      <g>
       <use xlink:href="#m896cbf6658" x="89.544375" y="297.532375" style="stroke: #000000; stroke-width: 0.8"/>
      </g>
     </g>
     <g id="text_3">
      <!-- −2 -->
      <g transform="translate(82.173281 312.130812) scale(0.1 -0.1)">
       <defs>
        <path id="DejaVuSans-32" d="M 1228 531 
L 3431 531 
L 3431 0 
L 469 0 
L 469 531 
Q 828 903 1448 1529 
Q 2069 2156 2228 2338 
Q 2531 2678 2651 2914 
Q 2772 3150 2772 3378 
Q 2772 3750 2511 3984 
Q 2250 4219 1831 4219 
Q 1534 4219 1204 4116 
Q 875 4013 500 3803 
L 500 4441 
Q 881 4594 1212 4672 
Q 1544 4750 1819 4750 
Q 2544 4750 2975 4387 
Q 3406 4025 3406 3419 
Q 3406 3131 3298 2873 
Q 3191 2616 2906 2266 
Q 2828 2175 2409 1742 
Q 1991 1309 1228 531 
z
" transform="scale(0.015625)"/>
       </defs>
       <use xlink:href="#DejaVuSans-2212"/>
       <use xlink:href="#DejaVuSans-32" transform="translate(83.789062 0)"/>
      </g>
     </g>
    </g>
    <g id="xtick_4">
     <g id="line2d_7">
      <path d="M 119.845469 297.532375 
L 119.845469 55.123625 
" clip-path="url(#p440f002ef3)" style="fill: none; stroke: #b0b0b0; stroke-opacity: 0.25; stroke-width: 0.8; stroke-linecap: square"/>
     </g>
     <g id="line2d_8">
      <g>
       <use xlink:href="#m896cbf6658" x="119.845469" y="297.532375" style="stroke: #000000; stroke-width: 0.8"/>
      </g>
     </g>
     <g id="text_4">
      <!-- −1 -->
      <g transform="translate(112.474375 312.130812) scale(0.1 -0.1)">
       <defs>
        <path id="DejaVuSans-31" d="M 794 531 
L 1825 531 
L 1825 4091 
L 703 3866 
L 703 4441 
L 1819 4666 
L 2450 4666 
L 2450 531 
L 3481 531 
L 3481 0 
L 794 0 
L 794 531 
z
" transform="scale(0.015625)"/>
       </defs>
       <use xlink:href="#DejaVuSans-2212"/>
       <use xlink:href="#DejaVuSans-31" transform="translate(83.789062 0)"/>
      </g>
     </g>
    </g>
    <g id="xtick_5">
     <g id="line2d_9">
      <path d="M 150.146562 297.532375 
L 150.146562 55.123625 
" clip-path="url(#p440f002ef3)" style="fill: none; stroke: #b0b0b0; stroke-opacity: 0.25; stroke-width: 0.8; stroke-linecap: square"/>
     </g>
     <g id="line2d_10">
      <g>
       <use xlink:href="#m896cbf6658" x="150.146562" y="297.532375" style="stroke: #000000; stroke-width: 0.8"/>
      </g>
     </g>
     <g id="text_5">
      <!-- 0 -->
      <g transform="translate(146.965312 312.130812) scale(0.1 -0.1)">
       <defs>
        <path id="DejaVuSans-30" d="M 2034 4250 
Q 1547 4250 1301 3770 
Q 1056 3291 1056 2328 
Q 1056 1369 1301 889 
Q 1547 409 2034 409 
Q 2525 409 2770 889 
Q 3016 1369 3016 2328 
Q 3016 3291 2770 3770 
Q 2525 4250 2034 4250 
z
M 2034 4750 
Q 2819 4750 3233 4129 
Q 3647 3509 3647 2328 
Q 3647 1150 3233 529 
Q 2819 -91 2034 -91 
Q 1250 -91 836 529 
Q 422 1150 422 2328 
Q 422 3509 836 4129 
Q 1250 4750 2034 4750 
z
" transform="scale(0.015625)"/>
       </defs>
       <use xlink:href="#DejaVuSans-30"/>
      </g>
     </g>
    </g>
    <g id="xtick_6">
     <g id="line2d_11">
      <path d="M 180.447656 297.532375 
L 180.447656 55.123625 
" clip-path="url(#p440f002ef3)" style="fill: none; stroke: #b0b0b0; stroke-opacity: 0.25; stroke-width: 0.8; stroke-linecap: square"/>
     </g>
     <g id="line2d_12">
      <g>
       <use xlink:href="#m896cbf6658" x="180.447656" y="297.532375" style="stroke: #000000; stroke-width: 0.8"/>
      </g>
     </g>
     <g id="text_6">
      <!-- 1 -->
      <g transform="translate(177.266406 312.130812) scale(0.1 -0.1)">
       <use xlink:href="#DejaVuSans-31"/>
      </g>
     </g>
    </g>
    <g id="xtick_7">
     <g id="line2d_13">
      <path d="M 210.74875 297.532375 
L 210.74875 55.123625 
" clip-path="url(#p440f002ef3)" style="fill: none; stroke: #b0b0b0; stroke-opacity: 0.25; stroke-width: 0.8; stroke-linecap: square"/>
     </g>
     <g id="line2d_14">
      <g>
       <use xlink:href="#m896cbf6658" x="210.74875" y="297.532375" style="stroke: #000000; stroke-width: 0.8"/>
      </g>
     </g>
     <g id="text_7">
      <!-- 2 -->
      <g transform="translate(207.5675 312.130812) scale(0.1 -0.1)">
       <use xlink:href="#DejaVuSans-32"/>
      </g>
     </g>
    </g>
    <g id="xtick_8">
     <g id="line2d_15">
      <path d="M 241.049844 297.532375 
L 241.049844 55.123625 
" clip-path="url(#p440f002ef3)" style="fill: none; stroke: #b0b0b0; stroke-opacity: 0.25; stroke-width: 0.8; stroke-linecap: square"/>
     </g>
     <g id="line2d_16">
      <g>
       <use xlink:href="#m896cbf6658" x="241.049844" y="297.532375" style="stroke: #000000; stroke-width: 0.8"/>
      </g>
     </g>
     <g id="text_8">
      <!-- 3 -->
      <g transform="translate(237.868594 312.130812) scale(0.1 -0.1)">
       <use xlink:href="#DejaVuSans-33"/>
      </g>
     </g>
    </g>
    <g id="xtick_9">
     <g id="line2d_17">
      <path d="M 271.350937 297.532375 
L 271.350937 55.123625 
" clip-path="url(#p440f002ef3)" style="fill: none; stroke: #b0b0b0; stroke-opacity: 0.25; stroke-width: 0.8; stroke-linecap: square"/>
     </g>
     <g id="line2d_18">
      <g>
       <use xlink:href="#m896cbf6658" x="271.350937" y="297.532375" style="stroke: #000000; stroke-width: 0.8"/>
      </g>
     </g>
     <g id="text_9">
      <!-- 4 -->
      <g transform="translate(268.169687 312.130812) scale(0.1 -0.1)">
       <use xlink:href="#DejaVuSans-34"/>
      </g>
     </g>
    </g>
   </g>
   <g id="matplotlib.axis_2">
    <g id="ytick_1">
     <g id="line2d_19">
      <path d="M 28.942188 297.532375 
L 271.350937 297.532375 
" clip-path="url(#p440f002ef3)" style="fill: none; stroke: #b0b0b0; stroke-opacity: 0.25; stroke-width: 0.8; stroke-linecap: square"/>
     </g>
     <g id="line2d_20">
      <defs>
       <path id="m0b71f7e81b" d="M 0 0 
L -3.5 0 
" style="stroke: #000000; stroke-width: 0.8"/>
      </defs>
      <g>
       <use xlink:href="#m0b71f7e81b" x="28.942188" y="297.532375" style="stroke: #000000; stroke-width: 0.8"/>
      </g>
     </g>
     <g id="text_10">
      <!-- −4 -->
      <g transform="translate(7.2 301.331594) scale(0.1 -0.1)">
       <use xlink:href="#DejaVuSans-2212"/>
       <use xlink:href="#DejaVuSans-34" transform="translate(83.789062 0)"/>
      </g>
     </g>
    </g>
    <g id="ytick_2">
     <g id="line2d_21">
      <path d="M 28.942188 267.231281 
L 271.350937 267.231281 
" clip-path="url(#p440f002ef3)" style="fill: none; stroke: #b0b0b0; stroke-opacity: 0.25; stroke-width: 0.8; stroke-linecap: square"/>
     </g>
     <g id="line2d_22">
      <g>
       <use xlink:href="#m0b71f7e81b" x="28.942188" y="267.231281" style="stroke: #000000; stroke-width: 0.8"/>
      </g>
     </g>
     <g id="text_11">
      <!-- −3 -->
      <g transform="translate(7.2 271.0305) scale(0.1 -0.1)">
       <use xlink:href="#DejaVuSans-2212"/>
       <use xlink:href="#DejaVuSans-33" transform="translate(83.789062 0)"/>
      </g>
     </g>
    </g>
    <g id="ytick_3">
     <g id="line2d_23">
      <path d="M 28.942188 236.930188 
L 271.350937 236.930188 
" clip-path="url(#p440f002ef3)" style="fill: none; stroke: #b0b0b0; stroke-opacity: 0.25; stroke-width: 0.8; stroke-linecap: square"/>
     </g>
     <g id="line2d_24">
      <g>
       <use xlink:href="#m0b71f7e81b" x="28.942188" y="236.930188" style="stroke: #000000; stroke-width: 0.8"/>
      </g>
     </g>
     <g id="text_12">
      <!-- −2 -->
      <g transform="translate(7.2 240.729406) scale(0.1 -0.1)">
       <use xlink:href="#DejaVuSans-2212"/>
       <use xlink:href="#DejaVuSans-32" transform="translate(83.789062 0)"/>
      </g>
     </g>
    </g>
    <g id="ytick_4">
     <g id="line2d_25">
      <path d="M 28.942188 206.629094 
L 271.350937 206.629094 
" clip-path="url(#p440f002ef3)" style="fill: none; stroke: #b0b0b0; stroke-opacity: 0.25; stroke-width: 0.8; stroke-linecap: square"/>
     </g>
     <g id="line2d_26">
      <g>
       <use xlink:href="#m0b71f7e81b" x="28.942188" y="206.629094" style="stroke: #000000; stroke-width: 0.8"/>
      </g>
     </g>
     <g id="text_13">
      <!-- −1 -->
      <g transform="translate(7.2 210.428313) scale(0.1 -0.1)">
       <use xlink:href="#DejaVuSans-2212"/>
       <use xlink:href="#DejaVuSans-31" transform="translate(83.789062 0)"/>
      </g>
     </g>
    </g>
    <g id="ytick_5">
     <g id="line2d_27">
      <path d="M 28.942188 176.328 
L 271.350937 176.328 
" clip-path="url(#p440f002ef3)" style="fill: none; stroke: #b0b0b0; stroke-opacity: 0.25; stroke-width: 0.8; stroke-linecap: square"/>
     </g>
     <g id="line2d_28">
      <g>
       <use xlink:href="#m0b71f7e81b" x="28.942188" y="176.328" style="stroke: #000000; stroke-width: 0.8"/>
      </g>
     </g>
     <g id="text_14">
      <!-- 0 -->
      <g transform="translate(15.579688 180.127219) scale(0.1 -0.1)">
       <use xlink:href="#DejaVuSans-30"/>
      </g>
     </g>
    </g>
    <g id="ytick_6">
     <g id="line2d_29">
      <path d="M 28.942188 146.026906 
L 271.350937 146.026906 
" clip-path="url(#p440f002ef3)" style="fill: none; stroke: #b0b0b0; stroke-opacity: 0.25; stroke-width: 0.8; stroke-linecap: square"/>
     </g>
     <g id="line2d_30">
      <g>
       <use xlink:href="#m0b71f7e81b" x="28.942188" y="146.026906" style="stroke: #000000; stroke-width: 0.8"/>
      </g>
     </g>
     <g id="text_15">
      <!-- 1 -->
      <g transform="translate(15.579688 149.826125) scale(0.1 -0.1)">
       <use xlink:href="#DejaVuSans-31"/>
      </g>
     </g>
    </g>
    <g id="ytick_7">
     <g id="line2d_31">
      <path d="M 28.942188 115.725813 
L 271.350937 115.725813 
" clip-path="url(#p440f002ef3)" style="fill: none; stroke: #b0b0b0; stroke-opacity: 0.25; stroke-width: 0.8; stroke-linecap: square"/>
     </g>
     <g id="line2d_32">
      <g>
       <use xlink:href="#m0b71f7e81b" x="28.942188" y="115.725813" style="stroke: #000000; stroke-width: 0.8"/>
      </g>
     </g>
     <g id="text_16">
      <!-- 2 -->
      <g transform="translate(15.579688 119.525031) scale(0.1 -0.1)">
       <use xlink:href="#DejaVuSans-32"/>
      </g>
     </g>
    </g>
    <g id="ytick_8">
     <g id="line2d_33">
      <path d="M 28.942188 85.424719 
L 271.350937 85.424719 
" clip-path="url(#p440f002ef3)" style="fill: none; stroke: #b0b0b0; stroke-opacity: 0.25; stroke-width: 0.8; stroke-linecap: square"/>
     </g>
     <g id="line2d_34">
      <g>
       <use xlink:href="#m0b71f7e81b" x="28.942188" y="85.424719" style="stroke: #000000; stroke-width: 0.8"/>
      </g>
     </g>
     <g id="text_17">
      <!-- 3 -->
      <g transform="translate(15.579688 89.223938) scale(0.1 -0.1)">
       <use xlink:href="#DejaVuSans-33"/>
      </g>
     </g>
    </g>
    <g id="ytick_9">
     <g id="line2d_35">
      <path d="M 28.942188 55.123625 
L 271.350937 55.123625 
" clip-path="url(#p440f002ef3)" style="fill: none; stroke: #b0b0b0; stroke-opacity: 0.25; stroke-width: 0.8; stroke-linecap: square"/>
     </g>
     <g id="line2d_36">
      <g>
       <use xlink:href="#m0b71f7e81b" x="28.942188" y="55.123625" style="stroke: #000000; stroke-width: 0.8"/>
      </g>
     </g>
     <g id="text_18">
      <!-- 4 -->
      <g transform="translate(15.579688 58.922844) scale(0.1 -0.1)">
       <use xlink:href="#DejaVuSans-34"/>
      </g>
     </g>
    </g>
   </g>
   <g id="line2d_37">
    <path d="M 180.447656 176.328 
L 180.38665 174.406186 
L 180.203878 172.49211 
L 179.900076 170.59348 
L 179.476467 168.717941 
L 178.934757 166.873045 
L 178.277126 165.066221 
L 177.506224 163.304744 
L 176.625154 161.595707 
L 175.637465 159.945992 
L 174.547132 158.362241 
L 173.358547 156.850832 
L 172.076495 155.417851 
L 170.70614 154.069068 
L 169.252998 152.809913 
L 167.722921 151.645458 
L 166.122071 150.58039 
L 164.456893 149.618999 
L 162.734092 148.765156 
L 160.960605 148.022298 
L 159.143575 147.393418 
L 157.290316 146.881047 
L 155.408292 146.487248 
L 153.505081 146.213608 
L 151.588347 146.061227 
L 149.665806 146.03072 
L 147.745202 146.12221 
L 145.834267 146.335328 
L 143.940696 146.669215 
L 142.072114 147.122528 
L 140.236045 147.693442 
L 138.439883 148.379656 
L 136.690858 149.178409 
L 134.996016 150.086483 
L 133.362179 151.100223 
L 131.795927 152.215546 
L 130.303566 153.427961 
L 128.891106 154.732587 
L 127.564235 156.12417 
L 126.328294 157.597107 
L 125.188261 159.145466 
L 124.148727 160.763013 
L 123.213876 162.443235 
L 122.387474 164.179366 
L 121.672848 165.964416 
L 121.072876 167.791195 
L 120.589973 169.65235 
L 120.226084 171.540385 
L 119.982674 173.447698 
L 119.860724 175.366609 
L 119.860724 177.289391 
L 119.982674 179.208302 
L 120.226084 181.115615 
L 120.589973 183.00365 
L 121.072876 184.864805 
L 121.672848 186.691584 
L 122.387474 188.476634 
L 123.213876 190.212765 
L 124.148727 191.892987 
L 125.188261 193.510534 
L 126.328294 195.058893 
L 127.564235 196.53183 
L 128.891106 197.923413 
L 130.303566 199.228039 
L 131.795927 200.440454 
L 133.362179 201.555777 
L 134.996016 202.569517 
L 136.690858 203.477591 
L 138.439883 204.276344 
L 140.236045 204.962558 
L 142.072114 205.533472 
L 143.940696 205.986785 
L 145.834267 206.320672 
L 147.745202 206.53379 
L 149.665806 206.62528 
L 151.588347 206.594773 
L 153.505081 206.442392 
L 155.408292 206.168752 
L 157.290316 205.774953 
L 159.143575 205.262582 
L 160.960605 204.633702 
L 162.734092 203.890844 
L 164.456893 203.037001 
L 166.122071 202.07561 
L 167.722921 201.010542 
L 169.252998 199.846087 
L 170.70614 198.586932 
L 172.076495 197.238149 
L 173.358547 195.805168 
L 174.547132 194.293759 
L 175.637465 192.710008 
L 176.625154 191.060293 
L 177.506224 189.351256 
L 178.277126 187.589779 
L 178.934757 185.782955 
L 179.476467 183.938059 
L 179.900076 182.06252 
L 180.203878 180.16389 
L 180.38665 178.249814 
L 180.447656 176.328 
" clip-path="url(#p440f002ef3)" style="fill: none; stroke: #7aa6c2; stroke-width: 2; stroke-linecap: square"/>
   </g>
   <g id="line2d_38">
    <path d="M 28.942188 176.328 
L 271.350937 176.328 
" clip-path="url(#p440f002ef3)" style="fill: none; stroke: #999999; stroke-width: 0.5; stroke-linecap: square"/>
   </g>
   <g id="line2d_39">
    <path d="M 150.146562 297.532375 
L 150.146562 55.123625 
" clip-path="url(#p440f002ef3)" style="fill: none; stroke: #999999; stroke-width: 0.5; stroke-linecap: square"/>
   </g>
   <g id="patch_4">
    <path d="M 28.942188 297.532375 
L 28.942188 55.123625 
" style="fill: none; stroke: #000000; stroke-width: 0.8; stroke-linejoin: miter; stroke-linecap: square"/>
   </g>
   <g id="patch_5">
    <path d="M 271.350937 297.532375 
L 271.350937 55.123625 
" style="fill: none; stroke: #000000; stroke-width: 0.8; stroke-linejoin: miter; stroke-linecap: square"/>
   </g>
   <g id="patch_6">
    <path d="M 28.942187 297.532375 
L 271.350937 297.532375 
" style="fill: none; stroke: #000000; stroke-width: 0.8; stroke-linejoin: miter; stroke-linecap: square"/>
   </g>
   <g id="patch_7">
    <path d="M 28.942187 55.123625 
L 271.350937 55.123625 
" style="fill: none; stroke: #000000; stroke-width: 0.8; stroke-linejoin: miter; stroke-linecap: square"/>
   </g>
   <g id="text_19">
    <!-- 1. Original unit circle -->
    <g transform="translate(103.269219 49.123625) scale(0.09 -0.09)">
     <defs>
      <path id="DejaVuSans-2e" d="M 684 794 
L 1344 794 
L 1344 0 
L 684 0 
L 684 794 
z
" transform="scale(0.015625)"/>
      <path id="DejaVuSans-20" transform="scale(0.015625)"/>
      <path id="DejaVuSans-4f" d="M 2522 4238 
Q 1834 4238 1429 3725 
Q 1025 3213 1025 2328 
Q 1025 1447 1429 934 
Q 1834 422 2522 422 
Q 3209 422 3611 934 
Q 4013 1447 4013 2328 
Q 4013 3213 3611 3725 
Q 3209 4238 2522 4238 
z
M 2522 4750 
Q 3503 4750 4090 4092 
Q 4678 3434 4678 2328 
Q 4678 1225 4090 567 
Q 3503 -91 2522 -91 
Q 1538 -91 948 565 
Q 359 1222 359 2328 
Q 359 3434 948 4092 
Q 1538 4750 2522 4750 
z
" transform="scale(0.015625)"/>
      <path id="DejaVuSans-72" d="M 2631 2963 
Q 2534 3019 2420 3045 
Q 2306 3072 2169 3072 
Q 1681 3072 1420 2755 
Q 1159 2438 1159 1844 
L 1159 0 
L 581 0 
L 581 3500 
L 1159 3500 
L 1159 2956 
Q 1341 3275 1631 3429 
Q 1922 3584 2338 3584 
Q 2397 3584 2469 3576 
Q 2541 3569 2628 3553 
L 2631 2963 
z
" transform="scale(0.015625)"/>
      <path id="DejaVuSans-69" d="M 603 3500 
L 1178 3500 
L 1178 0 
L 603 0 
L 603 3500 
z
M 603 4863 
L 1178 4863 
L 1178 4134 
L 603 4134 
L 603 4863 
z
" transform="scale(0.015625)"/>
      <path id="DejaVuSans-67" d="M 2906 1791 
Q 2906 2416 2648 2759 
Q 2391 3103 1925 3103 
Q 1463 3103 1205 2759 
Q 947 2416 947 1791 
Q 947 1169 1205 825 
Q 1463 481 1925 481 
Q 2391 481 2648 825 
Q 2906 1169 2906 1791 
z
M 3481 434 
Q 3481 -459 3084 -895 
Q 2688 -1331 1869 -1331 
Q 1566 -1331 1297 -1286 
Q 1028 -1241 775 -1147 
L 775 -588 
Q 1028 -725 1275 -790 
Q 1522 -856 1778 -856 
Q 2344 -856 2625 -561 
Q 2906 -266 2906 331 
L 2906 616 
Q 2728 306 2450 153 
Q 2172 0 1784 0 
Q 1141 0 747 490 
Q 353 981 353 1791 
Q 353 2603 747 3093 
Q 1141 3584 1784 3584 
Q 2172 3584 2450 3431 
Q 2728 3278 2906 2969 
L 2906 3500 
L 3481 3500 
L 3481 434 
z
" transform="scale(0.015625)"/>
      <path id="DejaVuSans-6e" d="M 3513 2113 
L 3513 0 
L 2938 0 
L 2938 2094 
Q 2938 2591 2744 2837 
Q 2550 3084 2163 3084 
Q 1697 3084 1428 2787 
Q 1159 2491 1159 1978 
L 1159 0 
L 581 0 
L 581 3500 
L 1159 3500 
L 1159 2956 
Q 1366 3272 1645 3428 
Q 1925 3584 2291 3584 
Q 2894 3584 3203 3211 
Q 3513 2838 3513 2113 
z
" transform="scale(0.015625)"/>
      <path id="DejaVuSans-61" d="M 2194 1759 
Q 1497 1759 1228 1600 
Q 959 1441 959 1056 
Q 959 750 1161 570 
Q 1363 391 1709 391 
Q 2188 391 2477 730 
Q 2766 1069 2766 1631 
L 2766 1759 
L 2194 1759 
z
M 3341 1997 
L 3341 0 
L 2766 0 
L 2766 531 
Q 2569 213 2275 61 
Q 1981 -91 1556 -91 
Q 1019 -91 701 211 
Q 384 513 384 1019 
Q 384 1609 779 1909 
Q 1175 2209 1959 2209 
L 2766 2209 
L 2766 2266 
Q 2766 2663 2505 2880 
Q 2244 3097 1772 3097 
Q 1472 3097 1187 3025 
Q 903 2953 641 2809 
L 641 3341 
Q 956 3463 1253 3523 
Q 1550 3584 1831 3584 
Q 2591 3584 2966 3190 
Q 3341 2797 3341 1997 
z
" transform="scale(0.015625)"/>
      <path id="DejaVuSans-6c" d="M 603 4863 
L 1178 4863 
L 1178 0 
L 603 0 
L 603 4863 
z
" transform="scale(0.015625)"/>
      <path id="DejaVuSans-75" d="M 544 1381 
L 544 3500 
L 1119 3500 
L 1119 1403 
Q 1119 906 1312 657 
Q 1506 409 1894 409 
Q 2359 409 2629 706 
Q 2900 1003 2900 1516 
L 2900 3500 
L 3475 3500 
L 3475 0 
L 2900 0 
L 2900 538 
Q 2691 219 2414 64 
Q 2138 -91 1772 -91 
Q 1169 -91 856 284 
Q 544 659 544 1381 
z
M 1991 3584 
L 1991 3584 
z
" transform="scale(0.015625)"/>
      <path id="DejaVuSans-74" d="M 1172 4494 
L 1172 3500 
L 2356 3500 
L 2356 3053 
L 1172 3053 
L 1172 1153 
Q 1172 725 1289 603 
Q 1406 481 1766 481 
L 2356 481 
L 2356 0 
L 1766 0 
Q 1100 0 847 248 
Q 594 497 594 1153 
L 594 3053 
L 172 3053 
L 172 3500 
L 594 3500 
L 594 4494 
L 1172 4494 
z
" transform="scale(0.015625)"/>
      <path id="DejaVuSans-63" d="M 3122 3366 
L 3122 2828 
Q 2878 2963 2633 3030 
Q 2388 3097 2138 3097 
Q 1578 3097 1268 2742 
Q 959 2388 959 1747 
Q 959 1106 1268 751 
Q 1578 397 2138 397 
Q 2388 397 2633 464 
Q 2878 531 3122 666 
L 3122 134 
Q 2881 22 2623 -34 
Q 2366 -91 2075 -91 
Q 1284 -91 818 406 
Q 353 903 353 1747 
Q 353 2603 823 3093 
Q 1294 3584 2113 3584 
Q 2378 3584 2631 3529 
Q 2884 3475 3122 3366 
z
" transform="scale(0.015625)"/>
      <path id="DejaVuSans-65" d="M 3597 1894 
L 3597 1613 
L 953 1613 
Q 991 1019 1311 708 
Q 1631 397 2203 397 
Q 2534 397 2845 478 
Q 3156 559 3463 722 
L 3463 178 
Q 3153 47 2828 -22 
Q 2503 -91 2169 -91 
Q 1331 -91 842 396 
Q 353 884 353 1716 
Q 353 2575 817 3079 
Q 1281 3584 2069 3584 
Q 2775 3584 3186 3129 
Q 3597 2675 3597 1894 
z
M 3022 2063 
Q 3016 2534 2758 2815 
Q 2500 3097 2075 3097 
Q 1594 3097 1305 2825 
Q 1016 2553 972 2059 
L 3022 2063 
z
" transform="scale(0.015625)"/>
     </defs>
     <use xlink:href="#DejaVuSans-31"/>
     <use xlink:href="#DejaVuSans-2e" transform="translate(63.623047 0)"/>
     <use xlink:href="#DejaVuSans-20" transform="translate(95.410156 0)"/>
     <use xlink:href="#DejaVuSans-4f" transform="translate(127.197266 0)"/>
     <use xlink:href="#DejaVuSans-72" transform="translate(205.908203 0)"/>
     <use xlink:href="#DejaVuSans-69" transform="translate(247.021484 0)"/>
     <use xlink:href="#DejaVuSans-67" transform="translate(274.804688 0)"/>
     <use xlink:href="#DejaVuSans-69" transform="translate(338.28125 0)"/>
     <use xlink:href="#DejaVuSans-6e" transform="translate(366.064453 0)"/>
     <use xlink:href="#DejaVuSans-61" transform="translate(429.443359 0)"/>
     <use xlink:href="#DejaVuSans-6c" transform="translate(490.722656 0)"/>
     <use xlink:href="#DejaVuSans-20" transform="translate(518.505859 0)"/>
     <use xlink:href="#DejaVuSans-75" transform="translate(550.292969 0)"/>
     <use xlink:href="#DejaVuSans-6e" transform="translate(613.671875 0)"/>
     <use xlink:href="#DejaVuSans-69" transform="translate(677.050781 0)"/>
     <use xlink:href="#DejaVuSans-74" transform="translate(704.833984 0)"/>
     <use xlink:href="#DejaVuSans-20" transform="translate(744.042969 0)"/>
     <use xlink:href="#DejaVuSans-63" transform="translate(775.830078 0)"/>
     <use xlink:href="#DejaVuSans-69" transform="translate(830.810547 0)"/>
     <use xlink:href="#DejaVuSans-72" transform="translate(858.59375 0)"/>
     <use xlink:href="#DejaVuSans-63" transform="translate(897.457031 0)"/>
     <use xlink:href="#DejaVuSans-6c" transform="translate(952.4375 0)"/>
     <use xlink:href="#DejaVuSans-65" transform="translate(980.220703 0)"/>
    </g>
   </g>
  </g>
  <g id="axes_2">
   <g id="patch_8">
    <path d="M 292.635938 297.532375 
L 535.044687 297.532375 
L 535.044687 55.123625 
L 292.635938 55.123625 
z
" style="fill: #ffffff"/>
   </g>
   <g id="patch_9">
    <path d="M 388.064663 160.397772 
L 387.1062 162.064638 
L 386.255386 163.788937 
L 385.515647 165.563726 
L 384.889961 167.381859 
L 384.380848 169.236016 
L 383.990358 171.118729 
L 383.720063 173.022418 
L 383.571052 174.939417 
L 383.543925 176.862008 
L 383.63879 178.782449 
L 383.855266 180.693006 
L 384.192482 182.585987 
L 384.649078 184.453769 
L 385.223218 186.288832 
L 385.912588 188.083786 
L 386.714414 189.831403 
L 387.625466 191.524648 
L 388.642076 193.1567 
L 389.76015 194.720989 
L 390.975187 196.211217 
L 392.282293 197.621381 
L 393.676206 198.945805 
L 395.151313 200.179155 
L 396.701674 201.316464 
L 398.321045 202.353154 
L 400.002908 203.28505 
L 401.740489 204.108399 
L 403.526792 204.819886 
L 405.354623 205.416647 
L 407.216624 205.896277 
L 409.105295 206.256847 
L 411.013033 206.496904 
L 412.932156 206.615481 
L 414.854935 206.612102 
L 416.773628 206.486779 
L 418.680511 206.240017 
L 420.567903 205.87281 
L 422.428206 205.386637 
L 424.253928 204.783454 
L 426.037719 204.065692 
L 427.772395 203.23624 
L 429.450971 202.298437 
L 431.066689 201.256061 
L 432.613042 200.113309 
L 434.083804 198.874781 
L 435.473052 197.545466 
L 436.775193 196.130715 
L 437.984984 194.636226 
L 439.097552 193.068016 
L 440.108419 191.432399 
L 441.013513 189.735963 
L 441.80919 187.985538 
L 442.492246 186.188171 
L 443.059931 184.351102 
L 443.509959 182.481726 
L 443.840518 180.587571 
L 444.050277 178.676265 
L 444.13839 176.755503 
L 444.104504 174.833019 
L 443.948755 172.916555 
L 443.67177 171.013828 
L 443.274664 169.132499 
L 442.759036 167.280144 
L 442.126963 165.464222 
L 441.38099 163.692044 
L 440.524119 161.970746 
L 439.559803 160.30726 
L 438.491923 158.708284 
L 437.32478 157.180257 
L 436.063073 155.729331 
L 434.711883 154.361348 
L 433.276651 153.081817 
L 431.763155 151.89589 
L 430.177491 150.808343 
L 428.526042 149.823554 
L 426.815459 148.94549 
L 425.05263 148.177685 
L 423.244652 147.523232 
L 421.398807 146.984765 
L 419.522526 146.564453 
L 417.623365 146.263988 
L 415.708971 146.084581 
L 413.787053 146.026953 
L 411.865349 146.091337 
L 409.951598 146.277473 
L 408.053505 146.584612 
L 406.178713 147.011517 
L 404.334772 147.556469 
L 402.529107 148.217274 
L 400.768987 148.991271 
L 399.061502 149.875344 
L 397.413525 150.865931 
L 395.831693 151.959046 
L 394.322376 153.150286 
L 392.89165 154.434854 
L 391.545278 155.807578 
L 390.288679 157.262931 
L 389.126915 158.795052 
L 388.064663 160.397772 
z
" clip-path="url(#pc492fdb603)" style="fill: #59a14f; opacity: 0.2; stroke: #59a14f; stroke-linejoin: miter"/>
   </g>
   <g id="matplotlib.axis_3">
    <g id="xtick_10">
     <g id="line2d_40">
      <path d="M 292.635938 297.532375 
L 292.635938 55.123625 
" clip-path="url(#pc492fdb603)" style="fill: none; stroke: #b0b0b0; stroke-opacity: 0.25; stroke-width: 0.8; stroke-linecap: square"/>
     </g>
     <g id="line2d_41">
      <g>
       <use xlink:href="#m896cbf6658" x="292.635938" y="297.532375" style="stroke: #000000; stroke-width: 0.8"/>
      </g>
     </g>
     <g id="text_20">
      <!-- −4 -->
      <g transform="translate(285.264844 312.130812) scale(0.1 -0.1)">
       <use xlink:href="#DejaVuSans-2212"/>
       <use xlink:href="#DejaVuSans-34" transform="translate(83.789062 0)"/>
      </g>
     </g>
    </g>
    <g id="xtick_11">
     <g id="line2d_42">
      <path d="M 322.937031 297.532375 
L 322.937031 55.123625 
" clip-path="url(#pc492fdb603)" style="fill: none; stroke: #b0b0b0; stroke-opacity: 0.25; stroke-width: 0.8; stroke-linecap: square"/>
     </g>
     <g id="line2d_43">
      <g>
       <use xlink:href="#m896cbf6658" x="322.937031" y="297.532375" style="stroke: #000000; stroke-width: 0.8"/>
      </g>
     </g>
     <g id="text_21">
      <!-- −3 -->
      <g transform="translate(315.565938 312.130812) scale(0.1 -0.1)">
       <use xlink:href="#DejaVuSans-2212"/>
       <use xlink:href="#DejaVuSans-33" transform="translate(83.789062 0)"/>
      </g>
     </g>
    </g>
    <g id="xtick_12">
     <g id="line2d_44">
      <path d="M 353.238125 297.532375 
L 353.238125 55.123625 
" clip-path="url(#pc492fdb603)" style="fill: none; stroke: #b0b0b0; stroke-opacity: 0.25; stroke-width: 0.8; stroke-linecap: square"/>
     </g>
     <g id="line2d_45">
      <g>
       <use xlink:href="#m896cbf6658" x="353.238125" y="297.532375" style="stroke: #000000; stroke-width: 0.8"/>
      </g>
     </g>
     <g id="text_22">
      <!-- −2 -->
      <g transform="translate(345.867031 312.130812) scale(0.1 -0.1)">
       <use xlink:href="#DejaVuSans-2212"/>
       <use xlink:href="#DejaVuSans-32" transform="translate(83.789062 0)"/>
      </g>
     </g>
    </g>
    <g id="xtick_13">
     <g id="line2d_46">
      <path d="M 383.539219 297.532375 
L 383.539219 55.123625 
" clip-path="url(#pc492fdb603)" style="fill: none; stroke: #b0b0b0; stroke-opacity: 0.25; stroke-width: 0.8; stroke-linecap: square"/>
     </g>
     <g id="line2d_47">
      <g>
       <use xlink:href="#m896cbf6658" x="383.539219" y="297.532375" style="stroke: #000000; stroke-width: 0.8"/>
      </g>
     </g>
     <g id="text_23">
      <!-- −1 -->
      <g transform="translate(376.168125 312.130812) scale(0.1 -0.1)">
       <use xlink:href="#DejaVuSans-2212"/>
       <use xlink:href="#DejaVuSans-31" transform="translate(83.789062 0)"/>
      </g>
     </g>
    </g>
    <g id="xtick_14">
     <g id="line2d_48">
      <path d="M 413.840312 297.532375 
L 413.840312 55.123625 
" clip-path="url(#pc492fdb603)" style="fill: none; stroke: #b0b0b0; stroke-opacity: 0.25; stroke-width: 0.8; stroke-linecap: square"/>
     </g>
     <g id="line2d_49">
      <g>
       <use xlink:href="#m896cbf6658" x="413.840312" y="297.532375" style="stroke: #000000; stroke-width: 0.8"/>
      </g>
     </g>
     <g id="text_24">
      <!-- 0 -->
      <g transform="translate(410.659063 312.130812) scale(0.1 -0.1)">
       <use xlink:href="#DejaVuSans-30"/>
      </g>
     </g>
    </g>
    <g id="xtick_15">
     <g id="line2d_50">
      <path d="M 444.141406 297.532375 
L 444.141406 55.123625 
" clip-path="url(#pc492fdb603)" style="fill: none; stroke: #b0b0b0; stroke-opacity: 0.25; stroke-width: 0.8; stroke-linecap: square"/>
     </g>
     <g id="line2d_51">
      <g>
       <use xlink:href="#m896cbf6658" x="444.141406" y="297.532375" style="stroke: #000000; stroke-width: 0.8"/>
      </g>
     </g>
     <g id="text_25">
      <!-- 1 -->
      <g transform="translate(440.960156 312.130812) scale(0.1 -0.1)">
       <use xlink:href="#DejaVuSans-31"/>
      </g>
     </g>
    </g>
    <g id="xtick_16">
     <g id="line2d_52">
      <path d="M 474.4425 297.532375 
L 474.4425 55.123625 
" clip-path="url(#pc492fdb603)" style="fill: none; stroke: #b0b0b0; stroke-opacity: 0.25; stroke-width: 0.8; stroke-linecap: square"/>
     </g>
     <g id="line2d_53">
      <g>
       <use xlink:href="#m896cbf6658" x="474.4425" y="297.532375" style="stroke: #000000; stroke-width: 0.8"/>
      </g>
     </g>
     <g id="text_26">
      <!-- 2 -->
      <g transform="translate(471.26125 312.130812) scale(0.1 -0.1)">
       <use xlink:href="#DejaVuSans-32"/>
      </g>
     </g>
    </g>
    <g id="xtick_17">
     <g id="line2d_54">
      <path d="M 504.743594 297.532375 
L 504.743594 55.123625 
" clip-path="url(#pc492fdb603)" style="fill: none; stroke: #b0b0b0; stroke-opacity: 0.25; stroke-width: 0.8; stroke-linecap: square"/>
     </g>
     <g id="line2d_55">
      <g>
       <use xlink:href="#m896cbf6658" x="504.743594" y="297.532375" style="stroke: #000000; stroke-width: 0.8"/>
      </g>
     </g>
     <g id="text_27">
      <!-- 3 -->
      <g transform="translate(501.562344 312.130812) scale(0.1 -0.1)">
       <use xlink:href="#DejaVuSans-33"/>
      </g>
     </g>
    </g>
    <g id="xtick_18">
     <g id="line2d_56">
      <path d="M 535.044687 297.532375 
L 535.044687 55.123625 
" clip-path="url(#pc492fdb603)" style="fill: none; stroke: #b0b0b0; stroke-opacity: 0.25; stroke-width: 0.8; stroke-linecap: square"/>
     </g>
     <g id="line2d_57">
      <g>
       <use xlink:href="#m896cbf6658" x="535.044687" y="297.532375" style="stroke: #000000; stroke-width: 0.8"/>
      </g>
     </g>
     <g id="text_28">
      <!-- 4 -->
      <g transform="translate(531.863437 312.130812) scale(0.1 -0.1)">
       <use xlink:href="#DejaVuSans-34"/>
      </g>
     </g>
    </g>
   </g>
   <g id="matplotlib.axis_4">
    <g id="ytick_10">
     <g id="line2d_58">
      <path d="M 292.635938 297.532375 
L 535.044687 297.532375 
" clip-path="url(#pc492fdb603)" style="fill: none; stroke: #b0b0b0; stroke-opacity: 0.25; stroke-width: 0.8; stroke-linecap: square"/>
     </g>
     <g id="line2d_59">
      <g>
       <use xlink:href="#m0b71f7e81b" x="292.635938" y="297.532375" style="stroke: #000000; stroke-width: 0.8"/>
      </g>
     </g>
    </g>
    <g id="ytick_11">
     <g id="line2d_60">
      <path d="M 292.635938 267.231281 
L 535.044687 267.231281 
" clip-path="url(#pc492fdb603)" style="fill: none; stroke: #b0b0b0; stroke-opacity: 0.25; stroke-width: 0.8; stroke-linecap: square"/>
     </g>
     <g id="line2d_61">
      <g>
       <use xlink:href="#m0b71f7e81b" x="292.635938" y="267.231281" style="stroke: #000000; stroke-width: 0.8"/>
      </g>
     </g>
    </g>
    <g id="ytick_12">
     <g id="line2d_62">
      <path d="M 292.635938 236.930188 
L 535.044687 236.930188 
" clip-path="url(#pc492fdb603)" style="fill: none; stroke: #b0b0b0; stroke-opacity: 0.25; stroke-width: 0.8; stroke-linecap: square"/>
     </g>
     <g id="line2d_63">
      <g>
       <use xlink:href="#m0b71f7e81b" x="292.635938" y="236.930188" style="stroke: #000000; stroke-width: 0.8"/>
      </g>
     </g>
    </g>
    <g id="ytick_13">
     <g id="line2d_64">
      <path d="M 292.635938 206.629094 
L 535.044687 206.629094 
" clip-path="url(#pc492fdb603)" style="fill: none; stroke: #b0b0b0; stroke-opacity: 0.25; stroke-width: 0.8; stroke-linecap: square"/>
     </g>
     <g id="line2d_65">
      <g>
       <use xlink:href="#m0b71f7e81b" x="292.635938" y="206.629094" style="stroke: #000000; stroke-width: 0.8"/>
      </g>
     </g>
    </g>
    <g id="ytick_14">
     <g id="line2d_66">
      <path d="M 292.635938 176.328 
L 535.044687 176.328 
" clip-path="url(#pc492fdb603)" style="fill: none; stroke: #b0b0b0; stroke-opacity: 0.25; stroke-width: 0.8; stroke-linecap: square"/>
     </g>
     <g id="line2d_67">
      <g>
       <use xlink:href="#m0b71f7e81b" x="292.635938" y="176.328" style="stroke: #000000; stroke-width: 0.8"/>
      </g>
     </g>
    </g>
    <g id="ytick_15">
     <g id="line2d_68">
      <path d="M 292.635938 146.026906 
L 535.044687 146.026906 
" clip-path="url(#pc492fdb603)" style="fill: none; stroke: #b0b0b0; stroke-opacity: 0.25; stroke-width: 0.8; stroke-linecap: square"/>
     </g>
     <g id="line2d_69">
      <g>
       <use xlink:href="#m0b71f7e81b" x="292.635938" y="146.026906" style="stroke: #000000; stroke-width: 0.8"/>
      </g>
     </g>
    </g>
    <g id="ytick_16">
     <g id="line2d_70">
      <path d="M 292.635938 115.725813 
L 535.044687 115.725813 
" clip-path="url(#pc492fdb603)" style="fill: none; stroke: #b0b0b0; stroke-opacity: 0.25; stroke-width: 0.8; stroke-linecap: square"/>
     </g>
     <g id="line2d_71">
      <g>
       <use xlink:href="#m0b71f7e81b" x="292.635938" y="115.725813" style="stroke: #000000; stroke-width: 0.8"/>
      </g>
     </g>
    </g>
    <g id="ytick_17">
     <g id="line2d_72">
      <path d="M 292.635938 85.424719 
L 535.044687 85.424719 
" clip-path="url(#pc492fdb603)" style="fill: none; stroke: #b0b0b0; stroke-opacity: 0.25; stroke-width: 0.8; stroke-linecap: square"/>
     </g>
     <g id="line2d_73">
      <g>
       <use xlink:href="#m0b71f7e81b" x="292.635938" y="85.424719" style="stroke: #000000; stroke-width: 0.8"/>
      </g>
     </g>
    </g>
    <g id="ytick_18">
     <g id="line2d_74">
      <path d="M 292.635938 55.123625 
L 535.044687 55.123625 
" clip-path="url(#pc492fdb603)" style="fill: none; stroke: #b0b0b0; stroke-opacity: 0.25; stroke-width: 0.8; stroke-linecap: square"/>
     </g>
     <g id="line2d_75">
      <g>
       <use xlink:href="#m0b71f7e81b" x="292.635938" y="55.123625" style="stroke: #000000; stroke-width: 0.8"/>
      </g>
     </g>
    </g>
   </g>
   <g id="line2d_76">
    <path d="M 388.064663 160.397772 
L 387.1062 162.064638 
L 386.255386 163.788937 
L 385.515647 165.563726 
L 384.889961 167.381859 
L 384.380848 169.236016 
L 383.990358 171.118729 
L 383.720063 173.022418 
L 383.571052 174.939417 
L 383.543925 176.862008 
L 383.63879 178.782449 
L 383.855266 180.693006 
L 384.192482 182.585987 
L 384.649078 184.453769 
L 385.223218 186.288832 
L 385.912588 188.083786 
L 386.714414 189.831403 
L 387.625466 191.524648 
L 388.642076 193.1567 
L 389.76015 194.720989 
L 390.975187 196.211217 
L 392.282293 197.621381 
L 393.676206 198.945805 
L 395.151313 200.179155 
L 396.701674 201.316464 
L 398.321045 202.353154 
L 400.002908 203.28505 
L 401.740489 204.108399 
L 403.526792 204.819886 
L 405.354623 205.416647 
L 407.216624 205.896277 
L 409.105295 206.256847 
L 411.013033 206.496904 
L 412.932156 206.615481 
L 414.854935 206.612102 
L 416.773628 206.486779 
L 418.680511 206.240017 
L 420.567903 205.87281 
L 422.428206 205.386637 
L 424.253928 204.783454 
L 426.037719 204.065692 
L 427.772395 203.23624 
L 429.450971 202.298437 
L 431.066689 201.256061 
L 432.613042 200.113309 
L 434.083804 198.874781 
L 435.473052 197.545466 
L 436.775193 196.130715 
L 437.984984 194.636226 
L 439.097552 193.068016 
L 440.108419 191.432399 
L 441.013513 189.735963 
L 441.80919 187.985538 
L 442.492246 186.188171 
L 443.059931 184.351102 
L 443.509959 182.481726 
L 443.840518 180.587571 
L 444.050277 178.676265 
L 444.13839 176.755503 
L 444.104504 174.833019 
L 443.948755 172.916555 
L 443.67177 171.013828 
L 443.274664 169.132499 
L 442.759036 167.280144 
L 442.126963 165.464222 
L 441.38099 163.692044 
L 440.524119 161.970746 
L 439.559803 160.30726 
L 438.491923 158.708284 
L 437.32478 157.180257 
L 436.063073 155.729331 
L 434.711883 154.361348 
L 433.276651 153.081817 
L 431.763155 151.89589 
L 430.177491 150.808343 
L 428.526042 149.823554 
L 426.815459 148.94549 
L 425.05263 148.177685 
L 423.244652 147.523232 
L 421.398807 146.984765 
L 419.522526 146.564453 
L 417.623365 146.263988 
L 415.708971 146.084581 
L 413.787053 146.026953 
L 411.865349 146.091337 
L 409.951598 146.277473 
L 408.053505 146.584612 
L 406.178713 147.011517 
L 404.334772 147.556469 
L 402.529107 148.217274 
L 400.768987 148.991271 
L 399.061502 149.875344 
L 397.413525 150.865931 
L 395.831693 151.959046 
L 394.322376 153.150286 
L 392.89165 154.434854 
L 391.545278 155.807578 
L 390.288679 157.262931 
L 389.126915 158.795052 
L 388.064663 160.397772 
" clip-path="url(#pc492fdb603)" style="fill: none; stroke: #59a14f; stroke-width: 2; stroke-linecap: square"/>
   </g>
   <g id="line2d_77">
    <path d="M 292.635938 176.328 
L 535.044687 176.328 
" clip-path="url(#pc492fdb603)" style="fill: none; stroke: #999999; stroke-width: 0.5; stroke-linecap: square"/>
   </g>
   <g id="line2d_78">
    <path d="M 413.840312 297.532375 
L 413.840312 55.123625 
" clip-path="url(#pc492fdb603)" style="fill: none; stroke: #999999; stroke-width: 0.5; stroke-linecap: square"/>
   </g>
   <g id="patch_10">
    <path d="M 292.635938 297.532375 
L 292.635938 55.123625 
" style="fill: none; stroke: #000000; stroke-width: 0.8; stroke-linejoin: miter; stroke-linecap: square"/>
   </g>
   <g id="patch_11">
    <path d="M 535.044687 297.532375 
L 535.044687 55.123625 
" style="fill: none; stroke: #000000; stroke-width: 0.8; stroke-linejoin: miter; stroke-linecap: square"/>
   </g>
   <g id="patch_12">
    <path d="M 292.635938 297.532375 
L 535.044687 297.532375 
" style="fill: none; stroke: #000000; stroke-width: 0.8; stroke-linejoin: miter; stroke-linecap: square"/>
   </g>
   <g id="patch_13">
    <path d="M 292.635938 55.123625 
L 535.044687 55.123625 
" style="fill: none; stroke: #000000; stroke-width: 0.8; stroke-linejoin: miter; stroke-linecap: square"/>
   </g>
   <g id="text_29">
    <!-- 2. Rotate to eigenbasis (Q^T) -->
    <g transform="translate(346.953437 49.123625) scale(0.09 -0.09)">
     <defs>
      <path id="DejaVuSans-52" d="M 2841 2188 
Q 3044 2119 3236 1894 
Q 3428 1669 3622 1275 
L 4263 0 
L 3584 0 
L 2988 1197 
Q 2756 1666 2539 1819 
Q 2322 1972 1947 1972 
L 1259 1972 
L 1259 0 
L 628 0 
L 628 4666 
L 2053 4666 
Q 2853 4666 3247 4331 
Q 3641 3997 3641 3322 
Q 3641 2881 3436 2590 
Q 3231 2300 2841 2188 
z
M 1259 4147 
L 1259 2491 
L 2053 2491 
Q 2509 2491 2742 2702 
Q 2975 2913 2975 3322 
Q 2975 3731 2742 3939 
Q 2509 4147 2053 4147 
L 1259 4147 
z
" transform="scale(0.015625)"/>
      <path id="DejaVuSans-6f" d="M 1959 3097 
Q 1497 3097 1228 2736 
Q 959 2375 959 1747 
Q 959 1119 1226 758 
Q 1494 397 1959 397 
Q 2419 397 2687 759 
Q 2956 1122 2956 1747 
Q 2956 2369 2687 2733 
Q 2419 3097 1959 3097 
z
M 1959 3584 
Q 2709 3584 3137 3096 
Q 3566 2609 3566 1747 
Q 3566 888 3137 398 
Q 2709 -91 1959 -91 
Q 1206 -91 779 398 
Q 353 888 353 1747 
Q 353 2609 779 3096 
Q 1206 3584 1959 3584 
z
" transform="scale(0.015625)"/>
      <path id="DejaVuSans-62" d="M 3116 1747 
Q 3116 2381 2855 2742 
Q 2594 3103 2138 3103 
Q 1681 3103 1420 2742 
Q 1159 2381 1159 1747 
Q 1159 1113 1420 752 
Q 1681 391 2138 391 
Q 2594 391 2855 752 
Q 3116 1113 3116 1747 
z
M 1159 2969 
Q 1341 3281 1617 3432 
Q 1894 3584 2278 3584 
Q 2916 3584 3314 3078 
Q 3713 2572 3713 1747 
Q 3713 922 3314 415 
Q 2916 -91 2278 -91 
Q 1894 -91 1617 61 
Q 1341 213 1159 525 
L 1159 0 
L 581 0 
L 581 4863 
L 1159 4863 
L 1159 2969 
z
" transform="scale(0.015625)"/>
      <path id="DejaVuSans-73" d="M 2834 3397 
L 2834 2853 
Q 2591 2978 2328 3040 
Q 2066 3103 1784 3103 
Q 1356 3103 1142 2972 
Q 928 2841 928 2578 
Q 928 2378 1081 2264 
Q 1234 2150 1697 2047 
L 1894 2003 
Q 2506 1872 2764 1633 
Q 3022 1394 3022 966 
Q 3022 478 2636 193 
Q 2250 -91 1575 -91 
Q 1294 -91 989 -36 
Q 684 19 347 128 
L 347 722 
Q 666 556 975 473 
Q 1284 391 1588 391 
Q 1994 391 2212 530 
Q 2431 669 2431 922 
Q 2431 1156 2273 1281 
Q 2116 1406 1581 1522 
L 1381 1569 
Q 847 1681 609 1914 
Q 372 2147 372 2553 
Q 372 3047 722 3315 
Q 1072 3584 1716 3584 
Q 2034 3584 2315 3537 
Q 2597 3491 2834 3397 
z
" transform="scale(0.015625)"/>
      <path id="DejaVuSans-28" d="M 1984 4856 
Q 1566 4138 1362 3434 
Q 1159 2731 1159 2009 
Q 1159 1288 1364 580 
Q 1569 -128 1984 -844 
L 1484 -844 
Q 1016 -109 783 600 
Q 550 1309 550 2009 
Q 550 2706 781 3412 
Q 1013 4119 1484 4856 
L 1984 4856 
z
" transform="scale(0.015625)"/>
      <path id="DejaVuSans-51" d="M 2522 4238 
Q 1834 4238 1429 3725 
Q 1025 3213 1025 2328 
Q 1025 1447 1429 934 
Q 1834 422 2522 422 
Q 3209 422 3611 934 
Q 4013 1447 4013 2328 
Q 4013 3213 3611 3725 
Q 3209 4238 2522 4238 
z
M 3406 84 
L 4238 -825 
L 3475 -825 
L 2784 -78 
Q 2681 -84 2626 -87 
Q 2572 -91 2522 -91 
Q 1538 -91 948 567 
Q 359 1225 359 2328 
Q 359 3434 948 4092 
Q 1538 4750 2522 4750 
Q 3503 4750 4090 4092 
Q 4678 3434 4678 2328 
Q 4678 1516 4351 937 
Q 4025 359 3406 84 
z
" transform="scale(0.015625)"/>
      <path id="DejaVuSans-5e" d="M 2988 4666 
L 4684 2925 
L 4056 2925 
L 2681 4159 
L 1306 2925 
L 678 2925 
L 2375 4666 
L 2988 4666 
z
" transform="scale(0.015625)"/>
      <path id="DejaVuSans-54" d="M -19 4666 
L 3928 4666 
L 3928 4134 
L 2272 4134 
L 2272 0 
L 1638 0 
L 1638 4134 
L -19 4134 
L -19 4666 
z
" transform="scale(0.015625)"/>
      <path id="DejaVuSans-29" d="M 513 4856 
L 1013 4856 
Q 1481 4119 1714 3412 
Q 1947 2706 1947 2009 
Q 1947 1309 1714 600 
Q 1481 -109 1013 -844 
L 513 -844 
Q 928 -128 1133 580 
Q 1338 1288 1338 2009 
Q 1338 2731 1133 3434 
Q 928 4138 513 4856 
z
" transform="scale(0.015625)"/>
     </defs>
     <use xlink:href="#DejaVuSans-32"/>
     <use xlink:href="#DejaVuSans-2e" transform="translate(63.623047 0)"/>
     <use xlink:href="#DejaVuSans-20" transform="translate(95.410156 0)"/>
     <use xlink:href="#DejaVuSans-52" transform="translate(127.197266 0)"/>
     <use xlink:href="#DejaVuSans-6f" transform="translate(192.179688 0)"/>
     <use xlink:href="#DejaVuSans-74" transform="translate(253.361328 0)"/>
     <use xlink:href="#DejaVuSans-61" transform="translate(292.570312 0)"/>
     <use xlink:href="#DejaVuSans-74" transform="translate(353.849609 0)"/>
     <use xlink:href="#DejaVuSans-65" transform="translate(393.058594 0)"/>
     <use xlink:href="#DejaVuSans-20" transform="translate(454.582031 0)"/>
     <use xlink:href="#DejaVuSans-74" transform="translate(486.369141 0)"/>
     <use xlink:href="#DejaVuSans-6f" transform="translate(525.578125 0)"/>
     <use xlink:href="#DejaVuSans-20" transform="translate(586.759766 0)"/>
     <use xlink:href="#DejaVuSans-65" transform="translate(618.546875 0)"/>
     <use xlink:href="#DejaVuSans-69" transform="translate(680.070312 0)"/>
     <use xlink:href="#DejaVuSans-67" transform="translate(707.853516 0)"/>
     <use xlink:href="#DejaVuSans-65" transform="translate(771.330078 0)"/>
     <use xlink:href="#DejaVuSans-6e" transform="translate(832.853516 0)"/>
     <use xlink:href="#DejaVuSans-62" transform="translate(896.232422 0)"/>
     <use xlink:href="#DejaVuSans-61" transform="translate(959.708984 0)"/>
     <use xlink:href="#DejaVuSans-73" transform="translate(1020.988281 0)"/>
     <use xlink:href="#DejaVuSans-69" transform="translate(1073.087891 0)"/>
     <use xlink:href="#DejaVuSans-73" transform="translate(1100.871094 0)"/>
     <use xlink:href="#DejaVuSans-20" transform="translate(1152.970703 0)"/>
     <use xlink:href="#DejaVuSans-28" transform="translate(1184.757812 0)"/>
     <use xlink:href="#DejaVuSans-51" transform="translate(1223.771484 0)"/>
     <use xlink:href="#DejaVuSans-5e" transform="translate(1302.482422 0)"/>
     <use xlink:href="#DejaVuSans-54" transform="translate(1386.271484 0)"/>
     <use xlink:href="#DejaVuSans-29" transform="translate(1447.355469 0)"/>
    </g>
   </g>
  </g>
  <g id="axes_3">
   <g id="patch_14">
    <path d="M 556.329688 297.532375 
L 798.738437 297.532375 
L 798.738437 55.123625 
L 556.329688 55.123625 
z
" style="fill: #ffffff"/>
   </g>
   <g id="patch_15">
    <path d="M 584.276885 154.312967 
L 580.809134 156.616518 
L 577.730861 158.999441 
L 575.054459 161.452139 
L 572.790707 163.964738 
L 570.948719 166.527119 
L 569.535913 169.128964 
L 568.557977 171.759798 
L 568.01885 174.409026 
L 567.920701 177.065981 
L 568.263927 179.719965 
L 569.047146 182.36029 
L 570.267202 184.976325 
L 571.919185 187.557537 
L 573.996441 190.093531 
L 576.490607 192.574097 
L 579.391639 194.989245 
L 582.687856 197.32925 
L 586.365985 199.584692 
L 590.411216 201.746486 
L 594.80726 203.80593 
L 599.536416 205.754729 
L 604.57964 207.585038 
L 609.916626 209.289485 
L 615.525884 210.861208 
L 621.384827 212.293878 
L 627.469863 213.581726 
L 633.75649 214.719567 
L 640.219393 215.702818 
L 646.83255 216.527521 
L 653.569331 217.190354 
L 660.402609 217.68865 
L 667.30487 218.0204 
L 674.24832 218.18427 
L 681.205 218.179599 
L 688.146899 218.006407 
L 695.046064 217.665391 
L 701.874714 217.157923 
L 708.605353 216.486048 
L 715.210879 215.652471 
L 721.664694 214.660548 
L 727.94081 213.514273 
L 734.013956 212.218262 
L 739.859677 210.777734 
L 745.454435 209.198488 
L 750.775702 207.486885 
L 755.80205 205.649817 
L 760.513241 203.694679 
L 764.890304 201.629346 
L 768.915614 199.462133 
L 772.572963 197.201767 
L 775.847624 194.857349 
L 778.726411 192.438321 
L 781.197732 189.954422 
L 783.251636 187.415654 
L 784.879853 184.83224 
L 786.075826 182.214583 
L 786.83474 179.573222 
L 787.153538 176.918794 
L 787.030938 174.261987 
L 786.467432 171.613499 
L 785.46529 168.983995 
L 784.028547 166.384063 
L 782.162988 163.824171 
L 779.876126 161.314628 
L 777.177168 158.865538 
L 774.076983 156.486763 
L 770.588053 154.187882 
L 766.724428 151.978152 
L 762.501664 149.86647 
L 757.936766 147.861339 
L 753.048115 145.970833 
L 747.855395 144.202565 
L 742.379517 142.563655 
L 736.642528 141.060701 
L 730.667531 139.699757 
L 724.478583 138.486302 
L 718.100607 137.425222 
L 711.559284 136.520789 
L 704.880953 135.776647 
L 698.092505 135.19579 
L 691.221276 134.780558 
L 684.294934 134.532623 
L 677.341368 134.452983 
L 670.388578 134.541959 
L 663.46456 134.799193 
L 656.597195 135.223649 
L 649.814136 135.813617 
L 643.142694 136.566722 
L 636.609735 137.479932 
L 630.241564 138.54957 
L 624.063822 139.771328 
L 618.101387 141.140287 
L 612.378266 142.650934 
L 606.917504 144.297187 
L 601.741091 146.072417 
L 596.869868 147.969475 
L 592.323453 149.980723 
L 588.12015 152.098062 
L 584.276885 154.312967 
z
" clip-path="url(#pa4928ac330)" style="fill: #e15759; opacity: 0.2; stroke: #e15759; stroke-linejoin: miter"/>
   </g>
   <g id="matplotlib.axis_5">
    <g id="xtick_19">
     <g id="line2d_79">
      <path d="M 556.329688 297.532375 
L 556.329688 55.123625 
" clip-path="url(#pa4928ac330)" style="fill: none; stroke: #b0b0b0; stroke-opacity: 0.25; stroke-width: 0.8; stroke-linecap: square"/>
     </g>
     <g id="line2d_80">
      <g>
       <use xlink:href="#m896cbf6658" x="556.329688" y="297.532375" style="stroke: #000000; stroke-width: 0.8"/>
      </g>
     </g>
     <g id="text_30">
      <!-- −4 -->
      <g transform="translate(548.958594 312.130812) scale(0.1 -0.1)">
       <use xlink:href="#DejaVuSans-2212"/>
       <use xlink:href="#DejaVuSans-34" transform="translate(83.789062 0)"/>
      </g>
     </g>
    </g>
    <g id="xtick_20">
     <g id="line2d_81">
      <path d="M 586.630781 297.532375 
L 586.630781 55.123625 
" clip-path="url(#pa4928ac330)" style="fill: none; stroke: #b0b0b0; stroke-opacity: 0.25; stroke-width: 0.8; stroke-linecap: square"/>
     </g>
     <g id="line2d_82">
      <g>
       <use xlink:href="#m896cbf6658" x="586.630781" y="297.532375" style="stroke: #000000; stroke-width: 0.8"/>
      </g>
     </g>
     <g id="text_31">
      <!-- −3 -->
      <g transform="translate(579.259688 312.130812) scale(0.1 -0.1)">
       <use xlink:href="#DejaVuSans-2212"/>
       <use xlink:href="#DejaVuSans-33" transform="translate(83.789062 0)"/>
      </g>
     </g>
    </g>
    <g id="xtick_21">
     <g id="line2d_83">
      <path d="M 616.931875 297.532375 
L 616.931875 55.123625 
" clip-path="url(#pa4928ac330)" style="fill: none; stroke: #b0b0b0; stroke-opacity: 0.25; stroke-width: 0.8; stroke-linecap: square"/>
     </g>
     <g id="line2d_84">
      <g>
       <use xlink:href="#m896cbf6658" x="616.931875" y="297.532375" style="stroke: #000000; stroke-width: 0.8"/>
      </g>
     </g>
     <g id="text_32">
      <!-- −2 -->
      <g transform="translate(609.560781 312.130812) scale(0.1 -0.1)">
       <use xlink:href="#DejaVuSans-2212"/>
       <use xlink:href="#DejaVuSans-32" transform="translate(83.789062 0)"/>
      </g>
     </g>
    </g>
    <g id="xtick_22">
     <g id="line2d_85">
      <path d="M 647.232969 297.532375 
L 647.232969 55.123625 
" clip-path="url(#pa4928ac330)" style="fill: none; stroke: #b0b0b0; stroke-opacity: 0.25; stroke-width: 0.8; stroke-linecap: square"/>
     </g>
     <g id="line2d_86">
      <g>
       <use xlink:href="#m896cbf6658" x="647.232969" y="297.532375" style="stroke: #000000; stroke-width: 0.8"/>
      </g>
     </g>
     <g id="text_33">
      <!-- −1 -->
      <g transform="translate(639.861875 312.130812) scale(0.1 -0.1)">
       <use xlink:href="#DejaVuSans-2212"/>
       <use xlink:href="#DejaVuSans-31" transform="translate(83.789062 0)"/>
      </g>
     </g>
    </g>
    <g id="xtick_23">
     <g id="line2d_87">
      <path d="M 677.534063 297.532375 
L 677.534063 55.123625 
" clip-path="url(#pa4928ac330)" style="fill: none; stroke: #b0b0b0; stroke-opacity: 0.25; stroke-width: 0.8; stroke-linecap: square"/>
     </g>
     <g id="line2d_88">
      <g>
       <use xlink:href="#m896cbf6658" x="677.534063" y="297.532375" style="stroke: #000000; stroke-width: 0.8"/>
      </g>
     </g>
     <g id="text_34">
      <!-- 0 -->
      <g transform="translate(674.352813 312.130812) scale(0.1 -0.1)">
       <use xlink:href="#DejaVuSans-30"/>
      </g>
     </g>
    </g>
    <g id="xtick_24">
     <g id="line2d_89">
      <path d="M 707.835156 297.532375 
L 707.835156 55.123625 
" clip-path="url(#pa4928ac330)" style="fill: none; stroke: #b0b0b0; stroke-opacity: 0.25; stroke-width: 0.8; stroke-linecap: square"/>
     </g>
     <g id="line2d_90">
      <g>
       <use xlink:href="#m896cbf6658" x="707.835156" y="297.532375" style="stroke: #000000; stroke-width: 0.8"/>
      </g>
     </g>
     <g id="text_35">
      <!-- 1 -->
      <g transform="translate(704.653906 312.130812) scale(0.1 -0.1)">
       <use xlink:href="#DejaVuSans-31"/>
      </g>
     </g>
    </g>
    <g id="xtick_25">
     <g id="line2d_91">
      <path d="M 738.13625 297.532375 
L 738.13625 55.123625 
" clip-path="url(#pa4928ac330)" style="fill: none; stroke: #b0b0b0; stroke-opacity: 0.25; stroke-width: 0.8; stroke-linecap: square"/>
     </g>
     <g id="line2d_92">
      <g>
       <use xlink:href="#m896cbf6658" x="738.13625" y="297.532375" style="stroke: #000000; stroke-width: 0.8"/>
      </g>
     </g>
     <g id="text_36">
      <!-- 2 -->
      <g transform="translate(734.955 312.130812) scale(0.1 -0.1)">
       <use xlink:href="#DejaVuSans-32"/>
      </g>
     </g>
    </g>
    <g id="xtick_26">
     <g id="line2d_93">
      <path d="M 768.437344 297.532375 
L 768.437344 55.123625 
" clip-path="url(#pa4928ac330)" style="fill: none; stroke: #b0b0b0; stroke-opacity: 0.25; stroke-width: 0.8; stroke-linecap: square"/>
     </g>
     <g id="line2d_94">
      <g>
       <use xlink:href="#m896cbf6658" x="768.437344" y="297.532375" style="stroke: #000000; stroke-width: 0.8"/>
      </g>
     </g>
     <g id="text_37">
      <!-- 3 -->
      <g transform="translate(765.256094 312.130812) scale(0.1 -0.1)">
       <use xlink:href="#DejaVuSans-33"/>
      </g>
     </g>
    </g>
    <g id="xtick_27">
     <g id="line2d_95">
      <path d="M 798.738437 297.532375 
L 798.738437 55.123625 
" clip-path="url(#pa4928ac330)" style="fill: none; stroke: #b0b0b0; stroke-opacity: 0.25; stroke-width: 0.8; stroke-linecap: square"/>
     </g>
     <g id="line2d_96">
      <g>
       <use xlink:href="#m896cbf6658" x="798.738437" y="297.532375" style="stroke: #000000; stroke-width: 0.8"/>
      </g>
     </g>
     <g id="text_38">
      <!-- 4 -->
      <g transform="translate(795.557187 312.130812) scale(0.1 -0.1)">
       <use xlink:href="#DejaVuSans-34"/>
      </g>
     </g>
    </g>
   </g>
   <g id="matplotlib.axis_6">
    <g id="ytick_19">
     <g id="line2d_97">
      <path d="M 556.329688 297.532375 
L 798.738437 297.532375 
" clip-path="url(#pa4928ac330)" style="fill: none; stroke: #b0b0b0; stroke-opacity: 0.25; stroke-width: 0.8; stroke-linecap: square"/>
     </g>
     <g id="line2d_98">
      <g>
       <use xlink:href="#m0b71f7e81b" x="556.329688" y="297.532375" style="stroke: #000000; stroke-width: 0.8"/>
      </g>
     </g>
    </g>
    <g id="ytick_20">
     <g id="line2d_99">
      <path d="M 556.329688 267.231281 
L 798.738437 267.231281 
" clip-path="url(#pa4928ac330)" style="fill: none; stroke: #b0b0b0; stroke-opacity: 0.25; stroke-width: 0.8; stroke-linecap: square"/>
     </g>
     <g id="line2d_100">
      <g>
       <use xlink:href="#m0b71f7e81b" x="556.329688" y="267.231281" style="stroke: #000000; stroke-width: 0.8"/>
      </g>
     </g>
    </g>
    <g id="ytick_21">
     <g id="line2d_101">
      <path d="M 556.329688 236.930188 
L 798.738437 236.930188 
" clip-path="url(#pa4928ac330)" style="fill: none; stroke: #b0b0b0; stroke-opacity: 0.25; stroke-width: 0.8; stroke-linecap: square"/>
     </g>
     <g id="line2d_102">
      <g>
       <use xlink:href="#m0b71f7e81b" x="556.329688" y="236.930188" style="stroke: #000000; stroke-width: 0.8"/>
      </g>
     </g>
    </g>
    <g id="ytick_22">
     <g id="line2d_103">
      <path d="M 556.329688 206.629094 
L 798.738437 206.629094 
" clip-path="url(#pa4928ac330)" style="fill: none; stroke: #b0b0b0; stroke-opacity: 0.25; stroke-width: 0.8; stroke-linecap: square"/>
     </g>
     <g id="line2d_104">
      <g>
       <use xlink:href="#m0b71f7e81b" x="556.329688" y="206.629094" style="stroke: #000000; stroke-width: 0.8"/>
      </g>
     </g>
    </g>
    <g id="ytick_23">
     <g id="line2d_105">
      <path d="M 556.329688 176.328 
L 798.738437 176.328 
" clip-path="url(#pa4928ac330)" style="fill: none; stroke: #b0b0b0; stroke-opacity: 0.25; stroke-width: 0.8; stroke-linecap: square"/>
     </g>
     <g id="line2d_106">
      <g>
       <use xlink:href="#m0b71f7e81b" x="556.329688" y="176.328" style="stroke: #000000; stroke-width: 0.8"/>
      </g>
     </g>
    </g>
    <g id="ytick_24">
     <g id="line2d_107">
      <path d="M 556.329688 146.026906 
L 798.738437 146.026906 
" clip-path="url(#pa4928ac330)" style="fill: none; stroke: #b0b0b0; stroke-opacity: 0.25; stroke-width: 0.8; stroke-linecap: square"/>
     </g>
     <g id="line2d_108">
      <g>
       <use xlink:href="#m0b71f7e81b" x="556.329688" y="146.026906" style="stroke: #000000; stroke-width: 0.8"/>
      </g>
     </g>
    </g>
    <g id="ytick_25">
     <g id="line2d_109">
      <path d="M 556.329688 115.725813 
L 798.738437 115.725813 
" clip-path="url(#pa4928ac330)" style="fill: none; stroke: #b0b0b0; stroke-opacity: 0.25; stroke-width: 0.8; stroke-linecap: square"/>
     </g>
     <g id="line2d_110">
      <g>
       <use xlink:href="#m0b71f7e81b" x="556.329688" y="115.725813" style="stroke: #000000; stroke-width: 0.8"/>
      </g>
     </g>
    </g>
    <g id="ytick_26">
     <g id="line2d_111">
      <path d="M 556.329688 85.424719 
L 798.738437 85.424719 
" clip-path="url(#pa4928ac330)" style="fill: none; stroke: #b0b0b0; stroke-opacity: 0.25; stroke-width: 0.8; stroke-linecap: square"/>
     </g>
     <g id="line2d_112">
      <g>
       <use xlink:href="#m0b71f7e81b" x="556.329688" y="85.424719" style="stroke: #000000; stroke-width: 0.8"/>
      </g>
     </g>
    </g>
    <g id="ytick_27">
     <g id="line2d_113">
      <path d="M 556.329688 55.123625 
L 798.738437 55.123625 
" clip-path="url(#pa4928ac330)" style="fill: none; stroke: #b0b0b0; stroke-opacity: 0.25; stroke-width: 0.8; stroke-linecap: square"/>
     </g>
     <g id="line2d_114">
      <g>
       <use xlink:href="#m0b71f7e81b" x="556.329688" y="55.123625" style="stroke: #000000; stroke-width: 0.8"/>
      </g>
     </g>
    </g>
   </g>
   <g id="line2d_115">
    <path d="M 584.276885 154.312967 
L 580.809134 156.616518 
L 577.730861 158.999441 
L 575.054459 161.452139 
L 572.790707 163.964738 
L 570.948719 166.527119 
L 569.535913 169.128964 
L 568.557977 171.759798 
L 568.01885 174.409026 
L 567.920701 177.065981 
L 568.263927 179.719965 
L 569.047146 182.36029 
L 570.267202 184.976325 
L 571.919185 187.557537 
L 573.996441 190.093531 
L 576.490607 192.574097 
L 579.391639 194.989245 
L 582.687856 197.32925 
L 586.365985 199.584692 
L 590.411216 201.746486 
L 594.80726 203.80593 
L 599.536416 205.754729 
L 604.57964 207.585038 
L 609.916626 209.289485 
L 615.525884 210.861208 
L 621.384827 212.293878 
L 627.469863 213.581726 
L 633.75649 214.719567 
L 640.219393 215.702818 
L 646.83255 216.527521 
L 653.569331 217.190354 
L 660.402609 217.68865 
L 667.30487 218.0204 
L 674.24832 218.18427 
L 681.205 218.179599 
L 688.146899 218.006407 
L 695.046064 217.665391 
L 701.874714 217.157923 
L 708.605353 216.486048 
L 715.210879 215.652471 
L 721.664694 214.660548 
L 727.94081 213.514273 
L 734.013956 212.218262 
L 739.859677 210.777734 
L 745.454435 209.198488 
L 750.775702 207.486885 
L 755.80205 205.649817 
L 760.513241 203.694679 
L 764.890304 201.629346 
L 768.915614 199.462133 
L 772.572963 197.201767 
L 775.847624 194.857349 
L 778.726411 192.438321 
L 781.197732 189.954422 
L 783.251636 187.415654 
L 784.879853 184.83224 
L 786.075826 182.214583 
L 786.83474 179.573222 
L 787.153538 176.918794 
L 787.030938 174.261987 
L 786.467432 171.613499 
L 785.46529 168.983995 
L 784.028547 166.384063 
L 782.162988 163.824171 
L 779.876126 161.314628 
L 777.177168 158.865538 
L 774.076983 156.486763 
L 770.588053 154.187882 
L 766.724428 151.978152 
L 762.501664 149.86647 
L 757.936766 147.861339 
L 753.048115 145.970833 
L 747.855395 144.202565 
L 742.379517 142.563655 
L 736.642528 141.060701 
L 730.667531 139.699757 
L 724.478583 138.486302 
L 718.100607 137.425222 
L 711.559284 136.520789 
L 704.880953 135.776647 
L 698.092505 135.19579 
L 691.221276 134.780558 
L 684.294934 134.532623 
L 677.341368 134.452983 
L 670.388578 134.541959 
L 663.46456 134.799193 
L 656.597195 135.223649 
L 649.814136 135.813617 
L 643.142694 136.566722 
L 636.609735 137.479932 
L 630.241564 138.54957 
L 624.063822 139.771328 
L 618.101387 141.140287 
L 612.378266 142.650934 
L 606.917504 144.297187 
L 601.741091 146.072417 
L 596.869868 147.969475 
L 592.323453 149.980723 
L 588.12015 152.098062 
L 584.276885 154.312967 
" clip-path="url(#pa4928ac330)" style="fill: none; stroke: #e15759; stroke-width: 2; stroke-linecap: square"/>
   </g>
   <g id="line2d_116">
    <path d="M 556.329688 176.328 
L 798.738437 176.328 
" clip-path="url(#pa4928ac330)" style="fill: none; stroke: #999999; stroke-width: 0.5; stroke-linecap: square"/>
   </g>
   <g id="line2d_117">
    <path d="M 677.534063 297.532375 
L 677.534063 55.123625 
" clip-path="url(#pa4928ac330)" style="fill: none; stroke: #999999; stroke-width: 0.5; stroke-linecap: square"/>
   </g>
   <g id="patch_16">
    <path d="M 556.329688 297.532375 
L 556.329688 55.123625 
" style="fill: none; stroke: #000000; stroke-width: 0.8; stroke-linejoin: miter; stroke-linecap: square"/>
   </g>
   <g id="patch_17">
    <path d="M 798.738437 297.532375 
L 798.738437 55.123625 
" style="fill: none; stroke: #000000; stroke-width: 0.8; stroke-linejoin: miter; stroke-linecap: square"/>
   </g>
   <g id="patch_18">
    <path d="M 556.329688 297.532375 
L 798.738437 297.532375 
" style="fill: none; stroke: #000000; stroke-width: 0.8; stroke-linejoin: miter; stroke-linecap: square"/>
   </g>
   <g id="patch_19">
    <path d="M 556.329688 55.123625 
L 798.738437 55.123625 
" style="fill: none; stroke: #000000; stroke-width: 0.8; stroke-linejoin: miter; stroke-linecap: square"/>
   </g>
   <g id="text_39">
    <!-- 3. Scale by eigenvalues (Λ) -->
    <g transform="translate(616.169531 49.123625) scale(0.09 -0.09)">
     <defs>
      <path id="DejaVuSans-53" d="M 3425 4513 
L 3425 3897 
Q 3066 4069 2747 4153 
Q 2428 4238 2131 4238 
Q 1616 4238 1336 4038 
Q 1056 3838 1056 3469 
Q 1056 3159 1242 3001 
Q 1428 2844 1947 2747 
L 2328 2669 
Q 3034 2534 3370 2195 
Q 3706 1856 3706 1288 
Q 3706 609 3251 259 
Q 2797 -91 1919 -91 
Q 1588 -91 1214 -16 
Q 841 59 441 206 
L 441 856 
Q 825 641 1194 531 
Q 1563 422 1919 422 
Q 2459 422 2753 634 
Q 3047 847 3047 1241 
Q 3047 1584 2836 1778 
Q 2625 1972 2144 2069 
L 1759 2144 
Q 1053 2284 737 2584 
Q 422 2884 422 3419 
Q 422 4038 858 4394 
Q 1294 4750 2059 4750 
Q 2388 4750 2728 4690 
Q 3069 4631 3425 4513 
z
" transform="scale(0.015625)"/>
      <path id="DejaVuSans-79" d="M 2059 -325 
Q 1816 -950 1584 -1140 
Q 1353 -1331 966 -1331 
L 506 -1331 
L 506 -850 
L 844 -850 
Q 1081 -850 1212 -737 
Q 1344 -625 1503 -206 
L 1606 56 
L 191 3500 
L 800 3500 
L 1894 763 
L 2988 3500 
L 3597 3500 
L 2059 -325 
z
" transform="scale(0.015625)"/>
      <path id="DejaVuSans-76" d="M 191 3500 
L 800 3500 
L 1894 563 
L 2988 3500 
L 3597 3500 
L 2284 0 
L 1503 0 
L 191 3500 
z
" transform="scale(0.015625)"/>
      <path id="DejaVuSans-39b" d="M 716 0 
L 50 0 
L 1831 4666 
L 2547 4666 
L 4325 0 
L 3669 0 
L 2188 4044 
L 716 0 
z
" transform="scale(0.015625)"/>
     </defs>
     <use xlink:href="#DejaVuSans-33"/>
     <use xlink:href="#DejaVuSans-2e" transform="translate(63.623047 0)"/>
     <use xlink:href="#DejaVuSans-20" transform="translate(95.410156 0)"/>
     <use xlink:href="#DejaVuSans-53" transform="translate(127.197266 0)"/>
     <use xlink:href="#DejaVuSans-63" transform="translate(190.673828 0)"/>
     <use xlink:href="#DejaVuSans-61" transform="translate(245.654297 0)"/>
     <use xlink:href="#DejaVuSans-6c" transform="translate(306.933594 0)"/>
     <use xlink:href="#DejaVuSans-65" transform="translate(334.716797 0)"/>
     <use xlink:href="#DejaVuSans-20" transform="translate(396.240234 0)"/>
     <use xlink:href="#DejaVuSans-62" transform="translate(428.027344 0)"/>
     <use xlink:href="#DejaVuSans-79" transform="translate(491.503906 0)"/>
     <use xlink:href="#DejaVuSans-20" transform="translate(550.683594 0)"/>
     <use xlink:href="#DejaVuSans-65" transform="translate(582.470703 0)"/>
     <use xlink:href="#DejaVuSans-69" transform="translate(643.994141 0)"/>
     <use xlink:href="#DejaVuSans-67" transform="translate(671.777344 0)"/>
     <use xlink:href="#DejaVuSans-65" transform="translate(735.253906 0)"/>
     <use xlink:href="#DejaVuSans-6e" transform="translate(796.777344 0)"/>
     <use xlink:href="#DejaVuSans-76" transform="translate(860.15625 0)"/>
     <use xlink:href="#DejaVuSans-61" transform="translate(919.335938 0)"/>
     <use xlink:href="#DejaVuSans-6c" transform="translate(980.615234 0)"/>
     <use xlink:href="#DejaVuSans-75" transform="translate(1008.398438 0)"/>
     <use xlink:href="#DejaVuSans-65" transform="translate(1071.777344 0)"/>
     <use xlink:href="#DejaVuSans-73" transform="translate(1133.300781 0)"/>
     <use xlink:href="#DejaVuSans-20" transform="translate(1185.400391 0)"/>
     <use xlink:href="#DejaVuSans-28" transform="translate(1217.1875 0)"/>
     <use xlink:href="#DejaVuSans-39b" transform="translate(1256.201172 0)"/>
     <use xlink:href="#DejaVuSans-29" transform="translate(1324.609375 0)"/>
    </g>
   </g>
  </g>
  <g id="axes_4">
   <g id="patch_20">
    <path d="M 820.023438 297.532375 
L 1062.432188 297.532375 
L 1062.432188 55.123625 
L 820.023438 55.123625 
z
" style="fill: #ffffff"/>
   </g>
   <g id="patch_21">
    <path d="M 1032.131094 146.026906 
L 1033.86989 142.244284 
L 1035.23565 138.598905 
L 1036.222873 135.105447 
L 1036.827584 131.777978 
L 1037.047349 128.629897 
L 1036.881283 125.673878 
L 1036.330053 122.921826 
L 1035.395881 120.384822 
L 1034.082527 118.073082 
L 1032.39528 115.995913 
L 1030.340934 114.16168 
L 1027.92776 112.577769 
L 1025.165477 111.250558 
L 1022.065206 110.185391 
L 1018.639431 109.386557 
L 1014.901947 108.857272 
L 1010.867804 108.599668 
L 1006.553245 108.614782 
L 1001.975643 108.902553 
L 997.153431 109.461823 
L 992.106027 110.29034 
L 986.853754 111.384766 
L 981.417761 112.740696 
L 975.819938 114.35267 
L 970.082824 116.214197 
L 964.229521 118.31778 
L 958.283599 120.654951 
L 952.268999 123.216297 
L 946.20994 125.991505 
L 940.13082 128.9694 
L 934.056117 132.137992 
L 928.010292 135.484521 
L 922.017689 138.995513 
L 916.102438 142.656829 
L 910.288359 146.453728 
L 904.598862 150.370919 
L 899.056856 154.392631 
L 893.684659 158.502668 
L 888.5039 162.684482 
L 883.535443 166.921233 
L 878.799292 171.195862 
L 874.314519 175.491157 
L 870.099181 179.789821 
L 866.170254 184.074545 
L 862.543557 188.328077 
L 859.233694 192.533289 
L 856.253993 196.673248 
L 853.61645 200.731284 
L 851.331688 204.691056 
L 849.408906 208.536621 
L 847.855846 212.252492 
L 846.678762 215.823709 
L 845.882394 219.23589 
L 845.469948 222.475296 
L 845.443085 225.528883 
L 845.801914 228.384356 
L 846.544989 231.030216 
L 847.669318 233.455809 
L 849.170374 235.65137 
L 851.042114 237.608055 
L 853.276999 239.317988 
L 855.866031 240.774282 
L 858.798784 241.971074 
L 862.063451 242.903544 
L 865.646884 243.567938 
L 869.534655 243.961581 
L 873.711109 244.082887 
L 878.159429 243.931368 
L 882.861703 243.507634 
L 887.798997 242.813391 
L 892.95143 241.851435 
L 898.298254 240.62564 
L 903.817941 239.14094 
L 909.488265 237.403315 
L 915.286392 235.419762 
L 921.188976 233.198266 
L 927.17225 230.747774 
L 933.21212 228.078153 
L 939.284267 225.200153 
L 945.364239 222.125361 
L 951.427556 218.866159 
L 957.449802 215.435672 
L 963.406728 211.847712 
L 969.274347 208.116726 
L 975.029032 204.257738 
L 980.647612 200.286287 
L 986.107462 196.218365 
L 991.386598 192.070351 
L 996.463762 187.858948 
L 1001.318511 183.601114 
L 1005.931295 179.313994 
L 1010.283542 175.01485 
L 1014.357725 170.720994 
L 1018.13744 166.449715 
L 1021.607467 162.218213 
L 1024.753833 158.043526 
L 1027.56387 153.942464 
L 1030.026262 149.93154 
L 1032.131094 146.026906 
z
" clip-path="url(#pa97199c3e1)" style="fill: #7aa6c2; opacity: 0.2; stroke: #7aa6c2; stroke-linejoin: miter"/>
   </g>
   <g id="matplotlib.axis_7">
    <g id="xtick_28">
     <g id="line2d_118">
      <path d="M 820.023438 297.532375 
L 820.023438 55.123625 
" clip-path="url(#pa97199c3e1)" style="fill: none; stroke: #b0b0b0; stroke-opacity: 0.25; stroke-width: 0.8; stroke-linecap: square"/>
     </g>
     <g id="line2d_119">
      <g>
       <use xlink:href="#m896cbf6658" x="820.023438" y="297.532375" style="stroke: #000000; stroke-width: 0.8"/>
      </g>
     </g>
     <g id="text_40">
      <!-- −4 -->
      <g transform="translate(812.652344 312.130812) scale(0.1 -0.1)">
       <use xlink:href="#DejaVuSans-2212"/>
       <use xlink:href="#DejaVuSans-34" transform="translate(83.789062 0)"/>
      </g>
     </g>
    </g>
    <g id="xtick_29">
     <g id="line2d_120">
      <path d="M 850.324531 297.532375 
L 850.324531 55.123625 
" clip-path="url(#pa97199c3e1)" style="fill: none; stroke: #b0b0b0; stroke-opacity: 0.25; stroke-width: 0.8; stroke-linecap: square"/>
     </g>
     <g id="line2d_121">
      <g>
       <use xlink:href="#m896cbf6658" x="850.324531" y="297.532375" style="stroke: #000000; stroke-width: 0.8"/>
      </g>
     </g>
     <g id="text_41">
      <!-- −3 -->
      <g transform="translate(842.953438 312.130812) scale(0.1 -0.1)">
       <use xlink:href="#DejaVuSans-2212"/>
       <use xlink:href="#DejaVuSans-33" transform="translate(83.789062 0)"/>
      </g>
     </g>
    </g>
    <g id="xtick_30">
     <g id="line2d_122">
      <path d="M 880.625625 297.532375 
L 880.625625 55.123625 
" clip-path="url(#pa97199c3e1)" style="fill: none; stroke: #b0b0b0; stroke-opacity: 0.25; stroke-width: 0.8; stroke-linecap: square"/>
     </g>
     <g id="line2d_123">
      <g>
       <use xlink:href="#m896cbf6658" x="880.625625" y="297.532375" style="stroke: #000000; stroke-width: 0.8"/>
      </g>
     </g>
     <g id="text_42">
      <!-- −2 -->
      <g transform="translate(873.254531 312.130812) scale(0.1 -0.1)">
       <use xlink:href="#DejaVuSans-2212"/>
       <use xlink:href="#DejaVuSans-32" transform="translate(83.789062 0)"/>
      </g>
     </g>
    </g>
    <g id="xtick_31">
     <g id="line2d_124">
      <path d="M 910.926719 297.532375 
L 910.926719 55.123625 
" clip-path="url(#pa97199c3e1)" style="fill: none; stroke: #b0b0b0; stroke-opacity: 0.25; stroke-width: 0.8; stroke-linecap: square"/>
     </g>
     <g id="line2d_125">
      <g>
       <use xlink:href="#m896cbf6658" x="910.926719" y="297.532375" style="stroke: #000000; stroke-width: 0.8"/>
      </g>
     </g>
     <g id="text_43">
      <!-- −1 -->
      <g transform="translate(903.555625 312.130812) scale(0.1 -0.1)">
       <use xlink:href="#DejaVuSans-2212"/>
       <use xlink:href="#DejaVuSans-31" transform="translate(83.789062 0)"/>
      </g>
     </g>
    </g>
    <g id="xtick_32">
     <g id="line2d_126">
      <path d="M 941.227813 297.532375 
L 941.227813 55.123625 
" clip-path="url(#pa97199c3e1)" style="fill: none; stroke: #b0b0b0; stroke-opacity: 0.25; stroke-width: 0.8; stroke-linecap: square"/>
     </g>
     <g id="line2d_127">
      <g>
       <use xlink:href="#m896cbf6658" x="941.227813" y="297.532375" style="stroke: #000000; stroke-width: 0.8"/>
      </g>
     </g>
     <g id="text_44">
      <!-- 0 -->
      <g transform="translate(938.046563 312.130812) scale(0.1 -0.1)">
       <use xlink:href="#DejaVuSans-30"/>
      </g>
     </g>
    </g>
    <g id="xtick_33">
     <g id="line2d_128">
      <path d="M 971.528906 297.532375 
L 971.528906 55.123625 
" clip-path="url(#pa97199c3e1)" style="fill: none; stroke: #b0b0b0; stroke-opacity: 0.25; stroke-width: 0.8; stroke-linecap: square"/>
     </g>
     <g id="line2d_129">
      <g>
       <use xlink:href="#m896cbf6658" x="971.528906" y="297.532375" style="stroke: #000000; stroke-width: 0.8"/>
      </g>
     </g>
     <g id="text_45">
      <!-- 1 -->
      <g transform="translate(968.347656 312.130812) scale(0.1 -0.1)">
       <use xlink:href="#DejaVuSans-31"/>
      </g>
     </g>
    </g>
    <g id="xtick_34">
     <g id="line2d_130">
      <path d="M 1001.83 297.532375 
L 1001.83 55.123625 
" clip-path="url(#pa97199c3e1)" style="fill: none; stroke: #b0b0b0; stroke-opacity: 0.25; stroke-width: 0.8; stroke-linecap: square"/>
     </g>
     <g id="line2d_131">
      <g>
       <use xlink:href="#m896cbf6658" x="1001.83" y="297.532375" style="stroke: #000000; stroke-width: 0.8"/>
      </g>
     </g>
     <g id="text_46">
      <!-- 2 -->
      <g transform="translate(998.64875 312.130812) scale(0.1 -0.1)">
       <use xlink:href="#DejaVuSans-32"/>
      </g>
     </g>
    </g>
    <g id="xtick_35">
     <g id="line2d_132">
      <path d="M 1032.131094 297.532375 
L 1032.131094 55.123625 
" clip-path="url(#pa97199c3e1)" style="fill: none; stroke: #b0b0b0; stroke-opacity: 0.25; stroke-width: 0.8; stroke-linecap: square"/>
     </g>
     <g id="line2d_133">
      <g>
       <use xlink:href="#m896cbf6658" x="1032.131094" y="297.532375" style="stroke: #000000; stroke-width: 0.8"/>
      </g>
     </g>
     <g id="text_47">
      <!-- 3 -->
      <g transform="translate(1028.949844 312.130812) scale(0.1 -0.1)">
       <use xlink:href="#DejaVuSans-33"/>
      </g>
     </g>
    </g>
    <g id="xtick_36">
     <g id="line2d_134">
      <path d="M 1062.432188 297.532375 
L 1062.432188 55.123625 
" clip-path="url(#pa97199c3e1)" style="fill: none; stroke: #b0b0b0; stroke-opacity: 0.25; stroke-width: 0.8; stroke-linecap: square"/>
     </g>
     <g id="line2d_135">
      <g>
       <use xlink:href="#m896cbf6658" x="1062.432188" y="297.532375" style="stroke: #000000; stroke-width: 0.8"/>
      </g>
     </g>
     <g id="text_48">
      <!-- 4 -->
      <g transform="translate(1059.250937 312.130812) scale(0.1 -0.1)">
       <use xlink:href="#DejaVuSans-34"/>
      </g>
     </g>
    </g>
   </g>
   <g id="matplotlib.axis_8">
    <g id="ytick_28">
     <g id="line2d_136">
      <path d="M 820.023438 297.532375 
L 1062.432188 297.532375 
" clip-path="url(#pa97199c3e1)" style="fill: none; stroke: #b0b0b0; stroke-opacity: 0.25; stroke-width: 0.8; stroke-linecap: square"/>
     </g>
     <g id="line2d_137">
      <g>
       <use xlink:href="#m0b71f7e81b" x="820.023438" y="297.532375" style="stroke: #000000; stroke-width: 0.8"/>
      </g>
     </g>
    </g>
    <g id="ytick_29">
     <g id="line2d_138">
      <path d="M 820.023438 267.231281 
L 1062.432188 267.231281 
" clip-path="url(#pa97199c3e1)" style="fill: none; stroke: #b0b0b0; stroke-opacity: 0.25; stroke-width: 0.8; stroke-linecap: square"/>
     </g>
     <g id="line2d_139">
      <g>
       <use xlink:href="#m0b71f7e81b" x="820.023438" y="267.231281" style="stroke: #000000; stroke-width: 0.8"/>
      </g>
     </g>
    </g>
    <g id="ytick_30">
     <g id="line2d_140">
      <path d="M 820.023438 236.930188 
L 1062.432188 236.930188 
" clip-path="url(#pa97199c3e1)" style="fill: none; stroke: #b0b0b0; stroke-opacity: 0.25; stroke-width: 0.8; stroke-linecap: square"/>
     </g>
     <g id="line2d_141">
      <g>
       <use xlink:href="#m0b71f7e81b" x="820.023438" y="236.930188" style="stroke: #000000; stroke-width: 0.8"/>
      </g>
     </g>
    </g>
    <g id="ytick_31">
     <g id="line2d_142">
      <path d="M 820.023438 206.629094 
L 1062.432188 206.629094 
" clip-path="url(#pa97199c3e1)" style="fill: none; stroke: #b0b0b0; stroke-opacity: 0.25; stroke-width: 0.8; stroke-linecap: square"/>
     </g>
     <g id="line2d_143">
      <g>
       <use xlink:href="#m0b71f7e81b" x="820.023438" y="206.629094" style="stroke: #000000; stroke-width: 0.8"/>
      </g>
     </g>
    </g>
    <g id="ytick_32">
     <g id="line2d_144">
      <path d="M 820.023438 176.328 
L 1062.432188 176.328 
" clip-path="url(#pa97199c3e1)" style="fill: none; stroke: #b0b0b0; stroke-opacity: 0.25; stroke-width: 0.8; stroke-linecap: square"/>
     </g>
     <g id="line2d_145">
      <g>
       <use xlink:href="#m0b71f7e81b" x="820.023438" y="176.328" style="stroke: #000000; stroke-width: 0.8"/>
      </g>
     </g>
    </g>
    <g id="ytick_33">
     <g id="line2d_146">
      <path d="M 820.023438 146.026906 
L 1062.432188 146.026906 
" clip-path="url(#pa97199c3e1)" style="fill: none; stroke: #b0b0b0; stroke-opacity: 0.25; stroke-width: 0.8; stroke-linecap: square"/>
     </g>
     <g id="line2d_147">
      <g>
       <use xlink:href="#m0b71f7e81b" x="820.023438" y="146.026906" style="stroke: #000000; stroke-width: 0.8"/>
      </g>
     </g>
    </g>
    <g id="ytick_34">
     <g id="line2d_148">
      <path d="M 820.023438 115.725813 
L 1062.432188 115.725813 
" clip-path="url(#pa97199c3e1)" style="fill: none; stroke: #b0b0b0; stroke-opacity: 0.25; stroke-width: 0.8; stroke-linecap: square"/>
     </g>
     <g id="line2d_149">
      <g>
       <use xlink:href="#m0b71f7e81b" x="820.023438" y="115.725813" style="stroke: #000000; stroke-width: 0.8"/>
      </g>
     </g>
    </g>
    <g id="ytick_35">
     <g id="line2d_150">
      <path d="M 820.023438 85.424719 
L 1062.432188 85.424719 
" clip-path="url(#pa97199c3e1)" style="fill: none; stroke: #b0b0b0; stroke-opacity: 0.25; stroke-width: 0.8; stroke-linecap: square"/>
     </g>
     <g id="line2d_151">
      <g>
       <use xlink:href="#m0b71f7e81b" x="820.023438" y="85.424719" style="stroke: #000000; stroke-width: 0.8"/>
      </g>
     </g>
    </g>
    <g id="ytick_36">
     <g id="line2d_152">
      <path d="M 820.023438 55.123625 
L 1062.432188 55.123625 
" clip-path="url(#pa97199c3e1)" style="fill: none; stroke: #b0b0b0; stroke-opacity: 0.25; stroke-width: 0.8; stroke-linecap: square"/>
     </g>
     <g id="line2d_153">
      <g>
       <use xlink:href="#m0b71f7e81b" x="820.023438" y="55.123625" style="stroke: #000000; stroke-width: 0.8"/>
      </g>
     </g>
    </g>
   </g>
   <g id="line2d_154">
    <path d="M 1032.131094 146.026906 
L 1033.86989 142.244284 
L 1035.23565 138.598905 
L 1036.222873 135.105447 
L 1036.827584 131.777978 
L 1037.047349 128.629897 
L 1036.881283 125.673878 
L 1036.330053 122.921826 
L 1035.395881 120.384822 
L 1034.082527 118.073082 
L 1032.39528 115.995913 
L 1030.340934 114.16168 
L 1027.92776 112.577769 
L 1025.165477 111.250558 
L 1022.065206 110.185391 
L 1018.639431 109.386557 
L 1014.901947 108.857272 
L 1010.867804 108.599668 
L 1006.553245 108.614782 
L 1001.975643 108.902553 
L 997.153431 109.461823 
L 992.106027 110.29034 
L 986.853754 111.384766 
L 981.417761 112.740696 
L 975.819938 114.35267 
L 970.082824 116.214197 
L 964.229521 118.31778 
L 958.283599 120.654951 
L 952.268999 123.216297 
L 946.20994 125.991505 
L 940.13082 128.9694 
L 934.056117 132.137992 
L 928.010292 135.484521 
L 922.017689 138.995513 
L 916.102438 142.656829 
L 910.288359 146.453728 
L 904.598862 150.370919 
L 899.056856 154.392631 
L 893.684659 158.502668 
L 888.5039 162.684482 
L 883.535443 166.921233 
L 878.799292 171.195862 
L 874.314519 175.491157 
L 870.099181 179.789821 
L 866.170254 184.074545 
L 862.543557 188.328077 
L 859.233694 192.533289 
L 856.253993 196.673248 
L 853.61645 200.731284 
L 851.331688 204.691056 
L 849.408906 208.536621 
L 847.855846 212.252492 
L 846.678762 215.823709 
L 845.882394 219.23589 
L 845.469948 222.475296 
L 845.443085 225.528883 
L 845.801914 228.384356 
L 846.544989 231.030216 
L 847.669318 233.455809 
L 849.170374 235.65137 
L 851.042114 237.608055 
L 853.276999 239.317988 
L 855.866031 240.774282 
L 858.798784 241.971074 
L 862.063451 242.903544 
L 865.646884 243.567938 
L 869.534655 243.961581 
L 873.711109 244.082887 
L 878.159429 243.931368 
L 882.861703 243.507634 
L 887.798997 242.813391 
L 892.95143 241.851435 
L 898.298254 240.62564 
L 903.817941 239.14094 
L 909.488265 237.403315 
L 915.286392 235.419762 
L 921.188976 233.198266 
L 927.17225 230.747774 
L 933.21212 228.078153 
L 939.284267 225.200153 
L 945.364239 222.125361 
L 951.427556 218.866159 
L 957.449802 215.435672 
L 963.406728 211.847712 
L 969.274347 208.116726 
L 975.029032 204.257738 
L 980.647612 200.286287 
L 986.107462 196.218365 
L 991.386598 192.070351 
L 996.463762 187.858948 
L 1001.318511 183.601114 
L 1005.931295 179.313994 
L 1010.283542 175.01485 
L 1014.357725 170.720994 
L 1018.13744 166.449715 
L 1021.607467 162.218213 
L 1024.753833 158.043526 
L 1027.56387 153.942464 
L 1030.026262 149.93154 
L 1032.131094 146.026906 
" clip-path="url(#pa97199c3e1)" style="fill: none; stroke: #7aa6c2; stroke-width: 2; stroke-linecap: square"/>
   </g>
   <g id="line2d_155">
    <path d="M 820.023438 176.328 
L 1062.432188 176.328 
" clip-path="url(#pa97199c3e1)" style="fill: none; stroke: #999999; stroke-width: 0.5; stroke-linecap: square"/>
   </g>
   <g id="line2d_156">
    <path d="M 941.227813 297.532375 
L 941.227813 55.123625 
" clip-path="url(#pa97199c3e1)" style="fill: none; stroke: #999999; stroke-width: 0.5; stroke-linecap: square"/>
   </g>
   <g id="patch_22">
    <path d="M 820.023438 297.532375 
L 820.023438 55.123625 
" style="fill: none; stroke: #000000; stroke-width: 0.8; stroke-linejoin: miter; stroke-linecap: square"/>
   </g>
   <g id="patch_23">
    <path d="M 1062.432188 297.532375 
L 1062.432188 55.123625 
" style="fill: none; stroke: #000000; stroke-width: 0.8; stroke-linejoin: miter; stroke-linecap: square"/>
   </g>
   <g id="patch_24">
    <path d="M 820.023438 297.532375 
L 1062.432188 297.532375 
" style="fill: none; stroke: #000000; stroke-width: 0.8; stroke-linejoin: miter; stroke-linecap: square"/>
   </g>
   <g id="patch_25">
    <path d="M 820.023438 55.123625 
L 1062.432188 55.123625 
" style="fill: none; stroke: #000000; stroke-width: 0.8; stroke-linejoin: miter; stroke-linecap: square"/>
   </g>
   <g id="text_49">
    <!-- 4. Rotate back (Q) -->
    <g transform="translate(900.163203 39.045594) scale(0.09 -0.09)">
     <defs>
      <path id="DejaVuSans-6b" d="M 581 4863 
L 1159 4863 
L 1159 1991 
L 2875 3500 
L 3609 3500 
L 1753 1863 
L 3688 0 
L 2938 0 
L 1159 1709 
L 1159 0 
L 581 0 
L 581 4863 
z
" transform="scale(0.015625)"/>
     </defs>
     <use xlink:href="#DejaVuSans-34"/>
     <use xlink:href="#DejaVuSans-2e" transform="translate(63.623047 0)"/>
     <use xlink:href="#DejaVuSans-20" transform="translate(95.410156 0)"/>
     <use xlink:href="#DejaVuSans-52" transform="translate(127.197266 0)"/>
     <use xlink:href="#DejaVuSans-6f" transform="translate(192.179688 0)"/>
     <use xlink:href="#DejaVuSans-74" transform="translate(253.361328 0)"/>
     <use xlink:href="#DejaVuSans-61" transform="translate(292.570312 0)"/>
     <use xlink:href="#DejaVuSans-74" transform="translate(353.849609 0)"/>
     <use xlink:href="#DejaVuSans-65" transform="translate(393.058594 0)"/>
     <use xlink:href="#DejaVuSans-20" transform="translate(454.582031 0)"/>
     <use xlink:href="#DejaVuSans-62" transform="translate(486.369141 0)"/>
     <use xlink:href="#DejaVuSans-61" transform="translate(549.845703 0)"/>
     <use xlink:href="#DejaVuSans-63" transform="translate(611.125 0)"/>
     <use xlink:href="#DejaVuSans-6b" transform="translate(666.105469 0)"/>
     <use xlink:href="#DejaVuSans-20" transform="translate(724.015625 0)"/>
     <use xlink:href="#DejaVuSans-28" transform="translate(755.802734 0)"/>
     <use xlink:href="#DejaVuSans-51" transform="translate(794.816406 0)"/>
     <use xlink:href="#DejaVuSans-29" transform="translate(873.527344 0)"/>
    </g>
    <!-- = same as A·x -->
    <g transform="translate(908.638672 49.123625) scale(0.09 -0.09)">
     <defs>
      <path id="DejaVuSans-3d" d="M 678 2906 
L 4684 2906 
L 4684 2381 
L 678 2381 
L 678 2906 
z
M 678 1631 
L 4684 1631 
L 4684 1100 
L 678 1100 
L 678 1631 
z
" transform="scale(0.015625)"/>
      <path id="DejaVuSans-6d" d="M 3328 2828 
Q 3544 3216 3844 3400 
Q 4144 3584 4550 3584 
Q 5097 3584 5394 3201 
Q 5691 2819 5691 2113 
L 5691 0 
L 5113 0 
L 5113 2094 
Q 5113 2597 4934 2840 
Q 4756 3084 4391 3084 
Q 3944 3084 3684 2787 
Q 3425 2491 3425 1978 
L 3425 0 
L 2847 0 
L 2847 2094 
Q 2847 2600 2669 2842 
Q 2491 3084 2119 3084 
Q 1678 3084 1418 2786 
Q 1159 2488 1159 1978 
L 1159 0 
L 581 0 
L 581 3500 
L 1159 3500 
L 1159 2956 
Q 1356 3278 1631 3431 
Q 1906 3584 2284 3584 
Q 2666 3584 2933 3390 
Q 3200 3197 3328 2828 
z
" transform="scale(0.015625)"/>
      <path id="DejaVuSans-41" d="M 2188 4044 
L 1331 1722 
L 3047 1722 
L 2188 4044 
z
M 1831 4666 
L 2547 4666 
L 4325 0 
L 3669 0 
L 3244 1197 
L 1141 1197 
L 716 0 
L 50 0 
L 1831 4666 
z
" transform="scale(0.015625)"/>
      <path id="DejaVuSans-b7" d="M 684 2619 
L 1344 2619 
L 1344 1825 
L 684 1825 
L 684 2619 
z
" transform="scale(0.015625)"/>
      <path id="DejaVuSans-78" d="M 3513 3500 
L 2247 1797 
L 3578 0 
L 2900 0 
L 1881 1375 
L 863 0 
L 184 0 
L 1544 1831 
L 300 3500 
L 978 3500 
L 1906 2253 
L 2834 3500 
L 3513 3500 
z
" transform="scale(0.015625)"/>
     </defs>
     <use xlink:href="#DejaVuSans-3d"/>
     <use xlink:href="#DejaVuSans-20" transform="translate(83.789062 0)"/>
     <use xlink:href="#DejaVuSans-73" transform="translate(115.576172 0)"/>
     <use xlink:href="#DejaVuSans-61" transform="translate(167.675781 0)"/>
     <use xlink:href="#DejaVuSans-6d" transform="translate(228.955078 0)"/>
     <use xlink:href="#DejaVuSans-65" transform="translate(326.367188 0)"/>
     <use xlink:href="#DejaVuSans-20" transform="translate(387.890625 0)"/>
     <use xlink:href="#DejaVuSans-61" transform="translate(419.677734 0)"/>
     <use xlink:href="#DejaVuSans-73" transform="translate(480.957031 0)"/>
     <use xlink:href="#DejaVuSans-20" transform="translate(533.056641 0)"/>
     <use xlink:href="#DejaVuSans-41" transform="translate(564.84375 0)"/>
     <use xlink:href="#DejaVuSans-b7" transform="translate(633.251953 0)"/>
     <use xlink:href="#DejaVuSans-78" transform="translate(665.039062 0)"/>
    </g>
   </g>
  </g>
  <g id="text_50">
   <!-- Spectral decomposition: A = Q Λ Q^T as rotate-scale-rotate-back -->
   <g transform="translate(339.709687 16.318125) scale(0.12 -0.12)">
    <defs>
     <path id="DejaVuSans-70" d="M 1159 525 
L 1159 -1331 
L 581 -1331 
L 581 3500 
L 1159 3500 
L 1159 2969 
Q 1341 3281 1617 3432 
Q 1894 3584 2278 3584 
Q 2916 3584 3314 3078 
Q 3713 2572 3713 1747 
Q 3713 922 3314 415 
Q 2916 -91 2278 -91 
Q 1894 -91 1617 61 
Q 1341 213 1159 525 
z
M 3116 1747 
Q 3116 2381 2855 2742 
Q 2594 3103 2138 3103 
Q 1681 3103 1420 2742 
Q 1159 2381 1159 1747 
Q 1159 1113 1420 752 
Q 1681 391 2138 391 
Q 2594 391 2855 752 
Q 3116 1113 3116 1747 
z
" transform="scale(0.015625)"/>
     <path id="DejaVuSans-64" d="M 2906 2969 
L 2906 4863 
L 3481 4863 
L 3481 0 
L 2906 0 
L 2906 525 
Q 2725 213 2448 61 
Q 2172 -91 1784 -91 
Q 1150 -91 751 415 
Q 353 922 353 1747 
Q 353 2572 751 3078 
Q 1150 3584 1784 3584 
Q 2172 3584 2448 3432 
Q 2725 3281 2906 2969 
z
M 947 1747 
Q 947 1113 1208 752 
Q 1469 391 1925 391 
Q 2381 391 2643 752 
Q 2906 1113 2906 1747 
Q 2906 2381 2643 2742 
Q 2381 3103 1925 3103 
Q 1469 3103 1208 2742 
Q 947 2381 947 1747 
z
" transform="scale(0.015625)"/>
     <path id="DejaVuSans-3a" d="M 750 794 
L 1409 794 
L 1409 0 
L 750 0 
L 750 794 
z
M 750 3309 
L 1409 3309 
L 1409 2516 
L 750 2516 
L 750 3309 
z
" transform="scale(0.015625)"/>
     <path id="DejaVuSans-2d" d="M 313 2009 
L 1997 2009 
L 1997 1497 
L 313 1497 
L 313 2009 
z
" transform="scale(0.015625)"/>
    </defs>
    <use xlink:href="#DejaVuSans-53"/>
    <use xlink:href="#DejaVuSans-70" transform="translate(63.476562 0)"/>
    <use xlink:href="#DejaVuSans-65" transform="translate(126.953125 0)"/>
    <use xlink:href="#DejaVuSans-63" transform="translate(188.476562 0)"/>
    <use xlink:href="#DejaVuSans-74" transform="translate(243.457031 0)"/>
    <use xlink:href="#DejaVuSans-72" transform="translate(282.666016 0)"/>
    <use xlink:href="#DejaVuSans-61" transform="translate(323.779297 0)"/>
    <use xlink:href="#DejaVuSans-6c" transform="translate(385.058594 0)"/>
    <use xlink:href="#DejaVuSans-20" transform="translate(412.841797 0)"/>
    <use xlink:href="#DejaVuSans-64" transform="translate(444.628906 0)"/>
    <use xlink:href="#DejaVuSans-65" transform="translate(508.105469 0)"/>
    <use xlink:href="#DejaVuSans-63" transform="translate(569.628906 0)"/>
    <use xlink:href="#DejaVuSans-6f" transform="translate(624.609375 0)"/>
    <use xlink:href="#DejaVuSans-6d" transform="translate(685.791016 0)"/>
    <use xlink:href="#DejaVuSans-70" transform="translate(783.203125 0)"/>
    <use xlink:href="#DejaVuSans-6f" transform="translate(846.679688 0)"/>
    <use xlink:href="#DejaVuSans-73" transform="translate(907.861328 0)"/>
    <use xlink:href="#DejaVuSans-69" transform="translate(959.960938 0)"/>
    <use xlink:href="#DejaVuSans-74" transform="translate(987.744141 0)"/>
    <use xlink:href="#DejaVuSans-69" transform="translate(1026.953125 0)"/>
    <use xlink:href="#DejaVuSans-6f" transform="translate(1054.736328 0)"/>
    <use xlink:href="#DejaVuSans-6e" transform="translate(1115.917969 0)"/>
    <use xlink:href="#DejaVuSans-3a" transform="translate(1179.296875 0)"/>
    <use xlink:href="#DejaVuSans-20" transform="translate(1212.988281 0)"/>
    <use xlink:href="#DejaVuSans-41" transform="translate(1244.775391 0)"/>
    <use xlink:href="#DejaVuSans-20" transform="translate(1313.183594 0)"/>
    <use xlink:href="#DejaVuSans-3d" transform="translate(1344.970703 0)"/>
    <use xlink:href="#DejaVuSans-20" transform="translate(1428.759766 0)"/>
    <use xlink:href="#DejaVuSans-51" transform="translate(1460.546875 0)"/>
    <use xlink:href="#DejaVuSans-20" transform="translate(1539.257812 0)"/>
    <use xlink:href="#DejaVuSans-39b" transform="translate(1571.044922 0)"/>
    <use xlink:href="#DejaVuSans-20" transform="translate(1639.453125 0)"/>
    <use xlink:href="#DejaVuSans-51" transform="translate(1671.240234 0)"/>
    <use xlink:href="#DejaVuSans-5e" transform="translate(1749.951172 0)"/>
    <use xlink:href="#DejaVuSans-54" transform="translate(1833.740234 0)"/>
    <use xlink:href="#DejaVuSans-20" transform="translate(1894.824219 0)"/>
    <use xlink:href="#DejaVuSans-61" transform="translate(1926.611328 0)"/>
    <use xlink:href="#DejaVuSans-73" transform="translate(1987.890625 0)"/>
    <use xlink:href="#DejaVuSans-20" transform="translate(2039.990234 0)"/>
    <use xlink:href="#DejaVuSans-72" transform="translate(2071.777344 0)"/>
    <use xlink:href="#DejaVuSans-6f" transform="translate(2110.640625 0)"/>
    <use xlink:href="#DejaVuSans-74" transform="translate(2171.822266 0)"/>
    <use xlink:href="#DejaVuSans-61" transform="translate(2211.03125 0)"/>
    <use xlink:href="#DejaVuSans-74" transform="translate(2272.310547 0)"/>
    <use xlink:href="#DejaVuSans-65" transform="translate(2311.519531 0)"/>
    <use xlink:href="#DejaVuSans-2d" transform="translate(2373.042969 0)"/>
    <use xlink:href="#DejaVuSans-73" transform="translate(2409.126953 0)"/>
    <use xlink:href="#DejaVuSans-63" transform="translate(2461.226562 0)"/>
    <use xlink:href="#DejaVuSans-61" transform="translate(2516.207031 0)"/>
    <use xlink:href="#DejaVuSans-6c" transform="translate(2577.486328 0)"/>
    <use xlink:href="#DejaVuSans-65" transform="translate(2605.269531 0)"/>
    <use xlink:href="#DejaVuSans-2d" transform="translate(2666.792969 0)"/>
    <use xlink:href="#DejaVuSans-72" transform="translate(2702.876953 0)"/>
    <use xlink:href="#DejaVuSans-6f" transform="translate(2741.740234 0)"/>
    <use xlink:href="#DejaVuSans-74" transform="translate(2802.921875 0)"/>
    <use xlink:href="#DejaVuSans-61" transform="translate(2842.130859 0)"/>
    <use xlink:href="#DejaVuSans-74" transform="translate(2903.410156 0)"/>
    <use xlink:href="#DejaVuSans-65" transform="translate(2942.619141 0)"/>
    <use xlink:href="#DejaVuSans-2d" transform="translate(3004.142578 0)"/>
    <use xlink:href="#DejaVuSans-62" transform="translate(3040.226562 0)"/>
    <use xlink:href="#DejaVuSans-61" transform="translate(3103.703125 0)"/>
    <use xlink:href="#DejaVuSans-63" transform="translate(3164.982422 0)"/>
    <use xlink:href="#DejaVuSans-6b" transform="translate(3219.962891 0)"/>
   </g>
  </g>
 </g>
 <defs>
  <clipPath id="p440f002ef3">
   <rect x="28.942188" y="55.123625" width="242.40875" height="242.40875"/>
  </clipPath>
  <clipPath id="pc492fdb603">
   <rect x="292.635938" y="55.123625" width="242.40875" height="242.40875"/>
  </clipPath>
  <clipPath id="pa4928ac330">
   <rect x="556.329688" y="55.123625" width="242.40875" height="242.40875"/>
  </clipPath>
  <clipPath id="pa97199c3e1">
   <rect x="820.023438" y="55.123625" width="242.40875" height="242.40875"/>
  </clipPath>
 </defs>
</svg>
