<?xml version="1.0" encoding="utf-8" standalone="no"?>
<!DOCTYPE svg PUBLIC "-//W3C//DTD SVG 1.1//EN"
  "http://www.w3.org/Graphics/SVG/1.1/DTD/svg11.dtd">
<svg xmlns:xlink="http://www.w3.org/1999/xlink" width="784.904063pt" height="350.50375pt" viewBox="0 0 784.904063 350.50375" xmlns="http://www.w3.org/2000/svg" version="1.1">
 <metadata>
  <rdf:RDF xmlns:dc="http://purl.org/dc/elements/1.1/" xmlns:cc="http://creativecommons.org/ns#" xmlns:rdf="http://www.w3.org/1999/02/22-rdf-syntax-ns#">
   <cc:Work>
    <dc:type rdf:resource="http://purl.org/dc/dcmitype/StillImage"/>
    <dc:date>2026-05-26T08:44:17.252124</dc:date>
    <dc:format>image/svg+xml</dc:format>
    <dc:creator>
     <cc:Agent>
      <dc:title>Matplotlib v3.10.8, https://matplotlib.org/</dc:title>
     </cc:Agent>
    </dc:creator>
   </cc:Work>
  </rdf:RDF>
 </metadata>
 <defs>
  <style type="text/css">*{stroke-linejoin: round; stroke-linecap: butt}</style>
 </defs>
 <g id="figure_1">
  <g id="patch_1">
   <path d="M 0 350.50375 
L 784.904063 350.50375 
L 784.904063 0 
L 0 0 
z
" style="fill: #ffffff"/>
  </g>
  <g id="axes_1">
   <g id="patch_2">
    <path d="M 38.482813 313.583875 
L 386.262812 313.583875 
L 386.262812 35.359875 
L 38.482813 35.359875 
z
" style="fill: #ffffff"/>
   </g>
   <g id="Quiver_1">
    <path d="M 212.372812 173.602425 
L 320.474429 173.602425 
L 319.604979 171.863525 
L 328.299479 174.471875 
L 319.604979 177.080225 
L 320.474429 175.341325 
L 212.372812 175.341325 
L 212.372812 173.602425 
" clip-path="url(#p57c13054c3)" style="fill: #7aa6c2; fill-opacity: 0.5"/>
   </g>
   <g id="Quiver_2">
    <path d="M 212.221834 173.615634 
L 318.681144 154.843985 
L 317.522946 153.282481 
L 326.538293 154.341421 
L 318.428817 158.419928 
L 318.983101 156.556467 
L 212.523791 175.328116 
L 212.221834 173.615634 
" clip-path="url(#p57c13054c3)" style="fill: #7aa6c2; fill-opacity: 0.5"/>
   </g>
   <g id="Quiver_3">
    <path d="M 212.075443 173.654859 
L 313.657735 136.681929 
L 312.24598 135.345267 
L 321.308246 134.82262 
L 314.030196 140.247361 
L 314.252473 138.31596 
L 212.670182 175.288891 
L 212.075443 173.654859 
" clip-path="url(#p57c13054c3)" style="fill: #7aa6c2; fill-opacity: 0.5"/>
   </g>
   <g id="Quiver_4">
    <path d="M 211.938087 173.718909 
L 305.556834 119.668101 
L 303.934418 118.596894 
L 312.768251 116.508542 
L 306.542768 123.114689 
L 306.426284 121.174032 
L 212.807537 175.224841 
L 211.938087 173.718909 
" clip-path="url(#p57c13054c3)" style="fill: #7aa6c2; fill-opacity: 0.5"/>
   </g>
   <g id="Quiver_5">
    <path d="M 211.813941 173.805838 
L 294.624584 104.319458 
L 292.840803 103.546255 
L 301.177791 99.95565 
L 296.194033 107.542479 
L 295.742327 105.651533 
L 212.931684 175.137912 
L 211.813941 173.805838 
" clip-path="url(#p57c13054c3)" style="fill: #7aa6c2; fill-opacity: 0.5"/>
   </g>
   <g id="Quiver_6">
    <path d="M 211.706775 173.913003 
L 281.193155 91.102361 
L 279.302209 90.650655 
L 286.889037 85.666896 
L 283.298433 94.003885 
L 282.52523 92.220104 
L 213.03885 175.030747 
L 211.706775 173.913003 
" clip-path="url(#p57c13054c3)" style="fill: #7aa6c2; fill-opacity: 0.5"/>
   </g>
   <g id="Quiver_7">
    <path d="M 211.619847 174.03715 
L 265.670655 80.418404 
L 263.729998 80.30192 
L 270.336146 74.076437 
L 268.247793 82.91027 
L 267.176587 81.287854 
L 213.125778 174.9066 
L 211.619847 174.03715 
" clip-path="url(#p57c13054c3)" style="fill: #7aa6c2; fill-opacity: 0.5"/>
   </g>
   <g id="Quiver_8">
    <path d="M 211.555797 174.174506 
L 248.528727 72.592214 
L 246.597326 72.814491 
L 252.022068 65.536442 
L 251.499421 74.598708 
L 250.162759 73.186953 
L 213.189828 174.769244 
L 211.555797 174.174506 
" clip-path="url(#p57c13054c3)" style="fill: #7aa6c2; fill-opacity: 0.5"/>
   </g>
   <g id="Quiver_9">
    <path d="M 211.516571 174.320897 
L 230.28822 67.861586 
L 228.42476 68.415871 
L 232.503267 60.306395 
L 233.562206 69.321741 
L 232.000702 68.163543 
L 213.229054 174.622853 
L 211.516571 174.320897 
" clip-path="url(#p57c13054c3)" style="fill: #7aa6c2; fill-opacity: 0.5"/>
   </g>
   <g id="Quiver_10">
    <path d="M 211.503362 174.471875 
L 211.503362 66.370258 
L 209.764462 67.239708 
L 212.372812 58.545208 
L 214.981162 67.239708 
L 213.242262 66.370258 
L 213.242262 174.471875 
L 211.503362 174.471875 
" clip-path="url(#p57c13054c3)" style="fill: #7aa6c2; fill-opacity: 0.5"/>
   </g>
   <g id="Quiver_11">
    <path d="M 211.516571 174.622853 
L 192.744923 68.163543 
L 191.183419 69.321741 
L 192.242358 60.306395 
L 196.320865 68.415871 
L 194.457405 67.861586 
L 213.229054 174.320897 
L 211.516571 174.622853 
" clip-path="url(#p57c13054c3)" style="fill: #7aa6c2; fill-opacity: 0.5"/>
   </g>
   <g id="Quiver_12">
    <path d="M 211.555797 174.769244 
L 174.582866 73.186953 
L 173.246204 74.598708 
L 172.723557 65.536442 
L 178.148299 72.814491 
L 176.216898 72.592214 
L 213.189828 174.174506 
L 211.555797 174.769244 
" clip-path="url(#p57c13054c3)" style="fill: #7aa6c2; fill-opacity: 0.5"/>
   </g>
   <g id="Quiver_13">
    <path d="M 211.619847 174.9066 
L 157.569038 81.287854 
L 156.497832 82.91027 
L 154.409479 74.076437 
L 161.015627 80.30192 
L 159.07497 80.418404 
L 213.125778 174.03715 
L 211.619847 174.9066 
" clip-path="url(#p57c13054c3)" style="fill: #7aa6c2; fill-opacity: 0.5"/>
   </g>
   <g id="Quiver_14">
    <path d="M 211.706775 175.030747 
L 142.220395 92.220104 
L 141.447192 94.003885 
L 137.856588 85.666896 
L 145.443416 90.650655 
L 143.55247 91.102361 
L 213.03885 173.913003 
L 211.706775 175.030747 
" clip-path="url(#p57c13054c3)" style="fill: #7aa6c2; fill-opacity: 0.5"/>
   </g>
   <g id="Quiver_15">
    <path d="M 211.813941 175.137912 
L 129.003298 105.651533 
L 128.551592 107.542479 
L 123.567834 99.95565 
L 131.904822 103.546255 
L 130.121041 104.319458 
L 212.931684 173.805838 
L 211.813941 175.137912 
" clip-path="url(#p57c13054c3)" style="fill: #7aa6c2; fill-opacity: 0.5"/>
   </g>
   <g id="Quiver_16">
    <path d="M 211.938087 175.224841 
L 118.319341 121.174032 
L 118.202857 123.114689 
L 111.977374 116.508542 
L 120.811207 118.596894 
L 119.188791 119.668101 
L 212.807537 173.718909 
L 211.938087 175.224841 
" clip-path="url(#p57c13054c3)" style="fill: #7aa6c2; fill-opacity: 0.5"/>
   </g>
   <g id="Quiver_17">
    <path d="M 212.075443 175.288891 
L 110.493152 138.31596 
L 110.715429 140.247361 
L 103.437379 134.82262 
L 112.499645 135.345267 
L 111.08789 136.681929 
L 212.670182 173.654859 
L 212.075443 175.288891 
" clip-path="url(#p57c13054c3)" style="fill: #7aa6c2; fill-opacity: 0.5"/>
   </g>
   <g id="Quiver_18">
    <path d="M 212.221834 175.328116 
L 105.762524 156.556467 
L 106.316808 158.419928 
L 98.207332 154.341421 
L 107.222679 153.282481 
L 106.064481 154.843985 
L 212.523791 173.615634 
L 212.221834 175.328116 
" clip-path="url(#p57c13054c3)" style="fill: #7aa6c2; fill-opacity: 0.5"/>
   </g>
   <g id="Quiver_19">
    <path d="M 212.372812 172.385195 
L 309.519359 172.385195 
L 307.432679 168.211835 
L 328.299479 174.471875 
L 307.432679 180.731915 
L 309.519359 176.558555 
L 212.372812 176.558555 
L 212.372812 172.385195 
" clip-path="url(#p57c13054c3)" style="fill: #e15759"/>
   </g>
   <g id="Quiver_20">
    <path d="M 210.897307 172.996369 
L 279.590289 104.303388 
L 275.163772 102.827882 
L 294.345345 92.499343 
L 284.016806 111.680915 
L 282.5413 107.254399 
L 213.848318 175.947381 
L 210.897307 172.996369 
" clip-path="url(#p57c13054c3)" style="fill: #e15759"/>
   </g>
   <g id="matplotlib.axis_1">
    <g id="xtick_1">
     <g id="line2d_1">
      <path d="M 38.482812 313.583875 
L 38.482812 35.359875 
" clip-path="url(#p57c13054c3)" style="fill: none; stroke: #b0b0b0; stroke-opacity: 0.25; stroke-width: 0.8; stroke-linecap: square"/>
     </g>
     <g id="line2d_2">
      <defs>
       <path id="m9e2ad49d6a" d="M 0 0 
L 0 3.5 
" style="stroke: #000000; stroke-width: 0.8"/>
      </defs>
      <g>
       <use xlink:href="#m9e2ad49d6a" x="38.482812" y="313.583875" style="stroke: #000000; stroke-width: 0.8"/>
      </g>
     </g>
     <g id="text_1">
      <!-- −1.5 -->
      <g transform="translate(26.341406 328.182312) scale(0.1 -0.1)">
       <defs>
        <path id="DejaVuSans-2212" d="M 678 2272 
L 4684 2272 
L 4684 1741 
L 678 1741 
L 678 2272 
z
" transform="scale(0.015625)"/>
        <path id="DejaVuSans-31" d="M 794 531 
L 1825 531 
L 1825 4091 
L 703 3866 
L 703 4441 
L 1819 4666 
L 2450 4666 
L 2450 531 
L 3481 531 
L 3481 0 
L 794 0 
L 794 531 
z
" transform="scale(0.015625)"/>
        <path id="DejaVuSans-2e" d="M 684 794 
L 1344 794 
L 1344 0 
L 684 0 
L 684 794 
z
" transform="scale(0.015625)"/>
        <path id="DejaVuSans-35" d="M 691 4666 
L 3169 4666 
L 3169 4134 
L 1269 4134 
L 1269 2991 
Q 1406 3038 1543 3061 
Q 1681 3084 1819 3084 
Q 2600 3084 3056 2656 
Q 3513 2228 3513 1497 
Q 3513 744 3044 326 
Q 2575 -91 1722 -91 
Q 1428 -91 1123 -41 
Q 819 9 494 109 
L 494 744 
Q 775 591 1075 516 
Q 1375 441 1709 441 
Q 2250 441 2565 725 
Q 2881 1009 2881 1497 
Q 2881 1984 2565 2268 
Q 2250 2553 1709 2553 
Q 1456 2553 1204 2497 
Q 953 2441 691 2322 
L 691 4666 
z
" transform="scale(0.015625)"/>
       </defs>
       <use xlink:href="#DejaVuSans-2212"/>
       <use xlink:href="#DejaVuSans-31" transform="translate(83.789062 0)"/>
       <use xlink:href="#DejaVuSans-2e" transform="translate(147.412109 0)"/>
       <use xlink:href="#DejaVuSans-35" transform="translate(179.199219 0)"/>
      </g>
     </g>
    </g>
    <g id="xtick_2">
     <g id="line2d_3">
      <path d="M 96.446146 313.583875 
L 96.446146 35.359875 
" clip-path="url(#p57c13054c3)" style="fill: none; stroke: #b0b0b0; stroke-opacity: 0.25; stroke-width: 0.8; stroke-linecap: square"/>
     </g>
     <g id="line2d_4">
      <g>
       <use xlink:href="#m9e2ad49d6a" x="96.446146" y="313.583875" style="stroke: #000000; stroke-width: 0.8"/>
      </g>
     </g>
     <g id="text_2">
      <!-- −1.0 -->
      <g transform="translate(84.30474 328.182312) scale(0.1 -0.1)">
       <defs>
        <path id="DejaVuSans-30" d="M 2034 4250 
Q 1547 4250 1301 3770 
Q 1056 3291 1056 2328 
Q 1056 1369 1301 889 
Q 1547 409 2034 409 
Q 2525 409 2770 889 
Q 3016 1369 3016 2328 
Q 3016 3291 2770 3770 
Q 2525 4250 2034 4250 
z
M 2034 4750 
Q 2819 4750 3233 4129 
Q 3647 3509 3647 2328 
Q 3647 1150 3233 529 
Q 2819 -91 2034 -91 
Q 1250 -91 836 529 
Q 422 1150 422 2328 
Q 422 3509 836 4129 
Q 1250 4750 2034 4750 
z
" transform="scale(0.015625)"/>
       </defs>
       <use xlink:href="#DejaVuSans-2212"/>
       <use xlink:href="#DejaVuSans-31" transform="translate(83.789062 0)"/>
       <use xlink:href="#DejaVuSans-2e" transform="translate(147.412109 0)"/>
       <use xlink:href="#DejaVuSans-30" transform="translate(179.199219 0)"/>
      </g>
     </g>
    </g>
    <g id="xtick_3">
     <g id="line2d_5">
      <path d="M 154.409479 313.583875 
L 154.409479 35.359875 
" clip-path="url(#p57c13054c3)" style="fill: none; stroke: #b0b0b0; stroke-opacity: 0.25; stroke-width: 0.8; stroke-linecap: square"/>
     </g>
     <g id="line2d_6">
      <g>
       <use xlink:href="#m9e2ad49d6a" x="154.409479" y="313.583875" style="stroke: #000000; stroke-width: 0.8"/>
      </g>
     </g>
     <g id="text_3">
      <!-- −0.5 -->
      <g transform="translate(142.268073 328.182312) scale(0.1 -0.1)">
       <use xlink:href="#DejaVuSans-2212"/>
       <use xlink:href="#DejaVuSans-30" transform="translate(83.789062 0)"/>
       <use xlink:href="#DejaVuSans-2e" transform="translate(147.412109 0)"/>
       <use xlink:href="#DejaVuSans-35" transform="translate(179.199219 0)"/>
      </g>
     </g>
    </g>
    <g id="xtick_4">
     <g id="line2d_7">
      <path d="M 212.372812 313.583875 
L 212.372812 35.359875 
" clip-path="url(#p57c13054c3)" style="fill: none; stroke: #b0b0b0; stroke-opacity: 0.25; stroke-width: 0.8; stroke-linecap: square"/>
     </g>
     <g id="line2d_8">
      <g>
       <use xlink:href="#m9e2ad49d6a" x="212.372812" y="313.583875" style="stroke: #000000; stroke-width: 0.8"/>
      </g>
     </g>
     <g id="text_4">
      <!-- 0.0 -->
      <g transform="translate(204.42125 328.182312) scale(0.1 -0.1)">
       <use xlink:href="#DejaVuSans-30"/>
       <use xlink:href="#DejaVuSans-2e" transform="translate(63.623047 0)"/>
       <use xlink:href="#DejaVuSans-30" transform="translate(95.410156 0)"/>
      </g>
     </g>
    </g>
    <g id="xtick_5">
     <g id="line2d_9">
      <path d="M 270.336146 313.583875 
L 270.336146 35.359875 
" clip-path="url(#p57c13054c3)" style="fill: none; stroke: #b0b0b0; stroke-opacity: 0.25; stroke-width: 0.8; stroke-linecap: square"/>
     </g>
     <g id="line2d_10">
      <g>
       <use xlink:href="#m9e2ad49d6a" x="270.336146" y="313.583875" style="stroke: #000000; stroke-width: 0.8"/>
      </g>
     </g>
     <g id="text_5">
      <!-- 0.5 -->
      <g transform="translate(262.384583 328.182312) scale(0.1 -0.1)">
       <use xlink:href="#DejaVuSans-30"/>
       <use xlink:href="#DejaVuSans-2e" transform="translate(63.623047 0)"/>
       <use xlink:href="#DejaVuSans-35" transform="translate(95.410156 0)"/>
      </g>
     </g>
    </g>
    <g id="xtick_6">
     <g id="line2d_11">
      <path d="M 328.299479 313.583875 
L 328.299479 35.359875 
" clip-path="url(#p57c13054c3)" style="fill: none; stroke: #b0b0b0; stroke-opacity: 0.25; stroke-width: 0.8; stroke-linecap: square"/>
     </g>
     <g id="line2d_12">
      <g>
       <use xlink:href="#m9e2ad49d6a" x="328.299479" y="313.583875" style="stroke: #000000; stroke-width: 0.8"/>
      </g>
     </g>
     <g id="text_6">
      <!-- 1.0 -->
      <g transform="translate(320.347917 328.182312) scale(0.1 -0.1)">
       <use xlink:href="#DejaVuSans-31"/>
       <use xlink:href="#DejaVuSans-2e" transform="translate(63.623047 0)"/>
       <use xlink:href="#DejaVuSans-30" transform="translate(95.410156 0)"/>
      </g>
     </g>
    </g>
    <g id="xtick_7">
     <g id="line2d_13">
      <path d="M 386.262812 313.583875 
L 386.262812 35.359875 
" clip-path="url(#p57c13054c3)" style="fill: none; stroke: #b0b0b0; stroke-opacity: 0.25; stroke-width: 0.8; stroke-linecap: square"/>
     </g>
     <g id="line2d_14">
      <g>
       <use xlink:href="#m9e2ad49d6a" x="386.262812" y="313.583875" style="stroke: #000000; stroke-width: 0.8"/>
      </g>
     </g>
     <g id="text_7">
      <!-- 1.5 -->
      <g transform="translate(378.31125 328.182312) scale(0.1 -0.1)">
       <use xlink:href="#DejaVuSans-31"/>
       <use xlink:href="#DejaVuSans-2e" transform="translate(63.623047 0)"/>
       <use xlink:href="#DejaVuSans-35" transform="translate(95.410156 0)"/>
      </g>
     </g>
    </g>
   </g>
   <g id="matplotlib.axis_2">
    <g id="ytick_1">
     <g id="line2d_15">
      <path d="M 38.482813 290.398542 
L 386.262812 290.398542 
" clip-path="url(#p57c13054c3)" style="fill: none; stroke: #b0b0b0; stroke-opacity: 0.25; stroke-width: 0.8; stroke-linecap: square"/>
     </g>
     <g id="line2d_16">
      <defs>
       <path id="m5e8d50f57e" d="M 0 0 
L -3.5 0 
" style="stroke: #000000; stroke-width: 0.8"/>
      </defs>
      <g>
       <use xlink:href="#m5e8d50f57e" x="38.482813" y="290.398542" style="stroke: #000000; stroke-width: 0.8"/>
      </g>
     </g>
     <g id="text_8">
      <!-- −1.0 -->
      <g transform="translate(7.2 294.19776) scale(0.1 -0.1)">
       <use xlink:href="#DejaVuSans-2212"/>
       <use xlink:href="#DejaVuSans-31" transform="translate(83.789062 0)"/>
       <use xlink:href="#DejaVuSans-2e" transform="translate(147.412109 0)"/>
       <use xlink:href="#DejaVuSans-30" transform="translate(179.199219 0)"/>
      </g>
     </g>
    </g>
    <g id="ytick_2">
     <g id="line2d_17">
      <path d="M 38.482813 232.435208 
L 386.262812 232.435208 
" clip-path="url(#p57c13054c3)" style="fill: none; stroke: #b0b0b0; stroke-opacity: 0.25; stroke-width: 0.8; stroke-linecap: square"/>
     </g>
     <g id="line2d_18">
      <g>
       <use xlink:href="#m5e8d50f57e" x="38.482813" y="232.435208" style="stroke: #000000; stroke-width: 0.8"/>
      </g>
     </g>
     <g id="text_9">
      <!-- −0.5 -->
      <g transform="translate(7.2 236.234427) scale(0.1 -0.1)">
       <use xlink:href="#DejaVuSans-2212"/>
       <use xlink:href="#DejaVuSans-30" transform="translate(83.789062 0)"/>
       <use xlink:href="#DejaVuSans-2e" transform="translate(147.412109 0)"/>
       <use xlink:href="#DejaVuSans-35" transform="translate(179.199219 0)"/>
      </g>
     </g>
    </g>
    <g id="ytick_3">
     <g id="line2d_19">
      <path d="M 38.482813 174.471875 
L 386.262812 174.471875 
" clip-path="url(#p57c13054c3)" style="fill: none; stroke: #b0b0b0; stroke-opacity: 0.25; stroke-width: 0.8; stroke-linecap: square"/>
     </g>
     <g id="line2d_20">
      <g>
       <use xlink:href="#m5e8d50f57e" x="38.482813" y="174.471875" style="stroke: #000000; stroke-width: 0.8"/>
      </g>
     </g>
     <g id="text_10">
      <!-- 0.0 -->
      <g transform="translate(15.579688 178.271094) scale(0.1 -0.1)">
       <use xlink:href="#DejaVuSans-30"/>
       <use xlink:href="#DejaVuSans-2e" transform="translate(63.623047 0)"/>
       <use xlink:href="#DejaVuSans-30" transform="translate(95.410156 0)"/>
      </g>
     </g>
    </g>
    <g id="ytick_4">
     <g id="line2d_21">
      <path d="M 38.482813 116.508542 
L 386.262812 116.508542 
" clip-path="url(#p57c13054c3)" style="fill: none; stroke: #b0b0b0; stroke-opacity: 0.25; stroke-width: 0.8; stroke-linecap: square"/>
     </g>
     <g id="line2d_22">
      <g>
       <use xlink:href="#m5e8d50f57e" x="38.482813" y="116.508542" style="stroke: #000000; stroke-width: 0.8"/>
      </g>
     </g>
     <g id="text_11">
      <!-- 0.5 -->
      <g transform="translate(15.579688 120.30776) scale(0.1 -0.1)">
       <use xlink:href="#DejaVuSans-30"/>
       <use xlink:href="#DejaVuSans-2e" transform="translate(63.623047 0)"/>
       <use xlink:href="#DejaVuSans-35" transform="translate(95.410156 0)"/>
      </g>
     </g>
    </g>
    <g id="ytick_5">
     <g id="line2d_23">
      <path d="M 38.482813 58.545208 
L 386.262812 58.545208 
" clip-path="url(#p57c13054c3)" style="fill: none; stroke: #b0b0b0; stroke-opacity: 0.25; stroke-width: 0.8; stroke-linecap: square"/>
     </g>
     <g id="line2d_24">
      <g>
       <use xlink:href="#m5e8d50f57e" x="38.482813" y="58.545208" style="stroke: #000000; stroke-width: 0.8"/>
      </g>
     </g>
     <g id="text_12">
      <!-- 1.0 -->
      <g transform="translate(15.579688 62.344427) scale(0.1 -0.1)">
       <use xlink:href="#DejaVuSans-31"/>
       <use xlink:href="#DejaVuSans-2e" transform="translate(63.623047 0)"/>
       <use xlink:href="#DejaVuSans-30" transform="translate(95.410156 0)"/>
      </g>
     </g>
    </g>
   </g>
   <g id="patch_3">
    <path d="M 38.482813 313.583875 
L 38.482813 35.359875 
" style="fill: none; stroke: #000000; stroke-width: 0.8; stroke-linejoin: miter; stroke-linecap: square"/>
   </g>
   <g id="patch_4">
    <path d="M 386.262812 313.583875 
L 386.262812 35.359875 
" style="fill: none; stroke: #000000; stroke-width: 0.8; stroke-linejoin: miter; stroke-linecap: square"/>
   </g>
   <g id="patch_5">
    <path d="M 38.482812 313.583875 
L 386.262812 313.583875 
" style="fill: none; stroke: #000000; stroke-width: 0.8; stroke-linejoin: miter; stroke-linecap: square"/>
   </g>
   <g id="patch_6">
    <path d="M 38.482812 35.359875 
L 386.262812 35.359875 
" style="fill: none; stroke: #000000; stroke-width: 0.8; stroke-linejoin: miter; stroke-linecap: square"/>
   </g>
   <g id="text_13">
    <!-- Before A: unit vectors and eigenvector directions (red) -->
    <g transform="translate(48.692812 29.359875) scale(0.12 -0.12)">
     <defs>
      <path id="DejaVuSans-42" d="M 1259 2228 
L 1259 519 
L 2272 519 
Q 2781 519 3026 730 
Q 3272 941 3272 1375 
Q 3272 1813 3026 2020 
Q 2781 2228 2272 2228 
L 1259 2228 
z
M 1259 4147 
L 1259 2741 
L 2194 2741 
Q 2656 2741 2882 2914 
Q 3109 3088 3109 3444 
Q 3109 3797 2882 3972 
Q 2656 4147 2194 4147 
L 1259 4147 
z
M 628 4666 
L 2241 4666 
Q 2963 4666 3353 4366 
Q 3744 4066 3744 3513 
Q 3744 3084 3544 2831 
Q 3344 2578 2956 2516 
Q 3422 2416 3680 2098 
Q 3938 1781 3938 1306 
Q 3938 681 3513 340 
Q 3088 0 2303 0 
L 628 0 
L 628 4666 
z
" transform="scale(0.015625)"/>
      <path id="DejaVuSans-65" d="M 3597 1894 
L 3597 1613 
L 953 1613 
Q 991 1019 1311 708 
Q 1631 397 2203 397 
Q 2534 397 2845 478 
Q 3156 559 3463 722 
L 3463 178 
Q 3153 47 2828 -22 
Q 2503 -91 2169 -91 
Q 1331 -91 842 396 
Q 353 884 353 1716 
Q 353 2575 817 3079 
Q 1281 3584 2069 3584 
Q 2775 3584 3186 3129 
Q 3597 2675 3597 1894 
z
M 3022 2063 
Q 3016 2534 2758 2815 
Q 2500 3097 2075 3097 
Q 1594 3097 1305 2825 
Q 1016 2553 972 2059 
L 3022 2063 
z
" transform="scale(0.015625)"/>
      <path id="DejaVuSans-66" d="M 2375 4863 
L 2375 4384 
L 1825 4384 
Q 1516 4384 1395 4259 
Q 1275 4134 1275 3809 
L 1275 3500 
L 2222 3500 
L 2222 3053 
L 1275 3053 
L 1275 0 
L 697 0 
L 697 3053 
L 147 3053 
L 147 3500 
L 697 3500 
L 697 3744 
Q 697 4328 969 4595 
Q 1241 4863 1831 4863 
L 2375 4863 
z
" transform="scale(0.015625)"/>
      <path id="DejaVuSans-6f" d="M 1959 3097 
Q 1497 3097 1228 2736 
Q 959 2375 959 1747 
Q 959 1119 1226 758 
Q 1494 397 1959 397 
Q 2419 397 2687 759 
Q 2956 1122 2956 1747 
Q 2956 2369 2687 2733 
Q 2419 3097 1959 3097 
z
M 1959 3584 
Q 2709 3584 3137 3096 
Q 3566 2609 3566 1747 
Q 3566 888 3137 398 
Q 2709 -91 1959 -91 
Q 1206 -91 779 398 
Q 353 888 353 1747 
Q 353 2609 779 3096 
Q 1206 3584 1959 3584 
z
" transform="scale(0.015625)"/>
      <path id="DejaVuSans-72" d="M 2631 2963 
Q 2534 3019 2420 3045 
Q 2306 3072 2169 3072 
Q 1681 3072 1420 2755 
Q 1159 2438 1159 1844 
L 1159 0 
L 581 0 
L 581 3500 
L 1159 3500 
L 1159 2956 
Q 1341 3275 1631 3429 
Q 1922 3584 2338 3584 
Q 2397 3584 2469 3576 
Q 2541 3569 2628 3553 
L 2631 2963 
z
" transform="scale(0.015625)"/>
      <path id="DejaVuSans-20" transform="scale(0.015625)"/>
      <path id="DejaVuSans-41" d="M 2188 4044 
L 1331 1722 
L 3047 1722 
L 2188 4044 
z
M 1831 4666 
L 2547 4666 
L 4325 0 
L 3669 0 
L 3244 1197 
L 1141 1197 
L 716 0 
L 50 0 
L 1831 4666 
z
" transform="scale(0.015625)"/>
      <path id="DejaVuSans-3a" d="M 750 794 
L 1409 794 
L 1409 0 
L 750 0 
L 750 794 
z
M 750 3309 
L 1409 3309 
L 1409 2516 
L 750 2516 
L 750 3309 
z
" transform="scale(0.015625)"/>
      <path id="DejaVuSans-75" d="M 544 1381 
L 544 3500 
L 1119 3500 
L 1119 1403 
Q 1119 906 1312 657 
Q 1506 409 1894 409 
Q 2359 409 2629 706 
Q 2900 1003 2900 1516 
L 2900 3500 
L 3475 3500 
L 3475 0 
L 2900 0 
L 2900 538 
Q 2691 219 2414 64 
Q 2138 -91 1772 -91 
Q 1169 -91 856 284 
Q 544 659 544 1381 
z
M 1991 3584 
L 1991 3584 
z
" transform="scale(0.015625)"/>
      <path id="DejaVuSans-6e" d="M 3513 2113 
L 3513 0 
L 2938 0 
L 2938 2094 
Q 2938 2591 2744 2837 
Q 2550 3084 2163 3084 
Q 1697 3084 1428 2787 
Q 1159 2491 1159 1978 
L 1159 0 
L 581 0 
L 581 3500 
L 1159 3500 
L 1159 2956 
Q 1366 3272 1645 3428 
Q 1925 3584 2291 3584 
Q 2894 3584 3203 3211 
Q 3513 2838 3513 2113 
z
" transform="scale(0.015625)"/>
      <path id="DejaVuSans-69" d="M 603 3500 
L 1178 3500 
L 1178 0 
L 603 0 
L 603 3500 
z
M 603 4863 
L 1178 4863 
L 1178 4134 
L 603 4134 
L 603 4863 
z
" transform="scale(0.015625)"/>
      <path id="DejaVuSans-74" d="M 1172 4494 
L 1172 3500 
L 2356 3500 
L 2356 3053 
L 1172 3053 
L 1172 1153 
Q 1172 725 1289 603 
Q 1406 481 1766 481 
L 2356 481 
L 2356 0 
L 1766 0 
Q 1100 0 847 248 
Q 594 497 594 1153 
L 594 3053 
L 172 3053 
L 172 3500 
L 594 3500 
L 594 4494 
L 1172 4494 
z
" transform="scale(0.015625)"/>
      <path id="DejaVuSans-76" d="M 191 3500 
L 800 3500 
L 1894 563 
L 2988 3500 
L 3597 3500 
L 2284 0 
L 1503 0 
L 191 3500 
z
" transform="scale(0.015625)"/>
      <path id="DejaVuSans-63" d="M 3122 3366 
L 3122 2828 
Q 2878 2963 2633 3030 
Q 2388 3097 2138 3097 
Q 1578 3097 1268 2742 
Q 959 2388 959 1747 
Q 959 1106 1268 751 
Q 1578 397 2138 397 
Q 2388 397 2633 464 
Q 2878 531 3122 666 
L 3122 134 
Q 2881 22 2623 -34 
Q 2366 -91 2075 -91 
Q 1284 -91 818 406 
Q 353 903 353 1747 
Q 353 2603 823 3093 
Q 1294 3584 2113 3584 
Q 2378 3584 2631 3529 
Q 2884 3475 3122 3366 
z
" transform="scale(0.015625)"/>
      <path id="DejaVuSans-73" d="M 2834 3397 
L 2834 2853 
Q 2591 2978 2328 3040 
Q 2066 3103 1784 3103 
Q 1356 3103 1142 2972 
Q 928 2841 928 2578 
Q 928 2378 1081 2264 
Q 1234 2150 1697 2047 
L 1894 2003 
Q 2506 1872 2764 1633 
Q 3022 1394 3022 966 
Q 3022 478 2636 193 
Q 2250 -91 1575 -91 
Q 1294 -91 989 -36 
Q 684 19 347 128 
L 347 722 
Q 666 556 975 473 
Q 1284 391 1588 391 
Q 1994 391 2212 530 
Q 2431 669 2431 922 
Q 2431 1156 2273 1281 
Q 2116 1406 1581 1522 
L 1381 1569 
Q 847 1681 609 1914 
Q 372 2147 372 2553 
Q 372 3047 722 3315 
Q 1072 3584 1716 3584 
Q 2034 3584 2315 3537 
Q 2597 3491 2834 3397 
z
" transform="scale(0.015625)"/>
      <path id="DejaVuSans-61" d="M 2194 1759 
Q 1497 1759 1228 1600 
Q 959 1441 959 1056 
Q 959 750 1161 570 
Q 1363 391 1709 391 
Q 2188 391 2477 730 
Q 2766 1069 2766 1631 
L 2766 1759 
L 2194 1759 
z
M 3341 1997 
L 3341 0 
L 2766 0 
L 2766 531 
Q 2569 213 2275 61 
Q 1981 -91 1556 -91 
Q 1019 -91 701 211 
Q 384 513 384 1019 
Q 384 1609 779 1909 
Q 1175 2209 1959 2209 
L 2766 2209 
L 2766 2266 
Q 2766 2663 2505 2880 
Q 2244 3097 1772 3097 
Q 1472 3097 1187 3025 
Q 903 2953 641 2809 
L 641 3341 
Q 956 3463 1253 3523 
Q 1550 3584 1831 3584 
Q 2591 3584 2966 3190 
Q 3341 2797 3341 1997 
z
" transform="scale(0.015625)"/>
      <path id="DejaVuSans-64" d="M 2906 2969 
L 2906 4863 
L 3481 4863 
L 3481 0 
L 2906 0 
L 2906 525 
Q 2725 213 2448 61 
Q 2172 -91 1784 -91 
Q 1150 -91 751 415 
Q 353 922 353 1747 
Q 353 2572 751 3078 
Q 1150 3584 1784 3584 
Q 2172 3584 2448 3432 
Q 2725 3281 2906 2969 
z
M 947 1747 
Q 947 1113 1208 752 
Q 1469 391 1925 391 
Q 2381 391 2643 752 
Q 2906 1113 2906 1747 
Q 2906 2381 2643 2742 
Q 2381 3103 1925 3103 
Q 1469 3103 1208 2742 
Q 947 2381 947 1747 
z
" transform="scale(0.015625)"/>
      <path id="DejaVuSans-67" d="M 2906 1791 
Q 2906 2416 2648 2759 
Q 2391 3103 1925 3103 
Q 1463 3103 1205 2759 
Q 947 2416 947 1791 
Q 947 1169 1205 825 
Q 1463 481 1925 481 
Q 2391 481 2648 825 
Q 2906 1169 2906 1791 
z
M 3481 434 
Q 3481 -459 3084 -895 
Q 2688 -1331 1869 -1331 
Q 1566 -1331 1297 -1286 
Q 1028 -1241 775 -1147 
L 775 -588 
Q 1028 -725 1275 -790 
Q 1522 -856 1778 -856 
Q 2344 -856 2625 -561 
Q 2906 -266 2906 331 
L 2906 616 
Q 2728 306 2450 153 
Q 2172 0 1784 0 
Q 1141 0 747 490 
Q 353 981 353 1791 
Q 353 2603 747 3093 
Q 1141 3584 1784 3584 
Q 2172 3584 2450 3431 
Q 2728 3278 2906 2969 
L 2906 3500 
L 3481 3500 
L 3481 434 
z
" transform="scale(0.015625)"/>
      <path id="DejaVuSans-28" d="M 1984 4856 
Q 1566 4138 1362 3434 
Q 1159 2731 1159 2009 
Q 1159 1288 1364 580 
Q 1569 -128 1984 -844 
L 1484 -844 
Q 1016 -109 783 600 
Q 550 1309 550 2009 
Q 550 2706 781 3412 
Q 1013 4119 1484 4856 
L 1984 4856 
z
" transform="scale(0.015625)"/>
      <path id="DejaVuSans-29" d="M 513 4856 
L 1013 4856 
Q 1481 4119 1714 3412 
Q 1947 2706 1947 2009 
Q 1947 1309 1714 600 
Q 1481 -109 1013 -844 
L 513 -844 
Q 928 -128 1133 580 
Q 1338 1288 1338 2009 
Q 1338 2731 1133 3434 
Q 928 4138 513 4856 
z
" transform="scale(0.015625)"/>
     </defs>
     <use xlink:href="#DejaVuSans-42"/>
     <use xlink:href="#DejaVuSans-65" transform="translate(68.603516 0)"/>
     <use xlink:href="#DejaVuSans-66" transform="translate(130.126953 0)"/>
     <use xlink:href="#DejaVuSans-6f" transform="translate(165.332031 0)"/>
     <use xlink:href="#DejaVuSans-72" transform="translate(226.513672 0)"/>
     <use xlink:href="#DejaVuSans-65" transform="translate(265.376953 0)"/>
     <use xlink:href="#DejaVuSans-20" transform="translate(326.900391 0)"/>
     <use xlink:href="#DejaVuSans-41" transform="translate(358.6875 0)"/>
     <use xlink:href="#DejaVuSans-3a" transform="translate(425.345703 0)"/>
     <use xlink:href="#DejaVuSans-20" transform="translate(459.037109 0)"/>
     <use xlink:href="#DejaVuSans-75" transform="translate(490.824219 0)"/>
     <use xlink:href="#DejaVuSans-6e" transform="translate(554.203125 0)"/>
     <use xlink:href="#DejaVuSans-69" transform="translate(617.582031 0)"/>
     <use xlink:href="#DejaVuSans-74" transform="translate(645.365234 0)"/>
     <use xlink:href="#DejaVuSans-20" transform="translate(684.574219 0)"/>
     <use xlink:href="#DejaVuSans-76" transform="translate(716.361328 0)"/>
     <use xlink:href="#DejaVuSans-65" transform="translate(775.541016 0)"/>
     <use xlink:href="#DejaVuSans-63" transform="translate(837.064453 0)"/>
     <use xlink:href="#DejaVuSans-74" transform="translate(892.044922 0)"/>
     <use xlink:href="#DejaVuSans-6f" transform="translate(931.253906 0)"/>
     <use xlink:href="#DejaVuSans-72" transform="translate(992.435547 0)"/>
     <use xlink:href="#DejaVuSans-73" transform="translate(1033.548828 0)"/>
     <use xlink:href="#DejaVuSans-20" transform="translate(1085.648438 0)"/>
     <use xlink:href="#DejaVuSans-61" transform="translate(1117.435547 0)"/>
     <use xlink:href="#DejaVuSans-6e" transform="translate(1178.714844 0)"/>
     <use xlink:href="#DejaVuSans-64" transform="translate(1242.09375 0)"/>
     <use xlink:href="#DejaVuSans-20" transform="translate(1305.570312 0)"/>
     <use xlink:href="#DejaVuSans-65" transform="translate(1337.357422 0)"/>
     <use xlink:href="#DejaVuSans-69" transform="translate(1398.880859 0)"/>
     <use xlink:href="#DejaVuSans-67" transform="translate(1426.664062 0)"/>
     <use xlink:href="#DejaVuSans-65" transform="translate(1490.140625 0)"/>
     <use xlink:href="#DejaVuSans-6e" transform="translate(1551.664062 0)"/>
     <use xlink:href="#DejaVuSans-76" transform="translate(1615.042969 0)"/>
     <use xlink:href="#DejaVuSans-65" transform="translate(1674.222656 0)"/>
     <use xlink:href="#DejaVuSans-63" transform="translate(1735.746094 0)"/>
     <use xlink:href="#DejaVuSans-74" transform="translate(1790.726562 0)"/>
     <use xlink:href="#DejaVuSans-6f" transform="translate(1829.935547 0)"/>
     <use xlink:href="#DejaVuSans-72" transform="translate(1891.117188 0)"/>
     <use xlink:href="#DejaVuSans-20" transform="translate(1932.230469 0)"/>
     <use xlink:href="#DejaVuSans-64" transform="translate(1964.017578 0)"/>
     <use xlink:href="#DejaVuSans-69" transform="translate(2027.494141 0)"/>
     <use xlink:href="#DejaVuSans-72" transform="translate(2055.277344 0)"/>
     <use xlink:href="#DejaVuSans-65" transform="translate(2094.140625 0)"/>
     <use xlink:href="#DejaVuSans-63" transform="translate(2155.664062 0)"/>
     <use xlink:href="#DejaVuSans-74" transform="translate(2210.644531 0)"/>
     <use xlink:href="#DejaVuSans-69" transform="translate(2249.853516 0)"/>
     <use xlink:href="#DejaVuSans-6f" transform="translate(2277.636719 0)"/>
     <use xlink:href="#DejaVuSans-6e" transform="translate(2338.818359 0)"/>
     <use xlink:href="#DejaVuSans-73" transform="translate(2402.197266 0)"/>
     <use xlink:href="#DejaVuSans-20" transform="translate(2454.296875 0)"/>
     <use xlink:href="#DejaVuSans-28" transform="translate(2486.083984 0)"/>
     <use xlink:href="#DejaVuSans-72" transform="translate(2525.097656 0)"/>
     <use xlink:href="#DejaVuSans-65" transform="translate(2563.960938 0)"/>
     <use xlink:href="#DejaVuSans-64" transform="translate(2625.484375 0)"/>
     <use xlink:href="#DejaVuSans-29" transform="translate(2688.960938 0)"/>
    </g>
   </g>
   <g id="legend_1">
    <g id="patch_7">
     <path d="M 44.082813 309.583875 
L 122.666562 309.583875 
Q 124.266562 309.583875 124.266562 307.983875 
L 124.266562 285.298875 
Q 124.266562 283.698875 122.666562 283.698875 
L 44.082813 283.698875 
Q 42.482813 283.698875 42.482813 285.298875 
L 42.482813 307.983875 
Q 42.482813 309.583875 44.082813 309.583875 
z
" style="fill: #ffffff; opacity: 0.8; stroke: #cccccc; stroke-linejoin: miter"/>
    </g>
    <g id="patch_8">
     <path d="M 45.682813 292.977625 
L 61.682813 292.977625 
L 61.682813 287.377625 
L 45.682813 287.377625 
z
" style="fill: #e15759"/>
    </g>
    <g id="text_14">
     <!-- eigvec λ=2.0 -->
     <g transform="translate(68.082813 292.977625) scale(0.08 -0.08)">
      <defs>
       <path id="DejaVuSans-3bb" d="M 1981 4316 
L 3597 0 
L 2988 0 
L 2006 2588 
L 800 0 
L 191 0 
L 1725 3356 
L 1494 3975 
Q 1347 4369 1013 4369 
L 713 4369 
L 713 4863 
L 1078 4856 
Q 1784 4847 1981 4316 
z
" transform="scale(0.015625)"/>
       <path id="DejaVuSans-3d" d="M 678 2906 
L 4684 2906 
L 4684 2381 
L 678 2381 
L 678 2906 
z
M 678 1631 
L 4684 1631 
L 4684 1100 
L 678 1100 
L 678 1631 
z
" transform="scale(0.015625)"/>
       <path id="DejaVuSans-32" d="M 1228 531 
L 3431 531 
L 3431 0 
L 469 0 
L 469 531 
Q 828 903 1448 1529 
Q 2069 2156 2228 2338 
Q 2531 2678 2651 2914 
Q 2772 3150 2772 3378 
Q 2772 3750 2511 3984 
Q 2250 4219 1831 4219 
Q 1534 4219 1204 4116 
Q 875 4013 500 3803 
L 500 4441 
Q 881 4594 1212 4672 
Q 1544 4750 1819 4750 
Q 2544 4750 2975 4387 
Q 3406 4025 3406 3419 
Q 3406 3131 3298 2873 
Q 3191 2616 2906 2266 
Q 2828 2175 2409 1742 
Q 1991 1309 1228 531 
z
" transform="scale(0.015625)"/>
      </defs>
      <use xlink:href="#DejaVuSans-65"/>
      <use xlink:href="#DejaVuSans-69" transform="translate(61.523438 0)"/>
      <use xlink:href="#DejaVuSans-67" transform="translate(89.306641 0)"/>
      <use xlink:href="#DejaVuSans-76" transform="translate(152.783203 0)"/>
      <use xlink:href="#DejaVuSans-65" transform="translate(211.962891 0)"/>
      <use xlink:href="#DejaVuSans-63" transform="translate(273.486328 0)"/>
      <use xlink:href="#DejaVuSans-20" transform="translate(328.466797 0)"/>
      <use xlink:href="#DejaVuSans-3bb" transform="translate(360.253906 0)"/>
      <use xlink:href="#DejaVuSans-3d" transform="translate(419.433594 0)"/>
      <use xlink:href="#DejaVuSans-32" transform="translate(503.222656 0)"/>
      <use xlink:href="#DejaVuSans-2e" transform="translate(566.845703 0)"/>
      <use xlink:href="#DejaVuSans-30" transform="translate(598.632812 0)"/>
     </g>
    </g>
    <g id="patch_9">
     <path d="M 45.682813 304.720125 
L 61.682813 304.720125 
L 61.682813 299.120125 
L 45.682813 299.120125 
z
" style="fill: #e15759"/>
    </g>
    <g id="text_15">
     <!-- eigvec λ=3.0 -->
     <g transform="translate(68.082813 304.720125) scale(0.08 -0.08)">
      <defs>
       <path id="DejaVuSans-33" d="M 2597 2516 
Q 3050 2419 3304 2112 
Q 3559 1806 3559 1356 
Q 3559 666 3084 287 
Q 2609 -91 1734 -91 
Q 1441 -91 1130 -33 
Q 819 25 488 141 
L 488 750 
Q 750 597 1062 519 
Q 1375 441 1716 441 
Q 2309 441 2620 675 
Q 2931 909 2931 1356 
Q 2931 1769 2642 2001 
Q 2353 2234 1838 2234 
L 1294 2234 
L 1294 2753 
L 1863 2753 
Q 2328 2753 2575 2939 
Q 2822 3125 2822 3475 
Q 2822 3834 2567 4026 
Q 2313 4219 1838 4219 
Q 1578 4219 1281 4162 
Q 984 4106 628 3988 
L 628 4550 
Q 988 4650 1302 4700 
Q 1616 4750 1894 4750 
Q 2613 4750 3031 4423 
Q 3450 4097 3450 3541 
Q 3450 3153 3228 2886 
Q 3006 2619 2597 2516 
z
" transform="scale(0.015625)"/>
      </defs>
      <use xlink:href="#DejaVuSans-65"/>
      <use xlink:href="#DejaVuSans-69" transform="translate(61.523438 0)"/>
      <use xlink:href="#DejaVuSans-67" transform="translate(89.306641 0)"/>
      <use xlink:href="#DejaVuSans-76" transform="translate(152.783203 0)"/>
      <use xlink:href="#DejaVuSans-65" transform="translate(211.962891 0)"/>
      <use xlink:href="#DejaVuSans-63" transform="translate(273.486328 0)"/>
      <use xlink:href="#DejaVuSans-20" transform="translate(328.466797 0)"/>
      <use xlink:href="#DejaVuSans-3bb" transform="translate(360.253906 0)"/>
      <use xlink:href="#DejaVuSans-3d" transform="translate(419.433594 0)"/>
      <use xlink:href="#DejaVuSans-33" transform="translate(503.222656 0)"/>
      <use xlink:href="#DejaVuSans-2e" transform="translate(566.845703 0)"/>
      <use xlink:href="#DejaVuSans-30" transform="translate(598.632812 0)"/>
     </g>
    </g>
   </g>
  </g>
  <g id="axes_2">
   <g id="patch_10">
    <path d="M 426.742813 326.625625 
L 774.522813 326.625625 
L 774.522813 22.318125 
L 426.742813 22.318125 
z
" style="fill: #ffffff"/>
   </g>
   <g id="Quiver_21">
    <path d="M 600.632812 173.602425 
L 679.752763 173.602425 
L 678.883313 171.863525 
L 687.577813 174.471875 
L 678.883313 177.080225 
L 679.752763 175.341325 
L 600.632812 175.341325 
L 600.632812 173.602425 
" clip-path="url(#p9161cc5421)" style="fill: #7aa6c2; fill-opacity: 0.5"/>
   </g>
   <g id="Quiver_22">
    <path d="M 600.427462 173.627023 
L 685.996827 152.828419 
L 684.741274 151.344067 
L 693.805843 151.825114 
L 685.973379 156.413177 
L 686.407529 154.518122 
L 600.838163 175.316727 
L 600.427462 173.627023 
" clip-path="url(#p9161cc5421)" style="fill: #7aa6c2; fill-opacity: 0.5"/>
   </g>
   <g id="Quiver_23">
    <path d="M 600.268229 173.682557 
L 689.734416 132.358396 
L 688.215932 131.144344 
L 697.202858 129.866463 
L 690.403432 135.88025 
L 690.463583 133.937031 
L 600.997396 175.261193 
L 600.268229 173.682557 
" clip-path="url(#p9161cc5421)" style="fill: #7aa6c2; fill-opacity: 0.5"/>
   </g>
   <g id="Quiver_24">
    <path d="M 600.147853 173.750239 
L 690.685962 112.906122 
L 688.994408 111.947809 
L 697.665641 109.263125 
L 691.904163 116.277623 
L 691.65588 114.349393 
L 601.117772 175.193511 
L 600.147853 173.750239 
" clip-path="url(#p9161cc5421)" style="fill: #7aa6c2; fill-opacity: 0.5"/>
   </g>
   <g id="Quiver_25">
    <path d="M 600.055994 173.821319 
L 688.748304 95.181932 
L 686.944111 94.457637 
L 695.180131 90.641122 
L 690.405022 98.360976 
L 689.901941 96.483045 
L 601.209631 175.122431 
L 600.055994 173.821319 
" clip-path="url(#p9161cc5421)" style="fill: #7aa6c2; fill-opacity: 0.5"/>
   </g>
   <g id="Quiver_26">
    <path d="M 599.984217 173.892852 
L 683.962049 79.82461 
L 682.085835 79.315161 
L 689.821848 74.566274 
L 685.977408 82.789296 
L 685.25924 80.982656 
L 601.281408 175.050898 
L 599.984217 173.892852 
" clip-path="url(#p9161cc5421)" style="fill: #7aa6c2; fill-opacity: 0.5"/>
   </g>
   <g id="Quiver_27">
    <path d="M 599.926633 173.964673 
L 676.482606 67.375421 
L 674.563045 67.067197 
L 681.753602 61.527007 
L 678.800122 70.110408 
L 677.894965 68.389825 
L 601.338992 174.979077 
L 599.926633 173.964673 
" clip-path="url(#p9161cc5421)" style="fill: #7aa6c2; fill-opacity: 0.5"/>
   </g>
   <g id="Quiver_28">
    <path d="M 599.8794 174.037924 
L 666.561574 58.266273 
L 664.620798 58.151785 
L 671.220541 51.919513 
L 669.141273 60.755488 
L 668.068399 59.134175 
L 601.386225 174.905826 
L 599.8794 174.037924 
" clip-path="url(#p9161cc5421)" style="fill: #7aa6c2; fill-opacity: 0.5"/>
   </g>
   <g id="Quiver_29">
    <path d="M 599.840205 174.1145 
L 654.53373 52.811803 
L 652.59114 52.889662 
L 658.542708 46.03571 
L 657.346785 55.033909 
L 656.118945 53.526552 
L 601.42542 174.82925 
L 599.840205 174.1145 
" clip-path="url(#p9161cc5421)" style="fill: #7aa6c2; fill-opacity: 0.5"/>
   </g>
   <g id="Quiver_30">
    <path d="M 599.80798 174.196931 
L 640.805982 51.202925 
L 638.881372 51.477869 
L 644.105312 44.054375 
L 643.830368 53.127535 
L 642.455647 51.752813 
L 601.457645 174.746819 
L 599.80798 174.196931 
" clip-path="url(#p9161cc5421)" style="fill: #7aa6c2; fill-opacity: 0.5"/>
   </g>
   <g id="Quiver_31">
    <path d="M 599.782924 174.288484 
L 625.846621 53.501319 
L 623.963453 53.984427 
L 628.347027 46.03571 
L 629.062786 55.084771 
L 627.546399 53.868101 
L 601.482701 174.655266 
L 599.782924 174.288484 
" clip-path="url(#p9161cc5421)" style="fill: #7aa6c2; fill-opacity: 0.5"/>
   </g>
   <g id="Quiver_32">
    <path d="M 599.766916 174.39335 
L 610.174036 59.634058 
L 608.363717 60.342904 
L 611.746659 51.919513 
L 613.559097 60.814055 
L 611.905829 59.791108 
L 601.498709 174.5504 
L 599.766916 174.39335 
" clip-path="url(#p9161cc5421)" style="fill: #7aa6c2; fill-opacity: 0.5"/>
   </g>
   <g id="Quiver_33">
    <path d="M 599.764516 174.51665 
L 594.343283 69.386449 
L 592.651466 70.344296 
L 594.808602 61.527007 
L 597.861244 70.075644 
L 596.079876 69.296898 
L 601.501109 174.4271 
L 599.764516 174.51665 
" clip-path="url(#p9161cc5421)" style="fill: #7aa6c2; fill-opacity: 0.5"/>
   </g>
   <g id="Quiver_34">
    <path d="M 599.784763 174.663591 
L 578.924901 82.390437 
L 577.420517 83.621918 
L 578.047511 74.566274 
L 582.508816 82.471625 
L 580.621001 82.007006 
L 601.480862 174.280159 
L 599.784763 174.663591 
" clip-path="url(#p9161cc5421)" style="fill: #7aa6c2; fill-opacity: 0.5"/>
   </g>
   <g id="Quiver_35">
    <path d="M 599.843276 174.835985 
L 564.460114 98.111058 
L 563.245151 99.628813 
L 561.972663 90.641122 
L 567.982368 97.444155 
L 566.039186 97.382838 
L 601.422349 174.107765 
L 599.843276 174.835985 
" clip-path="url(#p9161cc5421)" style="fill: #7aa6c2; fill-opacity: 0.5"/>
   </g>
   <g id="Quiver_36">
    <path d="M 599.960945 175.023725 
L 551.367263 115.861778 
L 550.575378 117.637344 
L 547.072484 109.263125 
L 554.606581 114.326247 
L 552.710997 114.758079 
L 601.30468 173.920025 
L 599.960945 175.023725 
" clip-path="url(#p9161cc5421)" style="fill: #7aa6c2; fill-opacity: 0.5"/>
   </g>
   <g id="Quiver_37">
    <path d="M 600.150154 175.195051 
L 539.825636 134.933567 
L 539.583495 136.862578 
L 533.799708 129.866463 
L 542.479447 132.523521 
L 540.790953 133.487215 
L 601.115471 173.748699 
L 600.150154 175.195051 
" clip-path="url(#p9161cc5421)" style="fill: #7aa6c2; fill-opacity: 0.5"/>
   </g>
   <g id="Quiver_38">
    <path d="M 600.390601 175.306906 
L 529.830689 154.840053 
L 530.181296 156.752326 
L 522.557623 151.825114 
L 531.634568 151.742141 
L 530.315113 153.169991 
L 600.875024 173.636844 
L 600.390601 175.306906 
" clip-path="url(#p9161cc5421)" style="fill: #7aa6c2; fill-opacity: 0.5"/>
   </g>
   <g id="Quiver_39">
    <path d="M 600.632812 172.385195 
L 668.797693 172.385195 
L 666.711013 168.211835 
L 687.577813 174.471875 
L 666.711013 180.731915 
L 668.797693 176.558555 
L 600.632812 176.558555 
L 600.632812 172.385195 
" clip-path="url(#p9161cc5421)" style="fill: #e15759"/>
   </g>
   <g id="Quiver_40">
    <path d="M 599.157307 172.996369 
L 678.096855 94.056821 
L 673.670339 92.581315 
L 692.851911 82.252776 
L 682.523372 101.434349 
L 681.047867 97.007832 
L 602.108318 175.947381 
L 599.157307 172.996369 
" clip-path="url(#p9161cc5421)" style="fill: #e15759"/>
   </g>
   <g id="matplotlib.axis_3">
    <g id="xtick_8">
     <g id="line2d_25">
      <path d="M 426.742812 326.625625 
L 426.742812 22.318125 
" clip-path="url(#p9161cc5421)" style="fill: none; stroke: #b0b0b0; stroke-opacity: 0.25; stroke-width: 0.8; stroke-linecap: square"/>
     </g>
     <g id="line2d_26">
      <g>
       <use xlink:href="#m9e2ad49d6a" x="426.742812" y="326.625625" style="stroke: #000000; stroke-width: 0.8"/>
      </g>
     </g>
     <g id="text_16">
      <!-- −4 -->
      <g transform="translate(419.371719 341.224062) scale(0.1 -0.1)">
       <defs>
        <path id="DejaVuSans-34" d="M 2419 4116 
L 825 1625 
L 2419 1625 
L 2419 4116 
z
M 2253 4666 
L 3047 4666 
L 3047 1625 
L 3713 1625 
L 3713 1100 
L 3047 1100 
L 3047 0 
L 2419 0 
L 2419 1100 
L 313 1100 
L 313 1709 
L 2253 4666 
z
" transform="scale(0.015625)"/>
       </defs>
       <use xlink:href="#DejaVuSans-2212"/>
       <use xlink:href="#DejaVuSans-34" transform="translate(83.789062 0)"/>
      </g>
     </g>
    </g>
    <g id="xtick_9">
     <g id="line2d_27">
      <path d="M 470.215312 326.625625 
L 470.215312 22.318125 
" clip-path="url(#p9161cc5421)" style="fill: none; stroke: #b0b0b0; stroke-opacity: 0.25; stroke-width: 0.8; stroke-linecap: square"/>
     </g>
     <g id="line2d_28">
      <g>
       <use xlink:href="#m9e2ad49d6a" x="470.215312" y="326.625625" style="stroke: #000000; stroke-width: 0.8"/>
      </g>
     </g>
     <g id="text_17">
      <!-- −3 -->
      <g transform="translate(462.844219 341.224062) scale(0.1 -0.1)">
       <use xlink:href="#DejaVuSans-2212"/>
       <use xlink:href="#DejaVuSans-33" transform="translate(83.789062 0)"/>
      </g>
     </g>
    </g>
    <g id="xtick_10">
     <g id="line2d_29">
      <path d="M 513.687812 326.625625 
L 513.687812 22.318125 
" clip-path="url(#p9161cc5421)" style="fill: none; stroke: #b0b0b0; stroke-opacity: 0.25; stroke-width: 0.8; stroke-linecap: square"/>
     </g>
     <g id="line2d_30">
      <g>
       <use xlink:href="#m9e2ad49d6a" x="513.687812" y="326.625625" style="stroke: #000000; stroke-width: 0.8"/>
      </g>
     </g>
     <g id="text_18">
      <!-- −2 -->
      <g transform="translate(506.316719 341.224062) scale(0.1 -0.1)">
       <use xlink:href="#DejaVuSans-2212"/>
       <use xlink:href="#DejaVuSans-32" transform="translate(83.789062 0)"/>
      </g>
     </g>
    </g>
    <g id="xtick_11">
     <g id="line2d_31">
      <path d="M 557.160313 326.625625 
L 557.160313 22.318125 
" clip-path="url(#p9161cc5421)" style="fill: none; stroke: #b0b0b0; stroke-opacity: 0.25; stroke-width: 0.8; stroke-linecap: square"/>
     </g>
     <g id="line2d_32">
      <g>
       <use xlink:href="#m9e2ad49d6a" x="557.160313" y="326.625625" style="stroke: #000000; stroke-width: 0.8"/>
      </g>
     </g>
     <g id="text_19">
      <!-- −1 -->
      <g transform="translate(549.789219 341.224062) scale(0.1 -0.1)">
       <use xlink:href="#DejaVuSans-2212"/>
       <use xlink:href="#DejaVuSans-31" transform="translate(83.789062 0)"/>
      </g>
     </g>
    </g>
    <g id="xtick_12">
     <g id="line2d_33">
      <path d="M 600.632812 326.625625 
L 600.632812 22.318125 
" clip-path="url(#p9161cc5421)" style="fill: none; stroke: #b0b0b0; stroke-opacity: 0.25; stroke-width: 0.8; stroke-linecap: square"/>
     </g>
     <g id="line2d_34">
      <g>
       <use xlink:href="#m9e2ad49d6a" x="600.632812" y="326.625625" style="stroke: #000000; stroke-width: 0.8"/>
      </g>
     </g>
     <g id="text_20">
      <!-- 0 -->
      <g transform="translate(597.451563 341.224062) scale(0.1 -0.1)">
       <use xlink:href="#DejaVuSans-30"/>
      </g>
     </g>
    </g>
    <g id="xtick_13">
     <g id="line2d_35">
      <path d="M 644.105312 326.625625 
L 644.105312 22.318125 
" clip-path="url(#p9161cc5421)" style="fill: none; stroke: #b0b0b0; stroke-opacity: 0.25; stroke-width: 0.8; stroke-linecap: square"/>
     </g>
     <g id="line2d_36">
      <g>
       <use xlink:href="#m9e2ad49d6a" x="644.105312" y="326.625625" style="stroke: #000000; stroke-width: 0.8"/>
      </g>
     </g>
     <g id="text_21">
      <!-- 1 -->
      <g transform="translate(640.924062 341.224062) scale(0.1 -0.1)">
       <use xlink:href="#DejaVuSans-31"/>
      </g>
     </g>
    </g>
    <g id="xtick_14">
     <g id="line2d_37">
      <path d="M 687.577813 326.625625 
L 687.577813 22.318125 
" clip-path="url(#p9161cc5421)" style="fill: none; stroke: #b0b0b0; stroke-opacity: 0.25; stroke-width: 0.8; stroke-linecap: square"/>
     </g>
     <g id="line2d_38">
      <g>
       <use xlink:href="#m9e2ad49d6a" x="687.577813" y="326.625625" style="stroke: #000000; stroke-width: 0.8"/>
      </g>
     </g>
     <g id="text_22">
      <!-- 2 -->
      <g transform="translate(684.396563 341.224062) scale(0.1 -0.1)">
       <use xlink:href="#DejaVuSans-32"/>
      </g>
     </g>
    </g>
    <g id="xtick_15">
     <g id="line2d_39">
      <path d="M 731.050313 326.625625 
L 731.050313 22.318125 
" clip-path="url(#p9161cc5421)" style="fill: none; stroke: #b0b0b0; stroke-opacity: 0.25; stroke-width: 0.8; stroke-linecap: square"/>
     </g>
     <g id="line2d_40">
      <g>
       <use xlink:href="#m9e2ad49d6a" x="731.050313" y="326.625625" style="stroke: #000000; stroke-width: 0.8"/>
      </g>
     </g>
     <g id="text_23">
      <!-- 3 -->
      <g transform="translate(727.869063 341.224062) scale(0.1 -0.1)">
       <use xlink:href="#DejaVuSans-33"/>
      </g>
     </g>
    </g>
    <g id="xtick_16">
     <g id="line2d_41">
      <path d="M 774.522813 326.625625 
L 774.522813 22.318125 
" clip-path="url(#p9161cc5421)" style="fill: none; stroke: #b0b0b0; stroke-opacity: 0.25; stroke-width: 0.8; stroke-linecap: square"/>
     </g>
     <g id="line2d_42">
      <g>
       <use xlink:href="#m9e2ad49d6a" x="774.522813" y="326.625625" style="stroke: #000000; stroke-width: 0.8"/>
      </g>
     </g>
     <g id="text_24">
      <!-- 4 -->
      <g transform="translate(771.341563 341.224062) scale(0.1 -0.1)">
       <use xlink:href="#DejaVuSans-34"/>
      </g>
     </g>
    </g>
   </g>
   <g id="matplotlib.axis_4">
    <g id="ytick_6">
     <g id="line2d_43">
      <path d="M 426.742813 304.889375 
L 774.522813 304.889375 
" clip-path="url(#p9161cc5421)" style="fill: none; stroke: #b0b0b0; stroke-opacity: 0.25; stroke-width: 0.8; stroke-linecap: square"/>
     </g>
     <g id="line2d_44">
      <g>
       <use xlink:href="#m5e8d50f57e" x="426.742813" y="304.889375" style="stroke: #000000; stroke-width: 0.8"/>
      </g>
     </g>
     <g id="text_25">
      <!-- −3 -->
      <g transform="translate(405.000625 308.688594) scale(0.1 -0.1)">
       <use xlink:href="#DejaVuSans-2212"/>
       <use xlink:href="#DejaVuSans-33" transform="translate(83.789062 0)"/>
      </g>
     </g>
    </g>
    <g id="ytick_7">
     <g id="line2d_45">
      <path d="M 426.742813 261.416875 
L 774.522813 261.416875 
" clip-path="url(#p9161cc5421)" style="fill: none; stroke: #b0b0b0; stroke-opacity: 0.25; stroke-width: 0.8; stroke-linecap: square"/>
     </g>
     <g id="line2d_46">
      <g>
       <use xlink:href="#m5e8d50f57e" x="426.742813" y="261.416875" style="stroke: #000000; stroke-width: 0.8"/>
      </g>
     </g>
     <g id="text_26">
      <!-- −2 -->
      <g transform="translate(405.000625 265.216094) scale(0.1 -0.1)">
       <use xlink:href="#DejaVuSans-2212"/>
       <use xlink:href="#DejaVuSans-32" transform="translate(83.789062 0)"/>
      </g>
     </g>
    </g>
    <g id="ytick_8">
     <g id="line2d_47">
      <path d="M 426.742813 217.944375 
L 774.522813 217.944375 
" clip-path="url(#p9161cc5421)" style="fill: none; stroke: #b0b0b0; stroke-opacity: 0.25; stroke-width: 0.8; stroke-linecap: square"/>
     </g>
     <g id="line2d_48">
      <g>
       <use xlink:href="#m5e8d50f57e" x="426.742813" y="217.944375" style="stroke: #000000; stroke-width: 0.8"/>
      </g>
     </g>
     <g id="text_27">
      <!-- −1 -->
      <g transform="translate(405.000625 221.743594) scale(0.1 -0.1)">
       <use xlink:href="#DejaVuSans-2212"/>
       <use xlink:href="#DejaVuSans-31" transform="translate(83.789062 0)"/>
      </g>
     </g>
    </g>
    <g id="ytick_9">
     <g id="line2d_49">
      <path d="M 426.742813 174.471875 
L 774.522813 174.471875 
" clip-path="url(#p9161cc5421)" style="fill: none; stroke: #b0b0b0; stroke-opacity: 0.25; stroke-width: 0.8; stroke-linecap: square"/>
     </g>
     <g id="line2d_50">
      <g>
       <use xlink:href="#m5e8d50f57e" x="426.742813" y="174.471875" style="stroke: #000000; stroke-width: 0.8"/>
      </g>
     </g>
     <g id="text_28">
      <!-- 0 -->
      <g transform="translate(413.380313 178.271094) scale(0.1 -0.1)">
       <use xlink:href="#DejaVuSans-30"/>
      </g>
     </g>
    </g>
    <g id="ytick_10">
     <g id="line2d_51">
      <path d="M 426.742813 130.999375 
L 774.522813 130.999375 
" clip-path="url(#p9161cc5421)" style="fill: none; stroke: #b0b0b0; stroke-opacity: 0.25; stroke-width: 0.8; stroke-linecap: square"/>
     </g>
     <g id="line2d_52">
      <g>
       <use xlink:href="#m5e8d50f57e" x="426.742813" y="130.999375" style="stroke: #000000; stroke-width: 0.8"/>
      </g>
     </g>
     <g id="text_29">
      <!-- 1 -->
      <g transform="translate(413.380313 134.798594) scale(0.1 -0.1)">
       <use xlink:href="#DejaVuSans-31"/>
      </g>
     </g>
    </g>
    <g id="ytick_11">
     <g id="line2d_53">
      <path d="M 426.742813 87.526875 
L 774.522813 87.526875 
" clip-path="url(#p9161cc5421)" style="fill: none; stroke: #b0b0b0; stroke-opacity: 0.25; stroke-width: 0.8; stroke-linecap: square"/>
     </g>
     <g id="line2d_54">
      <g>
       <use xlink:href="#m5e8d50f57e" x="426.742813" y="87.526875" style="stroke: #000000; stroke-width: 0.8"/>
      </g>
     </g>
     <g id="text_30">
      <!-- 2 -->
      <g transform="translate(413.380313 91.326094) scale(0.1 -0.1)">
       <use xlink:href="#DejaVuSans-32"/>
      </g>
     </g>
    </g>
    <g id="ytick_12">
     <g id="line2d_55">
      <path d="M 426.742813 44.054375 
L 774.522813 44.054375 
" clip-path="url(#p9161cc5421)" style="fill: none; stroke: #b0b0b0; stroke-opacity: 0.25; stroke-width: 0.8; stroke-linecap: square"/>
     </g>
     <g id="line2d_56">
      <g>
       <use xlink:href="#m5e8d50f57e" x="426.742813" y="44.054375" style="stroke: #000000; stroke-width: 0.8"/>
      </g>
     </g>
     <g id="text_31">
      <!-- 3 -->
      <g transform="translate(413.380313 47.853594) scale(0.1 -0.1)">
       <use xlink:href="#DejaVuSans-33"/>
      </g>
     </g>
    </g>
   </g>
   <g id="patch_11">
    <path d="M 426.742813 326.625625 
L 426.742813 22.318125 
" style="fill: none; stroke: #000000; stroke-width: 0.8; stroke-linejoin: miter; stroke-linecap: square"/>
   </g>
   <g id="patch_12">
    <path d="M 774.522813 326.625625 
L 774.522813 22.318125 
" style="fill: none; stroke: #000000; stroke-width: 0.8; stroke-linejoin: miter; stroke-linecap: square"/>
   </g>
   <g id="patch_13">
    <path d="M 426.742812 326.625625 
L 774.522813 326.625625 
" style="fill: none; stroke: #000000; stroke-width: 0.8; stroke-linejoin: miter; stroke-linecap: square"/>
   </g>
   <g id="patch_14">
    <path d="M 426.742812 22.318125 
L 774.522813 22.318125 
" style="fill: none; stroke: #000000; stroke-width: 0.8; stroke-linejoin: miter; stroke-linecap: square"/>
   </g>
   <g id="text_32">
    <!-- After A: most rotate, eigenvectors only scale -->
    <g transform="translate(466.817813 16.318125) scale(0.12 -0.12)">
     <defs>
      <path id="DejaVuSans-6d" d="M 3328 2828 
Q 3544 3216 3844 3400 
Q 4144 3584 4550 3584 
Q 5097 3584 5394 3201 
Q 5691 2819 5691 2113 
L 5691 0 
L 5113 0 
L 5113 2094 
Q 5113 2597 4934 2840 
Q 4756 3084 4391 3084 
Q 3944 3084 3684 2787 
Q 3425 2491 3425 1978 
L 3425 0 
L 2847 0 
L 2847 2094 
Q 2847 2600 2669 2842 
Q 2491 3084 2119 3084 
Q 1678 3084 1418 2786 
Q 1159 2488 1159 1978 
L 1159 0 
L 581 0 
L 581 3500 
L 1159 3500 
L 1159 2956 
Q 1356 3278 1631 3431 
Q 1906 3584 2284 3584 
Q 2666 3584 2933 3390 
Q 3200 3197 3328 2828 
z
" transform="scale(0.015625)"/>
      <path id="DejaVuSans-2c" d="M 750 794 
L 1409 794 
L 1409 256 
L 897 -744 
L 494 -744 
L 750 256 
L 750 794 
z
" transform="scale(0.015625)"/>
      <path id="DejaVuSans-6c" d="M 603 4863 
L 1178 4863 
L 1178 0 
L 603 0 
L 603 4863 
z
" transform="scale(0.015625)"/>
      <path id="DejaVuSans-79" d="M 2059 -325 
Q 1816 -950 1584 -1140 
Q 1353 -1331 966 -1331 
L 506 -1331 
L 506 -850 
L 844 -850 
Q 1081 -850 1212 -737 
Q 1344 -625 1503 -206 
L 1606 56 
L 191 3500 
L 800 3500 
L 1894 763 
L 2988 3500 
L 3597 3500 
L 2059 -325 
z
" transform="scale(0.015625)"/>
     </defs>
     <use xlink:href="#DejaVuSans-41"/>
     <use xlink:href="#DejaVuSans-66" transform="translate(64.783203 0)"/>
     <use xlink:href="#DejaVuSans-74" transform="translate(98.238281 0)"/>
     <use xlink:href="#DejaVuSans-65" transform="translate(137.447266 0)"/>
     <use xlink:href="#DejaVuSans-72" transform="translate(198.970703 0)"/>
     <use xlink:href="#DejaVuSans-20" transform="translate(240.083984 0)"/>
     <use xlink:href="#DejaVuSans-41" transform="translate(271.871094 0)"/>
     <use xlink:href="#DejaVuSans-3a" transform="translate(338.529297 0)"/>
     <use xlink:href="#DejaVuSans-20" transform="translate(372.220703 0)"/>
     <use xlink:href="#DejaVuSans-6d" transform="translate(404.007812 0)"/>
     <use xlink:href="#DejaVuSans-6f" transform="translate(501.419922 0)"/>
     <use xlink:href="#DejaVuSans-73" transform="translate(562.601562 0)"/>
     <use xlink:href="#DejaVuSans-74" transform="translate(614.701172 0)"/>
     <use xlink:href="#DejaVuSans-20" transform="translate(653.910156 0)"/>
     <use xlink:href="#DejaVuSans-72" transform="translate(685.697266 0)"/>
     <use xlink:href="#DejaVuSans-6f" transform="translate(724.560547 0)"/>
     <use xlink:href="#DejaVuSans-74" transform="translate(785.742188 0)"/>
     <use xlink:href="#DejaVuSans-61" transform="translate(824.951172 0)"/>
     <use xlink:href="#DejaVuSans-74" transform="translate(886.230469 0)"/>
     <use xlink:href="#DejaVuSans-65" transform="translate(925.439453 0)"/>
     <use xlink:href="#DejaVuSans-2c" transform="translate(986.962891 0)"/>
     <use xlink:href="#DejaVuSans-20" transform="translate(1018.75 0)"/>
     <use xlink:href="#DejaVuSans-65" transform="translate(1050.537109 0)"/>
     <use xlink:href="#DejaVuSans-69" transform="translate(1112.060547 0)"/>
     <use xlink:href="#DejaVuSans-67" transform="translate(1139.84375 0)"/>
     <use xlink:href="#DejaVuSans-65" transform="translate(1203.320312 0)"/>
     <use xlink:href="#DejaVuSans-6e" transform="translate(1264.84375 0)"/>
     <use xlink:href="#DejaVuSans-76" transform="translate(1328.222656 0)"/>
     <use xlink:href="#DejaVuSans-65" transform="translate(1387.402344 0)"/>
     <use xlink:href="#DejaVuSans-63" transform="translate(1448.925781 0)"/>
     <use xlink:href="#DejaVuSans-74" transform="translate(1503.90625 0)"/>
     <use xlink:href="#DejaVuSans-6f" transform="translate(1543.115234 0)"/>
     <use xlink:href="#DejaVuSans-72" transform="translate(1604.296875 0)"/>
     <use xlink:href="#DejaVuSans-73" transform="translate(1645.410156 0)"/>
     <use xlink:href="#DejaVuSans-20" transform="translate(1697.509766 0)"/>
     <use xlink:href="#DejaVuSans-6f" transform="translate(1729.296875 0)"/>
     <use xlink:href="#DejaVuSans-6e" transform="translate(1790.478516 0)"/>
     <use xlink:href="#DejaVuSans-6c" transform="translate(1853.857422 0)"/>
     <use xlink:href="#DejaVuSans-79" transform="translate(1881.640625 0)"/>
     <use xlink:href="#DejaVuSans-20" transform="translate(1940.820312 0)"/>
     <use xlink:href="#DejaVuSans-73" transform="translate(1972.607422 0)"/>
     <use xlink:href="#DejaVuSans-63" transform="translate(2024.707031 0)"/>
     <use xlink:href="#DejaVuSans-61" transform="translate(2079.6875 0)"/>
     <use xlink:href="#DejaVuSans-6c" transform="translate(2140.966797 0)"/>
     <use xlink:href="#DejaVuSans-65" transform="translate(2168.75 0)"/>
    </g>
   </g>
   <g id="legend_2">
    <g id="patch_15">
     <path d="M 432.342813 322.625625 
L 563.826563 322.625625 
Q 565.426563 322.625625 565.426563 321.025625 
L 565.426563 298.340625 
Q 565.426563 296.740625 563.826563 296.740625 
L 432.342813 296.740625 
Q 430.742813 296.740625 430.742813 298.340625 
L 430.742813 321.025625 
Q 430.742813 322.625625 432.342813 322.625625 
z
" style="fill: #ffffff; opacity: 0.8; stroke: #cccccc; stroke-linejoin: miter"/>
    </g>
    <g id="patch_16">
     <path d="M 433.942813 306.019375 
L 449.942813 306.019375 
L 449.942813 300.419375 
L 433.942813 300.419375 
z
" style="fill: #e15759"/>
    </g>
    <g id="text_33">
     <!-- A·eigvec = λ·eigvec (2.0x) -->
     <g transform="translate(456.342812 306.019375) scale(0.08 -0.08)">
      <defs>
       <path id="DejaVuSans-b7" d="M 684 2619 
L 1344 2619 
L 1344 1825 
L 684 1825 
L 684 2619 
z
" transform="scale(0.015625)"/>
       <path id="DejaVuSans-78" d="M 3513 3500 
L 2247 1797 
L 3578 0 
L 2900 0 
L 1881 1375 
L 863 0 
L 184 0 
L 1544 1831 
L 300 3500 
L 978 3500 
L 1906 2253 
L 2834 3500 
L 3513 3500 
z
" transform="scale(0.015625)"/>
      </defs>
      <use xlink:href="#DejaVuSans-41"/>
      <use xlink:href="#DejaVuSans-b7" transform="translate(68.408203 0)"/>
      <use xlink:href="#DejaVuSans-65" transform="translate(100.195312 0)"/>
      <use xlink:href="#DejaVuSans-69" transform="translate(161.71875 0)"/>
      <use xlink:href="#DejaVuSans-67" transform="translate(189.501953 0)"/>
      <use xlink:href="#DejaVuSans-76" transform="translate(252.978516 0)"/>
      <use xlink:href="#DejaVuSans-65" transform="translate(312.158203 0)"/>
      <use xlink:href="#DejaVuSans-63" transform="translate(373.681641 0)"/>
      <use xlink:href="#DejaVuSans-20" transform="translate(428.662109 0)"/>
      <use xlink:href="#DejaVuSans-3d" transform="translate(460.449219 0)"/>
      <use xlink:href="#DejaVuSans-20" transform="translate(544.238281 0)"/>
      <use xlink:href="#DejaVuSans-3bb" transform="translate(576.025391 0)"/>
      <use xlink:href="#DejaVuSans-b7" transform="translate(635.205078 0)"/>
      <use xlink:href="#DejaVuSans-65" transform="translate(666.992188 0)"/>
      <use xlink:href="#DejaVuSans-69" transform="translate(728.515625 0)"/>
      <use xlink:href="#DejaVuSans-67" transform="translate(756.298828 0)"/>
      <use xlink:href="#DejaVuSans-76" transform="translate(819.775391 0)"/>
      <use xlink:href="#DejaVuSans-65" transform="translate(878.955078 0)"/>
      <use xlink:href="#DejaVuSans-63" transform="translate(940.478516 0)"/>
      <use xlink:href="#DejaVuSans-20" transform="translate(995.458984 0)"/>
      <use xlink:href="#DejaVuSans-28" transform="translate(1027.246094 0)"/>
      <use xlink:href="#DejaVuSans-32" transform="translate(1066.259766 0)"/>
      <use xlink:href="#DejaVuSans-2e" transform="translate(1129.882812 0)"/>
      <use xlink:href="#DejaVuSans-30" transform="translate(1161.669922 0)"/>
      <use xlink:href="#DejaVuSans-78" transform="translate(1225.292969 0)"/>
      <use xlink:href="#DejaVuSans-29" transform="translate(1284.472656 0)"/>
     </g>
    </g>
    <g id="patch_17">
     <path d="M 433.942813 317.761875 
L 449.942813 317.761875 
L 449.942813 312.161875 
L 433.942813 312.161875 
z
" style="fill: #e15759"/>
    </g>
    <g id="text_34">
     <!-- A·eigvec = λ·eigvec (3.0x) -->
     <g transform="translate(456.342812 317.761875) scale(0.08 -0.08)">
      <use xlink:href="#DejaVuSans-41"/>
      <use xlink:href="#DejaVuSans-b7" transform="translate(68.408203 0)"/>
      <use xlink:href="#DejaVuSans-65" transform="translate(100.195312 0)"/>
      <use xlink:href="#DejaVuSans-69" transform="translate(161.71875 0)"/>
      <use xlink:href="#DejaVuSans-67" transform="translate(189.501953 0)"/>
      <use xlink:href="#DejaVuSans-76" transform="translate(252.978516 0)"/>
      <use xlink:href="#DejaVuSans-65" transform="translate(312.158203 0)"/>
      <use xlink:href="#DejaVuSans-63" transform="translate(373.681641 0)"/>
      <use xlink:href="#DejaVuSans-20" transform="translate(428.662109 0)"/>
      <use xlink:href="#DejaVuSans-3d" transform="translate(460.449219 0)"/>
      <use xlink:href="#DejaVuSans-20" transform="translate(544.238281 0)"/>
      <use xlink:href="#DejaVuSans-3bb" transform="translate(576.025391 0)"/>
      <use xlink:href="#DejaVuSans-b7" transform="translate(635.205078 0)"/>
      <use xlink:href="#DejaVuSans-65" transform="translate(666.992188 0)"/>
      <use xlink:href="#DejaVuSans-69" transform="translate(728.515625 0)"/>
      <use xlink:href="#DejaVuSans-67" transform="translate(756.298828 0)"/>
      <use xlink:href="#DejaVuSans-76" transform="translate(819.775391 0)"/>
      <use xlink:href="#DejaVuSans-65" transform="translate(878.955078 0)"/>
      <use xlink:href="#DejaVuSans-63" transform="translate(940.478516 0)"/>
      <use xlink:href="#DejaVuSans-20" transform="translate(995.458984 0)"/>
      <use xlink:href="#DejaVuSans-28" transform="translate(1027.246094 0)"/>
      <use xlink:href="#DejaVuSans-33" transform="translate(1066.259766 0)"/>
      <use xlink:href="#DejaVuSans-2e" transform="translate(1129.882812 0)"/>
      <use xlink:href="#DejaVuSans-30" transform="translate(1161.669922 0)"/>
      <use xlink:href="#DejaVuSans-78" transform="translate(1225.292969 0)"/>
      <use xlink:href="#DejaVuSans-29" transform="translate(1284.472656 0)"/>
     </g>
    </g>
   </g>
  </g>
 </g>
 <defs>
  <clipPath id="p57c13054c3">
   <rect x="38.482813" y="35.359875" width="347.78" height="278.224"/>
  </clipPath>
  <clipPath id="p9161cc5421">
   <rect x="426.742813" y="22.318125" width="347.78" height="304.3075"/>
  </clipPath>
 </defs>
</svg>
