<?xml version="1.0" encoding="utf-8" standalone="no"?>
<!DOCTYPE svg PUBLIC "-//W3C//DTD SVG 1.1//EN"
  "http://www.w3.org/Graphics/SVG/1.1/DTD/svg11.dtd">
<svg xmlns:xlink="http://www.w3.org/1999/xlink" width="337.12825pt" height="349.49575pt" viewBox="0 0 337.12825 349.49575" xmlns="http://www.w3.org/2000/svg" version="1.1">
 <metadata>
  <rdf:RDF xmlns:dc="http://purl.org/dc/elements/1.1/" xmlns:cc="http://creativecommons.org/ns#" xmlns:rdf="http://www.w3.org/1999/02/22-rdf-syntax-ns#">
   <cc:Work>
    <dc:type rdf:resource="http://purl.org/dc/dcmitype/StillImage"/>
    <dc:date>2026-05-26T08:33:29.987124</dc:date>
    <dc:format>image/svg+xml</dc:format>
    <dc:creator>
     <cc:Agent>
      <dc:title>Matplotlib v3.10.8, https://matplotlib.org/</dc:title>
     </cc:Agent>
    </dc:creator>
   </cc:Work>
  </rdf:RDF>
 </metadata>
 <defs>
  <style type="text/css">*{stroke-linejoin: round; stroke-linecap: butt}</style>
 </defs>
 <g id="figure_1">
  <g id="patch_1">
   <path d="M 0 349.49575 
L 337.12825 349.49575 
L 337.12825 0 
L 0 0 
z
" style="fill: #ffffff"/>
  </g>
  <g id="axes_1">
   <g id="patch_2">
    <path d="M 52.160938 311.9395 
L 328.344938 311.9395 
L 328.344938 35.7555 
L 52.160938 35.7555 
z
" style="fill: #ffffff"/>
   </g>
   <g id="Quiver_1">
    <path d="M 65.332322 299.694465 
L 63.17084 304.017428 
L 64.714756 304.017428 
L 59.774226 309.266741 
L 61.009358 302.16473 
L 61.935708 303.399862 
L 64.097189 299.076899 
L 65.332322 299.694465 
" clip-path="url(#p41838f1155)" style="fill: #e15759"/>
    <path d="M 90.463468 299.642112 
L 88.668455 304.129644 
L 90.207038 304.001429 
L 85.719506 309.642898 
L 86.360582 302.462847 
L 87.386303 303.616784 
L 89.181316 299.129251 
L 90.463468 299.642112 
" clip-path="url(#p41838f1155)" style="fill: #e15759"/>
    <path d="M 115.591369 299.584084 
L 114.202554 304.213469 
L 115.723637 303.948933 
L 111.755593 309.967134 
L 111.755593 302.75852 
L 112.879872 303.816665 
L 114.268688 299.18728 
L 115.591369 299.584084 
" clip-path="url(#p41838f1155)" style="fill: #e15759"/>
    <path d="M 140.714717 299.521092 
L 139.766844 304.260454 
L 141.256358 303.854223 
L 137.871099 310.21851 
L 137.194047 303.041761 
L 138.412741 303.989634 
L 139.360613 299.250271 
L 140.714717 299.521092 
" clip-path="url(#p41838f1155)" style="fill: #e15759"/>
    <path d="M 165.832335 299.454385 
L 165.351411 304.263619 
L 166.794181 303.713992 
L 164.046048 310.378216 
L 162.671981 303.301772 
L 163.977344 304.126212 
L 164.458268 299.316978 
L 165.832335 299.454385 
" clip-path="url(#p41838f1155)" style="fill: #e15759"/>
    <path d="M 190.943398 299.385682 
L 190.943398 304.218902 
L 192.324318 303.528442 
L 190.252938 310.433042 
L 188.181558 303.528442 
L 189.562478 304.218902 
L 189.562478 299.385682 
L 190.943398 299.385682 
" clip-path="url(#p41838f1155)" style="fill: #e15759"/>
    <path d="M 216.047607 299.316978 
L 216.528531 304.126212 
L 217.833894 303.301772 
L 216.459827 310.378216 
L 213.711694 303.713992 
L 215.154464 304.263619 
L 214.67354 299.454385 
L 216.047607 299.316978 
" clip-path="url(#p41838f1155)" style="fill: #e15759"/>
    <path d="M 241.145262 299.250271 
L 242.093134 303.989634 
L 243.311828 303.041761 
L 242.634776 310.21851 
L 239.249517 303.854223 
L 240.739031 304.260454 
L 239.791158 299.521092 
L 241.145262 299.250271 
" clip-path="url(#p41838f1155)" style="fill: #e15759"/>
    <path d="M 266.237187 299.18728 
L 267.626003 303.816665 
L 268.750282 302.75852 
L 268.750282 309.967134 
L 264.782238 303.948933 
L 266.303321 304.213469 
L 264.914506 299.584084 
L 266.237187 299.18728 
" clip-path="url(#p41838f1155)" style="fill: #e15759"/>
    <path d="M 291.324559 299.129251 
L 293.119572 303.616784 
L 294.145293 302.462847 
L 294.786369 309.642898 
L 290.298837 304.001429 
L 291.83742 304.129644 
L 290.042407 299.642112 
L 291.324559 299.129251 
" clip-path="url(#p41838f1155)" style="fill: #e15759"/>
    <path d="M 316.408686 299.076899 
L 318.570167 303.399862 
L 319.496517 302.16473 
L 320.731649 309.266741 
L 315.791119 304.017428 
L 317.335035 304.017428 
L 315.173553 299.694465 
L 316.408686 299.076899 
" clip-path="url(#p41838f1155)" style="fill: #e15759"/>
    <path d="M 65.300265 274.643989 
L 62.738663 278.742551 
L 64.275624 278.888928 
L 58.859667 283.646188 
L 60.762571 276.69327 
L 61.567645 278.010665 
L 64.129247 273.912102 
L 65.300265 274.643989 
" clip-path="url(#p41838f1155)" style="fill: #e15759"/>
    <path d="M 90.439958 274.586829 
L 88.278477 278.909792 
L 89.822392 278.909792 
L 84.881862 284.159105 
L 86.116995 277.057093 
L 87.043344 278.292226 
L 89.204826 273.969262 
L 90.439958 274.586829 
" clip-path="url(#p41838f1155)" style="fill: #e15759"/>
    <path d="M 115.576526 274.520482 
L 113.879469 279.045967 
L 115.414902 278.884343 
L 111.051041 284.622011 
L 111.535915 277.429722 
L 112.586474 278.561094 
L 114.283531 274.035609 
L 115.576526 274.520482 
" clip-path="url(#p41838f1155)" style="fill: #e15759"/>
    <path d="M 140.707509 274.445507 
L 139.535281 279.134419 
L 141.042432 278.799496 
L 137.358286 284.995559 
L 137.023364 277.79473 
L 138.195592 278.799496 
L 139.36782 274.110584 
L 140.707509 274.445507 
" clip-path="url(#p41838f1155)" style="fill: #e15759"/>
    <path d="M 165.830429 274.363686 
L 165.230942 279.159584 
L 166.68684 278.645738 
L 163.775045 285.240096 
L 162.57607 278.131891 
L 163.860686 278.988302 
L 164.460173 274.192404 
L 165.830429 274.363686 
" clip-path="url(#p41838f1155)" style="fill: #e15759"/>
    <path d="M 190.943398 274.278045 
L 190.943398 279.111265 
L 192.324318 278.420805 
L 190.252938 285.325405 
L 188.181558 278.420805 
L 189.562478 279.111265 
L 189.562478 274.278045 
L 190.943398 274.278045 
" clip-path="url(#p41838f1155)" style="fill: #e15759"/>
    <path d="M 216.045702 274.192404 
L 216.645189 278.988302 
L 217.929805 278.131891 
L 216.73083 285.240096 
L 213.819035 278.645738 
L 215.274933 279.159584 
L 214.675446 274.363686 
L 216.045702 274.192404 
" clip-path="url(#p41838f1155)" style="fill: #e15759"/>
    <path d="M 241.138055 274.110584 
L 242.310283 278.799496 
L 243.482511 277.79473 
L 243.147589 284.995559 
L 239.463443 278.799496 
L 240.970594 279.134419 
L 239.798366 274.445507 
L 241.138055 274.110584 
" clip-path="url(#p41838f1155)" style="fill: #e15759"/>
    <path d="M 266.222344 274.035609 
L 267.919401 278.561094 
L 268.96996 277.429722 
L 269.454834 284.622011 
L 265.090973 278.884343 
L 266.626406 279.045967 
L 264.929349 274.520482 
L 266.222344 274.035609 
" clip-path="url(#p41838f1155)" style="fill: #e15759"/>
    <path d="M 291.301049 273.969262 
L 293.462531 278.292226 
L 294.38888 277.057093 
L 295.624013 284.159105 
L 290.683483 278.909792 
L 292.227398 278.909792 
L 290.065917 274.586829 
L 291.301049 273.969262 
" clip-path="url(#p41838f1155)" style="fill: #e15759"/>
    <path d="M 316.376628 273.912102 
L 318.93823 278.010665 
L 319.743304 276.69327 
L 321.646208 283.646188 
L 316.230251 278.888928 
L 317.767212 278.742551 
L 315.20561 274.643989 
L 316.376628 273.912102 
" clip-path="url(#p41838f1155)" style="fill: #e15759"/>
    <path d="M 65.245182 249.612431 
L 62.15103 253.325413 
L 63.653904 253.679031 
L 57.642408 257.657226 
L 60.471347 251.0269 
L 61.090178 252.44137 
L 64.18433 248.728387 
L 65.245182 249.612431 
" clip-path="url(#p41838f1155)" style="fill: #e15759"/>
    <path d="M 90.396889 249.553407 
L 87.715901 253.57489 
L 89.247895 253.766389 
L 83.694419 258.362368 
L 85.80091 251.468399 
L 86.566907 252.808893 
L 89.247895 248.787411 
L 90.396889 249.553407 
" clip-path="url(#p41838f1155)" style="fill: #e15759"/>
    <path d="M 115.547595 249.479192 
L 113.386113 253.802156 
L 114.930028 253.802156 
L 109.989499 259.051468 
L 111.224631 251.949457 
L 112.150981 253.184589 
L 114.312462 248.861626 
L 115.547595 249.479192 
" clip-path="url(#p41838f1155)" style="fill: #e15759"/>
    <path d="M 140.692693 249.388752 
L 139.164294 253.973947 
L 140.692693 253.755604 
L 136.544183 259.650855 
L 136.762525 252.445548 
L 137.854239 253.537262 
L 139.382637 248.952066 
L 140.692693 249.388752 
" clip-path="url(#p41838f1155)" style="fill: #e15759"/>
    <path d="M 165.826367 249.28392 
L 165.03179 254.051379 
L 166.507432 253.597335 
L 163.329126 260.067458 
L 162.421039 252.91627 
L 163.669659 253.824357 
L 164.464236 249.056898 
L 165.826367 249.28392 
" clip-path="url(#p41838f1155)" style="fill: #e15759"/>
    <path d="M 190.943398 249.170409 
L 190.943398 254.003629 
L 192.324318 253.313169 
L 190.252938 260.217769 
L 188.181558 253.313169 
L 189.562478 254.003629 
L 189.562478 249.170409 
L 190.943398 249.170409 
" clip-path="url(#p41838f1155)" style="fill: #e15759"/>
    <path d="M 216.041639 249.056898 
L 216.836216 253.824357 
L 218.084836 252.91627 
L 217.176749 260.067458 
L 213.998443 253.597335 
L 215.474085 254.051379 
L 214.679508 249.28392 
L 216.041639 249.056898 
" clip-path="url(#p41838f1155)" style="fill: #e15759"/>
    <path d="M 241.123238 248.952066 
L 242.651636 253.537262 
L 243.74335 252.445548 
L 243.961692 259.650855 
L 239.813182 253.755604 
L 241.341581 253.973947 
L 239.813182 249.388752 
L 241.123238 248.952066 
" clip-path="url(#p41838f1155)" style="fill: #e15759"/>
    <path d="M 266.193413 248.861626 
L 268.354894 253.184589 
L 269.281244 251.949457 
L 270.516376 259.051468 
L 265.575847 253.802156 
L 267.119762 253.802156 
L 264.95828 249.479192 
L 266.193413 248.861626 
" clip-path="url(#p41838f1155)" style="fill: #e15759"/>
    <path d="M 291.25798 248.787411 
L 293.938968 252.808893 
L 294.704965 251.468399 
L 296.811456 258.362368 
L 291.25798 253.766389 
L 292.789974 253.57489 
L 290.108986 249.553407 
L 291.25798 248.787411 
" clip-path="url(#p41838f1155)" style="fill: #e15759"/>
    <path d="M 316.321545 248.728387 
L 319.415697 252.44137 
L 320.034528 251.0269 
L 322.863467 257.657226 
L 316.851971 253.679031 
L 318.354845 253.325413 
L 315.260693 249.612431 
L 316.321545 248.728387 
" clip-path="url(#p41838f1155)" style="fill: #e15759"/>
    <path d="M 65.146083 224.601931 
L 61.371972 227.62122 
L 62.773784 228.26821 
L 56.088217 230.964004 
L 60.185823 225.033258 
L 60.509318 226.542903 
L 64.283429 223.523614 
L 65.146083 224.601931 
" clip-path="url(#p41838f1155)" style="fill: #e15759"/>
    <path d="M 90.310621 224.551002 
L 86.893018 227.968604 
L 88.357705 228.456833 
L 82.010729 231.874436 
L 85.428332 225.52746 
L 85.91656 226.992146 
L 89.334163 223.574544 
L 90.310621 224.551002 
" clip-path="url(#p41838f1155)" style="fill: #e15759"/>
    <path d="M 115.482396 224.477049 
L 112.582464 228.343625 
L 114.101476 228.619809 
L 108.301612 232.900661 
L 110.787268 226.134153 
L 111.477728 227.515073 
L 114.37766 223.648497 
L 115.482396 224.477049 
" clip-path="url(#p41838f1155)" style="fill: #e15759"/>
    <path d="M 140.655231 224.371556 
L 138.493749 228.694519 
L 140.037665 228.694519 
L 135.097135 233.943832 
L 136.332268 226.841821 
L 137.258617 228.076953 
L 139.420099 223.75399 
L 140.655231 224.371556 
" clip-path="url(#p41838f1155)" style="fill: #e15759"/>
    <path d="M 165.815146 224.230234 
L 164.642918 228.919146 
L 166.150068 228.584224 
L 162.465923 234.780286 
L 162.131 227.579457 
L 163.303229 228.584224 
L 164.475457 223.895312 
L 165.815146 224.230234 
" clip-path="url(#p41838f1155)" style="fill: #e15759"/>
    <path d="M 190.943398 224.062773 
L 190.943398 228.895993 
L 192.324318 228.205533 
L 190.252938 235.110133 
L 188.181558 228.205533 
L 189.562478 228.895993 
L 189.562478 224.062773 
L 190.943398 224.062773 
" clip-path="url(#p41838f1155)" style="fill: #e15759"/>
    <path d="M 216.030418 223.895312 
L 217.202646 228.584224 
L 218.374875 227.579457 
L 218.039952 234.780286 
L 214.355807 228.584224 
L 215.862957 228.919146 
L 214.690729 224.230234 
L 216.030418 223.895312 
" clip-path="url(#p41838f1155)" style="fill: #e15759"/>
    <path d="M 241.085776 223.75399 
L 243.247258 228.076953 
L 244.173607 226.841821 
L 245.40874 233.943832 
L 240.46821 228.694519 
L 242.012126 228.694519 
L 239.850644 224.371556 
L 241.085776 223.75399 
" clip-path="url(#p41838f1155)" style="fill: #e15759"/>
    <path d="M 266.128215 223.648497 
L 269.028147 227.515073 
L 269.718607 226.134153 
L 272.204263 232.900661 
L 266.404399 228.619809 
L 267.923411 228.343625 
L 265.023479 224.477049 
L 266.128215 223.648497 
" clip-path="url(#p41838f1155)" style="fill: #e15759"/>
    <path d="M 291.171712 223.574544 
L 294.589315 226.992146 
L 295.077543 225.52746 
L 298.495146 231.874436 
L 292.14817 228.456833 
L 293.612857 227.968604 
L 290.195254 224.551002 
L 291.171712 223.574544 
" clip-path="url(#p41838f1155)" style="fill: #e15759"/>
    <path d="M 316.222446 223.523614 
L 319.996557 226.542903 
L 320.320052 225.033258 
L 324.417658 230.964004 
L 317.732091 228.26821 
L 319.133903 227.62122 
L 315.359792 224.601931 
L 316.222446 223.523614 
" clip-path="url(#p41838f1155)" style="fill: #e15759"/>
    <path d="M 64.971186 199.596212 
L 60.483654 201.391225 
L 61.637591 202.416947 
L 54.457539 203.058023 
L 60.099008 198.570491 
L 59.970793 200.109073 
L 64.458325 198.31406 
L 64.971186 199.596212 
" clip-path="url(#p41838f1155)" style="fill: #e15759"/>
    <path d="M 90.131175 199.572703 
L 85.808212 201.734184 
L 87.043344 202.660534 
L 79.941333 203.895666 
L 85.190646 198.955136 
L 85.190646 200.499052 
L 89.513609 198.33757 
L 90.131175 199.572703 
" clip-path="url(#p41838f1155)" style="fill: #e15759"/>
    <path d="M 115.313027 199.529634 
L 111.291545 202.210622 
L 112.632039 202.976618 
L 105.738069 205.083109 
L 110.334049 199.529634 
L 110.525548 201.061627 
L 114.54703 198.380639 
L 115.313027 199.529634 
" clip-path="url(#p41838f1155)" style="fill: #e15759"/>
    <path d="M 140.525894 199.443365 
L 137.108291 202.860968 
L 138.572978 203.349197 
L 132.226002 206.7668 
L 135.643604 200.419823 
L 136.131833 201.88451 
L 139.549436 198.466907 
L 140.525894 199.443365 
" clip-path="url(#p41838f1155)" style="fill: #e15759"/>
    <path d="M 165.762867 199.263919 
L 163.601386 203.586883 
L 165.145301 203.586883 
L 160.204772 208.836196 
L 161.439904 201.734184 
L 162.366253 202.969317 
L 164.527735 198.646353 
L 165.762867 199.263919 
" clip-path="url(#p41838f1155)" style="fill: #e15759"/>
    <path d="M 190.943398 198.955136 
L 190.943398 203.788356 
L 192.324318 203.097896 
L 190.252938 210.002496 
L 188.181558 203.097896 
L 189.562478 203.788356 
L 189.562478 198.955136 
L 190.943398 198.955136 
" clip-path="url(#p41838f1155)" style="fill: #e15759"/>
    <path d="M 215.97814 198.646353 
L 218.139622 202.969317 
L 219.065971 201.734184 
L 220.301103 208.836196 
L 215.360574 203.586883 
L 216.904489 203.586883 
L 214.743008 199.263919 
L 215.97814 198.646353 
" clip-path="url(#p41838f1155)" style="fill: #e15759"/>
    <path d="M 240.956439 198.466907 
L 244.374042 201.88451 
L 244.862271 200.419823 
L 248.279873 206.7668 
L 241.932897 203.349197 
L 243.397584 202.860968 
L 239.979981 199.443365 
L 240.956439 198.466907 
" clip-path="url(#p41838f1155)" style="fill: #e15759"/>
    <path d="M 265.958845 198.380639 
L 269.980327 201.061627 
L 270.171826 199.529634 
L 274.767806 205.083109 
L 267.873836 202.976618 
L 269.21433 202.210622 
L 265.192848 199.529634 
L 265.958845 198.380639 
" clip-path="url(#p41838f1155)" style="fill: #e15759"/>
    <path d="M 290.992266 198.33757 
L 295.315229 200.499052 
L 295.315229 198.955136 
L 300.564542 203.895666 
L 293.462531 202.660534 
L 294.697663 201.734184 
L 290.3747 199.572703 
L 290.992266 198.33757 
" clip-path="url(#p41838f1155)" style="fill: #e15759"/>
    <path d="M 316.04755 198.31406 
L 320.535082 200.109073 
L 320.406867 198.570491 
L 326.048336 203.058023 
L 318.868284 202.416947 
L 320.022221 201.391225 
L 315.534689 199.596212 
L 316.04755 198.31406 
" clip-path="url(#p41838f1155)" style="fill: #e15759"/>
    <path d="M 64.714756 174.53796 
L 59.881536 174.53796 
L 60.571996 175.91888 
L 53.667396 173.8475 
L 60.571996 171.77612 
L 59.881536 173.15704 
L 64.714756 173.15704 
L 64.714756 174.53796 
" clip-path="url(#p41838f1155)" style="fill: #e15759"/>
    <path d="M 89.822392 174.53796 
L 84.989172 174.53796 
L 85.679632 175.91888 
L 78.775032 173.8475 
L 85.679632 171.77612 
L 84.989172 173.15704 
L 89.822392 173.15704 
L 89.822392 174.53796 
" clip-path="url(#p41838f1155)" style="fill: #e15759"/>
    <path d="M 114.930028 174.53796 
L 110.096808 174.53796 
L 110.787268 175.91888 
L 103.882668 173.8475 
L 110.787268 171.77612 
L 110.096808 173.15704 
L 114.930028 173.15704 
L 114.930028 174.53796 
" clip-path="url(#p41838f1155)" style="fill: #e15759"/>
    <path d="M 140.037665 174.53796 
L 135.204445 174.53796 
L 135.894905 175.91888 
L 128.990305 173.8475 
L 135.894905 171.77612 
L 135.204445 173.15704 
L 140.037665 173.15704 
L 140.037665 174.53796 
" clip-path="url(#p41838f1155)" style="fill: #e15759"/>
    <path d="M 165.145301 174.53796 
L 160.312081 174.53796 
L 161.002541 175.91888 
L 154.097941 173.8475 
L 161.002541 171.77612 
L 160.312081 173.15704 
L 165.145301 173.15704 
L 165.145301 174.53796 
" clip-path="url(#p41838f1155)" style="fill: #e15759"/>
    <path d="M 190.943398 173.8475 
L 190.598168 173.249544 
L 189.907708 173.249544 
L 189.562478 173.8475 
L 189.907708 174.445456 
L 190.598168 174.445456 
L 190.943398 173.8475 
L 190.598168 173.249544 
" clip-path="url(#p41838f1155)" style="fill: #e15759"/>
    <path d="M 215.360574 173.15704 
L 220.193794 173.15704 
L 219.503334 171.77612 
L 226.407934 173.8475 
L 219.503334 175.91888 
L 220.193794 174.53796 
L 215.360574 174.53796 
L 215.360574 173.15704 
" clip-path="url(#p41838f1155)" style="fill: #e15759"/>
    <path d="M 240.46821 173.15704 
L 245.30143 173.15704 
L 244.61097 171.77612 
L 251.51557 173.8475 
L 244.61097 175.91888 
L 245.30143 174.53796 
L 240.46821 174.53796 
L 240.46821 173.15704 
" clip-path="url(#p41838f1155)" style="fill: #e15759"/>
    <path d="M 265.575847 173.15704 
L 270.409067 173.15704 
L 269.718607 171.77612 
L 276.623207 173.8475 
L 269.718607 175.91888 
L 270.409067 174.53796 
L 265.575847 174.53796 
L 265.575847 173.15704 
" clip-path="url(#p41838f1155)" style="fill: #e15759"/>
    <path d="M 290.683483 173.15704 
L 295.516703 173.15704 
L 294.826243 171.77612 
L 301.730843 173.8475 
L 294.826243 175.91888 
L 295.516703 174.53796 
L 290.683483 174.53796 
L 290.683483 173.15704 
" clip-path="url(#p41838f1155)" style="fill: #e15759"/>
    <path d="M 315.791119 173.15704 
L 320.624339 173.15704 
L 319.933879 171.77612 
L 326.838479 173.8475 
L 319.933879 175.91888 
L 320.624339 174.53796 
L 315.791119 174.53796 
L 315.791119 173.15704 
" clip-path="url(#p41838f1155)" style="fill: #e15759"/>
    <path d="M 64.458325 149.38094 
L 59.970793 147.585927 
L 60.099008 149.124509 
L 54.457539 144.636977 
L 61.637591 145.278053 
L 60.483654 146.303775 
L 64.971186 148.098788 
L 64.458325 149.38094 
" clip-path="url(#p41838f1155)" style="fill: #e15759"/>
    <path d="M 89.513609 149.35743 
L 85.190646 147.195948 
L 85.190646 148.739864 
L 79.941333 143.799334 
L 87.043344 145.034466 
L 85.808212 145.960816 
L 90.131175 148.122297 
L 89.513609 149.35743 
" clip-path="url(#p41838f1155)" style="fill: #e15759"/>
    <path d="M 114.54703 149.314361 
L 110.525548 146.633373 
L 110.334049 148.165366 
L 105.738069 142.611891 
L 112.632039 144.718382 
L 111.291545 145.484378 
L 115.313027 148.165366 
L 114.54703 149.314361 
" clip-path="url(#p41838f1155)" style="fill: #e15759"/>
    <path d="M 139.549436 149.228093 
L 136.131833 145.81049 
L 135.643604 147.275177 
L 132.226002 140.9282 
L 138.572978 144.345803 
L 137.108291 144.834032 
L 140.525894 148.251635 
L 139.549436 149.228093 
" clip-path="url(#p41838f1155)" style="fill: #e15759"/>
    <path d="M 164.527735 149.048647 
L 162.366253 144.725683 
L 161.439904 145.960816 
L 160.204772 138.858804 
L 165.145301 144.108117 
L 163.601386 144.108117 
L 165.762867 148.431081 
L 164.527735 149.048647 
" clip-path="url(#p41838f1155)" style="fill: #e15759"/>
    <path d="M 189.562478 148.739864 
L 189.562478 143.906644 
L 188.181558 144.597104 
L 190.252938 137.692504 
L 192.324318 144.597104 
L 190.943398 143.906644 
L 190.943398 148.739864 
L 189.562478 148.739864 
" clip-path="url(#p41838f1155)" style="fill: #e15759"/>
    <path d="M 214.743008 148.431081 
L 216.904489 144.108117 
L 215.360574 144.108117 
L 220.301103 138.858804 
L 219.065971 145.960816 
L 218.139622 144.725683 
L 215.97814 149.048647 
L 214.743008 148.431081 
" clip-path="url(#p41838f1155)" style="fill: #e15759"/>
    <path d="M 239.979981 148.251635 
L 243.397584 144.834032 
L 241.932897 144.345803 
L 248.279873 140.9282 
L 244.862271 147.275177 
L 244.374042 145.81049 
L 240.956439 149.228093 
L 239.979981 148.251635 
" clip-path="url(#p41838f1155)" style="fill: #e15759"/>
    <path d="M 265.192848 148.165366 
L 269.21433 145.484378 
L 267.873836 144.718382 
L 274.767806 142.611891 
L 270.171826 148.165366 
L 269.980327 146.633373 
L 265.958845 149.314361 
L 265.192848 148.165366 
" clip-path="url(#p41838f1155)" style="fill: #e15759"/>
    <path d="M 290.3747 148.122297 
L 294.697663 145.960816 
L 293.462531 145.034466 
L 300.564542 143.799334 
L 295.315229 148.739864 
L 295.315229 147.195948 
L 290.992266 149.35743 
L 290.3747 148.122297 
" clip-path="url(#p41838f1155)" style="fill: #e15759"/>
    <path d="M 315.534689 148.098788 
L 320.022221 146.303775 
L 318.868284 145.278053 
L 326.048336 144.636977 
L 320.406867 149.124509 
L 320.535082 147.585927 
L 316.04755 149.38094 
L 315.534689 148.098788 
" clip-path="url(#p41838f1155)" style="fill: #e15759"/>
    <path d="M 64.283429 124.171386 
L 60.509318 121.152097 
L 60.185823 122.661742 
L 56.088217 116.730996 
L 62.773784 119.42679 
L 61.371972 120.07378 
L 65.146083 123.093069 
L 64.283429 124.171386 
" clip-path="url(#p41838f1155)" style="fill: #e15759"/>
    <path d="M 89.334163 124.120456 
L 85.91656 120.702854 
L 85.428332 122.16754 
L 82.010729 115.820564 
L 88.357705 119.238167 
L 86.893018 119.726396 
L 90.310621 123.143998 
L 89.334163 124.120456 
" clip-path="url(#p41838f1155)" style="fill: #e15759"/>
    <path d="M 114.37766 124.046503 
L 111.477728 120.179927 
L 110.787268 121.560847 
L 108.301612 114.794339 
L 114.101476 119.075191 
L 112.582464 119.351375 
L 115.482396 123.217951 
L 114.37766 124.046503 
" clip-path="url(#p41838f1155)" style="fill: #e15759"/>
    <path d="M 139.420099 123.94101 
L 137.258617 119.618047 
L 136.332268 120.853179 
L 135.097135 113.751168 
L 140.037665 119.000481 
L 138.493749 119.000481 
L 140.655231 123.323444 
L 139.420099 123.94101 
" clip-path="url(#p41838f1155)" style="fill: #e15759"/>
    <path d="M 164.475457 123.799688 
L 163.303229 119.110776 
L 162.131 120.115543 
L 162.465923 112.914714 
L 166.150068 119.110776 
L 164.642918 118.775854 
L 165.815146 123.464766 
L 164.475457 123.799688 
" clip-path="url(#p41838f1155)" style="fill: #e15759"/>
    <path d="M 189.562478 123.632227 
L 189.562478 118.799007 
L 188.181558 119.489467 
L 190.252938 112.584867 
L 192.324318 119.489467 
L 190.943398 118.799007 
L 190.943398 123.632227 
L 189.562478 123.632227 
" clip-path="url(#p41838f1155)" style="fill: #e15759"/>
    <path d="M 214.690729 123.464766 
L 215.862957 118.775854 
L 214.355807 119.110776 
L 218.039952 112.914714 
L 218.374875 120.115543 
L 217.202646 119.110776 
L 216.030418 123.799688 
L 214.690729 123.464766 
" clip-path="url(#p41838f1155)" style="fill: #e15759"/>
    <path d="M 239.850644 123.323444 
L 242.012126 119.000481 
L 240.46821 119.000481 
L 245.40874 113.751168 
L 244.173607 120.853179 
L 243.247258 119.618047 
L 241.085776 123.94101 
L 239.850644 123.323444 
" clip-path="url(#p41838f1155)" style="fill: #e15759"/>
    <path d="M 265.023479 123.217951 
L 267.923411 119.351375 
L 266.404399 119.075191 
L 272.204263 114.794339 
L 269.718607 121.560847 
L 269.028147 120.179927 
L 266.128215 124.046503 
L 265.023479 123.217951 
" clip-path="url(#p41838f1155)" style="fill: #e15759"/>
    <path d="M 290.195254 123.143998 
L 293.612857 119.726396 
L 292.14817 119.238167 
L 298.495146 115.820564 
L 295.077543 122.16754 
L 294.589315 120.702854 
L 291.171712 124.120456 
L 290.195254 123.143998 
" clip-path="url(#p41838f1155)" style="fill: #e15759"/>
    <path d="M 315.359792 123.093069 
L 319.133903 120.07378 
L 317.732091 119.42679 
L 324.417658 116.730996 
L 320.320052 122.661742 
L 319.996557 121.152097 
L 316.222446 124.171386 
L 315.359792 123.093069 
" clip-path="url(#p41838f1155)" style="fill: #e15759"/>
    <path d="M 64.18433 98.966613 
L 61.090178 95.25363 
L 60.471347 96.6681 
L 57.642408 90.037774 
L 63.653904 94.015969 
L 62.15103 94.369587 
L 65.245182 98.082569 
L 64.18433 98.966613 
" clip-path="url(#p41838f1155)" style="fill: #e15759"/>
    <path d="M 89.247895 98.907589 
L 86.566907 94.886107 
L 85.80091 96.226601 
L 83.694419 89.332632 
L 89.247895 93.928611 
L 87.715901 94.12011 
L 90.396889 98.141593 
L 89.247895 98.907589 
" clip-path="url(#p41838f1155)" style="fill: #e15759"/>
    <path d="M 114.312462 98.833374 
L 112.150981 94.510411 
L 111.224631 95.745543 
L 109.989499 88.643532 
L 114.930028 93.892844 
L 113.386113 93.892844 
L 115.547595 98.215808 
L 114.312462 98.833374 
" clip-path="url(#p41838f1155)" style="fill: #e15759"/>
    <path d="M 139.382637 98.742934 
L 137.854239 94.157738 
L 136.762525 95.249452 
L 136.544183 88.044145 
L 140.692693 93.939396 
L 139.164294 93.721053 
L 140.692693 98.306248 
L 139.382637 98.742934 
" clip-path="url(#p41838f1155)" style="fill: #e15759"/>
    <path d="M 164.464236 98.638102 
L 163.669659 93.870643 
L 162.421039 94.77873 
L 163.329126 87.627542 
L 166.507432 94.097665 
L 165.03179 93.643621 
L 165.826367 98.41108 
L 164.464236 98.638102 
" clip-path="url(#p41838f1155)" style="fill: #e15759"/>
    <path d="M 189.562478 98.524591 
L 189.562478 93.691371 
L 188.181558 94.381831 
L 190.252938 87.477231 
L 192.324318 94.381831 
L 190.943398 93.691371 
L 190.943398 98.524591 
L 189.562478 98.524591 
" clip-path="url(#p41838f1155)" style="fill: #e15759"/>
    <path d="M 214.679508 98.41108 
L 215.474085 93.643621 
L 213.998443 94.097665 
L 217.176749 87.627542 
L 218.084836 94.77873 
L 216.836216 93.870643 
L 216.041639 98.638102 
L 214.679508 98.41108 
" clip-path="url(#p41838f1155)" style="fill: #e15759"/>
    <path d="M 239.813182 98.306248 
L 241.341581 93.721053 
L 239.813182 93.939396 
L 243.961692 88.044145 
L 243.74335 95.249452 
L 242.651636 94.157738 
L 241.123238 98.742934 
L 239.813182 98.306248 
" clip-path="url(#p41838f1155)" style="fill: #e15759"/>
    <path d="M 264.95828 98.215808 
L 267.119762 93.892844 
L 265.575847 93.892844 
L 270.516376 88.643532 
L 269.281244 95.745543 
L 268.354894 94.510411 
L 266.193413 98.833374 
L 264.95828 98.215808 
" clip-path="url(#p41838f1155)" style="fill: #e15759"/>
    <path d="M 290.108986 98.141593 
L 292.789974 94.12011 
L 291.25798 93.928611 
L 296.811456 89.332632 
L 294.704965 96.226601 
L 293.938968 94.886107 
L 291.25798 98.907589 
L 290.108986 98.141593 
" clip-path="url(#p41838f1155)" style="fill: #e15759"/>
    <path d="M 315.260693 98.082569 
L 318.354845 94.369587 
L 316.851971 94.015969 
L 322.863467 90.037774 
L 320.034528 96.6681 
L 319.415697 95.25363 
L 316.321545 98.966613 
L 315.260693 98.082569 
" clip-path="url(#p41838f1155)" style="fill: #e15759"/>
    <path d="M 64.129247 73.782898 
L 61.567645 69.684335 
L 60.762571 71.00173 
L 58.859667 64.048812 
L 64.275624 68.806072 
L 62.738663 68.952449 
L 65.300265 73.051011 
L 64.129247 73.782898 
" clip-path="url(#p41838f1155)" style="fill: #e15759"/>
    <path d="M 89.204826 73.725738 
L 87.043344 69.402774 
L 86.116995 70.637907 
L 84.881862 63.535895 
L 89.822392 68.785208 
L 88.278477 68.785208 
L 90.439958 73.108171 
L 89.204826 73.725738 
" clip-path="url(#p41838f1155)" style="fill: #e15759"/>
    <path d="M 114.283531 73.659391 
L 112.586474 69.133906 
L 111.535915 70.265278 
L 111.051041 63.072989 
L 115.414902 68.810657 
L 113.879469 68.649033 
L 115.576526 73.174518 
L 114.283531 73.659391 
" clip-path="url(#p41838f1155)" style="fill: #e15759"/>
    <path d="M 139.36782 73.584416 
L 138.195592 68.895504 
L 137.023364 69.90027 
L 137.358286 62.699441 
L 141.042432 68.895504 
L 139.535281 68.560581 
L 140.707509 73.249493 
L 139.36782 73.584416 
" clip-path="url(#p41838f1155)" style="fill: #e15759"/>
    <path d="M 164.460173 73.502596 
L 163.860686 68.706698 
L 162.57607 69.563109 
L 163.775045 62.454904 
L 166.68684 69.049262 
L 165.230942 68.535416 
L 165.830429 73.331314 
L 164.460173 73.502596 
" clip-path="url(#p41838f1155)" style="fill: #e15759"/>
    <path d="M 189.562478 73.416955 
L 189.562478 68.583735 
L 188.181558 69.274195 
L 190.252938 62.369595 
L 192.324318 69.274195 
L 190.943398 68.583735 
L 190.943398 73.416955 
L 189.562478 73.416955 
" clip-path="url(#p41838f1155)" style="fill: #e15759"/>
    <path d="M 214.675446 73.331314 
L 215.274933 68.535416 
L 213.819035 69.049262 
L 216.73083 62.454904 
L 217.929805 69.563109 
L 216.645189 68.706698 
L 216.045702 73.502596 
L 214.675446 73.331314 
" clip-path="url(#p41838f1155)" style="fill: #e15759"/>
    <path d="M 239.798366 73.249493 
L 240.970594 68.560581 
L 239.463443 68.895504 
L 243.147589 62.699441 
L 243.482511 69.90027 
L 242.310283 68.895504 
L 241.138055 73.584416 
L 239.798366 73.249493 
" clip-path="url(#p41838f1155)" style="fill: #e15759"/>
    <path d="M 264.929349 73.174518 
L 266.626406 68.649033 
L 265.090973 68.810657 
L 269.454834 63.072989 
L 268.96996 70.265278 
L 267.919401 69.133906 
L 266.222344 73.659391 
L 264.929349 73.174518 
" clip-path="url(#p41838f1155)" style="fill: #e15759"/>
    <path d="M 290.065917 73.108171 
L 292.227398 68.785208 
L 290.683483 68.785208 
L 295.624013 63.535895 
L 294.38888 70.637907 
L 293.462531 69.402774 
L 291.301049 73.725738 
L 290.065917 73.108171 
" clip-path="url(#p41838f1155)" style="fill: #e15759"/>
    <path d="M 315.20561 73.051011 
L 317.767212 68.952449 
L 316.230251 68.806072 
L 321.646208 64.048812 
L 319.743304 71.00173 
L 318.93823 69.684335 
L 316.376628 73.782898 
L 315.20561 73.051011 
" clip-path="url(#p41838f1155)" style="fill: #e15759"/>
    <path d="M 64.097189 48.618101 
L 61.935708 44.295138 
L 61.009358 45.53027 
L 59.774226 38.428259 
L 64.714756 43.677572 
L 63.17084 43.677572 
L 65.332322 48.000535 
L 64.097189 48.618101 
" clip-path="url(#p41838f1155)" style="fill: #e15759"/>
    <path d="M 89.181316 48.565749 
L 87.386303 44.078216 
L 86.360582 45.232153 
L 85.719506 38.052102 
L 90.207038 43.693571 
L 88.668455 43.565356 
L 90.463468 48.052888 
L 89.181316 48.565749 
" clip-path="url(#p41838f1155)" style="fill: #e15759"/>
    <path d="M 114.268688 48.50772 
L 112.879872 43.878335 
L 111.755593 44.93648 
L 111.755593 37.727866 
L 115.723637 43.746067 
L 114.202554 43.481531 
L 115.591369 48.110916 
L 114.268688 48.50772 
" clip-path="url(#p41838f1155)" style="fill: #e15759"/>
    <path d="M 139.360613 48.444729 
L 138.412741 43.705366 
L 137.194047 44.653239 
L 137.871099 37.47649 
L 141.256358 43.840777 
L 139.766844 43.434546 
L 140.714717 48.173908 
L 139.360613 48.444729 
" clip-path="url(#p41838f1155)" style="fill: #e15759"/>
    <path d="M 164.458268 48.378022 
L 163.977344 43.568788 
L 162.671981 44.393228 
L 164.046048 37.316784 
L 166.794181 43.981008 
L 165.351411 43.431381 
L 165.832335 48.240615 
L 164.458268 48.378022 
" clip-path="url(#p41838f1155)" style="fill: #e15759"/>
    <path d="M 189.562478 48.309318 
L 189.562478 43.476098 
L 188.181558 44.166558 
L 190.252938 37.261958 
L 192.324318 44.166558 
L 190.943398 43.476098 
L 190.943398 48.309318 
L 189.562478 48.309318 
" clip-path="url(#p41838f1155)" style="fill: #e15759"/>
    <path d="M 214.67354 48.240615 
L 215.154464 43.431381 
L 213.711694 43.981008 
L 216.459827 37.316784 
L 217.833894 44.393228 
L 216.528531 43.568788 
L 216.047607 48.378022 
L 214.67354 48.240615 
" clip-path="url(#p41838f1155)" style="fill: #e15759"/>
    <path d="M 239.791158 48.173908 
L 240.739031 43.434546 
L 239.249517 43.840777 
L 242.634776 37.47649 
L 243.311828 44.653239 
L 242.093134 43.705366 
L 241.145262 48.444729 
L 239.791158 48.173908 
" clip-path="url(#p41838f1155)" style="fill: #e15759"/>
    <path d="M 264.914506 48.110916 
L 266.303321 43.481531 
L 264.782238 43.746067 
L 268.750282 37.727866 
L 268.750282 44.93648 
L 267.626003 43.878335 
L 266.237187 48.50772 
L 264.914506 48.110916 
" clip-path="url(#p41838f1155)" style="fill: #e15759"/>
    <path d="M 290.042407 48.052888 
L 291.83742 43.565356 
L 290.298837 43.693571 
L 294.786369 38.052102 
L 294.145293 45.232153 
L 293.119572 44.078216 
L 291.324559 48.565749 
L 290.042407 48.052888 
" clip-path="url(#p41838f1155)" style="fill: #e15759"/>
    <path d="M 315.173553 48.000535 
L 317.335035 43.677572 
L 315.791119 43.677572 
L 320.731649 38.428259 
L 319.496517 45.53027 
L 318.570167 44.295138 
L 316.408686 48.618101 
L 315.173553 48.000535 
" clip-path="url(#p41838f1155)" style="fill: #e15759"/>
   </g>
   <g id="matplotlib.axis_1">
    <g id="xtick_1">
     <g id="line2d_1">
      <defs>
       <path id="mbaeb688fcc" d="M 0 0 
L 0 3.5 
" style="stroke: #000000; stroke-width: 0.8"/>
      </defs>
      <g>
       <use xlink:href="#mbaeb688fcc" x="64.714756" y="311.9395" style="stroke: #000000; stroke-width: 0.8"/>
      </g>
     </g>
     <g id="text_1">
      <!-- −2.0 -->
      <g transform="translate(52.573349 326.537937) scale(0.1 -0.1)">
       <defs>
        <path id="DejaVuSans-2212" d="M 678 2272 
L 4684 2272 
L 4684 1741 
L 678 1741 
L 678 2272 
z
" transform="scale(0.015625)"/>
        <path id="DejaVuSans-32" d="M 1228 531 
L 3431 531 
L 3431 0 
L 469 0 
L 469 531 
Q 828 903 1448 1529 
Q 2069 2156 2228 2338 
Q 2531 2678 2651 2914 
Q 2772 3150 2772 3378 
Q 2772 3750 2511 3984 
Q 2250 4219 1831 4219 
Q 1534 4219 1204 4116 
Q 875 4013 500 3803 
L 500 4441 
Q 881 4594 1212 4672 
Q 1544 4750 1819 4750 
Q 2544 4750 2975 4387 
Q 3406 4025 3406 3419 
Q 3406 3131 3298 2873 
Q 3191 2616 2906 2266 
Q 2828 2175 2409 1742 
Q 1991 1309 1228 531 
z
" transform="scale(0.015625)"/>
        <path id="DejaVuSans-2e" d="M 684 794 
L 1344 794 
L 1344 0 
L 684 0 
L 684 794 
z
" transform="scale(0.015625)"/>
        <path id="DejaVuSans-30" d="M 2034 4250 
Q 1547 4250 1301 3770 
Q 1056 3291 1056 2328 
Q 1056 1369 1301 889 
Q 1547 409 2034 409 
Q 2525 409 2770 889 
Q 3016 1369 3016 2328 
Q 3016 3291 2770 3770 
Q 2525 4250 2034 4250 
z
M 2034 4750 
Q 2819 4750 3233 4129 
Q 3647 3509 3647 2328 
Q 3647 1150 3233 529 
Q 2819 -91 2034 -91 
Q 1250 -91 836 529 
Q 422 1150 422 2328 
Q 422 3509 836 4129 
Q 1250 4750 2034 4750 
z
" transform="scale(0.015625)"/>
       </defs>
       <use xlink:href="#DejaVuSans-2212"/>
       <use xlink:href="#DejaVuSans-32" transform="translate(83.789062 0)"/>
       <use xlink:href="#DejaVuSans-2e" transform="translate(147.412109 0)"/>
       <use xlink:href="#DejaVuSans-30" transform="translate(179.199219 0)"/>
      </g>
     </g>
    </g>
    <g id="xtick_2">
     <g id="line2d_2">
      <g>
       <use xlink:href="#mbaeb688fcc" x="96.099301" y="311.9395" style="stroke: #000000; stroke-width: 0.8"/>
      </g>
     </g>
     <g id="text_2">
      <!-- −1.5 -->
      <g transform="translate(83.957895 326.537937) scale(0.1 -0.1)">
       <defs>
        <path id="DejaVuSans-31" d="M 794 531 
L 1825 531 
L 1825 4091 
L 703 3866 
L 703 4441 
L 1819 4666 
L 2450 4666 
L 2450 531 
L 3481 531 
L 3481 0 
L 794 0 
L 794 531 
z
" transform="scale(0.015625)"/>
        <path id="DejaVuSans-35" d="M 691 4666 
L 3169 4666 
L 3169 4134 
L 1269 4134 
L 1269 2991 
Q 1406 3038 1543 3061 
Q 1681 3084 1819 3084 
Q 2600 3084 3056 2656 
Q 3513 2228 3513 1497 
Q 3513 744 3044 326 
Q 2575 -91 1722 -91 
Q 1428 -91 1123 -41 
Q 819 9 494 109 
L 494 744 
Q 775 591 1075 516 
Q 1375 441 1709 441 
Q 2250 441 2565 725 
Q 2881 1009 2881 1497 
Q 2881 1984 2565 2268 
Q 2250 2553 1709 2553 
Q 1456 2553 1204 2497 
Q 953 2441 691 2322 
L 691 4666 
z
" transform="scale(0.015625)"/>
       </defs>
       <use xlink:href="#DejaVuSans-2212"/>
       <use xlink:href="#DejaVuSans-31" transform="translate(83.789062 0)"/>
       <use xlink:href="#DejaVuSans-2e" transform="translate(147.412109 0)"/>
       <use xlink:href="#DejaVuSans-35" transform="translate(179.199219 0)"/>
      </g>
     </g>
    </g>
    <g id="xtick_3">
     <g id="line2d_3">
      <g>
       <use xlink:href="#mbaeb688fcc" x="127.483847" y="311.9395" style="stroke: #000000; stroke-width: 0.8"/>
      </g>
     </g>
     <g id="text_3">
      <!-- −1.0 -->
      <g transform="translate(115.34244 326.537937) scale(0.1 -0.1)">
       <use xlink:href="#DejaVuSans-2212"/>
       <use xlink:href="#DejaVuSans-31" transform="translate(83.789062 0)"/>
       <use xlink:href="#DejaVuSans-2e" transform="translate(147.412109 0)"/>
       <use xlink:href="#DejaVuSans-30" transform="translate(179.199219 0)"/>
      </g>
     </g>
    </g>
    <g id="xtick_4">
     <g id="line2d_4">
      <g>
       <use xlink:href="#mbaeb688fcc" x="158.868392" y="311.9395" style="stroke: #000000; stroke-width: 0.8"/>
      </g>
     </g>
     <g id="text_4">
      <!-- −0.5 -->
      <g transform="translate(146.726986 326.537937) scale(0.1 -0.1)">
       <use xlink:href="#DejaVuSans-2212"/>
       <use xlink:href="#DejaVuSans-30" transform="translate(83.789062 0)"/>
       <use xlink:href="#DejaVuSans-2e" transform="translate(147.412109 0)"/>
       <use xlink:href="#DejaVuSans-35" transform="translate(179.199219 0)"/>
      </g>
     </g>
    </g>
    <g id="xtick_5">
     <g id="line2d_5">
      <g>
       <use xlink:href="#mbaeb688fcc" x="190.252938" y="311.9395" style="stroke: #000000; stroke-width: 0.8"/>
      </g>
     </g>
     <g id="text_5">
      <!-- 0.0 -->
      <g transform="translate(182.301375 326.537937) scale(0.1 -0.1)">
       <use xlink:href="#DejaVuSans-30"/>
       <use xlink:href="#DejaVuSans-2e" transform="translate(63.623047 0)"/>
       <use xlink:href="#DejaVuSans-30" transform="translate(95.410156 0)"/>
      </g>
     </g>
    </g>
    <g id="xtick_6">
     <g id="line2d_6">
      <g>
       <use xlink:href="#mbaeb688fcc" x="221.637483" y="311.9395" style="stroke: #000000; stroke-width: 0.8"/>
      </g>
     </g>
     <g id="text_6">
      <!-- 0.5 -->
      <g transform="translate(213.68592 326.537937) scale(0.1 -0.1)">
       <use xlink:href="#DejaVuSans-30"/>
       <use xlink:href="#DejaVuSans-2e" transform="translate(63.623047 0)"/>
       <use xlink:href="#DejaVuSans-35" transform="translate(95.410156 0)"/>
      </g>
     </g>
    </g>
    <g id="xtick_7">
     <g id="line2d_7">
      <g>
       <use xlink:href="#mbaeb688fcc" x="253.022028" y="311.9395" style="stroke: #000000; stroke-width: 0.8"/>
      </g>
     </g>
     <g id="text_7">
      <!-- 1.0 -->
      <g transform="translate(245.070466 326.537937) scale(0.1 -0.1)">
       <use xlink:href="#DejaVuSans-31"/>
       <use xlink:href="#DejaVuSans-2e" transform="translate(63.623047 0)"/>
       <use xlink:href="#DejaVuSans-30" transform="translate(95.410156 0)"/>
      </g>
     </g>
    </g>
    <g id="xtick_8">
     <g id="line2d_8">
      <g>
       <use xlink:href="#mbaeb688fcc" x="284.406574" y="311.9395" style="stroke: #000000; stroke-width: 0.8"/>
      </g>
     </g>
     <g id="text_8">
      <!-- 1.5 -->
      <g transform="translate(276.455011 326.537937) scale(0.1 -0.1)">
       <use xlink:href="#DejaVuSans-31"/>
       <use xlink:href="#DejaVuSans-2e" transform="translate(63.623047 0)"/>
       <use xlink:href="#DejaVuSans-35" transform="translate(95.410156 0)"/>
      </g>
     </g>
    </g>
    <g id="xtick_9">
     <g id="line2d_9">
      <g>
       <use xlink:href="#mbaeb688fcc" x="315.791119" y="311.9395" style="stroke: #000000; stroke-width: 0.8"/>
      </g>
     </g>
     <g id="text_9">
      <!-- 2.0 -->
      <g transform="translate(307.839557 326.537937) scale(0.1 -0.1)">
       <use xlink:href="#DejaVuSans-32"/>
       <use xlink:href="#DejaVuSans-2e" transform="translate(63.623047 0)"/>
       <use xlink:href="#DejaVuSans-30" transform="translate(95.410156 0)"/>
      </g>
     </g>
    </g>
    <g id="text_10">
     <!-- x -->
     <g transform="translate(187.293563 340.216062) scale(0.1 -0.1)">
      <defs>
       <path id="DejaVuSans-78" d="M 3513 3500 
L 2247 1797 
L 3578 0 
L 2900 0 
L 1881 1375 
L 863 0 
L 184 0 
L 1544 1831 
L 300 3500 
L 978 3500 
L 1906 2253 
L 2834 3500 
L 3513 3500 
z
" transform="scale(0.015625)"/>
      </defs>
      <use xlink:href="#DejaVuSans-78"/>
     </g>
    </g>
   </g>
   <g id="matplotlib.axis_2">
    <g id="ytick_1">
     <g id="line2d_10">
      <defs>
       <path id="mb4b9344f4b" d="M 0 0 
L -3.5 0 
" style="stroke: #000000; stroke-width: 0.8"/>
      </defs>
      <g>
       <use xlink:href="#mb4b9344f4b" x="52.160938" y="299.385682" style="stroke: #000000; stroke-width: 0.8"/>
      </g>
     </g>
     <g id="text_11">
      <!-- −2.0 -->
      <g transform="translate(20.878125 303.184901) scale(0.1 -0.1)">
       <use xlink:href="#DejaVuSans-2212"/>
       <use xlink:href="#DejaVuSans-32" transform="translate(83.789062 0)"/>
       <use xlink:href="#DejaVuSans-2e" transform="translate(147.412109 0)"/>
       <use xlink:href="#DejaVuSans-30" transform="translate(179.199219 0)"/>
      </g>
     </g>
    </g>
    <g id="ytick_2">
     <g id="line2d_11">
      <g>
       <use xlink:href="#mb4b9344f4b" x="52.160938" y="268.001136" style="stroke: #000000; stroke-width: 0.8"/>
      </g>
     </g>
     <g id="text_12">
      <!-- −1.5 -->
      <g transform="translate(20.878125 271.800355) scale(0.1 -0.1)">
       <use xlink:href="#DejaVuSans-2212"/>
       <use xlink:href="#DejaVuSans-31" transform="translate(83.789062 0)"/>
       <use xlink:href="#DejaVuSans-2e" transform="translate(147.412109 0)"/>
       <use xlink:href="#DejaVuSans-35" transform="translate(179.199219 0)"/>
      </g>
     </g>
    </g>
    <g id="ytick_3">
     <g id="line2d_12">
      <g>
       <use xlink:href="#mb4b9344f4b" x="52.160938" y="236.616591" style="stroke: #000000; stroke-width: 0.8"/>
      </g>
     </g>
     <g id="text_13">
      <!-- −1.0 -->
      <g transform="translate(20.878125 240.41581) scale(0.1 -0.1)">
       <use xlink:href="#DejaVuSans-2212"/>
       <use xlink:href="#DejaVuSans-31" transform="translate(83.789062 0)"/>
       <use xlink:href="#DejaVuSans-2e" transform="translate(147.412109 0)"/>
       <use xlink:href="#DejaVuSans-30" transform="translate(179.199219 0)"/>
      </g>
     </g>
    </g>
    <g id="ytick_4">
     <g id="line2d_13">
      <g>
       <use xlink:href="#mb4b9344f4b" x="52.160938" y="205.232045" style="stroke: #000000; stroke-width: 0.8"/>
      </g>
     </g>
     <g id="text_14">
      <!-- −0.5 -->
      <g transform="translate(20.878125 209.031264) scale(0.1 -0.1)">
       <use xlink:href="#DejaVuSans-2212"/>
       <use xlink:href="#DejaVuSans-30" transform="translate(83.789062 0)"/>
       <use xlink:href="#DejaVuSans-2e" transform="translate(147.412109 0)"/>
       <use xlink:href="#DejaVuSans-35" transform="translate(179.199219 0)"/>
      </g>
     </g>
    </g>
    <g id="ytick_5">
     <g id="line2d_14">
      <g>
       <use xlink:href="#mb4b9344f4b" x="52.160938" y="173.8475" style="stroke: #000000; stroke-width: 0.8"/>
      </g>
     </g>
     <g id="text_15">
      <!-- 0.0 -->
      <g transform="translate(29.257813 177.646719) scale(0.1 -0.1)">
       <use xlink:href="#DejaVuSans-30"/>
       <use xlink:href="#DejaVuSans-2e" transform="translate(63.623047 0)"/>
       <use xlink:href="#DejaVuSans-30" transform="translate(95.410156 0)"/>
      </g>
     </g>
    </g>
    <g id="ytick_6">
     <g id="line2d_15">
      <g>
       <use xlink:href="#mb4b9344f4b" x="52.160938" y="142.462955" style="stroke: #000000; stroke-width: 0.8"/>
      </g>
     </g>
     <g id="text_16">
      <!-- 0.5 -->
      <g transform="translate(29.257813 146.262173) scale(0.1 -0.1)">
       <use xlink:href="#DejaVuSans-30"/>
       <use xlink:href="#DejaVuSans-2e" transform="translate(63.623047 0)"/>
       <use xlink:href="#DejaVuSans-35" transform="translate(95.410156 0)"/>
      </g>
     </g>
    </g>
    <g id="ytick_7">
     <g id="line2d_16">
      <g>
       <use xlink:href="#mb4b9344f4b" x="52.160938" y="111.078409" style="stroke: #000000; stroke-width: 0.8"/>
      </g>
     </g>
     <g id="text_17">
      <!-- 1.0 -->
      <g transform="translate(29.257813 114.877628) scale(0.1 -0.1)">
       <use xlink:href="#DejaVuSans-31"/>
       <use xlink:href="#DejaVuSans-2e" transform="translate(63.623047 0)"/>
       <use xlink:href="#DejaVuSans-30" transform="translate(95.410156 0)"/>
      </g>
     </g>
    </g>
    <g id="ytick_8">
     <g id="line2d_17">
      <g>
       <use xlink:href="#mb4b9344f4b" x="52.160938" y="79.693864" style="stroke: #000000; stroke-width: 0.8"/>
      </g>
     </g>
     <g id="text_18">
      <!-- 1.5 -->
      <g transform="translate(29.257813 83.493082) scale(0.1 -0.1)">
       <use xlink:href="#DejaVuSans-31"/>
       <use xlink:href="#DejaVuSans-2e" transform="translate(63.623047 0)"/>
       <use xlink:href="#DejaVuSans-35" transform="translate(95.410156 0)"/>
      </g>
     </g>
    </g>
    <g id="ytick_9">
     <g id="line2d_18">
      <g>
       <use xlink:href="#mb4b9344f4b" x="52.160938" y="48.309318" style="stroke: #000000; stroke-width: 0.8"/>
      </g>
     </g>
     <g id="text_19">
      <!-- 2.0 -->
      <g transform="translate(29.257813 52.108537) scale(0.1 -0.1)">
       <use xlink:href="#DejaVuSans-32"/>
       <use xlink:href="#DejaVuSans-2e" transform="translate(63.623047 0)"/>
       <use xlink:href="#DejaVuSans-30" transform="translate(95.410156 0)"/>
      </g>
     </g>
    </g>
    <g id="text_20">
     <!-- y -->
     <g transform="translate(14.798438 176.806875) rotate(-90) scale(0.1 -0.1)">
      <defs>
       <path id="DejaVuSans-79" d="M 2059 -325 
Q 1816 -950 1584 -1140 
Q 1353 -1331 966 -1331 
L 506 -1331 
L 506 -850 
L 844 -850 
Q 1081 -850 1212 -737 
Q 1344 -625 1503 -206 
L 1606 56 
L 191 3500 
L 800 3500 
L 1894 763 
L 2988 3500 
L 3597 3500 
L 2059 -325 
z
" transform="scale(0.015625)"/>
      </defs>
      <use xlink:href="#DejaVuSans-79"/>
     </g>
    </g>
   </g>
   <g id="QuadContourSet_1">
    <path clip-path="url(#p41838f1155)" style="fill: none; stroke: #08306b; stroke-width: 1.5"/>
    <path d="M 237.417099 130.928635 
L 240.909802 132.959379 
L 245.07338 135.739077 
L 248.601009 138.457088 
L 251.752599 141.232807 
L 254.509455 144.008525 
L 256.920917 146.784244 
L 259.028434 149.559962 
L 260.850201 152.335681 
L 262.415073 155.111399 
L 263.73759 157.887118 
L 264.831218 160.662837 
L 265.891269 164.156807 
L 266.36452 166.214274 
L 266.818729 168.989992 
L 267.071067 171.765711 
L 267.121534 174.54143 
L 266.970132 177.317148 
L 266.616858 180.092867 
L 265.891269 183.538193 
L 265.293838 185.644304 
L 264.313683 188.420023 
L 263.109002 191.195741 
L 261.666589 193.97146 
L 259.972178 196.747178 
L 257.564113 200.098298 
L 255.755604 202.298616 
L 253.177079 205.074334 
L 250.229588 207.850053 
L 246.859137 210.625771 
L 243.68552 212.924529 
L 240.82324 214.789349 
L 236.746224 217.134264 
L 233.153667 218.952927 
L 229.806927 220.458237 
L 225.64335 222.100486 
L 221.479772 223.516568 
L 217.316194 224.724821 
L 212.437404 225.892224 
L 207.601179 226.800809 
L 203.437601 227.400269 
L 197.886164 227.934061 
L 192.334726 228.183164 
L 186.783289 228.147578 
L 181.231852 227.827302 
L 175.680415 227.220819 
L 170.128978 226.307753 
L 165.9654 225.418751 
L 161.801822 224.345428 
L 157.638244 223.071987 
L 153.474666 221.58077 
L 149.311088 219.851979 
L 145.14751 217.863342 
L 142.024643 216.177209 
L 138.208214 213.850263 
L 135.432495 211.955923 
L 131.904866 209.237912 
L 128.753276 206.462193 
L 125.99642 203.686475 
L 123.584958 200.910756 
L 121.477441 198.135038 
L 119.655674 195.359319 
L 118.090802 192.583601 
L 116.768285 189.807882 
L 115.674657 187.032163 
L 114.614606 183.538193 
L 114.141355 181.480726 
L 113.687146 178.705008 
L 113.434808 175.929289 
L 113.384341 173.15357 
L 113.535743 170.377852 
L 113.889017 167.602133 
L 114.614606 164.156807 
L 115.212037 162.050696 
L 116.192192 159.274977 
L 117.396873 156.499259 
L 118.839286 153.72354 
L 120.533697 150.947822 
L 122.941762 147.596702 
L 124.750271 145.396384 
L 127.328796 142.620666 
L 130.276287 139.844947 
L 133.646738 137.069229 
L 136.820355 134.770471 
L 139.682635 132.905651 
L 143.759651 130.560736 
L 147.352208 128.742073 
L 150.698948 127.236763 
L 154.862525 125.594514 
L 159.026103 124.178432 
L 163.189681 122.970179 
L 168.068471 121.802776 
L 172.904696 120.894191 
L 177.068274 120.294731 
L 182.619711 119.760939 
L 188.171149 119.511836 
L 193.722586 119.547422 
L 199.274023 119.867698 
L 204.82546 120.474181 
L 210.376897 121.387247 
L 214.540475 122.276249 
L 218.704053 123.349572 
L 221.965304 124.333533 
L 221.965304 124.333533 
" clip-path="url(#p41838f1155)" style="fill: none; stroke: #084a91; stroke-width: 1.5"/>
    <path d="M 119.647251 232.29984 
L 116.002465 230.00175 
L 111.838887 227.095357 
L 107.675309 223.846756 
L 104.899591 221.460958 
L 102.123872 218.863677 
L 99.348154 216.012615 
L 96.572435 212.853392 
L 93.796716 209.314893 
L 91.805152 206.462193 
L 89.633139 202.955678 
L 87.778578 199.522897 
L 86.47096 196.747178 
L 84.814266 192.583601 
L 83.507014 188.420023 
L 82.535763 184.256445 
L 81.895213 180.092867 
L 81.574937 175.929289 
L 81.574937 171.765711 
L 81.895213 167.602133 
L 82.535763 163.438555 
L 83.146531 160.662837 
L 84.339472 156.499259 
L 85.878807 152.335681 
L 87.103403 149.559962 
L 88.494632 146.784244 
L 90.059437 144.008525 
L 92.408857 140.339826 
L 94.784625 137.069229 
L 97.030547 134.29351 
L 99.500086 131.517791 
L 102.214539 128.742073 
L 105.197996 125.966354 
L 109.063169 122.723934 
L 113.226747 119.598495 
L 117.390324 116.794901 
L 121.553902 114.268245 
L 125.71748 111.981601 
L 131.175824 109.312043 
L 135.432495 107.463236 
L 140.983932 105.320045 
L 145.586234 103.760606 
L 150.698948 102.240842 
L 156.250385 100.829286 
L 162.087423 99.597028 
L 167.353259 98.698976 
L 172.904696 97.95829 
L 178.456133 97.42838 
L 184.007571 97.100341 
L 189.559008 96.974172 
L 195.110445 97.049873 
L 200.661882 97.327445 
L 206.213319 97.806887 
L 211.764757 98.493367 
L 217.316194 99.392906 
L 222.867631 100.515053 
L 228.419068 101.867188 
L 233.970505 103.462838 
L 239.521943 105.320045 
L 245.07338 107.463236 
L 249.330051 109.312043 
L 254.788395 111.981601 
L 258.951973 114.268245 
L 263.115551 116.794901 
L 267.279128 119.598495 
L 271.442706 122.723934 
L 274.218425 125.016973 
L 276.994144 127.503844 
L 279.769862 130.222061 
L 282.545581 133.219491 
L 285.321299 136.55818 
L 287.757672 139.844947 
L 289.598302 142.620666 
L 291.250772 145.396384 
L 292.727297 148.172103 
L 294.034915 150.947822 
L 295.691609 155.111399 
L 296.998861 159.274977 
L 297.970112 163.438555 
L 298.610662 167.602133 
L 298.930938 171.765711 
L 298.930938 175.929289 
L 298.610662 180.092867 
L 297.970112 184.256445 
L 297.359344 187.032163 
L 296.166403 191.195741 
L 294.627068 195.359319 
L 293.402472 198.135038 
L 292.011243 200.910756 
L 290.446438 203.686475 
L 288.097018 207.355174 
L 285.72125 210.625771 
L 283.475328 213.40149 
L 281.005789 216.177209 
L 278.291336 218.952927 
L 275.307879 221.728646 
L 271.442706 224.971066 
L 267.279128 228.096505 
L 263.115551 230.900099 
L 258.951973 233.426755 
L 254.788395 235.713399 
L 249.330051 238.382957 
L 245.07338 240.231764 
L 239.521943 242.374955 
L 234.919641 243.934394 
L 229.806927 245.454158 
L 224.25549 246.865714 
L 218.418452 248.097972 
L 213.152616 248.996024 
L 207.601179 249.73671 
L 202.049742 250.26662 
L 196.498304 250.594659 
L 190.946867 250.720828 
L 185.39543 250.645127 
L 179.843993 250.367555 
L 174.292556 249.888113 
L 168.741118 249.201633 
L 163.189681 248.302094 
L 157.638244 247.179947 
L 152.086807 245.827812 
L 146.53537 244.232162 
L 140.983932 242.374955 
L 135.432495 240.231764 
L 134.768723 239.955192 
L 134.768723 239.955192 
" clip-path="url(#p41838f1155)" style="fill: none; stroke: #1764ab; stroke-width: 1.5"/>
    <path d="M 105.705276 246.582349 
L 100.736013 243.545987 
L 96.572435 240.754085 
L 92.408857 237.704323 
L 88.245279 234.36154 
L 84.921467 231.443661 
L 81.305983 227.974261 
L 78.016003 224.504364 
L 75.603822 221.728646 
L 72.325489 217.565068 
L 69.421218 213.40149 
L 66.865791 209.237912 
L 64.636207 205.074334 
L 62.720526 200.910756 
L 61.099737 196.747178 
L 59.764429 192.583601 
L 58.705586 188.420023 
L 57.916698 184.256445 
L 57.394122 180.092867 
L 57.133898 175.929289 
L 57.133898 171.765711 
L 57.394122 167.602133 
L 57.916698 163.438555 
L 58.705586 159.274977 
L 59.764429 155.111399 
L 61.099737 150.947822 
L 62.720526 146.784244 
L 64.651671 142.590074 
L 66.865791 138.457088 
L 69.421218 134.29351 
L 72.325489 130.129932 
L 74.46678 127.354214 
L 78.016003 123.190636 
L 81.305983 119.720739 
L 84.921467 116.251339 
L 88.245279 113.33346 
L 92.408857 109.990677 
L 96.572435 106.940915 
L 100.736013 104.149013 
L 104.899591 101.585217 
L 109.063169 99.224182 
L 114.614606 96.362647 
L 120.166043 93.794173 
L 126.290306 91.269872 
L 131.268917 89.438194 
L 136.820355 87.609796 
L 142.371792 85.99365 
L 147.923229 84.579805 
L 153.474666 83.358925 
L 159.026103 82.322238 
L 165.9654 81.275069 
L 172.904696 80.498282 
L 179.843993 79.983168 
L 186.783289 79.728047 
L 193.722586 79.728047 
L 200.661882 79.983168 
L 207.601179 80.498282 
L 214.540475 81.275069 
L 220.091912 82.090929 
L 227.031209 83.358925 
L 232.582646 84.579805 
L 238.134083 85.99365 
L 243.68552 87.609796 
L 249.236958 89.438194 
L 254.788395 91.493177 
L 260.911683 94.04559 
L 265.891269 96.362647 
L 270.054847 98.478851 
L 275.606284 101.585217 
L 279.769862 104.149013 
L 283.93344 106.940915 
L 288.097018 109.990677 
L 292.260596 113.33346 
L 295.584408 116.251339 
L 299.199892 119.720739 
L 302.489872 123.190636 
L 304.902053 125.966354 
L 308.180386 130.129932 
L 311.084657 134.29351 
L 313.640084 138.457088 
L 315.869668 142.620666 
L 317.785349 146.784244 
L 319.406138 150.947822 
L 320.741446 155.111399 
L 321.800289 159.274977 
L 322.589177 163.438555 
L 323.111753 167.602133 
L 323.371977 171.765711 
L 323.371977 175.929289 
L 323.111753 180.092867 
L 322.589177 184.256445 
L 321.800289 188.420023 
L 320.741446 192.583601 
L 319.406138 196.747178 
L 317.785349 200.910756 
L 315.854204 205.104926 
L 313.640084 209.237912 
L 311.084657 213.40149 
L 308.180386 217.565068 
L 306.039095 220.340786 
L 302.489872 224.504364 
L 299.199892 227.974261 
L 295.584408 231.443661 
L 292.260596 234.36154 
L 288.097018 237.704323 
L 283.93344 240.754085 
L 279.769862 243.545987 
L 275.606284 246.109783 
L 271.442706 248.470818 
L 265.891269 251.332353 
L 260.339832 253.900827 
L 254.215569 256.425128 
L 249.236958 258.256806 
L 243.68552 260.085204 
L 238.134083 261.70135 
L 232.582646 263.115195 
L 227.031209 264.336075 
L 221.479772 265.372762 
L 214.540475 266.419931 
L 207.601179 267.196718 
L 200.661882 267.711832 
L 193.722586 267.966953 
L 186.783289 267.966953 
L 179.843993 267.711832 
L 172.904696 267.196718 
L 165.9654 266.419931 
L 160.413963 265.604071 
L 153.474666 264.336075 
L 147.923229 263.115195 
L 142.371792 261.70135 
L 136.820355 260.085204 
L 131.268917 258.256806 
L 125.71748 256.201823 
L 120.916088 254.224122 
L 120.916088 254.224122 
" clip-path="url(#p41838f1155)" style="fill: none; stroke: #2e7ebc; stroke-width: 1.5"/>
    <path d="M 328.344938 221.649938 
L 326.293506 224.504364 
L 323.026886 228.667942 
L 320.017782 232.156485 
L 316.786717 235.607239 
L 312.512989 239.770817 
L 308.914907 242.978764 
L 304.364482 246.710113 
L 300.587752 249.563345 
L 296.424174 252.482434 
L 290.872736 256.050448 
L 286.709159 258.508551 
L 281.157721 261.526542 
L 275.606284 264.273404 
L 270.054847 266.773417 
L 264.50341 269.048046 
L 259.918201 270.763039 
M 244.031205 275.697642 
L 238.134083 277.159967 
L 231.194787 278.641319 
L 224.25549 279.873957 
L 217.316194 280.867165 
L 210.376897 281.630286 
L 203.437601 282.164078 
L 196.498304 282.475457 
L 189.559008 282.564422 
L 182.619711 282.430974 
L 175.680415 282.075113 
L 168.741118 281.496838 
L 161.801822 280.686924 
L 154.862525 279.645691 
L 147.923229 278.363886 
L 140.983932 276.831757 
L 134.044636 275.039017 
L 127.440165 273.07944 
L 121.553902 271.10812 
L 115.66466 268.915862 
L 110.451028 266.773417 
L 104.899591 264.273404 
L 99.348154 261.526542 
L 93.796716 258.508551 
L 89.633139 256.050448 
L 85.469561 253.407674 
L 81.305983 250.56008 
L 77.142405 247.484481 
L 72.715238 243.934394 
L 68.815249 240.52465 
L 65.096656 236.995098 
L 61.875953 233.673008 
L 58.645256 230.055802 
L 55.263682 225.892224 
L 52.160938 221.649938 
M 52.160938 126.045062 
L 54.212369 123.190636 
L 57.478989 119.027058 
L 60.488093 115.538515 
L 63.719158 112.087761 
L 67.992886 107.924183 
L 71.590968 104.716236 
L 76.141393 100.984887 
L 79.918123 98.131655 
L 84.081701 95.212566 
L 89.633139 91.644552 
L 93.796716 89.186449 
L 99.348154 86.168458 
L 104.899591 83.421596 
L 110.451028 80.921583 
L 116.002465 78.646954 
L 120.587674 76.931961 
M 136.47467 71.997358 
L 142.371792 70.535033 
L 149.311088 69.053681 
L 156.250385 67.821043 
L 163.189681 66.827835 
L 170.128978 66.064714 
L 177.068274 65.530922 
L 184.007571 65.219543 
L 190.946867 65.130578 
L 197.886164 65.264026 
L 204.82546 65.619887 
L 211.764757 66.198162 
L 218.704053 67.008076 
L 225.64335 68.049309 
L 232.582646 69.331114 
L 239.521943 70.863243 
L 246.461239 72.655983 
L 253.06571 74.61556 
L 258.951973 76.58688 
L 264.841215 78.779138 
L 270.054847 80.921583 
L 275.606284 83.421596 
L 281.157721 86.168458 
L 286.709159 89.186449 
L 290.872736 91.644552 
L 295.036314 94.287326 
L 299.199892 97.13492 
L 303.36347 100.210519 
L 307.790637 103.760606 
L 311.690626 107.17035 
L 315.409219 110.699902 
L 318.629922 114.021992 
L 321.860619 117.639198 
L 325.242193 121.802776 
L 328.344938 126.045062 
L 328.344938 126.045062 
" clip-path="url(#p41838f1155)" style="fill: none; stroke: #4a98c9; stroke-width: 1.5"/>
    <path d="M 328.344938 246.233347 
L 324.18136 250.044423 
L 319.917397 253.64941 
L 314.547661 257.812987 
L 310.302767 260.845055 
L 304.751329 264.509657 
L 299.784431 267.528003 
L 294.856323 270.303721 
L 289.484877 273.101349 
L 283.731957 275.855158 
L 276.994144 278.788593 
L 270.054847 281.506888 
L 269.650281 281.65471 
M 253.732955 286.806014 
L 247.849098 288.373258 
L 240.909802 290.000363 
L 233.970505 291.401413 
L 227.031209 292.584295 
L 220.091912 293.552569 
L 213.152616 294.314271 
L 206.213319 294.872605 
L 199.274023 295.231534 
L 192.334726 295.389855 
L 185.39543 295.350428 
L 178.456133 295.111891 
L 171.516837 294.6732 
L 164.577541 294.035104 
L 157.638244 293.189466 
L 150.698948 292.136162 
L 143.759651 290.867775 
L 136.820355 289.37653 
L 129.881058 287.654275 
L 122.537491 285.570173 
L 116.002465 283.473217 
L 109.063169 280.985491 
L 103.13121 278.630877 
L 96.572435 275.762697 
L 90.977179 273.07944 
L 85.469561 270.2059 
L 79.918123 267.054403 
L 74.366686 263.623562 
L 69.831844 260.588706 
L 64.651671 256.833081 
L 60.488093 253.567517 
L 55.691061 249.485832 
L 52.160938 246.233347 
M 52.160938 101.461653 
L 56.324515 97.650577 
L 60.588478 94.04559 
L 65.958214 89.882013 
L 70.203108 86.849945 
L 75.754546 83.185343 
L 80.721444 80.166997 
L 85.649552 77.391279 
L 91.020998 74.593651 
L 96.773918 71.839842 
L 103.511731 68.906407 
L 110.451028 66.188112 
L 117.390324 63.756236 
L 122.941762 62.002547 
L 129.881058 60.040725 
L 136.820355 58.31847 
L 143.759651 56.827225 
L 150.698948 55.558838 
L 157.638244 54.505534 
L 164.577541 53.659896 
L 171.516837 53.0218 
L 178.456133 52.583109 
L 185.39543 52.344572 
L 192.334726 52.305145 
L 199.274023 52.463466 
L 206.213319 52.822395 
L 213.152616 53.380729 
L 220.091912 54.142431 
L 227.507874 55.18553 
L 233.970505 56.293587 
L 240.909802 57.694637 
L 247.95726 59.349108 
L 253.732955 60.888986 
M 269.650281 66.04029 
L 274.218425 67.783337 
L 281.157721 70.683856 
L 286.709159 73.234705 
L 292.260596 76.010624 
L 297.812033 79.031471 
L 303.36347 82.319512 
L 308.641797 85.718435 
L 313.078485 88.80957 
L 318.181482 92.657731 
L 322.7935 96.446175 
L 326.957078 100.15645 
L 328.344938 101.461653 
L 328.344938 101.461653 
" clip-path="url(#p41838f1155)" style="fill: none; stroke: #6caed6; stroke-width: 1.5"/>
    <path d="M 328.344938 264.372255 
L 324.071529 267.528003 
L 318.629922 271.25939 
L 313.078485 274.775317 
L 307.527048 278.023947 
L 301.975611 281.031719 
L 296.424174 283.816928 
L 290.872736 286.39606 
L 285.321299 288.784011 
L 283.464888 289.541646 
M 267.672028 295.225761 
L 261.727691 297.034849 
L 254.788395 298.935281 
L 247.849098 300.618556 
L 240.231404 302.224485 
L 232.582646 303.592966 
L 225.64335 304.626684 
L 218.704053 305.470636 
L 210.376897 306.237611 
L 203.437601 306.672884 
L 195.110445 306.954793 
L 186.783289 306.976478 
L 178.456133 306.73794 
L 170.128978 306.237611 
L 161.801822 305.470636 
L 154.862525 304.626684 
L 147.923229 303.592966 
L 140.274471 302.224485 
L 133.624795 300.836626 
L 127.10534 299.289956 
L 120.166043 297.432494 
L 113.018496 295.285188 
L 106.28745 293.029134 
L 99.348154 290.455792 
L 92.408857 287.613059 
L 86.85742 285.131288 
L 81.305983 282.451074 
L 75.754546 279.556752 
L 70.203108 276.430959 
L 64.651671 273.054056 
L 59.100234 269.39259 
L 54.520257 266.140143 
L 52.160938 264.372255 
M 52.160938 83.322745 
L 56.434346 80.166997 
L 61.875953 76.43561 
L 67.42739 72.919683 
L 72.978827 69.671053 
L 78.530264 66.663281 
L 84.081701 63.878072 
L 89.633139 61.29894 
L 95.184576 58.910989 
L 97.040987 58.153354 
M 112.833847 52.469239 
L 118.778184 50.660151 
L 125.71748 48.759719 
L 132.656777 47.076444 
L 140.274471 45.470515 
L 147.923229 44.102034 
L 154.862525 43.068316 
L 161.801822 42.224364 
L 170.128978 41.457389 
L 177.068274 41.022116 
L 185.39543 40.740207 
L 193.722586 40.718522 
L 202.049742 40.95706 
L 210.376897 41.457389 
L 218.704053 42.224364 
L 225.64335 43.068316 
L 232.582646 44.102034 
L 240.231404 45.470515 
L 246.88108 46.858374 
L 253.400535 48.405044 
L 260.339832 50.262506 
L 267.487379 52.409812 
L 274.218425 54.665866 
L 281.157721 57.239208 
L 288.097018 60.081941 
L 293.648455 62.563712 
L 299.199892 65.243926 
L 304.751329 68.138248 
L 310.302767 71.264041 
L 315.854204 74.640944 
L 321.405641 78.30241 
L 325.985618 81.554857 
L 328.344938 83.322745 
L 328.344938 83.322745 
" clip-path="url(#p41838f1155)" style="fill: none; stroke: #94c4df; stroke-width: 1.5"/>
    <path d="M 133.417305 311.9395 
L 125.71748 310.23677 
L 118.778184 308.495123 
L 111.290256 306.388063 
L 104.644008 304.307122 
M 85.014447 296.919512 
L 79.918123 294.667292 
L 72.978827 291.354547 
L 67.169583 288.345892 
L 60.488093 284.594617 
L 54.936656 281.222141 
L 52.160938 279.439237 
M 328.344938 279.439237 
L 322.7935 282.939675 
L 317.242063 286.191562 
L 310.710072 289.733751 
L 305.680792 292.264118 
M 286.318438 300.615162 
L 279.769862 302.989543 
L 272.830566 305.281665 
L 265.891269 307.353294 
L 258.951973 309.217119 
L 250.624817 311.186219 
L 247.08857 311.9395 
M 52.160938 68.255763 
L 57.712375 64.755325 
L 63.263812 61.503438 
L 69.795803 57.961249 
L 74.825083 55.430882 
M 94.187437 47.079838 
L 100.736013 44.705457 
L 107.675309 42.413335 
L 114.614606 40.341706 
L 121.553902 38.477881 
L 129.881058 36.508781 
L 133.417305 35.7555 
M 247.08857 35.7555 
L 254.788395 37.45823 
L 261.727691 39.199877 
L 269.215619 41.306937 
L 275.861867 43.387878 
M 295.491428 50.775488 
L 300.587752 53.027708 
L 307.527048 56.340453 
L 313.336292 59.349108 
L 320.017782 63.100383 
L 325.569219 66.472859 
L 328.344938 68.255763 
L 328.344938 68.255763 
" clip-path="url(#p41838f1155)" style="fill: none; stroke: #b7d4ea; stroke-width: 1.5"/>
    <path d="M 94.648295 311.9395 
L 93.796716 311.642738 
L 92.408857 311.15208 
L 91.020998 310.654414 
L 90.738372 310.551641 
L 89.633139 310.145637 
L 88.245279 309.62873 
L 87.013794 309.163781 
L 86.85742 309.104133 
L 85.469561 308.56759 
L 84.081701 308.023892 
L 83.456945 307.775922 
L 82.693842 307.469886 
L 81.305983 306.906068 
L 80.047033 306.388063 
L 79.918123 306.334464 
L 78.530264 305.750102 
L 77.142405 305.158435 
L 76.77577 305.000204 
L 75.754546 304.554776 
L 74.366686 303.942051 
L 73.628772 303.612344 
L 72.978827 303.318821 
L 71.590968 302.684584 
L 70.595869 302.224485 
L 70.203108 302.040912 
L 68.98538 301.465138 
M 328.344938 292.61164 
L 326.957078 293.410466 
L 326.666468 293.576047 
M 307.654368 303.260637 
L 307.527048 303.318821 
L 306.877103 303.612344 
L 306.139189 303.942051 
L 304.751329 304.554776 
L 303.730105 305.000204 
L 303.36347 305.158435 
L 301.975611 305.750102 
L 300.587752 306.334464 
L 300.458842 306.388063 
L 299.199892 306.906068 
L 297.812033 307.469886 
L 297.04893 307.775922 
L 296.424174 308.023892 
L 295.036314 308.56759 
L 293.648455 309.104133 
L 293.492081 309.163781 
L 292.260596 309.62873 
L 290.872736 310.145637 
L 289.767503 310.551641 
L 289.484877 310.654414 
L 288.097018 311.15208 
L 286.709159 311.642738 
L 285.85758 311.9395 
M 52.160938 55.08336 
L 53.548797 54.284534 
L 53.839407 54.118953 
M 72.851507 44.434363 
L 72.978827 44.376179 
L 73.628772 44.082656 
L 74.366686 43.752949 
L 75.754546 43.140224 
L 76.77577 42.694796 
L 77.142405 42.536565 
L 78.530264 41.944898 
L 79.918123 41.360536 
L 80.047033 41.306937 
L 81.305983 40.788932 
L 82.693842 40.225114 
L 83.456945 39.919078 
L 84.081701 39.671108 
L 85.469561 39.12741 
L 86.85742 38.590867 
L 87.013794 38.531219 
L 88.245279 38.06627 
L 89.633139 37.549363 
L 90.738372 37.143359 
L 91.020998 37.040586 
L 92.408857 36.54292 
L 93.796716 36.052262 
L 94.648295 35.7555 
M 285.85758 35.7555 
L 286.709159 36.052262 
L 288.097018 36.54292 
L 289.484877 37.040586 
L 289.767503 37.143359 
L 290.872736 37.549363 
L 292.260596 38.06627 
L 293.492081 38.531219 
L 293.648455 38.590867 
L 295.036314 39.12741 
L 296.424174 39.671108 
L 297.04893 39.919078 
L 297.812033 40.225114 
L 299.199892 40.788932 
L 300.458842 41.306937 
L 300.587752 41.360536 
L 301.975611 41.944898 
L 303.36347 42.536565 
L 303.730105 42.694796 
L 304.751329 43.140224 
L 306.139189 43.752949 
L 306.877103 44.082656 
L 307.527048 44.376179 
L 308.914907 45.010416 
L 309.910006 45.470515 
L 310.302767 45.654088 
L 311.520495 46.229862 
" clip-path="url(#p41838f1155)" style="fill: none; stroke: #d0e1f2; stroke-width: 1.5"/>
    <path d="M 67.572613 311.9395 
L 67.42739 311.874956 
L 66.03953 311.251121 
L 64.651671 310.620276 
L 64.502334 310.551641 
L 63.263812 309.976613 
L 61.875953 309.325168 
L 61.535825 309.163781 
L 60.488093 308.661518 
L 59.100234 307.98905 
L 58.665004 307.775922 
L 57.712375 307.304569 
L 56.324515 306.61064 
L 55.883951 306.388063 
L 54.936656 305.904444 
L 53.548797 305.188601 
L 53.187227 305.000204 
L 52.160938 304.459764 
M 328.344938 304.459764 
L 327.318648 305.000204 
L 326.957078 305.188601 
L 325.569219 305.904444 
L 324.621924 306.388063 
L 324.18136 306.61064 
L 322.7935 307.304569 
L 321.840871 307.775922 
L 321.405641 307.98905 
L 320.017782 308.661518 
L 318.97005 309.163781 
L 318.629922 309.325168 
L 317.242063 309.976613 
L 316.003541 310.551641 
L 315.854204 310.620276 
L 314.466345 311.251121 
L 313.078485 311.874956 
L 312.933262 311.9395 
M 52.160938 43.235236 
L 53.187227 42.694796 
L 53.548797 42.506399 
L 54.936656 41.790556 
L 55.883951 41.306937 
L 56.324515 41.08436 
L 57.712375 40.390431 
L 58.665004 39.919078 
L 59.100234 39.70595 
L 60.488093 39.033482 
L 61.535825 38.531219 
L 61.875953 38.369832 
L 63.263812 37.718387 
L 64.502334 37.143359 
L 64.651671 37.074724 
L 66.03953 36.443879 
L 67.42739 35.820044 
L 67.572613 35.7555 
M 312.933262 35.7555 
L 313.078485 35.820044 
L 314.466345 36.443879 
L 315.854204 37.074724 
L 316.003541 37.143359 
L 317.242063 37.718387 
L 318.629922 38.369832 
L 318.97005 38.531219 
L 320.017782 39.033482 
L 321.405641 39.70595 
L 321.840871 39.919078 
L 322.7935 40.390431 
L 324.18136 41.08436 
L 324.621924 41.306937 
L 325.569219 41.790556 
L 326.957078 42.506399 
L 327.318648 42.694796 
L 328.344938 43.235236 
" clip-path="url(#p41838f1155)" style="fill: none; stroke: #e3eef9; stroke-width: 1.5"/>
    <path clip-path="url(#p41838f1155)" style="fill: none; stroke: #f7fbff; stroke-width: 1.5"/>
   </g>
   <g id="patch_3">
    <path d="M 52.160938 311.9395 
L 52.160938 35.7555 
" style="fill: none; stroke: #000000; stroke-width: 0.8; stroke-linejoin: miter; stroke-linecap: square"/>
   </g>
   <g id="patch_4">
    <path d="M 328.344938 311.9395 
L 328.344938 35.7555 
" style="fill: none; stroke: #000000; stroke-width: 0.8; stroke-linejoin: miter; stroke-linecap: square"/>
   </g>
   <g id="patch_5">
    <path d="M 52.160938 311.9395 
L 328.344938 311.9395 
" style="fill: none; stroke: #000000; stroke-width: 0.8; stroke-linejoin: miter; stroke-linecap: square"/>
   </g>
   <g id="patch_6">
    <path d="M 52.160938 35.7555 
L 328.344938 35.7555 
" style="fill: none; stroke: #000000; stroke-width: 0.8; stroke-linejoin: miter; stroke-linecap: square"/>
   </g>
   <g id="text_21">
    <!-- Gradient vectors point toward steepest ascent -->
    <g transform="translate(50.577625 16.318125) scale(0.12 -0.12)">
     <defs>
      <path id="DejaVuSans-47" d="M 3809 666 
L 3809 1919 
L 2778 1919 
L 2778 2438 
L 4434 2438 
L 4434 434 
Q 4069 175 3628 42 
Q 3188 -91 2688 -91 
Q 1594 -91 976 548 
Q 359 1188 359 2328 
Q 359 3472 976 4111 
Q 1594 4750 2688 4750 
Q 3144 4750 3555 4637 
Q 3966 4525 4313 4306 
L 4313 3634 
Q 3963 3931 3569 4081 
Q 3175 4231 2741 4231 
Q 1884 4231 1454 3753 
Q 1025 3275 1025 2328 
Q 1025 1384 1454 906 
Q 1884 428 2741 428 
Q 3075 428 3337 486 
Q 3600 544 3809 666 
z
" transform="scale(0.015625)"/>
      <path id="DejaVuSans-72" d="M 2631 2963 
Q 2534 3019 2420 3045 
Q 2306 3072 2169 3072 
Q 1681 3072 1420 2755 
Q 1159 2438 1159 1844 
L 1159 0 
L 581 0 
L 581 3500 
L 1159 3500 
L 1159 2956 
Q 1341 3275 1631 3429 
Q 1922 3584 2338 3584 
Q 2397 3584 2469 3576 
Q 2541 3569 2628 3553 
L 2631 2963 
z
" transform="scale(0.015625)"/>
      <path id="DejaVuSans-61" d="M 2194 1759 
Q 1497 1759 1228 1600 
Q 959 1441 959 1056 
Q 959 750 1161 570 
Q 1363 391 1709 391 
Q 2188 391 2477 730 
Q 2766 1069 2766 1631 
L 2766 1759 
L 2194 1759 
z
M 3341 1997 
L 3341 0 
L 2766 0 
L 2766 531 
Q 2569 213 2275 61 
Q 1981 -91 1556 -91 
Q 1019 -91 701 211 
Q 384 513 384 1019 
Q 384 1609 779 1909 
Q 1175 2209 1959 2209 
L 2766 2209 
L 2766 2266 
Q 2766 2663 2505 2880 
Q 2244 3097 1772 3097 
Q 1472 3097 1187 3025 
Q 903 2953 641 2809 
L 641 3341 
Q 956 3463 1253 3523 
Q 1550 3584 1831 3584 
Q 2591 3584 2966 3190 
Q 3341 2797 3341 1997 
z
" transform="scale(0.015625)"/>
      <path id="DejaVuSans-64" d="M 2906 2969 
L 2906 4863 
L 3481 4863 
L 3481 0 
L 2906 0 
L 2906 525 
Q 2725 213 2448 61 
Q 2172 -91 1784 -91 
Q 1150 -91 751 415 
Q 353 922 353 1747 
Q 353 2572 751 3078 
Q 1150 3584 1784 3584 
Q 2172 3584 2448 3432 
Q 2725 3281 2906 2969 
z
M 947 1747 
Q 947 1113 1208 752 
Q 1469 391 1925 391 
Q 2381 391 2643 752 
Q 2906 1113 2906 1747 
Q 2906 2381 2643 2742 
Q 2381 3103 1925 3103 
Q 1469 3103 1208 2742 
Q 947 2381 947 1747 
z
" transform="scale(0.015625)"/>
      <path id="DejaVuSans-69" d="M 603 3500 
L 1178 3500 
L 1178 0 
L 603 0 
L 603 3500 
z
M 603 4863 
L 1178 4863 
L 1178 4134 
L 603 4134 
L 603 4863 
z
" transform="scale(0.015625)"/>
      <path id="DejaVuSans-65" d="M 3597 1894 
L 3597 1613 
L 953 1613 
Q 991 1019 1311 708 
Q 1631 397 2203 397 
Q 2534 397 2845 478 
Q 3156 559 3463 722 
L 3463 178 
Q 3153 47 2828 -22 
Q 2503 -91 2169 -91 
Q 1331 -91 842 396 
Q 353 884 353 1716 
Q 353 2575 817 3079 
Q 1281 3584 2069 3584 
Q 2775 3584 3186 3129 
Q 3597 2675 3597 1894 
z
M 3022 2063 
Q 3016 2534 2758 2815 
Q 2500 3097 2075 3097 
Q 1594 3097 1305 2825 
Q 1016 2553 972 2059 
L 3022 2063 
z
" transform="scale(0.015625)"/>
      <path id="DejaVuSans-6e" d="M 3513 2113 
L 3513 0 
L 2938 0 
L 2938 2094 
Q 2938 2591 2744 2837 
Q 2550 3084 2163 3084 
Q 1697 3084 1428 2787 
Q 1159 2491 1159 1978 
L 1159 0 
L 581 0 
L 581 3500 
L 1159 3500 
L 1159 2956 
Q 1366 3272 1645 3428 
Q 1925 3584 2291 3584 
Q 2894 3584 3203 3211 
Q 3513 2838 3513 2113 
z
" transform="scale(0.015625)"/>
      <path id="DejaVuSans-74" d="M 1172 4494 
L 1172 3500 
L 2356 3500 
L 2356 3053 
L 1172 3053 
L 1172 1153 
Q 1172 725 1289 603 
Q 1406 481 1766 481 
L 2356 481 
L 2356 0 
L 1766 0 
Q 1100 0 847 248 
Q 594 497 594 1153 
L 594 3053 
L 172 3053 
L 172 3500 
L 594 3500 
L 594 4494 
L 1172 4494 
z
" transform="scale(0.015625)"/>
      <path id="DejaVuSans-20" transform="scale(0.015625)"/>
      <path id="DejaVuSans-76" d="M 191 3500 
L 800 3500 
L 1894 563 
L 2988 3500 
L 3597 3500 
L 2284 0 
L 1503 0 
L 191 3500 
z
" transform="scale(0.015625)"/>
      <path id="DejaVuSans-63" d="M 3122 3366 
L 3122 2828 
Q 2878 2963 2633 3030 
Q 2388 3097 2138 3097 
Q 1578 3097 1268 2742 
Q 959 2388 959 1747 
Q 959 1106 1268 751 
Q 1578 397 2138 397 
Q 2388 397 2633 464 
Q 2878 531 3122 666 
L 3122 134 
Q 2881 22 2623 -34 
Q 2366 -91 2075 -91 
Q 1284 -91 818 406 
Q 353 903 353 1747 
Q 353 2603 823 3093 
Q 1294 3584 2113 3584 
Q 2378 3584 2631 3529 
Q 2884 3475 3122 3366 
z
" transform="scale(0.015625)"/>
      <path id="DejaVuSans-6f" d="M 1959 3097 
Q 1497 3097 1228 2736 
Q 959 2375 959 1747 
Q 959 1119 1226 758 
Q 1494 397 1959 397 
Q 2419 397 2687 759 
Q 2956 1122 2956 1747 
Q 2956 2369 2687 2733 
Q 2419 3097 1959 3097 
z
M 1959 3584 
Q 2709 3584 3137 3096 
Q 3566 2609 3566 1747 
Q 3566 888 3137 398 
Q 2709 -91 1959 -91 
Q 1206 -91 779 398 
Q 353 888 353 1747 
Q 353 2609 779 3096 
Q 1206 3584 1959 3584 
z
" transform="scale(0.015625)"/>
      <path id="DejaVuSans-73" d="M 2834 3397 
L 2834 2853 
Q 2591 2978 2328 3040 
Q 2066 3103 1784 3103 
Q 1356 3103 1142 2972 
Q 928 2841 928 2578 
Q 928 2378 1081 2264 
Q 1234 2150 1697 2047 
L 1894 2003 
Q 2506 1872 2764 1633 
Q 3022 1394 3022 966 
Q 3022 478 2636 193 
Q 2250 -91 1575 -91 
Q 1294 -91 989 -36 
Q 684 19 347 128 
L 347 722 
Q 666 556 975 473 
Q 1284 391 1588 391 
Q 1994 391 2212 530 
Q 2431 669 2431 922 
Q 2431 1156 2273 1281 
Q 2116 1406 1581 1522 
L 1381 1569 
Q 847 1681 609 1914 
Q 372 2147 372 2553 
Q 372 3047 722 3315 
Q 1072 3584 1716 3584 
Q 2034 3584 2315 3537 
Q 2597 3491 2834 3397 
z
" transform="scale(0.015625)"/>
      <path id="DejaVuSans-70" d="M 1159 525 
L 1159 -1331 
L 581 -1331 
L 581 3500 
L 1159 3500 
L 1159 2969 
Q 1341 3281 1617 3432 
Q 1894 3584 2278 3584 
Q 2916 3584 3314 3078 
Q 3713 2572 3713 1747 
Q 3713 922 3314 415 
Q 2916 -91 2278 -91 
Q 1894 -91 1617 61 
Q 1341 213 1159 525 
z
M 3116 1747 
Q 3116 2381 2855 2742 
Q 2594 3103 2138 3103 
Q 1681 3103 1420 2742 
Q 1159 2381 1159 1747 
Q 1159 1113 1420 752 
Q 1681 391 2138 391 
Q 2594 391 2855 752 
Q 3116 1113 3116 1747 
z
" transform="scale(0.015625)"/>
      <path id="DejaVuSans-77" d="M 269 3500 
L 844 3500 
L 1563 769 
L 2278 3500 
L 2956 3500 
L 3675 769 
L 4391 3500 
L 4966 3500 
L 4050 0 
L 3372 0 
L 2619 2869 
L 1863 0 
L 1184 0 
L 269 3500 
z
" transform="scale(0.015625)"/>
     </defs>
     <use xlink:href="#DejaVuSans-47"/>
     <use xlink:href="#DejaVuSans-72" transform="translate(77.490234 0)"/>
     <use xlink:href="#DejaVuSans-61" transform="translate(118.603516 0)"/>
     <use xlink:href="#DejaVuSans-64" transform="translate(179.882812 0)"/>
     <use xlink:href="#DejaVuSans-69" transform="translate(243.359375 0)"/>
     <use xlink:href="#DejaVuSans-65" transform="translate(271.142578 0)"/>
     <use xlink:href="#DejaVuSans-6e" transform="translate(332.666016 0)"/>
     <use xlink:href="#DejaVuSans-74" transform="translate(396.044922 0)"/>
     <use xlink:href="#DejaVuSans-20" transform="translate(435.253906 0)"/>
     <use xlink:href="#DejaVuSans-76" transform="translate(467.041016 0)"/>
     <use xlink:href="#DejaVuSans-65" transform="translate(526.220703 0)"/>
     <use xlink:href="#DejaVuSans-63" transform="translate(587.744141 0)"/>
     <use xlink:href="#DejaVuSans-74" transform="translate(642.724609 0)"/>
     <use xlink:href="#DejaVuSans-6f" transform="translate(681.933594 0)"/>
     <use xlink:href="#DejaVuSans-72" transform="translate(743.115234 0)"/>
     <use xlink:href="#DejaVuSans-73" transform="translate(784.228516 0)"/>
     <use xlink:href="#DejaVuSans-20" transform="translate(836.328125 0)"/>
     <use xlink:href="#DejaVuSans-70" transform="translate(868.115234 0)"/>
     <use xlink:href="#DejaVuSans-6f" transform="translate(931.591797 0)"/>
     <use xlink:href="#DejaVuSans-69" transform="translate(992.773438 0)"/>
     <use xlink:href="#DejaVuSans-6e" transform="translate(1020.556641 0)"/>
     <use xlink:href="#DejaVuSans-74" transform="translate(1083.935547 0)"/>
     <use xlink:href="#DejaVuSans-20" transform="translate(1123.144531 0)"/>
     <use xlink:href="#DejaVuSans-74" transform="translate(1154.931641 0)"/>
     <use xlink:href="#DejaVuSans-6f" transform="translate(1194.140625 0)"/>
     <use xlink:href="#DejaVuSans-77" transform="translate(1255.322266 0)"/>
     <use xlink:href="#DejaVuSans-61" transform="translate(1337.109375 0)"/>
     <use xlink:href="#DejaVuSans-72" transform="translate(1398.388672 0)"/>
     <use xlink:href="#DejaVuSans-64" transform="translate(1437.751953 0)"/>
     <use xlink:href="#DejaVuSans-20" transform="translate(1501.228516 0)"/>
     <use xlink:href="#DejaVuSans-73" transform="translate(1533.015625 0)"/>
     <use xlink:href="#DejaVuSans-74" transform="translate(1585.115234 0)"/>
     <use xlink:href="#DejaVuSans-65" transform="translate(1624.324219 0)"/>
     <use xlink:href="#DejaVuSans-65" transform="translate(1685.847656 0)"/>
     <use xlink:href="#DejaVuSans-70" transform="translate(1747.371094 0)"/>
     <use xlink:href="#DejaVuSans-65" transform="translate(1810.847656 0)"/>
     <use xlink:href="#DejaVuSans-73" transform="translate(1872.371094 0)"/>
     <use xlink:href="#DejaVuSans-74" transform="translate(1924.470703 0)"/>
     <use xlink:href="#DejaVuSans-20" transform="translate(1963.679688 0)"/>
     <use xlink:href="#DejaVuSans-61" transform="translate(1995.466797 0)"/>
     <use xlink:href="#DejaVuSans-73" transform="translate(2056.746094 0)"/>
     <use xlink:href="#DejaVuSans-63" transform="translate(2108.845703 0)"/>
     <use xlink:href="#DejaVuSans-65" transform="translate(2163.826172 0)"/>
     <use xlink:href="#DejaVuSans-6e" transform="translate(2225.349609 0)"/>
     <use xlink:href="#DejaVuSans-74" transform="translate(2288.728516 0)"/>
    </g>
    <!-- (perpendicular to contours) -->
    <g transform="translate(107.884188 29.7555) scale(0.12 -0.12)">
     <defs>
      <path id="DejaVuSans-28" d="M 1984 4856 
Q 1566 4138 1362 3434 
Q 1159 2731 1159 2009 
Q 1159 1288 1364 580 
Q 1569 -128 1984 -844 
L 1484 -844 
Q 1016 -109 783 600 
Q 550 1309 550 2009 
Q 550 2706 781 3412 
Q 1013 4119 1484 4856 
L 1984 4856 
z
" transform="scale(0.015625)"/>
      <path id="DejaVuSans-75" d="M 544 1381 
L 544 3500 
L 1119 3500 
L 1119 1403 
Q 1119 906 1312 657 
Q 1506 409 1894 409 
Q 2359 409 2629 706 
Q 2900 1003 2900 1516 
L 2900 3500 
L 3475 3500 
L 3475 0 
L 2900 0 
L 2900 538 
Q 2691 219 2414 64 
Q 2138 -91 1772 -91 
Q 1169 -91 856 284 
Q 544 659 544 1381 
z
M 1991 3584 
L 1991 3584 
z
" transform="scale(0.015625)"/>
      <path id="DejaVuSans-6c" d="M 603 4863 
L 1178 4863 
L 1178 0 
L 603 0 
L 603 4863 
z
" transform="scale(0.015625)"/>
      <path id="DejaVuSans-29" d="M 513 4856 
L 1013 4856 
Q 1481 4119 1714 3412 
Q 1947 2706 1947 2009 
Q 1947 1309 1714 600 
Q 1481 -109 1013 -844 
L 513 -844 
Q 928 -128 1133 580 
Q 1338 1288 1338 2009 
Q 1338 2731 1133 3434 
Q 928 4138 513 4856 
z
" transform="scale(0.015625)"/>
     </defs>
     <use xlink:href="#DejaVuSans-28"/>
     <use xlink:href="#DejaVuSans-70" transform="translate(39.013672 0)"/>
     <use xlink:href="#DejaVuSans-65" transform="translate(102.490234 0)"/>
     <use xlink:href="#DejaVuSans-72" transform="translate(164.013672 0)"/>
     <use xlink:href="#DejaVuSans-70" transform="translate(205.126953 0)"/>
     <use xlink:href="#DejaVuSans-65" transform="translate(268.603516 0)"/>
     <use xlink:href="#DejaVuSans-6e" transform="translate(330.126953 0)"/>
     <use xlink:href="#DejaVuSans-64" transform="translate(393.505859 0)"/>
     <use xlink:href="#DejaVuSans-69" transform="translate(456.982422 0)"/>
     <use xlink:href="#DejaVuSans-63" transform="translate(484.765625 0)"/>
     <use xlink:href="#DejaVuSans-75" transform="translate(539.746094 0)"/>
     <use xlink:href="#DejaVuSans-6c" transform="translate(603.125 0)"/>
     <use xlink:href="#DejaVuSans-61" transform="translate(630.908203 0)"/>
     <use xlink:href="#DejaVuSans-72" transform="translate(692.1875 0)"/>
     <use xlink:href="#DejaVuSans-20" transform="translate(733.300781 0)"/>
     <use xlink:href="#DejaVuSans-74" transform="translate(765.087891 0)"/>
     <use xlink:href="#DejaVuSans-6f" transform="translate(804.296875 0)"/>
     <use xlink:href="#DejaVuSans-20" transform="translate(865.478516 0)"/>
     <use xlink:href="#DejaVuSans-63" transform="translate(897.265625 0)"/>
     <use xlink:href="#DejaVuSans-6f" transform="translate(952.246094 0)"/>
     <use xlink:href="#DejaVuSans-6e" transform="translate(1013.427734 0)"/>
     <use xlink:href="#DejaVuSans-74" transform="translate(1076.806641 0)"/>
     <use xlink:href="#DejaVuSans-6f" transform="translate(1116.015625 0)"/>
     <use xlink:href="#DejaVuSans-75" transform="translate(1177.197266 0)"/>
     <use xlink:href="#DejaVuSans-72" transform="translate(1240.576172 0)"/>
     <use xlink:href="#DejaVuSans-73" transform="translate(1281.689453 0)"/>
     <use xlink:href="#DejaVuSans-29" transform="translate(1333.789062 0)"/>
    </g>
   </g>
   <g id="text_22">
    <g clip-path="url(#p41838f1155)">
     <!-- 1.5 -->
     <g style="fill: #084a91" transform="translate(223.073606 127.206178) rotate(-340.601793) scale(0.08 -0.08)">
      <use xlink:href="#DejaVuSans-31"/>
      <use xlink:href="#DejaVuSans-2e" transform="translate(63.623047 0)"/>
      <use xlink:href="#DejaVuSans-35" transform="translate(95.410156 0)"/>
     </g>
    </g>
   </g>
   <g id="text_23">
    <g clip-path="url(#p41838f1155)">
     <!-- 3.0 -->
     <g style="fill: #1764ab" transform="translate(120.384951 236.0045) rotate(-337.300793) scale(0.08 -0.08)">
      <defs>
       <path id="DejaVuSans-33" d="M 2597 2516 
Q 3050 2419 3304 2112 
Q 3559 1806 3559 1356 
Q 3559 666 3084 287 
Q 2609 -91 1734 -91 
Q 1441 -91 1130 -33 
Q 819 25 488 141 
L 488 750 
Q 750 597 1062 519 
Q 1375 441 1716 441 
Q 2309 441 2620 675 
Q 2931 909 2931 1356 
Q 2931 1769 2642 2001 
Q 2353 2234 1838 2234 
L 1294 2234 
L 1294 2753 
L 1863 2753 
Q 2328 2753 2575 2939 
Q 2822 3125 2822 3475 
Q 2822 3834 2567 4026 
Q 2313 4219 1838 4219 
Q 1578 4219 1281 4162 
Q 984 4106 628 3988 
L 628 4550 
Q 988 4650 1302 4700 
Q 1616 4750 1894 4750 
Q 2613 4750 3031 4423 
Q 3450 4097 3450 3541 
Q 3450 3153 3228 2886 
Q 3006 2619 2597 2516 
z
" transform="scale(0.015625)"/>
      </defs>
      <use xlink:href="#DejaVuSans-33"/>
      <use xlink:href="#DejaVuSans-2e" transform="translate(63.623047 0)"/>
      <use xlink:href="#DejaVuSans-30" transform="translate(95.410156 0)"/>
     </g>
    </g>
   </g>
   <g id="text_24">
    <g clip-path="url(#p41838f1155)">
     <!-- 4.5 -->
     <g style="fill: #2e7ebc" transform="translate(106.505312 250.245665) rotate(-337.447004) scale(0.08 -0.08)">
      <defs>
       <path id="DejaVuSans-34" d="M 2419 4116 
L 825 1625 
L 2419 1625 
L 2419 4116 
z
M 2253 4666 
L 3047 4666 
L 3047 1625 
L 3713 1625 
L 3713 1100 
L 3047 1100 
L 3047 0 
L 2419 0 
L 2419 1100 
L 313 1100 
L 313 1709 
L 2253 4666 
z
" transform="scale(0.015625)"/>
      </defs>
      <use xlink:href="#DejaVuSans-34"/>
      <use xlink:href="#DejaVuSans-2e" transform="translate(63.623047 0)"/>
      <use xlink:href="#DejaVuSans-35" transform="translate(95.410156 0)"/>
     </g>
    </g>
   </g>
   <g id="text_25">
    <g clip-path="url(#p41838f1155)">
     <!-- 6.0 -->
     <g style="fill: #4a98c9" transform="translate(246.400388 277.128832) rotate(-14.401975) scale(0.08 -0.08)">
      <defs>
       <path id="DejaVuSans-36" d="M 2113 2584 
Q 1688 2584 1439 2293 
Q 1191 2003 1191 1497 
Q 1191 994 1439 701 
Q 1688 409 2113 409 
Q 2538 409 2786 701 
Q 3034 994 3034 1497 
Q 3034 2003 2786 2293 
Q 2538 2584 2113 2584 
z
M 3366 4563 
L 3366 3988 
Q 3128 4100 2886 4159 
Q 2644 4219 2406 4219 
Q 1781 4219 1451 3797 
Q 1122 3375 1075 2522 
Q 1259 2794 1537 2939 
Q 1816 3084 2150 3084 
Q 2853 3084 3261 2657 
Q 3669 2231 3669 1497 
Q 3669 778 3244 343 
Q 2819 -91 2113 -91 
Q 1303 -91 875 529 
Q 447 1150 447 2328 
Q 447 3434 972 4092 
Q 1497 4750 2381 4750 
Q 2619 4750 2861 4703 
Q 3103 4656 3366 4563 
z
" transform="scale(0.015625)"/>
      </defs>
      <use xlink:href="#DejaVuSans-36"/>
      <use xlink:href="#DejaVuSans-2e" transform="translate(63.623047 0)"/>
      <use xlink:href="#DejaVuSans-30" transform="translate(95.410156 0)"/>
     </g>
    </g>
   </g>
   <g id="text_26">
    <g clip-path="url(#p41838f1155)">
     <!-- 6.0 -->
     <g style="fill: #4a98c9" transform="translate(122.88091 78.006807) rotate(-14.401975) scale(0.08 -0.08)">
      <use xlink:href="#DejaVuSans-36"/>
      <use xlink:href="#DejaVuSans-2e" transform="translate(63.623047 0)"/>
      <use xlink:href="#DejaVuSans-30" transform="translate(95.410156 0)"/>
     </g>
    </g>
   </g>
   <g id="text_27">
    <g clip-path="url(#p41838f1155)">
     <!-- 7.5 -->
     <g style="fill: #6caed6" transform="translate(256.153595 288.170165) rotate(-14.985691) scale(0.08 -0.08)">
      <defs>
       <path id="DejaVuSans-37" d="M 525 4666 
L 3525 4666 
L 3525 4397 
L 1831 0 
L 1172 0 
L 2766 4134 
L 525 4134 
L 525 4666 
z
" transform="scale(0.015625)"/>
      </defs>
      <use xlink:href="#DejaVuSans-37"/>
      <use xlink:href="#DejaVuSans-2e" transform="translate(63.623047 0)"/>
      <use xlink:href="#DejaVuSans-35" transform="translate(95.410156 0)"/>
     </g>
    </g>
   </g>
   <g id="text_28">
    <g clip-path="url(#p41838f1155)">
     <!-- 7.5 -->
     <g style="fill: #6caed6" transform="translate(255.011974 63.789683) rotate(-345.014309) scale(0.08 -0.08)">
      <use xlink:href="#DejaVuSans-37"/>
      <use xlink:href="#DejaVuSans-2e" transform="translate(63.623047 0)"/>
      <use xlink:href="#DejaVuSans-35" transform="translate(95.410156 0)"/>
     </g>
    </g>
   </g>
   <g id="text_29">
    <g clip-path="url(#p41838f1155)">
     <!-- 9.0 -->
     <g style="fill: #94c4df" transform="translate(270.139779 296.468325) rotate(-16.584957) scale(0.08 -0.08)">
      <defs>
       <path id="DejaVuSans-39" d="M 703 97 
L 703 672 
Q 941 559 1184 500 
Q 1428 441 1663 441 
Q 2288 441 2617 861 
Q 2947 1281 2994 2138 
Q 2813 1869 2534 1725 
Q 2256 1581 1919 1581 
Q 1219 1581 811 2004 
Q 403 2428 403 3163 
Q 403 3881 828 4315 
Q 1253 4750 1959 4750 
Q 2769 4750 3195 4129 
Q 3622 3509 3622 2328 
Q 3622 1225 3098 567 
Q 2575 -91 1691 -91 
Q 1453 -91 1209 -44 
Q 966 3 703 97 
z
M 1959 2075 
Q 2384 2075 2632 2365 
Q 2881 2656 2881 3163 
Q 2881 3666 2632 3958 
Q 2384 4250 1959 4250 
Q 1534 4250 1286 3958 
Q 1038 3666 1038 3163 
Q 1038 2656 1286 2365 
Q 1534 2075 1959 2075 
z
" transform="scale(0.015625)"/>
      </defs>
      <use xlink:href="#DejaVuSans-39"/>
      <use xlink:href="#DejaVuSans-2e" transform="translate(63.623047 0)"/>
      <use xlink:href="#DejaVuSans-30" transform="translate(95.410156 0)"/>
     </g>
    </g>
   </g>
   <g id="text_30">
    <g clip-path="url(#p41838f1155)">
     <!-- 9.0 -->
     <g style="fill: #94c4df" transform="translate(99.433086 59.089469) rotate(-16.584957) scale(0.08 -0.08)">
      <use xlink:href="#DejaVuSans-39"/>
      <use xlink:href="#DejaVuSans-2e" transform="translate(63.623047 0)"/>
      <use xlink:href="#DejaVuSans-30" transform="translate(95.410156 0)"/>
     </g>
    </g>
   </g>
   <g id="text_31">
    <g clip-path="url(#p41838f1155)">
     <!-- 10.5 -->
     <g style="fill: #b7d4ea" transform="translate(85.611758 300.29635) rotate(-342.703657) scale(0.08 -0.08)">
      <use xlink:href="#DejaVuSans-31"/>
      <use xlink:href="#DejaVuSans-30" transform="translate(63.623047 0)"/>
      <use xlink:href="#DejaVuSans-2e" transform="translate(127.246094 0)"/>
      <use xlink:href="#DejaVuSans-35" transform="translate(159.033203 0)"/>
     </g>
    </g>
   </g>
   <g id="text_32">
    <g clip-path="url(#p41838f1155)">
     <!-- 10.5 -->
     <g style="fill: #b7d4ea" transform="translate(288.422831 301.746059) rotate(-19.643484) scale(0.08 -0.08)">
      <use xlink:href="#DejaVuSans-31"/>
      <use xlink:href="#DejaVuSans-30" transform="translate(63.623047 0)"/>
      <use xlink:href="#DejaVuSans-2e" transform="translate(127.246094 0)"/>
      <use xlink:href="#DejaVuSans-35" transform="translate(159.033203 0)"/>
     </g>
    </g>
   </g>
   <g id="text_33">
    <g clip-path="url(#p41838f1155)">
     <!-- 10.5 -->
     <g style="fill: #b7d4ea" transform="translate(76.791361 56.094964) rotate(-19.643484) scale(0.08 -0.08)">
      <use xlink:href="#DejaVuSans-31"/>
      <use xlink:href="#DejaVuSans-30" transform="translate(63.623047 0)"/>
      <use xlink:href="#DejaVuSans-2e" transform="translate(127.246094 0)"/>
      <use xlink:href="#DejaVuSans-35" transform="translate(159.033203 0)"/>
     </g>
    </g>
   </g>
   <g id="text_34">
    <g clip-path="url(#p41838f1155)">
     <!-- 10.5 -->
     <g style="fill: #b7d4ea" transform="translate(276.574461 46.318099) rotate(-342.703657) scale(0.08 -0.08)">
      <use xlink:href="#DejaVuSans-31"/>
      <use xlink:href="#DejaVuSans-30" transform="translate(63.623047 0)"/>
      <use xlink:href="#DejaVuSans-2e" transform="translate(127.246094 0)"/>
      <use xlink:href="#DejaVuSans-35" transform="translate(159.033203 0)"/>
     </g>
    </g>
   </g>
   <g id="text_35">
    <g clip-path="url(#p41838f1155)">
     <!-- 12.0 -->
     <g style="fill: #d0e1f2" transform="translate(50.419998 295.098085) rotate(-336.195809) scale(0.08 -0.08)">
      <use xlink:href="#DejaVuSans-31"/>
      <use xlink:href="#DejaVuSans-32" transform="translate(63.623047 0)"/>
      <use xlink:href="#DejaVuSans-2e" transform="translate(127.246094 0)"/>
      <use xlink:href="#DejaVuSans-30" transform="translate(159.033203 0)"/>
     </g>
    </g>
   </g>
   <g id="text_36">
    <g clip-path="url(#p41838f1155)">
     <!-- 12.0 -->
     <g style="fill: #d0e1f2" transform="translate(309.892412 304.145355) rotate(-22.854811) scale(0.08 -0.08)">
      <use xlink:href="#DejaVuSans-31"/>
      <use xlink:href="#DejaVuSans-32" transform="translate(63.623047 0)"/>
      <use xlink:href="#DejaVuSans-2e" transform="translate(127.246094 0)"/>
      <use xlink:href="#DejaVuSans-30" transform="translate(159.033203 0)"/>
     </g>
    </g>
   </g>
   <g id="text_37">
    <g clip-path="url(#p41838f1155)">
     <!-- 12.0 -->
     <g style="fill: #d0e1f2" transform="translate(55.914161 54.536359) rotate(-22.854811) scale(0.08 -0.08)">
      <use xlink:href="#DejaVuSans-31"/>
      <use xlink:href="#DejaVuSans-32" transform="translate(63.623047 0)"/>
      <use xlink:href="#DejaVuSans-2e" transform="translate(127.246094 0)"/>
      <use xlink:href="#DejaVuSans-30" transform="translate(159.033203 0)"/>
     </g>
    </g>
   </g>
   <g id="text_38">
    <g clip-path="url(#p41838f1155)">
     <!-- 12.0 -->
     <g style="fill: #d0e1f2" transform="translate(312.006736 49.446989) rotate(-336.195809) scale(0.08 -0.08)">
      <use xlink:href="#DejaVuSans-31"/>
      <use xlink:href="#DejaVuSans-32" transform="translate(63.623047 0)"/>
      <use xlink:href="#DejaVuSans-2e" transform="translate(127.246094 0)"/>
      <use xlink:href="#DejaVuSans-30" transform="translate(159.033203 0)"/>
     </g>
    </g>
   </g>
  </g>
 </g>
 <defs>
  <clipPath id="p41838f1155">
   <rect x="52.160938" y="35.7555" width="276.184" height="276.184"/>
  </clipPath>
 </defs>
</svg>
