<svg xmlns="http://www.w3.org/2000/svg" width="700" height="260" viewBox="0 0 700 260">
<rect width="100%" height="100%" fill="white"/>
<text x="350" y="22" font-size="14" text-anchor="middle" font-family="sans-serif">Skewness and log1p</text>
<rect x="40" y="60" width="280" height="160" fill="none" stroke="#333" stroke-width="0.8"/>
<text x="180.0" y="52" font-size="11" text-anchor="middle" font-family="sans-serif">Original (right-skewed)</text>
<rect x="42.00" y="191.21" width="24.00" height="26.79" fill="#4C78A8" fill-opacity="0.8"/>
<rect x="70.00" y="153.71" width="24.00" height="64.29" fill="#4C78A8" fill-opacity="0.8"/>
<rect x="98.00" y="110.86" width="24.00" height="107.14" fill="#4C78A8" fill-opacity="0.8"/>
<rect x="126.00" y="68.00" width="24.00" height="150.00" fill="#4C78A8" fill-opacity="0.8"/>
<rect x="154.00" y="100.14" width="24.00" height="117.86" fill="#4C78A8" fill-opacity="0.8"/>
<rect x="182.00" y="132.29" width="24.00" height="85.71" fill="#4C78A8" fill-opacity="0.8"/>
<rect x="210.00" y="164.43" width="24.00" height="53.57" fill="#4C78A8" fill-opacity="0.8"/>
<rect x="238.00" y="185.86" width="24.00" height="32.14" fill="#4C78A8" fill-opacity="0.8"/>
<rect x="266.00" y="196.57" width="24.00" height="21.43" fill="#4C78A8" fill-opacity="0.8"/>
<rect x="294.00" y="207.29" width="24.00" height="10.71" fill="#4C78A8" fill-opacity="0.8"/>
<rect x="380" y="60" width="280" height="160" fill="none" stroke="#333" stroke-width="0.8"/>
<text x="520.0" y="52" font-size="11" text-anchor="middle" font-family="sans-serif">After log1p</text>
<rect x="382.00" y="185.86" width="24.00" height="32.14" fill="#F58518" fill-opacity="0.8"/>
<rect x="410.00" y="164.43" width="24.00" height="53.57" fill="#F58518" fill-opacity="0.8"/>
<rect x="438.00" y="143.00" width="24.00" height="75.00" fill="#F58518" fill-opacity="0.8"/>
<rect x="466.00" y="121.57" width="24.00" height="96.43" fill="#F58518" fill-opacity="0.8"/>
<rect x="494.00" y="110.86" width="24.00" height="107.14" fill="#F58518" fill-opacity="0.8"/>
<rect x="522.00" y="121.57" width="24.00" height="96.43" fill="#F58518" fill-opacity="0.8"/>
<rect x="550.00" y="143.00" width="24.00" height="75.00" fill="#F58518" fill-opacity="0.8"/>
<rect x="578.00" y="164.43" width="24.00" height="53.57" fill="#F58518" fill-opacity="0.8"/>
<rect x="606.00" y="185.86" width="24.00" height="32.14" fill="#F58518" fill-opacity="0.8"/>
<rect x="634.00" y="196.57" width="24.00" height="21.43" fill="#F58518" fill-opacity="0.8"/>
</svg>