<?xml version="1.0" encoding="utf-8" standalone="no"?>
<!DOCTYPE svg PUBLIC "-//W3C//DTD SVG 1.1//EN"
  "http://www.w3.org/Graphics/SVG/1.1/DTD/svg11.dtd">
<svg xmlns:xlink="http://www.w3.org/1999/xlink" width="928.558125pt" height="278.742313pt" viewBox="0 0 928.558125 278.742313" xmlns="http://www.w3.org/2000/svg" version="1.1">
 <metadata>
  <rdf:RDF xmlns:dc="http://purl.org/dc/elements/1.1/" xmlns:cc="http://creativecommons.org/ns#" xmlns:rdf="http://www.w3.org/1999/02/22-rdf-syntax-ns#">
   <cc:Work>
    <dc:type rdf:resource="http://purl.org/dc/dcmitype/StillImage"/>
    <dc:date>2026-05-26T09:24:17.889268</dc:date>
    <dc:format>image/svg+xml</dc:format>
    <dc:creator>
     <cc:Agent>
      <dc:title>Matplotlib v3.10.8, https://matplotlib.org/</dc:title>
     </cc:Agent>
    </dc:creator>
   </cc:Work>
  </rdf:RDF>
 </metadata>
 <defs>
  <style type="text/css">*{stroke-linejoin: round; stroke-linecap: butt}</style>
 </defs>
 <g id="figure_1">
  <g id="patch_1">
   <path d="M 0 278.742313 
L 928.558125 278.742313 
L 928.558125 0 
L 0 0 
z
" style="fill: #ffffff"/>
  </g>
  <g id="axes_1">
   <g id="patch_2">
    <path d="M 53.328125 241.186063 
L 330.594084 241.186063 
L 330.594084 43.194062 
L 53.328125 43.194062 
z
" style="fill: #ffffff"/>
   </g>
   <g id="patch_3">
    <path d="M 65.931123 241.186063 
L 72.232622 241.186063 
L 72.232622 230.512639 
L 65.931123 230.512639 
z
" clip-path="url(#p0d3d88016c)" style="fill: #7aa6c2; opacity: 0.6; stroke: #ffffff; stroke-linejoin: miter"/>
   </g>
   <g id="patch_4">
    <path d="M 72.232622 241.186063 
L 78.534121 241.186063 
L 78.534121 178.390756 
L 72.232622 178.390756 
z
" clip-path="url(#p0d3d88016c)" style="fill: #7aa6c2; opacity: 0.6; stroke: #ffffff; stroke-linejoin: miter"/>
   </g>
   <g id="patch_5">
    <path d="M 78.534121 241.186063 
L 84.83562 241.186063 
L 84.83562 127.158325 
L 78.534121 127.158325 
z
" clip-path="url(#p0d3d88016c)" style="fill: #7aa6c2; opacity: 0.6; stroke: #ffffff; stroke-linejoin: miter"/>
   </g>
   <g id="patch_6">
    <path d="M 84.83562 241.186063 
L 91.137119 241.186063 
L 91.137119 112.749204 
L 84.83562 112.749204 
z
" clip-path="url(#p0d3d88016c)" style="fill: #7aa6c2; opacity: 0.6; stroke: #ffffff; stroke-linejoin: miter"/>
   </g>
   <g id="patch_7">
    <path d="M 91.137119 241.186063 
L 97.438619 241.186063 
L 97.438619 121.465832 
L 91.137119 121.465832 
z
" clip-path="url(#p0d3d88016c)" style="fill: #7aa6c2; opacity: 0.6; stroke: #ffffff; stroke-linejoin: miter"/>
   </g>
   <g id="patch_8">
    <path d="M 97.438619 241.186063 
L 103.740118 241.186063 
L 103.740118 151.707198 
L 97.438619 151.707198 
z
" clip-path="url(#p0d3d88016c)" style="fill: #7aa6c2; opacity: 0.6; stroke: #ffffff; stroke-linejoin: miter"/>
   </g>
   <g id="patch_9">
    <path d="M 103.740118 241.186063 
L 110.041617 241.186063 
L 110.041617 165.048977 
L 103.740118 165.048977 
z
" clip-path="url(#p0d3d88016c)" style="fill: #7aa6c2; opacity: 0.6; stroke: #ffffff; stroke-linejoin: miter"/>
   </g>
   <g id="patch_10">
    <path d="M 110.041617 241.186063 
L 116.343116 241.186063 
L 116.343116 179.635989 
L 110.041617 179.635989 
z
" clip-path="url(#p0d3d88016c)" style="fill: #7aa6c2; opacity: 0.6; stroke: #ffffff; stroke-linejoin: miter"/>
   </g>
   <g id="patch_11">
    <path d="M 116.343116 241.186063 
L 122.644615 241.186063 
L 122.644615 192.266206 
L 116.343116 192.266206 
z
" clip-path="url(#p0d3d88016c)" style="fill: #7aa6c2; opacity: 0.6; stroke: #ffffff; stroke-linejoin: miter"/>
   </g>
   <g id="patch_12">
    <path d="M 122.644615 241.186063 
L 128.946114 241.186063 
L 128.946114 204.896424 
L 122.644615 204.896424 
z
" clip-path="url(#p0d3d88016c)" style="fill: #7aa6c2; opacity: 0.6; stroke: #ffffff; stroke-linejoin: miter"/>
   </g>
   <g id="patch_13">
    <path d="M 128.946114 241.186063 
L 135.247613 241.186063 
L 135.247613 211.122587 
L 128.946114 211.122587 
z
" clip-path="url(#p0d3d88016c)" style="fill: #7aa6c2; opacity: 0.6; stroke: #ffffff; stroke-linejoin: miter"/>
   </g>
   <g id="patch_14">
    <path d="M 135.247613 241.186063 
L 141.549112 241.186063 
L 141.549112 216.637189 
L 135.247613 216.637189 
z
" clip-path="url(#p0d3d88016c)" style="fill: #7aa6c2; opacity: 0.6; stroke: #ffffff; stroke-linejoin: miter"/>
   </g>
   <g id="patch_15">
    <path d="M 141.549112 241.186063 
L 147.850611 241.186063 
L 147.850611 222.507572 
L 141.549112 222.507572 
z
" clip-path="url(#p0d3d88016c)" style="fill: #7aa6c2; opacity: 0.6; stroke: #ffffff; stroke-linejoin: miter"/>
   </g>
   <g id="patch_16">
    <path d="M 147.850611 241.186063 
L 154.15211 241.186063 
L 154.15211 227.844284 
L 147.850611 227.844284 
z
" clip-path="url(#p0d3d88016c)" style="fill: #7aa6c2; opacity: 0.6; stroke: #ffffff; stroke-linejoin: miter"/>
   </g>
   <g id="patch_17">
    <path d="M 154.15211 241.186063 
L 160.453609 241.186063 
L 160.453609 229.623187 
L 154.15211 229.623187 
z
" clip-path="url(#p0d3d88016c)" style="fill: #7aa6c2; opacity: 0.6; stroke: #ffffff; stroke-linejoin: miter"/>
   </g>
   <g id="patch_18">
    <path d="M 160.453609 241.186063 
L 166.755108 241.186063 
L 166.755108 232.647324 
L 160.453609 232.647324 
z
" clip-path="url(#p0d3d88016c)" style="fill: #7aa6c2; opacity: 0.6; stroke: #ffffff; stroke-linejoin: miter"/>
   </g>
   <g id="patch_19">
    <path d="M 166.755108 241.186063 
L 173.056607 241.186063 
L 173.056607 234.959899 
L 166.755108 234.959899 
z
" clip-path="url(#p0d3d88016c)" style="fill: #7aa6c2; opacity: 0.6; stroke: #ffffff; stroke-linejoin: miter"/>
   </g>
   <g id="patch_20">
    <path d="M 173.056607 241.186063 
L 179.358107 241.186063 
L 179.358107 235.849351 
L 173.056607 235.849351 
z
" clip-path="url(#p0d3d88016c)" style="fill: #7aa6c2; opacity: 0.6; stroke: #ffffff; stroke-linejoin: miter"/>
   </g>
   <g id="patch_21">
    <path d="M 179.358107 241.186063 
L 185.659606 241.186063 
L 185.659606 235.849351 
L 179.358107 235.849351 
z
" clip-path="url(#p0d3d88016c)" style="fill: #7aa6c2; opacity: 0.6; stroke: #ffffff; stroke-linejoin: miter"/>
   </g>
   <g id="patch_22">
    <path d="M 185.659606 241.186063 
L 191.961105 241.186063 
L 191.961105 237.984036 
L 185.659606 237.984036 
z
" clip-path="url(#p0d3d88016c)" style="fill: #7aa6c2; opacity: 0.6; stroke: #ffffff; stroke-linejoin: miter"/>
   </g>
   <g id="patch_23">
    <path d="M 191.961105 241.186063 
L 198.262604 241.186063 
L 198.262604 238.695597 
L 191.961105 238.695597 
z
" clip-path="url(#p0d3d88016c)" style="fill: #7aa6c2; opacity: 0.6; stroke: #ffffff; stroke-linejoin: miter"/>
   </g>
   <g id="patch_24">
    <path d="M 198.262604 241.186063 
L 204.564103 241.186063 
L 204.564103 238.339816 
L 198.262604 238.339816 
z
" clip-path="url(#p0d3d88016c)" style="fill: #7aa6c2; opacity: 0.6; stroke: #ffffff; stroke-linejoin: miter"/>
   </g>
   <g id="patch_25">
    <path d="M 204.564103 241.186063 
L 210.865602 241.186063 
L 210.865602 239.585049 
L 204.564103 239.585049 
z
" clip-path="url(#p0d3d88016c)" style="fill: #7aa6c2; opacity: 0.6; stroke: #ffffff; stroke-linejoin: miter"/>
   </g>
   <g id="patch_26">
    <path d="M 210.865602 241.186063 
L 217.167101 241.186063 
L 217.167101 239.229268 
L 210.865602 239.229268 
z
" clip-path="url(#p0d3d88016c)" style="fill: #7aa6c2; opacity: 0.6; stroke: #ffffff; stroke-linejoin: miter"/>
   </g>
   <g id="patch_27">
    <path d="M 217.167101 241.186063 
L 223.4686 241.186063 
L 223.4686 240.474501 
L 217.167101 240.474501 
z
" clip-path="url(#p0d3d88016c)" style="fill: #7aa6c2; opacity: 0.6; stroke: #ffffff; stroke-linejoin: miter"/>
   </g>
   <g id="patch_28">
    <path d="M 223.4686 241.186063 
L 229.770099 241.186063 
L 229.770099 240.11872 
L 223.4686 240.11872 
z
" clip-path="url(#p0d3d88016c)" style="fill: #7aa6c2; opacity: 0.6; stroke: #ffffff; stroke-linejoin: miter"/>
   </g>
   <g id="patch_29">
    <path d="M 229.770099 241.186063 
L 236.071598 241.186063 
L 236.071598 240.296611 
L 229.770099 240.296611 
z
" clip-path="url(#p0d3d88016c)" style="fill: #7aa6c2; opacity: 0.6; stroke: #ffffff; stroke-linejoin: miter"/>
   </g>
   <g id="patch_30">
    <path d="M 236.071598 241.186063 
L 242.373097 241.186063 
L 242.373097 240.474501 
L 236.071598 240.474501 
z
" clip-path="url(#p0d3d88016c)" style="fill: #7aa6c2; opacity: 0.6; stroke: #ffffff; stroke-linejoin: miter"/>
   </g>
   <g id="patch_31">
    <path d="M 242.373097 241.186063 
L 248.674596 241.186063 
L 248.674596 240.652391 
L 242.373097 240.652391 
z
" clip-path="url(#p0d3d88016c)" style="fill: #7aa6c2; opacity: 0.6; stroke: #ffffff; stroke-linejoin: miter"/>
   </g>
   <g id="patch_32">
    <path d="M 248.674596 241.186063 
L 254.976095 241.186063 
L 254.976095 240.652391 
L 248.674596 240.652391 
z
" clip-path="url(#p0d3d88016c)" style="fill: #7aa6c2; opacity: 0.6; stroke: #ffffff; stroke-linejoin: miter"/>
   </g>
   <g id="patch_33">
    <path d="M 254.976095 241.186063 
L 261.277595 241.186063 
L 261.277595 241.186063 
L 254.976095 241.186063 
z
" clip-path="url(#p0d3d88016c)" style="fill: #7aa6c2; opacity: 0.6; stroke: #ffffff; stroke-linejoin: miter"/>
   </g>
   <g id="patch_34">
    <path d="M 261.277595 241.186063 
L 267.579094 241.186063 
L 267.579094 240.652391 
L 261.277595 240.652391 
z
" clip-path="url(#p0d3d88016c)" style="fill: #7aa6c2; opacity: 0.6; stroke: #ffffff; stroke-linejoin: miter"/>
   </g>
   <g id="patch_35">
    <path d="M 267.579094 241.186063 
L 273.880593 241.186063 
L 273.880593 241.186063 
L 267.579094 241.186063 
z
" clip-path="url(#p0d3d88016c)" style="fill: #7aa6c2; opacity: 0.6; stroke: #ffffff; stroke-linejoin: miter"/>
   </g>
   <g id="patch_36">
    <path d="M 273.880593 241.186063 
L 280.182092 241.186063 
L 280.182092 241.008172 
L 273.880593 241.008172 
z
" clip-path="url(#p0d3d88016c)" style="fill: #7aa6c2; opacity: 0.6; stroke: #ffffff; stroke-linejoin: miter"/>
   </g>
   <g id="patch_37">
    <path d="M 280.182092 241.186063 
L 286.483591 241.186063 
L 286.483591 241.008172 
L 280.182092 241.008172 
z
" clip-path="url(#p0d3d88016c)" style="fill: #7aa6c2; opacity: 0.6; stroke: #ffffff; stroke-linejoin: miter"/>
   </g>
   <g id="patch_38">
    <path d="M 286.483591 241.186063 
L 292.78509 241.186063 
L 292.78509 241.008172 
L 286.483591 241.008172 
z
" clip-path="url(#p0d3d88016c)" style="fill: #7aa6c2; opacity: 0.6; stroke: #ffffff; stroke-linejoin: miter"/>
   </g>
   <g id="patch_39">
    <path d="M 292.78509 241.186063 
L 299.086589 241.186063 
L 299.086589 241.186063 
L 292.78509 241.186063 
z
" clip-path="url(#p0d3d88016c)" style="fill: #7aa6c2; opacity: 0.6; stroke: #ffffff; stroke-linejoin: miter"/>
   </g>
   <g id="patch_40">
    <path d="M 299.086589 241.186063 
L 305.388088 241.186063 
L 305.388088 241.186063 
L 299.086589 241.186063 
z
" clip-path="url(#p0d3d88016c)" style="fill: #7aa6c2; opacity: 0.6; stroke: #ffffff; stroke-linejoin: miter"/>
   </g>
   <g id="patch_41">
    <path d="M 305.388088 241.186063 
L 311.689587 241.186063 
L 311.689587 241.186063 
L 305.388088 241.186063 
z
" clip-path="url(#p0d3d88016c)" style="fill: #7aa6c2; opacity: 0.6; stroke: #ffffff; stroke-linejoin: miter"/>
   </g>
   <g id="patch_42">
    <path d="M 311.689587 241.186063 
L 317.991086 241.186063 
L 317.991086 241.008172 
L 311.689587 241.008172 
z
" clip-path="url(#p0d3d88016c)" style="fill: #7aa6c2; opacity: 0.6; stroke: #ffffff; stroke-linejoin: miter"/>
   </g>
   <g id="matplotlib.axis_1">
    <g id="xtick_1">
     <g id="line2d_1">
      <path d="M 62.442737 241.186063 
L 62.442737 43.194062 
" clip-path="url(#p0d3d88016c)" style="fill: none; stroke: #b0b0b0; stroke-opacity: 0.25; stroke-width: 0.8; stroke-linecap: square"/>
     </g>
     <g id="line2d_2">
      <defs>
       <path id="m62f1c9f08b" d="M 0 0 
L 0 3.5 
" style="stroke: #000000; stroke-width: 0.8"/>
      </defs>
      <g>
       <use xlink:href="#m62f1c9f08b" x="62.442737" y="241.186063" style="stroke: #000000; stroke-width: 0.8"/>
      </g>
     </g>
     <g id="text_1">
      <!-- 0 -->
      <g transform="translate(59.261487 255.7845) scale(0.1 -0.1)">
       <defs>
        <path id="DejaVuSans-30" d="M 2034 4250 
Q 1547 4250 1301 3770 
Q 1056 3291 1056 2328 
Q 1056 1369 1301 889 
Q 1547 409 2034 409 
Q 2525 409 2770 889 
Q 3016 1369 3016 2328 
Q 3016 3291 2770 3770 
Q 2525 4250 2034 4250 
z
M 2034 4750 
Q 2819 4750 3233 4129 
Q 3647 3509 3647 2328 
Q 3647 1150 3233 529 
Q 2819 -91 2034 -91 
Q 1250 -91 836 529 
Q 422 1150 422 2328 
Q 422 3509 836 4129 
Q 1250 4750 2034 4750 
z
" transform="scale(0.015625)"/>
       </defs>
       <use xlink:href="#DejaVuSans-30"/>
      </g>
     </g>
    </g>
    <g id="xtick_2">
     <g id="line2d_3">
      <path d="M 98.643934 241.186063 
L 98.643934 43.194062 
" clip-path="url(#p0d3d88016c)" style="fill: none; stroke: #b0b0b0; stroke-opacity: 0.25; stroke-width: 0.8; stroke-linecap: square"/>
     </g>
     <g id="line2d_4">
      <g>
       <use xlink:href="#m62f1c9f08b" x="98.643934" y="241.186063" style="stroke: #000000; stroke-width: 0.8"/>
      </g>
     </g>
     <g id="text_2">
      <!-- 1 -->
      <g transform="translate(95.462684 255.7845) scale(0.1 -0.1)">
       <defs>
        <path id="DejaVuSans-31" d="M 794 531 
L 1825 531 
L 1825 4091 
L 703 3866 
L 703 4441 
L 1819 4666 
L 2450 4666 
L 2450 531 
L 3481 531 
L 3481 0 
L 794 0 
L 794 531 
z
" transform="scale(0.015625)"/>
       </defs>
       <use xlink:href="#DejaVuSans-31"/>
      </g>
     </g>
    </g>
    <g id="xtick_3">
     <g id="line2d_5">
      <path d="M 134.845131 241.186063 
L 134.845131 43.194062 
" clip-path="url(#p0d3d88016c)" style="fill: none; stroke: #b0b0b0; stroke-opacity: 0.25; stroke-width: 0.8; stroke-linecap: square"/>
     </g>
     <g id="line2d_6">
      <g>
       <use xlink:href="#m62f1c9f08b" x="134.845131" y="241.186063" style="stroke: #000000; stroke-width: 0.8"/>
      </g>
     </g>
     <g id="text_3">
      <!-- 2 -->
      <g transform="translate(131.663881 255.7845) scale(0.1 -0.1)">
       <defs>
        <path id="DejaVuSans-32" d="M 1228 531 
L 3431 531 
L 3431 0 
L 469 0 
L 469 531 
Q 828 903 1448 1529 
Q 2069 2156 2228 2338 
Q 2531 2678 2651 2914 
Q 2772 3150 2772 3378 
Q 2772 3750 2511 3984 
Q 2250 4219 1831 4219 
Q 1534 4219 1204 4116 
Q 875 4013 500 3803 
L 500 4441 
Q 881 4594 1212 4672 
Q 1544 4750 1819 4750 
Q 2544 4750 2975 4387 
Q 3406 4025 3406 3419 
Q 3406 3131 3298 2873 
Q 3191 2616 2906 2266 
Q 2828 2175 2409 1742 
Q 1991 1309 1228 531 
z
" transform="scale(0.015625)"/>
       </defs>
       <use xlink:href="#DejaVuSans-32"/>
      </g>
     </g>
    </g>
    <g id="xtick_4">
     <g id="line2d_7">
      <path d="M 171.046328 241.186063 
L 171.046328 43.194062 
" clip-path="url(#p0d3d88016c)" style="fill: none; stroke: #b0b0b0; stroke-opacity: 0.25; stroke-width: 0.8; stroke-linecap: square"/>
     </g>
     <g id="line2d_8">
      <g>
       <use xlink:href="#m62f1c9f08b" x="171.046328" y="241.186063" style="stroke: #000000; stroke-width: 0.8"/>
      </g>
     </g>
     <g id="text_4">
      <!-- 3 -->
      <g transform="translate(167.865078 255.7845) scale(0.1 -0.1)">
       <defs>
        <path id="DejaVuSans-33" d="M 2597 2516 
Q 3050 2419 3304 2112 
Q 3559 1806 3559 1356 
Q 3559 666 3084 287 
Q 2609 -91 1734 -91 
Q 1441 -91 1130 -33 
Q 819 25 488 141 
L 488 750 
Q 750 597 1062 519 
Q 1375 441 1716 441 
Q 2309 441 2620 675 
Q 2931 909 2931 1356 
Q 2931 1769 2642 2001 
Q 2353 2234 1838 2234 
L 1294 2234 
L 1294 2753 
L 1863 2753 
Q 2328 2753 2575 2939 
Q 2822 3125 2822 3475 
Q 2822 3834 2567 4026 
Q 2313 4219 1838 4219 
Q 1578 4219 1281 4162 
Q 984 4106 628 3988 
L 628 4550 
Q 988 4650 1302 4700 
Q 1616 4750 1894 4750 
Q 2613 4750 3031 4423 
Q 3450 4097 3450 3541 
Q 3450 3153 3228 2886 
Q 3006 2619 2597 2516 
z
" transform="scale(0.015625)"/>
       </defs>
       <use xlink:href="#DejaVuSans-33"/>
      </g>
     </g>
    </g>
    <g id="xtick_5">
     <g id="line2d_9">
      <path d="M 207.247525 241.186063 
L 207.247525 43.194062 
" clip-path="url(#p0d3d88016c)" style="fill: none; stroke: #b0b0b0; stroke-opacity: 0.25; stroke-width: 0.8; stroke-linecap: square"/>
     </g>
     <g id="line2d_10">
      <g>
       <use xlink:href="#m62f1c9f08b" x="207.247525" y="241.186063" style="stroke: #000000; stroke-width: 0.8"/>
      </g>
     </g>
     <g id="text_5">
      <!-- 4 -->
      <g transform="translate(204.066275 255.7845) scale(0.1 -0.1)">
       <defs>
        <path id="DejaVuSans-34" d="M 2419 4116 
L 825 1625 
L 2419 1625 
L 2419 4116 
z
M 2253 4666 
L 3047 4666 
L 3047 1625 
L 3713 1625 
L 3713 1100 
L 3047 1100 
L 3047 0 
L 2419 0 
L 2419 1100 
L 313 1100 
L 313 1709 
L 2253 4666 
z
" transform="scale(0.015625)"/>
       </defs>
       <use xlink:href="#DejaVuSans-34"/>
      </g>
     </g>
    </g>
    <g id="xtick_6">
     <g id="line2d_11">
      <path d="M 243.448721 241.186063 
L 243.448721 43.194062 
" clip-path="url(#p0d3d88016c)" style="fill: none; stroke: #b0b0b0; stroke-opacity: 0.25; stroke-width: 0.8; stroke-linecap: square"/>
     </g>
     <g id="line2d_12">
      <g>
       <use xlink:href="#m62f1c9f08b" x="243.448721" y="241.186063" style="stroke: #000000; stroke-width: 0.8"/>
      </g>
     </g>
     <g id="text_6">
      <!-- 5 -->
      <g transform="translate(240.267471 255.7845) scale(0.1 -0.1)">
       <defs>
        <path id="DejaVuSans-35" d="M 691 4666 
L 3169 4666 
L 3169 4134 
L 1269 4134 
L 1269 2991 
Q 1406 3038 1543 3061 
Q 1681 3084 1819 3084 
Q 2600 3084 3056 2656 
Q 3513 2228 3513 1497 
Q 3513 744 3044 326 
Q 2575 -91 1722 -91 
Q 1428 -91 1123 -41 
Q 819 9 494 109 
L 494 744 
Q 775 591 1075 516 
Q 1375 441 1709 441 
Q 2250 441 2565 725 
Q 2881 1009 2881 1497 
Q 2881 1984 2565 2268 
Q 2250 2553 1709 2553 
Q 1456 2553 1204 2497 
Q 953 2441 691 2322 
L 691 4666 
z
" transform="scale(0.015625)"/>
       </defs>
       <use xlink:href="#DejaVuSans-35"/>
      </g>
     </g>
    </g>
    <g id="xtick_7">
     <g id="line2d_13">
      <path d="M 279.649918 241.186063 
L 279.649918 43.194062 
" clip-path="url(#p0d3d88016c)" style="fill: none; stroke: #b0b0b0; stroke-opacity: 0.25; stroke-width: 0.8; stroke-linecap: square"/>
     </g>
     <g id="line2d_14">
      <g>
       <use xlink:href="#m62f1c9f08b" x="279.649918" y="241.186063" style="stroke: #000000; stroke-width: 0.8"/>
      </g>
     </g>
     <g id="text_7">
      <!-- 6 -->
      <g transform="translate(276.468668 255.7845) scale(0.1 -0.1)">
       <defs>
        <path id="DejaVuSans-36" d="M 2113 2584 
Q 1688 2584 1439 2293 
Q 1191 2003 1191 1497 
Q 1191 994 1439 701 
Q 1688 409 2113 409 
Q 2538 409 2786 701 
Q 3034 994 3034 1497 
Q 3034 2003 2786 2293 
Q 2538 2584 2113 2584 
z
M 3366 4563 
L 3366 3988 
Q 3128 4100 2886 4159 
Q 2644 4219 2406 4219 
Q 1781 4219 1451 3797 
Q 1122 3375 1075 2522 
Q 1259 2794 1537 2939 
Q 1816 3084 2150 3084 
Q 2853 3084 3261 2657 
Q 3669 2231 3669 1497 
Q 3669 778 3244 343 
Q 2819 -91 2113 -91 
Q 1303 -91 875 529 
Q 447 1150 447 2328 
Q 447 3434 972 4092 
Q 1497 4750 2381 4750 
Q 2619 4750 2861 4703 
Q 3103 4656 3366 4563 
z
" transform="scale(0.015625)"/>
       </defs>
       <use xlink:href="#DejaVuSans-36"/>
      </g>
     </g>
    </g>
    <g id="xtick_8">
     <g id="line2d_15">
      <path d="M 315.851115 241.186063 
L 315.851115 43.194062 
" clip-path="url(#p0d3d88016c)" style="fill: none; stroke: #b0b0b0; stroke-opacity: 0.25; stroke-width: 0.8; stroke-linecap: square"/>
     </g>
     <g id="line2d_16">
      <g>
       <use xlink:href="#m62f1c9f08b" x="315.851115" y="241.186063" style="stroke: #000000; stroke-width: 0.8"/>
      </g>
     </g>
     <g id="text_8">
      <!-- 7 -->
      <g transform="translate(312.669865 255.7845) scale(0.1 -0.1)">
       <defs>
        <path id="DejaVuSans-37" d="M 525 4666 
L 3525 4666 
L 3525 4397 
L 1831 0 
L 1172 0 
L 2766 4134 
L 525 4134 
L 525 4666 
z
" transform="scale(0.015625)"/>
       </defs>
       <use xlink:href="#DejaVuSans-37"/>
      </g>
     </g>
    </g>
    <g id="text_9">
     <!-- value -->
     <g transform="translate(178.303292 269.462625) scale(0.1 -0.1)">
      <defs>
       <path id="DejaVuSans-76" d="M 191 3500 
L 800 3500 
L 1894 563 
L 2988 3500 
L 3597 3500 
L 2284 0 
L 1503 0 
L 191 3500 
z
" transform="scale(0.015625)"/>
       <path id="DejaVuSans-61" d="M 2194 1759 
Q 1497 1759 1228 1600 
Q 959 1441 959 1056 
Q 959 750 1161 570 
Q 1363 391 1709 391 
Q 2188 391 2477 730 
Q 2766 1069 2766 1631 
L 2766 1759 
L 2194 1759 
z
M 3341 1997 
L 3341 0 
L 2766 0 
L 2766 531 
Q 2569 213 2275 61 
Q 1981 -91 1556 -91 
Q 1019 -91 701 211 
Q 384 513 384 1019 
Q 384 1609 779 1909 
Q 1175 2209 1959 2209 
L 2766 2209 
L 2766 2266 
Q 2766 2663 2505 2880 
Q 2244 3097 1772 3097 
Q 1472 3097 1187 3025 
Q 903 2953 641 2809 
L 641 3341 
Q 956 3463 1253 3523 
Q 1550 3584 1831 3584 
Q 2591 3584 2966 3190 
Q 3341 2797 3341 1997 
z
" transform="scale(0.015625)"/>
       <path id="DejaVuSans-6c" d="M 603 4863 
L 1178 4863 
L 1178 0 
L 603 0 
L 603 4863 
z
" transform="scale(0.015625)"/>
       <path id="DejaVuSans-75" d="M 544 1381 
L 544 3500 
L 1119 3500 
L 1119 1403 
Q 1119 906 1312 657 
Q 1506 409 1894 409 
Q 2359 409 2629 706 
Q 2900 1003 2900 1516 
L 2900 3500 
L 3475 3500 
L 3475 0 
L 2900 0 
L 2900 538 
Q 2691 219 2414 64 
Q 2138 -91 1772 -91 
Q 1169 -91 856 284 
Q 544 659 544 1381 
z
M 1991 3584 
L 1991 3584 
z
" transform="scale(0.015625)"/>
       <path id="DejaVuSans-65" d="M 3597 1894 
L 3597 1613 
L 953 1613 
Q 991 1019 1311 708 
Q 1631 397 2203 397 
Q 2534 397 2845 478 
Q 3156 559 3463 722 
L 3463 178 
Q 3153 47 2828 -22 
Q 2503 -91 2169 -91 
Q 1331 -91 842 396 
Q 353 884 353 1716 
Q 353 2575 817 3079 
Q 1281 3584 2069 3584 
Q 2775 3584 3186 3129 
Q 3597 2675 3597 1894 
z
M 3022 2063 
Q 3016 2534 2758 2815 
Q 2500 3097 2075 3097 
Q 1594 3097 1305 2825 
Q 1016 2553 972 2059 
L 3022 2063 
z
" transform="scale(0.015625)"/>
      </defs>
      <use xlink:href="#DejaVuSans-76"/>
      <use xlink:href="#DejaVuSans-61" transform="translate(59.179688 0)"/>
      <use xlink:href="#DejaVuSans-6c" transform="translate(120.458984 0)"/>
      <use xlink:href="#DejaVuSans-75" transform="translate(148.242188 0)"/>
      <use xlink:href="#DejaVuSans-65" transform="translate(211.621094 0)"/>
     </g>
    </g>
   </g>
   <g id="matplotlib.axis_2">
    <g id="ytick_1">
     <g id="line2d_17">
      <path d="M 53.328125 241.186063 
L 330.594084 241.186063 
" clip-path="url(#p0d3d88016c)" style="fill: none; stroke: #b0b0b0; stroke-opacity: 0.25; stroke-width: 0.8; stroke-linecap: square"/>
     </g>
     <g id="line2d_18">
      <defs>
       <path id="md06b19dc5c" d="M 0 0 
L -3.5 0 
" style="stroke: #000000; stroke-width: 0.8"/>
      </defs>
      <g>
       <use xlink:href="#md06b19dc5c" x="53.328125" y="241.186063" style="stroke: #000000; stroke-width: 0.8"/>
      </g>
     </g>
     <g id="text_10">
      <!-- 0 -->
      <g transform="translate(39.965625 244.985281) scale(0.1 -0.1)">
       <use xlink:href="#DejaVuSans-30"/>
      </g>
     </g>
    </g>
    <g id="ytick_2">
     <g id="line2d_19">
      <path d="M 53.328125 205.607985 
L 330.594084 205.607985 
" clip-path="url(#p0d3d88016c)" style="fill: none; stroke: #b0b0b0; stroke-opacity: 0.25; stroke-width: 0.8; stroke-linecap: square"/>
     </g>
     <g id="line2d_20">
      <g>
       <use xlink:href="#md06b19dc5c" x="53.328125" y="205.607985" style="stroke: #000000; stroke-width: 0.8"/>
      </g>
     </g>
     <g id="text_11">
      <!-- 200 -->
      <g transform="translate(27.240625 209.407204) scale(0.1 -0.1)">
       <use xlink:href="#DejaVuSans-32"/>
       <use xlink:href="#DejaVuSans-30" transform="translate(63.623047 0)"/>
       <use xlink:href="#DejaVuSans-30" transform="translate(127.246094 0)"/>
      </g>
     </g>
    </g>
    <g id="ytick_3">
     <g id="line2d_21">
      <path d="M 53.328125 170.029908 
L 330.594084 170.029908 
" clip-path="url(#p0d3d88016c)" style="fill: none; stroke: #b0b0b0; stroke-opacity: 0.25; stroke-width: 0.8; stroke-linecap: square"/>
     </g>
     <g id="line2d_22">
      <g>
       <use xlink:href="#md06b19dc5c" x="53.328125" y="170.029908" style="stroke: #000000; stroke-width: 0.8"/>
      </g>
     </g>
     <g id="text_12">
      <!-- 400 -->
      <g transform="translate(27.240625 173.829127) scale(0.1 -0.1)">
       <use xlink:href="#DejaVuSans-34"/>
       <use xlink:href="#DejaVuSans-30" transform="translate(63.623047 0)"/>
       <use xlink:href="#DejaVuSans-30" transform="translate(127.246094 0)"/>
      </g>
     </g>
    </g>
    <g id="ytick_4">
     <g id="line2d_23">
      <path d="M 53.328125 134.451831 
L 330.594084 134.451831 
" clip-path="url(#p0d3d88016c)" style="fill: none; stroke: #b0b0b0; stroke-opacity: 0.25; stroke-width: 0.8; stroke-linecap: square"/>
     </g>
     <g id="line2d_24">
      <g>
       <use xlink:href="#md06b19dc5c" x="53.328125" y="134.451831" style="stroke: #000000; stroke-width: 0.8"/>
      </g>
     </g>
     <g id="text_13">
      <!-- 600 -->
      <g transform="translate(27.240625 138.251049) scale(0.1 -0.1)">
       <use xlink:href="#DejaVuSans-36"/>
       <use xlink:href="#DejaVuSans-30" transform="translate(63.623047 0)"/>
       <use xlink:href="#DejaVuSans-30" transform="translate(127.246094 0)"/>
      </g>
     </g>
    </g>
    <g id="ytick_5">
     <g id="line2d_25">
      <path d="M 53.328125 98.873753 
L 330.594084 98.873753 
" clip-path="url(#p0d3d88016c)" style="fill: none; stroke: #b0b0b0; stroke-opacity: 0.25; stroke-width: 0.8; stroke-linecap: square"/>
     </g>
     <g id="line2d_26">
      <g>
       <use xlink:href="#md06b19dc5c" x="53.328125" y="98.873753" style="stroke: #000000; stroke-width: 0.8"/>
      </g>
     </g>
     <g id="text_14">
      <!-- 800 -->
      <g transform="translate(27.240625 102.672972) scale(0.1 -0.1)">
       <defs>
        <path id="DejaVuSans-38" d="M 2034 2216 
Q 1584 2216 1326 1975 
Q 1069 1734 1069 1313 
Q 1069 891 1326 650 
Q 1584 409 2034 409 
Q 2484 409 2743 651 
Q 3003 894 3003 1313 
Q 3003 1734 2745 1975 
Q 2488 2216 2034 2216 
z
M 1403 2484 
Q 997 2584 770 2862 
Q 544 3141 544 3541 
Q 544 4100 942 4425 
Q 1341 4750 2034 4750 
Q 2731 4750 3128 4425 
Q 3525 4100 3525 3541 
Q 3525 3141 3298 2862 
Q 3072 2584 2669 2484 
Q 3125 2378 3379 2068 
Q 3634 1759 3634 1313 
Q 3634 634 3220 271 
Q 2806 -91 2034 -91 
Q 1263 -91 848 271 
Q 434 634 434 1313 
Q 434 1759 690 2068 
Q 947 2378 1403 2484 
z
M 1172 3481 
Q 1172 3119 1398 2916 
Q 1625 2713 2034 2713 
Q 2441 2713 2670 2916 
Q 2900 3119 2900 3481 
Q 2900 3844 2670 4047 
Q 2441 4250 2034 4250 
Q 1625 4250 1398 4047 
Q 1172 3844 1172 3481 
z
" transform="scale(0.015625)"/>
       </defs>
       <use xlink:href="#DejaVuSans-38"/>
       <use xlink:href="#DejaVuSans-30" transform="translate(63.623047 0)"/>
       <use xlink:href="#DejaVuSans-30" transform="translate(127.246094 0)"/>
      </g>
     </g>
    </g>
    <g id="ytick_6">
     <g id="line2d_27">
      <path d="M 53.328125 63.295676 
L 330.594084 63.295676 
" clip-path="url(#p0d3d88016c)" style="fill: none; stroke: #b0b0b0; stroke-opacity: 0.25; stroke-width: 0.8; stroke-linecap: square"/>
     </g>
     <g id="line2d_28">
      <g>
       <use xlink:href="#md06b19dc5c" x="53.328125" y="63.295676" style="stroke: #000000; stroke-width: 0.8"/>
      </g>
     </g>
     <g id="text_15">
      <!-- 1000 -->
      <g transform="translate(20.878125 67.094895) scale(0.1 -0.1)">
       <use xlink:href="#DejaVuSans-31"/>
       <use xlink:href="#DejaVuSans-30" transform="translate(63.623047 0)"/>
       <use xlink:href="#DejaVuSans-30" transform="translate(127.246094 0)"/>
       <use xlink:href="#DejaVuSans-30" transform="translate(190.869141 0)"/>
      </g>
     </g>
    </g>
    <g id="text_16">
     <!-- count -->
     <g transform="translate(14.798438 156.296312) rotate(-90) scale(0.1 -0.1)">
      <defs>
       <path id="DejaVuSans-63" d="M 3122 3366 
L 3122 2828 
Q 2878 2963 2633 3030 
Q 2388 3097 2138 3097 
Q 1578 3097 1268 2742 
Q 959 2388 959 1747 
Q 959 1106 1268 751 
Q 1578 397 2138 397 
Q 2388 397 2633 464 
Q 2878 531 3122 666 
L 3122 134 
Q 2881 22 2623 -34 
Q 2366 -91 2075 -91 
Q 1284 -91 818 406 
Q 353 903 353 1747 
Q 353 2603 823 3093 
Q 1294 3584 2113 3584 
Q 2378 3584 2631 3529 
Q 2884 3475 3122 3366 
z
" transform="scale(0.015625)"/>
       <path id="DejaVuSans-6f" d="M 1959 3097 
Q 1497 3097 1228 2736 
Q 959 2375 959 1747 
Q 959 1119 1226 758 
Q 1494 397 1959 397 
Q 2419 397 2687 759 
Q 2956 1122 2956 1747 
Q 2956 2369 2687 2733 
Q 2419 3097 1959 3097 
z
M 1959 3584 
Q 2709 3584 3137 3096 
Q 3566 2609 3566 1747 
Q 3566 888 3137 398 
Q 2709 -91 1959 -91 
Q 1206 -91 779 398 
Q 353 888 353 1747 
Q 353 2609 779 3096 
Q 1206 3584 1959 3584 
z
" transform="scale(0.015625)"/>
       <path id="DejaVuSans-6e" d="M 3513 2113 
L 3513 0 
L 2938 0 
L 2938 2094 
Q 2938 2591 2744 2837 
Q 2550 3084 2163 3084 
Q 1697 3084 1428 2787 
Q 1159 2491 1159 1978 
L 1159 0 
L 581 0 
L 581 3500 
L 1159 3500 
L 1159 2956 
Q 1366 3272 1645 3428 
Q 1925 3584 2291 3584 
Q 2894 3584 3203 3211 
Q 3513 2838 3513 2113 
z
" transform="scale(0.015625)"/>
       <path id="DejaVuSans-74" d="M 1172 4494 
L 1172 3500 
L 2356 3500 
L 2356 3053 
L 1172 3053 
L 1172 1153 
Q 1172 725 1289 603 
Q 1406 481 1766 481 
L 2356 481 
L 2356 0 
L 1766 0 
Q 1100 0 847 248 
Q 594 497 594 1153 
L 594 3053 
L 172 3053 
L 172 3500 
L 594 3500 
L 594 4494 
L 1172 4494 
z
" transform="scale(0.015625)"/>
      </defs>
      <use xlink:href="#DejaVuSans-63"/>
      <use xlink:href="#DejaVuSans-6f" transform="translate(54.980469 0)"/>
      <use xlink:href="#DejaVuSans-75" transform="translate(116.162109 0)"/>
      <use xlink:href="#DejaVuSans-6e" transform="translate(179.541016 0)"/>
      <use xlink:href="#DejaVuSans-74" transform="translate(242.919922 0)"/>
     </g>
    </g>
   </g>
   <g id="line2d_29">
    <path d="M 105.591417 241.186063 
L 105.591417 43.194062 
" clip-path="url(#p0d3d88016c)" style="fill: none; stroke-dasharray: 7.4,3.2; stroke-dashoffset: 0; stroke: #e15759; stroke-width: 2"/>
   </g>
   <g id="line2d_30">
    <path d="M 98.048252 241.186063 
L 98.048252 43.194062 
" clip-path="url(#p0d3d88016c)" style="fill: none; stroke-dasharray: 7.4,3.2; stroke-dashoffset: 0; stroke: #59a14f; stroke-width: 2"/>
   </g>
   <g id="patch_43">
    <path d="M 53.328125 241.186063 
L 53.328125 43.194062 
" style="fill: none; stroke: #000000; stroke-width: 0.8; stroke-linejoin: miter; stroke-linecap: square"/>
   </g>
   <g id="patch_44">
    <path d="M 330.594084 241.186063 
L 330.594084 43.194062 
" style="fill: none; stroke: #000000; stroke-width: 0.8; stroke-linejoin: miter; stroke-linecap: square"/>
   </g>
   <g id="patch_45">
    <path d="M 53.328125 241.186063 
L 330.594084 241.186063 
" style="fill: none; stroke: #000000; stroke-width: 0.8; stroke-linejoin: miter; stroke-linecap: square"/>
   </g>
   <g id="patch_46">
    <path d="M 53.328125 43.194062 
L 330.594084 43.194062 
" style="fill: none; stroke: #000000; stroke-width: 0.8; stroke-linejoin: miter; stroke-linecap: square"/>
   </g>
   <g id="text_17">
    <!-- Right-skewed (positive) -->
    <g transform="translate(133.152511 14.798437) scale(0.1 -0.1)">
     <defs>
      <path id="DejaVuSans-52" d="M 2841 2188 
Q 3044 2119 3236 1894 
Q 3428 1669 3622 1275 
L 4263 0 
L 3584 0 
L 2988 1197 
Q 2756 1666 2539 1819 
Q 2322 1972 1947 1972 
L 1259 1972 
L 1259 0 
L 628 0 
L 628 4666 
L 2053 4666 
Q 2853 4666 3247 4331 
Q 3641 3997 3641 3322 
Q 3641 2881 3436 2590 
Q 3231 2300 2841 2188 
z
M 1259 4147 
L 1259 2491 
L 2053 2491 
Q 2509 2491 2742 2702 
Q 2975 2913 2975 3322 
Q 2975 3731 2742 3939 
Q 2509 4147 2053 4147 
L 1259 4147 
z
" transform="scale(0.015625)"/>
      <path id="DejaVuSans-69" d="M 603 3500 
L 1178 3500 
L 1178 0 
L 603 0 
L 603 3500 
z
M 603 4863 
L 1178 4863 
L 1178 4134 
L 603 4134 
L 603 4863 
z
" transform="scale(0.015625)"/>
      <path id="DejaVuSans-67" d="M 2906 1791 
Q 2906 2416 2648 2759 
Q 2391 3103 1925 3103 
Q 1463 3103 1205 2759 
Q 947 2416 947 1791 
Q 947 1169 1205 825 
Q 1463 481 1925 481 
Q 2391 481 2648 825 
Q 2906 1169 2906 1791 
z
M 3481 434 
Q 3481 -459 3084 -895 
Q 2688 -1331 1869 -1331 
Q 1566 -1331 1297 -1286 
Q 1028 -1241 775 -1147 
L 775 -588 
Q 1028 -725 1275 -790 
Q 1522 -856 1778 -856 
Q 2344 -856 2625 -561 
Q 2906 -266 2906 331 
L 2906 616 
Q 2728 306 2450 153 
Q 2172 0 1784 0 
Q 1141 0 747 490 
Q 353 981 353 1791 
Q 353 2603 747 3093 
Q 1141 3584 1784 3584 
Q 2172 3584 2450 3431 
Q 2728 3278 2906 2969 
L 2906 3500 
L 3481 3500 
L 3481 434 
z
" transform="scale(0.015625)"/>
      <path id="DejaVuSans-68" d="M 3513 2113 
L 3513 0 
L 2938 0 
L 2938 2094 
Q 2938 2591 2744 2837 
Q 2550 3084 2163 3084 
Q 1697 3084 1428 2787 
Q 1159 2491 1159 1978 
L 1159 0 
L 581 0 
L 581 4863 
L 1159 4863 
L 1159 2956 
Q 1366 3272 1645 3428 
Q 1925 3584 2291 3584 
Q 2894 3584 3203 3211 
Q 3513 2838 3513 2113 
z
" transform="scale(0.015625)"/>
      <path id="DejaVuSans-2d" d="M 313 2009 
L 1997 2009 
L 1997 1497 
L 313 1497 
L 313 2009 
z
" transform="scale(0.015625)"/>
      <path id="DejaVuSans-73" d="M 2834 3397 
L 2834 2853 
Q 2591 2978 2328 3040 
Q 2066 3103 1784 3103 
Q 1356 3103 1142 2972 
Q 928 2841 928 2578 
Q 928 2378 1081 2264 
Q 1234 2150 1697 2047 
L 1894 2003 
Q 2506 1872 2764 1633 
Q 3022 1394 3022 966 
Q 3022 478 2636 193 
Q 2250 -91 1575 -91 
Q 1294 -91 989 -36 
Q 684 19 347 128 
L 347 722 
Q 666 556 975 473 
Q 1284 391 1588 391 
Q 1994 391 2212 530 
Q 2431 669 2431 922 
Q 2431 1156 2273 1281 
Q 2116 1406 1581 1522 
L 1381 1569 
Q 847 1681 609 1914 
Q 372 2147 372 2553 
Q 372 3047 722 3315 
Q 1072 3584 1716 3584 
Q 2034 3584 2315 3537 
Q 2597 3491 2834 3397 
z
" transform="scale(0.015625)"/>
      <path id="DejaVuSans-6b" d="M 581 4863 
L 1159 4863 
L 1159 1991 
L 2875 3500 
L 3609 3500 
L 1753 1863 
L 3688 0 
L 2938 0 
L 1159 1709 
L 1159 0 
L 581 0 
L 581 4863 
z
" transform="scale(0.015625)"/>
      <path id="DejaVuSans-77" d="M 269 3500 
L 844 3500 
L 1563 769 
L 2278 3500 
L 2956 3500 
L 3675 769 
L 4391 3500 
L 4966 3500 
L 4050 0 
L 3372 0 
L 2619 2869 
L 1863 0 
L 1184 0 
L 269 3500 
z
" transform="scale(0.015625)"/>
      <path id="DejaVuSans-64" d="M 2906 2969 
L 2906 4863 
L 3481 4863 
L 3481 0 
L 2906 0 
L 2906 525 
Q 2725 213 2448 61 
Q 2172 -91 1784 -91 
Q 1150 -91 751 415 
Q 353 922 353 1747 
Q 353 2572 751 3078 
Q 1150 3584 1784 3584 
Q 2172 3584 2448 3432 
Q 2725 3281 2906 2969 
z
M 947 1747 
Q 947 1113 1208 752 
Q 1469 391 1925 391 
Q 2381 391 2643 752 
Q 2906 1113 2906 1747 
Q 2906 2381 2643 2742 
Q 2381 3103 1925 3103 
Q 1469 3103 1208 2742 
Q 947 2381 947 1747 
z
" transform="scale(0.015625)"/>
      <path id="DejaVuSans-20" transform="scale(0.015625)"/>
      <path id="DejaVuSans-28" d="M 1984 4856 
Q 1566 4138 1362 3434 
Q 1159 2731 1159 2009 
Q 1159 1288 1364 580 
Q 1569 -128 1984 -844 
L 1484 -844 
Q 1016 -109 783 600 
Q 550 1309 550 2009 
Q 550 2706 781 3412 
Q 1013 4119 1484 4856 
L 1984 4856 
z
" transform="scale(0.015625)"/>
      <path id="DejaVuSans-70" d="M 1159 525 
L 1159 -1331 
L 581 -1331 
L 581 3500 
L 1159 3500 
L 1159 2969 
Q 1341 3281 1617 3432 
Q 1894 3584 2278 3584 
Q 2916 3584 3314 3078 
Q 3713 2572 3713 1747 
Q 3713 922 3314 415 
Q 2916 -91 2278 -91 
Q 1894 -91 1617 61 
Q 1341 213 1159 525 
z
M 3116 1747 
Q 3116 2381 2855 2742 
Q 2594 3103 2138 3103 
Q 1681 3103 1420 2742 
Q 1159 2381 1159 1747 
Q 1159 1113 1420 752 
Q 1681 391 2138 391 
Q 2594 391 2855 752 
Q 3116 1113 3116 1747 
z
" transform="scale(0.015625)"/>
      <path id="DejaVuSans-29" d="M 513 4856 
L 1013 4856 
Q 1481 4119 1714 3412 
Q 1947 2706 1947 2009 
Q 1947 1309 1714 600 
Q 1481 -109 1013 -844 
L 513 -844 
Q 928 -128 1133 580 
Q 1338 1288 1338 2009 
Q 1338 2731 1133 3434 
Q 928 4138 513 4856 
z
" transform="scale(0.015625)"/>
     </defs>
     <use xlink:href="#DejaVuSans-52"/>
     <use xlink:href="#DejaVuSans-69" transform="translate(69.482422 0)"/>
     <use xlink:href="#DejaVuSans-67" transform="translate(97.265625 0)"/>
     <use xlink:href="#DejaVuSans-68" transform="translate(160.742188 0)"/>
     <use xlink:href="#DejaVuSans-74" transform="translate(224.121094 0)"/>
     <use xlink:href="#DejaVuSans-2d" transform="translate(263.330078 0)"/>
     <use xlink:href="#DejaVuSans-73" transform="translate(299.414062 0)"/>
     <use xlink:href="#DejaVuSans-6b" transform="translate(351.513672 0)"/>
     <use xlink:href="#DejaVuSans-65" transform="translate(405.798828 0)"/>
     <use xlink:href="#DejaVuSans-77" transform="translate(467.322266 0)"/>
     <use xlink:href="#DejaVuSans-65" transform="translate(549.109375 0)"/>
     <use xlink:href="#DejaVuSans-64" transform="translate(610.632812 0)"/>
     <use xlink:href="#DejaVuSans-20" transform="translate(674.109375 0)"/>
     <use xlink:href="#DejaVuSans-28" transform="translate(705.896484 0)"/>
     <use xlink:href="#DejaVuSans-70" transform="translate(744.910156 0)"/>
     <use xlink:href="#DejaVuSans-6f" transform="translate(808.386719 0)"/>
     <use xlink:href="#DejaVuSans-73" transform="translate(869.568359 0)"/>
     <use xlink:href="#DejaVuSans-69" transform="translate(921.667969 0)"/>
     <use xlink:href="#DejaVuSans-74" transform="translate(949.451172 0)"/>
     <use xlink:href="#DejaVuSans-69" transform="translate(988.660156 0)"/>
     <use xlink:href="#DejaVuSans-76" transform="translate(1016.443359 0)"/>
     <use xlink:href="#DejaVuSans-65" transform="translate(1075.623047 0)"/>
     <use xlink:href="#DejaVuSans-29" transform="translate(1137.146484 0)"/>
    </g>
    <!-- lognormal -->
    <g transform="translate(166.818917 25.99625) scale(0.1 -0.1)">
     <defs>
      <path id="DejaVuSans-72" d="M 2631 2963 
Q 2534 3019 2420 3045 
Q 2306 3072 2169 3072 
Q 1681 3072 1420 2755 
Q 1159 2438 1159 1844 
L 1159 0 
L 581 0 
L 581 3500 
L 1159 3500 
L 1159 2956 
Q 1341 3275 1631 3429 
Q 1922 3584 2338 3584 
Q 2397 3584 2469 3576 
Q 2541 3569 2628 3553 
L 2631 2963 
z
" transform="scale(0.015625)"/>
      <path id="DejaVuSans-6d" d="M 3328 2828 
Q 3544 3216 3844 3400 
Q 4144 3584 4550 3584 
Q 5097 3584 5394 3201 
Q 5691 2819 5691 2113 
L 5691 0 
L 5113 0 
L 5113 2094 
Q 5113 2597 4934 2840 
Q 4756 3084 4391 3084 
Q 3944 3084 3684 2787 
Q 3425 2491 3425 1978 
L 3425 0 
L 2847 0 
L 2847 2094 
Q 2847 2600 2669 2842 
Q 2491 3084 2119 3084 
Q 1678 3084 1418 2786 
Q 1159 2488 1159 1978 
L 1159 0 
L 581 0 
L 581 3500 
L 1159 3500 
L 1159 2956 
Q 1356 3278 1631 3431 
Q 1906 3584 2284 3584 
Q 2666 3584 2933 3390 
Q 3200 3197 3328 2828 
z
" transform="scale(0.015625)"/>
     </defs>
     <use xlink:href="#DejaVuSans-6c"/>
     <use xlink:href="#DejaVuSans-6f" transform="translate(27.783203 0)"/>
     <use xlink:href="#DejaVuSans-67" transform="translate(88.964844 0)"/>
     <use xlink:href="#DejaVuSans-6e" transform="translate(152.441406 0)"/>
     <use xlink:href="#DejaVuSans-6f" transform="translate(215.820312 0)"/>
     <use xlink:href="#DejaVuSans-72" transform="translate(277.001953 0)"/>
     <use xlink:href="#DejaVuSans-6d" transform="translate(316.365234 0)"/>
     <use xlink:href="#DejaVuSans-61" transform="translate(413.777344 0)"/>
     <use xlink:href="#DejaVuSans-6c" transform="translate(475.056641 0)"/>
    </g>
    <!-- skewness = +1.85 -->
    <g transform="translate(145.331417 37.194062) scale(0.1 -0.1)">
     <defs>
      <path id="DejaVuSans-3d" d="M 678 2906 
L 4684 2906 
L 4684 2381 
L 678 2381 
L 678 2906 
z
M 678 1631 
L 4684 1631 
L 4684 1100 
L 678 1100 
L 678 1631 
z
" transform="scale(0.015625)"/>
      <path id="DejaVuSans-2b" d="M 2944 4013 
L 2944 2272 
L 4684 2272 
L 4684 1741 
L 2944 1741 
L 2944 0 
L 2419 0 
L 2419 1741 
L 678 1741 
L 678 2272 
L 2419 2272 
L 2419 4013 
L 2944 4013 
z
" transform="scale(0.015625)"/>
      <path id="DejaVuSans-2e" d="M 684 794 
L 1344 794 
L 1344 0 
L 684 0 
L 684 794 
z
" transform="scale(0.015625)"/>
     </defs>
     <use xlink:href="#DejaVuSans-73"/>
     <use xlink:href="#DejaVuSans-6b" transform="translate(52.099609 0)"/>
     <use xlink:href="#DejaVuSans-65" transform="translate(106.384766 0)"/>
     <use xlink:href="#DejaVuSans-77" transform="translate(167.908203 0)"/>
     <use xlink:href="#DejaVuSans-6e" transform="translate(249.695312 0)"/>
     <use xlink:href="#DejaVuSans-65" transform="translate(313.074219 0)"/>
     <use xlink:href="#DejaVuSans-73" transform="translate(374.597656 0)"/>
     <use xlink:href="#DejaVuSans-73" transform="translate(426.697266 0)"/>
     <use xlink:href="#DejaVuSans-20" transform="translate(478.796875 0)"/>
     <use xlink:href="#DejaVuSans-3d" transform="translate(510.583984 0)"/>
     <use xlink:href="#DejaVuSans-20" transform="translate(594.373047 0)"/>
     <use xlink:href="#DejaVuSans-2b" transform="translate(626.160156 0)"/>
     <use xlink:href="#DejaVuSans-31" transform="translate(709.949219 0)"/>
     <use xlink:href="#DejaVuSans-2e" transform="translate(773.572266 0)"/>
     <use xlink:href="#DejaVuSans-38" transform="translate(805.359375 0)"/>
     <use xlink:href="#DejaVuSans-35" transform="translate(868.982422 0)"/>
    </g>
   </g>
   <g id="legend_1">
    <g id="patch_47">
     <path d="M 228.455334 76.814687 
L 324.294084 76.814687 
Q 326.094084 76.814687 326.094084 75.014687 
L 326.094084 49.494062 
Q 326.094084 47.694062 324.294084 47.694062 
L 228.455334 47.694062 
Q 226.655334 47.694062 226.655334 49.494062 
L 226.655334 75.014687 
Q 226.655334 76.814687 228.455334 76.814687 
z
" style="fill: #ffffff; opacity: 0.8; stroke: #cccccc; stroke-linejoin: miter"/>
    </g>
    <g id="line2d_31">
     <path d="M 230.255334 54.982656 
L 239.255334 54.982656 
L 248.255334 54.982656 
" style="fill: none; stroke-dasharray: 7.4,3.2; stroke-dashoffset: 0; stroke: #e15759; stroke-width: 2"/>
    </g>
    <g id="text_18">
     <!-- mean = 1.19 -->
     <g transform="translate(255.455334 58.132656) scale(0.09 -0.09)">
      <defs>
       <path id="DejaVuSans-39" d="M 703 97 
L 703 672 
Q 941 559 1184 500 
Q 1428 441 1663 441 
Q 2288 441 2617 861 
Q 2947 1281 2994 2138 
Q 2813 1869 2534 1725 
Q 2256 1581 1919 1581 
Q 1219 1581 811 2004 
Q 403 2428 403 3163 
Q 403 3881 828 4315 
Q 1253 4750 1959 4750 
Q 2769 4750 3195 4129 
Q 3622 3509 3622 2328 
Q 3622 1225 3098 567 
Q 2575 -91 1691 -91 
Q 1453 -91 1209 -44 
Q 966 3 703 97 
z
M 1959 2075 
Q 2384 2075 2632 2365 
Q 2881 2656 2881 3163 
Q 2881 3666 2632 3958 
Q 2384 4250 1959 4250 
Q 1534 4250 1286 3958 
Q 1038 3666 1038 3163 
Q 1038 2656 1286 2365 
Q 1534 2075 1959 2075 
z
" transform="scale(0.015625)"/>
      </defs>
      <use xlink:href="#DejaVuSans-6d"/>
      <use xlink:href="#DejaVuSans-65" transform="translate(97.412109 0)"/>
      <use xlink:href="#DejaVuSans-61" transform="translate(158.935547 0)"/>
      <use xlink:href="#DejaVuSans-6e" transform="translate(220.214844 0)"/>
      <use xlink:href="#DejaVuSans-20" transform="translate(283.59375 0)"/>
      <use xlink:href="#DejaVuSans-3d" transform="translate(315.380859 0)"/>
      <use xlink:href="#DejaVuSans-20" transform="translate(399.169922 0)"/>
      <use xlink:href="#DejaVuSans-31" transform="translate(430.957031 0)"/>
      <use xlink:href="#DejaVuSans-2e" transform="translate(494.580078 0)"/>
      <use xlink:href="#DejaVuSans-31" transform="translate(526.367188 0)"/>
      <use xlink:href="#DejaVuSans-39" transform="translate(589.990234 0)"/>
     </g>
    </g>
    <g id="line2d_32">
     <path d="M 230.255334 68.192969 
L 239.255334 68.192969 
L 248.255334 68.192969 
" style="fill: none; stroke-dasharray: 7.4,3.2; stroke-dashoffset: 0; stroke: #59a14f; stroke-width: 2"/>
    </g>
    <g id="text_19">
     <!-- median = 0.98 -->
     <g transform="translate(255.455334 71.342969) scale(0.09 -0.09)">
      <use xlink:href="#DejaVuSans-6d"/>
      <use xlink:href="#DejaVuSans-65" transform="translate(97.412109 0)"/>
      <use xlink:href="#DejaVuSans-64" transform="translate(158.935547 0)"/>
      <use xlink:href="#DejaVuSans-69" transform="translate(222.412109 0)"/>
      <use xlink:href="#DejaVuSans-61" transform="translate(250.195312 0)"/>
      <use xlink:href="#DejaVuSans-6e" transform="translate(311.474609 0)"/>
      <use xlink:href="#DejaVuSans-20" transform="translate(374.853516 0)"/>
      <use xlink:href="#DejaVuSans-3d" transform="translate(406.640625 0)"/>
      <use xlink:href="#DejaVuSans-20" transform="translate(490.429688 0)"/>
      <use xlink:href="#DejaVuSans-30" transform="translate(522.216797 0)"/>
      <use xlink:href="#DejaVuSans-2e" transform="translate(585.839844 0)"/>
      <use xlink:href="#DejaVuSans-39" transform="translate(617.626953 0)"/>
      <use xlink:href="#DejaVuSans-38" transform="translate(681.25 0)"/>
     </g>
    </g>
   </g>
  </g>
  <g id="axes_2">
   <g id="patch_48">
    <path d="M 348.710145 241.186063 
L 625.976105 241.186063 
L 625.976105 43.194062 
L 348.710145 43.194062 
z
" style="fill: #ffffff"/>
   </g>
   <g id="patch_49">
    <path d="M 361.313143 241.186063 
L 367.614643 241.186063 
L 367.614643 240.296611 
L 361.313143 240.296611 
z
" clip-path="url(#pe1b5078d31)" style="fill: #7aa6c2; opacity: 0.6; stroke: #ffffff; stroke-linejoin: miter"/>
   </g>
   <g id="patch_50">
    <path d="M 367.614643 241.186063 
L 373.916142 241.186063 
L 373.916142 240.830282 
L 367.614643 240.830282 
z
" clip-path="url(#pe1b5078d31)" style="fill: #7aa6c2; opacity: 0.6; stroke: #ffffff; stroke-linejoin: miter"/>
   </g>
   <g id="patch_51">
    <path d="M 373.916142 241.186063 
L 380.217641 241.186063 
L 380.217641 240.296611 
L 373.916142 240.296611 
z
" clip-path="url(#pe1b5078d31)" style="fill: #7aa6c2; opacity: 0.6; stroke: #ffffff; stroke-linejoin: miter"/>
   </g>
   <g id="patch_52">
    <path d="M 380.217641 241.186063 
L 386.51914 241.186063 
L 386.51914 239.051378 
L 380.217641 239.051378 
z
" clip-path="url(#pe1b5078d31)" style="fill: #7aa6c2; opacity: 0.6; stroke: #ffffff; stroke-linejoin: miter"/>
   </g>
   <g id="patch_53">
    <path d="M 386.51914 241.186063 
L 392.820639 241.186063 
L 392.820639 238.161926 
L 386.51914 238.161926 
z
" clip-path="url(#pe1b5078d31)" style="fill: #7aa6c2; opacity: 0.6; stroke: #ffffff; stroke-linejoin: miter"/>
   </g>
   <g id="patch_54">
    <path d="M 392.820639 241.186063 
L 399.122138 241.186063 
L 399.122138 237.450364 
L 392.820639 237.450364 
z
" clip-path="url(#pe1b5078d31)" style="fill: #7aa6c2; opacity: 0.6; stroke: #ffffff; stroke-linejoin: miter"/>
   </g>
   <g id="patch_55">
    <path d="M 399.122138 241.186063 
L 405.423637 241.186063 
L 405.423637 236.738803 
L 399.122138 236.738803 
z
" clip-path="url(#pe1b5078d31)" style="fill: #7aa6c2; opacity: 0.6; stroke: #ffffff; stroke-linejoin: miter"/>
   </g>
   <g id="patch_56">
    <path d="M 405.423637 241.186063 
L 411.725136 241.186063 
L 411.725136 233.892557 
L 405.423637 233.892557 
z
" clip-path="url(#pe1b5078d31)" style="fill: #7aa6c2; opacity: 0.6; stroke: #ffffff; stroke-linejoin: miter"/>
   </g>
   <g id="patch_57">
    <path d="M 411.725136 241.186063 
L 418.026635 241.186063 
L 418.026635 234.959899 
L 411.725136 234.959899 
z
" clip-path="url(#pe1b5078d31)" style="fill: #7aa6c2; opacity: 0.6; stroke: #ffffff; stroke-linejoin: miter"/>
   </g>
   <g id="patch_58">
    <path d="M 418.026635 241.186063 
L 424.328134 241.186063 
L 424.328134 232.291543 
L 418.026635 232.291543 
z
" clip-path="url(#pe1b5078d31)" style="fill: #7aa6c2; opacity: 0.6; stroke: #ffffff; stroke-linejoin: miter"/>
   </g>
   <g id="patch_59">
    <path d="M 424.328134 241.186063 
L 430.629633 241.186063 
L 430.629633 221.79601 
L 424.328134 221.79601 
z
" clip-path="url(#pe1b5078d31)" style="fill: #7aa6c2; opacity: 0.6; stroke: #ffffff; stroke-linejoin: miter"/>
   </g>
   <g id="patch_60">
    <path d="M 430.629633 241.186063 
L 436.931132 241.186063 
L 436.931132 222.507572 
L 430.629633 222.507572 
z
" clip-path="url(#pe1b5078d31)" style="fill: #7aa6c2; opacity: 0.6; stroke: #ffffff; stroke-linejoin: miter"/>
   </g>
   <g id="patch_61">
    <path d="M 436.931132 241.186063 
L 443.232631 241.186063 
L 443.232631 213.435162 
L 436.931132 213.435162 
z
" clip-path="url(#pe1b5078d31)" style="fill: #7aa6c2; opacity: 0.6; stroke: #ffffff; stroke-linejoin: miter"/>
   </g>
   <g id="patch_62">
    <path d="M 443.232631 241.186063 
L 449.534131 241.186063 
L 449.534131 208.632122 
L 443.232631 208.632122 
z
" clip-path="url(#pe1b5078d31)" style="fill: #7aa6c2; opacity: 0.6; stroke: #ffffff; stroke-linejoin: miter"/>
   </g>
   <g id="patch_63">
    <path d="M 449.534131 241.186063 
L 455.83563 241.186063 
L 455.83563 201.516506 
L 449.534131 201.516506 
z
" clip-path="url(#pe1b5078d31)" style="fill: #7aa6c2; opacity: 0.6; stroke: #ffffff; stroke-linejoin: miter"/>
   </g>
   <g id="patch_64">
    <path d="M 455.83563 241.186063 
L 462.137129 241.186063 
L 462.137129 195.112452 
L 455.83563 195.112452 
z
" clip-path="url(#pe1b5078d31)" style="fill: #7aa6c2; opacity: 0.6; stroke: #ffffff; stroke-linejoin: miter"/>
   </g>
   <g id="patch_65">
    <path d="M 462.137129 241.186063 
L 468.438628 241.186063 
L 468.438628 189.775741 
L 462.137129 189.775741 
z
" clip-path="url(#pe1b5078d31)" style="fill: #7aa6c2; opacity: 0.6; stroke: #ffffff; stroke-linejoin: miter"/>
   </g>
   <g id="patch_66">
    <path d="M 468.438628 241.186063 
L 474.740127 241.186063 
L 474.740127 190.665193 
L 468.438628 190.665193 
z
" clip-path="url(#pe1b5078d31)" style="fill: #7aa6c2; opacity: 0.6; stroke: #ffffff; stroke-linejoin: miter"/>
   </g>
   <g id="patch_67">
    <path d="M 474.740127 241.186063 
L 481.041626 241.186063 
L 481.041626 174.655058 
L 474.740127 174.655058 
z
" clip-path="url(#pe1b5078d31)" style="fill: #7aa6c2; opacity: 0.6; stroke: #ffffff; stroke-linejoin: miter"/>
   </g>
   <g id="patch_68">
    <path d="M 481.041626 241.186063 
L 487.343125 241.186063 
L 487.343125 183.015906 
L 481.041626 183.015906 
z
" clip-path="url(#pe1b5078d31)" style="fill: #7aa6c2; opacity: 0.6; stroke: #ffffff; stroke-linejoin: miter"/>
   </g>
   <g id="patch_69">
    <path d="M 487.343125 241.186063 
L 493.644624 241.186063 
L 493.644624 183.015906 
L 487.343125 183.015906 
z
" clip-path="url(#pe1b5078d31)" style="fill: #7aa6c2; opacity: 0.6; stroke: #ffffff; stroke-linejoin: miter"/>
   </g>
   <g id="patch_70">
    <path d="M 493.644624 241.186063 
L 499.946123 241.186063 
L 499.946123 184.61692 
L 493.644624 184.61692 
z
" clip-path="url(#pe1b5078d31)" style="fill: #7aa6c2; opacity: 0.6; stroke: #ffffff; stroke-linejoin: miter"/>
   </g>
   <g id="patch_71">
    <path d="M 499.946123 241.186063 
L 506.247622 241.186063 
L 506.247622 185.684262 
L 499.946123 185.684262 
z
" clip-path="url(#pe1b5078d31)" style="fill: #7aa6c2; opacity: 0.6; stroke: #ffffff; stroke-linejoin: miter"/>
   </g>
   <g id="patch_72">
    <path d="M 506.247622 241.186063 
L 512.549121 241.186063 
L 512.549121 186.929495 
L 506.247622 186.929495 
z
" clip-path="url(#pe1b5078d31)" style="fill: #7aa6c2; opacity: 0.6; stroke: #ffffff; stroke-linejoin: miter"/>
   </g>
   <g id="patch_73">
    <path d="M 512.549121 241.186063 
L 518.85062 241.186063 
L 518.85062 194.04511 
L 512.549121 194.04511 
z
" clip-path="url(#pe1b5078d31)" style="fill: #7aa6c2; opacity: 0.6; stroke: #ffffff; stroke-linejoin: miter"/>
   </g>
   <g id="patch_74">
    <path d="M 518.85062 241.186063 
L 525.152119 241.186063 
L 525.152119 196.713466 
L 518.85062 196.713466 
z
" clip-path="url(#pe1b5078d31)" style="fill: #7aa6c2; opacity: 0.6; stroke: #ffffff; stroke-linejoin: miter"/>
   </g>
   <g id="patch_75">
    <path d="M 525.152119 241.186063 
L 531.453619 241.186063 
L 531.453619 209.877355 
L 525.152119 209.877355 
z
" clip-path="url(#pe1b5078d31)" style="fill: #7aa6c2; opacity: 0.6; stroke: #ffffff; stroke-linejoin: miter"/>
   </g>
   <g id="patch_76">
    <path d="M 531.453619 241.186063 
L 537.755118 241.186063 
L 537.755118 215.391956 
L 531.453619 215.391956 
z
" clip-path="url(#pe1b5078d31)" style="fill: #7aa6c2; opacity: 0.6; stroke: #ffffff; stroke-linejoin: miter"/>
   </g>
   <g id="patch_77">
    <path d="M 537.755118 241.186063 
L 544.056617 241.186063 
L 544.056617 223.930695 
L 537.755118 223.930695 
z
" clip-path="url(#pe1b5078d31)" style="fill: #7aa6c2; opacity: 0.6; stroke: #ffffff; stroke-linejoin: miter"/>
   </g>
   <g id="patch_78">
    <path d="M 544.056617 241.186063 
L 550.358116 241.186063 
L 550.358116 226.776941 
L 544.056617 226.776941 
z
" clip-path="url(#pe1b5078d31)" style="fill: #7aa6c2; opacity: 0.6; stroke: #ffffff; stroke-linejoin: miter"/>
   </g>
   <g id="patch_79">
    <path d="M 550.358116 241.186063 
L 556.659615 241.186063 
L 556.659615 228.555845 
L 550.358116 228.555845 
z
" clip-path="url(#pe1b5078d31)" style="fill: #7aa6c2; opacity: 0.6; stroke: #ffffff; stroke-linejoin: miter"/>
   </g>
   <g id="patch_80">
    <path d="M 556.659615 241.186063 
L 562.961114 241.186063 
L 562.961114 233.536776 
L 556.659615 233.536776 
z
" clip-path="url(#pe1b5078d31)" style="fill: #7aa6c2; opacity: 0.6; stroke: #ffffff; stroke-linejoin: miter"/>
   </g>
   <g id="patch_81">
    <path d="M 562.961114 241.186063 
L 569.262613 241.186063 
L 569.262613 236.027241 
L 562.961114 236.027241 
z
" clip-path="url(#pe1b5078d31)" style="fill: #7aa6c2; opacity: 0.6; stroke: #ffffff; stroke-linejoin: miter"/>
   </g>
   <g id="patch_82">
    <path d="M 569.262613 241.186063 
L 575.564112 241.186063 
L 575.564112 235.849351 
L 569.262613 235.849351 
z
" clip-path="url(#pe1b5078d31)" style="fill: #7aa6c2; opacity: 0.6; stroke: #ffffff; stroke-linejoin: miter"/>
   </g>
   <g id="patch_83">
    <path d="M 575.564112 241.186063 
L 581.865611 241.186063 
L 581.865611 239.407159 
L 575.564112 239.407159 
z
" clip-path="url(#pe1b5078d31)" style="fill: #7aa6c2; opacity: 0.6; stroke: #ffffff; stroke-linejoin: miter"/>
   </g>
   <g id="patch_84">
    <path d="M 581.865611 241.186063 
L 588.16711 241.186063 
L 588.16711 239.94083 
L 581.865611 239.94083 
z
" clip-path="url(#pe1b5078d31)" style="fill: #7aa6c2; opacity: 0.6; stroke: #ffffff; stroke-linejoin: miter"/>
   </g>
   <g id="patch_85">
    <path d="M 588.16711 241.186063 
L 594.468609 241.186063 
L 594.468609 240.474501 
L 588.16711 240.474501 
z
" clip-path="url(#pe1b5078d31)" style="fill: #7aa6c2; opacity: 0.6; stroke: #ffffff; stroke-linejoin: miter"/>
   </g>
   <g id="patch_86">
    <path d="M 594.468609 241.186063 
L 600.770108 241.186063 
L 600.770108 240.296611 
L 594.468609 240.296611 
z
" clip-path="url(#pe1b5078d31)" style="fill: #7aa6c2; opacity: 0.6; stroke: #ffffff; stroke-linejoin: miter"/>
   </g>
   <g id="patch_87">
    <path d="M 600.770108 241.186063 
L 607.071607 241.186063 
L 607.071607 240.830282 
L 600.770108 240.830282 
z
" clip-path="url(#pe1b5078d31)" style="fill: #7aa6c2; opacity: 0.6; stroke: #ffffff; stroke-linejoin: miter"/>
   </g>
   <g id="patch_88">
    <path d="M 607.071607 241.186063 
L 613.373107 241.186063 
L 613.373107 241.008172 
L 607.071607 241.008172 
z
" clip-path="url(#pe1b5078d31)" style="fill: #7aa6c2; opacity: 0.6; stroke: #ffffff; stroke-linejoin: miter"/>
   </g>
   <g id="matplotlib.axis_3">
    <g id="xtick_9">
     <g id="line2d_33">
      <path d="M 348.793238 241.186063 
L 348.793238 43.194062 
" clip-path="url(#pe1b5078d31)" style="fill: none; stroke: #b0b0b0; stroke-opacity: 0.25; stroke-width: 0.8; stroke-linecap: square"/>
     </g>
     <g id="line2d_34">
      <g>
       <use xlink:href="#m62f1c9f08b" x="348.793238" y="241.186063" style="stroke: #000000; stroke-width: 0.8"/>
      </g>
     </g>
     <g id="text_20">
      <!-- −1 -->
      <g transform="translate(341.422145 255.7845) scale(0.1 -0.1)">
       <defs>
        <path id="DejaVuSans-2212" d="M 678 2272 
L 4684 2272 
L 4684 1741 
L 678 1741 
L 678 2272 
z
" transform="scale(0.015625)"/>
       </defs>
       <use xlink:href="#DejaVuSans-2212"/>
       <use xlink:href="#DejaVuSans-31" transform="translate(83.789062 0)"/>
      </g>
     </g>
    </g>
    <g id="xtick_10">
     <g id="line2d_35">
      <path d="M 394.525025 241.186063 
L 394.525025 43.194062 
" clip-path="url(#pe1b5078d31)" style="fill: none; stroke: #b0b0b0; stroke-opacity: 0.25; stroke-width: 0.8; stroke-linecap: square"/>
     </g>
     <g id="line2d_36">
      <g>
       <use xlink:href="#m62f1c9f08b" x="394.525025" y="241.186063" style="stroke: #000000; stroke-width: 0.8"/>
      </g>
     </g>
     <g id="text_21">
      <!-- 0 -->
      <g transform="translate(391.343775 255.7845) scale(0.1 -0.1)">
       <use xlink:href="#DejaVuSans-30"/>
      </g>
     </g>
    </g>
    <g id="xtick_11">
     <g id="line2d_37">
      <path d="M 440.256811 241.186063 
L 440.256811 43.194062 
" clip-path="url(#pe1b5078d31)" style="fill: none; stroke: #b0b0b0; stroke-opacity: 0.25; stroke-width: 0.8; stroke-linecap: square"/>
     </g>
     <g id="line2d_38">
      <g>
       <use xlink:href="#m62f1c9f08b" x="440.256811" y="241.186063" style="stroke: #000000; stroke-width: 0.8"/>
      </g>
     </g>
     <g id="text_22">
      <!-- 1 -->
      <g transform="translate(437.075561 255.7845) scale(0.1 -0.1)">
       <use xlink:href="#DejaVuSans-31"/>
      </g>
     </g>
    </g>
    <g id="xtick_12">
     <g id="line2d_39">
      <path d="M 485.988597 241.186063 
L 485.988597 43.194062 
" clip-path="url(#pe1b5078d31)" style="fill: none; stroke: #b0b0b0; stroke-opacity: 0.25; stroke-width: 0.8; stroke-linecap: square"/>
     </g>
     <g id="line2d_40">
      <g>
       <use xlink:href="#m62f1c9f08b" x="485.988597" y="241.186063" style="stroke: #000000; stroke-width: 0.8"/>
      </g>
     </g>
     <g id="text_23">
      <!-- 2 -->
      <g transform="translate(482.807347 255.7845) scale(0.1 -0.1)">
       <use xlink:href="#DejaVuSans-32"/>
      </g>
     </g>
    </g>
    <g id="xtick_13">
     <g id="line2d_41">
      <path d="M 531.720384 241.186063 
L 531.720384 43.194062 
" clip-path="url(#pe1b5078d31)" style="fill: none; stroke: #b0b0b0; stroke-opacity: 0.25; stroke-width: 0.8; stroke-linecap: square"/>
     </g>
     <g id="line2d_42">
      <g>
       <use xlink:href="#m62f1c9f08b" x="531.720384" y="241.186063" style="stroke: #000000; stroke-width: 0.8"/>
      </g>
     </g>
     <g id="text_24">
      <!-- 3 -->
      <g transform="translate(528.539134 255.7845) scale(0.1 -0.1)">
       <use xlink:href="#DejaVuSans-33"/>
      </g>
     </g>
    </g>
    <g id="xtick_14">
     <g id="line2d_43">
      <path d="M 577.45217 241.186063 
L 577.45217 43.194062 
" clip-path="url(#pe1b5078d31)" style="fill: none; stroke: #b0b0b0; stroke-opacity: 0.25; stroke-width: 0.8; stroke-linecap: square"/>
     </g>
     <g id="line2d_44">
      <g>
       <use xlink:href="#m62f1c9f08b" x="577.45217" y="241.186063" style="stroke: #000000; stroke-width: 0.8"/>
      </g>
     </g>
     <g id="text_25">
      <!-- 4 -->
      <g transform="translate(574.27092 255.7845) scale(0.1 -0.1)">
       <use xlink:href="#DejaVuSans-34"/>
      </g>
     </g>
    </g>
    <g id="xtick_15">
     <g id="line2d_45">
      <path d="M 623.183956 241.186063 
L 623.183956 43.194062 
" clip-path="url(#pe1b5078d31)" style="fill: none; stroke: #b0b0b0; stroke-opacity: 0.25; stroke-width: 0.8; stroke-linecap: square"/>
     </g>
     <g id="line2d_46">
      <g>
       <use xlink:href="#m62f1c9f08b" x="623.183956" y="241.186063" style="stroke: #000000; stroke-width: 0.8"/>
      </g>
     </g>
     <g id="text_26">
      <!-- 5 -->
      <g transform="translate(620.002706 255.7845) scale(0.1 -0.1)">
       <use xlink:href="#DejaVuSans-35"/>
      </g>
     </g>
    </g>
    <g id="text_27">
     <!-- value -->
     <g transform="translate(473.685313 269.462625) scale(0.1 -0.1)">
      <use xlink:href="#DejaVuSans-76"/>
      <use xlink:href="#DejaVuSans-61" transform="translate(59.179688 0)"/>
      <use xlink:href="#DejaVuSans-6c" transform="translate(120.458984 0)"/>
      <use xlink:href="#DejaVuSans-75" transform="translate(148.242188 0)"/>
      <use xlink:href="#DejaVuSans-65" transform="translate(211.621094 0)"/>
     </g>
    </g>
   </g>
   <g id="matplotlib.axis_4">
    <g id="ytick_7">
     <g id="line2d_47">
      <path d="M 348.710145 241.186063 
L 625.976105 241.186063 
" clip-path="url(#pe1b5078d31)" style="fill: none; stroke: #b0b0b0; stroke-opacity: 0.25; stroke-width: 0.8; stroke-linecap: square"/>
     </g>
     <g id="line2d_48">
      <g>
       <use xlink:href="#md06b19dc5c" x="348.710145" y="241.186063" style="stroke: #000000; stroke-width: 0.8"/>
      </g>
     </g>
    </g>
    <g id="ytick_8">
     <g id="line2d_49">
      <path d="M 348.710145 205.607985 
L 625.976105 205.607985 
" clip-path="url(#pe1b5078d31)" style="fill: none; stroke: #b0b0b0; stroke-opacity: 0.25; stroke-width: 0.8; stroke-linecap: square"/>
     </g>
     <g id="line2d_50">
      <g>
       <use xlink:href="#md06b19dc5c" x="348.710145" y="205.607985" style="stroke: #000000; stroke-width: 0.8"/>
      </g>
     </g>
    </g>
    <g id="ytick_9">
     <g id="line2d_51">
      <path d="M 348.710145 170.029908 
L 625.976105 170.029908 
" clip-path="url(#pe1b5078d31)" style="fill: none; stroke: #b0b0b0; stroke-opacity: 0.25; stroke-width: 0.8; stroke-linecap: square"/>
     </g>
     <g id="line2d_52">
      <g>
       <use xlink:href="#md06b19dc5c" x="348.710145" y="170.029908" style="stroke: #000000; stroke-width: 0.8"/>
      </g>
     </g>
    </g>
    <g id="ytick_10">
     <g id="line2d_53">
      <path d="M 348.710145 134.451831 
L 625.976105 134.451831 
" clip-path="url(#pe1b5078d31)" style="fill: none; stroke: #b0b0b0; stroke-opacity: 0.25; stroke-width: 0.8; stroke-linecap: square"/>
     </g>
     <g id="line2d_54">
      <g>
       <use xlink:href="#md06b19dc5c" x="348.710145" y="134.451831" style="stroke: #000000; stroke-width: 0.8"/>
      </g>
     </g>
    </g>
    <g id="ytick_11">
     <g id="line2d_55">
      <path d="M 348.710145 98.873753 
L 625.976105 98.873753 
" clip-path="url(#pe1b5078d31)" style="fill: none; stroke: #b0b0b0; stroke-opacity: 0.25; stroke-width: 0.8; stroke-linecap: square"/>
     </g>
     <g id="line2d_56">
      <g>
       <use xlink:href="#md06b19dc5c" x="348.710145" y="98.873753" style="stroke: #000000; stroke-width: 0.8"/>
      </g>
     </g>
    </g>
    <g id="ytick_12">
     <g id="line2d_57">
      <path d="M 348.710145 63.295676 
L 625.976105 63.295676 
" clip-path="url(#pe1b5078d31)" style="fill: none; stroke: #b0b0b0; stroke-opacity: 0.25; stroke-width: 0.8; stroke-linecap: square"/>
     </g>
     <g id="line2d_58">
      <g>
       <use xlink:href="#md06b19dc5c" x="348.710145" y="63.295676" style="stroke: #000000; stroke-width: 0.8"/>
      </g>
     </g>
    </g>
   </g>
   <g id="line2d_59">
    <path d="M 486.616258 241.186063 
L 486.616258 43.194062 
" clip-path="url(#pe1b5078d31)" style="fill: none; stroke-dasharray: 7.4,3.2; stroke-dashoffset: 0; stroke: #e15759; stroke-width: 2"/>
   </g>
   <g id="line2d_60">
    <path d="M 486.827172 241.186063 
L 486.827172 43.194062 
" clip-path="url(#pe1b5078d31)" style="fill: none; stroke-dasharray: 7.4,3.2; stroke-dashoffset: 0; stroke: #59a14f; stroke-width: 2"/>
   </g>
   <g id="patch_89">
    <path d="M 348.710145 241.186063 
L 348.710145 43.194062 
" style="fill: none; stroke: #000000; stroke-width: 0.8; stroke-linejoin: miter; stroke-linecap: square"/>
   </g>
   <g id="patch_90">
    <path d="M 625.976105 241.186063 
L 625.976105 43.194062 
" style="fill: none; stroke: #000000; stroke-width: 0.8; stroke-linejoin: miter; stroke-linecap: square"/>
   </g>
   <g id="patch_91">
    <path d="M 348.710145 241.186063 
L 625.976105 241.186063 
" style="fill: none; stroke: #000000; stroke-width: 0.8; stroke-linejoin: miter; stroke-linecap: square"/>
   </g>
   <g id="patch_92">
    <path d="M 348.710145 43.194062 
L 625.976105 43.194062 
" style="fill: none; stroke: #000000; stroke-width: 0.8; stroke-linejoin: miter; stroke-linecap: square"/>
   </g>
   <g id="text_28">
    <!-- Symmetric (≈ 0) -->
    <g transform="translate(445.787656 14.798437) scale(0.1 -0.1)">
     <defs>
      <path id="DejaVuSans-53" d="M 3425 4513 
L 3425 3897 
Q 3066 4069 2747 4153 
Q 2428 4238 2131 4238 
Q 1616 4238 1336 4038 
Q 1056 3838 1056 3469 
Q 1056 3159 1242 3001 
Q 1428 2844 1947 2747 
L 2328 2669 
Q 3034 2534 3370 2195 
Q 3706 1856 3706 1288 
Q 3706 609 3251 259 
Q 2797 -91 1919 -91 
Q 1588 -91 1214 -16 
Q 841 59 441 206 
L 441 856 
Q 825 641 1194 531 
Q 1563 422 1919 422 
Q 2459 422 2753 634 
Q 3047 847 3047 1241 
Q 3047 1584 2836 1778 
Q 2625 1972 2144 2069 
L 1759 2144 
Q 1053 2284 737 2584 
Q 422 2884 422 3419 
Q 422 4038 858 4394 
Q 1294 4750 2059 4750 
Q 2388 4750 2728 4690 
Q 3069 4631 3425 4513 
z
" transform="scale(0.015625)"/>
      <path id="DejaVuSans-79" d="M 2059 -325 
Q 1816 -950 1584 -1140 
Q 1353 -1331 966 -1331 
L 506 -1331 
L 506 -850 
L 844 -850 
Q 1081 -850 1212 -737 
Q 1344 -625 1503 -206 
L 1606 56 
L 191 3500 
L 800 3500 
L 1894 763 
L 2988 3500 
L 3597 3500 
L 2059 -325 
z
" transform="scale(0.015625)"/>
      <path id="DejaVuSans-2248" d="M 4684 1947 
L 4684 1388 
Q 4356 1144 4076 1036 
Q 3797 928 3494 928 
Q 3150 928 2694 1113 
Q 2663 1125 2641 1134 
Q 2622 1141 2575 1159 
Q 2091 1350 1797 1350 
Q 1522 1350 1253 1231 
Q 984 1113 678 850 
L 678 1409 
Q 1006 1653 1286 1761 
Q 1566 1869 1869 1869 
Q 2213 1869 2672 1684 
Q 2706 1669 2722 1663 
Q 2741 1656 2788 1638 
Q 3272 1447 3566 1447 
Q 3834 1447 4098 1564 
Q 4363 1681 4684 1947 
z
M 4684 3163 
L 4684 2606 
Q 4356 2359 4076 2251 
Q 3797 2144 3494 2144 
Q 3150 2144 2694 2328 
Q 2663 2341 2641 2350 
Q 2622 2356 2575 2375 
Q 2091 2566 1797 2566 
Q 1522 2566 1253 2447 
Q 984 2328 678 2069 
L 678 2625 
Q 1006 2869 1286 2976 
Q 1566 3084 1869 3084 
Q 2213 3084 2672 2900 
Q 2703 2888 2719 2881 
Q 2741 2872 2788 2853 
Q 3272 2663 3566 2663 
Q 3834 2663 4098 2780 
Q 4363 2897 4684 3163 
z
" transform="scale(0.015625)"/>
     </defs>
     <use xlink:href="#DejaVuSans-53"/>
     <use xlink:href="#DejaVuSans-79" transform="translate(63.476562 0)"/>
     <use xlink:href="#DejaVuSans-6d" transform="translate(122.65625 0)"/>
     <use xlink:href="#DejaVuSans-6d" transform="translate(220.068359 0)"/>
     <use xlink:href="#DejaVuSans-65" transform="translate(317.480469 0)"/>
     <use xlink:href="#DejaVuSans-74" transform="translate(379.003906 0)"/>
     <use xlink:href="#DejaVuSans-72" transform="translate(418.212891 0)"/>
     <use xlink:href="#DejaVuSans-69" transform="translate(459.326172 0)"/>
     <use xlink:href="#DejaVuSans-63" transform="translate(487.109375 0)"/>
     <use xlink:href="#DejaVuSans-20" transform="translate(542.089844 0)"/>
     <use xlink:href="#DejaVuSans-28" transform="translate(573.876953 0)"/>
     <use xlink:href="#DejaVuSans-2248" transform="translate(612.890625 0)"/>
     <use xlink:href="#DejaVuSans-20" transform="translate(696.679688 0)"/>
     <use xlink:href="#DejaVuSans-30" transform="translate(728.466797 0)"/>
     <use xlink:href="#DejaVuSans-29" transform="translate(792.089844 0)"/>
    </g>
    <!-- normal -->
    <g transform="translate(469.823594 25.99625) scale(0.1 -0.1)">
     <use xlink:href="#DejaVuSans-6e"/>
     <use xlink:href="#DejaVuSans-6f" transform="translate(63.378906 0)"/>
     <use xlink:href="#DejaVuSans-72" transform="translate(124.560547 0)"/>
     <use xlink:href="#DejaVuSans-6d" transform="translate(163.923828 0)"/>
     <use xlink:href="#DejaVuSans-61" transform="translate(261.335938 0)"/>
     <use xlink:href="#DejaVuSans-6c" transform="translate(322.615234 0)"/>
    </g>
    <!-- skewness = -0.09 -->
    <g transform="translate(443.099375 37.194062) scale(0.1 -0.1)">
     <use xlink:href="#DejaVuSans-73"/>
     <use xlink:href="#DejaVuSans-6b" transform="translate(52.099609 0)"/>
     <use xlink:href="#DejaVuSans-65" transform="translate(106.384766 0)"/>
     <use xlink:href="#DejaVuSans-77" transform="translate(167.908203 0)"/>
     <use xlink:href="#DejaVuSans-6e" transform="translate(249.695312 0)"/>
     <use xlink:href="#DejaVuSans-65" transform="translate(313.074219 0)"/>
     <use xlink:href="#DejaVuSans-73" transform="translate(374.597656 0)"/>
     <use xlink:href="#DejaVuSans-73" transform="translate(426.697266 0)"/>
     <use xlink:href="#DejaVuSans-20" transform="translate(478.796875 0)"/>
     <use xlink:href="#DejaVuSans-3d" transform="translate(510.583984 0)"/>
     <use xlink:href="#DejaVuSans-20" transform="translate(594.373047 0)"/>
     <use xlink:href="#DejaVuSans-2d" transform="translate(626.160156 0)"/>
     <use xlink:href="#DejaVuSans-30" transform="translate(662.244141 0)"/>
     <use xlink:href="#DejaVuSans-2e" transform="translate(725.867188 0)"/>
     <use xlink:href="#DejaVuSans-30" transform="translate(757.654297 0)"/>
     <use xlink:href="#DejaVuSans-39" transform="translate(821.277344 0)"/>
    </g>
   </g>
   <g id="legend_2">
    <g id="patch_93">
     <path d="M 523.837355 76.814687 
L 619.676105 76.814687 
Q 621.476105 76.814687 621.476105 75.014687 
L 621.476105 49.494062 
Q 621.476105 47.694062 619.676105 47.694062 
L 523.837355 47.694062 
Q 522.037355 47.694062 522.037355 49.494062 
L 522.037355 75.014687 
Q 522.037355 76.814687 523.837355 76.814687 
z
" style="fill: #ffffff; opacity: 0.8; stroke: #cccccc; stroke-linejoin: miter"/>
    </g>
    <g id="line2d_61">
     <path d="M 525.637355 54.982656 
L 534.637355 54.982656 
L 543.637355 54.982656 
" style="fill: none; stroke-dasharray: 7.4,3.2; stroke-dashoffset: 0; stroke: #e15759; stroke-width: 2"/>
    </g>
    <g id="text_29">
     <!-- mean = 2.01 -->
     <g transform="translate(550.837355 58.132656) scale(0.09 -0.09)">
      <use xlink:href="#DejaVuSans-6d"/>
      <use xlink:href="#DejaVuSans-65" transform="translate(97.412109 0)"/>
      <use xlink:href="#DejaVuSans-61" transform="translate(158.935547 0)"/>
      <use xlink:href="#DejaVuSans-6e" transform="translate(220.214844 0)"/>
      <use xlink:href="#DejaVuSans-20" transform="translate(283.59375 0)"/>
      <use xlink:href="#DejaVuSans-3d" transform="translate(315.380859 0)"/>
      <use xlink:href="#DejaVuSans-20" transform="translate(399.169922 0)"/>
      <use xlink:href="#DejaVuSans-32" transform="translate(430.957031 0)"/>
      <use xlink:href="#DejaVuSans-2e" transform="translate(494.580078 0)"/>
      <use xlink:href="#DejaVuSans-30" transform="translate(526.367188 0)"/>
      <use xlink:href="#DejaVuSans-31" transform="translate(589.990234 0)"/>
     </g>
    </g>
    <g id="line2d_62">
     <path d="M 525.637355 68.192969 
L 534.637355 68.192969 
L 543.637355 68.192969 
" style="fill: none; stroke-dasharray: 7.4,3.2; stroke-dashoffset: 0; stroke: #59a14f; stroke-width: 2"/>
    </g>
    <g id="text_30">
     <!-- median = 2.02 -->
     <g transform="translate(550.837355 71.342969) scale(0.09 -0.09)">
      <use xlink:href="#DejaVuSans-6d"/>
      <use xlink:href="#DejaVuSans-65" transform="translate(97.412109 0)"/>
      <use xlink:href="#DejaVuSans-64" transform="translate(158.935547 0)"/>
      <use xlink:href="#DejaVuSans-69" transform="translate(222.412109 0)"/>
      <use xlink:href="#DejaVuSans-61" transform="translate(250.195312 0)"/>
      <use xlink:href="#DejaVuSans-6e" transform="translate(311.474609 0)"/>
      <use xlink:href="#DejaVuSans-20" transform="translate(374.853516 0)"/>
      <use xlink:href="#DejaVuSans-3d" transform="translate(406.640625 0)"/>
      <use xlink:href="#DejaVuSans-20" transform="translate(490.429688 0)"/>
      <use xlink:href="#DejaVuSans-32" transform="translate(522.216797 0)"/>
      <use xlink:href="#DejaVuSans-2e" transform="translate(585.839844 0)"/>
      <use xlink:href="#DejaVuSans-30" transform="translate(617.626953 0)"/>
      <use xlink:href="#DejaVuSans-32" transform="translate(681.25 0)"/>
     </g>
    </g>
   </g>
  </g>
  <g id="axes_3">
   <g id="patch_94">
    <path d="M 644.092166 241.186063 
L 921.358125 241.186063 
L 921.358125 43.194062 
L 644.092166 43.194062 
z
" style="fill: #ffffff"/>
   </g>
   <g id="patch_95">
    <path d="M 656.695164 241.186063 
L 662.996663 241.186063 
L 662.996663 241.008172 
L 656.695164 241.008172 
z
" clip-path="url(#p962bb62d9f)" style="fill: #7aa6c2; opacity: 0.6; stroke: #ffffff; stroke-linejoin: miter"/>
   </g>
   <g id="patch_96">
    <path d="M 662.996663 241.186063 
L 669.298162 241.186063 
L 669.298162 241.186063 
L 662.996663 241.186063 
z
" clip-path="url(#p962bb62d9f)" style="fill: #7aa6c2; opacity: 0.6; stroke: #ffffff; stroke-linejoin: miter"/>
   </g>
   <g id="patch_97">
    <path d="M 669.298162 241.186063 
L 675.599661 241.186063 
L 675.599661 241.186063 
L 669.298162 241.186063 
z
" clip-path="url(#p962bb62d9f)" style="fill: #7aa6c2; opacity: 0.6; stroke: #ffffff; stroke-linejoin: miter"/>
   </g>
   <g id="patch_98">
    <path d="M 675.599661 241.186063 
L 681.90116 241.186063 
L 681.90116 241.186063 
L 675.599661 241.186063 
z
" clip-path="url(#p962bb62d9f)" style="fill: #7aa6c2; opacity: 0.6; stroke: #ffffff; stroke-linejoin: miter"/>
   </g>
   <g id="patch_99">
    <path d="M 681.90116 241.186063 
L 688.202659 241.186063 
L 688.202659 241.186063 
L 681.90116 241.186063 
z
" clip-path="url(#p962bb62d9f)" style="fill: #7aa6c2; opacity: 0.6; stroke: #ffffff; stroke-linejoin: miter"/>
   </g>
   <g id="patch_100">
    <path d="M 688.202659 241.186063 
L 694.504158 241.186063 
L 694.504158 241.186063 
L 688.202659 241.186063 
z
" clip-path="url(#p962bb62d9f)" style="fill: #7aa6c2; opacity: 0.6; stroke: #ffffff; stroke-linejoin: miter"/>
   </g>
   <g id="patch_101">
    <path d="M 694.504158 241.186063 
L 700.805657 241.186063 
L 700.805657 241.186063 
L 694.504158 241.186063 
z
" clip-path="url(#p962bb62d9f)" style="fill: #7aa6c2; opacity: 0.6; stroke: #ffffff; stroke-linejoin: miter"/>
   </g>
   <g id="patch_102">
    <path d="M 700.805657 241.186063 
L 707.107156 241.186063 
L 707.107156 241.186063 
L 700.805657 241.186063 
z
" clip-path="url(#p962bb62d9f)" style="fill: #7aa6c2; opacity: 0.6; stroke: #ffffff; stroke-linejoin: miter"/>
   </g>
   <g id="patch_103">
    <path d="M 707.107156 241.186063 
L 713.408655 241.186063 
L 713.408655 241.186063 
L 707.107156 241.186063 
z
" clip-path="url(#p962bb62d9f)" style="fill: #7aa6c2; opacity: 0.6; stroke: #ffffff; stroke-linejoin: miter"/>
   </g>
   <g id="patch_104">
    <path d="M 713.408655 241.186063 
L 719.710155 241.186063 
L 719.710155 241.186063 
L 713.408655 241.186063 
z
" clip-path="url(#p962bb62d9f)" style="fill: #7aa6c2; opacity: 0.6; stroke: #ffffff; stroke-linejoin: miter"/>
   </g>
   <g id="patch_105">
    <path d="M 719.710155 241.186063 
L 726.011654 241.186063 
L 726.011654 241.186063 
L 719.710155 241.186063 
z
" clip-path="url(#p962bb62d9f)" style="fill: #7aa6c2; opacity: 0.6; stroke: #ffffff; stroke-linejoin: miter"/>
   </g>
   <g id="patch_106">
    <path d="M 726.011654 241.186063 
L 732.313153 241.186063 
L 732.313153 241.008172 
L 726.011654 241.008172 
z
" clip-path="url(#p962bb62d9f)" style="fill: #7aa6c2; opacity: 0.6; stroke: #ffffff; stroke-linejoin: miter"/>
   </g>
   <g id="patch_107">
    <path d="M 732.313153 241.186063 
L 738.614652 241.186063 
L 738.614652 241.186063 
L 732.313153 241.186063 
z
" clip-path="url(#p962bb62d9f)" style="fill: #7aa6c2; opacity: 0.6; stroke: #ffffff; stroke-linejoin: miter"/>
   </g>
   <g id="patch_108">
    <path d="M 738.614652 241.186063 
L 744.916151 241.186063 
L 744.916151 241.186063 
L 738.614652 241.186063 
z
" clip-path="url(#p962bb62d9f)" style="fill: #7aa6c2; opacity: 0.6; stroke: #ffffff; stroke-linejoin: miter"/>
   </g>
   <g id="patch_109">
    <path d="M 744.916151 241.186063 
L 751.21765 241.186063 
L 751.21765 241.008172 
L 744.916151 241.008172 
z
" clip-path="url(#p962bb62d9f)" style="fill: #7aa6c2; opacity: 0.6; stroke: #ffffff; stroke-linejoin: miter"/>
   </g>
   <g id="patch_110">
    <path d="M 751.21765 241.186063 
L 757.519149 241.186063 
L 757.519149 240.830282 
L 751.21765 240.830282 
z
" clip-path="url(#p962bb62d9f)" style="fill: #7aa6c2; opacity: 0.6; stroke: #ffffff; stroke-linejoin: miter"/>
   </g>
   <g id="patch_111">
    <path d="M 757.519149 241.186063 
L 763.820648 241.186063 
L 763.820648 240.830282 
L 757.519149 240.830282 
z
" clip-path="url(#p962bb62d9f)" style="fill: #7aa6c2; opacity: 0.6; stroke: #ffffff; stroke-linejoin: miter"/>
   </g>
   <g id="patch_112">
    <path d="M 763.820648 241.186063 
L 770.122147 241.186063 
L 770.122147 241.186063 
L 763.820648 241.186063 
z
" clip-path="url(#p962bb62d9f)" style="fill: #7aa6c2; opacity: 0.6; stroke: #ffffff; stroke-linejoin: miter"/>
   </g>
   <g id="patch_113">
    <path d="M 770.122147 241.186063 
L 776.423646 241.186063 
L 776.423646 240.296611 
L 770.122147 240.296611 
z
" clip-path="url(#p962bb62d9f)" style="fill: #7aa6c2; opacity: 0.6; stroke: #ffffff; stroke-linejoin: miter"/>
   </g>
   <g id="patch_114">
    <path d="M 776.423646 241.186063 
L 782.725145 241.186063 
L 782.725145 241.008172 
L 776.423646 241.008172 
z
" clip-path="url(#p962bb62d9f)" style="fill: #7aa6c2; opacity: 0.6; stroke: #ffffff; stroke-linejoin: miter"/>
   </g>
   <g id="patch_115">
    <path d="M 782.725145 241.186063 
L 789.026644 241.186063 
L 789.026644 240.296611 
L 782.725145 240.296611 
z
" clip-path="url(#p962bb62d9f)" style="fill: #7aa6c2; opacity: 0.6; stroke: #ffffff; stroke-linejoin: miter"/>
   </g>
   <g id="patch_116">
    <path d="M 789.026644 241.186063 
L 795.328143 241.186063 
L 795.328143 240.474501 
L 789.026644 240.474501 
z
" clip-path="url(#p962bb62d9f)" style="fill: #7aa6c2; opacity: 0.6; stroke: #ffffff; stroke-linejoin: miter"/>
   </g>
   <g id="patch_117">
    <path d="M 795.328143 241.186063 
L 801.629643 241.186063 
L 801.629643 240.652391 
L 795.328143 240.652391 
z
" clip-path="url(#p962bb62d9f)" style="fill: #7aa6c2; opacity: 0.6; stroke: #ffffff; stroke-linejoin: miter"/>
   </g>
   <g id="patch_118">
    <path d="M 801.629643 241.186063 
L 807.931142 241.186063 
L 807.931142 238.873487 
L 801.629643 238.873487 
z
" clip-path="url(#p962bb62d9f)" style="fill: #7aa6c2; opacity: 0.6; stroke: #ffffff; stroke-linejoin: miter"/>
   </g>
   <g id="patch_119">
    <path d="M 807.931142 241.186063 
L 814.232641 241.186063 
L 814.232641 239.407159 
L 807.931142 239.407159 
z
" clip-path="url(#p962bb62d9f)" style="fill: #7aa6c2; opacity: 0.6; stroke: #ffffff; stroke-linejoin: miter"/>
   </g>
   <g id="patch_120">
    <path d="M 814.232641 241.186063 
L 820.53414 241.186063 
L 820.53414 237.984036 
L 814.232641 237.984036 
z
" clip-path="url(#p962bb62d9f)" style="fill: #7aa6c2; opacity: 0.6; stroke: #ffffff; stroke-linejoin: miter"/>
   </g>
   <g id="patch_121">
    <path d="M 820.53414 241.186063 
L 826.835639 241.186063 
L 826.835639 237.272474 
L 820.53414 237.272474 
z
" clip-path="url(#p962bb62d9f)" style="fill: #7aa6c2; opacity: 0.6; stroke: #ffffff; stroke-linejoin: miter"/>
   </g>
   <g id="patch_122">
    <path d="M 826.835639 241.186063 
L 833.137138 241.186063 
L 833.137138 235.137789 
L 826.835639 235.137789 
z
" clip-path="url(#p962bb62d9f)" style="fill: #7aa6c2; opacity: 0.6; stroke: #ffffff; stroke-linejoin: miter"/>
   </g>
   <g id="patch_123">
    <path d="M 833.137138 241.186063 
L 839.438637 241.186063 
L 839.438637 233.180995 
L 833.137138 233.180995 
z
" clip-path="url(#p962bb62d9f)" style="fill: #7aa6c2; opacity: 0.6; stroke: #ffffff; stroke-linejoin: miter"/>
   </g>
   <g id="patch_124">
    <path d="M 839.438637 241.186063 
L 845.740136 241.186063 
L 845.740136 229.267407 
L 839.438637 229.267407 
z
" clip-path="url(#p962bb62d9f)" style="fill: #7aa6c2; opacity: 0.6; stroke: #ffffff; stroke-linejoin: miter"/>
   </g>
   <g id="patch_125">
    <path d="M 845.740136 241.186063 
L 852.041635 241.186063 
L 852.041635 223.930695 
L 845.740136 223.930695 
z
" clip-path="url(#p962bb62d9f)" style="fill: #7aa6c2; opacity: 0.6; stroke: #ffffff; stroke-linejoin: miter"/>
   </g>
   <g id="patch_126">
    <path d="M 852.041635 241.186063 
L 858.343134 241.186063 
L 858.343134 216.81508 
L 852.041635 216.81508 
z
" clip-path="url(#p962bb62d9f)" style="fill: #7aa6c2; opacity: 0.6; stroke: #ffffff; stroke-linejoin: miter"/>
   </g>
   <g id="patch_127">
    <path d="M 858.343134 241.186063 
L 864.644633 241.186063 
L 864.644633 205.074314 
L 858.343134 205.074314 
z
" clip-path="url(#p962bb62d9f)" style="fill: #7aa6c2; opacity: 0.6; stroke: #ffffff; stroke-linejoin: miter"/>
   </g>
   <g id="patch_128">
    <path d="M 864.644633 241.186063 
L 870.946132 241.186063 
L 870.946132 181.592783 
L 864.644633 181.592783 
z
" clip-path="url(#p962bb62d9f)" style="fill: #7aa6c2; opacity: 0.6; stroke: #ffffff; stroke-linejoin: miter"/>
   </g>
   <g id="patch_129">
    <path d="M 870.946132 241.186063 
L 877.247631 241.186063 
L 877.247631 155.798677 
L 870.946132 155.798677 
z
" clip-path="url(#p962bb62d9f)" style="fill: #7aa6c2; opacity: 0.6; stroke: #ffffff; stroke-linejoin: miter"/>
   </g>
   <g id="patch_130">
    <path d="M 877.247631 241.186063 
L 883.549131 241.186063 
L 883.549131 135.874954 
L 877.247631 135.874954 
z
" clip-path="url(#p962bb62d9f)" style="fill: #7aa6c2; opacity: 0.6; stroke: #ffffff; stroke-linejoin: miter"/>
   </g>
   <g id="patch_131">
    <path d="M 883.549131 241.186063 
L 889.85063 241.186063 
L 889.85063 96.739069 
L 883.549131 96.739069 
z
" clip-path="url(#p962bb62d9f)" style="fill: #7aa6c2; opacity: 0.6; stroke: #ffffff; stroke-linejoin: miter"/>
   </g>
   <g id="patch_132">
    <path d="M 889.85063 241.186063 
L 896.152129 241.186063 
L 896.152129 52.622253 
L 889.85063 52.622253 
z
" clip-path="url(#p962bb62d9f)" style="fill: #7aa6c2; opacity: 0.6; stroke: #ffffff; stroke-linejoin: miter"/>
   </g>
   <g id="patch_133">
    <path d="M 896.152129 241.186063 
L 902.453628 241.186063 
L 902.453628 89.623453 
L 896.152129 89.623453 
z
" clip-path="url(#p962bb62d9f)" style="fill: #7aa6c2; opacity: 0.6; stroke: #ffffff; stroke-linejoin: miter"/>
   </g>
   <g id="patch_134">
    <path d="M 902.453628 241.186063 
L 908.755127 241.186063 
L 908.755127 205.963766 
L 902.453628 205.963766 
z
" clip-path="url(#p962bb62d9f)" style="fill: #7aa6c2; opacity: 0.6; stroke: #ffffff; stroke-linejoin: miter"/>
   </g>
   <g id="matplotlib.axis_5">
    <g id="xtick_16">
     <g id="line2d_63">
      <path d="M 687.187339 241.186063 
L 687.187339 43.194062 
" clip-path="url(#p962bb62d9f)" style="fill: none; stroke: #b0b0b0; stroke-opacity: 0.25; stroke-width: 0.8; stroke-linecap: square"/>
     </g>
     <g id="line2d_64">
      <g>
       <use xlink:href="#m62f1c9f08b" x="687.187339" y="241.186063" style="stroke: #000000; stroke-width: 0.8"/>
      </g>
     </g>
     <g id="text_31">
      <!-- −2 -->
      <g transform="translate(679.816245 255.7845) scale(0.1 -0.1)">
       <use xlink:href="#DejaVuSans-2212"/>
       <use xlink:href="#DejaVuSans-32" transform="translate(83.789062 0)"/>
      </g>
     </g>
    </g>
    <g id="xtick_17">
     <g id="line2d_65">
      <path d="M 734.838426 241.186063 
L 734.838426 43.194062 
" clip-path="url(#p962bb62d9f)" style="fill: none; stroke: #b0b0b0; stroke-opacity: 0.25; stroke-width: 0.8; stroke-linecap: square"/>
     </g>
     <g id="line2d_66">
      <g>
       <use xlink:href="#m62f1c9f08b" x="734.838426" y="241.186063" style="stroke: #000000; stroke-width: 0.8"/>
      </g>
     </g>
     <g id="text_32">
      <!-- 0 -->
      <g transform="translate(731.657176 255.7845) scale(0.1 -0.1)">
       <use xlink:href="#DejaVuSans-30"/>
      </g>
     </g>
    </g>
    <g id="xtick_18">
     <g id="line2d_67">
      <path d="M 782.489514 241.186063 
L 782.489514 43.194062 
" clip-path="url(#p962bb62d9f)" style="fill: none; stroke: #b0b0b0; stroke-opacity: 0.25; stroke-width: 0.8; stroke-linecap: square"/>
     </g>
     <g id="line2d_68">
      <g>
       <use xlink:href="#m62f1c9f08b" x="782.489514" y="241.186063" style="stroke: #000000; stroke-width: 0.8"/>
      </g>
     </g>
     <g id="text_33">
      <!-- 2 -->
      <g transform="translate(779.308264 255.7845) scale(0.1 -0.1)">
       <use xlink:href="#DejaVuSans-32"/>
      </g>
     </g>
    </g>
    <g id="xtick_19">
     <g id="line2d_69">
      <path d="M 830.140601 241.186063 
L 830.140601 43.194062 
" clip-path="url(#p962bb62d9f)" style="fill: none; stroke: #b0b0b0; stroke-opacity: 0.25; stroke-width: 0.8; stroke-linecap: square"/>
     </g>
     <g id="line2d_70">
      <g>
       <use xlink:href="#m62f1c9f08b" x="830.140601" y="241.186063" style="stroke: #000000; stroke-width: 0.8"/>
      </g>
     </g>
     <g id="text_34">
      <!-- 4 -->
      <g transform="translate(826.959351 255.7845) scale(0.1 -0.1)">
       <use xlink:href="#DejaVuSans-34"/>
      </g>
     </g>
    </g>
    <g id="xtick_20">
     <g id="line2d_71">
      <path d="M 877.791689 241.186063 
L 877.791689 43.194062 
" clip-path="url(#p962bb62d9f)" style="fill: none; stroke: #b0b0b0; stroke-opacity: 0.25; stroke-width: 0.8; stroke-linecap: square"/>
     </g>
     <g id="line2d_72">
      <g>
       <use xlink:href="#m62f1c9f08b" x="877.791689" y="241.186063" style="stroke: #000000; stroke-width: 0.8"/>
      </g>
     </g>
     <g id="text_35">
      <!-- 6 -->
      <g transform="translate(874.610439 255.7845) scale(0.1 -0.1)">
       <use xlink:href="#DejaVuSans-36"/>
      </g>
     </g>
    </g>
    <g id="text_36">
     <!-- value -->
     <g transform="translate(769.067333 269.462625) scale(0.1 -0.1)">
      <use xlink:href="#DejaVuSans-76"/>
      <use xlink:href="#DejaVuSans-61" transform="translate(59.179688 0)"/>
      <use xlink:href="#DejaVuSans-6c" transform="translate(120.458984 0)"/>
      <use xlink:href="#DejaVuSans-75" transform="translate(148.242188 0)"/>
      <use xlink:href="#DejaVuSans-65" transform="translate(211.621094 0)"/>
     </g>
    </g>
   </g>
   <g id="matplotlib.axis_6">
    <g id="ytick_13">
     <g id="line2d_73">
      <path d="M 644.092166 241.186063 
L 921.358125 241.186063 
" clip-path="url(#p962bb62d9f)" style="fill: none; stroke: #b0b0b0; stroke-opacity: 0.25; stroke-width: 0.8; stroke-linecap: square"/>
     </g>
     <g id="line2d_74">
      <g>
       <use xlink:href="#md06b19dc5c" x="644.092166" y="241.186063" style="stroke: #000000; stroke-width: 0.8"/>
      </g>
     </g>
    </g>
    <g id="ytick_14">
     <g id="line2d_75">
      <path d="M 644.092166 205.607985 
L 921.358125 205.607985 
" clip-path="url(#p962bb62d9f)" style="fill: none; stroke: #b0b0b0; stroke-opacity: 0.25; stroke-width: 0.8; stroke-linecap: square"/>
     </g>
     <g id="line2d_76">
      <g>
       <use xlink:href="#md06b19dc5c" x="644.092166" y="205.607985" style="stroke: #000000; stroke-width: 0.8"/>
      </g>
     </g>
    </g>
    <g id="ytick_15">
     <g id="line2d_77">
      <path d="M 644.092166 170.029908 
L 921.358125 170.029908 
" clip-path="url(#p962bb62d9f)" style="fill: none; stroke: #b0b0b0; stroke-opacity: 0.25; stroke-width: 0.8; stroke-linecap: square"/>
     </g>
     <g id="line2d_78">
      <g>
       <use xlink:href="#md06b19dc5c" x="644.092166" y="170.029908" style="stroke: #000000; stroke-width: 0.8"/>
      </g>
     </g>
    </g>
    <g id="ytick_16">
     <g id="line2d_79">
      <path d="M 644.092166 134.451831 
L 921.358125 134.451831 
" clip-path="url(#p962bb62d9f)" style="fill: none; stroke: #b0b0b0; stroke-opacity: 0.25; stroke-width: 0.8; stroke-linecap: square"/>
     </g>
     <g id="line2d_80">
      <g>
       <use xlink:href="#md06b19dc5c" x="644.092166" y="134.451831" style="stroke: #000000; stroke-width: 0.8"/>
      </g>
     </g>
    </g>
    <g id="ytick_17">
     <g id="line2d_81">
      <path d="M 644.092166 98.873753 
L 921.358125 98.873753 
" clip-path="url(#p962bb62d9f)" style="fill: none; stroke: #b0b0b0; stroke-opacity: 0.25; stroke-width: 0.8; stroke-linecap: square"/>
     </g>
     <g id="line2d_82">
      <g>
       <use xlink:href="#md06b19dc5c" x="644.092166" y="98.873753" style="stroke: #000000; stroke-width: 0.8"/>
      </g>
     </g>
    </g>
    <g id="ytick_18">
     <g id="line2d_83">
      <path d="M 644.092166 63.295676 
L 921.358125 63.295676 
" clip-path="url(#p962bb62d9f)" style="fill: none; stroke: #b0b0b0; stroke-opacity: 0.25; stroke-width: 0.8; stroke-linecap: square"/>
     </g>
     <g id="line2d_84">
      <g>
       <use xlink:href="#md06b19dc5c" x="644.092166" y="63.295676" style="stroke: #000000; stroke-width: 0.8"/>
      </g>
     </g>
    </g>
   </g>
   <g id="line2d_85">
    <path d="M 882.194874 241.186063 
L 882.194874 43.194062 
" clip-path="url(#p962bb62d9f)" style="fill: none; stroke-dasharray: 7.4,3.2; stroke-dashoffset: 0; stroke: #e15759; stroke-width: 2"/>
   </g>
   <g id="line2d_86">
    <path d="M 887.112443 241.186063 
L 887.112443 43.194062 
" clip-path="url(#p962bb62d9f)" style="fill: none; stroke-dasharray: 7.4,3.2; stroke-dashoffset: 0; stroke: #59a14f; stroke-width: 2"/>
   </g>
   <g id="patch_135">
    <path d="M 644.092166 241.186063 
L 644.092166 43.194062 
" style="fill: none; stroke: #000000; stroke-width: 0.8; stroke-linejoin: miter; stroke-linecap: square"/>
   </g>
   <g id="patch_136">
    <path d="M 921.358125 241.186063 
L 921.358125 43.194062 
" style="fill: none; stroke: #000000; stroke-width: 0.8; stroke-linejoin: miter; stroke-linecap: square"/>
   </g>
   <g id="patch_137">
    <path d="M 644.092166 241.186063 
L 921.358125 241.186063 
" style="fill: none; stroke: #000000; stroke-width: 0.8; stroke-linejoin: miter; stroke-linecap: square"/>
   </g>
   <g id="patch_138">
    <path d="M 644.092166 43.194062 
L 921.358125 43.194062 
" style="fill: none; stroke: #000000; stroke-width: 0.8; stroke-linejoin: miter; stroke-linecap: square"/>
   </g>
   <g id="text_37">
    <!-- Left-skewed (negative) -->
    <g transform="translate(725.418895 14.798437) scale(0.1 -0.1)">
     <defs>
      <path id="DejaVuSans-4c" d="M 628 4666 
L 1259 4666 
L 1259 531 
L 3531 531 
L 3531 0 
L 628 0 
L 628 4666 
z
" transform="scale(0.015625)"/>
      <path id="DejaVuSans-66" d="M 2375 4863 
L 2375 4384 
L 1825 4384 
Q 1516 4384 1395 4259 
Q 1275 4134 1275 3809 
L 1275 3500 
L 2222 3500 
L 2222 3053 
L 1275 3053 
L 1275 0 
L 697 0 
L 697 3053 
L 147 3053 
L 147 3500 
L 697 3500 
L 697 3744 
Q 697 4328 969 4595 
Q 1241 4863 1831 4863 
L 2375 4863 
z
" transform="scale(0.015625)"/>
     </defs>
     <use xlink:href="#DejaVuSans-4c"/>
     <use xlink:href="#DejaVuSans-65" transform="translate(53.962891 0)"/>
     <use xlink:href="#DejaVuSans-66" transform="translate(115.486328 0)"/>
     <use xlink:href="#DejaVuSans-74" transform="translate(148.941406 0)"/>
     <use xlink:href="#DejaVuSans-2d" transform="translate(188.150391 0)"/>
     <use xlink:href="#DejaVuSans-73" transform="translate(224.234375 0)"/>
     <use xlink:href="#DejaVuSans-6b" transform="translate(276.333984 0)"/>
     <use xlink:href="#DejaVuSans-65" transform="translate(330.619141 0)"/>
     <use xlink:href="#DejaVuSans-77" transform="translate(392.142578 0)"/>
     <use xlink:href="#DejaVuSans-65" transform="translate(473.929688 0)"/>
     <use xlink:href="#DejaVuSans-64" transform="translate(535.453125 0)"/>
     <use xlink:href="#DejaVuSans-20" transform="translate(598.929688 0)"/>
     <use xlink:href="#DejaVuSans-28" transform="translate(630.716797 0)"/>
     <use xlink:href="#DejaVuSans-6e" transform="translate(669.730469 0)"/>
     <use xlink:href="#DejaVuSans-65" transform="translate(733.109375 0)"/>
     <use xlink:href="#DejaVuSans-67" transform="translate(794.632812 0)"/>
     <use xlink:href="#DejaVuSans-61" transform="translate(858.109375 0)"/>
     <use xlink:href="#DejaVuSans-74" transform="translate(919.388672 0)"/>
     <use xlink:href="#DejaVuSans-69" transform="translate(958.597656 0)"/>
     <use xlink:href="#DejaVuSans-76" transform="translate(986.380859 0)"/>
     <use xlink:href="#DejaVuSans-65" transform="translate(1045.560547 0)"/>
     <use xlink:href="#DejaVuSans-29" transform="translate(1107.083984 0)"/>
    </g>
    <!-- flipped lognormal -->
    <g transform="translate(738.856395 25.99625) scale(0.1 -0.1)">
     <use xlink:href="#DejaVuSans-66"/>
     <use xlink:href="#DejaVuSans-6c" transform="translate(35.205078 0)"/>
     <use xlink:href="#DejaVuSans-69" transform="translate(62.988281 0)"/>
     <use xlink:href="#DejaVuSans-70" transform="translate(90.771484 0)"/>
     <use xlink:href="#DejaVuSans-70" transform="translate(154.248047 0)"/>
     <use xlink:href="#DejaVuSans-65" transform="translate(217.724609 0)"/>
     <use xlink:href="#DejaVuSans-64" transform="translate(279.248047 0)"/>
     <use xlink:href="#DejaVuSans-20" transform="translate(342.724609 0)"/>
     <use xlink:href="#DejaVuSans-6c" transform="translate(374.511719 0)"/>
     <use xlink:href="#DejaVuSans-6f" transform="translate(402.294922 0)"/>
     <use xlink:href="#DejaVuSans-67" transform="translate(463.476562 0)"/>
     <use xlink:href="#DejaVuSans-6e" transform="translate(526.953125 0)"/>
     <use xlink:href="#DejaVuSans-6f" transform="translate(590.332031 0)"/>
     <use xlink:href="#DejaVuSans-72" transform="translate(651.513672 0)"/>
     <use xlink:href="#DejaVuSans-6d" transform="translate(690.876953 0)"/>
     <use xlink:href="#DejaVuSans-61" transform="translate(788.289062 0)"/>
     <use xlink:href="#DejaVuSans-6c" transform="translate(849.568359 0)"/>
    </g>
    <!-- skewness = -2.25 -->
    <g transform="translate(738.481395 37.194062) scale(0.1 -0.1)">
     <use xlink:href="#DejaVuSans-73"/>
     <use xlink:href="#DejaVuSans-6b" transform="translate(52.099609 0)"/>
     <use xlink:href="#DejaVuSans-65" transform="translate(106.384766 0)"/>
     <use xlink:href="#DejaVuSans-77" transform="translate(167.908203 0)"/>
     <use xlink:href="#DejaVuSans-6e" transform="translate(249.695312 0)"/>
     <use xlink:href="#DejaVuSans-65" transform="translate(313.074219 0)"/>
     <use xlink:href="#DejaVuSans-73" transform="translate(374.597656 0)"/>
     <use xlink:href="#DejaVuSans-73" transform="translate(426.697266 0)"/>
     <use xlink:href="#DejaVuSans-20" transform="translate(478.796875 0)"/>
     <use xlink:href="#DejaVuSans-3d" transform="translate(510.583984 0)"/>
     <use xlink:href="#DejaVuSans-20" transform="translate(594.373047 0)"/>
     <use xlink:href="#DejaVuSans-2d" transform="translate(626.160156 0)"/>
     <use xlink:href="#DejaVuSans-32" transform="translate(662.244141 0)"/>
     <use xlink:href="#DejaVuSans-2e" transform="translate(725.867188 0)"/>
     <use xlink:href="#DejaVuSans-32" transform="translate(757.654297 0)"/>
     <use xlink:href="#DejaVuSans-35" transform="translate(821.277344 0)"/>
    </g>
   </g>
   <g id="legend_3">
    <g id="patch_139">
     <path d="M 650.392166 76.814687 
L 746.230916 76.814687 
Q 748.030916 76.814687 748.030916 75.014687 
L 748.030916 49.494062 
Q 748.030916 47.694062 746.230916 47.694062 
L 650.392166 47.694062 
Q 648.592166 47.694062 648.592166 49.494062 
L 648.592166 75.014687 
Q 648.592166 76.814687 650.392166 76.814687 
z
" style="fill: #ffffff; opacity: 0.8; stroke: #cccccc; stroke-linejoin: miter"/>
    </g>
    <g id="line2d_87">
     <path d="M 652.192166 54.982656 
L 661.192166 54.982656 
L 670.192166 54.982656 
" style="fill: none; stroke-dasharray: 7.4,3.2; stroke-dashoffset: 0; stroke: #e15759; stroke-width: 2"/>
    </g>
    <g id="text_38">
     <!-- mean = 6.18 -->
     <g transform="translate(677.392166 58.132656) scale(0.09 -0.09)">
      <use xlink:href="#DejaVuSans-6d"/>
      <use xlink:href="#DejaVuSans-65" transform="translate(97.412109 0)"/>
      <use xlink:href="#DejaVuSans-61" transform="translate(158.935547 0)"/>
      <use xlink:href="#DejaVuSans-6e" transform="translate(220.214844 0)"/>
      <use xlink:href="#DejaVuSans-20" transform="translate(283.59375 0)"/>
      <use xlink:href="#DejaVuSans-3d" transform="translate(315.380859 0)"/>
      <use xlink:href="#DejaVuSans-20" transform="translate(399.169922 0)"/>
      <use xlink:href="#DejaVuSans-36" transform="translate(430.957031 0)"/>
      <use xlink:href="#DejaVuSans-2e" transform="translate(494.580078 0)"/>
      <use xlink:href="#DejaVuSans-31" transform="translate(526.367188 0)"/>
      <use xlink:href="#DejaVuSans-38" transform="translate(589.990234 0)"/>
     </g>
    </g>
    <g id="line2d_88">
     <path d="M 652.192166 68.192969 
L 661.192166 68.192969 
L 670.192166 68.192969 
" style="fill: none; stroke-dasharray: 7.4,3.2; stroke-dashoffset: 0; stroke: #59a14f; stroke-width: 2"/>
    </g>
    <g id="text_39">
     <!-- median = 6.39 -->
     <g transform="translate(677.392166 71.342969) scale(0.09 -0.09)">
      <use xlink:href="#DejaVuSans-6d"/>
      <use xlink:href="#DejaVuSans-65" transform="translate(97.412109 0)"/>
      <use xlink:href="#DejaVuSans-64" transform="translate(158.935547 0)"/>
      <use xlink:href="#DejaVuSans-69" transform="translate(222.412109 0)"/>
      <use xlink:href="#DejaVuSans-61" transform="translate(250.195312 0)"/>
      <use xlink:href="#DejaVuSans-6e" transform="translate(311.474609 0)"/>
      <use xlink:href="#DejaVuSans-20" transform="translate(374.853516 0)"/>
      <use xlink:href="#DejaVuSans-3d" transform="translate(406.640625 0)"/>
      <use xlink:href="#DejaVuSans-20" transform="translate(490.429688 0)"/>
      <use xlink:href="#DejaVuSans-36" transform="translate(522.216797 0)"/>
      <use xlink:href="#DejaVuSans-2e" transform="translate(585.839844 0)"/>
      <use xlink:href="#DejaVuSans-33" transform="translate(617.626953 0)"/>
      <use xlink:href="#DejaVuSans-39" transform="translate(681.25 0)"/>
     </g>
    </g>
   </g>
  </g>
 </g>
 <defs>
  <clipPath id="p0d3d88016c">
   <rect x="53.328125" y="43.194062" width="277.265959" height="197.992"/>
  </clipPath>
  <clipPath id="pe1b5078d31">
   <rect x="348.710145" y="43.194062" width="277.265959" height="197.992"/>
  </clipPath>
  <clipPath id="p962bb62d9f">
   <rect x="644.092166" y="43.194062" width="277.265959" height="197.992"/>
  </clipPath>
 </defs>
</svg>
