<?xml version="1.0" encoding="utf-8" standalone="no"?>
<!DOCTYPE svg PUBLIC "-//W3C//DTD SVG 1.1//EN"
  "http://www.w3.org/Graphics/SVG/1.1/DTD/svg11.dtd">
<svg xmlns:xlink="http://www.w3.org/1999/xlink" width="604.401875pt" height="313.49575pt" viewBox="0 0 604.401875 313.49575" xmlns="http://www.w3.org/2000/svg" version="1.1">
 <metadata>
  <rdf:RDF xmlns:dc="http://purl.org/dc/elements/1.1/" xmlns:cc="http://creativecommons.org/ns#" xmlns:rdf="http://www.w3.org/1999/02/22-rdf-syntax-ns#">
   <cc:Work>
    <dc:type rdf:resource="http://purl.org/dc/dcmitype/StillImage"/>
    <dc:date>2026-05-26T09:21:44.249159</dc:date>
    <dc:format>image/svg+xml</dc:format>
    <dc:creator>
     <cc:Agent>
      <dc:title>Matplotlib v3.10.8, https://matplotlib.org/</dc:title>
     </cc:Agent>
    </dc:creator>
   </cc:Work>
  </rdf:RDF>
 </metadata>
 <defs>
  <style type="text/css">*{stroke-linejoin: round; stroke-linecap: butt}</style>
 </defs>
 <g id="figure_1">
  <g id="patch_1">
   <path d="M 0 313.49575 
L 604.401875 313.49575 
L 604.401875 0 
L 0 0 
z
" style="fill: #ffffff"/>
  </g>
  <g id="axes_1">
   <g id="patch_2">
    <path d="M 34.240625 275.9395 
L 594.020625 275.9395 
L 594.020625 35.7555 
L 34.240625 35.7555 
z
" style="fill: #ffffff"/>
   </g>
   <g id="patch_3">
    <path d="M -16.961049 275.9395 
L 0.486787 275.9395 
L 0.486787 275.901462 
L -16.961049 275.901462 
z
" clip-path="url(#p56b9b0ab29)" style="fill: #463480; opacity: 0.55"/>
   </g>
   <g id="patch_4">
    <path d="M 0.486787 275.9395 
L 17.934623 275.9395 
L 17.934623 275.901462 
L 0.486787 275.901462 
z
" clip-path="url(#p56b9b0ab29)" style="fill: #463480; opacity: 0.55"/>
   </g>
   <g id="patch_5">
    <path d="M 17.934623 275.9395 
L 35.382459 275.9395 
L 35.382459 275.825387 
L 17.934623 275.825387 
z
" clip-path="url(#p56b9b0ab29)" style="fill: #463480; opacity: 0.55"/>
   </g>
   <g id="patch_6">
    <path d="M 35.382459 275.9395 
L 52.830295 275.9395 
L 52.830295 275.673235 
L 35.382459 275.673235 
z
" clip-path="url(#p56b9b0ab29)" style="fill: #463480; opacity: 0.55"/>
   </g>
   <g id="patch_7">
    <path d="M 52.830295 275.9395 
L 70.278131 275.9395 
L 70.278131 275.406971 
L 52.830295 275.406971 
z
" clip-path="url(#p56b9b0ab29)" style="fill: #463480; opacity: 0.55"/>
   </g>
   <g id="patch_8">
    <path d="M 70.278131 275.9395 
L 87.725967 275.9395 
L 87.725967 275.25482 
L 70.278131 275.25482 
z
" clip-path="url(#p56b9b0ab29)" style="fill: #463480; opacity: 0.55"/>
   </g>
   <g id="patch_9">
    <path d="M 87.725967 275.9395 
L 105.173803 275.9395 
L 105.173803 275.178744 
L 87.725967 275.178744 
z
" clip-path="url(#p56b9b0ab29)" style="fill: #463480; opacity: 0.55"/>
   </g>
   <g id="patch_10">
    <path d="M 105.173803 275.9395 
L 122.62164 275.9395 
L 122.62164 274.836404 
L 105.173803 274.836404 
z
" clip-path="url(#p56b9b0ab29)" style="fill: #463480; opacity: 0.55"/>
   </g>
   <g id="patch_11">
    <path d="M 122.62164 275.9395 
L 140.069476 275.9395 
L 140.069476 273.543119 
L 122.62164 273.543119 
z
" clip-path="url(#p56b9b0ab29)" style="fill: #463480; opacity: 0.55"/>
   </g>
   <g id="patch_12">
    <path d="M 140.069476 275.9395 
L 157.517312 275.9395 
L 157.517312 272.972553 
L 140.069476 272.972553 
z
" clip-path="url(#p56b9b0ab29)" style="fill: #463480; opacity: 0.55"/>
   </g>
   <g id="patch_13">
    <path d="M 157.517312 275.9395 
L 174.965148 275.9395 
L 174.965148 271.679268 
L 157.517312 271.679268 
z
" clip-path="url(#p56b9b0ab29)" style="fill: #463480; opacity: 0.55"/>
   </g>
   <g id="patch_14">
    <path d="M 174.965148 275.9395 
L 192.412984 275.9395 
L 192.412984 270.27187 
L 174.965148 270.27187 
z
" clip-path="url(#p56b9b0ab29)" style="fill: #463480; opacity: 0.55"/>
   </g>
   <g id="patch_15">
    <path d="M 192.412984 275.9395 
L 209.86082 275.9395 
L 209.86082 269.358963 
L 192.412984 269.358963 
z
" clip-path="url(#p56b9b0ab29)" style="fill: #463480; opacity: 0.55"/>
   </g>
   <g id="patch_16">
    <path d="M 209.86082 275.9395 
L 227.308656 275.9395 
L 227.308656 267.989603 
L 209.86082 267.989603 
z
" clip-path="url(#p56b9b0ab29)" style="fill: #463480; opacity: 0.55"/>
   </g>
   <g id="patch_17">
    <path d="M 227.308656 275.9395 
L 244.756492 275.9395 
L 244.756492 265.136769 
L 227.308656 265.136769 
z
" clip-path="url(#p56b9b0ab29)" style="fill: #463480; opacity: 0.55"/>
   </g>
   <g id="patch_18">
    <path d="M 244.756492 275.9395 
L 262.204328 275.9395 
L 262.204328 264.299937 
L 244.756492 264.299937 
z
" clip-path="url(#p56b9b0ab29)" style="fill: #463480; opacity: 0.55"/>
   </g>
   <g id="patch_19">
    <path d="M 262.204328 275.9395 
L 279.652165 275.9395 
L 279.652165 263.539182 
L 262.204328 263.539182 
z
" clip-path="url(#p56b9b0ab29)" style="fill: #463480; opacity: 0.55"/>
   </g>
   <g id="patch_20">
    <path d="M 279.652165 275.9395 
L 297.100001 275.9395 
L 297.100001 261.33299 
L 279.652165 261.33299 
z
" clip-path="url(#p56b9b0ab29)" style="fill: #463480; opacity: 0.55"/>
   </g>
   <g id="patch_21">
    <path d="M 297.100001 275.9395 
L 314.547837 275.9395 
L 314.547837 261.33299 
L 297.100001 261.33299 
z
" clip-path="url(#p56b9b0ab29)" style="fill: #463480; opacity: 0.55"/>
   </g>
   <g id="patch_22">
    <path d="M 314.547837 275.9395 
L 331.995673 275.9395 
L 331.995673 261.561217 
L 314.547837 261.561217 
z
" clip-path="url(#p56b9b0ab29)" style="fill: #463480; opacity: 0.55"/>
   </g>
   <g id="patch_23">
    <path d="M 331.995673 275.9395 
L 349.443509 275.9395 
L 349.443509 263.120766 
L 331.995673 263.120766 
z
" clip-path="url(#p56b9b0ab29)" style="fill: #463480; opacity: 0.55"/>
   </g>
   <g id="patch_24">
    <path d="M 349.443509 275.9395 
L 366.891345 275.9395 
L 366.891345 264.223862 
L 349.443509 264.223862 
z
" clip-path="url(#p56b9b0ab29)" style="fill: #463480; opacity: 0.55"/>
   </g>
   <g id="patch_25">
    <path d="M 366.891345 275.9395 
L 384.339181 275.9395 
L 384.339181 263.881522 
L 366.891345 263.881522 
z
" clip-path="url(#p56b9b0ab29)" style="fill: #463480; opacity: 0.55"/>
   </g>
   <g id="patch_26">
    <path d="M 384.339181 275.9395 
L 401.787017 275.9395 
L 401.787017 265.935562 
L 384.339181 265.935562 
z
" clip-path="url(#p56b9b0ab29)" style="fill: #463480; opacity: 0.55"/>
   </g>
   <g id="patch_27">
    <path d="M 401.787017 275.9395 
L 419.234854 275.9395 
L 419.234854 268.141754 
L 401.787017 268.141754 
z
" clip-path="url(#p56b9b0ab29)" style="fill: #463480; opacity: 0.55"/>
   </g>
   <g id="patch_28">
    <path d="M 419.234854 275.9395 
L 436.68269 275.9395 
L 436.68269 268.940547 
L 419.234854 268.940547 
z
" clip-path="url(#p56b9b0ab29)" style="fill: #463480; opacity: 0.55"/>
   </g>
   <g id="patch_29">
    <path d="M 436.68269 275.9395 
L 454.130526 275.9395 
L 454.130526 271.260852 
L 436.68269 271.260852 
z
" clip-path="url(#p56b9b0ab29)" style="fill: #463480; opacity: 0.55"/>
   </g>
   <g id="patch_30">
    <path d="M 454.130526 275.9395 
L 471.578362 275.9395 
L 471.578362 271.98357 
L 454.130526 271.98357 
z
" clip-path="url(#p56b9b0ab29)" style="fill: #463480; opacity: 0.55"/>
   </g>
   <g id="patch_31">
    <path d="M 471.578362 275.9395 
L 489.026198 275.9395 
L 489.026198 273.314893 
L 471.578362 273.314893 
z
" clip-path="url(#p56b9b0ab29)" style="fill: #463480; opacity: 0.55"/>
   </g>
   <g id="patch_32">
    <path d="M 489.026198 275.9395 
L 506.474034 275.9395 
L 506.474034 274.113686 
L 489.026198 274.113686 
z
" clip-path="url(#p56b9b0ab29)" style="fill: #463480; opacity: 0.55"/>
   </g>
   <g id="patch_33">
    <path d="M 506.474034 275.9395 
L 523.92187 275.9395 
L 523.92187 274.532102 
L 506.474034 274.532102 
z
" clip-path="url(#p56b9b0ab29)" style="fill: #463480; opacity: 0.55"/>
   </g>
   <g id="patch_34">
    <path d="M 523.92187 275.9395 
L 541.369706 275.9395 
L 541.369706 275.216782 
L 523.92187 275.216782 
z
" clip-path="url(#p56b9b0ab29)" style="fill: #463480; opacity: 0.55"/>
   </g>
   <g id="patch_35">
    <path d="M 541.369706 275.9395 
L 558.817542 275.9395 
L 558.817542 275.102669 
L 541.369706 275.102669 
z
" clip-path="url(#p56b9b0ab29)" style="fill: #463480; opacity: 0.55"/>
   </g>
   <g id="patch_36">
    <path d="M 558.817542 275.9395 
L 576.265379 275.9395 
L 576.265379 275.59716 
L 558.817542 275.59716 
z
" clip-path="url(#p56b9b0ab29)" style="fill: #463480; opacity: 0.55"/>
   </g>
   <g id="patch_37">
    <path d="M 576.265379 275.9395 
L 593.713215 275.9395 
L 593.713215 275.787349 
L 576.265379 275.787349 
z
" clip-path="url(#p56b9b0ab29)" style="fill: #463480; opacity: 0.55"/>
   </g>
   <g id="patch_38">
    <path d="M 593.713215 275.9395 
L 611.161051 275.9395 
L 611.161051 275.711273 
L 593.713215 275.711273 
z
" clip-path="url(#p56b9b0ab29)" style="fill: #463480; opacity: 0.55"/>
   </g>
   <g id="patch_39">
    <path d="M 611.161051 275.9395 
L 628.608887 275.9395 
L 628.608887 275.825387 
L 611.161051 275.825387 
z
" clip-path="url(#p56b9b0ab29)" style="fill: #463480; opacity: 0.55"/>
   </g>
   <g id="patch_40">
    <path d="M 628.608887 275.9395 
L 646.056723 275.9395 
L 646.056723 275.9395 
L 628.608887 275.9395 
z
" clip-path="url(#p56b9b0ab29)" style="fill: #463480; opacity: 0.55"/>
   </g>
   <g id="patch_41">
    <path d="M 646.056723 275.9395 
L 663.504559 275.9395 
L 663.504559 275.901462 
L 646.056723 275.901462 
z
" clip-path="url(#p56b9b0ab29)" style="fill: #463480; opacity: 0.55"/>
   </g>
   <g id="patch_42">
    <path d="M 663.504559 275.9395 
L 680.952395 275.9395 
L 680.952395 275.863424 
L 663.504559 275.863424 
z
" clip-path="url(#p56b9b0ab29)" style="fill: #463480; opacity: 0.55"/>
   </g>
   <g id="patch_43">
    <path d="M 143.991778 275.9395 
L 152.292403 275.9395 
L 152.292403 275.859545 
L 143.991778 275.859545 
z
" clip-path="url(#p56b9b0ab29)" style="fill: #31668e; opacity: 0.55"/>
   </g>
   <g id="patch_44">
    <path d="M 152.292403 275.9395 
L 160.593028 275.9395 
L 160.593028 275.9395 
L 152.292403 275.9395 
z
" clip-path="url(#p56b9b0ab29)" style="fill: #31668e; opacity: 0.55"/>
   </g>
   <g id="patch_45">
    <path d="M 160.593028 275.9395 
L 168.893653 275.9395 
L 168.893653 275.61968 
L 160.593028 275.61968 
z
" clip-path="url(#p56b9b0ab29)" style="fill: #31668e; opacity: 0.55"/>
   </g>
   <g id="patch_46">
    <path d="M 168.893653 275.9395 
L 177.194278 275.9395 
L 177.194278 275.539725 
L 168.893653 275.539725 
z
" clip-path="url(#p56b9b0ab29)" style="fill: #31668e; opacity: 0.55"/>
   </g>
   <g id="patch_47">
    <path d="M 177.194278 275.9395 
L 185.494902 275.9395 
L 185.494902 275.379814 
L 177.194278 275.379814 
z
" clip-path="url(#p56b9b0ab29)" style="fill: #31668e; opacity: 0.55"/>
   </g>
   <g id="patch_48">
    <path d="M 185.494902 275.9395 
L 193.795527 275.9395 
L 193.795527 275.299859 
L 185.494902 275.299859 
z
" clip-path="url(#p56b9b0ab29)" style="fill: #31668e; opacity: 0.55"/>
   </g>
   <g id="patch_49">
    <path d="M 193.795527 275.9395 
L 202.096152 275.9395 
L 202.096152 274.660219 
L 193.795527 274.660219 
z
" clip-path="url(#p56b9b0ab29)" style="fill: #31668e; opacity: 0.55"/>
   </g>
   <g id="patch_50">
    <path d="M 202.096152 275.9395 
L 210.396777 275.9395 
L 210.396777 274.420354 
L 202.096152 274.420354 
z
" clip-path="url(#p56b9b0ab29)" style="fill: #31668e; opacity: 0.55"/>
   </g>
   <g id="patch_51">
    <path d="M 210.396777 275.9395 
L 218.697401 275.9395 
L 218.697401 273.460893 
L 210.396777 273.460893 
z
" clip-path="url(#p56b9b0ab29)" style="fill: #31668e; opacity: 0.55"/>
   </g>
   <g id="patch_52">
    <path d="M 218.697401 275.9395 
L 226.998026 275.9395 
L 226.998026 271.062241 
L 218.697401 271.062241 
z
" clip-path="url(#p56b9b0ab29)" style="fill: #31668e; opacity: 0.55"/>
   </g>
   <g id="patch_53">
    <path d="M 226.998026 275.9395 
L 235.298651 275.9395 
L 235.298651 270.90233 
L 226.998026 270.90233 
z
" clip-path="url(#p56b9b0ab29)" style="fill: #31668e; opacity: 0.55"/>
   </g>
   <g id="patch_54">
    <path d="M 235.298651 275.9395 
L 243.599276 275.9395 
L 243.599276 267.784083 
L 235.298651 267.784083 
z
" clip-path="url(#p56b9b0ab29)" style="fill: #31668e; opacity: 0.55"/>
   </g>
   <g id="patch_55">
    <path d="M 243.599276 275.9395 
L 251.899901 275.9395 
L 251.899901 264.266059 
L 243.599276 264.266059 
z
" clip-path="url(#p56b9b0ab29)" style="fill: #31668e; opacity: 0.55"/>
   </g>
   <g id="patch_56">
    <path d="M 251.899901 275.9395 
L 260.200525 275.9395 
L 260.200525 261.627542 
L 251.899901 261.627542 
z
" clip-path="url(#p56b9b0ab29)" style="fill: #31668e; opacity: 0.55"/>
   </g>
   <g id="patch_57">
    <path d="M 260.200525 275.9395 
L 268.50115 275.9395 
L 268.50115 259.148935 
L 260.200525 259.148935 
z
" clip-path="url(#p56b9b0ab29)" style="fill: #31668e; opacity: 0.55"/>
   </g>
   <g id="patch_58">
    <path d="M 268.50115 275.9395 
L 276.801775 275.9395 
L 276.801775 257.629788 
L 268.50115 257.629788 
z
" clip-path="url(#p56b9b0ab29)" style="fill: #31668e; opacity: 0.55"/>
   </g>
   <g id="patch_59">
    <path d="M 276.801775 275.9395 
L 285.1024 275.9395 
L 285.1024 254.911316 
L 276.801775 254.911316 
z
" clip-path="url(#p56b9b0ab29)" style="fill: #31668e; opacity: 0.55"/>
   </g>
   <g id="patch_60">
    <path d="M 285.1024 275.9395 
L 293.403025 275.9395 
L 293.403025 251.633158 
L 285.1024 251.633158 
z
" clip-path="url(#p56b9b0ab29)" style="fill: #31668e; opacity: 0.55"/>
   </g>
   <g id="patch_61">
    <path d="M 293.403025 275.9395 
L 301.703649 275.9395 
L 301.703649 249.394416 
L 293.403025 249.394416 
z
" clip-path="url(#p56b9b0ab29)" style="fill: #31668e; opacity: 0.55"/>
   </g>
   <g id="patch_62">
    <path d="M 301.703649 275.9395 
L 310.004274 275.9395 
L 310.004274 246.915808 
L 301.703649 246.915808 
z
" clip-path="url(#p56b9b0ab29)" style="fill: #31668e; opacity: 0.55"/>
   </g>
   <g id="patch_63">
    <path d="M 310.004274 275.9395 
L 318.304899 275.9395 
L 318.304899 247.555449 
L 310.004274 247.555449 
z
" clip-path="url(#p56b9b0ab29)" style="fill: #31668e; opacity: 0.55"/>
   </g>
   <g id="patch_64">
    <path d="M 318.304899 275.9395 
L 326.605524 275.9395 
L 326.605524 244.597111 
L 318.304899 244.597111 
z
" clip-path="url(#p56b9b0ab29)" style="fill: #31668e; opacity: 0.55"/>
   </g>
   <g id="patch_65">
    <path d="M 326.605524 275.9395 
L 334.906148 275.9395 
L 334.906148 251.153427 
L 326.605524 251.153427 
z
" clip-path="url(#p56b9b0ab29)" style="fill: #31668e; opacity: 0.55"/>
   </g>
   <g id="patch_66">
    <path d="M 334.906148 275.9395 
L 343.206773 275.9395 
L 343.206773 251.393293 
L 334.906148 251.393293 
z
" clip-path="url(#p56b9b0ab29)" style="fill: #31668e; opacity: 0.55"/>
   </g>
   <g id="patch_67">
    <path d="M 343.206773 275.9395 
L 351.507398 275.9395 
L 351.507398 253.71199 
L 343.206773 253.71199 
z
" clip-path="url(#p56b9b0ab29)" style="fill: #31668e; opacity: 0.55"/>
   </g>
   <g id="patch_68">
    <path d="M 351.507398 275.9395 
L 359.808023 275.9395 
L 359.808023 256.270552 
L 351.507398 256.270552 
z
" clip-path="url(#p56b9b0ab29)" style="fill: #31668e; opacity: 0.55"/>
   </g>
   <g id="patch_69">
    <path d="M 359.808023 275.9395 
L 368.108648 275.9395 
L 368.108648 260.827991 
L 359.808023 260.827991 
z
" clip-path="url(#p56b9b0ab29)" style="fill: #31668e; opacity: 0.55"/>
   </g>
   <g id="patch_70">
    <path d="M 368.108648 275.9395 
L 376.409272 275.9395 
L 376.409272 263.946239 
L 368.108648 263.946239 
z
" clip-path="url(#p56b9b0ab29)" style="fill: #31668e; opacity: 0.55"/>
   </g>
   <g id="patch_71">
    <path d="M 376.409272 275.9395 
L 384.709897 275.9395 
L 384.709897 266.264936 
L 376.409272 266.264936 
z
" clip-path="url(#p56b9b0ab29)" style="fill: #31668e; opacity: 0.55"/>
   </g>
   <g id="patch_72">
    <path d="M 384.709897 275.9395 
L 393.010522 275.9395 
L 393.010522 267.864038 
L 384.709897 267.864038 
z
" clip-path="url(#p56b9b0ab29)" style="fill: #31668e; opacity: 0.55"/>
   </g>
   <g id="patch_73">
    <path d="M 393.010522 275.9395 
L 401.311147 275.9395 
L 401.311147 270.182735 
L 393.010522 270.182735 
z
" clip-path="url(#p56b9b0ab29)" style="fill: #31668e; opacity: 0.55"/>
   </g>
   <g id="patch_74">
    <path d="M 401.311147 275.9395 
L 409.611772 275.9395 
L 409.611772 272.341522 
L 401.311147 272.341522 
z
" clip-path="url(#p56b9b0ab29)" style="fill: #31668e; opacity: 0.55"/>
   </g>
   <g id="patch_75">
    <path d="M 409.611772 275.9395 
L 417.912396 275.9395 
L 417.912396 272.901207 
L 409.611772 272.901207 
z
" clip-path="url(#p56b9b0ab29)" style="fill: #31668e; opacity: 0.55"/>
   </g>
   <g id="patch_76">
    <path d="M 417.912396 275.9395 
L 426.213021 275.9395 
L 426.213021 274.340399 
L 417.912396 274.340399 
z
" clip-path="url(#p56b9b0ab29)" style="fill: #31668e; opacity: 0.55"/>
   </g>
   <g id="patch_77">
    <path d="M 426.213021 275.9395 
L 434.513646 275.9395 
L 434.513646 274.980039 
L 426.213021 274.980039 
z
" clip-path="url(#p56b9b0ab29)" style="fill: #31668e; opacity: 0.55"/>
   </g>
   <g id="patch_78">
    <path d="M 434.513646 275.9395 
L 442.814271 275.9395 
L 442.814271 274.900084 
L 434.513646 274.900084 
z
" clip-path="url(#p56b9b0ab29)" style="fill: #31668e; opacity: 0.55"/>
   </g>
   <g id="patch_79">
    <path d="M 442.814271 275.9395 
L 451.114896 275.9395 
L 451.114896 275.77959 
L 442.814271 275.77959 
z
" clip-path="url(#p56b9b0ab29)" style="fill: #31668e; opacity: 0.55"/>
   </g>
   <g id="patch_80">
    <path d="M 451.114896 275.9395 
L 459.41552 275.9395 
L 459.41552 275.61968 
L 451.114896 275.61968 
z
" clip-path="url(#p56b9b0ab29)" style="fill: #31668e; opacity: 0.55"/>
   </g>
   <g id="patch_81">
    <path d="M 459.41552 275.9395 
L 467.716145 275.9395 
L 467.716145 275.9395 
L 459.41552 275.9395 
z
" clip-path="url(#p56b9b0ab29)" style="fill: #31668e; opacity: 0.55"/>
   </g>
   <g id="patch_82">
    <path d="M 467.716145 275.9395 
L 476.01677 275.9395 
L 476.01677 275.77959 
L 467.716145 275.77959 
z
" clip-path="url(#p56b9b0ab29)" style="fill: #31668e; opacity: 0.55"/>
   </g>
   <g id="patch_83">
    <path d="M 236.88548 275.9395 
L 241.018104 275.9395 
L 241.018104 275.618311 
L 236.88548 275.618311 
z
" clip-path="url(#p56b9b0ab29)" style="fill: #21918c; opacity: 0.55"/>
   </g>
   <g id="patch_84">
    <path d="M 241.018104 275.9395 
L 245.150728 275.9395 
L 245.150728 275.618311 
L 241.018104 275.618311 
z
" clip-path="url(#p56b9b0ab29)" style="fill: #21918c; opacity: 0.55"/>
   </g>
   <g id="patch_85">
    <path d="M 245.150728 275.9395 
L 249.283352 275.9395 
L 249.283352 274.494149 
L 245.150728 274.494149 
z
" clip-path="url(#p56b9b0ab29)" style="fill: #21918c; opacity: 0.55"/>
   </g>
   <g id="patch_86">
    <path d="M 249.283352 275.9395 
L 253.415975 275.9395 
L 253.415975 274.172959 
L 249.283352 274.172959 
z
" clip-path="url(#p56b9b0ab29)" style="fill: #21918c; opacity: 0.55"/>
   </g>
   <g id="patch_87">
    <path d="M 253.415975 275.9395 
L 257.548599 275.9395 
L 257.548599 273.530581 
L 253.415975 273.530581 
z
" clip-path="url(#p56b9b0ab29)" style="fill: #21918c; opacity: 0.55"/>
   </g>
   <g id="patch_88">
    <path d="M 257.548599 275.9395 
L 261.681223 275.9395 
L 261.681223 272.567013 
L 257.548599 272.567013 
z
" clip-path="url(#p56b9b0ab29)" style="fill: #21918c; opacity: 0.55"/>
   </g>
   <g id="patch_89">
    <path d="M 261.681223 275.9395 
L 265.813847 275.9395 
L 265.813847 270.479284 
L 261.681223 270.479284 
z
" clip-path="url(#p56b9b0ab29)" style="fill: #21918c; opacity: 0.55"/>
   </g>
   <g id="patch_90">
    <path d="M 265.813847 275.9395 
L 269.946471 275.9395 
L 269.946471 267.749176 
L 265.813847 267.749176 
z
" clip-path="url(#p56b9b0ab29)" style="fill: #21918c; opacity: 0.55"/>
   </g>
   <g id="patch_91">
    <path d="M 269.946471 275.9395 
L 274.079095 275.9395 
L 274.079095 265.982635 
L 269.946471 265.982635 
z
" clip-path="url(#p56b9b0ab29)" style="fill: #21918c; opacity: 0.55"/>
   </g>
   <g id="patch_92">
    <path d="M 274.079095 275.9395 
L 278.211719 275.9395 
L 278.211719 257.792311 
L 274.079095 257.792311 
z
" clip-path="url(#p56b9b0ab29)" style="fill: #21918c; opacity: 0.55"/>
   </g>
   <g id="patch_93">
    <path d="M 278.211719 275.9395 
L 282.344343 275.9395 
L 282.344343 257.149932 
L 278.211719 257.149932 
z
" clip-path="url(#p56b9b0ab29)" style="fill: #21918c; opacity: 0.55"/>
   </g>
   <g id="patch_94">
    <path d="M 282.344343 275.9395 
L 286.476967 275.9395 
L 286.476967 251.850311 
L 282.344343 251.850311 
z
" clip-path="url(#p56b9b0ab29)" style="fill: #21918c; opacity: 0.55"/>
   </g>
   <g id="patch_95">
    <path d="M 286.476967 275.9395 
L 290.60959 275.9395 
L 290.60959 243.499392 
L 286.476967 243.499392 
z
" clip-path="url(#p56b9b0ab29)" style="fill: #21918c; opacity: 0.55"/>
   </g>
   <g id="patch_96">
    <path d="M 290.60959 275.9395 
L 294.742214 275.9395 
L 294.742214 236.915013 
L 290.60959 236.915013 
z
" clip-path="url(#p56b9b0ab29)" style="fill: #21918c; opacity: 0.55"/>
   </g>
   <g id="patch_97">
    <path d="M 294.742214 275.9395 
L 298.874838 275.9395 
L 298.874838 233.703121 
L 294.742214 233.703121 
z
" clip-path="url(#p56b9b0ab29)" style="fill: #21918c; opacity: 0.55"/>
   </g>
   <g id="patch_98">
    <path d="M 298.874838 275.9395 
L 303.007462 275.9395 
L 303.007462 224.549229 
L 298.874838 224.549229 
z
" clip-path="url(#p56b9b0ab29)" style="fill: #21918c; opacity: 0.55"/>
   </g>
   <g id="patch_99">
    <path d="M 303.007462 275.9395 
L 307.140086 275.9395 
L 307.140086 224.870419 
L 303.007462 224.870419 
z
" clip-path="url(#p56b9b0ab29)" style="fill: #21918c; opacity: 0.55"/>
   </g>
   <g id="patch_100">
    <path d="M 307.140086 275.9395 
L 311.27271 275.9395 
L 311.27271 217.643662 
L 307.140086 217.643662 
z
" clip-path="url(#p56b9b0ab29)" style="fill: #21918c; opacity: 0.55"/>
   </g>
   <g id="patch_101">
    <path d="M 311.27271 275.9395 
L 315.405334 275.9395 
L 315.405334 221.176743 
L 311.27271 221.176743 
z
" clip-path="url(#p56b9b0ab29)" style="fill: #21918c; opacity: 0.55"/>
   </g>
   <g id="patch_102">
    <path d="M 315.405334 275.9395 
L 319.537958 275.9395 
L 319.537958 219.249608 
L 315.405334 219.249608 
z
" clip-path="url(#p56b9b0ab29)" style="fill: #21918c; opacity: 0.55"/>
   </g>
   <g id="patch_103">
    <path d="M 319.537958 275.9395 
L 323.670582 275.9395 
L 323.670582 226.155175 
L 319.537958 226.155175 
z
" clip-path="url(#p56b9b0ab29)" style="fill: #21918c; opacity: 0.55"/>
   </g>
   <g id="patch_104">
    <path d="M 323.670582 275.9395 
L 327.803205 275.9395 
L 327.803205 226.636959 
L 323.670582 226.636959 
z
" clip-path="url(#p56b9b0ab29)" style="fill: #21918c; opacity: 0.55"/>
   </g>
   <g id="patch_105">
    <path d="M 327.803205 275.9395 
L 331.935829 275.9395 
L 331.935829 233.381932 
L 327.803205 233.381932 
z
" clip-path="url(#p56b9b0ab29)" style="fill: #21918c; opacity: 0.55"/>
   </g>
   <g id="patch_106">
    <path d="M 331.935829 275.9395 
L 336.068453 275.9395 
L 336.068453 231.936581 
L 331.935829 231.936581 
z
" clip-path="url(#p56b9b0ab29)" style="fill: #21918c; opacity: 0.55"/>
   </g>
   <g id="patch_107">
    <path d="M 336.068453 275.9395 
L 340.201077 275.9395 
L 340.201077 245.908311 
L 336.068453 245.908311 
z
" clip-path="url(#p56b9b0ab29)" style="fill: #21918c; opacity: 0.55"/>
   </g>
   <g id="patch_108">
    <path d="M 340.201077 275.9395 
L 344.333701 275.9395 
L 344.333701 247.353662 
L 340.201077 247.353662 
z
" clip-path="url(#p56b9b0ab29)" style="fill: #21918c; opacity: 0.55"/>
   </g>
   <g id="patch_109">
    <path d="M 344.333701 275.9395 
L 348.466325 275.9395 
L 348.466325 254.25923 
L 344.333701 254.25923 
z
" clip-path="url(#p56b9b0ab29)" style="fill: #21918c; opacity: 0.55"/>
   </g>
   <g id="patch_110">
    <path d="M 348.466325 275.9395 
L 352.598949 275.9395 
L 352.598949 256.507554 
L 348.466325 256.507554 
z
" clip-path="url(#p56b9b0ab29)" style="fill: #21918c; opacity: 0.55"/>
   </g>
   <g id="patch_111">
    <path d="M 352.598949 275.9395 
L 356.731573 275.9395 
L 356.731573 264.858473 
L 352.598949 264.858473 
z
" clip-path="url(#p56b9b0ab29)" style="fill: #21918c; opacity: 0.55"/>
   </g>
   <g id="patch_112">
    <path d="M 356.731573 275.9395 
L 360.864197 275.9395 
L 360.864197 265.982635 
L 356.731573 265.982635 
z
" clip-path="url(#p56b9b0ab29)" style="fill: #21918c; opacity: 0.55"/>
   </g>
   <g id="patch_113">
    <path d="M 360.864197 275.9395 
L 364.99682 275.9395 
L 364.99682 269.836905 
L 360.864197 269.836905 
z
" clip-path="url(#p56b9b0ab29)" style="fill: #21918c; opacity: 0.55"/>
   </g>
   <g id="patch_114">
    <path d="M 364.99682 275.9395 
L 369.129444 275.9395 
L 369.129444 271.764041 
L 364.99682 271.764041 
z
" clip-path="url(#p56b9b0ab29)" style="fill: #21918c; opacity: 0.55"/>
   </g>
   <g id="patch_115">
    <path d="M 369.129444 275.9395 
L 373.262068 275.9395 
L 373.262068 274.172959 
L 369.129444 274.172959 
z
" clip-path="url(#p56b9b0ab29)" style="fill: #21918c; opacity: 0.55"/>
   </g>
   <g id="patch_116">
    <path d="M 373.262068 275.9395 
L 377.394692 275.9395 
L 377.394692 274.494149 
L 373.262068 274.494149 
z
" clip-path="url(#p56b9b0ab29)" style="fill: #21918c; opacity: 0.55"/>
   </g>
   <g id="patch_117">
    <path d="M 377.394692 275.9395 
L 381.527316 275.9395 
L 381.527316 274.975932 
L 377.394692 274.975932 
z
" clip-path="url(#p56b9b0ab29)" style="fill: #21918c; opacity: 0.55"/>
   </g>
   <g id="patch_118">
    <path d="M 381.527316 275.9395 
L 385.65994 275.9395 
L 385.65994 274.975932 
L 381.527316 274.975932 
z
" clip-path="url(#p56b9b0ab29)" style="fill: #21918c; opacity: 0.55"/>
   </g>
   <g id="patch_119">
    <path d="M 385.65994 275.9395 
L 389.792564 275.9395 
L 389.792564 275.9395 
L 385.65994 275.9395 
z
" clip-path="url(#p56b9b0ab29)" style="fill: #21918c; opacity: 0.55"/>
   </g>
   <g id="patch_120">
    <path d="M 389.792564 275.9395 
L 393.925188 275.9395 
L 393.925188 275.457716 
L 389.792564 275.457716 
z
" clip-path="url(#p56b9b0ab29)" style="fill: #21918c; opacity: 0.55"/>
   </g>
   <g id="patch_121">
    <path d="M 393.925188 275.9395 
L 398.057812 275.9395 
L 398.057812 275.618311 
L 393.925188 275.618311 
z
" clip-path="url(#p56b9b0ab29)" style="fill: #21918c; opacity: 0.55"/>
   </g>
   <g id="patch_122">
    <path d="M 398.057812 275.9395 
L 402.190435 275.9395 
L 402.190435 275.778905 
L 398.057812 275.778905 
z
" clip-path="url(#p56b9b0ab29)" style="fill: #21918c; opacity: 0.55"/>
   </g>
   <g id="patch_123">
    <path d="M 270.604283 275.9395 
L 272.737655 275.9395 
L 272.737655 275.628407 
L 270.604283 275.628407 
z
" clip-path="url(#p56b9b0ab29)" style="fill: #38b977; opacity: 0.55"/>
   </g>
   <g id="patch_124">
    <path d="M 272.737655 275.9395 
L 274.871028 275.9395 
L 274.871028 275.317314 
L 272.737655 275.317314 
z
" clip-path="url(#p56b9b0ab29)" style="fill: #38b977; opacity: 0.55"/>
   </g>
   <g id="patch_125">
    <path d="M 274.871028 275.9395 
L 277.0044 275.9395 
L 277.0044 274.695128 
L 274.871028 274.695128 
z
" clip-path="url(#p56b9b0ab29)" style="fill: #38b977; opacity: 0.55"/>
   </g>
   <g id="patch_126">
    <path d="M 277.0044 275.9395 
L 279.137773 275.9395 
L 279.137773 274.695128 
L 277.0044 274.695128 
z
" clip-path="url(#p56b9b0ab29)" style="fill: #38b977; opacity: 0.55"/>
   </g>
   <g id="patch_127">
    <path d="M 279.137773 275.9395 
L 281.271146 275.9395 
L 281.271146 275.006221 
L 279.137773 275.006221 
z
" clip-path="url(#p56b9b0ab29)" style="fill: #38b977; opacity: 0.55"/>
   </g>
   <g id="patch_128">
    <path d="M 281.271146 275.9395 
L 283.404518 275.9395 
L 283.404518 272.206385 
L 281.271146 272.206385 
z
" clip-path="url(#p56b9b0ab29)" style="fill: #38b977; opacity: 0.55"/>
   </g>
   <g id="patch_129">
    <path d="M 283.404518 275.9395 
L 285.537891 275.9395 
L 285.537891 269.406549 
L 283.404518 269.406549 
z
" clip-path="url(#p56b9b0ab29)" style="fill: #38b977; opacity: 0.55"/>
   </g>
   <g id="patch_130">
    <path d="M 285.537891 275.9395 
L 287.671263 275.9395 
L 287.671263 269.717642 
L 285.537891 269.717642 
z
" clip-path="url(#p56b9b0ab29)" style="fill: #38b977; opacity: 0.55"/>
   </g>
   <g id="patch_131">
    <path d="M 287.671263 275.9395 
L 289.804636 275.9395 
L 289.804636 265.984527 
L 287.671263 265.984527 
z
" clip-path="url(#p56b9b0ab29)" style="fill: #38b977; opacity: 0.55"/>
   </g>
   <g id="patch_132">
    <path d="M 289.804636 275.9395 
L 291.938009 275.9395 
L 291.938009 260.073762 
L 289.804636 260.073762 
z
" clip-path="url(#p56b9b0ab29)" style="fill: #38b977; opacity: 0.55"/>
   </g>
   <g id="patch_133">
    <path d="M 291.938009 275.9395 
L 294.071381 275.9395 
L 294.071381 254.785183 
L 291.938009 254.785183 
z
" clip-path="url(#p56b9b0ab29)" style="fill: #38b977; opacity: 0.55"/>
   </g>
   <g id="patch_134">
    <path d="M 294.071381 275.9395 
L 296.204754 275.9395 
L 296.204754 248.874418 
L 294.071381 248.874418 
z
" clip-path="url(#p56b9b0ab29)" style="fill: #38b977; opacity: 0.55"/>
   </g>
   <g id="patch_135">
    <path d="M 296.204754 275.9395 
L 298.338126 275.9395 
L 298.338126 237.052888 
L 296.204754 237.052888 
z
" clip-path="url(#p56b9b0ab29)" style="fill: #38b977; opacity: 0.55"/>
   </g>
   <g id="patch_136">
    <path d="M 298.338126 275.9395 
L 300.471499 275.9395 
L 300.471499 226.164636 
L 298.338126 226.164636 
z
" clip-path="url(#p56b9b0ab29)" style="fill: #38b977; opacity: 0.55"/>
   </g>
   <g id="patch_137">
    <path d="M 300.471499 275.9395 
L 302.604871 275.9395 
L 302.604871 209.676713 
L 300.471499 209.676713 
z
" clip-path="url(#p56b9b0ab29)" style="fill: #38b977; opacity: 0.55"/>
   </g>
   <g id="patch_138">
    <path d="M 302.604871 275.9395 
L 304.738244 275.9395 
L 304.738244 195.366439 
L 302.604871 195.366439 
z
" clip-path="url(#p56b9b0ab29)" style="fill: #38b977; opacity: 0.55"/>
   </g>
   <g id="patch_139">
    <path d="M 304.738244 275.9395 
L 306.871617 275.9395 
L 306.871617 176.700865 
L 304.738244 176.700865 
z
" clip-path="url(#p56b9b0ab29)" style="fill: #38b977; opacity: 0.55"/>
   </g>
   <g id="patch_140">
    <path d="M 306.871617 275.9395 
L 309.004989 275.9395 
L 309.004989 178.25633 
L 306.871617 178.25633 
z
" clip-path="url(#p56b9b0ab29)" style="fill: #38b977; opacity: 0.55"/>
   </g>
   <g id="patch_141">
    <path d="M 309.004989 275.9395 
L 311.138362 275.9395 
L 311.138362 168.923543 
L 309.004989 168.923543 
z
" clip-path="url(#p56b9b0ab29)" style="fill: #38b977; opacity: 0.55"/>
   </g>
   <g id="patch_142">
    <path d="M 311.138362 275.9395 
L 313.271734 275.9395 
L 313.271734 156.79092 
L 311.138362 156.79092 
z
" clip-path="url(#p56b9b0ab29)" style="fill: #38b977; opacity: 0.55"/>
   </g>
   <g id="patch_143">
    <path d="M 313.271734 275.9395 
L 315.405107 275.9395 
L 315.405107 161.768406 
L 313.271734 161.768406 
z
" clip-path="url(#p56b9b0ab29)" style="fill: #38b977; opacity: 0.55"/>
   </g>
   <g id="patch_144">
    <path d="M 315.405107 275.9395 
L 317.53848 275.9395 
L 317.53848 168.301357 
L 315.405107 168.301357 
z
" clip-path="url(#p56b9b0ab29)" style="fill: #38b977; opacity: 0.55"/>
   </g>
   <g id="patch_145">
    <path d="M 317.53848 275.9395 
L 319.671852 275.9395 
L 319.671852 170.7901 
L 317.53848 170.7901 
z
" clip-path="url(#p56b9b0ab29)" style="fill: #38b977; opacity: 0.55"/>
   </g>
   <g id="patch_146">
    <path d="M 319.671852 275.9395 
L 321.805225 275.9395 
L 321.805225 184.789281 
L 319.671852 184.789281 
z
" clip-path="url(#p56b9b0ab29)" style="fill: #38b977; opacity: 0.55"/>
   </g>
   <g id="patch_147">
    <path d="M 321.805225 275.9395 
L 323.938597 275.9395 
L 323.938597 201.277204 
L 321.805225 201.277204 
z
" clip-path="url(#p56b9b0ab29)" style="fill: #38b977; opacity: 0.55"/>
   </g>
   <g id="patch_148">
    <path d="M 323.938597 275.9395 
L 326.07197 275.9395 
L 326.07197 205.010319 
L 323.938597 205.010319 
z
" clip-path="url(#p56b9b0ab29)" style="fill: #38b977; opacity: 0.55"/>
   </g>
   <g id="patch_149">
    <path d="M 326.07197 275.9395 
L 328.205343 275.9395 
L 328.205343 209.676713 
L 326.07197 209.676713 
z
" clip-path="url(#p56b9b0ab29)" style="fill: #38b977; opacity: 0.55"/>
   </g>
   <g id="patch_150">
    <path d="M 328.205343 275.9395 
L 330.338715 275.9395 
L 330.338715 228.031194 
L 328.205343 228.031194 
z
" clip-path="url(#p56b9b0ab29)" style="fill: #38b977; opacity: 0.55"/>
   </g>
   <g id="patch_151">
    <path d="M 330.338715 275.9395 
L 332.472088 275.9395 
L 332.472088 241.408188 
L 330.338715 241.408188 
z
" clip-path="url(#p56b9b0ab29)" style="fill: #38b977; opacity: 0.55"/>
   </g>
   <g id="patch_152">
    <path d="M 332.472088 275.9395 
L 334.60546 275.9395 
L 334.60546 247.941139 
L 332.472088 247.941139 
z
" clip-path="url(#p56b9b0ab29)" style="fill: #38b977; opacity: 0.55"/>
   </g>
   <g id="patch_153">
    <path d="M 334.60546 275.9395 
L 336.738833 275.9395 
L 336.738833 254.785183 
L 334.60546 254.785183 
z
" clip-path="url(#p56b9b0ab29)" style="fill: #38b977; opacity: 0.55"/>
   </g>
   <g id="patch_154">
    <path d="M 336.738833 275.9395 
L 338.872206 275.9395 
L 338.872206 261.318134 
L 336.738833 261.318134 
z
" clip-path="url(#p56b9b0ab29)" style="fill: #38b977; opacity: 0.55"/>
   </g>
   <g id="patch_155">
    <path d="M 338.872206 275.9395 
L 341.005578 275.9395 
L 341.005578 266.29562 
L 338.872206 266.29562 
z
" clip-path="url(#p56b9b0ab29)" style="fill: #38b977; opacity: 0.55"/>
   </g>
   <g id="patch_156">
    <path d="M 341.005578 275.9395 
L 343.138951 275.9395 
L 343.138951 269.406549 
L 341.005578 269.406549 
z
" clip-path="url(#p56b9b0ab29)" style="fill: #38b977; opacity: 0.55"/>
   </g>
   <g id="patch_157">
    <path d="M 343.138951 275.9395 
L 345.272323 275.9395 
L 345.272323 272.828571 
L 343.138951 272.828571 
z
" clip-path="url(#p56b9b0ab29)" style="fill: #38b977; opacity: 0.55"/>
   </g>
   <g id="patch_158">
    <path d="M 345.272323 275.9395 
L 347.405696 275.9395 
L 347.405696 273.139664 
L 345.272323 273.139664 
z
" clip-path="url(#p56b9b0ab29)" style="fill: #38b977; opacity: 0.55"/>
   </g>
   <g id="patch_159">
    <path d="M 347.405696 275.9395 
L 349.539069 275.9395 
L 349.539069 274.072943 
L 347.405696 274.072943 
z
" clip-path="url(#p56b9b0ab29)" style="fill: #38b977; opacity: 0.55"/>
   </g>
   <g id="patch_160">
    <path d="M 349.539069 275.9395 
L 351.672441 275.9395 
L 351.672441 275.006221 
L 349.539069 275.006221 
z
" clip-path="url(#p56b9b0ab29)" style="fill: #38b977; opacity: 0.55"/>
   </g>
   <g id="patch_161">
    <path d="M 351.672441 275.9395 
L 353.805814 275.9395 
L 353.805814 275.9395 
L 351.672441 275.9395 
z
" clip-path="url(#p56b9b0ab29)" style="fill: #38b977; opacity: 0.55"/>
   </g>
   <g id="patch_162">
    <path d="M 353.805814 275.9395 
L 355.939186 275.9395 
L 355.939186 275.006221 
L 353.805814 275.006221 
z
" clip-path="url(#p56b9b0ab29)" style="fill: #38b977; opacity: 0.55"/>
   </g>
   <g id="patch_163">
    <path d="M 292.344888 275.9395 
L 293.415491 275.9395 
L 293.415491 275.31959 
L 292.344888 275.31959 
z
" clip-path="url(#p56b9b0ab29)" style="fill: #9bd93c; opacity: 0.55"/>
   </g>
   <g id="patch_164">
    <path d="M 293.415491 275.9395 
L 294.486094 275.9395 
L 294.486094 275.9395 
L 293.415491 275.9395 
z
" clip-path="url(#p56b9b0ab29)" style="fill: #9bd93c; opacity: 0.55"/>
   </g>
   <g id="patch_165">
    <path d="M 294.486094 275.9395 
L 295.556696 275.9395 
L 295.556696 274.699681 
L 294.486094 274.699681 
z
" clip-path="url(#p56b9b0ab29)" style="fill: #9bd93c; opacity: 0.55"/>
   </g>
   <g id="patch_166">
    <path d="M 295.556696 275.9395 
L 296.627299 275.9395 
L 296.627299 273.459861 
L 295.556696 273.459861 
z
" clip-path="url(#p56b9b0ab29)" style="fill: #9bd93c; opacity: 0.55"/>
   </g>
   <g id="patch_167">
    <path d="M 296.627299 275.9395 
L 297.697902 275.9395 
L 297.697902 272.839952 
L 296.627299 272.839952 
z
" clip-path="url(#p56b9b0ab29)" style="fill: #9bd93c; opacity: 0.55"/>
   </g>
   <g id="patch_168">
    <path d="M 297.697902 275.9395 
L 298.768505 275.9395 
L 298.768505 272.839952 
L 297.697902 272.839952 
z
" clip-path="url(#p56b9b0ab29)" style="fill: #9bd93c; opacity: 0.55"/>
   </g>
   <g id="patch_169">
    <path d="M 298.768505 275.9395 
L 299.839108 275.9395 
L 299.839108 266.640855 
L 298.768505 266.640855 
z
" clip-path="url(#p56b9b0ab29)" style="fill: #9bd93c; opacity: 0.55"/>
   </g>
   <g id="patch_170">
    <path d="M 299.839108 275.9395 
L 300.909711 275.9395 
L 300.909711 266.640855 
L 299.839108 266.640855 
z
" clip-path="url(#p56b9b0ab29)" style="fill: #9bd93c; opacity: 0.55"/>
   </g>
   <g id="patch_171">
    <path d="M 300.909711 275.9395 
L 301.980314 275.9395 
L 301.980314 253.002842 
L 300.909711 253.002842 
z
" clip-path="url(#p56b9b0ab29)" style="fill: #9bd93c; opacity: 0.55"/>
   </g>
   <g id="patch_172">
    <path d="M 301.980314 275.9395 
L 303.050916 275.9395 
L 303.050916 249.283384 
L 301.980314 249.283384 
z
" clip-path="url(#p56b9b0ab29)" style="fill: #9bd93c; opacity: 0.55"/>
   </g>
   <g id="patch_173">
    <path d="M 303.050916 275.9395 
L 304.121519 275.9395 
L 304.121519 231.925914 
L 303.050916 231.925914 
z
" clip-path="url(#p56b9b0ab29)" style="fill: #9bd93c; opacity: 0.55"/>
   </g>
   <g id="patch_174">
    <path d="M 304.121519 275.9395 
L 305.192122 275.9395 
L 305.192122 215.188353 
L 304.121519 215.188353 
z
" clip-path="url(#p56b9b0ab29)" style="fill: #9bd93c; opacity: 0.55"/>
   </g>
   <g id="patch_175">
    <path d="M 305.192122 275.9395 
L 306.262725 275.9395 
L 306.262725 191.011876 
L 305.192122 191.011876 
z
" clip-path="url(#p56b9b0ab29)" style="fill: #9bd93c; opacity: 0.55"/>
   </g>
   <g id="patch_176">
    <path d="M 306.262725 275.9395 
L 307.333328 275.9395 
L 307.333328 182.33314 
L 306.262725 182.33314 
z
" clip-path="url(#p56b9b0ab29)" style="fill: #9bd93c; opacity: 0.55"/>
   </g>
   <g id="patch_177">
    <path d="M 307.333328 275.9395 
L 308.403931 275.9395 
L 308.403931 140.799193 
L 307.333328 140.799193 
z
" clip-path="url(#p56b9b0ab29)" style="fill: #9bd93c; opacity: 0.55"/>
   </g>
   <g id="patch_178">
    <path d="M 308.403931 275.9395 
L 309.474534 275.9395 
L 309.474534 129.640819 
L 308.403931 129.640819 
z
" clip-path="url(#p56b9b0ab29)" style="fill: #9bd93c; opacity: 0.55"/>
   </g>
   <g id="patch_179">
    <path d="M 309.474534 275.9395 
L 310.545136 275.9395 
L 310.545136 109.1838 
L 309.474534 109.1838 
z
" clip-path="url(#p56b9b0ab29)" style="fill: #9bd93c; opacity: 0.55"/>
   </g>
   <g id="patch_180">
    <path d="M 310.545136 275.9395 
L 311.615739 275.9395 
L 311.615739 76.328588 
L 310.545136 76.328588 
z
" clip-path="url(#p56b9b0ab29)" style="fill: #9bd93c; opacity: 0.55"/>
   </g>
   <g id="patch_181">
    <path d="M 311.615739 275.9395 
L 312.686342 275.9395 
L 312.686342 56.491478 
L 311.615739 56.491478 
z
" clip-path="url(#p56b9b0ab29)" style="fill: #9bd93c; opacity: 0.55"/>
   </g>
   <g id="patch_182">
    <path d="M 312.686342 275.9395 
L 313.756945 275.9395 
L 313.756945 47.192833 
L 312.686342 47.192833 
z
" clip-path="url(#p56b9b0ab29)" style="fill: #9bd93c; opacity: 0.55"/>
   </g>
   <g id="patch_183">
    <path d="M 313.756945 275.9395 
L 314.827548 275.9395 
L 314.827548 71.98922 
L 313.756945 71.98922 
z
" clip-path="url(#p56b9b0ab29)" style="fill: #9bd93c; opacity: 0.55"/>
   </g>
   <g id="patch_184">
    <path d="M 314.827548 275.9395 
L 315.898151 275.9395 
L 315.898151 52.152111 
L 314.827548 52.152111 
z
" clip-path="url(#p56b9b0ab29)" style="fill: #9bd93c; opacity: 0.55"/>
   </g>
   <g id="patch_185">
    <path d="M 315.898151 275.9395 
L 316.968754 275.9395 
L 316.968754 61.450756 
L 315.898151 61.450756 
z
" clip-path="url(#p56b9b0ab29)" style="fill: #9bd93c; opacity: 0.55"/>
   </g>
   <g id="patch_186">
    <path d="M 316.968754 275.9395 
L 318.039356 275.9395 
L 318.039356 88.106871 
L 316.968754 88.106871 
z
" clip-path="url(#p56b9b0ab29)" style="fill: #9bd93c; opacity: 0.55"/>
   </g>
   <g id="patch_187">
    <path d="M 318.039356 275.9395 
L 319.109959 275.9395 
L 319.109959 90.58651 
L 318.039356 90.58651 
z
" clip-path="url(#p56b9b0ab29)" style="fill: #9bd93c; opacity: 0.55"/>
   </g>
   <g id="patch_188">
    <path d="M 319.109959 275.9395 
L 320.180562 275.9395 
L 320.180562 125.921361 
L 319.109959 125.921361 
z
" clip-path="url(#p56b9b0ab29)" style="fill: #9bd93c; opacity: 0.55"/>
   </g>
   <g id="patch_189">
    <path d="M 320.180562 275.9395 
L 321.251165 275.9395 
L 321.251165 160.016393 
L 320.180562 160.016393 
z
" clip-path="url(#p56b9b0ab29)" style="fill: #9bd93c; opacity: 0.55"/>
   </g>
   <g id="patch_190">
    <path d="M 321.251165 275.9395 
L 322.321768 275.9395 
L 322.321768 186.052598 
L 321.251165 186.052598 
z
" clip-path="url(#p56b9b0ab29)" style="fill: #9bd93c; opacity: 0.55"/>
   </g>
   <g id="patch_191">
    <path d="M 322.321768 275.9395 
L 323.392371 275.9395 
L 323.392371 195.971153 
L 322.321768 195.971153 
z
" clip-path="url(#p56b9b0ab29)" style="fill: #9bd93c; opacity: 0.55"/>
   </g>
   <g id="patch_192">
    <path d="M 323.392371 275.9395 
L 324.462974 275.9395 
L 324.462974 223.247178 
L 323.392371 223.247178 
z
" clip-path="url(#p56b9b0ab29)" style="fill: #9bd93c; opacity: 0.55"/>
   </g>
   <g id="patch_193">
    <path d="M 324.462974 275.9395 
L 325.533577 275.9395 
L 325.533577 235.025462 
L 324.462974 235.025462 
z
" clip-path="url(#p56b9b0ab29)" style="fill: #9bd93c; opacity: 0.55"/>
   </g>
   <g id="patch_194">
    <path d="M 325.533577 275.9395 
L 326.604179 275.9395 
L 326.604179 240.604649 
L 325.533577 240.604649 
z
" clip-path="url(#p56b9b0ab29)" style="fill: #9bd93c; opacity: 0.55"/>
   </g>
   <g id="patch_195">
    <path d="M 326.604179 275.9395 
L 327.674782 275.9395 
L 327.674782 256.7223 
L 326.604179 256.7223 
z
" clip-path="url(#p56b9b0ab29)" style="fill: #9bd93c; opacity: 0.55"/>
   </g>
   <g id="patch_196">
    <path d="M 327.674782 275.9395 
L 328.745385 275.9395 
L 328.745385 266.020945 
L 327.674782 266.020945 
z
" clip-path="url(#p56b9b0ab29)" style="fill: #9bd93c; opacity: 0.55"/>
   </g>
   <g id="patch_197">
    <path d="M 328.745385 275.9395 
L 329.815988 275.9395 
L 329.815988 261.061668 
L 328.745385 261.061668 
z
" clip-path="url(#p56b9b0ab29)" style="fill: #9bd93c; opacity: 0.55"/>
   </g>
   <g id="patch_198">
    <path d="M 329.815988 275.9395 
L 330.886591 275.9395 
L 330.886591 267.880674 
L 329.815988 267.880674 
z
" clip-path="url(#p56b9b0ab29)" style="fill: #9bd93c; opacity: 0.55"/>
   </g>
   <g id="patch_199">
    <path d="M 330.886591 275.9395 
L 331.957194 275.9395 
L 331.957194 274.079771 
L 330.886591 274.079771 
z
" clip-path="url(#p56b9b0ab29)" style="fill: #9bd93c; opacity: 0.55"/>
   </g>
   <g id="patch_200">
    <path d="M 331.957194 275.9395 
L 333.027797 275.9395 
L 333.027797 272.839952 
L 331.957194 272.839952 
z
" clip-path="url(#p56b9b0ab29)" style="fill: #9bd93c; opacity: 0.55"/>
   </g>
   <g id="patch_201">
    <path d="M 333.027797 275.9395 
L 334.098399 275.9395 
L 334.098399 274.079771 
L 333.027797 274.079771 
z
" clip-path="url(#p56b9b0ab29)" style="fill: #9bd93c; opacity: 0.55"/>
   </g>
   <g id="patch_202">
    <path d="M 334.098399 275.9395 
L 335.169002 275.9395 
L 335.169002 273.459861 
L 334.098399 273.459861 
z
" clip-path="url(#p56b9b0ab29)" style="fill: #9bd93c; opacity: 0.55"/>
   </g>
   <g id="matplotlib.axis_1">
    <g id="xtick_1">
     <g id="line2d_1">
      <path d="M 34.240625 275.9395 
L 34.240625 35.7555 
" clip-path="url(#p56b9b0ab29)" style="fill: none; stroke: #b0b0b0; stroke-opacity: 0.25; stroke-width: 0.8; stroke-linecap: square"/>
     </g>
     <g id="line2d_2">
      <defs>
       <path id="m51b3d429b5" d="M 0 0 
L 0 3.5 
" style="stroke: #000000; stroke-width: 0.8"/>
      </defs>
      <g>
       <use xlink:href="#m51b3d429b5" x="34.240625" y="275.9395" style="stroke: #000000; stroke-width: 0.8"/>
      </g>
     </g>
     <g id="text_1">
      <!-- −3 -->
      <g transform="translate(26.869531 290.537937) scale(0.1 -0.1)">
       <defs>
        <path id="DejaVuSans-2212" d="M 678 2272 
L 4684 2272 
L 4684 1741 
L 678 1741 
L 678 2272 
z
" transform="scale(0.015625)"/>
        <path id="DejaVuSans-33" d="M 2597 2516 
Q 3050 2419 3304 2112 
Q 3559 1806 3559 1356 
Q 3559 666 3084 287 
Q 2609 -91 1734 -91 
Q 1441 -91 1130 -33 
Q 819 25 488 141 
L 488 750 
Q 750 597 1062 519 
Q 1375 441 1716 441 
Q 2309 441 2620 675 
Q 2931 909 2931 1356 
Q 2931 1769 2642 2001 
Q 2353 2234 1838 2234 
L 1294 2234 
L 1294 2753 
L 1863 2753 
Q 2328 2753 2575 2939 
Q 2822 3125 2822 3475 
Q 2822 3834 2567 4026 
Q 2313 4219 1838 4219 
Q 1578 4219 1281 4162 
Q 984 4106 628 3988 
L 628 4550 
Q 988 4650 1302 4700 
Q 1616 4750 1894 4750 
Q 2613 4750 3031 4423 
Q 3450 4097 3450 3541 
Q 3450 3153 3228 2886 
Q 3006 2619 2597 2516 
z
" transform="scale(0.015625)"/>
       </defs>
       <use xlink:href="#DejaVuSans-2212"/>
       <use xlink:href="#DejaVuSans-33" transform="translate(83.789062 0)"/>
      </g>
     </g>
    </g>
    <g id="xtick_2">
     <g id="line2d_3">
      <path d="M 127.537292 275.9395 
L 127.537292 35.7555 
" clip-path="url(#p56b9b0ab29)" style="fill: none; stroke: #b0b0b0; stroke-opacity: 0.25; stroke-width: 0.8; stroke-linecap: square"/>
     </g>
     <g id="line2d_4">
      <g>
       <use xlink:href="#m51b3d429b5" x="127.537292" y="275.9395" style="stroke: #000000; stroke-width: 0.8"/>
      </g>
     </g>
     <g id="text_2">
      <!-- −2 -->
      <g transform="translate(120.166198 290.537937) scale(0.1 -0.1)">
       <defs>
        <path id="DejaVuSans-32" d="M 1228 531 
L 3431 531 
L 3431 0 
L 469 0 
L 469 531 
Q 828 903 1448 1529 
Q 2069 2156 2228 2338 
Q 2531 2678 2651 2914 
Q 2772 3150 2772 3378 
Q 2772 3750 2511 3984 
Q 2250 4219 1831 4219 
Q 1534 4219 1204 4116 
Q 875 4013 500 3803 
L 500 4441 
Q 881 4594 1212 4672 
Q 1544 4750 1819 4750 
Q 2544 4750 2975 4387 
Q 3406 4025 3406 3419 
Q 3406 3131 3298 2873 
Q 3191 2616 2906 2266 
Q 2828 2175 2409 1742 
Q 1991 1309 1228 531 
z
" transform="scale(0.015625)"/>
       </defs>
       <use xlink:href="#DejaVuSans-2212"/>
       <use xlink:href="#DejaVuSans-32" transform="translate(83.789062 0)"/>
      </g>
     </g>
    </g>
    <g id="xtick_3">
     <g id="line2d_5">
      <path d="M 220.833958 275.9395 
L 220.833958 35.7555 
" clip-path="url(#p56b9b0ab29)" style="fill: none; stroke: #b0b0b0; stroke-opacity: 0.25; stroke-width: 0.8; stroke-linecap: square"/>
     </g>
     <g id="line2d_6">
      <g>
       <use xlink:href="#m51b3d429b5" x="220.833958" y="275.9395" style="stroke: #000000; stroke-width: 0.8"/>
      </g>
     </g>
     <g id="text_3">
      <!-- −1 -->
      <g transform="translate(213.462865 290.537937) scale(0.1 -0.1)">
       <defs>
        <path id="DejaVuSans-31" d="M 794 531 
L 1825 531 
L 1825 4091 
L 703 3866 
L 703 4441 
L 1819 4666 
L 2450 4666 
L 2450 531 
L 3481 531 
L 3481 0 
L 794 0 
L 794 531 
z
" transform="scale(0.015625)"/>
       </defs>
       <use xlink:href="#DejaVuSans-2212"/>
       <use xlink:href="#DejaVuSans-31" transform="translate(83.789062 0)"/>
      </g>
     </g>
    </g>
    <g id="xtick_4">
     <g id="line2d_7">
      <path d="M 314.130625 275.9395 
L 314.130625 35.7555 
" clip-path="url(#p56b9b0ab29)" style="fill: none; stroke: #b0b0b0; stroke-opacity: 0.25; stroke-width: 0.8; stroke-linecap: square"/>
     </g>
     <g id="line2d_8">
      <g>
       <use xlink:href="#m51b3d429b5" x="314.130625" y="275.9395" style="stroke: #000000; stroke-width: 0.8"/>
      </g>
     </g>
     <g id="text_4">
      <!-- 0 -->
      <g transform="translate(310.949375 290.537937) scale(0.1 -0.1)">
       <defs>
        <path id="DejaVuSans-30" d="M 2034 4250 
Q 1547 4250 1301 3770 
Q 1056 3291 1056 2328 
Q 1056 1369 1301 889 
Q 1547 409 2034 409 
Q 2525 409 2770 889 
Q 3016 1369 3016 2328 
Q 3016 3291 2770 3770 
Q 2525 4250 2034 4250 
z
M 2034 4750 
Q 2819 4750 3233 4129 
Q 3647 3509 3647 2328 
Q 3647 1150 3233 529 
Q 2819 -91 2034 -91 
Q 1250 -91 836 529 
Q 422 1150 422 2328 
Q 422 3509 836 4129 
Q 1250 4750 2034 4750 
z
" transform="scale(0.015625)"/>
       </defs>
       <use xlink:href="#DejaVuSans-30"/>
      </g>
     </g>
    </g>
    <g id="xtick_5">
     <g id="line2d_9">
      <path d="M 407.427292 275.9395 
L 407.427292 35.7555 
" clip-path="url(#p56b9b0ab29)" style="fill: none; stroke: #b0b0b0; stroke-opacity: 0.25; stroke-width: 0.8; stroke-linecap: square"/>
     </g>
     <g id="line2d_10">
      <g>
       <use xlink:href="#m51b3d429b5" x="407.427292" y="275.9395" style="stroke: #000000; stroke-width: 0.8"/>
      </g>
     </g>
     <g id="text_5">
      <!-- 1 -->
      <g transform="translate(404.246042 290.537937) scale(0.1 -0.1)">
       <use xlink:href="#DejaVuSans-31"/>
      </g>
     </g>
    </g>
    <g id="xtick_6">
     <g id="line2d_11">
      <path d="M 500.723958 275.9395 
L 500.723958 35.7555 
" clip-path="url(#p56b9b0ab29)" style="fill: none; stroke: #b0b0b0; stroke-opacity: 0.25; stroke-width: 0.8; stroke-linecap: square"/>
     </g>
     <g id="line2d_12">
      <g>
       <use xlink:href="#m51b3d429b5" x="500.723958" y="275.9395" style="stroke: #000000; stroke-width: 0.8"/>
      </g>
     </g>
     <g id="text_6">
      <!-- 2 -->
      <g transform="translate(497.542708 290.537937) scale(0.1 -0.1)">
       <use xlink:href="#DejaVuSans-32"/>
      </g>
     </g>
    </g>
    <g id="xtick_7">
     <g id="line2d_13">
      <path d="M 594.020625 275.9395 
L 594.020625 35.7555 
" clip-path="url(#p56b9b0ab29)" style="fill: none; stroke: #b0b0b0; stroke-opacity: 0.25; stroke-width: 0.8; stroke-linecap: square"/>
     </g>
     <g id="line2d_14">
      <g>
       <use xlink:href="#m51b3d429b5" x="594.020625" y="275.9395" style="stroke: #000000; stroke-width: 0.8"/>
      </g>
     </g>
     <g id="text_7">
      <!-- 3 -->
      <g transform="translate(590.839375 290.537937) scale(0.1 -0.1)">
       <use xlink:href="#DejaVuSans-33"/>
      </g>
     </g>
    </g>
    <g id="text_8">
     <!-- ensemble average prediction -->
     <g transform="translate(240.961875 304.216062) scale(0.1 -0.1)">
      <defs>
       <path id="DejaVuSans-65" d="M 3597 1894 
L 3597 1613 
L 953 1613 
Q 991 1019 1311 708 
Q 1631 397 2203 397 
Q 2534 397 2845 478 
Q 3156 559 3463 722 
L 3463 178 
Q 3153 47 2828 -22 
Q 2503 -91 2169 -91 
Q 1331 -91 842 396 
Q 353 884 353 1716 
Q 353 2575 817 3079 
Q 1281 3584 2069 3584 
Q 2775 3584 3186 3129 
Q 3597 2675 3597 1894 
z
M 3022 2063 
Q 3016 2534 2758 2815 
Q 2500 3097 2075 3097 
Q 1594 3097 1305 2825 
Q 1016 2553 972 2059 
L 3022 2063 
z
" transform="scale(0.015625)"/>
       <path id="DejaVuSans-6e" d="M 3513 2113 
L 3513 0 
L 2938 0 
L 2938 2094 
Q 2938 2591 2744 2837 
Q 2550 3084 2163 3084 
Q 1697 3084 1428 2787 
Q 1159 2491 1159 1978 
L 1159 0 
L 581 0 
L 581 3500 
L 1159 3500 
L 1159 2956 
Q 1366 3272 1645 3428 
Q 1925 3584 2291 3584 
Q 2894 3584 3203 3211 
Q 3513 2838 3513 2113 
z
" transform="scale(0.015625)"/>
       <path id="DejaVuSans-73" d="M 2834 3397 
L 2834 2853 
Q 2591 2978 2328 3040 
Q 2066 3103 1784 3103 
Q 1356 3103 1142 2972 
Q 928 2841 928 2578 
Q 928 2378 1081 2264 
Q 1234 2150 1697 2047 
L 1894 2003 
Q 2506 1872 2764 1633 
Q 3022 1394 3022 966 
Q 3022 478 2636 193 
Q 2250 -91 1575 -91 
Q 1294 -91 989 -36 
Q 684 19 347 128 
L 347 722 
Q 666 556 975 473 
Q 1284 391 1588 391 
Q 1994 391 2212 530 
Q 2431 669 2431 922 
Q 2431 1156 2273 1281 
Q 2116 1406 1581 1522 
L 1381 1569 
Q 847 1681 609 1914 
Q 372 2147 372 2553 
Q 372 3047 722 3315 
Q 1072 3584 1716 3584 
Q 2034 3584 2315 3537 
Q 2597 3491 2834 3397 
z
" transform="scale(0.015625)"/>
       <path id="DejaVuSans-6d" d="M 3328 2828 
Q 3544 3216 3844 3400 
Q 4144 3584 4550 3584 
Q 5097 3584 5394 3201 
Q 5691 2819 5691 2113 
L 5691 0 
L 5113 0 
L 5113 2094 
Q 5113 2597 4934 2840 
Q 4756 3084 4391 3084 
Q 3944 3084 3684 2787 
Q 3425 2491 3425 1978 
L 3425 0 
L 2847 0 
L 2847 2094 
Q 2847 2600 2669 2842 
Q 2491 3084 2119 3084 
Q 1678 3084 1418 2786 
Q 1159 2488 1159 1978 
L 1159 0 
L 581 0 
L 581 3500 
L 1159 3500 
L 1159 2956 
Q 1356 3278 1631 3431 
Q 1906 3584 2284 3584 
Q 2666 3584 2933 3390 
Q 3200 3197 3328 2828 
z
" transform="scale(0.015625)"/>
       <path id="DejaVuSans-62" d="M 3116 1747 
Q 3116 2381 2855 2742 
Q 2594 3103 2138 3103 
Q 1681 3103 1420 2742 
Q 1159 2381 1159 1747 
Q 1159 1113 1420 752 
Q 1681 391 2138 391 
Q 2594 391 2855 752 
Q 3116 1113 3116 1747 
z
M 1159 2969 
Q 1341 3281 1617 3432 
Q 1894 3584 2278 3584 
Q 2916 3584 3314 3078 
Q 3713 2572 3713 1747 
Q 3713 922 3314 415 
Q 2916 -91 2278 -91 
Q 1894 -91 1617 61 
Q 1341 213 1159 525 
L 1159 0 
L 581 0 
L 581 4863 
L 1159 4863 
L 1159 2969 
z
" transform="scale(0.015625)"/>
       <path id="DejaVuSans-6c" d="M 603 4863 
L 1178 4863 
L 1178 0 
L 603 0 
L 603 4863 
z
" transform="scale(0.015625)"/>
       <path id="DejaVuSans-20" transform="scale(0.015625)"/>
       <path id="DejaVuSans-61" d="M 2194 1759 
Q 1497 1759 1228 1600 
Q 959 1441 959 1056 
Q 959 750 1161 570 
Q 1363 391 1709 391 
Q 2188 391 2477 730 
Q 2766 1069 2766 1631 
L 2766 1759 
L 2194 1759 
z
M 3341 1997 
L 3341 0 
L 2766 0 
L 2766 531 
Q 2569 213 2275 61 
Q 1981 -91 1556 -91 
Q 1019 -91 701 211 
Q 384 513 384 1019 
Q 384 1609 779 1909 
Q 1175 2209 1959 2209 
L 2766 2209 
L 2766 2266 
Q 2766 2663 2505 2880 
Q 2244 3097 1772 3097 
Q 1472 3097 1187 3025 
Q 903 2953 641 2809 
L 641 3341 
Q 956 3463 1253 3523 
Q 1550 3584 1831 3584 
Q 2591 3584 2966 3190 
Q 3341 2797 3341 1997 
z
" transform="scale(0.015625)"/>
       <path id="DejaVuSans-76" d="M 191 3500 
L 800 3500 
L 1894 563 
L 2988 3500 
L 3597 3500 
L 2284 0 
L 1503 0 
L 191 3500 
z
" transform="scale(0.015625)"/>
       <path id="DejaVuSans-72" d="M 2631 2963 
Q 2534 3019 2420 3045 
Q 2306 3072 2169 3072 
Q 1681 3072 1420 2755 
Q 1159 2438 1159 1844 
L 1159 0 
L 581 0 
L 581 3500 
L 1159 3500 
L 1159 2956 
Q 1341 3275 1631 3429 
Q 1922 3584 2338 3584 
Q 2397 3584 2469 3576 
Q 2541 3569 2628 3553 
L 2631 2963 
z
" transform="scale(0.015625)"/>
       <path id="DejaVuSans-67" d="M 2906 1791 
Q 2906 2416 2648 2759 
Q 2391 3103 1925 3103 
Q 1463 3103 1205 2759 
Q 947 2416 947 1791 
Q 947 1169 1205 825 
Q 1463 481 1925 481 
Q 2391 481 2648 825 
Q 2906 1169 2906 1791 
z
M 3481 434 
Q 3481 -459 3084 -895 
Q 2688 -1331 1869 -1331 
Q 1566 -1331 1297 -1286 
Q 1028 -1241 775 -1147 
L 775 -588 
Q 1028 -725 1275 -790 
Q 1522 -856 1778 -856 
Q 2344 -856 2625 -561 
Q 2906 -266 2906 331 
L 2906 616 
Q 2728 306 2450 153 
Q 2172 0 1784 0 
Q 1141 0 747 490 
Q 353 981 353 1791 
Q 353 2603 747 3093 
Q 1141 3584 1784 3584 
Q 2172 3584 2450 3431 
Q 2728 3278 2906 2969 
L 2906 3500 
L 3481 3500 
L 3481 434 
z
" transform="scale(0.015625)"/>
       <path id="DejaVuSans-70" d="M 1159 525 
L 1159 -1331 
L 581 -1331 
L 581 3500 
L 1159 3500 
L 1159 2969 
Q 1341 3281 1617 3432 
Q 1894 3584 2278 3584 
Q 2916 3584 3314 3078 
Q 3713 2572 3713 1747 
Q 3713 922 3314 415 
Q 2916 -91 2278 -91 
Q 1894 -91 1617 61 
Q 1341 213 1159 525 
z
M 3116 1747 
Q 3116 2381 2855 2742 
Q 2594 3103 2138 3103 
Q 1681 3103 1420 2742 
Q 1159 2381 1159 1747 
Q 1159 1113 1420 752 
Q 1681 391 2138 391 
Q 2594 391 2855 752 
Q 3116 1113 3116 1747 
z
" transform="scale(0.015625)"/>
       <path id="DejaVuSans-64" d="M 2906 2969 
L 2906 4863 
L 3481 4863 
L 3481 0 
L 2906 0 
L 2906 525 
Q 2725 213 2448 61 
Q 2172 -91 1784 -91 
Q 1150 -91 751 415 
Q 353 922 353 1747 
Q 353 2572 751 3078 
Q 1150 3584 1784 3584 
Q 2172 3584 2448 3432 
Q 2725 3281 2906 2969 
z
M 947 1747 
Q 947 1113 1208 752 
Q 1469 391 1925 391 
Q 2381 391 2643 752 
Q 2906 1113 2906 1747 
Q 2906 2381 2643 2742 
Q 2381 3103 1925 3103 
Q 1469 3103 1208 2742 
Q 947 2381 947 1747 
z
" transform="scale(0.015625)"/>
       <path id="DejaVuSans-69" d="M 603 3500 
L 1178 3500 
L 1178 0 
L 603 0 
L 603 3500 
z
M 603 4863 
L 1178 4863 
L 1178 4134 
L 603 4134 
L 603 4863 
z
" transform="scale(0.015625)"/>
       <path id="DejaVuSans-63" d="M 3122 3366 
L 3122 2828 
Q 2878 2963 2633 3030 
Q 2388 3097 2138 3097 
Q 1578 3097 1268 2742 
Q 959 2388 959 1747 
Q 959 1106 1268 751 
Q 1578 397 2138 397 
Q 2388 397 2633 464 
Q 2878 531 3122 666 
L 3122 134 
Q 2881 22 2623 -34 
Q 2366 -91 2075 -91 
Q 1284 -91 818 406 
Q 353 903 353 1747 
Q 353 2603 823 3093 
Q 1294 3584 2113 3584 
Q 2378 3584 2631 3529 
Q 2884 3475 3122 3366 
z
" transform="scale(0.015625)"/>
       <path id="DejaVuSans-74" d="M 1172 4494 
L 1172 3500 
L 2356 3500 
L 2356 3053 
L 1172 3053 
L 1172 1153 
Q 1172 725 1289 603 
Q 1406 481 1766 481 
L 2356 481 
L 2356 0 
L 1766 0 
Q 1100 0 847 248 
Q 594 497 594 1153 
L 594 3053 
L 172 3053 
L 172 3500 
L 594 3500 
L 594 4494 
L 1172 4494 
z
" transform="scale(0.015625)"/>
       <path id="DejaVuSans-6f" d="M 1959 3097 
Q 1497 3097 1228 2736 
Q 959 2375 959 1747 
Q 959 1119 1226 758 
Q 1494 397 1959 397 
Q 2419 397 2687 759 
Q 2956 1122 2956 1747 
Q 2956 2369 2687 2733 
Q 2419 3097 1959 3097 
z
M 1959 3584 
Q 2709 3584 3137 3096 
Q 3566 2609 3566 1747 
Q 3566 888 3137 398 
Q 2709 -91 1959 -91 
Q 1206 -91 779 398 
Q 353 888 353 1747 
Q 353 2609 779 3096 
Q 1206 3584 1959 3584 
z
" transform="scale(0.015625)"/>
      </defs>
      <use xlink:href="#DejaVuSans-65"/>
      <use xlink:href="#DejaVuSans-6e" transform="translate(61.523438 0)"/>
      <use xlink:href="#DejaVuSans-73" transform="translate(124.902344 0)"/>
      <use xlink:href="#DejaVuSans-65" transform="translate(177.001953 0)"/>
      <use xlink:href="#DejaVuSans-6d" transform="translate(238.525391 0)"/>
      <use xlink:href="#DejaVuSans-62" transform="translate(335.9375 0)"/>
      <use xlink:href="#DejaVuSans-6c" transform="translate(399.414062 0)"/>
      <use xlink:href="#DejaVuSans-65" transform="translate(427.197266 0)"/>
      <use xlink:href="#DejaVuSans-20" transform="translate(488.720703 0)"/>
      <use xlink:href="#DejaVuSans-61" transform="translate(520.507812 0)"/>
      <use xlink:href="#DejaVuSans-76" transform="translate(581.787109 0)"/>
      <use xlink:href="#DejaVuSans-65" transform="translate(640.966797 0)"/>
      <use xlink:href="#DejaVuSans-72" transform="translate(702.490234 0)"/>
      <use xlink:href="#DejaVuSans-61" transform="translate(743.603516 0)"/>
      <use xlink:href="#DejaVuSans-67" transform="translate(804.882812 0)"/>
      <use xlink:href="#DejaVuSans-65" transform="translate(868.359375 0)"/>
      <use xlink:href="#DejaVuSans-20" transform="translate(929.882812 0)"/>
      <use xlink:href="#DejaVuSans-70" transform="translate(961.669922 0)"/>
      <use xlink:href="#DejaVuSans-72" transform="translate(1025.146484 0)"/>
      <use xlink:href="#DejaVuSans-65" transform="translate(1064.009766 0)"/>
      <use xlink:href="#DejaVuSans-64" transform="translate(1125.533203 0)"/>
      <use xlink:href="#DejaVuSans-69" transform="translate(1189.009766 0)"/>
      <use xlink:href="#DejaVuSans-63" transform="translate(1216.792969 0)"/>
      <use xlink:href="#DejaVuSans-74" transform="translate(1271.773438 0)"/>
      <use xlink:href="#DejaVuSans-69" transform="translate(1310.982422 0)"/>
      <use xlink:href="#DejaVuSans-6f" transform="translate(1338.765625 0)"/>
      <use xlink:href="#DejaVuSans-6e" transform="translate(1399.947266 0)"/>
     </g>
    </g>
   </g>
   <g id="matplotlib.axis_2">
    <g id="ytick_1">
     <g id="line2d_15">
      <path d="M 34.240625 275.9395 
L 594.020625 275.9395 
" clip-path="url(#p56b9b0ab29)" style="fill: none; stroke: #b0b0b0; stroke-opacity: 0.25; stroke-width: 0.8; stroke-linecap: square"/>
     </g>
     <g id="line2d_16">
      <defs>
       <path id="mefc3ee2914" d="M 0 0 
L -3.5 0 
" style="stroke: #000000; stroke-width: 0.8"/>
      </defs>
      <g>
       <use xlink:href="#mefc3ee2914" x="34.240625" y="275.9395" style="stroke: #000000; stroke-width: 0.8"/>
      </g>
     </g>
     <g id="text_9">
      <!-- 0 -->
      <g transform="translate(20.878125 279.738719) scale(0.1 -0.1)">
       <use xlink:href="#DejaVuSans-30"/>
      </g>
     </g>
    </g>
    <g id="ytick_2">
     <g id="line2d_17">
      <path d="M 34.240625 240.371398 
L 594.020625 240.371398 
" clip-path="url(#p56b9b0ab29)" style="fill: none; stroke: #b0b0b0; stroke-opacity: 0.25; stroke-width: 0.8; stroke-linecap: square"/>
     </g>
     <g id="line2d_18">
      <g>
       <use xlink:href="#mefc3ee2914" x="34.240625" y="240.371398" style="stroke: #000000; stroke-width: 0.8"/>
      </g>
     </g>
     <g id="text_10">
      <!-- 1 -->
      <g transform="translate(20.878125 244.170617) scale(0.1 -0.1)">
       <use xlink:href="#DejaVuSans-31"/>
      </g>
     </g>
    </g>
    <g id="ytick_3">
     <g id="line2d_19">
      <path d="M 34.240625 204.803297 
L 594.020625 204.803297 
" clip-path="url(#p56b9b0ab29)" style="fill: none; stroke: #b0b0b0; stroke-opacity: 0.25; stroke-width: 0.8; stroke-linecap: square"/>
     </g>
     <g id="line2d_20">
      <g>
       <use xlink:href="#mefc3ee2914" x="34.240625" y="204.803297" style="stroke: #000000; stroke-width: 0.8"/>
      </g>
     </g>
     <g id="text_11">
      <!-- 2 -->
      <g transform="translate(20.878125 208.602516) scale(0.1 -0.1)">
       <use xlink:href="#DejaVuSans-32"/>
      </g>
     </g>
    </g>
    <g id="ytick_4">
     <g id="line2d_21">
      <path d="M 34.240625 169.235195 
L 594.020625 169.235195 
" clip-path="url(#p56b9b0ab29)" style="fill: none; stroke: #b0b0b0; stroke-opacity: 0.25; stroke-width: 0.8; stroke-linecap: square"/>
     </g>
     <g id="line2d_22">
      <g>
       <use xlink:href="#mefc3ee2914" x="34.240625" y="169.235195" style="stroke: #000000; stroke-width: 0.8"/>
      </g>
     </g>
     <g id="text_12">
      <!-- 3 -->
      <g transform="translate(20.878125 173.034414) scale(0.1 -0.1)">
       <use xlink:href="#DejaVuSans-33"/>
      </g>
     </g>
    </g>
    <g id="ytick_5">
     <g id="line2d_23">
      <path d="M 34.240625 133.667094 
L 594.020625 133.667094 
" clip-path="url(#p56b9b0ab29)" style="fill: none; stroke: #b0b0b0; stroke-opacity: 0.25; stroke-width: 0.8; stroke-linecap: square"/>
     </g>
     <g id="line2d_24">
      <g>
       <use xlink:href="#mefc3ee2914" x="34.240625" y="133.667094" style="stroke: #000000; stroke-width: 0.8"/>
      </g>
     </g>
     <g id="text_13">
      <!-- 4 -->
      <g transform="translate(20.878125 137.466313) scale(0.1 -0.1)">
       <defs>
        <path id="DejaVuSans-34" d="M 2419 4116 
L 825 1625 
L 2419 1625 
L 2419 4116 
z
M 2253 4666 
L 3047 4666 
L 3047 1625 
L 3713 1625 
L 3713 1100 
L 3047 1100 
L 3047 0 
L 2419 0 
L 2419 1100 
L 313 1100 
L 313 1709 
L 2253 4666 
z
" transform="scale(0.015625)"/>
       </defs>
       <use xlink:href="#DejaVuSans-34"/>
      </g>
     </g>
    </g>
    <g id="ytick_6">
     <g id="line2d_25">
      <path d="M 34.240625 98.098992 
L 594.020625 98.098992 
" clip-path="url(#p56b9b0ab29)" style="fill: none; stroke: #b0b0b0; stroke-opacity: 0.25; stroke-width: 0.8; stroke-linecap: square"/>
     </g>
     <g id="line2d_26">
      <g>
       <use xlink:href="#mefc3ee2914" x="34.240625" y="98.098992" style="stroke: #000000; stroke-width: 0.8"/>
      </g>
     </g>
     <g id="text_14">
      <!-- 5 -->
      <g transform="translate(20.878125 101.898211) scale(0.1 -0.1)">
       <defs>
        <path id="DejaVuSans-35" d="M 691 4666 
L 3169 4666 
L 3169 4134 
L 1269 4134 
L 1269 2991 
Q 1406 3038 1543 3061 
Q 1681 3084 1819 3084 
Q 2600 3084 3056 2656 
Q 3513 2228 3513 1497 
Q 3513 744 3044 326 
Q 2575 -91 1722 -91 
Q 1428 -91 1123 -41 
Q 819 9 494 109 
L 494 744 
Q 775 591 1075 516 
Q 1375 441 1709 441 
Q 2250 441 2565 725 
Q 2881 1009 2881 1497 
Q 2881 1984 2565 2268 
Q 2250 2553 1709 2553 
Q 1456 2553 1204 2497 
Q 953 2441 691 2322 
L 691 4666 
z
" transform="scale(0.015625)"/>
       </defs>
       <use xlink:href="#DejaVuSans-35"/>
      </g>
     </g>
    </g>
    <g id="ytick_7">
     <g id="line2d_27">
      <path d="M 34.240625 62.530891 
L 594.020625 62.530891 
" clip-path="url(#p56b9b0ab29)" style="fill: none; stroke: #b0b0b0; stroke-opacity: 0.25; stroke-width: 0.8; stroke-linecap: square"/>
     </g>
     <g id="line2d_28">
      <g>
       <use xlink:href="#mefc3ee2914" x="34.240625" y="62.530891" style="stroke: #000000; stroke-width: 0.8"/>
      </g>
     </g>
     <g id="text_15">
      <!-- 6 -->
      <g transform="translate(20.878125 66.33011) scale(0.1 -0.1)">
       <defs>
        <path id="DejaVuSans-36" d="M 2113 2584 
Q 1688 2584 1439 2293 
Q 1191 2003 1191 1497 
Q 1191 994 1439 701 
Q 1688 409 2113 409 
Q 2538 409 2786 701 
Q 3034 994 3034 1497 
Q 3034 2003 2786 2293 
Q 2538 2584 2113 2584 
z
M 3366 4563 
L 3366 3988 
Q 3128 4100 2886 4159 
Q 2644 4219 2406 4219 
Q 1781 4219 1451 3797 
Q 1122 3375 1075 2522 
Q 1259 2794 1537 2939 
Q 1816 3084 2150 3084 
Q 2853 3084 3261 2657 
Q 3669 2231 3669 1497 
Q 3669 778 3244 343 
Q 2819 -91 2113 -91 
Q 1303 -91 875 529 
Q 447 1150 447 2328 
Q 447 3434 972 4092 
Q 1497 4750 2381 4750 
Q 2619 4750 2861 4703 
Q 3103 4656 3366 4563 
z
" transform="scale(0.015625)"/>
       </defs>
       <use xlink:href="#DejaVuSans-36"/>
      </g>
     </g>
    </g>
    <g id="text_16">
     <!-- density -->
     <g transform="translate(14.798438 174.180312) rotate(-90) scale(0.1 -0.1)">
      <defs>
       <path id="DejaVuSans-79" d="M 2059 -325 
Q 1816 -950 1584 -1140 
Q 1353 -1331 966 -1331 
L 506 -1331 
L 506 -850 
L 844 -850 
Q 1081 -850 1212 -737 
Q 1344 -625 1503 -206 
L 1606 56 
L 191 3500 
L 800 3500 
L 1894 763 
L 2988 3500 
L 3597 3500 
L 2059 -325 
z
" transform="scale(0.015625)"/>
      </defs>
      <use xlink:href="#DejaVuSans-64"/>
      <use xlink:href="#DejaVuSans-65" transform="translate(63.476562 0)"/>
      <use xlink:href="#DejaVuSans-6e" transform="translate(125 0)"/>
      <use xlink:href="#DejaVuSans-73" transform="translate(188.378906 0)"/>
      <use xlink:href="#DejaVuSans-69" transform="translate(240.478516 0)"/>
      <use xlink:href="#DejaVuSans-74" transform="translate(268.261719 0)"/>
      <use xlink:href="#DejaVuSans-79" transform="translate(307.470703 0)"/>
     </g>
    </g>
   </g>
   <g id="line2d_29">
    <path d="M 314.130625 275.9395 
L 314.130625 35.7555 
" clip-path="url(#p56b9b0ab29)" style="fill: none; stroke-dasharray: 3.7,1.6; stroke-dashoffset: 0; stroke: #000000"/>
   </g>
   <g id="patch_203">
    <path d="M 34.240625 275.9395 
L 34.240625 35.7555 
" style="fill: none; stroke: #000000; stroke-width: 0.8; stroke-linejoin: miter; stroke-linecap: square"/>
   </g>
   <g id="patch_204">
    <path d="M 594.020625 275.9395 
L 594.020625 35.7555 
" style="fill: none; stroke: #000000; stroke-width: 0.8; stroke-linejoin: miter; stroke-linecap: square"/>
   </g>
   <g id="patch_205">
    <path d="M 34.240625 275.9395 
L 594.020625 275.9395 
" style="fill: none; stroke: #000000; stroke-width: 0.8; stroke-linejoin: miter; stroke-linecap: square"/>
   </g>
   <g id="patch_206">
    <path d="M 34.240625 35.7555 
L 594.020625 35.7555 
" style="fill: none; stroke: #000000; stroke-width: 0.8; stroke-linejoin: miter; stroke-linecap: square"/>
   </g>
   <g id="text_17">
    <!-- Averaging n independent predictions cuts variance by 1/n -->
    <g transform="translate(140.185938 16.318125) scale(0.12 -0.12)">
     <defs>
      <path id="DejaVuSans-41" d="M 2188 4044 
L 1331 1722 
L 3047 1722 
L 2188 4044 
z
M 1831 4666 
L 2547 4666 
L 4325 0 
L 3669 0 
L 3244 1197 
L 1141 1197 
L 716 0 
L 50 0 
L 1831 4666 
z
" transform="scale(0.015625)"/>
      <path id="DejaVuSans-75" d="M 544 1381 
L 544 3500 
L 1119 3500 
L 1119 1403 
Q 1119 906 1312 657 
Q 1506 409 1894 409 
Q 2359 409 2629 706 
Q 2900 1003 2900 1516 
L 2900 3500 
L 3475 3500 
L 3475 0 
L 2900 0 
L 2900 538 
Q 2691 219 2414 64 
Q 2138 -91 1772 -91 
Q 1169 -91 856 284 
Q 544 659 544 1381 
z
M 1991 3584 
L 1991 3584 
z
" transform="scale(0.015625)"/>
      <path id="DejaVuSans-2f" d="M 1625 4666 
L 2156 4666 
L 531 -594 
L 0 -594 
L 1625 4666 
z
" transform="scale(0.015625)"/>
     </defs>
     <use xlink:href="#DejaVuSans-41"/>
     <use xlink:href="#DejaVuSans-76" transform="translate(62.533203 0)"/>
     <use xlink:href="#DejaVuSans-65" transform="translate(121.712891 0)"/>
     <use xlink:href="#DejaVuSans-72" transform="translate(183.236328 0)"/>
     <use xlink:href="#DejaVuSans-61" transform="translate(224.349609 0)"/>
     <use xlink:href="#DejaVuSans-67" transform="translate(285.628906 0)"/>
     <use xlink:href="#DejaVuSans-69" transform="translate(349.105469 0)"/>
     <use xlink:href="#DejaVuSans-6e" transform="translate(376.888672 0)"/>
     <use xlink:href="#DejaVuSans-67" transform="translate(440.267578 0)"/>
     <use xlink:href="#DejaVuSans-20" transform="translate(503.744141 0)"/>
     <use xlink:href="#DejaVuSans-6e" transform="translate(535.53125 0)"/>
     <use xlink:href="#DejaVuSans-20" transform="translate(598.910156 0)"/>
     <use xlink:href="#DejaVuSans-69" transform="translate(630.697266 0)"/>
     <use xlink:href="#DejaVuSans-6e" transform="translate(658.480469 0)"/>
     <use xlink:href="#DejaVuSans-64" transform="translate(721.859375 0)"/>
     <use xlink:href="#DejaVuSans-65" transform="translate(785.335938 0)"/>
     <use xlink:href="#DejaVuSans-70" transform="translate(846.859375 0)"/>
     <use xlink:href="#DejaVuSans-65" transform="translate(910.335938 0)"/>
     <use xlink:href="#DejaVuSans-6e" transform="translate(971.859375 0)"/>
     <use xlink:href="#DejaVuSans-64" transform="translate(1035.238281 0)"/>
     <use xlink:href="#DejaVuSans-65" transform="translate(1098.714844 0)"/>
     <use xlink:href="#DejaVuSans-6e" transform="translate(1160.238281 0)"/>
     <use xlink:href="#DejaVuSans-74" transform="translate(1223.617188 0)"/>
     <use xlink:href="#DejaVuSans-20" transform="translate(1262.826172 0)"/>
     <use xlink:href="#DejaVuSans-70" transform="translate(1294.613281 0)"/>
     <use xlink:href="#DejaVuSans-72" transform="translate(1358.089844 0)"/>
     <use xlink:href="#DejaVuSans-65" transform="translate(1396.953125 0)"/>
     <use xlink:href="#DejaVuSans-64" transform="translate(1458.476562 0)"/>
     <use xlink:href="#DejaVuSans-69" transform="translate(1521.953125 0)"/>
     <use xlink:href="#DejaVuSans-63" transform="translate(1549.736328 0)"/>
     <use xlink:href="#DejaVuSans-74" transform="translate(1604.716797 0)"/>
     <use xlink:href="#DejaVuSans-69" transform="translate(1643.925781 0)"/>
     <use xlink:href="#DejaVuSans-6f" transform="translate(1671.708984 0)"/>
     <use xlink:href="#DejaVuSans-6e" transform="translate(1732.890625 0)"/>
     <use xlink:href="#DejaVuSans-73" transform="translate(1796.269531 0)"/>
     <use xlink:href="#DejaVuSans-20" transform="translate(1848.369141 0)"/>
     <use xlink:href="#DejaVuSans-63" transform="translate(1880.15625 0)"/>
     <use xlink:href="#DejaVuSans-75" transform="translate(1935.136719 0)"/>
     <use xlink:href="#DejaVuSans-74" transform="translate(1998.515625 0)"/>
     <use xlink:href="#DejaVuSans-73" transform="translate(2037.724609 0)"/>
     <use xlink:href="#DejaVuSans-20" transform="translate(2089.824219 0)"/>
     <use xlink:href="#DejaVuSans-76" transform="translate(2121.611328 0)"/>
     <use xlink:href="#DejaVuSans-61" transform="translate(2180.791016 0)"/>
     <use xlink:href="#DejaVuSans-72" transform="translate(2242.070312 0)"/>
     <use xlink:href="#DejaVuSans-69" transform="translate(2283.183594 0)"/>
     <use xlink:href="#DejaVuSans-61" transform="translate(2310.966797 0)"/>
     <use xlink:href="#DejaVuSans-6e" transform="translate(2372.246094 0)"/>
     <use xlink:href="#DejaVuSans-63" transform="translate(2435.625 0)"/>
     <use xlink:href="#DejaVuSans-65" transform="translate(2490.605469 0)"/>
     <use xlink:href="#DejaVuSans-20" transform="translate(2552.128906 0)"/>
     <use xlink:href="#DejaVuSans-62" transform="translate(2583.916016 0)"/>
     <use xlink:href="#DejaVuSans-79" transform="translate(2647.392578 0)"/>
     <use xlink:href="#DejaVuSans-20" transform="translate(2706.572266 0)"/>
     <use xlink:href="#DejaVuSans-31" transform="translate(2738.359375 0)"/>
     <use xlink:href="#DejaVuSans-2f" transform="translate(2801.982422 0)"/>
     <use xlink:href="#DejaVuSans-6e" transform="translate(2835.673828 0)"/>
    </g>
    <!-- (this is why bagging / random forests work) -->
    <g transform="translate(183.496563 29.7555) scale(0.12 -0.12)">
     <defs>
      <path id="DejaVuSans-28" d="M 1984 4856 
Q 1566 4138 1362 3434 
Q 1159 2731 1159 2009 
Q 1159 1288 1364 580 
Q 1569 -128 1984 -844 
L 1484 -844 
Q 1016 -109 783 600 
Q 550 1309 550 2009 
Q 550 2706 781 3412 
Q 1013 4119 1484 4856 
L 1984 4856 
z
" transform="scale(0.015625)"/>
      <path id="DejaVuSans-68" d="M 3513 2113 
L 3513 0 
L 2938 0 
L 2938 2094 
Q 2938 2591 2744 2837 
Q 2550 3084 2163 3084 
Q 1697 3084 1428 2787 
Q 1159 2491 1159 1978 
L 1159 0 
L 581 0 
L 581 4863 
L 1159 4863 
L 1159 2956 
Q 1366 3272 1645 3428 
Q 1925 3584 2291 3584 
Q 2894 3584 3203 3211 
Q 3513 2838 3513 2113 
z
" transform="scale(0.015625)"/>
      <path id="DejaVuSans-77" d="M 269 3500 
L 844 3500 
L 1563 769 
L 2278 3500 
L 2956 3500 
L 3675 769 
L 4391 3500 
L 4966 3500 
L 4050 0 
L 3372 0 
L 2619 2869 
L 1863 0 
L 1184 0 
L 269 3500 
z
" transform="scale(0.015625)"/>
      <path id="DejaVuSans-66" d="M 2375 4863 
L 2375 4384 
L 1825 4384 
Q 1516 4384 1395 4259 
Q 1275 4134 1275 3809 
L 1275 3500 
L 2222 3500 
L 2222 3053 
L 1275 3053 
L 1275 0 
L 697 0 
L 697 3053 
L 147 3053 
L 147 3500 
L 697 3500 
L 697 3744 
Q 697 4328 969 4595 
Q 1241 4863 1831 4863 
L 2375 4863 
z
" transform="scale(0.015625)"/>
      <path id="DejaVuSans-6b" d="M 581 4863 
L 1159 4863 
L 1159 1991 
L 2875 3500 
L 3609 3500 
L 1753 1863 
L 3688 0 
L 2938 0 
L 1159 1709 
L 1159 0 
L 581 0 
L 581 4863 
z
" transform="scale(0.015625)"/>
      <path id="DejaVuSans-29" d="M 513 4856 
L 1013 4856 
Q 1481 4119 1714 3412 
Q 1947 2706 1947 2009 
Q 1947 1309 1714 600 
Q 1481 -109 1013 -844 
L 513 -844 
Q 928 -128 1133 580 
Q 1338 1288 1338 2009 
Q 1338 2731 1133 3434 
Q 928 4138 513 4856 
z
" transform="scale(0.015625)"/>
     </defs>
     <use xlink:href="#DejaVuSans-28"/>
     <use xlink:href="#DejaVuSans-74" transform="translate(39.013672 0)"/>
     <use xlink:href="#DejaVuSans-68" transform="translate(78.222656 0)"/>
     <use xlink:href="#DejaVuSans-69" transform="translate(141.601562 0)"/>
     <use xlink:href="#DejaVuSans-73" transform="translate(169.384766 0)"/>
     <use xlink:href="#DejaVuSans-20" transform="translate(221.484375 0)"/>
     <use xlink:href="#DejaVuSans-69" transform="translate(253.271484 0)"/>
     <use xlink:href="#DejaVuSans-73" transform="translate(281.054688 0)"/>
     <use xlink:href="#DejaVuSans-20" transform="translate(333.154297 0)"/>
     <use xlink:href="#DejaVuSans-77" transform="translate(364.941406 0)"/>
     <use xlink:href="#DejaVuSans-68" transform="translate(446.728516 0)"/>
     <use xlink:href="#DejaVuSans-79" transform="translate(510.107422 0)"/>
     <use xlink:href="#DejaVuSans-20" transform="translate(569.287109 0)"/>
     <use xlink:href="#DejaVuSans-62" transform="translate(601.074219 0)"/>
     <use xlink:href="#DejaVuSans-61" transform="translate(664.550781 0)"/>
     <use xlink:href="#DejaVuSans-67" transform="translate(725.830078 0)"/>
     <use xlink:href="#DejaVuSans-67" transform="translate(789.306641 0)"/>
     <use xlink:href="#DejaVuSans-69" transform="translate(852.783203 0)"/>
     <use xlink:href="#DejaVuSans-6e" transform="translate(880.566406 0)"/>
     <use xlink:href="#DejaVuSans-67" transform="translate(943.945312 0)"/>
     <use xlink:href="#DejaVuSans-20" transform="translate(1007.421875 0)"/>
     <use xlink:href="#DejaVuSans-2f" transform="translate(1039.208984 0)"/>
     <use xlink:href="#DejaVuSans-20" transform="translate(1072.900391 0)"/>
     <use xlink:href="#DejaVuSans-72" transform="translate(1104.6875 0)"/>
     <use xlink:href="#DejaVuSans-61" transform="translate(1145.800781 0)"/>
     <use xlink:href="#DejaVuSans-6e" transform="translate(1207.080078 0)"/>
     <use xlink:href="#DejaVuSans-64" transform="translate(1270.458984 0)"/>
     <use xlink:href="#DejaVuSans-6f" transform="translate(1333.935547 0)"/>
     <use xlink:href="#DejaVuSans-6d" transform="translate(1395.117188 0)"/>
     <use xlink:href="#DejaVuSans-20" transform="translate(1492.529297 0)"/>
     <use xlink:href="#DejaVuSans-66" transform="translate(1524.316406 0)"/>
     <use xlink:href="#DejaVuSans-6f" transform="translate(1559.521484 0)"/>
     <use xlink:href="#DejaVuSans-72" transform="translate(1620.703125 0)"/>
     <use xlink:href="#DejaVuSans-65" transform="translate(1659.566406 0)"/>
     <use xlink:href="#DejaVuSans-73" transform="translate(1721.089844 0)"/>
     <use xlink:href="#DejaVuSans-74" transform="translate(1773.189453 0)"/>
     <use xlink:href="#DejaVuSans-73" transform="translate(1812.398438 0)"/>
     <use xlink:href="#DejaVuSans-20" transform="translate(1864.498047 0)"/>
     <use xlink:href="#DejaVuSans-77" transform="translate(1896.285156 0)"/>
     <use xlink:href="#DejaVuSans-6f" transform="translate(1978.072266 0)"/>
     <use xlink:href="#DejaVuSans-72" transform="translate(2039.253906 0)"/>
     <use xlink:href="#DejaVuSans-6b" transform="translate(2080.367188 0)"/>
     <use xlink:href="#DejaVuSans-29" transform="translate(2138.277344 0)"/>
    </g>
   </g>
   <g id="legend_1">
    <g id="patch_207">
     <path d="M 482.921875 112.6105 
L 588.420625 112.6105 
Q 590.020625 112.6105 590.020625 111.0105 
L 590.020625 41.3555 
Q 590.020625 39.7555 588.420625 39.7555 
L 482.921875 39.7555 
Q 481.321875 39.7555 481.321875 41.3555 
L 481.321875 111.0105 
Q 481.321875 112.6105 482.921875 112.6105 
z
" style="fill: #ffffff; opacity: 0.8; stroke: #cccccc; stroke-linejoin: miter"/>
    </g>
    <g id="patch_208">
     <path d="M 484.521875 49.03425 
L 500.521875 49.03425 
L 500.521875 43.43425 
L 484.521875 43.43425 
z
" style="fill: #463480; opacity: 0.55"/>
    </g>
    <g id="text_18">
     <!-- n=1: var = 1.001 -->
     <g transform="translate(506.921875 49.03425) scale(0.08 -0.08)">
      <defs>
       <path id="DejaVuSans-3d" d="M 678 2906 
L 4684 2906 
L 4684 2381 
L 678 2381 
L 678 2906 
z
M 678 1631 
L 4684 1631 
L 4684 1100 
L 678 1100 
L 678 1631 
z
" transform="scale(0.015625)"/>
       <path id="DejaVuSans-3a" d="M 750 794 
L 1409 794 
L 1409 0 
L 750 0 
L 750 794 
z
M 750 3309 
L 1409 3309 
L 1409 2516 
L 750 2516 
L 750 3309 
z
" transform="scale(0.015625)"/>
       <path id="DejaVuSans-2e" d="M 684 794 
L 1344 794 
L 1344 0 
L 684 0 
L 684 794 
z
" transform="scale(0.015625)"/>
      </defs>
      <use xlink:href="#DejaVuSans-6e"/>
      <use xlink:href="#DejaVuSans-3d" transform="translate(63.378906 0)"/>
      <use xlink:href="#DejaVuSans-31" transform="translate(147.167969 0)"/>
      <use xlink:href="#DejaVuSans-3a" transform="translate(210.791016 0)"/>
      <use xlink:href="#DejaVuSans-20" transform="translate(244.482422 0)"/>
      <use xlink:href="#DejaVuSans-76" transform="translate(276.269531 0)"/>
      <use xlink:href="#DejaVuSans-61" transform="translate(335.449219 0)"/>
      <use xlink:href="#DejaVuSans-72" transform="translate(396.728516 0)"/>
      <use xlink:href="#DejaVuSans-20" transform="translate(437.841797 0)"/>
      <use xlink:href="#DejaVuSans-3d" transform="translate(469.628906 0)"/>
      <use xlink:href="#DejaVuSans-20" transform="translate(553.417969 0)"/>
      <use xlink:href="#DejaVuSans-31" transform="translate(585.205078 0)"/>
      <use xlink:href="#DejaVuSans-2e" transform="translate(648.828125 0)"/>
      <use xlink:href="#DejaVuSans-30" transform="translate(680.615234 0)"/>
      <use xlink:href="#DejaVuSans-30" transform="translate(744.238281 0)"/>
      <use xlink:href="#DejaVuSans-31" transform="translate(807.861328 0)"/>
     </g>
    </g>
    <g id="patch_209">
     <path d="M 484.521875 60.77675 
L 500.521875 60.77675 
L 500.521875 55.17675 
L 484.521875 55.17675 
z
" style="fill: #31668e; opacity: 0.55"/>
    </g>
    <g id="text_19">
     <!-- n=4: var = 0.243 -->
     <g transform="translate(506.921875 60.77675) scale(0.08 -0.08)">
      <use xlink:href="#DejaVuSans-6e"/>
      <use xlink:href="#DejaVuSans-3d" transform="translate(63.378906 0)"/>
      <use xlink:href="#DejaVuSans-34" transform="translate(147.167969 0)"/>
      <use xlink:href="#DejaVuSans-3a" transform="translate(210.791016 0)"/>
      <use xlink:href="#DejaVuSans-20" transform="translate(244.482422 0)"/>
      <use xlink:href="#DejaVuSans-76" transform="translate(276.269531 0)"/>
      <use xlink:href="#DejaVuSans-61" transform="translate(335.449219 0)"/>
      <use xlink:href="#DejaVuSans-72" transform="translate(396.728516 0)"/>
      <use xlink:href="#DejaVuSans-20" transform="translate(437.841797 0)"/>
      <use xlink:href="#DejaVuSans-3d" transform="translate(469.628906 0)"/>
      <use xlink:href="#DejaVuSans-20" transform="translate(553.417969 0)"/>
      <use xlink:href="#DejaVuSans-30" transform="translate(585.205078 0)"/>
      <use xlink:href="#DejaVuSans-2e" transform="translate(648.828125 0)"/>
      <use xlink:href="#DejaVuSans-32" transform="translate(680.615234 0)"/>
      <use xlink:href="#DejaVuSans-34" transform="translate(744.238281 0)"/>
      <use xlink:href="#DejaVuSans-33" transform="translate(807.861328 0)"/>
     </g>
    </g>
    <g id="patch_210">
     <path d="M 484.521875 72.51925 
L 500.521875 72.51925 
L 500.521875 66.91925 
L 484.521875 66.91925 
z
" style="fill: #21918c; opacity: 0.55"/>
    </g>
    <g id="text_20">
     <!-- n=16: var = 0.062 -->
     <g transform="translate(506.921875 72.51925) scale(0.08 -0.08)">
      <use xlink:href="#DejaVuSans-6e"/>
      <use xlink:href="#DejaVuSans-3d" transform="translate(63.378906 0)"/>
      <use xlink:href="#DejaVuSans-31" transform="translate(147.167969 0)"/>
      <use xlink:href="#DejaVuSans-36" transform="translate(210.791016 0)"/>
      <use xlink:href="#DejaVuSans-3a" transform="translate(274.414062 0)"/>
      <use xlink:href="#DejaVuSans-20" transform="translate(308.105469 0)"/>
      <use xlink:href="#DejaVuSans-76" transform="translate(339.892578 0)"/>
      <use xlink:href="#DejaVuSans-61" transform="translate(399.072266 0)"/>
      <use xlink:href="#DejaVuSans-72" transform="translate(460.351562 0)"/>
      <use xlink:href="#DejaVuSans-20" transform="translate(501.464844 0)"/>
      <use xlink:href="#DejaVuSans-3d" transform="translate(533.251953 0)"/>
      <use xlink:href="#DejaVuSans-20" transform="translate(617.041016 0)"/>
      <use xlink:href="#DejaVuSans-30" transform="translate(648.828125 0)"/>
      <use xlink:href="#DejaVuSans-2e" transform="translate(712.451172 0)"/>
      <use xlink:href="#DejaVuSans-30" transform="translate(744.238281 0)"/>
      <use xlink:href="#DejaVuSans-36" transform="translate(807.861328 0)"/>
      <use xlink:href="#DejaVuSans-32" transform="translate(871.484375 0)"/>
     </g>
    </g>
    <g id="patch_211">
     <path d="M 484.521875 84.26175 
L 500.521875 84.26175 
L 500.521875 78.66175 
L 484.521875 78.66175 
z
" style="fill: #38b977; opacity: 0.55"/>
    </g>
    <g id="text_21">
     <!-- n=64: var = 0.016 -->
     <g transform="translate(506.921875 84.26175) scale(0.08 -0.08)">
      <use xlink:href="#DejaVuSans-6e"/>
      <use xlink:href="#DejaVuSans-3d" transform="translate(63.378906 0)"/>
      <use xlink:href="#DejaVuSans-36" transform="translate(147.167969 0)"/>
      <use xlink:href="#DejaVuSans-34" transform="translate(210.791016 0)"/>
      <use xlink:href="#DejaVuSans-3a" transform="translate(274.414062 0)"/>
      <use xlink:href="#DejaVuSans-20" transform="translate(308.105469 0)"/>
      <use xlink:href="#DejaVuSans-76" transform="translate(339.892578 0)"/>
      <use xlink:href="#DejaVuSans-61" transform="translate(399.072266 0)"/>
      <use xlink:href="#DejaVuSans-72" transform="translate(460.351562 0)"/>
      <use xlink:href="#DejaVuSans-20" transform="translate(501.464844 0)"/>
      <use xlink:href="#DejaVuSans-3d" transform="translate(533.251953 0)"/>
      <use xlink:href="#DejaVuSans-20" transform="translate(617.041016 0)"/>
      <use xlink:href="#DejaVuSans-30" transform="translate(648.828125 0)"/>
      <use xlink:href="#DejaVuSans-2e" transform="translate(712.451172 0)"/>
      <use xlink:href="#DejaVuSans-30" transform="translate(744.238281 0)"/>
      <use xlink:href="#DejaVuSans-31" transform="translate(807.861328 0)"/>
      <use xlink:href="#DejaVuSans-36" transform="translate(871.484375 0)"/>
     </g>
    </g>
    <g id="patch_212">
     <path d="M 484.521875 96.00425 
L 500.521875 96.00425 
L 500.521875 90.40425 
L 484.521875 90.40425 
z
" style="fill: #9bd93c; opacity: 0.55"/>
    </g>
    <g id="text_22">
     <!-- n=256: var = 0.004 -->
     <g transform="translate(506.921875 96.00425) scale(0.08 -0.08)">
      <use xlink:href="#DejaVuSans-6e"/>
      <use xlink:href="#DejaVuSans-3d" transform="translate(63.378906 0)"/>
      <use xlink:href="#DejaVuSans-32" transform="translate(147.167969 0)"/>
      <use xlink:href="#DejaVuSans-35" transform="translate(210.791016 0)"/>
      <use xlink:href="#DejaVuSans-36" transform="translate(274.414062 0)"/>
      <use xlink:href="#DejaVuSans-3a" transform="translate(338.037109 0)"/>
      <use xlink:href="#DejaVuSans-20" transform="translate(371.728516 0)"/>
      <use xlink:href="#DejaVuSans-76" transform="translate(403.515625 0)"/>
      <use xlink:href="#DejaVuSans-61" transform="translate(462.695312 0)"/>
      <use xlink:href="#DejaVuSans-72" transform="translate(523.974609 0)"/>
      <use xlink:href="#DejaVuSans-20" transform="translate(565.087891 0)"/>
      <use xlink:href="#DejaVuSans-3d" transform="translate(596.875 0)"/>
      <use xlink:href="#DejaVuSans-20" transform="translate(680.664062 0)"/>
      <use xlink:href="#DejaVuSans-30" transform="translate(712.451172 0)"/>
      <use xlink:href="#DejaVuSans-2e" transform="translate(776.074219 0)"/>
      <use xlink:href="#DejaVuSans-30" transform="translate(807.861328 0)"/>
      <use xlink:href="#DejaVuSans-30" transform="translate(871.484375 0)"/>
      <use xlink:href="#DejaVuSans-34" transform="translate(935.107422 0)"/>
     </g>
    </g>
    <g id="line2d_30">
     <path d="M 484.521875 104.94675 
L 492.521875 104.94675 
L 500.521875 104.94675 
" style="fill: none; stroke-dasharray: 3.7,1.6; stroke-dashoffset: 0; stroke: #000000"/>
    </g>
    <g id="text_23">
     <!-- true value -->
     <g transform="translate(506.921875 107.74675) scale(0.08 -0.08)">
      <use xlink:href="#DejaVuSans-74"/>
      <use xlink:href="#DejaVuSans-72" transform="translate(39.208984 0)"/>
      <use xlink:href="#DejaVuSans-75" transform="translate(80.322266 0)"/>
      <use xlink:href="#DejaVuSans-65" transform="translate(143.701172 0)"/>
      <use xlink:href="#DejaVuSans-20" transform="translate(205.224609 0)"/>
      <use xlink:href="#DejaVuSans-76" transform="translate(237.011719 0)"/>
      <use xlink:href="#DejaVuSans-61" transform="translate(296.191406 0)"/>
      <use xlink:href="#DejaVuSans-6c" transform="translate(357.470703 0)"/>
      <use xlink:href="#DejaVuSans-75" transform="translate(385.253906 0)"/>
      <use xlink:href="#DejaVuSans-65" transform="translate(448.632812 0)"/>
     </g>
    </g>
   </g>
  </g>
 </g>
 <defs>
  <clipPath id="p56b9b0ab29">
   <rect x="34.240625" y="35.7555" width="559.78" height="240.184"/>
  </clipPath>
 </defs>
</svg>
