<?xml version="1.0" encoding="utf-8" standalone="no"?>
<!DOCTYPE svg PUBLIC "-//W3C//DTD SVG 1.1//EN"
  "http://www.w3.org/Graphics/SVG/1.1/DTD/svg11.dtd">
<svg xmlns:xlink="http://www.w3.org/1999/xlink" width="784.735937pt" height="387.034375pt" viewBox="0 0 784.735937 387.034375" xmlns="http://www.w3.org/2000/svg" version="1.1">
 <metadata>
  <rdf:RDF xmlns:dc="http://purl.org/dc/elements/1.1/" xmlns:cc="http://creativecommons.org/ns#" xmlns:rdf="http://www.w3.org/1999/02/22-rdf-syntax-ns#">
   <cc:Work>
    <dc:type rdf:resource="http://purl.org/dc/dcmitype/StillImage"/>
    <dc:date>2026-05-26T11:27:06.605689</dc:date>
    <dc:format>image/svg+xml</dc:format>
    <dc:creator>
     <cc:Agent>
      <dc:title>Matplotlib v3.10.8, https://matplotlib.org/</dc:title>
     </cc:Agent>
    </dc:creator>
   </cc:Work>
  </rdf:RDF>
 </metadata>
 <defs>
  <style type="text/css">*{stroke-linejoin: round; stroke-linecap: butt}</style>
 </defs>
 <g id="figure_1">
  <g id="patch_1">
   <path d="M 0 387.034375 
L 784.735937 387.034375 
L 784.735937 0 
L 0 0 
z
" style="fill: #ffffff"/>
  </g>
  <g id="axes_1">
   <g id="patch_2">
    <path d="M 67.398438 349.478125 
L 771.173438 349.478125 
L 771.173438 22.318125 
L 67.398438 22.318125 
z
" style="fill: #ffffff"/>
   </g>
   <g id="line2d_1">
    <path d="M 126.046354 218.614125 
L 214.018229 153.182125 
L 301.990104 153.182125 
L 389.961979 120.466125 
L 477.933854 120.466125 
L 565.905729 218.614125 
L 653.877604 284.046125 
" clip-path="url(#pfc98380465)" style="fill: none; stroke: #000000; stroke-opacity: 0.4; stroke-width: 0.8; stroke-linecap: square"/>
   </g>
   <g id="matplotlib.axis_1">
    <g id="xtick_1">
     <g id="line2d_2">
      <path d="M 67.398438 349.478125 
L 67.398438 22.318125 
" clip-path="url(#pfc98380465)" style="fill: none; stroke: #b0b0b0; stroke-opacity: 0.25; stroke-width: 0.8; stroke-linecap: square"/>
     </g>
     <g id="line2d_3">
      <defs>
       <path id="mdbcf3571c6" d="M 0 0 
L 0 3.5 
" style="stroke: #000000; stroke-width: 0.8"/>
      </defs>
      <g>
       <use xlink:href="#mdbcf3571c6" x="67.398438" y="349.478125" style="stroke: #000000; stroke-width: 0.8"/>
      </g>
     </g>
     <g id="text_1">
      <!-- 0 -->
      <g transform="translate(64.217187 364.076562) scale(0.1 -0.1)">
       <defs>
        <path id="DejaVuSans-30" d="M 2034 4250 
Q 1547 4250 1301 3770 
Q 1056 3291 1056 2328 
Q 1056 1369 1301 889 
Q 1547 409 2034 409 
Q 2525 409 2770 889 
Q 3016 1369 3016 2328 
Q 3016 3291 2770 3770 
Q 2525 4250 2034 4250 
z
M 2034 4750 
Q 2819 4750 3233 4129 
Q 3647 3509 3647 2328 
Q 3647 1150 3233 529 
Q 2819 -91 2034 -91 
Q 1250 -91 836 529 
Q 422 1150 422 2328 
Q 422 3509 836 4129 
Q 1250 4750 2034 4750 
z
" transform="scale(0.015625)"/>
       </defs>
       <use xlink:href="#DejaVuSans-30"/>
      </g>
     </g>
    </g>
    <g id="xtick_2">
     <g id="line2d_4">
      <path d="M 184.694271 349.478125 
L 184.694271 22.318125 
" clip-path="url(#pfc98380465)" style="fill: none; stroke: #b0b0b0; stroke-opacity: 0.25; stroke-width: 0.8; stroke-linecap: square"/>
     </g>
     <g id="line2d_5">
      <g>
       <use xlink:href="#mdbcf3571c6" x="184.694271" y="349.478125" style="stroke: #000000; stroke-width: 0.8"/>
      </g>
     </g>
     <g id="text_2">
      <!-- 2 -->
      <g transform="translate(181.513021 364.076562) scale(0.1 -0.1)">
       <defs>
        <path id="DejaVuSans-32" d="M 1228 531 
L 3431 531 
L 3431 0 
L 469 0 
L 469 531 
Q 828 903 1448 1529 
Q 2069 2156 2228 2338 
Q 2531 2678 2651 2914 
Q 2772 3150 2772 3378 
Q 2772 3750 2511 3984 
Q 2250 4219 1831 4219 
Q 1534 4219 1204 4116 
Q 875 4013 500 3803 
L 500 4441 
Q 881 4594 1212 4672 
Q 1544 4750 1819 4750 
Q 2544 4750 2975 4387 
Q 3406 4025 3406 3419 
Q 3406 3131 3298 2873 
Q 3191 2616 2906 2266 
Q 2828 2175 2409 1742 
Q 1991 1309 1228 531 
z
" transform="scale(0.015625)"/>
       </defs>
       <use xlink:href="#DejaVuSans-32"/>
      </g>
     </g>
    </g>
    <g id="xtick_3">
     <g id="line2d_6">
      <path d="M 301.990104 349.478125 
L 301.990104 22.318125 
" clip-path="url(#pfc98380465)" style="fill: none; stroke: #b0b0b0; stroke-opacity: 0.25; stroke-width: 0.8; stroke-linecap: square"/>
     </g>
     <g id="line2d_7">
      <g>
       <use xlink:href="#mdbcf3571c6" x="301.990104" y="349.478125" style="stroke: #000000; stroke-width: 0.8"/>
      </g>
     </g>
     <g id="text_3">
      <!-- 4 -->
      <g transform="translate(298.808854 364.076562) scale(0.1 -0.1)">
       <defs>
        <path id="DejaVuSans-34" d="M 2419 4116 
L 825 1625 
L 2419 1625 
L 2419 4116 
z
M 2253 4666 
L 3047 4666 
L 3047 1625 
L 3713 1625 
L 3713 1100 
L 3047 1100 
L 3047 0 
L 2419 0 
L 2419 1100 
L 313 1100 
L 313 1709 
L 2253 4666 
z
" transform="scale(0.015625)"/>
       </defs>
       <use xlink:href="#DejaVuSans-34"/>
      </g>
     </g>
    </g>
    <g id="xtick_4">
     <g id="line2d_8">
      <path d="M 419.285938 349.478125 
L 419.285938 22.318125 
" clip-path="url(#pfc98380465)" style="fill: none; stroke: #b0b0b0; stroke-opacity: 0.25; stroke-width: 0.8; stroke-linecap: square"/>
     </g>
     <g id="line2d_9">
      <g>
       <use xlink:href="#mdbcf3571c6" x="419.285938" y="349.478125" style="stroke: #000000; stroke-width: 0.8"/>
      </g>
     </g>
     <g id="text_4">
      <!-- 6 -->
      <g transform="translate(416.104688 364.076562) scale(0.1 -0.1)">
       <defs>
        <path id="DejaVuSans-36" d="M 2113 2584 
Q 1688 2584 1439 2293 
Q 1191 2003 1191 1497 
Q 1191 994 1439 701 
Q 1688 409 2113 409 
Q 2538 409 2786 701 
Q 3034 994 3034 1497 
Q 3034 2003 2786 2293 
Q 2538 2584 2113 2584 
z
M 3366 4563 
L 3366 3988 
Q 3128 4100 2886 4159 
Q 2644 4219 2406 4219 
Q 1781 4219 1451 3797 
Q 1122 3375 1075 2522 
Q 1259 2794 1537 2939 
Q 1816 3084 2150 3084 
Q 2853 3084 3261 2657 
Q 3669 2231 3669 1497 
Q 3669 778 3244 343 
Q 2819 -91 2113 -91 
Q 1303 -91 875 529 
Q 447 1150 447 2328 
Q 447 3434 972 4092 
Q 1497 4750 2381 4750 
Q 2619 4750 2861 4703 
Q 3103 4656 3366 4563 
z
" transform="scale(0.015625)"/>
       </defs>
       <use xlink:href="#DejaVuSans-36"/>
      </g>
     </g>
    </g>
    <g id="xtick_5">
     <g id="line2d_10">
      <path d="M 536.581771 349.478125 
L 536.581771 22.318125 
" clip-path="url(#pfc98380465)" style="fill: none; stroke: #b0b0b0; stroke-opacity: 0.25; stroke-width: 0.8; stroke-linecap: square"/>
     </g>
     <g id="line2d_11">
      <g>
       <use xlink:href="#mdbcf3571c6" x="536.581771" y="349.478125" style="stroke: #000000; stroke-width: 0.8"/>
      </g>
     </g>
     <g id="text_5">
      <!-- 8 -->
      <g transform="translate(533.400521 364.076562) scale(0.1 -0.1)">
       <defs>
        <path id="DejaVuSans-38" d="M 2034 2216 
Q 1584 2216 1326 1975 
Q 1069 1734 1069 1313 
Q 1069 891 1326 650 
Q 1584 409 2034 409 
Q 2484 409 2743 651 
Q 3003 894 3003 1313 
Q 3003 1734 2745 1975 
Q 2488 2216 2034 2216 
z
M 1403 2484 
Q 997 2584 770 2862 
Q 544 3141 544 3541 
Q 544 4100 942 4425 
Q 1341 4750 2034 4750 
Q 2731 4750 3128 4425 
Q 3525 4100 3525 3541 
Q 3525 3141 3298 2862 
Q 3072 2584 2669 2484 
Q 3125 2378 3379 2068 
Q 3634 1759 3634 1313 
Q 3634 634 3220 271 
Q 2806 -91 2034 -91 
Q 1263 -91 848 271 
Q 434 634 434 1313 
Q 434 1759 690 2068 
Q 947 2378 1403 2484 
z
M 1172 3481 
Q 1172 3119 1398 2916 
Q 1625 2713 2034 2713 
Q 2441 2713 2670 2916 
Q 2900 3119 2900 3481 
Q 2900 3844 2670 4047 
Q 2441 4250 2034 4250 
Q 1625 4250 1398 4047 
Q 1172 3844 1172 3481 
z
" transform="scale(0.015625)"/>
       </defs>
       <use xlink:href="#DejaVuSans-38"/>
      </g>
     </g>
    </g>
    <g id="xtick_6">
     <g id="line2d_12">
      <path d="M 653.877604 349.478125 
L 653.877604 22.318125 
" clip-path="url(#pfc98380465)" style="fill: none; stroke: #b0b0b0; stroke-opacity: 0.25; stroke-width: 0.8; stroke-linecap: square"/>
     </g>
     <g id="line2d_13">
      <g>
       <use xlink:href="#mdbcf3571c6" x="653.877604" y="349.478125" style="stroke: #000000; stroke-width: 0.8"/>
      </g>
     </g>
     <g id="text_6">
      <!-- 10 -->
      <g transform="translate(647.515104 364.076562) scale(0.1 -0.1)">
       <defs>
        <path id="DejaVuSans-31" d="M 794 531 
L 1825 531 
L 1825 4091 
L 703 3866 
L 703 4441 
L 1819 4666 
L 2450 4666 
L 2450 531 
L 3481 531 
L 3481 0 
L 794 0 
L 794 531 
z
" transform="scale(0.015625)"/>
       </defs>
       <use xlink:href="#DejaVuSans-31"/>
       <use xlink:href="#DejaVuSans-30" transform="translate(63.623047 0)"/>
      </g>
     </g>
    </g>
    <g id="xtick_7">
     <g id="line2d_14">
      <path d="M 771.173438 349.478125 
L 771.173438 22.318125 
" clip-path="url(#pfc98380465)" style="fill: none; stroke: #b0b0b0; stroke-opacity: 0.25; stroke-width: 0.8; stroke-linecap: square"/>
     </g>
     <g id="line2d_15">
      <g>
       <use xlink:href="#mdbcf3571c6" x="771.173438" y="349.478125" style="stroke: #000000; stroke-width: 0.8"/>
      </g>
     </g>
     <g id="text_7">
      <!-- 12 -->
      <g transform="translate(764.810938 364.076562) scale(0.1 -0.1)">
       <use xlink:href="#DejaVuSans-31"/>
       <use xlink:href="#DejaVuSans-32" transform="translate(63.623047 0)"/>
      </g>
     </g>
    </g>
    <g id="text_8">
     <!-- time → -->
     <g transform="translate(402.210938 377.754687) scale(0.1 -0.1)">
      <defs>
       <path id="DejaVuSans-74" d="M 1172 4494 
L 1172 3500 
L 2356 3500 
L 2356 3053 
L 1172 3053 
L 1172 1153 
Q 1172 725 1289 603 
Q 1406 481 1766 481 
L 2356 481 
L 2356 0 
L 1766 0 
Q 1100 0 847 248 
Q 594 497 594 1153 
L 594 3053 
L 172 3053 
L 172 3500 
L 594 3500 
L 594 4494 
L 1172 4494 
z
" transform="scale(0.015625)"/>
       <path id="DejaVuSans-69" d="M 603 3500 
L 1178 3500 
L 1178 0 
L 603 0 
L 603 3500 
z
M 603 4863 
L 1178 4863 
L 1178 4134 
L 603 4134 
L 603 4863 
z
" transform="scale(0.015625)"/>
       <path id="DejaVuSans-6d" d="M 3328 2828 
Q 3544 3216 3844 3400 
Q 4144 3584 4550 3584 
Q 5097 3584 5394 3201 
Q 5691 2819 5691 2113 
L 5691 0 
L 5113 0 
L 5113 2094 
Q 5113 2597 4934 2840 
Q 4756 3084 4391 3084 
Q 3944 3084 3684 2787 
Q 3425 2491 3425 1978 
L 3425 0 
L 2847 0 
L 2847 2094 
Q 2847 2600 2669 2842 
Q 2491 3084 2119 3084 
Q 1678 3084 1418 2786 
Q 1159 2488 1159 1978 
L 1159 0 
L 581 0 
L 581 3500 
L 1159 3500 
L 1159 2956 
Q 1356 3278 1631 3431 
Q 1906 3584 2284 3584 
Q 2666 3584 2933 3390 
Q 3200 3197 3328 2828 
z
" transform="scale(0.015625)"/>
       <path id="DejaVuSans-65" d="M 3597 1894 
L 3597 1613 
L 953 1613 
Q 991 1019 1311 708 
Q 1631 397 2203 397 
Q 2534 397 2845 478 
Q 3156 559 3463 722 
L 3463 178 
Q 3153 47 2828 -22 
Q 2503 -91 2169 -91 
Q 1331 -91 842 396 
Q 353 884 353 1716 
Q 353 2575 817 3079 
Q 1281 3584 2069 3584 
Q 2775 3584 3186 3129 
Q 3597 2675 3597 1894 
z
M 3022 2063 
Q 3016 2534 2758 2815 
Q 2500 3097 2075 3097 
Q 1594 3097 1305 2825 
Q 1016 2553 972 2059 
L 3022 2063 
z
" transform="scale(0.015625)"/>
       <path id="DejaVuSans-20" transform="scale(0.015625)"/>
       <path id="DejaVuSans-2192" d="M 5050 2147 
L 5050 1866 
L 3822 638 
L 3447 1013 
L 4175 1741 
L 366 1741 
L 366 2272 
L 4175 2272 
L 3447 3000 
L 3822 3375 
L 5050 2147 
z
" transform="scale(0.015625)"/>
      </defs>
      <use xlink:href="#DejaVuSans-74"/>
      <use xlink:href="#DejaVuSans-69" transform="translate(39.208984 0)"/>
      <use xlink:href="#DejaVuSans-6d" transform="translate(66.992188 0)"/>
      <use xlink:href="#DejaVuSans-65" transform="translate(164.404297 0)"/>
      <use xlink:href="#DejaVuSans-20" transform="translate(225.927734 0)"/>
      <use xlink:href="#DejaVuSans-2192" transform="translate(257.714844 0)"/>
     </g>
    </g>
   </g>
   <g id="matplotlib.axis_2">
    <g id="ytick_1">
     <g id="line2d_16">
      <defs>
       <path id="mf3edb088af" d="M 0 0 
L -3.5 0 
" style="stroke: #000000; stroke-width: 0.8"/>
      </defs>
      <g>
       <use xlink:href="#mf3edb088af" x="67.398438" y="284.046125" style="stroke: #000000; stroke-width: 0.8"/>
      </g>
     </g>
     <g id="text_9">
      <!-- Archived -->
      <g transform="translate(16.6375 287.845344) scale(0.1 -0.1)">
       <defs>
        <path id="DejaVuSans-41" d="M 2188 4044 
L 1331 1722 
L 3047 1722 
L 2188 4044 
z
M 1831 4666 
L 2547 4666 
L 4325 0 
L 3669 0 
L 3244 1197 
L 1141 1197 
L 716 0 
L 50 0 
L 1831 4666 
z
" transform="scale(0.015625)"/>
        <path id="DejaVuSans-72" d="M 2631 2963 
Q 2534 3019 2420 3045 
Q 2306 3072 2169 3072 
Q 1681 3072 1420 2755 
Q 1159 2438 1159 1844 
L 1159 0 
L 581 0 
L 581 3500 
L 1159 3500 
L 1159 2956 
Q 1341 3275 1631 3429 
Q 1922 3584 2338 3584 
Q 2397 3584 2469 3576 
Q 2541 3569 2628 3553 
L 2631 2963 
z
" transform="scale(0.015625)"/>
        <path id="DejaVuSans-63" d="M 3122 3366 
L 3122 2828 
Q 2878 2963 2633 3030 
Q 2388 3097 2138 3097 
Q 1578 3097 1268 2742 
Q 959 2388 959 1747 
Q 959 1106 1268 751 
Q 1578 397 2138 397 
Q 2388 397 2633 464 
Q 2878 531 3122 666 
L 3122 134 
Q 2881 22 2623 -34 
Q 2366 -91 2075 -91 
Q 1284 -91 818 406 
Q 353 903 353 1747 
Q 353 2603 823 3093 
Q 1294 3584 2113 3584 
Q 2378 3584 2631 3529 
Q 2884 3475 3122 3366 
z
" transform="scale(0.015625)"/>
        <path id="DejaVuSans-68" d="M 3513 2113 
L 3513 0 
L 2938 0 
L 2938 2094 
Q 2938 2591 2744 2837 
Q 2550 3084 2163 3084 
Q 1697 3084 1428 2787 
Q 1159 2491 1159 1978 
L 1159 0 
L 581 0 
L 581 4863 
L 1159 4863 
L 1159 2956 
Q 1366 3272 1645 3428 
Q 1925 3584 2291 3584 
Q 2894 3584 3203 3211 
Q 3513 2838 3513 2113 
z
" transform="scale(0.015625)"/>
        <path id="DejaVuSans-76" d="M 191 3500 
L 800 3500 
L 1894 563 
L 2988 3500 
L 3597 3500 
L 2284 0 
L 1503 0 
L 191 3500 
z
" transform="scale(0.015625)"/>
        <path id="DejaVuSans-64" d="M 2906 2969 
L 2906 4863 
L 3481 4863 
L 3481 0 
L 2906 0 
L 2906 525 
Q 2725 213 2448 61 
Q 2172 -91 1784 -91 
Q 1150 -91 751 415 
Q 353 922 353 1747 
Q 353 2572 751 3078 
Q 1150 3584 1784 3584 
Q 2172 3584 2448 3432 
Q 2725 3281 2906 2969 
z
M 947 1747 
Q 947 1113 1208 752 
Q 1469 391 1925 391 
Q 2381 391 2643 752 
Q 2906 1113 2906 1747 
Q 2906 2381 2643 2742 
Q 2381 3103 1925 3103 
Q 1469 3103 1208 2742 
Q 947 2381 947 1747 
z
" transform="scale(0.015625)"/>
       </defs>
       <use xlink:href="#DejaVuSans-41"/>
       <use xlink:href="#DejaVuSans-72" transform="translate(68.408203 0)"/>
       <use xlink:href="#DejaVuSans-63" transform="translate(107.271484 0)"/>
       <use xlink:href="#DejaVuSans-68" transform="translate(162.251953 0)"/>
       <use xlink:href="#DejaVuSans-69" transform="translate(225.630859 0)"/>
       <use xlink:href="#DejaVuSans-76" transform="translate(253.414062 0)"/>
       <use xlink:href="#DejaVuSans-65" transform="translate(312.59375 0)"/>
       <use xlink:href="#DejaVuSans-64" transform="translate(374.117188 0)"/>
      </g>
     </g>
    </g>
    <g id="ytick_2">
     <g id="line2d_17">
      <g>
       <use xlink:href="#mf3edb088af" x="67.398438" y="218.614125" style="stroke: #000000; stroke-width: 0.8"/>
      </g>
     </g>
     <g id="text_10">
      <!-- Production -->
      <g transform="translate(7.2 222.413344) scale(0.1 -0.1)">
       <defs>
        <path id="DejaVuSans-50" d="M 1259 4147 
L 1259 2394 
L 2053 2394 
Q 2494 2394 2734 2622 
Q 2975 2850 2975 3272 
Q 2975 3691 2734 3919 
Q 2494 4147 2053 4147 
L 1259 4147 
z
M 628 4666 
L 2053 4666 
Q 2838 4666 3239 4311 
Q 3641 3956 3641 3272 
Q 3641 2581 3239 2228 
Q 2838 1875 2053 1875 
L 1259 1875 
L 1259 0 
L 628 0 
L 628 4666 
z
" transform="scale(0.015625)"/>
        <path id="DejaVuSans-6f" d="M 1959 3097 
Q 1497 3097 1228 2736 
Q 959 2375 959 1747 
Q 959 1119 1226 758 
Q 1494 397 1959 397 
Q 2419 397 2687 759 
Q 2956 1122 2956 1747 
Q 2956 2369 2687 2733 
Q 2419 3097 1959 3097 
z
M 1959 3584 
Q 2709 3584 3137 3096 
Q 3566 2609 3566 1747 
Q 3566 888 3137 398 
Q 2709 -91 1959 -91 
Q 1206 -91 779 398 
Q 353 888 353 1747 
Q 353 2609 779 3096 
Q 1206 3584 1959 3584 
z
" transform="scale(0.015625)"/>
        <path id="DejaVuSans-75" d="M 544 1381 
L 544 3500 
L 1119 3500 
L 1119 1403 
Q 1119 906 1312 657 
Q 1506 409 1894 409 
Q 2359 409 2629 706 
Q 2900 1003 2900 1516 
L 2900 3500 
L 3475 3500 
L 3475 0 
L 2900 0 
L 2900 538 
Q 2691 219 2414 64 
Q 2138 -91 1772 -91 
Q 1169 -91 856 284 
Q 544 659 544 1381 
z
M 1991 3584 
L 1991 3584 
z
" transform="scale(0.015625)"/>
        <path id="DejaVuSans-6e" d="M 3513 2113 
L 3513 0 
L 2938 0 
L 2938 2094 
Q 2938 2591 2744 2837 
Q 2550 3084 2163 3084 
Q 1697 3084 1428 2787 
Q 1159 2491 1159 1978 
L 1159 0 
L 581 0 
L 581 3500 
L 1159 3500 
L 1159 2956 
Q 1366 3272 1645 3428 
Q 1925 3584 2291 3584 
Q 2894 3584 3203 3211 
Q 3513 2838 3513 2113 
z
" transform="scale(0.015625)"/>
       </defs>
       <use xlink:href="#DejaVuSans-50"/>
       <use xlink:href="#DejaVuSans-72" transform="translate(58.552734 0)"/>
       <use xlink:href="#DejaVuSans-6f" transform="translate(97.416016 0)"/>
       <use xlink:href="#DejaVuSans-64" transform="translate(158.597656 0)"/>
       <use xlink:href="#DejaVuSans-75" transform="translate(222.074219 0)"/>
       <use xlink:href="#DejaVuSans-63" transform="translate(285.453125 0)"/>
       <use xlink:href="#DejaVuSans-74" transform="translate(340.433594 0)"/>
       <use xlink:href="#DejaVuSans-69" transform="translate(379.642578 0)"/>
       <use xlink:href="#DejaVuSans-6f" transform="translate(407.425781 0)"/>
       <use xlink:href="#DejaVuSans-6e" transform="translate(468.607422 0)"/>
      </g>
     </g>
    </g>
    <g id="ytick_3">
     <g id="line2d_18">
      <g>
       <use xlink:href="#mf3edb088af" x="67.398438" y="153.182125" style="stroke: #000000; stroke-width: 0.8"/>
      </g>
     </g>
     <g id="text_11">
      <!-- Staging -->
      <g transform="translate(22.189062 156.981344) scale(0.1 -0.1)">
       <defs>
        <path id="DejaVuSans-53" d="M 3425 4513 
L 3425 3897 
Q 3066 4069 2747 4153 
Q 2428 4238 2131 4238 
Q 1616 4238 1336 4038 
Q 1056 3838 1056 3469 
Q 1056 3159 1242 3001 
Q 1428 2844 1947 2747 
L 2328 2669 
Q 3034 2534 3370 2195 
Q 3706 1856 3706 1288 
Q 3706 609 3251 259 
Q 2797 -91 1919 -91 
Q 1588 -91 1214 -16 
Q 841 59 441 206 
L 441 856 
Q 825 641 1194 531 
Q 1563 422 1919 422 
Q 2459 422 2753 634 
Q 3047 847 3047 1241 
Q 3047 1584 2836 1778 
Q 2625 1972 2144 2069 
L 1759 2144 
Q 1053 2284 737 2584 
Q 422 2884 422 3419 
Q 422 4038 858 4394 
Q 1294 4750 2059 4750 
Q 2388 4750 2728 4690 
Q 3069 4631 3425 4513 
z
" transform="scale(0.015625)"/>
        <path id="DejaVuSans-61" d="M 2194 1759 
Q 1497 1759 1228 1600 
Q 959 1441 959 1056 
Q 959 750 1161 570 
Q 1363 391 1709 391 
Q 2188 391 2477 730 
Q 2766 1069 2766 1631 
L 2766 1759 
L 2194 1759 
z
M 3341 1997 
L 3341 0 
L 2766 0 
L 2766 531 
Q 2569 213 2275 61 
Q 1981 -91 1556 -91 
Q 1019 -91 701 211 
Q 384 513 384 1019 
Q 384 1609 779 1909 
Q 1175 2209 1959 2209 
L 2766 2209 
L 2766 2266 
Q 2766 2663 2505 2880 
Q 2244 3097 1772 3097 
Q 1472 3097 1187 3025 
Q 903 2953 641 2809 
L 641 3341 
Q 956 3463 1253 3523 
Q 1550 3584 1831 3584 
Q 2591 3584 2966 3190 
Q 3341 2797 3341 1997 
z
" transform="scale(0.015625)"/>
        <path id="DejaVuSans-67" d="M 2906 1791 
Q 2906 2416 2648 2759 
Q 2391 3103 1925 3103 
Q 1463 3103 1205 2759 
Q 947 2416 947 1791 
Q 947 1169 1205 825 
Q 1463 481 1925 481 
Q 2391 481 2648 825 
Q 2906 1169 2906 1791 
z
M 3481 434 
Q 3481 -459 3084 -895 
Q 2688 -1331 1869 -1331 
Q 1566 -1331 1297 -1286 
Q 1028 -1241 775 -1147 
L 775 -588 
Q 1028 -725 1275 -790 
Q 1522 -856 1778 -856 
Q 2344 -856 2625 -561 
Q 2906 -266 2906 331 
L 2906 616 
Q 2728 306 2450 153 
Q 2172 0 1784 0 
Q 1141 0 747 490 
Q 353 981 353 1791 
Q 353 2603 747 3093 
Q 1141 3584 1784 3584 
Q 2172 3584 2450 3431 
Q 2728 3278 2906 2969 
L 2906 3500 
L 3481 3500 
L 3481 434 
z
" transform="scale(0.015625)"/>
       </defs>
       <use xlink:href="#DejaVuSans-53"/>
       <use xlink:href="#DejaVuSans-74" transform="translate(63.476562 0)"/>
       <use xlink:href="#DejaVuSans-61" transform="translate(102.685547 0)"/>
       <use xlink:href="#DejaVuSans-67" transform="translate(163.964844 0)"/>
       <use xlink:href="#DejaVuSans-69" transform="translate(227.441406 0)"/>
       <use xlink:href="#DejaVuSans-6e" transform="translate(255.224609 0)"/>
       <use xlink:href="#DejaVuSans-67" transform="translate(318.603516 0)"/>
      </g>
     </g>
    </g>
    <g id="ytick_4">
     <g id="line2d_19">
      <g>
       <use xlink:href="#mf3edb088af" x="67.398438" y="120.466125" style="stroke: #000000; stroke-width: 0.8"/>
      </g>
     </g>
     <g id="text_12">
      <!-- Canary -->
      <g transform="translate(24.792187 124.265344) scale(0.1 -0.1)">
       <defs>
        <path id="DejaVuSans-43" d="M 4122 4306 
L 4122 3641 
Q 3803 3938 3442 4084 
Q 3081 4231 2675 4231 
Q 1875 4231 1450 3742 
Q 1025 3253 1025 2328 
Q 1025 1406 1450 917 
Q 1875 428 2675 428 
Q 3081 428 3442 575 
Q 3803 722 4122 1019 
L 4122 359 
Q 3791 134 3420 21 
Q 3050 -91 2638 -91 
Q 1578 -91 968 557 
Q 359 1206 359 2328 
Q 359 3453 968 4101 
Q 1578 4750 2638 4750 
Q 3056 4750 3426 4639 
Q 3797 4528 4122 4306 
z
" transform="scale(0.015625)"/>
        <path id="DejaVuSans-79" d="M 2059 -325 
Q 1816 -950 1584 -1140 
Q 1353 -1331 966 -1331 
L 506 -1331 
L 506 -850 
L 844 -850 
Q 1081 -850 1212 -737 
Q 1344 -625 1503 -206 
L 1606 56 
L 191 3500 
L 800 3500 
L 1894 763 
L 2988 3500 
L 3597 3500 
L 2059 -325 
z
" transform="scale(0.015625)"/>
       </defs>
       <use xlink:href="#DejaVuSans-43"/>
       <use xlink:href="#DejaVuSans-61" transform="translate(69.824219 0)"/>
       <use xlink:href="#DejaVuSans-6e" transform="translate(131.103516 0)"/>
       <use xlink:href="#DejaVuSans-61" transform="translate(194.482422 0)"/>
       <use xlink:href="#DejaVuSans-72" transform="translate(255.761719 0)"/>
       <use xlink:href="#DejaVuSans-79" transform="translate(296.875 0)"/>
      </g>
     </g>
    </g>
   </g>
   <g id="patch_3">
    <path d="M 67.398438 349.478125 
L 67.398438 22.318125 
" style="fill: none; stroke: #000000; stroke-width: 0.8; stroke-linejoin: miter; stroke-linecap: square"/>
   </g>
   <g id="patch_4">
    <path d="M 771.173438 349.478125 
L 771.173438 22.318125 
" style="fill: none; stroke: #000000; stroke-width: 0.8; stroke-linejoin: miter; stroke-linecap: square"/>
   </g>
   <g id="patch_5">
    <path d="M 67.398438 349.478125 
L 771.173438 349.478125 
" style="fill: none; stroke: #000000; stroke-width: 0.8; stroke-linejoin: miter; stroke-linecap: square"/>
   </g>
   <g id="patch_6">
    <path d="M 67.398438 22.318125 
L 771.173438 22.318125 
" style="fill: none; stroke: #000000; stroke-width: 0.8; stroke-linejoin: miter; stroke-linecap: square"/>
   </g>
   <g id="patch_7">
    <path d="M 126.046354 191.66275 
Q 126.046354 204.139934 126.046354 216.617118 
" style="fill: none; stroke: #808080; stroke-width: 0.7; stroke-linecap: round"/>
   </g>
   <g id="text_13">
    <!-- Day 0 -->
    <g transform="translate(113.599167 166.861844) scale(0.085 -0.085)">
     <defs>
      <path id="DejaVuSans-44" d="M 1259 4147 
L 1259 519 
L 2022 519 
Q 2988 519 3436 956 
Q 3884 1394 3884 2338 
Q 3884 3275 3436 3711 
Q 2988 4147 2022 4147 
L 1259 4147 
z
M 628 4666 
L 1925 4666 
Q 3281 4666 3915 4102 
Q 4550 3538 4550 2338 
Q 4550 1131 3912 565 
Q 3275 0 1925 0 
L 628 0 
L 628 4666 
z
" transform="scale(0.015625)"/>
     </defs>
     <use xlink:href="#DejaVuSans-44"/>
     <use xlink:href="#DejaVuSans-61" transform="translate(77.001953 0)"/>
     <use xlink:href="#DejaVuSans-79" transform="translate(138.28125 0)"/>
     <use xlink:href="#DejaVuSans-20" transform="translate(197.460938 0)"/>
     <use xlink:href="#DejaVuSans-30" transform="translate(229.248047 0)"/>
    </g>
    <!-- v4 promoted to Production -->
    <g transform="translate(69.229167 176.379984) scale(0.085 -0.085)">
     <defs>
      <path id="DejaVuSans-70" d="M 1159 525 
L 1159 -1331 
L 581 -1331 
L 581 3500 
L 1159 3500 
L 1159 2969 
Q 1341 3281 1617 3432 
Q 1894 3584 2278 3584 
Q 2916 3584 3314 3078 
Q 3713 2572 3713 1747 
Q 3713 922 3314 415 
Q 2916 -91 2278 -91 
Q 1894 -91 1617 61 
Q 1341 213 1159 525 
z
M 3116 1747 
Q 3116 2381 2855 2742 
Q 2594 3103 2138 3103 
Q 1681 3103 1420 2742 
Q 1159 2381 1159 1747 
Q 1159 1113 1420 752 
Q 1681 391 2138 391 
Q 2594 391 2855 752 
Q 3116 1113 3116 1747 
z
" transform="scale(0.015625)"/>
     </defs>
     <use xlink:href="#DejaVuSans-76"/>
     <use xlink:href="#DejaVuSans-34" transform="translate(59.179688 0)"/>
     <use xlink:href="#DejaVuSans-20" transform="translate(122.802734 0)"/>
     <use xlink:href="#DejaVuSans-70" transform="translate(154.589844 0)"/>
     <use xlink:href="#DejaVuSans-72" transform="translate(218.066406 0)"/>
     <use xlink:href="#DejaVuSans-6f" transform="translate(256.929688 0)"/>
     <use xlink:href="#DejaVuSans-6d" transform="translate(318.111328 0)"/>
     <use xlink:href="#DejaVuSans-6f" transform="translate(415.523438 0)"/>
     <use xlink:href="#DejaVuSans-74" transform="translate(476.705078 0)"/>
     <use xlink:href="#DejaVuSans-65" transform="translate(515.914062 0)"/>
     <use xlink:href="#DejaVuSans-64" transform="translate(577.4375 0)"/>
     <use xlink:href="#DejaVuSans-20" transform="translate(640.914062 0)"/>
     <use xlink:href="#DejaVuSans-74" transform="translate(672.701172 0)"/>
     <use xlink:href="#DejaVuSans-6f" transform="translate(711.910156 0)"/>
     <use xlink:href="#DejaVuSans-20" transform="translate(773.091797 0)"/>
     <use xlink:href="#DejaVuSans-50" transform="translate(804.878906 0)"/>
     <use xlink:href="#DejaVuSans-72" transform="translate(863.431641 0)"/>
     <use xlink:href="#DejaVuSans-6f" transform="translate(902.294922 0)"/>
     <use xlink:href="#DejaVuSans-64" transform="translate(963.476562 0)"/>
     <use xlink:href="#DejaVuSans-75" transform="translate(1026.953125 0)"/>
     <use xlink:href="#DejaVuSans-63" transform="translate(1090.332031 0)"/>
     <use xlink:href="#DejaVuSans-74" transform="translate(1145.3125 0)"/>
     <use xlink:href="#DejaVuSans-69" transform="translate(1184.521484 0)"/>
     <use xlink:href="#DejaVuSans-6f" transform="translate(1212.304688 0)"/>
     <use xlink:href="#DejaVuSans-6e" transform="translate(1273.486328 0)"/>
    </g>
    <!-- (champion) -->
    <g transform="translate(101.782839 185.898125) scale(0.085 -0.085)">
     <defs>
      <path id="DejaVuSans-28" d="M 1984 4856 
Q 1566 4138 1362 3434 
Q 1159 2731 1159 2009 
Q 1159 1288 1364 580 
Q 1569 -128 1984 -844 
L 1484 -844 
Q 1016 -109 783 600 
Q 550 1309 550 2009 
Q 550 2706 781 3412 
Q 1013 4119 1484 4856 
L 1984 4856 
z
" transform="scale(0.015625)"/>
      <path id="DejaVuSans-29" d="M 513 4856 
L 1013 4856 
Q 1481 4119 1714 3412 
Q 1947 2706 1947 2009 
Q 1947 1309 1714 600 
Q 1481 -109 1013 -844 
L 513 -844 
Q 928 -128 1133 580 
Q 1338 1288 1338 2009 
Q 1338 2731 1133 3434 
Q 928 4138 513 4856 
z
" transform="scale(0.015625)"/>
     </defs>
     <use xlink:href="#DejaVuSans-28"/>
     <use xlink:href="#DejaVuSans-63" transform="translate(39.013672 0)"/>
     <use xlink:href="#DejaVuSans-68" transform="translate(93.994141 0)"/>
     <use xlink:href="#DejaVuSans-61" transform="translate(157.373047 0)"/>
     <use xlink:href="#DejaVuSans-6d" transform="translate(218.652344 0)"/>
     <use xlink:href="#DejaVuSans-70" transform="translate(316.064453 0)"/>
     <use xlink:href="#DejaVuSans-69" transform="translate(379.541016 0)"/>
     <use xlink:href="#DejaVuSans-6f" transform="translate(407.324219 0)"/>
     <use xlink:href="#DejaVuSans-6e" transform="translate(468.505859 0)"/>
     <use xlink:href="#DejaVuSans-29" transform="translate(531.884766 0)"/>
    </g>
   </g>
   <g id="patch_8">
    <path d="M 214.018229 126.23075 
Q 214.018229 138.707934 214.018229 151.185118 
" style="fill: none; stroke: #808080; stroke-width: 0.7; stroke-linecap: round"/>
   </g>
   <g id="text_14">
    <!-- Day 14 -->
    <g transform="translate(198.866979 101.429844) scale(0.085 -0.085)">
     <use xlink:href="#DejaVuSans-44"/>
     <use xlink:href="#DejaVuSans-61" transform="translate(77.001953 0)"/>
     <use xlink:href="#DejaVuSans-79" transform="translate(138.28125 0)"/>
     <use xlink:href="#DejaVuSans-20" transform="translate(197.460938 0)"/>
     <use xlink:href="#DejaVuSans-31" transform="translate(229.248047 0)"/>
     <use xlink:href="#DejaVuSans-34" transform="translate(292.871094 0)"/>
    </g>
    <!-- v5 trained, promoted to Staging -->
    <g transform="translate(145.664948 110.947984) scale(0.085 -0.085)">
     <defs>
      <path id="DejaVuSans-35" d="M 691 4666 
L 3169 4666 
L 3169 4134 
L 1269 4134 
L 1269 2991 
Q 1406 3038 1543 3061 
Q 1681 3084 1819 3084 
Q 2600 3084 3056 2656 
Q 3513 2228 3513 1497 
Q 3513 744 3044 326 
Q 2575 -91 1722 -91 
Q 1428 -91 1123 -41 
Q 819 9 494 109 
L 494 744 
Q 775 591 1075 516 
Q 1375 441 1709 441 
Q 2250 441 2565 725 
Q 2881 1009 2881 1497 
Q 2881 1984 2565 2268 
Q 2250 2553 1709 2553 
Q 1456 2553 1204 2497 
Q 953 2441 691 2322 
L 691 4666 
z
" transform="scale(0.015625)"/>
      <path id="DejaVuSans-2c" d="M 750 794 
L 1409 794 
L 1409 256 
L 897 -744 
L 494 -744 
L 750 256 
L 750 794 
z
" transform="scale(0.015625)"/>
     </defs>
     <use xlink:href="#DejaVuSans-76"/>
     <use xlink:href="#DejaVuSans-35" transform="translate(59.179688 0)"/>
     <use xlink:href="#DejaVuSans-20" transform="translate(122.802734 0)"/>
     <use xlink:href="#DejaVuSans-74" transform="translate(154.589844 0)"/>
     <use xlink:href="#DejaVuSans-72" transform="translate(193.798828 0)"/>
     <use xlink:href="#DejaVuSans-61" transform="translate(234.912109 0)"/>
     <use xlink:href="#DejaVuSans-69" transform="translate(296.191406 0)"/>
     <use xlink:href="#DejaVuSans-6e" transform="translate(323.974609 0)"/>
     <use xlink:href="#DejaVuSans-65" transform="translate(387.353516 0)"/>
     <use xlink:href="#DejaVuSans-64" transform="translate(448.876953 0)"/>
     <use xlink:href="#DejaVuSans-2c" transform="translate(512.353516 0)"/>
     <use xlink:href="#DejaVuSans-20" transform="translate(544.140625 0)"/>
     <use xlink:href="#DejaVuSans-70" transform="translate(575.927734 0)"/>
     <use xlink:href="#DejaVuSans-72" transform="translate(639.404297 0)"/>
     <use xlink:href="#DejaVuSans-6f" transform="translate(678.267578 0)"/>
     <use xlink:href="#DejaVuSans-6d" transform="translate(739.449219 0)"/>
     <use xlink:href="#DejaVuSans-6f" transform="translate(836.861328 0)"/>
     <use xlink:href="#DejaVuSans-74" transform="translate(898.042969 0)"/>
     <use xlink:href="#DejaVuSans-65" transform="translate(937.251953 0)"/>
     <use xlink:href="#DejaVuSans-64" transform="translate(998.775391 0)"/>
     <use xlink:href="#DejaVuSans-20" transform="translate(1062.251953 0)"/>
     <use xlink:href="#DejaVuSans-74" transform="translate(1094.039062 0)"/>
     <use xlink:href="#DejaVuSans-6f" transform="translate(1133.248047 0)"/>
     <use xlink:href="#DejaVuSans-20" transform="translate(1194.429688 0)"/>
     <use xlink:href="#DejaVuSans-53" transform="translate(1226.216797 0)"/>
     <use xlink:href="#DejaVuSans-74" transform="translate(1289.693359 0)"/>
     <use xlink:href="#DejaVuSans-61" transform="translate(1328.902344 0)"/>
     <use xlink:href="#DejaVuSans-67" transform="translate(1390.181641 0)"/>
     <use xlink:href="#DejaVuSans-69" transform="translate(1453.658203 0)"/>
     <use xlink:href="#DejaVuSans-6e" transform="translate(1481.441406 0)"/>
     <use xlink:href="#DejaVuSans-67" transform="translate(1544.820312 0)"/>
    </g>
    <!-- (challenger) -->
    <g transform="translate(188.33694 120.466125) scale(0.085 -0.085)">
     <defs>
      <path id="DejaVuSans-6c" d="M 603 4863 
L 1178 4863 
L 1178 0 
L 603 0 
L 603 4863 
z
" transform="scale(0.015625)"/>
     </defs>
     <use xlink:href="#DejaVuSans-28"/>
     <use xlink:href="#DejaVuSans-63" transform="translate(39.013672 0)"/>
     <use xlink:href="#DejaVuSans-68" transform="translate(93.994141 0)"/>
     <use xlink:href="#DejaVuSans-61" transform="translate(157.373047 0)"/>
     <use xlink:href="#DejaVuSans-6c" transform="translate(218.652344 0)"/>
     <use xlink:href="#DejaVuSans-6c" transform="translate(246.435547 0)"/>
     <use xlink:href="#DejaVuSans-65" transform="translate(274.21875 0)"/>
     <use xlink:href="#DejaVuSans-6e" transform="translate(335.742188 0)"/>
     <use xlink:href="#DejaVuSans-67" transform="translate(399.121094 0)"/>
     <use xlink:href="#DejaVuSans-65" transform="translate(462.597656 0)"/>
     <use xlink:href="#DejaVuSans-72" transform="translate(524.121094 0)"/>
     <use xlink:href="#DejaVuSans-29" transform="translate(565.234375 0)"/>
    </g>
   </g>
   <g id="patch_9">
    <path d="M 301.990104 126.23075 
Q 301.990104 138.707934 301.990104 151.185118 
" style="fill: none; stroke: #808080; stroke-width: 0.7; stroke-linecap: round"/>
   </g>
   <g id="text_15">
    <!-- Day 21 -->
    <g transform="translate(286.838854 101.429844) scale(0.085 -0.085)">
     <use xlink:href="#DejaVuSans-44"/>
     <use xlink:href="#DejaVuSans-61" transform="translate(77.001953 0)"/>
     <use xlink:href="#DejaVuSans-79" transform="translate(138.28125 0)"/>
     <use xlink:href="#DejaVuSans-20" transform="translate(197.460938 0)"/>
     <use xlink:href="#DejaVuSans-32" transform="translate(229.248047 0)"/>
     <use xlink:href="#DejaVuSans-31" transform="translate(292.871094 0)"/>
    </g>
    <!-- Shadow test: v5 predictions logged -->
    <g transform="translate(226.978932 110.947984) scale(0.085 -0.085)">
     <defs>
      <path id="DejaVuSans-77" d="M 269 3500 
L 844 3500 
L 1563 769 
L 2278 3500 
L 2956 3500 
L 3675 769 
L 4391 3500 
L 4966 3500 
L 4050 0 
L 3372 0 
L 2619 2869 
L 1863 0 
L 1184 0 
L 269 3500 
z
" transform="scale(0.015625)"/>
      <path id="DejaVuSans-73" d="M 2834 3397 
L 2834 2853 
Q 2591 2978 2328 3040 
Q 2066 3103 1784 3103 
Q 1356 3103 1142 2972 
Q 928 2841 928 2578 
Q 928 2378 1081 2264 
Q 1234 2150 1697 2047 
L 1894 2003 
Q 2506 1872 2764 1633 
Q 3022 1394 3022 966 
Q 3022 478 2636 193 
Q 2250 -91 1575 -91 
Q 1294 -91 989 -36 
Q 684 19 347 128 
L 347 722 
Q 666 556 975 473 
Q 1284 391 1588 391 
Q 1994 391 2212 530 
Q 2431 669 2431 922 
Q 2431 1156 2273 1281 
Q 2116 1406 1581 1522 
L 1381 1569 
Q 847 1681 609 1914 
Q 372 2147 372 2553 
Q 372 3047 722 3315 
Q 1072 3584 1716 3584 
Q 2034 3584 2315 3537 
Q 2597 3491 2834 3397 
z
" transform="scale(0.015625)"/>
      <path id="DejaVuSans-3a" d="M 750 794 
L 1409 794 
L 1409 0 
L 750 0 
L 750 794 
z
M 750 3309 
L 1409 3309 
L 1409 2516 
L 750 2516 
L 750 3309 
z
" transform="scale(0.015625)"/>
     </defs>
     <use xlink:href="#DejaVuSans-53"/>
     <use xlink:href="#DejaVuSans-68" transform="translate(63.476562 0)"/>
     <use xlink:href="#DejaVuSans-61" transform="translate(126.855469 0)"/>
     <use xlink:href="#DejaVuSans-64" transform="translate(188.134766 0)"/>
     <use xlink:href="#DejaVuSans-6f" transform="translate(251.611328 0)"/>
     <use xlink:href="#DejaVuSans-77" transform="translate(312.792969 0)"/>
     <use xlink:href="#DejaVuSans-20" transform="translate(394.580078 0)"/>
     <use xlink:href="#DejaVuSans-74" transform="translate(426.367188 0)"/>
     <use xlink:href="#DejaVuSans-65" transform="translate(465.576172 0)"/>
     <use xlink:href="#DejaVuSans-73" transform="translate(527.099609 0)"/>
     <use xlink:href="#DejaVuSans-74" transform="translate(579.199219 0)"/>
     <use xlink:href="#DejaVuSans-3a" transform="translate(618.408203 0)"/>
     <use xlink:href="#DejaVuSans-20" transform="translate(652.099609 0)"/>
     <use xlink:href="#DejaVuSans-76" transform="translate(683.886719 0)"/>
     <use xlink:href="#DejaVuSans-35" transform="translate(743.066406 0)"/>
     <use xlink:href="#DejaVuSans-20" transform="translate(806.689453 0)"/>
     <use xlink:href="#DejaVuSans-70" transform="translate(838.476562 0)"/>
     <use xlink:href="#DejaVuSans-72" transform="translate(901.953125 0)"/>
     <use xlink:href="#DejaVuSans-65" transform="translate(940.816406 0)"/>
     <use xlink:href="#DejaVuSans-64" transform="translate(1002.339844 0)"/>
     <use xlink:href="#DejaVuSans-69" transform="translate(1065.816406 0)"/>
     <use xlink:href="#DejaVuSans-63" transform="translate(1093.599609 0)"/>
     <use xlink:href="#DejaVuSans-74" transform="translate(1148.580078 0)"/>
     <use xlink:href="#DejaVuSans-69" transform="translate(1187.789062 0)"/>
     <use xlink:href="#DejaVuSans-6f" transform="translate(1215.572266 0)"/>
     <use xlink:href="#DejaVuSans-6e" transform="translate(1276.753906 0)"/>
     <use xlink:href="#DejaVuSans-73" transform="translate(1340.132812 0)"/>
     <use xlink:href="#DejaVuSans-20" transform="translate(1392.232422 0)"/>
     <use xlink:href="#DejaVuSans-6c" transform="translate(1424.019531 0)"/>
     <use xlink:href="#DejaVuSans-6f" transform="translate(1451.802734 0)"/>
     <use xlink:href="#DejaVuSans-67" transform="translate(1512.984375 0)"/>
     <use xlink:href="#DejaVuSans-67" transform="translate(1576.460938 0)"/>
     <use xlink:href="#DejaVuSans-65" transform="translate(1639.9375 0)"/>
     <use xlink:href="#DejaVuSans-64" transform="translate(1701.460938 0)"/>
    </g>
    <!-- but not served -->
    <g transform="translate(270.866159 120.466125) scale(0.085 -0.085)">
     <defs>
      <path id="DejaVuSans-62" d="M 3116 1747 
Q 3116 2381 2855 2742 
Q 2594 3103 2138 3103 
Q 1681 3103 1420 2742 
Q 1159 2381 1159 1747 
Q 1159 1113 1420 752 
Q 1681 391 2138 391 
Q 2594 391 2855 752 
Q 3116 1113 3116 1747 
z
M 1159 2969 
Q 1341 3281 1617 3432 
Q 1894 3584 2278 3584 
Q 2916 3584 3314 3078 
Q 3713 2572 3713 1747 
Q 3713 922 3314 415 
Q 2916 -91 2278 -91 
Q 1894 -91 1617 61 
Q 1341 213 1159 525 
L 1159 0 
L 581 0 
L 581 4863 
L 1159 4863 
L 1159 2969 
z
" transform="scale(0.015625)"/>
     </defs>
     <use xlink:href="#DejaVuSans-62"/>
     <use xlink:href="#DejaVuSans-75" transform="translate(63.476562 0)"/>
     <use xlink:href="#DejaVuSans-74" transform="translate(126.855469 0)"/>
     <use xlink:href="#DejaVuSans-20" transform="translate(166.064453 0)"/>
     <use xlink:href="#DejaVuSans-6e" transform="translate(197.851562 0)"/>
     <use xlink:href="#DejaVuSans-6f" transform="translate(261.230469 0)"/>
     <use xlink:href="#DejaVuSans-74" transform="translate(322.412109 0)"/>
     <use xlink:href="#DejaVuSans-20" transform="translate(361.621094 0)"/>
     <use xlink:href="#DejaVuSans-73" transform="translate(393.408203 0)"/>
     <use xlink:href="#DejaVuSans-65" transform="translate(445.507812 0)"/>
     <use xlink:href="#DejaVuSans-72" transform="translate(507.03125 0)"/>
     <use xlink:href="#DejaVuSans-76" transform="translate(548.144531 0)"/>
     <use xlink:href="#DejaVuSans-65" transform="translate(607.324219 0)"/>
     <use xlink:href="#DejaVuSans-64" transform="translate(668.847656 0)"/>
    </g>
   </g>
   <g id="patch_10">
    <path d="M 389.961979 93.522944 
Q 389.961979 105.993046 389.961979 118.463147 
" style="fill: none; stroke: #808080; stroke-width: 0.7; stroke-linecap: round"/>
   </g>
   <g id="text_16">
    <!-- Day 28 -->
    <g transform="translate(374.810729 78.231984) scale(0.085 -0.085)">
     <use xlink:href="#DejaVuSans-44"/>
     <use xlink:href="#DejaVuSans-61" transform="translate(77.001953 0)"/>
     <use xlink:href="#DejaVuSans-79" transform="translate(138.28125 0)"/>
     <use xlink:href="#DejaVuSans-20" transform="translate(197.460938 0)"/>
     <use xlink:href="#DejaVuSans-32" transform="translate(229.248047 0)"/>
     <use xlink:href="#DejaVuSans-38" transform="translate(292.871094 0)"/>
    </g>
    <!-- Canary rollout: 5% traffic → v5 -->
    <g transform="translate(325.019987 87.750125) scale(0.085 -0.085)">
     <defs>
      <path id="DejaVuSans-25" d="M 4653 2053 
Q 4381 2053 4226 1822 
Q 4072 1591 4072 1178 
Q 4072 772 4226 539 
Q 4381 306 4653 306 
Q 4919 306 5073 539 
Q 5228 772 5228 1178 
Q 5228 1588 5073 1820 
Q 4919 2053 4653 2053 
z
M 4653 2450 
Q 5147 2450 5437 2106 
Q 5728 1763 5728 1178 
Q 5728 594 5436 251 
Q 5144 -91 4653 -91 
Q 4153 -91 3862 251 
Q 3572 594 3572 1178 
Q 3572 1766 3864 2108 
Q 4156 2450 4653 2450 
z
M 1428 4353 
Q 1159 4353 1004 4120 
Q 850 3888 850 3481 
Q 850 3069 1003 2837 
Q 1156 2606 1428 2606 
Q 1700 2606 1854 2837 
Q 2009 3069 2009 3481 
Q 2009 3884 1853 4118 
Q 1697 4353 1428 4353 
z
M 4250 4750 
L 4750 4750 
L 1831 -91 
L 1331 -91 
L 4250 4750 
z
M 1428 4750 
Q 1922 4750 2215 4408 
Q 2509 4066 2509 3481 
Q 2509 2891 2217 2550 
Q 1925 2209 1428 2209 
Q 931 2209 642 2551 
Q 353 2894 353 3481 
Q 353 4063 643 4406 
Q 934 4750 1428 4750 
z
" transform="scale(0.015625)"/>
      <path id="DejaVuSans-66" d="M 2375 4863 
L 2375 4384 
L 1825 4384 
Q 1516 4384 1395 4259 
Q 1275 4134 1275 3809 
L 1275 3500 
L 2222 3500 
L 2222 3053 
L 1275 3053 
L 1275 0 
L 697 0 
L 697 3053 
L 147 3053 
L 147 3500 
L 697 3500 
L 697 3744 
Q 697 4328 969 4595 
Q 1241 4863 1831 4863 
L 2375 4863 
z
" transform="scale(0.015625)"/>
     </defs>
     <use xlink:href="#DejaVuSans-43"/>
     <use xlink:href="#DejaVuSans-61" transform="translate(69.824219 0)"/>
     <use xlink:href="#DejaVuSans-6e" transform="translate(131.103516 0)"/>
     <use xlink:href="#DejaVuSans-61" transform="translate(194.482422 0)"/>
     <use xlink:href="#DejaVuSans-72" transform="translate(255.761719 0)"/>
     <use xlink:href="#DejaVuSans-79" transform="translate(296.875 0)"/>
     <use xlink:href="#DejaVuSans-20" transform="translate(356.054688 0)"/>
     <use xlink:href="#DejaVuSans-72" transform="translate(387.841797 0)"/>
     <use xlink:href="#DejaVuSans-6f" transform="translate(426.705078 0)"/>
     <use xlink:href="#DejaVuSans-6c" transform="translate(487.886719 0)"/>
     <use xlink:href="#DejaVuSans-6c" transform="translate(515.669922 0)"/>
     <use xlink:href="#DejaVuSans-6f" transform="translate(543.453125 0)"/>
     <use xlink:href="#DejaVuSans-75" transform="translate(604.634766 0)"/>
     <use xlink:href="#DejaVuSans-74" transform="translate(668.013672 0)"/>
     <use xlink:href="#DejaVuSans-3a" transform="translate(707.222656 0)"/>
     <use xlink:href="#DejaVuSans-20" transform="translate(740.914062 0)"/>
     <use xlink:href="#DejaVuSans-35" transform="translate(772.701172 0)"/>
     <use xlink:href="#DejaVuSans-25" transform="translate(836.324219 0)"/>
     <use xlink:href="#DejaVuSans-20" transform="translate(931.34375 0)"/>
     <use xlink:href="#DejaVuSans-74" transform="translate(963.130859 0)"/>
     <use xlink:href="#DejaVuSans-72" transform="translate(1002.339844 0)"/>
     <use xlink:href="#DejaVuSans-61" transform="translate(1043.453125 0)"/>
     <use xlink:href="#DejaVuSans-66" transform="translate(1104.732422 0)"/>
     <use xlink:href="#DejaVuSans-66" transform="translate(1139.9375 0)"/>
     <use xlink:href="#DejaVuSans-69" transform="translate(1175.142578 0)"/>
     <use xlink:href="#DejaVuSans-63" transform="translate(1202.925781 0)"/>
     <use xlink:href="#DejaVuSans-20" transform="translate(1257.90625 0)"/>
     <use xlink:href="#DejaVuSans-2192" transform="translate(1289.693359 0)"/>
     <use xlink:href="#DejaVuSans-20" transform="translate(1373.482422 0)"/>
     <use xlink:href="#DejaVuSans-76" transform="translate(1405.269531 0)"/>
     <use xlink:href="#DejaVuSans-35" transform="translate(1464.449219 0)"/>
    </g>
   </g>
   <g id="patch_11">
    <path d="M 477.933854 93.51475 
Q 477.933854 105.991934 477.933854 118.469118 
" style="fill: none; stroke: #808080; stroke-width: 0.7; stroke-linecap: round"/>
   </g>
   <g id="text_17">
    <!-- Day 30 -->
    <g transform="translate(462.782604 68.713844) scale(0.085 -0.085)">
     <defs>
      <path id="DejaVuSans-33" d="M 2597 2516 
Q 3050 2419 3304 2112 
Q 3559 1806 3559 1356 
Q 3559 666 3084 287 
Q 2609 -91 1734 -91 
Q 1441 -91 1130 -33 
Q 819 25 488 141 
L 488 750 
Q 750 597 1062 519 
Q 1375 441 1716 441 
Q 2309 441 2620 675 
Q 2931 909 2931 1356 
Q 2931 1769 2642 2001 
Q 2353 2234 1838 2234 
L 1294 2234 
L 1294 2753 
L 1863 2753 
Q 2328 2753 2575 2939 
Q 2822 3125 2822 3475 
Q 2822 3834 2567 4026 
Q 2313 4219 1838 4219 
Q 1578 4219 1281 4162 
Q 984 4106 628 3988 
L 628 4550 
Q 988 4650 1302 4700 
Q 1616 4750 1894 4750 
Q 2613 4750 3031 4423 
Q 3450 4097 3450 3541 
Q 3450 3153 3228 2886 
Q 3006 2619 2597 2516 
z
" transform="scale(0.015625)"/>
     </defs>
     <use xlink:href="#DejaVuSans-44"/>
     <use xlink:href="#DejaVuSans-61" transform="translate(77.001953 0)"/>
     <use xlink:href="#DejaVuSans-79" transform="translate(138.28125 0)"/>
     <use xlink:href="#DejaVuSans-20" transform="translate(197.460938 0)"/>
     <use xlink:href="#DejaVuSans-33" transform="translate(229.248047 0)"/>
     <use xlink:href="#DejaVuSans-30" transform="translate(292.871094 0)"/>
    </g>
    <!-- v5 metric drop detected -->
    <g transform="translate(426.417878 78.231984) scale(0.085 -0.085)">
     <use xlink:href="#DejaVuSans-76"/>
     <use xlink:href="#DejaVuSans-35" transform="translate(59.179688 0)"/>
     <use xlink:href="#DejaVuSans-20" transform="translate(122.802734 0)"/>
     <use xlink:href="#DejaVuSans-6d" transform="translate(154.589844 0)"/>
     <use xlink:href="#DejaVuSans-65" transform="translate(252.001953 0)"/>
     <use xlink:href="#DejaVuSans-74" transform="translate(313.525391 0)"/>
     <use xlink:href="#DejaVuSans-72" transform="translate(352.734375 0)"/>
     <use xlink:href="#DejaVuSans-69" transform="translate(393.847656 0)"/>
     <use xlink:href="#DejaVuSans-63" transform="translate(421.630859 0)"/>
     <use xlink:href="#DejaVuSans-20" transform="translate(476.611328 0)"/>
     <use xlink:href="#DejaVuSans-64" transform="translate(508.398438 0)"/>
     <use xlink:href="#DejaVuSans-72" transform="translate(571.875 0)"/>
     <use xlink:href="#DejaVuSans-6f" transform="translate(610.738281 0)"/>
     <use xlink:href="#DejaVuSans-70" transform="translate(671.919922 0)"/>
     <use xlink:href="#DejaVuSans-20" transform="translate(735.396484 0)"/>
     <use xlink:href="#DejaVuSans-64" transform="translate(767.183594 0)"/>
     <use xlink:href="#DejaVuSans-65" transform="translate(830.660156 0)"/>
     <use xlink:href="#DejaVuSans-74" transform="translate(892.183594 0)"/>
     <use xlink:href="#DejaVuSans-65" transform="translate(931.392578 0)"/>
     <use xlink:href="#DejaVuSans-63" transform="translate(992.916016 0)"/>
     <use xlink:href="#DejaVuSans-74" transform="translate(1047.896484 0)"/>
     <use xlink:href="#DejaVuSans-65" transform="translate(1087.105469 0)"/>
     <use xlink:href="#DejaVuSans-64" transform="translate(1148.628906 0)"/>
    </g>
    <!-- (f1 0.88 → 0.84) -->
    <g transform="translate(443.878073 87.750125) scale(0.085 -0.085)">
     <defs>
      <path id="DejaVuSans-2e" d="M 684 794 
L 1344 794 
L 1344 0 
L 684 0 
L 684 794 
z
" transform="scale(0.015625)"/>
     </defs>
     <use xlink:href="#DejaVuSans-28"/>
     <use xlink:href="#DejaVuSans-66" transform="translate(39.013672 0)"/>
     <use xlink:href="#DejaVuSans-31" transform="translate(74.21875 0)"/>
     <use xlink:href="#DejaVuSans-20" transform="translate(137.841797 0)"/>
     <use xlink:href="#DejaVuSans-30" transform="translate(169.628906 0)"/>
     <use xlink:href="#DejaVuSans-2e" transform="translate(233.251953 0)"/>
     <use xlink:href="#DejaVuSans-38" transform="translate(265.039062 0)"/>
     <use xlink:href="#DejaVuSans-38" transform="translate(328.662109 0)"/>
     <use xlink:href="#DejaVuSans-20" transform="translate(392.285156 0)"/>
     <use xlink:href="#DejaVuSans-2192" transform="translate(424.072266 0)"/>
     <use xlink:href="#DejaVuSans-20" transform="translate(507.861328 0)"/>
     <use xlink:href="#DejaVuSans-30" transform="translate(539.648438 0)"/>
     <use xlink:href="#DejaVuSans-2e" transform="translate(603.271484 0)"/>
     <use xlink:href="#DejaVuSans-38" transform="translate(635.058594 0)"/>
     <use xlink:href="#DejaVuSans-34" transform="translate(698.681641 0)"/>
     <use xlink:href="#DejaVuSans-29" transform="translate(762.304688 0)"/>
    </g>
   </g>
   <g id="patch_12">
    <path d="M 565.905729 191.670944 
Q 565.905729 204.141046 565.905729 216.611147 
" style="fill: none; stroke: #808080; stroke-width: 0.7; stroke-linecap: round"/>
   </g>
   <g id="text_18">
    <!-- Day 30 -->
    <g transform="translate(550.754479 176.379984) scale(0.085 -0.085)">
     <use xlink:href="#DejaVuSans-44"/>
     <use xlink:href="#DejaVuSans-61" transform="translate(77.001953 0)"/>
     <use xlink:href="#DejaVuSans-79" transform="translate(138.28125 0)"/>
     <use xlink:href="#DejaVuSans-20" transform="translate(197.460938 0)"/>
     <use xlink:href="#DejaVuSans-33" transform="translate(229.248047 0)"/>
     <use xlink:href="#DejaVuSans-30" transform="translate(292.871094 0)"/>
    </g>
    <!-- Rollback: traffic → v4 (1 click) -->
    <g transform="translate(503.071471 185.898125) scale(0.085 -0.085)">
     <defs>
      <path id="DejaVuSans-52" d="M 2841 2188 
Q 3044 2119 3236 1894 
Q 3428 1669 3622 1275 
L 4263 0 
L 3584 0 
L 2988 1197 
Q 2756 1666 2539 1819 
Q 2322 1972 1947 1972 
L 1259 1972 
L 1259 0 
L 628 0 
L 628 4666 
L 2053 4666 
Q 2853 4666 3247 4331 
Q 3641 3997 3641 3322 
Q 3641 2881 3436 2590 
Q 3231 2300 2841 2188 
z
M 1259 4147 
L 1259 2491 
L 2053 2491 
Q 2509 2491 2742 2702 
Q 2975 2913 2975 3322 
Q 2975 3731 2742 3939 
Q 2509 4147 2053 4147 
L 1259 4147 
z
" transform="scale(0.015625)"/>
      <path id="DejaVuSans-6b" d="M 581 4863 
L 1159 4863 
L 1159 1991 
L 2875 3500 
L 3609 3500 
L 1753 1863 
L 3688 0 
L 2938 0 
L 1159 1709 
L 1159 0 
L 581 0 
L 581 4863 
z
" transform="scale(0.015625)"/>
     </defs>
     <use xlink:href="#DejaVuSans-52"/>
     <use xlink:href="#DejaVuSans-6f" transform="translate(64.982422 0)"/>
     <use xlink:href="#DejaVuSans-6c" transform="translate(126.164062 0)"/>
     <use xlink:href="#DejaVuSans-6c" transform="translate(153.947266 0)"/>
     <use xlink:href="#DejaVuSans-62" transform="translate(181.730469 0)"/>
     <use xlink:href="#DejaVuSans-61" transform="translate(245.207031 0)"/>
     <use xlink:href="#DejaVuSans-63" transform="translate(306.486328 0)"/>
     <use xlink:href="#DejaVuSans-6b" transform="translate(361.466797 0)"/>
     <use xlink:href="#DejaVuSans-3a" transform="translate(419.376953 0)"/>
     <use xlink:href="#DejaVuSans-20" transform="translate(453.068359 0)"/>
     <use xlink:href="#DejaVuSans-74" transform="translate(484.855469 0)"/>
     <use xlink:href="#DejaVuSans-72" transform="translate(524.064453 0)"/>
     <use xlink:href="#DejaVuSans-61" transform="translate(565.177734 0)"/>
     <use xlink:href="#DejaVuSans-66" transform="translate(626.457031 0)"/>
     <use xlink:href="#DejaVuSans-66" transform="translate(661.662109 0)"/>
     <use xlink:href="#DejaVuSans-69" transform="translate(696.867188 0)"/>
     <use xlink:href="#DejaVuSans-63" transform="translate(724.650391 0)"/>
     <use xlink:href="#DejaVuSans-20" transform="translate(779.630859 0)"/>
     <use xlink:href="#DejaVuSans-2192" transform="translate(811.417969 0)"/>
     <use xlink:href="#DejaVuSans-20" transform="translate(895.207031 0)"/>
     <use xlink:href="#DejaVuSans-76" transform="translate(926.994141 0)"/>
     <use xlink:href="#DejaVuSans-34" transform="translate(986.173828 0)"/>
     <use xlink:href="#DejaVuSans-20" transform="translate(1049.796875 0)"/>
     <use xlink:href="#DejaVuSans-28" transform="translate(1081.583984 0)"/>
     <use xlink:href="#DejaVuSans-31" transform="translate(1120.597656 0)"/>
     <use xlink:href="#DejaVuSans-20" transform="translate(1184.220703 0)"/>
     <use xlink:href="#DejaVuSans-63" transform="translate(1216.007812 0)"/>
     <use xlink:href="#DejaVuSans-6c" transform="translate(1270.988281 0)"/>
     <use xlink:href="#DejaVuSans-69" transform="translate(1298.771484 0)"/>
     <use xlink:href="#DejaVuSans-63" transform="translate(1326.554688 0)"/>
     <use xlink:href="#DejaVuSans-6b" transform="translate(1381.535156 0)"/>
     <use xlink:href="#DejaVuSans-29" transform="translate(1439.445312 0)"/>
    </g>
   </g>
   <g id="patch_13">
    <path d="M 653.877604 296.789724 
Q 653.877604 291.418185 653.877604 286.046646 
" style="fill: none; stroke: #808080; stroke-width: 0.7; stroke-linecap: round"/>
   </g>
   <g id="text_19">
    <!-- Day 30 -->
    <g transform="translate(638.726354 307.243984) scale(0.085 -0.085)">
     <use xlink:href="#DejaVuSans-44"/>
     <use xlink:href="#DejaVuSans-61" transform="translate(77.001953 0)"/>
     <use xlink:href="#DejaVuSans-79" transform="translate(138.28125 0)"/>
     <use xlink:href="#DejaVuSans-20" transform="translate(197.460938 0)"/>
     <use xlink:href="#DejaVuSans-33" transform="translate(229.248047 0)"/>
     <use xlink:href="#DejaVuSans-30" transform="translate(292.871094 0)"/>
    </g>
    <!-- v5 status: Archived -->
    <g transform="translate(612.868424 316.762125) scale(0.085 -0.085)">
     <use xlink:href="#DejaVuSans-76"/>
     <use xlink:href="#DejaVuSans-35" transform="translate(59.179688 0)"/>
     <use xlink:href="#DejaVuSans-20" transform="translate(122.802734 0)"/>
     <use xlink:href="#DejaVuSans-73" transform="translate(154.589844 0)"/>
     <use xlink:href="#DejaVuSans-74" transform="translate(206.689453 0)"/>
     <use xlink:href="#DejaVuSans-61" transform="translate(245.898438 0)"/>
     <use xlink:href="#DejaVuSans-74" transform="translate(307.177734 0)"/>
     <use xlink:href="#DejaVuSans-75" transform="translate(346.386719 0)"/>
     <use xlink:href="#DejaVuSans-73" transform="translate(409.765625 0)"/>
     <use xlink:href="#DejaVuSans-3a" transform="translate(461.865234 0)"/>
     <use xlink:href="#DejaVuSans-20" transform="translate(495.556641 0)"/>
     <use xlink:href="#DejaVuSans-41" transform="translate(527.34375 0)"/>
     <use xlink:href="#DejaVuSans-72" transform="translate(595.751953 0)"/>
     <use xlink:href="#DejaVuSans-63" transform="translate(634.615234 0)"/>
     <use xlink:href="#DejaVuSans-68" transform="translate(689.595703 0)"/>
     <use xlink:href="#DejaVuSans-69" transform="translate(752.974609 0)"/>
     <use xlink:href="#DejaVuSans-76" transform="translate(780.757812 0)"/>
     <use xlink:href="#DejaVuSans-65" transform="translate(839.9375 0)"/>
     <use xlink:href="#DejaVuSans-64" transform="translate(901.460938 0)"/>
    </g>
   </g>
   <g id="text_20">
    <!-- Champion-Challenger pattern: registry enables 1-click rollback -->
    <g transform="translate(231.1475 16.318125) scale(0.12 -0.12)">
     <defs>
      <path id="DejaVuSans-2d" d="M 313 2009 
L 1997 2009 
L 1997 1497 
L 313 1497 
L 313 2009 
z
" transform="scale(0.015625)"/>
     </defs>
     <use xlink:href="#DejaVuSans-43"/>
     <use xlink:href="#DejaVuSans-68" transform="translate(69.824219 0)"/>
     <use xlink:href="#DejaVuSans-61" transform="translate(133.203125 0)"/>
     <use xlink:href="#DejaVuSans-6d" transform="translate(194.482422 0)"/>
     <use xlink:href="#DejaVuSans-70" transform="translate(291.894531 0)"/>
     <use xlink:href="#DejaVuSans-69" transform="translate(355.371094 0)"/>
     <use xlink:href="#DejaVuSans-6f" transform="translate(383.154297 0)"/>
     <use xlink:href="#DejaVuSans-6e" transform="translate(444.335938 0)"/>
     <use xlink:href="#DejaVuSans-2d" transform="translate(507.714844 0)"/>
     <use xlink:href="#DejaVuSans-43" transform="translate(543.798828 0)"/>
     <use xlink:href="#DejaVuSans-68" transform="translate(613.623047 0)"/>
     <use xlink:href="#DejaVuSans-61" transform="translate(677.001953 0)"/>
     <use xlink:href="#DejaVuSans-6c" transform="translate(738.28125 0)"/>
     <use xlink:href="#DejaVuSans-6c" transform="translate(766.064453 0)"/>
     <use xlink:href="#DejaVuSans-65" transform="translate(793.847656 0)"/>
     <use xlink:href="#DejaVuSans-6e" transform="translate(855.371094 0)"/>
     <use xlink:href="#DejaVuSans-67" transform="translate(918.75 0)"/>
     <use xlink:href="#DejaVuSans-65" transform="translate(982.226562 0)"/>
     <use xlink:href="#DejaVuSans-72" transform="translate(1043.75 0)"/>
     <use xlink:href="#DejaVuSans-20" transform="translate(1084.863281 0)"/>
     <use xlink:href="#DejaVuSans-70" transform="translate(1116.650391 0)"/>
     <use xlink:href="#DejaVuSans-61" transform="translate(1180.126953 0)"/>
     <use xlink:href="#DejaVuSans-74" transform="translate(1241.40625 0)"/>
     <use xlink:href="#DejaVuSans-74" transform="translate(1280.615234 0)"/>
     <use xlink:href="#DejaVuSans-65" transform="translate(1319.824219 0)"/>
     <use xlink:href="#DejaVuSans-72" transform="translate(1381.347656 0)"/>
     <use xlink:href="#DejaVuSans-6e" transform="translate(1420.710938 0)"/>
     <use xlink:href="#DejaVuSans-3a" transform="translate(1484.089844 0)"/>
     <use xlink:href="#DejaVuSans-20" transform="translate(1517.78125 0)"/>
     <use xlink:href="#DejaVuSans-72" transform="translate(1549.568359 0)"/>
     <use xlink:href="#DejaVuSans-65" transform="translate(1588.431641 0)"/>
     <use xlink:href="#DejaVuSans-67" transform="translate(1649.955078 0)"/>
     <use xlink:href="#DejaVuSans-69" transform="translate(1713.431641 0)"/>
     <use xlink:href="#DejaVuSans-73" transform="translate(1741.214844 0)"/>
     <use xlink:href="#DejaVuSans-74" transform="translate(1793.314453 0)"/>
     <use xlink:href="#DejaVuSans-72" transform="translate(1832.523438 0)"/>
     <use xlink:href="#DejaVuSans-79" transform="translate(1873.636719 0)"/>
     <use xlink:href="#DejaVuSans-20" transform="translate(1932.816406 0)"/>
     <use xlink:href="#DejaVuSans-65" transform="translate(1964.603516 0)"/>
     <use xlink:href="#DejaVuSans-6e" transform="translate(2026.126953 0)"/>
     <use xlink:href="#DejaVuSans-61" transform="translate(2089.505859 0)"/>
     <use xlink:href="#DejaVuSans-62" transform="translate(2150.785156 0)"/>
     <use xlink:href="#DejaVuSans-6c" transform="translate(2214.261719 0)"/>
     <use xlink:href="#DejaVuSans-65" transform="translate(2242.044922 0)"/>
     <use xlink:href="#DejaVuSans-73" transform="translate(2303.568359 0)"/>
     <use xlink:href="#DejaVuSans-20" transform="translate(2355.667969 0)"/>
     <use xlink:href="#DejaVuSans-31" transform="translate(2387.455078 0)"/>
     <use xlink:href="#DejaVuSans-2d" transform="translate(2451.078125 0)"/>
     <use xlink:href="#DejaVuSans-63" transform="translate(2487.162109 0)"/>
     <use xlink:href="#DejaVuSans-6c" transform="translate(2542.142578 0)"/>
     <use xlink:href="#DejaVuSans-69" transform="translate(2569.925781 0)"/>
     <use xlink:href="#DejaVuSans-63" transform="translate(2597.708984 0)"/>
     <use xlink:href="#DejaVuSans-6b" transform="translate(2652.689453 0)"/>
     <use xlink:href="#DejaVuSans-20" transform="translate(2710.599609 0)"/>
     <use xlink:href="#DejaVuSans-72" transform="translate(2742.386719 0)"/>
     <use xlink:href="#DejaVuSans-6f" transform="translate(2781.25 0)"/>
     <use xlink:href="#DejaVuSans-6c" transform="translate(2842.431641 0)"/>
     <use xlink:href="#DejaVuSans-6c" transform="translate(2870.214844 0)"/>
     <use xlink:href="#DejaVuSans-62" transform="translate(2897.998047 0)"/>
     <use xlink:href="#DejaVuSans-61" transform="translate(2961.474609 0)"/>
     <use xlink:href="#DejaVuSans-63" transform="translate(3022.753906 0)"/>
     <use xlink:href="#DejaVuSans-6b" transform="translate(3077.734375 0)"/>
    </g>
   </g>
   <g id="PathCollection_1">
    <defs>
     <path id="mc5420b9dd3" d="M 0 10 
C 2.652031 10 5.195799 8.946337 7.071068 7.071068 
C 8.946337 5.195799 10 2.652031 10 0 
C 10 -2.652031 8.946337 -5.195799 7.071068 -7.071068 
C 5.195799 -8.946337 2.652031 -10 0 -10 
C -2.652031 -10 -5.195799 -8.946337 -7.071068 -7.071068 
C -8.946337 -5.195799 -10 -2.652031 -10 0 
C -10 2.652031 -8.946337 5.195799 -7.071068 7.071068 
C -5.195799 8.946337 -2.652031 10 0 10 
z
" style="stroke: #000000"/>
    </defs>
    <g clip-path="url(#pfc98380465)">
     <use xlink:href="#mc5420b9dd3" x="126.046354" y="218.614125" style="fill: #59a14f; stroke: #000000"/>
    </g>
   </g>
   <g id="PathCollection_2">
    <defs>
     <path id="m3ca4300a46" d="M 0 10 
C 2.652031 10 5.195799 8.946337 7.071068 7.071068 
C 8.946337 5.195799 10 2.652031 10 0 
C 10 -2.652031 8.946337 -5.195799 7.071068 -7.071068 
C 5.195799 -8.946337 2.652031 -10 0 -10 
C -2.652031 -10 -5.195799 -8.946337 -7.071068 -7.071068 
C -8.946337 -5.195799 -10 -2.652031 -10 0 
C -10 2.652031 -8.946337 5.195799 -7.071068 7.071068 
C -5.195799 8.946337 -2.652031 10 0 10 
z
" style="stroke: #000000"/>
    </defs>
    <g clip-path="url(#pfc98380465)">
     <use xlink:href="#m3ca4300a46" x="214.018229" y="153.182125" style="fill: #f28e2b; stroke: #000000"/>
    </g>
   </g>
   <g id="PathCollection_3">
    <defs>
     <path id="m0ada350a4b" d="M 0 10 
C 2.652031 10 5.195799 8.946337 7.071068 7.071068 
C 8.946337 5.195799 10 2.652031 10 0 
C 10 -2.652031 8.946337 -5.195799 7.071068 -7.071068 
C 5.195799 -8.946337 2.652031 -10 0 -10 
C -2.652031 -10 -5.195799 -8.946337 -7.071068 -7.071068 
C -8.946337 -5.195799 -10 -2.652031 -10 0 
C -10 2.652031 -8.946337 5.195799 -7.071068 7.071068 
C -5.195799 8.946337 -2.652031 10 0 10 
z
" style="stroke: #000000"/>
    </defs>
    <g clip-path="url(#pfc98380465)">
     <use xlink:href="#m0ada350a4b" x="301.990104" y="153.182125" style="fill: #7aa6c2; stroke: #000000"/>
    </g>
   </g>
   <g id="PathCollection_4">
    <g clip-path="url(#pfc98380465)">
     <use xlink:href="#m3ca4300a46" x="389.961979" y="120.466125" style="fill: #f28e2b; stroke: #000000"/>
    </g>
   </g>
   <g id="PathCollection_5">
    <defs>
     <path id="m062fcc688a" d="M 0 10 
C 2.652031 10 5.195799 8.946337 7.071068 7.071068 
C 8.946337 5.195799 10 2.652031 10 0 
C 10 -2.652031 8.946337 -5.195799 7.071068 -7.071068 
C 5.195799 -8.946337 2.652031 -10 0 -10 
C -2.652031 -10 -5.195799 -8.946337 -7.071068 -7.071068 
C -8.946337 -5.195799 -10 -2.652031 -10 0 
C -10 2.652031 -8.946337 5.195799 -7.071068 7.071068 
C -5.195799 8.946337 -2.652031 10 0 10 
z
" style="stroke: #000000"/>
    </defs>
    <g clip-path="url(#pfc98380465)">
     <use xlink:href="#m062fcc688a" x="477.933854" y="120.466125" style="fill: #e15759; stroke: #000000"/>
    </g>
   </g>
   <g id="PathCollection_6">
    <g clip-path="url(#pfc98380465)">
     <use xlink:href="#mc5420b9dd3" x="565.905729" y="218.614125" style="fill: #59a14f; stroke: #000000"/>
    </g>
   </g>
   <g id="PathCollection_7">
    <defs>
     <path id="m4f7cef83ee" d="M 0 10 
C 2.652031 10 5.195799 8.946337 7.071068 7.071068 
C 8.946337 5.195799 10 2.652031 10 0 
C 10 -2.652031 8.946337 -5.195799 7.071068 -7.071068 
C 5.195799 -8.946337 2.652031 -10 0 -10 
C -2.652031 -10 -5.195799 -8.946337 -7.071068 -7.071068 
C -8.946337 -5.195799 -10 -2.652031 -10 0 
C -10 2.652031 -8.946337 5.195799 -7.071068 7.071068 
C -5.195799 8.946337 -2.652031 10 0 10 
z
" style="stroke: #000000"/>
    </defs>
    <g clip-path="url(#pfc98380465)">
     <use xlink:href="#m4f7cef83ee" x="653.877604" y="284.046125" style="fill: #bbbbbb; stroke: #000000"/>
    </g>
   </g>
  </g>
 </g>
 <defs>
  <clipPath id="pfc98380465">
   <rect x="67.398438" y="22.318125" width="703.775" height="327.16"/>
  </clipPath>
 </defs>
</svg>
