<?xml version="1.0" encoding="utf-8" standalone="no"?>
<!DOCTYPE svg PUBLIC "-//W3C//DTD SVG 1.1//EN"
  "http://www.w3.org/Graphics/SVG/1.1/DTD/svg11.dtd">
<svg xmlns:xlink="http://www.w3.org/1999/xlink" width="496.442813pt" height="421.49575pt" viewBox="0 0 496.442813 421.49575" xmlns="http://www.w3.org/2000/svg" version="1.1">
 <metadata>
  <rdf:RDF xmlns:dc="http://purl.org/dc/elements/1.1/" xmlns:cc="http://creativecommons.org/ns#" xmlns:rdf="http://www.w3.org/1999/02/22-rdf-syntax-ns#">
   <cc:Work>
    <dc:type rdf:resource="http://purl.org/dc/dcmitype/StillImage"/>
    <dc:date>2026-05-26T10:49:13.649173</dc:date>
    <dc:format>image/svg+xml</dc:format>
    <dc:creator>
     <cc:Agent>
      <dc:title>Matplotlib v3.10.8, https://matplotlib.org/</dc:title>
     </cc:Agent>
    </dc:creator>
   </cc:Work>
  </rdf:RDF>
 </metadata>
 <defs>
  <style type="text/css">*{stroke-linejoin: round; stroke-linecap: butt}</style>
 </defs>
 <g id="figure_1">
  <g id="patch_1">
   <path d="M -0 421.49575 
L 496.442813 421.49575 
L 496.442813 0 
L -0 0 
z
" style="fill: #ffffff"/>
  </g>
  <g id="axes_1">
   <g id="patch_2">
    <path d="M 48.982813 383.9395 
L 489.242812 383.9395 
L 489.242812 35.7555 
L 48.982813 35.7555 
z
" style="fill: #ffffff"/>
   </g>
   <g id="QuadContourSet_1">
    <path d="M 484.825488 264.056435 
L 486.29793 264.391516 
L 487.770371 264.726596 
L 489.242812 265.061676 
L 489.242812 263.996517 
L 489.242812 262.832022 
L 489.242812 261.667527 
L 489.242812 260.503032 
L 489.242812 259.338537 
L 489.242812 258.174042 
L 489.242812 257.009547 
L 489.242812 255.845052 
L 489.242812 254.680557 
L 489.242812 253.516062 
L 489.242812 252.351567 
L 489.242812 251.187072 
L 489.242812 250.022577 
L 489.242812 248.858082 
L 489.242812 247.693587 
L 489.242812 246.529092 
L 489.242812 245.364597 
L 489.242812 244.200102 
L 489.242812 243.035607 
L 489.242812 241.871112 
L 489.242812 240.706617 
L 489.242812 239.542122 
L 489.242812 238.377627 
L 489.242812 237.213132 
L 489.242812 236.048637 
L 489.242812 234.884142 
L 489.242812 233.719647 
L 489.242812 232.555152 
L 489.242812 231.390657 
L 489.242812 230.226162 
L 489.242812 229.061667 
L 489.242812 227.897172 
L 489.242812 226.732677 
L 489.242812 225.568182 
L 489.242812 224.403687 
L 489.242812 223.239192 
L 489.242812 222.074697 
L 489.242812 220.910202 
L 489.242812 219.745707 
L 489.242812 218.581212 
L 489.242812 217.416717 
L 489.242812 216.252222 
L 489.242812 215.087727 
L 489.242812 213.923232 
L 489.242812 212.758737 
L 489.242812 211.594242 
L 489.242812 210.429747 
L 489.242812 209.265253 
L 489.242812 208.100758 
L 489.242812 206.936263 
L 489.242812 205.771768 
L 489.242812 204.607273 
L 489.242812 203.442778 
L 489.242812 202.278283 
L 489.242812 201.113788 
L 489.242812 199.949293 
L 489.242812 198.784798 
L 489.242812 197.620303 
L 489.242812 196.455808 
L 489.242812 195.291313 
L 489.242812 194.126818 
L 489.242812 192.962323 
L 489.242812 191.797828 
L 489.242812 190.633333 
L 489.242812 189.468838 
L 489.242812 188.304343 
L 489.242812 187.139848 
L 489.242812 185.975353 
L 489.242812 184.810858 
L 489.242812 183.646363 
L 489.242812 182.481868 
L 489.242812 181.317373 
L 489.242812 180.152878 
L 489.242812 178.988383 
L 489.242812 177.823888 
L 489.242812 176.659393 
L 489.242812 175.494898 
L 489.242812 174.330403 
L 489.242812 173.165908 
L 489.242812 172.001413 
L 489.242812 170.836918 
L 489.242812 169.672423 
L 489.242812 168.507928 
L 489.242812 167.343433 
L 489.242812 166.178938 
L 489.242812 165.014443 
L 489.242812 163.849948 
L 489.242812 162.685453 
L 489.242812 161.520958 
L 489.242812 160.356463 
L 489.242812 159.191968 
L 489.242812 158.027473 
L 489.242812 156.862978 
L 489.242812 155.698483 
L 489.242812 154.533988 
L 489.242812 153.369493 
L 489.242812 152.204998 
L 489.242812 151.040503 
L 489.242812 149.876008 
L 489.242812 148.711513 
L 489.242812 147.547018 
L 489.242812 146.382523 
L 489.242812 145.218028 
L 489.242812 144.053533 
L 489.242812 142.889038 
L 489.242812 141.724543 
L 489.242812 140.560048 
L 489.242812 139.395554 
L 489.242812 138.231059 
L 489.242812 137.066564 
L 489.242812 135.902069 
L 489.242812 134.737574 
L 489.242812 133.573079 
L 489.242812 132.408584 
L 489.242812 131.244089 
L 489.242812 130.079594 
L 489.242812 128.915099 
L 489.242812 127.750604 
L 489.242812 126.586109 
L 489.242812 125.421614 
L 489.242812 124.257119 
L 489.242812 123.092624 
L 489.242812 121.928129 
L 489.242812 120.763634 
L 489.242812 119.599139 
L 489.242812 118.434644 
L 489.242812 117.270149 
L 489.242812 116.105654 
L 489.242812 114.941159 
L 489.242812 113.776664 
L 489.242812 112.612169 
L 489.242812 111.447674 
L 489.242812 110.283179 
L 489.242812 109.118684 
L 489.242812 107.954189 
L 489.242812 106.789694 
L 489.242812 105.625199 
L 489.242812 104.460704 
L 489.242812 103.296209 
L 489.242812 102.131714 
L 489.242812 100.967219 
L 489.242812 99.802724 
L 489.242812 98.638229 
L 489.242812 97.473734 
L 489.242812 96.309239 
L 489.242812 95.144744 
L 489.242812 93.980249 
L 489.242812 92.815754 
L 489.242812 91.651259 
L 489.242812 90.486764 
L 489.242812 89.322269 
L 489.242812 88.157774 
L 489.242812 86.993279 
L 489.242812 85.828784 
L 489.242812 84.664289 
L 489.242812 83.499794 
L 489.242812 82.335299 
L 489.242812 81.170804 
L 489.242812 80.006309 
L 489.242812 78.841814 
L 489.242812 77.677319 
L 489.242812 76.512824 
L 489.242812 75.348329 
L 489.242812 74.183834 
L 489.242812 73.019339 
L 489.242812 71.854844 
L 489.242812 70.690349 
L 489.242812 69.525855 
L 489.242812 68.36136 
L 489.242812 67.196865 
L 489.242812 66.03237 
L 489.242812 64.867875 
L 489.242812 63.70338 
L 489.242812 62.538885 
L 489.242812 61.37439 
L 489.242812 60.209895 
L 489.242812 59.0454 
L 489.242812 57.880905 
L 489.242812 56.71641 
L 489.242812 55.551915 
L 489.242812 54.38742 
L 489.242812 53.222925 
L 489.242812 52.05843 
L 489.242812 50.893935 
L 489.242812 49.72944 
L 489.242812 48.564945 
L 489.242812 47.40045 
L 489.242812 46.235955 
L 489.242812 45.07146 
L 489.242812 43.906965 
L 489.242812 42.74247 
L 489.242812 41.577975 
L 489.242812 40.41348 
L 489.242812 39.248985 
L 489.242812 38.08449 
L 489.242812 36.919995 
L 489.242812 35.7555 
L 487.770371 35.7555 
L 486.29793 35.7555 
L 484.825488 35.7555 
L 483.353047 35.7555 
L 481.880605 35.7555 
L 480.408164 35.7555 
L 478.935722 35.7555 
L 477.463281 35.7555 
L 475.990839 35.7555 
L 474.518398 35.7555 
L 473.045956 35.7555 
L 471.573515 35.7555 
L 470.101073 35.7555 
L 468.628632 35.7555 
L 467.15619 35.7555 
L 465.683749 35.7555 
L 464.211307 35.7555 
L 462.738866 35.7555 
L 461.266425 35.7555 
L 459.793983 35.7555 
L 458.321542 35.7555 
L 456.8491 35.7555 
L 455.376659 35.7555 
L 453.904217 35.7555 
L 452.431776 35.7555 
L 450.959334 35.7555 
L 449.486893 35.7555 
L 448.014451 35.7555 
L 446.54201 35.7555 
L 445.069568 35.7555 
L 443.597127 35.7555 
L 442.124685 35.7555 
L 440.652244 35.7555 
L 439.179802 35.7555 
L 437.707361 35.7555 
L 436.23492 35.7555 
L 434.762478 35.7555 
L 433.290037 35.7555 
L 431.817595 35.7555 
L 430.345154 35.7555 
L 428.872712 35.7555 
L 427.400271 35.7555 
L 425.927829 35.7555 
L 424.455388 35.7555 
L 422.982946 35.7555 
L 421.510505 35.7555 
L 420.038063 35.7555 
L 418.565622 35.7555 
L 417.09318 35.7555 
L 415.620739 35.7555 
L 414.148297 35.7555 
L 412.675856 35.7555 
L 411.203415 35.7555 
L 409.730973 35.7555 
L 408.258532 35.7555 
L 406.78609 35.7555 
L 405.313649 35.7555 
L 403.841207 35.7555 
L 402.368766 35.7555 
L 400.896324 35.7555 
L 399.423883 35.7555 
L 397.951441 35.7555 
L 396.479 35.7555 
L 395.006558 35.7555 
L 393.534117 35.7555 
L 392.061675 35.7555 
L 390.589234 35.7555 
L 389.116792 35.7555 
L 387.644351 35.7555 
L 386.171909 35.7555 
L 384.699468 35.7555 
L 383.227027 35.7555 
L 381.754585 35.7555 
L 380.282144 35.7555 
L 378.809702 35.7555 
L 377.337261 35.7555 
L 375.864819 35.7555 
L 374.392378 35.7555 
L 372.919936 35.7555 
L 371.447495 35.7555 
L 369.975053 35.7555 
L 368.502612 35.7555 
L 367.03017 35.7555 
L 365.557729 35.7555 
L 364.085287 35.7555 
L 362.612846 35.7555 
L 361.140404 35.7555 
L 359.667963 35.7555 
L 358.195522 35.7555 
L 356.72308 35.7555 
L 355.250639 35.7555 
L 353.778197 35.7555 
L 352.305756 35.7555 
L 350.833314 35.7555 
L 349.360873 35.7555 
L 347.888431 35.7555 
L 346.41599 35.7555 
L 344.943548 35.7555 
L 343.471107 35.7555 
L 341.998665 35.7555 
L 340.526224 35.7555 
L 339.053782 35.7555 
L 337.581341 35.7555 
L 336.108899 35.7555 
L 334.636458 35.7555 
L 333.164017 35.7555 
L 331.691575 35.7555 
L 330.219134 35.7555 
L 328.746692 35.7555 
L 327.274251 35.7555 
L 325.801809 35.7555 
L 324.329368 35.7555 
L 322.856926 35.7555 
L 321.384485 35.7555 
L 319.912043 35.7555 
L 318.439602 35.7555 
L 316.96716 35.7555 
L 315.494719 35.7555 
L 314.022277 35.7555 
L 312.549836 35.7555 
L 311.077394 35.7555 
L 309.604953 35.7555 
L 308.132511 35.7555 
L 306.66007 35.7555 
L 305.187629 35.7555 
L 303.715187 35.7555 
L 302.242746 35.7555 
L 300.770304 35.7555 
L 299.297863 35.7555 
L 297.825421 35.7555 
L 296.35298 35.7555 
L 294.880538 35.7555 
L 293.408097 35.7555 
L 291.935655 35.7555 
L 290.463214 35.7555 
L 288.990772 35.7555 
L 287.518331 35.7555 
L 286.045889 35.7555 
L 284.573448 35.7555 
L 283.101006 35.7555 
L 281.628565 35.7555 
L 280.156124 35.7555 
L 278.683682 35.7555 
L 277.211241 35.7555 
L 275.738799 35.7555 
L 274.266358 35.7555 
L 272.793916 35.7555 
L 271.321475 35.7555 
L 269.849033 35.7555 
L 268.376592 35.7555 
L 266.90415 35.7555 
L 265.431709 35.7555 
L 263.959267 35.7555 
L 262.486826 35.7555 
L 261.014384 35.7555 
L 259.541943 35.7555 
L 258.069501 35.7555 
L 256.59706 35.7555 
L 255.124619 35.7555 
L 253.652177 35.7555 
L 252.179736 35.7555 
L 250.707294 35.7555 
L 249.234853 35.7555 
L 247.762411 35.7555 
L 246.28997 35.7555 
L 244.817528 35.7555 
L 243.345087 35.7555 
L 241.872645 35.7555 
L 240.400204 35.7555 
L 238.927762 35.7555 
L 237.455321 35.7555 
L 235.982879 35.7555 
L 234.510438 35.7555 
L 233.037996 35.7555 
L 231.565555 35.7555 
L 230.093114 35.7555 
L 228.620672 35.7555 
L 227.148231 35.7555 
L 225.675789 35.7555 
L 224.203348 35.7555 
L 222.730906 35.7555 
L 221.258465 35.7555 
L 219.786023 35.7555 
L 218.313582 35.7555 
L 216.84114 35.7555 
L 215.368699 35.7555 
L 213.896257 35.7555 
L 212.423816 35.7555 
L 210.951374 35.7555 
L 209.478933 35.7555 
L 208.006491 35.7555 
L 206.53405 35.7555 
L 205.061608 35.7555 
L 203.589167 35.7555 
L 202.116726 35.7555 
L 200.644284 35.7555 
L 199.171843 35.7555 
L 197.699401 35.7555 
L 196.22696 35.7555 
L 194.754518 35.7555 
L 193.282077 35.7555 
L 191.809635 35.7555 
L 190.337194 35.7555 
L 188.864752 35.7555 
L 187.392311 35.7555 
L 185.919869 35.7555 
L 184.447428 35.7555 
L 182.974986 35.7555 
L 181.502545 35.7555 
L 180.030103 35.7555 
L 178.557662 35.7555 
L 177.085221 35.7555 
L 175.612779 35.7555 
L 174.140338 35.7555 
L 172.667896 35.7555 
L 171.195455 35.7555 
L 169.723013 35.7555 
L 168.250572 35.7555 
L 166.77813 35.7555 
L 165.305689 35.7555 
L 163.833247 35.7555 
L 162.360806 35.7555 
L 160.888364 35.7555 
L 159.415923 35.7555 
L 157.943481 35.7555 
L 156.47104 35.7555 
L 154.998598 35.7555 
L 153.526157 35.7555 
L 152.053716 35.7555 
L 150.581274 35.7555 
L 149.108833 35.7555 
L 147.636391 35.7555 
L 146.16395 35.7555 
L 144.691508 35.7555 
L 143.219067 35.7555 
L 141.746625 35.7555 
L 140.274184 35.7555 
L 138.801742 35.7555 
L 137.329301 35.7555 
L 135.856859 35.7555 
L 134.384418 35.7555 
L 132.911976 35.7555 
L 131.439535 35.7555 
L 129.967093 35.7555 
L 128.494652 35.7555 
L 127.02221 35.7555 
L 125.549769 35.7555 
L 124.077328 35.7555 
L 122.604886 35.7555 
L 121.132445 35.7555 
L 119.660003 35.7555 
L 118.187562 35.7555 
L 116.71512 35.7555 
L 115.242679 35.7555 
L 113.770237 35.7555 
L 112.297796 35.7555 
L 110.825354 35.7555 
L 109.352913 35.7555 
L 107.880471 35.7555 
L 106.40803 35.7555 
L 104.935588 35.7555 
L 103.463147 35.7555 
L 101.990705 35.7555 
L 100.518264 35.7555 
L 99.045823 35.7555 
L 97.573381 35.7555 
L 96.10094 35.7555 
L 94.628498 35.7555 
L 93.156057 35.7555 
L 91.683615 35.7555 
L 90.211174 35.7555 
L 88.738732 35.7555 
L 87.266291 35.7555 
L 85.793849 35.7555 
L 84.321408 35.7555 
L 82.848966 35.7555 
L 81.376525 35.7555 
L 79.904083 35.7555 
L 78.431642 35.7555 
L 76.9592 35.7555 
L 75.486759 35.7555 
L 74.014318 35.7555 
L 72.541876 35.7555 
L 71.069435 35.7555 
L 69.596993 35.7555 
L 68.124552 35.7555 
L 66.65211 35.7555 
L 65.179669 35.7555 
L 63.707227 35.7555 
L 62.234786 35.7555 
L 60.762344 35.7555 
L 59.289903 35.7555 
L 57.817461 35.7555 
L 56.34502 35.7555 
L 54.872578 35.7555 
L 53.400137 35.7555 
L 51.927695 35.7555 
L 50.455254 35.7555 
L 48.982813 35.7555 
L 48.982813 36.919995 
L 48.982813 38.08449 
L 48.982813 39.248985 
L 48.982813 40.41348 
L 48.982813 41.577975 
L 48.982813 42.74247 
L 48.982813 43.906965 
L 48.982813 45.07146 
L 48.982813 46.235955 
L 48.982813 47.40045 
L 48.982813 48.564945 
L 48.982813 49.72944 
L 48.982813 50.893935 
L 48.982813 52.05843 
L 48.982813 53.222925 
L 48.982813 54.38742 
L 48.982813 55.551915 
L 48.982813 56.71641 
L 48.982813 57.880905 
L 48.982813 59.0454 
L 48.982813 60.209895 
L 48.982813 61.37439 
L 48.982813 62.538885 
L 48.982813 63.70338 
L 48.982813 64.867875 
L 48.982813 66.03237 
L 48.982813 67.196865 
L 48.982813 68.36136 
L 48.982813 69.525855 
L 48.982813 70.690349 
L 48.982813 71.854844 
L 48.982813 73.019339 
L 48.982813 74.183834 
L 48.982813 75.348329 
L 48.982813 76.512824 
L 48.982813 77.677319 
L 48.982813 78.841814 
L 48.982813 80.006309 
L 48.982813 81.170804 
L 48.982813 82.335299 
L 48.982813 83.499794 
L 48.982813 84.664289 
L 48.982813 85.828784 
L 48.982813 86.993279 
L 48.982813 88.157774 
L 48.982813 89.322269 
L 48.982813 90.486764 
L 48.982813 91.651259 
L 48.982813 92.815754 
L 48.982813 93.980249 
L 48.982813 95.144744 
L 48.982813 96.309239 
L 48.982813 97.473734 
L 48.982813 98.638229 
L 48.982813 99.802724 
L 48.982813 100.967219 
L 48.982813 102.131714 
L 48.982813 103.296209 
L 48.982813 104.460704 
L 48.982813 105.625199 
L 48.982813 106.789694 
L 48.982813 107.954189 
L 48.982813 109.118684 
L 48.982813 110.283179 
L 48.982813 111.447674 
L 48.982813 112.612169 
L 48.982813 113.776664 
L 48.982813 114.941159 
L 48.982813 116.105654 
L 48.982813 117.270149 
L 48.982813 118.434644 
L 48.982813 119.599139 
L 48.982813 120.763634 
L 48.982813 121.928129 
L 48.982813 123.092624 
L 48.982813 124.257119 
L 48.982813 125.421614 
L 48.982813 126.586109 
L 48.982813 127.750604 
L 48.982813 128.915099 
L 48.982813 130.079594 
L 48.982813 131.244089 
L 48.982813 132.408584 
L 48.982813 133.573079 
L 48.982813 134.737574 
L 48.982813 135.902069 
L 48.982813 137.066564 
L 48.982813 138.231059 
L 48.982813 139.395554 
L 48.982813 140.560048 
L 48.982813 141.724543 
L 48.982813 142.889038 
L 48.982813 144.053533 
L 48.982813 145.218028 
L 48.982813 146.382523 
L 48.982813 147.547018 
L 48.982813 148.711513 
L 48.982813 149.876008 
L 48.982813 151.040503 
L 48.982813 152.204998 
L 48.982813 153.369493 
L 48.982813 154.533988 
L 48.982813 155.698483 
L 48.982813 156.862978 
L 48.982813 158.027473 
L 48.982813 159.191968 
L 48.982813 160.356463 
L 48.982813 161.520958 
L 48.982813 162.685453 
L 48.982813 163.849948 
L 48.982813 164.872644 
L 49.60592 165.014443 
L 50.455254 165.207724 
L 51.927695 165.542805 
L 53.400137 165.877885 
L 54.723052 166.178938 
L 54.872578 166.212965 
L 56.34502 166.548046 
L 57.817461 166.883126 
L 59.289903 167.218207 
L 59.840185 167.343433 
L 60.762344 167.553287 
L 62.234786 167.888367 
L 63.707227 168.223448 
L 64.957317 168.507928 
L 65.179669 168.558528 
L 66.65211 168.893608 
L 68.124552 169.228689 
L 69.596993 169.563769 
L 70.07445 169.672423 
L 71.069435 169.89885 
L 72.541876 170.23393 
L 74.014318 170.56901 
L 75.191583 170.836918 
L 75.486759 170.904091 
L 76.9592 171.239171 
L 78.431642 171.574251 
L 79.904083 171.909332 
L 80.308715 172.001413 
L 81.376525 172.244412 
L 82.848966 172.579493 
L 84.321408 172.914573 
L 85.425848 173.165908 
L 85.793849 173.249653 
L 87.266291 173.584734 
L 88.738732 173.919814 
L 90.211174 174.254894 
L 90.54298 174.330403 
L 91.683615 174.589975 
L 93.156057 174.925055 
L 94.628498 175.260136 
L 95.660113 175.494898 
L 96.10094 175.595216 
L 97.573381 175.930296 
L 99.045823 176.265377 
L 100.518264 176.600457 
L 100.777245 176.659393 
L 101.990705 176.935538 
L 103.463147 177.270618 
L 104.935588 177.605698 
L 105.894378 177.823888 
L 106.40803 177.940779 
L 107.880471 178.275859 
L 109.352913 178.610939 
L 110.825354 178.94602 
L 111.011511 178.988383 
L 112.297796 179.2811 
L 113.770237 179.616181 
L 115.242679 179.951261 
L 116.128643 180.152878 
L 116.71512 180.286341 
L 118.187562 180.621422 
L 119.660003 180.956502 
L 121.132445 181.291582 
L 121.245776 181.317373 
L 122.604886 181.626663 
L 124.077328 181.961743 
L 125.549769 182.296824 
L 126.362908 182.481868 
L 127.02221 182.631904 
L 128.494652 182.966984 
L 129.967093 183.302065 
L 131.439535 183.637145 
L 131.480041 183.646363 
L 132.911976 183.972225 
L 134.384418 184.307306 
L 135.856859 184.642386 
L 136.597173 184.810858 
L 137.329301 184.977467 
L 138.801742 185.312547 
L 140.274184 185.647627 
L 141.714306 185.975353 
L 141.746625 185.982708 
L 143.219067 186.317788 
L 144.691508 186.652868 
L 146.16395 186.987949 
L 146.831439 187.139848 
L 147.636391 187.323029 
L 149.108833 187.65811 
L 150.581274 187.99319 
L 151.948571 188.304343 
L 152.053716 188.32827 
L 153.526157 188.663351 
L 154.998598 188.998431 
L 156.47104 189.333511 
L 157.065704 189.468838 
L 157.943481 189.668592 
L 159.415923 190.003672 
L 160.888364 190.338753 
L 162.182836 190.633333 
L 162.360806 190.673833 
L 163.833247 191.008913 
L 165.305689 191.343994 
L 166.77813 191.679074 
L 167.299969 191.797828 
L 168.250572 192.014154 
L 169.723013 192.349235 
L 171.195455 192.684315 
L 172.417101 192.962323 
L 172.667896 193.019396 
L 174.140338 193.354476 
L 175.612779 193.689556 
L 177.085221 194.024637 
L 177.534234 194.126818 
L 178.557662 194.359717 
L 180.030103 194.694797 
L 181.502545 195.029878 
L 182.651367 195.291313 
L 182.974986 195.364958 
L 184.447428 195.700039 
L 185.919869 196.035119 
L 187.392311 196.370199 
L 187.768499 196.455808 
L 188.864752 196.70528 
L 190.337194 197.04036 
L 191.809635 197.37544 
L 192.885632 197.620303 
L 193.282077 197.710521 
L 194.754518 198.045601 
L 196.22696 198.380682 
L 197.699401 198.715762 
L 198.002764 198.784798 
L 199.171843 199.050842 
L 200.644284 199.385923 
L 202.116726 199.721003 
L 203.119897 199.949293 
L 203.589167 200.056083 
L 205.061608 200.391164 
L 206.53405 200.726244 
L 208.006491 201.061325 
L 208.237029 201.113788 
L 209.478933 201.396405 
L 210.951374 201.731485 
L 212.423816 202.066566 
L 213.354162 202.278283 
L 213.896257 202.401646 
L 215.368699 202.736726 
L 216.84114 203.071807 
L 218.313582 203.406887 
L 218.471295 203.442778 
L 219.786023 203.741968 
L 221.258465 204.077048 
L 222.730906 204.412128 
L 223.588427 204.607273 
L 224.203348 204.747209 
L 225.675789 205.082289 
L 227.148231 205.417369 
L 228.620672 205.75245 
L 228.70556 205.771768 
L 230.093114 206.08753 
L 231.565555 206.422611 
L 233.037996 206.757691 
L 233.822692 206.936263 
L 234.510438 207.092771 
L 235.982879 207.427852 
L 237.455321 207.762932 
L 238.927762 208.098012 
L 238.939825 208.100758 
L 240.400204 208.433093 
L 241.872645 208.768173 
L 243.345087 209.103254 
L 244.056957 209.265253 
L 244.817528 209.438334 
L 246.28997 209.773414 
L 247.762411 210.108495 
L 249.17409 210.429747 
L 249.234853 210.443575 
L 250.707294 210.778656 
L 252.179736 211.113736 
L 253.652177 211.448816 
L 254.291222 211.594242 
L 255.124619 211.783897 
L 256.59706 212.118977 
L 258.069501 212.454057 
L 259.408355 212.758737 
L 259.541943 212.789138 
L 261.014384 213.124218 
L 262.486826 213.459299 
L 263.959267 213.794379 
L 264.525488 213.923232 
L 265.431709 214.129459 
L 266.90415 214.46454 
L 268.376592 214.79962 
L 269.64262 215.087727 
L 269.849033 215.1347 
L 271.321475 215.469781 
L 272.793916 215.804861 
L 274.266358 216.139942 
L 274.759753 216.252222 
L 275.738799 216.475022 
L 277.211241 216.810102 
L 278.683682 217.145183 
L 279.876885 217.416717 
L 280.156124 217.480263 
L 281.628565 217.815343 
L 283.101006 218.150424 
L 284.573448 218.485504 
L 284.994018 218.581212 
L 286.045889 218.820585 
L 287.518331 219.155665 
L 288.990772 219.490745 
L 290.11115 219.745707 
L 290.463214 219.825826 
L 291.935655 220.160906 
L 293.408097 220.495986 
L 294.880538 220.831067 
L 295.228283 220.910202 
L 296.35298 221.166147 
L 297.825421 221.501228 
L 299.297863 221.836308 
L 300.345416 222.074697 
L 300.770304 222.171388 
L 302.242746 222.506469 
L 303.715187 222.841549 
L 305.187629 223.176629 
L 305.462548 223.239192 
L 306.66007 223.51171 
L 308.132511 223.84679 
L 309.604953 224.181871 
L 310.579681 224.403687 
L 311.077394 224.516951 
L 312.549836 224.852031 
L 314.022277 225.187112 
L 315.494719 225.522192 
L 315.696813 225.568182 
L 316.96716 225.857272 
L 318.439602 226.192353 
L 319.912043 226.527433 
L 320.813946 226.732677 
L 321.384485 226.862514 
L 322.856926 227.197594 
L 324.329368 227.532674 
L 325.801809 227.867755 
L 325.931078 227.897172 
L 327.274251 228.202835 
L 328.746692 228.537915 
L 330.219134 228.872996 
L 331.048211 229.061667 
L 331.691575 229.208076 
L 333.164017 229.543157 
L 334.636458 229.878237 
L 336.108899 230.213317 
L 336.165344 230.226162 
L 337.581341 230.548398 
L 339.053782 230.883478 
L 340.526224 231.218558 
L 341.282476 231.390657 
L 341.998665 231.553639 
L 343.471107 231.888719 
L 344.943548 232.2238 
L 346.399609 232.555152 
L 346.41599 232.55888 
L 347.888431 232.89396 
L 349.360873 233.229041 
L 350.833314 233.564121 
L 351.516741 233.719647 
L 352.305756 233.899201 
L 353.778197 234.234282 
L 355.250639 234.569362 
L 356.633874 234.884142 
L 356.72308 234.904443 
L 358.195522 235.239523 
L 359.667963 235.574603 
L 361.140404 235.909684 
L 361.751006 236.048637 
L 362.612846 236.244764 
L 364.085287 236.579844 
L 365.557729 236.914925 
L 366.868139 237.213132 
L 367.03017 237.250005 
L 368.502612 237.585086 
L 369.975053 237.920166 
L 371.447495 238.255246 
L 371.985272 238.377627 
L 372.919936 238.590327 
L 374.392378 238.925407 
L 375.864819 239.260487 
L 377.102404 239.542122 
L 377.337261 239.595568 
L 378.809702 239.930648 
L 380.282144 240.265729 
L 381.754585 240.600809 
L 382.219537 240.706617 
L 383.227027 240.935889 
L 384.699468 241.27097 
L 386.171909 241.60605 
L 387.336669 241.871112 
L 387.644351 241.941131 
L 389.116792 242.276211 
L 390.589234 242.611291 
L 392.061675 242.946372 
L 392.453802 243.035607 
L 393.534117 243.281452 
L 395.006558 243.616532 
L 396.479 243.951613 
L 397.570934 244.200102 
L 397.951441 244.286693 
L 399.423883 244.621774 
L 400.896324 244.956854 
L 402.368766 245.291934 
L 402.688067 245.364597 
L 403.841207 245.627015 
L 405.313649 245.962095 
L 406.78609 246.297175 
L 407.8052 246.529092 
L 408.258532 246.632256 
L 409.730973 246.967336 
L 411.203415 247.302417 
L 412.675856 247.637497 
L 412.922332 247.693587 
L 414.148297 247.972577 
L 415.620739 248.307658 
L 417.09318 248.642738 
L 418.039465 248.858082 
L 418.565622 248.977818 
L 420.038063 249.312899 
L 421.510505 249.647979 
L 422.982946 249.98306 
L 423.156597 250.022577 
L 424.455388 250.31814 
L 425.927829 250.65322 
L 427.400271 250.988301 
L 428.27373 251.187072 
L 428.872712 251.323381 
L 430.345154 251.658461 
L 431.817595 251.993542 
L 433.290037 252.328622 
L 433.390862 252.351567 
L 434.762478 252.663703 
L 436.23492 252.998783 
L 437.707361 253.333863 
L 438.507995 253.516062 
L 439.179802 253.668944 
L 440.652244 254.004024 
L 442.124685 254.339104 
L 443.597127 254.674185 
L 443.625128 254.680557 
L 445.069568 255.009265 
L 446.54201 255.344346 
L 448.014451 255.679426 
L 448.74226 255.845052 
L 449.486893 256.014506 
L 450.959334 256.349587 
L 452.431776 256.684667 
L 453.859393 257.009547 
L 453.904217 257.019747 
L 455.376659 257.354828 
L 456.8491 257.689908 
L 458.321542 258.024989 
L 458.976525 258.174042 
L 459.793983 258.360069 
L 461.266425 258.695149 
L 462.738866 259.03023 
L 464.093658 259.338537 
L 464.211307 259.36531 
L 465.683749 259.70039 
L 467.15619 260.035471 
L 468.628632 260.370551 
L 469.21079 260.503032 
L 470.101073 260.705632 
L 471.573515 261.040712 
L 473.045956 261.375792 
L 474.327923 261.667527 
L 474.518398 261.710873 
L 475.990839 262.045953 
L 477.463281 262.381033 
L 478.935722 262.716114 
L 479.445056 262.832022 
L 480.408164 263.051194 
L 481.880605 263.386275 
L 483.353047 263.721355 
L 484.562188 263.996517 
z
" clip-path="url(#pc00429dfc9)" style="fill: #7aa6c2; fill-opacity: 0.15"/>
    <path d="M 50.455254 383.9395 
L 51.927695 383.9395 
L 53.400137 383.9395 
L 54.872578 383.9395 
L 56.34502 383.9395 
L 57.817461 383.9395 
L 59.289903 383.9395 
L 60.762344 383.9395 
L 62.234786 383.9395 
L 63.707227 383.9395 
L 65.179669 383.9395 
L 66.65211 383.9395 
L 68.124552 383.9395 
L 69.596993 383.9395 
L 71.069435 383.9395 
L 72.541876 383.9395 
L 74.014318 383.9395 
L 75.486759 383.9395 
L 76.9592 383.9395 
L 78.431642 383.9395 
L 79.904083 383.9395 
L 81.376525 383.9395 
L 82.848966 383.9395 
L 84.321408 383.9395 
L 85.793849 383.9395 
L 87.266291 383.9395 
L 88.738732 383.9395 
L 90.211174 383.9395 
L 91.683615 383.9395 
L 93.156057 383.9395 
L 94.628498 383.9395 
L 96.10094 383.9395 
L 97.573381 383.9395 
L 99.045823 383.9395 
L 100.518264 383.9395 
L 101.990705 383.9395 
L 103.463147 383.9395 
L 104.935588 383.9395 
L 106.40803 383.9395 
L 107.880471 383.9395 
L 109.352913 383.9395 
L 110.825354 383.9395 
L 112.297796 383.9395 
L 113.770237 383.9395 
L 115.242679 383.9395 
L 116.71512 383.9395 
L 118.187562 383.9395 
L 119.660003 383.9395 
L 121.132445 383.9395 
L 122.604886 383.9395 
L 124.077328 383.9395 
L 125.549769 383.9395 
L 127.02221 383.9395 
L 128.494652 383.9395 
L 129.967093 383.9395 
L 131.439535 383.9395 
L 132.911976 383.9395 
L 134.384418 383.9395 
L 135.856859 383.9395 
L 137.329301 383.9395 
L 138.801742 383.9395 
L 140.274184 383.9395 
L 141.746625 383.9395 
L 143.219067 383.9395 
L 144.691508 383.9395 
L 146.16395 383.9395 
L 147.636391 383.9395 
L 149.108833 383.9395 
L 150.581274 383.9395 
L 152.053716 383.9395 
L 153.526157 383.9395 
L 154.998598 383.9395 
L 156.47104 383.9395 
L 157.943481 383.9395 
L 159.415923 383.9395 
L 160.888364 383.9395 
L 162.360806 383.9395 
L 163.833247 383.9395 
L 165.305689 383.9395 
L 166.77813 383.9395 
L 168.250572 383.9395 
L 169.723013 383.9395 
L 171.195455 383.9395 
L 172.667896 383.9395 
L 174.140338 383.9395 
L 175.612779 383.9395 
L 177.085221 383.9395 
L 178.557662 383.9395 
L 180.030103 383.9395 
L 181.502545 383.9395 
L 182.974986 383.9395 
L 184.447428 383.9395 
L 185.919869 383.9395 
L 187.392311 383.9395 
L 188.864752 383.9395 
L 190.337194 383.9395 
L 191.809635 383.9395 
L 193.282077 383.9395 
L 194.754518 383.9395 
L 196.22696 383.9395 
L 197.699401 383.9395 
L 199.171843 383.9395 
L 200.644284 383.9395 
L 202.116726 383.9395 
L 203.589167 383.9395 
L 205.061608 383.9395 
L 206.53405 383.9395 
L 208.006491 383.9395 
L 209.478933 383.9395 
L 210.951374 383.9395 
L 212.423816 383.9395 
L 213.896257 383.9395 
L 215.368699 383.9395 
L 216.84114 383.9395 
L 218.313582 383.9395 
L 219.786023 383.9395 
L 221.258465 383.9395 
L 222.730906 383.9395 
L 224.203348 383.9395 
L 225.675789 383.9395 
L 227.148231 383.9395 
L 228.620672 383.9395 
L 230.093114 383.9395 
L 231.565555 383.9395 
L 233.037996 383.9395 
L 234.510438 383.9395 
L 235.982879 383.9395 
L 237.455321 383.9395 
L 238.927762 383.9395 
L 240.400204 383.9395 
L 241.872645 383.9395 
L 243.345087 383.9395 
L 244.817528 383.9395 
L 246.28997 383.9395 
L 247.762411 383.9395 
L 249.234853 383.9395 
L 250.707294 383.9395 
L 252.179736 383.9395 
L 253.652177 383.9395 
L 255.124619 383.9395 
L 256.59706 383.9395 
L 258.069501 383.9395 
L 259.541943 383.9395 
L 261.014384 383.9395 
L 262.486826 383.9395 
L 263.959267 383.9395 
L 265.431709 383.9395 
L 266.90415 383.9395 
L 268.376592 383.9395 
L 269.849033 383.9395 
L 271.321475 383.9395 
L 272.793916 383.9395 
L 274.266358 383.9395 
L 275.738799 383.9395 
L 277.211241 383.9395 
L 278.683682 383.9395 
L 280.156124 383.9395 
L 281.628565 383.9395 
L 283.101006 383.9395 
L 284.573448 383.9395 
L 286.045889 383.9395 
L 287.518331 383.9395 
L 288.990772 383.9395 
L 290.463214 383.9395 
L 291.935655 383.9395 
L 293.408097 383.9395 
L 294.880538 383.9395 
L 296.35298 383.9395 
L 297.825421 383.9395 
L 299.297863 383.9395 
L 300.770304 383.9395 
L 302.242746 383.9395 
L 303.715187 383.9395 
L 305.187629 383.9395 
L 306.66007 383.9395 
L 308.132511 383.9395 
L 309.604953 383.9395 
L 311.077394 383.9395 
L 312.549836 383.9395 
L 314.022277 383.9395 
L 315.494719 383.9395 
L 316.96716 383.9395 
L 318.439602 383.9395 
L 319.912043 383.9395 
L 321.384485 383.9395 
L 322.856926 383.9395 
L 324.329368 383.9395 
L 325.801809 383.9395 
L 327.274251 383.9395 
L 328.746692 383.9395 
L 330.219134 383.9395 
L 331.691575 383.9395 
L 333.164017 383.9395 
L 334.636458 383.9395 
L 336.108899 383.9395 
L 337.581341 383.9395 
L 339.053782 383.9395 
L 340.526224 383.9395 
L 341.998665 383.9395 
L 343.471107 383.9395 
L 344.943548 383.9395 
L 346.41599 383.9395 
L 347.888431 383.9395 
L 349.360873 383.9395 
L 350.833314 383.9395 
L 352.305756 383.9395 
L 353.778197 383.9395 
L 355.250639 383.9395 
L 356.72308 383.9395 
L 358.195522 383.9395 
L 359.667963 383.9395 
L 361.140404 383.9395 
L 362.612846 383.9395 
L 364.085287 383.9395 
L 365.557729 383.9395 
L 367.03017 383.9395 
L 368.502612 383.9395 
L 369.975053 383.9395 
L 371.447495 383.9395 
L 372.919936 383.9395 
L 374.392378 383.9395 
L 375.864819 383.9395 
L 377.337261 383.9395 
L 378.809702 383.9395 
L 380.282144 383.9395 
L 381.754585 383.9395 
L 383.227027 383.9395 
L 384.699468 383.9395 
L 386.171909 383.9395 
L 387.644351 383.9395 
L 389.116792 383.9395 
L 390.589234 383.9395 
L 392.061675 383.9395 
L 393.534117 383.9395 
L 395.006558 383.9395 
L 396.479 383.9395 
L 397.951441 383.9395 
L 399.423883 383.9395 
L 400.896324 383.9395 
L 402.368766 383.9395 
L 403.841207 383.9395 
L 405.313649 383.9395 
L 406.78609 383.9395 
L 408.258532 383.9395 
L 409.730973 383.9395 
L 411.203415 383.9395 
L 412.675856 383.9395 
L 414.148297 383.9395 
L 415.620739 383.9395 
L 417.09318 383.9395 
L 418.565622 383.9395 
L 420.038063 383.9395 
L 421.510505 383.9395 
L 422.982946 383.9395 
L 424.455388 383.9395 
L 425.927829 383.9395 
L 427.400271 383.9395 
L 428.872712 383.9395 
L 430.345154 383.9395 
L 431.817595 383.9395 
L 433.290037 383.9395 
L 434.762478 383.9395 
L 436.23492 383.9395 
L 437.707361 383.9395 
L 439.179802 383.9395 
L 440.652244 383.9395 
L 442.124685 383.9395 
L 443.597127 383.9395 
L 445.069568 383.9395 
L 446.54201 383.9395 
L 448.014451 383.9395 
L 449.486893 383.9395 
L 450.959334 383.9395 
L 452.431776 383.9395 
L 453.904217 383.9395 
L 455.376659 383.9395 
L 456.8491 383.9395 
L 458.321542 383.9395 
L 459.793983 383.9395 
L 461.266425 383.9395 
L 462.738866 383.9395 
L 464.211307 383.9395 
L 465.683749 383.9395 
L 467.15619 383.9395 
L 468.628632 383.9395 
L 470.101073 383.9395 
L 471.573515 383.9395 
L 473.045956 383.9395 
L 474.518398 383.9395 
L 475.990839 383.9395 
L 477.463281 383.9395 
L 478.935722 383.9395 
L 480.408164 383.9395 
L 481.880605 383.9395 
L 483.353047 383.9395 
L 484.825488 383.9395 
L 486.29793 383.9395 
L 487.770371 383.9395 
L 489.242812 383.9395 
L 489.242812 382.775005 
L 489.242812 381.61051 
L 489.242812 380.446015 
L 489.242812 379.28152 
L 489.242812 378.117025 
L 489.242812 376.95253 
L 489.242812 375.788035 
L 489.242812 374.62354 
L 489.242812 373.459045 
L 489.242812 372.29455 
L 489.242812 371.130055 
L 489.242812 369.96556 
L 489.242812 368.801065 
L 489.242812 367.63657 
L 489.242812 366.472075 
L 489.242812 365.30758 
L 489.242812 364.143085 
L 489.242812 362.97859 
L 489.242812 361.814095 
L 489.242812 360.6496 
L 489.242812 359.485105 
L 489.242812 358.32061 
L 489.242812 357.156115 
L 489.242812 355.99162 
L 489.242812 354.827125 
L 489.242812 353.66263 
L 489.242812 352.498135 
L 489.242812 351.33364 
L 489.242812 350.169145 
L 489.242812 349.004651 
L 489.242812 347.840156 
L 489.242812 346.675661 
L 489.242812 345.511166 
L 489.242812 344.346671 
L 489.242812 343.182176 
L 489.242812 342.017681 
L 489.242812 340.853186 
L 489.242812 339.688691 
L 489.242812 338.524196 
L 489.242812 337.359701 
L 489.242812 336.195206 
L 489.242812 335.030711 
L 489.242812 333.866216 
L 489.242812 332.701721 
L 489.242812 331.537226 
L 489.242812 330.372731 
L 489.242812 329.208236 
L 489.242812 328.043741 
L 489.242812 326.879246 
L 489.242812 325.714751 
L 489.242812 324.550256 
L 489.242812 323.385761 
L 489.242812 322.221266 
L 489.242812 321.056771 
L 489.242812 319.892276 
L 489.242812 318.727781 
L 489.242812 317.563286 
L 489.242812 316.398791 
L 489.242812 315.234296 
L 489.242812 314.069801 
L 489.242812 312.905306 
L 489.242812 311.740811 
L 489.242812 310.576316 
L 489.242812 309.411821 
L 489.242812 308.247326 
L 489.242812 307.082831 
L 489.242812 305.918336 
L 489.242812 304.753841 
L 489.242812 303.589346 
L 489.242812 302.424851 
L 489.242812 301.260356 
L 489.242812 300.095861 
L 489.242812 298.931366 
L 489.242812 297.766871 
L 489.242812 296.602376 
L 489.242812 295.437881 
L 489.242812 294.273386 
L 489.242812 293.108891 
L 489.242812 291.944396 
L 489.242812 290.779901 
L 489.242812 289.615406 
L 489.242812 288.450911 
L 489.242812 287.286416 
L 489.242812 286.121921 
L 489.242812 284.957426 
L 489.242812 283.792931 
L 489.242812 282.628436 
L 489.242812 281.463941 
L 489.242812 280.299446 
L 489.242812 279.134952 
L 489.242812 277.970457 
L 489.242812 276.805962 
L 489.242812 275.641467 
L 489.242812 274.476972 
L 489.242812 273.312477 
L 489.242812 272.147982 
L 489.242812 270.983487 
L 489.242812 269.818992 
L 489.242812 268.654497 
L 489.242812 267.490002 
L 489.242812 266.325507 
L 489.242812 265.161012 
L 489.242812 265.061676 
L 487.770371 264.726596 
L 486.29793 264.391516 
L 484.825488 264.056435 
L 484.562188 263.996517 
L 483.353047 263.721355 
L 481.880605 263.386275 
L 480.408164 263.051194 
L 479.445056 262.832022 
L 478.935722 262.716114 
L 477.463281 262.381033 
L 475.990839 262.045953 
L 474.518398 261.710873 
L 474.327923 261.667527 
L 473.045956 261.375792 
L 471.573515 261.040712 
L 470.101073 260.705632 
L 469.21079 260.503032 
L 468.628632 260.370551 
L 467.15619 260.035471 
L 465.683749 259.70039 
L 464.211307 259.36531 
L 464.093658 259.338537 
L 462.738866 259.03023 
L 461.266425 258.695149 
L 459.793983 258.360069 
L 458.976525 258.174042 
L 458.321542 258.024989 
L 456.8491 257.689908 
L 455.376659 257.354828 
L 453.904217 257.019747 
L 453.859393 257.009547 
L 452.431776 256.684667 
L 450.959334 256.349587 
L 449.486893 256.014506 
L 448.74226 255.845052 
L 448.014451 255.679426 
L 446.54201 255.344346 
L 445.069568 255.009265 
L 443.625128 254.680557 
L 443.597127 254.674185 
L 442.124685 254.339104 
L 440.652244 254.004024 
L 439.179802 253.668944 
L 438.507995 253.516062 
L 437.707361 253.333863 
L 436.23492 252.998783 
L 434.762478 252.663703 
L 433.390862 252.351567 
L 433.290037 252.328622 
L 431.817595 251.993542 
L 430.345154 251.658461 
L 428.872712 251.323381 
L 428.27373 251.187072 
L 427.400271 250.988301 
L 425.927829 250.65322 
L 424.455388 250.31814 
L 423.156597 250.022577 
L 422.982946 249.98306 
L 421.510505 249.647979 
L 420.038063 249.312899 
L 418.565622 248.977818 
L 418.039465 248.858082 
L 417.09318 248.642738 
L 415.620739 248.307658 
L 414.148297 247.972577 
L 412.922332 247.693587 
L 412.675856 247.637497 
L 411.203415 247.302417 
L 409.730973 246.967336 
L 408.258532 246.632256 
L 407.8052 246.529092 
L 406.78609 246.297175 
L 405.313649 245.962095 
L 403.841207 245.627015 
L 402.688067 245.364597 
L 402.368766 245.291934 
L 400.896324 244.956854 
L 399.423883 244.621774 
L 397.951441 244.286693 
L 397.570934 244.200102 
L 396.479 243.951613 
L 395.006558 243.616532 
L 393.534117 243.281452 
L 392.453802 243.035607 
L 392.061675 242.946372 
L 390.589234 242.611291 
L 389.116792 242.276211 
L 387.644351 241.941131 
L 387.336669 241.871112 
L 386.171909 241.60605 
L 384.699468 241.27097 
L 383.227027 240.935889 
L 382.219537 240.706617 
L 381.754585 240.600809 
L 380.282144 240.265729 
L 378.809702 239.930648 
L 377.337261 239.595568 
L 377.102404 239.542122 
L 375.864819 239.260487 
L 374.392378 238.925407 
L 372.919936 238.590327 
L 371.985272 238.377627 
L 371.447495 238.255246 
L 369.975053 237.920166 
L 368.502612 237.585086 
L 367.03017 237.250005 
L 366.868139 237.213132 
L 365.557729 236.914925 
L 364.085287 236.579844 
L 362.612846 236.244764 
L 361.751006 236.048637 
L 361.140404 235.909684 
L 359.667963 235.574603 
L 358.195522 235.239523 
L 356.72308 234.904443 
L 356.633874 234.884142 
L 355.250639 234.569362 
L 353.778197 234.234282 
L 352.305756 233.899201 
L 351.516741 233.719647 
L 350.833314 233.564121 
L 349.360873 233.229041 
L 347.888431 232.89396 
L 346.41599 232.55888 
L 346.399609 232.555152 
L 344.943548 232.2238 
L 343.471107 231.888719 
L 341.998665 231.553639 
L 341.282476 231.390657 
L 340.526224 231.218558 
L 339.053782 230.883478 
L 337.581341 230.548398 
L 336.165344 230.226162 
L 336.108899 230.213317 
L 334.636458 229.878237 
L 333.164017 229.543157 
L 331.691575 229.208076 
L 331.048211 229.061667 
L 330.219134 228.872996 
L 328.746692 228.537915 
L 327.274251 228.202835 
L 325.931078 227.897172 
L 325.801809 227.867755 
L 324.329368 227.532674 
L 322.856926 227.197594 
L 321.384485 226.862514 
L 320.813946 226.732677 
L 319.912043 226.527433 
L 318.439602 226.192353 
L 316.96716 225.857272 
L 315.696813 225.568182 
L 315.494719 225.522192 
L 314.022277 225.187112 
L 312.549836 224.852031 
L 311.077394 224.516951 
L 310.579681 224.403687 
L 309.604953 224.181871 
L 308.132511 223.84679 
L 306.66007 223.51171 
L 305.462548 223.239192 
L 305.187629 223.176629 
L 303.715187 222.841549 
L 302.242746 222.506469 
L 300.770304 222.171388 
L 300.345416 222.074697 
L 299.297863 221.836308 
L 297.825421 221.501228 
L 296.35298 221.166147 
L 295.228283 220.910202 
L 294.880538 220.831067 
L 293.408097 220.495986 
L 291.935655 220.160906 
L 290.463214 219.825826 
L 290.11115 219.745707 
L 288.990772 219.490745 
L 287.518331 219.155665 
L 286.045889 218.820585 
L 284.994018 218.581212 
L 284.573448 218.485504 
L 283.101006 218.150424 
L 281.628565 217.815343 
L 280.156124 217.480263 
L 279.876885 217.416717 
L 278.683682 217.145183 
L 277.211241 216.810102 
L 275.738799 216.475022 
L 274.759753 216.252222 
L 274.266358 216.139942 
L 272.793916 215.804861 
L 271.321475 215.469781 
L 269.849033 215.1347 
L 269.64262 215.087727 
L 268.376592 214.79962 
L 266.90415 214.46454 
L 265.431709 214.129459 
L 264.525488 213.923232 
L 263.959267 213.794379 
L 262.486826 213.459299 
L 261.014384 213.124218 
L 259.541943 212.789138 
L 259.408355 212.758737 
L 258.069501 212.454057 
L 256.59706 212.118977 
L 255.124619 211.783897 
L 254.291222 211.594242 
L 253.652177 211.448816 
L 252.179736 211.113736 
L 250.707294 210.778656 
L 249.234853 210.443575 
L 249.17409 210.429747 
L 247.762411 210.108495 
L 246.28997 209.773414 
L 244.817528 209.438334 
L 244.056957 209.265253 
L 243.345087 209.103254 
L 241.872645 208.768173 
L 240.400204 208.433093 
L 238.939825 208.100758 
L 238.927762 208.098012 
L 237.455321 207.762932 
L 235.982879 207.427852 
L 234.510438 207.092771 
L 233.822692 206.936263 
L 233.037996 206.757691 
L 231.565555 206.422611 
L 230.093114 206.08753 
L 228.70556 205.771768 
L 228.620672 205.75245 
L 227.148231 205.417369 
L 225.675789 205.082289 
L 224.203348 204.747209 
L 223.588427 204.607273 
L 222.730906 204.412128 
L 221.258465 204.077048 
L 219.786023 203.741968 
L 218.471295 203.442778 
L 218.313582 203.406887 
L 216.84114 203.071807 
L 215.368699 202.736726 
L 213.896257 202.401646 
L 213.354162 202.278283 
L 212.423816 202.066566 
L 210.951374 201.731485 
L 209.478933 201.396405 
L 208.237029 201.113788 
L 208.006491 201.061325 
L 206.53405 200.726244 
L 205.061608 200.391164 
L 203.589167 200.056083 
L 203.119897 199.949293 
L 202.116726 199.721003 
L 200.644284 199.385923 
L 199.171843 199.050842 
L 198.002764 198.784798 
L 197.699401 198.715762 
L 196.22696 198.380682 
L 194.754518 198.045601 
L 193.282077 197.710521 
L 192.885632 197.620303 
L 191.809635 197.37544 
L 190.337194 197.04036 
L 188.864752 196.70528 
L 187.768499 196.455808 
L 187.392311 196.370199 
L 185.919869 196.035119 
L 184.447428 195.700039 
L 182.974986 195.364958 
L 182.651367 195.291313 
L 181.502545 195.029878 
L 180.030103 194.694797 
L 178.557662 194.359717 
L 177.534234 194.126818 
L 177.085221 194.024637 
L 175.612779 193.689556 
L 174.140338 193.354476 
L 172.667896 193.019396 
L 172.417101 192.962323 
L 171.195455 192.684315 
L 169.723013 192.349235 
L 168.250572 192.014154 
L 167.299969 191.797828 
L 166.77813 191.679074 
L 165.305689 191.343994 
L 163.833247 191.008913 
L 162.360806 190.673833 
L 162.182836 190.633333 
L 160.888364 190.338753 
L 159.415923 190.003672 
L 157.943481 189.668592 
L 157.065704 189.468838 
L 156.47104 189.333511 
L 154.998598 188.998431 
L 153.526157 188.663351 
L 152.053716 188.32827 
L 151.948571 188.304343 
L 150.581274 187.99319 
L 149.108833 187.65811 
L 147.636391 187.323029 
L 146.831439 187.139848 
L 146.16395 186.987949 
L 144.691508 186.652868 
L 143.219067 186.317788 
L 141.746625 185.982708 
L 141.714306 185.975353 
L 140.274184 185.647627 
L 138.801742 185.312547 
L 137.329301 184.977467 
L 136.597173 184.810858 
L 135.856859 184.642386 
L 134.384418 184.307306 
L 132.911976 183.972225 
L 131.480041 183.646363 
L 131.439535 183.637145 
L 129.967093 183.302065 
L 128.494652 182.966984 
L 127.02221 182.631904 
L 126.362908 182.481868 
L 125.549769 182.296824 
L 124.077328 181.961743 
L 122.604886 181.626663 
L 121.245776 181.317373 
L 121.132445 181.291582 
L 119.660003 180.956502 
L 118.187562 180.621422 
L 116.71512 180.286341 
L 116.128643 180.152878 
L 115.242679 179.951261 
L 113.770237 179.616181 
L 112.297796 179.2811 
L 111.011511 178.988383 
L 110.825354 178.94602 
L 109.352913 178.610939 
L 107.880471 178.275859 
L 106.40803 177.940779 
L 105.894378 177.823888 
L 104.935588 177.605698 
L 103.463147 177.270618 
L 101.990705 176.935538 
L 100.777245 176.659393 
L 100.518264 176.600457 
L 99.045823 176.265377 
L 97.573381 175.930296 
L 96.10094 175.595216 
L 95.660113 175.494898 
L 94.628498 175.260136 
L 93.156057 174.925055 
L 91.683615 174.589975 
L 90.54298 174.330403 
L 90.211174 174.254894 
L 88.738732 173.919814 
L 87.266291 173.584734 
L 85.793849 173.249653 
L 85.425848 173.165908 
L 84.321408 172.914573 
L 82.848966 172.579493 
L 81.376525 172.244412 
L 80.308715 172.001413 
L 79.904083 171.909332 
L 78.431642 171.574251 
L 76.9592 171.239171 
L 75.486759 170.904091 
L 75.191583 170.836918 
L 74.014318 170.56901 
L 72.541876 170.23393 
L 71.069435 169.89885 
L 70.07445 169.672423 
L 69.596993 169.563769 
L 68.124552 169.228689 
L 66.65211 168.893608 
L 65.179669 168.558528 
L 64.957317 168.507928 
L 63.707227 168.223448 
L 62.234786 167.888367 
L 60.762344 167.553287 
L 59.840185 167.343433 
L 59.289903 167.218207 
L 57.817461 166.883126 
L 56.34502 166.548046 
L 54.872578 166.212965 
L 54.723052 166.178938 
L 53.400137 165.877885 
L 51.927695 165.542805 
L 50.455254 165.207724 
L 49.60592 165.014443 
L 48.982813 164.872644 
L 48.982813 165.014443 
L 48.982813 166.178938 
L 48.982813 167.343433 
L 48.982813 168.507928 
L 48.982813 169.672423 
L 48.982813 170.836918 
L 48.982813 172.001413 
L 48.982813 173.165908 
L 48.982813 174.330403 
L 48.982813 175.494898 
L 48.982813 176.659393 
L 48.982813 177.823888 
L 48.982813 178.988383 
L 48.982813 180.152878 
L 48.982813 181.317373 
L 48.982813 182.481868 
L 48.982813 183.646363 
L 48.982813 184.810858 
L 48.982813 185.975353 
L 48.982813 187.139848 
L 48.982813 188.304343 
L 48.982813 189.468838 
L 48.982813 190.633333 
L 48.982813 191.797828 
L 48.982813 192.962323 
L 48.982813 194.126818 
L 48.982813 195.291313 
L 48.982813 196.455808 
L 48.982813 197.620303 
L 48.982813 198.784798 
L 48.982813 199.949293 
L 48.982813 201.113788 
L 48.982813 202.278283 
L 48.982813 203.442778 
L 48.982813 204.607273 
L 48.982813 205.771768 
L 48.982813 206.936263 
L 48.982813 208.100758 
L 48.982813 209.265253 
L 48.982813 210.429747 
L 48.982813 211.594242 
L 48.982813 212.758737 
L 48.982813 213.923232 
L 48.982813 215.087727 
L 48.982813 216.252222 
L 48.982813 217.416717 
L 48.982813 218.581212 
L 48.982813 219.745707 
L 48.982813 220.910202 
L 48.982813 222.074697 
L 48.982813 223.239192 
L 48.982813 224.403687 
L 48.982813 225.568182 
L 48.982813 226.732677 
L 48.982813 227.897172 
L 48.982813 229.061667 
L 48.982813 230.226162 
L 48.982813 231.390657 
L 48.982813 232.555152 
L 48.982813 233.719647 
L 48.982813 234.884142 
L 48.982813 236.048637 
L 48.982813 237.213132 
L 48.982813 238.377627 
L 48.982813 239.542122 
L 48.982813 240.706617 
L 48.982813 241.871112 
L 48.982813 243.035607 
L 48.982813 244.200102 
L 48.982813 245.364597 
L 48.982813 246.529092 
L 48.982813 247.693587 
L 48.982813 248.858082 
L 48.982813 250.022577 
L 48.982813 251.187072 
L 48.982813 252.351567 
L 48.982813 253.516062 
L 48.982813 254.680557 
L 48.982813 255.845052 
L 48.982813 257.009547 
L 48.982813 258.174042 
L 48.982813 259.338537 
L 48.982813 260.503032 
L 48.982813 261.667527 
L 48.982813 262.832022 
L 48.982813 263.996517 
L 48.982813 265.161012 
L 48.982813 266.325507 
L 48.982813 267.490002 
L 48.982813 268.654497 
L 48.982813 269.818992 
L 48.982813 270.983487 
L 48.982813 272.147982 
L 48.982813 273.312477 
L 48.982813 274.476972 
L 48.982813 275.641467 
L 48.982813 276.805962 
L 48.982813 277.970457 
L 48.982813 279.134952 
L 48.982813 280.299446 
L 48.982813 281.463941 
L 48.982813 282.628436 
L 48.982813 283.792931 
L 48.982813 284.957426 
L 48.982813 286.121921 
L 48.982813 287.286416 
L 48.982813 288.450911 
L 48.982813 289.615406 
L 48.982813 290.779901 
L 48.982813 291.944396 
L 48.982813 293.108891 
L 48.982813 294.273386 
L 48.982813 295.437881 
L 48.982813 296.602376 
L 48.982813 297.766871 
L 48.982813 298.931366 
L 48.982813 300.095861 
L 48.982813 301.260356 
L 48.982813 302.424851 
L 48.982813 303.589346 
L 48.982813 304.753841 
L 48.982813 305.918336 
L 48.982813 307.082831 
L 48.982813 308.247326 
L 48.982813 309.411821 
L 48.982813 310.576316 
L 48.982813 311.740811 
L 48.982813 312.905306 
L 48.982813 314.069801 
L 48.982813 315.234296 
L 48.982813 316.398791 
L 48.982813 317.563286 
L 48.982813 318.727781 
L 48.982813 319.892276 
L 48.982813 321.056771 
L 48.982813 322.221266 
L 48.982813 323.385761 
L 48.982813 324.550256 
L 48.982813 325.714751 
L 48.982813 326.879246 
L 48.982813 328.043741 
L 48.982813 329.208236 
L 48.982813 330.372731 
L 48.982813 331.537226 
L 48.982813 332.701721 
L 48.982813 333.866216 
L 48.982813 335.030711 
L 48.982813 336.195206 
L 48.982813 337.359701 
L 48.982813 338.524196 
L 48.982813 339.688691 
L 48.982813 340.853186 
L 48.982813 342.017681 
L 48.982813 343.182176 
L 48.982813 344.346671 
L 48.982813 345.511166 
L 48.982813 346.675661 
L 48.982813 347.840156 
L 48.982813 349.004651 
L 48.982813 350.169145 
L 48.982813 351.33364 
L 48.982813 352.498135 
L 48.982813 353.66263 
L 48.982813 354.827125 
L 48.982813 355.99162 
L 48.982813 357.156115 
L 48.982813 358.32061 
L 48.982813 359.485105 
L 48.982813 360.6496 
L 48.982813 361.814095 
L 48.982813 362.97859 
L 48.982813 364.143085 
L 48.982813 365.30758 
L 48.982813 366.472075 
L 48.982813 367.63657 
L 48.982813 368.801065 
L 48.982813 369.96556 
L 48.982813 371.130055 
L 48.982813 372.29455 
L 48.982813 373.459045 
L 48.982813 374.62354 
L 48.982813 375.788035 
L 48.982813 376.95253 
L 48.982813 378.117025 
L 48.982813 379.28152 
L 48.982813 380.446015 
L 48.982813 381.61051 
L 48.982813 382.775005 
L 48.982813 383.9395 
z
" clip-path="url(#pc00429dfc9)" style="fill: #e15759; fill-opacity: 0.15"/>
   </g>
   <g id="PathCollection_1">
    <defs>
     <path id="C0_0_ccd81802a0" d="M 0 2.95804 
C 0.784481 2.95804 1.536938 2.646362 2.09165 2.09165 
C 2.646362 1.536938 2.95804 0.784481 2.95804 -0 
C 2.95804 -0.784481 2.646362 -1.536938 2.09165 -2.09165 
C 1.536938 -2.646362 0.784481 -2.95804 0 -2.95804 
C -0.784481 -2.95804 -1.536938 -2.646362 -2.09165 -2.09165 
C -2.646362 -1.536938 -2.95804 -0.784481 -2.95804 0 
C -2.95804 0.784481 -2.646362 1.536938 -2.09165 2.09165 
C -1.536938 2.646362 -0.784481 2.95804 0 2.95804 
z
"/>
    </defs>
    <g clip-path="url(#pc00429dfc9)">
     <use xlink:href="#C0_0_ccd81802a0" x="392.897039" y="160.030765" style="fill: #3b4cc0; stroke: #ffffff"/>
    </g>
    <g clip-path="url(#pc00429dfc9)">
     <use xlink:href="#C0_0_ccd81802a0" x="352.023687" y="156.647038" style="fill: #3b4cc0; stroke: #ffffff"/>
    </g>
    <g clip-path="url(#pc00429dfc9)">
     <use xlink:href="#C0_0_ccd81802a0" x="234.940346" y="283.573643" style="fill: #b40426; stroke: #ffffff"/>
    </g>
    <g clip-path="url(#pc00429dfc9)">
     <use xlink:href="#C0_0_ccd81802a0" x="238.197022" y="306.758424" style="fill: #b40426; stroke: #ffffff"/>
    </g>
    <g clip-path="url(#pc00429dfc9)">
     <use xlink:href="#C0_0_ccd81802a0" x="362.752359" y="103.212403" style="fill: #3b4cc0; stroke: #ffffff"/>
    </g>
    <g clip-path="url(#pc00429dfc9)">
     <use xlink:href="#C0_0_ccd81802a0" x="352.941954" y="160.007645" style="fill: #3b4cc0; stroke: #ffffff"/>
    </g>
    <g clip-path="url(#pc00429dfc9)">
     <use xlink:href="#C0_0_ccd81802a0" x="414.608774" y="145.466198" style="fill: #3b4cc0; stroke: #ffffff"/>
    </g>
    <g clip-path="url(#pc00429dfc9)">
     <use xlink:href="#C0_0_ccd81802a0" x="220.012144" y="124.9019" style="fill: #3b4cc0; stroke: #ffffff"/>
    </g>
    <g clip-path="url(#pc00429dfc9)">
     <use xlink:href="#C0_0_ccd81802a0" x="410.749391" y="106.548633" style="fill: #3b4cc0; stroke: #ffffff"/>
    </g>
    <g clip-path="url(#pc00429dfc9)">
     <use xlink:href="#C0_0_ccd81802a0" x="213.646594" y="347.132363" style="fill: #b40426; stroke: #ffffff"/>
    </g>
    <g clip-path="url(#pc00429dfc9)">
     <use xlink:href="#C0_0_ccd81802a0" x="328.162259" y="133.918076" style="fill: #3b4cc0; stroke: #ffffff"/>
    </g>
    <g clip-path="url(#pc00429dfc9)">
     <use xlink:href="#C0_0_ccd81802a0" x="277.634544" y="308.824879" style="fill: #b40426; stroke: #ffffff"/>
    </g>
    <g clip-path="url(#pc00429dfc9)">
     <use xlink:href="#C0_0_ccd81802a0" x="200.84921" y="280.221048" style="fill: #b40426; stroke: #ffffff"/>
    </g>
    <g clip-path="url(#pc00429dfc9)">
     <use xlink:href="#C0_0_ccd81802a0" x="353.088765" y="165.383266" style="fill: #3b4cc0; stroke: #ffffff"/>
    </g>
    <g clip-path="url(#pc00429dfc9)">
     <use xlink:href="#C0_0_ccd81802a0" x="212.025908" y="317.765325" style="fill: #b40426; stroke: #ffffff"/>
    </g>
    <g clip-path="url(#pc00429dfc9)">
     <use xlink:href="#C0_0_ccd81802a0" x="320.690427" y="112.628635" style="fill: #3b4cc0; stroke: #ffffff"/>
    </g>
    <g clip-path="url(#pc00429dfc9)">
     <use xlink:href="#C0_0_ccd81802a0" x="292.167533" y="338.008837" style="fill: #b40426; stroke: #ffffff"/>
    </g>
    <g clip-path="url(#pc00429dfc9)">
     <use xlink:href="#C0_0_ccd81802a0" x="310.655287" y="117.32327" style="fill: #3b4cc0; stroke: #ffffff"/>
    </g>
    <g clip-path="url(#pc00429dfc9)">
     <use xlink:href="#C0_0_ccd81802a0" x="372.577526" y="170.893705" style="fill: #3b4cc0; stroke: #ffffff"/>
    </g>
    <g clip-path="url(#pc00429dfc9)">
     <use xlink:href="#C0_0_ccd81802a0" x="228.59793" y="325.364562" style="fill: #b40426; stroke: #ffffff"/>
    </g>
    <g clip-path="url(#pc00429dfc9)">
     <use xlink:href="#C0_0_ccd81802a0" x="234.287697" y="323.326868" style="fill: #b40426; stroke: #ffffff"/>
    </g>
    <g clip-path="url(#pc00429dfc9)">
     <use xlink:href="#C0_0_ccd81802a0" x="264.412236" y="320.724243" style="fill: #b40426; stroke: #ffffff"/>
    </g>
    <g clip-path="url(#pc00429dfc9)">
     <use xlink:href="#C0_0_ccd81802a0" x="321.65214" y="106.068213" style="fill: #3b4cc0; stroke: #ffffff"/>
    </g>
    <g clip-path="url(#pc00429dfc9)">
     <use xlink:href="#C0_0_ccd81802a0" x="348.540276" y="94.253576" style="fill: #3b4cc0; stroke: #ffffff"/>
    </g>
    <g clip-path="url(#pc00429dfc9)">
     <use xlink:href="#C0_0_ccd81802a0" x="164.07898" y="315.356402" style="fill: #b40426; stroke: #ffffff"/>
    </g>
    <g clip-path="url(#pc00429dfc9)">
     <use xlink:href="#C0_0_ccd81802a0" x="201.723905" y="99.717907" style="fill: #3b4cc0; stroke: #ffffff"/>
    </g>
    <g clip-path="url(#pc00429dfc9)">
     <use xlink:href="#C0_0_ccd81802a0" x="246.606772" y="315.529201" style="fill: #b40426; stroke: #ffffff"/>
    </g>
    <g clip-path="url(#pc00429dfc9)">
     <use xlink:href="#C0_0_ccd81802a0" x="323.490502" y="177.439511" style="fill: #3b4cc0; stroke: #ffffff"/>
    </g>
    <g clip-path="url(#pc00429dfc9)">
     <use xlink:href="#C0_0_ccd81802a0" x="268.849077" y="333.829324" style="fill: #b40426; stroke: #ffffff"/>
    </g>
    <g clip-path="url(#pc00429dfc9)">
     <use xlink:href="#C0_0_ccd81802a0" x="267.517666" y="301.385815" style="fill: #b40426; stroke: #ffffff"/>
    </g>
    <g clip-path="url(#pc00429dfc9)">
     <use xlink:href="#C0_0_ccd81802a0" x="299.763148" y="181.296545" style="fill: #3b4cc0; stroke: #ffffff"/>
    </g>
    <g clip-path="url(#pc00429dfc9)">
     <use xlink:href="#C0_0_ccd81802a0" x="357.289254" y="98.812806" style="fill: #3b4cc0; stroke: #ffffff"/>
    </g>
    <g clip-path="url(#pc00429dfc9)">
     <use xlink:href="#C0_0_ccd81802a0" x="348.269901" y="152.736212" style="fill: #3b4cc0; stroke: #ffffff"/>
    </g>
    <g clip-path="url(#pc00429dfc9)">
     <use xlink:href="#C0_0_ccd81802a0" x="153.117434" y="284.996473" style="fill: #b40426; stroke: #ffffff"/>
    </g>
    <g clip-path="url(#pc00429dfc9)">
     <use xlink:href="#C0_0_ccd81802a0" x="348.335839" y="69.085914" style="fill: #3b4cc0; stroke: #ffffff"/>
    </g>
    <g clip-path="url(#pc00429dfc9)">
     <use xlink:href="#C0_0_ccd81802a0" x="361.108264" y="286.947997" style="fill: #b40426; stroke: #ffffff"/>
    </g>
    <g clip-path="url(#pc00429dfc9)">
     <use xlink:href="#C0_0_ccd81802a0" x="260.042037" y="146.615346" style="fill: #3b4cc0; stroke: #ffffff"/>
    </g>
    <g clip-path="url(#pc00429dfc9)">
     <use xlink:href="#C0_0_ccd81802a0" x="341.267946" y="161.447357" style="fill: #3b4cc0; stroke: #ffffff"/>
    </g>
    <g clip-path="url(#pc00429dfc9)">
     <use xlink:href="#C0_0_ccd81802a0" x="465.790518" y="110.325366" style="fill: #3b4cc0; stroke: #ffffff"/>
    </g>
    <g clip-path="url(#pc00429dfc9)">
     <use xlink:href="#C0_0_ccd81802a0" x="297.203443" y="337.71192" style="fill: #b40426; stroke: #ffffff"/>
    </g>
    <g clip-path="url(#pc00429dfc9)">
     <use xlink:href="#C0_0_ccd81802a0" x="307.940912" y="335.781497" style="fill: #b40426; stroke: #ffffff"/>
    </g>
    <g clip-path="url(#pc00429dfc9)">
     <use xlink:href="#C0_0_ccd81802a0" x="211.474259" y="314.478486" style="fill: #b40426; stroke: #ffffff"/>
    </g>
    <g clip-path="url(#pc00429dfc9)">
     <use xlink:href="#C0_0_ccd81802a0" x="201.722948" y="328.58113" style="fill: #b40426; stroke: #ffffff"/>
    </g>
    <g clip-path="url(#pc00429dfc9)">
     <use xlink:href="#C0_0_ccd81802a0" x="305.705178" y="51.237578" style="fill: #3b4cc0; stroke: #ffffff"/>
    </g>
    <g clip-path="url(#pc00429dfc9)">
     <use xlink:href="#C0_0_ccd81802a0" x="333.957279" y="136.10753" style="fill: #3b4cc0; stroke: #ffffff"/>
    </g>
    <g clip-path="url(#pc00429dfc9)">
     <use xlink:href="#C0_0_ccd81802a0" x="306.011548" y="122.86346" style="fill: #3b4cc0; stroke: #ffffff"/>
    </g>
    <g clip-path="url(#pc00429dfc9)">
     <use xlink:href="#C0_0_ccd81802a0" x="383.515576" y="321.263205" style="fill: #b40426; stroke: #ffffff"/>
    </g>
    <g clip-path="url(#pc00429dfc9)">
     <use xlink:href="#C0_0_ccd81802a0" x="339.12518" y="93.540379" style="fill: #3b4cc0; stroke: #ffffff"/>
    </g>
    <g clip-path="url(#pc00429dfc9)">
     <use xlink:href="#C0_0_ccd81802a0" x="333.527574" y="273.136428" style="fill: #b40426; stroke: #ffffff"/>
    </g>
    <g clip-path="url(#pc00429dfc9)">
     <use xlink:href="#C0_0_ccd81802a0" x="296.024162" y="325.846811" style="fill: #b40426; stroke: #ffffff"/>
    </g>
    <g clip-path="url(#pc00429dfc9)">
     <use xlink:href="#C0_0_ccd81802a0" x="259.757022" y="303.977765" style="fill: #b40426; stroke: #ffffff"/>
    </g>
    <g clip-path="url(#pc00429dfc9)">
     <use xlink:href="#C0_0_ccd81802a0" x="220.279347" y="159.244171" style="fill: #3b4cc0; stroke: #ffffff"/>
    </g>
    <g clip-path="url(#pc00429dfc9)">
     <use xlink:href="#C0_0_ccd81802a0" x="239.860603" y="315.426462" style="fill: #b40426; stroke: #ffffff"/>
    </g>
    <g clip-path="url(#pc00429dfc9)">
     <use xlink:href="#C0_0_ccd81802a0" x="268.762532" y="324.045333" style="fill: #b40426; stroke: #ffffff"/>
    </g>
    <g clip-path="url(#pc00429dfc9)">
     <use xlink:href="#C0_0_ccd81802a0" x="379.106746" y="115.772498" style="fill: #3b4cc0; stroke: #ffffff"/>
    </g>
    <g clip-path="url(#pc00429dfc9)">
     <use xlink:href="#C0_0_ccd81802a0" x="388.180378" y="182.394657" style="fill: #3b4cc0; stroke: #ffffff"/>
    </g>
    <g clip-path="url(#pc00429dfc9)">
     <use xlink:href="#C0_0_ccd81802a0" x="405.823494" y="71.234249" style="fill: #3b4cc0; stroke: #ffffff"/>
    </g>
    <g clip-path="url(#pc00429dfc9)">
     <use xlink:href="#C0_0_ccd81802a0" x="72.435107" y="292.4083" style="fill: #b40426; stroke: #ffffff"/>
    </g>
    <g clip-path="url(#pc00429dfc9)">
     <use xlink:href="#C0_0_ccd81802a0" x="301.060355" y="166.026055" style="fill: #3b4cc0; stroke: #ffffff"/>
    </g>
    <g clip-path="url(#pc00429dfc9)">
     <use xlink:href="#C0_0_ccd81802a0" x="271.792645" y="345.858733" style="fill: #b40426; stroke: #ffffff"/>
    </g>
    <g clip-path="url(#pc00429dfc9)">
     <use xlink:href="#C0_0_ccd81802a0" x="270.710925" y="366.19924" style="fill: #b40426; stroke: #ffffff"/>
    </g>
    <g clip-path="url(#pc00429dfc9)">
     <use xlink:href="#C0_0_ccd81802a0" x="303.212845" y="327.397367" style="fill: #b40426; stroke: #ffffff"/>
    </g>
    <g clip-path="url(#pc00429dfc9)">
     <use xlink:href="#C0_0_ccd81802a0" x="335.09606" y="297.487874" style="fill: #b40426; stroke: #ffffff"/>
    </g>
    <g clip-path="url(#pc00429dfc9)">
     <use xlink:href="#C0_0_ccd81802a0" x="335.763135" y="126.424811" style="fill: #3b4cc0; stroke: #ffffff"/>
    </g>
    <g clip-path="url(#pc00429dfc9)">
     <use xlink:href="#C0_0_ccd81802a0" x="327.592273" y="180.178899" style="fill: #3b4cc0; stroke: #ffffff"/>
    </g>
    <g clip-path="url(#pc00429dfc9)">
     <use xlink:href="#C0_0_ccd81802a0" x="374.259204" y="98.701285" style="fill: #3b4cc0; stroke: #ffffff"/>
    </g>
    <g clip-path="url(#pc00429dfc9)">
     <use xlink:href="#C0_0_ccd81802a0" x="281.168354" y="368.457422" style="fill: #b40426; stroke: #ffffff"/>
    </g>
    <g clip-path="url(#pc00429dfc9)">
     <use xlink:href="#C0_0_ccd81802a0" x="265.492766" y="318.070517" style="fill: #b40426; stroke: #ffffff"/>
    </g>
    <g clip-path="url(#pc00429dfc9)">
     <use xlink:href="#C0_0_ccd81802a0" x="312.699644" y="88.665717" style="fill: #3b4cc0; stroke: #ffffff"/>
    </g>
    <g clip-path="url(#pc00429dfc9)">
     <use xlink:href="#C0_0_ccd81802a0" x="407.565763" y="151.105474" style="fill: #3b4cc0; stroke: #ffffff"/>
    </g>
    <g clip-path="url(#pc00429dfc9)">
     <use xlink:href="#C0_0_ccd81802a0" x="401.49043" y="148.522572" style="fill: #3b4cc0; stroke: #ffffff"/>
    </g>
    <g clip-path="url(#pc00429dfc9)">
     <use xlink:href="#C0_0_ccd81802a0" x="212.881885" y="304.900861" style="fill: #b40426; stroke: #ffffff"/>
    </g>
    <g clip-path="url(#pc00429dfc9)">
     <use xlink:href="#C0_0_ccd81802a0" x="237.837998" y="264.168807" style="fill: #b40426; stroke: #ffffff"/>
    </g>
    <g clip-path="url(#pc00429dfc9)">
     <use xlink:href="#C0_0_ccd81802a0" x="335.934083" y="131.571633" style="fill: #3b4cc0; stroke: #ffffff"/>
    </g>
    <g clip-path="url(#pc00429dfc9)">
     <use xlink:href="#C0_0_ccd81802a0" x="289.777485" y="98.275167" style="fill: #3b4cc0; stroke: #ffffff"/>
    </g>
    <g clip-path="url(#pc00429dfc9)">
     <use xlink:href="#C0_0_ccd81802a0" x="289.814383" y="330.750901" style="fill: #b40426; stroke: #ffffff"/>
    </g>
    <g clip-path="url(#pc00429dfc9)">
     <use xlink:href="#C0_0_ccd81802a0" x="296.744228" y="326.680634" style="fill: #b40426; stroke: #ffffff"/>
    </g>
    <g clip-path="url(#pc00429dfc9)">
     <use xlink:href="#C0_0_ccd81802a0" x="286.174641" y="321.131721" style="fill: #b40426; stroke: #ffffff"/>
    </g>
    <g clip-path="url(#pc00429dfc9)">
     <use xlink:href="#C0_0_ccd81802a0" x="261.822693" y="253.953871" style="fill: #b40426; stroke: #ffffff"/>
    </g>
    <g clip-path="url(#pc00429dfc9)">
     <use xlink:href="#C0_0_ccd81802a0" x="288.026035" y="274.135888" style="fill: #b40426; stroke: #ffffff"/>
    </g>
   </g>
   <g id="PathCollection_2">
    <defs>
     <path id="C1_0_a494011120" d="M 0 5.477226 
C 1.452577 5.477226 2.845856 4.900111 3.872983 3.872983 
C 4.900111 2.845856 5.477226 1.452577 5.477226 -0 
C 5.477226 -1.452577 4.900111 -2.845856 3.872983 -3.872983 
C 2.845856 -4.900111 1.452577 -5.477226 0 -5.477226 
C -1.452577 -5.477226 -2.845856 -4.900111 -3.872983 -3.872983 
C -4.900111 -2.845856 -5.477226 -1.452577 -5.477226 0 
C -5.477226 1.452577 -4.900111 2.845856 -3.872983 3.872983 
C -2.845856 4.900111 -1.452577 5.477226 0 5.477226 
z
"/>
    </defs>
    <g clip-path="url(#pc00429dfc9)">
     <use xlink:href="#C1_0_a494011120" x="299.763148" y="181.296545" style="fill: none; stroke: #000000; stroke-width: 1.5"/>
    </g>
    <g clip-path="url(#pc00429dfc9)">
     <use xlink:href="#C1_0_a494011120" x="261.822693" y="253.953871" style="fill: none; stroke: #000000; stroke-width: 1.5"/>
    </g>
   </g>
   <g id="matplotlib.axis_1">
    <g id="xtick_1">
     <g id="line2d_1">
      <defs>
       <path id="me778bfbc72" d="M 0 0 
L 0 3.5 
" style="stroke: #000000; stroke-width: 0.8"/>
      </defs>
      <g>
       <use xlink:href="#me778bfbc72" x="55.299771" y="383.9395" style="stroke: #000000; stroke-width: 0.8"/>
      </g>
     </g>
     <g id="text_1">
      <!-- 2 -->
      <g transform="translate(52.118521 398.537937) scale(0.1 -0.1)">
       <defs>
        <path id="DejaVuSans-32" d="M 1228 531 
L 3431 531 
L 3431 0 
L 469 0 
L 469 531 
Q 828 903 1448 1529 
Q 2069 2156 2228 2338 
Q 2531 2678 2651 2914 
Q 2772 3150 2772 3378 
Q 2772 3750 2511 3984 
Q 2250 4219 1831 4219 
Q 1534 4219 1204 4116 
Q 875 4013 500 3803 
L 500 4441 
Q 881 4594 1212 4672 
Q 1544 4750 1819 4750 
Q 2544 4750 2975 4387 
Q 3406 4025 3406 3419 
Q 3406 3131 3298 2873 
Q 3191 2616 2906 2266 
Q 2828 2175 2409 1742 
Q 1991 1309 1228 531 
z
" transform="scale(0.015625)"/>
       </defs>
       <use xlink:href="#DejaVuSans-32"/>
      </g>
     </g>
    </g>
    <g id="xtick_2">
     <g id="line2d_2">
      <g>
       <use xlink:href="#me778bfbc72" x="149.108949" y="383.9395" style="stroke: #000000; stroke-width: 0.8"/>
      </g>
     </g>
     <g id="text_2">
      <!-- 4 -->
      <g transform="translate(145.927699 398.537937) scale(0.1 -0.1)">
       <defs>
        <path id="DejaVuSans-34" d="M 2419 4116 
L 825 1625 
L 2419 1625 
L 2419 4116 
z
M 2253 4666 
L 3047 4666 
L 3047 1625 
L 3713 1625 
L 3713 1100 
L 3047 1100 
L 3047 0 
L 2419 0 
L 2419 1100 
L 313 1100 
L 313 1709 
L 2253 4666 
z
" transform="scale(0.015625)"/>
       </defs>
       <use xlink:href="#DejaVuSans-34"/>
      </g>
     </g>
    </g>
    <g id="xtick_3">
     <g id="line2d_3">
      <g>
       <use xlink:href="#me778bfbc72" x="242.918127" y="383.9395" style="stroke: #000000; stroke-width: 0.8"/>
      </g>
     </g>
     <g id="text_3">
      <!-- 6 -->
      <g transform="translate(239.736877 398.537937) scale(0.1 -0.1)">
       <defs>
        <path id="DejaVuSans-36" d="M 2113 2584 
Q 1688 2584 1439 2293 
Q 1191 2003 1191 1497 
Q 1191 994 1439 701 
Q 1688 409 2113 409 
Q 2538 409 2786 701 
Q 3034 994 3034 1497 
Q 3034 2003 2786 2293 
Q 2538 2584 2113 2584 
z
M 3366 4563 
L 3366 3988 
Q 3128 4100 2886 4159 
Q 2644 4219 2406 4219 
Q 1781 4219 1451 3797 
Q 1122 3375 1075 2522 
Q 1259 2794 1537 2939 
Q 1816 3084 2150 3084 
Q 2853 3084 3261 2657 
Q 3669 2231 3669 1497 
Q 3669 778 3244 343 
Q 2819 -91 2113 -91 
Q 1303 -91 875 529 
Q 447 1150 447 2328 
Q 447 3434 972 4092 
Q 1497 4750 2381 4750 
Q 2619 4750 2861 4703 
Q 3103 4656 3366 4563 
z
" transform="scale(0.015625)"/>
       </defs>
       <use xlink:href="#DejaVuSans-36"/>
      </g>
     </g>
    </g>
    <g id="xtick_4">
     <g id="line2d_4">
      <g>
       <use xlink:href="#me778bfbc72" x="336.727305" y="383.9395" style="stroke: #000000; stroke-width: 0.8"/>
      </g>
     </g>
     <g id="text_4">
      <!-- 8 -->
      <g transform="translate(333.546055 398.537937) scale(0.1 -0.1)">
       <defs>
        <path id="DejaVuSans-38" d="M 2034 2216 
Q 1584 2216 1326 1975 
Q 1069 1734 1069 1313 
Q 1069 891 1326 650 
Q 1584 409 2034 409 
Q 2484 409 2743 651 
Q 3003 894 3003 1313 
Q 3003 1734 2745 1975 
Q 2488 2216 2034 2216 
z
M 1403 2484 
Q 997 2584 770 2862 
Q 544 3141 544 3541 
Q 544 4100 942 4425 
Q 1341 4750 2034 4750 
Q 2731 4750 3128 4425 
Q 3525 4100 3525 3541 
Q 3525 3141 3298 2862 
Q 3072 2584 2669 2484 
Q 3125 2378 3379 2068 
Q 3634 1759 3634 1313 
Q 3634 634 3220 271 
Q 2806 -91 2034 -91 
Q 1263 -91 848 271 
Q 434 634 434 1313 
Q 434 1759 690 2068 
Q 947 2378 1403 2484 
z
M 1172 3481 
Q 1172 3119 1398 2916 
Q 1625 2713 2034 2713 
Q 2441 2713 2670 2916 
Q 2900 3119 2900 3481 
Q 2900 3844 2670 4047 
Q 2441 4250 2034 4250 
Q 1625 4250 1398 4047 
Q 1172 3844 1172 3481 
z
" transform="scale(0.015625)"/>
       </defs>
       <use xlink:href="#DejaVuSans-38"/>
      </g>
     </g>
    </g>
    <g id="xtick_5">
     <g id="line2d_5">
      <g>
       <use xlink:href="#me778bfbc72" x="430.536483" y="383.9395" style="stroke: #000000; stroke-width: 0.8"/>
      </g>
     </g>
     <g id="text_5">
      <!-- 10 -->
      <g transform="translate(424.173983 398.537937) scale(0.1 -0.1)">
       <defs>
        <path id="DejaVuSans-31" d="M 794 531 
L 1825 531 
L 1825 4091 
L 703 3866 
L 703 4441 
L 1819 4666 
L 2450 4666 
L 2450 531 
L 3481 531 
L 3481 0 
L 794 0 
L 794 531 
z
" transform="scale(0.015625)"/>
        <path id="DejaVuSans-30" d="M 2034 4250 
Q 1547 4250 1301 3770 
Q 1056 3291 1056 2328 
Q 1056 1369 1301 889 
Q 1547 409 2034 409 
Q 2525 409 2770 889 
Q 3016 1369 3016 2328 
Q 3016 3291 2770 3770 
Q 2525 4250 2034 4250 
z
M 2034 4750 
Q 2819 4750 3233 4129 
Q 3647 3509 3647 2328 
Q 3647 1150 3233 529 
Q 2819 -91 2034 -91 
Q 1250 -91 836 529 
Q 422 1150 422 2328 
Q 422 3509 836 4129 
Q 1250 4750 2034 4750 
z
" transform="scale(0.015625)"/>
       </defs>
       <use xlink:href="#DejaVuSans-31"/>
       <use xlink:href="#DejaVuSans-30" transform="translate(63.623047 0)"/>
      </g>
     </g>
    </g>
    <g id="text_6">
     <!-- x1 -->
     <g transform="translate(262.972187 412.216062) scale(0.1 -0.1)">
      <defs>
       <path id="DejaVuSans-78" d="M 3513 3500 
L 2247 1797 
L 3578 0 
L 2900 0 
L 1881 1375 
L 863 0 
L 184 0 
L 1544 1831 
L 300 3500 
L 978 3500 
L 1906 2253 
L 2834 3500 
L 3513 3500 
z
" transform="scale(0.015625)"/>
      </defs>
      <use xlink:href="#DejaVuSans-78"/>
      <use xlink:href="#DejaVuSans-31" transform="translate(59.179688 0)"/>
     </g>
    </g>
   </g>
   <g id="matplotlib.axis_2">
    <g id="ytick_1">
     <g id="line2d_6">
      <defs>
       <path id="mb3e2e96235" d="M 0 0 
L -3.5 0 
" style="stroke: #000000; stroke-width: 0.8"/>
      </defs>
      <g>
       <use xlink:href="#mb3e2e96235" x="48.982813" y="336.413266" style="stroke: #000000; stroke-width: 0.8"/>
      </g>
     </g>
     <g id="text_7">
      <!-- −10 -->
      <g transform="translate(20.878125 340.212485) scale(0.1 -0.1)">
       <defs>
        <path id="DejaVuSans-2212" d="M 678 2272 
L 4684 2272 
L 4684 1741 
L 678 1741 
L 678 2272 
z
" transform="scale(0.015625)"/>
       </defs>
       <use xlink:href="#DejaVuSans-2212"/>
       <use xlink:href="#DejaVuSans-31" transform="translate(83.789062 0)"/>
       <use xlink:href="#DejaVuSans-30" transform="translate(147.412109 0)"/>
      </g>
     </g>
    </g>
    <g id="ytick_2">
     <g id="line2d_7">
      <g>
       <use xlink:href="#mb3e2e96235" x="48.982813" y="274.484954" style="stroke: #000000; stroke-width: 0.8"/>
      </g>
     </g>
     <g id="text_8">
      <!-- −8 -->
      <g transform="translate(27.240625 278.284173) scale(0.1 -0.1)">
       <use xlink:href="#DejaVuSans-2212"/>
       <use xlink:href="#DejaVuSans-38" transform="translate(83.789062 0)"/>
      </g>
     </g>
    </g>
    <g id="ytick_3">
     <g id="line2d_8">
      <g>
       <use xlink:href="#mb3e2e96235" x="48.982813" y="212.556642" style="stroke: #000000; stroke-width: 0.8"/>
      </g>
     </g>
     <g id="text_9">
      <!-- −6 -->
      <g transform="translate(27.240625 216.355861) scale(0.1 -0.1)">
       <use xlink:href="#DejaVuSans-2212"/>
       <use xlink:href="#DejaVuSans-36" transform="translate(83.789062 0)"/>
      </g>
     </g>
    </g>
    <g id="ytick_4">
     <g id="line2d_9">
      <g>
       <use xlink:href="#mb3e2e96235" x="48.982813" y="150.62833" style="stroke: #000000; stroke-width: 0.8"/>
      </g>
     </g>
     <g id="text_10">
      <!-- −4 -->
      <g transform="translate(27.240625 154.427548) scale(0.1 -0.1)">
       <use xlink:href="#DejaVuSans-2212"/>
       <use xlink:href="#DejaVuSans-34" transform="translate(83.789062 0)"/>
      </g>
     </g>
    </g>
    <g id="ytick_5">
     <g id="line2d_10">
      <g>
       <use xlink:href="#mb3e2e96235" x="48.982813" y="88.700017" style="stroke: #000000; stroke-width: 0.8"/>
      </g>
     </g>
     <g id="text_11">
      <!-- −2 -->
      <g transform="translate(27.240625 92.499236) scale(0.1 -0.1)">
       <use xlink:href="#DejaVuSans-2212"/>
       <use xlink:href="#DejaVuSans-32" transform="translate(83.789062 0)"/>
      </g>
     </g>
    </g>
    <g id="text_12">
     <!-- x2 -->
     <g transform="translate(14.798438 215.988125) rotate(-90) scale(0.1 -0.1)">
      <use xlink:href="#DejaVuSans-78"/>
      <use xlink:href="#DejaVuSans-32" transform="translate(59.179688 0)"/>
     </g>
    </g>
   </g>
   <g id="QuadContourSet_2">
    <path d="M 489.242812 224.416009 
L 48.982812 124.226976 
L 48.982812 124.226976 
" clip-path="url(#pc00429dfc9)" style="fill: none; stroke-dasharray: 3.7,1.6; stroke-dashoffset: 0; stroke: #000000"/>
    <path d="M 489.242812 265.061676 
L 48.982813 164.872644 
L 48.982813 164.872644 
" clip-path="url(#pc00429dfc9)" style="fill: none; stroke: #000000; stroke-width: 1.6"/>
    <path d="M 489.242812 305.707344 
L 48.982813 205.518312 
L 48.982813 205.518312 
" clip-path="url(#pc00429dfc9)" style="fill: none; stroke-dasharray: 3.7,1.6; stroke-dashoffset: 0; stroke: #000000"/>
   </g>
   <g id="patch_3">
    <path d="M 48.982813 383.9395 
L 48.982813 35.7555 
" style="fill: none; stroke: #000000; stroke-width: 0.8; stroke-linejoin: miter; stroke-linecap: square"/>
   </g>
   <g id="patch_4">
    <path d="M 489.242812 383.9395 
L 489.242812 35.7555 
" style="fill: none; stroke: #000000; stroke-width: 0.8; stroke-linejoin: miter; stroke-linecap: square"/>
   </g>
   <g id="patch_5">
    <path d="M 48.982813 383.9395 
L 489.242812 383.9395 
" style="fill: none; stroke: #000000; stroke-width: 0.8; stroke-linejoin: miter; stroke-linecap: square"/>
   </g>
   <g id="patch_6">
    <path d="M 48.982813 35.7555 
L 489.242812 35.7555 
" style="fill: none; stroke: #000000; stroke-width: 0.8; stroke-linejoin: miter; stroke-linecap: square"/>
   </g>
   <g id="text_13">
    <!-- Linear SVM: maximize margin between classes -->
    <g transform="translate(127.908437 16.318125) scale(0.12 -0.12)">
     <defs>
      <path id="DejaVuSans-4c" d="M 628 4666 
L 1259 4666 
L 1259 531 
L 3531 531 
L 3531 0 
L 628 0 
L 628 4666 
z
" transform="scale(0.015625)"/>
      <path id="DejaVuSans-69" d="M 603 3500 
L 1178 3500 
L 1178 0 
L 603 0 
L 603 3500 
z
M 603 4863 
L 1178 4863 
L 1178 4134 
L 603 4134 
L 603 4863 
z
" transform="scale(0.015625)"/>
      <path id="DejaVuSans-6e" d="M 3513 2113 
L 3513 0 
L 2938 0 
L 2938 2094 
Q 2938 2591 2744 2837 
Q 2550 3084 2163 3084 
Q 1697 3084 1428 2787 
Q 1159 2491 1159 1978 
L 1159 0 
L 581 0 
L 581 3500 
L 1159 3500 
L 1159 2956 
Q 1366 3272 1645 3428 
Q 1925 3584 2291 3584 
Q 2894 3584 3203 3211 
Q 3513 2838 3513 2113 
z
" transform="scale(0.015625)"/>
      <path id="DejaVuSans-65" d="M 3597 1894 
L 3597 1613 
L 953 1613 
Q 991 1019 1311 708 
Q 1631 397 2203 397 
Q 2534 397 2845 478 
Q 3156 559 3463 722 
L 3463 178 
Q 3153 47 2828 -22 
Q 2503 -91 2169 -91 
Q 1331 -91 842 396 
Q 353 884 353 1716 
Q 353 2575 817 3079 
Q 1281 3584 2069 3584 
Q 2775 3584 3186 3129 
Q 3597 2675 3597 1894 
z
M 3022 2063 
Q 3016 2534 2758 2815 
Q 2500 3097 2075 3097 
Q 1594 3097 1305 2825 
Q 1016 2553 972 2059 
L 3022 2063 
z
" transform="scale(0.015625)"/>
      <path id="DejaVuSans-61" d="M 2194 1759 
Q 1497 1759 1228 1600 
Q 959 1441 959 1056 
Q 959 750 1161 570 
Q 1363 391 1709 391 
Q 2188 391 2477 730 
Q 2766 1069 2766 1631 
L 2766 1759 
L 2194 1759 
z
M 3341 1997 
L 3341 0 
L 2766 0 
L 2766 531 
Q 2569 213 2275 61 
Q 1981 -91 1556 -91 
Q 1019 -91 701 211 
Q 384 513 384 1019 
Q 384 1609 779 1909 
Q 1175 2209 1959 2209 
L 2766 2209 
L 2766 2266 
Q 2766 2663 2505 2880 
Q 2244 3097 1772 3097 
Q 1472 3097 1187 3025 
Q 903 2953 641 2809 
L 641 3341 
Q 956 3463 1253 3523 
Q 1550 3584 1831 3584 
Q 2591 3584 2966 3190 
Q 3341 2797 3341 1997 
z
" transform="scale(0.015625)"/>
      <path id="DejaVuSans-72" d="M 2631 2963 
Q 2534 3019 2420 3045 
Q 2306 3072 2169 3072 
Q 1681 3072 1420 2755 
Q 1159 2438 1159 1844 
L 1159 0 
L 581 0 
L 581 3500 
L 1159 3500 
L 1159 2956 
Q 1341 3275 1631 3429 
Q 1922 3584 2338 3584 
Q 2397 3584 2469 3576 
Q 2541 3569 2628 3553 
L 2631 2963 
z
" transform="scale(0.015625)"/>
      <path id="DejaVuSans-20" transform="scale(0.015625)"/>
      <path id="DejaVuSans-53" d="M 3425 4513 
L 3425 3897 
Q 3066 4069 2747 4153 
Q 2428 4238 2131 4238 
Q 1616 4238 1336 4038 
Q 1056 3838 1056 3469 
Q 1056 3159 1242 3001 
Q 1428 2844 1947 2747 
L 2328 2669 
Q 3034 2534 3370 2195 
Q 3706 1856 3706 1288 
Q 3706 609 3251 259 
Q 2797 -91 1919 -91 
Q 1588 -91 1214 -16 
Q 841 59 441 206 
L 441 856 
Q 825 641 1194 531 
Q 1563 422 1919 422 
Q 2459 422 2753 634 
Q 3047 847 3047 1241 
Q 3047 1584 2836 1778 
Q 2625 1972 2144 2069 
L 1759 2144 
Q 1053 2284 737 2584 
Q 422 2884 422 3419 
Q 422 4038 858 4394 
Q 1294 4750 2059 4750 
Q 2388 4750 2728 4690 
Q 3069 4631 3425 4513 
z
" transform="scale(0.015625)"/>
      <path id="DejaVuSans-56" d="M 1831 0 
L 50 4666 
L 709 4666 
L 2188 738 
L 3669 4666 
L 4325 4666 
L 2547 0 
L 1831 0 
z
" transform="scale(0.015625)"/>
      <path id="DejaVuSans-4d" d="M 628 4666 
L 1569 4666 
L 2759 1491 
L 3956 4666 
L 4897 4666 
L 4897 0 
L 4281 0 
L 4281 4097 
L 3078 897 
L 2444 897 
L 1241 4097 
L 1241 0 
L 628 0 
L 628 4666 
z
" transform="scale(0.015625)"/>
      <path id="DejaVuSans-3a" d="M 750 794 
L 1409 794 
L 1409 0 
L 750 0 
L 750 794 
z
M 750 3309 
L 1409 3309 
L 1409 2516 
L 750 2516 
L 750 3309 
z
" transform="scale(0.015625)"/>
      <path id="DejaVuSans-6d" d="M 3328 2828 
Q 3544 3216 3844 3400 
Q 4144 3584 4550 3584 
Q 5097 3584 5394 3201 
Q 5691 2819 5691 2113 
L 5691 0 
L 5113 0 
L 5113 2094 
Q 5113 2597 4934 2840 
Q 4756 3084 4391 3084 
Q 3944 3084 3684 2787 
Q 3425 2491 3425 1978 
L 3425 0 
L 2847 0 
L 2847 2094 
Q 2847 2600 2669 2842 
Q 2491 3084 2119 3084 
Q 1678 3084 1418 2786 
Q 1159 2488 1159 1978 
L 1159 0 
L 581 0 
L 581 3500 
L 1159 3500 
L 1159 2956 
Q 1356 3278 1631 3431 
Q 1906 3584 2284 3584 
Q 2666 3584 2933 3390 
Q 3200 3197 3328 2828 
z
" transform="scale(0.015625)"/>
      <path id="DejaVuSans-7a" d="M 353 3500 
L 3084 3500 
L 3084 2975 
L 922 459 
L 3084 459 
L 3084 0 
L 275 0 
L 275 525 
L 2438 3041 
L 353 3041 
L 353 3500 
z
" transform="scale(0.015625)"/>
      <path id="DejaVuSans-67" d="M 2906 1791 
Q 2906 2416 2648 2759 
Q 2391 3103 1925 3103 
Q 1463 3103 1205 2759 
Q 947 2416 947 1791 
Q 947 1169 1205 825 
Q 1463 481 1925 481 
Q 2391 481 2648 825 
Q 2906 1169 2906 1791 
z
M 3481 434 
Q 3481 -459 3084 -895 
Q 2688 -1331 1869 -1331 
Q 1566 -1331 1297 -1286 
Q 1028 -1241 775 -1147 
L 775 -588 
Q 1028 -725 1275 -790 
Q 1522 -856 1778 -856 
Q 2344 -856 2625 -561 
Q 2906 -266 2906 331 
L 2906 616 
Q 2728 306 2450 153 
Q 2172 0 1784 0 
Q 1141 0 747 490 
Q 353 981 353 1791 
Q 353 2603 747 3093 
Q 1141 3584 1784 3584 
Q 2172 3584 2450 3431 
Q 2728 3278 2906 2969 
L 2906 3500 
L 3481 3500 
L 3481 434 
z
" transform="scale(0.015625)"/>
      <path id="DejaVuSans-62" d="M 3116 1747 
Q 3116 2381 2855 2742 
Q 2594 3103 2138 3103 
Q 1681 3103 1420 2742 
Q 1159 2381 1159 1747 
Q 1159 1113 1420 752 
Q 1681 391 2138 391 
Q 2594 391 2855 752 
Q 3116 1113 3116 1747 
z
M 1159 2969 
Q 1341 3281 1617 3432 
Q 1894 3584 2278 3584 
Q 2916 3584 3314 3078 
Q 3713 2572 3713 1747 
Q 3713 922 3314 415 
Q 2916 -91 2278 -91 
Q 1894 -91 1617 61 
Q 1341 213 1159 525 
L 1159 0 
L 581 0 
L 581 4863 
L 1159 4863 
L 1159 2969 
z
" transform="scale(0.015625)"/>
      <path id="DejaVuSans-74" d="M 1172 4494 
L 1172 3500 
L 2356 3500 
L 2356 3053 
L 1172 3053 
L 1172 1153 
Q 1172 725 1289 603 
Q 1406 481 1766 481 
L 2356 481 
L 2356 0 
L 1766 0 
Q 1100 0 847 248 
Q 594 497 594 1153 
L 594 3053 
L 172 3053 
L 172 3500 
L 594 3500 
L 594 4494 
L 1172 4494 
z
" transform="scale(0.015625)"/>
      <path id="DejaVuSans-77" d="M 269 3500 
L 844 3500 
L 1563 769 
L 2278 3500 
L 2956 3500 
L 3675 769 
L 4391 3500 
L 4966 3500 
L 4050 0 
L 3372 0 
L 2619 2869 
L 1863 0 
L 1184 0 
L 269 3500 
z
" transform="scale(0.015625)"/>
      <path id="DejaVuSans-63" d="M 3122 3366 
L 3122 2828 
Q 2878 2963 2633 3030 
Q 2388 3097 2138 3097 
Q 1578 3097 1268 2742 
Q 959 2388 959 1747 
Q 959 1106 1268 751 
Q 1578 397 2138 397 
Q 2388 397 2633 464 
Q 2878 531 3122 666 
L 3122 134 
Q 2881 22 2623 -34 
Q 2366 -91 2075 -91 
Q 1284 -91 818 406 
Q 353 903 353 1747 
Q 353 2603 823 3093 
Q 1294 3584 2113 3584 
Q 2378 3584 2631 3529 
Q 2884 3475 3122 3366 
z
" transform="scale(0.015625)"/>
      <path id="DejaVuSans-6c" d="M 603 4863 
L 1178 4863 
L 1178 0 
L 603 0 
L 603 4863 
z
" transform="scale(0.015625)"/>
      <path id="DejaVuSans-73" d="M 2834 3397 
L 2834 2853 
Q 2591 2978 2328 3040 
Q 2066 3103 1784 3103 
Q 1356 3103 1142 2972 
Q 928 2841 928 2578 
Q 928 2378 1081 2264 
Q 1234 2150 1697 2047 
L 1894 2003 
Q 2506 1872 2764 1633 
Q 3022 1394 3022 966 
Q 3022 478 2636 193 
Q 2250 -91 1575 -91 
Q 1294 -91 989 -36 
Q 684 19 347 128 
L 347 722 
Q 666 556 975 473 
Q 1284 391 1588 391 
Q 1994 391 2212 530 
Q 2431 669 2431 922 
Q 2431 1156 2273 1281 
Q 2116 1406 1581 1522 
L 1381 1569 
Q 847 1681 609 1914 
Q 372 2147 372 2553 
Q 372 3047 722 3315 
Q 1072 3584 1716 3584 
Q 2034 3584 2315 3537 
Q 2597 3491 2834 3397 
z
" transform="scale(0.015625)"/>
     </defs>
     <use xlink:href="#DejaVuSans-4c"/>
     <use xlink:href="#DejaVuSans-69" transform="translate(55.712891 0)"/>
     <use xlink:href="#DejaVuSans-6e" transform="translate(83.496094 0)"/>
     <use xlink:href="#DejaVuSans-65" transform="translate(146.875 0)"/>
     <use xlink:href="#DejaVuSans-61" transform="translate(208.398438 0)"/>
     <use xlink:href="#DejaVuSans-72" transform="translate(269.677734 0)"/>
     <use xlink:href="#DejaVuSans-20" transform="translate(310.791016 0)"/>
     <use xlink:href="#DejaVuSans-53" transform="translate(342.578125 0)"/>
     <use xlink:href="#DejaVuSans-56" transform="translate(406.054688 0)"/>
     <use xlink:href="#DejaVuSans-4d" transform="translate(474.462891 0)"/>
     <use xlink:href="#DejaVuSans-3a" transform="translate(560.742188 0)"/>
     <use xlink:href="#DejaVuSans-20" transform="translate(594.433594 0)"/>
     <use xlink:href="#DejaVuSans-6d" transform="translate(626.220703 0)"/>
     <use xlink:href="#DejaVuSans-61" transform="translate(723.632812 0)"/>
     <use xlink:href="#DejaVuSans-78" transform="translate(784.912109 0)"/>
     <use xlink:href="#DejaVuSans-69" transform="translate(844.091797 0)"/>
     <use xlink:href="#DejaVuSans-6d" transform="translate(871.875 0)"/>
     <use xlink:href="#DejaVuSans-69" transform="translate(969.287109 0)"/>
     <use xlink:href="#DejaVuSans-7a" transform="translate(997.070312 0)"/>
     <use xlink:href="#DejaVuSans-65" transform="translate(1049.560547 0)"/>
     <use xlink:href="#DejaVuSans-20" transform="translate(1111.083984 0)"/>
     <use xlink:href="#DejaVuSans-6d" transform="translate(1142.871094 0)"/>
     <use xlink:href="#DejaVuSans-61" transform="translate(1240.283203 0)"/>
     <use xlink:href="#DejaVuSans-72" transform="translate(1301.5625 0)"/>
     <use xlink:href="#DejaVuSans-67" transform="translate(1340.925781 0)"/>
     <use xlink:href="#DejaVuSans-69" transform="translate(1404.402344 0)"/>
     <use xlink:href="#DejaVuSans-6e" transform="translate(1432.185547 0)"/>
     <use xlink:href="#DejaVuSans-20" transform="translate(1495.564453 0)"/>
     <use xlink:href="#DejaVuSans-62" transform="translate(1527.351562 0)"/>
     <use xlink:href="#DejaVuSans-65" transform="translate(1590.828125 0)"/>
     <use xlink:href="#DejaVuSans-74" transform="translate(1652.351562 0)"/>
     <use xlink:href="#DejaVuSans-77" transform="translate(1691.560547 0)"/>
     <use xlink:href="#DejaVuSans-65" transform="translate(1773.347656 0)"/>
     <use xlink:href="#DejaVuSans-65" transform="translate(1834.871094 0)"/>
     <use xlink:href="#DejaVuSans-6e" transform="translate(1896.394531 0)"/>
     <use xlink:href="#DejaVuSans-20" transform="translate(1959.773438 0)"/>
     <use xlink:href="#DejaVuSans-63" transform="translate(1991.560547 0)"/>
     <use xlink:href="#DejaVuSans-6c" transform="translate(2046.541016 0)"/>
     <use xlink:href="#DejaVuSans-61" transform="translate(2074.324219 0)"/>
     <use xlink:href="#DejaVuSans-73" transform="translate(2135.603516 0)"/>
     <use xlink:href="#DejaVuSans-73" transform="translate(2187.703125 0)"/>
     <use xlink:href="#DejaVuSans-65" transform="translate(2239.802734 0)"/>
     <use xlink:href="#DejaVuSans-73" transform="translate(2301.326172 0)"/>
    </g>
    <!-- (solid = decision boundary, dashed = ±1 margin) -->
    <g transform="translate(119.936875 29.7555) scale(0.12 -0.12)">
     <defs>
      <path id="DejaVuSans-28" d="M 1984 4856 
Q 1566 4138 1362 3434 
Q 1159 2731 1159 2009 
Q 1159 1288 1364 580 
Q 1569 -128 1984 -844 
L 1484 -844 
Q 1016 -109 783 600 
Q 550 1309 550 2009 
Q 550 2706 781 3412 
Q 1013 4119 1484 4856 
L 1984 4856 
z
" transform="scale(0.015625)"/>
      <path id="DejaVuSans-6f" d="M 1959 3097 
Q 1497 3097 1228 2736 
Q 959 2375 959 1747 
Q 959 1119 1226 758 
Q 1494 397 1959 397 
Q 2419 397 2687 759 
Q 2956 1122 2956 1747 
Q 2956 2369 2687 2733 
Q 2419 3097 1959 3097 
z
M 1959 3584 
Q 2709 3584 3137 3096 
Q 3566 2609 3566 1747 
Q 3566 888 3137 398 
Q 2709 -91 1959 -91 
Q 1206 -91 779 398 
Q 353 888 353 1747 
Q 353 2609 779 3096 
Q 1206 3584 1959 3584 
z
" transform="scale(0.015625)"/>
      <path id="DejaVuSans-64" d="M 2906 2969 
L 2906 4863 
L 3481 4863 
L 3481 0 
L 2906 0 
L 2906 525 
Q 2725 213 2448 61 
Q 2172 -91 1784 -91 
Q 1150 -91 751 415 
Q 353 922 353 1747 
Q 353 2572 751 3078 
Q 1150 3584 1784 3584 
Q 2172 3584 2448 3432 
Q 2725 3281 2906 2969 
z
M 947 1747 
Q 947 1113 1208 752 
Q 1469 391 1925 391 
Q 2381 391 2643 752 
Q 2906 1113 2906 1747 
Q 2906 2381 2643 2742 
Q 2381 3103 1925 3103 
Q 1469 3103 1208 2742 
Q 947 2381 947 1747 
z
" transform="scale(0.015625)"/>
      <path id="DejaVuSans-3d" d="M 678 2906 
L 4684 2906 
L 4684 2381 
L 678 2381 
L 678 2906 
z
M 678 1631 
L 4684 1631 
L 4684 1100 
L 678 1100 
L 678 1631 
z
" transform="scale(0.015625)"/>
      <path id="DejaVuSans-75" d="M 544 1381 
L 544 3500 
L 1119 3500 
L 1119 1403 
Q 1119 906 1312 657 
Q 1506 409 1894 409 
Q 2359 409 2629 706 
Q 2900 1003 2900 1516 
L 2900 3500 
L 3475 3500 
L 3475 0 
L 2900 0 
L 2900 538 
Q 2691 219 2414 64 
Q 2138 -91 1772 -91 
Q 1169 -91 856 284 
Q 544 659 544 1381 
z
M 1991 3584 
L 1991 3584 
z
" transform="scale(0.015625)"/>
      <path id="DejaVuSans-79" d="M 2059 -325 
Q 1816 -950 1584 -1140 
Q 1353 -1331 966 -1331 
L 506 -1331 
L 506 -850 
L 844 -850 
Q 1081 -850 1212 -737 
Q 1344 -625 1503 -206 
L 1606 56 
L 191 3500 
L 800 3500 
L 1894 763 
L 2988 3500 
L 3597 3500 
L 2059 -325 
z
" transform="scale(0.015625)"/>
      <path id="DejaVuSans-2c" d="M 750 794 
L 1409 794 
L 1409 256 
L 897 -744 
L 494 -744 
L 750 256 
L 750 794 
z
" transform="scale(0.015625)"/>
      <path id="DejaVuSans-68" d="M 3513 2113 
L 3513 0 
L 2938 0 
L 2938 2094 
Q 2938 2591 2744 2837 
Q 2550 3084 2163 3084 
Q 1697 3084 1428 2787 
Q 1159 2491 1159 1978 
L 1159 0 
L 581 0 
L 581 4863 
L 1159 4863 
L 1159 2956 
Q 1366 3272 1645 3428 
Q 1925 3584 2291 3584 
Q 2894 3584 3203 3211 
Q 3513 2838 3513 2113 
z
" transform="scale(0.015625)"/>
      <path id="DejaVuSans-b1" d="M 2944 4013 
L 2944 2803 
L 4684 2803 
L 4684 2272 
L 2944 2272 
L 2944 1063 
L 2419 1063 
L 2419 2272 
L 678 2272 
L 678 2803 
L 2419 2803 
L 2419 4013 
L 2944 4013 
z
M 678 531 
L 4684 531 
L 4684 0 
L 678 0 
L 678 531 
z
" transform="scale(0.015625)"/>
      <path id="DejaVuSans-29" d="M 513 4856 
L 1013 4856 
Q 1481 4119 1714 3412 
Q 1947 2706 1947 2009 
Q 1947 1309 1714 600 
Q 1481 -109 1013 -844 
L 513 -844 
Q 928 -128 1133 580 
Q 1338 1288 1338 2009 
Q 1338 2731 1133 3434 
Q 928 4138 513 4856 
z
" transform="scale(0.015625)"/>
     </defs>
     <use xlink:href="#DejaVuSans-28"/>
     <use xlink:href="#DejaVuSans-73" transform="translate(39.013672 0)"/>
     <use xlink:href="#DejaVuSans-6f" transform="translate(91.113281 0)"/>
     <use xlink:href="#DejaVuSans-6c" transform="translate(152.294922 0)"/>
     <use xlink:href="#DejaVuSans-69" transform="translate(180.078125 0)"/>
     <use xlink:href="#DejaVuSans-64" transform="translate(207.861328 0)"/>
     <use xlink:href="#DejaVuSans-20" transform="translate(271.337891 0)"/>
     <use xlink:href="#DejaVuSans-3d" transform="translate(303.125 0)"/>
     <use xlink:href="#DejaVuSans-20" transform="translate(386.914062 0)"/>
     <use xlink:href="#DejaVuSans-64" transform="translate(418.701172 0)"/>
     <use xlink:href="#DejaVuSans-65" transform="translate(482.177734 0)"/>
     <use xlink:href="#DejaVuSans-63" transform="translate(543.701172 0)"/>
     <use xlink:href="#DejaVuSans-69" transform="translate(598.681641 0)"/>
     <use xlink:href="#DejaVuSans-73" transform="translate(626.464844 0)"/>
     <use xlink:href="#DejaVuSans-69" transform="translate(678.564453 0)"/>
     <use xlink:href="#DejaVuSans-6f" transform="translate(706.347656 0)"/>
     <use xlink:href="#DejaVuSans-6e" transform="translate(767.529297 0)"/>
     <use xlink:href="#DejaVuSans-20" transform="translate(830.908203 0)"/>
     <use xlink:href="#DejaVuSans-62" transform="translate(862.695312 0)"/>
     <use xlink:href="#DejaVuSans-6f" transform="translate(926.171875 0)"/>
     <use xlink:href="#DejaVuSans-75" transform="translate(987.353516 0)"/>
     <use xlink:href="#DejaVuSans-6e" transform="translate(1050.732422 0)"/>
     <use xlink:href="#DejaVuSans-64" transform="translate(1114.111328 0)"/>
     <use xlink:href="#DejaVuSans-61" transform="translate(1177.587891 0)"/>
     <use xlink:href="#DejaVuSans-72" transform="translate(1238.867188 0)"/>
     <use xlink:href="#DejaVuSans-79" transform="translate(1279.980469 0)"/>
     <use xlink:href="#DejaVuSans-2c" transform="translate(1339.160156 0)"/>
     <use xlink:href="#DejaVuSans-20" transform="translate(1370.947266 0)"/>
     <use xlink:href="#DejaVuSans-64" transform="translate(1402.734375 0)"/>
     <use xlink:href="#DejaVuSans-61" transform="translate(1466.210938 0)"/>
     <use xlink:href="#DejaVuSans-73" transform="translate(1527.490234 0)"/>
     <use xlink:href="#DejaVuSans-68" transform="translate(1579.589844 0)"/>
     <use xlink:href="#DejaVuSans-65" transform="translate(1642.96875 0)"/>
     <use xlink:href="#DejaVuSans-64" transform="translate(1704.492188 0)"/>
     <use xlink:href="#DejaVuSans-20" transform="translate(1767.96875 0)"/>
     <use xlink:href="#DejaVuSans-3d" transform="translate(1799.755859 0)"/>
     <use xlink:href="#DejaVuSans-20" transform="translate(1883.544922 0)"/>
     <use xlink:href="#DejaVuSans-b1" transform="translate(1915.332031 0)"/>
     <use xlink:href="#DejaVuSans-31" transform="translate(1999.121094 0)"/>
     <use xlink:href="#DejaVuSans-20" transform="translate(2062.744141 0)"/>
     <use xlink:href="#DejaVuSans-6d" transform="translate(2094.53125 0)"/>
     <use xlink:href="#DejaVuSans-61" transform="translate(2191.943359 0)"/>
     <use xlink:href="#DejaVuSans-72" transform="translate(2253.222656 0)"/>
     <use xlink:href="#DejaVuSans-67" transform="translate(2292.585938 0)"/>
     <use xlink:href="#DejaVuSans-69" transform="translate(2356.0625 0)"/>
     <use xlink:href="#DejaVuSans-6e" transform="translate(2383.845703 0)"/>
     <use xlink:href="#DejaVuSans-29" transform="translate(2447.224609 0)"/>
    </g>
   </g>
   <g id="legend_1">
    <g id="patch_7">
     <path d="M 381.366562 53.898 
L 483.642812 53.898 
Q 485.242812 53.898 485.242812 52.298 
L 485.242812 41.3555 
Q 485.242812 39.7555 483.642812 39.7555 
L 381.366562 39.7555 
Q 379.766562 39.7555 379.766562 41.3555 
L 379.766562 52.298 
Q 379.766562 53.898 381.366562 53.898 
z
" style="fill: #ffffff; opacity: 0.8; stroke: #cccccc; stroke-linejoin: miter"/>
    </g>
    <g id="PathCollection_3">
     <path d="M 390.966562 52.411476 
C 392.41914 52.411476 393.812419 51.834361 394.839546 50.807233 
C 395.866673 49.780106 396.443788 48.386827 396.443788 46.93425 
C 396.443788 45.481673 395.866673 44.088394 394.839546 43.061267 
C 393.812419 42.034139 392.41914 41.457024 390.966562 41.457024 
C 389.513985 41.457024 388.120706 42.034139 387.093579 43.061267 
C 386.066452 44.088394 385.489337 45.481673 385.489337 46.93425 
C 385.489337 48.386827 386.066452 49.780106 387.093579 50.807233 
C 388.120706 51.834361 389.513985 52.411476 390.966562 52.411476 
L 390.966562 52.411476 
z
" style="fill: none; stroke: #000000; stroke-width: 1.5"/>
    </g>
    <g id="text_14">
     <!-- support vectors (2) -->
     <g transform="translate(405.366562 49.03425) scale(0.08 -0.08)">
      <defs>
       <path id="DejaVuSans-70" d="M 1159 525 
L 1159 -1331 
L 581 -1331 
L 581 3500 
L 1159 3500 
L 1159 2969 
Q 1341 3281 1617 3432 
Q 1894 3584 2278 3584 
Q 2916 3584 3314 3078 
Q 3713 2572 3713 1747 
Q 3713 922 3314 415 
Q 2916 -91 2278 -91 
Q 1894 -91 1617 61 
Q 1341 213 1159 525 
z
M 3116 1747 
Q 3116 2381 2855 2742 
Q 2594 3103 2138 3103 
Q 1681 3103 1420 2742 
Q 1159 2381 1159 1747 
Q 1159 1113 1420 752 
Q 1681 391 2138 391 
Q 2594 391 2855 752 
Q 3116 1113 3116 1747 
z
" transform="scale(0.015625)"/>
       <path id="DejaVuSans-76" d="M 191 3500 
L 800 3500 
L 1894 563 
L 2988 3500 
L 3597 3500 
L 2284 0 
L 1503 0 
L 191 3500 
z
" transform="scale(0.015625)"/>
      </defs>
      <use xlink:href="#DejaVuSans-73"/>
      <use xlink:href="#DejaVuSans-75" transform="translate(52.099609 0)"/>
      <use xlink:href="#DejaVuSans-70" transform="translate(115.478516 0)"/>
      <use xlink:href="#DejaVuSans-70" transform="translate(178.955078 0)"/>
      <use xlink:href="#DejaVuSans-6f" transform="translate(242.431641 0)"/>
      <use xlink:href="#DejaVuSans-72" transform="translate(303.613281 0)"/>
      <use xlink:href="#DejaVuSans-74" transform="translate(344.726562 0)"/>
      <use xlink:href="#DejaVuSans-20" transform="translate(383.935547 0)"/>
      <use xlink:href="#DejaVuSans-76" transform="translate(415.722656 0)"/>
      <use xlink:href="#DejaVuSans-65" transform="translate(474.902344 0)"/>
      <use xlink:href="#DejaVuSans-63" transform="translate(536.425781 0)"/>
      <use xlink:href="#DejaVuSans-74" transform="translate(591.40625 0)"/>
      <use xlink:href="#DejaVuSans-6f" transform="translate(630.615234 0)"/>
      <use xlink:href="#DejaVuSans-72" transform="translate(691.796875 0)"/>
      <use xlink:href="#DejaVuSans-73" transform="translate(732.910156 0)"/>
      <use xlink:href="#DejaVuSans-20" transform="translate(785.009766 0)"/>
      <use xlink:href="#DejaVuSans-28" transform="translate(816.796875 0)"/>
      <use xlink:href="#DejaVuSans-32" transform="translate(855.810547 0)"/>
      <use xlink:href="#DejaVuSans-29" transform="translate(919.433594 0)"/>
     </g>
    </g>
   </g>
  </g>
 </g>
 <defs>
  <clipPath id="pc00429dfc9">
   <rect x="48.982813" y="35.7555" width="440.26" height="348.184"/>
  </clipPath>
 </defs>
</svg>
