<?xml version="1.0" encoding="utf-8" standalone="no"?>
<!DOCTYPE svg PUBLIC "-//W3C//DTD SVG 1.1//EN"
  "http://www.w3.org/Graphics/SVG/1.1/DTD/svg11.dtd">
<svg xmlns:xlink="http://www.w3.org/1999/xlink" width="496.343125pt" height="279.034375pt" viewBox="0 0 496.343125 279.034375" xmlns="http://www.w3.org/2000/svg" version="1.1">
 <metadata>
  <rdf:RDF xmlns:dc="http://purl.org/dc/elements/1.1/" xmlns:cc="http://creativecommons.org/ns#" xmlns:rdf="http://www.w3.org/1999/02/22-rdf-syntax-ns#">
   <cc:Work>
    <dc:type rdf:resource="http://purl.org/dc/dcmitype/StillImage"/>
    <dc:date>2026-05-26T08:35:58.821127</dc:date>
    <dc:format>image/svg+xml</dc:format>
    <dc:creator>
     <cc:Agent>
      <dc:title>Matplotlib v3.10.8, https://matplotlib.org/</dc:title>
     </cc:Agent>
    </dc:creator>
   </cc:Work>
  </rdf:RDF>
 </metadata>
 <defs>
  <style type="text/css">*{stroke-linejoin: round; stroke-linecap: butt}</style>
 </defs>
 <g id="figure_1">
  <g id="patch_1">
   <path d="M 0 279.034375 
L 496.343125 279.034375 
L 496.343125 0 
L 0 0 
z
" style="fill: #ffffff"/>
  </g>
  <g id="axes_1">
   <g id="patch_2">
    <path d="M 40.603125 241.478125 
L 489.143125 241.478125 
L 489.143125 22.318125 
L 40.603125 22.318125 
z
" style="fill: #ffffff"/>
   </g>
   <g id="matplotlib.axis_1">
    <g id="xtick_1">
     <g id="line2d_1">
      <path d="M 60.991307 241.478125 
L 60.991307 22.318125 
" clip-path="url(#p356e9e98a8)" style="fill: none; stroke: #b0b0b0; stroke-opacity: 0.25; stroke-width: 0.8; stroke-linecap: square"/>
     </g>
     <g id="line2d_2">
      <defs>
       <path id="m8ed9a040c6" d="M 0 0 
L 0 3.5 
" style="stroke: #000000; stroke-width: 0.8"/>
      </defs>
      <g>
       <use xlink:href="#m8ed9a040c6" x="60.991307" y="241.478125" style="stroke: #000000; stroke-width: 0.8"/>
      </g>
     </g>
     <g id="text_1">
      <!-- −1 -->
      <g transform="translate(53.620213 256.076563) scale(0.1 -0.1)">
       <defs>
        <path id="DejaVuSans-2212" d="M 678 2272 
L 4684 2272 
L 4684 1741 
L 678 1741 
L 678 2272 
z
" transform="scale(0.015625)"/>
        <path id="DejaVuSans-31" d="M 794 531 
L 1825 531 
L 1825 4091 
L 703 3866 
L 703 4441 
L 1819 4666 
L 2450 4666 
L 2450 531 
L 3481 531 
L 3481 0 
L 794 0 
L 794 531 
z
" transform="scale(0.015625)"/>
       </defs>
       <use xlink:href="#DejaVuSans-2212"/>
       <use xlink:href="#DejaVuSans-31" transform="translate(83.789062 0)"/>
      </g>
     </g>
    </g>
    <g id="xtick_2">
     <g id="line2d_3">
      <path d="M 111.961761 241.478125 
L 111.961761 22.318125 
" clip-path="url(#p356e9e98a8)" style="fill: none; stroke: #b0b0b0; stroke-opacity: 0.25; stroke-width: 0.8; stroke-linecap: square"/>
     </g>
     <g id="line2d_4">
      <g>
       <use xlink:href="#m8ed9a040c6" x="111.961761" y="241.478125" style="stroke: #000000; stroke-width: 0.8"/>
      </g>
     </g>
     <g id="text_2">
      <!-- 0 -->
      <g transform="translate(108.780511 256.076563) scale(0.1 -0.1)">
       <defs>
        <path id="DejaVuSans-30" d="M 2034 4250 
Q 1547 4250 1301 3770 
Q 1056 3291 1056 2328 
Q 1056 1369 1301 889 
Q 1547 409 2034 409 
Q 2525 409 2770 889 
Q 3016 1369 3016 2328 
Q 3016 3291 2770 3770 
Q 2525 4250 2034 4250 
z
M 2034 4750 
Q 2819 4750 3233 4129 
Q 3647 3509 3647 2328 
Q 3647 1150 3233 529 
Q 2819 -91 2034 -91 
Q 1250 -91 836 529 
Q 422 1150 422 2328 
Q 422 3509 836 4129 
Q 1250 4750 2034 4750 
z
" transform="scale(0.015625)"/>
       </defs>
       <use xlink:href="#DejaVuSans-30"/>
      </g>
     </g>
    </g>
    <g id="xtick_3">
     <g id="line2d_5">
      <path d="M 162.932216 241.478125 
L 162.932216 22.318125 
" clip-path="url(#p356e9e98a8)" style="fill: none; stroke: #b0b0b0; stroke-opacity: 0.25; stroke-width: 0.8; stroke-linecap: square"/>
     </g>
     <g id="line2d_6">
      <g>
       <use xlink:href="#m8ed9a040c6" x="162.932216" y="241.478125" style="stroke: #000000; stroke-width: 0.8"/>
      </g>
     </g>
     <g id="text_3">
      <!-- 1 -->
      <g transform="translate(159.750966 256.076563) scale(0.1 -0.1)">
       <use xlink:href="#DejaVuSans-31"/>
      </g>
     </g>
    </g>
    <g id="xtick_4">
     <g id="line2d_7">
      <path d="M 213.90267 241.478125 
L 213.90267 22.318125 
" clip-path="url(#p356e9e98a8)" style="fill: none; stroke: #b0b0b0; stroke-opacity: 0.25; stroke-width: 0.8; stroke-linecap: square"/>
     </g>
     <g id="line2d_8">
      <g>
       <use xlink:href="#m8ed9a040c6" x="213.90267" y="241.478125" style="stroke: #000000; stroke-width: 0.8"/>
      </g>
     </g>
     <g id="text_4">
      <!-- 2 -->
      <g transform="translate(210.72142 256.076563) scale(0.1 -0.1)">
       <defs>
        <path id="DejaVuSans-32" d="M 1228 531 
L 3431 531 
L 3431 0 
L 469 0 
L 469 531 
Q 828 903 1448 1529 
Q 2069 2156 2228 2338 
Q 2531 2678 2651 2914 
Q 2772 3150 2772 3378 
Q 2772 3750 2511 3984 
Q 2250 4219 1831 4219 
Q 1534 4219 1204 4116 
Q 875 4013 500 3803 
L 500 4441 
Q 881 4594 1212 4672 
Q 1544 4750 1819 4750 
Q 2544 4750 2975 4387 
Q 3406 4025 3406 3419 
Q 3406 3131 3298 2873 
Q 3191 2616 2906 2266 
Q 2828 2175 2409 1742 
Q 1991 1309 1228 531 
z
" transform="scale(0.015625)"/>
       </defs>
       <use xlink:href="#DejaVuSans-32"/>
      </g>
     </g>
    </g>
    <g id="xtick_5">
     <g id="line2d_9">
      <path d="M 264.873125 241.478125 
L 264.873125 22.318125 
" clip-path="url(#p356e9e98a8)" style="fill: none; stroke: #b0b0b0; stroke-opacity: 0.25; stroke-width: 0.8; stroke-linecap: square"/>
     </g>
     <g id="line2d_10">
      <g>
       <use xlink:href="#m8ed9a040c6" x="264.873125" y="241.478125" style="stroke: #000000; stroke-width: 0.8"/>
      </g>
     </g>
     <g id="text_5">
      <!-- 3 -->
      <g transform="translate(261.691875 256.076563) scale(0.1 -0.1)">
       <defs>
        <path id="DejaVuSans-33" d="M 2597 2516 
Q 3050 2419 3304 2112 
Q 3559 1806 3559 1356 
Q 3559 666 3084 287 
Q 2609 -91 1734 -91 
Q 1441 -91 1130 -33 
Q 819 25 488 141 
L 488 750 
Q 750 597 1062 519 
Q 1375 441 1716 441 
Q 2309 441 2620 675 
Q 2931 909 2931 1356 
Q 2931 1769 2642 2001 
Q 2353 2234 1838 2234 
L 1294 2234 
L 1294 2753 
L 1863 2753 
Q 2328 2753 2575 2939 
Q 2822 3125 2822 3475 
Q 2822 3834 2567 4026 
Q 2313 4219 1838 4219 
Q 1578 4219 1281 4162 
Q 984 4106 628 3988 
L 628 4550 
Q 988 4650 1302 4700 
Q 1616 4750 1894 4750 
Q 2613 4750 3031 4423 
Q 3450 4097 3450 3541 
Q 3450 3153 3228 2886 
Q 3006 2619 2597 2516 
z
" transform="scale(0.015625)"/>
       </defs>
       <use xlink:href="#DejaVuSans-33"/>
      </g>
     </g>
    </g>
    <g id="xtick_6">
     <g id="line2d_11">
      <path d="M 315.84358 241.478125 
L 315.84358 22.318125 
" clip-path="url(#p356e9e98a8)" style="fill: none; stroke: #b0b0b0; stroke-opacity: 0.25; stroke-width: 0.8; stroke-linecap: square"/>
     </g>
     <g id="line2d_12">
      <g>
       <use xlink:href="#m8ed9a040c6" x="315.84358" y="241.478125" style="stroke: #000000; stroke-width: 0.8"/>
      </g>
     </g>
     <g id="text_6">
      <!-- 4 -->
      <g transform="translate(312.66233 256.076563) scale(0.1 -0.1)">
       <defs>
        <path id="DejaVuSans-34" d="M 2419 4116 
L 825 1625 
L 2419 1625 
L 2419 4116 
z
M 2253 4666 
L 3047 4666 
L 3047 1625 
L 3713 1625 
L 3713 1100 
L 3047 1100 
L 3047 0 
L 2419 0 
L 2419 1100 
L 313 1100 
L 313 1709 
L 2253 4666 
z
" transform="scale(0.015625)"/>
       </defs>
       <use xlink:href="#DejaVuSans-34"/>
      </g>
     </g>
    </g>
    <g id="xtick_7">
     <g id="line2d_13">
      <path d="M 366.814034 241.478125 
L 366.814034 22.318125 
" clip-path="url(#p356e9e98a8)" style="fill: none; stroke: #b0b0b0; stroke-opacity: 0.25; stroke-width: 0.8; stroke-linecap: square"/>
     </g>
     <g id="line2d_14">
      <g>
       <use xlink:href="#m8ed9a040c6" x="366.814034" y="241.478125" style="stroke: #000000; stroke-width: 0.8"/>
      </g>
     </g>
     <g id="text_7">
      <!-- 5 -->
      <g transform="translate(363.632784 256.076563) scale(0.1 -0.1)">
       <defs>
        <path id="DejaVuSans-35" d="M 691 4666 
L 3169 4666 
L 3169 4134 
L 1269 4134 
L 1269 2991 
Q 1406 3038 1543 3061 
Q 1681 3084 1819 3084 
Q 2600 3084 3056 2656 
Q 3513 2228 3513 1497 
Q 3513 744 3044 326 
Q 2575 -91 1722 -91 
Q 1428 -91 1123 -41 
Q 819 9 494 109 
L 494 744 
Q 775 591 1075 516 
Q 1375 441 1709 441 
Q 2250 441 2565 725 
Q 2881 1009 2881 1497 
Q 2881 1984 2565 2268 
Q 2250 2553 1709 2553 
Q 1456 2553 1204 2497 
Q 953 2441 691 2322 
L 691 4666 
z
" transform="scale(0.015625)"/>
       </defs>
       <use xlink:href="#DejaVuSans-35"/>
      </g>
     </g>
    </g>
    <g id="xtick_8">
     <g id="line2d_15">
      <path d="M 417.784489 241.478125 
L 417.784489 22.318125 
" clip-path="url(#p356e9e98a8)" style="fill: none; stroke: #b0b0b0; stroke-opacity: 0.25; stroke-width: 0.8; stroke-linecap: square"/>
     </g>
     <g id="line2d_16">
      <g>
       <use xlink:href="#m8ed9a040c6" x="417.784489" y="241.478125" style="stroke: #000000; stroke-width: 0.8"/>
      </g>
     </g>
     <g id="text_8">
      <!-- 6 -->
      <g transform="translate(414.603239 256.076563) scale(0.1 -0.1)">
       <defs>
        <path id="DejaVuSans-36" d="M 2113 2584 
Q 1688 2584 1439 2293 
Q 1191 2003 1191 1497 
Q 1191 994 1439 701 
Q 1688 409 2113 409 
Q 2538 409 2786 701 
Q 3034 994 3034 1497 
Q 3034 2003 2786 2293 
Q 2538 2584 2113 2584 
z
M 3366 4563 
L 3366 3988 
Q 3128 4100 2886 4159 
Q 2644 4219 2406 4219 
Q 1781 4219 1451 3797 
Q 1122 3375 1075 2522 
Q 1259 2794 1537 2939 
Q 1816 3084 2150 3084 
Q 2853 3084 3261 2657 
Q 3669 2231 3669 1497 
Q 3669 778 3244 343 
Q 2819 -91 2113 -91 
Q 1303 -91 875 529 
Q 447 1150 447 2328 
Q 447 3434 972 4092 
Q 1497 4750 2381 4750 
Q 2619 4750 2861 4703 
Q 3103 4656 3366 4563 
z
" transform="scale(0.015625)"/>
       </defs>
       <use xlink:href="#DejaVuSans-36"/>
      </g>
     </g>
    </g>
    <g id="xtick_9">
     <g id="line2d_17">
      <path d="M 468.754943 241.478125 
L 468.754943 22.318125 
" clip-path="url(#p356e9e98a8)" style="fill: none; stroke: #b0b0b0; stroke-opacity: 0.25; stroke-width: 0.8; stroke-linecap: square"/>
     </g>
     <g id="line2d_18">
      <g>
       <use xlink:href="#m8ed9a040c6" x="468.754943" y="241.478125" style="stroke: #000000; stroke-width: 0.8"/>
      </g>
     </g>
     <g id="text_9">
      <!-- 7 -->
      <g transform="translate(465.573693 256.076563) scale(0.1 -0.1)">
       <defs>
        <path id="DejaVuSans-37" d="M 525 4666 
L 3525 4666 
L 3525 4397 
L 1831 0 
L 1172 0 
L 2766 4134 
L 525 4134 
L 525 4666 
z
" transform="scale(0.015625)"/>
       </defs>
       <use xlink:href="#DejaVuSans-37"/>
      </g>
     </g>
    </g>
    <g id="text_10">
     <!-- x -->
     <g transform="translate(261.91375 269.754687) scale(0.1 -0.1)">
      <defs>
       <path id="DejaVuSans-78" d="M 3513 3500 
L 2247 1797 
L 3578 0 
L 2900 0 
L 1881 1375 
L 863 0 
L 184 0 
L 1544 1831 
L 300 3500 
L 978 3500 
L 1906 2253 
L 2834 3500 
L 3513 3500 
z
" transform="scale(0.015625)"/>
      </defs>
      <use xlink:href="#DejaVuSans-78"/>
     </g>
    </g>
   </g>
   <g id="matplotlib.axis_2">
    <g id="ytick_1">
     <g id="line2d_19">
      <path d="M 40.603125 219.064034 
L 489.143125 219.064034 
" clip-path="url(#p356e9e98a8)" style="fill: none; stroke: #b0b0b0; stroke-opacity: 0.25; stroke-width: 0.8; stroke-linecap: square"/>
     </g>
     <g id="line2d_20">
      <defs>
       <path id="m896eadb504" d="M 0 0 
L -3.5 0 
" style="stroke: #000000; stroke-width: 0.8"/>
      </defs>
      <g>
       <use xlink:href="#m896eadb504" x="40.603125" y="219.064034" style="stroke: #000000; stroke-width: 0.8"/>
      </g>
     </g>
     <g id="text_11">
      <!-- 2 -->
      <g transform="translate(27.240625 222.863253) scale(0.1 -0.1)">
       <use xlink:href="#DejaVuSans-32"/>
      </g>
     </g>
    </g>
    <g id="ytick_2">
     <g id="line2d_21">
      <path d="M 40.603125 194.159489 
L 489.143125 194.159489 
" clip-path="url(#p356e9e98a8)" style="fill: none; stroke: #b0b0b0; stroke-opacity: 0.25; stroke-width: 0.8; stroke-linecap: square"/>
     </g>
     <g id="line2d_22">
      <g>
       <use xlink:href="#m896eadb504" x="40.603125" y="194.159489" style="stroke: #000000; stroke-width: 0.8"/>
      </g>
     </g>
     <g id="text_12">
      <!-- 4 -->
      <g transform="translate(27.240625 197.958707) scale(0.1 -0.1)">
       <use xlink:href="#DejaVuSans-34"/>
      </g>
     </g>
    </g>
    <g id="ytick_3">
     <g id="line2d_23">
      <path d="M 40.603125 169.254943 
L 489.143125 169.254943 
" clip-path="url(#p356e9e98a8)" style="fill: none; stroke: #b0b0b0; stroke-opacity: 0.25; stroke-width: 0.8; stroke-linecap: square"/>
     </g>
     <g id="line2d_24">
      <g>
       <use xlink:href="#m896eadb504" x="40.603125" y="169.254943" style="stroke: #000000; stroke-width: 0.8"/>
      </g>
     </g>
     <g id="text_13">
      <!-- 6 -->
      <g transform="translate(27.240625 173.054162) scale(0.1 -0.1)">
       <use xlink:href="#DejaVuSans-36"/>
      </g>
     </g>
    </g>
    <g id="ytick_4">
     <g id="line2d_25">
      <path d="M 40.603125 144.350398 
L 489.143125 144.350398 
" clip-path="url(#p356e9e98a8)" style="fill: none; stroke: #b0b0b0; stroke-opacity: 0.25; stroke-width: 0.8; stroke-linecap: square"/>
     </g>
     <g id="line2d_26">
      <g>
       <use xlink:href="#m896eadb504" x="40.603125" y="144.350398" style="stroke: #000000; stroke-width: 0.8"/>
      </g>
     </g>
     <g id="text_14">
      <!-- 8 -->
      <g transform="translate(27.240625 148.149616) scale(0.1 -0.1)">
       <defs>
        <path id="DejaVuSans-38" d="M 2034 2216 
Q 1584 2216 1326 1975 
Q 1069 1734 1069 1313 
Q 1069 891 1326 650 
Q 1584 409 2034 409 
Q 2484 409 2743 651 
Q 3003 894 3003 1313 
Q 3003 1734 2745 1975 
Q 2488 2216 2034 2216 
z
M 1403 2484 
Q 997 2584 770 2862 
Q 544 3141 544 3541 
Q 544 4100 942 4425 
Q 1341 4750 2034 4750 
Q 2731 4750 3128 4425 
Q 3525 4100 3525 3541 
Q 3525 3141 3298 2862 
Q 3072 2584 2669 2484 
Q 3125 2378 3379 2068 
Q 3634 1759 3634 1313 
Q 3634 634 3220 271 
Q 2806 -91 2034 -91 
Q 1263 -91 848 271 
Q 434 634 434 1313 
Q 434 1759 690 2068 
Q 947 2378 1403 2484 
z
M 1172 3481 
Q 1172 3119 1398 2916 
Q 1625 2713 2034 2713 
Q 2441 2713 2670 2916 
Q 2900 3119 2900 3481 
Q 2900 3844 2670 4047 
Q 2441 4250 2034 4250 
Q 1625 4250 1398 4047 
Q 1172 3844 1172 3481 
z
" transform="scale(0.015625)"/>
       </defs>
       <use xlink:href="#DejaVuSans-38"/>
      </g>
     </g>
    </g>
    <g id="ytick_5">
     <g id="line2d_27">
      <path d="M 40.603125 119.445852 
L 489.143125 119.445852 
" clip-path="url(#p356e9e98a8)" style="fill: none; stroke: #b0b0b0; stroke-opacity: 0.25; stroke-width: 0.8; stroke-linecap: square"/>
     </g>
     <g id="line2d_28">
      <g>
       <use xlink:href="#m896eadb504" x="40.603125" y="119.445852" style="stroke: #000000; stroke-width: 0.8"/>
      </g>
     </g>
     <g id="text_15">
      <!-- 10 -->
      <g transform="translate(20.878125 123.245071) scale(0.1 -0.1)">
       <use xlink:href="#DejaVuSans-31"/>
       <use xlink:href="#DejaVuSans-30" transform="translate(63.623047 0)"/>
      </g>
     </g>
    </g>
    <g id="ytick_6">
     <g id="line2d_29">
      <path d="M 40.603125 94.541307 
L 489.143125 94.541307 
" clip-path="url(#p356e9e98a8)" style="fill: none; stroke: #b0b0b0; stroke-opacity: 0.25; stroke-width: 0.8; stroke-linecap: square"/>
     </g>
     <g id="line2d_30">
      <g>
       <use xlink:href="#m896eadb504" x="40.603125" y="94.541307" style="stroke: #000000; stroke-width: 0.8"/>
      </g>
     </g>
     <g id="text_16">
      <!-- 12 -->
      <g transform="translate(20.878125 98.340526) scale(0.1 -0.1)">
       <use xlink:href="#DejaVuSans-31"/>
       <use xlink:href="#DejaVuSans-32" transform="translate(63.623047 0)"/>
      </g>
     </g>
    </g>
    <g id="ytick_7">
     <g id="line2d_31">
      <path d="M 40.603125 69.636761 
L 489.143125 69.636761 
" clip-path="url(#p356e9e98a8)" style="fill: none; stroke: #b0b0b0; stroke-opacity: 0.25; stroke-width: 0.8; stroke-linecap: square"/>
     </g>
     <g id="line2d_32">
      <g>
       <use xlink:href="#m896eadb504" x="40.603125" y="69.636761" style="stroke: #000000; stroke-width: 0.8"/>
      </g>
     </g>
     <g id="text_17">
      <!-- 14 -->
      <g transform="translate(20.878125 73.43598) scale(0.1 -0.1)">
       <use xlink:href="#DejaVuSans-31"/>
       <use xlink:href="#DejaVuSans-34" transform="translate(63.623047 0)"/>
      </g>
     </g>
    </g>
    <g id="ytick_8">
     <g id="line2d_33">
      <path d="M 40.603125 44.732216 
L 489.143125 44.732216 
" clip-path="url(#p356e9e98a8)" style="fill: none; stroke: #b0b0b0; stroke-opacity: 0.25; stroke-width: 0.8; stroke-linecap: square"/>
     </g>
     <g id="line2d_34">
      <g>
       <use xlink:href="#m896eadb504" x="40.603125" y="44.732216" style="stroke: #000000; stroke-width: 0.8"/>
      </g>
     </g>
     <g id="text_18">
      <!-- 16 -->
      <g transform="translate(20.878125 48.531435) scale(0.1 -0.1)">
       <use xlink:href="#DejaVuSans-31"/>
       <use xlink:href="#DejaVuSans-36" transform="translate(63.623047 0)"/>
      </g>
     </g>
    </g>
    <g id="text_19">
     <!-- f(x) -->
     <g transform="translate(14.798438 140.519219) rotate(-90) scale(0.1 -0.1)">
      <defs>
       <path id="DejaVuSans-66" d="M 2375 4863 
L 2375 4384 
L 1825 4384 
Q 1516 4384 1395 4259 
Q 1275 4134 1275 3809 
L 1275 3500 
L 2222 3500 
L 2222 3053 
L 1275 3053 
L 1275 0 
L 697 0 
L 697 3053 
L 147 3053 
L 147 3500 
L 697 3500 
L 697 3744 
Q 697 4328 969 4595 
Q 1241 4863 1831 4863 
L 2375 4863 
z
" transform="scale(0.015625)"/>
       <path id="DejaVuSans-28" d="M 1984 4856 
Q 1566 4138 1362 3434 
Q 1159 2731 1159 2009 
Q 1159 1288 1364 580 
Q 1569 -128 1984 -844 
L 1484 -844 
Q 1016 -109 783 600 
Q 550 1309 550 2009 
Q 550 2706 781 3412 
Q 1013 4119 1484 4856 
L 1984 4856 
z
" transform="scale(0.015625)"/>
       <path id="DejaVuSans-29" d="M 513 4856 
L 1013 4856 
Q 1481 4119 1714 3412 
Q 1947 2706 1947 2009 
Q 1947 1309 1714 600 
Q 1481 -109 1013 -844 
L 513 -844 
Q 928 -128 1133 580 
Q 1338 1288 1338 2009 
Q 1338 2731 1133 3434 
Q 928 4138 513 4856 
z
" transform="scale(0.015625)"/>
      </defs>
      <use xlink:href="#DejaVuSans-66"/>
      <use xlink:href="#DejaVuSans-28" transform="translate(35.205078 0)"/>
      <use xlink:href="#DejaVuSans-78" transform="translate(74.21875 0)"/>
      <use xlink:href="#DejaVuSans-29" transform="translate(133.398438 0)"/>
     </g>
    </g>
   </g>
   <g id="line2d_35">
    <path d="M 60.991307 32.279943 
L 69.187561 47.976957 
L 75.334751 59.327106 
L 81.481942 70.315016 
L 87.629132 80.940687 
L 93.776323 91.204119 
L 99.923513 101.105313 
L 106.070704 110.644267 
L 112.217894 119.820983 
L 118.365085 128.63546 
L 124.512275 137.087699 
L 130.659466 145.177698 
L 136.806656 152.905459 
L 142.953847 160.270981 
L 149.101037 167.274264 
L 155.248228 173.915309 
L 161.395418 180.194114 
L 167.542609 186.110681 
L 173.689799 191.665009 
L 179.83699 196.857098 
L 185.98418 201.686949 
L 192.131371 206.154561 
L 198.278561 210.259934 
L 204.425752 214.003068 
L 210.572942 217.383963 
L 216.720133 220.40262 
L 222.867323 223.059037 
L 226.96545 224.628739 
L 231.063577 226.037445 
L 235.161704 227.285157 
L 239.259831 228.371873 
L 243.357958 229.297594 
L 247.456085 230.062321 
L 251.554212 230.666052 
L 255.652339 231.108788 
L 259.750466 231.390529 
L 263.848593 231.511276 
L 267.94672 231.471027 
L 272.044847 231.269783 
L 276.142974 230.907544 
L 280.241101 230.384311 
L 284.339228 229.700082 
L 288.437355 228.854858 
L 292.535482 227.848639 
L 296.633609 226.681425 
L 300.731736 225.353216 
L 304.829863 223.864012 
L 308.92799 222.213814 
L 315.075181 219.43665 
L 321.222371 216.297247 
L 327.369562 212.795605 
L 333.516752 208.931725 
L 339.663943 204.705606 
L 345.811133 200.117248 
L 351.958324 195.166651 
L 358.105514 189.853815 
L 364.252705 184.178741 
L 370.399895 178.141428 
L 376.547086 171.741876 
L 382.694276 164.980085 
L 388.841467 157.856056 
L 394.988657 150.369788 
L 401.135848 142.521281 
L 407.283038 134.310535 
L 413.430229 125.73755 
L 419.577419 116.802327 
L 425.72461 107.504864 
L 431.8718 97.845164 
L 438.018991 87.823224 
L 444.166181 77.439045 
L 450.313372 66.692628 
L 456.460562 55.583972 
L 462.607753 44.113077 
L 468.754943 32.279943 
L 468.754943 32.279943 
" clip-path="url(#p356e9e98a8)" style="fill: none; stroke: #7aa6c2; stroke-width: 2; stroke-linecap: square"/>
   </g>
   <g id="line2d_36">
    <path d="M 86.476534 78.975966 
L 157.83517 176.601784 
L 200.650352 211.747079 
L 226.339461 224.399385 
L 241.752927 228.954215 
L 251.001006 230.593954 
L 256.549854 231.18426 
L 259.879162 231.39677 
L 261.876747 231.473274 
" clip-path="url(#p356e9e98a8)" style="fill: none; stroke: #e15759; stroke-width: 1.5; stroke-linecap: square"/>
    <defs>
     <path id="m7931c9cce8" d="M 0 3 
C 0.795609 3 1.55874 2.683901 2.12132 2.12132 
C 2.683901 1.55874 3 0.795609 3 0 
C 3 -0.795609 2.683901 -1.55874 2.12132 -2.12132 
C 1.55874 -2.683901 0.795609 -3 0 -3 
C -0.795609 -3 -1.55874 -2.683901 -2.12132 -2.12132 
C -2.683901 -1.55874 -3 -0.795609 -3 0 
C -3 0.795609 -2.683901 1.55874 -2.12132 2.12132 
C -1.55874 2.683901 -0.795609 3 0 3 
z
" style="stroke: #e15759"/>
    </defs>
    <g clip-path="url(#p356e9e98a8)">
     <use xlink:href="#m7931c9cce8" x="86.476534" y="78.975966" style="fill: #e15759; stroke: #e15759"/>
     <use xlink:href="#m7931c9cce8" x="157.83517" y="176.601784" style="fill: #e15759; stroke: #e15759"/>
     <use xlink:href="#m7931c9cce8" x="200.650352" y="211.747079" style="fill: #e15759; stroke: #e15759"/>
     <use xlink:href="#m7931c9cce8" x="226.339461" y="224.399385" style="fill: #e15759; stroke: #e15759"/>
     <use xlink:href="#m7931c9cce8" x="241.752927" y="228.954215" style="fill: #e15759; stroke: #e15759"/>
     <use xlink:href="#m7931c9cce8" x="251.001006" y="230.593954" style="fill: #e15759; stroke: #e15759"/>
     <use xlink:href="#m7931c9cce8" x="256.549854" y="231.18426" style="fill: #e15759; stroke: #e15759"/>
     <use xlink:href="#m7931c9cce8" x="259.879162" y="231.39677" style="fill: #e15759; stroke: #e15759"/>
     <use xlink:href="#m7931c9cce8" x="261.876747" y="231.473274" style="fill: #e15759; stroke: #e15759"/>
    </g>
   </g>
   <g id="patch_3">
    <path d="M 40.603125 241.478125 
L 40.603125 22.318125 
" style="fill: none; stroke: #000000; stroke-width: 0.8; stroke-linejoin: miter; stroke-linecap: square"/>
   </g>
   <g id="patch_4">
    <path d="M 489.143125 241.478125 
L 489.143125 22.318125 
" style="fill: none; stroke: #000000; stroke-width: 0.8; stroke-linejoin: miter; stroke-linecap: square"/>
   </g>
   <g id="patch_5">
    <path d="M 40.603125 241.478125 
L 489.143125 241.478125 
" style="fill: none; stroke: #000000; stroke-width: 0.8; stroke-linejoin: miter; stroke-linecap: square"/>
   </g>
   <g id="patch_6">
    <path d="M 40.603125 22.318125 
L 489.143125 22.318125 
" style="fill: none; stroke: #000000; stroke-width: 0.8; stroke-linejoin: miter; stroke-linecap: square"/>
   </g>
   <g id="text_20">
    <!-- step 0 -->
    <g style="fill: #e15759" transform="translate(74.007784 73.995057) scale(0.08 -0.08)">
     <defs>
      <path id="DejaVuSans-73" d="M 2834 3397 
L 2834 2853 
Q 2591 2978 2328 3040 
Q 2066 3103 1784 3103 
Q 1356 3103 1142 2972 
Q 928 2841 928 2578 
Q 928 2378 1081 2264 
Q 1234 2150 1697 2047 
L 1894 2003 
Q 2506 1872 2764 1633 
Q 3022 1394 3022 966 
Q 3022 478 2636 193 
Q 2250 -91 1575 -91 
Q 1294 -91 989 -36 
Q 684 19 347 128 
L 347 722 
Q 666 556 975 473 
Q 1284 391 1588 391 
Q 1994 391 2212 530 
Q 2431 669 2431 922 
Q 2431 1156 2273 1281 
Q 2116 1406 1581 1522 
L 1381 1569 
Q 847 1681 609 1914 
Q 372 2147 372 2553 
Q 372 3047 722 3315 
Q 1072 3584 1716 3584 
Q 2034 3584 2315 3537 
Q 2597 3491 2834 3397 
z
" transform="scale(0.015625)"/>
      <path id="DejaVuSans-74" d="M 1172 4494 
L 1172 3500 
L 2356 3500 
L 2356 3053 
L 1172 3053 
L 1172 1153 
Q 1172 725 1289 603 
Q 1406 481 1766 481 
L 2356 481 
L 2356 0 
L 1766 0 
Q 1100 0 847 248 
Q 594 497 594 1153 
L 594 3053 
L 172 3053 
L 172 3500 
L 594 3500 
L 594 4494 
L 1172 4494 
z
" transform="scale(0.015625)"/>
      <path id="DejaVuSans-65" d="M 3597 1894 
L 3597 1613 
L 953 1613 
Q 991 1019 1311 708 
Q 1631 397 2203 397 
Q 2534 397 2845 478 
Q 3156 559 3463 722 
L 3463 178 
Q 3153 47 2828 -22 
Q 2503 -91 2169 -91 
Q 1331 -91 842 396 
Q 353 884 353 1716 
Q 353 2575 817 3079 
Q 1281 3584 2069 3584 
Q 2775 3584 3186 3129 
Q 3597 2675 3597 1894 
z
M 3022 2063 
Q 3016 2534 2758 2815 
Q 2500 3097 2075 3097 
Q 1594 3097 1305 2825 
Q 1016 2553 972 2059 
L 3022 2063 
z
" transform="scale(0.015625)"/>
      <path id="DejaVuSans-70" d="M 1159 525 
L 1159 -1331 
L 581 -1331 
L 581 3500 
L 1159 3500 
L 1159 2969 
Q 1341 3281 1617 3432 
Q 1894 3584 2278 3584 
Q 2916 3584 3314 3078 
Q 3713 2572 3713 1747 
Q 3713 922 3314 415 
Q 2916 -91 2278 -91 
Q 1894 -91 1617 61 
Q 1341 213 1159 525 
z
M 3116 1747 
Q 3116 2381 2855 2742 
Q 2594 3103 2138 3103 
Q 1681 3103 1420 2742 
Q 1159 2381 1159 1747 
Q 1159 1113 1420 752 
Q 1681 391 2138 391 
Q 2594 391 2855 752 
Q 3116 1113 3116 1747 
z
" transform="scale(0.015625)"/>
      <path id="DejaVuSans-20" transform="scale(0.015625)"/>
     </defs>
     <use xlink:href="#DejaVuSans-73"/>
     <use xlink:href="#DejaVuSans-74" transform="translate(52.099609 0)"/>
     <use xlink:href="#DejaVuSans-65" transform="translate(91.308594 0)"/>
     <use xlink:href="#DejaVuSans-70" transform="translate(152.832031 0)"/>
     <use xlink:href="#DejaVuSans-20" transform="translate(216.308594 0)"/>
     <use xlink:href="#DejaVuSans-30" transform="translate(248.095703 0)"/>
    </g>
   </g>
   <g id="text_21">
    <!-- step 1 -->
    <g style="fill: #e15759" transform="translate(145.36642 171.620875) scale(0.08 -0.08)">
     <use xlink:href="#DejaVuSans-73"/>
     <use xlink:href="#DejaVuSans-74" transform="translate(52.099609 0)"/>
     <use xlink:href="#DejaVuSans-65" transform="translate(91.308594 0)"/>
     <use xlink:href="#DejaVuSans-70" transform="translate(152.832031 0)"/>
     <use xlink:href="#DejaVuSans-20" transform="translate(216.308594 0)"/>
     <use xlink:href="#DejaVuSans-31" transform="translate(248.095703 0)"/>
    </g>
   </g>
   <g id="text_22">
    <!-- step 2 -->
    <g style="fill: #e15759" transform="translate(188.181602 206.76617) scale(0.08 -0.08)">
     <use xlink:href="#DejaVuSans-73"/>
     <use xlink:href="#DejaVuSans-74" transform="translate(52.099609 0)"/>
     <use xlink:href="#DejaVuSans-65" transform="translate(91.308594 0)"/>
     <use xlink:href="#DejaVuSans-70" transform="translate(152.832031 0)"/>
     <use xlink:href="#DejaVuSans-20" transform="translate(216.308594 0)"/>
     <use xlink:href="#DejaVuSans-32" transform="translate(248.095703 0)"/>
    </g>
   </g>
   <g id="text_23">
    <!-- step 3 -->
    <g style="fill: #e15759" transform="translate(213.870711 219.418476) scale(0.08 -0.08)">
     <use xlink:href="#DejaVuSans-73"/>
     <use xlink:href="#DejaVuSans-74" transform="translate(52.099609 0)"/>
     <use xlink:href="#DejaVuSans-65" transform="translate(91.308594 0)"/>
     <use xlink:href="#DejaVuSans-70" transform="translate(152.832031 0)"/>
     <use xlink:href="#DejaVuSans-20" transform="translate(216.308594 0)"/>
     <use xlink:href="#DejaVuSans-33" transform="translate(248.095703 0)"/>
    </g>
   </g>
   <g id="text_24">
    <!-- step 4 -->
    <g style="fill: #e15759" transform="translate(229.284177 223.973306) scale(0.08 -0.08)">
     <use xlink:href="#DejaVuSans-73"/>
     <use xlink:href="#DejaVuSans-74" transform="translate(52.099609 0)"/>
     <use xlink:href="#DejaVuSans-65" transform="translate(91.308594 0)"/>
     <use xlink:href="#DejaVuSans-70" transform="translate(152.832031 0)"/>
     <use xlink:href="#DejaVuSans-20" transform="translate(216.308594 0)"/>
     <use xlink:href="#DejaVuSans-34" transform="translate(248.095703 0)"/>
    </g>
   </g>
   <g id="text_25">
    <!-- Gradient descent on a 1D parabola -->
    <g transform="translate(159.41 16.318125) scale(0.12 -0.12)">
     <defs>
      <path id="DejaVuSans-47" d="M 3809 666 
L 3809 1919 
L 2778 1919 
L 2778 2438 
L 4434 2438 
L 4434 434 
Q 4069 175 3628 42 
Q 3188 -91 2688 -91 
Q 1594 -91 976 548 
Q 359 1188 359 2328 
Q 359 3472 976 4111 
Q 1594 4750 2688 4750 
Q 3144 4750 3555 4637 
Q 3966 4525 4313 4306 
L 4313 3634 
Q 3963 3931 3569 4081 
Q 3175 4231 2741 4231 
Q 1884 4231 1454 3753 
Q 1025 3275 1025 2328 
Q 1025 1384 1454 906 
Q 1884 428 2741 428 
Q 3075 428 3337 486 
Q 3600 544 3809 666 
z
" transform="scale(0.015625)"/>
      <path id="DejaVuSans-72" d="M 2631 2963 
Q 2534 3019 2420 3045 
Q 2306 3072 2169 3072 
Q 1681 3072 1420 2755 
Q 1159 2438 1159 1844 
L 1159 0 
L 581 0 
L 581 3500 
L 1159 3500 
L 1159 2956 
Q 1341 3275 1631 3429 
Q 1922 3584 2338 3584 
Q 2397 3584 2469 3576 
Q 2541 3569 2628 3553 
L 2631 2963 
z
" transform="scale(0.015625)"/>
      <path id="DejaVuSans-61" d="M 2194 1759 
Q 1497 1759 1228 1600 
Q 959 1441 959 1056 
Q 959 750 1161 570 
Q 1363 391 1709 391 
Q 2188 391 2477 730 
Q 2766 1069 2766 1631 
L 2766 1759 
L 2194 1759 
z
M 3341 1997 
L 3341 0 
L 2766 0 
L 2766 531 
Q 2569 213 2275 61 
Q 1981 -91 1556 -91 
Q 1019 -91 701 211 
Q 384 513 384 1019 
Q 384 1609 779 1909 
Q 1175 2209 1959 2209 
L 2766 2209 
L 2766 2266 
Q 2766 2663 2505 2880 
Q 2244 3097 1772 3097 
Q 1472 3097 1187 3025 
Q 903 2953 641 2809 
L 641 3341 
Q 956 3463 1253 3523 
Q 1550 3584 1831 3584 
Q 2591 3584 2966 3190 
Q 3341 2797 3341 1997 
z
" transform="scale(0.015625)"/>
      <path id="DejaVuSans-64" d="M 2906 2969 
L 2906 4863 
L 3481 4863 
L 3481 0 
L 2906 0 
L 2906 525 
Q 2725 213 2448 61 
Q 2172 -91 1784 -91 
Q 1150 -91 751 415 
Q 353 922 353 1747 
Q 353 2572 751 3078 
Q 1150 3584 1784 3584 
Q 2172 3584 2448 3432 
Q 2725 3281 2906 2969 
z
M 947 1747 
Q 947 1113 1208 752 
Q 1469 391 1925 391 
Q 2381 391 2643 752 
Q 2906 1113 2906 1747 
Q 2906 2381 2643 2742 
Q 2381 3103 1925 3103 
Q 1469 3103 1208 2742 
Q 947 2381 947 1747 
z
" transform="scale(0.015625)"/>
      <path id="DejaVuSans-69" d="M 603 3500 
L 1178 3500 
L 1178 0 
L 603 0 
L 603 3500 
z
M 603 4863 
L 1178 4863 
L 1178 4134 
L 603 4134 
L 603 4863 
z
" transform="scale(0.015625)"/>
      <path id="DejaVuSans-6e" d="M 3513 2113 
L 3513 0 
L 2938 0 
L 2938 2094 
Q 2938 2591 2744 2837 
Q 2550 3084 2163 3084 
Q 1697 3084 1428 2787 
Q 1159 2491 1159 1978 
L 1159 0 
L 581 0 
L 581 3500 
L 1159 3500 
L 1159 2956 
Q 1366 3272 1645 3428 
Q 1925 3584 2291 3584 
Q 2894 3584 3203 3211 
Q 3513 2838 3513 2113 
z
" transform="scale(0.015625)"/>
      <path id="DejaVuSans-63" d="M 3122 3366 
L 3122 2828 
Q 2878 2963 2633 3030 
Q 2388 3097 2138 3097 
Q 1578 3097 1268 2742 
Q 959 2388 959 1747 
Q 959 1106 1268 751 
Q 1578 397 2138 397 
Q 2388 397 2633 464 
Q 2878 531 3122 666 
L 3122 134 
Q 2881 22 2623 -34 
Q 2366 -91 2075 -91 
Q 1284 -91 818 406 
Q 353 903 353 1747 
Q 353 2603 823 3093 
Q 1294 3584 2113 3584 
Q 2378 3584 2631 3529 
Q 2884 3475 3122 3366 
z
" transform="scale(0.015625)"/>
      <path id="DejaVuSans-6f" d="M 1959 3097 
Q 1497 3097 1228 2736 
Q 959 2375 959 1747 
Q 959 1119 1226 758 
Q 1494 397 1959 397 
Q 2419 397 2687 759 
Q 2956 1122 2956 1747 
Q 2956 2369 2687 2733 
Q 2419 3097 1959 3097 
z
M 1959 3584 
Q 2709 3584 3137 3096 
Q 3566 2609 3566 1747 
Q 3566 888 3137 398 
Q 2709 -91 1959 -91 
Q 1206 -91 779 398 
Q 353 888 353 1747 
Q 353 2609 779 3096 
Q 1206 3584 1959 3584 
z
" transform="scale(0.015625)"/>
      <path id="DejaVuSans-44" d="M 1259 4147 
L 1259 519 
L 2022 519 
Q 2988 519 3436 956 
Q 3884 1394 3884 2338 
Q 3884 3275 3436 3711 
Q 2988 4147 2022 4147 
L 1259 4147 
z
M 628 4666 
L 1925 4666 
Q 3281 4666 3915 4102 
Q 4550 3538 4550 2338 
Q 4550 1131 3912 565 
Q 3275 0 1925 0 
L 628 0 
L 628 4666 
z
" transform="scale(0.015625)"/>
      <path id="DejaVuSans-62" d="M 3116 1747 
Q 3116 2381 2855 2742 
Q 2594 3103 2138 3103 
Q 1681 3103 1420 2742 
Q 1159 2381 1159 1747 
Q 1159 1113 1420 752 
Q 1681 391 2138 391 
Q 2594 391 2855 752 
Q 3116 1113 3116 1747 
z
M 1159 2969 
Q 1341 3281 1617 3432 
Q 1894 3584 2278 3584 
Q 2916 3584 3314 3078 
Q 3713 2572 3713 1747 
Q 3713 922 3314 415 
Q 2916 -91 2278 -91 
Q 1894 -91 1617 61 
Q 1341 213 1159 525 
L 1159 0 
L 581 0 
L 581 4863 
L 1159 4863 
L 1159 2969 
z
" transform="scale(0.015625)"/>
      <path id="DejaVuSans-6c" d="M 603 4863 
L 1178 4863 
L 1178 0 
L 603 0 
L 603 4863 
z
" transform="scale(0.015625)"/>
     </defs>
     <use xlink:href="#DejaVuSans-47"/>
     <use xlink:href="#DejaVuSans-72" transform="translate(77.490234 0)"/>
     <use xlink:href="#DejaVuSans-61" transform="translate(118.603516 0)"/>
     <use xlink:href="#DejaVuSans-64" transform="translate(179.882812 0)"/>
     <use xlink:href="#DejaVuSans-69" transform="translate(243.359375 0)"/>
     <use xlink:href="#DejaVuSans-65" transform="translate(271.142578 0)"/>
     <use xlink:href="#DejaVuSans-6e" transform="translate(332.666016 0)"/>
     <use xlink:href="#DejaVuSans-74" transform="translate(396.044922 0)"/>
     <use xlink:href="#DejaVuSans-20" transform="translate(435.253906 0)"/>
     <use xlink:href="#DejaVuSans-64" transform="translate(467.041016 0)"/>
     <use xlink:href="#DejaVuSans-65" transform="translate(530.517578 0)"/>
     <use xlink:href="#DejaVuSans-73" transform="translate(592.041016 0)"/>
     <use xlink:href="#DejaVuSans-63" transform="translate(644.140625 0)"/>
     <use xlink:href="#DejaVuSans-65" transform="translate(699.121094 0)"/>
     <use xlink:href="#DejaVuSans-6e" transform="translate(760.644531 0)"/>
     <use xlink:href="#DejaVuSans-74" transform="translate(824.023438 0)"/>
     <use xlink:href="#DejaVuSans-20" transform="translate(863.232422 0)"/>
     <use xlink:href="#DejaVuSans-6f" transform="translate(895.019531 0)"/>
     <use xlink:href="#DejaVuSans-6e" transform="translate(956.201172 0)"/>
     <use xlink:href="#DejaVuSans-20" transform="translate(1019.580078 0)"/>
     <use xlink:href="#DejaVuSans-61" transform="translate(1051.367188 0)"/>
     <use xlink:href="#DejaVuSans-20" transform="translate(1112.646484 0)"/>
     <use xlink:href="#DejaVuSans-31" transform="translate(1144.433594 0)"/>
     <use xlink:href="#DejaVuSans-44" transform="translate(1208.056641 0)"/>
     <use xlink:href="#DejaVuSans-20" transform="translate(1285.058594 0)"/>
     <use xlink:href="#DejaVuSans-70" transform="translate(1316.845703 0)"/>
     <use xlink:href="#DejaVuSans-61" transform="translate(1380.322266 0)"/>
     <use xlink:href="#DejaVuSans-72" transform="translate(1441.601562 0)"/>
     <use xlink:href="#DejaVuSans-61" transform="translate(1482.714844 0)"/>
     <use xlink:href="#DejaVuSans-62" transform="translate(1543.994141 0)"/>
     <use xlink:href="#DejaVuSans-6f" transform="translate(1607.470703 0)"/>
     <use xlink:href="#DejaVuSans-6c" transform="translate(1668.652344 0)"/>
     <use xlink:href="#DejaVuSans-61" transform="translate(1696.435547 0)"/>
    </g>
   </g>
   <g id="PathCollection_1">
    <defs>
     <path id="m1af64b5d07" d="M 0 -6.708204 
L -1.506086 -2.072949 
L -6.379881 -2.072949 
L -2.436898 0.791796 
L -3.942983 5.427051 
L -0 2.562306 
L 3.942983 5.427051 
L 2.436898 0.791796 
L 6.379881 -2.072949 
L 1.506086 -2.072949 
z
" style="stroke: #000000"/>
    </defs>
    <g clip-path="url(#p356e9e98a8)">
     <use xlink:href="#m1af64b5d07" x="264.873125" y="231.516307" style="stroke: #000000"/>
    </g>
   </g>
   <g id="legend_1">
    <g id="patch_7">
     <path d="M 203.117656 74.3525 
L 326.628594 74.3525 
Q 328.628594 74.3525 328.628594 72.3525 
L 328.628594 29.318125 
Q 328.628594 27.318125 326.628594 27.318125 
L 203.117656 27.318125 
Q 201.117656 27.318125 201.117656 29.318125 
L 201.117656 72.3525 
Q 201.117656 74.3525 203.117656 74.3525 
z
" style="fill: #ffffff; opacity: 0.8; stroke: #cccccc; stroke-linejoin: miter"/>
    </g>
    <g id="line2d_37">
     <path d="M 205.117656 35.416563 
L 215.117656 35.416563 
L 225.117656 35.416563 
" style="fill: none; stroke: #7aa6c2; stroke-width: 2; stroke-linecap: square"/>
    </g>
    <g id="text_26">
     <!-- f(x) = (x-3)^2 + 1 -->
     <g transform="translate(233.117656 38.916563) scale(0.1 -0.1)">
      <defs>
       <path id="DejaVuSans-3d" d="M 678 2906 
L 4684 2906 
L 4684 2381 
L 678 2381 
L 678 2906 
z
M 678 1631 
L 4684 1631 
L 4684 1100 
L 678 1100 
L 678 1631 
z
" transform="scale(0.015625)"/>
       <path id="DejaVuSans-2d" d="M 313 2009 
L 1997 2009 
L 1997 1497 
L 313 1497 
L 313 2009 
z
" transform="scale(0.015625)"/>
       <path id="DejaVuSans-5e" d="M 2988 4666 
L 4684 2925 
L 4056 2925 
L 2681 4159 
L 1306 2925 
L 678 2925 
L 2375 4666 
L 2988 4666 
z
" transform="scale(0.015625)"/>
       <path id="DejaVuSans-2b" d="M 2944 4013 
L 2944 2272 
L 4684 2272 
L 4684 1741 
L 2944 1741 
L 2944 0 
L 2419 0 
L 2419 1741 
L 678 1741 
L 678 2272 
L 2419 2272 
L 2419 4013 
L 2944 4013 
z
" transform="scale(0.015625)"/>
      </defs>
      <use xlink:href="#DejaVuSans-66"/>
      <use xlink:href="#DejaVuSans-28" transform="translate(35.205078 0)"/>
      <use xlink:href="#DejaVuSans-78" transform="translate(74.21875 0)"/>
      <use xlink:href="#DejaVuSans-29" transform="translate(133.398438 0)"/>
      <use xlink:href="#DejaVuSans-20" transform="translate(172.412109 0)"/>
      <use xlink:href="#DejaVuSans-3d" transform="translate(204.199219 0)"/>
      <use xlink:href="#DejaVuSans-20" transform="translate(287.988281 0)"/>
      <use xlink:href="#DejaVuSans-28" transform="translate(319.775391 0)"/>
      <use xlink:href="#DejaVuSans-78" transform="translate(358.789062 0)"/>
      <use xlink:href="#DejaVuSans-2d" transform="translate(417.96875 0)"/>
      <use xlink:href="#DejaVuSans-33" transform="translate(454.052734 0)"/>
      <use xlink:href="#DejaVuSans-29" transform="translate(517.675781 0)"/>
      <use xlink:href="#DejaVuSans-5e" transform="translate(556.689453 0)"/>
      <use xlink:href="#DejaVuSans-32" transform="translate(640.478516 0)"/>
      <use xlink:href="#DejaVuSans-20" transform="translate(704.101562 0)"/>
      <use xlink:href="#DejaVuSans-2b" transform="translate(735.888672 0)"/>
      <use xlink:href="#DejaVuSans-20" transform="translate(819.677734 0)"/>
      <use xlink:href="#DejaVuSans-31" transform="translate(851.464844 0)"/>
     </g>
    </g>
    <g id="line2d_38">
     <path d="M 205.117656 50.094688 
L 215.117656 50.094688 
L 225.117656 50.094688 
" style="fill: none; stroke: #e15759; stroke-width: 1.5; stroke-linecap: square"/>
     <g>
      <use xlink:href="#m7931c9cce8" x="215.117656" y="50.094688" style="fill: #e15759; stroke: #e15759"/>
     </g>
    </g>
    <g id="text_27">
     <!-- GD steps (lr=0.2) -->
     <g transform="translate(233.117656 53.594688) scale(0.1 -0.1)">
      <defs>
       <path id="DejaVuSans-2e" d="M 684 794 
L 1344 794 
L 1344 0 
L 684 0 
L 684 794 
z
" transform="scale(0.015625)"/>
      </defs>
      <use xlink:href="#DejaVuSans-47"/>
      <use xlink:href="#DejaVuSans-44" transform="translate(77.490234 0)"/>
      <use xlink:href="#DejaVuSans-20" transform="translate(154.492188 0)"/>
      <use xlink:href="#DejaVuSans-73" transform="translate(186.279297 0)"/>
      <use xlink:href="#DejaVuSans-74" transform="translate(238.378906 0)"/>
      <use xlink:href="#DejaVuSans-65" transform="translate(277.587891 0)"/>
      <use xlink:href="#DejaVuSans-70" transform="translate(339.111328 0)"/>
      <use xlink:href="#DejaVuSans-73" transform="translate(402.587891 0)"/>
      <use xlink:href="#DejaVuSans-20" transform="translate(454.6875 0)"/>
      <use xlink:href="#DejaVuSans-28" transform="translate(486.474609 0)"/>
      <use xlink:href="#DejaVuSans-6c" transform="translate(525.488281 0)"/>
      <use xlink:href="#DejaVuSans-72" transform="translate(553.271484 0)"/>
      <use xlink:href="#DejaVuSans-3d" transform="translate(594.384766 0)"/>
      <use xlink:href="#DejaVuSans-30" transform="translate(678.173828 0)"/>
      <use xlink:href="#DejaVuSans-2e" transform="translate(741.796875 0)"/>
      <use xlink:href="#DejaVuSans-32" transform="translate(773.583984 0)"/>
      <use xlink:href="#DejaVuSans-29" transform="translate(837.207031 0)"/>
     </g>
    </g>
    <g id="PathCollection_2">
     <g>
      <use xlink:href="#m1af64b5d07" x="215.117656" y="65.647813" style="stroke: #000000"/>
     </g>
    </g>
    <g id="text_28">
     <!-- optimum -->
     <g transform="translate(233.117656 68.272813) scale(0.1 -0.1)">
      <defs>
       <path id="DejaVuSans-6d" d="M 3328 2828 
Q 3544 3216 3844 3400 
Q 4144 3584 4550 3584 
Q 5097 3584 5394 3201 
Q 5691 2819 5691 2113 
L 5691 0 
L 5113 0 
L 5113 2094 
Q 5113 2597 4934 2840 
Q 4756 3084 4391 3084 
Q 3944 3084 3684 2787 
Q 3425 2491 3425 1978 
L 3425 0 
L 2847 0 
L 2847 2094 
Q 2847 2600 2669 2842 
Q 2491 3084 2119 3084 
Q 1678 3084 1418 2786 
Q 1159 2488 1159 1978 
L 1159 0 
L 581 0 
L 581 3500 
L 1159 3500 
L 1159 2956 
Q 1356 3278 1631 3431 
Q 1906 3584 2284 3584 
Q 2666 3584 2933 3390 
Q 3200 3197 3328 2828 
z
" transform="scale(0.015625)"/>
       <path id="DejaVuSans-75" d="M 544 1381 
L 544 3500 
L 1119 3500 
L 1119 1403 
Q 1119 906 1312 657 
Q 1506 409 1894 409 
Q 2359 409 2629 706 
Q 2900 1003 2900 1516 
L 2900 3500 
L 3475 3500 
L 3475 0 
L 2900 0 
L 2900 538 
Q 2691 219 2414 64 
Q 2138 -91 1772 -91 
Q 1169 -91 856 284 
Q 544 659 544 1381 
z
M 1991 3584 
L 1991 3584 
z
" transform="scale(0.015625)"/>
      </defs>
      <use xlink:href="#DejaVuSans-6f"/>
      <use xlink:href="#DejaVuSans-70" transform="translate(61.181641 0)"/>
      <use xlink:href="#DejaVuSans-74" transform="translate(124.658203 0)"/>
      <use xlink:href="#DejaVuSans-69" transform="translate(163.867188 0)"/>
      <use xlink:href="#DejaVuSans-6d" transform="translate(191.650391 0)"/>
      <use xlink:href="#DejaVuSans-75" transform="translate(289.0625 0)"/>
      <use xlink:href="#DejaVuSans-6d" transform="translate(352.441406 0)"/>
     </g>
    </g>
   </g>
  </g>
 </g>
 <defs>
  <clipPath id="p356e9e98a8">
   <rect x="40.603125" y="22.318125" width="448.54" height="219.16"/>
  </clipPath>
 </defs>
</svg>
