<?xml version="1.0" encoding="utf-8" standalone="no"?>
<!DOCTYPE svg PUBLIC "-//W3C//DTD SVG 1.1//EN"
  "http://www.w3.org/Graphics/SVG/1.1/DTD/svg11.dtd">
<svg xmlns:xlink="http://www.w3.org/1999/xlink" width="784.558125pt" height="315.034375pt" viewBox="0 0 784.558125 315.034375" xmlns="http://www.w3.org/2000/svg" version="1.1">
 <metadata>
  <rdf:RDF xmlns:dc="http://purl.org/dc/elements/1.1/" xmlns:cc="http://creativecommons.org/ns#" xmlns:rdf="http://www.w3.org/1999/02/22-rdf-syntax-ns#">
   <cc:Work>
    <dc:type rdf:resource="http://purl.org/dc/dcmitype/StillImage"/>
    <dc:date>2026-05-26T08:38:44.746987</dc:date>
    <dc:format>image/svg+xml</dc:format>
    <dc:creator>
     <cc:Agent>
      <dc:title>Matplotlib v3.10.8, https://matplotlib.org/</dc:title>
     </cc:Agent>
    </dc:creator>
   </cc:Work>
  </rdf:RDF>
 </metadata>
 <defs>
  <style type="text/css">*{stroke-linejoin: round; stroke-linecap: butt}</style>
 </defs>
 <g id="figure_1">
  <g id="patch_1">
   <path d="M 0 315.034375 
L 784.558125 315.034375 
L 784.558125 0 
L 0 0 
z
" style="fill: #ffffff"/>
  </g>
  <g id="axes_1">
   <g id="patch_2">
    <path d="M 53.328125 277.478125 
L 396.208125 277.478125 
L 396.208125 22.318125 
L 53.328125 22.318125 
z
" style="fill: #ffffff"/>
   </g>
   <g id="matplotlib.axis_1">
    <g id="xtick_1">
     <g id="line2d_1">
      <path d="M 65.765003 277.478125 
L 65.765003 22.318125 
" clip-path="url(#p31a9e20fd6)" style="fill: none; stroke: #b0b0b0; stroke-opacity: 0.25; stroke-width: 0.8; stroke-linecap: square"/>
     </g>
     <g id="line2d_2">
      <defs>
       <path id="ma7f556897f" d="M 0 0 
L 0 3.5 
" style="stroke: #000000; stroke-width: 0.8"/>
      </defs>
      <g>
       <use xlink:href="#ma7f556897f" x="65.765003" y="277.478125" style="stroke: #000000; stroke-width: 0.8"/>
      </g>
     </g>
     <g id="text_1">
      <!-- 0 -->
      <g transform="translate(62.583753 292.076563) scale(0.1 -0.1)">
       <defs>
        <path id="DejaVuSans-30" d="M 2034 4250 
Q 1547 4250 1301 3770 
Q 1056 3291 1056 2328 
Q 1056 1369 1301 889 
Q 1547 409 2034 409 
Q 2525 409 2770 889 
Q 3016 1369 3016 2328 
Q 3016 3291 2770 3770 
Q 2525 4250 2034 4250 
z
M 2034 4750 
Q 2819 4750 3233 4129 
Q 3647 3509 3647 2328 
Q 3647 1150 3233 529 
Q 2819 -91 2034 -91 
Q 1250 -91 836 529 
Q 422 1150 422 2328 
Q 422 3509 836 4129 
Q 1250 4750 2034 4750 
z
" transform="scale(0.015625)"/>
       </defs>
       <use xlink:href="#DejaVuSans-30"/>
      </g>
     </g>
    </g>
    <g id="xtick_2">
     <g id="line2d_3">
      <path d="M 128.736536 277.478125 
L 128.736536 22.318125 
" clip-path="url(#p31a9e20fd6)" style="fill: none; stroke: #b0b0b0; stroke-opacity: 0.25; stroke-width: 0.8; stroke-linecap: square"/>
     </g>
     <g id="line2d_4">
      <g>
       <use xlink:href="#ma7f556897f" x="128.736536" y="277.478125" style="stroke: #000000; stroke-width: 0.8"/>
      </g>
     </g>
     <g id="text_2">
      <!-- 10 -->
      <g transform="translate(122.374036 292.076563) scale(0.1 -0.1)">
       <defs>
        <path id="DejaVuSans-31" d="M 794 531 
L 1825 531 
L 1825 4091 
L 703 3866 
L 703 4441 
L 1819 4666 
L 2450 4666 
L 2450 531 
L 3481 531 
L 3481 0 
L 794 0 
L 794 531 
z
" transform="scale(0.015625)"/>
       </defs>
       <use xlink:href="#DejaVuSans-31"/>
       <use xlink:href="#DejaVuSans-30" transform="translate(63.623047 0)"/>
      </g>
     </g>
    </g>
    <g id="xtick_3">
     <g id="line2d_5">
      <path d="M 191.70807 277.478125 
L 191.70807 22.318125 
" clip-path="url(#p31a9e20fd6)" style="fill: none; stroke: #b0b0b0; stroke-opacity: 0.25; stroke-width: 0.8; stroke-linecap: square"/>
     </g>
     <g id="line2d_6">
      <g>
       <use xlink:href="#ma7f556897f" x="191.70807" y="277.478125" style="stroke: #000000; stroke-width: 0.8"/>
      </g>
     </g>
     <g id="text_3">
      <!-- 20 -->
      <g transform="translate(185.34557 292.076563) scale(0.1 -0.1)">
       <defs>
        <path id="DejaVuSans-32" d="M 1228 531 
L 3431 531 
L 3431 0 
L 469 0 
L 469 531 
Q 828 903 1448 1529 
Q 2069 2156 2228 2338 
Q 2531 2678 2651 2914 
Q 2772 3150 2772 3378 
Q 2772 3750 2511 3984 
Q 2250 4219 1831 4219 
Q 1534 4219 1204 4116 
Q 875 4013 500 3803 
L 500 4441 
Q 881 4594 1212 4672 
Q 1544 4750 1819 4750 
Q 2544 4750 2975 4387 
Q 3406 4025 3406 3419 
Q 3406 3131 3298 2873 
Q 3191 2616 2906 2266 
Q 2828 2175 2409 1742 
Q 1991 1309 1228 531 
z
" transform="scale(0.015625)"/>
       </defs>
       <use xlink:href="#DejaVuSans-32"/>
       <use xlink:href="#DejaVuSans-30" transform="translate(63.623047 0)"/>
      </g>
     </g>
    </g>
    <g id="xtick_4">
     <g id="line2d_7">
      <path d="M 254.679603 277.478125 
L 254.679603 22.318125 
" clip-path="url(#p31a9e20fd6)" style="fill: none; stroke: #b0b0b0; stroke-opacity: 0.25; stroke-width: 0.8; stroke-linecap: square"/>
     </g>
     <g id="line2d_8">
      <g>
       <use xlink:href="#ma7f556897f" x="254.679603" y="277.478125" style="stroke: #000000; stroke-width: 0.8"/>
      </g>
     </g>
     <g id="text_4">
      <!-- 30 -->
      <g transform="translate(248.317103 292.076563) scale(0.1 -0.1)">
       <defs>
        <path id="DejaVuSans-33" d="M 2597 2516 
Q 3050 2419 3304 2112 
Q 3559 1806 3559 1356 
Q 3559 666 3084 287 
Q 2609 -91 1734 -91 
Q 1441 -91 1130 -33 
Q 819 25 488 141 
L 488 750 
Q 750 597 1062 519 
Q 1375 441 1716 441 
Q 2309 441 2620 675 
Q 2931 909 2931 1356 
Q 2931 1769 2642 2001 
Q 2353 2234 1838 2234 
L 1294 2234 
L 1294 2753 
L 1863 2753 
Q 2328 2753 2575 2939 
Q 2822 3125 2822 3475 
Q 2822 3834 2567 4026 
Q 2313 4219 1838 4219 
Q 1578 4219 1281 4162 
Q 984 4106 628 3988 
L 628 4550 
Q 988 4650 1302 4700 
Q 1616 4750 1894 4750 
Q 2613 4750 3031 4423 
Q 3450 4097 3450 3541 
Q 3450 3153 3228 2886 
Q 3006 2619 2597 2516 
z
" transform="scale(0.015625)"/>
       </defs>
       <use xlink:href="#DejaVuSans-33"/>
       <use xlink:href="#DejaVuSans-30" transform="translate(63.623047 0)"/>
      </g>
     </g>
    </g>
    <g id="xtick_5">
     <g id="line2d_9">
      <path d="M 317.651137 277.478125 
L 317.651137 22.318125 
" clip-path="url(#p31a9e20fd6)" style="fill: none; stroke: #b0b0b0; stroke-opacity: 0.25; stroke-width: 0.8; stroke-linecap: square"/>
     </g>
     <g id="line2d_10">
      <g>
       <use xlink:href="#ma7f556897f" x="317.651137" y="277.478125" style="stroke: #000000; stroke-width: 0.8"/>
      </g>
     </g>
     <g id="text_5">
      <!-- 40 -->
      <g transform="translate(311.288637 292.076563) scale(0.1 -0.1)">
       <defs>
        <path id="DejaVuSans-34" d="M 2419 4116 
L 825 1625 
L 2419 1625 
L 2419 4116 
z
M 2253 4666 
L 3047 4666 
L 3047 1625 
L 3713 1625 
L 3713 1100 
L 3047 1100 
L 3047 0 
L 2419 0 
L 2419 1100 
L 313 1100 
L 313 1709 
L 2253 4666 
z
" transform="scale(0.015625)"/>
       </defs>
       <use xlink:href="#DejaVuSans-34"/>
       <use xlink:href="#DejaVuSans-30" transform="translate(63.623047 0)"/>
      </g>
     </g>
    </g>
    <g id="xtick_6">
     <g id="line2d_11">
      <path d="M 380.62267 277.478125 
L 380.62267 22.318125 
" clip-path="url(#p31a9e20fd6)" style="fill: none; stroke: #b0b0b0; stroke-opacity: 0.25; stroke-width: 0.8; stroke-linecap: square"/>
     </g>
     <g id="line2d_12">
      <g>
       <use xlink:href="#ma7f556897f" x="380.62267" y="277.478125" style="stroke: #000000; stroke-width: 0.8"/>
      </g>
     </g>
     <g id="text_6">
      <!-- 50 -->
      <g transform="translate(374.26017 292.076563) scale(0.1 -0.1)">
       <defs>
        <path id="DejaVuSans-35" d="M 691 4666 
L 3169 4666 
L 3169 4134 
L 1269 4134 
L 1269 2991 
Q 1406 3038 1543 3061 
Q 1681 3084 1819 3084 
Q 2600 3084 3056 2656 
Q 3513 2228 3513 1497 
Q 3513 744 3044 326 
Q 2575 -91 1722 -91 
Q 1428 -91 1123 -41 
Q 819 9 494 109 
L 494 744 
Q 775 591 1075 516 
Q 1375 441 1709 441 
Q 2250 441 2565 725 
Q 2881 1009 2881 1497 
Q 2881 1984 2565 2268 
Q 2250 2553 1709 2553 
Q 1456 2553 1204 2497 
Q 953 2441 691 2322 
L 691 4666 
z
" transform="scale(0.015625)"/>
       </defs>
       <use xlink:href="#DejaVuSans-35"/>
       <use xlink:href="#DejaVuSans-30" transform="translate(63.623047 0)"/>
      </g>
     </g>
    </g>
    <g id="text_7">
     <!-- x -->
     <g transform="translate(221.80875 305.754687) scale(0.1 -0.1)">
      <defs>
       <path id="DejaVuSans-78" d="M 3513 3500 
L 2247 1797 
L 3578 0 
L 2900 0 
L 1881 1375 
L 863 0 
L 184 0 
L 1544 1831 
L 300 3500 
L 978 3500 
L 1906 2253 
L 2834 3500 
L 3513 3500 
z
" transform="scale(0.015625)"/>
      </defs>
      <use xlink:href="#DejaVuSans-78"/>
     </g>
    </g>
   </g>
   <g id="matplotlib.axis_2">
    <g id="ytick_1">
     <g id="line2d_13">
      <path d="M 53.328125 266.112139 
L 396.208125 266.112139 
" clip-path="url(#p31a9e20fd6)" style="fill: none; stroke: #b0b0b0; stroke-opacity: 0.25; stroke-width: 0.8; stroke-linecap: square"/>
     </g>
     <g id="line2d_14">
      <defs>
       <path id="m35ddf0db36" d="M 0 0 
L -3.5 0 
" style="stroke: #000000; stroke-width: 0.8"/>
      </defs>
      <g>
       <use xlink:href="#m35ddf0db36" x="53.328125" y="266.112139" style="stroke: #000000; stroke-width: 0.8"/>
      </g>
     </g>
     <g id="text_8">
      <!-- 0 -->
      <g transform="translate(39.965625 269.911358) scale(0.1 -0.1)">
       <use xlink:href="#DejaVuSans-30"/>
      </g>
     </g>
    </g>
    <g id="ytick_2">
     <g id="line2d_15">
      <path d="M 53.328125 219.672973 
L 396.208125 219.672973 
" clip-path="url(#p31a9e20fd6)" style="fill: none; stroke: #b0b0b0; stroke-opacity: 0.25; stroke-width: 0.8; stroke-linecap: square"/>
     </g>
     <g id="line2d_16">
      <g>
       <use xlink:href="#m35ddf0db36" x="53.328125" y="219.672973" style="stroke: #000000; stroke-width: 0.8"/>
      </g>
     </g>
     <g id="text_9">
      <!-- 500 -->
      <g transform="translate(27.240625 223.472191) scale(0.1 -0.1)">
       <use xlink:href="#DejaVuSans-35"/>
       <use xlink:href="#DejaVuSans-30" transform="translate(63.623047 0)"/>
       <use xlink:href="#DejaVuSans-30" transform="translate(127.246094 0)"/>
      </g>
     </g>
    </g>
    <g id="ytick_3">
     <g id="line2d_17">
      <path d="M 53.328125 173.233806 
L 396.208125 173.233806 
" clip-path="url(#p31a9e20fd6)" style="fill: none; stroke: #b0b0b0; stroke-opacity: 0.25; stroke-width: 0.8; stroke-linecap: square"/>
     </g>
     <g id="line2d_18">
      <g>
       <use xlink:href="#m35ddf0db36" x="53.328125" y="173.233806" style="stroke: #000000; stroke-width: 0.8"/>
      </g>
     </g>
     <g id="text_10">
      <!-- 1000 -->
      <g transform="translate(20.878125 177.033025) scale(0.1 -0.1)">
       <use xlink:href="#DejaVuSans-31"/>
       <use xlink:href="#DejaVuSans-30" transform="translate(63.623047 0)"/>
       <use xlink:href="#DejaVuSans-30" transform="translate(127.246094 0)"/>
       <use xlink:href="#DejaVuSans-30" transform="translate(190.869141 0)"/>
      </g>
     </g>
    </g>
    <g id="ytick_4">
     <g id="line2d_19">
      <path d="M 53.328125 126.79464 
L 396.208125 126.79464 
" clip-path="url(#p31a9e20fd6)" style="fill: none; stroke: #b0b0b0; stroke-opacity: 0.25; stroke-width: 0.8; stroke-linecap: square"/>
     </g>
     <g id="line2d_20">
      <g>
       <use xlink:href="#m35ddf0db36" x="53.328125" y="126.79464" style="stroke: #000000; stroke-width: 0.8"/>
      </g>
     </g>
     <g id="text_11">
      <!-- 1500 -->
      <g transform="translate(20.878125 130.593858) scale(0.1 -0.1)">
       <use xlink:href="#DejaVuSans-31"/>
       <use xlink:href="#DejaVuSans-35" transform="translate(63.623047 0)"/>
       <use xlink:href="#DejaVuSans-30" transform="translate(127.246094 0)"/>
       <use xlink:href="#DejaVuSans-30" transform="translate(190.869141 0)"/>
      </g>
     </g>
    </g>
    <g id="ytick_5">
     <g id="line2d_21">
      <path d="M 53.328125 80.355473 
L 396.208125 80.355473 
" clip-path="url(#p31a9e20fd6)" style="fill: none; stroke: #b0b0b0; stroke-opacity: 0.25; stroke-width: 0.8; stroke-linecap: square"/>
     </g>
     <g id="line2d_22">
      <g>
       <use xlink:href="#m35ddf0db36" x="53.328125" y="80.355473" style="stroke: #000000; stroke-width: 0.8"/>
      </g>
     </g>
     <g id="text_12">
      <!-- 2000 -->
      <g transform="translate(20.878125 84.154692) scale(0.1 -0.1)">
       <use xlink:href="#DejaVuSans-32"/>
       <use xlink:href="#DejaVuSans-30" transform="translate(63.623047 0)"/>
       <use xlink:href="#DejaVuSans-30" transform="translate(127.246094 0)"/>
       <use xlink:href="#DejaVuSans-30" transform="translate(190.869141 0)"/>
      </g>
     </g>
    </g>
    <g id="ytick_6">
     <g id="line2d_23">
      <path d="M 53.328125 33.916307 
L 396.208125 33.916307 
" clip-path="url(#p31a9e20fd6)" style="fill: none; stroke: #b0b0b0; stroke-opacity: 0.25; stroke-width: 0.8; stroke-linecap: square"/>
     </g>
     <g id="line2d_24">
      <g>
       <use xlink:href="#m35ddf0db36" x="53.328125" y="33.916307" style="stroke: #000000; stroke-width: 0.8"/>
      </g>
     </g>
     <g id="text_13">
      <!-- 2500 -->
      <g transform="translate(20.878125 37.715526) scale(0.1 -0.1)">
       <use xlink:href="#DejaVuSans-32"/>
       <use xlink:href="#DejaVuSans-35" transform="translate(63.623047 0)"/>
       <use xlink:href="#DejaVuSans-30" transform="translate(127.246094 0)"/>
       <use xlink:href="#DejaVuSans-30" transform="translate(190.869141 0)"/>
      </g>
     </g>
    </g>
    <g id="text_14">
     <!-- y -->
     <g transform="translate(14.798438 152.8575) rotate(-90) scale(0.1 -0.1)">
      <defs>
       <path id="DejaVuSans-79" d="M 2059 -325 
Q 1816 -950 1584 -1140 
Q 1353 -1331 966 -1331 
L 506 -1331 
L 506 -850 
L 844 -850 
Q 1081 -850 1212 -737 
Q 1344 -625 1503 -206 
L 1606 56 
L 191 3500 
L 800 3500 
L 1894 763 
L 2988 3500 
L 3597 3500 
L 2059 -325 
z
" transform="scale(0.015625)"/>
      </defs>
      <use xlink:href="#DejaVuSans-79"/>
     </g>
    </g>
   </g>
   <g id="line2d_25">
    <path d="M 68.91358 265.879943 
L 380.62267 242.892556 
L 380.62267 242.892556 
" clip-path="url(#p31a9e20fd6)" style="fill: none; stroke: #7aa6c2; stroke-width: 2; stroke-linecap: square"/>
   </g>
   <g id="line2d_26">
    <path d="M 68.91358 265.647747 
L 380.62267 219.672973 
L 380.62267 219.672973 
" clip-path="url(#p31a9e20fd6)" style="fill: none; stroke: #e15759; stroke-width: 2; stroke-linecap: square"/>
   </g>
   <g id="line2d_27">
    <path d="M 68.91358 263.790181 
L 380.62267 33.916307 
L 380.62267 33.916307 
" clip-path="url(#p31a9e20fd6)" style="fill: none; stroke: #59a14f; stroke-width: 2; stroke-linecap: square"/>
   </g>
   <g id="patch_3">
    <path d="M 53.328125 277.478125 
L 53.328125 22.318125 
" style="fill: none; stroke: #000000; stroke-width: 0.8; stroke-linejoin: miter; stroke-linecap: square"/>
   </g>
   <g id="patch_4">
    <path d="M 396.208125 277.478125 
L 396.208125 22.318125 
" style="fill: none; stroke: #000000; stroke-width: 0.8; stroke-linejoin: miter; stroke-linecap: square"/>
   </g>
   <g id="patch_5">
    <path d="M 53.328125 277.478125 
L 396.208125 277.478125 
" style="fill: none; stroke: #000000; stroke-width: 0.8; stroke-linejoin: miter; stroke-linecap: square"/>
   </g>
   <g id="patch_6">
    <path d="M 53.328125 22.318125 
L 396.208125 22.318125 
" style="fill: none; stroke: #000000; stroke-width: 0.8; stroke-linejoin: miter; stroke-linecap: square"/>
   </g>
   <g id="text_15">
    <!-- Linear scale: scaling is multiplicative -->
    <g transform="translate(114.458125 16.318125) scale(0.12 -0.12)">
     <defs>
      <path id="DejaVuSans-4c" d="M 628 4666 
L 1259 4666 
L 1259 531 
L 3531 531 
L 3531 0 
L 628 0 
L 628 4666 
z
" transform="scale(0.015625)"/>
      <path id="DejaVuSans-69" d="M 603 3500 
L 1178 3500 
L 1178 0 
L 603 0 
L 603 3500 
z
M 603 4863 
L 1178 4863 
L 1178 4134 
L 603 4134 
L 603 4863 
z
" transform="scale(0.015625)"/>
      <path id="DejaVuSans-6e" d="M 3513 2113 
L 3513 0 
L 2938 0 
L 2938 2094 
Q 2938 2591 2744 2837 
Q 2550 3084 2163 3084 
Q 1697 3084 1428 2787 
Q 1159 2491 1159 1978 
L 1159 0 
L 581 0 
L 581 3500 
L 1159 3500 
L 1159 2956 
Q 1366 3272 1645 3428 
Q 1925 3584 2291 3584 
Q 2894 3584 3203 3211 
Q 3513 2838 3513 2113 
z
" transform="scale(0.015625)"/>
      <path id="DejaVuSans-65" d="M 3597 1894 
L 3597 1613 
L 953 1613 
Q 991 1019 1311 708 
Q 1631 397 2203 397 
Q 2534 397 2845 478 
Q 3156 559 3463 722 
L 3463 178 
Q 3153 47 2828 -22 
Q 2503 -91 2169 -91 
Q 1331 -91 842 396 
Q 353 884 353 1716 
Q 353 2575 817 3079 
Q 1281 3584 2069 3584 
Q 2775 3584 3186 3129 
Q 3597 2675 3597 1894 
z
M 3022 2063 
Q 3016 2534 2758 2815 
Q 2500 3097 2075 3097 
Q 1594 3097 1305 2825 
Q 1016 2553 972 2059 
L 3022 2063 
z
" transform="scale(0.015625)"/>
      <path id="DejaVuSans-61" d="M 2194 1759 
Q 1497 1759 1228 1600 
Q 959 1441 959 1056 
Q 959 750 1161 570 
Q 1363 391 1709 391 
Q 2188 391 2477 730 
Q 2766 1069 2766 1631 
L 2766 1759 
L 2194 1759 
z
M 3341 1997 
L 3341 0 
L 2766 0 
L 2766 531 
Q 2569 213 2275 61 
Q 1981 -91 1556 -91 
Q 1019 -91 701 211 
Q 384 513 384 1019 
Q 384 1609 779 1909 
Q 1175 2209 1959 2209 
L 2766 2209 
L 2766 2266 
Q 2766 2663 2505 2880 
Q 2244 3097 1772 3097 
Q 1472 3097 1187 3025 
Q 903 2953 641 2809 
L 641 3341 
Q 956 3463 1253 3523 
Q 1550 3584 1831 3584 
Q 2591 3584 2966 3190 
Q 3341 2797 3341 1997 
z
" transform="scale(0.015625)"/>
      <path id="DejaVuSans-72" d="M 2631 2963 
Q 2534 3019 2420 3045 
Q 2306 3072 2169 3072 
Q 1681 3072 1420 2755 
Q 1159 2438 1159 1844 
L 1159 0 
L 581 0 
L 581 3500 
L 1159 3500 
L 1159 2956 
Q 1341 3275 1631 3429 
Q 1922 3584 2338 3584 
Q 2397 3584 2469 3576 
Q 2541 3569 2628 3553 
L 2631 2963 
z
" transform="scale(0.015625)"/>
      <path id="DejaVuSans-20" transform="scale(0.015625)"/>
      <path id="DejaVuSans-73" d="M 2834 3397 
L 2834 2853 
Q 2591 2978 2328 3040 
Q 2066 3103 1784 3103 
Q 1356 3103 1142 2972 
Q 928 2841 928 2578 
Q 928 2378 1081 2264 
Q 1234 2150 1697 2047 
L 1894 2003 
Q 2506 1872 2764 1633 
Q 3022 1394 3022 966 
Q 3022 478 2636 193 
Q 2250 -91 1575 -91 
Q 1294 -91 989 -36 
Q 684 19 347 128 
L 347 722 
Q 666 556 975 473 
Q 1284 391 1588 391 
Q 1994 391 2212 530 
Q 2431 669 2431 922 
Q 2431 1156 2273 1281 
Q 2116 1406 1581 1522 
L 1381 1569 
Q 847 1681 609 1914 
Q 372 2147 372 2553 
Q 372 3047 722 3315 
Q 1072 3584 1716 3584 
Q 2034 3584 2315 3537 
Q 2597 3491 2834 3397 
z
" transform="scale(0.015625)"/>
      <path id="DejaVuSans-63" d="M 3122 3366 
L 3122 2828 
Q 2878 2963 2633 3030 
Q 2388 3097 2138 3097 
Q 1578 3097 1268 2742 
Q 959 2388 959 1747 
Q 959 1106 1268 751 
Q 1578 397 2138 397 
Q 2388 397 2633 464 
Q 2878 531 3122 666 
L 3122 134 
Q 2881 22 2623 -34 
Q 2366 -91 2075 -91 
Q 1284 -91 818 406 
Q 353 903 353 1747 
Q 353 2603 823 3093 
Q 1294 3584 2113 3584 
Q 2378 3584 2631 3529 
Q 2884 3475 3122 3366 
z
" transform="scale(0.015625)"/>
      <path id="DejaVuSans-6c" d="M 603 4863 
L 1178 4863 
L 1178 0 
L 603 0 
L 603 4863 
z
" transform="scale(0.015625)"/>
      <path id="DejaVuSans-3a" d="M 750 794 
L 1409 794 
L 1409 0 
L 750 0 
L 750 794 
z
M 750 3309 
L 1409 3309 
L 1409 2516 
L 750 2516 
L 750 3309 
z
" transform="scale(0.015625)"/>
      <path id="DejaVuSans-67" d="M 2906 1791 
Q 2906 2416 2648 2759 
Q 2391 3103 1925 3103 
Q 1463 3103 1205 2759 
Q 947 2416 947 1791 
Q 947 1169 1205 825 
Q 1463 481 1925 481 
Q 2391 481 2648 825 
Q 2906 1169 2906 1791 
z
M 3481 434 
Q 3481 -459 3084 -895 
Q 2688 -1331 1869 -1331 
Q 1566 -1331 1297 -1286 
Q 1028 -1241 775 -1147 
L 775 -588 
Q 1028 -725 1275 -790 
Q 1522 -856 1778 -856 
Q 2344 -856 2625 -561 
Q 2906 -266 2906 331 
L 2906 616 
Q 2728 306 2450 153 
Q 2172 0 1784 0 
Q 1141 0 747 490 
Q 353 981 353 1791 
Q 353 2603 747 3093 
Q 1141 3584 1784 3584 
Q 2172 3584 2450 3431 
Q 2728 3278 2906 2969 
L 2906 3500 
L 3481 3500 
L 3481 434 
z
" transform="scale(0.015625)"/>
      <path id="DejaVuSans-6d" d="M 3328 2828 
Q 3544 3216 3844 3400 
Q 4144 3584 4550 3584 
Q 5097 3584 5394 3201 
Q 5691 2819 5691 2113 
L 5691 0 
L 5113 0 
L 5113 2094 
Q 5113 2597 4934 2840 
Q 4756 3084 4391 3084 
Q 3944 3084 3684 2787 
Q 3425 2491 3425 1978 
L 3425 0 
L 2847 0 
L 2847 2094 
Q 2847 2600 2669 2842 
Q 2491 3084 2119 3084 
Q 1678 3084 1418 2786 
Q 1159 2488 1159 1978 
L 1159 0 
L 581 0 
L 581 3500 
L 1159 3500 
L 1159 2956 
Q 1356 3278 1631 3431 
Q 1906 3584 2284 3584 
Q 2666 3584 2933 3390 
Q 3200 3197 3328 2828 
z
" transform="scale(0.015625)"/>
      <path id="DejaVuSans-75" d="M 544 1381 
L 544 3500 
L 1119 3500 
L 1119 1403 
Q 1119 906 1312 657 
Q 1506 409 1894 409 
Q 2359 409 2629 706 
Q 2900 1003 2900 1516 
L 2900 3500 
L 3475 3500 
L 3475 0 
L 2900 0 
L 2900 538 
Q 2691 219 2414 64 
Q 2138 -91 1772 -91 
Q 1169 -91 856 284 
Q 544 659 544 1381 
z
M 1991 3584 
L 1991 3584 
z
" transform="scale(0.015625)"/>
      <path id="DejaVuSans-74" d="M 1172 4494 
L 1172 3500 
L 2356 3500 
L 2356 3053 
L 1172 3053 
L 1172 1153 
Q 1172 725 1289 603 
Q 1406 481 1766 481 
L 2356 481 
L 2356 0 
L 1766 0 
Q 1100 0 847 248 
Q 594 497 594 1153 
L 594 3053 
L 172 3053 
L 172 3500 
L 594 3500 
L 594 4494 
L 1172 4494 
z
" transform="scale(0.015625)"/>
      <path id="DejaVuSans-70" d="M 1159 525 
L 1159 -1331 
L 581 -1331 
L 581 3500 
L 1159 3500 
L 1159 2969 
Q 1341 3281 1617 3432 
Q 1894 3584 2278 3584 
Q 2916 3584 3314 3078 
Q 3713 2572 3713 1747 
Q 3713 922 3314 415 
Q 2916 -91 2278 -91 
Q 1894 -91 1617 61 
Q 1341 213 1159 525 
z
M 3116 1747 
Q 3116 2381 2855 2742 
Q 2594 3103 2138 3103 
Q 1681 3103 1420 2742 
Q 1159 2381 1159 1747 
Q 1159 1113 1420 752 
Q 1681 391 2138 391 
Q 2594 391 2855 752 
Q 3116 1113 3116 1747 
z
" transform="scale(0.015625)"/>
      <path id="DejaVuSans-76" d="M 191 3500 
L 800 3500 
L 1894 563 
L 2988 3500 
L 3597 3500 
L 2284 0 
L 1503 0 
L 191 3500 
z
" transform="scale(0.015625)"/>
     </defs>
     <use xlink:href="#DejaVuSans-4c"/>
     <use xlink:href="#DejaVuSans-69" transform="translate(55.712891 0)"/>
     <use xlink:href="#DejaVuSans-6e" transform="translate(83.496094 0)"/>
     <use xlink:href="#DejaVuSans-65" transform="translate(146.875 0)"/>
     <use xlink:href="#DejaVuSans-61" transform="translate(208.398438 0)"/>
     <use xlink:href="#DejaVuSans-72" transform="translate(269.677734 0)"/>
     <use xlink:href="#DejaVuSans-20" transform="translate(310.791016 0)"/>
     <use xlink:href="#DejaVuSans-73" transform="translate(342.578125 0)"/>
     <use xlink:href="#DejaVuSans-63" transform="translate(394.677734 0)"/>
     <use xlink:href="#DejaVuSans-61" transform="translate(449.658203 0)"/>
     <use xlink:href="#DejaVuSans-6c" transform="translate(510.9375 0)"/>
     <use xlink:href="#DejaVuSans-65" transform="translate(538.720703 0)"/>
     <use xlink:href="#DejaVuSans-3a" transform="translate(600.244141 0)"/>
     <use xlink:href="#DejaVuSans-20" transform="translate(633.935547 0)"/>
     <use xlink:href="#DejaVuSans-73" transform="translate(665.722656 0)"/>
     <use xlink:href="#DejaVuSans-63" transform="translate(717.822266 0)"/>
     <use xlink:href="#DejaVuSans-61" transform="translate(772.802734 0)"/>
     <use xlink:href="#DejaVuSans-6c" transform="translate(834.082031 0)"/>
     <use xlink:href="#DejaVuSans-69" transform="translate(861.865234 0)"/>
     <use xlink:href="#DejaVuSans-6e" transform="translate(889.648438 0)"/>
     <use xlink:href="#DejaVuSans-67" transform="translate(953.027344 0)"/>
     <use xlink:href="#DejaVuSans-20" transform="translate(1016.503906 0)"/>
     <use xlink:href="#DejaVuSans-69" transform="translate(1048.291016 0)"/>
     <use xlink:href="#DejaVuSans-73" transform="translate(1076.074219 0)"/>
     <use xlink:href="#DejaVuSans-20" transform="translate(1128.173828 0)"/>
     <use xlink:href="#DejaVuSans-6d" transform="translate(1159.960938 0)"/>
     <use xlink:href="#DejaVuSans-75" transform="translate(1257.373047 0)"/>
     <use xlink:href="#DejaVuSans-6c" transform="translate(1320.751953 0)"/>
     <use xlink:href="#DejaVuSans-74" transform="translate(1348.535156 0)"/>
     <use xlink:href="#DejaVuSans-69" transform="translate(1387.744141 0)"/>
     <use xlink:href="#DejaVuSans-70" transform="translate(1415.527344 0)"/>
     <use xlink:href="#DejaVuSans-6c" transform="translate(1479.003906 0)"/>
     <use xlink:href="#DejaVuSans-69" transform="translate(1506.787109 0)"/>
     <use xlink:href="#DejaVuSans-63" transform="translate(1534.570312 0)"/>
     <use xlink:href="#DejaVuSans-61" transform="translate(1589.550781 0)"/>
     <use xlink:href="#DejaVuSans-74" transform="translate(1650.830078 0)"/>
     <use xlink:href="#DejaVuSans-69" transform="translate(1690.039062 0)"/>
     <use xlink:href="#DejaVuSans-76" transform="translate(1717.822266 0)"/>
     <use xlink:href="#DejaVuSans-65" transform="translate(1777.001953 0)"/>
    </g>
   </g>
   <g id="legend_1">
    <g id="patch_7">
     <path d="M 59.628125 69.149063 
L 134.017344 69.149063 
Q 135.817344 69.149063 135.817344 67.349063 
L 135.817344 28.618125 
Q 135.817344 26.818125 134.017344 26.818125 
L 59.628125 26.818125 
Q 57.828125 26.818125 57.828125 28.618125 
L 57.828125 67.349063 
Q 57.828125 69.149063 59.628125 69.149063 
z
" style="fill: #ffffff; opacity: 0.8; stroke: #cccccc; stroke-linejoin: miter"/>
    </g>
    <g id="line2d_28">
     <path d="M 61.428125 34.106719 
L 70.428125 34.106719 
L 79.428125 34.106719 
" style="fill: none; stroke: #7aa6c2; stroke-width: 2; stroke-linecap: square"/>
    </g>
    <g id="text_16">
     <!-- y = 5 * x -->
     <g transform="translate(86.628125 37.256719) scale(0.09 -0.09)">
      <defs>
       <path id="DejaVuSans-3d" d="M 678 2906 
L 4684 2906 
L 4684 2381 
L 678 2381 
L 678 2906 
z
M 678 1631 
L 4684 1631 
L 4684 1100 
L 678 1100 
L 678 1631 
z
" transform="scale(0.015625)"/>
       <path id="DejaVuSans-2a" d="M 3009 3897 
L 1888 3291 
L 3009 2681 
L 2828 2375 
L 1778 3009 
L 1778 1831 
L 1422 1831 
L 1422 3009 
L 372 2375 
L 191 2681 
L 1313 3291 
L 191 3897 
L 372 4206 
L 1422 3572 
L 1422 4750 
L 1778 4750 
L 1778 3572 
L 2828 4206 
L 3009 3897 
z
" transform="scale(0.015625)"/>
      </defs>
      <use xlink:href="#DejaVuSans-79"/>
      <use xlink:href="#DejaVuSans-20" transform="translate(59.179688 0)"/>
      <use xlink:href="#DejaVuSans-3d" transform="translate(90.966797 0)"/>
      <use xlink:href="#DejaVuSans-20" transform="translate(174.755859 0)"/>
      <use xlink:href="#DejaVuSans-35" transform="translate(206.542969 0)"/>
      <use xlink:href="#DejaVuSans-20" transform="translate(270.166016 0)"/>
      <use xlink:href="#DejaVuSans-2a" transform="translate(301.953125 0)"/>
      <use xlink:href="#DejaVuSans-20" transform="translate(351.953125 0)"/>
      <use xlink:href="#DejaVuSans-78" transform="translate(383.740234 0)"/>
     </g>
    </g>
    <g id="line2d_29">
     <path d="M 61.428125 47.317031 
L 70.428125 47.317031 
L 79.428125 47.317031 
" style="fill: none; stroke: #e15759; stroke-width: 2; stroke-linecap: square"/>
    </g>
    <g id="text_17">
     <!-- y = 10 * x -->
     <g transform="translate(86.628125 50.467031) scale(0.09 -0.09)">
      <use xlink:href="#DejaVuSans-79"/>
      <use xlink:href="#DejaVuSans-20" transform="translate(59.179688 0)"/>
      <use xlink:href="#DejaVuSans-3d" transform="translate(90.966797 0)"/>
      <use xlink:href="#DejaVuSans-20" transform="translate(174.755859 0)"/>
      <use xlink:href="#DejaVuSans-31" transform="translate(206.542969 0)"/>
      <use xlink:href="#DejaVuSans-30" transform="translate(270.166016 0)"/>
      <use xlink:href="#DejaVuSans-20" transform="translate(333.789062 0)"/>
      <use xlink:href="#DejaVuSans-2a" transform="translate(365.576172 0)"/>
      <use xlink:href="#DejaVuSans-20" transform="translate(415.576172 0)"/>
      <use xlink:href="#DejaVuSans-78" transform="translate(447.363281 0)"/>
     </g>
    </g>
    <g id="line2d_30">
     <path d="M 61.428125 60.527344 
L 70.428125 60.527344 
L 79.428125 60.527344 
" style="fill: none; stroke: #59a14f; stroke-width: 2; stroke-linecap: square"/>
    </g>
    <g id="text_18">
     <!-- y = 50 * x -->
     <g transform="translate(86.628125 63.677344) scale(0.09 -0.09)">
      <use xlink:href="#DejaVuSans-79"/>
      <use xlink:href="#DejaVuSans-20" transform="translate(59.179688 0)"/>
      <use xlink:href="#DejaVuSans-3d" transform="translate(90.966797 0)"/>
      <use xlink:href="#DejaVuSans-20" transform="translate(174.755859 0)"/>
      <use xlink:href="#DejaVuSans-35" transform="translate(206.542969 0)"/>
      <use xlink:href="#DejaVuSans-30" transform="translate(270.166016 0)"/>
      <use xlink:href="#DejaVuSans-20" transform="translate(333.789062 0)"/>
      <use xlink:href="#DejaVuSans-2a" transform="translate(365.576172 0)"/>
      <use xlink:href="#DejaVuSans-20" transform="translate(415.576172 0)"/>
      <use xlink:href="#DejaVuSans-78" transform="translate(447.363281 0)"/>
     </g>
    </g>
   </g>
  </g>
  <g id="axes_2">
   <g id="patch_8">
    <path d="M 434.478125 277.478125 
L 777.358125 277.478125 
L 777.358125 22.318125 
L 434.478125 22.318125 
z
" style="fill: #ffffff"/>
   </g>
   <g id="matplotlib.axis_3">
    <g id="xtick_7">
     <g id="line2d_31">
      <path d="M 446.915003 277.478125 
L 446.915003 22.318125 
" clip-path="url(#p25bfb1bb21)" style="fill: none; stroke: #b0b0b0; stroke-opacity: 0.25; stroke-width: 0.8; stroke-linecap: square"/>
     </g>
     <g id="line2d_32">
      <g>
       <use xlink:href="#ma7f556897f" x="446.915003" y="277.478125" style="stroke: #000000; stroke-width: 0.8"/>
      </g>
     </g>
     <g id="text_19">
      <!-- 0 -->
      <g transform="translate(443.733753 292.076563) scale(0.1 -0.1)">
       <use xlink:href="#DejaVuSans-30"/>
      </g>
     </g>
    </g>
    <g id="xtick_8">
     <g id="line2d_33">
      <path d="M 509.886536 277.478125 
L 509.886536 22.318125 
" clip-path="url(#p25bfb1bb21)" style="fill: none; stroke: #b0b0b0; stroke-opacity: 0.25; stroke-width: 0.8; stroke-linecap: square"/>
     </g>
     <g id="line2d_34">
      <g>
       <use xlink:href="#ma7f556897f" x="509.886536" y="277.478125" style="stroke: #000000; stroke-width: 0.8"/>
      </g>
     </g>
     <g id="text_20">
      <!-- 10 -->
      <g transform="translate(503.524036 292.076563) scale(0.1 -0.1)">
       <use xlink:href="#DejaVuSans-31"/>
       <use xlink:href="#DejaVuSans-30" transform="translate(63.623047 0)"/>
      </g>
     </g>
    </g>
    <g id="xtick_9">
     <g id="line2d_35">
      <path d="M 572.85807 277.478125 
L 572.85807 22.318125 
" clip-path="url(#p25bfb1bb21)" style="fill: none; stroke: #b0b0b0; stroke-opacity: 0.25; stroke-width: 0.8; stroke-linecap: square"/>
     </g>
     <g id="line2d_36">
      <g>
       <use xlink:href="#ma7f556897f" x="572.85807" y="277.478125" style="stroke: #000000; stroke-width: 0.8"/>
      </g>
     </g>
     <g id="text_21">
      <!-- 20 -->
      <g transform="translate(566.49557 292.076563) scale(0.1 -0.1)">
       <use xlink:href="#DejaVuSans-32"/>
       <use xlink:href="#DejaVuSans-30" transform="translate(63.623047 0)"/>
      </g>
     </g>
    </g>
    <g id="xtick_10">
     <g id="line2d_37">
      <path d="M 635.829603 277.478125 
L 635.829603 22.318125 
" clip-path="url(#p25bfb1bb21)" style="fill: none; stroke: #b0b0b0; stroke-opacity: 0.25; stroke-width: 0.8; stroke-linecap: square"/>
     </g>
     <g id="line2d_38">
      <g>
       <use xlink:href="#ma7f556897f" x="635.829603" y="277.478125" style="stroke: #000000; stroke-width: 0.8"/>
      </g>
     </g>
     <g id="text_22">
      <!-- 30 -->
      <g transform="translate(629.467103 292.076563) scale(0.1 -0.1)">
       <use xlink:href="#DejaVuSans-33"/>
       <use xlink:href="#DejaVuSans-30" transform="translate(63.623047 0)"/>
      </g>
     </g>
    </g>
    <g id="xtick_11">
     <g id="line2d_39">
      <path d="M 698.801137 277.478125 
L 698.801137 22.318125 
" clip-path="url(#p25bfb1bb21)" style="fill: none; stroke: #b0b0b0; stroke-opacity: 0.25; stroke-width: 0.8; stroke-linecap: square"/>
     </g>
     <g id="line2d_40">
      <g>
       <use xlink:href="#ma7f556897f" x="698.801137" y="277.478125" style="stroke: #000000; stroke-width: 0.8"/>
      </g>
     </g>
     <g id="text_23">
      <!-- 40 -->
      <g transform="translate(692.438637 292.076563) scale(0.1 -0.1)">
       <use xlink:href="#DejaVuSans-34"/>
       <use xlink:href="#DejaVuSans-30" transform="translate(63.623047 0)"/>
      </g>
     </g>
    </g>
    <g id="xtick_12">
     <g id="line2d_41">
      <path d="M 761.77267 277.478125 
L 761.77267 22.318125 
" clip-path="url(#p25bfb1bb21)" style="fill: none; stroke: #b0b0b0; stroke-opacity: 0.25; stroke-width: 0.8; stroke-linecap: square"/>
     </g>
     <g id="line2d_42">
      <g>
       <use xlink:href="#ma7f556897f" x="761.77267" y="277.478125" style="stroke: #000000; stroke-width: 0.8"/>
      </g>
     </g>
     <g id="text_24">
      <!-- 50 -->
      <g transform="translate(755.41017 292.076563) scale(0.1 -0.1)">
       <use xlink:href="#DejaVuSans-35"/>
       <use xlink:href="#DejaVuSans-30" transform="translate(63.623047 0)"/>
      </g>
     </g>
    </g>
    <g id="text_25">
     <!-- x -->
     <g transform="translate(602.95875 305.754687) scale(0.1 -0.1)">
      <use xlink:href="#DejaVuSans-78"/>
     </g>
    </g>
   </g>
   <g id="matplotlib.axis_4">
    <g id="ytick_7">
     <g id="line2d_43">
      <path d="M 434.478125 263.068971 
L 777.358125 263.068971 
" clip-path="url(#p25bfb1bb21)" style="fill: none; stroke: #b0b0b0; stroke-opacity: 0.25; stroke-width: 0.8; stroke-linecap: square"/>
     </g>
     <g id="line2d_44">
      <g>
       <use xlink:href="#m35ddf0db36" x="434.478125" y="263.068971" style="stroke: #000000; stroke-width: 0.8"/>
      </g>
     </g>
     <g id="text_26">
      <!-- 1 -->
      <g transform="translate(421.115625 266.86819) scale(0.1 -0.1)">
       <use xlink:href="#DejaVuSans-31"/>
      </g>
     </g>
    </g>
    <g id="ytick_8">
     <g id="line2d_45">
      <path d="M 434.478125 229.488795 
L 777.358125 229.488795 
" clip-path="url(#p25bfb1bb21)" style="fill: none; stroke: #b0b0b0; stroke-opacity: 0.25; stroke-width: 0.8; stroke-linecap: square"/>
     </g>
     <g id="line2d_46">
      <g>
       <use xlink:href="#m35ddf0db36" x="434.478125" y="229.488795" style="stroke: #000000; stroke-width: 0.8"/>
      </g>
     </g>
     <g id="text_27">
      <!-- 2 -->
      <g transform="translate(421.115625 233.288014) scale(0.1 -0.1)">
       <use xlink:href="#DejaVuSans-32"/>
      </g>
     </g>
    </g>
    <g id="ytick_9">
     <g id="line2d_47">
      <path d="M 434.478125 195.90862 
L 777.358125 195.90862 
" clip-path="url(#p25bfb1bb21)" style="fill: none; stroke: #b0b0b0; stroke-opacity: 0.25; stroke-width: 0.8; stroke-linecap: square"/>
     </g>
     <g id="line2d_48">
      <g>
       <use xlink:href="#m35ddf0db36" x="434.478125" y="195.90862" style="stroke: #000000; stroke-width: 0.8"/>
      </g>
     </g>
     <g id="text_28">
      <!-- 3 -->
      <g transform="translate(421.115625 199.707838) scale(0.1 -0.1)">
       <use xlink:href="#DejaVuSans-33"/>
      </g>
     </g>
    </g>
    <g id="ytick_10">
     <g id="line2d_49">
      <path d="M 434.478125 162.328444 
L 777.358125 162.328444 
" clip-path="url(#p25bfb1bb21)" style="fill: none; stroke: #b0b0b0; stroke-opacity: 0.25; stroke-width: 0.8; stroke-linecap: square"/>
     </g>
     <g id="line2d_50">
      <g>
       <use xlink:href="#m35ddf0db36" x="434.478125" y="162.328444" style="stroke: #000000; stroke-width: 0.8"/>
      </g>
     </g>
     <g id="text_29">
      <!-- 4 -->
      <g transform="translate(421.115625 166.127663) scale(0.1 -0.1)">
       <use xlink:href="#DejaVuSans-34"/>
      </g>
     </g>
    </g>
    <g id="ytick_11">
     <g id="line2d_51">
      <path d="M 434.478125 128.748268 
L 777.358125 128.748268 
" clip-path="url(#p25bfb1bb21)" style="fill: none; stroke: #b0b0b0; stroke-opacity: 0.25; stroke-width: 0.8; stroke-linecap: square"/>
     </g>
     <g id="line2d_52">
      <g>
       <use xlink:href="#m35ddf0db36" x="434.478125" y="128.748268" style="stroke: #000000; stroke-width: 0.8"/>
      </g>
     </g>
     <g id="text_30">
      <!-- 5 -->
      <g transform="translate(421.115625 132.547487) scale(0.1 -0.1)">
       <use xlink:href="#DejaVuSans-35"/>
      </g>
     </g>
    </g>
    <g id="ytick_12">
     <g id="line2d_53">
      <path d="M 434.478125 95.168092 
L 777.358125 95.168092 
" clip-path="url(#p25bfb1bb21)" style="fill: none; stroke: #b0b0b0; stroke-opacity: 0.25; stroke-width: 0.8; stroke-linecap: square"/>
     </g>
     <g id="line2d_54">
      <g>
       <use xlink:href="#m35ddf0db36" x="434.478125" y="95.168092" style="stroke: #000000; stroke-width: 0.8"/>
      </g>
     </g>
     <g id="text_31">
      <!-- 6 -->
      <g transform="translate(421.115625 98.967311) scale(0.1 -0.1)">
       <defs>
        <path id="DejaVuSans-36" d="M 2113 2584 
Q 1688 2584 1439 2293 
Q 1191 2003 1191 1497 
Q 1191 994 1439 701 
Q 1688 409 2113 409 
Q 2538 409 2786 701 
Q 3034 994 3034 1497 
Q 3034 2003 2786 2293 
Q 2538 2584 2113 2584 
z
M 3366 4563 
L 3366 3988 
Q 3128 4100 2886 4159 
Q 2644 4219 2406 4219 
Q 1781 4219 1451 3797 
Q 1122 3375 1075 2522 
Q 1259 2794 1537 2939 
Q 1816 3084 2150 3084 
Q 2853 3084 3261 2657 
Q 3669 2231 3669 1497 
Q 3669 778 3244 343 
Q 2819 -91 2113 -91 
Q 1303 -91 875 529 
Q 447 1150 447 2328 
Q 447 3434 972 4092 
Q 1497 4750 2381 4750 
Q 2619 4750 2861 4703 
Q 3103 4656 3366 4563 
z
" transform="scale(0.015625)"/>
       </defs>
       <use xlink:href="#DejaVuSans-36"/>
      </g>
     </g>
    </g>
    <g id="ytick_13">
     <g id="line2d_55">
      <path d="M 434.478125 61.587917 
L 777.358125 61.587917 
" clip-path="url(#p25bfb1bb21)" style="fill: none; stroke: #b0b0b0; stroke-opacity: 0.25; stroke-width: 0.8; stroke-linecap: square"/>
     </g>
     <g id="line2d_56">
      <g>
       <use xlink:href="#m35ddf0db36" x="434.478125" y="61.587917" style="stroke: #000000; stroke-width: 0.8"/>
      </g>
     </g>
     <g id="text_32">
      <!-- 7 -->
      <g transform="translate(421.115625 65.387135) scale(0.1 -0.1)">
       <defs>
        <path id="DejaVuSans-37" d="M 525 4666 
L 3525 4666 
L 3525 4397 
L 1831 0 
L 1172 0 
L 2766 4134 
L 525 4134 
L 525 4666 
z
" transform="scale(0.015625)"/>
       </defs>
       <use xlink:href="#DejaVuSans-37"/>
      </g>
     </g>
    </g>
    <g id="ytick_14">
     <g id="line2d_57">
      <path d="M 434.478125 28.007741 
L 777.358125 28.007741 
" clip-path="url(#p25bfb1bb21)" style="fill: none; stroke: #b0b0b0; stroke-opacity: 0.25; stroke-width: 0.8; stroke-linecap: square"/>
     </g>
     <g id="line2d_58">
      <g>
       <use xlink:href="#m35ddf0db36" x="434.478125" y="28.007741" style="stroke: #000000; stroke-width: 0.8"/>
      </g>
     </g>
     <g id="text_33">
      <!-- 8 -->
      <g transform="translate(421.115625 31.80696) scale(0.1 -0.1)">
       <defs>
        <path id="DejaVuSans-38" d="M 2034 2216 
Q 1584 2216 1326 1975 
Q 1069 1734 1069 1313 
Q 1069 891 1326 650 
Q 1584 409 2034 409 
Q 2484 409 2743 651 
Q 3003 894 3003 1313 
Q 3003 1734 2745 1975 
Q 2488 2216 2034 2216 
z
M 1403 2484 
Q 997 2584 770 2862 
Q 544 3141 544 3541 
Q 544 4100 942 4425 
Q 1341 4750 2034 4750 
Q 2731 4750 3128 4425 
Q 3525 4100 3525 3541 
Q 3525 3141 3298 2862 
Q 3072 2584 2669 2484 
Q 3125 2378 3379 2068 
Q 3634 1759 3634 1313 
Q 3634 634 3220 271 
Q 2806 -91 2034 -91 
Q 1263 -91 848 271 
Q 434 634 434 1313 
Q 434 1759 690 2068 
Q 947 2378 1403 2484 
z
M 1172 3481 
Q 1172 3119 1398 2916 
Q 1625 2713 2034 2713 
Q 2441 2713 2670 2916 
Q 2900 3119 2900 3481 
Q 2900 3844 2670 4047 
Q 2441 4250 2034 4250 
Q 1625 4250 1398 4047 
Q 1172 3844 1172 3481 
z
" transform="scale(0.015625)"/>
       </defs>
       <use xlink:href="#DejaVuSans-38"/>
      </g>
     </g>
    </g>
    <g id="text_34">
     <!-- log(y) -->
     <g transform="translate(415.035937 164.381719) rotate(-90) scale(0.1 -0.1)">
      <defs>
       <path id="DejaVuSans-6f" d="M 1959 3097 
Q 1497 3097 1228 2736 
Q 959 2375 959 1747 
Q 959 1119 1226 758 
Q 1494 397 1959 397 
Q 2419 397 2687 759 
Q 2956 1122 2956 1747 
Q 2956 2369 2687 2733 
Q 2419 3097 1959 3097 
z
M 1959 3584 
Q 2709 3584 3137 3096 
Q 3566 2609 3566 1747 
Q 3566 888 3137 398 
Q 2709 -91 1959 -91 
Q 1206 -91 779 398 
Q 353 888 353 1747 
Q 353 2609 779 3096 
Q 1206 3584 1959 3584 
z
" transform="scale(0.015625)"/>
       <path id="DejaVuSans-28" d="M 1984 4856 
Q 1566 4138 1362 3434 
Q 1159 2731 1159 2009 
Q 1159 1288 1364 580 
Q 1569 -128 1984 -844 
L 1484 -844 
Q 1016 -109 783 600 
Q 550 1309 550 2009 
Q 550 2706 781 3412 
Q 1013 4119 1484 4856 
L 1984 4856 
z
" transform="scale(0.015625)"/>
       <path id="DejaVuSans-29" d="M 513 4856 
L 1013 4856 
Q 1481 4119 1714 3412 
Q 1947 2706 1947 2009 
Q 1947 1309 1714 600 
Q 1481 -109 1013 -844 
L 513 -844 
Q 928 -128 1133 580 
Q 1338 1288 1338 2009 
Q 1338 2731 1133 3434 
Q 928 4138 513 4856 
z
" transform="scale(0.015625)"/>
      </defs>
      <use xlink:href="#DejaVuSans-6c"/>
      <use xlink:href="#DejaVuSans-6f" transform="translate(27.783203 0)"/>
      <use xlink:href="#DejaVuSans-67" transform="translate(88.964844 0)"/>
      <use xlink:href="#DejaVuSans-28" transform="translate(152.441406 0)"/>
      <use xlink:href="#DejaVuSans-79" transform="translate(191.455078 0)"/>
      <use xlink:href="#DejaVuSans-29" transform="translate(250.634766 0)"/>
     </g>
    </g>
   </g>
   <g id="line2d_59">
    <path d="M 450.06358 265.879943 
L 451.629957 252.320649 
L 453.196334 242.688418 
L 454.762712 235.212139 
L 456.329089 229.101035 
L 457.895466 223.932691 
L 459.461844 219.454732 
L 461.028221 215.504263 
L 462.594598 211.970003 
L 464.160976 208.772551 
L 467.29373 203.167585 
L 470.426485 198.36571 
L 473.55924 194.165369 
L 476.691994 190.432491 
L 479.824749 187.073371 
L 482.957504 184.019926 
L 486.090258 181.221136 
L 489.223013 178.637776 
L 493.922145 175.101007 
L 498.621277 171.901502 
L 503.320409 168.980501 
L 508.019541 166.293377 
L 514.285051 163.015469 
L 520.55056 160.029268 
L 526.816069 157.287071 
L 534.647956 154.147044 
L 542.479843 151.27569 
L 550.311729 148.630636 
L 559.709993 145.709207 
L 569.108257 143.021721 
L 580.072899 140.136117 
L 591.03754 137.478975 
L 603.568559 134.679301 
L 617.665955 131.785719 
L 631.763351 129.121815 
L 647.427125 126.390438 
L 664.657275 123.622175 
L 683.453803 120.841732 
L 703.816709 118.068638 
L 725.745992 115.318009 
L 749.241652 112.601298 
L 761.77267 111.237519 
L 761.77267 111.237519 
" clip-path="url(#p25bfb1bb21)" style="fill: none; stroke: #7aa6c2; stroke-width: 2; stroke-linecap: square"/>
   </g>
   <g id="line2d_60">
    <path d="M 450.06358 242.603939 
L 451.629957 229.044645 
L 453.196334 219.412413 
L 454.762712 211.936135 
L 456.329089 205.825031 
L 457.895466 200.656687 
L 459.461844 196.178728 
L 461.028221 192.228259 
L 462.594598 188.693999 
L 464.160976 185.496547 
L 467.29373 179.891581 
L 470.426485 175.089706 
L 473.55924 170.889364 
L 476.691994 167.156487 
L 479.824749 163.797366 
L 482.957504 160.743922 
L 486.090258 157.945132 
L 489.223013 155.361772 
L 493.922145 151.825003 
L 498.621277 148.625498 
L 503.320409 145.704497 
L 508.019541 143.017373 
L 514.285051 139.739465 
L 520.55056 136.753264 
L 526.816069 134.011067 
L 534.647956 130.871039 
L 542.479843 127.999686 
L 550.311729 125.354632 
L 559.709993 122.433203 
L 569.108257 119.745717 
L 580.072899 116.860113 
L 591.03754 114.202971 
L 603.568559 111.403297 
L 617.665955 108.509715 
L 631.763351 105.845811 
L 647.427125 103.114434 
L 664.657275 100.346171 
L 683.453803 97.565728 
L 703.816709 94.792634 
L 725.745992 92.042005 
L 749.241652 89.325294 
L 761.77267 87.961515 
L 761.77267 87.961515 
" clip-path="url(#p25bfb1bb21)" style="fill: none; stroke: #e15759; stroke-width: 2; stroke-linecap: square"/>
   </g>
   <g id="line2d_61">
    <path d="M 450.06358 188.558731 
L 451.629957 174.999437 
L 453.196334 165.367205 
L 454.762712 157.890927 
L 456.329089 151.779823 
L 457.895466 146.611479 
L 459.461844 142.13352 
L 461.028221 138.183051 
L 462.594598 134.648791 
L 464.160976 131.451339 
L 467.29373 125.846373 
L 470.426485 121.044498 
L 473.55924 116.844157 
L 476.691994 113.111279 
L 479.824749 109.752158 
L 482.957504 106.698714 
L 486.090258 103.899924 
L 489.223013 101.316564 
L 493.922145 97.779795 
L 498.621277 94.58029 
L 503.320409 91.659289 
L 508.019541 88.972165 
L 514.285051 85.694257 
L 520.55056 82.708056 
L 526.816069 79.965859 
L 534.647956 76.825831 
L 542.479843 73.954478 
L 550.311729 71.309424 
L 559.709993 68.387995 
L 569.108257 65.700509 
L 580.072899 62.814905 
L 591.03754 60.157763 
L 603.568559 57.358089 
L 617.665955 54.464507 
L 631.763351 51.800603 
L 647.427125 49.069226 
L 664.657275 46.300963 
L 683.453803 43.52052 
L 703.816709 40.747426 
L 725.745992 37.996797 
L 749.241652 35.280086 
L 761.77267 33.916307 
L 761.77267 33.916307 
" clip-path="url(#p25bfb1bb21)" style="fill: none; stroke: #59a14f; stroke-width: 2; stroke-linecap: square"/>
   </g>
   <g id="patch_9">
    <path d="M 434.478125 277.478125 
L 434.478125 22.318125 
" style="fill: none; stroke: #000000; stroke-width: 0.8; stroke-linejoin: miter; stroke-linecap: square"/>
   </g>
   <g id="patch_10">
    <path d="M 777.358125 277.478125 
L 777.358125 22.318125 
" style="fill: none; stroke: #000000; stroke-width: 0.8; stroke-linejoin: miter; stroke-linecap: square"/>
   </g>
   <g id="patch_11">
    <path d="M 434.478125 277.478125 
L 777.358125 277.478125 
" style="fill: none; stroke: #000000; stroke-width: 0.8; stroke-linejoin: miter; stroke-linecap: square"/>
   </g>
   <g id="patch_12">
    <path d="M 434.478125 22.318125 
L 777.358125 22.318125 
" style="fill: none; stroke: #000000; stroke-width: 0.8; stroke-linejoin: miter; stroke-linecap: square"/>
   </g>
   <g id="text_35">
    <!-- Log scale: scaling becomes additive (parallel lines) -->
    <g transform="translate(452.915312 16.318125) scale(0.12 -0.12)">
     <defs>
      <path id="DejaVuSans-62" d="M 3116 1747 
Q 3116 2381 2855 2742 
Q 2594 3103 2138 3103 
Q 1681 3103 1420 2742 
Q 1159 2381 1159 1747 
Q 1159 1113 1420 752 
Q 1681 391 2138 391 
Q 2594 391 2855 752 
Q 3116 1113 3116 1747 
z
M 1159 2969 
Q 1341 3281 1617 3432 
Q 1894 3584 2278 3584 
Q 2916 3584 3314 3078 
Q 3713 2572 3713 1747 
Q 3713 922 3314 415 
Q 2916 -91 2278 -91 
Q 1894 -91 1617 61 
Q 1341 213 1159 525 
L 1159 0 
L 581 0 
L 581 4863 
L 1159 4863 
L 1159 2969 
z
" transform="scale(0.015625)"/>
      <path id="DejaVuSans-64" d="M 2906 2969 
L 2906 4863 
L 3481 4863 
L 3481 0 
L 2906 0 
L 2906 525 
Q 2725 213 2448 61 
Q 2172 -91 1784 -91 
Q 1150 -91 751 415 
Q 353 922 353 1747 
Q 353 2572 751 3078 
Q 1150 3584 1784 3584 
Q 2172 3584 2448 3432 
Q 2725 3281 2906 2969 
z
M 947 1747 
Q 947 1113 1208 752 
Q 1469 391 1925 391 
Q 2381 391 2643 752 
Q 2906 1113 2906 1747 
Q 2906 2381 2643 2742 
Q 2381 3103 1925 3103 
Q 1469 3103 1208 2742 
Q 947 2381 947 1747 
z
" transform="scale(0.015625)"/>
     </defs>
     <use xlink:href="#DejaVuSans-4c"/>
     <use xlink:href="#DejaVuSans-6f" transform="translate(53.962891 0)"/>
     <use xlink:href="#DejaVuSans-67" transform="translate(115.144531 0)"/>
     <use xlink:href="#DejaVuSans-20" transform="translate(178.621094 0)"/>
     <use xlink:href="#DejaVuSans-73" transform="translate(210.408203 0)"/>
     <use xlink:href="#DejaVuSans-63" transform="translate(262.507812 0)"/>
     <use xlink:href="#DejaVuSans-61" transform="translate(317.488281 0)"/>
     <use xlink:href="#DejaVuSans-6c" transform="translate(378.767578 0)"/>
     <use xlink:href="#DejaVuSans-65" transform="translate(406.550781 0)"/>
     <use xlink:href="#DejaVuSans-3a" transform="translate(468.074219 0)"/>
     <use xlink:href="#DejaVuSans-20" transform="translate(501.765625 0)"/>
     <use xlink:href="#DejaVuSans-73" transform="translate(533.552734 0)"/>
     <use xlink:href="#DejaVuSans-63" transform="translate(585.652344 0)"/>
     <use xlink:href="#DejaVuSans-61" transform="translate(640.632812 0)"/>
     <use xlink:href="#DejaVuSans-6c" transform="translate(701.912109 0)"/>
     <use xlink:href="#DejaVuSans-69" transform="translate(729.695312 0)"/>
     <use xlink:href="#DejaVuSans-6e" transform="translate(757.478516 0)"/>
     <use xlink:href="#DejaVuSans-67" transform="translate(820.857422 0)"/>
     <use xlink:href="#DejaVuSans-20" transform="translate(884.333984 0)"/>
     <use xlink:href="#DejaVuSans-62" transform="translate(916.121094 0)"/>
     <use xlink:href="#DejaVuSans-65" transform="translate(979.597656 0)"/>
     <use xlink:href="#DejaVuSans-63" transform="translate(1041.121094 0)"/>
     <use xlink:href="#DejaVuSans-6f" transform="translate(1096.101562 0)"/>
     <use xlink:href="#DejaVuSans-6d" transform="translate(1157.283203 0)"/>
     <use xlink:href="#DejaVuSans-65" transform="translate(1254.695312 0)"/>
     <use xlink:href="#DejaVuSans-73" transform="translate(1316.21875 0)"/>
     <use xlink:href="#DejaVuSans-20" transform="translate(1368.318359 0)"/>
     <use xlink:href="#DejaVuSans-61" transform="translate(1400.105469 0)"/>
     <use xlink:href="#DejaVuSans-64" transform="translate(1461.384766 0)"/>
     <use xlink:href="#DejaVuSans-64" transform="translate(1524.861328 0)"/>
     <use xlink:href="#DejaVuSans-69" transform="translate(1588.337891 0)"/>
     <use xlink:href="#DejaVuSans-74" transform="translate(1616.121094 0)"/>
     <use xlink:href="#DejaVuSans-69" transform="translate(1655.330078 0)"/>
     <use xlink:href="#DejaVuSans-76" transform="translate(1683.113281 0)"/>
     <use xlink:href="#DejaVuSans-65" transform="translate(1742.292969 0)"/>
     <use xlink:href="#DejaVuSans-20" transform="translate(1803.816406 0)"/>
     <use xlink:href="#DejaVuSans-28" transform="translate(1835.603516 0)"/>
     <use xlink:href="#DejaVuSans-70" transform="translate(1874.617188 0)"/>
     <use xlink:href="#DejaVuSans-61" transform="translate(1938.09375 0)"/>
     <use xlink:href="#DejaVuSans-72" transform="translate(1999.373047 0)"/>
     <use xlink:href="#DejaVuSans-61" transform="translate(2040.486328 0)"/>
     <use xlink:href="#DejaVuSans-6c" transform="translate(2101.765625 0)"/>
     <use xlink:href="#DejaVuSans-6c" transform="translate(2129.548828 0)"/>
     <use xlink:href="#DejaVuSans-65" transform="translate(2157.332031 0)"/>
     <use xlink:href="#DejaVuSans-6c" transform="translate(2218.855469 0)"/>
     <use xlink:href="#DejaVuSans-20" transform="translate(2246.638672 0)"/>
     <use xlink:href="#DejaVuSans-6c" transform="translate(2278.425781 0)"/>
     <use xlink:href="#DejaVuSans-69" transform="translate(2306.208984 0)"/>
     <use xlink:href="#DejaVuSans-6e" transform="translate(2333.992188 0)"/>
     <use xlink:href="#DejaVuSans-65" transform="translate(2397.371094 0)"/>
     <use xlink:href="#DejaVuSans-73" transform="translate(2458.894531 0)"/>
     <use xlink:href="#DejaVuSans-29" transform="translate(2510.994141 0)"/>
    </g>
   </g>
   <g id="legend_2">
    <g id="patch_13">
     <path d="M 618.048281 272.978125 
L 771.058125 272.978125 
Q 772.858125 272.978125 772.858125 271.178125 
L 772.858125 232.447188 
Q 772.858125 230.647188 771.058125 230.647188 
L 618.048281 230.647188 
Q 616.248281 230.647188 616.248281 232.447188 
L 616.248281 271.178125 
Q 616.248281 272.978125 618.048281 272.978125 
z
" style="fill: #ffffff; opacity: 0.8; stroke: #cccccc; stroke-linejoin: miter"/>
    </g>
    <g id="line2d_62">
     <path d="M 619.848281 237.935781 
L 628.848281 237.935781 
L 637.848281 237.935781 
" style="fill: none; stroke: #7aa6c2; stroke-width: 2; stroke-linecap: square"/>
    </g>
    <g id="text_36">
     <!-- log(5 * x) = log 5 + log x -->
     <g transform="translate(645.048281 241.085781) scale(0.09 -0.09)">
      <defs>
       <path id="DejaVuSans-2b" d="M 2944 4013 
L 2944 2272 
L 4684 2272 
L 4684 1741 
L 2944 1741 
L 2944 0 
L 2419 0 
L 2419 1741 
L 678 1741 
L 678 2272 
L 2419 2272 
L 2419 4013 
L 2944 4013 
z
" transform="scale(0.015625)"/>
      </defs>
      <use xlink:href="#DejaVuSans-6c"/>
      <use xlink:href="#DejaVuSans-6f" transform="translate(27.783203 0)"/>
      <use xlink:href="#DejaVuSans-67" transform="translate(88.964844 0)"/>
      <use xlink:href="#DejaVuSans-28" transform="translate(152.441406 0)"/>
      <use xlink:href="#DejaVuSans-35" transform="translate(191.455078 0)"/>
      <use xlink:href="#DejaVuSans-20" transform="translate(255.078125 0)"/>
      <use xlink:href="#DejaVuSans-2a" transform="translate(286.865234 0)"/>
      <use xlink:href="#DejaVuSans-20" transform="translate(336.865234 0)"/>
      <use xlink:href="#DejaVuSans-78" transform="translate(368.652344 0)"/>
      <use xlink:href="#DejaVuSans-29" transform="translate(427.832031 0)"/>
      <use xlink:href="#DejaVuSans-20" transform="translate(466.845703 0)"/>
      <use xlink:href="#DejaVuSans-3d" transform="translate(498.632812 0)"/>
      <use xlink:href="#DejaVuSans-20" transform="translate(582.421875 0)"/>
      <use xlink:href="#DejaVuSans-6c" transform="translate(614.208984 0)"/>
      <use xlink:href="#DejaVuSans-6f" transform="translate(641.992188 0)"/>
      <use xlink:href="#DejaVuSans-67" transform="translate(703.173828 0)"/>
      <use xlink:href="#DejaVuSans-20" transform="translate(766.650391 0)"/>
      <use xlink:href="#DejaVuSans-35" transform="translate(798.4375 0)"/>
      <use xlink:href="#DejaVuSans-20" transform="translate(862.060547 0)"/>
      <use xlink:href="#DejaVuSans-2b" transform="translate(893.847656 0)"/>
      <use xlink:href="#DejaVuSans-20" transform="translate(977.636719 0)"/>
      <use xlink:href="#DejaVuSans-6c" transform="translate(1009.423828 0)"/>
      <use xlink:href="#DejaVuSans-6f" transform="translate(1037.207031 0)"/>
      <use xlink:href="#DejaVuSans-67" transform="translate(1098.388672 0)"/>
      <use xlink:href="#DejaVuSans-20" transform="translate(1161.865234 0)"/>
      <use xlink:href="#DejaVuSans-78" transform="translate(1193.652344 0)"/>
     </g>
    </g>
    <g id="line2d_63">
     <path d="M 619.848281 251.146094 
L 628.848281 251.146094 
L 637.848281 251.146094 
" style="fill: none; stroke: #e15759; stroke-width: 2; stroke-linecap: square"/>
    </g>
    <g id="text_37">
     <!-- log(10 * x) = log 10 + log x -->
     <g transform="translate(645.048281 254.296094) scale(0.09 -0.09)">
      <use xlink:href="#DejaVuSans-6c"/>
      <use xlink:href="#DejaVuSans-6f" transform="translate(27.783203 0)"/>
      <use xlink:href="#DejaVuSans-67" transform="translate(88.964844 0)"/>
      <use xlink:href="#DejaVuSans-28" transform="translate(152.441406 0)"/>
      <use xlink:href="#DejaVuSans-31" transform="translate(191.455078 0)"/>
      <use xlink:href="#DejaVuSans-30" transform="translate(255.078125 0)"/>
      <use xlink:href="#DejaVuSans-20" transform="translate(318.701172 0)"/>
      <use xlink:href="#DejaVuSans-2a" transform="translate(350.488281 0)"/>
      <use xlink:href="#DejaVuSans-20" transform="translate(400.488281 0)"/>
      <use xlink:href="#DejaVuSans-78" transform="translate(432.275391 0)"/>
      <use xlink:href="#DejaVuSans-29" transform="translate(491.455078 0)"/>
      <use xlink:href="#DejaVuSans-20" transform="translate(530.46875 0)"/>
      <use xlink:href="#DejaVuSans-3d" transform="translate(562.255859 0)"/>
      <use xlink:href="#DejaVuSans-20" transform="translate(646.044922 0)"/>
      <use xlink:href="#DejaVuSans-6c" transform="translate(677.832031 0)"/>
      <use xlink:href="#DejaVuSans-6f" transform="translate(705.615234 0)"/>
      <use xlink:href="#DejaVuSans-67" transform="translate(766.796875 0)"/>
      <use xlink:href="#DejaVuSans-20" transform="translate(830.273438 0)"/>
      <use xlink:href="#DejaVuSans-31" transform="translate(862.060547 0)"/>
      <use xlink:href="#DejaVuSans-30" transform="translate(925.683594 0)"/>
      <use xlink:href="#DejaVuSans-20" transform="translate(989.306641 0)"/>
      <use xlink:href="#DejaVuSans-2b" transform="translate(1021.09375 0)"/>
      <use xlink:href="#DejaVuSans-20" transform="translate(1104.882812 0)"/>
      <use xlink:href="#DejaVuSans-6c" transform="translate(1136.669922 0)"/>
      <use xlink:href="#DejaVuSans-6f" transform="translate(1164.453125 0)"/>
      <use xlink:href="#DejaVuSans-67" transform="translate(1225.634766 0)"/>
      <use xlink:href="#DejaVuSans-20" transform="translate(1289.111328 0)"/>
      <use xlink:href="#DejaVuSans-78" transform="translate(1320.898438 0)"/>
     </g>
    </g>
    <g id="line2d_64">
     <path d="M 619.848281 264.356406 
L 628.848281 264.356406 
L 637.848281 264.356406 
" style="fill: none; stroke: #59a14f; stroke-width: 2; stroke-linecap: square"/>
    </g>
    <g id="text_38">
     <!-- log(50 * x) = log 50 + log x -->
     <g transform="translate(645.048281 267.506406) scale(0.09 -0.09)">
      <use xlink:href="#DejaVuSans-6c"/>
      <use xlink:href="#DejaVuSans-6f" transform="translate(27.783203 0)"/>
      <use xlink:href="#DejaVuSans-67" transform="translate(88.964844 0)"/>
      <use xlink:href="#DejaVuSans-28" transform="translate(152.441406 0)"/>
      <use xlink:href="#DejaVuSans-35" transform="translate(191.455078 0)"/>
      <use xlink:href="#DejaVuSans-30" transform="translate(255.078125 0)"/>
      <use xlink:href="#DejaVuSans-20" transform="translate(318.701172 0)"/>
      <use xlink:href="#DejaVuSans-2a" transform="translate(350.488281 0)"/>
      <use xlink:href="#DejaVuSans-20" transform="translate(400.488281 0)"/>
      <use xlink:href="#DejaVuSans-78" transform="translate(432.275391 0)"/>
      <use xlink:href="#DejaVuSans-29" transform="translate(491.455078 0)"/>
      <use xlink:href="#DejaVuSans-20" transform="translate(530.46875 0)"/>
      <use xlink:href="#DejaVuSans-3d" transform="translate(562.255859 0)"/>
      <use xlink:href="#DejaVuSans-20" transform="translate(646.044922 0)"/>
      <use xlink:href="#DejaVuSans-6c" transform="translate(677.832031 0)"/>
      <use xlink:href="#DejaVuSans-6f" transform="translate(705.615234 0)"/>
      <use xlink:href="#DejaVuSans-67" transform="translate(766.796875 0)"/>
      <use xlink:href="#DejaVuSans-20" transform="translate(830.273438 0)"/>
      <use xlink:href="#DejaVuSans-35" transform="translate(862.060547 0)"/>
      <use xlink:href="#DejaVuSans-30" transform="translate(925.683594 0)"/>
      <use xlink:href="#DejaVuSans-20" transform="translate(989.306641 0)"/>
      <use xlink:href="#DejaVuSans-2b" transform="translate(1021.09375 0)"/>
      <use xlink:href="#DejaVuSans-20" transform="translate(1104.882812 0)"/>
      <use xlink:href="#DejaVuSans-6c" transform="translate(1136.669922 0)"/>
      <use xlink:href="#DejaVuSans-6f" transform="translate(1164.453125 0)"/>
      <use xlink:href="#DejaVuSans-67" transform="translate(1225.634766 0)"/>
      <use xlink:href="#DejaVuSans-20" transform="translate(1289.111328 0)"/>
      <use xlink:href="#DejaVuSans-78" transform="translate(1320.898438 0)"/>
     </g>
    </g>
   </g>
  </g>
 </g>
 <defs>
  <clipPath id="p31a9e20fd6">
   <rect x="53.328125" y="22.318125" width="342.88" height="255.16"/>
  </clipPath>
  <clipPath id="p25bfb1bb21">
   <rect x="434.478125" y="22.318125" width="342.88" height="255.16"/>
  </clipPath>
 </defs>
</svg>
