<?xml version="1.0" encoding="utf-8" standalone="no"?>
<!DOCTYPE svg PUBLIC "-//W3C//DTD SVG 1.1//EN"
  "http://www.w3.org/Graphics/SVG/1.1/DTD/svg11.dtd">
<svg xmlns:xlink="http://www.w3.org/1999/xlink" width="729.945pt" height="315.034375pt" viewBox="0 0 729.945 315.034375" xmlns="http://www.w3.org/2000/svg" version="1.1">
 <metadata>
  <rdf:RDF xmlns:dc="http://purl.org/dc/elements/1.1/" xmlns:cc="http://creativecommons.org/ns#" xmlns:rdf="http://www.w3.org/1999/02/22-rdf-syntax-ns#">
   <cc:Work>
    <dc:type rdf:resource="http://purl.org/dc/dcmitype/StillImage"/>
    <dc:date>2026-05-26T08:38:44.461133</dc:date>
    <dc:format>image/svg+xml</dc:format>
    <dc:creator>
     <cc:Agent>
      <dc:title>Matplotlib v3.10.8, https://matplotlib.org/</dc:title>
     </cc:Agent>
    </dc:creator>
   </cc:Work>
  </rdf:RDF>
 </metadata>
 <defs>
  <style type="text/css">*{stroke-linejoin: round; stroke-linecap: butt}</style>
 </defs>
 <g id="figure_1">
  <g id="patch_1">
   <path d="M 0 315.034375 
L 729.945 315.034375 
L 729.945 0 
L 0 0 
z
" style="fill: #ffffff"/>
  </g>
  <g id="axes_1">
   <g id="patch_2">
    <path d="M 42.620313 277.478125 
L 411.015312 277.478125 
L 411.015312 22.318125 
L 42.620313 22.318125 
z
" style="fill: #ffffff"/>
   </g>
   <g id="matplotlib.axis_1">
    <g id="xtick_1">
     <g id="line2d_1">
      <path d="M 55.126242 277.478125 
L 55.126242 22.318125 
" clip-path="url(#pd4d90db126)" style="fill: none; stroke: #b0b0b0; stroke-opacity: 0.25; stroke-width: 0.8; stroke-linecap: square"/>
     </g>
     <g id="line2d_2">
      <defs>
       <path id="ma7d56c17ff" d="M 0 0 
L 0 3.5 
" style="stroke: #000000; stroke-width: 0.8"/>
      </defs>
      <g>
       <use xlink:href="#ma7d56c17ff" x="55.126242" y="277.478125" style="stroke: #000000; stroke-width: 0.8"/>
      </g>
     </g>
     <g id="text_1">
      <!-- 0.0 -->
      <g transform="translate(47.174679 292.076563) scale(0.1 -0.1)">
       <defs>
        <path id="DejaVuSans-30" d="M 2034 4250 
Q 1547 4250 1301 3770 
Q 1056 3291 1056 2328 
Q 1056 1369 1301 889 
Q 1547 409 2034 409 
Q 2525 409 2770 889 
Q 3016 1369 3016 2328 
Q 3016 3291 2770 3770 
Q 2525 4250 2034 4250 
z
M 2034 4750 
Q 2819 4750 3233 4129 
Q 3647 3509 3647 2328 
Q 3647 1150 3233 529 
Q 2819 -91 2034 -91 
Q 1250 -91 836 529 
Q 422 1150 422 2328 
Q 422 3509 836 4129 
Q 1250 4750 2034 4750 
z
" transform="scale(0.015625)"/>
        <path id="DejaVuSans-2e" d="M 684 794 
L 1344 794 
L 1344 0 
L 684 0 
L 684 794 
z
" transform="scale(0.015625)"/>
       </defs>
       <use xlink:href="#DejaVuSans-30"/>
       <use xlink:href="#DejaVuSans-2e" transform="translate(63.623047 0)"/>
       <use xlink:href="#DejaVuSans-30" transform="translate(95.410156 0)"/>
      </g>
     </g>
    </g>
    <g id="xtick_2">
     <g id="line2d_3">
      <path d="M 97.519222 277.478125 
L 97.519222 22.318125 
" clip-path="url(#pd4d90db126)" style="fill: none; stroke: #b0b0b0; stroke-opacity: 0.25; stroke-width: 0.8; stroke-linecap: square"/>
     </g>
     <g id="line2d_4">
      <g>
       <use xlink:href="#ma7d56c17ff" x="97.519222" y="277.478125" style="stroke: #000000; stroke-width: 0.8"/>
      </g>
     </g>
     <g id="text_2">
      <!-- 0.5 -->
      <g transform="translate(89.56766 292.076563) scale(0.1 -0.1)">
       <defs>
        <path id="DejaVuSans-35" d="M 691 4666 
L 3169 4666 
L 3169 4134 
L 1269 4134 
L 1269 2991 
Q 1406 3038 1543 3061 
Q 1681 3084 1819 3084 
Q 2600 3084 3056 2656 
Q 3513 2228 3513 1497 
Q 3513 744 3044 326 
Q 2575 -91 1722 -91 
Q 1428 -91 1123 -41 
Q 819 9 494 109 
L 494 744 
Q 775 591 1075 516 
Q 1375 441 1709 441 
Q 2250 441 2565 725 
Q 2881 1009 2881 1497 
Q 2881 1984 2565 2268 
Q 2250 2553 1709 2553 
Q 1456 2553 1204 2497 
Q 953 2441 691 2322 
L 691 4666 
z
" transform="scale(0.015625)"/>
       </defs>
       <use xlink:href="#DejaVuSans-30"/>
       <use xlink:href="#DejaVuSans-2e" transform="translate(63.623047 0)"/>
       <use xlink:href="#DejaVuSans-35" transform="translate(95.410156 0)"/>
      </g>
     </g>
    </g>
    <g id="xtick_3">
     <g id="line2d_5">
      <path d="M 139.912203 277.478125 
L 139.912203 22.318125 
" clip-path="url(#pd4d90db126)" style="fill: none; stroke: #b0b0b0; stroke-opacity: 0.25; stroke-width: 0.8; stroke-linecap: square"/>
     </g>
     <g id="line2d_6">
      <g>
       <use xlink:href="#ma7d56c17ff" x="139.912203" y="277.478125" style="stroke: #000000; stroke-width: 0.8"/>
      </g>
     </g>
     <g id="text_3">
      <!-- 1.0 -->
      <g transform="translate(131.96064 292.076563) scale(0.1 -0.1)">
       <defs>
        <path id="DejaVuSans-31" d="M 794 531 
L 1825 531 
L 1825 4091 
L 703 3866 
L 703 4441 
L 1819 4666 
L 2450 4666 
L 2450 531 
L 3481 531 
L 3481 0 
L 794 0 
L 794 531 
z
" transform="scale(0.015625)"/>
       </defs>
       <use xlink:href="#DejaVuSans-31"/>
       <use xlink:href="#DejaVuSans-2e" transform="translate(63.623047 0)"/>
       <use xlink:href="#DejaVuSans-30" transform="translate(95.410156 0)"/>
      </g>
     </g>
    </g>
    <g id="xtick_4">
     <g id="line2d_7">
      <path d="M 182.305183 277.478125 
L 182.305183 22.318125 
" clip-path="url(#pd4d90db126)" style="fill: none; stroke: #b0b0b0; stroke-opacity: 0.25; stroke-width: 0.8; stroke-linecap: square"/>
     </g>
     <g id="line2d_8">
      <g>
       <use xlink:href="#ma7d56c17ff" x="182.305183" y="277.478125" style="stroke: #000000; stroke-width: 0.8"/>
      </g>
     </g>
     <g id="text_4">
      <!-- 1.5 -->
      <g transform="translate(174.353621 292.076563) scale(0.1 -0.1)">
       <use xlink:href="#DejaVuSans-31"/>
       <use xlink:href="#DejaVuSans-2e" transform="translate(63.623047 0)"/>
       <use xlink:href="#DejaVuSans-35" transform="translate(95.410156 0)"/>
      </g>
     </g>
    </g>
    <g id="xtick_5">
     <g id="line2d_9">
      <path d="M 224.698163 277.478125 
L 224.698163 22.318125 
" clip-path="url(#pd4d90db126)" style="fill: none; stroke: #b0b0b0; stroke-opacity: 0.25; stroke-width: 0.8; stroke-linecap: square"/>
     </g>
     <g id="line2d_10">
      <g>
       <use xlink:href="#ma7d56c17ff" x="224.698163" y="277.478125" style="stroke: #000000; stroke-width: 0.8"/>
      </g>
     </g>
     <g id="text_5">
      <!-- 2.0 -->
      <g transform="translate(216.746601 292.076563) scale(0.1 -0.1)">
       <defs>
        <path id="DejaVuSans-32" d="M 1228 531 
L 3431 531 
L 3431 0 
L 469 0 
L 469 531 
Q 828 903 1448 1529 
Q 2069 2156 2228 2338 
Q 2531 2678 2651 2914 
Q 2772 3150 2772 3378 
Q 2772 3750 2511 3984 
Q 2250 4219 1831 4219 
Q 1534 4219 1204 4116 
Q 875 4013 500 3803 
L 500 4441 
Q 881 4594 1212 4672 
Q 1544 4750 1819 4750 
Q 2544 4750 2975 4387 
Q 3406 4025 3406 3419 
Q 3406 3131 3298 2873 
Q 3191 2616 2906 2266 
Q 2828 2175 2409 1742 
Q 1991 1309 1228 531 
z
" transform="scale(0.015625)"/>
       </defs>
       <use xlink:href="#DejaVuSans-32"/>
       <use xlink:href="#DejaVuSans-2e" transform="translate(63.623047 0)"/>
       <use xlink:href="#DejaVuSans-30" transform="translate(95.410156 0)"/>
      </g>
     </g>
    </g>
    <g id="xtick_6">
     <g id="line2d_11">
      <path d="M 267.091144 277.478125 
L 267.091144 22.318125 
" clip-path="url(#pd4d90db126)" style="fill: none; stroke: #b0b0b0; stroke-opacity: 0.25; stroke-width: 0.8; stroke-linecap: square"/>
     </g>
     <g id="line2d_12">
      <g>
       <use xlink:href="#ma7d56c17ff" x="267.091144" y="277.478125" style="stroke: #000000; stroke-width: 0.8"/>
      </g>
     </g>
     <g id="text_6">
      <!-- 2.5 -->
      <g transform="translate(259.139581 292.076563) scale(0.1 -0.1)">
       <use xlink:href="#DejaVuSans-32"/>
       <use xlink:href="#DejaVuSans-2e" transform="translate(63.623047 0)"/>
       <use xlink:href="#DejaVuSans-35" transform="translate(95.410156 0)"/>
      </g>
     </g>
    </g>
    <g id="xtick_7">
     <g id="line2d_13">
      <path d="M 309.484124 277.478125 
L 309.484124 22.318125 
" clip-path="url(#pd4d90db126)" style="fill: none; stroke: #b0b0b0; stroke-opacity: 0.25; stroke-width: 0.8; stroke-linecap: square"/>
     </g>
     <g id="line2d_14">
      <g>
       <use xlink:href="#ma7d56c17ff" x="309.484124" y="277.478125" style="stroke: #000000; stroke-width: 0.8"/>
      </g>
     </g>
     <g id="text_7">
      <!-- 3.0 -->
      <g transform="translate(301.532562 292.076563) scale(0.1 -0.1)">
       <defs>
        <path id="DejaVuSans-33" d="M 2597 2516 
Q 3050 2419 3304 2112 
Q 3559 1806 3559 1356 
Q 3559 666 3084 287 
Q 2609 -91 1734 -91 
Q 1441 -91 1130 -33 
Q 819 25 488 141 
L 488 750 
Q 750 597 1062 519 
Q 1375 441 1716 441 
Q 2309 441 2620 675 
Q 2931 909 2931 1356 
Q 2931 1769 2642 2001 
Q 2353 2234 1838 2234 
L 1294 2234 
L 1294 2753 
L 1863 2753 
Q 2328 2753 2575 2939 
Q 2822 3125 2822 3475 
Q 2822 3834 2567 4026 
Q 2313 4219 1838 4219 
Q 1578 4219 1281 4162 
Q 984 4106 628 3988 
L 628 4550 
Q 988 4650 1302 4700 
Q 1616 4750 1894 4750 
Q 2613 4750 3031 4423 
Q 3450 4097 3450 3541 
Q 3450 3153 3228 2886 
Q 3006 2619 2597 2516 
z
" transform="scale(0.015625)"/>
       </defs>
       <use xlink:href="#DejaVuSans-33"/>
       <use xlink:href="#DejaVuSans-2e" transform="translate(63.623047 0)"/>
       <use xlink:href="#DejaVuSans-30" transform="translate(95.410156 0)"/>
      </g>
     </g>
    </g>
    <g id="xtick_8">
     <g id="line2d_15">
      <path d="M 351.877105 277.478125 
L 351.877105 22.318125 
" clip-path="url(#pd4d90db126)" style="fill: none; stroke: #b0b0b0; stroke-opacity: 0.25; stroke-width: 0.8; stroke-linecap: square"/>
     </g>
     <g id="line2d_16">
      <g>
       <use xlink:href="#ma7d56c17ff" x="351.877105" y="277.478125" style="stroke: #000000; stroke-width: 0.8"/>
      </g>
     </g>
     <g id="text_8">
      <!-- 3.5 -->
      <g transform="translate(343.925542 292.076563) scale(0.1 -0.1)">
       <use xlink:href="#DejaVuSans-33"/>
       <use xlink:href="#DejaVuSans-2e" transform="translate(63.623047 0)"/>
       <use xlink:href="#DejaVuSans-35" transform="translate(95.410156 0)"/>
      </g>
     </g>
    </g>
    <g id="xtick_9">
     <g id="line2d_17">
      <path d="M 394.270085 277.478125 
L 394.270085 22.318125 
" clip-path="url(#pd4d90db126)" style="fill: none; stroke: #b0b0b0; stroke-opacity: 0.25; stroke-width: 0.8; stroke-linecap: square"/>
     </g>
     <g id="line2d_18">
      <g>
       <use xlink:href="#ma7d56c17ff" x="394.270085" y="277.478125" style="stroke: #000000; stroke-width: 0.8"/>
      </g>
     </g>
     <g id="text_9">
      <!-- 4.0 -->
      <g transform="translate(386.318523 292.076563) scale(0.1 -0.1)">
       <defs>
        <path id="DejaVuSans-34" d="M 2419 4116 
L 825 1625 
L 2419 1625 
L 2419 4116 
z
M 2253 4666 
L 3047 4666 
L 3047 1625 
L 3713 1625 
L 3713 1100 
L 3047 1100 
L 3047 0 
L 2419 0 
L 2419 1100 
L 313 1100 
L 313 1709 
L 2253 4666 
z
" transform="scale(0.015625)"/>
       </defs>
       <use xlink:href="#DejaVuSans-34"/>
       <use xlink:href="#DejaVuSans-2e" transform="translate(63.623047 0)"/>
       <use xlink:href="#DejaVuSans-30" transform="translate(95.410156 0)"/>
      </g>
     </g>
    </g>
    <g id="text_10">
     <!-- x -->
     <g transform="translate(223.858438 305.754687) scale(0.1 -0.1)">
      <defs>
       <path id="DejaVuSans-78" d="M 3513 3500 
L 2247 1797 
L 3578 0 
L 2900 0 
L 1881 1375 
L 863 0 
L 184 0 
L 1544 1831 
L 300 3500 
L 978 3500 
L 1906 2253 
L 2834 3500 
L 3513 3500 
z
" transform="scale(0.015625)"/>
      </defs>
      <use xlink:href="#DejaVuSans-78"/>
     </g>
    </g>
   </g>
   <g id="matplotlib.axis_2">
    <g id="ytick_1">
     <g id="line2d_19">
      <path d="M 42.620313 256.214792 
L 411.015312 256.214792 
" clip-path="url(#pd4d90db126)" style="fill: none; stroke: #b0b0b0; stroke-opacity: 0.25; stroke-width: 0.8; stroke-linecap: square"/>
     </g>
     <g id="line2d_20">
      <defs>
       <path id="m4f2f9c985d" d="M 0 0 
L -3.5 0 
" style="stroke: #000000; stroke-width: 0.8"/>
      </defs>
      <g>
       <use xlink:href="#m4f2f9c985d" x="42.620313" y="256.214792" style="stroke: #000000; stroke-width: 0.8"/>
      </g>
     </g>
     <g id="text_11">
      <!-- −3 -->
      <g transform="translate(20.878125 260.01401) scale(0.1 -0.1)">
       <defs>
        <path id="DejaVuSans-2212" d="M 678 2272 
L 4684 2272 
L 4684 1741 
L 678 1741 
L 678 2272 
z
" transform="scale(0.015625)"/>
       </defs>
       <use xlink:href="#DejaVuSans-2212"/>
       <use xlink:href="#DejaVuSans-33" transform="translate(83.789062 0)"/>
      </g>
     </g>
    </g>
    <g id="ytick_2">
     <g id="line2d_21">
      <path d="M 42.620313 213.688125 
L 411.015312 213.688125 
" clip-path="url(#pd4d90db126)" style="fill: none; stroke: #b0b0b0; stroke-opacity: 0.25; stroke-width: 0.8; stroke-linecap: square"/>
     </g>
     <g id="line2d_22">
      <g>
       <use xlink:href="#m4f2f9c985d" x="42.620313" y="213.688125" style="stroke: #000000; stroke-width: 0.8"/>
      </g>
     </g>
     <g id="text_12">
      <!-- −2 -->
      <g transform="translate(20.878125 217.487344) scale(0.1 -0.1)">
       <use xlink:href="#DejaVuSans-2212"/>
       <use xlink:href="#DejaVuSans-32" transform="translate(83.789062 0)"/>
      </g>
     </g>
    </g>
    <g id="ytick_3">
     <g id="line2d_23">
      <path d="M 42.620313 171.161458 
L 411.015312 171.161458 
" clip-path="url(#pd4d90db126)" style="fill: none; stroke: #b0b0b0; stroke-opacity: 0.25; stroke-width: 0.8; stroke-linecap: square"/>
     </g>
     <g id="line2d_24">
      <g>
       <use xlink:href="#m4f2f9c985d" x="42.620313" y="171.161458" style="stroke: #000000; stroke-width: 0.8"/>
      </g>
     </g>
     <g id="text_13">
      <!-- −1 -->
      <g transform="translate(20.878125 174.960677) scale(0.1 -0.1)">
       <use xlink:href="#DejaVuSans-2212"/>
       <use xlink:href="#DejaVuSans-31" transform="translate(83.789062 0)"/>
      </g>
     </g>
    </g>
    <g id="ytick_4">
     <g id="line2d_25">
      <path d="M 42.620313 128.634792 
L 411.015312 128.634792 
" clip-path="url(#pd4d90db126)" style="fill: none; stroke: #b0b0b0; stroke-opacity: 0.25; stroke-width: 0.8; stroke-linecap: square"/>
     </g>
     <g id="line2d_26">
      <g>
       <use xlink:href="#m4f2f9c985d" x="42.620313" y="128.634792" style="stroke: #000000; stroke-width: 0.8"/>
      </g>
     </g>
     <g id="text_14">
      <!-- 0 -->
      <g transform="translate(29.257813 132.43401) scale(0.1 -0.1)">
       <use xlink:href="#DejaVuSans-30"/>
      </g>
     </g>
    </g>
    <g id="ytick_5">
     <g id="line2d_27">
      <path d="M 42.620313 86.108125 
L 411.015312 86.108125 
" clip-path="url(#pd4d90db126)" style="fill: none; stroke: #b0b0b0; stroke-opacity: 0.25; stroke-width: 0.8; stroke-linecap: square"/>
     </g>
     <g id="line2d_28">
      <g>
       <use xlink:href="#m4f2f9c985d" x="42.620313" y="86.108125" style="stroke: #000000; stroke-width: 0.8"/>
      </g>
     </g>
     <g id="text_15">
      <!-- 1 -->
      <g transform="translate(29.257813 89.907344) scale(0.1 -0.1)">
       <use xlink:href="#DejaVuSans-31"/>
      </g>
     </g>
    </g>
    <g id="ytick_6">
     <g id="line2d_29">
      <path d="M 42.620313 43.581458 
L 411.015312 43.581458 
" clip-path="url(#pd4d90db126)" style="fill: none; stroke: #b0b0b0; stroke-opacity: 0.25; stroke-width: 0.8; stroke-linecap: square"/>
     </g>
     <g id="line2d_30">
      <g>
       <use xlink:href="#m4f2f9c985d" x="42.620313" y="43.581458" style="stroke: #000000; stroke-width: 0.8"/>
      </g>
     </g>
     <g id="text_16">
      <!-- 2 -->
      <g transform="translate(29.257813 47.380677) scale(0.1 -0.1)">
       <use xlink:href="#DejaVuSans-32"/>
      </g>
     </g>
    </g>
    <g id="text_17">
     <!-- log(x) -->
     <g transform="translate(14.798438 164.381719) rotate(-90) scale(0.1 -0.1)">
      <defs>
       <path id="DejaVuSans-6c" d="M 603 4863 
L 1178 4863 
L 1178 0 
L 603 0 
L 603 4863 
z
" transform="scale(0.015625)"/>
       <path id="DejaVuSans-6f" d="M 1959 3097 
Q 1497 3097 1228 2736 
Q 959 2375 959 1747 
Q 959 1119 1226 758 
Q 1494 397 1959 397 
Q 2419 397 2687 759 
Q 2956 1122 2956 1747 
Q 2956 2369 2687 2733 
Q 2419 3097 1959 3097 
z
M 1959 3584 
Q 2709 3584 3137 3096 
Q 3566 2609 3566 1747 
Q 3566 888 3137 398 
Q 2709 -91 1959 -91 
Q 1206 -91 779 398 
Q 353 888 353 1747 
Q 353 2609 779 3096 
Q 1206 3584 1959 3584 
z
" transform="scale(0.015625)"/>
       <path id="DejaVuSans-67" d="M 2906 1791 
Q 2906 2416 2648 2759 
Q 2391 3103 1925 3103 
Q 1463 3103 1205 2759 
Q 947 2416 947 1791 
Q 947 1169 1205 825 
Q 1463 481 1925 481 
Q 2391 481 2648 825 
Q 2906 1169 2906 1791 
z
M 3481 434 
Q 3481 -459 3084 -895 
Q 2688 -1331 1869 -1331 
Q 1566 -1331 1297 -1286 
Q 1028 -1241 775 -1147 
L 775 -588 
Q 1028 -725 1275 -790 
Q 1522 -856 1778 -856 
Q 2344 -856 2625 -561 
Q 2906 -266 2906 331 
L 2906 616 
Q 2728 306 2450 153 
Q 2172 0 1784 0 
Q 1141 0 747 490 
Q 353 981 353 1791 
Q 353 2603 747 3093 
Q 1141 3584 1784 3584 
Q 2172 3584 2450 3431 
Q 2728 3278 2906 2969 
L 2906 3500 
L 3481 3500 
L 3481 434 
z
" transform="scale(0.015625)"/>
       <path id="DejaVuSans-28" d="M 1984 4856 
Q 1566 4138 1362 3434 
Q 1159 2731 1159 2009 
Q 1159 1288 1364 580 
Q 1569 -128 1984 -844 
L 1484 -844 
Q 1016 -109 783 600 
Q 550 1309 550 2009 
Q 550 2706 781 3412 
Q 1013 4119 1484 4856 
L 1984 4856 
z
" transform="scale(0.015625)"/>
       <path id="DejaVuSans-29" d="M 513 4856 
L 1013 4856 
Q 1481 4119 1714 3412 
Q 1947 2706 1947 2009 
Q 1947 1309 1714 600 
Q 1481 -109 1013 -844 
L 513 -844 
Q 928 -128 1133 580 
Q 1338 1288 1338 2009 
Q 1338 2731 1133 3434 
Q 928 4138 513 4856 
z
" transform="scale(0.015625)"/>
      </defs>
      <use xlink:href="#DejaVuSans-6c"/>
      <use xlink:href="#DejaVuSans-6f" transform="translate(27.783203 0)"/>
      <use xlink:href="#DejaVuSans-67" transform="translate(88.964844 0)"/>
      <use xlink:href="#DejaVuSans-28" transform="translate(152.441406 0)"/>
      <use xlink:href="#DejaVuSans-78" transform="translate(191.455078 0)"/>
      <use xlink:href="#DejaVuSans-29" transform="translate(250.634766 0)"/>
     </g>
    </g>
   </g>
   <g id="line2d_31">
    <path d="M 59.36554 256.033299 
L 61.048477 241.815942 
L 62.731415 231.179399 
L 64.414352 222.678044 
L 66.097289 215.596305 
L 67.780227 209.527221 
L 69.463164 204.217086 
L 71.146102 199.497009 
L 72.829039 195.248873 
L 74.511977 191.386822 
L 76.194914 187.846488 
L 79.560789 181.543578 
L 82.926664 176.055375 
L 86.292538 171.195169 
L 89.658413 166.833884 
L 93.024288 162.878557 
L 96.390163 159.260006 
L 99.756038 155.925356 
L 103.121913 152.83328 
L 108.170725 148.57976 
L 113.219537 144.713262 
L 118.268349 141.169191 
L 123.317162 137.897889 
L 128.365974 134.860352 
L 135.097723 131.120896 
L 141.829473 127.683845 
L 148.561223 124.503929 
L 155.292972 121.545336 
L 163.707659 118.114957 
L 172.122347 114.940751 
L 180.537034 111.987102 
L 190.634658 108.693877 
L 200.732283 105.637448 
L 212.512844 102.328848 
L 224.293406 99.259182 
L 237.756906 96.002553 
L 251.220405 92.97767 
L 266.366842 89.813567 
L 281.513278 86.868667 
L 298.342653 83.819269 
L 316.854964 80.699644 
L 337.050213 77.538685 
L 358.9284 74.360273 
L 380.806586 71.402983 
L 394.270085 69.680313 
L 394.270085 69.680313 
" clip-path="url(#pd4d90db126)" style="fill: none; stroke: #7aa6c2; stroke-width: 2; stroke-linecap: square"/>
   </g>
   <g id="line2d_32">
    <path d="M 59.36554 312.431987 
L 61.048477 291.920676 
L 62.731415 276.575388 
L 64.414352 264.310525 
L 66.097289 254.093736 
L 67.780227 245.337899 
L 69.463164 237.676993 
L 71.146102 230.867362 
L 72.829039 224.738596 
L 74.511977 219.166835 
L 76.194914 214.059213 
L 77.877851 209.344314 
L 81.243726 200.879495 
L 84.609601 193.44222 
L 87.975476 186.809812 
L 91.341351 180.824949 
L 94.707225 175.372361 
L 98.0731 170.365053 
L 101.438975 165.735757 
L 104.80485 161.431384 
L 108.170725 157.409299 
L 111.5366 153.634744 
L 116.585412 148.375548 
L 121.634224 143.531793 
L 126.683036 139.042625 
L 131.731849 134.85965 
L 136.780661 130.943753 
L 141.829473 127.262866 
L 148.561223 122.675216 
L 155.292972 118.406869 
L 162.024722 114.416254 
L 168.756472 110.669427 
L 175.488221 107.138309 
L 183.902908 102.992321 
L 192.317596 99.108856 
L 200.732283 95.456639 
L 210.829907 91.342919 
L 220.927532 87.487778 
L 231.025156 83.860622 
L 242.805718 79.883344 
L 254.58628 76.148276 
L 266.366842 72.627604 
L 279.830341 68.836806 
L 293.29384 65.266662 
L 308.440277 61.483921 
L 323.586714 57.920924 
L 340.416088 54.190539 
L 358.9284 50.333213 
L 377.440711 46.704121 
L 394.270085 43.581458 
L 394.270085 43.581458 
" clip-path="url(#pd4d90db126)" style="fill: none; stroke-dasharray: 5.55,2.4; stroke-dashoffset: 0; stroke: #e15759; stroke-width: 1.5"/>
   </g>
   <g id="line2d_33">
    <path d="M 59.36554 183.963261 
L 61.048477 177.788741 
L 62.731415 173.169349 
L 64.414352 169.477257 
L 66.097289 166.401697 
L 67.780227 163.765928 
L 69.463164 161.459765 
L 71.146102 159.409862 
L 72.829039 157.56492 
L 76.194914 154.350105 
L 79.560789 151.612785 
L 82.926664 149.229289 
L 86.292538 147.118529 
L 89.658413 145.224447 
L 94.707225 142.704202 
L 99.756038 140.486933 
L 104.80485 138.50755 
L 111.5366 136.160527 
L 118.268349 134.078412 
L 125.000099 132.207424 
L 133.414786 130.107308 
L 141.829473 128.221801 
L 151.927098 126.187159 
L 163.707659 124.066085 
L 175.488221 122.163705 
L 188.951721 120.205374 
L 204.098157 118.225095 
L 220.927532 116.248306 
L 239.439843 114.293378 
L 261.318029 112.221734 
L 284.879153 110.223421 
L 311.806152 108.176576 
L 340.416088 106.224839 
L 372.391899 104.262797 
L 394.270085 103.031187 
L 394.270085 103.031187 
" clip-path="url(#pd4d90db126)" style="fill: none; stroke-dasharray: 1.5,2.475; stroke-dashoffset: 0; stroke: #59a14f; stroke-width: 1.5"/>
   </g>
   <g id="line2d_34">
    <path d="M 42.620313 128.634792 
L 411.015312 128.634792 
" clip-path="url(#pd4d90db126)" style="fill: none; stroke: #999999; stroke-width: 0.6; stroke-linecap: square"/>
   </g>
   <g id="line2d_35">
    <path d="M 139.912203 277.478125 
L 139.912203 22.318125 
" clip-path="url(#pd4d90db126)" style="fill: none; stroke-dasharray: 0.6,0.99; stroke-dashoffset: 0; stroke: #999999; stroke-width: 0.6"/>
   </g>
   <g id="patch_3">
    <path d="M 42.620313 277.478125 
L 42.620313 22.318125 
" style="fill: none; stroke: #000000; stroke-width: 0.8; stroke-linejoin: miter; stroke-linecap: square"/>
   </g>
   <g id="patch_4">
    <path d="M 411.015312 277.478125 
L 411.015312 22.318125 
" style="fill: none; stroke: #000000; stroke-width: 0.8; stroke-linejoin: miter; stroke-linecap: square"/>
   </g>
   <g id="patch_5">
    <path d="M 42.620313 277.478125 
L 411.015313 277.478125 
" style="fill: none; stroke: #000000; stroke-width: 0.8; stroke-linejoin: miter; stroke-linecap: square"/>
   </g>
   <g id="patch_6">
    <path d="M 42.620313 22.318125 
L 411.015313 22.318125 
" style="fill: none; stroke: #000000; stroke-width: 0.8; stroke-linejoin: miter; stroke-linecap: square"/>
   </g>
   <g id="patch_7">
    <path d="M 197.682629 161.336214 
Q 169.666581 145.477501 142.623502 130.169545 
" style="fill: none; stroke: #000000; stroke-linecap: round"/>
    <path d="M 144.869698 133.509396 
L 142.623502 130.169545 
L 146.6431 130.376498 
" style="fill: none; stroke: #000000; stroke-linecap: round"/>
   </g>
   <g id="text_18">
    <!-- log(1)=0 -->
    <g transform="translate(190.783779 171.161458) scale(0.09 -0.09)">
     <defs>
      <path id="DejaVuSans-3d" d="M 678 2906 
L 4684 2906 
L 4684 2381 
L 678 2381 
L 678 2906 
z
M 678 1631 
L 4684 1631 
L 4684 1100 
L 678 1100 
L 678 1631 
z
" transform="scale(0.015625)"/>
     </defs>
     <use xlink:href="#DejaVuSans-6c"/>
     <use xlink:href="#DejaVuSans-6f" transform="translate(27.783203 0)"/>
     <use xlink:href="#DejaVuSans-67" transform="translate(88.964844 0)"/>
     <use xlink:href="#DejaVuSans-28" transform="translate(152.441406 0)"/>
     <use xlink:href="#DejaVuSans-31" transform="translate(191.455078 0)"/>
     <use xlink:href="#DejaVuSans-29" transform="translate(255.078125 0)"/>
     <use xlink:href="#DejaVuSans-3d" transform="translate(294.091797 0)"/>
     <use xlink:href="#DejaVuSans-30" transform="translate(377.880859 0)"/>
    </g>
   </g>
   <g id="text_19">
    <!-- Logarithms of different bases share the same shape -->
    <g transform="translate(70.11375 16.318125) scale(0.12 -0.12)">
     <defs>
      <path id="DejaVuSans-4c" d="M 628 4666 
L 1259 4666 
L 1259 531 
L 3531 531 
L 3531 0 
L 628 0 
L 628 4666 
z
" transform="scale(0.015625)"/>
      <path id="DejaVuSans-61" d="M 2194 1759 
Q 1497 1759 1228 1600 
Q 959 1441 959 1056 
Q 959 750 1161 570 
Q 1363 391 1709 391 
Q 2188 391 2477 730 
Q 2766 1069 2766 1631 
L 2766 1759 
L 2194 1759 
z
M 3341 1997 
L 3341 0 
L 2766 0 
L 2766 531 
Q 2569 213 2275 61 
Q 1981 -91 1556 -91 
Q 1019 -91 701 211 
Q 384 513 384 1019 
Q 384 1609 779 1909 
Q 1175 2209 1959 2209 
L 2766 2209 
L 2766 2266 
Q 2766 2663 2505 2880 
Q 2244 3097 1772 3097 
Q 1472 3097 1187 3025 
Q 903 2953 641 2809 
L 641 3341 
Q 956 3463 1253 3523 
Q 1550 3584 1831 3584 
Q 2591 3584 2966 3190 
Q 3341 2797 3341 1997 
z
" transform="scale(0.015625)"/>
      <path id="DejaVuSans-72" d="M 2631 2963 
Q 2534 3019 2420 3045 
Q 2306 3072 2169 3072 
Q 1681 3072 1420 2755 
Q 1159 2438 1159 1844 
L 1159 0 
L 581 0 
L 581 3500 
L 1159 3500 
L 1159 2956 
Q 1341 3275 1631 3429 
Q 1922 3584 2338 3584 
Q 2397 3584 2469 3576 
Q 2541 3569 2628 3553 
L 2631 2963 
z
" transform="scale(0.015625)"/>
      <path id="DejaVuSans-69" d="M 603 3500 
L 1178 3500 
L 1178 0 
L 603 0 
L 603 3500 
z
M 603 4863 
L 1178 4863 
L 1178 4134 
L 603 4134 
L 603 4863 
z
" transform="scale(0.015625)"/>
      <path id="DejaVuSans-74" d="M 1172 4494 
L 1172 3500 
L 2356 3500 
L 2356 3053 
L 1172 3053 
L 1172 1153 
Q 1172 725 1289 603 
Q 1406 481 1766 481 
L 2356 481 
L 2356 0 
L 1766 0 
Q 1100 0 847 248 
Q 594 497 594 1153 
L 594 3053 
L 172 3053 
L 172 3500 
L 594 3500 
L 594 4494 
L 1172 4494 
z
" transform="scale(0.015625)"/>
      <path id="DejaVuSans-68" d="M 3513 2113 
L 3513 0 
L 2938 0 
L 2938 2094 
Q 2938 2591 2744 2837 
Q 2550 3084 2163 3084 
Q 1697 3084 1428 2787 
Q 1159 2491 1159 1978 
L 1159 0 
L 581 0 
L 581 4863 
L 1159 4863 
L 1159 2956 
Q 1366 3272 1645 3428 
Q 1925 3584 2291 3584 
Q 2894 3584 3203 3211 
Q 3513 2838 3513 2113 
z
" transform="scale(0.015625)"/>
      <path id="DejaVuSans-6d" d="M 3328 2828 
Q 3544 3216 3844 3400 
Q 4144 3584 4550 3584 
Q 5097 3584 5394 3201 
Q 5691 2819 5691 2113 
L 5691 0 
L 5113 0 
L 5113 2094 
Q 5113 2597 4934 2840 
Q 4756 3084 4391 3084 
Q 3944 3084 3684 2787 
Q 3425 2491 3425 1978 
L 3425 0 
L 2847 0 
L 2847 2094 
Q 2847 2600 2669 2842 
Q 2491 3084 2119 3084 
Q 1678 3084 1418 2786 
Q 1159 2488 1159 1978 
L 1159 0 
L 581 0 
L 581 3500 
L 1159 3500 
L 1159 2956 
Q 1356 3278 1631 3431 
Q 1906 3584 2284 3584 
Q 2666 3584 2933 3390 
Q 3200 3197 3328 2828 
z
" transform="scale(0.015625)"/>
      <path id="DejaVuSans-73" d="M 2834 3397 
L 2834 2853 
Q 2591 2978 2328 3040 
Q 2066 3103 1784 3103 
Q 1356 3103 1142 2972 
Q 928 2841 928 2578 
Q 928 2378 1081 2264 
Q 1234 2150 1697 2047 
L 1894 2003 
Q 2506 1872 2764 1633 
Q 3022 1394 3022 966 
Q 3022 478 2636 193 
Q 2250 -91 1575 -91 
Q 1294 -91 989 -36 
Q 684 19 347 128 
L 347 722 
Q 666 556 975 473 
Q 1284 391 1588 391 
Q 1994 391 2212 530 
Q 2431 669 2431 922 
Q 2431 1156 2273 1281 
Q 2116 1406 1581 1522 
L 1381 1569 
Q 847 1681 609 1914 
Q 372 2147 372 2553 
Q 372 3047 722 3315 
Q 1072 3584 1716 3584 
Q 2034 3584 2315 3537 
Q 2597 3491 2834 3397 
z
" transform="scale(0.015625)"/>
      <path id="DejaVuSans-20" transform="scale(0.015625)"/>
      <path id="DejaVuSans-66" d="M 2375 4863 
L 2375 4384 
L 1825 4384 
Q 1516 4384 1395 4259 
Q 1275 4134 1275 3809 
L 1275 3500 
L 2222 3500 
L 2222 3053 
L 1275 3053 
L 1275 0 
L 697 0 
L 697 3053 
L 147 3053 
L 147 3500 
L 697 3500 
L 697 3744 
Q 697 4328 969 4595 
Q 1241 4863 1831 4863 
L 2375 4863 
z
" transform="scale(0.015625)"/>
      <path id="DejaVuSans-64" d="M 2906 2969 
L 2906 4863 
L 3481 4863 
L 3481 0 
L 2906 0 
L 2906 525 
Q 2725 213 2448 61 
Q 2172 -91 1784 -91 
Q 1150 -91 751 415 
Q 353 922 353 1747 
Q 353 2572 751 3078 
Q 1150 3584 1784 3584 
Q 2172 3584 2448 3432 
Q 2725 3281 2906 2969 
z
M 947 1747 
Q 947 1113 1208 752 
Q 1469 391 1925 391 
Q 2381 391 2643 752 
Q 2906 1113 2906 1747 
Q 2906 2381 2643 2742 
Q 2381 3103 1925 3103 
Q 1469 3103 1208 2742 
Q 947 2381 947 1747 
z
" transform="scale(0.015625)"/>
      <path id="DejaVuSans-65" d="M 3597 1894 
L 3597 1613 
L 953 1613 
Q 991 1019 1311 708 
Q 1631 397 2203 397 
Q 2534 397 2845 478 
Q 3156 559 3463 722 
L 3463 178 
Q 3153 47 2828 -22 
Q 2503 -91 2169 -91 
Q 1331 -91 842 396 
Q 353 884 353 1716 
Q 353 2575 817 3079 
Q 1281 3584 2069 3584 
Q 2775 3584 3186 3129 
Q 3597 2675 3597 1894 
z
M 3022 2063 
Q 3016 2534 2758 2815 
Q 2500 3097 2075 3097 
Q 1594 3097 1305 2825 
Q 1016 2553 972 2059 
L 3022 2063 
z
" transform="scale(0.015625)"/>
      <path id="DejaVuSans-6e" d="M 3513 2113 
L 3513 0 
L 2938 0 
L 2938 2094 
Q 2938 2591 2744 2837 
Q 2550 3084 2163 3084 
Q 1697 3084 1428 2787 
Q 1159 2491 1159 1978 
L 1159 0 
L 581 0 
L 581 3500 
L 1159 3500 
L 1159 2956 
Q 1366 3272 1645 3428 
Q 1925 3584 2291 3584 
Q 2894 3584 3203 3211 
Q 3513 2838 3513 2113 
z
" transform="scale(0.015625)"/>
      <path id="DejaVuSans-62" d="M 3116 1747 
Q 3116 2381 2855 2742 
Q 2594 3103 2138 3103 
Q 1681 3103 1420 2742 
Q 1159 2381 1159 1747 
Q 1159 1113 1420 752 
Q 1681 391 2138 391 
Q 2594 391 2855 752 
Q 3116 1113 3116 1747 
z
M 1159 2969 
Q 1341 3281 1617 3432 
Q 1894 3584 2278 3584 
Q 2916 3584 3314 3078 
Q 3713 2572 3713 1747 
Q 3713 922 3314 415 
Q 2916 -91 2278 -91 
Q 1894 -91 1617 61 
Q 1341 213 1159 525 
L 1159 0 
L 581 0 
L 581 4863 
L 1159 4863 
L 1159 2969 
z
" transform="scale(0.015625)"/>
      <path id="DejaVuSans-70" d="M 1159 525 
L 1159 -1331 
L 581 -1331 
L 581 3500 
L 1159 3500 
L 1159 2969 
Q 1341 3281 1617 3432 
Q 1894 3584 2278 3584 
Q 2916 3584 3314 3078 
Q 3713 2572 3713 1747 
Q 3713 922 3314 415 
Q 2916 -91 2278 -91 
Q 1894 -91 1617 61 
Q 1341 213 1159 525 
z
M 3116 1747 
Q 3116 2381 2855 2742 
Q 2594 3103 2138 3103 
Q 1681 3103 1420 2742 
Q 1159 2381 1159 1747 
Q 1159 1113 1420 752 
Q 1681 391 2138 391 
Q 2594 391 2855 752 
Q 3116 1113 3116 1747 
z
" transform="scale(0.015625)"/>
     </defs>
     <use xlink:href="#DejaVuSans-4c"/>
     <use xlink:href="#DejaVuSans-6f" transform="translate(53.962891 0)"/>
     <use xlink:href="#DejaVuSans-67" transform="translate(115.144531 0)"/>
     <use xlink:href="#DejaVuSans-61" transform="translate(178.621094 0)"/>
     <use xlink:href="#DejaVuSans-72" transform="translate(239.900391 0)"/>
     <use xlink:href="#DejaVuSans-69" transform="translate(281.013672 0)"/>
     <use xlink:href="#DejaVuSans-74" transform="translate(308.796875 0)"/>
     <use xlink:href="#DejaVuSans-68" transform="translate(348.005859 0)"/>
     <use xlink:href="#DejaVuSans-6d" transform="translate(411.384766 0)"/>
     <use xlink:href="#DejaVuSans-73" transform="translate(508.796875 0)"/>
     <use xlink:href="#DejaVuSans-20" transform="translate(560.896484 0)"/>
     <use xlink:href="#DejaVuSans-6f" transform="translate(592.683594 0)"/>
     <use xlink:href="#DejaVuSans-66" transform="translate(653.865234 0)"/>
     <use xlink:href="#DejaVuSans-20" transform="translate(689.070312 0)"/>
     <use xlink:href="#DejaVuSans-64" transform="translate(720.857422 0)"/>
     <use xlink:href="#DejaVuSans-69" transform="translate(784.333984 0)"/>
     <use xlink:href="#DejaVuSans-66" transform="translate(812.117188 0)"/>
     <use xlink:href="#DejaVuSans-66" transform="translate(847.322266 0)"/>
     <use xlink:href="#DejaVuSans-65" transform="translate(882.527344 0)"/>
     <use xlink:href="#DejaVuSans-72" transform="translate(944.050781 0)"/>
     <use xlink:href="#DejaVuSans-65" transform="translate(982.914062 0)"/>
     <use xlink:href="#DejaVuSans-6e" transform="translate(1044.4375 0)"/>
     <use xlink:href="#DejaVuSans-74" transform="translate(1107.816406 0)"/>
     <use xlink:href="#DejaVuSans-20" transform="translate(1147.025391 0)"/>
     <use xlink:href="#DejaVuSans-62" transform="translate(1178.8125 0)"/>
     <use xlink:href="#DejaVuSans-61" transform="translate(1242.289062 0)"/>
     <use xlink:href="#DejaVuSans-73" transform="translate(1303.568359 0)"/>
     <use xlink:href="#DejaVuSans-65" transform="translate(1355.667969 0)"/>
     <use xlink:href="#DejaVuSans-73" transform="translate(1417.191406 0)"/>
     <use xlink:href="#DejaVuSans-20" transform="translate(1469.291016 0)"/>
     <use xlink:href="#DejaVuSans-73" transform="translate(1501.078125 0)"/>
     <use xlink:href="#DejaVuSans-68" transform="translate(1553.177734 0)"/>
     <use xlink:href="#DejaVuSans-61" transform="translate(1616.556641 0)"/>
     <use xlink:href="#DejaVuSans-72" transform="translate(1677.835938 0)"/>
     <use xlink:href="#DejaVuSans-65" transform="translate(1716.699219 0)"/>
     <use xlink:href="#DejaVuSans-20" transform="translate(1778.222656 0)"/>
     <use xlink:href="#DejaVuSans-74" transform="translate(1810.009766 0)"/>
     <use xlink:href="#DejaVuSans-68" transform="translate(1849.21875 0)"/>
     <use xlink:href="#DejaVuSans-65" transform="translate(1912.597656 0)"/>
     <use xlink:href="#DejaVuSans-20" transform="translate(1974.121094 0)"/>
     <use xlink:href="#DejaVuSans-73" transform="translate(2005.908203 0)"/>
     <use xlink:href="#DejaVuSans-61" transform="translate(2058.007812 0)"/>
     <use xlink:href="#DejaVuSans-6d" transform="translate(2119.287109 0)"/>
     <use xlink:href="#DejaVuSans-65" transform="translate(2216.699219 0)"/>
     <use xlink:href="#DejaVuSans-20" transform="translate(2278.222656 0)"/>
     <use xlink:href="#DejaVuSans-73" transform="translate(2310.009766 0)"/>
     <use xlink:href="#DejaVuSans-68" transform="translate(2362.109375 0)"/>
     <use xlink:href="#DejaVuSans-61" transform="translate(2425.488281 0)"/>
     <use xlink:href="#DejaVuSans-70" transform="translate(2486.767578 0)"/>
     <use xlink:href="#DejaVuSans-65" transform="translate(2550.244141 0)"/>
    </g>
   </g>
   <g id="PathCollection_1">
    <defs>
     <path id="md0db6f0ae5" d="M 0 3 
C 0.795609 3 1.55874 2.683901 2.12132 2.12132 
C 2.683901 1.55874 3 0.795609 3 0 
C 3 -0.795609 2.683901 -1.55874 2.12132 -2.12132 
C 1.55874 -2.683901 0.795609 -3 0 -3 
C -0.795609 -3 -1.55874 -2.683901 -2.12132 -2.12132 
C -2.683901 -1.55874 -3 -0.795609 -3 0 
C -3 0.795609 -2.683901 1.55874 -2.12132 2.12132 
C -1.55874 2.683901 -0.795609 3 0 3 
z
" style="stroke: #000000"/>
    </defs>
    <g clip-path="url(#pd4d90db126)">
     <use xlink:href="#md0db6f0ae5" x="139.912203" y="128.634792" style="stroke: #000000"/>
    </g>
   </g>
   <g id="legend_1">
    <g id="patch_8">
     <path d="M 269.764531 272.978125 
L 404.715313 272.978125 
Q 406.515313 272.978125 406.515313 271.178125 
L 406.515313 231.946563 
Q 406.515313 230.146563 404.715313 230.146563 
L 269.764531 230.146563 
Q 267.964531 230.146563 267.964531 231.946563 
L 267.964531 271.178125 
Q 267.964531 272.978125 269.764531 272.978125 
z
" style="fill: #ffffff; opacity: 0.8; stroke: #cccccc; stroke-linejoin: miter"/>
    </g>
    <g id="line2d_36">
     <path d="M 271.564531 237.435156 
L 280.564531 237.435156 
L 289.564531 237.435156 
" style="fill: none; stroke: #7aa6c2; stroke-width: 2; stroke-linecap: square"/>
    </g>
    <g id="text_20">
     <!-- y = log(x)  (natural log) -->
     <g transform="translate(296.764531 240.585156) scale(0.09 -0.09)">
      <defs>
       <path id="DejaVuSans-79" d="M 2059 -325 
Q 1816 -950 1584 -1140 
Q 1353 -1331 966 -1331 
L 506 -1331 
L 506 -850 
L 844 -850 
Q 1081 -850 1212 -737 
Q 1344 -625 1503 -206 
L 1606 56 
L 191 3500 
L 800 3500 
L 1894 763 
L 2988 3500 
L 3597 3500 
L 2059 -325 
z
" transform="scale(0.015625)"/>
       <path id="DejaVuSans-75" d="M 544 1381 
L 544 3500 
L 1119 3500 
L 1119 1403 
Q 1119 906 1312 657 
Q 1506 409 1894 409 
Q 2359 409 2629 706 
Q 2900 1003 2900 1516 
L 2900 3500 
L 3475 3500 
L 3475 0 
L 2900 0 
L 2900 538 
Q 2691 219 2414 64 
Q 2138 -91 1772 -91 
Q 1169 -91 856 284 
Q 544 659 544 1381 
z
M 1991 3584 
L 1991 3584 
z
" transform="scale(0.015625)"/>
      </defs>
      <use xlink:href="#DejaVuSans-79"/>
      <use xlink:href="#DejaVuSans-20" transform="translate(59.179688 0)"/>
      <use xlink:href="#DejaVuSans-3d" transform="translate(90.966797 0)"/>
      <use xlink:href="#DejaVuSans-20" transform="translate(174.755859 0)"/>
      <use xlink:href="#DejaVuSans-6c" transform="translate(206.542969 0)"/>
      <use xlink:href="#DejaVuSans-6f" transform="translate(234.326172 0)"/>
      <use xlink:href="#DejaVuSans-67" transform="translate(295.507812 0)"/>
      <use xlink:href="#DejaVuSans-28" transform="translate(358.984375 0)"/>
      <use xlink:href="#DejaVuSans-78" transform="translate(397.998047 0)"/>
      <use xlink:href="#DejaVuSans-29" transform="translate(457.177734 0)"/>
      <use xlink:href="#DejaVuSans-20" transform="translate(496.191406 0)"/>
      <use xlink:href="#DejaVuSans-20" transform="translate(527.978516 0)"/>
      <use xlink:href="#DejaVuSans-28" transform="translate(559.765625 0)"/>
      <use xlink:href="#DejaVuSans-6e" transform="translate(598.779297 0)"/>
      <use xlink:href="#DejaVuSans-61" transform="translate(662.158203 0)"/>
      <use xlink:href="#DejaVuSans-74" transform="translate(723.4375 0)"/>
      <use xlink:href="#DejaVuSans-75" transform="translate(762.646484 0)"/>
      <use xlink:href="#DejaVuSans-72" transform="translate(826.025391 0)"/>
      <use xlink:href="#DejaVuSans-61" transform="translate(867.138672 0)"/>
      <use xlink:href="#DejaVuSans-6c" transform="translate(928.417969 0)"/>
      <use xlink:href="#DejaVuSans-20" transform="translate(956.201172 0)"/>
      <use xlink:href="#DejaVuSans-6c" transform="translate(987.988281 0)"/>
      <use xlink:href="#DejaVuSans-6f" transform="translate(1015.771484 0)"/>
      <use xlink:href="#DejaVuSans-67" transform="translate(1076.953125 0)"/>
      <use xlink:href="#DejaVuSans-29" transform="translate(1140.429688 0)"/>
     </g>
    </g>
    <g id="line2d_37">
     <path d="M 271.564531 250.645469 
L 280.564531 250.645469 
L 289.564531 250.645469 
" style="fill: none; stroke-dasharray: 5.55,2.4; stroke-dashoffset: 0; stroke: #e15759; stroke-width: 1.5"/>
    </g>
    <g id="text_21">
     <!-- y = log_2(x) -->
     <g transform="translate(296.764531 253.795469) scale(0.09 -0.09)">
      <defs>
       <path id="DejaVuSans-5f" d="M 3263 -1063 
L 3263 -1509 
L -63 -1509 
L -63 -1063 
L 3263 -1063 
z
" transform="scale(0.015625)"/>
      </defs>
      <use xlink:href="#DejaVuSans-79"/>
      <use xlink:href="#DejaVuSans-20" transform="translate(59.179688 0)"/>
      <use xlink:href="#DejaVuSans-3d" transform="translate(90.966797 0)"/>
      <use xlink:href="#DejaVuSans-20" transform="translate(174.755859 0)"/>
      <use xlink:href="#DejaVuSans-6c" transform="translate(206.542969 0)"/>
      <use xlink:href="#DejaVuSans-6f" transform="translate(234.326172 0)"/>
      <use xlink:href="#DejaVuSans-67" transform="translate(295.507812 0)"/>
      <use xlink:href="#DejaVuSans-5f" transform="translate(358.984375 0)"/>
      <use xlink:href="#DejaVuSans-32" transform="translate(408.984375 0)"/>
      <use xlink:href="#DejaVuSans-28" transform="translate(472.607422 0)"/>
      <use xlink:href="#DejaVuSans-78" transform="translate(511.621094 0)"/>
      <use xlink:href="#DejaVuSans-29" transform="translate(570.800781 0)"/>
     </g>
    </g>
    <g id="line2d_38">
     <path d="M 271.564531 264.106094 
L 280.564531 264.106094 
L 289.564531 264.106094 
" style="fill: none; stroke-dasharray: 1.5,2.475; stroke-dashoffset: 0; stroke: #59a14f; stroke-width: 1.5"/>
    </g>
    <g id="text_22">
     <!-- y = log_10(x) -->
     <g transform="translate(296.764531 267.256094) scale(0.09 -0.09)">
      <use xlink:href="#DejaVuSans-79"/>
      <use xlink:href="#DejaVuSans-20" transform="translate(59.179688 0)"/>
      <use xlink:href="#DejaVuSans-3d" transform="translate(90.966797 0)"/>
      <use xlink:href="#DejaVuSans-20" transform="translate(174.755859 0)"/>
      <use xlink:href="#DejaVuSans-6c" transform="translate(206.542969 0)"/>
      <use xlink:href="#DejaVuSans-6f" transform="translate(234.326172 0)"/>
      <use xlink:href="#DejaVuSans-67" transform="translate(295.507812 0)"/>
      <use xlink:href="#DejaVuSans-5f" transform="translate(358.984375 0)"/>
      <use xlink:href="#DejaVuSans-31" transform="translate(408.984375 0)"/>
      <use xlink:href="#DejaVuSans-30" transform="translate(472.607422 0)"/>
      <use xlink:href="#DejaVuSans-28" transform="translate(536.230469 0)"/>
      <use xlink:href="#DejaVuSans-78" transform="translate(575.244141 0)"/>
      <use xlink:href="#DejaVuSans-29" transform="translate(634.423828 0)"/>
     </g>
    </g>
   </g>
  </g>
  <g id="axes_2">
   <g id="patch_9">
    <path d="M 500.197358 277.478125 
L 685.768267 277.478125 
L 685.768267 22.318125 
L 500.197358 22.318125 
z
" style="fill: #ffffff"/>
   </g>
   <g id="matplotlib.axis_3">
    <g id="xtick_10">
     <g id="line2d_39">
      <path d="M 523.393722 277.478125 
L 523.393722 22.318125 
" clip-path="url(#pf7c2eea10d)" style="fill: none; stroke: #b0b0b0; stroke-opacity: 0.25; stroke-width: 0.8; stroke-linecap: square"/>
     </g>
     <g id="line2d_40">
      <g>
       <use xlink:href="#ma7d56c17ff" x="523.393722" y="277.478125" style="stroke: #000000; stroke-width: 0.8"/>
      </g>
     </g>
     <g id="text_23">
      <!-- −2 -->
      <g transform="translate(516.022628 292.076563) scale(0.1 -0.1)">
       <use xlink:href="#DejaVuSans-2212"/>
       <use xlink:href="#DejaVuSans-32" transform="translate(83.789062 0)"/>
      </g>
     </g>
    </g>
    <g id="xtick_11">
     <g id="line2d_41">
      <path d="M 569.786449 277.478125 
L 569.786449 22.318125 
" clip-path="url(#pf7c2eea10d)" style="fill: none; stroke: #b0b0b0; stroke-opacity: 0.25; stroke-width: 0.8; stroke-linecap: square"/>
     </g>
     <g id="line2d_42">
      <g>
       <use xlink:href="#ma7d56c17ff" x="569.786449" y="277.478125" style="stroke: #000000; stroke-width: 0.8"/>
      </g>
     </g>
     <g id="text_24">
      <!-- 0 -->
      <g transform="translate(566.605199 292.076563) scale(0.1 -0.1)">
       <use xlink:href="#DejaVuSans-30"/>
      </g>
     </g>
    </g>
    <g id="xtick_12">
     <g id="line2d_43">
      <path d="M 616.179176 277.478125 
L 616.179176 22.318125 
" clip-path="url(#pf7c2eea10d)" style="fill: none; stroke: #b0b0b0; stroke-opacity: 0.25; stroke-width: 0.8; stroke-linecap: square"/>
     </g>
     <g id="line2d_44">
      <g>
       <use xlink:href="#ma7d56c17ff" x="616.179176" y="277.478125" style="stroke: #000000; stroke-width: 0.8"/>
      </g>
     </g>
     <g id="text_25">
      <!-- 2 -->
      <g transform="translate(612.997926 292.076563) scale(0.1 -0.1)">
       <use xlink:href="#DejaVuSans-32"/>
      </g>
     </g>
    </g>
    <g id="xtick_13">
     <g id="line2d_45">
      <path d="M 662.571903 277.478125 
L 662.571903 22.318125 
" clip-path="url(#pf7c2eea10d)" style="fill: none; stroke: #b0b0b0; stroke-opacity: 0.25; stroke-width: 0.8; stroke-linecap: square"/>
     </g>
     <g id="line2d_46">
      <g>
       <use xlink:href="#ma7d56c17ff" x="662.571903" y="277.478125" style="stroke: #000000; stroke-width: 0.8"/>
      </g>
     </g>
     <g id="text_26">
      <!-- 4 -->
      <g transform="translate(659.390653 292.076563) scale(0.1 -0.1)">
       <use xlink:href="#DejaVuSans-34"/>
      </g>
     </g>
    </g>
    <g id="text_27">
     <!-- x -->
     <g transform="translate(590.023438 305.754687) scale(0.1 -0.1)">
      <use xlink:href="#DejaVuSans-78"/>
     </g>
    </g>
   </g>
   <g id="matplotlib.axis_4">
    <g id="ytick_7">
     <g id="line2d_47">
      <path d="M 500.197358 254.281761 
L 685.768267 254.281761 
" clip-path="url(#pf7c2eea10d)" style="fill: none; stroke: #b0b0b0; stroke-opacity: 0.25; stroke-width: 0.8; stroke-linecap: square"/>
     </g>
     <g id="line2d_48">
      <g>
       <use xlink:href="#m4f2f9c985d" x="500.197358" y="254.281761" style="stroke: #000000; stroke-width: 0.8"/>
      </g>
     </g>
     <g id="text_28">
      <!-- −2 -->
      <g transform="translate(478.45517 258.08098) scale(0.1 -0.1)">
       <use xlink:href="#DejaVuSans-2212"/>
       <use xlink:href="#DejaVuSans-32" transform="translate(83.789062 0)"/>
      </g>
     </g>
    </g>
    <g id="ytick_8">
     <g id="line2d_49">
      <path d="M 500.197358 207.889034 
L 685.768267 207.889034 
" clip-path="url(#pf7c2eea10d)" style="fill: none; stroke: #b0b0b0; stroke-opacity: 0.25; stroke-width: 0.8; stroke-linecap: square"/>
     </g>
     <g id="line2d_50">
      <g>
       <use xlink:href="#m4f2f9c985d" x="500.197358" y="207.889034" style="stroke: #000000; stroke-width: 0.8"/>
      </g>
     </g>
     <g id="text_29">
      <!-- 0 -->
      <g transform="translate(486.834858 211.688253) scale(0.1 -0.1)">
       <use xlink:href="#DejaVuSans-30"/>
      </g>
     </g>
    </g>
    <g id="ytick_9">
     <g id="line2d_51">
      <path d="M 500.197358 161.496307 
L 685.768267 161.496307 
" clip-path="url(#pf7c2eea10d)" style="fill: none; stroke: #b0b0b0; stroke-opacity: 0.25; stroke-width: 0.8; stroke-linecap: square"/>
     </g>
     <g id="line2d_52">
      <g>
       <use xlink:href="#m4f2f9c985d" x="500.197358" y="161.496307" style="stroke: #000000; stroke-width: 0.8"/>
      </g>
     </g>
     <g id="text_30">
      <!-- 2 -->
      <g transform="translate(486.834858 165.295526) scale(0.1 -0.1)">
       <use xlink:href="#DejaVuSans-32"/>
      </g>
     </g>
    </g>
    <g id="ytick_10">
     <g id="line2d_53">
      <path d="M 500.197358 115.10358 
L 685.768267 115.10358 
" clip-path="url(#pf7c2eea10d)" style="fill: none; stroke: #b0b0b0; stroke-opacity: 0.25; stroke-width: 0.8; stroke-linecap: square"/>
     </g>
     <g id="line2d_54">
      <g>
       <use xlink:href="#m4f2f9c985d" x="500.197358" y="115.10358" style="stroke: #000000; stroke-width: 0.8"/>
      </g>
     </g>
     <g id="text_31">
      <!-- 4 -->
      <g transform="translate(486.834858 118.902798) scale(0.1 -0.1)">
       <use xlink:href="#DejaVuSans-34"/>
      </g>
     </g>
    </g>
    <g id="ytick_11">
     <g id="line2d_55">
      <path d="M 500.197358 68.710852 
L 685.768267 68.710852 
" clip-path="url(#pf7c2eea10d)" style="fill: none; stroke: #b0b0b0; stroke-opacity: 0.25; stroke-width: 0.8; stroke-linecap: square"/>
     </g>
     <g id="line2d_56">
      <g>
       <use xlink:href="#m4f2f9c985d" x="500.197358" y="68.710852" style="stroke: #000000; stroke-width: 0.8"/>
      </g>
     </g>
     <g id="text_32">
      <!-- 6 -->
      <g transform="translate(486.834858 72.510071) scale(0.1 -0.1)">
       <defs>
        <path id="DejaVuSans-36" d="M 2113 2584 
Q 1688 2584 1439 2293 
Q 1191 2003 1191 1497 
Q 1191 994 1439 701 
Q 1688 409 2113 409 
Q 2538 409 2786 701 
Q 3034 994 3034 1497 
Q 3034 2003 2786 2293 
Q 2538 2584 2113 2584 
z
M 3366 4563 
L 3366 3988 
Q 3128 4100 2886 4159 
Q 2644 4219 2406 4219 
Q 1781 4219 1451 3797 
Q 1122 3375 1075 2522 
Q 1259 2794 1537 2939 
Q 1816 3084 2150 3084 
Q 2853 3084 3261 2657 
Q 3669 2231 3669 1497 
Q 3669 778 3244 343 
Q 2819 -91 2113 -91 
Q 1303 -91 875 529 
Q 447 1150 447 2328 
Q 447 3434 972 4092 
Q 1497 4750 2381 4750 
Q 2619 4750 2861 4703 
Q 3103 4656 3366 4563 
z
" transform="scale(0.015625)"/>
       </defs>
       <use xlink:href="#DejaVuSans-36"/>
      </g>
     </g>
    </g>
    <g id="ytick_12">
     <g id="line2d_57">
      <path d="M 500.197358 22.318125 
L 685.768267 22.318125 
" clip-path="url(#pf7c2eea10d)" style="fill: none; stroke: #b0b0b0; stroke-opacity: 0.25; stroke-width: 0.8; stroke-linecap: square"/>
     </g>
     <g id="line2d_58">
      <g>
       <use xlink:href="#m4f2f9c985d" x="500.197358" y="22.318125" style="stroke: #000000; stroke-width: 0.8"/>
      </g>
     </g>
     <g id="text_33">
      <!-- 8 -->
      <g transform="translate(486.834858 26.117344) scale(0.1 -0.1)">
       <defs>
        <path id="DejaVuSans-38" d="M 2034 2216 
Q 1584 2216 1326 1975 
Q 1069 1734 1069 1313 
Q 1069 891 1326 650 
Q 1584 409 2034 409 
Q 2484 409 2743 651 
Q 3003 894 3003 1313 
Q 3003 1734 2745 1975 
Q 2488 2216 2034 2216 
z
M 1403 2484 
Q 997 2584 770 2862 
Q 544 3141 544 3541 
Q 544 4100 942 4425 
Q 1341 4750 2034 4750 
Q 2731 4750 3128 4425 
Q 3525 4100 3525 3541 
Q 3525 3141 3298 2862 
Q 3072 2584 2669 2484 
Q 3125 2378 3379 2068 
Q 3634 1759 3634 1313 
Q 3634 634 3220 271 
Q 2806 -91 2034 -91 
Q 1263 -91 848 271 
Q 434 634 434 1313 
Q 434 1759 690 2068 
Q 947 2378 1403 2484 
z
M 1172 3481 
Q 1172 3119 1398 2916 
Q 1625 2713 2034 2713 
Q 2441 2713 2670 2916 
Q 2900 3119 2900 3481 
Q 2900 3844 2670 4047 
Q 2441 4250 2034 4250 
Q 1625 4250 1398 4047 
Q 1172 3844 1172 3481 
z
" transform="scale(0.015625)"/>
       </defs>
       <use xlink:href="#DejaVuSans-38"/>
      </g>
     </g>
    </g>
    <g id="text_34">
     <!-- y -->
     <g transform="translate(472.375483 152.8575) rotate(-90) scale(0.1 -0.1)">
      <use xlink:href="#DejaVuSans-79"/>
     </g>
    </g>
   </g>
   <g id="line2d_59">
    <path d="M 500.197358 206.734155 
L 509.988788 206.127639 
L 517.33236 205.471643 
L 523.85998 204.686008 
L 529.571648 203.791738 
L 534.467363 202.828953 
L 539.363077 201.639932 
L 543.44284 200.438266 
L 547.522602 199.005526 
L 551.602365 197.297278 
L 554.866175 195.697041 
L 558.129985 193.855034 
L 561.393795 191.734731 
L 564.657605 189.294085 
L 567.105462 187.224526 
L 569.55332 184.924632 
L 572.001177 182.368767 
L 574.449035 179.528443 
L 576.896892 176.371999 
L 579.344749 172.864253 
L 581.792607 168.966107 
L 584.240464 164.634109 
L 586.688322 159.819973 
L 589.136179 154.47004 
L 591.584037 148.524676 
L 594.031894 141.917611 
L 596.479752 134.575202 
L 598.927609 126.415606 
L 601.375467 117.347872 
L 603.823324 107.270929 
L 606.271182 96.072454 
L 608.719039 83.627625 
L 611.166897 69.797725 
L 613.614754 54.428602 
L 616.062611 37.348944 
L 618.510469 18.368375 
L 620.765016 -1 
L 620.765016 -1 
" clip-path="url(#pf7c2eea10d)" style="fill: none; stroke: #7aa6c2; stroke-width: 2; stroke-linecap: square"/>
   </g>
   <g id="line2d_60">
    <path d="M 500.197358 277.478125 
L 662.571903 115.10358 
L 662.571903 115.10358 
" clip-path="url(#pf7c2eea10d)" style="fill: none; stroke-dasharray: 1,1.65; stroke-dashoffset: 0; stroke: #999999"/>
   </g>
   <g id="line2d_61">
    <path d="M 570.946267 277.379129 
L 572.360487 258.886696 
L 573.774707 248.729504 
L 575.188926 241.689334 
L 576.603146 236.295775 
L 578.017366 231.922742 
L 579.431586 228.24481 
L 580.845806 225.071014 
L 582.260026 222.279663 
L 583.674245 219.788421 
L 586.502685 215.488512 
L 589.331125 211.8624 
L 592.159564 208.727246 
L 594.988004 205.96582 
L 597.816443 203.498435 
L 600.644883 201.268454 
L 604.887542 198.280248 
L 609.130202 195.633428 
L 613.372861 193.257929 
L 617.615521 191.103261 
L 623.2724 188.510247 
L 628.929279 186.178169 
L 634.586158 184.05928 
L 641.657257 181.656854 
L 648.728356 179.48006 
L 657.213675 177.111838 
L 665.698994 174.963158 
L 675.598533 172.684627 
L 686.912291 170.328243 
L 699.64027 167.935296 
L 712.368248 165.766286 
L 726.510446 163.572596 
L 730.945 162.925466 
L 730.945 162.925466 
" clip-path="url(#pf7c2eea10d)" style="fill: none; stroke: #e15759; stroke-width: 2; stroke-linecap: square"/>
   </g>
   <g id="line2d_62">
    <path d="M 500.197358 207.889034 
L 685.768267 207.889034 
" clip-path="url(#pf7c2eea10d)" style="fill: none; stroke: #999999; stroke-width: 0.6; stroke-linecap: square"/>
   </g>
   <g id="patch_10">
    <path d="M 500.197358 277.478125 
L 500.197358 22.318125 
" style="fill: none; stroke: #000000; stroke-width: 0.8; stroke-linejoin: miter; stroke-linecap: square"/>
   </g>
   <g id="patch_11">
    <path d="M 685.768267 277.478125 
L 685.768267 22.318125 
" style="fill: none; stroke: #000000; stroke-width: 0.8; stroke-linejoin: miter; stroke-linecap: square"/>
   </g>
   <g id="patch_12">
    <path d="M 500.197358 277.478125 
L 685.768267 277.478125 
" style="fill: none; stroke: #000000; stroke-width: 0.8; stroke-linejoin: miter; stroke-linecap: square"/>
   </g>
   <g id="patch_13">
    <path d="M 500.197358 22.318125 
L 685.768267 22.318125 
" style="fill: none; stroke: #000000; stroke-width: 0.8; stroke-linejoin: miter; stroke-linecap: square"/>
   </g>
   <g id="text_35">
    <!-- exp and log are mirror images across y = x -->
    <g transform="translate(463.220625 16.318125) scale(0.12 -0.12)">
     <defs>
      <path id="DejaVuSans-63" d="M 3122 3366 
L 3122 2828 
Q 2878 2963 2633 3030 
Q 2388 3097 2138 3097 
Q 1578 3097 1268 2742 
Q 959 2388 959 1747 
Q 959 1106 1268 751 
Q 1578 397 2138 397 
Q 2388 397 2633 464 
Q 2878 531 3122 666 
L 3122 134 
Q 2881 22 2623 -34 
Q 2366 -91 2075 -91 
Q 1284 -91 818 406 
Q 353 903 353 1747 
Q 353 2603 823 3093 
Q 1294 3584 2113 3584 
Q 2378 3584 2631 3529 
Q 2884 3475 3122 3366 
z
" transform="scale(0.015625)"/>
     </defs>
     <use xlink:href="#DejaVuSans-65"/>
     <use xlink:href="#DejaVuSans-78" transform="translate(59.773438 0)"/>
     <use xlink:href="#DejaVuSans-70" transform="translate(118.953125 0)"/>
     <use xlink:href="#DejaVuSans-20" transform="translate(182.429688 0)"/>
     <use xlink:href="#DejaVuSans-61" transform="translate(214.216797 0)"/>
     <use xlink:href="#DejaVuSans-6e" transform="translate(275.496094 0)"/>
     <use xlink:href="#DejaVuSans-64" transform="translate(338.875 0)"/>
     <use xlink:href="#DejaVuSans-20" transform="translate(402.351562 0)"/>
     <use xlink:href="#DejaVuSans-6c" transform="translate(434.138672 0)"/>
     <use xlink:href="#DejaVuSans-6f" transform="translate(461.921875 0)"/>
     <use xlink:href="#DejaVuSans-67" transform="translate(523.103516 0)"/>
     <use xlink:href="#DejaVuSans-20" transform="translate(586.580078 0)"/>
     <use xlink:href="#DejaVuSans-61" transform="translate(618.367188 0)"/>
     <use xlink:href="#DejaVuSans-72" transform="translate(679.646484 0)"/>
     <use xlink:href="#DejaVuSans-65" transform="translate(718.509766 0)"/>
     <use xlink:href="#DejaVuSans-20" transform="translate(780.033203 0)"/>
     <use xlink:href="#DejaVuSans-6d" transform="translate(811.820312 0)"/>
     <use xlink:href="#DejaVuSans-69" transform="translate(909.232422 0)"/>
     <use xlink:href="#DejaVuSans-72" transform="translate(937.015625 0)"/>
     <use xlink:href="#DejaVuSans-72" transform="translate(976.378906 0)"/>
     <use xlink:href="#DejaVuSans-6f" transform="translate(1015.242188 0)"/>
     <use xlink:href="#DejaVuSans-72" transform="translate(1076.423828 0)"/>
     <use xlink:href="#DejaVuSans-20" transform="translate(1117.537109 0)"/>
     <use xlink:href="#DejaVuSans-69" transform="translate(1149.324219 0)"/>
     <use xlink:href="#DejaVuSans-6d" transform="translate(1177.107422 0)"/>
     <use xlink:href="#DejaVuSans-61" transform="translate(1274.519531 0)"/>
     <use xlink:href="#DejaVuSans-67" transform="translate(1335.798828 0)"/>
     <use xlink:href="#DejaVuSans-65" transform="translate(1399.275391 0)"/>
     <use xlink:href="#DejaVuSans-73" transform="translate(1460.798828 0)"/>
     <use xlink:href="#DejaVuSans-20" transform="translate(1512.898438 0)"/>
     <use xlink:href="#DejaVuSans-61" transform="translate(1544.685547 0)"/>
     <use xlink:href="#DejaVuSans-63" transform="translate(1605.964844 0)"/>
     <use xlink:href="#DejaVuSans-72" transform="translate(1660.945312 0)"/>
     <use xlink:href="#DejaVuSans-6f" transform="translate(1699.808594 0)"/>
     <use xlink:href="#DejaVuSans-73" transform="translate(1760.990234 0)"/>
     <use xlink:href="#DejaVuSans-73" transform="translate(1813.089844 0)"/>
     <use xlink:href="#DejaVuSans-20" transform="translate(1865.189453 0)"/>
     <use xlink:href="#DejaVuSans-79" transform="translate(1896.976562 0)"/>
     <use xlink:href="#DejaVuSans-20" transform="translate(1956.15625 0)"/>
     <use xlink:href="#DejaVuSans-3d" transform="translate(1987.943359 0)"/>
     <use xlink:href="#DejaVuSans-20" transform="translate(2071.732422 0)"/>
     <use xlink:href="#DejaVuSans-78" transform="translate(2103.519531 0)"/>
    </g>
   </g>
   <g id="legend_2">
    <g id="patch_14">
     <path d="M 506.497358 69.149063 
L 596.609858 69.149063 
Q 598.409858 69.149063 598.409858 67.349063 
L 598.409858 28.618125 
Q 598.409858 26.818125 596.609858 26.818125 
L 506.497358 26.818125 
Q 504.697358 26.818125 504.697358 28.618125 
L 504.697358 67.349063 
Q 504.697358 69.149063 506.497358 69.149063 
z
" style="fill: #ffffff; opacity: 0.8; stroke: #cccccc; stroke-linejoin: miter"/>
    </g>
    <g id="line2d_63">
     <path d="M 508.297358 34.106719 
L 517.297358 34.106719 
L 526.297358 34.106719 
" style="fill: none; stroke: #7aa6c2; stroke-width: 2; stroke-linecap: square"/>
    </g>
    <g id="text_36">
     <!-- y = exp(x) -->
     <g transform="translate(533.497358 37.256719) scale(0.09 -0.09)">
      <use xlink:href="#DejaVuSans-79"/>
      <use xlink:href="#DejaVuSans-20" transform="translate(59.179688 0)"/>
      <use xlink:href="#DejaVuSans-3d" transform="translate(90.966797 0)"/>
      <use xlink:href="#DejaVuSans-20" transform="translate(174.755859 0)"/>
      <use xlink:href="#DejaVuSans-65" transform="translate(206.542969 0)"/>
      <use xlink:href="#DejaVuSans-78" transform="translate(266.316406 0)"/>
      <use xlink:href="#DejaVuSans-70" transform="translate(325.496094 0)"/>
      <use xlink:href="#DejaVuSans-28" transform="translate(388.972656 0)"/>
      <use xlink:href="#DejaVuSans-78" transform="translate(427.986328 0)"/>
      <use xlink:href="#DejaVuSans-29" transform="translate(487.166016 0)"/>
     </g>
    </g>
    <g id="line2d_64">
     <path d="M 508.297358 47.317031 
L 517.297358 47.317031 
L 526.297358 47.317031 
" style="fill: none; stroke-dasharray: 1,1.65; stroke-dashoffset: 0; stroke: #999999"/>
    </g>
    <g id="text_37">
     <!-- y = x (mirror) -->
     <g transform="translate(533.497358 50.467031) scale(0.09 -0.09)">
      <use xlink:href="#DejaVuSans-79"/>
      <use xlink:href="#DejaVuSans-20" transform="translate(59.179688 0)"/>
      <use xlink:href="#DejaVuSans-3d" transform="translate(90.966797 0)"/>
      <use xlink:href="#DejaVuSans-20" transform="translate(174.755859 0)"/>
      <use xlink:href="#DejaVuSans-78" transform="translate(206.542969 0)"/>
      <use xlink:href="#DejaVuSans-20" transform="translate(265.722656 0)"/>
      <use xlink:href="#DejaVuSans-28" transform="translate(297.509766 0)"/>
      <use xlink:href="#DejaVuSans-6d" transform="translate(336.523438 0)"/>
      <use xlink:href="#DejaVuSans-69" transform="translate(433.935547 0)"/>
      <use xlink:href="#DejaVuSans-72" transform="translate(461.71875 0)"/>
      <use xlink:href="#DejaVuSans-72" transform="translate(501.082031 0)"/>
      <use xlink:href="#DejaVuSans-6f" transform="translate(539.945312 0)"/>
      <use xlink:href="#DejaVuSans-72" transform="translate(601.126953 0)"/>
      <use xlink:href="#DejaVuSans-29" transform="translate(642.240234 0)"/>
     </g>
    </g>
    <g id="line2d_65">
     <path d="M 508.297358 60.527344 
L 517.297358 60.527344 
L 526.297358 60.527344 
" style="fill: none; stroke: #e15759; stroke-width: 2; stroke-linecap: square"/>
    </g>
    <g id="text_38">
     <!-- y = log(x) -->
     <g transform="translate(533.497358 63.677344) scale(0.09 -0.09)">
      <use xlink:href="#DejaVuSans-79"/>
      <use xlink:href="#DejaVuSans-20" transform="translate(59.179688 0)"/>
      <use xlink:href="#DejaVuSans-3d" transform="translate(90.966797 0)"/>
      <use xlink:href="#DejaVuSans-20" transform="translate(174.755859 0)"/>
      <use xlink:href="#DejaVuSans-6c" transform="translate(206.542969 0)"/>
      <use xlink:href="#DejaVuSans-6f" transform="translate(234.326172 0)"/>
      <use xlink:href="#DejaVuSans-67" transform="translate(295.507812 0)"/>
      <use xlink:href="#DejaVuSans-28" transform="translate(358.984375 0)"/>
      <use xlink:href="#DejaVuSans-78" transform="translate(397.998047 0)"/>
      <use xlink:href="#DejaVuSans-29" transform="translate(457.177734 0)"/>
     </g>
    </g>
   </g>
  </g>
 </g>
 <defs>
  <clipPath id="pd4d90db126">
   <rect x="42.620313" y="22.318125" width="368.395" height="255.16"/>
  </clipPath>
  <clipPath id="pf7c2eea10d">
   <rect x="500.197358" y="22.318125" width="185.570909" height="255.16"/>
  </clipPath>
 </defs>
</svg>
