<?xml version="1.0" encoding="utf-8" standalone="no"?>
<!DOCTYPE svg PUBLIC "-//W3C//DTD SVG 1.1//EN"
  "http://www.w3.org/Graphics/SVG/1.1/DTD/svg11.dtd">
<svg xmlns:xlink="http://www.w3.org/1999/xlink" width="784.46125pt" height="313.49575pt" viewBox="0 0 784.46125 313.49575" xmlns="http://www.w3.org/2000/svg" version="1.1">
 <metadata>
  <rdf:RDF xmlns:dc="http://purl.org/dc/elements/1.1/" xmlns:cc="http://creativecommons.org/ns#" xmlns:rdf="http://www.w3.org/1999/02/22-rdf-syntax-ns#">
   <cc:Work>
    <dc:type rdf:resource="http://purl.org/dc/dcmitype/StillImage"/>
    <dc:date>2026-05-26T08:38:45.003319</dc:date>
    <dc:format>image/svg+xml</dc:format>
    <dc:creator>
     <cc:Agent>
      <dc:title>Matplotlib v3.10.8, https://matplotlib.org/</dc:title>
     </cc:Agent>
    </dc:creator>
   </cc:Work>
  </rdf:RDF>
 </metadata>
 <defs>
  <style type="text/css">*{stroke-linejoin: round; stroke-linecap: butt}</style>
 </defs>
 <g id="figure_1">
  <g id="patch_1">
   <path d="M 0 313.49575 
L 784.46125 313.49575 
L 784.46125 0 
L 0 0 
z
" style="fill: #ffffff"/>
  </g>
  <g id="axes_1">
   <g id="patch_2">
    <path d="M 43.78125 275.9395 
L 387.20125 275.9395 
L 387.20125 35.7555 
L 43.78125 35.7555 
z
" style="fill: #ffffff"/>
   </g>
   <g id="matplotlib.axis_1">
    <g id="xtick_1">
     <g id="line2d_1">
      <path d="M 59.39125 275.9395 
L 59.39125 35.7555 
" clip-path="url(#pb0578157b0)" style="fill: none; stroke: #b0b0b0; stroke-opacity: 0.25; stroke-width: 0.8; stroke-linecap: square"/>
     </g>
     <g id="line2d_2">
      <defs>
       <path id="m74b688bc88" d="M 0 0 
L 0 3.5 
" style="stroke: #000000; stroke-width: 0.8"/>
      </defs>
      <g>
       <use xlink:href="#m74b688bc88" x="59.39125" y="275.9395" style="stroke: #000000; stroke-width: 0.8"/>
      </g>
     </g>
     <g id="text_1">
      <!-- −6 -->
      <g transform="translate(52.020156 290.537937) scale(0.1 -0.1)">
       <defs>
        <path id="DejaVuSans-2212" d="M 678 2272 
L 4684 2272 
L 4684 1741 
L 678 1741 
L 678 2272 
z
" transform="scale(0.015625)"/>
        <path id="DejaVuSans-36" d="M 2113 2584 
Q 1688 2584 1439 2293 
Q 1191 2003 1191 1497 
Q 1191 994 1439 701 
Q 1688 409 2113 409 
Q 2538 409 2786 701 
Q 3034 994 3034 1497 
Q 3034 2003 2786 2293 
Q 2538 2584 2113 2584 
z
M 3366 4563 
L 3366 3988 
Q 3128 4100 2886 4159 
Q 2644 4219 2406 4219 
Q 1781 4219 1451 3797 
Q 1122 3375 1075 2522 
Q 1259 2794 1537 2939 
Q 1816 3084 2150 3084 
Q 2853 3084 3261 2657 
Q 3669 2231 3669 1497 
Q 3669 778 3244 343 
Q 2819 -91 2113 -91 
Q 1303 -91 875 529 
Q 447 1150 447 2328 
Q 447 3434 972 4092 
Q 1497 4750 2381 4750 
Q 2619 4750 2861 4703 
Q 3103 4656 3366 4563 
z
" transform="scale(0.015625)"/>
       </defs>
       <use xlink:href="#DejaVuSans-2212"/>
       <use xlink:href="#DejaVuSans-36" transform="translate(83.789062 0)"/>
      </g>
     </g>
    </g>
    <g id="xtick_2">
     <g id="line2d_3">
      <path d="M 111.424583 275.9395 
L 111.424583 35.7555 
" clip-path="url(#pb0578157b0)" style="fill: none; stroke: #b0b0b0; stroke-opacity: 0.25; stroke-width: 0.8; stroke-linecap: square"/>
     </g>
     <g id="line2d_4">
      <g>
       <use xlink:href="#m74b688bc88" x="111.424583" y="275.9395" style="stroke: #000000; stroke-width: 0.8"/>
      </g>
     </g>
     <g id="text_2">
      <!-- −4 -->
      <g transform="translate(104.05349 290.537937) scale(0.1 -0.1)">
       <defs>
        <path id="DejaVuSans-34" d="M 2419 4116 
L 825 1625 
L 2419 1625 
L 2419 4116 
z
M 2253 4666 
L 3047 4666 
L 3047 1625 
L 3713 1625 
L 3713 1100 
L 3047 1100 
L 3047 0 
L 2419 0 
L 2419 1100 
L 313 1100 
L 313 1709 
L 2253 4666 
z
" transform="scale(0.015625)"/>
       </defs>
       <use xlink:href="#DejaVuSans-2212"/>
       <use xlink:href="#DejaVuSans-34" transform="translate(83.789062 0)"/>
      </g>
     </g>
    </g>
    <g id="xtick_3">
     <g id="line2d_5">
      <path d="M 163.457917 275.9395 
L 163.457917 35.7555 
" clip-path="url(#pb0578157b0)" style="fill: none; stroke: #b0b0b0; stroke-opacity: 0.25; stroke-width: 0.8; stroke-linecap: square"/>
     </g>
     <g id="line2d_6">
      <g>
       <use xlink:href="#m74b688bc88" x="163.457917" y="275.9395" style="stroke: #000000; stroke-width: 0.8"/>
      </g>
     </g>
     <g id="text_3">
      <!-- −2 -->
      <g transform="translate(156.086823 290.537937) scale(0.1 -0.1)">
       <defs>
        <path id="DejaVuSans-32" d="M 1228 531 
L 3431 531 
L 3431 0 
L 469 0 
L 469 531 
Q 828 903 1448 1529 
Q 2069 2156 2228 2338 
Q 2531 2678 2651 2914 
Q 2772 3150 2772 3378 
Q 2772 3750 2511 3984 
Q 2250 4219 1831 4219 
Q 1534 4219 1204 4116 
Q 875 4013 500 3803 
L 500 4441 
Q 881 4594 1212 4672 
Q 1544 4750 1819 4750 
Q 2544 4750 2975 4387 
Q 3406 4025 3406 3419 
Q 3406 3131 3298 2873 
Q 3191 2616 2906 2266 
Q 2828 2175 2409 1742 
Q 1991 1309 1228 531 
z
" transform="scale(0.015625)"/>
       </defs>
       <use xlink:href="#DejaVuSans-2212"/>
       <use xlink:href="#DejaVuSans-32" transform="translate(83.789062 0)"/>
      </g>
     </g>
    </g>
    <g id="xtick_4">
     <g id="line2d_7">
      <path d="M 215.49125 275.9395 
L 215.49125 35.7555 
" clip-path="url(#pb0578157b0)" style="fill: none; stroke: #b0b0b0; stroke-opacity: 0.25; stroke-width: 0.8; stroke-linecap: square"/>
     </g>
     <g id="line2d_8">
      <g>
       <use xlink:href="#m74b688bc88" x="215.49125" y="275.9395" style="stroke: #000000; stroke-width: 0.8"/>
      </g>
     </g>
     <g id="text_4">
      <!-- 0 -->
      <g transform="translate(212.31 290.537937) scale(0.1 -0.1)">
       <defs>
        <path id="DejaVuSans-30" d="M 2034 4250 
Q 1547 4250 1301 3770 
Q 1056 3291 1056 2328 
Q 1056 1369 1301 889 
Q 1547 409 2034 409 
Q 2525 409 2770 889 
Q 3016 1369 3016 2328 
Q 3016 3291 2770 3770 
Q 2525 4250 2034 4250 
z
M 2034 4750 
Q 2819 4750 3233 4129 
Q 3647 3509 3647 2328 
Q 3647 1150 3233 529 
Q 2819 -91 2034 -91 
Q 1250 -91 836 529 
Q 422 1150 422 2328 
Q 422 3509 836 4129 
Q 1250 4750 2034 4750 
z
" transform="scale(0.015625)"/>
       </defs>
       <use xlink:href="#DejaVuSans-30"/>
      </g>
     </g>
    </g>
    <g id="xtick_5">
     <g id="line2d_9">
      <path d="M 267.524583 275.9395 
L 267.524583 35.7555 
" clip-path="url(#pb0578157b0)" style="fill: none; stroke: #b0b0b0; stroke-opacity: 0.25; stroke-width: 0.8; stroke-linecap: square"/>
     </g>
     <g id="line2d_10">
      <g>
       <use xlink:href="#m74b688bc88" x="267.524583" y="275.9395" style="stroke: #000000; stroke-width: 0.8"/>
      </g>
     </g>
     <g id="text_5">
      <!-- 2 -->
      <g transform="translate(264.343333 290.537937) scale(0.1 -0.1)">
       <use xlink:href="#DejaVuSans-32"/>
      </g>
     </g>
    </g>
    <g id="xtick_6">
     <g id="line2d_11">
      <path d="M 319.557917 275.9395 
L 319.557917 35.7555 
" clip-path="url(#pb0578157b0)" style="fill: none; stroke: #b0b0b0; stroke-opacity: 0.25; stroke-width: 0.8; stroke-linecap: square"/>
     </g>
     <g id="line2d_12">
      <g>
       <use xlink:href="#m74b688bc88" x="319.557917" y="275.9395" style="stroke: #000000; stroke-width: 0.8"/>
      </g>
     </g>
     <g id="text_6">
      <!-- 4 -->
      <g transform="translate(316.376667 290.537937) scale(0.1 -0.1)">
       <use xlink:href="#DejaVuSans-34"/>
      </g>
     </g>
    </g>
    <g id="xtick_7">
     <g id="line2d_13">
      <path d="M 371.59125 275.9395 
L 371.59125 35.7555 
" clip-path="url(#pb0578157b0)" style="fill: none; stroke: #b0b0b0; stroke-opacity: 0.25; stroke-width: 0.8; stroke-linecap: square"/>
     </g>
     <g id="line2d_14">
      <g>
       <use xlink:href="#m74b688bc88" x="371.59125" y="275.9395" style="stroke: #000000; stroke-width: 0.8"/>
      </g>
     </g>
     <g id="text_7">
      <!-- 6 -->
      <g transform="translate(368.41 290.537937) scale(0.1 -0.1)">
       <use xlink:href="#DejaVuSans-36"/>
      </g>
     </g>
    </g>
    <g id="text_8">
     <!-- z (log-odds) -->
     <g transform="translate(185.843594 304.216062) scale(0.1 -0.1)">
      <defs>
       <path id="DejaVuSans-7a" d="M 353 3500 
L 3084 3500 
L 3084 2975 
L 922 459 
L 3084 459 
L 3084 0 
L 275 0 
L 275 525 
L 2438 3041 
L 353 3041 
L 353 3500 
z
" transform="scale(0.015625)"/>
       <path id="DejaVuSans-20" transform="scale(0.015625)"/>
       <path id="DejaVuSans-28" d="M 1984 4856 
Q 1566 4138 1362 3434 
Q 1159 2731 1159 2009 
Q 1159 1288 1364 580 
Q 1569 -128 1984 -844 
L 1484 -844 
Q 1016 -109 783 600 
Q 550 1309 550 2009 
Q 550 2706 781 3412 
Q 1013 4119 1484 4856 
L 1984 4856 
z
" transform="scale(0.015625)"/>
       <path id="DejaVuSans-6c" d="M 603 4863 
L 1178 4863 
L 1178 0 
L 603 0 
L 603 4863 
z
" transform="scale(0.015625)"/>
       <path id="DejaVuSans-6f" d="M 1959 3097 
Q 1497 3097 1228 2736 
Q 959 2375 959 1747 
Q 959 1119 1226 758 
Q 1494 397 1959 397 
Q 2419 397 2687 759 
Q 2956 1122 2956 1747 
Q 2956 2369 2687 2733 
Q 2419 3097 1959 3097 
z
M 1959 3584 
Q 2709 3584 3137 3096 
Q 3566 2609 3566 1747 
Q 3566 888 3137 398 
Q 2709 -91 1959 -91 
Q 1206 -91 779 398 
Q 353 888 353 1747 
Q 353 2609 779 3096 
Q 1206 3584 1959 3584 
z
" transform="scale(0.015625)"/>
       <path id="DejaVuSans-67" d="M 2906 1791 
Q 2906 2416 2648 2759 
Q 2391 3103 1925 3103 
Q 1463 3103 1205 2759 
Q 947 2416 947 1791 
Q 947 1169 1205 825 
Q 1463 481 1925 481 
Q 2391 481 2648 825 
Q 2906 1169 2906 1791 
z
M 3481 434 
Q 3481 -459 3084 -895 
Q 2688 -1331 1869 -1331 
Q 1566 -1331 1297 -1286 
Q 1028 -1241 775 -1147 
L 775 -588 
Q 1028 -725 1275 -790 
Q 1522 -856 1778 -856 
Q 2344 -856 2625 -561 
Q 2906 -266 2906 331 
L 2906 616 
Q 2728 306 2450 153 
Q 2172 0 1784 0 
Q 1141 0 747 490 
Q 353 981 353 1791 
Q 353 2603 747 3093 
Q 1141 3584 1784 3584 
Q 2172 3584 2450 3431 
Q 2728 3278 2906 2969 
L 2906 3500 
L 3481 3500 
L 3481 434 
z
" transform="scale(0.015625)"/>
       <path id="DejaVuSans-2d" d="M 313 2009 
L 1997 2009 
L 1997 1497 
L 313 1497 
L 313 2009 
z
" transform="scale(0.015625)"/>
       <path id="DejaVuSans-64" d="M 2906 2969 
L 2906 4863 
L 3481 4863 
L 3481 0 
L 2906 0 
L 2906 525 
Q 2725 213 2448 61 
Q 2172 -91 1784 -91 
Q 1150 -91 751 415 
Q 353 922 353 1747 
Q 353 2572 751 3078 
Q 1150 3584 1784 3584 
Q 2172 3584 2448 3432 
Q 2725 3281 2906 2969 
z
M 947 1747 
Q 947 1113 1208 752 
Q 1469 391 1925 391 
Q 2381 391 2643 752 
Q 2906 1113 2906 1747 
Q 2906 2381 2643 2742 
Q 2381 3103 1925 3103 
Q 1469 3103 1208 2742 
Q 947 2381 947 1747 
z
" transform="scale(0.015625)"/>
       <path id="DejaVuSans-73" d="M 2834 3397 
L 2834 2853 
Q 2591 2978 2328 3040 
Q 2066 3103 1784 3103 
Q 1356 3103 1142 2972 
Q 928 2841 928 2578 
Q 928 2378 1081 2264 
Q 1234 2150 1697 2047 
L 1894 2003 
Q 2506 1872 2764 1633 
Q 3022 1394 3022 966 
Q 3022 478 2636 193 
Q 2250 -91 1575 -91 
Q 1294 -91 989 -36 
Q 684 19 347 128 
L 347 722 
Q 666 556 975 473 
Q 1284 391 1588 391 
Q 1994 391 2212 530 
Q 2431 669 2431 922 
Q 2431 1156 2273 1281 
Q 2116 1406 1581 1522 
L 1381 1569 
Q 847 1681 609 1914 
Q 372 2147 372 2553 
Q 372 3047 722 3315 
Q 1072 3584 1716 3584 
Q 2034 3584 2315 3537 
Q 2597 3491 2834 3397 
z
" transform="scale(0.015625)"/>
       <path id="DejaVuSans-29" d="M 513 4856 
L 1013 4856 
Q 1481 4119 1714 3412 
Q 1947 2706 1947 2009 
Q 1947 1309 1714 600 
Q 1481 -109 1013 -844 
L 513 -844 
Q 928 -128 1133 580 
Q 1338 1288 1338 2009 
Q 1338 2731 1133 3434 
Q 928 4138 513 4856 
z
" transform="scale(0.015625)"/>
      </defs>
      <use xlink:href="#DejaVuSans-7a"/>
      <use xlink:href="#DejaVuSans-20" transform="translate(52.490234 0)"/>
      <use xlink:href="#DejaVuSans-28" transform="translate(84.277344 0)"/>
      <use xlink:href="#DejaVuSans-6c" transform="translate(123.291016 0)"/>
      <use xlink:href="#DejaVuSans-6f" transform="translate(151.074219 0)"/>
      <use xlink:href="#DejaVuSans-67" transform="translate(212.255859 0)"/>
      <use xlink:href="#DejaVuSans-2d" transform="translate(275.732422 0)"/>
      <use xlink:href="#DejaVuSans-6f" transform="translate(313.691406 0)"/>
      <use xlink:href="#DejaVuSans-64" transform="translate(374.873047 0)"/>
      <use xlink:href="#DejaVuSans-64" transform="translate(438.349609 0)"/>
      <use xlink:href="#DejaVuSans-73" transform="translate(501.826172 0)"/>
      <use xlink:href="#DejaVuSans-29" transform="translate(553.925781 0)"/>
     </g>
    </g>
   </g>
   <g id="matplotlib.axis_2">
    <g id="ytick_1">
     <g id="line2d_15">
      <path d="M 43.78125 265.022045 
L 387.20125 265.022045 
" clip-path="url(#pb0578157b0)" style="fill: none; stroke: #b0b0b0; stroke-opacity: 0.25; stroke-width: 0.8; stroke-linecap: square"/>
     </g>
     <g id="line2d_16">
      <defs>
       <path id="md13fdab6f5" d="M 0 0 
L -3.5 0 
" style="stroke: #000000; stroke-width: 0.8"/>
      </defs>
      <g>
       <use xlink:href="#md13fdab6f5" x="43.78125" y="265.022045" style="stroke: #000000; stroke-width: 0.8"/>
      </g>
     </g>
     <g id="text_9">
      <!-- 0.0 -->
      <g transform="translate(20.878125 268.821264) scale(0.1 -0.1)">
       <defs>
        <path id="DejaVuSans-2e" d="M 684 794 
L 1344 794 
L 1344 0 
L 684 0 
L 684 794 
z
" transform="scale(0.015625)"/>
       </defs>
       <use xlink:href="#DejaVuSans-30"/>
       <use xlink:href="#DejaVuSans-2e" transform="translate(63.623047 0)"/>
       <use xlink:href="#DejaVuSans-30" transform="translate(95.410156 0)"/>
      </g>
     </g>
    </g>
    <g id="ytick_2">
     <g id="line2d_17">
      <path d="M 43.78125 221.352227 
L 387.20125 221.352227 
" clip-path="url(#pb0578157b0)" style="fill: none; stroke: #b0b0b0; stroke-opacity: 0.25; stroke-width: 0.8; stroke-linecap: square"/>
     </g>
     <g id="line2d_18">
      <g>
       <use xlink:href="#md13fdab6f5" x="43.78125" y="221.352227" style="stroke: #000000; stroke-width: 0.8"/>
      </g>
     </g>
     <g id="text_10">
      <!-- 0.2 -->
      <g transform="translate(20.878125 225.151446) scale(0.1 -0.1)">
       <use xlink:href="#DejaVuSans-30"/>
       <use xlink:href="#DejaVuSans-2e" transform="translate(63.623047 0)"/>
       <use xlink:href="#DejaVuSans-32" transform="translate(95.410156 0)"/>
      </g>
     </g>
    </g>
    <g id="ytick_3">
     <g id="line2d_19">
      <path d="M 43.78125 177.682409 
L 387.20125 177.682409 
" clip-path="url(#pb0578157b0)" style="fill: none; stroke: #b0b0b0; stroke-opacity: 0.25; stroke-width: 0.8; stroke-linecap: square"/>
     </g>
     <g id="line2d_20">
      <g>
       <use xlink:href="#md13fdab6f5" x="43.78125" y="177.682409" style="stroke: #000000; stroke-width: 0.8"/>
      </g>
     </g>
     <g id="text_11">
      <!-- 0.4 -->
      <g transform="translate(20.878125 181.481628) scale(0.1 -0.1)">
       <use xlink:href="#DejaVuSans-30"/>
       <use xlink:href="#DejaVuSans-2e" transform="translate(63.623047 0)"/>
       <use xlink:href="#DejaVuSans-34" transform="translate(95.410156 0)"/>
      </g>
     </g>
    </g>
    <g id="ytick_4">
     <g id="line2d_21">
      <path d="M 43.78125 134.012591 
L 387.20125 134.012591 
" clip-path="url(#pb0578157b0)" style="fill: none; stroke: #b0b0b0; stroke-opacity: 0.25; stroke-width: 0.8; stroke-linecap: square"/>
     </g>
     <g id="line2d_22">
      <g>
       <use xlink:href="#md13fdab6f5" x="43.78125" y="134.012591" style="stroke: #000000; stroke-width: 0.8"/>
      </g>
     </g>
     <g id="text_12">
      <!-- 0.6 -->
      <g transform="translate(20.878125 137.81181) scale(0.1 -0.1)">
       <use xlink:href="#DejaVuSans-30"/>
       <use xlink:href="#DejaVuSans-2e" transform="translate(63.623047 0)"/>
       <use xlink:href="#DejaVuSans-36" transform="translate(95.410156 0)"/>
      </g>
     </g>
    </g>
    <g id="ytick_5">
     <g id="line2d_23">
      <path d="M 43.78125 90.342773 
L 387.20125 90.342773 
" clip-path="url(#pb0578157b0)" style="fill: none; stroke: #b0b0b0; stroke-opacity: 0.25; stroke-width: 0.8; stroke-linecap: square"/>
     </g>
     <g id="line2d_24">
      <g>
       <use xlink:href="#md13fdab6f5" x="43.78125" y="90.342773" style="stroke: #000000; stroke-width: 0.8"/>
      </g>
     </g>
     <g id="text_13">
      <!-- 0.8 -->
      <g transform="translate(20.878125 94.141991) scale(0.1 -0.1)">
       <defs>
        <path id="DejaVuSans-38" d="M 2034 2216 
Q 1584 2216 1326 1975 
Q 1069 1734 1069 1313 
Q 1069 891 1326 650 
Q 1584 409 2034 409 
Q 2484 409 2743 651 
Q 3003 894 3003 1313 
Q 3003 1734 2745 1975 
Q 2488 2216 2034 2216 
z
M 1403 2484 
Q 997 2584 770 2862 
Q 544 3141 544 3541 
Q 544 4100 942 4425 
Q 1341 4750 2034 4750 
Q 2731 4750 3128 4425 
Q 3525 4100 3525 3541 
Q 3525 3141 3298 2862 
Q 3072 2584 2669 2484 
Q 3125 2378 3379 2068 
Q 3634 1759 3634 1313 
Q 3634 634 3220 271 
Q 2806 -91 2034 -91 
Q 1263 -91 848 271 
Q 434 634 434 1313 
Q 434 1759 690 2068 
Q 947 2378 1403 2484 
z
M 1172 3481 
Q 1172 3119 1398 2916 
Q 1625 2713 2034 2713 
Q 2441 2713 2670 2916 
Q 2900 3119 2900 3481 
Q 2900 3844 2670 4047 
Q 2441 4250 2034 4250 
Q 1625 4250 1398 4047 
Q 1172 3844 1172 3481 
z
" transform="scale(0.015625)"/>
       </defs>
       <use xlink:href="#DejaVuSans-30"/>
       <use xlink:href="#DejaVuSans-2e" transform="translate(63.623047 0)"/>
       <use xlink:href="#DejaVuSans-38" transform="translate(95.410156 0)"/>
      </g>
     </g>
    </g>
    <g id="ytick_6">
     <g id="line2d_25">
      <path d="M 43.78125 46.672955 
L 387.20125 46.672955 
" clip-path="url(#pb0578157b0)" style="fill: none; stroke: #b0b0b0; stroke-opacity: 0.25; stroke-width: 0.8; stroke-linecap: square"/>
     </g>
     <g id="line2d_26">
      <g>
       <use xlink:href="#md13fdab6f5" x="43.78125" y="46.672955" style="stroke: #000000; stroke-width: 0.8"/>
      </g>
     </g>
     <g id="text_14">
      <!-- 1.0 -->
      <g transform="translate(20.878125 50.472173) scale(0.1 -0.1)">
       <defs>
        <path id="DejaVuSans-31" d="M 794 531 
L 1825 531 
L 1825 4091 
L 703 3866 
L 703 4441 
L 1819 4666 
L 2450 4666 
L 2450 531 
L 3481 531 
L 3481 0 
L 794 0 
L 794 531 
z
" transform="scale(0.015625)"/>
       </defs>
       <use xlink:href="#DejaVuSans-31"/>
       <use xlink:href="#DejaVuSans-2e" transform="translate(63.623047 0)"/>
       <use xlink:href="#DejaVuSans-30" transform="translate(95.410156 0)"/>
      </g>
     </g>
    </g>
    <g id="text_15">
     <!-- p (probability) -->
     <g transform="translate(14.798438 191.188125) rotate(-90) scale(0.1 -0.1)">
      <defs>
       <path id="DejaVuSans-70" d="M 1159 525 
L 1159 -1331 
L 581 -1331 
L 581 3500 
L 1159 3500 
L 1159 2969 
Q 1341 3281 1617 3432 
Q 1894 3584 2278 3584 
Q 2916 3584 3314 3078 
Q 3713 2572 3713 1747 
Q 3713 922 3314 415 
Q 2916 -91 2278 -91 
Q 1894 -91 1617 61 
Q 1341 213 1159 525 
z
M 3116 1747 
Q 3116 2381 2855 2742 
Q 2594 3103 2138 3103 
Q 1681 3103 1420 2742 
Q 1159 2381 1159 1747 
Q 1159 1113 1420 752 
Q 1681 391 2138 391 
Q 2594 391 2855 752 
Q 3116 1113 3116 1747 
z
" transform="scale(0.015625)"/>
       <path id="DejaVuSans-72" d="M 2631 2963 
Q 2534 3019 2420 3045 
Q 2306 3072 2169 3072 
Q 1681 3072 1420 2755 
Q 1159 2438 1159 1844 
L 1159 0 
L 581 0 
L 581 3500 
L 1159 3500 
L 1159 2956 
Q 1341 3275 1631 3429 
Q 1922 3584 2338 3584 
Q 2397 3584 2469 3576 
Q 2541 3569 2628 3553 
L 2631 2963 
z
" transform="scale(0.015625)"/>
       <path id="DejaVuSans-62" d="M 3116 1747 
Q 3116 2381 2855 2742 
Q 2594 3103 2138 3103 
Q 1681 3103 1420 2742 
Q 1159 2381 1159 1747 
Q 1159 1113 1420 752 
Q 1681 391 2138 391 
Q 2594 391 2855 752 
Q 3116 1113 3116 1747 
z
M 1159 2969 
Q 1341 3281 1617 3432 
Q 1894 3584 2278 3584 
Q 2916 3584 3314 3078 
Q 3713 2572 3713 1747 
Q 3713 922 3314 415 
Q 2916 -91 2278 -91 
Q 1894 -91 1617 61 
Q 1341 213 1159 525 
L 1159 0 
L 581 0 
L 581 4863 
L 1159 4863 
L 1159 2969 
z
" transform="scale(0.015625)"/>
       <path id="DejaVuSans-61" d="M 2194 1759 
Q 1497 1759 1228 1600 
Q 959 1441 959 1056 
Q 959 750 1161 570 
Q 1363 391 1709 391 
Q 2188 391 2477 730 
Q 2766 1069 2766 1631 
L 2766 1759 
L 2194 1759 
z
M 3341 1997 
L 3341 0 
L 2766 0 
L 2766 531 
Q 2569 213 2275 61 
Q 1981 -91 1556 -91 
Q 1019 -91 701 211 
Q 384 513 384 1019 
Q 384 1609 779 1909 
Q 1175 2209 1959 2209 
L 2766 2209 
L 2766 2266 
Q 2766 2663 2505 2880 
Q 2244 3097 1772 3097 
Q 1472 3097 1187 3025 
Q 903 2953 641 2809 
L 641 3341 
Q 956 3463 1253 3523 
Q 1550 3584 1831 3584 
Q 2591 3584 2966 3190 
Q 3341 2797 3341 1997 
z
" transform="scale(0.015625)"/>
       <path id="DejaVuSans-69" d="M 603 3500 
L 1178 3500 
L 1178 0 
L 603 0 
L 603 3500 
z
M 603 4863 
L 1178 4863 
L 1178 4134 
L 603 4134 
L 603 4863 
z
" transform="scale(0.015625)"/>
       <path id="DejaVuSans-74" d="M 1172 4494 
L 1172 3500 
L 2356 3500 
L 2356 3053 
L 1172 3053 
L 1172 1153 
Q 1172 725 1289 603 
Q 1406 481 1766 481 
L 2356 481 
L 2356 0 
L 1766 0 
Q 1100 0 847 248 
Q 594 497 594 1153 
L 594 3053 
L 172 3053 
L 172 3500 
L 594 3500 
L 594 4494 
L 1172 4494 
z
" transform="scale(0.015625)"/>
       <path id="DejaVuSans-79" d="M 2059 -325 
Q 1816 -950 1584 -1140 
Q 1353 -1331 966 -1331 
L 506 -1331 
L 506 -850 
L 844 -850 
Q 1081 -850 1212 -737 
Q 1344 -625 1503 -206 
L 1606 56 
L 191 3500 
L 800 3500 
L 1894 763 
L 2988 3500 
L 3597 3500 
L 2059 -325 
z
" transform="scale(0.015625)"/>
      </defs>
      <use xlink:href="#DejaVuSans-70"/>
      <use xlink:href="#DejaVuSans-20" transform="translate(63.476562 0)"/>
      <use xlink:href="#DejaVuSans-28" transform="translate(95.263672 0)"/>
      <use xlink:href="#DejaVuSans-70" transform="translate(134.277344 0)"/>
      <use xlink:href="#DejaVuSans-72" transform="translate(197.753906 0)"/>
      <use xlink:href="#DejaVuSans-6f" transform="translate(236.617188 0)"/>
      <use xlink:href="#DejaVuSans-62" transform="translate(297.798828 0)"/>
      <use xlink:href="#DejaVuSans-61" transform="translate(361.275391 0)"/>
      <use xlink:href="#DejaVuSans-62" transform="translate(422.554688 0)"/>
      <use xlink:href="#DejaVuSans-69" transform="translate(486.03125 0)"/>
      <use xlink:href="#DejaVuSans-6c" transform="translate(513.814453 0)"/>
      <use xlink:href="#DejaVuSans-69" transform="translate(541.597656 0)"/>
      <use xlink:href="#DejaVuSans-74" transform="translate(569.380859 0)"/>
      <use xlink:href="#DejaVuSans-79" transform="translate(608.589844 0)"/>
      <use xlink:href="#DejaVuSans-29" transform="translate(667.769531 0)"/>
     </g>
    </g>
   </g>
   <g id="line2d_27">
    <path d="M 59.39125 264.48215 
L 74.257917 264.067821 
L 85.994759 263.527558 
L 95.384232 262.884378 
L 103.208794 262.144211 
L 110.250899 261.265025 
L 116.510548 260.265327 
L 121.987741 259.180516 
L 127.464934 257.856605 
L 132.159671 256.494924 
L 136.854408 254.886894 
L 140.766689 253.330316 
L 144.678969 251.550143 
L 148.59125 249.519256 
L 152.503531 247.208832 
L 156.415811 244.588763 
L 159.545636 242.249087 
L 162.675461 239.675819 
L 165.805285 236.85366 
L 168.93511 233.768154 
L 172.064934 230.406186 
L 175.194759 226.756538 
L 178.324583 222.8105 
L 181.454408 218.562519 
L 185.366689 212.825688 
L 189.278969 206.621152 
L 193.19125 199.967853 
L 197.103531 192.898365 
L 201.798268 183.932307 
L 207.275461 172.943748 
L 215.100022 156.668346 
L 225.271952 135.564295 
L 230.749145 124.720983 
L 235.443882 115.921568 
L 239.356162 109.013746 
L 243.268443 102.536826 
L 247.180724 96.517829 
L 251.093004 90.970541 
L 254.222829 86.874004 
L 257.352654 83.077068 
L 260.482478 79.57252 
L 263.612303 76.350317 
L 266.742127 73.39822 
L 269.871952 70.702377 
L 273.001776 68.247853 
L 276.914057 65.495322 
L 280.826338 63.064707 
L 284.738618 60.925546 
L 288.650899 59.048445 
L 292.56318 57.405562 
L 297.257917 55.706854 
L 301.952654 54.267175 
L 306.64739 53.049939 
L 312.124583 51.868122 
L 318.384232 50.778047 
L 324.643882 49.91322 
L 331.685987 49.153563 
L 340.293004 48.460569 
L 350.464934 47.885301 
L 362.984232 47.423825 
L 371.59125 47.21285 
L 371.59125 47.21285 
" clip-path="url(#pb0578157b0)" style="fill: none; stroke: #7aa6c2; stroke-width: 2; stroke-linecap: square"/>
   </g>
   <g id="line2d_28">
    <path d="M 43.78125 155.8475 
L 387.20125 155.8475 
" clip-path="url(#pb0578157b0)" style="fill: none; stroke-dasharray: 0.7,1.155; stroke-dashoffset: 0; stroke: #999999; stroke-width: 0.7"/>
   </g>
   <g id="line2d_29">
    <path d="M 215.49125 275.9395 
L 215.49125 35.7555 
" clip-path="url(#pb0578157b0)" style="fill: none; stroke-dasharray: 0.7,1.155; stroke-dashoffset: 0; stroke: #999999; stroke-width: 0.7"/>
   </g>
   <g id="patch_3">
    <path d="M 43.78125 275.9395 
L 43.78125 35.7555 
" style="fill: none; stroke: #000000; stroke-width: 0.8; stroke-linejoin: miter; stroke-linecap: square"/>
   </g>
   <g id="patch_4">
    <path d="M 387.20125 275.9395 
L 387.20125 35.7555 
" style="fill: none; stroke: #000000; stroke-width: 0.8; stroke-linejoin: miter; stroke-linecap: square"/>
   </g>
   <g id="patch_5">
    <path d="M 43.78125 275.9395 
L 387.20125 275.9395 
" style="fill: none; stroke: #000000; stroke-width: 0.8; stroke-linejoin: miter; stroke-linecap: square"/>
   </g>
   <g id="patch_6">
    <path d="M 43.78125 35.7555 
L 387.20125 35.7555 
" style="fill: none; stroke: #000000; stroke-width: 0.8; stroke-linejoin: miter; stroke-linecap: square"/>
   </g>
   <g id="text_16">
    <!-- Sigmoid: maps log-odds z to probability p -->
    <g transform="translate(90.464375 16.318125) scale(0.12 -0.12)">
     <defs>
      <path id="DejaVuSans-53" d="M 3425 4513 
L 3425 3897 
Q 3066 4069 2747 4153 
Q 2428 4238 2131 4238 
Q 1616 4238 1336 4038 
Q 1056 3838 1056 3469 
Q 1056 3159 1242 3001 
Q 1428 2844 1947 2747 
L 2328 2669 
Q 3034 2534 3370 2195 
Q 3706 1856 3706 1288 
Q 3706 609 3251 259 
Q 2797 -91 1919 -91 
Q 1588 -91 1214 -16 
Q 841 59 441 206 
L 441 856 
Q 825 641 1194 531 
Q 1563 422 1919 422 
Q 2459 422 2753 634 
Q 3047 847 3047 1241 
Q 3047 1584 2836 1778 
Q 2625 1972 2144 2069 
L 1759 2144 
Q 1053 2284 737 2584 
Q 422 2884 422 3419 
Q 422 4038 858 4394 
Q 1294 4750 2059 4750 
Q 2388 4750 2728 4690 
Q 3069 4631 3425 4513 
z
" transform="scale(0.015625)"/>
      <path id="DejaVuSans-6d" d="M 3328 2828 
Q 3544 3216 3844 3400 
Q 4144 3584 4550 3584 
Q 5097 3584 5394 3201 
Q 5691 2819 5691 2113 
L 5691 0 
L 5113 0 
L 5113 2094 
Q 5113 2597 4934 2840 
Q 4756 3084 4391 3084 
Q 3944 3084 3684 2787 
Q 3425 2491 3425 1978 
L 3425 0 
L 2847 0 
L 2847 2094 
Q 2847 2600 2669 2842 
Q 2491 3084 2119 3084 
Q 1678 3084 1418 2786 
Q 1159 2488 1159 1978 
L 1159 0 
L 581 0 
L 581 3500 
L 1159 3500 
L 1159 2956 
Q 1356 3278 1631 3431 
Q 1906 3584 2284 3584 
Q 2666 3584 2933 3390 
Q 3200 3197 3328 2828 
z
" transform="scale(0.015625)"/>
      <path id="DejaVuSans-3a" d="M 750 794 
L 1409 794 
L 1409 0 
L 750 0 
L 750 794 
z
M 750 3309 
L 1409 3309 
L 1409 2516 
L 750 2516 
L 750 3309 
z
" transform="scale(0.015625)"/>
     </defs>
     <use xlink:href="#DejaVuSans-53"/>
     <use xlink:href="#DejaVuSans-69" transform="translate(63.476562 0)"/>
     <use xlink:href="#DejaVuSans-67" transform="translate(91.259766 0)"/>
     <use xlink:href="#DejaVuSans-6d" transform="translate(154.736328 0)"/>
     <use xlink:href="#DejaVuSans-6f" transform="translate(252.148438 0)"/>
     <use xlink:href="#DejaVuSans-69" transform="translate(313.330078 0)"/>
     <use xlink:href="#DejaVuSans-64" transform="translate(341.113281 0)"/>
     <use xlink:href="#DejaVuSans-3a" transform="translate(404.589844 0)"/>
     <use xlink:href="#DejaVuSans-20" transform="translate(438.28125 0)"/>
     <use xlink:href="#DejaVuSans-6d" transform="translate(470.068359 0)"/>
     <use xlink:href="#DejaVuSans-61" transform="translate(567.480469 0)"/>
     <use xlink:href="#DejaVuSans-70" transform="translate(628.759766 0)"/>
     <use xlink:href="#DejaVuSans-73" transform="translate(692.236328 0)"/>
     <use xlink:href="#DejaVuSans-20" transform="translate(744.335938 0)"/>
     <use xlink:href="#DejaVuSans-6c" transform="translate(776.123047 0)"/>
     <use xlink:href="#DejaVuSans-6f" transform="translate(803.90625 0)"/>
     <use xlink:href="#DejaVuSans-67" transform="translate(865.087891 0)"/>
     <use xlink:href="#DejaVuSans-2d" transform="translate(928.564453 0)"/>
     <use xlink:href="#DejaVuSans-6f" transform="translate(966.523438 0)"/>
     <use xlink:href="#DejaVuSans-64" transform="translate(1027.705078 0)"/>
     <use xlink:href="#DejaVuSans-64" transform="translate(1091.181641 0)"/>
     <use xlink:href="#DejaVuSans-73" transform="translate(1154.658203 0)"/>
     <use xlink:href="#DejaVuSans-20" transform="translate(1206.757812 0)"/>
     <use xlink:href="#DejaVuSans-7a" transform="translate(1238.544922 0)"/>
     <use xlink:href="#DejaVuSans-20" transform="translate(1291.035156 0)"/>
     <use xlink:href="#DejaVuSans-74" transform="translate(1322.822266 0)"/>
     <use xlink:href="#DejaVuSans-6f" transform="translate(1362.03125 0)"/>
     <use xlink:href="#DejaVuSans-20" transform="translate(1423.212891 0)"/>
     <use xlink:href="#DejaVuSans-70" transform="translate(1455 0)"/>
     <use xlink:href="#DejaVuSans-72" transform="translate(1518.476562 0)"/>
     <use xlink:href="#DejaVuSans-6f" transform="translate(1557.339844 0)"/>
     <use xlink:href="#DejaVuSans-62" transform="translate(1618.521484 0)"/>
     <use xlink:href="#DejaVuSans-61" transform="translate(1681.998047 0)"/>
     <use xlink:href="#DejaVuSans-62" transform="translate(1743.277344 0)"/>
     <use xlink:href="#DejaVuSans-69" transform="translate(1806.753906 0)"/>
     <use xlink:href="#DejaVuSans-6c" transform="translate(1834.537109 0)"/>
     <use xlink:href="#DejaVuSans-69" transform="translate(1862.320312 0)"/>
     <use xlink:href="#DejaVuSans-74" transform="translate(1890.103516 0)"/>
     <use xlink:href="#DejaVuSans-79" transform="translate(1929.3125 0)"/>
     <use xlink:href="#DejaVuSans-20" transform="translate(1988.492188 0)"/>
     <use xlink:href="#DejaVuSans-70" transform="translate(2020.279297 0)"/>
    </g>
    <!-- p = 1 / (1 + exp(-z)) -->
    <g transform="translate(154.904375 29.7555) scale(0.12 -0.12)">
     <defs>
      <path id="DejaVuSans-3d" d="M 678 2906 
L 4684 2906 
L 4684 2381 
L 678 2381 
L 678 2906 
z
M 678 1631 
L 4684 1631 
L 4684 1100 
L 678 1100 
L 678 1631 
z
" transform="scale(0.015625)"/>
      <path id="DejaVuSans-2f" d="M 1625 4666 
L 2156 4666 
L 531 -594 
L 0 -594 
L 1625 4666 
z
" transform="scale(0.015625)"/>
      <path id="DejaVuSans-2b" d="M 2944 4013 
L 2944 2272 
L 4684 2272 
L 4684 1741 
L 2944 1741 
L 2944 0 
L 2419 0 
L 2419 1741 
L 678 1741 
L 678 2272 
L 2419 2272 
L 2419 4013 
L 2944 4013 
z
" transform="scale(0.015625)"/>
      <path id="DejaVuSans-65" d="M 3597 1894 
L 3597 1613 
L 953 1613 
Q 991 1019 1311 708 
Q 1631 397 2203 397 
Q 2534 397 2845 478 
Q 3156 559 3463 722 
L 3463 178 
Q 3153 47 2828 -22 
Q 2503 -91 2169 -91 
Q 1331 -91 842 396 
Q 353 884 353 1716 
Q 353 2575 817 3079 
Q 1281 3584 2069 3584 
Q 2775 3584 3186 3129 
Q 3597 2675 3597 1894 
z
M 3022 2063 
Q 3016 2534 2758 2815 
Q 2500 3097 2075 3097 
Q 1594 3097 1305 2825 
Q 1016 2553 972 2059 
L 3022 2063 
z
" transform="scale(0.015625)"/>
      <path id="DejaVuSans-78" d="M 3513 3500 
L 2247 1797 
L 3578 0 
L 2900 0 
L 1881 1375 
L 863 0 
L 184 0 
L 1544 1831 
L 300 3500 
L 978 3500 
L 1906 2253 
L 2834 3500 
L 3513 3500 
z
" transform="scale(0.015625)"/>
     </defs>
     <use xlink:href="#DejaVuSans-70"/>
     <use xlink:href="#DejaVuSans-20" transform="translate(63.476562 0)"/>
     <use xlink:href="#DejaVuSans-3d" transform="translate(95.263672 0)"/>
     <use xlink:href="#DejaVuSans-20" transform="translate(179.052734 0)"/>
     <use xlink:href="#DejaVuSans-31" transform="translate(210.839844 0)"/>
     <use xlink:href="#DejaVuSans-20" transform="translate(274.462891 0)"/>
     <use xlink:href="#DejaVuSans-2f" transform="translate(306.25 0)"/>
     <use xlink:href="#DejaVuSans-20" transform="translate(339.941406 0)"/>
     <use xlink:href="#DejaVuSans-28" transform="translate(371.728516 0)"/>
     <use xlink:href="#DejaVuSans-31" transform="translate(410.742188 0)"/>
     <use xlink:href="#DejaVuSans-20" transform="translate(474.365234 0)"/>
     <use xlink:href="#DejaVuSans-2b" transform="translate(506.152344 0)"/>
     <use xlink:href="#DejaVuSans-20" transform="translate(589.941406 0)"/>
     <use xlink:href="#DejaVuSans-65" transform="translate(621.728516 0)"/>
     <use xlink:href="#DejaVuSans-78" transform="translate(681.501953 0)"/>
     <use xlink:href="#DejaVuSans-70" transform="translate(740.681641 0)"/>
     <use xlink:href="#DejaVuSans-28" transform="translate(804.158203 0)"/>
     <use xlink:href="#DejaVuSans-2d" transform="translate(843.171875 0)"/>
     <use xlink:href="#DejaVuSans-7a" transform="translate(879.255859 0)"/>
     <use xlink:href="#DejaVuSans-29" transform="translate(931.746094 0)"/>
     <use xlink:href="#DejaVuSans-29" transform="translate(970.759766 0)"/>
    </g>
   </g>
  </g>
  <g id="axes_2">
   <g id="patch_7">
    <path d="M 433.84125 275.9395 
L 777.26125 275.9395 
L 777.26125 35.7555 
L 433.84125 35.7555 
z
" style="fill: #ffffff"/>
   </g>
   <g id="matplotlib.axis_3">
    <g id="xtick_8">
     <g id="line2d_30">
      <path d="M 449.138424 275.9395 
L 449.138424 35.7555 
" clip-path="url(#pccc0f272ac)" style="fill: none; stroke: #b0b0b0; stroke-opacity: 0.25; stroke-width: 0.8; stroke-linecap: square"/>
     </g>
     <g id="line2d_31">
      <g>
       <use xlink:href="#m74b688bc88" x="449.138424" y="275.9395" style="stroke: #000000; stroke-width: 0.8"/>
      </g>
     </g>
     <g id="text_17">
      <!-- 0.0 -->
      <g transform="translate(441.186862 290.537937) scale(0.1 -0.1)">
       <use xlink:href="#DejaVuSans-30"/>
       <use xlink:href="#DejaVuSans-2e" transform="translate(63.623047 0)"/>
       <use xlink:href="#DejaVuSans-30" transform="translate(95.410156 0)"/>
      </g>
     </g>
    </g>
    <g id="xtick_9">
     <g id="line2d_32">
      <path d="M 511.703555 275.9395 
L 511.703555 35.7555 
" clip-path="url(#pccc0f272ac)" style="fill: none; stroke: #b0b0b0; stroke-opacity: 0.25; stroke-width: 0.8; stroke-linecap: square"/>
     </g>
     <g id="line2d_33">
      <g>
       <use xlink:href="#m74b688bc88" x="511.703555" y="275.9395" style="stroke: #000000; stroke-width: 0.8"/>
      </g>
     </g>
     <g id="text_18">
      <!-- 0.2 -->
      <g transform="translate(503.751992 290.537937) scale(0.1 -0.1)">
       <use xlink:href="#DejaVuSans-30"/>
       <use xlink:href="#DejaVuSans-2e" transform="translate(63.623047 0)"/>
       <use xlink:href="#DejaVuSans-32" transform="translate(95.410156 0)"/>
      </g>
     </g>
    </g>
    <g id="xtick_10">
     <g id="line2d_34">
      <path d="M 574.268685 275.9395 
L 574.268685 35.7555 
" clip-path="url(#pccc0f272ac)" style="fill: none; stroke: #b0b0b0; stroke-opacity: 0.25; stroke-width: 0.8; stroke-linecap: square"/>
     </g>
     <g id="line2d_35">
      <g>
       <use xlink:href="#m74b688bc88" x="574.268685" y="275.9395" style="stroke: #000000; stroke-width: 0.8"/>
      </g>
     </g>
     <g id="text_19">
      <!-- 0.4 -->
      <g transform="translate(566.317122 290.537937) scale(0.1 -0.1)">
       <use xlink:href="#DejaVuSans-30"/>
       <use xlink:href="#DejaVuSans-2e" transform="translate(63.623047 0)"/>
       <use xlink:href="#DejaVuSans-34" transform="translate(95.410156 0)"/>
      </g>
     </g>
    </g>
    <g id="xtick_11">
     <g id="line2d_36">
      <path d="M 636.833815 275.9395 
L 636.833815 35.7555 
" clip-path="url(#pccc0f272ac)" style="fill: none; stroke: #b0b0b0; stroke-opacity: 0.25; stroke-width: 0.8; stroke-linecap: square"/>
     </g>
     <g id="line2d_37">
      <g>
       <use xlink:href="#m74b688bc88" x="636.833815" y="275.9395" style="stroke: #000000; stroke-width: 0.8"/>
      </g>
     </g>
     <g id="text_20">
      <!-- 0.6 -->
      <g transform="translate(628.882253 290.537937) scale(0.1 -0.1)">
       <use xlink:href="#DejaVuSans-30"/>
       <use xlink:href="#DejaVuSans-2e" transform="translate(63.623047 0)"/>
       <use xlink:href="#DejaVuSans-36" transform="translate(95.410156 0)"/>
      </g>
     </g>
    </g>
    <g id="xtick_12">
     <g id="line2d_38">
      <path d="M 699.398945 275.9395 
L 699.398945 35.7555 
" clip-path="url(#pccc0f272ac)" style="fill: none; stroke: #b0b0b0; stroke-opacity: 0.25; stroke-width: 0.8; stroke-linecap: square"/>
     </g>
     <g id="line2d_39">
      <g>
       <use xlink:href="#m74b688bc88" x="699.398945" y="275.9395" style="stroke: #000000; stroke-width: 0.8"/>
      </g>
     </g>
     <g id="text_21">
      <!-- 0.8 -->
      <g transform="translate(691.447383 290.537937) scale(0.1 -0.1)">
       <use xlink:href="#DejaVuSans-30"/>
       <use xlink:href="#DejaVuSans-2e" transform="translate(63.623047 0)"/>
       <use xlink:href="#DejaVuSans-38" transform="translate(95.410156 0)"/>
      </g>
     </g>
    </g>
    <g id="xtick_13">
     <g id="line2d_40">
      <path d="M 761.964076 275.9395 
L 761.964076 35.7555 
" clip-path="url(#pccc0f272ac)" style="fill: none; stroke: #b0b0b0; stroke-opacity: 0.25; stroke-width: 0.8; stroke-linecap: square"/>
     </g>
     <g id="line2d_41">
      <g>
       <use xlink:href="#m74b688bc88" x="761.964076" y="275.9395" style="stroke: #000000; stroke-width: 0.8"/>
      </g>
     </g>
     <g id="text_22">
      <!-- 1.0 -->
      <g transform="translate(754.012513 290.537937) scale(0.1 -0.1)">
       <use xlink:href="#DejaVuSans-31"/>
       <use xlink:href="#DejaVuSans-2e" transform="translate(63.623047 0)"/>
       <use xlink:href="#DejaVuSans-30" transform="translate(95.410156 0)"/>
      </g>
     </g>
    </g>
    <g id="text_23">
     <!-- p (probability) -->
     <g transform="translate(570.210625 304.216062) scale(0.1 -0.1)">
      <use xlink:href="#DejaVuSans-70"/>
      <use xlink:href="#DejaVuSans-20" transform="translate(63.476562 0)"/>
      <use xlink:href="#DejaVuSans-28" transform="translate(95.263672 0)"/>
      <use xlink:href="#DejaVuSans-70" transform="translate(134.277344 0)"/>
      <use xlink:href="#DejaVuSans-72" transform="translate(197.753906 0)"/>
      <use xlink:href="#DejaVuSans-6f" transform="translate(236.617188 0)"/>
      <use xlink:href="#DejaVuSans-62" transform="translate(297.798828 0)"/>
      <use xlink:href="#DejaVuSans-61" transform="translate(361.275391 0)"/>
      <use xlink:href="#DejaVuSans-62" transform="translate(422.554688 0)"/>
      <use xlink:href="#DejaVuSans-69" transform="translate(486.03125 0)"/>
      <use xlink:href="#DejaVuSans-6c" transform="translate(513.814453 0)"/>
      <use xlink:href="#DejaVuSans-69" transform="translate(541.597656 0)"/>
      <use xlink:href="#DejaVuSans-74" transform="translate(569.380859 0)"/>
      <use xlink:href="#DejaVuSans-79" transform="translate(608.589844 0)"/>
      <use xlink:href="#DejaVuSans-29" transform="translate(667.769531 0)"/>
     </g>
    </g>
   </g>
   <g id="matplotlib.axis_4">
    <g id="ytick_7">
     <g id="line2d_42">
      <path d="M 433.84125 258.7835 
L 777.26125 258.7835 
" clip-path="url(#pccc0f272ac)" style="fill: none; stroke: #b0b0b0; stroke-opacity: 0.25; stroke-width: 0.8; stroke-linecap: square"/>
     </g>
     <g id="line2d_43">
      <g>
       <use xlink:href="#md13fdab6f5" x="433.84125" y="258.7835" style="stroke: #000000; stroke-width: 0.8"/>
      </g>
     </g>
     <g id="text_24">
      <!-- −6 -->
      <g transform="translate(412.099063 262.582719) scale(0.1 -0.1)">
       <use xlink:href="#DejaVuSans-2212"/>
       <use xlink:href="#DejaVuSans-36" transform="translate(83.789062 0)"/>
      </g>
     </g>
    </g>
    <g id="ytick_8">
     <g id="line2d_44">
      <path d="M 433.84125 224.4715 
L 777.26125 224.4715 
" clip-path="url(#pccc0f272ac)" style="fill: none; stroke: #b0b0b0; stroke-opacity: 0.25; stroke-width: 0.8; stroke-linecap: square"/>
     </g>
     <g id="line2d_45">
      <g>
       <use xlink:href="#md13fdab6f5" x="433.84125" y="224.4715" style="stroke: #000000; stroke-width: 0.8"/>
      </g>
     </g>
     <g id="text_25">
      <!-- −4 -->
      <g transform="translate(412.099063 228.270719) scale(0.1 -0.1)">
       <use xlink:href="#DejaVuSans-2212"/>
       <use xlink:href="#DejaVuSans-34" transform="translate(83.789062 0)"/>
      </g>
     </g>
    </g>
    <g id="ytick_9">
     <g id="line2d_46">
      <path d="M 433.84125 190.1595 
L 777.26125 190.1595 
" clip-path="url(#pccc0f272ac)" style="fill: none; stroke: #b0b0b0; stroke-opacity: 0.25; stroke-width: 0.8; stroke-linecap: square"/>
     </g>
     <g id="line2d_47">
      <g>
       <use xlink:href="#md13fdab6f5" x="433.84125" y="190.1595" style="stroke: #000000; stroke-width: 0.8"/>
      </g>
     </g>
     <g id="text_26">
      <!-- −2 -->
      <g transform="translate(412.099063 193.958719) scale(0.1 -0.1)">
       <use xlink:href="#DejaVuSans-2212"/>
       <use xlink:href="#DejaVuSans-32" transform="translate(83.789062 0)"/>
      </g>
     </g>
    </g>
    <g id="ytick_10">
     <g id="line2d_48">
      <path d="M 433.84125 155.8475 
L 777.26125 155.8475 
" clip-path="url(#pccc0f272ac)" style="fill: none; stroke: #b0b0b0; stroke-opacity: 0.25; stroke-width: 0.8; stroke-linecap: square"/>
     </g>
     <g id="line2d_49">
      <g>
       <use xlink:href="#md13fdab6f5" x="433.84125" y="155.8475" style="stroke: #000000; stroke-width: 0.8"/>
      </g>
     </g>
     <g id="text_27">
      <!-- 0 -->
      <g transform="translate(420.47875 159.646719) scale(0.1 -0.1)">
       <use xlink:href="#DejaVuSans-30"/>
      </g>
     </g>
    </g>
    <g id="ytick_11">
     <g id="line2d_50">
      <path d="M 433.84125 121.5355 
L 777.26125 121.5355 
" clip-path="url(#pccc0f272ac)" style="fill: none; stroke: #b0b0b0; stroke-opacity: 0.25; stroke-width: 0.8; stroke-linecap: square"/>
     </g>
     <g id="line2d_51">
      <g>
       <use xlink:href="#md13fdab6f5" x="433.84125" y="121.5355" style="stroke: #000000; stroke-width: 0.8"/>
      </g>
     </g>
     <g id="text_28">
      <!-- 2 -->
      <g transform="translate(420.47875 125.334719) scale(0.1 -0.1)">
       <use xlink:href="#DejaVuSans-32"/>
      </g>
     </g>
    </g>
    <g id="ytick_12">
     <g id="line2d_52">
      <path d="M 433.84125 87.2235 
L 777.26125 87.2235 
" clip-path="url(#pccc0f272ac)" style="fill: none; stroke: #b0b0b0; stroke-opacity: 0.25; stroke-width: 0.8; stroke-linecap: square"/>
     </g>
     <g id="line2d_53">
      <g>
       <use xlink:href="#md13fdab6f5" x="433.84125" y="87.2235" style="stroke: #000000; stroke-width: 0.8"/>
      </g>
     </g>
     <g id="text_29">
      <!-- 4 -->
      <g transform="translate(420.47875 91.022719) scale(0.1 -0.1)">
       <use xlink:href="#DejaVuSans-34"/>
      </g>
     </g>
    </g>
    <g id="ytick_13">
     <g id="line2d_54">
      <path d="M 433.84125 52.9115 
L 777.26125 52.9115 
" clip-path="url(#pccc0f272ac)" style="fill: none; stroke: #b0b0b0; stroke-opacity: 0.25; stroke-width: 0.8; stroke-linecap: square"/>
     </g>
     <g id="line2d_55">
      <g>
       <use xlink:href="#md13fdab6f5" x="433.84125" y="52.9115" style="stroke: #000000; stroke-width: 0.8"/>
      </g>
     </g>
     <g id="text_30">
      <!-- 6 -->
      <g transform="translate(420.47875 56.710719) scale(0.1 -0.1)">
       <use xlink:href="#DejaVuSans-36"/>
      </g>
     </g>
    </g>
    <g id="text_31">
     <!-- z (log-odds) -->
     <g transform="translate(406.019375 185.495156) rotate(-90) scale(0.1 -0.1)">
      <use xlink:href="#DejaVuSans-7a"/>
      <use xlink:href="#DejaVuSans-20" transform="translate(52.490234 0)"/>
      <use xlink:href="#DejaVuSans-28" transform="translate(84.277344 0)"/>
      <use xlink:href="#DejaVuSans-6c" transform="translate(123.291016 0)"/>
      <use xlink:href="#DejaVuSans-6f" transform="translate(151.074219 0)"/>
      <use xlink:href="#DejaVuSans-67" transform="translate(212.255859 0)"/>
      <use xlink:href="#DejaVuSans-2d" transform="translate(275.732422 0)"/>
      <use xlink:href="#DejaVuSans-6f" transform="translate(313.691406 0)"/>
      <use xlink:href="#DejaVuSans-64" transform="translate(374.873047 0)"/>
      <use xlink:href="#DejaVuSans-64" transform="translate(438.349609 0)"/>
      <use xlink:href="#DejaVuSans-73" transform="translate(501.826172 0)"/>
      <use xlink:href="#DejaVuSans-29" transform="translate(553.925781 0)"/>
     </g>
    </g>
   </g>
   <g id="line2d_56">
    <path d="M 449.45125 274.339785 
L 450.233706 252.798234 
L 451.016162 243.50707 
L 451.798618 237.487874 
L 452.581075 233.020994 
L 453.363531 229.463952 
L 454.928443 223.97103 
L 456.493355 219.779042 
L 458.058268 216.381407 
L 459.62318 213.519673 
L 461.188092 211.04399 
L 463.535461 207.856058 
L 465.882829 205.129307 
L 468.230197 202.741996 
L 471.360022 199.953809 
L 474.489846 197.507387 
L 477.619671 195.322432 
L 481.531952 192.876549 
L 485.444232 190.67941 
L 490.138969 188.299335 
L 495.616162 185.798959 
L 501.875811 183.223268 
L 508.917917 180.602051 
L 516.742478 177.952909 
L 525.349496 175.283976 
L 535.521425 172.380751 
L 547.258268 169.282006 
L 560.560022 166.003713 
L 577.774057 162.006231 
L 603.59511 156.276637 
L 638.805636 148.43955 
L 656.019671 144.366182 
L 669.321425 140.995389 
L 680.275811 138.003511 
L 689.665285 135.22557 
L 698.272303 132.447831 
L 705.314408 129.959464 
L 711.574057 127.53645 
L 717.05125 125.207943 
L 722.528443 122.629545 
L 727.22318 120.162876 
L 731.135461 117.873496 
L 735.047741 115.308878 
L 738.177566 113.001359 
L 741.30739 110.396225 
L 743.654759 108.189429 
L 746.002127 105.699389 
L 748.349496 102.835323 
L 749.914408 100.65101 
L 751.47932 98.175327 
L 753.044232 95.313593 
L 754.609145 91.915958 
L 756.174057 87.72397 
L 756.956513 85.189489 
L 757.738969 82.231048 
L 758.521425 78.674006 
L 759.303882 74.207126 
L 760.086338 68.18793 
L 760.868794 58.896766 
L 761.65125 37.355215 
L 761.65125 37.355215 
" clip-path="url(#pccc0f272ac)" style="fill: none; stroke: #e15759; stroke-width: 2; stroke-linecap: square"/>
   </g>
   <g id="line2d_57">
    <path d="M 433.84125 155.8475 
L 777.26125 155.8475 
" clip-path="url(#pccc0f272ac)" style="fill: none; stroke-dasharray: 0.7,1.155; stroke-dashoffset: 0; stroke: #999999; stroke-width: 0.7"/>
   </g>
   <g id="line2d_58">
    <path d="M 605.55125 275.9395 
L 605.55125 35.7555 
" clip-path="url(#pccc0f272ac)" style="fill: none; stroke-dasharray: 0.7,1.155; stroke-dashoffset: 0; stroke: #999999; stroke-width: 0.7"/>
   </g>
   <g id="patch_8">
    <path d="M 433.84125 275.9395 
L 433.84125 35.7555 
" style="fill: none; stroke: #000000; stroke-width: 0.8; stroke-linejoin: miter; stroke-linecap: square"/>
   </g>
   <g id="patch_9">
    <path d="M 777.26125 275.9395 
L 777.26125 35.7555 
" style="fill: none; stroke: #000000; stroke-width: 0.8; stroke-linejoin: miter; stroke-linecap: square"/>
   </g>
   <g id="patch_10">
    <path d="M 433.84125 275.9395 
L 777.26125 275.9395 
" style="fill: none; stroke: #000000; stroke-width: 0.8; stroke-linejoin: miter; stroke-linecap: square"/>
   </g>
   <g id="patch_11">
    <path d="M 433.84125 35.7555 
L 777.26125 35.7555 
" style="fill: none; stroke: #000000; stroke-width: 0.8; stroke-linejoin: miter; stroke-linecap: square"/>
   </g>
   <g id="text_32">
    <!-- Logit: maps probability p back to log-odds -->
    <g transform="translate(478.953125 16.318125) scale(0.12 -0.12)">
     <defs>
      <path id="DejaVuSans-4c" d="M 628 4666 
L 1259 4666 
L 1259 531 
L 3531 531 
L 3531 0 
L 628 0 
L 628 4666 
z
" transform="scale(0.015625)"/>
      <path id="DejaVuSans-63" d="M 3122 3366 
L 3122 2828 
Q 2878 2963 2633 3030 
Q 2388 3097 2138 3097 
Q 1578 3097 1268 2742 
Q 959 2388 959 1747 
Q 959 1106 1268 751 
Q 1578 397 2138 397 
Q 2388 397 2633 464 
Q 2878 531 3122 666 
L 3122 134 
Q 2881 22 2623 -34 
Q 2366 -91 2075 -91 
Q 1284 -91 818 406 
Q 353 903 353 1747 
Q 353 2603 823 3093 
Q 1294 3584 2113 3584 
Q 2378 3584 2631 3529 
Q 2884 3475 3122 3366 
z
" transform="scale(0.015625)"/>
      <path id="DejaVuSans-6b" d="M 581 4863 
L 1159 4863 
L 1159 1991 
L 2875 3500 
L 3609 3500 
L 1753 1863 
L 3688 0 
L 2938 0 
L 1159 1709 
L 1159 0 
L 581 0 
L 581 4863 
z
" transform="scale(0.015625)"/>
     </defs>
     <use xlink:href="#DejaVuSans-4c"/>
     <use xlink:href="#DejaVuSans-6f" transform="translate(53.962891 0)"/>
     <use xlink:href="#DejaVuSans-67" transform="translate(115.144531 0)"/>
     <use xlink:href="#DejaVuSans-69" transform="translate(178.621094 0)"/>
     <use xlink:href="#DejaVuSans-74" transform="translate(206.404297 0)"/>
     <use xlink:href="#DejaVuSans-3a" transform="translate(245.613281 0)"/>
     <use xlink:href="#DejaVuSans-20" transform="translate(279.304688 0)"/>
     <use xlink:href="#DejaVuSans-6d" transform="translate(311.091797 0)"/>
     <use xlink:href="#DejaVuSans-61" transform="translate(408.503906 0)"/>
     <use xlink:href="#DejaVuSans-70" transform="translate(469.783203 0)"/>
     <use xlink:href="#DejaVuSans-73" transform="translate(533.259766 0)"/>
     <use xlink:href="#DejaVuSans-20" transform="translate(585.359375 0)"/>
     <use xlink:href="#DejaVuSans-70" transform="translate(617.146484 0)"/>
     <use xlink:href="#DejaVuSans-72" transform="translate(680.623047 0)"/>
     <use xlink:href="#DejaVuSans-6f" transform="translate(719.486328 0)"/>
     <use xlink:href="#DejaVuSans-62" transform="translate(780.667969 0)"/>
     <use xlink:href="#DejaVuSans-61" transform="translate(844.144531 0)"/>
     <use xlink:href="#DejaVuSans-62" transform="translate(905.423828 0)"/>
     <use xlink:href="#DejaVuSans-69" transform="translate(968.900391 0)"/>
     <use xlink:href="#DejaVuSans-6c" transform="translate(996.683594 0)"/>
     <use xlink:href="#DejaVuSans-69" transform="translate(1024.466797 0)"/>
     <use xlink:href="#DejaVuSans-74" transform="translate(1052.25 0)"/>
     <use xlink:href="#DejaVuSans-79" transform="translate(1091.458984 0)"/>
     <use xlink:href="#DejaVuSans-20" transform="translate(1150.638672 0)"/>
     <use xlink:href="#DejaVuSans-70" transform="translate(1182.425781 0)"/>
     <use xlink:href="#DejaVuSans-20" transform="translate(1245.902344 0)"/>
     <use xlink:href="#DejaVuSans-62" transform="translate(1277.689453 0)"/>
     <use xlink:href="#DejaVuSans-61" transform="translate(1341.166016 0)"/>
     <use xlink:href="#DejaVuSans-63" transform="translate(1402.445312 0)"/>
     <use xlink:href="#DejaVuSans-6b" transform="translate(1457.425781 0)"/>
     <use xlink:href="#DejaVuSans-20" transform="translate(1515.335938 0)"/>
     <use xlink:href="#DejaVuSans-74" transform="translate(1547.123047 0)"/>
     <use xlink:href="#DejaVuSans-6f" transform="translate(1586.332031 0)"/>
     <use xlink:href="#DejaVuSans-20" transform="translate(1647.513672 0)"/>
     <use xlink:href="#DejaVuSans-6c" transform="translate(1679.300781 0)"/>
     <use xlink:href="#DejaVuSans-6f" transform="translate(1707.083984 0)"/>
     <use xlink:href="#DejaVuSans-67" transform="translate(1768.265625 0)"/>
     <use xlink:href="#DejaVuSans-2d" transform="translate(1831.742188 0)"/>
     <use xlink:href="#DejaVuSans-6f" transform="translate(1869.701172 0)"/>
     <use xlink:href="#DejaVuSans-64" transform="translate(1930.882812 0)"/>
     <use xlink:href="#DejaVuSans-64" transform="translate(1994.359375 0)"/>
     <use xlink:href="#DejaVuSans-73" transform="translate(2057.835938 0)"/>
    </g>
    <!-- z = log(p / (1 - p)) -->
    <g transform="translate(551.800625 29.7555) scale(0.12 -0.12)">
     <use xlink:href="#DejaVuSans-7a"/>
     <use xlink:href="#DejaVuSans-20" transform="translate(52.490234 0)"/>
     <use xlink:href="#DejaVuSans-3d" transform="translate(84.277344 0)"/>
     <use xlink:href="#DejaVuSans-20" transform="translate(168.066406 0)"/>
     <use xlink:href="#DejaVuSans-6c" transform="translate(199.853516 0)"/>
     <use xlink:href="#DejaVuSans-6f" transform="translate(227.636719 0)"/>
     <use xlink:href="#DejaVuSans-67" transform="translate(288.818359 0)"/>
     <use xlink:href="#DejaVuSans-28" transform="translate(352.294922 0)"/>
     <use xlink:href="#DejaVuSans-70" transform="translate(391.308594 0)"/>
     <use xlink:href="#DejaVuSans-20" transform="translate(454.785156 0)"/>
     <use xlink:href="#DejaVuSans-2f" transform="translate(486.572266 0)"/>
     <use xlink:href="#DejaVuSans-20" transform="translate(520.263672 0)"/>
     <use xlink:href="#DejaVuSans-28" transform="translate(552.050781 0)"/>
     <use xlink:href="#DejaVuSans-31" transform="translate(591.064453 0)"/>
     <use xlink:href="#DejaVuSans-20" transform="translate(654.6875 0)"/>
     <use xlink:href="#DejaVuSans-2d" transform="translate(686.474609 0)"/>
     <use xlink:href="#DejaVuSans-20" transform="translate(722.558594 0)"/>
     <use xlink:href="#DejaVuSans-70" transform="translate(754.345703 0)"/>
     <use xlink:href="#DejaVuSans-29" transform="translate(817.822266 0)"/>
     <use xlink:href="#DejaVuSans-29" transform="translate(856.835938 0)"/>
    </g>
   </g>
  </g>
 </g>
 <defs>
  <clipPath id="pb0578157b0">
   <rect x="43.78125" y="35.7555" width="343.42" height="240.184"/>
  </clipPath>
  <clipPath id="pccc0f272ac">
   <rect x="433.84125" y="35.7555" width="343.42" height="240.184"/>
  </clipPath>
 </defs>
</svg>
