<?xml version="1.0" encoding="utf-8" standalone="no"?>
<!DOCTYPE svg PUBLIC "-//W3C//DTD SVG 1.1//EN"
  "http://www.w3.org/Graphics/SVG/1.1/DTD/svg11.dtd">
<svg xmlns:xlink="http://www.w3.org/1999/xlink" width="928.470937pt" height="279.674688pt" viewBox="0 0 928.470937 279.674688" xmlns="http://www.w3.org/2000/svg" version="1.1">
 <metadata>
  <rdf:RDF xmlns:dc="http://purl.org/dc/elements/1.1/" xmlns:cc="http://creativecommons.org/ns#" xmlns:rdf="http://www.w3.org/1999/02/22-rdf-syntax-ns#">
   <cc:Work>
    <dc:type rdf:resource="http://purl.org/dc/dcmitype/StillImage"/>
    <dc:date>2026-05-26T10:41:48.138106</dc:date>
    <dc:format>image/svg+xml</dc:format>
    <dc:creator>
     <cc:Agent>
      <dc:title>Matplotlib v3.10.8, https://matplotlib.org/</dc:title>
     </cc:Agent>
    </dc:creator>
   </cc:Work>
  </rdf:RDF>
 </metadata>
 <defs>
  <style type="text/css">*{stroke-linejoin: round; stroke-linecap: butt}</style>
 </defs>
 <g id="figure_1">
  <g id="patch_1">
   <path d="M 0 279.674688 
L 928.470937 279.674688 
L 928.470937 0 
L 0 0 
z
" style="fill: #ffffff"/>
  </g>
  <g id="axes_1">
   <g id="patch_2">
    <path d="M 52.160938 242.118437 
L 332.330938 242.118437 
L 332.330938 20.798437 
L 52.160938 20.798437 
z
" style="fill: #ffffff"/>
   </g>
   <g id="PathCollection_1">
    <defs>
     <path id="ma276dc7323" d="M 0 2.5 
C 0.663008 2.5 1.29895 2.236584 1.767767 1.767767 
C 2.236584 1.29895 2.5 0.663008 2.5 0 
C 2.5 -0.663008 2.236584 -1.29895 1.767767 -1.767767 
C 1.29895 -2.236584 0.663008 -2.5 0 -2.5 
C -0.663008 -2.5 -1.29895 -2.236584 -1.767767 -1.767767 
C -2.236584 -1.29895 -2.5 -0.663008 -2.5 0 
C -2.5 0.663008 -2.236584 1.29895 -1.767767 1.767767 
C -1.29895 2.236584 -0.663008 2.5 0 2.5 
z
" style="stroke: #7aa6c2; stroke-opacity: 0.7"/>
    </defs>
    <g clip-path="url(#p0833651026)">
     <use xlink:href="#ma276dc7323" x="65.593433" y="129.206023" style="fill: #7aa6c2; fill-opacity: 0.7; stroke: #7aa6c2; stroke-opacity: 0.7"/>
     <use xlink:href="#ma276dc7323" x="69.105526" y="136.007402" style="fill: #7aa6c2; fill-opacity: 0.7; stroke: #7aa6c2; stroke-opacity: 0.7"/>
     <use xlink:href="#ma276dc7323" x="72.108958" y="134.41478" style="fill: #7aa6c2; fill-opacity: 0.7; stroke: #7aa6c2; stroke-opacity: 0.7"/>
     <use xlink:href="#ma276dc7323" x="73.450184" y="126.200415" style="fill: #7aa6c2; fill-opacity: 0.7; stroke: #7aa6c2; stroke-opacity: 0.7"/>
     <use xlink:href="#ma276dc7323" x="75.331894" y="114.325025" style="fill: #7aa6c2; fill-opacity: 0.7; stroke: #7aa6c2; stroke-opacity: 0.7"/>
     <use xlink:href="#ma276dc7323" x="96.550888" y="106.476347" style="fill: #7aa6c2; fill-opacity: 0.7; stroke: #7aa6c2; stroke-opacity: 0.7"/>
     <use xlink:href="#ma276dc7323" x="109.635424" y="84.94941" style="fill: #7aa6c2; fill-opacity: 0.7; stroke: #7aa6c2; stroke-opacity: 0.7"/>
     <use xlink:href="#ma276dc7323" x="133.610613" y="78.757967" style="fill: #7aa6c2; fill-opacity: 0.7; stroke: #7aa6c2; stroke-opacity: 0.7"/>
     <use xlink:href="#ma276dc7323" x="141.232556" y="71.324369" style="fill: #7aa6c2; fill-opacity: 0.7; stroke: #7aa6c2; stroke-opacity: 0.7"/>
     <use xlink:href="#ma276dc7323" x="172.554373" y="102.656148" style="fill: #7aa6c2; fill-opacity: 0.7; stroke: #7aa6c2; stroke-opacity: 0.7"/>
     <use xlink:href="#ma276dc7323" x="202.80611" y="140.794201" style="fill: #7aa6c2; fill-opacity: 0.7; stroke: #7aa6c2; stroke-opacity: 0.7"/>
     <use xlink:href="#ma276dc7323" x="203.357223" y="155.47949" style="fill: #7aa6c2; fill-opacity: 0.7; stroke: #7aa6c2; stroke-opacity: 0.7"/>
     <use xlink:href="#ma276dc7323" x="219.40607" y="167.611008" style="fill: #7aa6c2; fill-opacity: 0.7; stroke: #7aa6c2; stroke-opacity: 0.7"/>
     <use xlink:href="#ma276dc7323" x="221.634525" y="157.304803" style="fill: #7aa6c2; fill-opacity: 0.7; stroke: #7aa6c2; stroke-opacity: 0.7"/>
     <use xlink:href="#ma276dc7323" x="227.130079" y="152.752033" style="fill: #7aa6c2; fill-opacity: 0.7; stroke: #7aa6c2; stroke-opacity: 0.7"/>
     <use xlink:href="#ma276dc7323" x="229.735106" y="193.05612" style="fill: #7aa6c2; fill-opacity: 0.7; stroke: #7aa6c2; stroke-opacity: 0.7"/>
     <use xlink:href="#ma276dc7323" x="235.703976" y="159.10734" style="fill: #7aa6c2; fill-opacity: 0.7; stroke: #7aa6c2; stroke-opacity: 0.7"/>
     <use xlink:href="#ma276dc7323" x="250.698712" y="167.713112" style="fill: #7aa6c2; fill-opacity: 0.7; stroke: #7aa6c2; stroke-opacity: 0.7"/>
     <use xlink:href="#ma276dc7323" x="250.73918" y="175.529512" style="fill: #7aa6c2; fill-opacity: 0.7; stroke: #7aa6c2; stroke-opacity: 0.7"/>
     <use xlink:href="#ma276dc7323" x="272.035867" y="178.815539" style="fill: #7aa6c2; fill-opacity: 0.7; stroke: #7aa6c2; stroke-opacity: 0.7"/>
     <use xlink:href="#ma276dc7323" x="272.693838" y="186.46156" style="fill: #7aa6c2; fill-opacity: 0.7; stroke: #7aa6c2; stroke-opacity: 0.7"/>
     <use xlink:href="#ma276dc7323" x="283.276807" y="154.49238" style="fill: #7aa6c2; fill-opacity: 0.7; stroke: #7aa6c2; stroke-opacity: 0.7"/>
     <use xlink:href="#ma276dc7323" x="284.747609" y="146.262757" style="fill: #7aa6c2; fill-opacity: 0.7; stroke: #7aa6c2; stroke-opacity: 0.7"/>
     <use xlink:href="#ma276dc7323" x="297.374783" y="135.371373" style="fill: #7aa6c2; fill-opacity: 0.7; stroke: #7aa6c2; stroke-opacity: 0.7"/>
     <use xlink:href="#ma276dc7323" x="303.058884" y="135.218348" style="fill: #7aa6c2; fill-opacity: 0.7; stroke: #7aa6c2; stroke-opacity: 0.7"/>
    </g>
   </g>
   <g id="matplotlib.axis_1">
    <g id="xtick_1">
     <g id="line2d_1">
      <path d="M 64.895938 242.118437 
L 64.895938 20.798437 
" clip-path="url(#p0833651026)" style="fill: none; stroke: #b0b0b0; stroke-opacity: 0.25; stroke-width: 0.8; stroke-linecap: square"/>
     </g>
     <g id="line2d_2">
      <defs>
       <path id="mdc497c27de" d="M 0 0 
L 0 3.5 
" style="stroke: #000000; stroke-width: 0.8"/>
      </defs>
      <g>
       <use xlink:href="#mdc497c27de" x="64.895938" y="242.118437" style="stroke: #000000; stroke-width: 0.8"/>
      </g>
     </g>
     <g id="text_1">
      <!-- 0.0 -->
      <g transform="translate(56.944375 256.716875) scale(0.1 -0.1)">
       <defs>
        <path id="DejaVuSans-30" d="M 2034 4250 
Q 1547 4250 1301 3770 
Q 1056 3291 1056 2328 
Q 1056 1369 1301 889 
Q 1547 409 2034 409 
Q 2525 409 2770 889 
Q 3016 1369 3016 2328 
Q 3016 3291 2770 3770 
Q 2525 4250 2034 4250 
z
M 2034 4750 
Q 2819 4750 3233 4129 
Q 3647 3509 3647 2328 
Q 3647 1150 3233 529 
Q 2819 -91 2034 -91 
Q 1250 -91 836 529 
Q 422 1150 422 2328 
Q 422 3509 836 4129 
Q 1250 4750 2034 4750 
z
" transform="scale(0.015625)"/>
        <path id="DejaVuSans-2e" d="M 684 794 
L 1344 794 
L 1344 0 
L 684 0 
L 684 794 
z
" transform="scale(0.015625)"/>
       </defs>
       <use xlink:href="#DejaVuSans-30"/>
       <use xlink:href="#DejaVuSans-2e" transform="translate(63.623047 0)"/>
       <use xlink:href="#DejaVuSans-30" transform="translate(95.410156 0)"/>
      </g>
     </g>
    </g>
    <g id="xtick_2">
     <g id="line2d_3">
      <path d="M 115.835938 242.118437 
L 115.835938 20.798437 
" clip-path="url(#p0833651026)" style="fill: none; stroke: #b0b0b0; stroke-opacity: 0.25; stroke-width: 0.8; stroke-linecap: square"/>
     </g>
     <g id="line2d_4">
      <g>
       <use xlink:href="#mdc497c27de" x="115.835938" y="242.118437" style="stroke: #000000; stroke-width: 0.8"/>
      </g>
     </g>
     <g id="text_2">
      <!-- 0.2 -->
      <g transform="translate(107.884375 256.716875) scale(0.1 -0.1)">
       <defs>
        <path id="DejaVuSans-32" d="M 1228 531 
L 3431 531 
L 3431 0 
L 469 0 
L 469 531 
Q 828 903 1448 1529 
Q 2069 2156 2228 2338 
Q 2531 2678 2651 2914 
Q 2772 3150 2772 3378 
Q 2772 3750 2511 3984 
Q 2250 4219 1831 4219 
Q 1534 4219 1204 4116 
Q 875 4013 500 3803 
L 500 4441 
Q 881 4594 1212 4672 
Q 1544 4750 1819 4750 
Q 2544 4750 2975 4387 
Q 3406 4025 3406 3419 
Q 3406 3131 3298 2873 
Q 3191 2616 2906 2266 
Q 2828 2175 2409 1742 
Q 1991 1309 1228 531 
z
" transform="scale(0.015625)"/>
       </defs>
       <use xlink:href="#DejaVuSans-30"/>
       <use xlink:href="#DejaVuSans-2e" transform="translate(63.623047 0)"/>
       <use xlink:href="#DejaVuSans-32" transform="translate(95.410156 0)"/>
      </g>
     </g>
    </g>
    <g id="xtick_3">
     <g id="line2d_5">
      <path d="M 166.775938 242.118437 
L 166.775938 20.798437 
" clip-path="url(#p0833651026)" style="fill: none; stroke: #b0b0b0; stroke-opacity: 0.25; stroke-width: 0.8; stroke-linecap: square"/>
     </g>
     <g id="line2d_6">
      <g>
       <use xlink:href="#mdc497c27de" x="166.775938" y="242.118437" style="stroke: #000000; stroke-width: 0.8"/>
      </g>
     </g>
     <g id="text_3">
      <!-- 0.4 -->
      <g transform="translate(158.824375 256.716875) scale(0.1 -0.1)">
       <defs>
        <path id="DejaVuSans-34" d="M 2419 4116 
L 825 1625 
L 2419 1625 
L 2419 4116 
z
M 2253 4666 
L 3047 4666 
L 3047 1625 
L 3713 1625 
L 3713 1100 
L 3047 1100 
L 3047 0 
L 2419 0 
L 2419 1100 
L 313 1100 
L 313 1709 
L 2253 4666 
z
" transform="scale(0.015625)"/>
       </defs>
       <use xlink:href="#DejaVuSans-30"/>
       <use xlink:href="#DejaVuSans-2e" transform="translate(63.623047 0)"/>
       <use xlink:href="#DejaVuSans-34" transform="translate(95.410156 0)"/>
      </g>
     </g>
    </g>
    <g id="xtick_4">
     <g id="line2d_7">
      <path d="M 217.715938 242.118437 
L 217.715938 20.798437 
" clip-path="url(#p0833651026)" style="fill: none; stroke: #b0b0b0; stroke-opacity: 0.25; stroke-width: 0.8; stroke-linecap: square"/>
     </g>
     <g id="line2d_8">
      <g>
       <use xlink:href="#mdc497c27de" x="217.715938" y="242.118437" style="stroke: #000000; stroke-width: 0.8"/>
      </g>
     </g>
     <g id="text_4">
      <!-- 0.6 -->
      <g transform="translate(209.764375 256.716875) scale(0.1 -0.1)">
       <defs>
        <path id="DejaVuSans-36" d="M 2113 2584 
Q 1688 2584 1439 2293 
Q 1191 2003 1191 1497 
Q 1191 994 1439 701 
Q 1688 409 2113 409 
Q 2538 409 2786 701 
Q 3034 994 3034 1497 
Q 3034 2003 2786 2293 
Q 2538 2584 2113 2584 
z
M 3366 4563 
L 3366 3988 
Q 3128 4100 2886 4159 
Q 2644 4219 2406 4219 
Q 1781 4219 1451 3797 
Q 1122 3375 1075 2522 
Q 1259 2794 1537 2939 
Q 1816 3084 2150 3084 
Q 2853 3084 3261 2657 
Q 3669 2231 3669 1497 
Q 3669 778 3244 343 
Q 2819 -91 2113 -91 
Q 1303 -91 875 529 
Q 447 1150 447 2328 
Q 447 3434 972 4092 
Q 1497 4750 2381 4750 
Q 2619 4750 2861 4703 
Q 3103 4656 3366 4563 
z
" transform="scale(0.015625)"/>
       </defs>
       <use xlink:href="#DejaVuSans-30"/>
       <use xlink:href="#DejaVuSans-2e" transform="translate(63.623047 0)"/>
       <use xlink:href="#DejaVuSans-36" transform="translate(95.410156 0)"/>
      </g>
     </g>
    </g>
    <g id="xtick_5">
     <g id="line2d_9">
      <path d="M 268.655938 242.118437 
L 268.655938 20.798437 
" clip-path="url(#p0833651026)" style="fill: none; stroke: #b0b0b0; stroke-opacity: 0.25; stroke-width: 0.8; stroke-linecap: square"/>
     </g>
     <g id="line2d_10">
      <g>
       <use xlink:href="#mdc497c27de" x="268.655938" y="242.118437" style="stroke: #000000; stroke-width: 0.8"/>
      </g>
     </g>
     <g id="text_5">
      <!-- 0.8 -->
      <g transform="translate(260.704375 256.716875) scale(0.1 -0.1)">
       <defs>
        <path id="DejaVuSans-38" d="M 2034 2216 
Q 1584 2216 1326 1975 
Q 1069 1734 1069 1313 
Q 1069 891 1326 650 
Q 1584 409 2034 409 
Q 2484 409 2743 651 
Q 3003 894 3003 1313 
Q 3003 1734 2745 1975 
Q 2488 2216 2034 2216 
z
M 1403 2484 
Q 997 2584 770 2862 
Q 544 3141 544 3541 
Q 544 4100 942 4425 
Q 1341 4750 2034 4750 
Q 2731 4750 3128 4425 
Q 3525 4100 3525 3541 
Q 3525 3141 3298 2862 
Q 3072 2584 2669 2484 
Q 3125 2378 3379 2068 
Q 3634 1759 3634 1313 
Q 3634 634 3220 271 
Q 2806 -91 2034 -91 
Q 1263 -91 848 271 
Q 434 634 434 1313 
Q 434 1759 690 2068 
Q 947 2378 1403 2484 
z
M 1172 3481 
Q 1172 3119 1398 2916 
Q 1625 2713 2034 2713 
Q 2441 2713 2670 2916 
Q 2900 3119 2900 3481 
Q 2900 3844 2670 4047 
Q 2441 4250 2034 4250 
Q 1625 4250 1398 4047 
Q 1172 3844 1172 3481 
z
" transform="scale(0.015625)"/>
       </defs>
       <use xlink:href="#DejaVuSans-30"/>
       <use xlink:href="#DejaVuSans-2e" transform="translate(63.623047 0)"/>
       <use xlink:href="#DejaVuSans-38" transform="translate(95.410156 0)"/>
      </g>
     </g>
    </g>
    <g id="xtick_6">
     <g id="line2d_11">
      <path d="M 319.595938 242.118437 
L 319.595938 20.798437 
" clip-path="url(#p0833651026)" style="fill: none; stroke: #b0b0b0; stroke-opacity: 0.25; stroke-width: 0.8; stroke-linecap: square"/>
     </g>
     <g id="line2d_12">
      <g>
       <use xlink:href="#mdc497c27de" x="319.595938" y="242.118437" style="stroke: #000000; stroke-width: 0.8"/>
      </g>
     </g>
     <g id="text_6">
      <!-- 1.0 -->
      <g transform="translate(311.644375 256.716875) scale(0.1 -0.1)">
       <defs>
        <path id="DejaVuSans-31" d="M 794 531 
L 1825 531 
L 1825 4091 
L 703 3866 
L 703 4441 
L 1819 4666 
L 2450 4666 
L 2450 531 
L 3481 531 
L 3481 0 
L 794 0 
L 794 531 
z
" transform="scale(0.015625)"/>
       </defs>
       <use xlink:href="#DejaVuSans-31"/>
       <use xlink:href="#DejaVuSans-2e" transform="translate(63.623047 0)"/>
       <use xlink:href="#DejaVuSans-30" transform="translate(95.410156 0)"/>
      </g>
     </g>
    </g>
    <g id="text_7">
     <!-- x -->
     <g transform="translate(189.286563 270.395) scale(0.1 -0.1)">
      <defs>
       <path id="DejaVuSans-78" d="M 3513 3500 
L 2247 1797 
L 3578 0 
L 2900 0 
L 1881 1375 
L 863 0 
L 184 0 
L 1544 1831 
L 300 3500 
L 978 3500 
L 1906 2253 
L 2834 3500 
L 3513 3500 
z
" transform="scale(0.015625)"/>
      </defs>
      <use xlink:href="#DejaVuSans-78"/>
     </g>
    </g>
   </g>
   <g id="matplotlib.axis_2">
    <g id="ytick_1">
     <g id="line2d_13">
      <path d="M 52.160938 242.118438 
L 332.330938 242.118438 
" clip-path="url(#p0833651026)" style="fill: none; stroke: #b0b0b0; stroke-opacity: 0.25; stroke-width: 0.8; stroke-linecap: square"/>
     </g>
     <g id="line2d_14">
      <defs>
       <path id="md587b08c30" d="M 0 0 
L -3.5 0 
" style="stroke: #000000; stroke-width: 0.8"/>
      </defs>
      <g>
       <use xlink:href="#md587b08c30" x="52.160938" y="242.118438" style="stroke: #000000; stroke-width: 0.8"/>
      </g>
     </g>
     <g id="text_8">
      <!-- −2.0 -->
      <g transform="translate(20.878125 245.917656) scale(0.1 -0.1)">
       <defs>
        <path id="DejaVuSans-2212" d="M 678 2272 
L 4684 2272 
L 4684 1741 
L 678 1741 
L 678 2272 
z
" transform="scale(0.015625)"/>
       </defs>
       <use xlink:href="#DejaVuSans-2212"/>
       <use xlink:href="#DejaVuSans-32" transform="translate(83.789062 0)"/>
       <use xlink:href="#DejaVuSans-2e" transform="translate(147.412109 0)"/>
       <use xlink:href="#DejaVuSans-30" transform="translate(179.199219 0)"/>
      </g>
     </g>
    </g>
    <g id="ytick_2">
     <g id="line2d_15">
      <path d="M 52.160938 214.453438 
L 332.330938 214.453438 
" clip-path="url(#p0833651026)" style="fill: none; stroke: #b0b0b0; stroke-opacity: 0.25; stroke-width: 0.8; stroke-linecap: square"/>
     </g>
     <g id="line2d_16">
      <g>
       <use xlink:href="#md587b08c30" x="52.160938" y="214.453438" style="stroke: #000000; stroke-width: 0.8"/>
      </g>
     </g>
     <g id="text_9">
      <!-- −1.5 -->
      <g transform="translate(20.878125 218.252656) scale(0.1 -0.1)">
       <defs>
        <path id="DejaVuSans-35" d="M 691 4666 
L 3169 4666 
L 3169 4134 
L 1269 4134 
L 1269 2991 
Q 1406 3038 1543 3061 
Q 1681 3084 1819 3084 
Q 2600 3084 3056 2656 
Q 3513 2228 3513 1497 
Q 3513 744 3044 326 
Q 2575 -91 1722 -91 
Q 1428 -91 1123 -41 
Q 819 9 494 109 
L 494 744 
Q 775 591 1075 516 
Q 1375 441 1709 441 
Q 2250 441 2565 725 
Q 2881 1009 2881 1497 
Q 2881 1984 2565 2268 
Q 2250 2553 1709 2553 
Q 1456 2553 1204 2497 
Q 953 2441 691 2322 
L 691 4666 
z
" transform="scale(0.015625)"/>
       </defs>
       <use xlink:href="#DejaVuSans-2212"/>
       <use xlink:href="#DejaVuSans-31" transform="translate(83.789062 0)"/>
       <use xlink:href="#DejaVuSans-2e" transform="translate(147.412109 0)"/>
       <use xlink:href="#DejaVuSans-35" transform="translate(179.199219 0)"/>
      </g>
     </g>
    </g>
    <g id="ytick_3">
     <g id="line2d_17">
      <path d="M 52.160938 186.788438 
L 332.330938 186.788438 
" clip-path="url(#p0833651026)" style="fill: none; stroke: #b0b0b0; stroke-opacity: 0.25; stroke-width: 0.8; stroke-linecap: square"/>
     </g>
     <g id="line2d_18">
      <g>
       <use xlink:href="#md587b08c30" x="52.160938" y="186.788438" style="stroke: #000000; stroke-width: 0.8"/>
      </g>
     </g>
     <g id="text_10">
      <!-- −1.0 -->
      <g transform="translate(20.878125 190.587656) scale(0.1 -0.1)">
       <use xlink:href="#DejaVuSans-2212"/>
       <use xlink:href="#DejaVuSans-31" transform="translate(83.789062 0)"/>
       <use xlink:href="#DejaVuSans-2e" transform="translate(147.412109 0)"/>
       <use xlink:href="#DejaVuSans-30" transform="translate(179.199219 0)"/>
      </g>
     </g>
    </g>
    <g id="ytick_4">
     <g id="line2d_19">
      <path d="M 52.160938 159.123437 
L 332.330938 159.123437 
" clip-path="url(#p0833651026)" style="fill: none; stroke: #b0b0b0; stroke-opacity: 0.25; stroke-width: 0.8; stroke-linecap: square"/>
     </g>
     <g id="line2d_20">
      <g>
       <use xlink:href="#md587b08c30" x="52.160938" y="159.123437" style="stroke: #000000; stroke-width: 0.8"/>
      </g>
     </g>
     <g id="text_11">
      <!-- −0.5 -->
      <g transform="translate(20.878125 162.922656) scale(0.1 -0.1)">
       <use xlink:href="#DejaVuSans-2212"/>
       <use xlink:href="#DejaVuSans-30" transform="translate(83.789062 0)"/>
       <use xlink:href="#DejaVuSans-2e" transform="translate(147.412109 0)"/>
       <use xlink:href="#DejaVuSans-35" transform="translate(179.199219 0)"/>
      </g>
     </g>
    </g>
    <g id="ytick_5">
     <g id="line2d_21">
      <path d="M 52.160938 131.458438 
L 332.330938 131.458438 
" clip-path="url(#p0833651026)" style="fill: none; stroke: #b0b0b0; stroke-opacity: 0.25; stroke-width: 0.8; stroke-linecap: square"/>
     </g>
     <g id="line2d_22">
      <g>
       <use xlink:href="#md587b08c30" x="52.160938" y="131.458438" style="stroke: #000000; stroke-width: 0.8"/>
      </g>
     </g>
     <g id="text_12">
      <!-- 0.0 -->
      <g transform="translate(29.257812 135.257656) scale(0.1 -0.1)">
       <use xlink:href="#DejaVuSans-30"/>
       <use xlink:href="#DejaVuSans-2e" transform="translate(63.623047 0)"/>
       <use xlink:href="#DejaVuSans-30" transform="translate(95.410156 0)"/>
      </g>
     </g>
    </g>
    <g id="ytick_6">
     <g id="line2d_23">
      <path d="M 52.160938 103.793437 
L 332.330938 103.793437 
" clip-path="url(#p0833651026)" style="fill: none; stroke: #b0b0b0; stroke-opacity: 0.25; stroke-width: 0.8; stroke-linecap: square"/>
     </g>
     <g id="line2d_24">
      <g>
       <use xlink:href="#md587b08c30" x="52.160938" y="103.793437" style="stroke: #000000; stroke-width: 0.8"/>
      </g>
     </g>
     <g id="text_13">
      <!-- 0.5 -->
      <g transform="translate(29.257812 107.592656) scale(0.1 -0.1)">
       <use xlink:href="#DejaVuSans-30"/>
       <use xlink:href="#DejaVuSans-2e" transform="translate(63.623047 0)"/>
       <use xlink:href="#DejaVuSans-35" transform="translate(95.410156 0)"/>
      </g>
     </g>
    </g>
    <g id="ytick_7">
     <g id="line2d_25">
      <path d="M 52.160938 76.128437 
L 332.330938 76.128437 
" clip-path="url(#p0833651026)" style="fill: none; stroke: #b0b0b0; stroke-opacity: 0.25; stroke-width: 0.8; stroke-linecap: square"/>
     </g>
     <g id="line2d_26">
      <g>
       <use xlink:href="#md587b08c30" x="52.160938" y="76.128437" style="stroke: #000000; stroke-width: 0.8"/>
      </g>
     </g>
     <g id="text_14">
      <!-- 1.0 -->
      <g transform="translate(29.257812 79.927656) scale(0.1 -0.1)">
       <use xlink:href="#DejaVuSans-31"/>
       <use xlink:href="#DejaVuSans-2e" transform="translate(63.623047 0)"/>
       <use xlink:href="#DejaVuSans-30" transform="translate(95.410156 0)"/>
      </g>
     </g>
    </g>
    <g id="ytick_8">
     <g id="line2d_27">
      <path d="M 52.160938 48.463437 
L 332.330938 48.463437 
" clip-path="url(#p0833651026)" style="fill: none; stroke: #b0b0b0; stroke-opacity: 0.25; stroke-width: 0.8; stroke-linecap: square"/>
     </g>
     <g id="line2d_28">
      <g>
       <use xlink:href="#md587b08c30" x="52.160938" y="48.463437" style="stroke: #000000; stroke-width: 0.8"/>
      </g>
     </g>
     <g id="text_15">
      <!-- 1.5 -->
      <g transform="translate(29.257812 52.262656) scale(0.1 -0.1)">
       <use xlink:href="#DejaVuSans-31"/>
       <use xlink:href="#DejaVuSans-2e" transform="translate(63.623047 0)"/>
       <use xlink:href="#DejaVuSans-35" transform="translate(95.410156 0)"/>
      </g>
     </g>
    </g>
    <g id="ytick_9">
     <g id="line2d_29">
      <path d="M 52.160938 20.798437 
L 332.330938 20.798437 
" clip-path="url(#p0833651026)" style="fill: none; stroke: #b0b0b0; stroke-opacity: 0.25; stroke-width: 0.8; stroke-linecap: square"/>
     </g>
     <g id="line2d_30">
      <g>
       <use xlink:href="#md587b08c30" x="52.160938" y="20.798437" style="stroke: #000000; stroke-width: 0.8"/>
      </g>
     </g>
     <g id="text_16">
      <!-- 2.0 -->
      <g transform="translate(29.257812 24.597656) scale(0.1 -0.1)">
       <use xlink:href="#DejaVuSans-32"/>
       <use xlink:href="#DejaVuSans-2e" transform="translate(63.623047 0)"/>
       <use xlink:href="#DejaVuSans-30" transform="translate(95.410156 0)"/>
      </g>
     </g>
    </g>
    <g id="text_17">
     <!-- y -->
     <g transform="translate(14.798438 134.417812) rotate(-90) scale(0.1 -0.1)">
      <defs>
       <path id="DejaVuSans-79" d="M 2059 -325 
Q 1816 -950 1584 -1140 
Q 1353 -1331 966 -1331 
L 506 -1331 
L 506 -850 
L 844 -850 
Q 1081 -850 1212 -737 
Q 1344 -625 1503 -206 
L 1606 56 
L 191 3500 
L 800 3500 
L 1894 763 
L 2988 3500 
L 3597 3500 
L 2059 -325 
z
" transform="scale(0.015625)"/>
      </defs>
      <use xlink:href="#DejaVuSans-79"/>
     </g>
    </g>
   </g>
   <g id="line2d_31">
    <path d="M 64.895938 131.458438 
L 75.747817 116.822627 
L 81.49293 109.43228 
L 86.599697 103.229454 
L 91.068118 98.165811 
L 94.898193 94.144997 
L 98.728268 90.457041 
L 101.919998 87.661841 
L 105.111727 85.138016 
L 108.303456 82.901205 
L 111.495186 80.965267 
L 114.048569 79.641271 
L 116.601953 78.522799 
L 119.155336 77.614288 
L 121.708719 76.919342 
L 124.262103 76.440717 
L 126.815486 76.180311 
L 129.36887 76.139156 
L 131.922253 76.317418 
L 134.475637 76.714387 
L 137.02902 77.32849 
L 139.582404 78.157291 
L 142.135787 79.197503 
L 144.689171 80.444999 
L 147.8809 82.288249 
L 151.072629 84.436171 
L 154.264359 86.875454 
L 157.456088 89.590986 
L 160.647817 92.565938 
L 164.477892 96.452257 
L 168.307968 100.650852 
L 172.776389 105.893787 
L 177.883156 112.261807 
L 184.266614 120.637386 
L 194.480148 134.506443 
L 203.41699 146.513922 
L 209.162103 153.883551 
L 214.26887 160.061227 
L 218.737291 165.097988 
L 222.567366 169.092395 
L 226.397441 172.751085 
L 229.589171 175.5199 
L 232.7809 178.015698 
L 235.972629 180.223016 
L 239.164359 182.128176 
L 241.717742 183.426752 
L 244.271125 184.519204 
L 246.824509 185.401199 
L 249.377892 186.069238 
L 251.931276 186.520672 
L 254.484659 186.753711 
L 257.038043 186.767429 
L 259.591426 186.561773 
L 262.14481 186.137558 
L 264.698193 185.496467 
L 267.251577 184.641043 
L 269.80496 183.574678 
L 272.358344 182.301602 
L 275.550073 180.427339 
L 278.741802 178.249652 
L 281.933531 175.782034 
L 285.125261 173.039776 
L 288.955336 169.410579 
L 292.785411 165.442827 
L 296.615486 161.171914 
L 301.083907 155.856984 
L 306.190674 149.424059 
L 312.574133 140.994878 
L 319.595937 131.458438 
L 319.595937 131.458438 
" clip-path="url(#p0833651026)" style="fill: none; stroke-dasharray: 1.5,2.475; stroke-dashoffset: 0; stroke: #59a14f; stroke-width: 1.5"/>
   </g>
   <g id="line2d_32">
    <path d="M 64.895938 109.464945 
L 319.595937 170.575272 
L 319.595937 170.575272 
" clip-path="url(#p0833651026)" style="fill: none; stroke: #e15759; stroke-width: 2; stroke-linecap: square"/>
   </g>
   <g id="patch_3">
    <path d="M 52.160938 242.118438 
L 52.160938 20.798437 
" style="fill: none; stroke: #000000; stroke-width: 0.8; stroke-linejoin: miter; stroke-linecap: square"/>
   </g>
   <g id="patch_4">
    <path d="M 332.330938 242.118438 
L 332.330938 20.798437 
" style="fill: none; stroke: #000000; stroke-width: 0.8; stroke-linejoin: miter; stroke-linecap: square"/>
   </g>
   <g id="patch_5">
    <path d="M 52.160938 242.118437 
L 332.330938 242.118437 
" style="fill: none; stroke: #000000; stroke-width: 0.8; stroke-linejoin: miter; stroke-linecap: square"/>
   </g>
   <g id="patch_6">
    <path d="M 52.160938 20.798437 
L 332.330938 20.798437 
" style="fill: none; stroke: #000000; stroke-width: 0.8; stroke-linejoin: miter; stroke-linecap: square"/>
   </g>
   <g id="text_18">
    <!-- degree=1 (under-fit) -->
    <g transform="translate(140.624844 14.798437) scale(0.1 -0.1)">
     <defs>
      <path id="DejaVuSans-64" d="M 2906 2969 
L 2906 4863 
L 3481 4863 
L 3481 0 
L 2906 0 
L 2906 525 
Q 2725 213 2448 61 
Q 2172 -91 1784 -91 
Q 1150 -91 751 415 
Q 353 922 353 1747 
Q 353 2572 751 3078 
Q 1150 3584 1784 3584 
Q 2172 3584 2448 3432 
Q 2725 3281 2906 2969 
z
M 947 1747 
Q 947 1113 1208 752 
Q 1469 391 1925 391 
Q 2381 391 2643 752 
Q 2906 1113 2906 1747 
Q 2906 2381 2643 2742 
Q 2381 3103 1925 3103 
Q 1469 3103 1208 2742 
Q 947 2381 947 1747 
z
" transform="scale(0.015625)"/>
      <path id="DejaVuSans-65" d="M 3597 1894 
L 3597 1613 
L 953 1613 
Q 991 1019 1311 708 
Q 1631 397 2203 397 
Q 2534 397 2845 478 
Q 3156 559 3463 722 
L 3463 178 
Q 3153 47 2828 -22 
Q 2503 -91 2169 -91 
Q 1331 -91 842 396 
Q 353 884 353 1716 
Q 353 2575 817 3079 
Q 1281 3584 2069 3584 
Q 2775 3584 3186 3129 
Q 3597 2675 3597 1894 
z
M 3022 2063 
Q 3016 2534 2758 2815 
Q 2500 3097 2075 3097 
Q 1594 3097 1305 2825 
Q 1016 2553 972 2059 
L 3022 2063 
z
" transform="scale(0.015625)"/>
      <path id="DejaVuSans-67" d="M 2906 1791 
Q 2906 2416 2648 2759 
Q 2391 3103 1925 3103 
Q 1463 3103 1205 2759 
Q 947 2416 947 1791 
Q 947 1169 1205 825 
Q 1463 481 1925 481 
Q 2391 481 2648 825 
Q 2906 1169 2906 1791 
z
M 3481 434 
Q 3481 -459 3084 -895 
Q 2688 -1331 1869 -1331 
Q 1566 -1331 1297 -1286 
Q 1028 -1241 775 -1147 
L 775 -588 
Q 1028 -725 1275 -790 
Q 1522 -856 1778 -856 
Q 2344 -856 2625 -561 
Q 2906 -266 2906 331 
L 2906 616 
Q 2728 306 2450 153 
Q 2172 0 1784 0 
Q 1141 0 747 490 
Q 353 981 353 1791 
Q 353 2603 747 3093 
Q 1141 3584 1784 3584 
Q 2172 3584 2450 3431 
Q 2728 3278 2906 2969 
L 2906 3500 
L 3481 3500 
L 3481 434 
z
" transform="scale(0.015625)"/>
      <path id="DejaVuSans-72" d="M 2631 2963 
Q 2534 3019 2420 3045 
Q 2306 3072 2169 3072 
Q 1681 3072 1420 2755 
Q 1159 2438 1159 1844 
L 1159 0 
L 581 0 
L 581 3500 
L 1159 3500 
L 1159 2956 
Q 1341 3275 1631 3429 
Q 1922 3584 2338 3584 
Q 2397 3584 2469 3576 
Q 2541 3569 2628 3553 
L 2631 2963 
z
" transform="scale(0.015625)"/>
      <path id="DejaVuSans-3d" d="M 678 2906 
L 4684 2906 
L 4684 2381 
L 678 2381 
L 678 2906 
z
M 678 1631 
L 4684 1631 
L 4684 1100 
L 678 1100 
L 678 1631 
z
" transform="scale(0.015625)"/>
      <path id="DejaVuSans-20" transform="scale(0.015625)"/>
      <path id="DejaVuSans-28" d="M 1984 4856 
Q 1566 4138 1362 3434 
Q 1159 2731 1159 2009 
Q 1159 1288 1364 580 
Q 1569 -128 1984 -844 
L 1484 -844 
Q 1016 -109 783 600 
Q 550 1309 550 2009 
Q 550 2706 781 3412 
Q 1013 4119 1484 4856 
L 1984 4856 
z
" transform="scale(0.015625)"/>
      <path id="DejaVuSans-75" d="M 544 1381 
L 544 3500 
L 1119 3500 
L 1119 1403 
Q 1119 906 1312 657 
Q 1506 409 1894 409 
Q 2359 409 2629 706 
Q 2900 1003 2900 1516 
L 2900 3500 
L 3475 3500 
L 3475 0 
L 2900 0 
L 2900 538 
Q 2691 219 2414 64 
Q 2138 -91 1772 -91 
Q 1169 -91 856 284 
Q 544 659 544 1381 
z
M 1991 3584 
L 1991 3584 
z
" transform="scale(0.015625)"/>
      <path id="DejaVuSans-6e" d="M 3513 2113 
L 3513 0 
L 2938 0 
L 2938 2094 
Q 2938 2591 2744 2837 
Q 2550 3084 2163 3084 
Q 1697 3084 1428 2787 
Q 1159 2491 1159 1978 
L 1159 0 
L 581 0 
L 581 3500 
L 1159 3500 
L 1159 2956 
Q 1366 3272 1645 3428 
Q 1925 3584 2291 3584 
Q 2894 3584 3203 3211 
Q 3513 2838 3513 2113 
z
" transform="scale(0.015625)"/>
      <path id="DejaVuSans-2d" d="M 313 2009 
L 1997 2009 
L 1997 1497 
L 313 1497 
L 313 2009 
z
" transform="scale(0.015625)"/>
      <path id="DejaVuSans-66" d="M 2375 4863 
L 2375 4384 
L 1825 4384 
Q 1516 4384 1395 4259 
Q 1275 4134 1275 3809 
L 1275 3500 
L 2222 3500 
L 2222 3053 
L 1275 3053 
L 1275 0 
L 697 0 
L 697 3053 
L 147 3053 
L 147 3500 
L 697 3500 
L 697 3744 
Q 697 4328 969 4595 
Q 1241 4863 1831 4863 
L 2375 4863 
z
" transform="scale(0.015625)"/>
      <path id="DejaVuSans-69" d="M 603 3500 
L 1178 3500 
L 1178 0 
L 603 0 
L 603 3500 
z
M 603 4863 
L 1178 4863 
L 1178 4134 
L 603 4134 
L 603 4863 
z
" transform="scale(0.015625)"/>
      <path id="DejaVuSans-74" d="M 1172 4494 
L 1172 3500 
L 2356 3500 
L 2356 3053 
L 1172 3053 
L 1172 1153 
Q 1172 725 1289 603 
Q 1406 481 1766 481 
L 2356 481 
L 2356 0 
L 1766 0 
Q 1100 0 847 248 
Q 594 497 594 1153 
L 594 3053 
L 172 3053 
L 172 3500 
L 594 3500 
L 594 4494 
L 1172 4494 
z
" transform="scale(0.015625)"/>
      <path id="DejaVuSans-29" d="M 513 4856 
L 1013 4856 
Q 1481 4119 1714 3412 
Q 1947 2706 1947 2009 
Q 1947 1309 1714 600 
Q 1481 -109 1013 -844 
L 513 -844 
Q 928 -128 1133 580 
Q 1338 1288 1338 2009 
Q 1338 2731 1133 3434 
Q 928 4138 513 4856 
z
" transform="scale(0.015625)"/>
     </defs>
     <use xlink:href="#DejaVuSans-64"/>
     <use xlink:href="#DejaVuSans-65" transform="translate(63.476562 0)"/>
     <use xlink:href="#DejaVuSans-67" transform="translate(125 0)"/>
     <use xlink:href="#DejaVuSans-72" transform="translate(188.476562 0)"/>
     <use xlink:href="#DejaVuSans-65" transform="translate(227.339844 0)"/>
     <use xlink:href="#DejaVuSans-65" transform="translate(288.863281 0)"/>
     <use xlink:href="#DejaVuSans-3d" transform="translate(350.386719 0)"/>
     <use xlink:href="#DejaVuSans-31" transform="translate(434.175781 0)"/>
     <use xlink:href="#DejaVuSans-20" transform="translate(497.798828 0)"/>
     <use xlink:href="#DejaVuSans-28" transform="translate(529.585938 0)"/>
     <use xlink:href="#DejaVuSans-75" transform="translate(568.599609 0)"/>
     <use xlink:href="#DejaVuSans-6e" transform="translate(631.978516 0)"/>
     <use xlink:href="#DejaVuSans-64" transform="translate(695.357422 0)"/>
     <use xlink:href="#DejaVuSans-65" transform="translate(758.833984 0)"/>
     <use xlink:href="#DejaVuSans-72" transform="translate(820.357422 0)"/>
     <use xlink:href="#DejaVuSans-2d" transform="translate(855.095703 0)"/>
     <use xlink:href="#DejaVuSans-66" transform="translate(891.179688 0)"/>
     <use xlink:href="#DejaVuSans-69" transform="translate(926.384766 0)"/>
     <use xlink:href="#DejaVuSans-74" transform="translate(954.167969 0)"/>
     <use xlink:href="#DejaVuSans-29" transform="translate(993.376953 0)"/>
    </g>
   </g>
   <g id="legend_1">
    <g id="patch_7">
     <path d="M 227.678438 50.683437 
L 326.730937 50.683437 
Q 328.330938 50.683437 328.330938 49.083437 
L 328.330938 26.398437 
Q 328.330938 24.798437 326.730937 24.798437 
L 227.678438 24.798437 
Q 226.078438 24.798437 226.078438 26.398437 
L 226.078438 49.083437 
Q 226.078438 50.683437 227.678438 50.683437 
z
" style="fill: #ffffff; opacity: 0.8; stroke: #cccccc; stroke-linejoin: miter"/>
    </g>
    <g id="line2d_33">
     <path d="M 229.278437 31.277187 
L 237.278437 31.277187 
L 245.278437 31.277187 
" style="fill: none; stroke-dasharray: 1.5,2.475; stroke-dashoffset: 0; stroke: #59a14f; stroke-width: 1.5"/>
    </g>
    <g id="text_19">
     <!-- true -->
     <g transform="translate(251.678438 34.077187) scale(0.08 -0.08)">
      <use xlink:href="#DejaVuSans-74"/>
      <use xlink:href="#DejaVuSans-72" transform="translate(39.208984 0)"/>
      <use xlink:href="#DejaVuSans-75" transform="translate(80.322266 0)"/>
      <use xlink:href="#DejaVuSans-65" transform="translate(143.701172 0)"/>
     </g>
    </g>
    <g id="line2d_34">
     <path d="M 229.278437 43.019687 
L 237.278437 43.019687 
L 245.278437 43.019687 
" style="fill: none; stroke: #e15759; stroke-width: 2; stroke-linecap: square"/>
    </g>
    <g id="text_20">
     <!-- polynomial deg=1 -->
     <g transform="translate(251.678438 45.819687) scale(0.08 -0.08)">
      <defs>
       <path id="DejaVuSans-70" d="M 1159 525 
L 1159 -1331 
L 581 -1331 
L 581 3500 
L 1159 3500 
L 1159 2969 
Q 1341 3281 1617 3432 
Q 1894 3584 2278 3584 
Q 2916 3584 3314 3078 
Q 3713 2572 3713 1747 
Q 3713 922 3314 415 
Q 2916 -91 2278 -91 
Q 1894 -91 1617 61 
Q 1341 213 1159 525 
z
M 3116 1747 
Q 3116 2381 2855 2742 
Q 2594 3103 2138 3103 
Q 1681 3103 1420 2742 
Q 1159 2381 1159 1747 
Q 1159 1113 1420 752 
Q 1681 391 2138 391 
Q 2594 391 2855 752 
Q 3116 1113 3116 1747 
z
" transform="scale(0.015625)"/>
       <path id="DejaVuSans-6f" d="M 1959 3097 
Q 1497 3097 1228 2736 
Q 959 2375 959 1747 
Q 959 1119 1226 758 
Q 1494 397 1959 397 
Q 2419 397 2687 759 
Q 2956 1122 2956 1747 
Q 2956 2369 2687 2733 
Q 2419 3097 1959 3097 
z
M 1959 3584 
Q 2709 3584 3137 3096 
Q 3566 2609 3566 1747 
Q 3566 888 3137 398 
Q 2709 -91 1959 -91 
Q 1206 -91 779 398 
Q 353 888 353 1747 
Q 353 2609 779 3096 
Q 1206 3584 1959 3584 
z
" transform="scale(0.015625)"/>
       <path id="DejaVuSans-6c" d="M 603 4863 
L 1178 4863 
L 1178 0 
L 603 0 
L 603 4863 
z
" transform="scale(0.015625)"/>
       <path id="DejaVuSans-6d" d="M 3328 2828 
Q 3544 3216 3844 3400 
Q 4144 3584 4550 3584 
Q 5097 3584 5394 3201 
Q 5691 2819 5691 2113 
L 5691 0 
L 5113 0 
L 5113 2094 
Q 5113 2597 4934 2840 
Q 4756 3084 4391 3084 
Q 3944 3084 3684 2787 
Q 3425 2491 3425 1978 
L 3425 0 
L 2847 0 
L 2847 2094 
Q 2847 2600 2669 2842 
Q 2491 3084 2119 3084 
Q 1678 3084 1418 2786 
Q 1159 2488 1159 1978 
L 1159 0 
L 581 0 
L 581 3500 
L 1159 3500 
L 1159 2956 
Q 1356 3278 1631 3431 
Q 1906 3584 2284 3584 
Q 2666 3584 2933 3390 
Q 3200 3197 3328 2828 
z
" transform="scale(0.015625)"/>
       <path id="DejaVuSans-61" d="M 2194 1759 
Q 1497 1759 1228 1600 
Q 959 1441 959 1056 
Q 959 750 1161 570 
Q 1363 391 1709 391 
Q 2188 391 2477 730 
Q 2766 1069 2766 1631 
L 2766 1759 
L 2194 1759 
z
M 3341 1997 
L 3341 0 
L 2766 0 
L 2766 531 
Q 2569 213 2275 61 
Q 1981 -91 1556 -91 
Q 1019 -91 701 211 
Q 384 513 384 1019 
Q 384 1609 779 1909 
Q 1175 2209 1959 2209 
L 2766 2209 
L 2766 2266 
Q 2766 2663 2505 2880 
Q 2244 3097 1772 3097 
Q 1472 3097 1187 3025 
Q 903 2953 641 2809 
L 641 3341 
Q 956 3463 1253 3523 
Q 1550 3584 1831 3584 
Q 2591 3584 2966 3190 
Q 3341 2797 3341 1997 
z
" transform="scale(0.015625)"/>
      </defs>
      <use xlink:href="#DejaVuSans-70"/>
      <use xlink:href="#DejaVuSans-6f" transform="translate(63.476562 0)"/>
      <use xlink:href="#DejaVuSans-6c" transform="translate(124.658203 0)"/>
      <use xlink:href="#DejaVuSans-79" transform="translate(152.441406 0)"/>
      <use xlink:href="#DejaVuSans-6e" transform="translate(211.621094 0)"/>
      <use xlink:href="#DejaVuSans-6f" transform="translate(275 0)"/>
      <use xlink:href="#DejaVuSans-6d" transform="translate(336.181641 0)"/>
      <use xlink:href="#DejaVuSans-69" transform="translate(433.59375 0)"/>
      <use xlink:href="#DejaVuSans-61" transform="translate(461.376953 0)"/>
      <use xlink:href="#DejaVuSans-6c" transform="translate(522.65625 0)"/>
      <use xlink:href="#DejaVuSans-20" transform="translate(550.439453 0)"/>
      <use xlink:href="#DejaVuSans-64" transform="translate(582.226562 0)"/>
      <use xlink:href="#DejaVuSans-65" transform="translate(645.703125 0)"/>
      <use xlink:href="#DejaVuSans-67" transform="translate(707.226562 0)"/>
      <use xlink:href="#DejaVuSans-3d" transform="translate(770.703125 0)"/>
      <use xlink:href="#DejaVuSans-31" transform="translate(854.492188 0)"/>
     </g>
    </g>
   </g>
  </g>
  <g id="axes_2">
   <g id="patch_8">
    <path d="M 346.630938 242.118437 
L 626.800938 242.118437 
L 626.800938 20.798437 
L 346.630938 20.798437 
z
" style="fill: #ffffff"/>
   </g>
   <g id="PathCollection_2">
    <g clip-path="url(#p4ef06002bd)">
     <use xlink:href="#ma276dc7323" x="360.063433" y="129.206023" style="fill: #7aa6c2; fill-opacity: 0.7; stroke: #7aa6c2; stroke-opacity: 0.7"/>
     <use xlink:href="#ma276dc7323" x="363.575526" y="136.007402" style="fill: #7aa6c2; fill-opacity: 0.7; stroke: #7aa6c2; stroke-opacity: 0.7"/>
     <use xlink:href="#ma276dc7323" x="366.578958" y="134.41478" style="fill: #7aa6c2; fill-opacity: 0.7; stroke: #7aa6c2; stroke-opacity: 0.7"/>
     <use xlink:href="#ma276dc7323" x="367.920184" y="126.200415" style="fill: #7aa6c2; fill-opacity: 0.7; stroke: #7aa6c2; stroke-opacity: 0.7"/>
     <use xlink:href="#ma276dc7323" x="369.801894" y="114.325025" style="fill: #7aa6c2; fill-opacity: 0.7; stroke: #7aa6c2; stroke-opacity: 0.7"/>
     <use xlink:href="#ma276dc7323" x="391.020888" y="106.476347" style="fill: #7aa6c2; fill-opacity: 0.7; stroke: #7aa6c2; stroke-opacity: 0.7"/>
     <use xlink:href="#ma276dc7323" x="404.105424" y="84.94941" style="fill: #7aa6c2; fill-opacity: 0.7; stroke: #7aa6c2; stroke-opacity: 0.7"/>
     <use xlink:href="#ma276dc7323" x="428.080613" y="78.757967" style="fill: #7aa6c2; fill-opacity: 0.7; stroke: #7aa6c2; stroke-opacity: 0.7"/>
     <use xlink:href="#ma276dc7323" x="435.702556" y="71.324369" style="fill: #7aa6c2; fill-opacity: 0.7; stroke: #7aa6c2; stroke-opacity: 0.7"/>
     <use xlink:href="#ma276dc7323" x="467.024373" y="102.656148" style="fill: #7aa6c2; fill-opacity: 0.7; stroke: #7aa6c2; stroke-opacity: 0.7"/>
     <use xlink:href="#ma276dc7323" x="497.27611" y="140.794201" style="fill: #7aa6c2; fill-opacity: 0.7; stroke: #7aa6c2; stroke-opacity: 0.7"/>
     <use xlink:href="#ma276dc7323" x="497.827223" y="155.47949" style="fill: #7aa6c2; fill-opacity: 0.7; stroke: #7aa6c2; stroke-opacity: 0.7"/>
     <use xlink:href="#ma276dc7323" x="513.87607" y="167.611008" style="fill: #7aa6c2; fill-opacity: 0.7; stroke: #7aa6c2; stroke-opacity: 0.7"/>
     <use xlink:href="#ma276dc7323" x="516.104525" y="157.304803" style="fill: #7aa6c2; fill-opacity: 0.7; stroke: #7aa6c2; stroke-opacity: 0.7"/>
     <use xlink:href="#ma276dc7323" x="521.600079" y="152.752033" style="fill: #7aa6c2; fill-opacity: 0.7; stroke: #7aa6c2; stroke-opacity: 0.7"/>
     <use xlink:href="#ma276dc7323" x="524.205106" y="193.05612" style="fill: #7aa6c2; fill-opacity: 0.7; stroke: #7aa6c2; stroke-opacity: 0.7"/>
     <use xlink:href="#ma276dc7323" x="530.173976" y="159.10734" style="fill: #7aa6c2; fill-opacity: 0.7; stroke: #7aa6c2; stroke-opacity: 0.7"/>
     <use xlink:href="#ma276dc7323" x="545.168712" y="167.713112" style="fill: #7aa6c2; fill-opacity: 0.7; stroke: #7aa6c2; stroke-opacity: 0.7"/>
     <use xlink:href="#ma276dc7323" x="545.20918" y="175.529512" style="fill: #7aa6c2; fill-opacity: 0.7; stroke: #7aa6c2; stroke-opacity: 0.7"/>
     <use xlink:href="#ma276dc7323" x="566.505867" y="178.815539" style="fill: #7aa6c2; fill-opacity: 0.7; stroke: #7aa6c2; stroke-opacity: 0.7"/>
     <use xlink:href="#ma276dc7323" x="567.163838" y="186.46156" style="fill: #7aa6c2; fill-opacity: 0.7; stroke: #7aa6c2; stroke-opacity: 0.7"/>
     <use xlink:href="#ma276dc7323" x="577.746807" y="154.49238" style="fill: #7aa6c2; fill-opacity: 0.7; stroke: #7aa6c2; stroke-opacity: 0.7"/>
     <use xlink:href="#ma276dc7323" x="579.217609" y="146.262757" style="fill: #7aa6c2; fill-opacity: 0.7; stroke: #7aa6c2; stroke-opacity: 0.7"/>
     <use xlink:href="#ma276dc7323" x="591.844783" y="135.371373" style="fill: #7aa6c2; fill-opacity: 0.7; stroke: #7aa6c2; stroke-opacity: 0.7"/>
     <use xlink:href="#ma276dc7323" x="597.528884" y="135.218348" style="fill: #7aa6c2; fill-opacity: 0.7; stroke: #7aa6c2; stroke-opacity: 0.7"/>
    </g>
   </g>
   <g id="matplotlib.axis_3">
    <g id="xtick_7">
     <g id="line2d_35">
      <path d="M 359.365938 242.118437 
L 359.365938 20.798437 
" clip-path="url(#p4ef06002bd)" style="fill: none; stroke: #b0b0b0; stroke-opacity: 0.25; stroke-width: 0.8; stroke-linecap: square"/>
     </g>
     <g id="line2d_36">
      <g>
       <use xlink:href="#mdc497c27de" x="359.365938" y="242.118437" style="stroke: #000000; stroke-width: 0.8"/>
      </g>
     </g>
     <g id="text_21">
      <!-- 0.0 -->
      <g transform="translate(351.414375 256.716875) scale(0.1 -0.1)">
       <use xlink:href="#DejaVuSans-30"/>
       <use xlink:href="#DejaVuSans-2e" transform="translate(63.623047 0)"/>
       <use xlink:href="#DejaVuSans-30" transform="translate(95.410156 0)"/>
      </g>
     </g>
    </g>
    <g id="xtick_8">
     <g id="line2d_37">
      <path d="M 410.305938 242.118437 
L 410.305938 20.798437 
" clip-path="url(#p4ef06002bd)" style="fill: none; stroke: #b0b0b0; stroke-opacity: 0.25; stroke-width: 0.8; stroke-linecap: square"/>
     </g>
     <g id="line2d_38">
      <g>
       <use xlink:href="#mdc497c27de" x="410.305938" y="242.118437" style="stroke: #000000; stroke-width: 0.8"/>
      </g>
     </g>
     <g id="text_22">
      <!-- 0.2 -->
      <g transform="translate(402.354375 256.716875) scale(0.1 -0.1)">
       <use xlink:href="#DejaVuSans-30"/>
       <use xlink:href="#DejaVuSans-2e" transform="translate(63.623047 0)"/>
       <use xlink:href="#DejaVuSans-32" transform="translate(95.410156 0)"/>
      </g>
     </g>
    </g>
    <g id="xtick_9">
     <g id="line2d_39">
      <path d="M 461.245938 242.118437 
L 461.245938 20.798437 
" clip-path="url(#p4ef06002bd)" style="fill: none; stroke: #b0b0b0; stroke-opacity: 0.25; stroke-width: 0.8; stroke-linecap: square"/>
     </g>
     <g id="line2d_40">
      <g>
       <use xlink:href="#mdc497c27de" x="461.245938" y="242.118437" style="stroke: #000000; stroke-width: 0.8"/>
      </g>
     </g>
     <g id="text_23">
      <!-- 0.4 -->
      <g transform="translate(453.294375 256.716875) scale(0.1 -0.1)">
       <use xlink:href="#DejaVuSans-30"/>
       <use xlink:href="#DejaVuSans-2e" transform="translate(63.623047 0)"/>
       <use xlink:href="#DejaVuSans-34" transform="translate(95.410156 0)"/>
      </g>
     </g>
    </g>
    <g id="xtick_10">
     <g id="line2d_41">
      <path d="M 512.185938 242.118437 
L 512.185938 20.798437 
" clip-path="url(#p4ef06002bd)" style="fill: none; stroke: #b0b0b0; stroke-opacity: 0.25; stroke-width: 0.8; stroke-linecap: square"/>
     </g>
     <g id="line2d_42">
      <g>
       <use xlink:href="#mdc497c27de" x="512.185938" y="242.118437" style="stroke: #000000; stroke-width: 0.8"/>
      </g>
     </g>
     <g id="text_24">
      <!-- 0.6 -->
      <g transform="translate(504.234375 256.716875) scale(0.1 -0.1)">
       <use xlink:href="#DejaVuSans-30"/>
       <use xlink:href="#DejaVuSans-2e" transform="translate(63.623047 0)"/>
       <use xlink:href="#DejaVuSans-36" transform="translate(95.410156 0)"/>
      </g>
     </g>
    </g>
    <g id="xtick_11">
     <g id="line2d_43">
      <path d="M 563.125938 242.118437 
L 563.125938 20.798437 
" clip-path="url(#p4ef06002bd)" style="fill: none; stroke: #b0b0b0; stroke-opacity: 0.25; stroke-width: 0.8; stroke-linecap: square"/>
     </g>
     <g id="line2d_44">
      <g>
       <use xlink:href="#mdc497c27de" x="563.125938" y="242.118437" style="stroke: #000000; stroke-width: 0.8"/>
      </g>
     </g>
     <g id="text_25">
      <!-- 0.8 -->
      <g transform="translate(555.174375 256.716875) scale(0.1 -0.1)">
       <use xlink:href="#DejaVuSans-30"/>
       <use xlink:href="#DejaVuSans-2e" transform="translate(63.623047 0)"/>
       <use xlink:href="#DejaVuSans-38" transform="translate(95.410156 0)"/>
      </g>
     </g>
    </g>
    <g id="xtick_12">
     <g id="line2d_45">
      <path d="M 614.065938 242.118437 
L 614.065938 20.798437 
" clip-path="url(#p4ef06002bd)" style="fill: none; stroke: #b0b0b0; stroke-opacity: 0.25; stroke-width: 0.8; stroke-linecap: square"/>
     </g>
     <g id="line2d_46">
      <g>
       <use xlink:href="#mdc497c27de" x="614.065938" y="242.118437" style="stroke: #000000; stroke-width: 0.8"/>
      </g>
     </g>
     <g id="text_26">
      <!-- 1.0 -->
      <g transform="translate(606.114375 256.716875) scale(0.1 -0.1)">
       <use xlink:href="#DejaVuSans-31"/>
       <use xlink:href="#DejaVuSans-2e" transform="translate(63.623047 0)"/>
       <use xlink:href="#DejaVuSans-30" transform="translate(95.410156 0)"/>
      </g>
     </g>
    </g>
    <g id="text_27">
     <!-- x -->
     <g transform="translate(483.756563 270.395) scale(0.1 -0.1)">
      <use xlink:href="#DejaVuSans-78"/>
     </g>
    </g>
   </g>
   <g id="matplotlib.axis_4">
    <g id="ytick_10">
     <g id="line2d_47">
      <path d="M 346.630938 242.118438 
L 626.800938 242.118438 
" clip-path="url(#p4ef06002bd)" style="fill: none; stroke: #b0b0b0; stroke-opacity: 0.25; stroke-width: 0.8; stroke-linecap: square"/>
     </g>
     <g id="line2d_48">
      <g>
       <use xlink:href="#md587b08c30" x="346.630938" y="242.118438" style="stroke: #000000; stroke-width: 0.8"/>
      </g>
     </g>
    </g>
    <g id="ytick_11">
     <g id="line2d_49">
      <path d="M 346.630938 214.453438 
L 626.800938 214.453438 
" clip-path="url(#p4ef06002bd)" style="fill: none; stroke: #b0b0b0; stroke-opacity: 0.25; stroke-width: 0.8; stroke-linecap: square"/>
     </g>
     <g id="line2d_50">
      <g>
       <use xlink:href="#md587b08c30" x="346.630938" y="214.453438" style="stroke: #000000; stroke-width: 0.8"/>
      </g>
     </g>
    </g>
    <g id="ytick_12">
     <g id="line2d_51">
      <path d="M 346.630938 186.788438 
L 626.800938 186.788438 
" clip-path="url(#p4ef06002bd)" style="fill: none; stroke: #b0b0b0; stroke-opacity: 0.25; stroke-width: 0.8; stroke-linecap: square"/>
     </g>
     <g id="line2d_52">
      <g>
       <use xlink:href="#md587b08c30" x="346.630938" y="186.788438" style="stroke: #000000; stroke-width: 0.8"/>
      </g>
     </g>
    </g>
    <g id="ytick_13">
     <g id="line2d_53">
      <path d="M 346.630938 159.123437 
L 626.800938 159.123437 
" clip-path="url(#p4ef06002bd)" style="fill: none; stroke: #b0b0b0; stroke-opacity: 0.25; stroke-width: 0.8; stroke-linecap: square"/>
     </g>
     <g id="line2d_54">
      <g>
       <use xlink:href="#md587b08c30" x="346.630938" y="159.123437" style="stroke: #000000; stroke-width: 0.8"/>
      </g>
     </g>
    </g>
    <g id="ytick_14">
     <g id="line2d_55">
      <path d="M 346.630938 131.458438 
L 626.800938 131.458438 
" clip-path="url(#p4ef06002bd)" style="fill: none; stroke: #b0b0b0; stroke-opacity: 0.25; stroke-width: 0.8; stroke-linecap: square"/>
     </g>
     <g id="line2d_56">
      <g>
       <use xlink:href="#md587b08c30" x="346.630938" y="131.458438" style="stroke: #000000; stroke-width: 0.8"/>
      </g>
     </g>
    </g>
    <g id="ytick_15">
     <g id="line2d_57">
      <path d="M 346.630938 103.793437 
L 626.800938 103.793437 
" clip-path="url(#p4ef06002bd)" style="fill: none; stroke: #b0b0b0; stroke-opacity: 0.25; stroke-width: 0.8; stroke-linecap: square"/>
     </g>
     <g id="line2d_58">
      <g>
       <use xlink:href="#md587b08c30" x="346.630938" y="103.793437" style="stroke: #000000; stroke-width: 0.8"/>
      </g>
     </g>
    </g>
    <g id="ytick_16">
     <g id="line2d_59">
      <path d="M 346.630938 76.128437 
L 626.800938 76.128437 
" clip-path="url(#p4ef06002bd)" style="fill: none; stroke: #b0b0b0; stroke-opacity: 0.25; stroke-width: 0.8; stroke-linecap: square"/>
     </g>
     <g id="line2d_60">
      <g>
       <use xlink:href="#md587b08c30" x="346.630938" y="76.128437" style="stroke: #000000; stroke-width: 0.8"/>
      </g>
     </g>
    </g>
    <g id="ytick_17">
     <g id="line2d_61">
      <path d="M 346.630938 48.463437 
L 626.800938 48.463437 
" clip-path="url(#p4ef06002bd)" style="fill: none; stroke: #b0b0b0; stroke-opacity: 0.25; stroke-width: 0.8; stroke-linecap: square"/>
     </g>
     <g id="line2d_62">
      <g>
       <use xlink:href="#md587b08c30" x="346.630938" y="48.463437" style="stroke: #000000; stroke-width: 0.8"/>
      </g>
     </g>
    </g>
    <g id="ytick_18">
     <g id="line2d_63">
      <path d="M 346.630938 20.798437 
L 626.800938 20.798437 
" clip-path="url(#p4ef06002bd)" style="fill: none; stroke: #b0b0b0; stroke-opacity: 0.25; stroke-width: 0.8; stroke-linecap: square"/>
     </g>
     <g id="line2d_64">
      <g>
       <use xlink:href="#md587b08c30" x="346.630938" y="20.798437" style="stroke: #000000; stroke-width: 0.8"/>
      </g>
     </g>
    </g>
   </g>
   <g id="line2d_65">
    <path d="M 359.365938 131.458438 
L 370.217817 116.822627 
L 375.96293 109.43228 
L 381.069697 103.229454 
L 385.538118 98.165811 
L 389.368193 94.144997 
L 393.198268 90.457041 
L 396.389998 87.661841 
L 399.581727 85.138016 
L 402.773456 82.901205 
L 405.965186 80.965267 
L 408.518569 79.641271 
L 411.071953 78.522799 
L 413.625336 77.614288 
L 416.178719 76.919342 
L 418.732103 76.440717 
L 421.285486 76.180311 
L 423.83887 76.139156 
L 426.392253 76.317418 
L 428.945637 76.714387 
L 431.49902 77.32849 
L 434.052404 78.157291 
L 436.605787 79.197503 
L 439.159171 80.444999 
L 442.3509 82.288249 
L 445.542629 84.436171 
L 448.734359 86.875454 
L 451.926088 89.590986 
L 455.117817 92.565938 
L 458.947892 96.452257 
L 462.777968 100.650852 
L 467.246389 105.893787 
L 472.353156 112.261807 
L 478.736614 120.637386 
L 488.950148 134.506443 
L 497.88699 146.513922 
L 503.632103 153.883551 
L 508.73887 160.061227 
L 513.207291 165.097988 
L 517.037366 169.092395 
L 520.867441 172.751085 
L 524.059171 175.5199 
L 527.2509 178.015698 
L 530.442629 180.223016 
L 533.634359 182.128176 
L 536.187742 183.426752 
L 538.741125 184.519204 
L 541.294509 185.401199 
L 543.847892 186.069238 
L 546.401276 186.520672 
L 548.954659 186.753711 
L 551.508043 186.767429 
L 554.061426 186.561773 
L 556.61481 186.137558 
L 559.168193 185.496467 
L 561.721577 184.641043 
L 564.27496 183.574678 
L 566.828344 182.301602 
L 570.020073 180.427339 
L 573.211802 178.249652 
L 576.403531 175.782034 
L 579.595261 173.039776 
L 583.425336 169.410579 
L 587.255411 165.442827 
L 591.085486 161.171914 
L 595.553907 155.856984 
L 600.660674 149.424059 
L 607.044133 140.994878 
L 614.065938 131.458438 
L 614.065938 131.458438 
" clip-path="url(#p4ef06002bd)" style="fill: none; stroke-dasharray: 1.5,2.475; stroke-dashoffset: 0; stroke: #59a14f; stroke-width: 1.5"/>
   </g>
   <g id="line2d_66">
    <path d="M 359.365938 144.294411 
L 362.557667 136.284164 
L 365.749396 128.87179 
L 368.941125 122.041343 
L 372.132855 115.776881 
L 375.324584 110.062459 
L 378.516313 104.882131 
L 381.069697 101.111703 
L 383.62308 97.664728 
L 386.176464 94.533042 
L 388.729847 91.708482 
L 391.283231 89.182884 
L 393.836614 86.948085 
L 396.389998 84.995921 
L 398.943381 83.318229 
L 401.496765 81.906846 
L 404.050148 80.753606 
L 406.603531 79.850348 
L 409.156915 79.188908 
L 411.710298 78.761121 
L 414.263682 78.558825 
L 416.817065 78.573856 
L 419.370449 78.79805 
L 421.923832 79.223244 
L 424.477216 79.841274 
L 427.668945 80.872552 
L 430.860674 82.176436 
L 434.052404 83.736982 
L 437.244133 85.538247 
L 440.435862 87.564285 
L 444.265938 90.269782 
L 448.096013 93.248441 
L 452.564434 97.032033 
L 457.032855 101.106176 
L 462.139622 106.061991 
L 467.884734 111.941277 
L 475.544885 120.125657 
L 498.525336 144.952844 
L 504.270449 150.733101 
L 509.377216 155.574638 
L 513.845637 159.528518 
L 518.314058 163.172929 
L 522.144133 166.017234 
L 525.974208 168.574477 
L 529.165938 170.466354 
L 532.357667 172.123805 
L 535.549396 173.530886 
L 538.741125 174.671652 
L 541.932855 175.53016 
L 544.486238 176.003026 
L 547.039622 176.276878 
L 549.593005 176.343553 
L 552.146389 176.194887 
L 554.699772 175.822717 
L 557.253156 175.21888 
L 559.806539 174.375211 
L 562.359922 173.283547 
L 564.913306 171.935725 
L 567.466689 170.323582 
L 570.020073 168.438953 
L 572.573456 166.273674 
L 575.12684 163.819584 
L 577.680223 161.068517 
L 580.233607 158.012311 
L 582.78699 154.642802 
L 585.340374 150.951827 
L 587.893757 146.931221 
L 591.085486 141.429484 
L 594.277216 135.384001 
L 597.468945 128.778826 
L 600.660674 121.598015 
L 603.852404 113.825624 
L 607.044133 105.445708 
L 610.235862 96.442323 
L 613.427592 86.799525 
L 614.065938 84.792832 
L 614.065938 84.792832 
" clip-path="url(#p4ef06002bd)" style="fill: none; stroke: #e15759; stroke-width: 2; stroke-linecap: square"/>
   </g>
   <g id="patch_9">
    <path d="M 346.630938 242.118438 
L 346.630938 20.798437 
" style="fill: none; stroke: #000000; stroke-width: 0.8; stroke-linejoin: miter; stroke-linecap: square"/>
   </g>
   <g id="patch_10">
    <path d="M 626.800938 242.118438 
L 626.800938 20.798437 
" style="fill: none; stroke: #000000; stroke-width: 0.8; stroke-linejoin: miter; stroke-linecap: square"/>
   </g>
   <g id="patch_11">
    <path d="M 346.630938 242.118437 
L 626.800938 242.118437 
" style="fill: none; stroke: #000000; stroke-width: 0.8; stroke-linejoin: miter; stroke-linecap: square"/>
   </g>
   <g id="patch_12">
    <path d="M 346.630938 20.798437 
L 626.800938 20.798437 
" style="fill: none; stroke: #000000; stroke-width: 0.8; stroke-linejoin: miter; stroke-linecap: square"/>
   </g>
   <g id="text_28">
    <!-- degree=3 (just right) -->
    <g transform="translate(433.87375 14.798437) scale(0.1 -0.1)">
     <defs>
      <path id="DejaVuSans-33" d="M 2597 2516 
Q 3050 2419 3304 2112 
Q 3559 1806 3559 1356 
Q 3559 666 3084 287 
Q 2609 -91 1734 -91 
Q 1441 -91 1130 -33 
Q 819 25 488 141 
L 488 750 
Q 750 597 1062 519 
Q 1375 441 1716 441 
Q 2309 441 2620 675 
Q 2931 909 2931 1356 
Q 2931 1769 2642 2001 
Q 2353 2234 1838 2234 
L 1294 2234 
L 1294 2753 
L 1863 2753 
Q 2328 2753 2575 2939 
Q 2822 3125 2822 3475 
Q 2822 3834 2567 4026 
Q 2313 4219 1838 4219 
Q 1578 4219 1281 4162 
Q 984 4106 628 3988 
L 628 4550 
Q 988 4650 1302 4700 
Q 1616 4750 1894 4750 
Q 2613 4750 3031 4423 
Q 3450 4097 3450 3541 
Q 3450 3153 3228 2886 
Q 3006 2619 2597 2516 
z
" transform="scale(0.015625)"/>
      <path id="DejaVuSans-6a" d="M 603 3500 
L 1178 3500 
L 1178 -63 
Q 1178 -731 923 -1031 
Q 669 -1331 103 -1331 
L -116 -1331 
L -116 -844 
L 38 -844 
Q 366 -844 484 -692 
Q 603 -541 603 -63 
L 603 3500 
z
M 603 4863 
L 1178 4863 
L 1178 4134 
L 603 4134 
L 603 4863 
z
" transform="scale(0.015625)"/>
      <path id="DejaVuSans-73" d="M 2834 3397 
L 2834 2853 
Q 2591 2978 2328 3040 
Q 2066 3103 1784 3103 
Q 1356 3103 1142 2972 
Q 928 2841 928 2578 
Q 928 2378 1081 2264 
Q 1234 2150 1697 2047 
L 1894 2003 
Q 2506 1872 2764 1633 
Q 3022 1394 3022 966 
Q 3022 478 2636 193 
Q 2250 -91 1575 -91 
Q 1294 -91 989 -36 
Q 684 19 347 128 
L 347 722 
Q 666 556 975 473 
Q 1284 391 1588 391 
Q 1994 391 2212 530 
Q 2431 669 2431 922 
Q 2431 1156 2273 1281 
Q 2116 1406 1581 1522 
L 1381 1569 
Q 847 1681 609 1914 
Q 372 2147 372 2553 
Q 372 3047 722 3315 
Q 1072 3584 1716 3584 
Q 2034 3584 2315 3537 
Q 2597 3491 2834 3397 
z
" transform="scale(0.015625)"/>
      <path id="DejaVuSans-68" d="M 3513 2113 
L 3513 0 
L 2938 0 
L 2938 2094 
Q 2938 2591 2744 2837 
Q 2550 3084 2163 3084 
Q 1697 3084 1428 2787 
Q 1159 2491 1159 1978 
L 1159 0 
L 581 0 
L 581 4863 
L 1159 4863 
L 1159 2956 
Q 1366 3272 1645 3428 
Q 1925 3584 2291 3584 
Q 2894 3584 3203 3211 
Q 3513 2838 3513 2113 
z
" transform="scale(0.015625)"/>
     </defs>
     <use xlink:href="#DejaVuSans-64"/>
     <use xlink:href="#DejaVuSans-65" transform="translate(63.476562 0)"/>
     <use xlink:href="#DejaVuSans-67" transform="translate(125 0)"/>
     <use xlink:href="#DejaVuSans-72" transform="translate(188.476562 0)"/>
     <use xlink:href="#DejaVuSans-65" transform="translate(227.339844 0)"/>
     <use xlink:href="#DejaVuSans-65" transform="translate(288.863281 0)"/>
     <use xlink:href="#DejaVuSans-3d" transform="translate(350.386719 0)"/>
     <use xlink:href="#DejaVuSans-33" transform="translate(434.175781 0)"/>
     <use xlink:href="#DejaVuSans-20" transform="translate(497.798828 0)"/>
     <use xlink:href="#DejaVuSans-28" transform="translate(529.585938 0)"/>
     <use xlink:href="#DejaVuSans-6a" transform="translate(568.599609 0)"/>
     <use xlink:href="#DejaVuSans-75" transform="translate(596.382812 0)"/>
     <use xlink:href="#DejaVuSans-73" transform="translate(659.761719 0)"/>
     <use xlink:href="#DejaVuSans-74" transform="translate(711.861328 0)"/>
     <use xlink:href="#DejaVuSans-20" transform="translate(751.070312 0)"/>
     <use xlink:href="#DejaVuSans-72" transform="translate(782.857422 0)"/>
     <use xlink:href="#DejaVuSans-69" transform="translate(823.970703 0)"/>
     <use xlink:href="#DejaVuSans-67" transform="translate(851.753906 0)"/>
     <use xlink:href="#DejaVuSans-68" transform="translate(915.230469 0)"/>
     <use xlink:href="#DejaVuSans-74" transform="translate(978.609375 0)"/>
     <use xlink:href="#DejaVuSans-29" transform="translate(1017.818359 0)"/>
    </g>
   </g>
   <g id="legend_2">
    <g id="patch_13">
     <path d="M 522.148438 50.683437 
L 621.200938 50.683437 
Q 622.800938 50.683437 622.800938 49.083437 
L 622.800938 26.398437 
Q 622.800938 24.798437 621.200938 24.798437 
L 522.148438 24.798437 
Q 520.548438 24.798437 520.548438 26.398437 
L 520.548438 49.083437 
Q 520.548438 50.683437 522.148438 50.683437 
z
" style="fill: #ffffff; opacity: 0.8; stroke: #cccccc; stroke-linejoin: miter"/>
    </g>
    <g id="line2d_67">
     <path d="M 523.748438 31.277187 
L 531.748438 31.277187 
L 539.748438 31.277187 
" style="fill: none; stroke-dasharray: 1.5,2.475; stroke-dashoffset: 0; stroke: #59a14f; stroke-width: 1.5"/>
    </g>
    <g id="text_29">
     <!-- true -->
     <g transform="translate(546.148438 34.077187) scale(0.08 -0.08)">
      <use xlink:href="#DejaVuSans-74"/>
      <use xlink:href="#DejaVuSans-72" transform="translate(39.208984 0)"/>
      <use xlink:href="#DejaVuSans-75" transform="translate(80.322266 0)"/>
      <use xlink:href="#DejaVuSans-65" transform="translate(143.701172 0)"/>
     </g>
    </g>
    <g id="line2d_68">
     <path d="M 523.748438 43.019687 
L 531.748438 43.019687 
L 539.748438 43.019687 
" style="fill: none; stroke: #e15759; stroke-width: 2; stroke-linecap: square"/>
    </g>
    <g id="text_30">
     <!-- polynomial deg=3 -->
     <g transform="translate(546.148438 45.819687) scale(0.08 -0.08)">
      <use xlink:href="#DejaVuSans-70"/>
      <use xlink:href="#DejaVuSans-6f" transform="translate(63.476562 0)"/>
      <use xlink:href="#DejaVuSans-6c" transform="translate(124.658203 0)"/>
      <use xlink:href="#DejaVuSans-79" transform="translate(152.441406 0)"/>
      <use xlink:href="#DejaVuSans-6e" transform="translate(211.621094 0)"/>
      <use xlink:href="#DejaVuSans-6f" transform="translate(275 0)"/>
      <use xlink:href="#DejaVuSans-6d" transform="translate(336.181641 0)"/>
      <use xlink:href="#DejaVuSans-69" transform="translate(433.59375 0)"/>
      <use xlink:href="#DejaVuSans-61" transform="translate(461.376953 0)"/>
      <use xlink:href="#DejaVuSans-6c" transform="translate(522.65625 0)"/>
      <use xlink:href="#DejaVuSans-20" transform="translate(550.439453 0)"/>
      <use xlink:href="#DejaVuSans-64" transform="translate(582.226562 0)"/>
      <use xlink:href="#DejaVuSans-65" transform="translate(645.703125 0)"/>
      <use xlink:href="#DejaVuSans-67" transform="translate(707.226562 0)"/>
      <use xlink:href="#DejaVuSans-3d" transform="translate(770.703125 0)"/>
      <use xlink:href="#DejaVuSans-33" transform="translate(854.492188 0)"/>
     </g>
    </g>
   </g>
  </g>
  <g id="axes_3">
   <g id="patch_14">
    <path d="M 641.100937 242.118437 
L 921.270937 242.118437 
L 921.270937 20.798437 
L 641.100937 20.798437 
z
" style="fill: #ffffff"/>
   </g>
   <g id="PathCollection_3">
    <g clip-path="url(#pea238b7040)">
     <use xlink:href="#ma276dc7323" x="654.533433" y="129.206023" style="fill: #7aa6c2; fill-opacity: 0.7; stroke: #7aa6c2; stroke-opacity: 0.7"/>
     <use xlink:href="#ma276dc7323" x="658.045526" y="136.007402" style="fill: #7aa6c2; fill-opacity: 0.7; stroke: #7aa6c2; stroke-opacity: 0.7"/>
     <use xlink:href="#ma276dc7323" x="661.048958" y="134.41478" style="fill: #7aa6c2; fill-opacity: 0.7; stroke: #7aa6c2; stroke-opacity: 0.7"/>
     <use xlink:href="#ma276dc7323" x="662.390184" y="126.200415" style="fill: #7aa6c2; fill-opacity: 0.7; stroke: #7aa6c2; stroke-opacity: 0.7"/>
     <use xlink:href="#ma276dc7323" x="664.271894" y="114.325025" style="fill: #7aa6c2; fill-opacity: 0.7; stroke: #7aa6c2; stroke-opacity: 0.7"/>
     <use xlink:href="#ma276dc7323" x="685.490888" y="106.476347" style="fill: #7aa6c2; fill-opacity: 0.7; stroke: #7aa6c2; stroke-opacity: 0.7"/>
     <use xlink:href="#ma276dc7323" x="698.575424" y="84.94941" style="fill: #7aa6c2; fill-opacity: 0.7; stroke: #7aa6c2; stroke-opacity: 0.7"/>
     <use xlink:href="#ma276dc7323" x="722.550613" y="78.757967" style="fill: #7aa6c2; fill-opacity: 0.7; stroke: #7aa6c2; stroke-opacity: 0.7"/>
     <use xlink:href="#ma276dc7323" x="730.172556" y="71.324369" style="fill: #7aa6c2; fill-opacity: 0.7; stroke: #7aa6c2; stroke-opacity: 0.7"/>
     <use xlink:href="#ma276dc7323" x="761.494373" y="102.656148" style="fill: #7aa6c2; fill-opacity: 0.7; stroke: #7aa6c2; stroke-opacity: 0.7"/>
     <use xlink:href="#ma276dc7323" x="791.74611" y="140.794201" style="fill: #7aa6c2; fill-opacity: 0.7; stroke: #7aa6c2; stroke-opacity: 0.7"/>
     <use xlink:href="#ma276dc7323" x="792.297223" y="155.47949" style="fill: #7aa6c2; fill-opacity: 0.7; stroke: #7aa6c2; stroke-opacity: 0.7"/>
     <use xlink:href="#ma276dc7323" x="808.34607" y="167.611008" style="fill: #7aa6c2; fill-opacity: 0.7; stroke: #7aa6c2; stroke-opacity: 0.7"/>
     <use xlink:href="#ma276dc7323" x="810.574525" y="157.304803" style="fill: #7aa6c2; fill-opacity: 0.7; stroke: #7aa6c2; stroke-opacity: 0.7"/>
     <use xlink:href="#ma276dc7323" x="816.070079" y="152.752033" style="fill: #7aa6c2; fill-opacity: 0.7; stroke: #7aa6c2; stroke-opacity: 0.7"/>
     <use xlink:href="#ma276dc7323" x="818.675106" y="193.05612" style="fill: #7aa6c2; fill-opacity: 0.7; stroke: #7aa6c2; stroke-opacity: 0.7"/>
     <use xlink:href="#ma276dc7323" x="824.643976" y="159.10734" style="fill: #7aa6c2; fill-opacity: 0.7; stroke: #7aa6c2; stroke-opacity: 0.7"/>
     <use xlink:href="#ma276dc7323" x="839.638712" y="167.713112" style="fill: #7aa6c2; fill-opacity: 0.7; stroke: #7aa6c2; stroke-opacity: 0.7"/>
     <use xlink:href="#ma276dc7323" x="839.67918" y="175.529512" style="fill: #7aa6c2; fill-opacity: 0.7; stroke: #7aa6c2; stroke-opacity: 0.7"/>
     <use xlink:href="#ma276dc7323" x="860.975867" y="178.815539" style="fill: #7aa6c2; fill-opacity: 0.7; stroke: #7aa6c2; stroke-opacity: 0.7"/>
     <use xlink:href="#ma276dc7323" x="861.633838" y="186.46156" style="fill: #7aa6c2; fill-opacity: 0.7; stroke: #7aa6c2; stroke-opacity: 0.7"/>
     <use xlink:href="#ma276dc7323" x="872.216807" y="154.49238" style="fill: #7aa6c2; fill-opacity: 0.7; stroke: #7aa6c2; stroke-opacity: 0.7"/>
     <use xlink:href="#ma276dc7323" x="873.687609" y="146.262757" style="fill: #7aa6c2; fill-opacity: 0.7; stroke: #7aa6c2; stroke-opacity: 0.7"/>
     <use xlink:href="#ma276dc7323" x="886.314783" y="135.371373" style="fill: #7aa6c2; fill-opacity: 0.7; stroke: #7aa6c2; stroke-opacity: 0.7"/>
     <use xlink:href="#ma276dc7323" x="891.998884" y="135.218348" style="fill: #7aa6c2; fill-opacity: 0.7; stroke: #7aa6c2; stroke-opacity: 0.7"/>
    </g>
   </g>
   <g id="matplotlib.axis_5">
    <g id="xtick_13">
     <g id="line2d_69">
      <path d="M 653.835938 242.118437 
L 653.835938 20.798437 
" clip-path="url(#pea238b7040)" style="fill: none; stroke: #b0b0b0; stroke-opacity: 0.25; stroke-width: 0.8; stroke-linecap: square"/>
     </g>
     <g id="line2d_70">
      <g>
       <use xlink:href="#mdc497c27de" x="653.835938" y="242.118437" style="stroke: #000000; stroke-width: 0.8"/>
      </g>
     </g>
     <g id="text_31">
      <!-- 0.0 -->
      <g transform="translate(645.884375 256.716875) scale(0.1 -0.1)">
       <use xlink:href="#DejaVuSans-30"/>
       <use xlink:href="#DejaVuSans-2e" transform="translate(63.623047 0)"/>
       <use xlink:href="#DejaVuSans-30" transform="translate(95.410156 0)"/>
      </g>
     </g>
    </g>
    <g id="xtick_14">
     <g id="line2d_71">
      <path d="M 704.775938 242.118437 
L 704.775938 20.798437 
" clip-path="url(#pea238b7040)" style="fill: none; stroke: #b0b0b0; stroke-opacity: 0.25; stroke-width: 0.8; stroke-linecap: square"/>
     </g>
     <g id="line2d_72">
      <g>
       <use xlink:href="#mdc497c27de" x="704.775938" y="242.118437" style="stroke: #000000; stroke-width: 0.8"/>
      </g>
     </g>
     <g id="text_32">
      <!-- 0.2 -->
      <g transform="translate(696.824375 256.716875) scale(0.1 -0.1)">
       <use xlink:href="#DejaVuSans-30"/>
       <use xlink:href="#DejaVuSans-2e" transform="translate(63.623047 0)"/>
       <use xlink:href="#DejaVuSans-32" transform="translate(95.410156 0)"/>
      </g>
     </g>
    </g>
    <g id="xtick_15">
     <g id="line2d_73">
      <path d="M 755.715937 242.118437 
L 755.715937 20.798437 
" clip-path="url(#pea238b7040)" style="fill: none; stroke: #b0b0b0; stroke-opacity: 0.25; stroke-width: 0.8; stroke-linecap: square"/>
     </g>
     <g id="line2d_74">
      <g>
       <use xlink:href="#mdc497c27de" x="755.715937" y="242.118437" style="stroke: #000000; stroke-width: 0.8"/>
      </g>
     </g>
     <g id="text_33">
      <!-- 0.4 -->
      <g transform="translate(747.764375 256.716875) scale(0.1 -0.1)">
       <use xlink:href="#DejaVuSans-30"/>
       <use xlink:href="#DejaVuSans-2e" transform="translate(63.623047 0)"/>
       <use xlink:href="#DejaVuSans-34" transform="translate(95.410156 0)"/>
      </g>
     </g>
    </g>
    <g id="xtick_16">
     <g id="line2d_75">
      <path d="M 806.655937 242.118437 
L 806.655937 20.798437 
" clip-path="url(#pea238b7040)" style="fill: none; stroke: #b0b0b0; stroke-opacity: 0.25; stroke-width: 0.8; stroke-linecap: square"/>
     </g>
     <g id="line2d_76">
      <g>
       <use xlink:href="#mdc497c27de" x="806.655937" y="242.118437" style="stroke: #000000; stroke-width: 0.8"/>
      </g>
     </g>
     <g id="text_34">
      <!-- 0.6 -->
      <g transform="translate(798.704375 256.716875) scale(0.1 -0.1)">
       <use xlink:href="#DejaVuSans-30"/>
       <use xlink:href="#DejaVuSans-2e" transform="translate(63.623047 0)"/>
       <use xlink:href="#DejaVuSans-36" transform="translate(95.410156 0)"/>
      </g>
     </g>
    </g>
    <g id="xtick_17">
     <g id="line2d_77">
      <path d="M 857.595937 242.118437 
L 857.595937 20.798437 
" clip-path="url(#pea238b7040)" style="fill: none; stroke: #b0b0b0; stroke-opacity: 0.25; stroke-width: 0.8; stroke-linecap: square"/>
     </g>
     <g id="line2d_78">
      <g>
       <use xlink:href="#mdc497c27de" x="857.595937" y="242.118437" style="stroke: #000000; stroke-width: 0.8"/>
      </g>
     </g>
     <g id="text_35">
      <!-- 0.8 -->
      <g transform="translate(849.644375 256.716875) scale(0.1 -0.1)">
       <use xlink:href="#DejaVuSans-30"/>
       <use xlink:href="#DejaVuSans-2e" transform="translate(63.623047 0)"/>
       <use xlink:href="#DejaVuSans-38" transform="translate(95.410156 0)"/>
      </g>
     </g>
    </g>
    <g id="xtick_18">
     <g id="line2d_79">
      <path d="M 908.535938 242.118437 
L 908.535938 20.798437 
" clip-path="url(#pea238b7040)" style="fill: none; stroke: #b0b0b0; stroke-opacity: 0.25; stroke-width: 0.8; stroke-linecap: square"/>
     </g>
     <g id="line2d_80">
      <g>
       <use xlink:href="#mdc497c27de" x="908.535938" y="242.118437" style="stroke: #000000; stroke-width: 0.8"/>
      </g>
     </g>
     <g id="text_36">
      <!-- 1.0 -->
      <g transform="translate(900.584375 256.716875) scale(0.1 -0.1)">
       <use xlink:href="#DejaVuSans-31"/>
       <use xlink:href="#DejaVuSans-2e" transform="translate(63.623047 0)"/>
       <use xlink:href="#DejaVuSans-30" transform="translate(95.410156 0)"/>
      </g>
     </g>
    </g>
    <g id="text_37">
     <!-- x -->
     <g transform="translate(778.226562 270.395) scale(0.1 -0.1)">
      <use xlink:href="#DejaVuSans-78"/>
     </g>
    </g>
   </g>
   <g id="matplotlib.axis_6">
    <g id="ytick_19">
     <g id="line2d_81">
      <path d="M 641.100937 242.118438 
L 921.270937 242.118438 
" clip-path="url(#pea238b7040)" style="fill: none; stroke: #b0b0b0; stroke-opacity: 0.25; stroke-width: 0.8; stroke-linecap: square"/>
     </g>
     <g id="line2d_82">
      <g>
       <use xlink:href="#md587b08c30" x="641.100937" y="242.118438" style="stroke: #000000; stroke-width: 0.8"/>
      </g>
     </g>
    </g>
    <g id="ytick_20">
     <g id="line2d_83">
      <path d="M 641.100937 214.453438 
L 921.270937 214.453438 
" clip-path="url(#pea238b7040)" style="fill: none; stroke: #b0b0b0; stroke-opacity: 0.25; stroke-width: 0.8; stroke-linecap: square"/>
     </g>
     <g id="line2d_84">
      <g>
       <use xlink:href="#md587b08c30" x="641.100937" y="214.453438" style="stroke: #000000; stroke-width: 0.8"/>
      </g>
     </g>
    </g>
    <g id="ytick_21">
     <g id="line2d_85">
      <path d="M 641.100937 186.788438 
L 921.270937 186.788438 
" clip-path="url(#pea238b7040)" style="fill: none; stroke: #b0b0b0; stroke-opacity: 0.25; stroke-width: 0.8; stroke-linecap: square"/>
     </g>
     <g id="line2d_86">
      <g>
       <use xlink:href="#md587b08c30" x="641.100937" y="186.788438" style="stroke: #000000; stroke-width: 0.8"/>
      </g>
     </g>
    </g>
    <g id="ytick_22">
     <g id="line2d_87">
      <path d="M 641.100937 159.123437 
L 921.270937 159.123437 
" clip-path="url(#pea238b7040)" style="fill: none; stroke: #b0b0b0; stroke-opacity: 0.25; stroke-width: 0.8; stroke-linecap: square"/>
     </g>
     <g id="line2d_88">
      <g>
       <use xlink:href="#md587b08c30" x="641.100937" y="159.123437" style="stroke: #000000; stroke-width: 0.8"/>
      </g>
     </g>
    </g>
    <g id="ytick_23">
     <g id="line2d_89">
      <path d="M 641.100937 131.458438 
L 921.270937 131.458438 
" clip-path="url(#pea238b7040)" style="fill: none; stroke: #b0b0b0; stroke-opacity: 0.25; stroke-width: 0.8; stroke-linecap: square"/>
     </g>
     <g id="line2d_90">
      <g>
       <use xlink:href="#md587b08c30" x="641.100937" y="131.458438" style="stroke: #000000; stroke-width: 0.8"/>
      </g>
     </g>
    </g>
    <g id="ytick_24">
     <g id="line2d_91">
      <path d="M 641.100937 103.793437 
L 921.270937 103.793437 
" clip-path="url(#pea238b7040)" style="fill: none; stroke: #b0b0b0; stroke-opacity: 0.25; stroke-width: 0.8; stroke-linecap: square"/>
     </g>
     <g id="line2d_92">
      <g>
       <use xlink:href="#md587b08c30" x="641.100937" y="103.793437" style="stroke: #000000; stroke-width: 0.8"/>
      </g>
     </g>
    </g>
    <g id="ytick_25">
     <g id="line2d_93">
      <path d="M 641.100937 76.128437 
L 921.270937 76.128437 
" clip-path="url(#pea238b7040)" style="fill: none; stroke: #b0b0b0; stroke-opacity: 0.25; stroke-width: 0.8; stroke-linecap: square"/>
     </g>
     <g id="line2d_94">
      <g>
       <use xlink:href="#md587b08c30" x="641.100937" y="76.128437" style="stroke: #000000; stroke-width: 0.8"/>
      </g>
     </g>
    </g>
    <g id="ytick_26">
     <g id="line2d_95">
      <path d="M 641.100937 48.463437 
L 921.270937 48.463437 
" clip-path="url(#pea238b7040)" style="fill: none; stroke: #b0b0b0; stroke-opacity: 0.25; stroke-width: 0.8; stroke-linecap: square"/>
     </g>
     <g id="line2d_96">
      <g>
       <use xlink:href="#md587b08c30" x="641.100937" y="48.463437" style="stroke: #000000; stroke-width: 0.8"/>
      </g>
     </g>
    </g>
    <g id="ytick_27">
     <g id="line2d_97">
      <path d="M 641.100937 20.798437 
L 921.270937 20.798437 
" clip-path="url(#pea238b7040)" style="fill: none; stroke: #b0b0b0; stroke-opacity: 0.25; stroke-width: 0.8; stroke-linecap: square"/>
     </g>
     <g id="line2d_98">
      <g>
       <use xlink:href="#md587b08c30" x="641.100937" y="20.798437" style="stroke: #000000; stroke-width: 0.8"/>
      </g>
     </g>
    </g>
   </g>
   <g id="line2d_99">
    <path d="M 653.835938 131.458438 
L 664.687817 116.822627 
L 670.43293 109.43228 
L 675.539697 103.229454 
L 680.008118 98.165811 
L 683.838193 94.144997 
L 687.668268 90.457041 
L 690.859998 87.661841 
L 694.051727 85.138016 
L 697.243456 82.901205 
L 700.435186 80.965267 
L 702.988569 79.641271 
L 705.541953 78.522799 
L 708.095336 77.614288 
L 710.648719 76.919342 
L 713.202103 76.440717 
L 715.755486 76.180311 
L 718.30887 76.139156 
L 720.862253 76.317418 
L 723.415637 76.714387 
L 725.96902 77.32849 
L 728.522404 78.157291 
L 731.075787 79.197503 
L 733.629171 80.444999 
L 736.8209 82.288249 
L 740.012629 84.436171 
L 743.204359 86.875454 
L 746.396088 89.590986 
L 749.587817 92.565938 
L 753.417892 96.452257 
L 757.247968 100.650852 
L 761.716389 105.893787 
L 766.823156 112.261807 
L 773.206614 120.637386 
L 783.420148 134.506443 
L 792.35699 146.513922 
L 798.102103 153.883551 
L 803.20887 160.061227 
L 807.677291 165.097988 
L 811.507366 169.092395 
L 815.337441 172.751085 
L 818.529171 175.5199 
L 821.7209 178.015698 
L 824.912629 180.223016 
L 828.104359 182.128176 
L 830.657742 183.426752 
L 833.211125 184.519204 
L 835.764509 185.401199 
L 838.317892 186.069238 
L 840.871276 186.520672 
L 843.424659 186.753711 
L 845.978043 186.767429 
L 848.531426 186.561773 
L 851.08481 186.137558 
L 853.638193 185.496467 
L 856.191577 184.641043 
L 858.74496 183.574678 
L 861.298344 182.301602 
L 864.490073 180.427339 
L 867.681802 178.249652 
L 870.873531 175.782034 
L 874.065261 173.039776 
L 877.895336 169.410579 
L 881.725411 165.442827 
L 885.555486 161.171914 
L 890.023907 155.856984 
L 895.130674 149.424059 
L 901.514133 140.994878 
L 908.535937 131.458438 
L 908.535937 131.458438 
" clip-path="url(#pea238b7040)" style="fill: none; stroke-dasharray: 1.5,2.475; stroke-dashoffset: 0; stroke: #59a14f; stroke-width: 1.5"/>
   </g>
   <g id="line2d_100">
    <path d="M 653.835938 118.590957 
L 654.474283 127.802582 
L 655.112629 134.12464 
L 655.750975 138.109283 
L 656.389321 140.231333 
L 657.027667 140.89667 
L 657.666013 140.449893 
L 658.304359 139.181317 
L 658.942704 137.333328 
L 660.219396 132.663164 
L 662.77278 122.960549 
L 664.049471 119.070885 
L 665.326163 116.124956 
L 665.964509 115.011925 
L 666.602855 114.127073 
L 667.241201 113.454969 
L 667.879547 112.976482 
L 668.517892 112.669891 
L 669.156238 112.511829 
L 670.43293 112.544319 
L 671.709622 112.881667 
L 674.901351 113.941959 
L 676.178043 114.103247 
L 677.454734 113.979232 
L 678.731426 113.522829 
L 680.008118 112.715134 
L 681.28481 111.561642 
L 682.561501 110.087921 
L 684.476539 107.369938 
L 686.391577 104.207296 
L 693.413381 92.047731 
L 695.328419 89.313927 
L 697.243456 87.023497 
L 699.158494 85.2042 
L 700.435186 84.247904 
L 701.711877 83.48284 
L 703.626915 82.651834 
L 705.541953 82.12754 
L 708.095336 81.741954 
L 713.840449 81.088577 
L 715.755486 80.659046 
L 717.670524 80.041485 
L 719.585562 79.220184 
L 722.138945 77.824286 
L 724.692328 76.158709 
L 731.714133 71.409713 
L 733.629171 70.441035 
L 735.544208 69.765293 
L 736.8209 69.513071 
L 738.097592 69.441155 
L 739.374283 69.56515 
L 740.650975 69.897664 
L 741.927667 70.448078 
L 743.204359 71.222391 
L 744.48105 72.223141 
L 745.757742 73.4494 
L 747.67278 75.701266 
L 749.587817 78.421899 
L 751.502855 81.568334 
L 754.056238 86.328379 
L 756.609622 91.58757 
L 760.439697 100.024516 
L 766.18481 112.735297 
L 769.376539 119.277093 
L 771.929922 124.065332 
L 774.483306 128.399273 
L 777.036689 132.265781 
L 779.590073 135.686955 
L 782.143456 138.714088 
L 784.69684 141.419463 
L 787.888569 144.476433 
L 792.995336 148.993107 
L 803.20887 158.00957 
L 807.677291 161.834883 
L 810.86902 164.270902 
L 813.422404 165.931 
L 815.337441 166.966804 
L 817.252479 167.803733 
L 819.167516 168.434795 
L 821.082554 168.864665 
L 822.997592 169.110806 
L 825.550975 169.207904 
L 830.657742 169.048188 
L 833.211125 169.088042 
L 835.126163 169.301217 
L 837.041201 169.739478 
L 838.956238 170.451009 
L 840.871276 171.465612 
L 842.786313 172.78899 
L 844.701351 174.397738 
L 847.254734 176.884139 
L 852.361501 182.034594 
L 854.276539 183.538867 
L 855.553231 184.256594 
L 856.829922 184.67425 
L 858.106614 184.731192 
L 859.383306 184.37034 
L 860.659998 183.540766 
L 861.936689 182.200562 
L 863.213381 180.319874 
L 864.490073 177.883941 
L 865.766765 174.896094 
L 867.043456 171.380697 
L 868.958494 165.229763 
L 871.511877 155.843882 
L 875.341953 141.423072 
L 876.618644 137.231528 
L 877.895336 133.678911 
L 879.172028 130.958967 
L 879.810374 129.965513 
L 880.448719 129.240431 
L 881.087065 128.797454 
L 881.725411 128.645644 
L 882.363757 128.788602 
L 883.002103 129.223308 
L 883.640449 129.938879 
L 884.278795 130.915329 
L 885.555486 133.515993 
L 888.10887 139.579057 
L 888.747216 140.708636 
L 889.385562 141.402888 
L 890.023907 141.47539 
L 890.662253 140.708398 
L 891.300599 138.850031 
L 891.938945 135.610413 
L 892.577291 130.658064 
L 893.215637 123.615807 
L 893.853983 114.056442 
L 894.492328 101.498075 
L 895.130674 85.399399 
L 895.76902 65.154124 
L 896.407366 40.085567 
L 897.225565 -1 
L 897.225565 -1 
" clip-path="url(#pea238b7040)" style="fill: none; stroke: #e15759; stroke-width: 2; stroke-linecap: square"/>
   </g>
   <g id="patch_15">
    <path d="M 641.100937 242.118438 
L 641.100937 20.798437 
" style="fill: none; stroke: #000000; stroke-width: 0.8; stroke-linejoin: miter; stroke-linecap: square"/>
   </g>
   <g id="patch_16">
    <path d="M 921.270937 242.118438 
L 921.270937 20.798437 
" style="fill: none; stroke: #000000; stroke-width: 0.8; stroke-linejoin: miter; stroke-linecap: square"/>
   </g>
   <g id="patch_17">
    <path d="M 641.100937 242.118437 
L 921.270937 242.118437 
" style="fill: none; stroke: #000000; stroke-width: 0.8; stroke-linejoin: miter; stroke-linecap: square"/>
   </g>
   <g id="patch_18">
    <path d="M 641.100937 20.798437 
L 921.270937 20.798437 
" style="fill: none; stroke: #000000; stroke-width: 0.8; stroke-linejoin: miter; stroke-linecap: square"/>
   </g>
   <g id="text_38">
    <!-- degree=15 (over-fit) -->
    <g transform="translate(729.876562 14.798437) scale(0.1 -0.1)">
     <defs>
      <path id="DejaVuSans-76" d="M 191 3500 
L 800 3500 
L 1894 563 
L 2988 3500 
L 3597 3500 
L 2284 0 
L 1503 0 
L 191 3500 
z
" transform="scale(0.015625)"/>
     </defs>
     <use xlink:href="#DejaVuSans-64"/>
     <use xlink:href="#DejaVuSans-65" transform="translate(63.476562 0)"/>
     <use xlink:href="#DejaVuSans-67" transform="translate(125 0)"/>
     <use xlink:href="#DejaVuSans-72" transform="translate(188.476562 0)"/>
     <use xlink:href="#DejaVuSans-65" transform="translate(227.339844 0)"/>
     <use xlink:href="#DejaVuSans-65" transform="translate(288.863281 0)"/>
     <use xlink:href="#DejaVuSans-3d" transform="translate(350.386719 0)"/>
     <use xlink:href="#DejaVuSans-31" transform="translate(434.175781 0)"/>
     <use xlink:href="#DejaVuSans-35" transform="translate(497.798828 0)"/>
     <use xlink:href="#DejaVuSans-20" transform="translate(561.421875 0)"/>
     <use xlink:href="#DejaVuSans-28" transform="translate(593.208984 0)"/>
     <use xlink:href="#DejaVuSans-6f" transform="translate(632.222656 0)"/>
     <use xlink:href="#DejaVuSans-76" transform="translate(693.404297 0)"/>
     <use xlink:href="#DejaVuSans-65" transform="translate(752.583984 0)"/>
     <use xlink:href="#DejaVuSans-72" transform="translate(814.107422 0)"/>
     <use xlink:href="#DejaVuSans-2d" transform="translate(848.845703 0)"/>
     <use xlink:href="#DejaVuSans-66" transform="translate(884.929688 0)"/>
     <use xlink:href="#DejaVuSans-69" transform="translate(920.134766 0)"/>
     <use xlink:href="#DejaVuSans-74" transform="translate(947.917969 0)"/>
     <use xlink:href="#DejaVuSans-29" transform="translate(987.126953 0)"/>
    </g>
   </g>
   <g id="legend_3">
    <g id="patch_19">
     <path d="M 646.700938 50.683437 
L 750.843438 50.683437 
Q 752.443438 50.683437 752.443438 49.083437 
L 752.443438 26.398437 
Q 752.443438 24.798437 750.843438 24.798437 
L 646.700938 24.798437 
Q 645.100937 24.798437 645.100937 26.398437 
L 645.100937 49.083437 
Q 645.100937 50.683437 646.700938 50.683437 
z
" style="fill: #ffffff; opacity: 0.8; stroke: #cccccc; stroke-linejoin: miter"/>
    </g>
    <g id="line2d_101">
     <path d="M 648.300938 31.277187 
L 656.300938 31.277187 
L 664.300938 31.277187 
" style="fill: none; stroke-dasharray: 1.5,2.475; stroke-dashoffset: 0; stroke: #59a14f; stroke-width: 1.5"/>
    </g>
    <g id="text_39">
     <!-- true -->
     <g transform="translate(670.700938 34.077187) scale(0.08 -0.08)">
      <use xlink:href="#DejaVuSans-74"/>
      <use xlink:href="#DejaVuSans-72" transform="translate(39.208984 0)"/>
      <use xlink:href="#DejaVuSans-75" transform="translate(80.322266 0)"/>
      <use xlink:href="#DejaVuSans-65" transform="translate(143.701172 0)"/>
     </g>
    </g>
    <g id="line2d_102">
     <path d="M 648.300938 43.019687 
L 656.300938 43.019687 
L 664.300938 43.019687 
" style="fill: none; stroke: #e15759; stroke-width: 2; stroke-linecap: square"/>
    </g>
    <g id="text_40">
     <!-- polynomial deg=15 -->
     <g transform="translate(670.700938 45.819687) scale(0.08 -0.08)">
      <use xlink:href="#DejaVuSans-70"/>
      <use xlink:href="#DejaVuSans-6f" transform="translate(63.476562 0)"/>
      <use xlink:href="#DejaVuSans-6c" transform="translate(124.658203 0)"/>
      <use xlink:href="#DejaVuSans-79" transform="translate(152.441406 0)"/>
      <use xlink:href="#DejaVuSans-6e" transform="translate(211.621094 0)"/>
      <use xlink:href="#DejaVuSans-6f" transform="translate(275 0)"/>
      <use xlink:href="#DejaVuSans-6d" transform="translate(336.181641 0)"/>
      <use xlink:href="#DejaVuSans-69" transform="translate(433.59375 0)"/>
      <use xlink:href="#DejaVuSans-61" transform="translate(461.376953 0)"/>
      <use xlink:href="#DejaVuSans-6c" transform="translate(522.65625 0)"/>
      <use xlink:href="#DejaVuSans-20" transform="translate(550.439453 0)"/>
      <use xlink:href="#DejaVuSans-64" transform="translate(582.226562 0)"/>
      <use xlink:href="#DejaVuSans-65" transform="translate(645.703125 0)"/>
      <use xlink:href="#DejaVuSans-67" transform="translate(707.226562 0)"/>
      <use xlink:href="#DejaVuSans-3d" transform="translate(770.703125 0)"/>
      <use xlink:href="#DejaVuSans-31" transform="translate(854.492188 0)"/>
      <use xlink:href="#DejaVuSans-35" transform="translate(918.115234 0)"/>
     </g>
    </g>
   </g>
  </g>
 </g>
 <defs>
  <clipPath id="p0833651026">
   <rect x="52.160938" y="20.798437" width="280.17" height="221.32"/>
  </clipPath>
  <clipPath id="p4ef06002bd">
   <rect x="346.630938" y="20.798437" width="280.17" height="221.32"/>
  </clipPath>
  <clipPath id="pea238b7040">
   <rect x="641.100937" y="20.798437" width="280.17" height="221.32"/>
  </clipPath>
 </defs>
</svg>
