<?xml version="1.0" encoding="utf-8" standalone="no"?>
<!DOCTYPE svg PUBLIC "-//W3C//DTD SVG 1.1//EN"
  "http://www.w3.org/Graphics/SVG/1.1/DTD/svg11.dtd">
<svg xmlns:xlink="http://www.w3.org/1999/xlink" width="496.370625pt" height="315.034375pt" viewBox="0 0 496.370625 315.034375" xmlns="http://www.w3.org/2000/svg" version="1.1">
 <metadata>
  <rdf:RDF xmlns:dc="http://purl.org/dc/elements/1.1/" xmlns:cc="http://creativecommons.org/ns#" xmlns:rdf="http://www.w3.org/1999/02/22-rdf-syntax-ns#">
   <cc:Work>
    <dc:type rdf:resource="http://purl.org/dc/dcmitype/StillImage"/>
    <dc:date>2026-05-26T10:41:47.868199</dc:date>
    <dc:format>image/svg+xml</dc:format>
    <dc:creator>
     <cc:Agent>
      <dc:title>Matplotlib v3.10.8, https://matplotlib.org/</dc:title>
     </cc:Agent>
    </dc:creator>
   </cc:Work>
  </rdf:RDF>
 </metadata>
 <defs>
  <style type="text/css">*{stroke-linejoin: round; stroke-linecap: butt}</style>
 </defs>
 <g id="figure_1">
  <g id="patch_1">
   <path d="M 0 315.034375 
L 496.370625 315.034375 
L 496.370625 0 
L 0 0 
z
" style="fill: #ffffff"/>
  </g>
  <g id="axes_1">
   <g id="patch_2">
    <path d="M 34.240625 277.478125 
L 489.170625 277.478125 
L 489.170625 22.318125 
L 34.240625 22.318125 
z
" style="fill: #ffffff"/>
   </g>
   <g id="PathCollection_1">
    <defs>
     <path id="m1429f70436" d="M 0 2.95804 
C 0.784481 2.95804 1.536938 2.646362 2.09165 2.09165 
C 2.646362 1.536938 2.95804 0.784481 2.95804 0 
C 2.95804 -0.784481 2.646362 -1.536938 2.09165 -2.09165 
C 1.536938 -2.646362 0.784481 -2.95804 0 -2.95804 
C -0.784481 -2.95804 -1.536938 -2.646362 -2.09165 -2.09165 
C -2.646362 -1.536938 -2.95804 -0.784481 -2.95804 0 
C -2.95804 0.784481 -2.646362 1.536938 -2.09165 2.09165 
C -1.536938 2.646362 -0.784481 2.95804 0 2.95804 
z
" style="stroke: #7aa6c2; stroke-opacity: 0.7"/>
    </defs>
    <g clip-path="url(#pd346f200d5)">
     <use xlink:href="#m1429f70436" x="54.919261" y="228.017028" style="fill: #7aa6c2; fill-opacity: 0.7; stroke: #7aa6c2; stroke-opacity: 0.7"/>
     <use xlink:href="#m1429f70436" x="61.928969" y="232.777593" style="fill: #7aa6c2; fill-opacity: 0.7; stroke: #7aa6c2; stroke-opacity: 0.7"/>
     <use xlink:href="#m1429f70436" x="68.938676" y="206.681633" style="fill: #7aa6c2; fill-opacity: 0.7; stroke: #7aa6c2; stroke-opacity: 0.7"/>
     <use xlink:href="#m1429f70436" x="75.948383" y="219.758174" style="fill: #7aa6c2; fill-opacity: 0.7; stroke: #7aa6c2; stroke-opacity: 0.7"/>
     <use xlink:href="#m1429f70436" x="82.95809" y="235.980581" style="fill: #7aa6c2; fill-opacity: 0.7; stroke: #7aa6c2; stroke-opacity: 0.7"/>
     <use xlink:href="#m1429f70436" x="89.967798" y="206.149094" style="fill: #7aa6c2; fill-opacity: 0.7; stroke: #7aa6c2; stroke-opacity: 0.7"/>
     <use xlink:href="#m1429f70436" x="96.977505" y="174.965771" style="fill: #7aa6c2; fill-opacity: 0.7; stroke: #7aa6c2; stroke-opacity: 0.7"/>
     <use xlink:href="#m1429f70436" x="103.987212" y="182.693629" style="fill: #7aa6c2; fill-opacity: 0.7; stroke: #7aa6c2; stroke-opacity: 0.7"/>
     <use xlink:href="#m1429f70436" x="110.996919" y="229.170147" style="fill: #7aa6c2; fill-opacity: 0.7; stroke: #7aa6c2; stroke-opacity: 0.7"/>
     <use xlink:href="#m1429f70436" x="118.006627" y="243.030218" style="fill: #7aa6c2; fill-opacity: 0.7; stroke: #7aa6c2; stroke-opacity: 0.7"/>
     <use xlink:href="#m1429f70436" x="125.016334" y="220.838796" style="fill: #7aa6c2; fill-opacity: 0.7; stroke: #7aa6c2; stroke-opacity: 0.7"/>
     <use xlink:href="#m1429f70436" x="132.026041" y="197.974954" style="fill: #7aa6c2; fill-opacity: 0.7; stroke: #7aa6c2; stroke-opacity: 0.7"/>
     <use xlink:href="#m1429f70436" x="139.035748" y="265.879943" style="fill: #7aa6c2; fill-opacity: 0.7; stroke: #7aa6c2; stroke-opacity: 0.7"/>
     <use xlink:href="#m1429f70436" x="146.045456" y="199.84299" style="fill: #7aa6c2; fill-opacity: 0.7; stroke: #7aa6c2; stroke-opacity: 0.7"/>
     <use xlink:href="#m1429f70436" x="153.055163" y="227.641501" style="fill: #7aa6c2; fill-opacity: 0.7; stroke: #7aa6c2; stroke-opacity: 0.7"/>
     <use xlink:href="#m1429f70436" x="160.06487" y="209.298402" style="fill: #7aa6c2; fill-opacity: 0.7; stroke: #7aa6c2; stroke-opacity: 0.7"/>
     <use xlink:href="#m1429f70436" x="167.074577" y="200.707182" style="fill: #7aa6c2; fill-opacity: 0.7; stroke: #7aa6c2; stroke-opacity: 0.7"/>
     <use xlink:href="#m1429f70436" x="174.084284" y="190.919556" style="fill: #7aa6c2; fill-opacity: 0.7; stroke: #7aa6c2; stroke-opacity: 0.7"/>
     <use xlink:href="#m1429f70436" x="181.093992" y="166.159148" style="fill: #7aa6c2; fill-opacity: 0.7; stroke: #7aa6c2; stroke-opacity: 0.7"/>
     <use xlink:href="#m1429f70436" x="188.103699" y="144.305057" style="fill: #7aa6c2; fill-opacity: 0.7; stroke: #7aa6c2; stroke-opacity: 0.7"/>
     <use xlink:href="#m1429f70436" x="195.113406" y="176.413838" style="fill: #7aa6c2; fill-opacity: 0.7; stroke: #7aa6c2; stroke-opacity: 0.7"/>
     <use xlink:href="#m1429f70436" x="202.123113" y="128.68187" style="fill: #7aa6c2; fill-opacity: 0.7; stroke: #7aa6c2; stroke-opacity: 0.7"/>
     <use xlink:href="#m1429f70436" x="209.132821" y="186.563556" style="fill: #7aa6c2; fill-opacity: 0.7; stroke: #7aa6c2; stroke-opacity: 0.7"/>
     <use xlink:href="#m1429f70436" x="216.142528" y="153.15516" style="fill: #7aa6c2; fill-opacity: 0.7; stroke: #7aa6c2; stroke-opacity: 0.7"/>
     <use xlink:href="#m1429f70436" x="223.152235" y="133.664587" style="fill: #7aa6c2; fill-opacity: 0.7; stroke: #7aa6c2; stroke-opacity: 0.7"/>
     <use xlink:href="#m1429f70436" x="230.161942" y="154.944737" style="fill: #7aa6c2; fill-opacity: 0.7; stroke: #7aa6c2; stroke-opacity: 0.7"/>
     <use xlink:href="#m1429f70436" x="237.17165" y="177.065018" style="fill: #7aa6c2; fill-opacity: 0.7; stroke: #7aa6c2; stroke-opacity: 0.7"/>
     <use xlink:href="#m1429f70436" x="244.181357" y="179.441514" style="fill: #7aa6c2; fill-opacity: 0.7; stroke: #7aa6c2; stroke-opacity: 0.7"/>
     <use xlink:href="#m1429f70436" x="251.191064" y="162.585118" style="fill: #7aa6c2; fill-opacity: 0.7; stroke: #7aa6c2; stroke-opacity: 0.7"/>
     <use xlink:href="#m1429f70436" x="258.200771" y="139.322364" style="fill: #7aa6c2; fill-opacity: 0.7; stroke: #7aa6c2; stroke-opacity: 0.7"/>
     <use xlink:href="#m1429f70436" x="265.210479" y="173.191003" style="fill: #7aa6c2; fill-opacity: 0.7; stroke: #7aa6c2; stroke-opacity: 0.7"/>
     <use xlink:href="#m1429f70436" x="272.220186" y="146.259063" style="fill: #7aa6c2; fill-opacity: 0.7; stroke: #7aa6c2; stroke-opacity: 0.7"/>
     <use xlink:href="#m1429f70436" x="279.229893" y="141.802295" style="fill: #7aa6c2; fill-opacity: 0.7; stroke: #7aa6c2; stroke-opacity: 0.7"/>
     <use xlink:href="#m1429f70436" x="286.2396" y="117.87622" style="fill: #7aa6c2; fill-opacity: 0.7; stroke: #7aa6c2; stroke-opacity: 0.7"/>
     <use xlink:href="#m1429f70436" x="293.249308" y="124.683721" style="fill: #7aa6c2; fill-opacity: 0.7; stroke: #7aa6c2; stroke-opacity: 0.7"/>
     <use xlink:href="#m1429f70436" x="300.259015" y="117.50885" style="fill: #7aa6c2; fill-opacity: 0.7; stroke: #7aa6c2; stroke-opacity: 0.7"/>
     <use xlink:href="#m1429f70436" x="307.268722" y="144.770767" style="fill: #7aa6c2; fill-opacity: 0.7; stroke: #7aa6c2; stroke-opacity: 0.7"/>
     <use xlink:href="#m1429f70436" x="314.278429" y="126.111084" style="fill: #7aa6c2; fill-opacity: 0.7; stroke: #7aa6c2; stroke-opacity: 0.7"/>
     <use xlink:href="#m1429f70436" x="321.288137" y="95.790718" style="fill: #7aa6c2; fill-opacity: 0.7; stroke: #7aa6c2; stroke-opacity: 0.7"/>
     <use xlink:href="#m1429f70436" x="328.297844" y="71.583586" style="fill: #7aa6c2; fill-opacity: 0.7; stroke: #7aa6c2; stroke-opacity: 0.7"/>
     <use xlink:href="#m1429f70436" x="335.307551" y="151.052403" style="fill: #7aa6c2; fill-opacity: 0.7; stroke: #7aa6c2; stroke-opacity: 0.7"/>
     <use xlink:href="#m1429f70436" x="342.317258" y="65.048116" style="fill: #7aa6c2; fill-opacity: 0.7; stroke: #7aa6c2; stroke-opacity: 0.7"/>
     <use xlink:href="#m1429f70436" x="349.326966" y="67.119815" style="fill: #7aa6c2; fill-opacity: 0.7; stroke: #7aa6c2; stroke-opacity: 0.7"/>
     <use xlink:href="#m1429f70436" x="356.336673" y="81.066068" style="fill: #7aa6c2; fill-opacity: 0.7; stroke: #7aa6c2; stroke-opacity: 0.7"/>
     <use xlink:href="#m1429f70436" x="363.34638" y="93.583591" style="fill: #7aa6c2; fill-opacity: 0.7; stroke: #7aa6c2; stroke-opacity: 0.7"/>
     <use xlink:href="#m1429f70436" x="370.356087" y="107.943548" style="fill: #7aa6c2; fill-opacity: 0.7; stroke: #7aa6c2; stroke-opacity: 0.7"/>
     <use xlink:href="#m1429f70436" x="377.365794" y="51.917828" style="fill: #7aa6c2; fill-opacity: 0.7; stroke: #7aa6c2; stroke-opacity: 0.7"/>
     <use xlink:href="#m1429f70436" x="384.375502" y="33.916307" style="fill: #7aa6c2; fill-opacity: 0.7; stroke: #7aa6c2; stroke-opacity: 0.7"/>
     <use xlink:href="#m1429f70436" x="391.385209" y="35.705756" style="fill: #7aa6c2; fill-opacity: 0.7; stroke: #7aa6c2; stroke-opacity: 0.7"/>
     <use xlink:href="#m1429f70436" x="398.394916" y="47.315138" style="fill: #7aa6c2; fill-opacity: 0.7; stroke: #7aa6c2; stroke-opacity: 0.7"/>
     <use xlink:href="#m1429f70436" x="405.404623" y="73.035432" style="fill: #7aa6c2; fill-opacity: 0.7; stroke: #7aa6c2; stroke-opacity: 0.7"/>
     <use xlink:href="#m1429f70436" x="412.414331" y="116.962925" style="fill: #7aa6c2; fill-opacity: 0.7; stroke: #7aa6c2; stroke-opacity: 0.7"/>
     <use xlink:href="#m1429f70436" x="419.424038" y="77.949609" style="fill: #7aa6c2; fill-opacity: 0.7; stroke: #7aa6c2; stroke-opacity: 0.7"/>
     <use xlink:href="#m1429f70436" x="426.433745" y="55.195715" style="fill: #7aa6c2; fill-opacity: 0.7; stroke: #7aa6c2; stroke-opacity: 0.7"/>
     <use xlink:href="#m1429f70436" x="433.443452" y="110.477329" style="fill: #7aa6c2; fill-opacity: 0.7; stroke: #7aa6c2; stroke-opacity: 0.7"/>
     <use xlink:href="#m1429f70436" x="440.45316" y="57.100742" style="fill: #7aa6c2; fill-opacity: 0.7; stroke: #7aa6c2; stroke-opacity: 0.7"/>
     <use xlink:href="#m1429f70436" x="447.462867" y="53.09944" style="fill: #7aa6c2; fill-opacity: 0.7; stroke: #7aa6c2; stroke-opacity: 0.7"/>
     <use xlink:href="#m1429f70436" x="454.472574" y="42.167224" style="fill: #7aa6c2; fill-opacity: 0.7; stroke: #7aa6c2; stroke-opacity: 0.7"/>
     <use xlink:href="#m1429f70436" x="461.482281" y="95.511978" style="fill: #7aa6c2; fill-opacity: 0.7; stroke: #7aa6c2; stroke-opacity: 0.7"/>
     <use xlink:href="#m1429f70436" x="468.491989" y="76.906188" style="fill: #7aa6c2; fill-opacity: 0.7; stroke: #7aa6c2; stroke-opacity: 0.7"/>
    </g>
   </g>
   <g id="matplotlib.axis_1">
    <g id="xtick_1">
     <g id="line2d_1">
      <path d="M 54.919261 277.478125 
L 54.919261 22.318125 
" clip-path="url(#pd346f200d5)" style="fill: none; stroke: #b0b0b0; stroke-opacity: 0.25; stroke-width: 0.8; stroke-linecap: square"/>
     </g>
     <g id="line2d_2">
      <defs>
       <path id="m02c52e4298" d="M 0 0 
L 0 3.5 
" style="stroke: #000000; stroke-width: 0.8"/>
      </defs>
      <g>
       <use xlink:href="#m02c52e4298" x="54.919261" y="277.478125" style="stroke: #000000; stroke-width: 0.8"/>
      </g>
     </g>
     <g id="text_1">
      <!-- 0 -->
      <g transform="translate(51.738011 292.076563) scale(0.1 -0.1)">
       <defs>
        <path id="DejaVuSans-30" d="M 2034 4250 
Q 1547 4250 1301 3770 
Q 1056 3291 1056 2328 
Q 1056 1369 1301 889 
Q 1547 409 2034 409 
Q 2525 409 2770 889 
Q 3016 1369 3016 2328 
Q 3016 3291 2770 3770 
Q 2525 4250 2034 4250 
z
M 2034 4750 
Q 2819 4750 3233 4129 
Q 3647 3509 3647 2328 
Q 3647 1150 3233 529 
Q 2819 -91 2034 -91 
Q 1250 -91 836 529 
Q 422 1150 422 2328 
Q 422 3509 836 4129 
Q 1250 4750 2034 4750 
z
" transform="scale(0.015625)"/>
       </defs>
       <use xlink:href="#DejaVuSans-30"/>
      </g>
     </g>
    </g>
    <g id="xtick_2">
     <g id="line2d_3">
      <path d="M 137.633807 277.478125 
L 137.633807 22.318125 
" clip-path="url(#pd346f200d5)" style="fill: none; stroke: #b0b0b0; stroke-opacity: 0.25; stroke-width: 0.8; stroke-linecap: square"/>
     </g>
     <g id="line2d_4">
      <g>
       <use xlink:href="#m02c52e4298" x="137.633807" y="277.478125" style="stroke: #000000; stroke-width: 0.8"/>
      </g>
     </g>
     <g id="text_2">
      <!-- 2 -->
      <g transform="translate(134.452557 292.076563) scale(0.1 -0.1)">
       <defs>
        <path id="DejaVuSans-32" d="M 1228 531 
L 3431 531 
L 3431 0 
L 469 0 
L 469 531 
Q 828 903 1448 1529 
Q 2069 2156 2228 2338 
Q 2531 2678 2651 2914 
Q 2772 3150 2772 3378 
Q 2772 3750 2511 3984 
Q 2250 4219 1831 4219 
Q 1534 4219 1204 4116 
Q 875 4013 500 3803 
L 500 4441 
Q 881 4594 1212 4672 
Q 1544 4750 1819 4750 
Q 2544 4750 2975 4387 
Q 3406 4025 3406 3419 
Q 3406 3131 3298 2873 
Q 3191 2616 2906 2266 
Q 2828 2175 2409 1742 
Q 1991 1309 1228 531 
z
" transform="scale(0.015625)"/>
       </defs>
       <use xlink:href="#DejaVuSans-32"/>
      </g>
     </g>
    </g>
    <g id="xtick_3">
     <g id="line2d_5">
      <path d="M 220.348352 277.478125 
L 220.348352 22.318125 
" clip-path="url(#pd346f200d5)" style="fill: none; stroke: #b0b0b0; stroke-opacity: 0.25; stroke-width: 0.8; stroke-linecap: square"/>
     </g>
     <g id="line2d_6">
      <g>
       <use xlink:href="#m02c52e4298" x="220.348352" y="277.478125" style="stroke: #000000; stroke-width: 0.8"/>
      </g>
     </g>
     <g id="text_3">
      <!-- 4 -->
      <g transform="translate(217.167102 292.076563) scale(0.1 -0.1)">
       <defs>
        <path id="DejaVuSans-34" d="M 2419 4116 
L 825 1625 
L 2419 1625 
L 2419 4116 
z
M 2253 4666 
L 3047 4666 
L 3047 1625 
L 3713 1625 
L 3713 1100 
L 3047 1100 
L 3047 0 
L 2419 0 
L 2419 1100 
L 313 1100 
L 313 1709 
L 2253 4666 
z
" transform="scale(0.015625)"/>
       </defs>
       <use xlink:href="#DejaVuSans-34"/>
      </g>
     </g>
    </g>
    <g id="xtick_4">
     <g id="line2d_7">
      <path d="M 303.062898 277.478125 
L 303.062898 22.318125 
" clip-path="url(#pd346f200d5)" style="fill: none; stroke: #b0b0b0; stroke-opacity: 0.25; stroke-width: 0.8; stroke-linecap: square"/>
     </g>
     <g id="line2d_8">
      <g>
       <use xlink:href="#m02c52e4298" x="303.062898" y="277.478125" style="stroke: #000000; stroke-width: 0.8"/>
      </g>
     </g>
     <g id="text_4">
      <!-- 6 -->
      <g transform="translate(299.881648 292.076563) scale(0.1 -0.1)">
       <defs>
        <path id="DejaVuSans-36" d="M 2113 2584 
Q 1688 2584 1439 2293 
Q 1191 2003 1191 1497 
Q 1191 994 1439 701 
Q 1688 409 2113 409 
Q 2538 409 2786 701 
Q 3034 994 3034 1497 
Q 3034 2003 2786 2293 
Q 2538 2584 2113 2584 
z
M 3366 4563 
L 3366 3988 
Q 3128 4100 2886 4159 
Q 2644 4219 2406 4219 
Q 1781 4219 1451 3797 
Q 1122 3375 1075 2522 
Q 1259 2794 1537 2939 
Q 1816 3084 2150 3084 
Q 2853 3084 3261 2657 
Q 3669 2231 3669 1497 
Q 3669 778 3244 343 
Q 2819 -91 2113 -91 
Q 1303 -91 875 529 
Q 447 1150 447 2328 
Q 447 3434 972 4092 
Q 1497 4750 2381 4750 
Q 2619 4750 2861 4703 
Q 3103 4656 3366 4563 
z
" transform="scale(0.015625)"/>
       </defs>
       <use xlink:href="#DejaVuSans-36"/>
      </g>
     </g>
    </g>
    <g id="xtick_5">
     <g id="line2d_9">
      <path d="M 385.777443 277.478125 
L 385.777443 22.318125 
" clip-path="url(#pd346f200d5)" style="fill: none; stroke: #b0b0b0; stroke-opacity: 0.25; stroke-width: 0.8; stroke-linecap: square"/>
     </g>
     <g id="line2d_10">
      <g>
       <use xlink:href="#m02c52e4298" x="385.777443" y="277.478125" style="stroke: #000000; stroke-width: 0.8"/>
      </g>
     </g>
     <g id="text_5">
      <!-- 8 -->
      <g transform="translate(382.596193 292.076563) scale(0.1 -0.1)">
       <defs>
        <path id="DejaVuSans-38" d="M 2034 2216 
Q 1584 2216 1326 1975 
Q 1069 1734 1069 1313 
Q 1069 891 1326 650 
Q 1584 409 2034 409 
Q 2484 409 2743 651 
Q 3003 894 3003 1313 
Q 3003 1734 2745 1975 
Q 2488 2216 2034 2216 
z
M 1403 2484 
Q 997 2584 770 2862 
Q 544 3141 544 3541 
Q 544 4100 942 4425 
Q 1341 4750 2034 4750 
Q 2731 4750 3128 4425 
Q 3525 4100 3525 3541 
Q 3525 3141 3298 2862 
Q 3072 2584 2669 2484 
Q 3125 2378 3379 2068 
Q 3634 1759 3634 1313 
Q 3634 634 3220 271 
Q 2806 -91 2034 -91 
Q 1263 -91 848 271 
Q 434 634 434 1313 
Q 434 1759 690 2068 
Q 947 2378 1403 2484 
z
M 1172 3481 
Q 1172 3119 1398 2916 
Q 1625 2713 2034 2713 
Q 2441 2713 2670 2916 
Q 2900 3119 2900 3481 
Q 2900 3844 2670 4047 
Q 2441 4250 2034 4250 
Q 1625 4250 1398 4047 
Q 1172 3844 1172 3481 
z
" transform="scale(0.015625)"/>
       </defs>
       <use xlink:href="#DejaVuSans-38"/>
      </g>
     </g>
    </g>
    <g id="xtick_6">
     <g id="line2d_11">
      <path d="M 468.491989 277.478125 
L 468.491989 22.318125 
" clip-path="url(#pd346f200d5)" style="fill: none; stroke: #b0b0b0; stroke-opacity: 0.25; stroke-width: 0.8; stroke-linecap: square"/>
     </g>
     <g id="line2d_12">
      <g>
       <use xlink:href="#m02c52e4298" x="468.491989" y="277.478125" style="stroke: #000000; stroke-width: 0.8"/>
      </g>
     </g>
     <g id="text_6">
      <!-- 10 -->
      <g transform="translate(462.129489 292.076563) scale(0.1 -0.1)">
       <defs>
        <path id="DejaVuSans-31" d="M 794 531 
L 1825 531 
L 1825 4091 
L 703 3866 
L 703 4441 
L 1819 4666 
L 2450 4666 
L 2450 531 
L 3481 531 
L 3481 0 
L 794 0 
L 794 531 
z
" transform="scale(0.015625)"/>
       </defs>
       <use xlink:href="#DejaVuSans-31"/>
       <use xlink:href="#DejaVuSans-30" transform="translate(63.623047 0)"/>
      </g>
     </g>
    </g>
    <g id="text_7">
     <!-- x -->
     <g transform="translate(258.74625 305.754687) scale(0.1 -0.1)">
      <defs>
       <path id="DejaVuSans-78" d="M 3513 3500 
L 2247 1797 
L 3578 0 
L 2900 0 
L 1881 1375 
L 863 0 
L 184 0 
L 1544 1831 
L 300 3500 
L 978 3500 
L 1906 2253 
L 2834 3500 
L 3513 3500 
z
" transform="scale(0.015625)"/>
      </defs>
      <use xlink:href="#DejaVuSans-78"/>
     </g>
    </g>
   </g>
   <g id="matplotlib.axis_2">
    <g id="ytick_1">
     <g id="line2d_13">
      <path d="M 34.240625 269.216363 
L 489.170625 269.216363 
" clip-path="url(#pd346f200d5)" style="fill: none; stroke: #b0b0b0; stroke-opacity: 0.25; stroke-width: 0.8; stroke-linecap: square"/>
     </g>
     <g id="line2d_14">
      <defs>
       <path id="mb087475f61" d="M 0 0 
L -3.5 0 
" style="stroke: #000000; stroke-width: 0.8"/>
      </defs>
      <g>
       <use xlink:href="#mb087475f61" x="34.240625" y="269.216363" style="stroke: #000000; stroke-width: 0.8"/>
      </g>
     </g>
     <g id="text_8">
      <!-- 0 -->
      <g transform="translate(20.878125 273.015582) scale(0.1 -0.1)">
       <use xlink:href="#DejaVuSans-30"/>
      </g>
     </g>
    </g>
    <g id="ytick_2">
     <g id="line2d_15">
      <path d="M 34.240625 219.304282 
L 489.170625 219.304282 
" clip-path="url(#pd346f200d5)" style="fill: none; stroke: #b0b0b0; stroke-opacity: 0.25; stroke-width: 0.8; stroke-linecap: square"/>
     </g>
     <g id="line2d_16">
      <g>
       <use xlink:href="#mb087475f61" x="34.240625" y="219.304282" style="stroke: #000000; stroke-width: 0.8"/>
      </g>
     </g>
     <g id="text_9">
      <!-- 2 -->
      <g transform="translate(20.878125 223.1035) scale(0.1 -0.1)">
       <use xlink:href="#DejaVuSans-32"/>
      </g>
     </g>
    </g>
    <g id="ytick_3">
     <g id="line2d_17">
      <path d="M 34.240625 169.3922 
L 489.170625 169.3922 
" clip-path="url(#pd346f200d5)" style="fill: none; stroke: #b0b0b0; stroke-opacity: 0.25; stroke-width: 0.8; stroke-linecap: square"/>
     </g>
     <g id="line2d_18">
      <g>
       <use xlink:href="#mb087475f61" x="34.240625" y="169.3922" style="stroke: #000000; stroke-width: 0.8"/>
      </g>
     </g>
     <g id="text_10">
      <!-- 4 -->
      <g transform="translate(20.878125 173.191419) scale(0.1 -0.1)">
       <use xlink:href="#DejaVuSans-34"/>
      </g>
     </g>
    </g>
    <g id="ytick_4">
     <g id="line2d_19">
      <path d="M 34.240625 119.480118 
L 489.170625 119.480118 
" clip-path="url(#pd346f200d5)" style="fill: none; stroke: #b0b0b0; stroke-opacity: 0.25; stroke-width: 0.8; stroke-linecap: square"/>
     </g>
     <g id="line2d_20">
      <g>
       <use xlink:href="#mb087475f61" x="34.240625" y="119.480118" style="stroke: #000000; stroke-width: 0.8"/>
      </g>
     </g>
     <g id="text_11">
      <!-- 6 -->
      <g transform="translate(20.878125 123.279337) scale(0.1 -0.1)">
       <use xlink:href="#DejaVuSans-36"/>
      </g>
     </g>
    </g>
    <g id="ytick_5">
     <g id="line2d_21">
      <path d="M 34.240625 69.568037 
L 489.170625 69.568037 
" clip-path="url(#pd346f200d5)" style="fill: none; stroke: #b0b0b0; stroke-opacity: 0.25; stroke-width: 0.8; stroke-linecap: square"/>
     </g>
     <g id="line2d_22">
      <g>
       <use xlink:href="#mb087475f61" x="34.240625" y="69.568037" style="stroke: #000000; stroke-width: 0.8"/>
      </g>
     </g>
     <g id="text_12">
      <!-- 8 -->
      <g transform="translate(20.878125 73.367255) scale(0.1 -0.1)">
       <use xlink:href="#DejaVuSans-38"/>
      </g>
     </g>
    </g>
    <g id="text_13">
     <!-- y -->
     <g transform="translate(14.798438 152.8575) rotate(-90) scale(0.1 -0.1)">
      <defs>
       <path id="DejaVuSans-79" d="M 2059 -325 
Q 1816 -950 1584 -1140 
Q 1353 -1331 966 -1331 
L 506 -1331 
L 506 -850 
L 844 -850 
Q 1081 -850 1212 -737 
Q 1344 -625 1503 -206 
L 1606 56 
L 191 3500 
L 800 3500 
L 1894 763 
L 2988 3500 
L 3597 3500 
L 2059 -325 
z
" transform="scale(0.015625)"/>
      </defs>
      <use xlink:href="#DejaVuSans-79"/>
     </g>
    </g>
   </g>
   <g id="line2d_23">
    <path d="M 54.919261 228.017028 
L 54.919261 237.654648 
" clip-path="url(#pd346f200d5)" style="fill: none; stroke: #999999; stroke-opacity: 0.6; stroke-width: 0.6; stroke-linecap: square"/>
   </g>
   <g id="line2d_24">
    <path d="M 61.928969 232.777593 
L 61.928969 234.416232 
" clip-path="url(#pd346f200d5)" style="fill: none; stroke: #999999; stroke-opacity: 0.6; stroke-width: 0.6; stroke-linecap: square"/>
   </g>
   <g id="line2d_25">
    <path d="M 68.938676 206.681633 
L 68.938676 231.177815 
" clip-path="url(#pd346f200d5)" style="fill: none; stroke: #999999; stroke-opacity: 0.6; stroke-width: 0.6; stroke-linecap: square"/>
   </g>
   <g id="line2d_26">
    <path d="M 75.948383 219.758174 
L 75.948383 227.939399 
" clip-path="url(#pd346f200d5)" style="fill: none; stroke: #999999; stroke-opacity: 0.6; stroke-width: 0.6; stroke-linecap: square"/>
   </g>
   <g id="line2d_27">
    <path d="M 82.95809 235.980581 
L 82.95809 224.700982 
" clip-path="url(#pd346f200d5)" style="fill: none; stroke: #999999; stroke-opacity: 0.6; stroke-width: 0.6; stroke-linecap: square"/>
   </g>
   <g id="line2d_28">
    <path d="M 89.967798 206.149094 
L 89.967798 221.462566 
" clip-path="url(#pd346f200d5)" style="fill: none; stroke: #999999; stroke-opacity: 0.6; stroke-width: 0.6; stroke-linecap: square"/>
   </g>
   <g id="line2d_29">
    <path d="M 96.977505 174.965771 
L 96.977505 218.224149 
" clip-path="url(#pd346f200d5)" style="fill: none; stroke: #999999; stroke-opacity: 0.6; stroke-width: 0.6; stroke-linecap: square"/>
   </g>
   <g id="line2d_30">
    <path d="M 103.987212 182.693629 
L 103.987212 214.985732 
" clip-path="url(#pd346f200d5)" style="fill: none; stroke: #999999; stroke-opacity: 0.6; stroke-width: 0.6; stroke-linecap: square"/>
   </g>
   <g id="line2d_31">
    <path d="M 110.996919 229.170147 
L 110.996919 211.747316 
" clip-path="url(#pd346f200d5)" style="fill: none; stroke: #999999; stroke-opacity: 0.6; stroke-width: 0.6; stroke-linecap: square"/>
   </g>
   <g id="line2d_32">
    <path d="M 118.006627 243.030218 
L 118.006627 208.508899 
" clip-path="url(#pd346f200d5)" style="fill: none; stroke: #999999; stroke-opacity: 0.6; stroke-width: 0.6; stroke-linecap: square"/>
   </g>
   <g id="line2d_33">
    <path d="M 125.016334 220.838796 
L 125.016334 205.270483 
" clip-path="url(#pd346f200d5)" style="fill: none; stroke: #999999; stroke-opacity: 0.6; stroke-width: 0.6; stroke-linecap: square"/>
   </g>
   <g id="line2d_34">
    <path d="M 132.026041 197.974954 
L 132.026041 202.032066 
" clip-path="url(#pd346f200d5)" style="fill: none; stroke: #999999; stroke-opacity: 0.6; stroke-width: 0.6; stroke-linecap: square"/>
   </g>
   <g id="line2d_35">
    <path d="M 139.035748 265.879943 
L 139.035748 198.79365 
" clip-path="url(#pd346f200d5)" style="fill: none; stroke: #999999; stroke-opacity: 0.6; stroke-width: 0.6; stroke-linecap: square"/>
   </g>
   <g id="line2d_36">
    <path d="M 146.045456 199.84299 
L 146.045456 195.555233 
" clip-path="url(#pd346f200d5)" style="fill: none; stroke: #999999; stroke-opacity: 0.6; stroke-width: 0.6; stroke-linecap: square"/>
   </g>
   <g id="line2d_37">
    <path d="M 153.055163 227.641501 
L 153.055163 192.316817 
" clip-path="url(#pd346f200d5)" style="fill: none; stroke: #999999; stroke-opacity: 0.6; stroke-width: 0.6; stroke-linecap: square"/>
   </g>
   <g id="line2d_38">
    <path d="M 160.06487 209.298402 
L 160.06487 189.0784 
" clip-path="url(#pd346f200d5)" style="fill: none; stroke: #999999; stroke-opacity: 0.6; stroke-width: 0.6; stroke-linecap: square"/>
   </g>
   <g id="line2d_39">
    <path d="M 167.074577 200.707182 
L 167.074577 185.839984 
" clip-path="url(#pd346f200d5)" style="fill: none; stroke: #999999; stroke-opacity: 0.6; stroke-width: 0.6; stroke-linecap: square"/>
   </g>
   <g id="line2d_40">
    <path d="M 174.084284 190.919556 
L 174.084284 182.601567 
" clip-path="url(#pd346f200d5)" style="fill: none; stroke: #999999; stroke-opacity: 0.6; stroke-width: 0.6; stroke-linecap: square"/>
   </g>
   <g id="line2d_41">
    <path d="M 181.093992 166.159148 
L 181.093992 179.363151 
" clip-path="url(#pd346f200d5)" style="fill: none; stroke: #999999; stroke-opacity: 0.6; stroke-width: 0.6; stroke-linecap: square"/>
   </g>
   <g id="line2d_42">
    <path d="M 188.103699 144.305057 
L 188.103699 176.124734 
" clip-path="url(#pd346f200d5)" style="fill: none; stroke: #999999; stroke-opacity: 0.6; stroke-width: 0.6; stroke-linecap: square"/>
   </g>
   <g id="line2d_43">
    <path d="M 195.113406 176.413838 
L 195.113406 172.886317 
" clip-path="url(#pd346f200d5)" style="fill: none; stroke: #999999; stroke-opacity: 0.6; stroke-width: 0.6; stroke-linecap: square"/>
   </g>
   <g id="line2d_44">
    <path d="M 202.123113 128.68187 
L 202.123113 169.647901 
" clip-path="url(#pd346f200d5)" style="fill: none; stroke: #999999; stroke-opacity: 0.6; stroke-width: 0.6; stroke-linecap: square"/>
   </g>
   <g id="line2d_45">
    <path d="M 209.132821 186.563556 
L 209.132821 166.409484 
" clip-path="url(#pd346f200d5)" style="fill: none; stroke: #999999; stroke-opacity: 0.6; stroke-width: 0.6; stroke-linecap: square"/>
   </g>
   <g id="line2d_46">
    <path d="M 216.142528 153.15516 
L 216.142528 163.171068 
" clip-path="url(#pd346f200d5)" style="fill: none; stroke: #999999; stroke-opacity: 0.6; stroke-width: 0.6; stroke-linecap: square"/>
   </g>
   <g id="line2d_47">
    <path d="M 223.152235 133.664587 
L 223.152235 159.932651 
" clip-path="url(#pd346f200d5)" style="fill: none; stroke: #999999; stroke-opacity: 0.6; stroke-width: 0.6; stroke-linecap: square"/>
   </g>
   <g id="line2d_48">
    <path d="M 230.161942 154.944737 
L 230.161942 156.694235 
" clip-path="url(#pd346f200d5)" style="fill: none; stroke: #999999; stroke-opacity: 0.6; stroke-width: 0.6; stroke-linecap: square"/>
   </g>
   <g id="line2d_49">
    <path d="M 237.17165 177.065018 
L 237.17165 153.455818 
" clip-path="url(#pd346f200d5)" style="fill: none; stroke: #999999; stroke-opacity: 0.6; stroke-width: 0.6; stroke-linecap: square"/>
   </g>
   <g id="line2d_50">
    <path d="M 244.181357 179.441514 
L 244.181357 150.217402 
" clip-path="url(#pd346f200d5)" style="fill: none; stroke: #999999; stroke-opacity: 0.6; stroke-width: 0.6; stroke-linecap: square"/>
   </g>
   <g id="line2d_51">
    <path d="M 251.191064 162.585118 
L 251.191064 146.978985 
" clip-path="url(#pd346f200d5)" style="fill: none; stroke: #999999; stroke-opacity: 0.6; stroke-width: 0.6; stroke-linecap: square"/>
   </g>
   <g id="line2d_52">
    <path d="M 258.200771 139.322364 
L 258.200771 143.740569 
" clip-path="url(#pd346f200d5)" style="fill: none; stroke: #999999; stroke-opacity: 0.6; stroke-width: 0.6; stroke-linecap: square"/>
   </g>
   <g id="line2d_53">
    <path d="M 265.210479 173.191003 
L 265.210479 140.502152 
" clip-path="url(#pd346f200d5)" style="fill: none; stroke: #999999; stroke-opacity: 0.6; stroke-width: 0.6; stroke-linecap: square"/>
   </g>
   <g id="line2d_54">
    <path d="M 272.220186 146.259063 
L 272.220186 137.263736 
" clip-path="url(#pd346f200d5)" style="fill: none; stroke: #999999; stroke-opacity: 0.6; stroke-width: 0.6; stroke-linecap: square"/>
   </g>
   <g id="line2d_55">
    <path d="M 279.229893 141.802295 
L 279.229893 134.025319 
" clip-path="url(#pd346f200d5)" style="fill: none; stroke: #999999; stroke-opacity: 0.6; stroke-width: 0.6; stroke-linecap: square"/>
   </g>
   <g id="line2d_56">
    <path d="M 286.2396 117.87622 
L 286.2396 130.786902 
" clip-path="url(#pd346f200d5)" style="fill: none; stroke: #999999; stroke-opacity: 0.6; stroke-width: 0.6; stroke-linecap: square"/>
   </g>
   <g id="line2d_57">
    <path d="M 293.249308 124.683721 
L 293.249308 127.548486 
" clip-path="url(#pd346f200d5)" style="fill: none; stroke: #999999; stroke-opacity: 0.6; stroke-width: 0.6; stroke-linecap: square"/>
   </g>
   <g id="line2d_58">
    <path d="M 300.259015 117.50885 
L 300.259015 124.310069 
" clip-path="url(#pd346f200d5)" style="fill: none; stroke: #999999; stroke-opacity: 0.6; stroke-width: 0.6; stroke-linecap: square"/>
   </g>
   <g id="line2d_59">
    <path d="M 307.268722 144.770767 
L 307.268722 121.071653 
" clip-path="url(#pd346f200d5)" style="fill: none; stroke: #999999; stroke-opacity: 0.6; stroke-width: 0.6; stroke-linecap: square"/>
   </g>
   <g id="line2d_60">
    <path d="M 314.278429 126.111084 
L 314.278429 117.833236 
" clip-path="url(#pd346f200d5)" style="fill: none; stroke: #999999; stroke-opacity: 0.6; stroke-width: 0.6; stroke-linecap: square"/>
   </g>
   <g id="line2d_61">
    <path d="M 321.288137 95.790718 
L 321.288137 114.59482 
" clip-path="url(#pd346f200d5)" style="fill: none; stroke: #999999; stroke-opacity: 0.6; stroke-width: 0.6; stroke-linecap: square"/>
   </g>
   <g id="line2d_62">
    <path d="M 328.297844 71.583586 
L 328.297844 111.356403 
" clip-path="url(#pd346f200d5)" style="fill: none; stroke: #999999; stroke-opacity: 0.6; stroke-width: 0.6; stroke-linecap: square"/>
   </g>
   <g id="line2d_63">
    <path d="M 335.307551 151.052403 
L 335.307551 108.117987 
" clip-path="url(#pd346f200d5)" style="fill: none; stroke: #999999; stroke-opacity: 0.6; stroke-width: 0.6; stroke-linecap: square"/>
   </g>
   <g id="line2d_64">
    <path d="M 342.317258 65.048116 
L 342.317258 104.87957 
" clip-path="url(#pd346f200d5)" style="fill: none; stroke: #999999; stroke-opacity: 0.6; stroke-width: 0.6; stroke-linecap: square"/>
   </g>
   <g id="line2d_65">
    <path d="M 349.326966 67.119815 
L 349.326966 101.641154 
" clip-path="url(#pd346f200d5)" style="fill: none; stroke: #999999; stroke-opacity: 0.6; stroke-width: 0.6; stroke-linecap: square"/>
   </g>
   <g id="line2d_66">
    <path d="M 356.336673 81.066068 
L 356.336673 98.402737 
" clip-path="url(#pd346f200d5)" style="fill: none; stroke: #999999; stroke-opacity: 0.6; stroke-width: 0.6; stroke-linecap: square"/>
   </g>
   <g id="line2d_67">
    <path d="M 363.34638 93.583591 
L 363.34638 95.16432 
" clip-path="url(#pd346f200d5)" style="fill: none; stroke: #999999; stroke-opacity: 0.6; stroke-width: 0.6; stroke-linecap: square"/>
   </g>
   <g id="line2d_68">
    <path d="M 370.356087 107.943548 
L 370.356087 91.925904 
" clip-path="url(#pd346f200d5)" style="fill: none; stroke: #999999; stroke-opacity: 0.6; stroke-width: 0.6; stroke-linecap: square"/>
   </g>
   <g id="line2d_69">
    <path d="M 377.365794 51.917828 
L 377.365794 88.687487 
" clip-path="url(#pd346f200d5)" style="fill: none; stroke: #999999; stroke-opacity: 0.6; stroke-width: 0.6; stroke-linecap: square"/>
   </g>
   <g id="line2d_70">
    <path d="M 384.375502 33.916307 
L 384.375502 85.449071 
" clip-path="url(#pd346f200d5)" style="fill: none; stroke: #999999; stroke-opacity: 0.6; stroke-width: 0.6; stroke-linecap: square"/>
   </g>
   <g id="line2d_71">
    <path d="M 391.385209 35.705756 
L 391.385209 82.210654 
" clip-path="url(#pd346f200d5)" style="fill: none; stroke: #999999; stroke-opacity: 0.6; stroke-width: 0.6; stroke-linecap: square"/>
   </g>
   <g id="line2d_72">
    <path d="M 398.394916 47.315138 
L 398.394916 78.972238 
" clip-path="url(#pd346f200d5)" style="fill: none; stroke: #999999; stroke-opacity: 0.6; stroke-width: 0.6; stroke-linecap: square"/>
   </g>
   <g id="line2d_73">
    <path d="M 405.404623 73.035432 
L 405.404623 75.733821 
" clip-path="url(#pd346f200d5)" style="fill: none; stroke: #999999; stroke-opacity: 0.6; stroke-width: 0.6; stroke-linecap: square"/>
   </g>
   <g id="line2d_74">
    <path d="M 412.414331 116.962925 
L 412.414331 72.495405 
" clip-path="url(#pd346f200d5)" style="fill: none; stroke: #999999; stroke-opacity: 0.6; stroke-width: 0.6; stroke-linecap: square"/>
   </g>
   <g id="line2d_75">
    <path d="M 419.424038 77.949609 
L 419.424038 69.256988 
" clip-path="url(#pd346f200d5)" style="fill: none; stroke: #999999; stroke-opacity: 0.6; stroke-width: 0.6; stroke-linecap: square"/>
   </g>
   <g id="line2d_76">
    <path d="M 426.433745 55.195715 
L 426.433745 66.018572 
" clip-path="url(#pd346f200d5)" style="fill: none; stroke: #999999; stroke-opacity: 0.6; stroke-width: 0.6; stroke-linecap: square"/>
   </g>
   <g id="line2d_77">
    <path d="M 433.443452 110.477329 
L 433.443452 62.780155 
" clip-path="url(#pd346f200d5)" style="fill: none; stroke: #999999; stroke-opacity: 0.6; stroke-width: 0.6; stroke-linecap: square"/>
   </g>
   <g id="line2d_78">
    <path d="M 440.45316 57.100742 
L 440.45316 59.541739 
" clip-path="url(#pd346f200d5)" style="fill: none; stroke: #999999; stroke-opacity: 0.6; stroke-width: 0.6; stroke-linecap: square"/>
   </g>
   <g id="line2d_79">
    <path d="M 447.462867 53.09944 
L 447.462867 56.303322 
" clip-path="url(#pd346f200d5)" style="fill: none; stroke: #999999; stroke-opacity: 0.6; stroke-width: 0.6; stroke-linecap: square"/>
   </g>
   <g id="line2d_80">
    <path d="M 454.472574 42.167224 
L 454.472574 53.064905 
" clip-path="url(#pd346f200d5)" style="fill: none; stroke: #999999; stroke-opacity: 0.6; stroke-width: 0.6; stroke-linecap: square"/>
   </g>
   <g id="line2d_81">
    <path d="M 461.482281 95.511978 
L 461.482281 49.826489 
" clip-path="url(#pd346f200d5)" style="fill: none; stroke: #999999; stroke-opacity: 0.6; stroke-width: 0.6; stroke-linecap: square"/>
   </g>
   <g id="line2d_82">
    <path d="M 468.491989 76.906188 
L 468.491989 46.588072 
" clip-path="url(#pd346f200d5)" style="fill: none; stroke: #999999; stroke-opacity: 0.6; stroke-width: 0.6; stroke-linecap: square"/>
   </g>
   <g id="line2d_83">
    <path d="M 54.919261 237.654648 
L 61.928969 234.416232 
L 68.938676 231.177815 
L 75.948383 227.939399 
L 82.95809 224.700982 
L 89.967798 221.462566 
L 96.977505 218.224149 
L 103.987212 214.985732 
L 110.996919 211.747316 
L 118.006627 208.508899 
L 125.016334 205.270483 
L 132.026041 202.032066 
L 139.035748 198.79365 
L 146.045456 195.555233 
L 153.055163 192.316817 
L 160.06487 189.0784 
L 167.074577 185.839984 
L 174.084284 182.601567 
L 181.093992 179.363151 
L 188.103699 176.124734 
L 195.113406 172.886317 
L 202.123113 169.647901 
L 209.132821 166.409484 
L 216.142528 163.171068 
L 223.152235 159.932651 
L 230.161942 156.694235 
L 237.17165 153.455818 
L 244.181357 150.217402 
L 251.191064 146.978985 
L 258.200771 143.740569 
L 265.210479 140.502152 
L 272.220186 137.263736 
L 279.229893 134.025319 
L 286.2396 130.786902 
L 293.249308 127.548486 
L 300.259015 124.310069 
L 307.268722 121.071653 
L 314.278429 117.833236 
L 321.288137 114.59482 
L 328.297844 111.356403 
L 335.307551 108.117987 
L 342.317258 104.87957 
L 349.326966 101.641154 
L 356.336673 98.402737 
L 363.34638 95.16432 
L 370.356087 91.925904 
L 377.365794 88.687487 
L 384.375502 85.449071 
L 391.385209 82.210654 
L 398.394916 78.972238 
L 405.404623 75.733821 
L 412.414331 72.495405 
L 419.424038 69.256988 
L 426.433745 66.018572 
L 433.443452 62.780155 
L 440.45316 59.541739 
L 447.462867 56.303322 
L 454.472574 53.064905 
L 461.482281 49.826489 
L 468.491989 46.588072 
" clip-path="url(#pd346f200d5)" style="fill: none; stroke: #e15759; stroke-width: 2; stroke-linecap: square"/>
   </g>
   <g id="line2d_84">
    <path d="M 54.919261 231.782302 
L 61.928969 228.821416 
L 68.938676 225.86053 
L 75.948383 222.899643 
L 82.95809 219.938757 
L 89.967798 216.977871 
L 96.977505 214.016985 
L 103.987212 211.056099 
L 110.996919 208.095212 
L 118.006627 205.134326 
L 125.016334 202.17344 
L 132.026041 199.212554 
L 139.035748 196.251668 
L 146.045456 193.290781 
L 153.055163 190.329895 
L 160.06487 187.369009 
L 167.074577 184.408123 
L 174.084284 181.447237 
L 181.093992 178.48635 
L 188.103699 175.525464 
L 195.113406 172.564578 
L 202.123113 169.603692 
L 209.132821 166.642806 
L 216.142528 163.681919 
L 223.152235 160.721033 
L 230.161942 157.760147 
L 237.17165 154.799261 
L 244.181357 151.838375 
L 251.191064 148.877488 
L 258.200771 145.916602 
L 265.210479 142.955716 
L 272.220186 139.99483 
L 279.229893 137.033944 
L 286.2396 134.073057 
L 293.249308 131.112171 
L 300.259015 128.151285 
L 307.268722 125.190399 
L 314.278429 122.229513 
L 321.288137 119.268626 
L 328.297844 116.30774 
L 335.307551 113.346854 
L 342.317258 110.385968 
L 349.326966 107.425082 
L 356.336673 104.464195 
L 363.34638 101.503309 
L 370.356087 98.542423 
L 377.365794 95.581537 
L 384.375502 92.620651 
L 391.385209 89.659764 
L 398.394916 86.698878 
L 405.404623 83.737992 
L 412.414331 80.777106 
L 419.424038 77.81622 
L 426.433745 74.855334 
L 433.443452 71.894447 
L 440.45316 68.933561 
L 447.462867 65.972675 
L 454.472574 63.011789 
L 461.482281 60.050903 
L 468.491989 57.090016 
" clip-path="url(#pd346f200d5)" style="fill: none; stroke-dasharray: 1.5,2.475; stroke-dashoffset: 0; stroke: #59a14f; stroke-width: 1.5"/>
   </g>
   <g id="patch_3">
    <path d="M 34.240625 277.478125 
L 34.240625 22.318125 
" style="fill: none; stroke: #000000; stroke-width: 0.8; stroke-linejoin: miter; stroke-linecap: square"/>
   </g>
   <g id="patch_4">
    <path d="M 489.170625 277.478125 
L 489.170625 22.318125 
" style="fill: none; stroke: #000000; stroke-width: 0.8; stroke-linejoin: miter; stroke-linecap: square"/>
   </g>
   <g id="patch_5">
    <path d="M 34.240625 277.478125 
L 489.170625 277.478125 
" style="fill: none; stroke: #000000; stroke-width: 0.8; stroke-linejoin: miter; stroke-linecap: square"/>
   </g>
   <g id="patch_6">
    <path d="M 34.240625 22.318125 
L 489.170625 22.318125 
" style="fill: none; stroke: #000000; stroke-width: 0.8; stroke-linejoin: miter; stroke-linecap: square"/>
   </g>
   <g id="text_14">
    <!-- Simple linear regression: OLS fit and per-point residuals -->
    <g transform="translate(94.385312 16.318125) scale(0.12 -0.12)">
     <defs>
      <path id="DejaVuSans-53" d="M 3425 4513 
L 3425 3897 
Q 3066 4069 2747 4153 
Q 2428 4238 2131 4238 
Q 1616 4238 1336 4038 
Q 1056 3838 1056 3469 
Q 1056 3159 1242 3001 
Q 1428 2844 1947 2747 
L 2328 2669 
Q 3034 2534 3370 2195 
Q 3706 1856 3706 1288 
Q 3706 609 3251 259 
Q 2797 -91 1919 -91 
Q 1588 -91 1214 -16 
Q 841 59 441 206 
L 441 856 
Q 825 641 1194 531 
Q 1563 422 1919 422 
Q 2459 422 2753 634 
Q 3047 847 3047 1241 
Q 3047 1584 2836 1778 
Q 2625 1972 2144 2069 
L 1759 2144 
Q 1053 2284 737 2584 
Q 422 2884 422 3419 
Q 422 4038 858 4394 
Q 1294 4750 2059 4750 
Q 2388 4750 2728 4690 
Q 3069 4631 3425 4513 
z
" transform="scale(0.015625)"/>
      <path id="DejaVuSans-69" d="M 603 3500 
L 1178 3500 
L 1178 0 
L 603 0 
L 603 3500 
z
M 603 4863 
L 1178 4863 
L 1178 4134 
L 603 4134 
L 603 4863 
z
" transform="scale(0.015625)"/>
      <path id="DejaVuSans-6d" d="M 3328 2828 
Q 3544 3216 3844 3400 
Q 4144 3584 4550 3584 
Q 5097 3584 5394 3201 
Q 5691 2819 5691 2113 
L 5691 0 
L 5113 0 
L 5113 2094 
Q 5113 2597 4934 2840 
Q 4756 3084 4391 3084 
Q 3944 3084 3684 2787 
Q 3425 2491 3425 1978 
L 3425 0 
L 2847 0 
L 2847 2094 
Q 2847 2600 2669 2842 
Q 2491 3084 2119 3084 
Q 1678 3084 1418 2786 
Q 1159 2488 1159 1978 
L 1159 0 
L 581 0 
L 581 3500 
L 1159 3500 
L 1159 2956 
Q 1356 3278 1631 3431 
Q 1906 3584 2284 3584 
Q 2666 3584 2933 3390 
Q 3200 3197 3328 2828 
z
" transform="scale(0.015625)"/>
      <path id="DejaVuSans-70" d="M 1159 525 
L 1159 -1331 
L 581 -1331 
L 581 3500 
L 1159 3500 
L 1159 2969 
Q 1341 3281 1617 3432 
Q 1894 3584 2278 3584 
Q 2916 3584 3314 3078 
Q 3713 2572 3713 1747 
Q 3713 922 3314 415 
Q 2916 -91 2278 -91 
Q 1894 -91 1617 61 
Q 1341 213 1159 525 
z
M 3116 1747 
Q 3116 2381 2855 2742 
Q 2594 3103 2138 3103 
Q 1681 3103 1420 2742 
Q 1159 2381 1159 1747 
Q 1159 1113 1420 752 
Q 1681 391 2138 391 
Q 2594 391 2855 752 
Q 3116 1113 3116 1747 
z
" transform="scale(0.015625)"/>
      <path id="DejaVuSans-6c" d="M 603 4863 
L 1178 4863 
L 1178 0 
L 603 0 
L 603 4863 
z
" transform="scale(0.015625)"/>
      <path id="DejaVuSans-65" d="M 3597 1894 
L 3597 1613 
L 953 1613 
Q 991 1019 1311 708 
Q 1631 397 2203 397 
Q 2534 397 2845 478 
Q 3156 559 3463 722 
L 3463 178 
Q 3153 47 2828 -22 
Q 2503 -91 2169 -91 
Q 1331 -91 842 396 
Q 353 884 353 1716 
Q 353 2575 817 3079 
Q 1281 3584 2069 3584 
Q 2775 3584 3186 3129 
Q 3597 2675 3597 1894 
z
M 3022 2063 
Q 3016 2534 2758 2815 
Q 2500 3097 2075 3097 
Q 1594 3097 1305 2825 
Q 1016 2553 972 2059 
L 3022 2063 
z
" transform="scale(0.015625)"/>
      <path id="DejaVuSans-20" transform="scale(0.015625)"/>
      <path id="DejaVuSans-6e" d="M 3513 2113 
L 3513 0 
L 2938 0 
L 2938 2094 
Q 2938 2591 2744 2837 
Q 2550 3084 2163 3084 
Q 1697 3084 1428 2787 
Q 1159 2491 1159 1978 
L 1159 0 
L 581 0 
L 581 3500 
L 1159 3500 
L 1159 2956 
Q 1366 3272 1645 3428 
Q 1925 3584 2291 3584 
Q 2894 3584 3203 3211 
Q 3513 2838 3513 2113 
z
" transform="scale(0.015625)"/>
      <path id="DejaVuSans-61" d="M 2194 1759 
Q 1497 1759 1228 1600 
Q 959 1441 959 1056 
Q 959 750 1161 570 
Q 1363 391 1709 391 
Q 2188 391 2477 730 
Q 2766 1069 2766 1631 
L 2766 1759 
L 2194 1759 
z
M 3341 1997 
L 3341 0 
L 2766 0 
L 2766 531 
Q 2569 213 2275 61 
Q 1981 -91 1556 -91 
Q 1019 -91 701 211 
Q 384 513 384 1019 
Q 384 1609 779 1909 
Q 1175 2209 1959 2209 
L 2766 2209 
L 2766 2266 
Q 2766 2663 2505 2880 
Q 2244 3097 1772 3097 
Q 1472 3097 1187 3025 
Q 903 2953 641 2809 
L 641 3341 
Q 956 3463 1253 3523 
Q 1550 3584 1831 3584 
Q 2591 3584 2966 3190 
Q 3341 2797 3341 1997 
z
" transform="scale(0.015625)"/>
      <path id="DejaVuSans-72" d="M 2631 2963 
Q 2534 3019 2420 3045 
Q 2306 3072 2169 3072 
Q 1681 3072 1420 2755 
Q 1159 2438 1159 1844 
L 1159 0 
L 581 0 
L 581 3500 
L 1159 3500 
L 1159 2956 
Q 1341 3275 1631 3429 
Q 1922 3584 2338 3584 
Q 2397 3584 2469 3576 
Q 2541 3569 2628 3553 
L 2631 2963 
z
" transform="scale(0.015625)"/>
      <path id="DejaVuSans-67" d="M 2906 1791 
Q 2906 2416 2648 2759 
Q 2391 3103 1925 3103 
Q 1463 3103 1205 2759 
Q 947 2416 947 1791 
Q 947 1169 1205 825 
Q 1463 481 1925 481 
Q 2391 481 2648 825 
Q 2906 1169 2906 1791 
z
M 3481 434 
Q 3481 -459 3084 -895 
Q 2688 -1331 1869 -1331 
Q 1566 -1331 1297 -1286 
Q 1028 -1241 775 -1147 
L 775 -588 
Q 1028 -725 1275 -790 
Q 1522 -856 1778 -856 
Q 2344 -856 2625 -561 
Q 2906 -266 2906 331 
L 2906 616 
Q 2728 306 2450 153 
Q 2172 0 1784 0 
Q 1141 0 747 490 
Q 353 981 353 1791 
Q 353 2603 747 3093 
Q 1141 3584 1784 3584 
Q 2172 3584 2450 3431 
Q 2728 3278 2906 2969 
L 2906 3500 
L 3481 3500 
L 3481 434 
z
" transform="scale(0.015625)"/>
      <path id="DejaVuSans-73" d="M 2834 3397 
L 2834 2853 
Q 2591 2978 2328 3040 
Q 2066 3103 1784 3103 
Q 1356 3103 1142 2972 
Q 928 2841 928 2578 
Q 928 2378 1081 2264 
Q 1234 2150 1697 2047 
L 1894 2003 
Q 2506 1872 2764 1633 
Q 3022 1394 3022 966 
Q 3022 478 2636 193 
Q 2250 -91 1575 -91 
Q 1294 -91 989 -36 
Q 684 19 347 128 
L 347 722 
Q 666 556 975 473 
Q 1284 391 1588 391 
Q 1994 391 2212 530 
Q 2431 669 2431 922 
Q 2431 1156 2273 1281 
Q 2116 1406 1581 1522 
L 1381 1569 
Q 847 1681 609 1914 
Q 372 2147 372 2553 
Q 372 3047 722 3315 
Q 1072 3584 1716 3584 
Q 2034 3584 2315 3537 
Q 2597 3491 2834 3397 
z
" transform="scale(0.015625)"/>
      <path id="DejaVuSans-6f" d="M 1959 3097 
Q 1497 3097 1228 2736 
Q 959 2375 959 1747 
Q 959 1119 1226 758 
Q 1494 397 1959 397 
Q 2419 397 2687 759 
Q 2956 1122 2956 1747 
Q 2956 2369 2687 2733 
Q 2419 3097 1959 3097 
z
M 1959 3584 
Q 2709 3584 3137 3096 
Q 3566 2609 3566 1747 
Q 3566 888 3137 398 
Q 2709 -91 1959 -91 
Q 1206 -91 779 398 
Q 353 888 353 1747 
Q 353 2609 779 3096 
Q 1206 3584 1959 3584 
z
" transform="scale(0.015625)"/>
      <path id="DejaVuSans-3a" d="M 750 794 
L 1409 794 
L 1409 0 
L 750 0 
L 750 794 
z
M 750 3309 
L 1409 3309 
L 1409 2516 
L 750 2516 
L 750 3309 
z
" transform="scale(0.015625)"/>
      <path id="DejaVuSans-4f" d="M 2522 4238 
Q 1834 4238 1429 3725 
Q 1025 3213 1025 2328 
Q 1025 1447 1429 934 
Q 1834 422 2522 422 
Q 3209 422 3611 934 
Q 4013 1447 4013 2328 
Q 4013 3213 3611 3725 
Q 3209 4238 2522 4238 
z
M 2522 4750 
Q 3503 4750 4090 4092 
Q 4678 3434 4678 2328 
Q 4678 1225 4090 567 
Q 3503 -91 2522 -91 
Q 1538 -91 948 565 
Q 359 1222 359 2328 
Q 359 3434 948 4092 
Q 1538 4750 2522 4750 
z
" transform="scale(0.015625)"/>
      <path id="DejaVuSans-4c" d="M 628 4666 
L 1259 4666 
L 1259 531 
L 3531 531 
L 3531 0 
L 628 0 
L 628 4666 
z
" transform="scale(0.015625)"/>
      <path id="DejaVuSans-66" d="M 2375 4863 
L 2375 4384 
L 1825 4384 
Q 1516 4384 1395 4259 
Q 1275 4134 1275 3809 
L 1275 3500 
L 2222 3500 
L 2222 3053 
L 1275 3053 
L 1275 0 
L 697 0 
L 697 3053 
L 147 3053 
L 147 3500 
L 697 3500 
L 697 3744 
Q 697 4328 969 4595 
Q 1241 4863 1831 4863 
L 2375 4863 
z
" transform="scale(0.015625)"/>
      <path id="DejaVuSans-74" d="M 1172 4494 
L 1172 3500 
L 2356 3500 
L 2356 3053 
L 1172 3053 
L 1172 1153 
Q 1172 725 1289 603 
Q 1406 481 1766 481 
L 2356 481 
L 2356 0 
L 1766 0 
Q 1100 0 847 248 
Q 594 497 594 1153 
L 594 3053 
L 172 3053 
L 172 3500 
L 594 3500 
L 594 4494 
L 1172 4494 
z
" transform="scale(0.015625)"/>
      <path id="DejaVuSans-64" d="M 2906 2969 
L 2906 4863 
L 3481 4863 
L 3481 0 
L 2906 0 
L 2906 525 
Q 2725 213 2448 61 
Q 2172 -91 1784 -91 
Q 1150 -91 751 415 
Q 353 922 353 1747 
Q 353 2572 751 3078 
Q 1150 3584 1784 3584 
Q 2172 3584 2448 3432 
Q 2725 3281 2906 2969 
z
M 947 1747 
Q 947 1113 1208 752 
Q 1469 391 1925 391 
Q 2381 391 2643 752 
Q 2906 1113 2906 1747 
Q 2906 2381 2643 2742 
Q 2381 3103 1925 3103 
Q 1469 3103 1208 2742 
Q 947 2381 947 1747 
z
" transform="scale(0.015625)"/>
      <path id="DejaVuSans-2d" d="M 313 2009 
L 1997 2009 
L 1997 1497 
L 313 1497 
L 313 2009 
z
" transform="scale(0.015625)"/>
      <path id="DejaVuSans-75" d="M 544 1381 
L 544 3500 
L 1119 3500 
L 1119 1403 
Q 1119 906 1312 657 
Q 1506 409 1894 409 
Q 2359 409 2629 706 
Q 2900 1003 2900 1516 
L 2900 3500 
L 3475 3500 
L 3475 0 
L 2900 0 
L 2900 538 
Q 2691 219 2414 64 
Q 2138 -91 1772 -91 
Q 1169 -91 856 284 
Q 544 659 544 1381 
z
M 1991 3584 
L 1991 3584 
z
" transform="scale(0.015625)"/>
     </defs>
     <use xlink:href="#DejaVuSans-53"/>
     <use xlink:href="#DejaVuSans-69" transform="translate(63.476562 0)"/>
     <use xlink:href="#DejaVuSans-6d" transform="translate(91.259766 0)"/>
     <use xlink:href="#DejaVuSans-70" transform="translate(188.671875 0)"/>
     <use xlink:href="#DejaVuSans-6c" transform="translate(252.148438 0)"/>
     <use xlink:href="#DejaVuSans-65" transform="translate(279.931641 0)"/>
     <use xlink:href="#DejaVuSans-20" transform="translate(341.455078 0)"/>
     <use xlink:href="#DejaVuSans-6c" transform="translate(373.242188 0)"/>
     <use xlink:href="#DejaVuSans-69" transform="translate(401.025391 0)"/>
     <use xlink:href="#DejaVuSans-6e" transform="translate(428.808594 0)"/>
     <use xlink:href="#DejaVuSans-65" transform="translate(492.1875 0)"/>
     <use xlink:href="#DejaVuSans-61" transform="translate(553.710938 0)"/>
     <use xlink:href="#DejaVuSans-72" transform="translate(614.990234 0)"/>
     <use xlink:href="#DejaVuSans-20" transform="translate(656.103516 0)"/>
     <use xlink:href="#DejaVuSans-72" transform="translate(687.890625 0)"/>
     <use xlink:href="#DejaVuSans-65" transform="translate(726.753906 0)"/>
     <use xlink:href="#DejaVuSans-67" transform="translate(788.277344 0)"/>
     <use xlink:href="#DejaVuSans-72" transform="translate(851.753906 0)"/>
     <use xlink:href="#DejaVuSans-65" transform="translate(890.617188 0)"/>
     <use xlink:href="#DejaVuSans-73" transform="translate(952.140625 0)"/>
     <use xlink:href="#DejaVuSans-73" transform="translate(1004.240234 0)"/>
     <use xlink:href="#DejaVuSans-69" transform="translate(1056.339844 0)"/>
     <use xlink:href="#DejaVuSans-6f" transform="translate(1084.123047 0)"/>
     <use xlink:href="#DejaVuSans-6e" transform="translate(1145.304688 0)"/>
     <use xlink:href="#DejaVuSans-3a" transform="translate(1208.683594 0)"/>
     <use xlink:href="#DejaVuSans-20" transform="translate(1242.375 0)"/>
     <use xlink:href="#DejaVuSans-4f" transform="translate(1274.162109 0)"/>
     <use xlink:href="#DejaVuSans-4c" transform="translate(1352.873047 0)"/>
     <use xlink:href="#DejaVuSans-53" transform="translate(1408.585938 0)"/>
     <use xlink:href="#DejaVuSans-20" transform="translate(1472.0625 0)"/>
     <use xlink:href="#DejaVuSans-66" transform="translate(1503.849609 0)"/>
     <use xlink:href="#DejaVuSans-69" transform="translate(1539.054688 0)"/>
     <use xlink:href="#DejaVuSans-74" transform="translate(1566.837891 0)"/>
     <use xlink:href="#DejaVuSans-20" transform="translate(1606.046875 0)"/>
     <use xlink:href="#DejaVuSans-61" transform="translate(1637.833984 0)"/>
     <use xlink:href="#DejaVuSans-6e" transform="translate(1699.113281 0)"/>
     <use xlink:href="#DejaVuSans-64" transform="translate(1762.492188 0)"/>
     <use xlink:href="#DejaVuSans-20" transform="translate(1825.96875 0)"/>
     <use xlink:href="#DejaVuSans-70" transform="translate(1857.755859 0)"/>
     <use xlink:href="#DejaVuSans-65" transform="translate(1921.232422 0)"/>
     <use xlink:href="#DejaVuSans-72" transform="translate(1982.755859 0)"/>
     <use xlink:href="#DejaVuSans-2d" transform="translate(2017.494141 0)"/>
     <use xlink:href="#DejaVuSans-70" transform="translate(2053.578125 0)"/>
     <use xlink:href="#DejaVuSans-6f" transform="translate(2117.054688 0)"/>
     <use xlink:href="#DejaVuSans-69" transform="translate(2178.236328 0)"/>
     <use xlink:href="#DejaVuSans-6e" transform="translate(2206.019531 0)"/>
     <use xlink:href="#DejaVuSans-74" transform="translate(2269.398438 0)"/>
     <use xlink:href="#DejaVuSans-20" transform="translate(2308.607422 0)"/>
     <use xlink:href="#DejaVuSans-72" transform="translate(2340.394531 0)"/>
     <use xlink:href="#DejaVuSans-65" transform="translate(2379.257812 0)"/>
     <use xlink:href="#DejaVuSans-73" transform="translate(2440.78125 0)"/>
     <use xlink:href="#DejaVuSans-69" transform="translate(2492.880859 0)"/>
     <use xlink:href="#DejaVuSans-64" transform="translate(2520.664062 0)"/>
     <use xlink:href="#DejaVuSans-75" transform="translate(2584.140625 0)"/>
     <use xlink:href="#DejaVuSans-61" transform="translate(2647.519531 0)"/>
     <use xlink:href="#DejaVuSans-6c" transform="translate(2708.798828 0)"/>
     <use xlink:href="#DejaVuSans-73" transform="translate(2736.582031 0)"/>
    </g>
   </g>
   <g id="legend_1">
    <g id="patch_7">
     <path d="M 40.540625 69.509062 
L 173.162656 69.509062 
Q 174.962656 69.509062 174.962656 67.709062 
L 174.962656 28.618125 
Q 174.962656 26.818125 173.162656 26.818125 
L 40.540625 26.818125 
Q 38.740625 26.818125 38.740625 28.618125 
L 38.740625 67.709062 
Q 38.740625 69.509062 40.540625 69.509062 
z
" style="fill: #ffffff; opacity: 0.8; stroke: #cccccc; stroke-linejoin: miter"/>
    </g>
    <g id="PathCollection_2">
     <g>
      <use xlink:href="#m1429f70436" x="51.340625" y="34.894219" style="fill: #7aa6c2; fill-opacity: 0.7; stroke: #7aa6c2; stroke-opacity: 0.7"/>
     </g>
    </g>
    <g id="text_15">
     <!-- data -->
     <g transform="translate(67.540625 37.256719) scale(0.09 -0.09)">
      <use xlink:href="#DejaVuSans-64"/>
      <use xlink:href="#DejaVuSans-61" transform="translate(63.476562 0)"/>
      <use xlink:href="#DejaVuSans-74" transform="translate(124.755859 0)"/>
      <use xlink:href="#DejaVuSans-61" transform="translate(163.964844 0)"/>
     </g>
    </g>
    <g id="line2d_85">
     <path d="M 42.340625 47.677031 
L 51.340625 47.677031 
L 60.340625 47.677031 
" style="fill: none; stroke: #e15759; stroke-width: 2; stroke-linecap: square"/>
    </g>
    <g id="text_16">
     <!-- OLS: ŷ = 0.77 x + 1.26 -->
     <g transform="translate(67.540625 50.827031) scale(0.09 -0.09)">
      <defs>
       <path id="DejaVuSans-177" d="M 1665 5119 
L 2127 5119 
L 2893 3944 
L 2459 3944 
L 1896 4709 
L 1334 3944 
L 899 3944 
L 1665 5119 
z
M 2059 -325 
Q 1816 -950 1584 -1140 
Q 1353 -1331 966 -1331 
L 506 -1331 
L 506 -850 
L 844 -850 
Q 1081 -850 1212 -737 
Q 1344 -625 1503 -206 
L 1606 56 
L 191 3500 
L 800 3500 
L 1894 763 
L 2988 3500 
L 3597 3500 
L 2059 -325 
z
" transform="scale(0.015625)"/>
       <path id="DejaVuSans-3d" d="M 678 2906 
L 4684 2906 
L 4684 2381 
L 678 2381 
L 678 2906 
z
M 678 1631 
L 4684 1631 
L 4684 1100 
L 678 1100 
L 678 1631 
z
" transform="scale(0.015625)"/>
       <path id="DejaVuSans-2e" d="M 684 794 
L 1344 794 
L 1344 0 
L 684 0 
L 684 794 
z
" transform="scale(0.015625)"/>
       <path id="DejaVuSans-37" d="M 525 4666 
L 3525 4666 
L 3525 4397 
L 1831 0 
L 1172 0 
L 2766 4134 
L 525 4134 
L 525 4666 
z
" transform="scale(0.015625)"/>
       <path id="DejaVuSans-2b" d="M 2944 4013 
L 2944 2272 
L 4684 2272 
L 4684 1741 
L 2944 1741 
L 2944 0 
L 2419 0 
L 2419 1741 
L 678 1741 
L 678 2272 
L 2419 2272 
L 2419 4013 
L 2944 4013 
z
" transform="scale(0.015625)"/>
      </defs>
      <use xlink:href="#DejaVuSans-4f"/>
      <use xlink:href="#DejaVuSans-4c" transform="translate(78.710938 0)"/>
      <use xlink:href="#DejaVuSans-53" transform="translate(134.423828 0)"/>
      <use xlink:href="#DejaVuSans-3a" transform="translate(197.900391 0)"/>
      <use xlink:href="#DejaVuSans-20" transform="translate(231.591797 0)"/>
      <use xlink:href="#DejaVuSans-177" transform="translate(263.378906 0)"/>
      <use xlink:href="#DejaVuSans-20" transform="translate(322.558594 0)"/>
      <use xlink:href="#DejaVuSans-3d" transform="translate(354.345703 0)"/>
      <use xlink:href="#DejaVuSans-20" transform="translate(438.134766 0)"/>
      <use xlink:href="#DejaVuSans-30" transform="translate(469.921875 0)"/>
      <use xlink:href="#DejaVuSans-2e" transform="translate(533.544922 0)"/>
      <use xlink:href="#DejaVuSans-37" transform="translate(565.332031 0)"/>
      <use xlink:href="#DejaVuSans-37" transform="translate(628.955078 0)"/>
      <use xlink:href="#DejaVuSans-20" transform="translate(692.578125 0)"/>
      <use xlink:href="#DejaVuSans-78" transform="translate(724.365234 0)"/>
      <use xlink:href="#DejaVuSans-20" transform="translate(783.544922 0)"/>
      <use xlink:href="#DejaVuSans-2b" transform="translate(815.332031 0)"/>
      <use xlink:href="#DejaVuSans-20" transform="translate(899.121094 0)"/>
      <use xlink:href="#DejaVuSans-31" transform="translate(930.908203 0)"/>
      <use xlink:href="#DejaVuSans-2e" transform="translate(994.53125 0)"/>
      <use xlink:href="#DejaVuSans-32" transform="translate(1026.318359 0)"/>
      <use xlink:href="#DejaVuSans-36" transform="translate(1089.941406 0)"/>
     </g>
    </g>
    <g id="line2d_86">
     <path d="M 42.340625 60.887344 
L 51.340625 60.887344 
L 60.340625 60.887344 
" style="fill: none; stroke-dasharray: 1.5,2.475; stroke-dashoffset: 0; stroke: #59a14f; stroke-width: 1.5"/>
    </g>
    <g id="text_17">
     <!-- true: y = 0.7 x + 1.5 -->
     <g transform="translate(67.540625 64.037344) scale(0.09 -0.09)">
      <defs>
       <path id="DejaVuSans-35" d="M 691 4666 
L 3169 4666 
L 3169 4134 
L 1269 4134 
L 1269 2991 
Q 1406 3038 1543 3061 
Q 1681 3084 1819 3084 
Q 2600 3084 3056 2656 
Q 3513 2228 3513 1497 
Q 3513 744 3044 326 
Q 2575 -91 1722 -91 
Q 1428 -91 1123 -41 
Q 819 9 494 109 
L 494 744 
Q 775 591 1075 516 
Q 1375 441 1709 441 
Q 2250 441 2565 725 
Q 2881 1009 2881 1497 
Q 2881 1984 2565 2268 
Q 2250 2553 1709 2553 
Q 1456 2553 1204 2497 
Q 953 2441 691 2322 
L 691 4666 
z
" transform="scale(0.015625)"/>
      </defs>
      <use xlink:href="#DejaVuSans-74"/>
      <use xlink:href="#DejaVuSans-72" transform="translate(39.208984 0)"/>
      <use xlink:href="#DejaVuSans-75" transform="translate(80.322266 0)"/>
      <use xlink:href="#DejaVuSans-65" transform="translate(143.701172 0)"/>
      <use xlink:href="#DejaVuSans-3a" transform="translate(205.224609 0)"/>
      <use xlink:href="#DejaVuSans-20" transform="translate(238.916016 0)"/>
      <use xlink:href="#DejaVuSans-79" transform="translate(270.703125 0)"/>
      <use xlink:href="#DejaVuSans-20" transform="translate(329.882812 0)"/>
      <use xlink:href="#DejaVuSans-3d" transform="translate(361.669922 0)"/>
      <use xlink:href="#DejaVuSans-20" transform="translate(445.458984 0)"/>
      <use xlink:href="#DejaVuSans-30" transform="translate(477.246094 0)"/>
      <use xlink:href="#DejaVuSans-2e" transform="translate(540.869141 0)"/>
      <use xlink:href="#DejaVuSans-37" transform="translate(572.65625 0)"/>
      <use xlink:href="#DejaVuSans-20" transform="translate(636.279297 0)"/>
      <use xlink:href="#DejaVuSans-78" transform="translate(668.066406 0)"/>
      <use xlink:href="#DejaVuSans-20" transform="translate(727.246094 0)"/>
      <use xlink:href="#DejaVuSans-2b" transform="translate(759.033203 0)"/>
      <use xlink:href="#DejaVuSans-20" transform="translate(842.822266 0)"/>
      <use xlink:href="#DejaVuSans-31" transform="translate(874.609375 0)"/>
      <use xlink:href="#DejaVuSans-2e" transform="translate(938.232422 0)"/>
      <use xlink:href="#DejaVuSans-35" transform="translate(970.019531 0)"/>
     </g>
    </g>
   </g>
  </g>
 </g>
 <defs>
  <clipPath id="pd346f200d5">
   <rect x="34.240625" y="22.318125" width="454.93" height="255.16"/>
  </clipPath>
 </defs>
</svg>
