<?xml version="1.0" encoding="utf-8" standalone="no"?>
<!DOCTYPE svg PUBLIC "-//W3C//DTD SVG 1.1//EN"
  "http://www.w3.org/Graphics/SVG/1.1/DTD/svg11.dtd">
<svg xmlns:xlink="http://www.w3.org/1999/xlink" width="568.46125pt" height="207.034375pt" viewBox="0 0 568.46125 207.034375" xmlns="http://www.w3.org/2000/svg" version="1.1">
 <metadata>
  <rdf:RDF xmlns:dc="http://purl.org/dc/elements/1.1/" xmlns:cc="http://creativecommons.org/ns#" xmlns:rdf="http://www.w3.org/1999/02/22-rdf-syntax-ns#">
   <cc:Work>
    <dc:type rdf:resource="http://purl.org/dc/dcmitype/StillImage"/>
    <dc:date>2026-05-24T21:06:24.343713</dc:date>
    <dc:format>image/svg+xml</dc:format>
    <dc:creator>
     <cc:Agent>
      <dc:title>Matplotlib v3.10.8, https://matplotlib.org/</dc:title>
     </cc:Agent>
    </dc:creator>
   </cc:Work>
  </rdf:RDF>
 </metadata>
 <defs>
  <style type="text/css">*{stroke-linejoin: round; stroke-linecap: butt}</style>
 </defs>
 <g id="figure_1">
  <g id="patch_1">
   <path d="M 0 207.034375 
L 568.46125 207.034375 
L 568.46125 0 
L 0 0 
z
" style="fill: #ffffff"/>
  </g>
  <g id="axes_1">
   <g id="patch_2">
    <path d="M 43.78125 169.478125 
L 278.66125 169.478125 
L 278.66125 22.318125 
L 43.78125 22.318125 
z
" style="fill: #ffffff"/>
   </g>
   <g id="matplotlib.axis_1">
    <g id="xtick_1">
     <g id="line2d_1">
      <defs>
       <path id="me027333220" d="M 0 0 
L 0 3.5 
" style="stroke: #000000; stroke-width: 0.8"/>
      </defs>
      <g>
       <use xlink:href="#me027333220" x="54.457614" y="169.478125" style="stroke: #000000; stroke-width: 0.8"/>
      </g>
     </g>
     <g id="text_1">
      <!-- 0.0 -->
      <g transform="translate(46.506051 184.076563) scale(0.1 -0.1)">
       <defs>
        <path id="DejaVuSans-30" d="M 2034 4250 
Q 1547 4250 1301 3770 
Q 1056 3291 1056 2328 
Q 1056 1369 1301 889 
Q 1547 409 2034 409 
Q 2525 409 2770 889 
Q 3016 1369 3016 2328 
Q 3016 3291 2770 3770 
Q 2525 4250 2034 4250 
z
M 2034 4750 
Q 2819 4750 3233 4129 
Q 3647 3509 3647 2328 
Q 3647 1150 3233 529 
Q 2819 -91 2034 -91 
Q 1250 -91 836 529 
Q 422 1150 422 2328 
Q 422 3509 836 4129 
Q 1250 4750 2034 4750 
z
" transform="scale(0.015625)"/>
        <path id="DejaVuSans-2e" d="M 684 794 
L 1344 794 
L 1344 0 
L 684 0 
L 684 794 
z
" transform="scale(0.015625)"/>
       </defs>
       <use xlink:href="#DejaVuSans-30"/>
       <use xlink:href="#DejaVuSans-2e" transform="translate(63.623047 0)"/>
       <use xlink:href="#DejaVuSans-30" transform="translate(95.410156 0)"/>
      </g>
     </g>
    </g>
    <g id="xtick_2">
     <g id="line2d_2">
      <g>
       <use xlink:href="#me027333220" x="97.163068" y="169.478125" style="stroke: #000000; stroke-width: 0.8"/>
      </g>
     </g>
     <g id="text_2">
      <!-- 0.2 -->
      <g transform="translate(89.211506 184.076563) scale(0.1 -0.1)">
       <defs>
        <path id="DejaVuSans-32" d="M 1228 531 
L 3431 531 
L 3431 0 
L 469 0 
L 469 531 
Q 828 903 1448 1529 
Q 2069 2156 2228 2338 
Q 2531 2678 2651 2914 
Q 2772 3150 2772 3378 
Q 2772 3750 2511 3984 
Q 2250 4219 1831 4219 
Q 1534 4219 1204 4116 
Q 875 4013 500 3803 
L 500 4441 
Q 881 4594 1212 4672 
Q 1544 4750 1819 4750 
Q 2544 4750 2975 4387 
Q 3406 4025 3406 3419 
Q 3406 3131 3298 2873 
Q 3191 2616 2906 2266 
Q 2828 2175 2409 1742 
Q 1991 1309 1228 531 
z
" transform="scale(0.015625)"/>
       </defs>
       <use xlink:href="#DejaVuSans-30"/>
       <use xlink:href="#DejaVuSans-2e" transform="translate(63.623047 0)"/>
       <use xlink:href="#DejaVuSans-32" transform="translate(95.410156 0)"/>
      </g>
     </g>
    </g>
    <g id="xtick_3">
     <g id="line2d_3">
      <g>
       <use xlink:href="#me027333220" x="139.868523" y="169.478125" style="stroke: #000000; stroke-width: 0.8"/>
      </g>
     </g>
     <g id="text_3">
      <!-- 0.4 -->
      <g transform="translate(131.91696 184.076563) scale(0.1 -0.1)">
       <defs>
        <path id="DejaVuSans-34" d="M 2419 4116 
L 825 1625 
L 2419 1625 
L 2419 4116 
z
M 2253 4666 
L 3047 4666 
L 3047 1625 
L 3713 1625 
L 3713 1100 
L 3047 1100 
L 3047 0 
L 2419 0 
L 2419 1100 
L 313 1100 
L 313 1709 
L 2253 4666 
z
" transform="scale(0.015625)"/>
       </defs>
       <use xlink:href="#DejaVuSans-30"/>
       <use xlink:href="#DejaVuSans-2e" transform="translate(63.623047 0)"/>
       <use xlink:href="#DejaVuSans-34" transform="translate(95.410156 0)"/>
      </g>
     </g>
    </g>
    <g id="xtick_4">
     <g id="line2d_4">
      <g>
       <use xlink:href="#me027333220" x="182.573977" y="169.478125" style="stroke: #000000; stroke-width: 0.8"/>
      </g>
     </g>
     <g id="text_4">
      <!-- 0.6 -->
      <g transform="translate(174.622415 184.076563) scale(0.1 -0.1)">
       <defs>
        <path id="DejaVuSans-36" d="M 2113 2584 
Q 1688 2584 1439 2293 
Q 1191 2003 1191 1497 
Q 1191 994 1439 701 
Q 1688 409 2113 409 
Q 2538 409 2786 701 
Q 3034 994 3034 1497 
Q 3034 2003 2786 2293 
Q 2538 2584 2113 2584 
z
M 3366 4563 
L 3366 3988 
Q 3128 4100 2886 4159 
Q 2644 4219 2406 4219 
Q 1781 4219 1451 3797 
Q 1122 3375 1075 2522 
Q 1259 2794 1537 2939 
Q 1816 3084 2150 3084 
Q 2853 3084 3261 2657 
Q 3669 2231 3669 1497 
Q 3669 778 3244 343 
Q 2819 -91 2113 -91 
Q 1303 -91 875 529 
Q 447 1150 447 2328 
Q 447 3434 972 4092 
Q 1497 4750 2381 4750 
Q 2619 4750 2861 4703 
Q 3103 4656 3366 4563 
z
" transform="scale(0.015625)"/>
       </defs>
       <use xlink:href="#DejaVuSans-30"/>
       <use xlink:href="#DejaVuSans-2e" transform="translate(63.623047 0)"/>
       <use xlink:href="#DejaVuSans-36" transform="translate(95.410156 0)"/>
      </g>
     </g>
    </g>
    <g id="xtick_5">
     <g id="line2d_5">
      <g>
       <use xlink:href="#me027333220" x="225.279432" y="169.478125" style="stroke: #000000; stroke-width: 0.8"/>
      </g>
     </g>
     <g id="text_5">
      <!-- 0.8 -->
      <g transform="translate(217.327869 184.076563) scale(0.1 -0.1)">
       <defs>
        <path id="DejaVuSans-38" d="M 2034 2216 
Q 1584 2216 1326 1975 
Q 1069 1734 1069 1313 
Q 1069 891 1326 650 
Q 1584 409 2034 409 
Q 2484 409 2743 651 
Q 3003 894 3003 1313 
Q 3003 1734 2745 1975 
Q 2488 2216 2034 2216 
z
M 1403 2484 
Q 997 2584 770 2862 
Q 544 3141 544 3541 
Q 544 4100 942 4425 
Q 1341 4750 2034 4750 
Q 2731 4750 3128 4425 
Q 3525 4100 3525 3541 
Q 3525 3141 3298 2862 
Q 3072 2584 2669 2484 
Q 3125 2378 3379 2068 
Q 3634 1759 3634 1313 
Q 3634 634 3220 271 
Q 2806 -91 2034 -91 
Q 1263 -91 848 271 
Q 434 634 434 1313 
Q 434 1759 690 2068 
Q 947 2378 1403 2484 
z
M 1172 3481 
Q 1172 3119 1398 2916 
Q 1625 2713 2034 2713 
Q 2441 2713 2670 2916 
Q 2900 3119 2900 3481 
Q 2900 3844 2670 4047 
Q 2441 4250 2034 4250 
Q 1625 4250 1398 4047 
Q 1172 3844 1172 3481 
z
" transform="scale(0.015625)"/>
       </defs>
       <use xlink:href="#DejaVuSans-30"/>
       <use xlink:href="#DejaVuSans-2e" transform="translate(63.623047 0)"/>
       <use xlink:href="#DejaVuSans-38" transform="translate(95.410156 0)"/>
      </g>
     </g>
    </g>
    <g id="xtick_6">
     <g id="line2d_6">
      <g>
       <use xlink:href="#me027333220" x="267.984886" y="169.478125" style="stroke: #000000; stroke-width: 0.8"/>
      </g>
     </g>
     <g id="text_6">
      <!-- 1.0 -->
      <g transform="translate(260.033324 184.076563) scale(0.1 -0.1)">
       <defs>
        <path id="DejaVuSans-31" d="M 794 531 
L 1825 531 
L 1825 4091 
L 703 3866 
L 703 4441 
L 1819 4666 
L 2450 4666 
L 2450 531 
L 3481 531 
L 3481 0 
L 794 0 
L 794 531 
z
" transform="scale(0.015625)"/>
       </defs>
       <use xlink:href="#DejaVuSans-31"/>
       <use xlink:href="#DejaVuSans-2e" transform="translate(63.623047 0)"/>
       <use xlink:href="#DejaVuSans-30" transform="translate(95.410156 0)"/>
      </g>
     </g>
    </g>
    <g id="text_7">
     <!-- FPR -->
     <g transform="translate(151.856406 197.754688) scale(0.1 -0.1)">
      <defs>
       <path id="DejaVuSans-46" d="M 628 4666 
L 3309 4666 
L 3309 4134 
L 1259 4134 
L 1259 2759 
L 3109 2759 
L 3109 2228 
L 1259 2228 
L 1259 0 
L 628 0 
L 628 4666 
z
" transform="scale(0.015625)"/>
       <path id="DejaVuSans-50" d="M 1259 4147 
L 1259 2394 
L 2053 2394 
Q 2494 2394 2734 2622 
Q 2975 2850 2975 3272 
Q 2975 3691 2734 3919 
Q 2494 4147 2053 4147 
L 1259 4147 
z
M 628 4666 
L 2053 4666 
Q 2838 4666 3239 4311 
Q 3641 3956 3641 3272 
Q 3641 2581 3239 2228 
Q 2838 1875 2053 1875 
L 1259 1875 
L 1259 0 
L 628 0 
L 628 4666 
z
" transform="scale(0.015625)"/>
       <path id="DejaVuSans-52" d="M 2841 2188 
Q 3044 2119 3236 1894 
Q 3428 1669 3622 1275 
L 4263 0 
L 3584 0 
L 2988 1197 
Q 2756 1666 2539 1819 
Q 2322 1972 1947 1972 
L 1259 1972 
L 1259 0 
L 628 0 
L 628 4666 
L 2053 4666 
Q 2853 4666 3247 4331 
Q 3641 3997 3641 3322 
Q 3641 2881 3436 2590 
Q 3231 2300 2841 2188 
z
M 1259 4147 
L 1259 2491 
L 2053 2491 
Q 2509 2491 2742 2702 
Q 2975 2913 2975 3322 
Q 2975 3731 2742 3939 
Q 2509 4147 2053 4147 
L 1259 4147 
z
" transform="scale(0.015625)"/>
      </defs>
      <use xlink:href="#DejaVuSans-46"/>
      <use xlink:href="#DejaVuSans-50" transform="translate(57.519531 0)"/>
      <use xlink:href="#DejaVuSans-52" transform="translate(117.822266 0)"/>
     </g>
    </g>
   </g>
   <g id="matplotlib.axis_2">
    <g id="ytick_1">
     <g id="line2d_7">
      <defs>
       <path id="meca50968b2" d="M 0 0 
L -3.5 0 
" style="stroke: #000000; stroke-width: 0.8"/>
      </defs>
      <g>
       <use xlink:href="#meca50968b2" x="43.78125" y="162.789034" style="stroke: #000000; stroke-width: 0.8"/>
      </g>
     </g>
     <g id="text_8">
      <!-- 0.0 -->
      <g transform="translate(20.878125 166.588253) scale(0.1 -0.1)">
       <use xlink:href="#DejaVuSans-30"/>
       <use xlink:href="#DejaVuSans-2e" transform="translate(63.623047 0)"/>
       <use xlink:href="#DejaVuSans-30" transform="translate(95.410156 0)"/>
      </g>
     </g>
    </g>
    <g id="ytick_2">
     <g id="line2d_8">
      <g>
       <use xlink:href="#meca50968b2" x="43.78125" y="136.03267" style="stroke: #000000; stroke-width: 0.8"/>
      </g>
     </g>
     <g id="text_9">
      <!-- 0.2 -->
      <g transform="translate(20.878125 139.831889) scale(0.1 -0.1)">
       <use xlink:href="#DejaVuSans-30"/>
       <use xlink:href="#DejaVuSans-2e" transform="translate(63.623047 0)"/>
       <use xlink:href="#DejaVuSans-32" transform="translate(95.410156 0)"/>
      </g>
     </g>
    </g>
    <g id="ytick_3">
     <g id="line2d_9">
      <g>
       <use xlink:href="#meca50968b2" x="43.78125" y="109.276307" style="stroke: #000000; stroke-width: 0.8"/>
      </g>
     </g>
     <g id="text_10">
      <!-- 0.4 -->
      <g transform="translate(20.878125 113.075526) scale(0.1 -0.1)">
       <use xlink:href="#DejaVuSans-30"/>
       <use xlink:href="#DejaVuSans-2e" transform="translate(63.623047 0)"/>
       <use xlink:href="#DejaVuSans-34" transform="translate(95.410156 0)"/>
      </g>
     </g>
    </g>
    <g id="ytick_4">
     <g id="line2d_10">
      <g>
       <use xlink:href="#meca50968b2" x="43.78125" y="82.519943" style="stroke: #000000; stroke-width: 0.8"/>
      </g>
     </g>
     <g id="text_11">
      <!-- 0.6 -->
      <g transform="translate(20.878125 86.319162) scale(0.1 -0.1)">
       <use xlink:href="#DejaVuSans-30"/>
       <use xlink:href="#DejaVuSans-2e" transform="translate(63.623047 0)"/>
       <use xlink:href="#DejaVuSans-36" transform="translate(95.410156 0)"/>
      </g>
     </g>
    </g>
    <g id="ytick_5">
     <g id="line2d_11">
      <g>
       <use xlink:href="#meca50968b2" x="43.78125" y="55.76358" style="stroke: #000000; stroke-width: 0.8"/>
      </g>
     </g>
     <g id="text_12">
      <!-- 0.8 -->
      <g transform="translate(20.878125 59.562798) scale(0.1 -0.1)">
       <use xlink:href="#DejaVuSans-30"/>
       <use xlink:href="#DejaVuSans-2e" transform="translate(63.623047 0)"/>
       <use xlink:href="#DejaVuSans-38" transform="translate(95.410156 0)"/>
      </g>
     </g>
    </g>
    <g id="ytick_6">
     <g id="line2d_12">
      <g>
       <use xlink:href="#meca50968b2" x="43.78125" y="29.007216" style="stroke: #000000; stroke-width: 0.8"/>
      </g>
     </g>
     <g id="text_13">
      <!-- 1.0 -->
      <g transform="translate(20.878125 32.806435) scale(0.1 -0.1)">
       <use xlink:href="#DejaVuSans-31"/>
       <use xlink:href="#DejaVuSans-2e" transform="translate(63.623047 0)"/>
       <use xlink:href="#DejaVuSans-30" transform="translate(95.410156 0)"/>
      </g>
     </g>
    </g>
    <g id="text_14">
     <!-- TPR -->
     <g transform="translate(14.798438 105.441094) rotate(-90) scale(0.1 -0.1)">
      <defs>
       <path id="DejaVuSans-54" d="M -19 4666 
L 3928 4666 
L 3928 4134 
L 2272 4134 
L 2272 0 
L 1638 0 
L 1638 4134 
L -19 4134 
L -19 4666 
z
" transform="scale(0.015625)"/>
      </defs>
      <use xlink:href="#DejaVuSans-54"/>
      <use xlink:href="#DejaVuSans-50" transform="translate(61.083984 0)"/>
      <use xlink:href="#DejaVuSans-52" transform="translate(121.386719 0)"/>
     </g>
    </g>
   </g>
   <g id="line2d_13">
    <path d="M 54.457614 162.789034 
L 54.543025 162.253907 
L 54.58573 162.253907 
L 54.671141 159.257194 
L 54.713846 159.257194 
L 54.799257 157.143441 
L 54.884668 157.116685 
L 54.970079 155.056445 
L 55.012785 155.056445 
L 55.098195 153.237012 
L 55.140901 153.237012 
L 55.226312 150.802183 
L 55.311723 150.802183 
L 55.397134 149.544634 
L 55.439839 149.544634 
L 55.52525 148.902481 
L 55.567955 148.902481 
L 55.653366 147.618176 
L 55.738777 147.59142 
L 55.824188 146.788729 
L 55.909599 146.735216 
L 55.99501 145.879012 
L 56.037715 145.879012 
L 56.123126 145.45091 
L 56.165832 145.45091 
L 56.251243 143.577965 
L 56.336654 143.497696 
L 56.422065 142.320416 
L 56.46477 142.320416 
L 56.550181 140.82206 
L 56.592886 140.82206 
L 56.678297 139.029383 
L 56.763708 138.97587 
L 56.849119 137.343732 
L 56.891825 137.343732 
L 56.977235 135.845376 
L 57.019941 135.845376 
L 57.105352 134.989172 
L 57.190763 134.908903 
L 57.233468 134.801878 
L 57.361585 134.801878 
L 57.446995 133.838649 
L 57.532406 133.785136 
L 57.617817 131.91219 
L 57.660523 131.91219 
L 57.745934 130.81518 
L 57.831345 130.788423 
L 57.916755 129.423849 
L 58.002166 129.34358 
L 58.087577 128.567645 
L 58.130283 128.567645 
L 58.215694 127.550903 
L 58.301105 127.470634 
L 58.386515 126.480649 
L 58.429221 126.480649 
L 58.514632 125.838496 
L 58.600043 125.838496 
L 58.685454 125.276612 
L 58.728159 125.276612 
L 58.81357 124.473921 
L 58.856275 124.473921 
L 58.941686 123.724743 
L 58.984392 123.724743 
L 59.069803 123.216372 
L 59.155214 123.109347 
L 59.155214 122.841783 
L 59.28333 122.841783 
L 59.368741 120.540736 
L 59.411446 120.540736 
L 59.496857 119.791558 
L 59.539563 119.791558 
L 59.624974 119.229674 
L 59.667679 119.229674 
L 59.710385 118.132663 
L 59.795795 118.132663 
L 59.881206 117.624292 
L 59.966617 117.597536 
L 60.009323 116.60755 
L 60.094734 116.60755 
L 60.180145 115.21622 
L 60.22285 115.21622 
L 60.265555 114.62758 
L 60.393672 114.600823 
L 60.479083 114.360016 
L 60.521788 114.360016 
L 60.607199 113.717863 
L 60.69261 113.637594 
L 60.778021 112.888416 
L 60.906137 112.78139 
L 60.991548 112.513827 
L 61.076959 112.513827 
L 61.16237 112.165994 
L 61.290486 112.058969 
L 61.375897 111.550598 
L 61.418603 111.550598 
L 61.504014 111.30979 
L 61.589425 111.202765 
L 61.674835 109.490358 
L 61.717541 109.490358 
L 61.802952 109.062256 
L 61.888363 109.062256 
L 61.973774 108.07227 
L 62.144595 107.992001 
L 62.230006 107.670925 
L 62.358123 107.5639 
L 62.400828 107.403361 
L 62.528945 107.323092 
L 62.614355 106.921747 
L 62.657061 106.921747 
L 62.742472 106.573914 
L 62.785177 106.573914 
L 62.870588 105.369878 
L 62.998705 105.289609 
L 63.084115 104.24611 
L 63.126821 104.24611 
L 63.212232 102.85478 
L 63.254937 102.85478 
L 63.340348 101.918307 
L 63.468465 101.811281 
L 63.553875 101.062103 
L 63.639286 100.981834 
L 63.724697 100.71427 
L 63.810108 100.687514 
L 63.895519 100.259412 
L 63.938225 100.259412 
L 64.023635 100.045361 
L 64.194457 99.965092 
L 64.279868 99.349696 
L 64.365279 99.349696 
L 64.45069 97.717558 
L 64.621512 97.717558 
L 64.706923 97.369725 
L 64.792334 97.289456 
L 64.877745 96.861354 
L 64.92045 96.861354 
L 65.005861 96.326227 
L 65.048566 96.326227 
L 65.133977 95.871369 
L 65.176683 95.871369 
L 65.262094 95.282729 
L 65.304799 95.282729 
L 65.39021 94.90814 
L 65.432915 94.90814 
L 65.518326 94.346256 
L 65.561032 94.346256 
L 65.603737 94.078692 
L 65.774559 93.998423 
L 65.85997 93.704103 
L 65.945381 93.677347 
L 66.030792 93.409783 
L 66.073497 93.409783 
L 66.158908 92.55358 
L 66.287025 92.526823 
L 66.372435 92.286016 
L 66.457846 92.17899 
L 66.543257 91.563594 
L 66.628668 91.563594 
L 66.714079 91.215761 
L 66.79949 91.108736 
L 66.884901 90.894685 
L 67.013017 90.841172 
L 67.055723 90.466583 
L 67.183839 90.439827 
L 67.26925 90.038481 
L 67.354661 89.931456 
L 67.440072 89.690649 
L 67.525483 89.637136 
L 67.610894 89.476598 
L 67.696305 89.449841 
L 67.781715 88.968227 
L 67.824421 88.968227 
L 67.909832 88.700663 
L 67.995243 88.673907 
L 68.080654 88.085267 
L 68.20877 87.978241 
L 68.294181 87.362845 
L 68.336886 87.362845 
L 68.422297 86.66718 
L 68.550414 86.58691 
L 68.635825 86.453129 
L 68.67853 86.453129 
L 68.721235 86.07854 
L 68.806646 86.07854 
L 68.892057 85.730707 
L 69.020174 85.677194 
L 69.105585 85.570169 
L 69.233701 85.543412 
L 69.319112 85.168823 
L 69.447228 85.11531 
L 69.489934 84.794234 
L 69.61805 84.740721 
L 69.660755 84.31262 
L 69.788872 84.285863 
L 69.874283 83.750736 
L 69.959694 83.697223 
L 70.045105 83.42966 
L 70.130515 83.402903 
L 70.215926 83.162096 
L 70.429454 83.05507 
L 70.514865 82.894532 
L 70.600275 82.787507 
L 70.685686 82.5467 
L 70.728392 82.5467 
L 70.813803 81.556714 
L 70.856508 81.556714 
L 70.941919 81.315907 
L 71.112741 81.235638 
L 71.198152 80.887805 
L 71.283563 80.887805 
L 71.368974 80.70051 
L 71.454385 80.70051 
L 71.539795 80.272409 
L 71.582501 80.272409 
L 71.667912 79.924576 
L 72.052261 79.871063 
L 72.137672 79.710525 
L 72.308494 79.630256 
L 72.393905 79.202154 
L 72.564726 79.175398 
L 72.650137 78.93459 
L 72.778254 78.854321 
L 72.863665 78.693783 
L 72.949075 78.613514 
L 72.991781 78.533245 
L 73.077192 78.533245 
L 73.162603 78.185412 
L 73.290719 78.1319 
L 73.37613 77.115158 
L 73.418835 77.115158 
L 73.504246 76.58003 
L 73.675068 76.553274 
L 73.717774 75.964634 
L 73.888595 75.884365 
L 73.974006 75.69707 
L 74.059417 75.590045 
L 74.102123 75.349238 
L 74.187534 75.349238 
L 74.272945 75.135187 
L 74.401061 75.028161 
L 74.486472 74.60006 
L 74.614588 74.573303 
L 74.699999 74.091689 
L 74.742705 74.091689 
L 74.828115 73.396023 
L 75.041643 73.315754 
L 75.084348 73.208729 
L 75.25517 73.101703 
L 75.297875 72.887652 
L 75.425992 72.807383 
L 75.468697 72.513063 
L 75.554108 72.513063 
L 75.639519 72.191987 
L 75.682225 72.191987 
L 75.767635 71.977936 
L 75.853046 71.977936 
L 75.938457 71.790641 
L 76.066574 71.683616 
L 76.151985 71.309027 
L 76.280101 71.228758 
L 76.322806 71.094976 
L 76.450923 70.98795 
L 76.536334 70.319041 
L 76.579039 70.319041 
L 76.66445 69.944452 
L 76.920683 69.89094 
L 77.006094 69.59662 
L 77.219621 69.51635 
L 77.262326 69.141761 
L 77.433148 69.061492 
L 77.518559 68.63339 
L 77.646675 68.553121 
L 77.732086 68.151776 
L 77.817497 68.12502 
L 77.902908 67.723674 
L 78.159141 67.643405 
L 78.244552 67.375841 
L 78.372668 67.322329 
L 78.458079 66.706932 
L 78.714312 66.626663 
L 78.799723 66.252074 
L 78.842428 66.252074 
L 78.885134 66.038023 
L 79.055955 66.011267 
L 79.055955 65.743703 
L 79.184072 65.743703 
L 79.226777 65.422627 
L 79.440305 65.342358 
L 79.525715 65.155063 
L 79.696537 65.048038 
L 79.781948 64.8875 
L 79.867359 64.833987 
L 79.95277 64.459398 
L 80.038181 64.405885 
L 80.123592 63.870758 
L 80.209003 63.870758 
L 80.251708 63.549681 
L 80.465235 63.522925 
L 80.507941 63.201849 
L 80.764174 63.148336 
L 80.849585 62.586452 
L 80.934995 62.53294 
L 81.020406 62.265376 
L 81.233934 62.211863 
L 81.319345 61.890787 
L 81.36205 61.890787 
L 81.404755 61.56971 
L 81.660988 61.462685 
L 81.746399 61.35566 
L 81.874515 61.248634 
L 81.917221 60.98107 
L 82.045337 60.954314 
L 82.130748 60.68675 
L 82.173454 60.68675 
L 82.216159 60.39243 
L 82.30157 60.39243 
L 82.344275 60.17838 
L 82.515097 60.124867 
L 82.600508 59.991085 
L 82.814035 59.88406 
L 82.856741 59.777034 
L 82.984857 59.696765 
L 83.070268 59.348932 
L 83.369206 59.241907 
L 83.454617 59.027856 
L 83.497323 59.027856 
L 83.540028 58.787049 
L 83.71085 58.760292 
L 83.753555 58.41246 
L 83.881672 58.305434 
L 83.967083 58.144896 
L 84.052494 58.11814 
L 84.137905 57.930845 
L 84.436843 57.82382 
L 84.522254 57.770307 
L 84.693075 57.663281 
L 84.778486 57.556256 
L 84.949308 57.44923 
L 85.034719 57.181667 
L 85.376363 57.074641 
L 85.376363 56.807078 
L 85.547185 56.753565 
L 85.632595 56.35222 
L 85.718006 56.27195 
L 85.803417 55.97763 
L 85.846123 55.97763 
L 85.846123 55.817092 
L 86.315883 55.710067 
L 86.401294 55.496016 
L 86.486705 55.415747 
L 86.572115 54.987645 
L 86.657526 54.907376 
L 86.742937 54.80035 
L 87.041875 54.746838 
L 87.127286 54.559543 
L 87.212697 54.479274 
L 87.298108 54.29198 
L 87.511635 54.184954 
L 87.597046 53.970903 
L 87.810574 53.863878 
L 87.895985 53.730096 
L 87.93869 53.730096 
L 87.93869 53.462532 
L 88.323039 53.355507 
L 88.40845 52.954161 
L 88.621977 52.927405 
L 88.707388 52.659841 
L 88.835505 52.659841 
L 88.920915 52.419034 
L 89.006326 52.338765 
L 89.091737 52.097958 
L 89.177148 52.017689 
L 89.262559 51.910663 
L 89.433381 51.883907 
L 89.518792 51.536074 
L 89.689614 51.429049 
L 89.775025 50.97419 
L 90.073963 50.893921 
L 90.159374 50.733383 
L 90.330195 50.626358 
L 90.372901 50.412307 
L 90.458312 50.412307 
L 90.458312 50.278525 
L 90.586428 50.278525 
L 90.629134 50.117987 
L 90.928072 50.010961 
L 91.013483 49.823667 
L 91.312421 49.770154 
L 91.397832 49.663129 
L 91.867592 49.58286 
L 91.953003 49.368809 
L 92.123825 49.261783 
L 92.16653 49.20827 
L 92.337352 49.128001 
L 92.422763 48.99422 
L 92.678995 48.887194 
L 92.721701 48.833681 
L 92.892523 48.780169 
L 92.892523 48.6999 
L 93.063345 48.592874 
L 93.148755 48.432336 
L 93.191461 48.432336 
L 93.191461 48.245041 
L 93.490399 48.138016 
L 93.490399 48.084503 
L 93.789337 47.977478 
L 93.832043 47.870452 
L 94.216392 47.763427 
L 94.259097 47.709914 
L 94.429919 47.602889 
L 94.429919 47.549376 
L 94.643446 47.44235 
L 94.728857 47.335325 
L 94.814268 47.281812 
L 94.899679 47.094518 
L 95.198617 46.987492 
L 95.284028 46.85371 
L 95.369439 46.746685 
L 95.412145 46.612903 
L 95.711083 46.532634 
L 95.753788 46.425609 
L 95.881905 46.34534 
L 95.967315 46.184801 
L 96.052726 46.104532 
L 96.052726 46.05102 
L 96.565192 45.943994 
L 96.650603 45.836969 
L 97.034952 45.729943 
L 97.077657 45.622918 
L 97.205774 45.515892 
L 97.291185 45.408867 
L 97.376595 45.408867 
L 97.419301 45.141303 
L 98.145294 45.034278 
L 98.230705 44.954009 
L 98.358821 44.87374 
L 98.444232 44.766714 
L 98.785875 44.659689 
L 98.871286 44.57942 
L 99.255635 44.472394 
L 99.255635 44.418881 
L 99.768101 44.311856 
L 99.810806 44.258343 
L 100.15245 44.151318 
L 100.237861 43.99078 
L 100.323272 43.91051 
L 100.365977 43.830241 
L 100.793032 43.723216 
L 100.878443 43.61619 
L 101.049265 43.535921 
L 101.049265 43.455652 
L 101.305497 43.40214 
L 101.305497 43.241601 
L 101.817963 43.188089 
L 101.817963 43.10782 
L 102.159606 43.000794 
L 102.159606 42.974038 
L 102.543955 42.893769 
L 102.543955 42.786743 
L 102.97101 42.706474 
L 103.013715 42.492423 
L 103.269948 42.385398 
L 103.269948 42.358641 
L 103.867825 42.251616 
L 103.953235 42.117834 
L 104.337585 42.010809 
L 104.337585 41.984052 
L 104.935461 41.877027 
L 104.935461 41.85027 
L 105.362515 41.743245 
L 105.447926 41.662976 
L 105.661454 41.55595 
L 105.746865 41.502438 
L 105.960392 41.422169 
L 105.960392 41.368656 
L 106.771795 41.26163 
L 106.857206 41.181361 
L 107.113439 41.074336 
L 107.19885 40.887041 
L 107.711315 40.780016 
L 107.711315 40.726503 
L 108.010254 40.619478 
L 108.010254 40.592721 
L 108.394603 40.539209 
L 108.480014 40.37867 
L 108.778952 40.298401 
L 108.778952 40.244889 
L 109.248712 40.16462 
L 109.248712 40.08435 
L 109.846588 39.977325 
L 109.931999 39.816787 
L 110.188232 39.709761 
L 110.188232 39.683005 
L 110.48717 39.602736 
L 110.48717 39.549223 
L 111.298574 39.442198 
L 111.298574 39.388685 
L 111.725628 39.28166 
L 111.811039 39.228147 
L 112.195388 39.147878 
L 112.195388 39.094365 
L 112.83597 39.014096 
L 112.921381 38.90707 
L 113.177614 38.800045 
L 113.263025 38.746532 
L 113.818195 38.639507 
L 113.860901 38.505725 
L 114.287955 38.3987 
L 114.287955 38.371943 
L 114.928537 38.264918 
L 115.013948 38.211405 
L 115.355592 38.10438 
L 115.355592 38.050867 
L 115.569119 37.943841 
L 115.611825 37.836816 
L 116.166995 37.756547 
L 116.252406 37.676278 
L 117.106515 37.569252 
L 117.106515 37.542496 
L 117.490865 37.43547 
L 117.53357 37.301689 
L 118.216857 37.194663 
L 118.216857 37.167907 
L 118.601206 37.087638 
L 118.643912 36.953856 
L 119.284494 36.84683 
L 119.369905 36.793318 
L 119.967781 36.686292 
L 120.010486 36.63278 
L 120.608363 36.55251 
L 120.693774 36.445485 
L 121.590588 36.33846 
L 121.675999 36.231434 
L 122.017643 36.151165 
L 122.017643 36.097652 
L 122.871752 35.990627 
L 122.871752 35.96387 
L 123.64045 35.856845 
L 123.64045 35.803332 
L 124.366443 35.696307 
L 124.366443 35.642794 
L 124.750792 35.642794 
L 124.836203 35.4555 
L 125.348668 35.348474 
L 125.348668 35.321718 
L 125.818428 35.214692 
L 125.903839 35.16118 
L 126.45901 35.054154 
L 126.45901 35.027398 
L 127.270414 34.920372 
L 127.270414 34.893616 
L 128.594283 34.840103 
L 128.594283 34.759834 
L 130.003563 34.652809 
L 130.003563 34.626052 
L 130.772261 34.519027 
L 130.772261 34.465514 
L 131.370137 34.358489 
L 131.370137 34.331732 
L 133.163766 34.224707 
L 133.249177 34.171194 
L 133.889759 34.064169 
L 133.889759 34.037412 
L 134.743868 33.930387 
L 134.743868 33.90363 
L 136.580203 33.796605 
L 136.580203 33.769849 
L 136.921846 33.68958 
L 137.007257 33.60931 
L 138.758181 33.502285 
L 138.758181 33.475529 
L 139.783112 33.368503 
L 139.783112 33.341747 
L 140.210166 33.261478 
L 140.210166 33.207965 
L 142.345439 33.10094 
L 142.345439 33.074183 
L 142.815199 32.967158 
L 142.815199 32.940401 
L 143.925541 32.833376 
L 143.925541 32.80662 
L 145.163999 32.699594 
L 145.206705 32.619325 
L 146.957628 32.5123 
L 147.000334 32.458787 
L 147.982559 32.351761 
L 148.025265 32.298249 
L 148.409614 32.191223 
L 148.452319 32.13771 
L 150.203243 32.030685 
L 150.203243 32.003929 
L 151.655228 31.92366 
L 151.655228 31.84339 
L 154.345672 31.763121 
L 154.345672 31.709609 
L 155.754952 31.602583 
L 155.754952 31.575827 
L 158.488101 31.468801 
L 158.488101 31.442045 
L 161.392072 31.33502 
L 161.392072 31.308263 
L 163.10029 31.201238 
L 163.10029 31.174481 
L 165.577206 31.067456 
L 165.577206 31.0407 
L 168.054123 30.933674 
L 168.054123 30.906918 
L 171.043505 30.799892 
L 171.043505 30.74638 
L 172.452785 30.639354 
L 172.452785 30.612598 
L 175.655694 30.505572 
L 175.655694 30.478816 
L 176.680625 30.37179 
L 176.680625 30.345034 
L 178.773192 30.238009 
L 178.773192 30.211252 
L 184.23949 30.104227 
L 184.23949 30.07747 
L 188.595446 29.970445 
L 188.595446 29.943689 
L 194.147155 29.836663 
L 194.147155 29.809907 
L 197.008421 29.702881 
L 197.008421 29.676125 
L 204.396465 29.5691 
L 204.396465 29.542343 
L 214.902006 29.435318 
L 214.902006 29.408561 
L 237.706719 29.301536 
L 237.706719 29.27478 
L 249.279897 29.167754 
L 249.365308 29.114241 
L 267.984886 29.007216 
L 267.984886 29.007216 
" clip-path="url(#pbb91e27c7f)" style="fill: none; stroke: #7aa6c2; stroke-width: 1.5; stroke-linecap: square"/>
   </g>
   <g id="line2d_14">
    <path d="M 54.457614 162.789034 
L 267.984886 29.007216 
" clip-path="url(#pbb91e27c7f)" style="fill: none; stroke-dasharray: 5.55,2.4; stroke-dashoffset: 0; stroke: #000000; stroke-opacity: 0.3; stroke-width: 1.5"/>
   </g>
   <g id="patch_3">
    <path d="M 43.78125 169.478125 
L 43.78125 22.318125 
" style="fill: none; stroke: #000000; stroke-width: 0.8; stroke-linejoin: miter; stroke-linecap: square"/>
   </g>
   <g id="patch_4">
    <path d="M 278.66125 169.478125 
L 278.66125 22.318125 
" style="fill: none; stroke: #000000; stroke-width: 0.8; stroke-linejoin: miter; stroke-linecap: square"/>
   </g>
   <g id="patch_5">
    <path d="M 43.78125 169.478125 
L 278.66125 169.478125 
" style="fill: none; stroke: #000000; stroke-width: 0.8; stroke-linejoin: miter; stroke-linecap: square"/>
   </g>
   <g id="patch_6">
    <path d="M 43.78125 22.318125 
L 278.66125 22.318125 
" style="fill: none; stroke: #000000; stroke-width: 0.8; stroke-linejoin: miter; stroke-linecap: square"/>
   </g>
   <g id="text_15">
    <!-- ROC -->
    <g transform="translate(148.139375 16.318125) scale(0.12 -0.12)">
     <defs>
      <path id="DejaVuSans-4f" d="M 2522 4238 
Q 1834 4238 1429 3725 
Q 1025 3213 1025 2328 
Q 1025 1447 1429 934 
Q 1834 422 2522 422 
Q 3209 422 3611 934 
Q 4013 1447 4013 2328 
Q 4013 3213 3611 3725 
Q 3209 4238 2522 4238 
z
M 2522 4750 
Q 3503 4750 4090 4092 
Q 4678 3434 4678 2328 
Q 4678 1225 4090 567 
Q 3503 -91 2522 -91 
Q 1538 -91 948 565 
Q 359 1222 359 2328 
Q 359 3434 948 4092 
Q 1538 4750 2522 4750 
z
" transform="scale(0.015625)"/>
      <path id="DejaVuSans-43" d="M 4122 4306 
L 4122 3641 
Q 3803 3938 3442 4084 
Q 3081 4231 2675 4231 
Q 1875 4231 1450 3742 
Q 1025 3253 1025 2328 
Q 1025 1406 1450 917 
Q 1875 428 2675 428 
Q 3081 428 3442 575 
Q 3803 722 4122 1019 
L 4122 359 
Q 3791 134 3420 21 
Q 3050 -91 2638 -91 
Q 1578 -91 968 557 
Q 359 1206 359 2328 
Q 359 3453 968 4101 
Q 1578 4750 2638 4750 
Q 3056 4750 3426 4639 
Q 3797 4528 4122 4306 
z
" transform="scale(0.015625)"/>
     </defs>
     <use xlink:href="#DejaVuSans-52"/>
     <use xlink:href="#DejaVuSans-4f" transform="translate(69.482422 0)"/>
     <use xlink:href="#DejaVuSans-43" transform="translate(148.193359 0)"/>
    </g>
   </g>
  </g>
  <g id="axes_2">
   <g id="patch_7">
    <path d="M 326.38125 169.478125 
L 561.26125 169.478125 
L 561.26125 22.318125 
L 326.38125 22.318125 
z
" style="fill: #ffffff"/>
   </g>
   <g id="matplotlib.axis_3">
    <g id="xtick_7">
     <g id="line2d_15">
      <g>
       <use xlink:href="#me027333220" x="337.057614" y="169.478125" style="stroke: #000000; stroke-width: 0.8"/>
      </g>
     </g>
     <g id="text_16">
      <!-- 0.0 -->
      <g transform="translate(329.106051 184.076563) scale(0.1 -0.1)">
       <use xlink:href="#DejaVuSans-30"/>
       <use xlink:href="#DejaVuSans-2e" transform="translate(63.623047 0)"/>
       <use xlink:href="#DejaVuSans-30" transform="translate(95.410156 0)"/>
      </g>
     </g>
    </g>
    <g id="xtick_8">
     <g id="line2d_16">
      <g>
       <use xlink:href="#me027333220" x="379.763068" y="169.478125" style="stroke: #000000; stroke-width: 0.8"/>
      </g>
     </g>
     <g id="text_17">
      <!-- 0.2 -->
      <g transform="translate(371.811506 184.076563) scale(0.1 -0.1)">
       <use xlink:href="#DejaVuSans-30"/>
       <use xlink:href="#DejaVuSans-2e" transform="translate(63.623047 0)"/>
       <use xlink:href="#DejaVuSans-32" transform="translate(95.410156 0)"/>
      </g>
     </g>
    </g>
    <g id="xtick_9">
     <g id="line2d_17">
      <g>
       <use xlink:href="#me027333220" x="422.468523" y="169.478125" style="stroke: #000000; stroke-width: 0.8"/>
      </g>
     </g>
     <g id="text_18">
      <!-- 0.4 -->
      <g transform="translate(414.51696 184.076563) scale(0.1 -0.1)">
       <use xlink:href="#DejaVuSans-30"/>
       <use xlink:href="#DejaVuSans-2e" transform="translate(63.623047 0)"/>
       <use xlink:href="#DejaVuSans-34" transform="translate(95.410156 0)"/>
      </g>
     </g>
    </g>
    <g id="xtick_10">
     <g id="line2d_18">
      <g>
       <use xlink:href="#me027333220" x="465.173977" y="169.478125" style="stroke: #000000; stroke-width: 0.8"/>
      </g>
     </g>
     <g id="text_19">
      <!-- 0.6 -->
      <g transform="translate(457.222415 184.076563) scale(0.1 -0.1)">
       <use xlink:href="#DejaVuSans-30"/>
       <use xlink:href="#DejaVuSans-2e" transform="translate(63.623047 0)"/>
       <use xlink:href="#DejaVuSans-36" transform="translate(95.410156 0)"/>
      </g>
     </g>
    </g>
    <g id="xtick_11">
     <g id="line2d_19">
      <g>
       <use xlink:href="#me027333220" x="507.879432" y="169.478125" style="stroke: #000000; stroke-width: 0.8"/>
      </g>
     </g>
     <g id="text_20">
      <!-- 0.8 -->
      <g transform="translate(499.927869 184.076563) scale(0.1 -0.1)">
       <use xlink:href="#DejaVuSans-30"/>
       <use xlink:href="#DejaVuSans-2e" transform="translate(63.623047 0)"/>
       <use xlink:href="#DejaVuSans-38" transform="translate(95.410156 0)"/>
      </g>
     </g>
    </g>
    <g id="xtick_12">
     <g id="line2d_20">
      <g>
       <use xlink:href="#me027333220" x="550.584886" y="169.478125" style="stroke: #000000; stroke-width: 0.8"/>
      </g>
     </g>
     <g id="text_21">
      <!-- 1.0 -->
      <g transform="translate(542.633324 184.076563) scale(0.1 -0.1)">
       <use xlink:href="#DejaVuSans-31"/>
       <use xlink:href="#DejaVuSans-2e" transform="translate(63.623047 0)"/>
       <use xlink:href="#DejaVuSans-30" transform="translate(95.410156 0)"/>
      </g>
     </g>
    </g>
    <g id="text_22">
     <!-- Recall -->
     <g transform="translate(428.904062 197.754688) scale(0.1 -0.1)">
      <defs>
       <path id="DejaVuSans-65" d="M 3597 1894 
L 3597 1613 
L 953 1613 
Q 991 1019 1311 708 
Q 1631 397 2203 397 
Q 2534 397 2845 478 
Q 3156 559 3463 722 
L 3463 178 
Q 3153 47 2828 -22 
Q 2503 -91 2169 -91 
Q 1331 -91 842 396 
Q 353 884 353 1716 
Q 353 2575 817 3079 
Q 1281 3584 2069 3584 
Q 2775 3584 3186 3129 
Q 3597 2675 3597 1894 
z
M 3022 2063 
Q 3016 2534 2758 2815 
Q 2500 3097 2075 3097 
Q 1594 3097 1305 2825 
Q 1016 2553 972 2059 
L 3022 2063 
z
" transform="scale(0.015625)"/>
       <path id="DejaVuSans-63" d="M 3122 3366 
L 3122 2828 
Q 2878 2963 2633 3030 
Q 2388 3097 2138 3097 
Q 1578 3097 1268 2742 
Q 959 2388 959 1747 
Q 959 1106 1268 751 
Q 1578 397 2138 397 
Q 2388 397 2633 464 
Q 2878 531 3122 666 
L 3122 134 
Q 2881 22 2623 -34 
Q 2366 -91 2075 -91 
Q 1284 -91 818 406 
Q 353 903 353 1747 
Q 353 2603 823 3093 
Q 1294 3584 2113 3584 
Q 2378 3584 2631 3529 
Q 2884 3475 3122 3366 
z
" transform="scale(0.015625)"/>
       <path id="DejaVuSans-61" d="M 2194 1759 
Q 1497 1759 1228 1600 
Q 959 1441 959 1056 
Q 959 750 1161 570 
Q 1363 391 1709 391 
Q 2188 391 2477 730 
Q 2766 1069 2766 1631 
L 2766 1759 
L 2194 1759 
z
M 3341 1997 
L 3341 0 
L 2766 0 
L 2766 531 
Q 2569 213 2275 61 
Q 1981 -91 1556 -91 
Q 1019 -91 701 211 
Q 384 513 384 1019 
Q 384 1609 779 1909 
Q 1175 2209 1959 2209 
L 2766 2209 
L 2766 2266 
Q 2766 2663 2505 2880 
Q 2244 3097 1772 3097 
Q 1472 3097 1187 3025 
Q 903 2953 641 2809 
L 641 3341 
Q 956 3463 1253 3523 
Q 1550 3584 1831 3584 
Q 2591 3584 2966 3190 
Q 3341 2797 3341 1997 
z
" transform="scale(0.015625)"/>
       <path id="DejaVuSans-6c" d="M 603 4863 
L 1178 4863 
L 1178 0 
L 603 0 
L 603 4863 
z
" transform="scale(0.015625)"/>
      </defs>
      <use xlink:href="#DejaVuSans-52"/>
      <use xlink:href="#DejaVuSans-65" transform="translate(64.982422 0)"/>
      <use xlink:href="#DejaVuSans-63" transform="translate(126.505859 0)"/>
      <use xlink:href="#DejaVuSans-61" transform="translate(181.486328 0)"/>
      <use xlink:href="#DejaVuSans-6c" transform="translate(242.765625 0)"/>
      <use xlink:href="#DejaVuSans-6c" transform="translate(270.548828 0)"/>
     </g>
    </g>
   </g>
   <g id="matplotlib.axis_4">
    <g id="ytick_7">
     <g id="line2d_21">
      <g>
       <use xlink:href="#meca50968b2" x="326.38125" y="162.789034" style="stroke: #000000; stroke-width: 0.8"/>
      </g>
     </g>
     <g id="text_23">
      <!-- 0.5 -->
      <g transform="translate(303.478125 166.588253) scale(0.1 -0.1)">
       <defs>
        <path id="DejaVuSans-35" d="M 691 4666 
L 3169 4666 
L 3169 4134 
L 1269 4134 
L 1269 2991 
Q 1406 3038 1543 3061 
Q 1681 3084 1819 3084 
Q 2600 3084 3056 2656 
Q 3513 2228 3513 1497 
Q 3513 744 3044 326 
Q 2575 -91 1722 -91 
Q 1428 -91 1123 -41 
Q 819 9 494 109 
L 494 744 
Q 775 591 1075 516 
Q 1375 441 1709 441 
Q 2250 441 2565 725 
Q 2881 1009 2881 1497 
Q 2881 1984 2565 2268 
Q 2250 2553 1709 2553 
Q 1456 2553 1204 2497 
Q 953 2441 691 2322 
L 691 4666 
z
" transform="scale(0.015625)"/>
       </defs>
       <use xlink:href="#DejaVuSans-30"/>
       <use xlink:href="#DejaVuSans-2e" transform="translate(63.623047 0)"/>
       <use xlink:href="#DejaVuSans-35" transform="translate(95.410156 0)"/>
      </g>
     </g>
    </g>
    <g id="ytick_8">
     <g id="line2d_22">
      <g>
       <use xlink:href="#meca50968b2" x="326.38125" y="136.03267" style="stroke: #000000; stroke-width: 0.8"/>
      </g>
     </g>
     <g id="text_24">
      <!-- 0.6 -->
      <g transform="translate(303.478125 139.831889) scale(0.1 -0.1)">
       <use xlink:href="#DejaVuSans-30"/>
       <use xlink:href="#DejaVuSans-2e" transform="translate(63.623047 0)"/>
       <use xlink:href="#DejaVuSans-36" transform="translate(95.410156 0)"/>
      </g>
     </g>
    </g>
    <g id="ytick_9">
     <g id="line2d_23">
      <g>
       <use xlink:href="#meca50968b2" x="326.38125" y="109.276307" style="stroke: #000000; stroke-width: 0.8"/>
      </g>
     </g>
     <g id="text_25">
      <!-- 0.7 -->
      <g transform="translate(303.478125 113.075526) scale(0.1 -0.1)">
       <defs>
        <path id="DejaVuSans-37" d="M 525 4666 
L 3525 4666 
L 3525 4397 
L 1831 0 
L 1172 0 
L 2766 4134 
L 525 4134 
L 525 4666 
z
" transform="scale(0.015625)"/>
       </defs>
       <use xlink:href="#DejaVuSans-30"/>
       <use xlink:href="#DejaVuSans-2e" transform="translate(63.623047 0)"/>
       <use xlink:href="#DejaVuSans-37" transform="translate(95.410156 0)"/>
      </g>
     </g>
    </g>
    <g id="ytick_10">
     <g id="line2d_24">
      <g>
       <use xlink:href="#meca50968b2" x="326.38125" y="82.519943" style="stroke: #000000; stroke-width: 0.8"/>
      </g>
     </g>
     <g id="text_26">
      <!-- 0.8 -->
      <g transform="translate(303.478125 86.319162) scale(0.1 -0.1)">
       <use xlink:href="#DejaVuSans-30"/>
       <use xlink:href="#DejaVuSans-2e" transform="translate(63.623047 0)"/>
       <use xlink:href="#DejaVuSans-38" transform="translate(95.410156 0)"/>
      </g>
     </g>
    </g>
    <g id="ytick_11">
     <g id="line2d_25">
      <g>
       <use xlink:href="#meca50968b2" x="326.38125" y="55.76358" style="stroke: #000000; stroke-width: 0.8"/>
      </g>
     </g>
     <g id="text_27">
      <!-- 0.9 -->
      <g transform="translate(303.478125 59.562798) scale(0.1 -0.1)">
       <defs>
        <path id="DejaVuSans-39" d="M 703 97 
L 703 672 
Q 941 559 1184 500 
Q 1428 441 1663 441 
Q 2288 441 2617 861 
Q 2947 1281 2994 2138 
Q 2813 1869 2534 1725 
Q 2256 1581 1919 1581 
Q 1219 1581 811 2004 
Q 403 2428 403 3163 
Q 403 3881 828 4315 
Q 1253 4750 1959 4750 
Q 2769 4750 3195 4129 
Q 3622 3509 3622 2328 
Q 3622 1225 3098 567 
Q 2575 -91 1691 -91 
Q 1453 -91 1209 -44 
Q 966 3 703 97 
z
M 1959 2075 
Q 2384 2075 2632 2365 
Q 2881 2656 2881 3163 
Q 2881 3666 2632 3958 
Q 2384 4250 1959 4250 
Q 1534 4250 1286 3958 
Q 1038 3666 1038 3163 
Q 1038 2656 1286 2365 
Q 1534 2075 1959 2075 
z
" transform="scale(0.015625)"/>
       </defs>
       <use xlink:href="#DejaVuSans-30"/>
       <use xlink:href="#DejaVuSans-2e" transform="translate(63.623047 0)"/>
       <use xlink:href="#DejaVuSans-39" transform="translate(95.410156 0)"/>
      </g>
     </g>
    </g>
    <g id="ytick_12">
     <g id="line2d_26">
      <g>
       <use xlink:href="#meca50968b2" x="326.38125" y="29.007216" style="stroke: #000000; stroke-width: 0.8"/>
      </g>
     </g>
     <g id="text_28">
      <!-- 1.0 -->
      <g transform="translate(303.478125 32.806435) scale(0.1 -0.1)">
       <use xlink:href="#DejaVuSans-31"/>
       <use xlink:href="#DejaVuSans-2e" transform="translate(63.623047 0)"/>
       <use xlink:href="#DejaVuSans-30" transform="translate(95.410156 0)"/>
      </g>
     </g>
    </g>
    <g id="text_29">
     <!-- Precision -->
     <g transform="translate(297.398438 118.205156) rotate(-90) scale(0.1 -0.1)">
      <defs>
       <path id="DejaVuSans-72" d="M 2631 2963 
Q 2534 3019 2420 3045 
Q 2306 3072 2169 3072 
Q 1681 3072 1420 2755 
Q 1159 2438 1159 1844 
L 1159 0 
L 581 0 
L 581 3500 
L 1159 3500 
L 1159 2956 
Q 1341 3275 1631 3429 
Q 1922 3584 2338 3584 
Q 2397 3584 2469 3576 
Q 2541 3569 2628 3553 
L 2631 2963 
z
" transform="scale(0.015625)"/>
       <path id="DejaVuSans-69" d="M 603 3500 
L 1178 3500 
L 1178 0 
L 603 0 
L 603 3500 
z
M 603 4863 
L 1178 4863 
L 1178 4134 
L 603 4134 
L 603 4863 
z
" transform="scale(0.015625)"/>
       <path id="DejaVuSans-73" d="M 2834 3397 
L 2834 2853 
Q 2591 2978 2328 3040 
Q 2066 3103 1784 3103 
Q 1356 3103 1142 2972 
Q 928 2841 928 2578 
Q 928 2378 1081 2264 
Q 1234 2150 1697 2047 
L 1894 2003 
Q 2506 1872 2764 1633 
Q 3022 1394 3022 966 
Q 3022 478 2636 193 
Q 2250 -91 1575 -91 
Q 1294 -91 989 -36 
Q 684 19 347 128 
L 347 722 
Q 666 556 975 473 
Q 1284 391 1588 391 
Q 1994 391 2212 530 
Q 2431 669 2431 922 
Q 2431 1156 2273 1281 
Q 2116 1406 1581 1522 
L 1381 1569 
Q 847 1681 609 1914 
Q 372 2147 372 2553 
Q 372 3047 722 3315 
Q 1072 3584 1716 3584 
Q 2034 3584 2315 3537 
Q 2597 3491 2834 3397 
z
" transform="scale(0.015625)"/>
       <path id="DejaVuSans-6f" d="M 1959 3097 
Q 1497 3097 1228 2736 
Q 959 2375 959 1747 
Q 959 1119 1226 758 
Q 1494 397 1959 397 
Q 2419 397 2687 759 
Q 2956 1122 2956 1747 
Q 2956 2369 2687 2733 
Q 2419 3097 1959 3097 
z
M 1959 3584 
Q 2709 3584 3137 3096 
Q 3566 2609 3566 1747 
Q 3566 888 3137 398 
Q 2709 -91 1959 -91 
Q 1206 -91 779 398 
Q 353 888 353 1747 
Q 353 2609 779 3096 
Q 1206 3584 1959 3584 
z
" transform="scale(0.015625)"/>
       <path id="DejaVuSans-6e" d="M 3513 2113 
L 3513 0 
L 2938 0 
L 2938 2094 
Q 2938 2591 2744 2837 
Q 2550 3084 2163 3084 
Q 1697 3084 1428 2787 
Q 1159 2491 1159 1978 
L 1159 0 
L 581 0 
L 581 3500 
L 1159 3500 
L 1159 2956 
Q 1366 3272 1645 3428 
Q 1925 3584 2291 3584 
Q 2894 3584 3203 3211 
Q 3513 2838 3513 2113 
z
" transform="scale(0.015625)"/>
      </defs>
      <use xlink:href="#DejaVuSans-50"/>
      <use xlink:href="#DejaVuSans-72" transform="translate(58.552734 0)"/>
      <use xlink:href="#DejaVuSans-65" transform="translate(97.416016 0)"/>
      <use xlink:href="#DejaVuSans-63" transform="translate(158.939453 0)"/>
      <use xlink:href="#DejaVuSans-69" transform="translate(213.919922 0)"/>
      <use xlink:href="#DejaVuSans-73" transform="translate(241.703125 0)"/>
      <use xlink:href="#DejaVuSans-69" transform="translate(293.802734 0)"/>
      <use xlink:href="#DejaVuSans-6f" transform="translate(321.585938 0)"/>
      <use xlink:href="#DejaVuSans-6e" transform="translate(382.767578 0)"/>
     </g>
    </g>
   </g>
   <g id="line2d_27">
    <path d="M 550.584886 162.789034 
L 550.499475 159.131689 
L 550.45677 159.145064 
L 550.45677 159.031968 
L 550.371359 156.727767 
L 550.328654 156.741133 
L 550.328654 156.638629 
L 550.243243 154.824309 
L 550.200537 154.837663 
L 550.200537 154.732285 
L 550.115126 149.054554 
L 550.072421 149.067822 
L 550.072421 148.953618 
L 549.98701 144.76472 
L 549.944305 144.777894 
L 549.944305 144.674175 
L 549.858894 142.435638 
L 549.816188 142.448753 
L 549.816188 142.341761 
L 549.730777 139.643881 
L 549.688072 139.656913 
L 549.688072 139.545941 
L 549.602661 138.996102 
L 549.559955 139.009118 
L 549.559955 138.89716 
L 549.474545 136.264718 
L 549.389134 136.251932 
L 549.389134 136.174614 
L 549.303723 135.207999 
L 549.218312 135.155413 
L 549.218312 135.135809 
L 549.132901 132.834436 
L 549.090195 132.847232 
L 549.090195 132.74628 
L 549.004785 131.939272 
L 548.962079 131.952035 
L 548.962079 131.849914 
L 548.876668 130.660659 
L 548.833963 130.673369 
L 548.833963 130.569592 
L 548.748552 128.91658 
L 548.705846 128.929211 
L 548.705846 128.823176 
L 548.620435 127.995213 
L 548.57773 128.007803 
L 548.57773 127.900534 
L 548.492319 127.40886 
L 548.449614 127.421427 
L 548.449614 127.313344 
L 548.364203 126.817695 
L 548.278792 126.842784 
L 548.278792 126.733873 
L 548.193381 126.124438 
L 548.150675 126.136953 
L 548.150675 126.027067 
L 548.065265 125.721547 
L 548.022559 125.734047 
L 548.022559 125.623573 
L 547.937148 124.84883 
L 547.809032 124.863889 
L 547.809032 124.774528 
L 547.723621 124.261268 
L 547.680915 124.273705 
L 547.680915 124.161151 
L 547.595505 122.846537 
L 547.510094 122.802587 
L 547.510094 122.756774 
L 547.424683 121.906332 
L 547.381977 121.918644 
L 547.381977 121.826003 
L 547.296566 121.432469 
L 547.253861 121.444759 
L 547.253861 121.351558 
L 547.16845 120.603322 
L 547.125745 120.615568 
L 547.125745 120.521424 
L 547.040334 119.408127 
L 546.912217 119.420797 
L 546.912217 119.349163 
L 546.826806 118.581608 
L 546.784101 118.59374 
L 546.784101 118.497263 
L 546.69869 117.745816 
L 546.613279 117.721273 
L 546.613279 117.672533 
L 546.527868 116.765449 
L 546.485163 116.777474 
L 546.485163 116.678876 
L 546.399752 116.158618 
L 546.357046 116.170607 
L 546.357046 116.071281 
L 546.271635 115.471895 
L 546.100814 115.469635 
L 546.100814 115.419538 
L 546.058108 113.940945 
L 546.015403 113.952792 
L 545.929992 113.976497 
L 545.929992 113.874532 
L 545.844581 113.232574 
L 545.75917 113.153334 
L 545.673759 112.297856 
L 545.588348 112.321348 
L 545.588348 112.217355 
L 545.502937 112.110667 
L 545.374821 112.093761 
L 545.374821 112.041598 
L 545.28941 111.934525 
L 545.203999 111.931865 
L 545.203999 111.853407 
L 545.161294 111.76042 
L 545.118588 111.772151 
L 545.075883 111.783886 
L 545.075883 111.679028 
L 544.990472 111.308147 
L 544.947766 111.319852 
L 544.947766 111.214401 
L 544.862355 110.522745 
L 544.81965 110.534395 
L 544.81965 110.427982 
L 544.776945 110.333084 
L 544.734239 110.344723 
L 544.691534 110.356366 
L 544.691534 110.249684 
L 544.648828 109.779694 
L 544.606123 109.791296 
L 544.520712 109.733976 
L 544.520712 109.707117 
L 544.435301 109.353414 
L 544.34989 109.349591 
L 544.34989 109.268589 
L 544.264479 108.912748 
L 544.093657 108.850373 
L 544.008246 108.328491 
L 543.965541 108.340009 
L 543.965541 108.23062 
L 543.88013 107.42902 
L 543.752014 107.352851 
L 543.666603 107.209695 
L 543.623897 107.221136 
L 543.623897 107.11026 
L 543.538486 106.910952 
L 543.495781 106.922375 
L 543.495781 106.811078 
L 543.41037 106.079105 
L 543.282254 106.000823 
L 543.196843 105.459625 
L 543.068726 105.408681 
L 543.068726 105.380365 
L 542.983315 105.289628 
L 542.897905 105.227124 
L 542.897905 105.198731 
L 542.812494 104.308123 
L 542.769788 104.319355 
L 542.769788 104.204578 
L 542.684377 103.968235 
L 542.556261 104.00187 
L 542.556261 103.915425 
L 542.47085 103.359459 
L 542.428145 103.370623 
L 542.428145 103.283557 
L 542.342734 103.218718 
L 542.257323 103.182875 
L 542.257323 103.153781 
L 542.171912 102.152071 
L 542.086501 102.115355 
L 542.086501 102.085914 
L 542.00109 101.931184 
L 541.958385 101.94224 
L 541.958385 101.853678 
L 541.872974 101.63918 
L 541.702152 101.653712 
L 541.702152 101.594431 
L 541.616741 101.170667 
L 541.574035 101.18167 
L 541.574035 101.092247 
L 541.488625 100.335656 
L 541.403214 100.357519 
L 541.403214 100.267264 
L 541.403214 100.237161 
L 541.317803 100.259014 
L 541.275097 100.269946 
L 541.275097 100.179554 
L 541.189686 99.353554 
L 541.06157 99.325252 
L 541.06157 99.294808 
L 540.976159 98.828032 
L 540.890748 98.757774 
L 540.805337 98.533913 
L 540.719926 98.494016 
L 540.719926 98.463263 
L 540.634515 98.269258 
L 540.506399 98.301578 
L 540.506399 98.209015 
L 540.420988 98.076065 
L 540.292872 98.108361 
L 540.292872 98.01552 
L 540.207461 97.788997 
L 539.993934 97.84275 
L 539.993934 97.749523 
L 539.908523 97.459577 
L 539.780406 97.460556 
L 539.780406 97.398109 
L 539.737701 97.095983 
L 539.694995 97.10668 
L 539.65229 97.117381 
L 539.65229 97.023314 
L 539.65229 96.677641 
L 539.566879 96.698961 
L 539.481468 96.720295 
L 539.481468 96.625773 
L 539.396057 96.426156 
L 539.353352 96.436801 
L 539.353352 96.341951 
L 539.267941 96.014604 
L 539.139825 96.014678 
L 539.139825 95.95112 
L 539.054414 95.813238 
L 538.883592 95.791915 
L 538.883592 95.76003 
L 538.798181 95.589676 
L 538.755475 95.600265 
L 538.755475 95.504336 
L 538.71277 95.162357 
L 538.670065 95.172905 
L 538.541948 95.140306 
L 538.541948 95.108159 
L 538.541948 94.915064 
L 538.456537 94.936127 
L 538.413832 94.946664 
L 538.413832 94.849946 
L 538.328421 94.644925 
L 538.157599 94.589903 
L 538.072188 94.189037 
L 537.986777 94.144914 
L 537.986777 94.112359 
L 537.901366 93.80711 
L 537.645134 93.771691 
L 537.559723 93.563213 
L 537.474312 93.518435 
L 537.474312 93.485595 
L 537.388901 93.276227 
L 537.346195 93.286638 
L 537.346195 93.187796 
L 537.346195 93.088859 
L 537.260785 93.109648 
L 536.961846 93.083382 
L 536.876435 92.507241 
L 536.791025 92.494674 
L 536.791025 92.428091 
L 536.705614 92.181963 
L 536.534792 92.122996 
L 536.492086 91.798289 
L 536.449381 91.808581 
L 536.150443 91.779903 
L 536.065032 91.665915 
L 535.89421 91.606013 
L 535.808799 91.390235 
L 535.680683 91.421088 
L 535.680683 91.319579 
L 535.595272 90.830967 
L 535.42445 90.769711 
L 535.381745 90.643519 
L 535.339039 90.653736 
L 535.168217 90.626318 
L 535.168217 90.592142 
L 535.125512 90.431293 
L 535.082806 90.441498 
L 535.040101 90.451707 
L 535.040101 90.348904 
L 534.95469 90.197701 
L 534.783868 90.135319 
L 534.698457 90.017973 
L 534.613046 90.038334 
L 534.613046 89.934895 
L 534.527635 89.678836 
L 534.48493 89.688984 
L 534.48493 89.585128 
L 534.399519 89.501423 
L 534.314108 89.452294 
L 534.314108 89.417578 
L 534.228697 89.229243 
L 534.143286 89.144986 
L 534.057875 89.060588 
L 534.01517 89.070686 
L 534.01517 88.965958 
L 533.929759 88.811317 
L 533.844348 88.726409 
L 533.758937 88.325143 
L 533.630821 88.284802 
L 533.630821 88.24957 
L 533.54541 88.128541 
L 533.417294 88.123275 
L 533.417294 88.052615 
L 533.331883 87.966531 
L 533.07565 87.955753 
L 533.07565 87.92031 
L 532.990239 87.833909 
L 532.947534 87.843913 
L 532.947534 87.737366 
L 532.904828 87.498295 
L 532.862123 87.508263 
L 532.734006 87.466881 
L 532.734006 87.43121 
L 532.648595 87.165272 
L 532.520479 87.123484 
L 532.520479 87.087656 
L 532.435068 86.964065 
L 532.13613 86.925794 
L 532.050719 86.621451 
L 531.879897 86.624979 
L 531.879897 86.552733 
L 531.794486 86.427865 
L 531.623665 86.395003 
L 531.623665 86.358759 
L 531.623665 86.068361 
L 531.538254 86.088075 
L 531.19661 86.057822 
L 531.111199 85.822167 
L 530.940377 85.751882 
L 530.854966 85.1844 
L 530.641439 85.122811 
L 530.556028 84.957859 
L 530.385206 84.886025 
L 530.299795 84.794491 
L 530.25709 84.804251 
L 530.25709 84.693049 
L 530.214385 84.554327 
L 530.171679 84.56406 
L 530.043563 84.481732 
L 530.043563 84.407302 
L 529.958152 84.426751 
L 529.872741 84.446213 
L 529.872741 84.334412 
L 529.830035 83.820763 
L 529.78733 83.83042 
L 529.659214 83.82191 
L 529.659214 83.746866 
L 529.573803 83.691065 
L 529.360275 83.664145 
L 529.360275 83.626516 
L 529.274865 83.193119 
L 529.061337 83.127611 
L 529.061337 83.013936 
L 528.975926 83.033118 
L 528.634283 82.996035 
L 528.591577 82.701148 
L 528.548872 82.710719 
L 528.335345 82.682306 
L 528.249934 82.395562 
L 528.121817 82.424214 
L 528.121817 82.347569 
L 528.079112 82.165237 
L 528.036406 82.174762 
L 527.90829 82.164919 
L 527.90829 82.126467 
L 527.865585 81.750668 
L 527.822879 81.760147 
L 527.566646 81.77845 
L 527.566646 81.73979 
L 527.523941 81.594484 
L 527.481235 81.60396 
L 527.353119 81.55488 
L 527.267708 81.496238 
L 527.096886 81.456456 
L 527.011475 81.202945 
L 526.926065 81.221843 
L 526.926065 81.143846 
L 526.883359 81.075226 
L 526.840654 81.084662 
L 526.627126 81.053708 
L 526.627126 81.014594 
L 526.541715 81.033479 
L 526.370894 80.992953 
L 526.285483 80.854973 
L 526.242777 80.864408 
L 526.242777 80.78587 
L 526.157366 80.686781 
L 526.071955 80.626896 
L 525.986545 80.290654 
L 525.901134 80.309401 
L 525.901134 80.230315 
L 525.815723 80.051029 
L 525.687606 79.999736 
L 525.602195 79.859523 
L 525.516785 79.878188 
L 525.516785 79.798624 
L 525.431374 79.657932 
L 525.260552 79.615389 
L 525.260552 79.575463 
L 525.175141 79.594082 
L 525.047025 79.542084 
L 524.961614 79.240226 
L 524.876203 79.25878 
L 524.876203 79.178487 
L 524.790792 78.794562 
L 524.321032 78.815369 
L 524.235621 78.712517 
L 523.936683 78.696183 
L 523.851272 78.592952 
L 523.808566 78.602189 
L 523.808566 78.520949 
L 523.723155 78.335985 
L 523.552334 78.291308 
L 523.466923 78.105594 
L 523.424217 78.114779 
L 523.424217 78.033007 
L 523.381512 77.837454 
L 523.338806 77.846605 
L 523.125279 77.810341 
L 523.082574 77.737356 
L 523.039868 77.746507 
L 522.783635 77.760349 
L 522.783635 77.719196 
L 522.698225 77.65515 
L 522.527403 77.650567 
L 522.527403 77.609316 
L 522.441992 77.379732 
L 522.014937 77.388308 
L 521.972232 77.314504 
L 521.929526 77.323648 
L 521.758705 77.277176 
L 521.673294 77.045781 
L 521.33165 77.035372 
L 521.246239 76.928301 
L 520.990006 76.899373 
L 520.904595 76.749964 
L 520.733774 76.744453 
L 520.733774 76.702453 
L 520.648363 76.552476 
L 520.562952 76.570671 
L 520.562952 76.486445 
L 520.477541 76.293716 
L 520.264014 76.254537 
L 520.264014 76.212242 
L 520.178603 76.230374 
L 520.135897 76.239444 
L 520.135897 76.154767 
L 520.050486 75.96085 
L 519.879665 75.954533 
L 519.879665 75.912034 
L 519.879665 75.784436 
L 519.794254 75.802476 
L 519.409905 75.798538 
L 519.324494 75.731247 
L 519.153672 75.767418 
L 519.153672 75.681918 
L 519.153672 75.639143 
L 519.068261 75.657211 
L 518.940145 75.641514 
L 518.940145 75.598673 
L 518.854734 75.359277 
L 518.683912 75.352317 
L 518.683912 75.309303 
L 518.683912 75.266273 
L 518.598501 75.284273 
L 518.470385 75.225122 
L 518.427679 75.147866 
L 518.384974 75.156859 
L 518.299563 75.08849 
L 518.256857 75.011034 
L 518.214152 75.020014 
L 518.086035 75.0037 
L 518.086035 74.960408 
L 518.086035 74.917099 
L 518.000625 74.93505 
L 517.744392 74.902212 
L 517.658981 74.702888 
L 517.616275 74.71185 
L 517.616275 74.624795 
L 517.57357 74.372131 
L 517.530865 74.381045 
L 517.445454 74.398885 
L 517.445454 74.311501 
L 517.360043 74.110499 
L 517.061105 74.085011 
L 517.018399 73.962133 
L 516.975694 73.97101 
L 516.890283 73.988775 
L 516.890283 73.900798 
L 516.847577 73.777555 
L 516.804872 73.786412 
L 516.63405 73.821874 
L 516.63405 73.733639 
L 516.63405 73.689495 
L 516.548639 73.707205 
L 516.249701 73.680835 
L 516.249701 73.636575 
L 516.16429 73.654307 
L 515.950763 73.610026 
L 515.908057 73.530146 
L 515.865352 73.53901 
L 515.651825 73.494471 
L 515.566414 73.334126 
L 515.523708 73.342975 
L 515.523708 73.253809 
L 515.523708 73.209199 
L 515.438297 73.226866 
L 514.797715 73.2703 
L 514.712305 73.198441 
L 514.456072 73.161939 
L 514.456072 73.117023 
L 514.370661 73.134767 
L 514.071723 73.151982 
L 514.071723 73.106965 
L 514.029017 72.980671 
L 513.986312 72.98954 
L 513.858195 72.925899 
L 513.858195 72.880736 
L 513.772785 72.898463 
L 513.431141 72.878986 
L 513.34573 72.806126 
L 513.046792 72.777521 
L 513.046792 72.732089 
L 512.961381 72.749849 
L 512.833265 72.776516 
L 512.833265 72.685525 
L 512.833265 72.640001 
L 512.747854 72.657752 
L 512.40621 72.63765 
L 512.363505 72.418051 
L 512.320799 72.426912 
L 511.722923 72.459594 
L 511.722923 72.321821 
L 511.637512 72.33958 
L 511.594806 72.348465 
L 511.594806 72.256477 
L 511.552101 72.081115 
L 511.509395 72.089962 
L 511.082341 72.132438 
L 511.082341 72.086228 
L 511.082341 72.04 
L 510.99693 72.057731 
L 510.826108 72.00063 
L 510.740697 71.879275 
L 510.399054 71.857258 
L 510.356348 71.726529 
L 510.313643 71.735377 
L 510.100115 71.686419 
L 510.100115 71.593086 
L 510.014705 71.610768 
L 509.758472 71.570365 
L 509.673061 71.494428 
L 509.502239 71.529827 
L 509.502239 71.43604 
L 509.416828 71.218841 
L 509.246006 71.159949 
L 509.246006 71.112841 
L 509.160595 71.130448 
L 508.562719 71.159574 
L 508.562719 71.112278 
L 508.477308 71.129955 
L 508.135665 71.105996 
L 508.135665 71.05856 
L 508.050254 71.076262 
L 507.922137 71.007829 
L 507.836726 70.692241 
L 507.794021 70.701043 
L 507.794021 70.605618 
L 507.794021 70.557876 
L 507.70861 70.575441 
L 507.153439 70.594185 
L 507.068028 70.515921 
L 506.640974 70.508044 
L 506.640974 70.459935 
L 506.555563 70.477586 
L 506.213919 70.500126 
L 506.213919 70.451893 
L 506.213919 70.355364 
L 506.128508 70.373023 
L 505.701454 70.413147 
L 505.701454 70.364729 
L 505.616043 70.091403 
L 505.188988 70.082347 
L 505.188988 69.984912 
L 505.103577 70.002548 
L 504.975461 69.931426 
L 504.932755 69.842537 
L 504.89005 69.851342 
L 504.761934 69.779918 
L 504.676523 69.699547 
L 504.591112 69.619037 
L 504.505701 69.489247 
L 504.42029 69.408398 
L 504.42029 69.309931 
L 504.334879 69.327408 
L 504.121352 69.272493 
L 504.078646 69.18246 
L 504.035941 69.191192 
L 503.822414 69.135937 
L 503.822414 69.086419 
L 503.737003 69.103879 
L 503.267243 69.100849 
L 503.267243 69.051151 
L 503.181832 69.068657 
L 503.053715 68.995392 
L 502.968305 68.863355 
L 502.455839 68.868377 
L 502.455839 68.818333 
L 502.370428 68.83584 
L 502.285017 68.753135 
L 502.285017 68.602627 
L 502.199606 68.620074 
L 502.028785 68.554455 
L 502.028785 68.504143 
L 501.943374 68.521581 
L 501.473614 68.516834 
L 501.473614 68.415814 
L 501.388203 68.433278 
L 501.260086 68.358301 
L 501.174675 68.223738 
L 501.089265 68.190424 
L 501.089265 68.139662 
L 501.089265 68.088876 
L 501.003854 68.106262 
L 500.833032 68.039328 
L 500.747621 67.903869 
L 500.448683 67.862525 
L 500.448683 67.811417 
L 500.363272 67.828767 
L 499.850806 67.830646 
L 499.850806 67.779335 
L 499.765395 67.796738 
L 499.551868 67.788912 
L 499.551868 67.737488 
L 499.551868 67.686042 
L 499.466457 67.703441 
L 498.996697 67.696206 
L 498.911286 67.558616 
L 498.655054 67.507323 
L 498.612348 67.256571 
L 498.569643 67.265239 
L 498.057177 67.265349 
L 498.057177 67.21321 
L 497.971766 67.230593 
L 497.544712 67.213155 
L 497.459301 66.968609 
L 496.989541 66.95907 
L 496.989541 66.906443 
L 496.90413 66.923824 
L 496.092726 66.98399 
L 496.007315 66.683536 
L 495.452145 66.690489 
L 495.409439 66.43261 
L 495.366734 66.441293 
L 494.726152 66.464878 
L 494.726152 66.411266 
L 494.640741 66.428704 
L 494.000159 66.452349 
L 494.000159 66.398483 
L 493.914748 66.415996 
L 493.402283 66.413316 
L 493.316872 66.322652 
L 493.060639 66.266902 
L 493.060639 66.212624 
L 492.975228 66.230169 
L 492.889817 66.247731 
L 492.889817 66.139012 
L 492.804406 65.99321 
L 492.462763 65.954066 
L 492.420057 65.744078 
L 492.377352 65.752791 
L 491.950297 65.840156 
L 491.950297 65.730389 
L 491.950297 65.675466 
L 491.864886 65.692923 
L 491.480537 65.716615 
L 491.480537 65.661518 
L 491.395126 65.513509 
L 490.669134 65.551553 
L 490.669134 65.496086 
L 490.583723 65.513616 
L 490.541017 65.522388 
L 490.541017 65.411307 
L 490.455606 65.261928 
L 489.772319 65.29032 
L 489.772319 65.234401 
L 489.686908 65.251927 
L 489.345265 65.210055 
L 489.345265 65.15394 
L 489.259854 65.171483 
L 488.91821 65.129283 
L 488.832799 64.864916 
L 488.491155 64.821792 
L 488.491155 64.765171 
L 488.405745 64.782652 
L 488.106806 64.787217 
L 488.021395 64.691113 
L 487.466225 64.748189 
L 487.466225 64.691146 
L 487.380814 64.708715 
L 487.338108 64.717507 
L 487.338108 64.6604 
L 487.338108 64.603265 
L 487.252697 64.620813 
L 486.825643 64.651507 
L 486.825643 64.594172 
L 486.740232 64.611776 
L 486.56941 64.589601 
L 486.526705 64.425903 
L 486.483999 64.434685 
L 485.928828 64.49152 
L 485.886123 64.384778 
L 485.843417 64.39359 
L 485.800712 64.402405 
L 485.800712 64.344551 
L 485.715301 64.188363 
L 485.330952 64.209435 
L 485.245541 63.877665 
L 484.903897 63.889288 
L 484.903897 63.830825 
L 484.818486 63.848333 
L 484.434137 63.868708 
L 484.434137 63.810048 
L 484.348726 63.827603 
L 483.580028 63.927457 
L 483.580028 63.868486 
L 483.494617 63.886168 
L 483.409206 63.903869 
L 483.409206 63.844816 
L 483.323795 63.744263 
L 483.152974 63.720382 
L 483.067563 63.619471 
L 482.725919 63.630688 
L 482.725919 63.571219 
L 482.640508 63.588876 
L 482.298865 63.600057 
L 482.213454 63.378852 
L 481.999926 63.422975 
L 481.999926 63.363101 
L 481.999926 63.303197 
L 481.914515 63.320825 
L 481.87181 63.329646 
L 481.87181 63.269672 
L 481.87181 63.209666 
L 481.786399 63.227269 
L 481.40205 63.246525 
L 481.359345 63.134878 
L 481.316639 63.143692 
L 481.145817 63.178994 
L 481.145817 63.118639 
L 481.145817 63.058253 
L 481.060406 63.075878 
L 480.676057 63.094851 
L 480.676057 63.034255 
L 480.590646 63.051927 
L 480.547941 63.06077 
L 480.547941 63.000102 
L 480.547941 62.939403 
L 480.46253 62.957048 
L 480.206297 62.949256 
L 480.206297 62.888385 
L 480.120886 62.90605 
L 480.035475 62.862776 
L 479.950065 62.697308 
L 479.821948 62.662579 
L 479.736537 62.435151 
L 479.394894 62.50534 
L 479.394894 62.44389 
L 479.394894 62.382407 
L 479.309483 62.399945 
L 478.540785 62.496829 
L 478.540785 62.435002 
L 478.455374 62.45267 
L 477.857497 62.514787 
L 477.814792 62.337188 
L 477.772086 62.346043 
L 477.64397 62.310349 
L 477.64397 62.248029 
L 477.558559 62.265725 
L 477.003388 62.318638 
L 476.960683 62.202277 
L 476.917977 62.211155 
L 476.875272 62.220038 
L 476.875272 62.157327 
L 476.875272 62.094582 
L 476.789861 62.112304 
L 476.619039 62.147806 
L 476.619039 62.084941 
L 476.619039 62.022042 
L 476.533628 62.039764 
L 476.23469 62.038875 
L 476.23469 61.975778 
L 476.149279 61.993527 
L 475.935752 61.974749 
L 475.893046 61.857042 
L 475.850341 61.865908 
L 475.722225 61.829126 
L 475.636814 61.65635 
L 474.697294 61.78795 
L 474.654588 61.540853 
L 474.611883 61.549725 
L 474.184828 61.574453 
L 474.184828 61.510158 
L 474.099417 61.527954 
L 473.501541 61.588494 
L 473.501541 61.523885 
L 473.41613 61.541776 
L 472.177672 61.738302 
L 472.092261 61.560792 
L 471.793323 61.558805 
L 471.793323 61.493361 
L 471.707912 61.511464 
L 471.53709 61.547731 
L 471.53709 61.482155 
L 471.494385 61.359926 
L 471.451679 61.368963 
L 471.280857 61.339381 
L 471.280857 61.273564 
L 471.195446 61.29163 
L 471.152741 61.300671 
L 471.152741 61.234769 
L 471.152741 61.16883 
L 471.06733 61.186863 
L 470.939214 61.147894 
L 470.853803 60.967459 
L 470.512159 60.973117 
L 470.469454 60.716225 
L 470.426748 60.725174 
L 470.298632 60.752054 
L 470.298632 60.68542 
L 470.298632 60.618748 
L 470.213221 60.636628 
L 469.786166 60.726331 
L 469.786166 60.659425 
L 469.786166 60.525498 
L 469.700755 60.543401 
L 469.529934 60.512149 
L 469.529934 60.377796 
L 469.444523 60.395661 
L 469.401817 60.404601 
L 469.401817 60.337317 
L 469.316406 59.815257 
L 469.102879 59.859332 
L 469.102879 59.791584 
L 469.102879 59.723797 
L 469.017468 59.741395 
L 468.505003 59.779342 
L 468.505003 59.71124 
L 468.419592 59.728911 
L 468.077948 59.731488 
L 468.035243 59.466642 
L 467.992537 59.475445 
L 467.77901 59.519538 
L 467.77901 59.450907 
L 467.77901 59.382236 
L 467.693599 59.39984 
L 467.351955 59.401574 
L 467.351955 59.33265 
L 467.266545 59.350286 
L 467.095723 59.31655 
L 467.095723 59.1091 
L 467.010312 59.126657 
L 466.924901 59.144235 
L 466.924901 59.074933 
L 466.924901 59.005591 
L 466.83949 59.023119 
L 466.412435 59.041469 
L 466.412435 58.971833 
L 466.327025 58.989413 
L 465.131272 59.167496 
L 465.131272 59.097237 
L 465.045861 59.115058 
L 464.875039 59.150762 
L 464.875039 59.080353 
L 464.875039 59.009902 
L 464.789628 59.027713 
L 464.576101 59.001712 
L 464.49069 58.807335 
L 464.319868 58.842875 
L 464.319868 58.771975 
L 464.319868 58.630048 
L 464.234457 58.647738 
L 464.149046 58.594348 
L 464.063635 58.398373 
L 463.721992 58.397459 
L 463.721992 58.325957 
L 463.636581 58.343571 
L 463.423054 58.387699 
L 463.423054 58.316022 
L 463.423054 58.244302 
L 463.337643 58.261915 
L 463.209526 58.216515 
L 463.124115 58.09022 
L 462.355417 58.176771 
L 462.312712 57.968193 
L 462.270006 57.977001 
L 461.629425 58.036889 
L 461.544014 57.835621 
L 461.031548 57.868567 
L 460.946137 57.665925 
L 460.519083 57.680651 
L 460.519083 57.606851 
L 460.433672 57.624532 
L 460.348261 57.642235 
L 460.348261 57.56831 
L 460.26285 57.289671 
L 460.049323 57.259277 
L 460.049323 57.110544 
L 459.963912 57.128021 
L 459.750385 57.09723 
L 459.750385 57.022604 
L 459.664974 57.040076 
L 459.494152 57.075084 
L 459.494152 57.000288 
L 459.451446 56.859261 
L 459.408741 56.86797 
L 458.810865 56.915204 
L 458.768159 56.773254 
L 458.725454 56.781988 
L 458.682748 56.790728 
L 458.682748 56.715254 
L 458.682748 56.639733 
L 458.597337 56.657144 
L 458.212988 56.659968 
L 458.127577 56.525628 
L 457.230763 56.633289 
L 457.230763 56.556803 
L 457.145352 56.574378 
L 456.462065 56.638868 
L 456.462065 56.561893 
L 456.376654 56.579584 
L 456.291243 56.520186 
L 456.291243 56.443024 
L 456.205832 56.460674 
L 455.607955 56.507292 
L 455.607955 56.429677 
L 455.522545 56.447421 
L 455.309017 56.414058 
L 455.266312 56.267106 
L 455.223606 56.275954 
L 454.881963 56.268745 
L 454.881963 56.190496 
L 454.796552 56.208211 
L 454.668435 56.234827 
L 454.668435 56.156414 
L 454.668435 56.077949 
L 454.583025 56.095631 
L 454.070559 56.123373 
L 454.027854 55.895384 
L 453.985148 55.904217 
L 453.728915 55.878111 
L 453.728915 55.798832 
L 453.643505 55.816493 
L 453.387272 55.790097 
L 453.344566 55.639707 
L 453.301861 55.648517 
L 453.088334 55.612814 
L 453.088334 55.532921 
L 453.002923 55.550523 
L 452.533163 55.567497 
L 452.490457 55.335192 
L 452.447752 55.343977 
L 451.892581 55.377886 
L 451.80717 55.152622 
L 451.550937 55.124165 
L 451.465526 54.979015 
L 451.209294 54.950041 
L 451.209294 54.868385 
L 451.123883 54.885877 
L 450.739534 54.882898 
L 450.739534 54.718764 
L 450.654123 54.736237 
L 449.842719 54.820745 
L 449.757308 54.672793 
L 449.415665 54.660224 
L 449.415665 54.493848 
L 449.330254 54.511389 
L 449.159432 54.463115 
L 449.159432 54.296087 
L 449.074021 54.313545 
L 448.732377 54.383622 
L 448.732377 54.299762 
L 448.732377 54.215844 
L 448.646966 54.23332 
L 447.536625 54.378016 
L 447.536625 54.208413 
L 447.451214 54.226073 
L 447.323097 54.167586 
L 447.323097 54.082502 
L 447.237686 54.100118 
L 446.938748 54.076581 
L 446.853337 53.837575 
L 446.725221 53.863887 
L 446.725221 53.778125 
L 446.682515 53.61512 
L 446.63981 53.623828 
L 445.999228 53.668775 
L 445.999228 53.495768 
L 445.913817 53.513223 
L 445.358646 53.540271 
L 445.315941 53.37479 
L 445.273235 53.38353 
L 444.29101 53.498388 
L 444.29101 53.410414 
L 444.205599 53.428091 
L 443.863955 53.410731 
L 443.778545 53.251519 
L 443.137963 53.295569 
L 443.137963 53.20649 
L 443.052552 53.224225 
L 442.540086 53.241625 
L 442.540086 53.152001 
L 442.454675 53.1698 
L 442.241148 53.124514 
L 442.241148 52.944517 
L 442.155737 52.962229 
L 441.47245 53.014229 
L 441.387039 52.850508 
L 440.917279 52.857458 
L 440.917279 52.491796 
L 440.831868 52.509427 
L 439.550705 52.684515 
L 439.550705 52.591853 
L 439.465294 52.609788 
L 438.312246 52.854609 
L 438.312246 52.760944 
L 438.312246 52.667207 
L 438.226835 52.685414 
L 437.415432 52.76529 
L 437.330021 52.594379 
L 437.24461 52.517862 
L 437.201905 52.337015 
L 437.159199 52.3461 
L 437.073788 52.364291 
L 437.073788 52.269084 
L 437.073788 52.173802 
L 436.988377 52.191887 
L 436.604028 52.177891 
L 436.518617 52.004247 
L 436.134268 51.989435 
L 436.048857 51.814535 
L 435.707214 51.789862 
L 435.707214 51.692881 
L 435.621803 51.710871 
L 435.493686 51.640677 
L 435.493686 51.543366 
L 435.408275 51.561288 
L 434.383345 51.680279 
L 434.383345 51.483422 
L 434.297934 51.501504 
L 433.998995 51.466149 
L 433.998995 51.367197 
L 433.913585 51.385265 
L 432.717832 51.541193 
L 432.632421 51.358969 
L 430.497148 51.723827 
L 430.497148 51.621381 
L 430.411737 51.640321 
L 429.600334 51.718487 
L 429.600334 51.615043 
L 429.514923 51.634162 
L 428.703519 51.713043 
L 428.703519 51.50403 
L 428.618108 51.52325 
L 427.84941 51.59226 
L 427.84941 51.486711 
L 427.763999 51.506099 
L 426.568246 51.674179 
L 426.482835 51.479752 
L 426.055781 51.4708 
L 426.055781 51.363017 
L 425.97037 51.382696 
L 425.586021 51.363329 
L 425.586021 51.254878 
L 425.50061 51.274575 
L 425.457905 51.284436 
L 425.457905 51.175758 
L 425.457905 51.066984 
L 425.372494 51.086558 
L 425.201672 51.016675 
L 425.116261 50.817526 
L 424.902734 50.756471 
L 424.902734 50.646634 
L 424.817323 50.66599 
L 424.518385 50.623668 
L 424.475679 50.412307 
L 424.432974 50.421931 
L 424.390268 50.431565 
L 424.390268 50.320791 
L 424.304857 50.117963 
L 422.810166 50.343638 
L 422.810166 50.117741 
L 422.724755 50.137127 
L 422.639345 50.043254 
L 422.639345 49.929855 
L 422.553934 49.949121 
L 421.785235 50.009656 
L 421.785235 49.895083 
L 421.699825 49.914514 
L 419.39373 50.335678 
L 419.39373 50.218087 
L 419.308319 50.238365 
L 419.222908 50.258682 
L 419.222908 50.140773 
L 419.137497 50.161025 
L 419.094792 50.171166 
L 419.094792 49.934698 
L 419.009381 49.954801 
L 418.838559 49.995124 
L 418.838559 49.876407 
L 418.753148 49.896521 
L 418.710443 49.906593 
L 418.710443 49.787604 
L 418.625032 49.807672 
L 418.411505 49.858012 
L 418.411505 49.738539 
L 418.326094 49.758637 
L 418.027155 49.829289 
L 418.027155 49.70922 
L 417.941745 49.729387 
L 417.856334 49.749594 
L 417.770923 49.407962 
L 417.642806 49.437919 
L 417.642806 49.316894 
L 417.557395 49.336806 
L 417.301163 49.396775 
L 417.215752 49.051411 
L 417.130341 49.071189 
L 417.130341 48.949027 
L 417.04493 48.968732 
L 416.874108 49.00826 
L 416.788697 48.782505 
L 416.703286 48.802142 
L 416.703286 48.679058 
L 416.617875 48.698622 
L 416.404348 48.747704 
L 416.404348 48.624101 
L 416.318937 48.643688 
L 415.849177 48.752123 
L 415.849177 48.627653 
L 415.763766 48.647382 
L 415.507534 48.706808 
L 415.507534 48.58175 
L 415.422123 48.601523 
L 415.379417 48.611424 
L 415.379417 48.486065 
L 415.294006 48.505781 
L 415.16589 48.535429 
L 415.16589 48.40965 
L 415.080479 48.429348 
L 414.610719 48.538405 
L 414.610719 48.411729 
L 414.525308 48.43157 
L 414.354486 48.471374 
L 414.269075 48.236635 
L 414.140959 48.266295 
L 414.140959 48.138566 
L 414.055548 48.158269 
L 413.970137 48.178013 
L 413.927432 47.803009 
L 413.884726 47.812722 
L 413.28685 47.949774 
L 413.28685 47.820284 
L 413.201439 47.839901 
L 412.987912 47.889124 
L 412.987912 47.759061 
L 412.902501 47.778696 
L 412.304625 47.917304 
L 412.304625 47.786089 
L 412.219214 47.805929 
L 411.792159 47.905763 
L 411.792159 47.773635 
L 411.706748 47.793599 
L 410.767228 48.016043 
L 410.767228 47.748203 
L 410.681817 47.76842 
L 410.083941 47.911168 
L 410.083941 47.775954 
L 409.99853 47.796388 
L 409.187126 47.992754 
L 409.144421 47.7293 
L 409.101715 47.73962 
L 408.717366 47.833023 
L 408.674661 47.567402 
L 408.631955 47.577707 
L 408.333017 47.650167 
L 408.333017 47.372354 
L 408.247606 47.392874 
L 407.393497 47.600621 
L 407.393497 47.45988 
L 407.308086 47.480766 
L 406.582094 47.660224 
L 406.582094 47.517908 
L 406.496683 47.539099 
L 406.368566 47.570977 
L 406.368566 47.42812 
L 406.283155 47.449282 
L 405.898806 47.545112 
L 405.898806 47.40125 
L 405.813395 47.422527 
L 405.685279 47.454535 
L 405.685279 47.31012 
L 405.599868 47.331365 
L 405.087403 47.45988 
L 405.087403 47.314202 
L 405.001992 47.335638 
L 404.873875 47.367888 
L 404.873875 47.221642 
L 404.788465 47.243045 
L 404.489526 47.318356 
L 404.446821 47.034553 
L 404.404115 47.045214 
L 402.909425 47.426452 
L 402.909425 47.275911 
L 402.824014 47.298015 
L 400.816857 47.8333 
L 400.816857 47.36779 
L 400.731446 47.390726 
L 400.389803 47.483048 
L 400.389803 47.326585 
L 400.304392 47.349629 
L 400.218981 47.37273 
L 400.218981 47.215705 
L 400.13357 47.238681 
L 399.834632 47.319556 
L 399.834632 47.161502 
L 399.749221 47.184555 
L 399.66381 47.207667 
L 399.66381 47.049039 
L 399.578399 47.072022 
L 399.407577 47.118164 
L 399.407577 46.95877 
L 399.322166 46.98174 
L 399.108639 47.039425 
L 399.108639 46.879161 
L 399.023228 46.902147 
L 398.72429 46.983067 
L 398.72429 46.821731 
L 398.638879 46.844792 
L 398.211825 46.960997 
L 398.211825 46.798279 
L 398.126414 46.821505 
L 398.083708 46.833141 
L 398.083708 46.669913 
L 397.998297 46.693032 
L 397.186894 46.915716 
L 397.186894 46.750163 
L 397.101483 46.773726 
L 396.930661 46.82104 
L 396.930661 46.654651 
L 396.84525 46.678197 
L 396.674428 46.725477 
L 396.589017 46.414106 
L 396.033846 46.567211 
L 396.033846 46.228453 
L 395.948435 46.251819 
L 395.90573 46.263526 
L 395.90573 46.093481 
L 395.820319 46.116727 
L 395.564086 46.186848 
L 395.564086 46.015704 
L 395.478675 46.038987 
L 395.008915 46.168194 
L 395.008915 45.995383 
L 394.923505 46.018864 
L 394.880799 46.030628 
L 394.880799 45.857244 
L 394.795388 45.880598 
L 394.453745 45.974666 
L 394.453745 45.799913 
L 394.368334 45.823366 
L 393.428814 46.085746 
L 393.428814 45.907971 
L 393.343403 45.931995 
L 393.300697 45.944032 
L 393.300697 45.76565 
L 393.215286 45.78954 
L 393.044465 45.837523 
L 393.044465 45.658172 
L 392.959054 45.682027 
L 392.104945 45.924393 
L 392.104945 45.742105 
L 392.019534 45.766482 
L 391.67789 45.864705 
L 391.67789 45.680903 
L 391.592479 45.705387 
L 391.20813 45.816461 
L 391.20813 45.630992 
L 391.122719 45.65562 
L 390.524843 45.830079 
L 390.439432 45.478851 
L 390.311315 45.516033 
L 390.225905 45.162002 
L 389.200974 45.460014 
L 389.200974 45.266852 
L 389.115563 45.291906 
L 388.133337 45.585669 
L 388.090632 45.204071 
L 388.047926 45.216815 
L 387.791694 45.293698 
L 387.748988 44.908383 
L 387.706283 44.920993 
L 386.339708 45.335347 
L 386.339708 45.130758 
L 386.254297 45.15706 
L 386.126181 45.196676 
L 386.126181 44.990968 
L 386.04077 45.017171 
L 385.912654 45.056637 
L 385.912654 44.8498 
L 385.827243 44.875899 
L 383.350326 45.672079 
L 383.264915 45.265423 
L 382.453512 45.538067 
L 382.453512 45.316307 
L 382.368101 45.345172 
L 382.28269 45.37414 
L 382.28269 45.151251 
L 382.197279 45.179951 
L 381.727519 45.339646 
L 381.684814 44.448219 
L 381.642108 44.462155 
L 381.556697 44.490103 
L 381.556697 44.261975 
L 381.471286 44.289636 
L 381.428581 44.303504 
L 381.428581 44.074378 
L 381.34317 44.101798 
L 381.172348 44.156938 
L 381.172348 43.926212 
L 381.086937 43.953536 
L 380.787999 44.049964 
L 380.787999 43.817011 
L 380.702588 43.844386 
L 380.062006 44.052969 
L 380.062006 43.816085 
L 379.976595 43.843921 
L 379.165192 44.11368 
L 379.165192 43.871862 
L 379.079781 43.900393 
L 378.225672 44.191845 
L 378.225672 43.944657 
L 378.140261 43.973975 
L 377.670501 44.137302 
L 377.670501 43.886624 
L 377.58509 43.916234 
L 376.944508 44.142129 
L 376.944508 43.886892 
L 376.859097 43.917044 
L 375.70605 44.336383 
L 375.70605 44.073364 
L 375.620639 44.104851 
L 375.065468 44.312763 
L 374.980057 43.808609 
L 372.88749 44.622602 
L 372.88749 44.339514 
L 372.802079 44.374046 
L 372.503141 44.496144 
L 372.503141 44.209695 
L 372.41773 44.244325 
L 372.118792 44.366782 
L 372.118792 44.076892 
L 372.033381 44.111615 
L 370.495985 44.76517 
L 370.495985 44.462155 
L 370.410574 44.499441 
L 370.325163 44.536907 
L 370.325163 44.231781 
L 370.239752 44.268734 
L 369.727286 44.494274 
L 369.727286 44.183452 
L 369.641875 44.22097 
L 369.513759 44.277597 
L 369.513759 43.964189 
L 369.428348 44.001442 
L 369.342937 44.038881 
L 369.342937 43.723216 
L 369.257526 43.760098 
L 367.848246 44.396497 
L 367.848246 44.066426 
L 367.762835 44.105951 
L 367.72013 44.125792 
L 367.72013 43.793627 
L 367.634719 43.832642 
L 367.207665 44.030843 
L 367.207665 43.69277 
L 367.122254 43.732195 
L 364.944275 44.81429 
L 364.944275 44.451004 
L 364.858865 44.495704 
L 364.730748 44.563241 
L 364.730748 44.196418 
L 364.645337 44.240766 
L 364.602632 44.263037 
L 364.602632 43.893626 
L 364.517221 43.937345 
L 364.389105 44.003408 
L 364.389105 43.630339 
L 364.303694 43.673667 
L 364.047461 43.805205 
L 364.047461 43.426813 
L 363.96205 43.470115 
L 363.278763 43.826125 
L 363.278763 43.436688 
L 363.193352 43.481292 
L 362.809003 43.685472 
L 362.809003 43.288478 
L 362.723592 43.333458 
L 362.680886 43.356054 
L 362.595475 42.59775 
L 362.253832 42.772548 
L 362.253832 42.363855 
L 362.168421 42.40701 
L 361.655955 42.671916 
L 361.655955 42.25294 
L 361.570545 42.2968 
L 361.314312 42.430141 
L 361.271606 41.598446 
L 361.228901 41.619643 
L 361.100785 41.683666 
L 361.100785 41.251654 
L 361.015374 41.293301 
L 360.374792 41.614927 
L 360.374792 41.169199 
L 360.289381 41.211873 
L 359.221745 41.77172 
L 359.221745 41.303339 
L 359.136334 41.348712 
L 358.880101 41.486863 
L 358.837395 40.553114 
L 358.79469 40.574817 
L 358.196814 40.887455 
L 358.196814 40.392903 
L 358.111403 40.437119 
L 357.513526 40.756517 
L 357.513526 40.244889 
L 357.428115 40.29002 
L 356.574006 40.762104 
L 356.574006 40.225817 
L 356.488595 40.273053 
L 356.189657 40.441559 
L 356.189657 39.342292 
L 356.104246 39.38684 
L 354.054385 40.584489 
L 352.730515 41.516685 
L 352.730515 40.852481 
L 352.645105 40.914498 
L 352.559694 40.977168 
L 352.559694 40.302778 
L 352.474283 40.362702 
L 352.303461 40.484476 
L 352.303461 39.796072 
L 352.21805 39.85439 
L 351.107708 40.674235 
L 351.107708 39.928181 
L 351.022297 39.992233 
L 350.80877 40.155701 
L 350.80877 39.390282 
L 350.723359 39.452643 
L 349.39949 40.524856 
L 349.39949 39.674205 
L 349.314079 39.745556 
L 348.118326 40.855052 
L 348.118326 39.907957 
L 348.032915 39.989305 
L 347.605861 40.414968 
L 347.605861 39.418252 
L 347.52045 39.499908 
L 346.281992 40.846315 
L 346.11117 41.059632 
L 346.068465 38.78123 
L 346.025759 38.826065 
L 345.000828 40.040768 
L 344.958123 37.412356 
L 344.915417 37.456594 
L 343.890486 38.678191 
L 342.950966 40.155701 
L 342.694734 40.640417 
L 342.694734 38.772312 
L 342.609323 38.91698 
L 342.438501 39.219568 
L 342.438501 37.239943 
L 342.35309 37.36858 
L 341.755214 38.395414 
L 341.755214 36.110675 
L 341.669803 36.238666 
L 340.94381 37.546481 
L 340.303228 39.16786 
L 339.748057 41.169199 
L 339.235592 43.871862 
L 338.765832 47.674446 
L 338.381483 52.615772 
L 338.039839 59.879943 
L 337.911723 63.906821 
L 337.826312 43.089513 
L 337.740901 44.746253 
L 337.740901 29.007216 
L 337.65549 29.007216 
L 337.057614 29.007216 
L 337.057614 29.007216 
" clip-path="url(#p19c0567833)" style="fill: none; stroke: #e15759; stroke-width: 1.5; stroke-linecap: square"/>
   </g>
   <g id="patch_8">
    <path d="M 326.38125 169.478125 
L 326.38125 22.318125 
" style="fill: none; stroke: #000000; stroke-width: 0.8; stroke-linejoin: miter; stroke-linecap: square"/>
   </g>
   <g id="patch_9">
    <path d="M 561.26125 169.478125 
L 561.26125 22.318125 
" style="fill: none; stroke: #000000; stroke-width: 0.8; stroke-linejoin: miter; stroke-linecap: square"/>
   </g>
   <g id="patch_10">
    <path d="M 326.38125 169.478125 
L 561.26125 169.478125 
" style="fill: none; stroke: #000000; stroke-width: 0.8; stroke-linejoin: miter; stroke-linecap: square"/>
   </g>
   <g id="patch_11">
    <path d="M 326.38125 22.318125 
L 561.26125 22.318125 
" style="fill: none; stroke: #000000; stroke-width: 0.8; stroke-linejoin: miter; stroke-linecap: square"/>
   </g>
   <g id="text_30">
    <!-- PR -->
    <g transform="translate(436.034375 16.318125) scale(0.12 -0.12)">
     <use xlink:href="#DejaVuSans-50"/>
     <use xlink:href="#DejaVuSans-52" transform="translate(60.302734 0)"/>
    </g>
   </g>
  </g>
 </g>
 <defs>
  <clipPath id="pbb91e27c7f">
   <rect x="43.78125" y="22.318125" width="234.88" height="147.16"/>
  </clipPath>
  <clipPath id="p19c0567833">
   <rect x="326.38125" y="22.318125" width="234.88" height="147.16"/>
  </clipPath>
 </defs>
</svg>
