<?xml version="1.0" encoding="utf-8" standalone="no"?>
<!DOCTYPE svg PUBLIC "-//W3C//DTD SVG 1.1//EN"
  "http://www.w3.org/Graphics/SVG/1.1/DTD/svg11.dtd">
<svg xmlns:xlink="http://www.w3.org/1999/xlink" width="424.46125pt" height="351.034375pt" viewBox="0 0 424.46125 351.034375" xmlns="http://www.w3.org/2000/svg" version="1.1">
 <metadata>
  <rdf:RDF xmlns:dc="http://purl.org/dc/elements/1.1/" xmlns:cc="http://creativecommons.org/ns#" xmlns:rdf="http://www.w3.org/1999/02/22-rdf-syntax-ns#">
   <cc:Work>
    <dc:type rdf:resource="http://purl.org/dc/dcmitype/StillImage"/>
    <dc:date>2026-05-24T21:06:24.075669</dc:date>
    <dc:format>image/svg+xml</dc:format>
    <dc:creator>
     <cc:Agent>
      <dc:title>Matplotlib v3.10.8, https://matplotlib.org/</dc:title>
     </cc:Agent>
    </dc:creator>
   </cc:Work>
  </rdf:RDF>
 </metadata>
 <defs>
  <style type="text/css">*{stroke-linejoin: round; stroke-linecap: butt}</style>
 </defs>
 <g id="figure_1">
  <g id="patch_1">
   <path d="M -0 351.034375 
L 424.46125 351.034375 
L 424.46125 0 
L -0 0 
z
" style="fill: #ffffff"/>
  </g>
  <g id="axes_1">
   <g id="patch_2">
    <path d="M 43.78125 313.478125 
L 417.26125 313.478125 
L 417.26125 22.318125 
L 43.78125 22.318125 
z
" style="fill: #ffffff"/>
   </g>
   <g id="matplotlib.axis_1">
    <g id="xtick_1">
     <g id="line2d_1">
      <defs>
       <path id="mbe19a2b2a1" d="M 0 0 
L 0 3.5 
" style="stroke: #000000; stroke-width: 0.8"/>
      </defs>
      <g>
       <use xlink:href="#mbe19a2b2a1" x="60.757614" y="313.478125" style="stroke: #000000; stroke-width: 0.8"/>
      </g>
     </g>
     <g id="text_1">
      <!-- 0.0 -->
      <g transform="translate(52.806051 328.076563) scale(0.1 -0.1)">
       <defs>
        <path id="DejaVuSans-30" d="M 2034 4250 
Q 1547 4250 1301 3770 
Q 1056 3291 1056 2328 
Q 1056 1369 1301 889 
Q 1547 409 2034 409 
Q 2525 409 2770 889 
Q 3016 1369 3016 2328 
Q 3016 3291 2770 3770 
Q 2525 4250 2034 4250 
z
M 2034 4750 
Q 2819 4750 3233 4129 
Q 3647 3509 3647 2328 
Q 3647 1150 3233 529 
Q 2819 -91 2034 -91 
Q 1250 -91 836 529 
Q 422 1150 422 2328 
Q 422 3509 836 4129 
Q 1250 4750 2034 4750 
z
" transform="scale(0.015625)"/>
        <path id="DejaVuSans-2e" d="M 684 794 
L 1344 794 
L 1344 0 
L 684 0 
L 684 794 
z
" transform="scale(0.015625)"/>
       </defs>
       <use xlink:href="#DejaVuSans-30"/>
       <use xlink:href="#DejaVuSans-2e" transform="translate(63.623047 0)"/>
       <use xlink:href="#DejaVuSans-30" transform="translate(95.410156 0)"/>
      </g>
     </g>
    </g>
    <g id="xtick_2">
     <g id="line2d_2">
      <g>
       <use xlink:href="#mbe19a2b2a1" x="128.663068" y="313.478125" style="stroke: #000000; stroke-width: 0.8"/>
      </g>
     </g>
     <g id="text_2">
      <!-- 0.2 -->
      <g transform="translate(120.711506 328.076563) scale(0.1 -0.1)">
       <defs>
        <path id="DejaVuSans-32" d="M 1228 531 
L 3431 531 
L 3431 0 
L 469 0 
L 469 531 
Q 828 903 1448 1529 
Q 2069 2156 2228 2338 
Q 2531 2678 2651 2914 
Q 2772 3150 2772 3378 
Q 2772 3750 2511 3984 
Q 2250 4219 1831 4219 
Q 1534 4219 1204 4116 
Q 875 4013 500 3803 
L 500 4441 
Q 881 4594 1212 4672 
Q 1544 4750 1819 4750 
Q 2544 4750 2975 4387 
Q 3406 4025 3406 3419 
Q 3406 3131 3298 2873 
Q 3191 2616 2906 2266 
Q 2828 2175 2409 1742 
Q 1991 1309 1228 531 
z
" transform="scale(0.015625)"/>
       </defs>
       <use xlink:href="#DejaVuSans-30"/>
       <use xlink:href="#DejaVuSans-2e" transform="translate(63.623047 0)"/>
       <use xlink:href="#DejaVuSans-32" transform="translate(95.410156 0)"/>
      </g>
     </g>
    </g>
    <g id="xtick_3">
     <g id="line2d_3">
      <g>
       <use xlink:href="#mbe19a2b2a1" x="196.568523" y="313.478125" style="stroke: #000000; stroke-width: 0.8"/>
      </g>
     </g>
     <g id="text_3">
      <!-- 0.4 -->
      <g transform="translate(188.61696 328.076563) scale(0.1 -0.1)">
       <defs>
        <path id="DejaVuSans-34" d="M 2419 4116 
L 825 1625 
L 2419 1625 
L 2419 4116 
z
M 2253 4666 
L 3047 4666 
L 3047 1625 
L 3713 1625 
L 3713 1100 
L 3047 1100 
L 3047 0 
L 2419 0 
L 2419 1100 
L 313 1100 
L 313 1709 
L 2253 4666 
z
" transform="scale(0.015625)"/>
       </defs>
       <use xlink:href="#DejaVuSans-30"/>
       <use xlink:href="#DejaVuSans-2e" transform="translate(63.623047 0)"/>
       <use xlink:href="#DejaVuSans-34" transform="translate(95.410156 0)"/>
      </g>
     </g>
    </g>
    <g id="xtick_4">
     <g id="line2d_4">
      <g>
       <use xlink:href="#mbe19a2b2a1" x="264.473977" y="313.478125" style="stroke: #000000; stroke-width: 0.8"/>
      </g>
     </g>
     <g id="text_4">
      <!-- 0.6 -->
      <g transform="translate(256.522415 328.076563) scale(0.1 -0.1)">
       <defs>
        <path id="DejaVuSans-36" d="M 2113 2584 
Q 1688 2584 1439 2293 
Q 1191 2003 1191 1497 
Q 1191 994 1439 701 
Q 1688 409 2113 409 
Q 2538 409 2786 701 
Q 3034 994 3034 1497 
Q 3034 2003 2786 2293 
Q 2538 2584 2113 2584 
z
M 3366 4563 
L 3366 3988 
Q 3128 4100 2886 4159 
Q 2644 4219 2406 4219 
Q 1781 4219 1451 3797 
Q 1122 3375 1075 2522 
Q 1259 2794 1537 2939 
Q 1816 3084 2150 3084 
Q 2853 3084 3261 2657 
Q 3669 2231 3669 1497 
Q 3669 778 3244 343 
Q 2819 -91 2113 -91 
Q 1303 -91 875 529 
Q 447 1150 447 2328 
Q 447 3434 972 4092 
Q 1497 4750 2381 4750 
Q 2619 4750 2861 4703 
Q 3103 4656 3366 4563 
z
" transform="scale(0.015625)"/>
       </defs>
       <use xlink:href="#DejaVuSans-30"/>
       <use xlink:href="#DejaVuSans-2e" transform="translate(63.623047 0)"/>
       <use xlink:href="#DejaVuSans-36" transform="translate(95.410156 0)"/>
      </g>
     </g>
    </g>
    <g id="xtick_5">
     <g id="line2d_5">
      <g>
       <use xlink:href="#mbe19a2b2a1" x="332.379432" y="313.478125" style="stroke: #000000; stroke-width: 0.8"/>
      </g>
     </g>
     <g id="text_5">
      <!-- 0.8 -->
      <g transform="translate(324.427869 328.076563) scale(0.1 -0.1)">
       <defs>
        <path id="DejaVuSans-38" d="M 2034 2216 
Q 1584 2216 1326 1975 
Q 1069 1734 1069 1313 
Q 1069 891 1326 650 
Q 1584 409 2034 409 
Q 2484 409 2743 651 
Q 3003 894 3003 1313 
Q 3003 1734 2745 1975 
Q 2488 2216 2034 2216 
z
M 1403 2484 
Q 997 2584 770 2862 
Q 544 3141 544 3541 
Q 544 4100 942 4425 
Q 1341 4750 2034 4750 
Q 2731 4750 3128 4425 
Q 3525 4100 3525 3541 
Q 3525 3141 3298 2862 
Q 3072 2584 2669 2484 
Q 3125 2378 3379 2068 
Q 3634 1759 3634 1313 
Q 3634 634 3220 271 
Q 2806 -91 2034 -91 
Q 1263 -91 848 271 
Q 434 634 434 1313 
Q 434 1759 690 2068 
Q 947 2378 1403 2484 
z
M 1172 3481 
Q 1172 3119 1398 2916 
Q 1625 2713 2034 2713 
Q 2441 2713 2670 2916 
Q 2900 3119 2900 3481 
Q 2900 3844 2670 4047 
Q 2441 4250 2034 4250 
Q 1625 4250 1398 4047 
Q 1172 3844 1172 3481 
z
" transform="scale(0.015625)"/>
       </defs>
       <use xlink:href="#DejaVuSans-30"/>
       <use xlink:href="#DejaVuSans-2e" transform="translate(63.623047 0)"/>
       <use xlink:href="#DejaVuSans-38" transform="translate(95.410156 0)"/>
      </g>
     </g>
    </g>
    <g id="xtick_6">
     <g id="line2d_6">
      <g>
       <use xlink:href="#mbe19a2b2a1" x="400.284886" y="313.478125" style="stroke: #000000; stroke-width: 0.8"/>
      </g>
     </g>
     <g id="text_6">
      <!-- 1.0 -->
      <g transform="translate(392.333324 328.076563) scale(0.1 -0.1)">
       <defs>
        <path id="DejaVuSans-31" d="M 794 531 
L 1825 531 
L 1825 4091 
L 703 3866 
L 703 4441 
L 1819 4666 
L 2450 4666 
L 2450 531 
L 3481 531 
L 3481 0 
L 794 0 
L 794 531 
z
" transform="scale(0.015625)"/>
       </defs>
       <use xlink:href="#DejaVuSans-31"/>
       <use xlink:href="#DejaVuSans-2e" transform="translate(63.623047 0)"/>
       <use xlink:href="#DejaVuSans-30" transform="translate(95.410156 0)"/>
      </g>
     </g>
    </g>
    <g id="text_7">
     <!-- FPR (False Positive Rate) -->
     <g transform="translate(169.199375 341.754687) scale(0.1 -0.1)">
      <defs>
       <path id="DejaVuSans-46" d="M 628 4666 
L 3309 4666 
L 3309 4134 
L 1259 4134 
L 1259 2759 
L 3109 2759 
L 3109 2228 
L 1259 2228 
L 1259 0 
L 628 0 
L 628 4666 
z
" transform="scale(0.015625)"/>
       <path id="DejaVuSans-50" d="M 1259 4147 
L 1259 2394 
L 2053 2394 
Q 2494 2394 2734 2622 
Q 2975 2850 2975 3272 
Q 2975 3691 2734 3919 
Q 2494 4147 2053 4147 
L 1259 4147 
z
M 628 4666 
L 2053 4666 
Q 2838 4666 3239 4311 
Q 3641 3956 3641 3272 
Q 3641 2581 3239 2228 
Q 2838 1875 2053 1875 
L 1259 1875 
L 1259 0 
L 628 0 
L 628 4666 
z
" transform="scale(0.015625)"/>
       <path id="DejaVuSans-52" d="M 2841 2188 
Q 3044 2119 3236 1894 
Q 3428 1669 3622 1275 
L 4263 0 
L 3584 0 
L 2988 1197 
Q 2756 1666 2539 1819 
Q 2322 1972 1947 1972 
L 1259 1972 
L 1259 0 
L 628 0 
L 628 4666 
L 2053 4666 
Q 2853 4666 3247 4331 
Q 3641 3997 3641 3322 
Q 3641 2881 3436 2590 
Q 3231 2300 2841 2188 
z
M 1259 4147 
L 1259 2491 
L 2053 2491 
Q 2509 2491 2742 2702 
Q 2975 2913 2975 3322 
Q 2975 3731 2742 3939 
Q 2509 4147 2053 4147 
L 1259 4147 
z
" transform="scale(0.015625)"/>
       <path id="DejaVuSans-20" transform="scale(0.015625)"/>
       <path id="DejaVuSans-28" d="M 1984 4856 
Q 1566 4138 1362 3434 
Q 1159 2731 1159 2009 
Q 1159 1288 1364 580 
Q 1569 -128 1984 -844 
L 1484 -844 
Q 1016 -109 783 600 
Q 550 1309 550 2009 
Q 550 2706 781 3412 
Q 1013 4119 1484 4856 
L 1984 4856 
z
" transform="scale(0.015625)"/>
       <path id="DejaVuSans-61" d="M 2194 1759 
Q 1497 1759 1228 1600 
Q 959 1441 959 1056 
Q 959 750 1161 570 
Q 1363 391 1709 391 
Q 2188 391 2477 730 
Q 2766 1069 2766 1631 
L 2766 1759 
L 2194 1759 
z
M 3341 1997 
L 3341 0 
L 2766 0 
L 2766 531 
Q 2569 213 2275 61 
Q 1981 -91 1556 -91 
Q 1019 -91 701 211 
Q 384 513 384 1019 
Q 384 1609 779 1909 
Q 1175 2209 1959 2209 
L 2766 2209 
L 2766 2266 
Q 2766 2663 2505 2880 
Q 2244 3097 1772 3097 
Q 1472 3097 1187 3025 
Q 903 2953 641 2809 
L 641 3341 
Q 956 3463 1253 3523 
Q 1550 3584 1831 3584 
Q 2591 3584 2966 3190 
Q 3341 2797 3341 1997 
z
" transform="scale(0.015625)"/>
       <path id="DejaVuSans-6c" d="M 603 4863 
L 1178 4863 
L 1178 0 
L 603 0 
L 603 4863 
z
" transform="scale(0.015625)"/>
       <path id="DejaVuSans-73" d="M 2834 3397 
L 2834 2853 
Q 2591 2978 2328 3040 
Q 2066 3103 1784 3103 
Q 1356 3103 1142 2972 
Q 928 2841 928 2578 
Q 928 2378 1081 2264 
Q 1234 2150 1697 2047 
L 1894 2003 
Q 2506 1872 2764 1633 
Q 3022 1394 3022 966 
Q 3022 478 2636 193 
Q 2250 -91 1575 -91 
Q 1294 -91 989 -36 
Q 684 19 347 128 
L 347 722 
Q 666 556 975 473 
Q 1284 391 1588 391 
Q 1994 391 2212 530 
Q 2431 669 2431 922 
Q 2431 1156 2273 1281 
Q 2116 1406 1581 1522 
L 1381 1569 
Q 847 1681 609 1914 
Q 372 2147 372 2553 
Q 372 3047 722 3315 
Q 1072 3584 1716 3584 
Q 2034 3584 2315 3537 
Q 2597 3491 2834 3397 
z
" transform="scale(0.015625)"/>
       <path id="DejaVuSans-65" d="M 3597 1894 
L 3597 1613 
L 953 1613 
Q 991 1019 1311 708 
Q 1631 397 2203 397 
Q 2534 397 2845 478 
Q 3156 559 3463 722 
L 3463 178 
Q 3153 47 2828 -22 
Q 2503 -91 2169 -91 
Q 1331 -91 842 396 
Q 353 884 353 1716 
Q 353 2575 817 3079 
Q 1281 3584 2069 3584 
Q 2775 3584 3186 3129 
Q 3597 2675 3597 1894 
z
M 3022 2063 
Q 3016 2534 2758 2815 
Q 2500 3097 2075 3097 
Q 1594 3097 1305 2825 
Q 1016 2553 972 2059 
L 3022 2063 
z
" transform="scale(0.015625)"/>
       <path id="DejaVuSans-6f" d="M 1959 3097 
Q 1497 3097 1228 2736 
Q 959 2375 959 1747 
Q 959 1119 1226 758 
Q 1494 397 1959 397 
Q 2419 397 2687 759 
Q 2956 1122 2956 1747 
Q 2956 2369 2687 2733 
Q 2419 3097 1959 3097 
z
M 1959 3584 
Q 2709 3584 3137 3096 
Q 3566 2609 3566 1747 
Q 3566 888 3137 398 
Q 2709 -91 1959 -91 
Q 1206 -91 779 398 
Q 353 888 353 1747 
Q 353 2609 779 3096 
Q 1206 3584 1959 3584 
z
" transform="scale(0.015625)"/>
       <path id="DejaVuSans-69" d="M 603 3500 
L 1178 3500 
L 1178 0 
L 603 0 
L 603 3500 
z
M 603 4863 
L 1178 4863 
L 1178 4134 
L 603 4134 
L 603 4863 
z
" transform="scale(0.015625)"/>
       <path id="DejaVuSans-74" d="M 1172 4494 
L 1172 3500 
L 2356 3500 
L 2356 3053 
L 1172 3053 
L 1172 1153 
Q 1172 725 1289 603 
Q 1406 481 1766 481 
L 2356 481 
L 2356 0 
L 1766 0 
Q 1100 0 847 248 
Q 594 497 594 1153 
L 594 3053 
L 172 3053 
L 172 3500 
L 594 3500 
L 594 4494 
L 1172 4494 
z
" transform="scale(0.015625)"/>
       <path id="DejaVuSans-76" d="M 191 3500 
L 800 3500 
L 1894 563 
L 2988 3500 
L 3597 3500 
L 2284 0 
L 1503 0 
L 191 3500 
z
" transform="scale(0.015625)"/>
       <path id="DejaVuSans-29" d="M 513 4856 
L 1013 4856 
Q 1481 4119 1714 3412 
Q 1947 2706 1947 2009 
Q 1947 1309 1714 600 
Q 1481 -109 1013 -844 
L 513 -844 
Q 928 -128 1133 580 
Q 1338 1288 1338 2009 
Q 1338 2731 1133 3434 
Q 928 4138 513 4856 
z
" transform="scale(0.015625)"/>
      </defs>
      <use xlink:href="#DejaVuSans-46"/>
      <use xlink:href="#DejaVuSans-50" transform="translate(57.519531 0)"/>
      <use xlink:href="#DejaVuSans-52" transform="translate(117.822266 0)"/>
      <use xlink:href="#DejaVuSans-20" transform="translate(187.304688 0)"/>
      <use xlink:href="#DejaVuSans-28" transform="translate(219.091797 0)"/>
      <use xlink:href="#DejaVuSans-46" transform="translate(258.105469 0)"/>
      <use xlink:href="#DejaVuSans-61" transform="translate(306.5 0)"/>
      <use xlink:href="#DejaVuSans-6c" transform="translate(367.779297 0)"/>
      <use xlink:href="#DejaVuSans-73" transform="translate(395.5625 0)"/>
      <use xlink:href="#DejaVuSans-65" transform="translate(447.662109 0)"/>
      <use xlink:href="#DejaVuSans-20" transform="translate(509.185547 0)"/>
      <use xlink:href="#DejaVuSans-50" transform="translate(540.972656 0)"/>
      <use xlink:href="#DejaVuSans-6f" transform="translate(597.650391 0)"/>
      <use xlink:href="#DejaVuSans-73" transform="translate(658.832031 0)"/>
      <use xlink:href="#DejaVuSans-69" transform="translate(710.931641 0)"/>
      <use xlink:href="#DejaVuSans-74" transform="translate(738.714844 0)"/>
      <use xlink:href="#DejaVuSans-69" transform="translate(777.923828 0)"/>
      <use xlink:href="#DejaVuSans-76" transform="translate(805.707031 0)"/>
      <use xlink:href="#DejaVuSans-65" transform="translate(864.886719 0)"/>
      <use xlink:href="#DejaVuSans-20" transform="translate(926.410156 0)"/>
      <use xlink:href="#DejaVuSans-52" transform="translate(958.197266 0)"/>
      <use xlink:href="#DejaVuSans-61" transform="translate(1025.429688 0)"/>
      <use xlink:href="#DejaVuSans-74" transform="translate(1086.708984 0)"/>
      <use xlink:href="#DejaVuSans-65" transform="translate(1125.917969 0)"/>
      <use xlink:href="#DejaVuSans-29" transform="translate(1187.441406 0)"/>
     </g>
    </g>
   </g>
   <g id="matplotlib.axis_2">
    <g id="ytick_1">
     <g id="line2d_7">
      <defs>
       <path id="m29e8ab70bc" d="M 0 0 
L -3.5 0 
" style="stroke: #000000; stroke-width: 0.8"/>
      </defs>
      <g>
       <use xlink:href="#m29e8ab70bc" x="43.78125" y="300.24358" style="stroke: #000000; stroke-width: 0.8"/>
      </g>
     </g>
     <g id="text_8">
      <!-- 0.0 -->
      <g transform="translate(20.878125 304.042798) scale(0.1 -0.1)">
       <use xlink:href="#DejaVuSans-30"/>
       <use xlink:href="#DejaVuSans-2e" transform="translate(63.623047 0)"/>
       <use xlink:href="#DejaVuSans-30" transform="translate(95.410156 0)"/>
      </g>
     </g>
    </g>
    <g id="ytick_2">
     <g id="line2d_8">
      <g>
       <use xlink:href="#m29e8ab70bc" x="43.78125" y="247.305398" style="stroke: #000000; stroke-width: 0.8"/>
      </g>
     </g>
     <g id="text_9">
      <!-- 0.2 -->
      <g transform="translate(20.878125 251.104616) scale(0.1 -0.1)">
       <use xlink:href="#DejaVuSans-30"/>
       <use xlink:href="#DejaVuSans-2e" transform="translate(63.623047 0)"/>
       <use xlink:href="#DejaVuSans-32" transform="translate(95.410156 0)"/>
      </g>
     </g>
    </g>
    <g id="ytick_3">
     <g id="line2d_9">
      <g>
       <use xlink:href="#m29e8ab70bc" x="43.78125" y="194.367216" style="stroke: #000000; stroke-width: 0.8"/>
      </g>
     </g>
     <g id="text_10">
      <!-- 0.4 -->
      <g transform="translate(20.878125 198.166435) scale(0.1 -0.1)">
       <use xlink:href="#DejaVuSans-30"/>
       <use xlink:href="#DejaVuSans-2e" transform="translate(63.623047 0)"/>
       <use xlink:href="#DejaVuSans-34" transform="translate(95.410156 0)"/>
      </g>
     </g>
    </g>
    <g id="ytick_4">
     <g id="line2d_10">
      <g>
       <use xlink:href="#m29e8ab70bc" x="43.78125" y="141.429034" style="stroke: #000000; stroke-width: 0.8"/>
      </g>
     </g>
     <g id="text_11">
      <!-- 0.6 -->
      <g transform="translate(20.878125 145.228253) scale(0.1 -0.1)">
       <use xlink:href="#DejaVuSans-30"/>
       <use xlink:href="#DejaVuSans-2e" transform="translate(63.623047 0)"/>
       <use xlink:href="#DejaVuSans-36" transform="translate(95.410156 0)"/>
      </g>
     </g>
    </g>
    <g id="ytick_5">
     <g id="line2d_11">
      <g>
       <use xlink:href="#m29e8ab70bc" x="43.78125" y="88.490852" style="stroke: #000000; stroke-width: 0.8"/>
      </g>
     </g>
     <g id="text_12">
      <!-- 0.8 -->
      <g transform="translate(20.878125 92.290071) scale(0.1 -0.1)">
       <use xlink:href="#DejaVuSans-30"/>
       <use xlink:href="#DejaVuSans-2e" transform="translate(63.623047 0)"/>
       <use xlink:href="#DejaVuSans-38" transform="translate(95.410156 0)"/>
      </g>
     </g>
    </g>
    <g id="ytick_6">
     <g id="line2d_12">
      <g>
       <use xlink:href="#m29e8ab70bc" x="43.78125" y="35.55267" style="stroke: #000000; stroke-width: 0.8"/>
      </g>
     </g>
     <g id="text_13">
      <!-- 1.0 -->
      <g transform="translate(20.878125 39.351889) scale(0.1 -0.1)">
       <use xlink:href="#DejaVuSans-31"/>
       <use xlink:href="#DejaVuSans-2e" transform="translate(63.623047 0)"/>
       <use xlink:href="#DejaVuSans-30" transform="translate(95.410156 0)"/>
      </g>
     </g>
    </g>
    <g id="text_14">
     <!-- TPR (True Positive Rate) -->
     <g transform="translate(14.798438 227.461406) rotate(-90) scale(0.1 -0.1)">
      <defs>
       <path id="DejaVuSans-54" d="M -19 4666 
L 3928 4666 
L 3928 4134 
L 2272 4134 
L 2272 0 
L 1638 0 
L 1638 4134 
L -19 4134 
L -19 4666 
z
" transform="scale(0.015625)"/>
       <path id="DejaVuSans-72" d="M 2631 2963 
Q 2534 3019 2420 3045 
Q 2306 3072 2169 3072 
Q 1681 3072 1420 2755 
Q 1159 2438 1159 1844 
L 1159 0 
L 581 0 
L 581 3500 
L 1159 3500 
L 1159 2956 
Q 1341 3275 1631 3429 
Q 1922 3584 2338 3584 
Q 2397 3584 2469 3576 
Q 2541 3569 2628 3553 
L 2631 2963 
z
" transform="scale(0.015625)"/>
       <path id="DejaVuSans-75" d="M 544 1381 
L 544 3500 
L 1119 3500 
L 1119 1403 
Q 1119 906 1312 657 
Q 1506 409 1894 409 
Q 2359 409 2629 706 
Q 2900 1003 2900 1516 
L 2900 3500 
L 3475 3500 
L 3475 0 
L 2900 0 
L 2900 538 
Q 2691 219 2414 64 
Q 2138 -91 1772 -91 
Q 1169 -91 856 284 
Q 544 659 544 1381 
z
M 1991 3584 
L 1991 3584 
z
" transform="scale(0.015625)"/>
      </defs>
      <use xlink:href="#DejaVuSans-54"/>
      <use xlink:href="#DejaVuSans-50" transform="translate(61.083984 0)"/>
      <use xlink:href="#DejaVuSans-52" transform="translate(121.386719 0)"/>
      <use xlink:href="#DejaVuSans-20" transform="translate(190.869141 0)"/>
      <use xlink:href="#DejaVuSans-28" transform="translate(222.65625 0)"/>
      <use xlink:href="#DejaVuSans-54" transform="translate(261.669922 0)"/>
      <use xlink:href="#DejaVuSans-72" transform="translate(308.003906 0)"/>
      <use xlink:href="#DejaVuSans-75" transform="translate(349.117188 0)"/>
      <use xlink:href="#DejaVuSans-65" transform="translate(412.496094 0)"/>
      <use xlink:href="#DejaVuSans-20" transform="translate(474.019531 0)"/>
      <use xlink:href="#DejaVuSans-50" transform="translate(505.806641 0)"/>
      <use xlink:href="#DejaVuSans-6f" transform="translate(562.484375 0)"/>
      <use xlink:href="#DejaVuSans-73" transform="translate(623.666016 0)"/>
      <use xlink:href="#DejaVuSans-69" transform="translate(675.765625 0)"/>
      <use xlink:href="#DejaVuSans-74" transform="translate(703.548828 0)"/>
      <use xlink:href="#DejaVuSans-69" transform="translate(742.757812 0)"/>
      <use xlink:href="#DejaVuSans-76" transform="translate(770.541016 0)"/>
      <use xlink:href="#DejaVuSans-65" transform="translate(829.720703 0)"/>
      <use xlink:href="#DejaVuSans-20" transform="translate(891.244141 0)"/>
      <use xlink:href="#DejaVuSans-52" transform="translate(923.03125 0)"/>
      <use xlink:href="#DejaVuSans-61" transform="translate(990.263672 0)"/>
      <use xlink:href="#DejaVuSans-74" transform="translate(1051.542969 0)"/>
      <use xlink:href="#DejaVuSans-65" transform="translate(1090.751953 0)"/>
      <use xlink:href="#DejaVuSans-29" transform="translate(1152.275391 0)"/>
     </g>
    </g>
   </g>
   <g id="line2d_13">
    <path d="M 60.757614 300.24358 
L 60.825519 299.290692 
L 60.96133 299.184816 
L 61.029235 293.573369 
L 61.097141 293.573369 
L 61.165046 290.450016 
L 61.300857 290.397078 
L 61.368763 289.020685 
L 61.436668 289.020685 
L 61.504574 286.53259 
L 61.572479 286.53259 
L 61.640385 283.197485 
L 61.70829 283.197485 
L 61.776195 281.344649 
L 61.844101 281.344649 
L 61.912006 280.815267 
L 61.979912 280.815267 
L 61.979912 276.527274 
L 62.115723 276.527274 
L 62.183628 274.88619 
L 62.251534 274.88619 
L 62.319439 273.245107 
L 62.45525 273.192169 
L 62.523155 271.339332 
L 62.591061 271.339332 
L 62.658966 270.22763 
L 62.794777 270.174692 
L 62.862683 269.010052 
L 62.930588 269.010052 
L 62.998494 268.48067 
L 63.066399 268.48067 
L 63.134305 267.739536 
L 63.20221 267.739536 
L 63.270115 266.363143 
L 63.338021 266.363143 
L 63.405926 265.939638 
L 63.473832 265.939638 
L 63.541737 262.869223 
L 63.609643 262.869223 
L 63.677548 262.07515 
L 63.745454 262.07515 
L 63.813359 260.010561 
L 63.881265 260.010561 
L 63.94917 259.004736 
L 64.017075 259.004736 
L 64.084981 256.781332 
L 64.152886 256.781332 
L 64.220792 255.828445 
L 64.288697 255.828445 
L 64.356603 253.128598 
L 64.424508 253.128598 
L 64.492414 250.799318 
L 64.560319 250.799318 
L 64.628225 249.211172 
L 64.69613 249.211172 
L 64.764035 246.93483 
L 64.831941 246.93483 
L 64.899846 245.558438 
L 64.967752 245.558438 
L 65.035657 245.081994 
L 65.103563 245.081994 
L 65.171468 244.870241 
L 65.375185 244.870241 
L 65.44309 243.970292 
L 65.510995 243.970292 
L 65.578901 242.85859 
L 65.646806 242.85859 
L 65.714712 239.417609 
L 65.782617 239.417609 
L 65.850523 237.405958 
L 65.986334 237.35302 
L 66.054239 236.929514 
L 66.122145 236.929514 
L 66.19005 234.335543 
L 66.325861 234.229667 
L 66.393766 233.964976 
L 66.461672 233.964976 
L 66.529577 232.535645 
L 66.597483 232.535645 
L 66.665388 230.841623 
L 66.733294 230.841623 
L 66.801199 230.36518 
L 66.869105 230.36518 
L 66.93701 228.565281 
L 67.004915 228.565281 
L 67.072821 227.71827 
L 67.140726 227.71827 
L 67.208632 227.13595 
L 67.344443 227.13595 
L 67.412348 226.341878 
L 67.480254 226.341878 
L 67.548159 225.70662 
L 67.616065 225.70662 
L 67.68397 224.436103 
L 67.751875 224.436103 
L 67.819781 223.324401 
L 67.887686 223.324401 
L 67.955592 222.636205 
L 68.023497 222.636205 
L 68.091403 221.948009 
L 68.159308 221.948009 
L 68.227214 221.206874 
L 68.43093 221.206874 
L 68.498835 216.707129 
L 68.634646 216.65419 
L 68.702552 215.913056 
L 68.770457 215.913056 
L 68.838363 214.90723 
L 68.906268 214.90723 
L 68.974174 214.06022 
L 69.042079 214.06022 
L 69.109985 211.889754 
L 69.245795 211.889754 
L 69.313701 211.41331 
L 69.381606 211.41331 
L 69.449512 210.83099 
L 69.517417 210.83099 
L 69.585323 208.872278 
L 69.721134 208.872278 
L 69.789039 206.966503 
L 69.856945 206.966503 
L 69.92485 205.748925 
L 69.992755 205.748925 
L 69.992755 204.954852 
L 70.196472 204.901914 
L 70.264377 204.531347 
L 70.400188 204.42547 
L 70.468094 203.419645 
L 70.535999 203.419645 
L 70.603905 202.99614 
L 70.67181 202.99614 
L 70.739715 201.884438 
L 70.807621 201.884438 
L 70.875526 201.407994 
L 71.011337 201.302118 
L 71.079243 200.878612 
L 71.282959 200.772736 
L 71.350865 200.190416 
L 71.554581 200.08454 
L 71.622486 199.396343 
L 71.690392 199.396343 
L 71.758297 198.866961 
L 71.826203 198.866961 
L 71.826203 198.549332 
L 71.962014 198.549332 
L 72.029919 198.178765 
L 72.097825 198.178765 
L 72.16573 195.214227 
L 72.233635 195.214227 
L 72.301541 194.155463 
L 72.437352 194.102525 
L 72.437352 193.94371 
L 72.573163 193.94371 
L 72.641068 192.090874 
L 72.844785 191.984998 
L 72.91269 191.826183 
L 72.980595 191.826183 
L 73.048501 191.34974 
L 73.116406 191.34974 
L 73.184312 191.085049 
L 73.320123 190.979172 
L 73.388028 190.661543 
L 73.523839 190.661543 
L 73.591745 190.290976 
L 73.65965 190.290976 
L 73.727555 189.708656 
L 73.795461 189.708656 
L 73.863366 189.28515 
L 73.931272 189.28515 
L 73.999177 187.697005 
L 74.067083 187.697005 
L 74.134988 186.638241 
L 74.270799 186.638241 
L 74.338705 185.52654 
L 74.40661 185.52654 
L 74.474515 184.414838 
L 74.542421 184.414838 
L 74.610326 181.767929 
L 74.746137 181.662052 
L 74.814043 180.073907 
L 74.881948 180.073907 
L 74.949854 179.597463 
L 75.085665 179.597463 
L 75.15357 178.22107 
L 75.289381 178.115194 
L 75.357286 177.797565 
L 75.425192 177.797565 
L 75.493097 177.426998 
L 75.628908 177.37406 
L 75.696814 176.844678 
L 75.764719 176.844678 
L 75.832625 176.262358 
L 75.968435 176.262358 
L 76.036341 176.050605 
L 76.240057 175.944729 
L 76.307963 175.785914 
L 76.375868 175.785914 
L 76.375868 174.72715 
L 76.511679 174.72715 
L 76.579585 172.768438 
L 76.64749 172.768438 
L 76.64749 171.497921 
L 76.919112 171.497921 
L 76.987017 170.915601 
L 77.122828 170.809725 
L 77.190734 169.856838 
L 77.39445 169.8039 
L 77.462355 169.009827 
L 77.530261 169.009827 
L 77.598166 168.374569 
L 77.666072 168.374569 
L 77.733977 167.845187 
L 77.801883 167.845187 
L 77.869788 167.315805 
L 77.937694 167.315805 
L 78.005599 166.045289 
L 78.209315 165.939412 
L 78.209315 165.198278 
L 78.345126 165.198278 
L 78.413032 164.351267 
L 78.616748 164.298329 
L 78.616748 164.139514 
L 78.820465 164.033638 
L 78.88837 163.557194 
L 79.024181 163.504256 
L 79.024181 163.292503 
L 79.159992 163.292503 
L 79.227897 161.810234 
L 79.363708 161.810234 
L 79.363708 161.280852 
L 79.567425 161.227914 
L 79.567425 160.963223 
L 79.703235 160.963223 
L 79.771141 160.539718 
L 79.906952 160.433841 
L 79.974857 159.32214 
L 80.110668 159.32214 
L 80.178574 158.73982 
L 80.314385 158.633943 
L 80.38229 158.316314 
L 80.450195 158.316314 
L 80.518101 157.998685 
L 80.721817 157.892809 
L 80.789723 157.151674 
L 80.993439 157.098736 
L 81.061345 156.41054 
L 81.197155 156.304663 
L 81.265061 156.039972 
L 81.400872 155.934096 
L 81.468777 155.51059 
L 81.536683 155.51059 
L 81.536683 155.2459 
L 81.808305 155.140023 
L 81.808305 154.451827 
L 81.944115 154.451827 
L 82.012021 153.816569 
L 82.147832 153.710692 
L 82.215737 153.604816 
L 82.283643 153.604816 
L 82.351548 152.651929 
L 82.419454 152.651929 
L 82.487359 152.387238 
L 82.555265 152.387238 
L 82.62317 152.069609 
L 82.691075 152.069609 
L 82.758981 151.010845 
L 82.826886 151.010845 
L 82.894792 150.057958 
L 82.962697 150.057958 
L 83.030603 149.475638 
L 83.234319 149.369761 
L 83.302225 149.210947 
L 83.37013 149.210947 
L 83.438035 148.469812 
L 83.573846 148.469812 
L 83.641752 147.993369 
L 83.709657 147.993369 
L 83.709657 147.781616 
L 83.913374 147.67574 
L 83.913374 147.516925 
L 84.252901 147.411049 
L 84.320806 146.881667 
L 84.388712 146.881667 
L 84.456617 146.616976 
L 84.592428 146.564038 
L 84.660334 145.92878 
L 84.86405 145.822903 
L 84.931955 144.975892 
L 85.135672 144.922954 
L 85.203577 143.970067 
L 85.339388 143.86419 
L 85.407294 143.5995 
L 85.543105 143.5995 
L 85.61101 143.175994 
L 85.678915 143.175994 
L 85.746821 142.752489 
L 85.950537 142.646612 
L 85.950537 142.487798 
L 86.154254 142.487798 
L 86.222159 142.223107 
L 86.35797 142.170169 
L 86.425875 141.799601 
L 86.561686 141.799601 
L 86.629592 140.052641 
L 86.697497 140.052641 
L 86.765403 139.52326 
L 86.833308 139.52326 
L 86.833308 139.258569 
L 86.969119 139.258569 
L 86.969119 139.046816 
L 87.172835 139.046816 
L 87.240741 138.729187 
L 87.308646 138.729187 
L 87.376552 138.199805 
L 87.512363 138.199805 
L 87.512363 137.882176 
L 87.783985 137.829238 
L 87.85189 137.299856 
L 87.919795 137.299856 
L 87.987701 136.558721 
L 88.123512 136.558721 
L 88.123512 136.29403 
L 88.734661 136.188154 
L 88.734661 136.02934 
L 88.870472 136.02934 
L 88.938377 135.71171 
L 89.142094 135.71171 
L 89.142094 135.076452 
L 89.277905 135.076452 
L 89.277905 134.8647 
L 89.549526 134.811761 
L 89.617432 134.388256 
L 89.821148 134.28238 
L 89.889054 134.017689 
L 90.024865 134.017689 
L 90.09277 133.70006 
L 90.228581 133.594183 
L 90.228581 133.541245 
L 90.364392 133.541245 
L 90.432297 133.170678 
L 90.500203 133.170678 
L 90.500203 132.853049 
L 90.703919 132.747172 
L 90.771825 131.106089 
L 90.83973 131.106089 
L 90.907635 130.259078 
L 90.975541 130.259078 
L 91.043446 129.676758 
L 91.315068 129.62382 
L 91.382974 128.45918 
L 91.58669 128.353303 
L 91.654595 128.14155 
L 91.790406 128.088612 
L 91.858312 127.718045 
L 91.926217 127.718045 
L 91.994123 127.241601 
L 92.129934 127.241601 
L 92.129934 126.923972 
L 92.33365 126.818096 
L 92.401555 126.606343 
L 92.469461 126.606343 
L 92.537366 125.865209 
L 92.673177 125.759332 
L 92.673177 125.706394 
L 92.808988 125.706394 
L 92.876894 124.859383 
L 93.012705 124.753507 
L 93.012705 123.80062 
L 93.148515 123.80062 
L 93.148515 123.377114 
L 93.420137 123.271238 
L 93.488043 123.112423 
L 93.691759 123.006547 
L 93.759665 122.794794 
L 93.82757 122.794794 
L 93.895475 122.371289 
L 94.031286 122.371289 
L 94.099192 121.841907 
L 94.167097 121.841907 
L 94.167097 121.630154 
L 94.302908 121.630154 
L 94.370814 121.312525 
L 94.438719 121.312525 
L 94.506625 120.730205 
L 94.642435 120.730205 
L 94.642435 120.57139 
L 94.778246 120.57139 
L 94.778246 120.3067 
L 95.049868 120.200823 
L 95.117774 119.671441 
L 95.185679 119.671441 
L 95.253585 119.247936 
L 95.389395 119.14206 
L 95.457301 118.930307 
L 95.661017 118.82443 
L 95.728923 118.295049 
L 95.796828 118.295049 
L 95.864734 117.289223 
L 95.932639 117.289223 
L 96.000545 116.918656 
L 96.06845 116.918656 
L 96.06845 116.548089 
L 96.475883 116.442212 
L 96.543788 115.965769 
L 96.81541 115.859892 
L 96.883315 115.701078 
L 96.951221 115.701078 
L 97.019126 114.959943 
L 97.222843 114.907005 
L 97.290748 114.589376 
L 97.426559 114.536438 
L 97.426559 113.954118 
L 97.56237 113.954118 
L 97.630275 113.689427 
L 97.698181 113.689427 
L 97.766086 113.00123 
L 97.901897 112.948292 
L 97.969803 112.207158 
L 98.173519 112.101281 
L 98.241425 111.995405 
L 98.445141 111.995405 
L 98.513046 111.730714 
L 98.580952 111.730714 
L 98.648857 111.360147 
L 98.784668 111.360147 
L 98.852574 110.777827 
L 98.920479 110.777827 
L 98.988385 110.08963 
L 99.327912 109.983754 
L 99.395817 109.772001 
L 99.463723 109.772001 
L 99.531628 108.92499 
L 99.80325 108.819114 
L 99.871155 108.236794 
L 100.074872 108.236794 
L 100.142777 107.601536 
L 100.414399 107.548598 
L 100.482305 107.17803 
L 100.821832 107.072154 
L 100.889737 106.754525 
L 101.025548 106.701587 
L 101.093454 106.436896 
L 101.161359 106.436896 
L 101.229265 106.119267 
L 101.29717 106.119267 
L 101.365075 105.589885 
L 101.432981 105.589885 
L 101.500886 104.795812 
L 101.568792 104.795812 
L 101.568792 104.531121 
L 101.704603 104.531121 
L 101.772508 103.895863 
L 102.112035 103.842925 
L 102.179941 103.207667 
L 102.587374 103.10179 
L 102.655279 102.148903 
L 102.723185 102.148903 
L 102.79109 101.884212 
L 102.858995 101.884212 
L 102.926901 101.407769 
L 103.266428 101.301892 
L 103.334334 101.037201 
L 103.402239 101.037201 
L 103.470145 100.613696 
L 103.53805 100.613696 
L 103.605955 99.978438 
L 103.945483 99.9255 
L 104.013388 99.660809 
L 104.217105 99.554932 
L 104.28501 99.34318 
L 104.352915 99.34318 
L 104.420821 98.813798 
L 104.624537 98.76086 
L 104.692443 98.284416 
L 104.828254 98.231478 
L 104.896159 97.649158 
L 105.03197 97.649158 
L 105.099875 97.225652 
L 105.371497 97.119776 
L 105.371497 96.908023 
L 105.643119 96.802147 
L 105.643119 96.69627 
L 105.914741 96.590394 
L 105.914741 96.43158 
L 106.050552 96.43158 
L 106.118457 96.008074 
L 106.186363 96.008074 
L 106.254268 95.584569 
L 106.390079 95.584569 
L 106.390079 95.425754 
L 106.729606 95.372816 
L 106.797512 95.055187 
L 106.933323 94.94931 
L 107.001228 94.472867 
L 107.27285 94.419929 
L 107.340755 93.731732 
L 107.476566 93.731732 
L 107.544472 93.414103 
L 107.680283 93.308227 
L 107.748188 93.149412 
L 107.816094 93.149412 
L 107.816094 92.93766 
L 107.951905 92.93766 
L 107.951905 92.778845 
L 108.291432 92.672969 
L 108.291432 92.567092 
L 108.630959 92.461216 
L 108.698865 92.249463 
L 108.902581 92.143587 
L 108.970486 92.03771 
L 109.106297 91.984772 
L 109.106297 91.825958 
L 109.242108 91.825958 
L 109.310014 91.349514 
L 109.581635 91.243638 
L 109.581635 91.1907 
L 109.921163 91.084823 
L 109.921163 90.555441 
L 110.192785 90.449565 
L 110.26069 89.920183 
L 110.328595 89.920183 
L 110.396501 89.496678 
L 110.532312 89.390801 
L 110.600217 88.914358 
L 110.668123 88.914358 
L 110.668123 88.596729 
L 111.00765 88.490852 
L 111.00765 88.437914 
L 111.482988 88.332038 
L 111.550894 87.96147 
L 111.618799 87.96147 
L 111.686705 87.643841 
L 111.75461 87.643841 
L 111.822515 86.955645 
L 111.890421 86.955645 
L 111.958326 86.690954 
L 112.162043 86.585078 
L 112.229948 86.479201 
L 112.569475 86.479201 
L 112.637381 86.161572 
L 112.773192 86.108634 
L 112.841097 85.738067 
L 112.976908 85.738067 
L 113.044814 85.526314 
L 113.180625 85.420438 
L 113.180625 85.3675 
L 113.384341 85.261623 
L 113.452246 84.943994 
L 113.655963 84.838118 
L 113.723868 84.732241 
L 113.791774 84.732241 
L 113.791774 84.520489 
L 113.99549 84.46755 
L 113.99549 83.938169 
L 114.402923 83.88523 
L 114.402923 83.726416 
L 114.674545 83.62054 
L 114.74245 82.932343 
L 115.081977 82.879405 
L 115.149883 82.561776 
L 115.217788 82.561776 
L 115.217788 82.350023 
L 115.421505 82.350023 
L 115.48941 81.979456 
L 115.625221 81.87358 
L 115.693126 81.608889 
L 115.761032 81.608889 
L 115.828937 81.238321 
L 115.896843 81.238321 
L 115.964748 80.97363 
L 116.23637 80.867754 
L 116.23637 80.814816 
L 116.372181 80.814816 
L 116.440086 80.338372 
L 116.507992 80.338372 
L 116.507992 80.12662 
L 116.711708 80.020743 
L 116.779614 79.756052 
L 116.915425 79.756052 
L 116.915425 79.014918 
L 117.322857 78.909041 
L 117.390763 78.750227 
L 117.526574 78.64435 
L 117.594479 78.485536 
L 117.73029 78.37966 
L 117.798195 78.114969 
L 117.866101 78.114969 
L 117.866101 77.903216 
L 118.001912 77.903216 
L 118.001912 77.638525 
L 118.205628 77.638525 
L 118.273534 77.320896 
L 118.545155 77.320896 
L 118.545155 77.162081 
L 118.748872 77.109143 
L 118.816777 76.89739 
L 118.884683 76.89739 
L 118.884683 76.738576 
L 119.360021 76.6327 
L 119.360021 76.473885 
L 120.106981 76.368009 
L 120.106981 76.262132 
L 120.242792 76.262132 
L 120.242792 75.997441 
L 120.378603 75.997441 
L 120.378603 75.838627 
L 120.582319 75.785689 
L 120.650225 75.573936 
L 120.853941 75.520998 
L 120.921846 75.362183 
L 121.125563 75.256307 
L 121.125563 75.097492 
L 121.329279 75.044554 
L 121.329279 74.88574 
L 121.804617 74.779863 
L 121.872523 74.515172 
L 122.076239 74.515172 
L 122.144145 74.197543 
L 122.279955 74.144605 
L 122.347861 73.615223 
L 122.687388 73.509347 
L 122.687388 73.40347 
L 123.162726 73.297594 
L 123.230632 73.085841 
L 123.366443 73.032903 
L 123.366443 72.874089 
L 123.841781 72.768212 
L 123.841781 72.662336 
L 124.181308 72.55646 
L 124.249214 72.344707 
L 124.520835 72.23883 
L 124.588741 72.027078 
L 124.792457 71.921201 
L 124.860363 71.709449 
L 124.928268 71.709449 
L 124.996174 71.39182 
L 125.403606 71.285943 
L 125.471512 71.127129 
L 125.607323 71.021252 
L 125.675228 70.862438 
L 125.743134 70.862438 
L 125.811039 70.438932 
L 126.286377 70.333056 
L 126.354283 70.121303 
L 126.557999 70.015427 
L 126.625905 69.64486 
L 126.829621 69.538983 
L 126.897526 69.274292 
L 127.508675 69.168416 
L 127.508675 69.06254 
L 127.780297 68.956663 
L 127.848203 68.850787 
L 128.323541 68.74491 
L 128.391446 68.639034 
L 128.527257 68.586096 
L 128.527257 68.427281 
L 128.663068 68.427281 
L 128.730974 68.16259 
L 128.866785 68.109652 
L 128.866785 68.003776 
L 129.002595 68.003776 
L 129.070501 67.474394 
L 129.817461 67.421456 
L 129.817461 67.31558 
L 130.360705 67.209703 
L 130.360705 67.103827 
L 130.496515 67.103827 
L 130.564421 66.839136 
L 130.836043 66.73326 
L 130.836043 66.627383 
L 131.243475 66.521507 
L 131.311381 66.41563 
L 131.515097 66.362692 
L 131.515097 66.256816 
L 131.990435 66.15094 
L 131.990435 66.045063 
L 132.601585 65.939187 
L 132.601585 65.886249 
L 132.873206 65.780372 
L 132.873206 65.727434 
L 133.212734 65.674496 
L 133.212734 65.56862 
L 133.41645 65.515681 
L 133.484355 65.25099 
L 133.620166 65.198052 
L 133.688072 64.933361 
L 133.959694 64.880423 
L 134.027599 64.721609 
L 134.570843 64.615732 
L 134.638748 64.351041 
L 134.842465 64.298103 
L 134.842465 64.139289 
L 135.249897 64.033412 
L 135.249897 63.715783 
L 136.064763 63.609907 
L 136.064763 63.451092 
L 136.540101 63.398154 
L 136.608006 63.186401 
L 137.15125 63.080525 
L 137.219155 62.815834 
L 137.762399 62.762896 
L 137.762399 62.65702 
L 137.89821 62.65702 
L 137.966115 62.233514 
L 138.305643 62.180576 
L 138.373548 61.968823 
L 139.256319 61.862947 
L 139.324225 61.704132 
L 139.460035 61.598256 
L 139.460035 61.49238 
L 139.731657 61.386503 
L 139.731657 61.280627 
L 140.88605 61.227689 
L 140.88605 61.015936 
L 141.225577 60.962998 
L 141.293483 60.751245 
L 141.836726 60.645369 
L 141.904632 60.539492 
L 142.108348 60.433616 
L 142.176254 60.32774 
L 142.447875 60.274801 
L 142.447875 60.115987 
L 143.194835 60.01011 
L 143.194835 59.957172 
L 143.805985 59.851296 
L 143.805985 59.798358 
L 144.077606 59.692481 
L 144.077606 59.639543 
L 144.417134 59.586605 
L 144.485039 59.374852 
L 144.62085 59.268976 
L 144.62085 59.057223 
L 145.299905 58.951347 
L 145.36781 58.84547 
L 145.775243 58.739594 
L 145.843148 58.527841 
L 146.454297 58.421965 
L 146.522203 58.210212 
L 146.658014 58.210212 
L 146.725919 57.945521 
L 147.133352 57.892583 
L 147.133352 57.786707 
L 147.744501 57.68083 
L 147.744501 57.627892 
L 147.880312 57.627892 
L 147.880312 57.469078 
L 148.627272 57.363201 
L 148.695177 57.257325 
L 148.830988 57.257325 
L 148.830988 57.09851 
L 148.966799 57.09851 
L 148.966799 56.939696 
L 149.306326 56.83382 
L 149.374232 56.675005 
L 149.713759 56.569129 
L 149.713759 56.51619 
L 150.59653 56.410314 
L 150.664435 56.2515 
L 151.139774 56.198561 
L 151.139774 56.092685 
L 151.547206 56.039747 
L 151.615112 55.880932 
L 152.158355 55.775056 
L 152.158355 55.722118 
L 152.565788 55.616241 
L 152.565788 55.510365 
L 153.176937 55.404489 
L 153.176937 55.35155 
L 153.720181 55.245674 
L 153.720181 55.139798 
L 154.059708 55.033921 
L 154.127614 54.875107 
L 154.602952 54.822169 
L 154.670857 54.663354 
L 155.146195 54.610416 
L 155.214101 54.345725 
L 155.417817 54.345725 
L 155.417817 54.18691 
L 156.300588 54.081034 
L 156.300588 54.028096 
L 156.843832 54.028096 
L 156.911737 53.816343 
L 157.387075 53.710467 
L 157.387075 53.657529 
L 157.590792 53.551652 
L 157.590792 53.445776 
L 157.794508 53.445776 
L 157.862414 53.234023 
L 157.998225 53.181085 
L 157.998225 53.02227 
L 158.677279 52.969332 
L 158.677279 52.863456 
L 159.016806 52.75758 
L 159.016806 52.704641 
L 159.627955 52.598765 
L 159.627955 52.545827 
L 160.850254 52.43995 
L 160.850254 52.228198 
L 161.05397 52.122321 
L 161.05397 51.963507 
L 161.80093 51.85763 
L 161.80093 51.804692 
L 162.344174 51.698816 
L 162.344174 51.645878 
L 162.751606 51.540001 
L 162.819512 51.27531 
L 163.566472 51.169434 
L 163.566472 51.116496 
L 163.973905 51.01062 
L 163.973905 50.957681 
L 164.652959 50.851805 
L 164.652959 50.798867 
L 164.992486 50.69299 
L 164.992486 50.640052 
L 165.467825 50.640052 
L 165.467825 50.481238 
L 166.078974 50.375361 
L 166.078974 50.269485 
L 167.233366 50.163609 
L 167.233366 50.11067 
L 167.504988 50.057732 
L 167.504988 49.951856 
L 167.708705 49.84598 
L 167.77661 49.740103 
L 168.184043 49.687165 
L 168.184043 49.581289 
L 169.134719 49.475412 
L 169.134719 49.422474 
L 169.813774 49.316598 
L 169.813774 49.104845 
L 171.171883 48.998969 
L 171.171883 48.94603 
L 171.647221 48.840154 
L 171.647221 48.787216 
L 172.529992 48.68134 
L 172.529992 48.416649 
L 173.276952 48.310772 
L 173.276952 48.151958 
L 173.820195 48.046081 
L 173.888101 47.834329 
L 174.49925 47.728452 
L 174.49925 47.675514 
L 175.042494 47.569638 
L 175.042494 47.5167 
L 175.99317 47.410823 
L 175.99317 47.357885 
L 176.536414 47.252009 
L 176.536414 47.19907 
L 178.641483 47.093194 
L 178.641483 46.93438 
L 179.320537 46.828503 
L 179.320537 46.775565 
L 181.22189 46.669689 
L 181.22189 46.563812 
L 182.104661 46.457936 
L 182.104661 46.35206 
L 182.851621 46.246183 
L 182.919526 46.140307 
L 183.46277 46.03443 
L 183.46277 45.981492 
L 185.907366 45.875616 
L 185.907366 45.822678 
L 186.111083 45.76974 
L 186.111083 45.663863 
L 187.061759 45.557987 
L 187.061759 45.505049 
L 188.012435 45.505049 
L 188.080341 45.293296 
L 189.370545 45.18742 
L 189.370545 45.134481 
L 191.339803 45.028605 
L 191.339803 44.975667 
L 191.67933 44.86979 
L 191.67933 44.816852 
L 192.018857 44.710976 
L 192.018857 44.658038 
L 193.309061 44.552161 
L 193.309061 44.499223 
L 195.074603 44.393347 
L 195.074603 44.340409 
L 195.889468 44.234532 
L 195.889468 44.181594 
L 196.772239 44.075718 
L 196.840145 43.969841 
L 198.40197 43.863965 
L 198.40197 43.811027 
L 199.89589 43.70515 
L 199.89589 43.652212 
L 201.050283 43.546336 
L 201.050283 43.387521 
L 202.204675 43.281645 
L 202.272581 43.175769 
L 203.291163 43.069892 
L 203.291163 43.016954 
L 204.309745 42.911078 
L 204.309745 42.85814 
L 205.056705 42.752263 
L 205.056705 42.699325 
L 205.87157 42.593449 
L 205.87157 42.54051 
L 207.908734 42.434634 
L 207.908734 42.381696 
L 209.131032 42.27582 
L 209.131032 42.222881 
L 209.538465 42.117005 
L 209.538465 42.064067 
L 210.081708 41.95819 
L 210.149614 41.799376 
L 210.692857 41.746438 
L 210.692857 41.640561 
L 213.001643 41.534685 
L 213.001643 41.481747 
L 214.427657 41.37587 
L 214.427657 41.322932 
L 215.310428 41.322932 
L 215.310428 41.164118 
L 219.520566 41.058241 
L 219.588472 40.899427 
L 221.55773 40.79355 
L 221.55773 40.740612 
L 223.323272 40.634736 
L 223.323272 40.581798 
L 226.03949 40.475921 
L 226.03949 40.422983 
L 227.261788 40.317107 
L 227.261788 40.264169 
L 230.792872 40.158292 
L 230.792872 40.105354 
L 231.132399 39.999478 
L 231.132399 39.94654 
L 234.663483 39.840663 
L 234.731388 39.734787 
L 237.447606 39.62891 
L 237.447606 39.575972 
L 240.095919 39.470096 
L 240.095919 39.417158 
L 241.589839 39.311281 
L 241.589839 39.258343 
L 245.935788 39.152467 
L 245.935788 39.099529 
L 247.837141 38.993652 
L 247.905046 38.834838 
L 250.68917 38.728961 
L 250.68917 38.676023 
L 252.047279 38.570147 
L 252.047279 38.517209 
L 254.356065 38.411332 
L 254.356065 38.305456 
L 256.325323 38.19958 
L 256.325323 38.146641 
L 258.294581 38.040765 
L 258.294581 37.987827 
L 261.350326 37.88195 
L 261.350326 37.829012 
L 267.12229 37.723136 
L 267.12229 37.670198 
L 271.468239 37.564321 
L 271.468239 37.511383 
L 274.59189 37.405507 
L 274.59189 37.352569 
L 282.604734 37.246692 
L 282.604734 37.193754 
L 286.135817 37.087878 
L 286.135817 37.03494 
L 287.426021 36.929063 
L 287.426021 36.876125 
L 297.00069 36.770249 
L 297.068595 36.664372 
L 307.661846 36.558496 
L 307.661846 36.505558 
L 315.878406 36.399681 
L 315.878406 36.346743 
L 327.965577 36.240867 
L 327.965577 36.187929 
L 352.615257 36.082052 
L 352.615257 36.029114 
L 362.665265 35.923238 
L 362.665265 35.8703 
L 372.647366 35.764423 
L 372.647366 35.711485 
L 394.241301 35.605609 
L 394.241301 35.55267 
L 400.284886 35.55267 
L 400.284886 35.55267 
" clip-path="url(#p546ca98afc)" style="fill: none; stroke: #7aa6c2; stroke-width: 1.5; stroke-linecap: square"/>
   </g>
   <g id="line2d_14">
    <path d="M 60.757614 300.24358 
L 60.833064 299.714198 
L 60.983965 299.714198 
L 61.02169 295.743834 
L 61.134866 295.743834 
L 61.210317 289.920634 
L 61.248042 289.920634 
L 61.248042 285.95027 
L 61.361218 285.95027 
L 61.398943 284.097434 
L 61.474393 284.097434 
L 61.512119 282.77398 
L 61.587569 282.77398 
L 61.625294 281.185834 
L 61.700745 281.185834 
L 61.73847 280.12707 
L 61.813921 280.12707 
L 61.889371 278.274234 
L 61.927096 278.274234 
L 62.002547 275.892016 
L 62.040272 275.892016 
L 62.115723 270.598198 
L 62.153448 270.598198 
L 62.191173 269.274743 
L 62.266624 269.274743 
L 62.266624 269.010052 
L 62.417525 269.010052 
L 62.45525 268.21598 
L 62.530701 268.21598 
L 62.606151 267.157216 
L 62.681602 267.157216 
L 62.757052 265.833761 
L 62.794777 265.833761 
L 62.794777 265.56907 
L 62.983404 265.56907 
L 63.021129 263.980925 
L 63.209755 263.980925 
L 63.209755 262.65747 
L 63.322931 262.65747 
L 63.360656 261.598707 
L 63.436107 261.598707 
L 63.511557 261.069325 
L 63.549282 261.069325 
L 63.549282 260.275252 
L 63.662458 260.275252 
L 63.737909 259.216489 
L 63.775634 259.216489 
L 63.851084 257.363652 
L 63.88881 257.363652 
L 63.96426 256.304889 
L 64.039711 256.304889 
L 64.077436 255.246125 
L 64.152886 255.246125 
L 64.190612 254.452052 
L 64.379238 254.452052 
L 64.454688 252.599216 
L 64.492414 252.599216 
L 64.567864 251.540452 
L 64.605589 251.540452 
L 64.68104 251.01107 
L 64.718765 251.01107 
L 64.794216 248.364161 
L 64.869666 248.364161 
L 64.945117 246.776016 
L 65.020567 246.776016 
L 65.096018 244.393798 
L 65.171468 244.393798 
L 65.209193 243.335034 
L 65.284644 243.335034 
L 65.360094 242.27627 
L 65.39782 242.27627 
L 65.435545 241.217507 
L 65.510995 241.217507 
L 65.586446 239.894052 
L 65.624171 239.894052 
L 65.699622 238.835289 
L 65.775072 238.835289 
L 65.812797 237.511834 
L 65.888248 237.511834 
L 65.925973 235.658998 
L 66.001424 235.658998 
L 66.001424 234.864925 
L 66.114599 234.864925 
L 66.19005 234.070852 
L 66.227775 234.070852 
L 66.303226 233.012089 
L 66.340951 233.012089 
L 66.378676 232.482707 
L 66.529577 232.482707 
L 66.567303 231.688634 
L 66.755929 231.688634 
L 66.755929 231.423943 
L 66.869105 231.423943 
L 66.90683 230.36518 
L 67.284082 230.36518 
L 67.359533 229.306416 
L 67.434983 229.306416 
L 67.434983 228.512343 
L 67.548159 228.512343 
L 67.62361 227.982961 
L 67.661335 227.982961 
L 67.69906 227.188889 
L 67.812236 227.188889 
L 67.812236 226.130125 
L 67.963137 226.130125 
L 68.000862 224.80667 
L 68.076313 224.80667 
L 68.114038 224.012598 
L 68.264939 224.012598 
L 68.340389 222.159761 
L 68.453565 222.159761 
L 68.529016 221.100998 
L 68.566741 221.100998 
L 68.642191 219.777543 
L 68.679917 219.777543 
L 68.755367 218.71878 
L 68.793092 218.71878 
L 68.868543 216.336561 
L 68.906268 216.336561 
L 68.981719 213.16027 
L 69.057169 213.16027 
L 69.13262 212.366198 
L 69.170345 212.366198 
L 69.170345 212.101507 
L 69.283521 212.101507 
L 69.321246 211.307434 
L 69.434422 211.307434 
L 69.509872 209.189907 
L 69.547597 209.189907 
L 69.623048 207.866452 
L 69.660773 207.866452 
L 69.660773 207.07238 
L 69.811674 207.07238 
L 69.811674 206.542998 
L 69.92485 206.542998 
L 70.000301 205.219543 
L 70.038026 205.219543 
L 70.075751 204.690161 
L 70.151202 204.690161 
L 70.226652 203.631398 
L 70.302103 203.631398 
L 70.302103 203.366707 
L 70.528454 203.366707 
L 70.603905 202.572634 
L 70.679355 202.572634 
L 70.679355 201.778561 
L 70.792531 201.778561 
L 70.830256 200.984489 
L 70.905707 200.984489 
L 70.943432 200.455107 
L 71.018882 200.455107 
L 71.056608 199.925725 
L 71.282959 199.925725 
L 71.282959 199.396343 
L 71.43386 199.396343 
L 71.509311 198.33758 
L 71.584761 198.33758 
L 71.660212 197.808198 
L 71.735662 197.808198 
L 71.811113 195.161289 
L 71.848838 195.161289 
L 71.924288 194.102525 
L 71.962014 194.102525 
L 71.962014 193.573143 
L 72.112915 193.573143 
L 72.15064 193.043761 
L 72.301541 193.043761 
L 72.301541 192.77907 
L 72.603343 192.77907 
L 72.678793 192.249689 
L 72.716519 192.249689 
L 72.791969 190.926234 
L 72.905145 190.926234 
L 72.980595 189.86747 
L 73.018321 189.86747 
L 73.093771 188.808707 
L 73.206947 188.808707 
L 73.206947 188.279325 
L 73.320123 188.279325 
L 73.320123 187.749943 
L 73.471024 187.749943 
L 73.508749 186.69118 
L 73.621925 186.69118 
L 73.621925 186.426489 
L 73.810551 186.426489 
L 73.886002 185.367725 
L 73.923727 185.367725 
L 73.999177 183.77958 
L 74.036903 183.77958 
L 74.112353 181.926743 
L 74.263254 181.926743 
L 74.263254 181.662052 
L 74.489606 181.662052 
L 74.527331 180.86798 
L 74.640507 180.86798 
L 74.678232 180.338598 
L 74.791408 180.338598 
L 74.866858 179.544525 
L 75.055484 179.544525 
L 75.09321 179.015143 
L 75.206385 179.015143 
L 75.281836 177.95638 
L 75.395012 177.95638 
L 75.470462 176.897616 
L 75.508187 176.897616 
L 75.508187 176.632925 
L 75.621363 176.632925 
L 75.621363 176.103543 
L 75.734539 176.103543 
L 75.809989 175.574161 
L 75.96089 175.574161 
L 75.998616 174.515398 
L 76.149517 174.515398 
L 76.187242 173.721325 
L 76.300418 173.721325 
L 76.300418 173.456634 
L 76.564494 173.456634 
L 76.639945 172.927252 
L 76.67767 172.927252 
L 76.715395 171.868489 
L 76.866296 171.868489 
L 76.904022 171.339107 
L 77.205824 171.339107 
L 77.281274 170.809725 
L 77.545351 170.809725 
L 77.545351 170.545034 
L 77.658527 170.545034 
L 77.658527 170.280343 
L 77.847153 170.280343 
L 77.847153 169.48627 
L 77.960329 169.48627 
L 77.998054 168.956889 
L 78.073505 168.956889 
L 78.11123 167.633434 
L 78.299856 167.633434 
L 78.375307 166.57467 
L 78.488482 166.57467 
L 78.526208 166.045289 
L 78.790284 166.045289 
L 78.790284 165.780598 
L 78.90346 165.780598 
L 78.90346 165.515907 
L 79.054361 165.515907 
L 79.092086 164.192452 
L 79.167537 164.192452 
L 79.167537 163.39838 
L 79.280713 163.39838 
L 79.280713 162.868998 
L 79.808866 162.868998 
L 79.884317 161.810234 
L 79.997492 161.810234 
L 80.072943 161.016161 
L 80.110668 161.016161 
L 80.110668 160.75147 
L 80.299294 160.75147 
L 80.299294 160.48678 
L 80.450195 160.48678 
L 80.487921 159.428016 
L 80.676547 159.428016 
L 80.751997 158.633943 
L 80.978349 158.633943 
L 80.978349 158.104561 
L 81.091525 158.104561 
L 81.091525 157.83987 
L 81.242426 157.83987 
L 81.280151 157.310489 
L 81.355602 157.310489 
L 81.393327 156.781107 
L 81.506503 156.781107 
L 81.581953 155.457652 
L 81.84603 155.457652 
L 81.84603 154.92827 
L 81.959206 154.92827 
L 82.034656 154.398889 
L 82.110107 154.398889 
L 82.147832 153.604816 
L 82.223282 153.604816 
L 82.261008 152.546052 
L 82.336458 152.546052 
L 82.336458 152.281361 
L 82.449634 152.281361 
L 82.487359 150.957907 
L 82.56281 150.957907 
L 82.56281 150.428525 
L 82.789161 150.428525 
L 82.789161 149.634452 
L 83.090963 149.634452 
L 83.090963 149.369761 
L 83.279589 149.369761 
L 83.317315 148.046307 
L 83.43049 148.046307 
L 83.468216 147.516925 
L 83.958644 147.516925 
L 83.996369 146.722852 
L 84.109545 146.722852 
L 84.184995 145.134707 
L 84.335896 145.134707 
L 84.335896 144.870016 
L 85.014951 144.870016 
L 85.014951 144.340634 
L 85.203577 144.340634 
L 85.203577 144.075943 
L 85.392204 144.075943 
L 85.392204 143.811252 
L 85.505379 143.811252 
L 85.543105 142.752489 
L 85.65628 142.752489 
L 85.731731 141.958416 
L 85.958082 141.958416 
L 85.958082 141.164343 
L 86.071258 141.164343 
L 86.146709 140.37027 
L 86.259884 140.37027 
L 86.259884 140.10558 
L 86.523961 140.10558 
L 86.561686 138.782125 
L 86.788038 138.782125 
L 86.863488 137.988052 
L 87.014389 137.988052 
L 87.08984 137.45867 
L 87.391642 137.45867 
L 87.467092 136.929289 
L 87.542543 136.929289 
L 87.617993 136.399907 
L 87.80662 136.399907 
L 87.80662 136.135216 
L 88.108422 136.135216 
L 88.183872 135.341143 
L 88.561125 135.341143 
L 88.561125 134.811761 
L 88.749751 134.811761 
L 88.825202 133.488307 
L 89.013828 133.488307 
L 89.013828 132.694234 
L 89.240179 132.694234 
L 89.240179 131.900161 
L 89.579707 131.900161 
L 89.579707 131.106089 
L 89.919234 131.106089 
L 89.919234 130.841398 
L 90.183311 130.841398 
L 90.183311 130.576707 
L 90.371937 130.576707 
L 90.371937 129.782634 
L 90.786915 129.782634 
L 90.82464 129.253252 
L 91.239618 129.253252 
L 91.277343 128.45918 
L 91.465969 128.45918 
L 91.465969 128.194489 
L 91.61687 128.194489 
L 91.692321 127.665107 
L 91.767771 127.665107 
L 91.767771 127.400416 
L 92.069573 127.400416 
L 92.069573 126.871034 
L 92.220474 126.871034 
L 92.220474 126.606343 
L 92.409101 126.606343 
L 92.446826 125.81227 
L 92.522276 125.81227 
L 92.560002 124.753507 
L 92.673177 124.753507 
L 92.673177 124.224125 
L 92.899529 124.224125 
L 92.937254 123.694743 
L 93.088155 123.694743 
L 93.088155 123.430052 
L 93.654034 123.430052 
L 93.691759 122.90067 
L 93.76721 122.90067 
L 93.76721 122.371289 
L 94.521715 122.371289 
L 94.521715 121.841907 
L 94.748066 121.841907 
L 94.823517 120.518452 
L 94.861242 120.518452 
L 94.861242 118.930307 
L 94.974418 118.930307 
L 94.974418 118.665616 
L 95.35167 118.665616 
L 95.35167 118.400925 
L 95.578022 118.400925 
L 95.578022 118.136234 
L 95.728923 118.136234 
L 95.804373 117.342161 
L 95.842098 117.342161 
L 95.842098 116.548089 
L 95.992999 116.548089 
L 95.992999 116.283398 
L 96.181626 116.283398 
L 96.219351 115.489325 
L 96.294802 115.489325 
L 96.370252 114.430561 
L 96.483428 114.430561 
L 96.483428 114.16587 
L 96.596604 114.16587 
L 96.596604 113.90118 
L 96.822955 113.90118 
L 96.822955 113.636489 
L 96.936131 113.636489 
L 96.936131 113.371798 
L 97.351109 113.371798 
L 97.351109 112.842416 
L 97.690636 112.842416 
L 97.690636 112.313034 
L 97.916987 112.313034 
L 97.954713 111.25427 
L 98.105614 111.25427 
L 98.105614 110.98958 
L 98.558317 110.98958 
L 98.558317 110.724889 
L 98.671492 110.724889 
L 98.746943 109.930816 
L 98.784668 109.930816 
L 98.784668 109.666125 
L 98.973294 109.666125 
L 99.048745 108.07798 
L 100.029602 108.07798 
L 100.105052 107.548598 
L 100.180503 107.548598 
L 100.180503 107.283907 
L 100.293678 107.283907 
L 100.293678 107.019216 
L 100.59548 107.019216 
L 100.670931 105.960452 
L 100.708656 105.960452 
L 100.708656 105.43107 
L 100.935008 105.43107 
L 100.972733 104.901689 
L 101.085909 104.901689 
L 101.161359 104.107616 
L 101.500886 104.107616 
L 101.500886 103.842925 
L 102.02904 103.842925 
L 102.02904 103.578234 
L 102.368567 103.578234 
L 102.444018 103.048852 
L 102.632644 103.048852 
L 102.670369 102.51947 
L 102.934446 102.51947 
L 102.934446 102.25478 
L 103.123072 102.25478 
L 103.198523 101.725398 
L 103.500325 101.725398 
L 103.53805 101.196016 
L 103.764402 101.196016 
L 103.764402 100.666634 
L 104.103929 100.666634 
L 104.103929 100.401943 
L 104.556632 100.401943 
L 104.594357 99.872561 
L 104.669808 99.872561 
L 104.707533 98.813798 
L 105.386587 98.813798 
L 105.386587 98.284416 
L 105.877016 98.284416 
L 105.952466 97.755034 
L 106.178818 97.755034 
L 106.254268 96.960961 
L 106.405169 96.960961 
L 106.48062 96.166889 
L 106.895597 96.166889 
L 106.895597 95.902198 
L 107.159674 95.902198 
L 107.197399 95.372816 
L 107.423751 95.372816 
L 107.499202 94.843434 
L 107.687828 94.843434 
L 107.687828 94.578743 
L 107.876454 94.578743 
L 107.876454 94.049361 
L 108.215981 94.049361 
L 108.253707 93.255289 
L 108.744135 93.255289 
L 108.744135 92.725907 
L 109.159113 92.725907 
L 109.196838 92.196525 
L 109.310014 92.196525 
L 109.310014 91.931834 
L 109.800442 91.931834 
L 109.800442 91.667143 
L 109.951343 91.667143 
L 109.951343 91.402452 
L 110.102244 91.402452 
L 110.177694 90.60838 
L 110.29087 90.60838 
L 110.29087 90.343689 
L 110.668123 90.343689 
L 110.668123 90.078998 
L 110.781298 90.078998 
L 110.856749 89.284925 
L 111.00765 89.284925 
L 111.00765 89.020234 
L 111.498078 89.020234 
L 111.573529 88.226161 
L 111.686705 88.226161 
L 111.72443 87.69678 
L 111.837606 87.69678 
L 111.913056 87.167398 
L 111.988507 87.167398 
L 111.988507 86.902707 
L 112.214858 86.902707 
L 112.214858 86.638016 
L 112.44121 86.638016 
L 112.44121 86.373325 
L 112.780737 86.373325 
L 112.856187 85.843943 
L 113.157989 85.843943 
L 113.157989 85.579252 
L 113.271165 85.579252 
L 113.271165 85.314561 
L 113.497517 85.314561 
L 113.497517 85.04987 
L 114.252022 85.04987 
L 114.327472 84.255798 
L 114.553824 84.255798 
L 114.629274 83.726416 
L 114.817901 83.726416 
L 114.817901 83.461725 
L 115.157428 83.461725 
L 115.157428 83.197034 
L 115.610131 83.197034 
L 115.610131 82.932343 
L 115.723307 82.932343 
L 115.761032 81.87358 
L 116.138284 81.87358 
L 116.138284 81.608889 
L 116.326911 81.608889 
L 116.364636 81.079507 
L 117.005965 81.079507 
L 117.005965 80.814816 
L 117.232317 80.814816 
L 117.232317 80.550125 
L 117.383218 80.550125 
L 117.383218 80.285434 
L 117.534119 80.285434 
L 117.534119 79.756052 
L 118.47725 79.756052 
L 118.47725 79.491361 
L 118.628151 79.491361 
L 118.628151 79.22667 
L 118.741327 79.22667 
L 118.741327 78.96198 
L 118.892228 78.96198 
L 118.892228 78.697289 
L 119.156305 78.697289 
L 119.231755 78.167907 
L 119.26948 78.167907 
L 119.26948 77.903216 
L 119.382656 77.903216 
L 119.382656 77.638525 
L 119.684458 77.638525 
L 119.684458 77.373834 
L 119.98626 77.373834 
L 119.98626 77.109143 
L 120.740765 77.109143 
L 120.740765 76.579761 
L 120.853941 76.579761 
L 120.891666 76.05038 
L 121.41982 76.05038 
L 121.49527 75.520998 
L 121.872523 75.520998 
L 121.910248 74.991616 
L 122.400676 74.991616 
L 122.400676 74.726925 
L 122.551577 74.726925 
L 122.551577 74.462234 
L 122.777929 74.462234 
L 122.777929 74.197543 
L 123.042006 74.197543 
L 123.042006 73.932852 
L 123.381533 73.932852 
L 123.381533 73.668161 
L 124.928268 73.668161 
L 125.003719 73.13878 
L 125.267795 73.13878 
L 125.267795 72.874089 
L 125.494147 72.874089 
L 125.494147 72.609398 
L 125.94685 72.609398 
L 126.022301 71.815325 
L 126.210927 71.815325 
L 126.210927 71.285943 
L 126.399553 71.285943 
L 126.475004 70.756561 
L 126.66363 70.756561 
L 126.66363 70.49187 
L 127.342684 70.49187 
L 127.342684 70.22718 
L 127.795387 70.22718 
L 127.795387 69.962489 
L 128.210365 69.962489 
L 128.210365 69.697798 
L 128.625343 69.697798 
L 128.625343 69.433107 
L 128.776244 69.433107 
L 128.813969 68.903725 
L 129.115771 68.903725 
L 129.115771 68.639034 
L 129.643925 68.639034 
L 129.643925 68.374343 
L 129.908002 68.374343 
L 129.945727 67.844961 
L 130.096628 67.844961 
L 130.134353 67.050889 
L 131.039759 67.050889 
L 131.039759 66.786198 
L 132.284692 66.786198 
L 132.284692 66.521507 
L 132.435593 66.521507 
L 132.511044 65.992125 
L 132.737395 65.992125 
L 132.737395 65.727434 
L 133.491901 65.727434 
L 133.491901 65.462743 
L 134.020054 65.462743 
L 134.020054 65.198052 
L 134.548208 65.198052 
L 134.548208 64.933361 
L 134.774559 64.933361 
L 134.812284 64.139289 
L 135.114086 64.139289 
L 135.114086 63.874598 
L 135.64224 63.874598 
L 135.679965 63.345216 
L 136.094943 63.345216 
L 136.170393 62.551143 
L 136.623096 62.551143 
L 136.623096 62.286452 
L 137.566228 62.286452 
L 137.566228 62.021761 
L 137.679404 62.021761 
L 137.679404 61.227689 
L 138.433909 61.227689 
L 138.433909 60.962998 
L 138.622535 60.962998 
L 138.622535 60.698307 
L 138.848886 60.698307 
L 138.848886 60.433616 
L 138.962062 60.433616 
L 138.962062 60.168925 
L 140.09382 60.168925 
L 140.16927 59.639543 
L 141.112402 59.639543 
L 141.150127 59.110161 
L 142.432785 59.110161 
L 142.432785 58.84547 
L 143.11184 58.84547 
L 143.11184 58.316089 
L 143.225016 58.316089 
L 143.225016 58.051398 
L 143.941795 58.051398 
L 143.941795 57.786707 
L 145.149004 57.786707 
L 145.149004 57.257325 
L 145.33763 57.257325 
L 145.33763 56.992634 
L 146.959816 56.992634 
L 146.959816 56.727943 
L 147.676595 56.727943 
L 147.676595 56.463252 
L 149.411957 56.463252 
L 149.411957 56.198561 
L 149.902385 56.198561 
L 149.940111 55.66918 
L 150.053286 55.66918 
L 150.091012 55.139798 
L 152.014999 55.139798 
L 152.014999 54.875107 
L 152.241351 54.875107 
L 152.241351 54.610416 
L 153.184482 54.610416 
L 153.259933 54.081034 
L 153.938987 54.081034 
L 153.938987 53.816343 
L 154.165339 53.816343 
L 154.165339 53.551652 
L 155.410272 53.551652 
L 155.410272 53.286961 
L 155.82525 53.286961 
L 155.82525 53.02227 
L 156.127052 53.02227 
L 156.127052 52.75758 
L 156.277953 52.75758 
L 156.277953 52.492889 
L 156.504305 52.492889 
L 156.54203 51.963507 
L 156.61748 51.963507 
L 156.61748 51.698816 
L 156.730656 51.698816 
L 156.730656 51.434125 
L 157.25881 51.434125 
L 157.25881 51.169434 
L 158.466018 51.169434 
L 158.466018 50.904743 
L 159.069622 50.904743 
L 159.069622 50.640052 
L 160.27683 50.640052 
L 160.27683 50.375361 
L 161.408587 50.375361 
L 161.408587 50.11067 
L 162.955323 50.11067 
L 162.955323 49.84598 
L 163.445751 49.84598 
L 163.445751 49.581289 
L 163.596652 49.581289 
L 163.596652 49.316598 
L 164.049355 49.316598 
L 164.049355 49.051907 
L 167.482353 49.051907 
L 167.482353 48.787216 
L 170.651274 48.787216 
L 170.651274 48.522525 
L 171.707581 48.522525 
L 171.707581 48.257834 
L 172.009383 48.257834 
L 172.009383 47.993143 
L 172.424361 47.993143 
L 172.424361 47.728452 
L 172.575262 47.728452 
L 172.575262 47.463761 
L 172.952515 47.463761 
L 172.952515 46.93438 
L 175.404656 46.93438 
L 175.404656 46.669689 
L 177.177743 46.669689 
L 177.177743 46.404998 
L 177.932248 46.404998 
L 177.969973 45.875616 
L 180.044862 45.875616 
L 180.044862 45.610925 
L 180.308939 45.610925 
L 180.384389 45.081543 
L 181.025719 45.081543 
L 181.025719 44.816852 
L 182.572454 44.816852 
L 182.572454 44.552161 
L 186.835408 44.552161 
L 186.835408 44.02278 
L 187.21266 44.02278 
L 187.21266 43.758089 
L 187.627638 43.758089 
L 187.627638 43.493398 
L 189.513901 43.493398 
L 189.513901 43.228707 
L 189.966604 43.228707 
L 189.966604 42.964016 
L 190.23068 42.964016 
L 190.23068 42.699325 
L 190.457032 42.699325 
L 190.457032 42.434634 
L 194.984062 42.434634 
L 194.984062 42.169943 
L 196.870325 42.169943 
L 196.870325 41.905252 
L 199.661993 41.905252 
L 199.661993 41.640561 
L 201.661432 41.640561 
L 201.661432 41.37587 
L 202.227311 41.37587 
L 202.227311 41.11118 
L 203.359068 41.11118 
L 203.359068 40.846489 
L 207.471121 40.846489 
L 207.471121 40.581798 
L 207.999274 40.581798 
L 207.999274 40.317107 
L 208.678329 40.317107 
L 208.678329 40.052416 
L 209.508284 40.052416 
L 209.508284 39.787725 
L 210.526866 39.787725 
L 210.526866 39.523034 
L 213.205359 39.523034 
L 213.205359 39.258343 
L 215.242523 39.258343 
L 215.242523 38.993652 
L 217.468313 38.993652 
L 217.468313 38.728961 
L 217.619214 38.728961 
L 217.619214 38.46427 
L 219.995905 38.46427 
L 219.995905 38.19958 
L 224.221133 38.19958 
L 224.221133 37.934889 
L 227.427779 37.934889 
L 227.427779 37.670198 
L 234.557852 37.670198 
L 234.557852 37.405507 
L 236.745917 37.405507 
L 236.745917 37.140816 
L 244.177791 37.140816 
L 244.177791 36.876125 
L 248.817997 36.876125 
L 248.817997 36.611434 
L 251.534216 36.611434 
L 251.534216 36.346743 
L 265.64346 36.346743 
L 265.64346 36.082052 
L 282.204846 36.082052 
L 282.204846 35.817361 
L 295.52186 35.817361 
L 295.52186 35.55267 
L 400.284886 35.55267 
L 400.284886 35.55267 
" clip-path="url(#p546ca98afc)" style="fill: none; stroke: #59a14f; stroke-width: 1.5; stroke-linecap: square"/>
   </g>
   <g id="line2d_15">
    <path d="M 60.757614 300.24358 
L 60.826905 300.24358 
L 60.826905 298.920125 
L 61.000133 298.920125 
L 61.000133 294.949761 
L 61.208007 294.949761 
L 61.277298 289.655943 
L 61.381235 289.655943 
L 61.415881 287.009034 
L 61.727692 287.009034 
L 61.831628 284.362125 
L 61.866274 284.362125 
L 61.970211 277.744852 
L 62.143439 277.744852 
L 62.143439 276.421398 
L 62.420604 276.421398 
L 62.524541 273.774489 
L 62.559187 273.774489 
L 62.663124 261.863398 
L 62.732415 261.863398 
L 62.732415 260.539943 
L 63.2521 260.539943 
L 63.2521 259.216489 
L 63.425328 259.216489 
L 63.459974 256.56958 
L 63.633202 256.56958 
L 63.633202 255.246125 
L 63.841076 255.246125 
L 63.841076 253.92267 
L 64.326115 253.92267 
L 64.395406 249.952307 
L 64.499343 249.952307 
L 64.568634 247.305398 
L 64.776508 247.305398 
L 64.776508 245.981943 
L 65.088319 245.981943 
L 65.088319 244.658489 
L 65.226901 244.658489 
L 65.330838 240.688125 
L 65.400129 240.688125 
L 65.400129 239.36467 
L 65.677295 239.36467 
L 65.677295 238.041216 
L 65.919814 238.041216 
L 65.95446 235.394307 
L 66.231625 235.394307 
L 66.231625 234.070852 
L 66.50879 234.070852 
L 66.50879 232.747398 
L 66.889892 232.747398 
L 66.959183 228.777034 
L 67.097766 228.777034 
L 67.097766 227.45358 
L 67.513513 227.45358 
L 67.513513 226.130125 
L 67.929261 226.130125 
L 68.033198 223.483216 
L 68.067844 223.483216 
L 68.067844 222.159761 
L 68.241072 222.159761 
L 68.310363 219.512852 
L 68.65682 219.512852 
L 68.65682 218.189398 
L 69.037922 218.189398 
L 69.141859 215.542489 
L 69.176504 215.542489 
L 69.245795 212.89558 
L 69.488315 212.89558 
L 69.488315 211.572125 
L 69.626897 211.572125 
L 69.626897 210.24867 
L 69.76548 210.24867 
L 69.834771 207.601761 
L 69.904063 207.601761 
L 70.008 203.631398 
L 70.042645 203.631398 
L 70.042645 202.307943 
L 70.354456 202.307943 
L 70.354456 200.984489 
L 70.631621 200.984489 
L 70.631621 199.661034 
L 71.012723 199.661034 
L 71.012723 197.014125 
L 71.185951 197.014125 
L 71.220597 194.367216 
L 71.601699 194.367216 
L 71.601699 193.043761 
L 72.259966 193.043761 
L 72.259966 191.720307 
L 72.46784 191.720307 
L 72.46784 190.396852 
L 72.606423 190.396852 
L 72.606423 189.073398 
L 72.952879 189.073398 
L 72.952879 187.749943 
L 73.126107 187.749943 
L 73.126107 186.426489 
L 73.333981 186.426489 
L 73.333981 185.103034 
L 73.680437 185.103034 
L 73.680437 183.77958 
L 73.853666 183.77958 
L 73.853666 182.456125 
L 73.992248 182.456125 
L 73.992248 181.13267 
L 74.37335 181.13267 
L 74.407996 178.485761 
L 74.546578 178.485761 
L 74.581224 174.515398 
L 74.719807 174.515398 
L 74.719807 173.191943 
L 75.620593 173.191943 
L 75.620593 170.545034 
L 75.793821 170.545034 
L 75.793821 169.22158 
L 76.382797 169.22158 
L 76.382797 167.898125 
L 76.902482 167.898125 
L 76.902482 166.57467 
L 77.352875 166.57467 
L 77.352875 163.927761 
L 78.288308 163.927761 
L 78.288308 162.604307 
L 78.807992 162.604307 
L 78.842638 159.957398 
L 79.812716 159.957398 
L 79.812716 158.633943 
L 80.609565 158.633943 
L 80.609565 157.310489 
L 80.990667 157.310489 
L 81.025313 154.66358 
L 81.960745 154.66358 
L 81.960745 152.01667 
L 82.411139 152.01667 
L 82.411139 150.693216 
L 83.03476 150.693216 
L 83.03476 145.399398 
L 83.83161 145.399398 
L 83.83161 144.075943 
L 84.247358 144.075943 
L 84.247358 142.752489 
L 84.870979 142.752489 
L 84.870979 141.429034 
L 85.009562 141.429034 
L 85.009562 140.10558 
L 85.494601 140.10558 
L 85.494601 138.782125 
L 86.256805 138.782125 
L 86.256805 137.45867 
L 86.915072 137.45867 
L 86.915072 136.135216 
L 87.296174 136.135216 
L 87.296174 134.811761 
L 87.88515 134.811761 
L 87.88515 133.488307 
L 88.682 133.488307 
L 88.682 132.164852 
L 88.855228 132.164852 
L 88.855228 130.841398 
L 89.686723 130.841398 
L 89.686723 128.194489 
L 90.033179 128.194489 
L 90.033179 126.871034 
L 90.656801 126.871034 
L 90.656801 125.54758 
L 90.864675 125.54758 
L 90.864675 124.224125 
L 91.557588 124.224125 
L 91.557588 122.90067 
L 92.458374 122.90067 
L 92.458374 121.577216 
L 93.116641 121.577216 
L 93.116641 120.253761 
L 94.294593 120.253761 
L 94.294593 118.930307 
L 95.264671 118.930307 
L 95.264671 117.606852 
L 97.447346 117.606852 
L 97.447346 116.283398 
L 97.89774 116.283398 
L 97.89774 114.959943 
L 98.521361 114.959943 
L 98.521361 113.636489 
L 99.526085 113.636489 
L 99.526085 112.313034 
L 100.288289 112.313034 
L 100.288289 110.98958 
L 100.634745 110.98958 
L 100.634745 109.666125 
L 101.223721 109.666125 
L 101.223721 107.019216 
L 102.26309 107.019216 
L 102.26309 105.695761 
L 103.61427 105.695761 
L 103.61427 104.372307 
L 104.445766 104.372307 
L 104.445766 103.048852 
L 105.173324 103.048852 
L 105.173324 101.725398 
L 105.554426 101.725398 
L 105.554426 100.401943 
L 106.524504 100.401943 
L 106.524504 99.078489 
L 106.870961 99.078489 
L 106.870961 97.755034 
L 107.702456 97.755034 
L 107.702456 96.43158 
L 108.533951 96.43158 
L 108.533951 95.108125 
L 109.01899 95.108125 
L 109.01899 93.78467 
L 109.400092 93.78467 
L 109.400092 92.461216 
L 109.919777 92.461216 
L 109.954423 89.814307 
L 112.587491 89.814307 
L 112.587491 88.490852 
L 113.488278 88.490852 
L 113.488278 87.167398 
L 114.042608 87.167398 
L 114.042608 85.843943 
L 114.735521 85.843943 
L 114.735521 84.520489 
L 115.913473 84.520489 
L 115.913473 83.197034 
L 116.398512 83.197034 
L 116.398512 81.87358 
L 116.779614 81.87358 
L 116.779614 80.550125 
L 117.022133 80.550125 
L 117.12607 77.903216 
L 118.858352 77.903216 
L 118.858352 76.579761 
L 120.001658 76.579761 
L 120.001658 75.256307 
L 122.080397 75.256307 
L 122.080397 73.932852 
L 122.946538 73.932852 
L 122.946538 72.609398 
L 125.579606 72.609398 
L 125.579606 71.285943 
L 127.450471 71.285943 
L 127.450471 69.962489 
L 128.281966 69.962489 
L 128.281966 68.639034 
L 134.69141 68.639034 
L 134.69141 67.31558 
L 136.389046 67.31558 
L 136.389046 64.66867 
L 138.433139 64.66867 
L 138.433139 63.345216 
L 141.620538 63.345216 
L 141.620538 62.021761 
L 141.828411 62.021761 
L 141.828411 60.698307 
L 143.941795 60.698307 
L 143.941795 59.374852 
L 145.881951 59.374852 
L 145.881951 58.051398 
L 146.644155 58.051398 
L 146.644155 56.727943 
L 147.129194 56.727943 
L 147.129194 55.404489 
L 148.029981 55.404489 
L 148.029981 54.081034 
L 150.97486 54.081034 
L 150.97486 52.75758 
L 151.252026 52.75758 
L 151.252026 51.434125 
L 162.511859 51.434125 
L 162.511859 50.11067 
L 172.524449 50.11067 
L 172.524449 48.787216 
L 173.979565 48.787216 
L 173.979565 47.463761 
L 175.400037 47.463761 
L 175.400037 46.140307 
L 183.091369 46.140307 
L 183.091369 44.816852 
L 199.617339 44.816852 
L 199.617339 43.493398 
L 203.948044 43.493398 
L 203.948044 42.169943 
L 204.53702 42.169943 
L 204.53702 40.846489 
L 204.744894 40.846489 
L 204.744894 39.523034 
L 222.864564 39.523034 
L 222.864564 38.19958 
L 293.645606 38.19958 
L 293.645606 36.876125 
L 316.199918 36.876125 
L 316.199918 35.55267 
L 400.284886 35.55267 
L 400.284886 35.55267 
" clip-path="url(#p546ca98afc)" style="fill: none; stroke: #e15759; stroke-width: 1.5; stroke-linecap: square"/>
   </g>
   <g id="line2d_16">
    <path d="M 60.757614 300.24358 
L 400.284886 35.55267 
" clip-path="url(#p546ca98afc)" style="fill: none; stroke-dasharray: 5.55,2.4; stroke-dashoffset: 0; stroke: #000000; stroke-opacity: 0.3; stroke-width: 1.5"/>
   </g>
   <g id="patch_3">
    <path d="M 43.78125 313.478125 
L 43.78125 22.318125 
" style="fill: none; stroke: #000000; stroke-width: 0.8; stroke-linejoin: miter; stroke-linecap: square"/>
   </g>
   <g id="patch_4">
    <path d="M 417.26125 313.478125 
L 417.26125 22.318125 
" style="fill: none; stroke: #000000; stroke-width: 0.8; stroke-linejoin: miter; stroke-linecap: square"/>
   </g>
   <g id="patch_5">
    <path d="M 43.78125 313.478125 
L 417.26125 313.478125 
" style="fill: none; stroke: #000000; stroke-width: 0.8; stroke-linejoin: miter; stroke-linecap: square"/>
   </g>
   <g id="patch_6">
    <path d="M 43.78125 22.318125 
L 417.26125 22.318125 
" style="fill: none; stroke: #000000; stroke-width: 0.8; stroke-linejoin: miter; stroke-linecap: square"/>
   </g>
   <g id="text_15">
    <!-- ROC curves stay similar across class ratios -->
    <g transform="translate(102.157812 16.318125) scale(0.12 -0.12)">
     <defs>
      <path id="DejaVuSans-4f" d="M 2522 4238 
Q 1834 4238 1429 3725 
Q 1025 3213 1025 2328 
Q 1025 1447 1429 934 
Q 1834 422 2522 422 
Q 3209 422 3611 934 
Q 4013 1447 4013 2328 
Q 4013 3213 3611 3725 
Q 3209 4238 2522 4238 
z
M 2522 4750 
Q 3503 4750 4090 4092 
Q 4678 3434 4678 2328 
Q 4678 1225 4090 567 
Q 3503 -91 2522 -91 
Q 1538 -91 948 565 
Q 359 1222 359 2328 
Q 359 3434 948 4092 
Q 1538 4750 2522 4750 
z
" transform="scale(0.015625)"/>
      <path id="DejaVuSans-43" d="M 4122 4306 
L 4122 3641 
Q 3803 3938 3442 4084 
Q 3081 4231 2675 4231 
Q 1875 4231 1450 3742 
Q 1025 3253 1025 2328 
Q 1025 1406 1450 917 
Q 1875 428 2675 428 
Q 3081 428 3442 575 
Q 3803 722 4122 1019 
L 4122 359 
Q 3791 134 3420 21 
Q 3050 -91 2638 -91 
Q 1578 -91 968 557 
Q 359 1206 359 2328 
Q 359 3453 968 4101 
Q 1578 4750 2638 4750 
Q 3056 4750 3426 4639 
Q 3797 4528 4122 4306 
z
" transform="scale(0.015625)"/>
      <path id="DejaVuSans-63" d="M 3122 3366 
L 3122 2828 
Q 2878 2963 2633 3030 
Q 2388 3097 2138 3097 
Q 1578 3097 1268 2742 
Q 959 2388 959 1747 
Q 959 1106 1268 751 
Q 1578 397 2138 397 
Q 2388 397 2633 464 
Q 2878 531 3122 666 
L 3122 134 
Q 2881 22 2623 -34 
Q 2366 -91 2075 -91 
Q 1284 -91 818 406 
Q 353 903 353 1747 
Q 353 2603 823 3093 
Q 1294 3584 2113 3584 
Q 2378 3584 2631 3529 
Q 2884 3475 3122 3366 
z
" transform="scale(0.015625)"/>
      <path id="DejaVuSans-79" d="M 2059 -325 
Q 1816 -950 1584 -1140 
Q 1353 -1331 966 -1331 
L 506 -1331 
L 506 -850 
L 844 -850 
Q 1081 -850 1212 -737 
Q 1344 -625 1503 -206 
L 1606 56 
L 191 3500 
L 800 3500 
L 1894 763 
L 2988 3500 
L 3597 3500 
L 2059 -325 
z
" transform="scale(0.015625)"/>
      <path id="DejaVuSans-6d" d="M 3328 2828 
Q 3544 3216 3844 3400 
Q 4144 3584 4550 3584 
Q 5097 3584 5394 3201 
Q 5691 2819 5691 2113 
L 5691 0 
L 5113 0 
L 5113 2094 
Q 5113 2597 4934 2840 
Q 4756 3084 4391 3084 
Q 3944 3084 3684 2787 
Q 3425 2491 3425 1978 
L 3425 0 
L 2847 0 
L 2847 2094 
Q 2847 2600 2669 2842 
Q 2491 3084 2119 3084 
Q 1678 3084 1418 2786 
Q 1159 2488 1159 1978 
L 1159 0 
L 581 0 
L 581 3500 
L 1159 3500 
L 1159 2956 
Q 1356 3278 1631 3431 
Q 1906 3584 2284 3584 
Q 2666 3584 2933 3390 
Q 3200 3197 3328 2828 
z
" transform="scale(0.015625)"/>
     </defs>
     <use xlink:href="#DejaVuSans-52"/>
     <use xlink:href="#DejaVuSans-4f" transform="translate(69.482422 0)"/>
     <use xlink:href="#DejaVuSans-43" transform="translate(148.193359 0)"/>
     <use xlink:href="#DejaVuSans-20" transform="translate(218.017578 0)"/>
     <use xlink:href="#DejaVuSans-63" transform="translate(249.804688 0)"/>
     <use xlink:href="#DejaVuSans-75" transform="translate(304.785156 0)"/>
     <use xlink:href="#DejaVuSans-72" transform="translate(368.164062 0)"/>
     <use xlink:href="#DejaVuSans-76" transform="translate(409.277344 0)"/>
     <use xlink:href="#DejaVuSans-65" transform="translate(468.457031 0)"/>
     <use xlink:href="#DejaVuSans-73" transform="translate(529.980469 0)"/>
     <use xlink:href="#DejaVuSans-20" transform="translate(582.080078 0)"/>
     <use xlink:href="#DejaVuSans-73" transform="translate(613.867188 0)"/>
     <use xlink:href="#DejaVuSans-74" transform="translate(665.966797 0)"/>
     <use xlink:href="#DejaVuSans-61" transform="translate(705.175781 0)"/>
     <use xlink:href="#DejaVuSans-79" transform="translate(766.455078 0)"/>
     <use xlink:href="#DejaVuSans-20" transform="translate(825.634766 0)"/>
     <use xlink:href="#DejaVuSans-73" transform="translate(857.421875 0)"/>
     <use xlink:href="#DejaVuSans-69" transform="translate(909.521484 0)"/>
     <use xlink:href="#DejaVuSans-6d" transform="translate(937.304688 0)"/>
     <use xlink:href="#DejaVuSans-69" transform="translate(1034.716797 0)"/>
     <use xlink:href="#DejaVuSans-6c" transform="translate(1062.5 0)"/>
     <use xlink:href="#DejaVuSans-61" transform="translate(1090.283203 0)"/>
     <use xlink:href="#DejaVuSans-72" transform="translate(1151.5625 0)"/>
     <use xlink:href="#DejaVuSans-20" transform="translate(1192.675781 0)"/>
     <use xlink:href="#DejaVuSans-61" transform="translate(1224.462891 0)"/>
     <use xlink:href="#DejaVuSans-63" transform="translate(1285.742188 0)"/>
     <use xlink:href="#DejaVuSans-72" transform="translate(1340.722656 0)"/>
     <use xlink:href="#DejaVuSans-6f" transform="translate(1379.585938 0)"/>
     <use xlink:href="#DejaVuSans-73" transform="translate(1440.767578 0)"/>
     <use xlink:href="#DejaVuSans-73" transform="translate(1492.867188 0)"/>
     <use xlink:href="#DejaVuSans-20" transform="translate(1544.966797 0)"/>
     <use xlink:href="#DejaVuSans-63" transform="translate(1576.753906 0)"/>
     <use xlink:href="#DejaVuSans-6c" transform="translate(1631.734375 0)"/>
     <use xlink:href="#DejaVuSans-61" transform="translate(1659.517578 0)"/>
     <use xlink:href="#DejaVuSans-73" transform="translate(1720.796875 0)"/>
     <use xlink:href="#DejaVuSans-73" transform="translate(1772.896484 0)"/>
     <use xlink:href="#DejaVuSans-20" transform="translate(1824.996094 0)"/>
     <use xlink:href="#DejaVuSans-72" transform="translate(1856.783203 0)"/>
     <use xlink:href="#DejaVuSans-61" transform="translate(1897.896484 0)"/>
     <use xlink:href="#DejaVuSans-74" transform="translate(1959.175781 0)"/>
     <use xlink:href="#DejaVuSans-69" transform="translate(1998.384766 0)"/>
     <use xlink:href="#DejaVuSans-6f" transform="translate(2026.167969 0)"/>
     <use xlink:href="#DejaVuSans-73" transform="translate(2087.349609 0)"/>
    </g>
   </g>
   <g id="legend_1">
    <g id="patch_7">
     <path d="M 253.698906 308.978125 
L 410.96125 308.978125 
Q 412.76125 308.978125 412.76125 307.178125 
L 412.76125 255.236875 
Q 412.76125 253.436875 410.96125 253.436875 
L 253.698906 253.436875 
Q 251.898906 253.436875 251.898906 255.236875 
L 251.898906 307.178125 
Q 251.898906 308.978125 253.698906 308.978125 
z
" style="fill: #ffffff; opacity: 0.8; stroke: #cccccc; stroke-linejoin: miter"/>
    </g>
    <g id="line2d_17">
     <path d="M 255.498906 260.725469 
L 264.498906 260.725469 
L 273.498906 260.725469 
" style="fill: none; stroke: #7aa6c2; stroke-width: 1.5; stroke-linecap: square"/>
    </g>
    <g id="text_16">
     <!-- Balanced 50:50  AUC=0.907 -->
     <g transform="translate(280.698906 263.875469) scale(0.09 -0.09)">
      <defs>
       <path id="DejaVuSans-42" d="M 1259 2228 
L 1259 519 
L 2272 519 
Q 2781 519 3026 730 
Q 3272 941 3272 1375 
Q 3272 1813 3026 2020 
Q 2781 2228 2272 2228 
L 1259 2228 
z
M 1259 4147 
L 1259 2741 
L 2194 2741 
Q 2656 2741 2882 2914 
Q 3109 3088 3109 3444 
Q 3109 3797 2882 3972 
Q 2656 4147 2194 4147 
L 1259 4147 
z
M 628 4666 
L 2241 4666 
Q 2963 4666 3353 4366 
Q 3744 4066 3744 3513 
Q 3744 3084 3544 2831 
Q 3344 2578 2956 2516 
Q 3422 2416 3680 2098 
Q 3938 1781 3938 1306 
Q 3938 681 3513 340 
Q 3088 0 2303 0 
L 628 0 
L 628 4666 
z
" transform="scale(0.015625)"/>
       <path id="DejaVuSans-6e" d="M 3513 2113 
L 3513 0 
L 2938 0 
L 2938 2094 
Q 2938 2591 2744 2837 
Q 2550 3084 2163 3084 
Q 1697 3084 1428 2787 
Q 1159 2491 1159 1978 
L 1159 0 
L 581 0 
L 581 3500 
L 1159 3500 
L 1159 2956 
Q 1366 3272 1645 3428 
Q 1925 3584 2291 3584 
Q 2894 3584 3203 3211 
Q 3513 2838 3513 2113 
z
" transform="scale(0.015625)"/>
       <path id="DejaVuSans-64" d="M 2906 2969 
L 2906 4863 
L 3481 4863 
L 3481 0 
L 2906 0 
L 2906 525 
Q 2725 213 2448 61 
Q 2172 -91 1784 -91 
Q 1150 -91 751 415 
Q 353 922 353 1747 
Q 353 2572 751 3078 
Q 1150 3584 1784 3584 
Q 2172 3584 2448 3432 
Q 2725 3281 2906 2969 
z
M 947 1747 
Q 947 1113 1208 752 
Q 1469 391 1925 391 
Q 2381 391 2643 752 
Q 2906 1113 2906 1747 
Q 2906 2381 2643 2742 
Q 2381 3103 1925 3103 
Q 1469 3103 1208 2742 
Q 947 2381 947 1747 
z
" transform="scale(0.015625)"/>
       <path id="DejaVuSans-35" d="M 691 4666 
L 3169 4666 
L 3169 4134 
L 1269 4134 
L 1269 2991 
Q 1406 3038 1543 3061 
Q 1681 3084 1819 3084 
Q 2600 3084 3056 2656 
Q 3513 2228 3513 1497 
Q 3513 744 3044 326 
Q 2575 -91 1722 -91 
Q 1428 -91 1123 -41 
Q 819 9 494 109 
L 494 744 
Q 775 591 1075 516 
Q 1375 441 1709 441 
Q 2250 441 2565 725 
Q 2881 1009 2881 1497 
Q 2881 1984 2565 2268 
Q 2250 2553 1709 2553 
Q 1456 2553 1204 2497 
Q 953 2441 691 2322 
L 691 4666 
z
" transform="scale(0.015625)"/>
       <path id="DejaVuSans-3a" d="M 750 794 
L 1409 794 
L 1409 0 
L 750 0 
L 750 794 
z
M 750 3309 
L 1409 3309 
L 1409 2516 
L 750 2516 
L 750 3309 
z
" transform="scale(0.015625)"/>
       <path id="DejaVuSans-41" d="M 2188 4044 
L 1331 1722 
L 3047 1722 
L 2188 4044 
z
M 1831 4666 
L 2547 4666 
L 4325 0 
L 3669 0 
L 3244 1197 
L 1141 1197 
L 716 0 
L 50 0 
L 1831 4666 
z
" transform="scale(0.015625)"/>
       <path id="DejaVuSans-55" d="M 556 4666 
L 1191 4666 
L 1191 1831 
Q 1191 1081 1462 751 
Q 1734 422 2344 422 
Q 2950 422 3222 751 
Q 3494 1081 3494 1831 
L 3494 4666 
L 4128 4666 
L 4128 1753 
Q 4128 841 3676 375 
Q 3225 -91 2344 -91 
Q 1459 -91 1007 375 
Q 556 841 556 1753 
L 556 4666 
z
" transform="scale(0.015625)"/>
       <path id="DejaVuSans-3d" d="M 678 2906 
L 4684 2906 
L 4684 2381 
L 678 2381 
L 678 2906 
z
M 678 1631 
L 4684 1631 
L 4684 1100 
L 678 1100 
L 678 1631 
z
" transform="scale(0.015625)"/>
       <path id="DejaVuSans-39" d="M 703 97 
L 703 672 
Q 941 559 1184 500 
Q 1428 441 1663 441 
Q 2288 441 2617 861 
Q 2947 1281 2994 2138 
Q 2813 1869 2534 1725 
Q 2256 1581 1919 1581 
Q 1219 1581 811 2004 
Q 403 2428 403 3163 
Q 403 3881 828 4315 
Q 1253 4750 1959 4750 
Q 2769 4750 3195 4129 
Q 3622 3509 3622 2328 
Q 3622 1225 3098 567 
Q 2575 -91 1691 -91 
Q 1453 -91 1209 -44 
Q 966 3 703 97 
z
M 1959 2075 
Q 2384 2075 2632 2365 
Q 2881 2656 2881 3163 
Q 2881 3666 2632 3958 
Q 2384 4250 1959 4250 
Q 1534 4250 1286 3958 
Q 1038 3666 1038 3163 
Q 1038 2656 1286 2365 
Q 1534 2075 1959 2075 
z
" transform="scale(0.015625)"/>
       <path id="DejaVuSans-37" d="M 525 4666 
L 3525 4666 
L 3525 4397 
L 1831 0 
L 1172 0 
L 2766 4134 
L 525 4134 
L 525 4666 
z
" transform="scale(0.015625)"/>
      </defs>
      <use xlink:href="#DejaVuSans-42"/>
      <use xlink:href="#DejaVuSans-61" transform="translate(68.603516 0)"/>
      <use xlink:href="#DejaVuSans-6c" transform="translate(129.882812 0)"/>
      <use xlink:href="#DejaVuSans-61" transform="translate(157.666016 0)"/>
      <use xlink:href="#DejaVuSans-6e" transform="translate(218.945312 0)"/>
      <use xlink:href="#DejaVuSans-63" transform="translate(282.324219 0)"/>
      <use xlink:href="#DejaVuSans-65" transform="translate(337.304688 0)"/>
      <use xlink:href="#DejaVuSans-64" transform="translate(398.828125 0)"/>
      <use xlink:href="#DejaVuSans-20" transform="translate(462.304688 0)"/>
      <use xlink:href="#DejaVuSans-35" transform="translate(494.091797 0)"/>
      <use xlink:href="#DejaVuSans-30" transform="translate(557.714844 0)"/>
      <use xlink:href="#DejaVuSans-3a" transform="translate(621.337891 0)"/>
      <use xlink:href="#DejaVuSans-35" transform="translate(655.029297 0)"/>
      <use xlink:href="#DejaVuSans-30" transform="translate(718.652344 0)"/>
      <use xlink:href="#DejaVuSans-20" transform="translate(782.275391 0)"/>
      <use xlink:href="#DejaVuSans-20" transform="translate(814.0625 0)"/>
      <use xlink:href="#DejaVuSans-41" transform="translate(845.849609 0)"/>
      <use xlink:href="#DejaVuSans-55" transform="translate(914.257812 0)"/>
      <use xlink:href="#DejaVuSans-43" transform="translate(987.451172 0)"/>
      <use xlink:href="#DejaVuSans-3d" transform="translate(1057.275391 0)"/>
      <use xlink:href="#DejaVuSans-30" transform="translate(1141.064453 0)"/>
      <use xlink:href="#DejaVuSans-2e" transform="translate(1204.6875 0)"/>
      <use xlink:href="#DejaVuSans-39" transform="translate(1236.474609 0)"/>
      <use xlink:href="#DejaVuSans-30" transform="translate(1300.097656 0)"/>
      <use xlink:href="#DejaVuSans-37" transform="translate(1363.720703 0)"/>
     </g>
    </g>
    <g id="line2d_18">
     <path d="M 255.498906 273.935781 
L 264.498906 273.935781 
L 273.498906 273.935781 
" style="fill: none; stroke: #59a14f; stroke-width: 1.5; stroke-linecap: square"/>
    </g>
    <g id="text_17">
     <!-- Mild 90:10  AUC=0.910 -->
     <g transform="translate(280.698906 277.085781) scale(0.09 -0.09)">
      <defs>
       <path id="DejaVuSans-4d" d="M 628 4666 
L 1569 4666 
L 2759 1491 
L 3956 4666 
L 4897 4666 
L 4897 0 
L 4281 0 
L 4281 4097 
L 3078 897 
L 2444 897 
L 1241 4097 
L 1241 0 
L 628 0 
L 628 4666 
z
" transform="scale(0.015625)"/>
      </defs>
      <use xlink:href="#DejaVuSans-4d"/>
      <use xlink:href="#DejaVuSans-69" transform="translate(86.279297 0)"/>
      <use xlink:href="#DejaVuSans-6c" transform="translate(114.0625 0)"/>
      <use xlink:href="#DejaVuSans-64" transform="translate(141.845703 0)"/>
      <use xlink:href="#DejaVuSans-20" transform="translate(205.322266 0)"/>
      <use xlink:href="#DejaVuSans-39" transform="translate(237.109375 0)"/>
      <use xlink:href="#DejaVuSans-30" transform="translate(300.732422 0)"/>
      <use xlink:href="#DejaVuSans-3a" transform="translate(364.355469 0)"/>
      <use xlink:href="#DejaVuSans-31" transform="translate(398.046875 0)"/>
      <use xlink:href="#DejaVuSans-30" transform="translate(461.669922 0)"/>
      <use xlink:href="#DejaVuSans-20" transform="translate(525.292969 0)"/>
      <use xlink:href="#DejaVuSans-20" transform="translate(557.080078 0)"/>
      <use xlink:href="#DejaVuSans-41" transform="translate(588.867188 0)"/>
      <use xlink:href="#DejaVuSans-55" transform="translate(657.275391 0)"/>
      <use xlink:href="#DejaVuSans-43" transform="translate(730.46875 0)"/>
      <use xlink:href="#DejaVuSans-3d" transform="translate(800.292969 0)"/>
      <use xlink:href="#DejaVuSans-30" transform="translate(884.082031 0)"/>
      <use xlink:href="#DejaVuSans-2e" transform="translate(947.705078 0)"/>
      <use xlink:href="#DejaVuSans-39" transform="translate(979.492188 0)"/>
      <use xlink:href="#DejaVuSans-31" transform="translate(1043.115234 0)"/>
      <use xlink:href="#DejaVuSans-30" transform="translate(1106.738281 0)"/>
     </g>
    </g>
    <g id="line2d_19">
     <path d="M 255.498906 287.146094 
L 264.498906 287.146094 
L 273.498906 287.146094 
" style="fill: none; stroke: #e15759; stroke-width: 1.5; stroke-linecap: square"/>
    </g>
    <g id="text_18">
     <!-- Extreme 98:2  AUC=0.908 -->
     <g transform="translate(280.698906 290.296094) scale(0.09 -0.09)">
      <defs>
       <path id="DejaVuSans-45" d="M 628 4666 
L 3578 4666 
L 3578 4134 
L 1259 4134 
L 1259 2753 
L 3481 2753 
L 3481 2222 
L 1259 2222 
L 1259 531 
L 3634 531 
L 3634 0 
L 628 0 
L 628 4666 
z
" transform="scale(0.015625)"/>
       <path id="DejaVuSans-78" d="M 3513 3500 
L 2247 1797 
L 3578 0 
L 2900 0 
L 1881 1375 
L 863 0 
L 184 0 
L 1544 1831 
L 300 3500 
L 978 3500 
L 1906 2253 
L 2834 3500 
L 3513 3500 
z
" transform="scale(0.015625)"/>
      </defs>
      <use xlink:href="#DejaVuSans-45"/>
      <use xlink:href="#DejaVuSans-78" transform="translate(63.183594 0)"/>
      <use xlink:href="#DejaVuSans-74" transform="translate(122.363281 0)"/>
      <use xlink:href="#DejaVuSans-72" transform="translate(161.572266 0)"/>
      <use xlink:href="#DejaVuSans-65" transform="translate(200.435547 0)"/>
      <use xlink:href="#DejaVuSans-6d" transform="translate(261.958984 0)"/>
      <use xlink:href="#DejaVuSans-65" transform="translate(359.371094 0)"/>
      <use xlink:href="#DejaVuSans-20" transform="translate(420.894531 0)"/>
      <use xlink:href="#DejaVuSans-39" transform="translate(452.681641 0)"/>
      <use xlink:href="#DejaVuSans-38" transform="translate(516.304688 0)"/>
      <use xlink:href="#DejaVuSans-3a" transform="translate(579.927734 0)"/>
      <use xlink:href="#DejaVuSans-32" transform="translate(613.619141 0)"/>
      <use xlink:href="#DejaVuSans-20" transform="translate(677.242188 0)"/>
      <use xlink:href="#DejaVuSans-20" transform="translate(709.029297 0)"/>
      <use xlink:href="#DejaVuSans-41" transform="translate(740.816406 0)"/>
      <use xlink:href="#DejaVuSans-55" transform="translate(809.224609 0)"/>
      <use xlink:href="#DejaVuSans-43" transform="translate(882.417969 0)"/>
      <use xlink:href="#DejaVuSans-3d" transform="translate(952.242188 0)"/>
      <use xlink:href="#DejaVuSans-30" transform="translate(1036.03125 0)"/>
      <use xlink:href="#DejaVuSans-2e" transform="translate(1099.654297 0)"/>
      <use xlink:href="#DejaVuSans-39" transform="translate(1131.441406 0)"/>
      <use xlink:href="#DejaVuSans-30" transform="translate(1195.064453 0)"/>
      <use xlink:href="#DejaVuSans-38" transform="translate(1258.6875 0)"/>
     </g>
    </g>
    <g id="line2d_20">
     <path d="M 255.498906 300.356406 
L 264.498906 300.356406 
L 273.498906 300.356406 
" style="fill: none; stroke-dasharray: 5.55,2.4; stroke-dashoffset: 0; stroke: #000000; stroke-opacity: 0.3; stroke-width: 1.5"/>
    </g>
    <g id="text_19">
     <!-- Random  AUC=0.500 -->
     <g transform="translate(280.698906 303.506406) scale(0.09 -0.09)">
      <use xlink:href="#DejaVuSans-52"/>
      <use xlink:href="#DejaVuSans-61" transform="translate(67.232422 0)"/>
      <use xlink:href="#DejaVuSans-6e" transform="translate(128.511719 0)"/>
      <use xlink:href="#DejaVuSans-64" transform="translate(191.890625 0)"/>
      <use xlink:href="#DejaVuSans-6f" transform="translate(255.367188 0)"/>
      <use xlink:href="#DejaVuSans-6d" transform="translate(316.548828 0)"/>
      <use xlink:href="#DejaVuSans-20" transform="translate(413.960938 0)"/>
      <use xlink:href="#DejaVuSans-20" transform="translate(445.748047 0)"/>
      <use xlink:href="#DejaVuSans-41" transform="translate(477.535156 0)"/>
      <use xlink:href="#DejaVuSans-55" transform="translate(545.943359 0)"/>
      <use xlink:href="#DejaVuSans-43" transform="translate(619.136719 0)"/>
      <use xlink:href="#DejaVuSans-3d" transform="translate(688.960938 0)"/>
      <use xlink:href="#DejaVuSans-30" transform="translate(772.75 0)"/>
      <use xlink:href="#DejaVuSans-2e" transform="translate(836.373047 0)"/>
      <use xlink:href="#DejaVuSans-35" transform="translate(868.160156 0)"/>
      <use xlink:href="#DejaVuSans-30" transform="translate(931.783203 0)"/>
      <use xlink:href="#DejaVuSans-30" transform="translate(995.40625 0)"/>
     </g>
    </g>
   </g>
  </g>
 </g>
 <defs>
  <clipPath id="p546ca98afc">
   <rect x="43.78125" y="22.318125" width="373.48" height="291.16"/>
  </clipPath>
 </defs>
</svg>
