<?xml version="1.0" encoding="utf-8" standalone="no"?>
<!DOCTYPE svg PUBLIC "-//W3C//DTD SVG 1.1//EN"
  "http://www.w3.org/Graphics/SVG/1.1/DTD/svg11.dtd">
<svg xmlns:xlink="http://www.w3.org/1999/xlink" width="427.097187pt" height="279.034375pt" viewBox="0 0 427.097187 279.034375" xmlns="http://www.w3.org/2000/svg" version="1.1">
 <metadata>
  <rdf:RDF xmlns:dc="http://purl.org/dc/elements/1.1/" xmlns:cc="http://creativecommons.org/ns#" xmlns:rdf="http://www.w3.org/1999/02/22-rdf-syntax-ns#">
   <cc:Work>
    <dc:type rdf:resource="http://purl.org/dc/dcmitype/StillImage"/>
    <dc:date>2026-05-24T21:06:24.265256</dc:date>
    <dc:format>image/svg+xml</dc:format>
    <dc:creator>
     <cc:Agent>
      <dc:title>Matplotlib v3.10.8, https://matplotlib.org/</dc:title>
     </cc:Agent>
    </dc:creator>
   </cc:Work>
  </rdf:RDF>
 </metadata>
 <defs>
  <style type="text/css">*{stroke-linejoin: round; stroke-linecap: butt}</style>
 </defs>
 <g id="figure_1">
  <g id="patch_1">
   <path d="M 0 279.034375 
L 427.097187 279.034375 
L 427.097187 0 
L 0 0 
z
" style="fill: #ffffff"/>
  </g>
  <g id="axes_1">
   <g id="patch_2">
    <path d="M 43.78125 241.478125 
L 417.26125 241.478125 
L 417.26125 22.318125 
L 43.78125 22.318125 
z
" style="fill: #ffffff"/>
   </g>
   <g id="matplotlib.axis_1">
    <g id="xtick_1">
     <g id="line2d_1">
      <defs>
       <path id="ma1e0148163" d="M 0 0 
L 0 3.5 
" style="stroke: #000000; stroke-width: 0.8"/>
      </defs>
      <g>
       <use xlink:href="#ma1e0148163" x="60.077198" y="241.478125" style="stroke: #000000; stroke-width: 0.8"/>
      </g>
     </g>
     <g id="text_1">
      <!-- 0.0 -->
      <g transform="translate(52.125636 256.076563) scale(0.1 -0.1)">
       <defs>
        <path id="DejaVuSans-30" d="M 2034 4250 
Q 1547 4250 1301 3770 
Q 1056 3291 1056 2328 
Q 1056 1369 1301 889 
Q 1547 409 2034 409 
Q 2525 409 2770 889 
Q 3016 1369 3016 2328 
Q 3016 3291 2770 3770 
Q 2525 4250 2034 4250 
z
M 2034 4750 
Q 2819 4750 3233 4129 
Q 3647 3509 3647 2328 
Q 3647 1150 3233 529 
Q 2819 -91 2034 -91 
Q 1250 -91 836 529 
Q 422 1150 422 2328 
Q 422 3509 836 4129 
Q 1250 4750 2034 4750 
z
" transform="scale(0.015625)"/>
        <path id="DejaVuSans-2e" d="M 684 794 
L 1344 794 
L 1344 0 
L 684 0 
L 684 794 
z
" transform="scale(0.015625)"/>
       </defs>
       <use xlink:href="#DejaVuSans-30"/>
       <use xlink:href="#DejaVuSans-2e" transform="translate(63.623047 0)"/>
       <use xlink:href="#DejaVuSans-30" transform="translate(95.410156 0)"/>
      </g>
     </g>
    </g>
    <g id="xtick_2">
     <g id="line2d_2">
      <g>
       <use xlink:href="#ma1e0148163" x="128.118736" y="241.478125" style="stroke: #000000; stroke-width: 0.8"/>
      </g>
     </g>
     <g id="text_2">
      <!-- 0.1 -->
      <g transform="translate(120.167173 256.076563) scale(0.1 -0.1)">
       <defs>
        <path id="DejaVuSans-31" d="M 794 531 
L 1825 531 
L 1825 4091 
L 703 3866 
L 703 4441 
L 1819 4666 
L 2450 4666 
L 2450 531 
L 3481 531 
L 3481 0 
L 794 0 
L 794 531 
z
" transform="scale(0.015625)"/>
       </defs>
       <use xlink:href="#DejaVuSans-30"/>
       <use xlink:href="#DejaVuSans-2e" transform="translate(63.623047 0)"/>
       <use xlink:href="#DejaVuSans-31" transform="translate(95.410156 0)"/>
      </g>
     </g>
    </g>
    <g id="xtick_3">
     <g id="line2d_3">
      <g>
       <use xlink:href="#ma1e0148163" x="196.160274" y="241.478125" style="stroke: #000000; stroke-width: 0.8"/>
      </g>
     </g>
     <g id="text_3">
      <!-- 0.2 -->
      <g transform="translate(188.208711 256.076563) scale(0.1 -0.1)">
       <defs>
        <path id="DejaVuSans-32" d="M 1228 531 
L 3431 531 
L 3431 0 
L 469 0 
L 469 531 
Q 828 903 1448 1529 
Q 2069 2156 2228 2338 
Q 2531 2678 2651 2914 
Q 2772 3150 2772 3378 
Q 2772 3750 2511 3984 
Q 2250 4219 1831 4219 
Q 1534 4219 1204 4116 
Q 875 4013 500 3803 
L 500 4441 
Q 881 4594 1212 4672 
Q 1544 4750 1819 4750 
Q 2544 4750 2975 4387 
Q 3406 4025 3406 3419 
Q 3406 3131 3298 2873 
Q 3191 2616 2906 2266 
Q 2828 2175 2409 1742 
Q 1991 1309 1228 531 
z
" transform="scale(0.015625)"/>
       </defs>
       <use xlink:href="#DejaVuSans-30"/>
       <use xlink:href="#DejaVuSans-2e" transform="translate(63.623047 0)"/>
       <use xlink:href="#DejaVuSans-32" transform="translate(95.410156 0)"/>
      </g>
     </g>
    </g>
    <g id="xtick_4">
     <g id="line2d_4">
      <g>
       <use xlink:href="#ma1e0148163" x="264.201811" y="241.478125" style="stroke: #000000; stroke-width: 0.8"/>
      </g>
     </g>
     <g id="text_4">
      <!-- 0.3 -->
      <g transform="translate(256.250249 256.076563) scale(0.1 -0.1)">
       <defs>
        <path id="DejaVuSans-33" d="M 2597 2516 
Q 3050 2419 3304 2112 
Q 3559 1806 3559 1356 
Q 3559 666 3084 287 
Q 2609 -91 1734 -91 
Q 1441 -91 1130 -33 
Q 819 25 488 141 
L 488 750 
Q 750 597 1062 519 
Q 1375 441 1716 441 
Q 2309 441 2620 675 
Q 2931 909 2931 1356 
Q 2931 1769 2642 2001 
Q 2353 2234 1838 2234 
L 1294 2234 
L 1294 2753 
L 1863 2753 
Q 2328 2753 2575 2939 
Q 2822 3125 2822 3475 
Q 2822 3834 2567 4026 
Q 2313 4219 1838 4219 
Q 1578 4219 1281 4162 
Q 984 4106 628 3988 
L 628 4550 
Q 988 4650 1302 4700 
Q 1616 4750 1894 4750 
Q 2613 4750 3031 4423 
Q 3450 4097 3450 3541 
Q 3450 3153 3228 2886 
Q 3006 2619 2597 2516 
z
" transform="scale(0.015625)"/>
       </defs>
       <use xlink:href="#DejaVuSans-30"/>
       <use xlink:href="#DejaVuSans-2e" transform="translate(63.623047 0)"/>
       <use xlink:href="#DejaVuSans-33" transform="translate(95.410156 0)"/>
      </g>
     </g>
    </g>
    <g id="xtick_5">
     <g id="line2d_5">
      <g>
       <use xlink:href="#ma1e0148163" x="332.243349" y="241.478125" style="stroke: #000000; stroke-width: 0.8"/>
      </g>
     </g>
     <g id="text_5">
      <!-- 0.4 -->
      <g transform="translate(324.291786 256.076563) scale(0.1 -0.1)">
       <defs>
        <path id="DejaVuSans-34" d="M 2419 4116 
L 825 1625 
L 2419 1625 
L 2419 4116 
z
M 2253 4666 
L 3047 4666 
L 3047 1625 
L 3713 1625 
L 3713 1100 
L 3047 1100 
L 3047 0 
L 2419 0 
L 2419 1100 
L 313 1100 
L 313 1709 
L 2253 4666 
z
" transform="scale(0.015625)"/>
       </defs>
       <use xlink:href="#DejaVuSans-30"/>
       <use xlink:href="#DejaVuSans-2e" transform="translate(63.623047 0)"/>
       <use xlink:href="#DejaVuSans-34" transform="translate(95.410156 0)"/>
      </g>
     </g>
    </g>
    <g id="xtick_6">
     <g id="line2d_6">
      <g>
       <use xlink:href="#ma1e0148163" x="400.284886" y="241.478125" style="stroke: #000000; stroke-width: 0.8"/>
      </g>
     </g>
     <g id="text_6">
      <!-- 0.5 -->
      <g transform="translate(392.333324 256.076563) scale(0.1 -0.1)">
       <defs>
        <path id="DejaVuSans-35" d="M 691 4666 
L 3169 4666 
L 3169 4134 
L 1269 4134 
L 1269 2991 
Q 1406 3038 1543 3061 
Q 1681 3084 1819 3084 
Q 2600 3084 3056 2656 
Q 3513 2228 3513 1497 
Q 3513 744 3044 326 
Q 2575 -91 1722 -91 
Q 1428 -91 1123 -41 
Q 819 9 494 109 
L 494 744 
Q 775 591 1075 516 
Q 1375 441 1709 441 
Q 2250 441 2565 725 
Q 2881 1009 2881 1497 
Q 2881 1984 2565 2268 
Q 2250 2553 1709 2553 
Q 1456 2553 1204 2497 
Q 953 2441 691 2322 
L 691 4666 
z
" transform="scale(0.015625)"/>
       </defs>
       <use xlink:href="#DejaVuSans-30"/>
       <use xlink:href="#DejaVuSans-2e" transform="translate(63.623047 0)"/>
       <use xlink:href="#DejaVuSans-35" transform="translate(95.410156 0)"/>
      </g>
     </g>
    </g>
    <g id="text_7">
     <!-- Positive class ratio -->
     <g transform="translate(184.131406 269.754687) scale(0.1 -0.1)">
      <defs>
       <path id="DejaVuSans-50" d="M 1259 4147 
L 1259 2394 
L 2053 2394 
Q 2494 2394 2734 2622 
Q 2975 2850 2975 3272 
Q 2975 3691 2734 3919 
Q 2494 4147 2053 4147 
L 1259 4147 
z
M 628 4666 
L 2053 4666 
Q 2838 4666 3239 4311 
Q 3641 3956 3641 3272 
Q 3641 2581 3239 2228 
Q 2838 1875 2053 1875 
L 1259 1875 
L 1259 0 
L 628 0 
L 628 4666 
z
" transform="scale(0.015625)"/>
       <path id="DejaVuSans-6f" d="M 1959 3097 
Q 1497 3097 1228 2736 
Q 959 2375 959 1747 
Q 959 1119 1226 758 
Q 1494 397 1959 397 
Q 2419 397 2687 759 
Q 2956 1122 2956 1747 
Q 2956 2369 2687 2733 
Q 2419 3097 1959 3097 
z
M 1959 3584 
Q 2709 3584 3137 3096 
Q 3566 2609 3566 1747 
Q 3566 888 3137 398 
Q 2709 -91 1959 -91 
Q 1206 -91 779 398 
Q 353 888 353 1747 
Q 353 2609 779 3096 
Q 1206 3584 1959 3584 
z
" transform="scale(0.015625)"/>
       <path id="DejaVuSans-73" d="M 2834 3397 
L 2834 2853 
Q 2591 2978 2328 3040 
Q 2066 3103 1784 3103 
Q 1356 3103 1142 2972 
Q 928 2841 928 2578 
Q 928 2378 1081 2264 
Q 1234 2150 1697 2047 
L 1894 2003 
Q 2506 1872 2764 1633 
Q 3022 1394 3022 966 
Q 3022 478 2636 193 
Q 2250 -91 1575 -91 
Q 1294 -91 989 -36 
Q 684 19 347 128 
L 347 722 
Q 666 556 975 473 
Q 1284 391 1588 391 
Q 1994 391 2212 530 
Q 2431 669 2431 922 
Q 2431 1156 2273 1281 
Q 2116 1406 1581 1522 
L 1381 1569 
Q 847 1681 609 1914 
Q 372 2147 372 2553 
Q 372 3047 722 3315 
Q 1072 3584 1716 3584 
Q 2034 3584 2315 3537 
Q 2597 3491 2834 3397 
z
" transform="scale(0.015625)"/>
       <path id="DejaVuSans-69" d="M 603 3500 
L 1178 3500 
L 1178 0 
L 603 0 
L 603 3500 
z
M 603 4863 
L 1178 4863 
L 1178 4134 
L 603 4134 
L 603 4863 
z
" transform="scale(0.015625)"/>
       <path id="DejaVuSans-74" d="M 1172 4494 
L 1172 3500 
L 2356 3500 
L 2356 3053 
L 1172 3053 
L 1172 1153 
Q 1172 725 1289 603 
Q 1406 481 1766 481 
L 2356 481 
L 2356 0 
L 1766 0 
Q 1100 0 847 248 
Q 594 497 594 1153 
L 594 3053 
L 172 3053 
L 172 3500 
L 594 3500 
L 594 4494 
L 1172 4494 
z
" transform="scale(0.015625)"/>
       <path id="DejaVuSans-76" d="M 191 3500 
L 800 3500 
L 1894 563 
L 2988 3500 
L 3597 3500 
L 2284 0 
L 1503 0 
L 191 3500 
z
" transform="scale(0.015625)"/>
       <path id="DejaVuSans-65" d="M 3597 1894 
L 3597 1613 
L 953 1613 
Q 991 1019 1311 708 
Q 1631 397 2203 397 
Q 2534 397 2845 478 
Q 3156 559 3463 722 
L 3463 178 
Q 3153 47 2828 -22 
Q 2503 -91 2169 -91 
Q 1331 -91 842 396 
Q 353 884 353 1716 
Q 353 2575 817 3079 
Q 1281 3584 2069 3584 
Q 2775 3584 3186 3129 
Q 3597 2675 3597 1894 
z
M 3022 2063 
Q 3016 2534 2758 2815 
Q 2500 3097 2075 3097 
Q 1594 3097 1305 2825 
Q 1016 2553 972 2059 
L 3022 2063 
z
" transform="scale(0.015625)"/>
       <path id="DejaVuSans-20" transform="scale(0.015625)"/>
       <path id="DejaVuSans-63" d="M 3122 3366 
L 3122 2828 
Q 2878 2963 2633 3030 
Q 2388 3097 2138 3097 
Q 1578 3097 1268 2742 
Q 959 2388 959 1747 
Q 959 1106 1268 751 
Q 1578 397 2138 397 
Q 2388 397 2633 464 
Q 2878 531 3122 666 
L 3122 134 
Q 2881 22 2623 -34 
Q 2366 -91 2075 -91 
Q 1284 -91 818 406 
Q 353 903 353 1747 
Q 353 2603 823 3093 
Q 1294 3584 2113 3584 
Q 2378 3584 2631 3529 
Q 2884 3475 3122 3366 
z
" transform="scale(0.015625)"/>
       <path id="DejaVuSans-6c" d="M 603 4863 
L 1178 4863 
L 1178 0 
L 603 0 
L 603 4863 
z
" transform="scale(0.015625)"/>
       <path id="DejaVuSans-61" d="M 2194 1759 
Q 1497 1759 1228 1600 
Q 959 1441 959 1056 
Q 959 750 1161 570 
Q 1363 391 1709 391 
Q 2188 391 2477 730 
Q 2766 1069 2766 1631 
L 2766 1759 
L 2194 1759 
z
M 3341 1997 
L 3341 0 
L 2766 0 
L 2766 531 
Q 2569 213 2275 61 
Q 1981 -91 1556 -91 
Q 1019 -91 701 211 
Q 384 513 384 1019 
Q 384 1609 779 1909 
Q 1175 2209 1959 2209 
L 2766 2209 
L 2766 2266 
Q 2766 2663 2505 2880 
Q 2244 3097 1772 3097 
Q 1472 3097 1187 3025 
Q 903 2953 641 2809 
L 641 3341 
Q 956 3463 1253 3523 
Q 1550 3584 1831 3584 
Q 2591 3584 2966 3190 
Q 3341 2797 3341 1997 
z
" transform="scale(0.015625)"/>
       <path id="DejaVuSans-72" d="M 2631 2963 
Q 2534 3019 2420 3045 
Q 2306 3072 2169 3072 
Q 1681 3072 1420 2755 
Q 1159 2438 1159 1844 
L 1159 0 
L 581 0 
L 581 3500 
L 1159 3500 
L 1159 2956 
Q 1341 3275 1631 3429 
Q 1922 3584 2338 3584 
Q 2397 3584 2469 3576 
Q 2541 3569 2628 3553 
L 2631 2963 
z
" transform="scale(0.015625)"/>
      </defs>
      <use xlink:href="#DejaVuSans-50"/>
      <use xlink:href="#DejaVuSans-6f" transform="translate(56.677734 0)"/>
      <use xlink:href="#DejaVuSans-73" transform="translate(117.859375 0)"/>
      <use xlink:href="#DejaVuSans-69" transform="translate(169.958984 0)"/>
      <use xlink:href="#DejaVuSans-74" transform="translate(197.742188 0)"/>
      <use xlink:href="#DejaVuSans-69" transform="translate(236.951172 0)"/>
      <use xlink:href="#DejaVuSans-76" transform="translate(264.734375 0)"/>
      <use xlink:href="#DejaVuSans-65" transform="translate(323.914062 0)"/>
      <use xlink:href="#DejaVuSans-20" transform="translate(385.4375 0)"/>
      <use xlink:href="#DejaVuSans-63" transform="translate(417.224609 0)"/>
      <use xlink:href="#DejaVuSans-6c" transform="translate(472.205078 0)"/>
      <use xlink:href="#DejaVuSans-61" transform="translate(499.988281 0)"/>
      <use xlink:href="#DejaVuSans-73" transform="translate(561.267578 0)"/>
      <use xlink:href="#DejaVuSans-73" transform="translate(613.367188 0)"/>
      <use xlink:href="#DejaVuSans-20" transform="translate(665.466797 0)"/>
      <use xlink:href="#DejaVuSans-72" transform="translate(697.253906 0)"/>
      <use xlink:href="#DejaVuSans-61" transform="translate(738.367188 0)"/>
      <use xlink:href="#DejaVuSans-74" transform="translate(799.646484 0)"/>
      <use xlink:href="#DejaVuSans-69" transform="translate(838.855469 0)"/>
      <use xlink:href="#DejaVuSans-6f" transform="translate(866.638672 0)"/>
     </g>
    </g>
   </g>
   <g id="matplotlib.axis_2">
    <g id="ytick_1">
     <g id="line2d_7">
      <defs>
       <path id="m09dbb2b56e" d="M 0 0 
L -3.5 0 
" style="stroke: #000000; stroke-width: 0.8"/>
      </defs>
      <g>
       <use xlink:href="#m09dbb2b56e" x="43.78125" y="231.915578" style="stroke: #000000; stroke-width: 0.8"/>
      </g>
     </g>
     <g id="text_8">
      <!-- 0.0 -->
      <g transform="translate(20.878125 235.714797) scale(0.1 -0.1)">
       <use xlink:href="#DejaVuSans-30"/>
       <use xlink:href="#DejaVuSans-2e" transform="translate(63.623047 0)"/>
       <use xlink:href="#DejaVuSans-30" transform="translate(95.410156 0)"/>
      </g>
     </g>
    </g>
    <g id="ytick_2">
     <g id="line2d_8">
      <g>
       <use xlink:href="#m09dbb2b56e" x="43.78125" y="191.988451" style="stroke: #000000; stroke-width: 0.8"/>
      </g>
     </g>
     <g id="text_9">
      <!-- 0.1 -->
      <g transform="translate(20.878125 195.78767) scale(0.1 -0.1)">
       <use xlink:href="#DejaVuSans-30"/>
       <use xlink:href="#DejaVuSans-2e" transform="translate(63.623047 0)"/>
       <use xlink:href="#DejaVuSans-31" transform="translate(95.410156 0)"/>
      </g>
     </g>
    </g>
    <g id="ytick_3">
     <g id="line2d_9">
      <g>
       <use xlink:href="#m09dbb2b56e" x="43.78125" y="152.061324" style="stroke: #000000; stroke-width: 0.8"/>
      </g>
     </g>
     <g id="text_10">
      <!-- 0.2 -->
      <g transform="translate(20.878125 155.860543) scale(0.1 -0.1)">
       <use xlink:href="#DejaVuSans-30"/>
       <use xlink:href="#DejaVuSans-2e" transform="translate(63.623047 0)"/>
       <use xlink:href="#DejaVuSans-32" transform="translate(95.410156 0)"/>
      </g>
     </g>
    </g>
    <g id="ytick_4">
     <g id="line2d_10">
      <g>
       <use xlink:href="#m09dbb2b56e" x="43.78125" y="112.134197" style="stroke: #000000; stroke-width: 0.8"/>
      </g>
     </g>
     <g id="text_11">
      <!-- 0.3 -->
      <g transform="translate(20.878125 115.933416) scale(0.1 -0.1)">
       <use xlink:href="#DejaVuSans-30"/>
       <use xlink:href="#DejaVuSans-2e" transform="translate(63.623047 0)"/>
       <use xlink:href="#DejaVuSans-33" transform="translate(95.410156 0)"/>
      </g>
     </g>
    </g>
    <g id="ytick_5">
     <g id="line2d_11">
      <g>
       <use xlink:href="#m09dbb2b56e" x="43.78125" y="72.20707" style="stroke: #000000; stroke-width: 0.8"/>
      </g>
     </g>
     <g id="text_12">
      <!-- 0.4 -->
      <g transform="translate(20.878125 76.006289) scale(0.1 -0.1)">
       <use xlink:href="#DejaVuSans-30"/>
       <use xlink:href="#DejaVuSans-2e" transform="translate(63.623047 0)"/>
       <use xlink:href="#DejaVuSans-34" transform="translate(95.410156 0)"/>
      </g>
     </g>
    </g>
    <g id="ytick_6">
     <g id="line2d_12">
      <g>
       <use xlink:href="#m09dbb2b56e" x="43.78125" y="32.279943" style="stroke: #000000; stroke-width: 0.8"/>
      </g>
     </g>
     <g id="text_13">
      <!-- 0.5 -->
      <g transform="translate(20.878125 36.079162) scale(0.1 -0.1)">
       <use xlink:href="#DejaVuSans-30"/>
       <use xlink:href="#DejaVuSans-2e" transform="translate(63.623047 0)"/>
       <use xlink:href="#DejaVuSans-35" transform="translate(95.410156 0)"/>
      </g>
     </g>
    </g>
    <g id="text_14">
     <!-- Random baseline of the metric -->
     <g transform="translate(14.798438 209.021563) rotate(-90) scale(0.1 -0.1)">
      <defs>
       <path id="DejaVuSans-52" d="M 2841 2188 
Q 3044 2119 3236 1894 
Q 3428 1669 3622 1275 
L 4263 0 
L 3584 0 
L 2988 1197 
Q 2756 1666 2539 1819 
Q 2322 1972 1947 1972 
L 1259 1972 
L 1259 0 
L 628 0 
L 628 4666 
L 2053 4666 
Q 2853 4666 3247 4331 
Q 3641 3997 3641 3322 
Q 3641 2881 3436 2590 
Q 3231 2300 2841 2188 
z
M 1259 4147 
L 1259 2491 
L 2053 2491 
Q 2509 2491 2742 2702 
Q 2975 2913 2975 3322 
Q 2975 3731 2742 3939 
Q 2509 4147 2053 4147 
L 1259 4147 
z
" transform="scale(0.015625)"/>
       <path id="DejaVuSans-6e" d="M 3513 2113 
L 3513 0 
L 2938 0 
L 2938 2094 
Q 2938 2591 2744 2837 
Q 2550 3084 2163 3084 
Q 1697 3084 1428 2787 
Q 1159 2491 1159 1978 
L 1159 0 
L 581 0 
L 581 3500 
L 1159 3500 
L 1159 2956 
Q 1366 3272 1645 3428 
Q 1925 3584 2291 3584 
Q 2894 3584 3203 3211 
Q 3513 2838 3513 2113 
z
" transform="scale(0.015625)"/>
       <path id="DejaVuSans-64" d="M 2906 2969 
L 2906 4863 
L 3481 4863 
L 3481 0 
L 2906 0 
L 2906 525 
Q 2725 213 2448 61 
Q 2172 -91 1784 -91 
Q 1150 -91 751 415 
Q 353 922 353 1747 
Q 353 2572 751 3078 
Q 1150 3584 1784 3584 
Q 2172 3584 2448 3432 
Q 2725 3281 2906 2969 
z
M 947 1747 
Q 947 1113 1208 752 
Q 1469 391 1925 391 
Q 2381 391 2643 752 
Q 2906 1113 2906 1747 
Q 2906 2381 2643 2742 
Q 2381 3103 1925 3103 
Q 1469 3103 1208 2742 
Q 947 2381 947 1747 
z
" transform="scale(0.015625)"/>
       <path id="DejaVuSans-6d" d="M 3328 2828 
Q 3544 3216 3844 3400 
Q 4144 3584 4550 3584 
Q 5097 3584 5394 3201 
Q 5691 2819 5691 2113 
L 5691 0 
L 5113 0 
L 5113 2094 
Q 5113 2597 4934 2840 
Q 4756 3084 4391 3084 
Q 3944 3084 3684 2787 
Q 3425 2491 3425 1978 
L 3425 0 
L 2847 0 
L 2847 2094 
Q 2847 2600 2669 2842 
Q 2491 3084 2119 3084 
Q 1678 3084 1418 2786 
Q 1159 2488 1159 1978 
L 1159 0 
L 581 0 
L 581 3500 
L 1159 3500 
L 1159 2956 
Q 1356 3278 1631 3431 
Q 1906 3584 2284 3584 
Q 2666 3584 2933 3390 
Q 3200 3197 3328 2828 
z
" transform="scale(0.015625)"/>
       <path id="DejaVuSans-62" d="M 3116 1747 
Q 3116 2381 2855 2742 
Q 2594 3103 2138 3103 
Q 1681 3103 1420 2742 
Q 1159 2381 1159 1747 
Q 1159 1113 1420 752 
Q 1681 391 2138 391 
Q 2594 391 2855 752 
Q 3116 1113 3116 1747 
z
M 1159 2969 
Q 1341 3281 1617 3432 
Q 1894 3584 2278 3584 
Q 2916 3584 3314 3078 
Q 3713 2572 3713 1747 
Q 3713 922 3314 415 
Q 2916 -91 2278 -91 
Q 1894 -91 1617 61 
Q 1341 213 1159 525 
L 1159 0 
L 581 0 
L 581 4863 
L 1159 4863 
L 1159 2969 
z
" transform="scale(0.015625)"/>
       <path id="DejaVuSans-66" d="M 2375 4863 
L 2375 4384 
L 1825 4384 
Q 1516 4384 1395 4259 
Q 1275 4134 1275 3809 
L 1275 3500 
L 2222 3500 
L 2222 3053 
L 1275 3053 
L 1275 0 
L 697 0 
L 697 3053 
L 147 3053 
L 147 3500 
L 697 3500 
L 697 3744 
Q 697 4328 969 4595 
Q 1241 4863 1831 4863 
L 2375 4863 
z
" transform="scale(0.015625)"/>
       <path id="DejaVuSans-68" d="M 3513 2113 
L 3513 0 
L 2938 0 
L 2938 2094 
Q 2938 2591 2744 2837 
Q 2550 3084 2163 3084 
Q 1697 3084 1428 2787 
Q 1159 2491 1159 1978 
L 1159 0 
L 581 0 
L 581 4863 
L 1159 4863 
L 1159 2956 
Q 1366 3272 1645 3428 
Q 1925 3584 2291 3584 
Q 2894 3584 3203 3211 
Q 3513 2838 3513 2113 
z
" transform="scale(0.015625)"/>
      </defs>
      <use xlink:href="#DejaVuSans-52"/>
      <use xlink:href="#DejaVuSans-61" transform="translate(67.232422 0)"/>
      <use xlink:href="#DejaVuSans-6e" transform="translate(128.511719 0)"/>
      <use xlink:href="#DejaVuSans-64" transform="translate(191.890625 0)"/>
      <use xlink:href="#DejaVuSans-6f" transform="translate(255.367188 0)"/>
      <use xlink:href="#DejaVuSans-6d" transform="translate(316.548828 0)"/>
      <use xlink:href="#DejaVuSans-20" transform="translate(413.960938 0)"/>
      <use xlink:href="#DejaVuSans-62" transform="translate(445.748047 0)"/>
      <use xlink:href="#DejaVuSans-61" transform="translate(509.224609 0)"/>
      <use xlink:href="#DejaVuSans-73" transform="translate(570.503906 0)"/>
      <use xlink:href="#DejaVuSans-65" transform="translate(622.603516 0)"/>
      <use xlink:href="#DejaVuSans-6c" transform="translate(684.126953 0)"/>
      <use xlink:href="#DejaVuSans-69" transform="translate(711.910156 0)"/>
      <use xlink:href="#DejaVuSans-6e" transform="translate(739.693359 0)"/>
      <use xlink:href="#DejaVuSans-65" transform="translate(803.072266 0)"/>
      <use xlink:href="#DejaVuSans-20" transform="translate(864.595703 0)"/>
      <use xlink:href="#DejaVuSans-6f" transform="translate(896.382812 0)"/>
      <use xlink:href="#DejaVuSans-66" transform="translate(957.564453 0)"/>
      <use xlink:href="#DejaVuSans-20" transform="translate(992.769531 0)"/>
      <use xlink:href="#DejaVuSans-74" transform="translate(1024.556641 0)"/>
      <use xlink:href="#DejaVuSans-68" transform="translate(1063.765625 0)"/>
      <use xlink:href="#DejaVuSans-65" transform="translate(1127.144531 0)"/>
      <use xlink:href="#DejaVuSans-20" transform="translate(1188.667969 0)"/>
      <use xlink:href="#DejaVuSans-6d" transform="translate(1220.455078 0)"/>
      <use xlink:href="#DejaVuSans-65" transform="translate(1317.867188 0)"/>
      <use xlink:href="#DejaVuSans-74" transform="translate(1379.390625 0)"/>
      <use xlink:href="#DejaVuSans-72" transform="translate(1418.599609 0)"/>
      <use xlink:href="#DejaVuSans-69" transform="translate(1459.712891 0)"/>
      <use xlink:href="#DejaVuSans-63" transform="translate(1487.496094 0)"/>
     </g>
    </g>
   </g>
   <g id="line2d_13">
    <path d="M 60.757614 231.516307 
L 400.284886 32.279943 
L 400.284886 32.279943 
" clip-path="url(#p3d39825096)" style="fill: none; stroke: #e15759; stroke-width: 2; stroke-linecap: square"/>
   </g>
   <g id="line2d_14">
    <path d="M 43.78125 32.279943 
L 417.26125 32.279943 
" clip-path="url(#p3d39825096)" style="fill: none; stroke-dasharray: 7.4,3.2; stroke-dashoffset: 0; stroke: #7aa6c2; stroke-width: 2"/>
   </g>
   <g id="patch_3">
    <path d="M 43.78125 241.478125 
L 43.78125 22.318125 
" style="fill: none; stroke: #000000; stroke-width: 0.8; stroke-linejoin: miter; stroke-linecap: square"/>
   </g>
   <g id="patch_4">
    <path d="M 417.26125 241.478125 
L 417.26125 22.318125 
" style="fill: none; stroke: #000000; stroke-width: 0.8; stroke-linejoin: miter; stroke-linecap: square"/>
   </g>
   <g id="patch_5">
    <path d="M 43.78125 241.478125 
L 417.26125 241.478125 
" style="fill: none; stroke: #000000; stroke-width: 0.8; stroke-linejoin: miter; stroke-linecap: square"/>
   </g>
   <g id="patch_6">
    <path d="M 43.78125 22.318125 
L 417.26125 22.318125 
" style="fill: none; stroke: #000000; stroke-width: 0.8; stroke-linejoin: miter; stroke-linecap: square"/>
   </g>
   <g id="text_15">
    <!-- Random baselines differ: ROC fixed at 0.5, PR moves with ratio -->
    <g transform="translate(41.145313 16.318125) scale(0.12 -0.12)">
     <defs>
      <path id="DejaVuSans-3a" d="M 750 794 
L 1409 794 
L 1409 0 
L 750 0 
L 750 794 
z
M 750 3309 
L 1409 3309 
L 1409 2516 
L 750 2516 
L 750 3309 
z
" transform="scale(0.015625)"/>
      <path id="DejaVuSans-4f" d="M 2522 4238 
Q 1834 4238 1429 3725 
Q 1025 3213 1025 2328 
Q 1025 1447 1429 934 
Q 1834 422 2522 422 
Q 3209 422 3611 934 
Q 4013 1447 4013 2328 
Q 4013 3213 3611 3725 
Q 3209 4238 2522 4238 
z
M 2522 4750 
Q 3503 4750 4090 4092 
Q 4678 3434 4678 2328 
Q 4678 1225 4090 567 
Q 3503 -91 2522 -91 
Q 1538 -91 948 565 
Q 359 1222 359 2328 
Q 359 3434 948 4092 
Q 1538 4750 2522 4750 
z
" transform="scale(0.015625)"/>
      <path id="DejaVuSans-43" d="M 4122 4306 
L 4122 3641 
Q 3803 3938 3442 4084 
Q 3081 4231 2675 4231 
Q 1875 4231 1450 3742 
Q 1025 3253 1025 2328 
Q 1025 1406 1450 917 
Q 1875 428 2675 428 
Q 3081 428 3442 575 
Q 3803 722 4122 1019 
L 4122 359 
Q 3791 134 3420 21 
Q 3050 -91 2638 -91 
Q 1578 -91 968 557 
Q 359 1206 359 2328 
Q 359 3453 968 4101 
Q 1578 4750 2638 4750 
Q 3056 4750 3426 4639 
Q 3797 4528 4122 4306 
z
" transform="scale(0.015625)"/>
      <path id="DejaVuSans-78" d="M 3513 3500 
L 2247 1797 
L 3578 0 
L 2900 0 
L 1881 1375 
L 863 0 
L 184 0 
L 1544 1831 
L 300 3500 
L 978 3500 
L 1906 2253 
L 2834 3500 
L 3513 3500 
z
" transform="scale(0.015625)"/>
      <path id="DejaVuSans-2c" d="M 750 794 
L 1409 794 
L 1409 256 
L 897 -744 
L 494 -744 
L 750 256 
L 750 794 
z
" transform="scale(0.015625)"/>
      <path id="DejaVuSans-77" d="M 269 3500 
L 844 3500 
L 1563 769 
L 2278 3500 
L 2956 3500 
L 3675 769 
L 4391 3500 
L 4966 3500 
L 4050 0 
L 3372 0 
L 2619 2869 
L 1863 0 
L 1184 0 
L 269 3500 
z
" transform="scale(0.015625)"/>
     </defs>
     <use xlink:href="#DejaVuSans-52"/>
     <use xlink:href="#DejaVuSans-61" transform="translate(67.232422 0)"/>
     <use xlink:href="#DejaVuSans-6e" transform="translate(128.511719 0)"/>
     <use xlink:href="#DejaVuSans-64" transform="translate(191.890625 0)"/>
     <use xlink:href="#DejaVuSans-6f" transform="translate(255.367188 0)"/>
     <use xlink:href="#DejaVuSans-6d" transform="translate(316.548828 0)"/>
     <use xlink:href="#DejaVuSans-20" transform="translate(413.960938 0)"/>
     <use xlink:href="#DejaVuSans-62" transform="translate(445.748047 0)"/>
     <use xlink:href="#DejaVuSans-61" transform="translate(509.224609 0)"/>
     <use xlink:href="#DejaVuSans-73" transform="translate(570.503906 0)"/>
     <use xlink:href="#DejaVuSans-65" transform="translate(622.603516 0)"/>
     <use xlink:href="#DejaVuSans-6c" transform="translate(684.126953 0)"/>
     <use xlink:href="#DejaVuSans-69" transform="translate(711.910156 0)"/>
     <use xlink:href="#DejaVuSans-6e" transform="translate(739.693359 0)"/>
     <use xlink:href="#DejaVuSans-65" transform="translate(803.072266 0)"/>
     <use xlink:href="#DejaVuSans-73" transform="translate(864.595703 0)"/>
     <use xlink:href="#DejaVuSans-20" transform="translate(916.695312 0)"/>
     <use xlink:href="#DejaVuSans-64" transform="translate(948.482422 0)"/>
     <use xlink:href="#DejaVuSans-69" transform="translate(1011.958984 0)"/>
     <use xlink:href="#DejaVuSans-66" transform="translate(1039.742188 0)"/>
     <use xlink:href="#DejaVuSans-66" transform="translate(1074.947266 0)"/>
     <use xlink:href="#DejaVuSans-65" transform="translate(1110.152344 0)"/>
     <use xlink:href="#DejaVuSans-72" transform="translate(1171.675781 0)"/>
     <use xlink:href="#DejaVuSans-3a" transform="translate(1211.039062 0)"/>
     <use xlink:href="#DejaVuSans-20" transform="translate(1244.730469 0)"/>
     <use xlink:href="#DejaVuSans-52" transform="translate(1276.517578 0)"/>
     <use xlink:href="#DejaVuSans-4f" transform="translate(1346 0)"/>
     <use xlink:href="#DejaVuSans-43" transform="translate(1424.710938 0)"/>
     <use xlink:href="#DejaVuSans-20" transform="translate(1494.535156 0)"/>
     <use xlink:href="#DejaVuSans-66" transform="translate(1526.322266 0)"/>
     <use xlink:href="#DejaVuSans-69" transform="translate(1561.527344 0)"/>
     <use xlink:href="#DejaVuSans-78" transform="translate(1589.310547 0)"/>
     <use xlink:href="#DejaVuSans-65" transform="translate(1645.365234 0)"/>
     <use xlink:href="#DejaVuSans-64" transform="translate(1706.888672 0)"/>
     <use xlink:href="#DejaVuSans-20" transform="translate(1770.365234 0)"/>
     <use xlink:href="#DejaVuSans-61" transform="translate(1802.152344 0)"/>
     <use xlink:href="#DejaVuSans-74" transform="translate(1863.431641 0)"/>
     <use xlink:href="#DejaVuSans-20" transform="translate(1902.640625 0)"/>
     <use xlink:href="#DejaVuSans-30" transform="translate(1934.427734 0)"/>
     <use xlink:href="#DejaVuSans-2e" transform="translate(1998.050781 0)"/>
     <use xlink:href="#DejaVuSans-35" transform="translate(2029.837891 0)"/>
     <use xlink:href="#DejaVuSans-2c" transform="translate(2093.460938 0)"/>
     <use xlink:href="#DejaVuSans-20" transform="translate(2125.248047 0)"/>
     <use xlink:href="#DejaVuSans-50" transform="translate(2157.035156 0)"/>
     <use xlink:href="#DejaVuSans-52" transform="translate(2217.337891 0)"/>
     <use xlink:href="#DejaVuSans-20" transform="translate(2286.820312 0)"/>
     <use xlink:href="#DejaVuSans-6d" transform="translate(2318.607422 0)"/>
     <use xlink:href="#DejaVuSans-6f" transform="translate(2416.019531 0)"/>
     <use xlink:href="#DejaVuSans-76" transform="translate(2477.201172 0)"/>
     <use xlink:href="#DejaVuSans-65" transform="translate(2536.380859 0)"/>
     <use xlink:href="#DejaVuSans-73" transform="translate(2597.904297 0)"/>
     <use xlink:href="#DejaVuSans-20" transform="translate(2650.003906 0)"/>
     <use xlink:href="#DejaVuSans-77" transform="translate(2681.791016 0)"/>
     <use xlink:href="#DejaVuSans-69" transform="translate(2763.578125 0)"/>
     <use xlink:href="#DejaVuSans-74" transform="translate(2791.361328 0)"/>
     <use xlink:href="#DejaVuSans-68" transform="translate(2830.570312 0)"/>
     <use xlink:href="#DejaVuSans-20" transform="translate(2893.949219 0)"/>
     <use xlink:href="#DejaVuSans-72" transform="translate(2925.736328 0)"/>
     <use xlink:href="#DejaVuSans-61" transform="translate(2966.849609 0)"/>
     <use xlink:href="#DejaVuSans-74" transform="translate(3028.128906 0)"/>
     <use xlink:href="#DejaVuSans-69" transform="translate(3067.337891 0)"/>
     <use xlink:href="#DejaVuSans-6f" transform="translate(3095.121094 0)"/>
    </g>
   </g>
   <g id="legend_1">
    <g id="patch_7">
     <path d="M 204.88 236.478125 
L 410.26125 236.478125 
Q 412.26125 236.478125 412.26125 234.478125 
L 412.26125 206.121875 
Q 412.26125 204.121875 410.26125 204.121875 
L 204.88 204.121875 
Q 202.88 204.121875 202.88 206.121875 
L 202.88 234.478125 
Q 202.88 236.478125 204.88 236.478125 
z
" style="fill: #ffffff; opacity: 0.8; stroke: #cccccc; stroke-linejoin: miter"/>
    </g>
    <g id="line2d_15">
     <path d="M 206.88 212.220313 
L 216.88 212.220313 
L 226.88 212.220313 
" style="fill: none; stroke: #e15759; stroke-width: 2; stroke-linecap: square"/>
    </g>
    <g id="text_16">
     <!-- PR-AUC random = positive ratio -->
     <g transform="translate(234.88 215.720313) scale(0.1 -0.1)">
      <defs>
       <path id="DejaVuSans-2d" d="M 313 2009 
L 1997 2009 
L 1997 1497 
L 313 1497 
L 313 2009 
z
" transform="scale(0.015625)"/>
       <path id="DejaVuSans-41" d="M 2188 4044 
L 1331 1722 
L 3047 1722 
L 2188 4044 
z
M 1831 4666 
L 2547 4666 
L 4325 0 
L 3669 0 
L 3244 1197 
L 1141 1197 
L 716 0 
L 50 0 
L 1831 4666 
z
" transform="scale(0.015625)"/>
       <path id="DejaVuSans-55" d="M 556 4666 
L 1191 4666 
L 1191 1831 
Q 1191 1081 1462 751 
Q 1734 422 2344 422 
Q 2950 422 3222 751 
Q 3494 1081 3494 1831 
L 3494 4666 
L 4128 4666 
L 4128 1753 
Q 4128 841 3676 375 
Q 3225 -91 2344 -91 
Q 1459 -91 1007 375 
Q 556 841 556 1753 
L 556 4666 
z
" transform="scale(0.015625)"/>
       <path id="DejaVuSans-3d" d="M 678 2906 
L 4684 2906 
L 4684 2381 
L 678 2381 
L 678 2906 
z
M 678 1631 
L 4684 1631 
L 4684 1100 
L 678 1100 
L 678 1631 
z
" transform="scale(0.015625)"/>
       <path id="DejaVuSans-70" d="M 1159 525 
L 1159 -1331 
L 581 -1331 
L 581 3500 
L 1159 3500 
L 1159 2969 
Q 1341 3281 1617 3432 
Q 1894 3584 2278 3584 
Q 2916 3584 3314 3078 
Q 3713 2572 3713 1747 
Q 3713 922 3314 415 
Q 2916 -91 2278 -91 
Q 1894 -91 1617 61 
Q 1341 213 1159 525 
z
M 3116 1747 
Q 3116 2381 2855 2742 
Q 2594 3103 2138 3103 
Q 1681 3103 1420 2742 
Q 1159 2381 1159 1747 
Q 1159 1113 1420 752 
Q 1681 391 2138 391 
Q 2594 391 2855 752 
Q 3116 1113 3116 1747 
z
" transform="scale(0.015625)"/>
      </defs>
      <use xlink:href="#DejaVuSans-50"/>
      <use xlink:href="#DejaVuSans-52" transform="translate(60.302734 0)"/>
      <use xlink:href="#DejaVuSans-2d" transform="translate(125.785156 0)"/>
      <use xlink:href="#DejaVuSans-41" transform="translate(159.619141 0)"/>
      <use xlink:href="#DejaVuSans-55" transform="translate(228.027344 0)"/>
      <use xlink:href="#DejaVuSans-43" transform="translate(301.220703 0)"/>
      <use xlink:href="#DejaVuSans-20" transform="translate(371.044922 0)"/>
      <use xlink:href="#DejaVuSans-72" transform="translate(402.832031 0)"/>
      <use xlink:href="#DejaVuSans-61" transform="translate(443.945312 0)"/>
      <use xlink:href="#DejaVuSans-6e" transform="translate(505.224609 0)"/>
      <use xlink:href="#DejaVuSans-64" transform="translate(568.603516 0)"/>
      <use xlink:href="#DejaVuSans-6f" transform="translate(632.080078 0)"/>
      <use xlink:href="#DejaVuSans-6d" transform="translate(693.261719 0)"/>
      <use xlink:href="#DejaVuSans-20" transform="translate(790.673828 0)"/>
      <use xlink:href="#DejaVuSans-3d" transform="translate(822.460938 0)"/>
      <use xlink:href="#DejaVuSans-20" transform="translate(906.25 0)"/>
      <use xlink:href="#DejaVuSans-70" transform="translate(938.037109 0)"/>
      <use xlink:href="#DejaVuSans-6f" transform="translate(1001.513672 0)"/>
      <use xlink:href="#DejaVuSans-73" transform="translate(1062.695312 0)"/>
      <use xlink:href="#DejaVuSans-69" transform="translate(1114.794922 0)"/>
      <use xlink:href="#DejaVuSans-74" transform="translate(1142.578125 0)"/>
      <use xlink:href="#DejaVuSans-69" transform="translate(1181.787109 0)"/>
      <use xlink:href="#DejaVuSans-76" transform="translate(1209.570312 0)"/>
      <use xlink:href="#DejaVuSans-65" transform="translate(1268.75 0)"/>
      <use xlink:href="#DejaVuSans-20" transform="translate(1330.273438 0)"/>
      <use xlink:href="#DejaVuSans-72" transform="translate(1362.060547 0)"/>
      <use xlink:href="#DejaVuSans-61" transform="translate(1403.173828 0)"/>
      <use xlink:href="#DejaVuSans-74" transform="translate(1464.453125 0)"/>
      <use xlink:href="#DejaVuSans-69" transform="translate(1503.662109 0)"/>
      <use xlink:href="#DejaVuSans-6f" transform="translate(1531.445312 0)"/>
     </g>
    </g>
    <g id="line2d_16">
     <path d="M 206.88 226.898438 
L 216.88 226.898438 
L 226.88 226.898438 
" style="fill: none; stroke-dasharray: 7.4,3.2; stroke-dashoffset: 0; stroke: #7aa6c2; stroke-width: 2"/>
    </g>
    <g id="text_17">
     <!-- ROC-AUC random = 0.5 (constant) -->
     <g transform="translate(234.88 230.398438) scale(0.1 -0.1)">
      <defs>
       <path id="DejaVuSans-28" d="M 1984 4856 
Q 1566 4138 1362 3434 
Q 1159 2731 1159 2009 
Q 1159 1288 1364 580 
Q 1569 -128 1984 -844 
L 1484 -844 
Q 1016 -109 783 600 
Q 550 1309 550 2009 
Q 550 2706 781 3412 
Q 1013 4119 1484 4856 
L 1984 4856 
z
" transform="scale(0.015625)"/>
       <path id="DejaVuSans-29" d="M 513 4856 
L 1013 4856 
Q 1481 4119 1714 3412 
Q 1947 2706 1947 2009 
Q 1947 1309 1714 600 
Q 1481 -109 1013 -844 
L 513 -844 
Q 928 -128 1133 580 
Q 1338 1288 1338 2009 
Q 1338 2731 1133 3434 
Q 928 4138 513 4856 
z
" transform="scale(0.015625)"/>
      </defs>
      <use xlink:href="#DejaVuSans-52"/>
      <use xlink:href="#DejaVuSans-4f" transform="translate(69.482422 0)"/>
      <use xlink:href="#DejaVuSans-43" transform="translate(148.193359 0)"/>
      <use xlink:href="#DejaVuSans-2d" transform="translate(218.017578 0)"/>
      <use xlink:href="#DejaVuSans-41" transform="translate(251.851562 0)"/>
      <use xlink:href="#DejaVuSans-55" transform="translate(320.259766 0)"/>
      <use xlink:href="#DejaVuSans-43" transform="translate(393.453125 0)"/>
      <use xlink:href="#DejaVuSans-20" transform="translate(463.277344 0)"/>
      <use xlink:href="#DejaVuSans-72" transform="translate(495.064453 0)"/>
      <use xlink:href="#DejaVuSans-61" transform="translate(536.177734 0)"/>
      <use xlink:href="#DejaVuSans-6e" transform="translate(597.457031 0)"/>
      <use xlink:href="#DejaVuSans-64" transform="translate(660.835938 0)"/>
      <use xlink:href="#DejaVuSans-6f" transform="translate(724.3125 0)"/>
      <use xlink:href="#DejaVuSans-6d" transform="translate(785.494141 0)"/>
      <use xlink:href="#DejaVuSans-20" transform="translate(882.90625 0)"/>
      <use xlink:href="#DejaVuSans-3d" transform="translate(914.693359 0)"/>
      <use xlink:href="#DejaVuSans-20" transform="translate(998.482422 0)"/>
      <use xlink:href="#DejaVuSans-30" transform="translate(1030.269531 0)"/>
      <use xlink:href="#DejaVuSans-2e" transform="translate(1093.892578 0)"/>
      <use xlink:href="#DejaVuSans-35" transform="translate(1125.679688 0)"/>
      <use xlink:href="#DejaVuSans-20" transform="translate(1189.302734 0)"/>
      <use xlink:href="#DejaVuSans-28" transform="translate(1221.089844 0)"/>
      <use xlink:href="#DejaVuSans-63" transform="translate(1260.103516 0)"/>
      <use xlink:href="#DejaVuSans-6f" transform="translate(1315.083984 0)"/>
      <use xlink:href="#DejaVuSans-6e" transform="translate(1376.265625 0)"/>
      <use xlink:href="#DejaVuSans-73" transform="translate(1439.644531 0)"/>
      <use xlink:href="#DejaVuSans-74" transform="translate(1491.744141 0)"/>
      <use xlink:href="#DejaVuSans-61" transform="translate(1530.953125 0)"/>
      <use xlink:href="#DejaVuSans-6e" transform="translate(1592.232422 0)"/>
      <use xlink:href="#DejaVuSans-74" transform="translate(1655.611328 0)"/>
      <use xlink:href="#DejaVuSans-29" transform="translate(1694.820312 0)"/>
     </g>
    </g>
   </g>
  </g>
 </g>
 <defs>
  <clipPath id="p3d39825096">
   <rect x="43.78125" y="22.318125" width="373.48" height="219.16"/>
  </clipPath>
 </defs>
</svg>
