<?xml version="1.0" encoding="utf-8" standalone="no"?>
<!DOCTYPE svg PUBLIC "-//W3C//DTD SVG 1.1//EN"
  "http://www.w3.org/Graphics/SVG/1.1/DTD/svg11.dtd">
<svg xmlns:xlink="http://www.w3.org/1999/xlink" width="928.962813pt" height="315.43625pt" viewBox="0 0 928.962813 315.43625" xmlns="http://www.w3.org/2000/svg" version="1.1">
 <metadata>
  <rdf:RDF xmlns:dc="http://purl.org/dc/elements/1.1/" xmlns:cc="http://creativecommons.org/ns#" xmlns:rdf="http://www.w3.org/1999/02/22-rdf-syntax-ns#">
   <cc:Work>
    <dc:type rdf:resource="http://purl.org/dc/dcmitype/StillImage"/>
    <dc:date>2026-05-26T13:36:12.146468</dc:date>
    <dc:format>image/svg+xml</dc:format>
    <dc:creator>
     <cc:Agent>
      <dc:title>Matplotlib v3.10.8, https://matplotlib.org/</dc:title>
     </cc:Agent>
    </dc:creator>
   </cc:Work>
  </rdf:RDF>
 </metadata>
 <defs>
  <style type="text/css">*{stroke-linejoin: round; stroke-linecap: butt}</style>
 </defs>
 <g id="figure_1">
  <g id="patch_1">
   <path d="M 0 315.43625 
L 928.962813 315.43625 
L 928.962813 0 
L 0 0 
z
" style="fill: #ffffff"/>
  </g>
  <g id="axes_1">
   <g id="patch_2">
    <path d="M 38.482813 291.558125 
L 459.117813 291.558125 
L 459.117813 22.318125 
L 38.482813 22.318125 
z
" style="fill: #ffffff"/>
   </g>
   <g id="matplotlib.axis_1">
    <g id="xtick_1">
     <g id="line2d_1">
      <path d="M 57.602585 291.558125 
L 57.602585 22.318125 
" clip-path="url(#p9314d6dacc)" style="fill: none; stroke: #b0b0b0; stroke-opacity: 0.25; stroke-width: 0.8; stroke-linecap: square"/>
     </g>
     <g id="line2d_2">
      <defs>
       <path id="mb53d39f4a8" d="M 0 0 
L 0 3.5 
" style="stroke: #000000; stroke-width: 0.8"/>
      </defs>
      <g>
       <use xlink:href="#mb53d39f4a8" x="57.602585" y="291.558125" style="stroke: #000000; stroke-width: 0.8"/>
      </g>
     </g>
     <g id="text_1">
      <!-- −2.0 -->
      <g transform="translate(45.461179 306.156563) scale(0.1 -0.1)">
       <defs>
        <path id="DejaVuSans-2212" d="M 678 2272 
L 4684 2272 
L 4684 1741 
L 678 1741 
L 678 2272 
z
" transform="scale(0.015625)"/>
        <path id="DejaVuSans-32" d="M 1228 531 
L 3431 531 
L 3431 0 
L 469 0 
L 469 531 
Q 828 903 1448 1529 
Q 2069 2156 2228 2338 
Q 2531 2678 2651 2914 
Q 2772 3150 2772 3378 
Q 2772 3750 2511 3984 
Q 2250 4219 1831 4219 
Q 1534 4219 1204 4116 
Q 875 4013 500 3803 
L 500 4441 
Q 881 4594 1212 4672 
Q 1544 4750 1819 4750 
Q 2544 4750 2975 4387 
Q 3406 4025 3406 3419 
Q 3406 3131 3298 2873 
Q 3191 2616 2906 2266 
Q 2828 2175 2409 1742 
Q 1991 1309 1228 531 
z
" transform="scale(0.015625)"/>
        <path id="DejaVuSans-2e" d="M 684 794 
L 1344 794 
L 1344 0 
L 684 0 
L 684 794 
z
" transform="scale(0.015625)"/>
        <path id="DejaVuSans-30" d="M 2034 4250 
Q 1547 4250 1301 3770 
Q 1056 3291 1056 2328 
Q 1056 1369 1301 889 
Q 1547 409 2034 409 
Q 2525 409 2770 889 
Q 3016 1369 3016 2328 
Q 3016 3291 2770 3770 
Q 2525 4250 2034 4250 
z
M 2034 4750 
Q 2819 4750 3233 4129 
Q 3647 3509 3647 2328 
Q 3647 1150 3233 529 
Q 2819 -91 2034 -91 
Q 1250 -91 836 529 
Q 422 1150 422 2328 
Q 422 3509 836 4129 
Q 1250 4750 2034 4750 
z
" transform="scale(0.015625)"/>
       </defs>
       <use xlink:href="#DejaVuSans-2212"/>
       <use xlink:href="#DejaVuSans-32" transform="translate(83.789062 0)"/>
       <use xlink:href="#DejaVuSans-2e" transform="translate(147.412109 0)"/>
       <use xlink:href="#DejaVuSans-30" transform="translate(179.199219 0)"/>
      </g>
     </g>
    </g>
    <g id="xtick_2">
     <g id="line2d_3">
      <path d="M 105.402017 291.558125 
L 105.402017 22.318125 
" clip-path="url(#p9314d6dacc)" style="fill: none; stroke: #b0b0b0; stroke-opacity: 0.25; stroke-width: 0.8; stroke-linecap: square"/>
     </g>
     <g id="line2d_4">
      <g>
       <use xlink:href="#mb53d39f4a8" x="105.402017" y="291.558125" style="stroke: #000000; stroke-width: 0.8"/>
      </g>
     </g>
     <g id="text_2">
      <!-- −1.5 -->
      <g transform="translate(93.260611 306.156563) scale(0.1 -0.1)">
       <defs>
        <path id="DejaVuSans-31" d="M 794 531 
L 1825 531 
L 1825 4091 
L 703 3866 
L 703 4441 
L 1819 4666 
L 2450 4666 
L 2450 531 
L 3481 531 
L 3481 0 
L 794 0 
L 794 531 
z
" transform="scale(0.015625)"/>
        <path id="DejaVuSans-35" d="M 691 4666 
L 3169 4666 
L 3169 4134 
L 1269 4134 
L 1269 2991 
Q 1406 3038 1543 3061 
Q 1681 3084 1819 3084 
Q 2600 3084 3056 2656 
Q 3513 2228 3513 1497 
Q 3513 744 3044 326 
Q 2575 -91 1722 -91 
Q 1428 -91 1123 -41 
Q 819 9 494 109 
L 494 744 
Q 775 591 1075 516 
Q 1375 441 1709 441 
Q 2250 441 2565 725 
Q 2881 1009 2881 1497 
Q 2881 1984 2565 2268 
Q 2250 2553 1709 2553 
Q 1456 2553 1204 2497 
Q 953 2441 691 2322 
L 691 4666 
z
" transform="scale(0.015625)"/>
       </defs>
       <use xlink:href="#DejaVuSans-2212"/>
       <use xlink:href="#DejaVuSans-31" transform="translate(83.789062 0)"/>
       <use xlink:href="#DejaVuSans-2e" transform="translate(147.412109 0)"/>
       <use xlink:href="#DejaVuSans-35" transform="translate(179.199219 0)"/>
      </g>
     </g>
    </g>
    <g id="xtick_3">
     <g id="line2d_5">
      <path d="M 153.201449 291.558125 
L 153.201449 22.318125 
" clip-path="url(#p9314d6dacc)" style="fill: none; stroke: #b0b0b0; stroke-opacity: 0.25; stroke-width: 0.8; stroke-linecap: square"/>
     </g>
     <g id="line2d_6">
      <g>
       <use xlink:href="#mb53d39f4a8" x="153.201449" y="291.558125" style="stroke: #000000; stroke-width: 0.8"/>
      </g>
     </g>
     <g id="text_3">
      <!-- −1.0 -->
      <g transform="translate(141.060043 306.156563) scale(0.1 -0.1)">
       <use xlink:href="#DejaVuSans-2212"/>
       <use xlink:href="#DejaVuSans-31" transform="translate(83.789062 0)"/>
       <use xlink:href="#DejaVuSans-2e" transform="translate(147.412109 0)"/>
       <use xlink:href="#DejaVuSans-30" transform="translate(179.199219 0)"/>
      </g>
     </g>
    </g>
    <g id="xtick_4">
     <g id="line2d_7">
      <path d="M 201.000881 291.558125 
L 201.000881 22.318125 
" clip-path="url(#p9314d6dacc)" style="fill: none; stroke: #b0b0b0; stroke-opacity: 0.25; stroke-width: 0.8; stroke-linecap: square"/>
     </g>
     <g id="line2d_8">
      <g>
       <use xlink:href="#mb53d39f4a8" x="201.000881" y="291.558125" style="stroke: #000000; stroke-width: 0.8"/>
      </g>
     </g>
     <g id="text_4">
      <!-- −0.5 -->
      <g transform="translate(188.859474 306.156563) scale(0.1 -0.1)">
       <use xlink:href="#DejaVuSans-2212"/>
       <use xlink:href="#DejaVuSans-30" transform="translate(83.789062 0)"/>
       <use xlink:href="#DejaVuSans-2e" transform="translate(147.412109 0)"/>
       <use xlink:href="#DejaVuSans-35" transform="translate(179.199219 0)"/>
      </g>
     </g>
    </g>
    <g id="xtick_5">
     <g id="line2d_9">
      <path d="M 248.800313 291.558125 
L 248.800313 22.318125 
" clip-path="url(#p9314d6dacc)" style="fill: none; stroke: #b0b0b0; stroke-opacity: 0.25; stroke-width: 0.8; stroke-linecap: square"/>
     </g>
     <g id="line2d_10">
      <g>
       <use xlink:href="#mb53d39f4a8" x="248.800313" y="291.558125" style="stroke: #000000; stroke-width: 0.8"/>
      </g>
     </g>
     <g id="text_5">
      <!-- 0.0 -->
      <g transform="translate(240.84875 306.156563) scale(0.1 -0.1)">
       <use xlink:href="#DejaVuSans-30"/>
       <use xlink:href="#DejaVuSans-2e" transform="translate(63.623047 0)"/>
       <use xlink:href="#DejaVuSans-30" transform="translate(95.410156 0)"/>
      </g>
     </g>
    </g>
    <g id="xtick_6">
     <g id="line2d_11">
      <path d="M 296.599744 291.558125 
L 296.599744 22.318125 
" clip-path="url(#p9314d6dacc)" style="fill: none; stroke: #b0b0b0; stroke-opacity: 0.25; stroke-width: 0.8; stroke-linecap: square"/>
     </g>
     <g id="line2d_12">
      <g>
       <use xlink:href="#mb53d39f4a8" x="296.599744" y="291.558125" style="stroke: #000000; stroke-width: 0.8"/>
      </g>
     </g>
     <g id="text_6">
      <!-- 0.5 -->
      <g transform="translate(288.648182 306.156563) scale(0.1 -0.1)">
       <use xlink:href="#DejaVuSans-30"/>
       <use xlink:href="#DejaVuSans-2e" transform="translate(63.623047 0)"/>
       <use xlink:href="#DejaVuSans-35" transform="translate(95.410156 0)"/>
      </g>
     </g>
    </g>
    <g id="xtick_7">
     <g id="line2d_13">
      <path d="M 344.399176 291.558125 
L 344.399176 22.318125 
" clip-path="url(#p9314d6dacc)" style="fill: none; stroke: #b0b0b0; stroke-opacity: 0.25; stroke-width: 0.8; stroke-linecap: square"/>
     </g>
     <g id="line2d_14">
      <g>
       <use xlink:href="#mb53d39f4a8" x="344.399176" y="291.558125" style="stroke: #000000; stroke-width: 0.8"/>
      </g>
     </g>
     <g id="text_7">
      <!-- 1.0 -->
      <g transform="translate(336.447614 306.156563) scale(0.1 -0.1)">
       <use xlink:href="#DejaVuSans-31"/>
       <use xlink:href="#DejaVuSans-2e" transform="translate(63.623047 0)"/>
       <use xlink:href="#DejaVuSans-30" transform="translate(95.410156 0)"/>
      </g>
     </g>
    </g>
    <g id="xtick_8">
     <g id="line2d_15">
      <path d="M 392.198608 291.558125 
L 392.198608 22.318125 
" clip-path="url(#p9314d6dacc)" style="fill: none; stroke: #b0b0b0; stroke-opacity: 0.25; stroke-width: 0.8; stroke-linecap: square"/>
     </g>
     <g id="line2d_16">
      <g>
       <use xlink:href="#mb53d39f4a8" x="392.198608" y="291.558125" style="stroke: #000000; stroke-width: 0.8"/>
      </g>
     </g>
     <g id="text_8">
      <!-- 1.5 -->
      <g transform="translate(384.247045 306.156563) scale(0.1 -0.1)">
       <use xlink:href="#DejaVuSans-31"/>
       <use xlink:href="#DejaVuSans-2e" transform="translate(63.623047 0)"/>
       <use xlink:href="#DejaVuSans-35" transform="translate(95.410156 0)"/>
      </g>
     </g>
    </g>
    <g id="xtick_9">
     <g id="line2d_17">
      <path d="M 439.99804 291.558125 
L 439.99804 22.318125 
" clip-path="url(#p9314d6dacc)" style="fill: none; stroke: #b0b0b0; stroke-opacity: 0.25; stroke-width: 0.8; stroke-linecap: square"/>
     </g>
     <g id="line2d_18">
      <g>
       <use xlink:href="#mb53d39f4a8" x="439.99804" y="291.558125" style="stroke: #000000; stroke-width: 0.8"/>
      </g>
     </g>
     <g id="text_9">
      <!-- 2.0 -->
      <g transform="translate(432.046477 306.156563) scale(0.1 -0.1)">
       <use xlink:href="#DejaVuSans-32"/>
       <use xlink:href="#DejaVuSans-2e" transform="translate(63.623047 0)"/>
       <use xlink:href="#DejaVuSans-30" transform="translate(95.410156 0)"/>
      </g>
     </g>
    </g>
   </g>
   <g id="matplotlib.axis_2">
    <g id="ytick_1">
     <g id="line2d_19">
      <path d="M 38.482813 291.558125 
L 459.117813 291.558125 
" clip-path="url(#p9314d6dacc)" style="fill: none; stroke: #b0b0b0; stroke-opacity: 0.25; stroke-width: 0.8; stroke-linecap: square"/>
     </g>
     <g id="line2d_20">
      <defs>
       <path id="m7f49735369" d="M 0 0 
L -3.5 0 
" style="stroke: #000000; stroke-width: 0.8"/>
      </defs>
      <g>
       <use xlink:href="#m7f49735369" x="38.482813" y="291.558125" style="stroke: #000000; stroke-width: 0.8"/>
      </g>
     </g>
     <g id="text_10">
      <!-- −0.5 -->
      <g transform="translate(7.2 295.357344) scale(0.1 -0.1)">
       <use xlink:href="#DejaVuSans-2212"/>
       <use xlink:href="#DejaVuSans-30" transform="translate(83.789062 0)"/>
       <use xlink:href="#DejaVuSans-2e" transform="translate(147.412109 0)"/>
       <use xlink:href="#DejaVuSans-35" transform="translate(179.199219 0)"/>
      </g>
     </g>
    </g>
    <g id="ytick_2">
     <g id="line2d_21">
      <path d="M 38.482813 253.095268 
L 459.117813 253.095268 
" clip-path="url(#p9314d6dacc)" style="fill: none; stroke: #b0b0b0; stroke-opacity: 0.25; stroke-width: 0.8; stroke-linecap: square"/>
     </g>
     <g id="line2d_22">
      <g>
       <use xlink:href="#m7f49735369" x="38.482813" y="253.095268" style="stroke: #000000; stroke-width: 0.8"/>
      </g>
     </g>
     <g id="text_11">
      <!-- 0.0 -->
      <g transform="translate(15.579688 256.894487) scale(0.1 -0.1)">
       <use xlink:href="#DejaVuSans-30"/>
       <use xlink:href="#DejaVuSans-2e" transform="translate(63.623047 0)"/>
       <use xlink:href="#DejaVuSans-30" transform="translate(95.410156 0)"/>
      </g>
     </g>
    </g>
    <g id="ytick_3">
     <g id="line2d_23">
      <path d="M 38.482813 214.632411 
L 459.117813 214.632411 
" clip-path="url(#p9314d6dacc)" style="fill: none; stroke: #b0b0b0; stroke-opacity: 0.25; stroke-width: 0.8; stroke-linecap: square"/>
     </g>
     <g id="line2d_24">
      <g>
       <use xlink:href="#m7f49735369" x="38.482813" y="214.632411" style="stroke: #000000; stroke-width: 0.8"/>
      </g>
     </g>
     <g id="text_12">
      <!-- 0.5 -->
      <g transform="translate(15.579688 218.431629) scale(0.1 -0.1)">
       <use xlink:href="#DejaVuSans-30"/>
       <use xlink:href="#DejaVuSans-2e" transform="translate(63.623047 0)"/>
       <use xlink:href="#DejaVuSans-35" transform="translate(95.410156 0)"/>
      </g>
     </g>
    </g>
    <g id="ytick_4">
     <g id="line2d_25">
      <path d="M 38.482813 176.169554 
L 459.117813 176.169554 
" clip-path="url(#p9314d6dacc)" style="fill: none; stroke: #b0b0b0; stroke-opacity: 0.25; stroke-width: 0.8; stroke-linecap: square"/>
     </g>
     <g id="line2d_26">
      <g>
       <use xlink:href="#m7f49735369" x="38.482813" y="176.169554" style="stroke: #000000; stroke-width: 0.8"/>
      </g>
     </g>
     <g id="text_13">
      <!-- 1.0 -->
      <g transform="translate(15.579688 179.968772) scale(0.1 -0.1)">
       <use xlink:href="#DejaVuSans-31"/>
       <use xlink:href="#DejaVuSans-2e" transform="translate(63.623047 0)"/>
       <use xlink:href="#DejaVuSans-30" transform="translate(95.410156 0)"/>
      </g>
     </g>
    </g>
    <g id="ytick_5">
     <g id="line2d_27">
      <path d="M 38.482813 137.706696 
L 459.117813 137.706696 
" clip-path="url(#p9314d6dacc)" style="fill: none; stroke: #b0b0b0; stroke-opacity: 0.25; stroke-width: 0.8; stroke-linecap: square"/>
     </g>
     <g id="line2d_28">
      <g>
       <use xlink:href="#m7f49735369" x="38.482813" y="137.706696" style="stroke: #000000; stroke-width: 0.8"/>
      </g>
     </g>
     <g id="text_14">
      <!-- 1.5 -->
      <g transform="translate(15.579688 141.505915) scale(0.1 -0.1)">
       <use xlink:href="#DejaVuSans-31"/>
       <use xlink:href="#DejaVuSans-2e" transform="translate(63.623047 0)"/>
       <use xlink:href="#DejaVuSans-35" transform="translate(95.410156 0)"/>
      </g>
     </g>
    </g>
    <g id="ytick_6">
     <g id="line2d_29">
      <path d="M 38.482813 99.243839 
L 459.117813 99.243839 
" clip-path="url(#p9314d6dacc)" style="fill: none; stroke: #b0b0b0; stroke-opacity: 0.25; stroke-width: 0.8; stroke-linecap: square"/>
     </g>
     <g id="line2d_30">
      <g>
       <use xlink:href="#m7f49735369" x="38.482813" y="99.243839" style="stroke: #000000; stroke-width: 0.8"/>
      </g>
     </g>
     <g id="text_15">
      <!-- 2.0 -->
      <g transform="translate(15.579688 103.043058) scale(0.1 -0.1)">
       <use xlink:href="#DejaVuSans-32"/>
       <use xlink:href="#DejaVuSans-2e" transform="translate(63.623047 0)"/>
       <use xlink:href="#DejaVuSans-30" transform="translate(95.410156 0)"/>
      </g>
     </g>
    </g>
    <g id="ytick_7">
     <g id="line2d_31">
      <path d="M 38.482813 60.780982 
L 459.117813 60.780982 
" clip-path="url(#p9314d6dacc)" style="fill: none; stroke: #b0b0b0; stroke-opacity: 0.25; stroke-width: 0.8; stroke-linecap: square"/>
     </g>
     <g id="line2d_32">
      <g>
       <use xlink:href="#m7f49735369" x="38.482813" y="60.780982" style="stroke: #000000; stroke-width: 0.8"/>
      </g>
     </g>
     <g id="text_16">
      <!-- 2.5 -->
      <g transform="translate(15.579688 64.580201) scale(0.1 -0.1)">
       <use xlink:href="#DejaVuSans-32"/>
       <use xlink:href="#DejaVuSans-2e" transform="translate(63.623047 0)"/>
       <use xlink:href="#DejaVuSans-35" transform="translate(95.410156 0)"/>
      </g>
     </g>
    </g>
    <g id="ytick_8">
     <g id="line2d_33">
      <path d="M 38.482813 22.318125 
L 459.117813 22.318125 
" clip-path="url(#p9314d6dacc)" style="fill: none; stroke: #b0b0b0; stroke-opacity: 0.25; stroke-width: 0.8; stroke-linecap: square"/>
     </g>
     <g id="line2d_34">
      <g>
       <use xlink:href="#m7f49735369" x="38.482813" y="22.318125" style="stroke: #000000; stroke-width: 0.8"/>
      </g>
     </g>
     <g id="text_17">
      <!-- 3.0 -->
      <g transform="translate(15.579688 26.117344) scale(0.1 -0.1)">
       <defs>
        <path id="DejaVuSans-33" d="M 2597 2516 
Q 3050 2419 3304 2112 
Q 3559 1806 3559 1356 
Q 3559 666 3084 287 
Q 2609 -91 1734 -91 
Q 1441 -91 1130 -33 
Q 819 25 488 141 
L 488 750 
Q 750 597 1062 519 
Q 1375 441 1716 441 
Q 2309 441 2620 675 
Q 2931 909 2931 1356 
Q 2931 1769 2642 2001 
Q 2353 2234 1838 2234 
L 1294 2234 
L 1294 2753 
L 1863 2753 
Q 2328 2753 2575 2939 
Q 2822 3125 2822 3475 
Q 2822 3834 2567 4026 
Q 2313 4219 1838 4219 
Q 1578 4219 1281 4162 
Q 984 4106 628 3988 
L 628 4550 
Q 988 4650 1302 4700 
Q 1616 4750 1894 4750 
Q 2613 4750 3031 4423 
Q 3450 4097 3450 3541 
Q 3450 3153 3228 2886 
Q 3006 2619 2597 2516 
z
" transform="scale(0.015625)"/>
       </defs>
       <use xlink:href="#DejaVuSans-33"/>
       <use xlink:href="#DejaVuSans-2e" transform="translate(63.623047 0)"/>
       <use xlink:href="#DejaVuSans-30" transform="translate(95.410156 0)"/>
      </g>
     </g>
    </g>
   </g>
   <g id="line2d_35">
    <path d="M 75.054577 -1 
L 81.5622 17.678934 
L 88.270892 36.187377 
L 94.0212 51.448724 
L 99.771508 66.153427 
L 105.521815 80.301484 
L 111.272123 93.892897 
L 117.02243 106.927665 
L 122.772738 119.405788 
L 128.523045 131.327266 
L 134.273353 142.692099 
L 140.023661 153.500287 
L 144.815584 162.081896 
L 149.607507 170.276946 
L 154.39943 178.085436 
L 159.191353 185.507368 
L 163.983276 192.542741 
L 168.775199 199.191555 
L 173.567122 205.45381 
L 178.359045 211.329506 
L 183.150968 216.818643 
L 187.942891 221.921221 
L 192.734814 226.637241 
L 196.568352 230.131733 
L 200.40189 233.378829 
L 204.235429 236.378526 
L 208.068967 239.130826 
L 211.902505 241.635728 
L 215.736044 243.893232 
L 219.569582 245.903339 
L 223.403121 247.666047 
L 227.236659 249.181358 
L 231.070197 250.449272 
L 234.903736 251.469787 
L 238.737274 252.242905 
L 242.570813 252.768626 
L 246.404351 253.046948 
L 250.237889 253.077873 
L 254.071428 252.8614 
L 257.904966 252.397529 
L 261.738505 251.68626 
L 265.572043 250.727594 
L 269.405581 249.52153 
L 273.23912 248.068069 
L 277.072658 246.367209 
L 280.906197 244.418952 
L 284.739735 242.223297 
L 288.573273 239.780245 
L 292.406812 237.089795 
L 296.24035 234.151947 
L 300.073888 230.966701 
L 303.907427 227.534057 
L 307.740965 223.854016 
L 312.532888 218.906062 
L 317.324811 213.571548 
L 322.116734 207.850476 
L 326.908657 201.742844 
L 331.70058 195.248654 
L 336.492503 188.367904 
L 341.284426 181.100596 
L 346.076349 173.446729 
L 350.868272 165.406303 
L 355.660195 156.979318 
L 360.452118 148.165774 
L 366.202426 137.079263 
L 371.952733 125.436107 
L 377.703041 113.236307 
L 383.453348 100.479862 
L 389.203656 87.166771 
L 394.953964 73.297036 
L 400.704271 58.870656 
L 406.454579 43.887631 
L 412.204886 28.347961 
L 418.913579 9.514809 
L 422.546048 -1 
L 422.546048 -1 
" clip-path="url(#p9314d6dacc)" style="fill: none; stroke: #7aa6c2; stroke-width: 2.5; stroke-linecap: square"/>
   </g>
   <g id="line2d_36">
    <path d="M 124.52179 123.090811 
L 392.198608 80.012411 
" clip-path="url(#p9314d6dacc)" style="fill: none; stroke-dasharray: 7.4,3.2; stroke-dashoffset: 0; stroke: #e15759; stroke-width: 2"/>
   </g>
   <g id="line2d_37">
    <path d="M 258.360199 252.326011 
L 258.360199 101.551611 
" clip-path="url(#p9314d6dacc)" style="fill: none; stroke-dasharray: 0.7,1.155; stroke-dashoffset: 0; stroke: #808080; stroke-width: 0.7"/>
   </g>
   <g id="patch_3">
    <path d="M 38.482813 291.558125 
L 38.482813 22.318125 
" style="fill: none; stroke: #000000; stroke-width: 0.8; stroke-linejoin: miter; stroke-linecap: square"/>
   </g>
   <g id="patch_4">
    <path d="M 459.117813 291.558125 
L 459.117813 22.318125 
" style="fill: none; stroke: #000000; stroke-width: 0.8; stroke-linejoin: miter; stroke-linecap: square"/>
   </g>
   <g id="patch_5">
    <path d="M 38.482812 291.558125 
L 459.117813 291.558125 
" style="fill: none; stroke: #000000; stroke-width: 0.8; stroke-linejoin: miter; stroke-linecap: square"/>
   </g>
   <g id="patch_6">
    <path d="M 38.482812 22.318125 
L 459.117813 22.318125 
" style="fill: none; stroke: #000000; stroke-width: 0.8; stroke-linejoin: miter; stroke-linecap: square"/>
   </g>
   <g id="text_18">
    <!-- Convex f(x²): chord (red) lies ABOVE the function -->
    <g transform="translate(101.732813 16.318125) scale(0.12 -0.12)">
     <defs>
      <path id="DejaVuSans-43" d="M 4122 4306 
L 4122 3641 
Q 3803 3938 3442 4084 
Q 3081 4231 2675 4231 
Q 1875 4231 1450 3742 
Q 1025 3253 1025 2328 
Q 1025 1406 1450 917 
Q 1875 428 2675 428 
Q 3081 428 3442 575 
Q 3803 722 4122 1019 
L 4122 359 
Q 3791 134 3420 21 
Q 3050 -91 2638 -91 
Q 1578 -91 968 557 
Q 359 1206 359 2328 
Q 359 3453 968 4101 
Q 1578 4750 2638 4750 
Q 3056 4750 3426 4639 
Q 3797 4528 4122 4306 
z
" transform="scale(0.015625)"/>
      <path id="DejaVuSans-6f" d="M 1959 3097 
Q 1497 3097 1228 2736 
Q 959 2375 959 1747 
Q 959 1119 1226 758 
Q 1494 397 1959 397 
Q 2419 397 2687 759 
Q 2956 1122 2956 1747 
Q 2956 2369 2687 2733 
Q 2419 3097 1959 3097 
z
M 1959 3584 
Q 2709 3584 3137 3096 
Q 3566 2609 3566 1747 
Q 3566 888 3137 398 
Q 2709 -91 1959 -91 
Q 1206 -91 779 398 
Q 353 888 353 1747 
Q 353 2609 779 3096 
Q 1206 3584 1959 3584 
z
" transform="scale(0.015625)"/>
      <path id="DejaVuSans-6e" d="M 3513 2113 
L 3513 0 
L 2938 0 
L 2938 2094 
Q 2938 2591 2744 2837 
Q 2550 3084 2163 3084 
Q 1697 3084 1428 2787 
Q 1159 2491 1159 1978 
L 1159 0 
L 581 0 
L 581 3500 
L 1159 3500 
L 1159 2956 
Q 1366 3272 1645 3428 
Q 1925 3584 2291 3584 
Q 2894 3584 3203 3211 
Q 3513 2838 3513 2113 
z
" transform="scale(0.015625)"/>
      <path id="DejaVuSans-76" d="M 191 3500 
L 800 3500 
L 1894 563 
L 2988 3500 
L 3597 3500 
L 2284 0 
L 1503 0 
L 191 3500 
z
" transform="scale(0.015625)"/>
      <path id="DejaVuSans-65" d="M 3597 1894 
L 3597 1613 
L 953 1613 
Q 991 1019 1311 708 
Q 1631 397 2203 397 
Q 2534 397 2845 478 
Q 3156 559 3463 722 
L 3463 178 
Q 3153 47 2828 -22 
Q 2503 -91 2169 -91 
Q 1331 -91 842 396 
Q 353 884 353 1716 
Q 353 2575 817 3079 
Q 1281 3584 2069 3584 
Q 2775 3584 3186 3129 
Q 3597 2675 3597 1894 
z
M 3022 2063 
Q 3016 2534 2758 2815 
Q 2500 3097 2075 3097 
Q 1594 3097 1305 2825 
Q 1016 2553 972 2059 
L 3022 2063 
z
" transform="scale(0.015625)"/>
      <path id="DejaVuSans-78" d="M 3513 3500 
L 2247 1797 
L 3578 0 
L 2900 0 
L 1881 1375 
L 863 0 
L 184 0 
L 1544 1831 
L 300 3500 
L 978 3500 
L 1906 2253 
L 2834 3500 
L 3513 3500 
z
" transform="scale(0.015625)"/>
      <path id="DejaVuSans-20" transform="scale(0.015625)"/>
      <path id="DejaVuSans-66" d="M 2375 4863 
L 2375 4384 
L 1825 4384 
Q 1516 4384 1395 4259 
Q 1275 4134 1275 3809 
L 1275 3500 
L 2222 3500 
L 2222 3053 
L 1275 3053 
L 1275 0 
L 697 0 
L 697 3053 
L 147 3053 
L 147 3500 
L 697 3500 
L 697 3744 
Q 697 4328 969 4595 
Q 1241 4863 1831 4863 
L 2375 4863 
z
" transform="scale(0.015625)"/>
      <path id="DejaVuSans-28" d="M 1984 4856 
Q 1566 4138 1362 3434 
Q 1159 2731 1159 2009 
Q 1159 1288 1364 580 
Q 1569 -128 1984 -844 
L 1484 -844 
Q 1016 -109 783 600 
Q 550 1309 550 2009 
Q 550 2706 781 3412 
Q 1013 4119 1484 4856 
L 1984 4856 
z
" transform="scale(0.015625)"/>
      <path id="DejaVuSans-b2" d="M 838 2444 
L 2163 2444 
L 2163 2088 
L 294 2088 
L 294 2431 
Q 400 2528 597 2703 
Q 1672 3656 1672 3950 
Q 1672 4156 1509 4282 
Q 1347 4409 1081 4409 
Q 919 4409 728 4354 
Q 538 4300 313 4191 
L 313 4575 
Q 553 4663 761 4706 
Q 969 4750 1147 4750 
Q 1600 4750 1872 4544 
Q 2144 4338 2144 4000 
Q 2144 3566 1109 2678 
Q 934 2528 838 2444 
z
" transform="scale(0.015625)"/>
      <path id="DejaVuSans-29" d="M 513 4856 
L 1013 4856 
Q 1481 4119 1714 3412 
Q 1947 2706 1947 2009 
Q 1947 1309 1714 600 
Q 1481 -109 1013 -844 
L 513 -844 
Q 928 -128 1133 580 
Q 1338 1288 1338 2009 
Q 1338 2731 1133 3434 
Q 928 4138 513 4856 
z
" transform="scale(0.015625)"/>
      <path id="DejaVuSans-3a" d="M 750 794 
L 1409 794 
L 1409 0 
L 750 0 
L 750 794 
z
M 750 3309 
L 1409 3309 
L 1409 2516 
L 750 2516 
L 750 3309 
z
" transform="scale(0.015625)"/>
      <path id="DejaVuSans-63" d="M 3122 3366 
L 3122 2828 
Q 2878 2963 2633 3030 
Q 2388 3097 2138 3097 
Q 1578 3097 1268 2742 
Q 959 2388 959 1747 
Q 959 1106 1268 751 
Q 1578 397 2138 397 
Q 2388 397 2633 464 
Q 2878 531 3122 666 
L 3122 134 
Q 2881 22 2623 -34 
Q 2366 -91 2075 -91 
Q 1284 -91 818 406 
Q 353 903 353 1747 
Q 353 2603 823 3093 
Q 1294 3584 2113 3584 
Q 2378 3584 2631 3529 
Q 2884 3475 3122 3366 
z
" transform="scale(0.015625)"/>
      <path id="DejaVuSans-68" d="M 3513 2113 
L 3513 0 
L 2938 0 
L 2938 2094 
Q 2938 2591 2744 2837 
Q 2550 3084 2163 3084 
Q 1697 3084 1428 2787 
Q 1159 2491 1159 1978 
L 1159 0 
L 581 0 
L 581 4863 
L 1159 4863 
L 1159 2956 
Q 1366 3272 1645 3428 
Q 1925 3584 2291 3584 
Q 2894 3584 3203 3211 
Q 3513 2838 3513 2113 
z
" transform="scale(0.015625)"/>
      <path id="DejaVuSans-72" d="M 2631 2963 
Q 2534 3019 2420 3045 
Q 2306 3072 2169 3072 
Q 1681 3072 1420 2755 
Q 1159 2438 1159 1844 
L 1159 0 
L 581 0 
L 581 3500 
L 1159 3500 
L 1159 2956 
Q 1341 3275 1631 3429 
Q 1922 3584 2338 3584 
Q 2397 3584 2469 3576 
Q 2541 3569 2628 3553 
L 2631 2963 
z
" transform="scale(0.015625)"/>
      <path id="DejaVuSans-64" d="M 2906 2969 
L 2906 4863 
L 3481 4863 
L 3481 0 
L 2906 0 
L 2906 525 
Q 2725 213 2448 61 
Q 2172 -91 1784 -91 
Q 1150 -91 751 415 
Q 353 922 353 1747 
Q 353 2572 751 3078 
Q 1150 3584 1784 3584 
Q 2172 3584 2448 3432 
Q 2725 3281 2906 2969 
z
M 947 1747 
Q 947 1113 1208 752 
Q 1469 391 1925 391 
Q 2381 391 2643 752 
Q 2906 1113 2906 1747 
Q 2906 2381 2643 2742 
Q 2381 3103 1925 3103 
Q 1469 3103 1208 2742 
Q 947 2381 947 1747 
z
" transform="scale(0.015625)"/>
      <path id="DejaVuSans-6c" d="M 603 4863 
L 1178 4863 
L 1178 0 
L 603 0 
L 603 4863 
z
" transform="scale(0.015625)"/>
      <path id="DejaVuSans-69" d="M 603 3500 
L 1178 3500 
L 1178 0 
L 603 0 
L 603 3500 
z
M 603 4863 
L 1178 4863 
L 1178 4134 
L 603 4134 
L 603 4863 
z
" transform="scale(0.015625)"/>
      <path id="DejaVuSans-73" d="M 2834 3397 
L 2834 2853 
Q 2591 2978 2328 3040 
Q 2066 3103 1784 3103 
Q 1356 3103 1142 2972 
Q 928 2841 928 2578 
Q 928 2378 1081 2264 
Q 1234 2150 1697 2047 
L 1894 2003 
Q 2506 1872 2764 1633 
Q 3022 1394 3022 966 
Q 3022 478 2636 193 
Q 2250 -91 1575 -91 
Q 1294 -91 989 -36 
Q 684 19 347 128 
L 347 722 
Q 666 556 975 473 
Q 1284 391 1588 391 
Q 1994 391 2212 530 
Q 2431 669 2431 922 
Q 2431 1156 2273 1281 
Q 2116 1406 1581 1522 
L 1381 1569 
Q 847 1681 609 1914 
Q 372 2147 372 2553 
Q 372 3047 722 3315 
Q 1072 3584 1716 3584 
Q 2034 3584 2315 3537 
Q 2597 3491 2834 3397 
z
" transform="scale(0.015625)"/>
      <path id="DejaVuSans-41" d="M 2188 4044 
L 1331 1722 
L 3047 1722 
L 2188 4044 
z
M 1831 4666 
L 2547 4666 
L 4325 0 
L 3669 0 
L 3244 1197 
L 1141 1197 
L 716 0 
L 50 0 
L 1831 4666 
z
" transform="scale(0.015625)"/>
      <path id="DejaVuSans-42" d="M 1259 2228 
L 1259 519 
L 2272 519 
Q 2781 519 3026 730 
Q 3272 941 3272 1375 
Q 3272 1813 3026 2020 
Q 2781 2228 2272 2228 
L 1259 2228 
z
M 1259 4147 
L 1259 2741 
L 2194 2741 
Q 2656 2741 2882 2914 
Q 3109 3088 3109 3444 
Q 3109 3797 2882 3972 
Q 2656 4147 2194 4147 
L 1259 4147 
z
M 628 4666 
L 2241 4666 
Q 2963 4666 3353 4366 
Q 3744 4066 3744 3513 
Q 3744 3084 3544 2831 
Q 3344 2578 2956 2516 
Q 3422 2416 3680 2098 
Q 3938 1781 3938 1306 
Q 3938 681 3513 340 
Q 3088 0 2303 0 
L 628 0 
L 628 4666 
z
" transform="scale(0.015625)"/>
      <path id="DejaVuSans-4f" d="M 2522 4238 
Q 1834 4238 1429 3725 
Q 1025 3213 1025 2328 
Q 1025 1447 1429 934 
Q 1834 422 2522 422 
Q 3209 422 3611 934 
Q 4013 1447 4013 2328 
Q 4013 3213 3611 3725 
Q 3209 4238 2522 4238 
z
M 2522 4750 
Q 3503 4750 4090 4092 
Q 4678 3434 4678 2328 
Q 4678 1225 4090 567 
Q 3503 -91 2522 -91 
Q 1538 -91 948 565 
Q 359 1222 359 2328 
Q 359 3434 948 4092 
Q 1538 4750 2522 4750 
z
" transform="scale(0.015625)"/>
      <path id="DejaVuSans-56" d="M 1831 0 
L 50 4666 
L 709 4666 
L 2188 738 
L 3669 4666 
L 4325 4666 
L 2547 0 
L 1831 0 
z
" transform="scale(0.015625)"/>
      <path id="DejaVuSans-45" d="M 628 4666 
L 3578 4666 
L 3578 4134 
L 1259 4134 
L 1259 2753 
L 3481 2753 
L 3481 2222 
L 1259 2222 
L 1259 531 
L 3634 531 
L 3634 0 
L 628 0 
L 628 4666 
z
" transform="scale(0.015625)"/>
      <path id="DejaVuSans-74" d="M 1172 4494 
L 1172 3500 
L 2356 3500 
L 2356 3053 
L 1172 3053 
L 1172 1153 
Q 1172 725 1289 603 
Q 1406 481 1766 481 
L 2356 481 
L 2356 0 
L 1766 0 
Q 1100 0 847 248 
Q 594 497 594 1153 
L 594 3053 
L 172 3053 
L 172 3500 
L 594 3500 
L 594 4494 
L 1172 4494 
z
" transform="scale(0.015625)"/>
      <path id="DejaVuSans-75" d="M 544 1381 
L 544 3500 
L 1119 3500 
L 1119 1403 
Q 1119 906 1312 657 
Q 1506 409 1894 409 
Q 2359 409 2629 706 
Q 2900 1003 2900 1516 
L 2900 3500 
L 3475 3500 
L 3475 0 
L 2900 0 
L 2900 538 
Q 2691 219 2414 64 
Q 2138 -91 1772 -91 
Q 1169 -91 856 284 
Q 544 659 544 1381 
z
M 1991 3584 
L 1991 3584 
z
" transform="scale(0.015625)"/>
     </defs>
     <use xlink:href="#DejaVuSans-43"/>
     <use xlink:href="#DejaVuSans-6f" transform="translate(69.824219 0)"/>
     <use xlink:href="#DejaVuSans-6e" transform="translate(131.005859 0)"/>
     <use xlink:href="#DejaVuSans-76" transform="translate(194.384766 0)"/>
     <use xlink:href="#DejaVuSans-65" transform="translate(253.564453 0)"/>
     <use xlink:href="#DejaVuSans-78" transform="translate(313.337891 0)"/>
     <use xlink:href="#DejaVuSans-20" transform="translate(372.517578 0)"/>
     <use xlink:href="#DejaVuSans-66" transform="translate(404.304688 0)"/>
     <use xlink:href="#DejaVuSans-28" transform="translate(439.509766 0)"/>
     <use xlink:href="#DejaVuSans-78" transform="translate(478.523438 0)"/>
     <use xlink:href="#DejaVuSans-b2" transform="translate(537.703125 0)"/>
     <use xlink:href="#DejaVuSans-29" transform="translate(577.791016 0)"/>
     <use xlink:href="#DejaVuSans-3a" transform="translate(616.804688 0)"/>
     <use xlink:href="#DejaVuSans-20" transform="translate(650.496094 0)"/>
     <use xlink:href="#DejaVuSans-63" transform="translate(682.283203 0)"/>
     <use xlink:href="#DejaVuSans-68" transform="translate(737.263672 0)"/>
     <use xlink:href="#DejaVuSans-6f" transform="translate(800.642578 0)"/>
     <use xlink:href="#DejaVuSans-72" transform="translate(861.824219 0)"/>
     <use xlink:href="#DejaVuSans-64" transform="translate(901.1875 0)"/>
     <use xlink:href="#DejaVuSans-20" transform="translate(964.664062 0)"/>
     <use xlink:href="#DejaVuSans-28" transform="translate(996.451172 0)"/>
     <use xlink:href="#DejaVuSans-72" transform="translate(1035.464844 0)"/>
     <use xlink:href="#DejaVuSans-65" transform="translate(1074.328125 0)"/>
     <use xlink:href="#DejaVuSans-64" transform="translate(1135.851562 0)"/>
     <use xlink:href="#DejaVuSans-29" transform="translate(1199.328125 0)"/>
     <use xlink:href="#DejaVuSans-20" transform="translate(1238.341797 0)"/>
     <use xlink:href="#DejaVuSans-6c" transform="translate(1270.128906 0)"/>
     <use xlink:href="#DejaVuSans-69" transform="translate(1297.912109 0)"/>
     <use xlink:href="#DejaVuSans-65" transform="translate(1325.695312 0)"/>
     <use xlink:href="#DejaVuSans-73" transform="translate(1387.21875 0)"/>
     <use xlink:href="#DejaVuSans-20" transform="translate(1439.318359 0)"/>
     <use xlink:href="#DejaVuSans-41" transform="translate(1471.105469 0)"/>
     <use xlink:href="#DejaVuSans-42" transform="translate(1539.513672 0)"/>
     <use xlink:href="#DejaVuSans-4f" transform="translate(1606.367188 0)"/>
     <use xlink:href="#DejaVuSans-56" transform="translate(1683.328125 0)"/>
     <use xlink:href="#DejaVuSans-45" transform="translate(1751.736328 0)"/>
     <use xlink:href="#DejaVuSans-20" transform="translate(1814.919922 0)"/>
     <use xlink:href="#DejaVuSans-74" transform="translate(1846.707031 0)"/>
     <use xlink:href="#DejaVuSans-68" transform="translate(1885.916016 0)"/>
     <use xlink:href="#DejaVuSans-65" transform="translate(1949.294922 0)"/>
     <use xlink:href="#DejaVuSans-20" transform="translate(2010.818359 0)"/>
     <use xlink:href="#DejaVuSans-66" transform="translate(2042.605469 0)"/>
     <use xlink:href="#DejaVuSans-75" transform="translate(2077.810547 0)"/>
     <use xlink:href="#DejaVuSans-6e" transform="translate(2141.189453 0)"/>
     <use xlink:href="#DejaVuSans-63" transform="translate(2204.568359 0)"/>
     <use xlink:href="#DejaVuSans-74" transform="translate(2259.548828 0)"/>
     <use xlink:href="#DejaVuSans-69" transform="translate(2298.757812 0)"/>
     <use xlink:href="#DejaVuSans-6f" transform="translate(2326.541016 0)"/>
     <use xlink:href="#DejaVuSans-6e" transform="translate(2387.722656 0)"/>
    </g>
   </g>
   <g id="PathCollection_1">
    <defs>
     <path id="mceed588e65" d="M 0 4.472136 
C 1.186024 4.472136 2.323632 4.000923 3.162278 3.162278 
C 4.000923 2.323632 4.472136 1.186024 4.472136 0 
C 4.472136 -1.186024 4.000923 -2.323632 3.162278 -3.162278 
C 2.323632 -4.000923 1.186024 -4.472136 0 -4.472136 
C -1.186024 -4.472136 -2.323632 -4.000923 -3.162278 -3.162278 
C -4.000923 -2.323632 -4.472136 -1.186024 -4.472136 0 
C -4.472136 1.186024 -4.000923 2.323632 -3.162278 3.162278 
C -2.323632 4.000923 -1.186024 4.472136 0 4.472136 
z
" style="stroke: #e15759"/>
    </defs>
    <g clip-path="url(#p9314d6dacc)">
     <use xlink:href="#mceed588e65" x="124.52179" y="123.090811" style="fill: #e15759; stroke: #e15759"/>
     <use xlink:href="#mceed588e65" x="392.198608" y="80.012411" style="fill: #e15759; stroke: #e15759"/>
    </g>
   </g>
   <g id="PathCollection_2">
    <defs>
     <path id="m2b5dbb2887" d="M 0 5.477226 
C 1.452577 5.477226 2.845856 4.900111 3.872983 3.872983 
C 4.900111 2.845856 5.477226 1.452577 5.477226 0 
C 5.477226 -1.452577 4.900111 -2.845856 3.872983 -3.872983 
C 2.845856 -4.900111 1.452577 -5.477226 0 -5.477226 
C -1.452577 -5.477226 -2.845856 -4.900111 -3.872983 -3.872983 
C -4.900111 -2.845856 -5.477226 -1.452577 -5.477226 0 
C -5.477226 1.452577 -4.900111 2.845856 -3.872983 3.872983 
C -2.845856 4.900111 -1.452577 5.477226 0 5.477226 
z
" style="stroke: #59a14f"/>
    </defs>
    <g clip-path="url(#p9314d6dacc)">
     <use xlink:href="#m2b5dbb2887" x="258.360199" y="252.326011" style="fill: #59a14f; stroke: #59a14f"/>
    </g>
   </g>
   <g id="PathCollection_3">
    <defs>
     <path id="m3df2cb9607" d="M 0 5.477226 
C 1.452577 5.477226 2.845856 4.900111 3.872983 3.872983 
C 4.900111 2.845856 5.477226 1.452577 5.477226 0 
C 5.477226 -1.452577 4.900111 -2.845856 3.872983 -3.872983 
C 2.845856 -4.900111 1.452577 -5.477226 0 -5.477226 
C -1.452577 -5.477226 -2.845856 -4.900111 -3.872983 -3.872983 
C -4.900111 -2.845856 -5.477226 -1.452577 -5.477226 0 
C -5.477226 1.452577 -4.900111 2.845856 -3.872983 3.872983 
C -2.845856 4.900111 -1.452577 5.477226 0 5.477226 
z
" style="stroke: #f28e2b"/>
    </defs>
    <g clip-path="url(#p9314d6dacc)">
     <use xlink:href="#m3df2cb9607" x="258.360199" y="101.551611" style="fill: #f28e2b; stroke: #f28e2b"/>
    </g>
   </g>
   <g id="legend_1">
    <g id="patch_7">
     <path d="M 190.282734 69.149063 
L 307.317891 69.149063 
Q 309.117891 69.149063 309.117891 67.349063 
L 309.117891 28.618125 
Q 309.117891 26.818125 307.317891 26.818125 
L 190.282734 26.818125 
Q 188.482734 26.818125 188.482734 28.618125 
L 188.482734 67.349063 
Q 188.482734 69.149063 190.282734 69.149063 
z
" style="fill: #ffffff; opacity: 0.8; stroke: #cccccc; stroke-linejoin: miter"/>
    </g>
    <g id="line2d_38">
     <path d="M 192.082734 34.106719 
L 201.082734 34.106719 
L 210.082734 34.106719 
" style="fill: none; stroke-dasharray: 7.4,3.2; stroke-dashoffset: 0; stroke: #e15759; stroke-width: 2"/>
    </g>
    <g id="text_19">
     <!-- chord -->
     <g transform="translate(217.282734 37.256719) scale(0.09 -0.09)">
      <use xlink:href="#DejaVuSans-63"/>
      <use xlink:href="#DejaVuSans-68" transform="translate(54.980469 0)"/>
      <use xlink:href="#DejaVuSans-6f" transform="translate(118.359375 0)"/>
      <use xlink:href="#DejaVuSans-72" transform="translate(179.541016 0)"/>
      <use xlink:href="#DejaVuSans-64" transform="translate(218.904297 0)"/>
     </g>
    </g>
    <g id="PathCollection_4">
     <g>
      <use xlink:href="#m2b5dbb2887" x="201.082734" y="48.104531" style="fill: #59a14f; stroke: #59a14f"/>
     </g>
    </g>
    <g id="text_20">
     <!-- f((a+b)/2) = 0.01 -->
     <g transform="translate(217.282734 50.467031) scale(0.09 -0.09)">
      <defs>
       <path id="DejaVuSans-61" d="M 2194 1759 
Q 1497 1759 1228 1600 
Q 959 1441 959 1056 
Q 959 750 1161 570 
Q 1363 391 1709 391 
Q 2188 391 2477 730 
Q 2766 1069 2766 1631 
L 2766 1759 
L 2194 1759 
z
M 3341 1997 
L 3341 0 
L 2766 0 
L 2766 531 
Q 2569 213 2275 61 
Q 1981 -91 1556 -91 
Q 1019 -91 701 211 
Q 384 513 384 1019 
Q 384 1609 779 1909 
Q 1175 2209 1959 2209 
L 2766 2209 
L 2766 2266 
Q 2766 2663 2505 2880 
Q 2244 3097 1772 3097 
Q 1472 3097 1187 3025 
Q 903 2953 641 2809 
L 641 3341 
Q 956 3463 1253 3523 
Q 1550 3584 1831 3584 
Q 2591 3584 2966 3190 
Q 3341 2797 3341 1997 
z
" transform="scale(0.015625)"/>
       <path id="DejaVuSans-2b" d="M 2944 4013 
L 2944 2272 
L 4684 2272 
L 4684 1741 
L 2944 1741 
L 2944 0 
L 2419 0 
L 2419 1741 
L 678 1741 
L 678 2272 
L 2419 2272 
L 2419 4013 
L 2944 4013 
z
" transform="scale(0.015625)"/>
       <path id="DejaVuSans-62" d="M 3116 1747 
Q 3116 2381 2855 2742 
Q 2594 3103 2138 3103 
Q 1681 3103 1420 2742 
Q 1159 2381 1159 1747 
Q 1159 1113 1420 752 
Q 1681 391 2138 391 
Q 2594 391 2855 752 
Q 3116 1113 3116 1747 
z
M 1159 2969 
Q 1341 3281 1617 3432 
Q 1894 3584 2278 3584 
Q 2916 3584 3314 3078 
Q 3713 2572 3713 1747 
Q 3713 922 3314 415 
Q 2916 -91 2278 -91 
Q 1894 -91 1617 61 
Q 1341 213 1159 525 
L 1159 0 
L 581 0 
L 581 4863 
L 1159 4863 
L 1159 2969 
z
" transform="scale(0.015625)"/>
       <path id="DejaVuSans-2f" d="M 1625 4666 
L 2156 4666 
L 531 -594 
L 0 -594 
L 1625 4666 
z
" transform="scale(0.015625)"/>
       <path id="DejaVuSans-3d" d="M 678 2906 
L 4684 2906 
L 4684 2381 
L 678 2381 
L 678 2906 
z
M 678 1631 
L 4684 1631 
L 4684 1100 
L 678 1100 
L 678 1631 
z
" transform="scale(0.015625)"/>
      </defs>
      <use xlink:href="#DejaVuSans-66"/>
      <use xlink:href="#DejaVuSans-28" transform="translate(35.205078 0)"/>
      <use xlink:href="#DejaVuSans-28" transform="translate(74.21875 0)"/>
      <use xlink:href="#DejaVuSans-61" transform="translate(113.232422 0)"/>
      <use xlink:href="#DejaVuSans-2b" transform="translate(174.511719 0)"/>
      <use xlink:href="#DejaVuSans-62" transform="translate(258.300781 0)"/>
      <use xlink:href="#DejaVuSans-29" transform="translate(321.777344 0)"/>
      <use xlink:href="#DejaVuSans-2f" transform="translate(360.791016 0)"/>
      <use xlink:href="#DejaVuSans-32" transform="translate(394.482422 0)"/>
      <use xlink:href="#DejaVuSans-29" transform="translate(458.105469 0)"/>
      <use xlink:href="#DejaVuSans-20" transform="translate(497.119141 0)"/>
      <use xlink:href="#DejaVuSans-3d" transform="translate(528.90625 0)"/>
      <use xlink:href="#DejaVuSans-20" transform="translate(612.695312 0)"/>
      <use xlink:href="#DejaVuSans-30" transform="translate(644.482422 0)"/>
      <use xlink:href="#DejaVuSans-2e" transform="translate(708.105469 0)"/>
      <use xlink:href="#DejaVuSans-30" transform="translate(739.892578 0)"/>
      <use xlink:href="#DejaVuSans-31" transform="translate(803.515625 0)"/>
     </g>
    </g>
    <g id="PathCollection_5">
     <g>
      <use xlink:href="#m3df2cb9607" x="201.082734" y="61.314844" style="fill: #f28e2b; stroke: #f28e2b"/>
     </g>
    </g>
    <g id="text_21">
     <!-- (f(a)+f(b))/2 = 1.97 -->
     <g transform="translate(217.282734 63.677344) scale(0.09 -0.09)">
      <defs>
       <path id="DejaVuSans-39" d="M 703 97 
L 703 672 
Q 941 559 1184 500 
Q 1428 441 1663 441 
Q 2288 441 2617 861 
Q 2947 1281 2994 2138 
Q 2813 1869 2534 1725 
Q 2256 1581 1919 1581 
Q 1219 1581 811 2004 
Q 403 2428 403 3163 
Q 403 3881 828 4315 
Q 1253 4750 1959 4750 
Q 2769 4750 3195 4129 
Q 3622 3509 3622 2328 
Q 3622 1225 3098 567 
Q 2575 -91 1691 -91 
Q 1453 -91 1209 -44 
Q 966 3 703 97 
z
M 1959 2075 
Q 2384 2075 2632 2365 
Q 2881 2656 2881 3163 
Q 2881 3666 2632 3958 
Q 2384 4250 1959 4250 
Q 1534 4250 1286 3958 
Q 1038 3666 1038 3163 
Q 1038 2656 1286 2365 
Q 1534 2075 1959 2075 
z
" transform="scale(0.015625)"/>
       <path id="DejaVuSans-37" d="M 525 4666 
L 3525 4666 
L 3525 4397 
L 1831 0 
L 1172 0 
L 2766 4134 
L 525 4134 
L 525 4666 
z
" transform="scale(0.015625)"/>
      </defs>
      <use xlink:href="#DejaVuSans-28"/>
      <use xlink:href="#DejaVuSans-66" transform="translate(39.013672 0)"/>
      <use xlink:href="#DejaVuSans-28" transform="translate(74.21875 0)"/>
      <use xlink:href="#DejaVuSans-61" transform="translate(113.232422 0)"/>
      <use xlink:href="#DejaVuSans-29" transform="translate(174.511719 0)"/>
      <use xlink:href="#DejaVuSans-2b" transform="translate(213.525391 0)"/>
      <use xlink:href="#DejaVuSans-66" transform="translate(297.314453 0)"/>
      <use xlink:href="#DejaVuSans-28" transform="translate(332.519531 0)"/>
      <use xlink:href="#DejaVuSans-62" transform="translate(371.533203 0)"/>
      <use xlink:href="#DejaVuSans-29" transform="translate(435.009766 0)"/>
      <use xlink:href="#DejaVuSans-29" transform="translate(474.023438 0)"/>
      <use xlink:href="#DejaVuSans-2f" transform="translate(513.037109 0)"/>
      <use xlink:href="#DejaVuSans-32" transform="translate(546.728516 0)"/>
      <use xlink:href="#DejaVuSans-20" transform="translate(610.351562 0)"/>
      <use xlink:href="#DejaVuSans-3d" transform="translate(642.138672 0)"/>
      <use xlink:href="#DejaVuSans-20" transform="translate(725.927734 0)"/>
      <use xlink:href="#DejaVuSans-31" transform="translate(757.714844 0)"/>
      <use xlink:href="#DejaVuSans-2e" transform="translate(821.337891 0)"/>
      <use xlink:href="#DejaVuSans-39" transform="translate(853.125 0)"/>
      <use xlink:href="#DejaVuSans-37" transform="translate(916.748047 0)"/>
     </g>
    </g>
   </g>
  </g>
  <g id="axes_2">
   <g id="patch_8">
    <path d="M 501.127813 291.558125 
L 921.762813 291.558125 
L 921.762813 22.318125 
L 501.127813 22.318125 
z
" style="fill: #ffffff"/>
   </g>
   <g id="matplotlib.axis_3">
    <g id="xtick_10">
     <g id="line2d_39">
      <path d="M 510.442574 291.558125 
L 510.442574 22.318125 
" clip-path="url(#pa1a14a240e)" style="fill: none; stroke: #b0b0b0; stroke-opacity: 0.25; stroke-width: 0.8; stroke-linecap: square"/>
     </g>
     <g id="line2d_40">
      <g>
       <use xlink:href="#mb53d39f4a8" x="510.442574" y="291.558125" style="stroke: #000000; stroke-width: 0.8"/>
      </g>
     </g>
     <g id="text_22">
      <!-- 0.0 -->
      <g transform="translate(502.491011 306.156563) scale(0.1 -0.1)">
       <use xlink:href="#DejaVuSans-30"/>
       <use xlink:href="#DejaVuSans-2e" transform="translate(63.623047 0)"/>
       <use xlink:href="#DejaVuSans-30" transform="translate(95.410156 0)"/>
      </g>
     </g>
    </g>
    <g id="xtick_11">
     <g id="line2d_41">
      <path d="M 559.467632 291.558125 
L 559.467632 22.318125 
" clip-path="url(#pa1a14a240e)" style="fill: none; stroke: #b0b0b0; stroke-opacity: 0.25; stroke-width: 0.8; stroke-linecap: square"/>
     </g>
     <g id="line2d_42">
      <g>
       <use xlink:href="#mb53d39f4a8" x="559.467632" y="291.558125" style="stroke: #000000; stroke-width: 0.8"/>
      </g>
     </g>
     <g id="text_23">
      <!-- 0.5 -->
      <g transform="translate(551.516069 306.156563) scale(0.1 -0.1)">
       <use xlink:href="#DejaVuSans-30"/>
       <use xlink:href="#DejaVuSans-2e" transform="translate(63.623047 0)"/>
       <use xlink:href="#DejaVuSans-35" transform="translate(95.410156 0)"/>
      </g>
     </g>
    </g>
    <g id="xtick_12">
     <g id="line2d_43">
      <path d="M 608.49269 291.558125 
L 608.49269 22.318125 
" clip-path="url(#pa1a14a240e)" style="fill: none; stroke: #b0b0b0; stroke-opacity: 0.25; stroke-width: 0.8; stroke-linecap: square"/>
     </g>
     <g id="line2d_44">
      <g>
       <use xlink:href="#mb53d39f4a8" x="608.49269" y="291.558125" style="stroke: #000000; stroke-width: 0.8"/>
      </g>
     </g>
     <g id="text_24">
      <!-- 1.0 -->
      <g transform="translate(600.541128 306.156563) scale(0.1 -0.1)">
       <use xlink:href="#DejaVuSans-31"/>
       <use xlink:href="#DejaVuSans-2e" transform="translate(63.623047 0)"/>
       <use xlink:href="#DejaVuSans-30" transform="translate(95.410156 0)"/>
      </g>
     </g>
    </g>
    <g id="xtick_13">
     <g id="line2d_45">
      <path d="M 657.517748 291.558125 
L 657.517748 22.318125 
" clip-path="url(#pa1a14a240e)" style="fill: none; stroke: #b0b0b0; stroke-opacity: 0.25; stroke-width: 0.8; stroke-linecap: square"/>
     </g>
     <g id="line2d_46">
      <g>
       <use xlink:href="#mb53d39f4a8" x="657.517748" y="291.558125" style="stroke: #000000; stroke-width: 0.8"/>
      </g>
     </g>
     <g id="text_25">
      <!-- 1.5 -->
      <g transform="translate(649.566186 306.156563) scale(0.1 -0.1)">
       <use xlink:href="#DejaVuSans-31"/>
       <use xlink:href="#DejaVuSans-2e" transform="translate(63.623047 0)"/>
       <use xlink:href="#DejaVuSans-35" transform="translate(95.410156 0)"/>
      </g>
     </g>
    </g>
    <g id="xtick_14">
     <g id="line2d_47">
      <path d="M 706.542807 291.558125 
L 706.542807 22.318125 
" clip-path="url(#pa1a14a240e)" style="fill: none; stroke: #b0b0b0; stroke-opacity: 0.25; stroke-width: 0.8; stroke-linecap: square"/>
     </g>
     <g id="line2d_48">
      <g>
       <use xlink:href="#mb53d39f4a8" x="706.542807" y="291.558125" style="stroke: #000000; stroke-width: 0.8"/>
      </g>
     </g>
     <g id="text_26">
      <!-- 2.0 -->
      <g transform="translate(698.591244 306.156563) scale(0.1 -0.1)">
       <use xlink:href="#DejaVuSans-32"/>
       <use xlink:href="#DejaVuSans-2e" transform="translate(63.623047 0)"/>
       <use xlink:href="#DejaVuSans-30" transform="translate(95.410156 0)"/>
      </g>
     </g>
    </g>
    <g id="xtick_15">
     <g id="line2d_49">
      <path d="M 755.567865 291.558125 
L 755.567865 22.318125 
" clip-path="url(#pa1a14a240e)" style="fill: none; stroke: #b0b0b0; stroke-opacity: 0.25; stroke-width: 0.8; stroke-linecap: square"/>
     </g>
     <g id="line2d_50">
      <g>
       <use xlink:href="#mb53d39f4a8" x="755.567865" y="291.558125" style="stroke: #000000; stroke-width: 0.8"/>
      </g>
     </g>
     <g id="text_27">
      <!-- 2.5 -->
      <g transform="translate(747.616302 306.156563) scale(0.1 -0.1)">
       <use xlink:href="#DejaVuSans-32"/>
       <use xlink:href="#DejaVuSans-2e" transform="translate(63.623047 0)"/>
       <use xlink:href="#DejaVuSans-35" transform="translate(95.410156 0)"/>
      </g>
     </g>
    </g>
    <g id="xtick_16">
     <g id="line2d_51">
      <path d="M 804.592923 291.558125 
L 804.592923 22.318125 
" clip-path="url(#pa1a14a240e)" style="fill: none; stroke: #b0b0b0; stroke-opacity: 0.25; stroke-width: 0.8; stroke-linecap: square"/>
     </g>
     <g id="line2d_52">
      <g>
       <use xlink:href="#mb53d39f4a8" x="804.592923" y="291.558125" style="stroke: #000000; stroke-width: 0.8"/>
      </g>
     </g>
     <g id="text_28">
      <!-- 3.0 -->
      <g transform="translate(796.641361 306.156563) scale(0.1 -0.1)">
       <use xlink:href="#DejaVuSans-33"/>
       <use xlink:href="#DejaVuSans-2e" transform="translate(63.623047 0)"/>
       <use xlink:href="#DejaVuSans-30" transform="translate(95.410156 0)"/>
      </g>
     </g>
    </g>
    <g id="xtick_17">
     <g id="line2d_53">
      <path d="M 853.617981 291.558125 
L 853.617981 22.318125 
" clip-path="url(#pa1a14a240e)" style="fill: none; stroke: #b0b0b0; stroke-opacity: 0.25; stroke-width: 0.8; stroke-linecap: square"/>
     </g>
     <g id="line2d_54">
      <g>
       <use xlink:href="#mb53d39f4a8" x="853.617981" y="291.558125" style="stroke: #000000; stroke-width: 0.8"/>
      </g>
     </g>
     <g id="text_29">
      <!-- 3.5 -->
      <g transform="translate(845.666419 306.156563) scale(0.1 -0.1)">
       <use xlink:href="#DejaVuSans-33"/>
       <use xlink:href="#DejaVuSans-2e" transform="translate(63.623047 0)"/>
       <use xlink:href="#DejaVuSans-35" transform="translate(95.410156 0)"/>
      </g>
     </g>
    </g>
    <g id="xtick_18">
     <g id="line2d_55">
      <path d="M 902.64304 291.558125 
L 902.64304 22.318125 
" clip-path="url(#pa1a14a240e)" style="fill: none; stroke: #b0b0b0; stroke-opacity: 0.25; stroke-width: 0.8; stroke-linecap: square"/>
     </g>
     <g id="line2d_56">
      <g>
       <use xlink:href="#mb53d39f4a8" x="902.64304" y="291.558125" style="stroke: #000000; stroke-width: 0.8"/>
      </g>
     </g>
     <g id="text_30">
      <!-- 4.0 -->
      <g transform="translate(894.691477 306.156563) scale(0.1 -0.1)">
       <defs>
        <path id="DejaVuSans-34" d="M 2419 4116 
L 825 1625 
L 2419 1625 
L 2419 4116 
z
M 2253 4666 
L 3047 4666 
L 3047 1625 
L 3713 1625 
L 3713 1100 
L 3047 1100 
L 3047 0 
L 2419 0 
L 2419 1100 
L 313 1100 
L 313 1709 
L 2253 4666 
z
" transform="scale(0.015625)"/>
       </defs>
       <use xlink:href="#DejaVuSans-34"/>
       <use xlink:href="#DejaVuSans-2e" transform="translate(63.623047 0)"/>
       <use xlink:href="#DejaVuSans-30" transform="translate(95.410156 0)"/>
      </g>
     </g>
    </g>
   </g>
   <g id="matplotlib.axis_4">
    <g id="ytick_9">
     <g id="line2d_57">
      <path d="M 501.127813 259.24289 
L 921.762813 259.24289 
" clip-path="url(#pa1a14a240e)" style="fill: none; stroke: #b0b0b0; stroke-opacity: 0.25; stroke-width: 0.8; stroke-linecap: square"/>
     </g>
     <g id="line2d_58">
      <g>
       <use xlink:href="#m7f49735369" x="501.127813" y="259.24289" style="stroke: #000000; stroke-width: 0.8"/>
      </g>
     </g>
     <g id="text_31">
      <!-- −2.0 -->
      <g transform="translate(469.845 263.042109) scale(0.1 -0.1)">
       <use xlink:href="#DejaVuSans-2212"/>
       <use xlink:href="#DejaVuSans-32" transform="translate(83.789062 0)"/>
       <use xlink:href="#DejaVuSans-2e" transform="translate(147.412109 0)"/>
       <use xlink:href="#DejaVuSans-30" transform="translate(179.199219 0)"/>
      </g>
     </g>
    </g>
    <g id="ytick_10">
     <g id="line2d_59">
      <path d="M 501.127813 226.067011 
L 921.762813 226.067011 
" clip-path="url(#pa1a14a240e)" style="fill: none; stroke: #b0b0b0; stroke-opacity: 0.25; stroke-width: 0.8; stroke-linecap: square"/>
     </g>
     <g id="line2d_60">
      <g>
       <use xlink:href="#m7f49735369" x="501.127813" y="226.067011" style="stroke: #000000; stroke-width: 0.8"/>
      </g>
     </g>
     <g id="text_32">
      <!-- −1.5 -->
      <g transform="translate(469.845 229.86623) scale(0.1 -0.1)">
       <use xlink:href="#DejaVuSans-2212"/>
       <use xlink:href="#DejaVuSans-31" transform="translate(83.789062 0)"/>
       <use xlink:href="#DejaVuSans-2e" transform="translate(147.412109 0)"/>
       <use xlink:href="#DejaVuSans-35" transform="translate(179.199219 0)"/>
      </g>
     </g>
    </g>
    <g id="ytick_11">
     <g id="line2d_61">
      <path d="M 501.127813 192.891132 
L 921.762813 192.891132 
" clip-path="url(#pa1a14a240e)" style="fill: none; stroke: #b0b0b0; stroke-opacity: 0.25; stroke-width: 0.8; stroke-linecap: square"/>
     </g>
     <g id="line2d_62">
      <g>
       <use xlink:href="#m7f49735369" x="501.127813" y="192.891132" style="stroke: #000000; stroke-width: 0.8"/>
      </g>
     </g>
     <g id="text_33">
      <!-- −1.0 -->
      <g transform="translate(469.845 196.690351) scale(0.1 -0.1)">
       <use xlink:href="#DejaVuSans-2212"/>
       <use xlink:href="#DejaVuSans-31" transform="translate(83.789062 0)"/>
       <use xlink:href="#DejaVuSans-2e" transform="translate(147.412109 0)"/>
       <use xlink:href="#DejaVuSans-30" transform="translate(179.199219 0)"/>
      </g>
     </g>
    </g>
    <g id="ytick_12">
     <g id="line2d_63">
      <path d="M 501.127813 159.715254 
L 921.762813 159.715254 
" clip-path="url(#pa1a14a240e)" style="fill: none; stroke: #b0b0b0; stroke-opacity: 0.25; stroke-width: 0.8; stroke-linecap: square"/>
     </g>
     <g id="line2d_64">
      <g>
       <use xlink:href="#m7f49735369" x="501.127813" y="159.715254" style="stroke: #000000; stroke-width: 0.8"/>
      </g>
     </g>
     <g id="text_34">
      <!-- −0.5 -->
      <g transform="translate(469.845 163.514472) scale(0.1 -0.1)">
       <use xlink:href="#DejaVuSans-2212"/>
       <use xlink:href="#DejaVuSans-30" transform="translate(83.789062 0)"/>
       <use xlink:href="#DejaVuSans-2e" transform="translate(147.412109 0)"/>
       <use xlink:href="#DejaVuSans-35" transform="translate(179.199219 0)"/>
      </g>
     </g>
    </g>
    <g id="ytick_13">
     <g id="line2d_65">
      <path d="M 501.127813 126.539375 
L 921.762813 126.539375 
" clip-path="url(#pa1a14a240e)" style="fill: none; stroke: #b0b0b0; stroke-opacity: 0.25; stroke-width: 0.8; stroke-linecap: square"/>
     </g>
     <g id="line2d_66">
      <g>
       <use xlink:href="#m7f49735369" x="501.127813" y="126.539375" style="stroke: #000000; stroke-width: 0.8"/>
      </g>
     </g>
     <g id="text_35">
      <!-- 0.0 -->
      <g transform="translate(478.224688 130.338593) scale(0.1 -0.1)">
       <use xlink:href="#DejaVuSans-30"/>
       <use xlink:href="#DejaVuSans-2e" transform="translate(63.623047 0)"/>
       <use xlink:href="#DejaVuSans-30" transform="translate(95.410156 0)"/>
      </g>
     </g>
    </g>
    <g id="ytick_14">
     <g id="line2d_67">
      <path d="M 501.127813 93.363496 
L 921.762813 93.363496 
" clip-path="url(#pa1a14a240e)" style="fill: none; stroke: #b0b0b0; stroke-opacity: 0.25; stroke-width: 0.8; stroke-linecap: square"/>
     </g>
     <g id="line2d_68">
      <g>
       <use xlink:href="#m7f49735369" x="501.127813" y="93.363496" style="stroke: #000000; stroke-width: 0.8"/>
      </g>
     </g>
     <g id="text_36">
      <!-- 0.5 -->
      <g transform="translate(478.224688 97.162714) scale(0.1 -0.1)">
       <use xlink:href="#DejaVuSans-30"/>
       <use xlink:href="#DejaVuSans-2e" transform="translate(63.623047 0)"/>
       <use xlink:href="#DejaVuSans-35" transform="translate(95.410156 0)"/>
      </g>
     </g>
    </g>
    <g id="ytick_15">
     <g id="line2d_69">
      <path d="M 501.127813 60.187617 
L 921.762813 60.187617 
" clip-path="url(#pa1a14a240e)" style="fill: none; stroke: #b0b0b0; stroke-opacity: 0.25; stroke-width: 0.8; stroke-linecap: square"/>
     </g>
     <g id="line2d_70">
      <g>
       <use xlink:href="#m7f49735369" x="501.127813" y="60.187617" style="stroke: #000000; stroke-width: 0.8"/>
      </g>
     </g>
     <g id="text_37">
      <!-- 1.0 -->
      <g transform="translate(478.224688 63.986835) scale(0.1 -0.1)">
       <use xlink:href="#DejaVuSans-31"/>
       <use xlink:href="#DejaVuSans-2e" transform="translate(63.623047 0)"/>
       <use xlink:href="#DejaVuSans-30" transform="translate(95.410156 0)"/>
      </g>
     </g>
    </g>
    <g id="ytick_16">
     <g id="line2d_71">
      <path d="M 501.127813 27.011738 
L 921.762813 27.011738 
" clip-path="url(#pa1a14a240e)" style="fill: none; stroke: #b0b0b0; stroke-opacity: 0.25; stroke-width: 0.8; stroke-linecap: square"/>
     </g>
     <g id="line2d_72">
      <g>
       <use xlink:href="#m7f49735369" x="501.127813" y="27.011738" style="stroke: #000000; stroke-width: 0.8"/>
      </g>
     </g>
     <g id="text_38">
      <!-- 1.5 -->
      <g transform="translate(478.224688 30.810957) scale(0.1 -0.1)">
       <use xlink:href="#DejaVuSans-31"/>
       <use xlink:href="#DejaVuSans-2e" transform="translate(63.623047 0)"/>
       <use xlink:href="#DejaVuSans-35" transform="translate(95.410156 0)"/>
      </g>
     </g>
    </g>
   </g>
   <g id="line2d_73">
    <path d="M 520.247585 279.319943 
L 522.164354 267.4725 
L 524.081124 257.423419 
L 525.997893 248.698009 
L 527.914662 240.987802 
L 529.831431 234.080989 
L 531.7482 227.825833 
L 533.66497 222.109898 
L 536.540123 214.365037 
L 539.415277 207.430436 
L 542.290431 201.152499 
L 545.165585 195.41755 
L 548.040739 190.139093 
L 550.915892 185.249784 
L 554.749431 179.245183 
L 558.582969 173.739168 
L 562.416508 168.655252 
L 566.250046 163.933299 
L 570.083584 159.525176 
L 574.875507 154.397415 
L 579.66743 149.637665 
L 584.459353 145.196621 
L 589.251276 141.034268 
L 595.001584 136.361366 
L 600.751891 131.996017 
L 606.502199 127.900226 
L 613.210891 123.42095 
L 619.919583 119.225034 
L 626.628276 115.278748 
L 634.295352 111.038619 
L 641.962429 107.053251 
L 650.587891 102.838452 
L 659.213352 98.87547 
L 668.797198 94.733113 
L 678.381044 90.834238 
L 688.923274 86.794556 
L 699.465505 82.986771 
L 710.96612 79.067814 
L 723.42512 75.068227 
L 735.88412 71.296084 
L 749.301504 67.460142 
L 763.677273 63.582306 
L 779.011427 59.681447 
L 795.303965 55.773634 
L 812.554888 51.872407 
L 830.764195 47.989057 
L 849.931887 44.132898 
L 870.057963 40.311526 
L 891.142425 36.531057 
L 902.64304 34.556307 
L 902.64304 34.556307 
" clip-path="url(#pa1a14a240e)" style="fill: none; stroke: #7aa6c2; stroke-width: 2.5; stroke-linecap: square"/>
   </g>
   <g id="line2d_74">
    <path d="M 559.467632 172.530909 
L 853.617981 43.416349 
" clip-path="url(#pa1a14a240e)" style="fill: none; stroke-dasharray: 7.4,3.2; stroke-dashoffset: 0; stroke: #e15759; stroke-width: 2"/>
   </g>
   <g id="patch_9">
    <path d="M 501.127813 291.558125 
L 501.127813 22.318125 
" style="fill: none; stroke: #000000; stroke-width: 0.8; stroke-linejoin: miter; stroke-linecap: square"/>
   </g>
   <g id="patch_10">
    <path d="M 921.762813 291.558125 
L 921.762813 22.318125 
" style="fill: none; stroke: #000000; stroke-width: 0.8; stroke-linejoin: miter; stroke-linecap: square"/>
   </g>
   <g id="patch_11">
    <path d="M 501.127813 291.558125 
L 921.762813 291.558125 
" style="fill: none; stroke: #000000; stroke-width: 0.8; stroke-linejoin: miter; stroke-linecap: square"/>
   </g>
   <g id="patch_12">
    <path d="M 501.127813 22.318125 
L 921.762813 22.318125 
" style="fill: none; stroke: #000000; stroke-width: 0.8; stroke-linejoin: miter; stroke-linecap: square"/>
   </g>
   <g id="text_39">
    <!-- Concave log(x): chord (red) lies BELOW the function -->
    <g transform="translate(555.159375 16.318125) scale(0.12 -0.12)">
     <defs>
      <path id="DejaVuSans-67" d="M 2906 1791 
Q 2906 2416 2648 2759 
Q 2391 3103 1925 3103 
Q 1463 3103 1205 2759 
Q 947 2416 947 1791 
Q 947 1169 1205 825 
Q 1463 481 1925 481 
Q 2391 481 2648 825 
Q 2906 1169 2906 1791 
z
M 3481 434 
Q 3481 -459 3084 -895 
Q 2688 -1331 1869 -1331 
Q 1566 -1331 1297 -1286 
Q 1028 -1241 775 -1147 
L 775 -588 
Q 1028 -725 1275 -790 
Q 1522 -856 1778 -856 
Q 2344 -856 2625 -561 
Q 2906 -266 2906 331 
L 2906 616 
Q 2728 306 2450 153 
Q 2172 0 1784 0 
Q 1141 0 747 490 
Q 353 981 353 1791 
Q 353 2603 747 3093 
Q 1141 3584 1784 3584 
Q 2172 3584 2450 3431 
Q 2728 3278 2906 2969 
L 2906 3500 
L 3481 3500 
L 3481 434 
z
" transform="scale(0.015625)"/>
      <path id="DejaVuSans-4c" d="M 628 4666 
L 1259 4666 
L 1259 531 
L 3531 531 
L 3531 0 
L 628 0 
L 628 4666 
z
" transform="scale(0.015625)"/>
      <path id="DejaVuSans-57" d="M 213 4666 
L 850 4666 
L 1831 722 
L 2809 4666 
L 3519 4666 
L 4500 722 
L 5478 4666 
L 6119 4666 
L 4947 0 
L 4153 0 
L 3169 4050 
L 2175 0 
L 1381 0 
L 213 4666 
z
" transform="scale(0.015625)"/>
     </defs>
     <use xlink:href="#DejaVuSans-43"/>
     <use xlink:href="#DejaVuSans-6f" transform="translate(69.824219 0)"/>
     <use xlink:href="#DejaVuSans-6e" transform="translate(131.005859 0)"/>
     <use xlink:href="#DejaVuSans-63" transform="translate(194.384766 0)"/>
     <use xlink:href="#DejaVuSans-61" transform="translate(249.365234 0)"/>
     <use xlink:href="#DejaVuSans-76" transform="translate(310.644531 0)"/>
     <use xlink:href="#DejaVuSans-65" transform="translate(369.824219 0)"/>
     <use xlink:href="#DejaVuSans-20" transform="translate(431.347656 0)"/>
     <use xlink:href="#DejaVuSans-6c" transform="translate(463.134766 0)"/>
     <use xlink:href="#DejaVuSans-6f" transform="translate(490.917969 0)"/>
     <use xlink:href="#DejaVuSans-67" transform="translate(552.099609 0)"/>
     <use xlink:href="#DejaVuSans-28" transform="translate(615.576172 0)"/>
     <use xlink:href="#DejaVuSans-78" transform="translate(654.589844 0)"/>
     <use xlink:href="#DejaVuSans-29" transform="translate(713.769531 0)"/>
     <use xlink:href="#DejaVuSans-3a" transform="translate(752.783203 0)"/>
     <use xlink:href="#DejaVuSans-20" transform="translate(786.474609 0)"/>
     <use xlink:href="#DejaVuSans-63" transform="translate(818.261719 0)"/>
     <use xlink:href="#DejaVuSans-68" transform="translate(873.242188 0)"/>
     <use xlink:href="#DejaVuSans-6f" transform="translate(936.621094 0)"/>
     <use xlink:href="#DejaVuSans-72" transform="translate(997.802734 0)"/>
     <use xlink:href="#DejaVuSans-64" transform="translate(1037.166016 0)"/>
     <use xlink:href="#DejaVuSans-20" transform="translate(1100.642578 0)"/>
     <use xlink:href="#DejaVuSans-28" transform="translate(1132.429688 0)"/>
     <use xlink:href="#DejaVuSans-72" transform="translate(1171.443359 0)"/>
     <use xlink:href="#DejaVuSans-65" transform="translate(1210.306641 0)"/>
     <use xlink:href="#DejaVuSans-64" transform="translate(1271.830078 0)"/>
     <use xlink:href="#DejaVuSans-29" transform="translate(1335.306641 0)"/>
     <use xlink:href="#DejaVuSans-20" transform="translate(1374.320312 0)"/>
     <use xlink:href="#DejaVuSans-6c" transform="translate(1406.107422 0)"/>
     <use xlink:href="#DejaVuSans-69" transform="translate(1433.890625 0)"/>
     <use xlink:href="#DejaVuSans-65" transform="translate(1461.673828 0)"/>
     <use xlink:href="#DejaVuSans-73" transform="translate(1523.197266 0)"/>
     <use xlink:href="#DejaVuSans-20" transform="translate(1575.296875 0)"/>
     <use xlink:href="#DejaVuSans-42" transform="translate(1607.083984 0)"/>
     <use xlink:href="#DejaVuSans-45" transform="translate(1675.6875 0)"/>
     <use xlink:href="#DejaVuSans-4c" transform="translate(1738.871094 0)"/>
     <use xlink:href="#DejaVuSans-4f" transform="translate(1790.958984 0)"/>
     <use xlink:href="#DejaVuSans-57" transform="translate(1869.669922 0)"/>
     <use xlink:href="#DejaVuSans-20" transform="translate(1968.546875 0)"/>
     <use xlink:href="#DejaVuSans-74" transform="translate(2000.333984 0)"/>
     <use xlink:href="#DejaVuSans-68" transform="translate(2039.542969 0)"/>
     <use xlink:href="#DejaVuSans-65" transform="translate(2102.921875 0)"/>
     <use xlink:href="#DejaVuSans-20" transform="translate(2164.445312 0)"/>
     <use xlink:href="#DejaVuSans-66" transform="translate(2196.232422 0)"/>
     <use xlink:href="#DejaVuSans-75" transform="translate(2231.4375 0)"/>
     <use xlink:href="#DejaVuSans-6e" transform="translate(2294.816406 0)"/>
     <use xlink:href="#DejaVuSans-63" transform="translate(2358.195312 0)"/>
     <use xlink:href="#DejaVuSans-74" transform="translate(2413.175781 0)"/>
     <use xlink:href="#DejaVuSans-69" transform="translate(2452.384766 0)"/>
     <use xlink:href="#DejaVuSans-6f" transform="translate(2480.167969 0)"/>
     <use xlink:href="#DejaVuSans-6e" transform="translate(2541.349609 0)"/>
    </g>
   </g>
   <g id="PathCollection_6">
    <g clip-path="url(#pa1a14a240e)">
     <use xlink:href="#mceed588e65" x="559.467632" y="172.530909" style="fill: #e15759; stroke: #e15759"/>
     <use xlink:href="#mceed588e65" x="853.617981" y="43.416349" style="fill: #e15759; stroke: #e15759"/>
    </g>
   </g>
   <g id="PathCollection_7">
    <g clip-path="url(#pa1a14a240e)">
     <use xlink:href="#m2b5dbb2887" x="706.542807" y="80.547841" style="fill: #59a14f; stroke: #59a14f"/>
    </g>
   </g>
   <g id="PathCollection_8">
    <g clip-path="url(#pa1a14a240e)">
     <use xlink:href="#m3df2cb9607" x="706.542807" y="107.973629" style="fill: #f28e2b; stroke: #f28e2b"/>
    </g>
   </g>
   <g id="legend_2">
    <g id="patch_13">
     <path d="M 831.729063 287.058125 
L 915.462813 287.058125 
Q 917.262813 287.058125 917.262813 285.258125 
L 917.262813 246.527188 
Q 917.262813 244.727188 915.462813 244.727188 
L 831.729063 244.727188 
Q 829.929063 244.727188 829.929063 246.527188 
L 829.929063 285.258125 
Q 829.929063 287.058125 831.729063 287.058125 
z
" style="fill: #ffffff; opacity: 0.8; stroke: #cccccc; stroke-linejoin: miter"/>
    </g>
    <g id="line2d_75">
     <path d="M 833.529063 252.015781 
L 842.529063 252.015781 
L 851.529063 252.015781 
" style="fill: none; stroke-dasharray: 7.4,3.2; stroke-dashoffset: 0; stroke: #e15759; stroke-width: 2"/>
    </g>
    <g id="text_40">
     <!-- chord -->
     <g transform="translate(858.729063 255.165781) scale(0.09 -0.09)">
      <use xlink:href="#DejaVuSans-63"/>
      <use xlink:href="#DejaVuSans-68" transform="translate(54.980469 0)"/>
      <use xlink:href="#DejaVuSans-6f" transform="translate(118.359375 0)"/>
      <use xlink:href="#DejaVuSans-72" transform="translate(179.541016 0)"/>
      <use xlink:href="#DejaVuSans-64" transform="translate(218.904297 0)"/>
     </g>
    </g>
    <g id="PathCollection_9">
     <g>
      <use xlink:href="#m2b5dbb2887" x="842.529063" y="266.013594" style="fill: #59a14f; stroke: #59a14f"/>
     </g>
    </g>
    <g id="text_41">
     <!-- f((a+b)/2) -->
     <g transform="translate(858.729063 268.376094) scale(0.09 -0.09)">
      <use xlink:href="#DejaVuSans-66"/>
      <use xlink:href="#DejaVuSans-28" transform="translate(35.205078 0)"/>
      <use xlink:href="#DejaVuSans-28" transform="translate(74.21875 0)"/>
      <use xlink:href="#DejaVuSans-61" transform="translate(113.232422 0)"/>
      <use xlink:href="#DejaVuSans-2b" transform="translate(174.511719 0)"/>
      <use xlink:href="#DejaVuSans-62" transform="translate(258.300781 0)"/>
      <use xlink:href="#DejaVuSans-29" transform="translate(321.777344 0)"/>
      <use xlink:href="#DejaVuSans-2f" transform="translate(360.791016 0)"/>
      <use xlink:href="#DejaVuSans-32" transform="translate(394.482422 0)"/>
      <use xlink:href="#DejaVuSans-29" transform="translate(458.105469 0)"/>
     </g>
    </g>
    <g id="PathCollection_10">
     <g>
      <use xlink:href="#m3df2cb9607" x="842.529063" y="279.223906" style="fill: #f28e2b; stroke: #f28e2b"/>
     </g>
    </g>
    <g id="text_42">
     <!-- (f(a)+f(b))/2 -->
     <g transform="translate(858.729063 281.586406) scale(0.09 -0.09)">
      <use xlink:href="#DejaVuSans-28"/>
      <use xlink:href="#DejaVuSans-66" transform="translate(39.013672 0)"/>
      <use xlink:href="#DejaVuSans-28" transform="translate(74.21875 0)"/>
      <use xlink:href="#DejaVuSans-61" transform="translate(113.232422 0)"/>
      <use xlink:href="#DejaVuSans-29" transform="translate(174.511719 0)"/>
      <use xlink:href="#DejaVuSans-2b" transform="translate(213.525391 0)"/>
      <use xlink:href="#DejaVuSans-66" transform="translate(297.314453 0)"/>
      <use xlink:href="#DejaVuSans-28" transform="translate(332.519531 0)"/>
      <use xlink:href="#DejaVuSans-62" transform="translate(371.533203 0)"/>
      <use xlink:href="#DejaVuSans-29" transform="translate(435.009766 0)"/>
      <use xlink:href="#DejaVuSans-29" transform="translate(474.023438 0)"/>
      <use xlink:href="#DejaVuSans-2f" transform="translate(513.037109 0)"/>
      <use xlink:href="#DejaVuSans-32" transform="translate(546.728516 0)"/>
     </g>
    </g>
   </g>
  </g>
 </g>
 <defs>
  <clipPath id="p9314d6dacc">
   <rect x="38.482813" y="22.318125" width="420.635" height="269.24"/>
  </clipPath>
  <clipPath id="pa1a14a240e">
   <rect x="501.127813" y="22.318125" width="420.635" height="269.24"/>
  </clipPath>
 </defs>
</svg>
