<?xml version="1.0" encoding="utf-8" standalone="no"?>
<!DOCTYPE svg PUBLIC "-//W3C//DTD SVG 1.1//EN"
  "http://www.w3.org/Graphics/SVG/1.1/DTD/svg11.dtd">
<svg xmlns:xlink="http://www.w3.org/1999/xlink" width="604.370625pt" height="315.034375pt" viewBox="0 0 604.370625 315.034375" xmlns="http://www.w3.org/2000/svg" version="1.1">
 <metadata>
  <rdf:RDF xmlns:dc="http://purl.org/dc/elements/1.1/" xmlns:cc="http://creativecommons.org/ns#" xmlns:rdf="http://www.w3.org/1999/02/22-rdf-syntax-ns#">
   <cc:Work>
    <dc:type rdf:resource="http://purl.org/dc/dcmitype/StillImage"/>
    <dc:date>2026-05-26T10:39:14.571606</dc:date>
    <dc:format>image/svg+xml</dc:format>
    <dc:creator>
     <cc:Agent>
      <dc:title>Matplotlib v3.10.8, https://matplotlib.org/</dc:title>
     </cc:Agent>
    </dc:creator>
   </cc:Work>
  </rdf:RDF>
 </metadata>
 <defs>
  <style type="text/css">*{stroke-linejoin: round; stroke-linecap: butt}</style>
 </defs>
 <g id="figure_1">
  <g id="patch_1">
   <path d="M 0 315.034375 
L 604.370625 315.034375 
L 604.370625 0 
L 0 0 
z
" style="fill: #ffffff"/>
  </g>
  <g id="axes_1">
   <g id="patch_2">
    <path d="M 34.240625 277.478125 
L 597.170625 277.478125 
L 597.170625 22.318125 
L 34.240625 22.318125 
z
" style="fill: #ffffff"/>
   </g>
   <g id="matplotlib.axis_1">
    <g id="xtick_1">
     <g id="line2d_1">
      <path d="M 59.315572 277.478125 
L 59.315572 22.318125 
" clip-path="url(#p02b23008b2)" style="fill: none; stroke: #b0b0b0; stroke-opacity: 0.25; stroke-width: 0.8; stroke-linecap: square"/>
     </g>
     <g id="line2d_2">
      <defs>
       <path id="mb8220e596b" d="M 0 0 
L 0 3.5 
" style="stroke: #000000; stroke-width: 0.8"/>
      </defs>
      <g>
       <use xlink:href="#mb8220e596b" x="59.315572" y="277.478125" style="stroke: #000000; stroke-width: 0.8"/>
      </g>
     </g>
     <g id="text_1">
      <!-- 0.0 -->
      <g transform="translate(51.36401 292.076563) scale(0.1 -0.1)">
       <defs>
        <path id="DejaVuSans-30" d="M 2034 4250 
Q 1547 4250 1301 3770 
Q 1056 3291 1056 2328 
Q 1056 1369 1301 889 
Q 1547 409 2034 409 
Q 2525 409 2770 889 
Q 3016 1369 3016 2328 
Q 3016 3291 2770 3770 
Q 2525 4250 2034 4250 
z
M 2034 4750 
Q 2819 4750 3233 4129 
Q 3647 3509 3647 2328 
Q 3647 1150 3233 529 
Q 2819 -91 2034 -91 
Q 1250 -91 836 529 
Q 422 1150 422 2328 
Q 422 3509 836 4129 
Q 1250 4750 2034 4750 
z
" transform="scale(0.015625)"/>
        <path id="DejaVuSans-2e" d="M 684 794 
L 1344 794 
L 1344 0 
L 684 0 
L 684 794 
z
" transform="scale(0.015625)"/>
       </defs>
       <use xlink:href="#DejaVuSans-30"/>
       <use xlink:href="#DejaVuSans-2e" transform="translate(63.623047 0)"/>
       <use xlink:href="#DejaVuSans-30" transform="translate(95.410156 0)"/>
      </g>
     </g>
    </g>
    <g id="xtick_2">
     <g id="line2d_3">
      <path d="M 161.871593 277.478125 
L 161.871593 22.318125 
" clip-path="url(#p02b23008b2)" style="fill: none; stroke: #b0b0b0; stroke-opacity: 0.25; stroke-width: 0.8; stroke-linecap: square"/>
     </g>
     <g id="line2d_4">
      <g>
       <use xlink:href="#mb8220e596b" x="161.871593" y="277.478125" style="stroke: #000000; stroke-width: 0.8"/>
      </g>
     </g>
     <g id="text_2">
      <!-- 0.2 -->
      <g transform="translate(153.920031 292.076563) scale(0.1 -0.1)">
       <defs>
        <path id="DejaVuSans-32" d="M 1228 531 
L 3431 531 
L 3431 0 
L 469 0 
L 469 531 
Q 828 903 1448 1529 
Q 2069 2156 2228 2338 
Q 2531 2678 2651 2914 
Q 2772 3150 2772 3378 
Q 2772 3750 2511 3984 
Q 2250 4219 1831 4219 
Q 1534 4219 1204 4116 
Q 875 4013 500 3803 
L 500 4441 
Q 881 4594 1212 4672 
Q 1544 4750 1819 4750 
Q 2544 4750 2975 4387 
Q 3406 4025 3406 3419 
Q 3406 3131 3298 2873 
Q 3191 2616 2906 2266 
Q 2828 2175 2409 1742 
Q 1991 1309 1228 531 
z
" transform="scale(0.015625)"/>
       </defs>
       <use xlink:href="#DejaVuSans-30"/>
       <use xlink:href="#DejaVuSans-2e" transform="translate(63.623047 0)"/>
       <use xlink:href="#DejaVuSans-32" transform="translate(95.410156 0)"/>
      </g>
     </g>
    </g>
    <g id="xtick_3">
     <g id="line2d_5">
      <path d="M 264.427614 277.478125 
L 264.427614 22.318125 
" clip-path="url(#p02b23008b2)" style="fill: none; stroke: #b0b0b0; stroke-opacity: 0.25; stroke-width: 0.8; stroke-linecap: square"/>
     </g>
     <g id="line2d_6">
      <g>
       <use xlink:href="#mb8220e596b" x="264.427614" y="277.478125" style="stroke: #000000; stroke-width: 0.8"/>
      </g>
     </g>
     <g id="text_3">
      <!-- 0.4 -->
      <g transform="translate(256.476052 292.076563) scale(0.1 -0.1)">
       <defs>
        <path id="DejaVuSans-34" d="M 2419 4116 
L 825 1625 
L 2419 1625 
L 2419 4116 
z
M 2253 4666 
L 3047 4666 
L 3047 1625 
L 3713 1625 
L 3713 1100 
L 3047 1100 
L 3047 0 
L 2419 0 
L 2419 1100 
L 313 1100 
L 313 1709 
L 2253 4666 
z
" transform="scale(0.015625)"/>
       </defs>
       <use xlink:href="#DejaVuSans-30"/>
       <use xlink:href="#DejaVuSans-2e" transform="translate(63.623047 0)"/>
       <use xlink:href="#DejaVuSans-34" transform="translate(95.410156 0)"/>
      </g>
     </g>
    </g>
    <g id="xtick_4">
     <g id="line2d_7">
      <path d="M 366.983636 277.478125 
L 366.983636 22.318125 
" clip-path="url(#p02b23008b2)" style="fill: none; stroke: #b0b0b0; stroke-opacity: 0.25; stroke-width: 0.8; stroke-linecap: square"/>
     </g>
     <g id="line2d_8">
      <g>
       <use xlink:href="#mb8220e596b" x="366.983636" y="277.478125" style="stroke: #000000; stroke-width: 0.8"/>
      </g>
     </g>
     <g id="text_4">
      <!-- 0.6 -->
      <g transform="translate(359.032073 292.076563) scale(0.1 -0.1)">
       <defs>
        <path id="DejaVuSans-36" d="M 2113 2584 
Q 1688 2584 1439 2293 
Q 1191 2003 1191 1497 
Q 1191 994 1439 701 
Q 1688 409 2113 409 
Q 2538 409 2786 701 
Q 3034 994 3034 1497 
Q 3034 2003 2786 2293 
Q 2538 2584 2113 2584 
z
M 3366 4563 
L 3366 3988 
Q 3128 4100 2886 4159 
Q 2644 4219 2406 4219 
Q 1781 4219 1451 3797 
Q 1122 3375 1075 2522 
Q 1259 2794 1537 2939 
Q 1816 3084 2150 3084 
Q 2853 3084 3261 2657 
Q 3669 2231 3669 1497 
Q 3669 778 3244 343 
Q 2819 -91 2113 -91 
Q 1303 -91 875 529 
Q 447 1150 447 2328 
Q 447 3434 972 4092 
Q 1497 4750 2381 4750 
Q 2619 4750 2861 4703 
Q 3103 4656 3366 4563 
z
" transform="scale(0.015625)"/>
       </defs>
       <use xlink:href="#DejaVuSans-30"/>
       <use xlink:href="#DejaVuSans-2e" transform="translate(63.623047 0)"/>
       <use xlink:href="#DejaVuSans-36" transform="translate(95.410156 0)"/>
      </g>
     </g>
    </g>
    <g id="xtick_5">
     <g id="line2d_9">
      <path d="M 469.539657 277.478125 
L 469.539657 22.318125 
" clip-path="url(#p02b23008b2)" style="fill: none; stroke: #b0b0b0; stroke-opacity: 0.25; stroke-width: 0.8; stroke-linecap: square"/>
     </g>
     <g id="line2d_10">
      <g>
       <use xlink:href="#mb8220e596b" x="469.539657" y="277.478125" style="stroke: #000000; stroke-width: 0.8"/>
      </g>
     </g>
     <g id="text_5">
      <!-- 0.8 -->
      <g transform="translate(461.588094 292.076563) scale(0.1 -0.1)">
       <defs>
        <path id="DejaVuSans-38" d="M 2034 2216 
Q 1584 2216 1326 1975 
Q 1069 1734 1069 1313 
Q 1069 891 1326 650 
Q 1584 409 2034 409 
Q 2484 409 2743 651 
Q 3003 894 3003 1313 
Q 3003 1734 2745 1975 
Q 2488 2216 2034 2216 
z
M 1403 2484 
Q 997 2584 770 2862 
Q 544 3141 544 3541 
Q 544 4100 942 4425 
Q 1341 4750 2034 4750 
Q 2731 4750 3128 4425 
Q 3525 4100 3525 3541 
Q 3525 3141 3298 2862 
Q 3072 2584 2669 2484 
Q 3125 2378 3379 2068 
Q 3634 1759 3634 1313 
Q 3634 634 3220 271 
Q 2806 -91 2034 -91 
Q 1263 -91 848 271 
Q 434 634 434 1313 
Q 434 1759 690 2068 
Q 947 2378 1403 2484 
z
M 1172 3481 
Q 1172 3119 1398 2916 
Q 1625 2713 2034 2713 
Q 2441 2713 2670 2916 
Q 2900 3119 2900 3481 
Q 2900 3844 2670 4047 
Q 2441 4250 2034 4250 
Q 1625 4250 1398 4047 
Q 1172 3844 1172 3481 
z
" transform="scale(0.015625)"/>
       </defs>
       <use xlink:href="#DejaVuSans-30"/>
       <use xlink:href="#DejaVuSans-2e" transform="translate(63.623047 0)"/>
       <use xlink:href="#DejaVuSans-38" transform="translate(95.410156 0)"/>
      </g>
     </g>
    </g>
    <g id="xtick_6">
     <g id="line2d_11">
      <path d="M 572.095678 277.478125 
L 572.095678 22.318125 
" clip-path="url(#p02b23008b2)" style="fill: none; stroke: #b0b0b0; stroke-opacity: 0.25; stroke-width: 0.8; stroke-linecap: square"/>
     </g>
     <g id="line2d_12">
      <g>
       <use xlink:href="#mb8220e596b" x="572.095678" y="277.478125" style="stroke: #000000; stroke-width: 0.8"/>
      </g>
     </g>
     <g id="text_6">
      <!-- 1.0 -->
      <g transform="translate(564.144115 292.076563) scale(0.1 -0.1)">
       <defs>
        <path id="DejaVuSans-31" d="M 794 531 
L 1825 531 
L 1825 4091 
L 703 3866 
L 703 4441 
L 1819 4666 
L 2450 4666 
L 2450 531 
L 3481 531 
L 3481 0 
L 794 0 
L 794 531 
z
" transform="scale(0.015625)"/>
       </defs>
       <use xlink:href="#DejaVuSans-31"/>
       <use xlink:href="#DejaVuSans-2e" transform="translate(63.623047 0)"/>
       <use xlink:href="#DejaVuSans-30" transform="translate(95.410156 0)"/>
      </g>
     </g>
    </g>
    <g id="text_7">
     <!-- predicted probability p -->
     <g transform="translate(258.960312 305.754687) scale(0.1 -0.1)">
      <defs>
       <path id="DejaVuSans-70" d="M 1159 525 
L 1159 -1331 
L 581 -1331 
L 581 3500 
L 1159 3500 
L 1159 2969 
Q 1341 3281 1617 3432 
Q 1894 3584 2278 3584 
Q 2916 3584 3314 3078 
Q 3713 2572 3713 1747 
Q 3713 922 3314 415 
Q 2916 -91 2278 -91 
Q 1894 -91 1617 61 
Q 1341 213 1159 525 
z
M 3116 1747 
Q 3116 2381 2855 2742 
Q 2594 3103 2138 3103 
Q 1681 3103 1420 2742 
Q 1159 2381 1159 1747 
Q 1159 1113 1420 752 
Q 1681 391 2138 391 
Q 2594 391 2855 752 
Q 3116 1113 3116 1747 
z
" transform="scale(0.015625)"/>
       <path id="DejaVuSans-72" d="M 2631 2963 
Q 2534 3019 2420 3045 
Q 2306 3072 2169 3072 
Q 1681 3072 1420 2755 
Q 1159 2438 1159 1844 
L 1159 0 
L 581 0 
L 581 3500 
L 1159 3500 
L 1159 2956 
Q 1341 3275 1631 3429 
Q 1922 3584 2338 3584 
Q 2397 3584 2469 3576 
Q 2541 3569 2628 3553 
L 2631 2963 
z
" transform="scale(0.015625)"/>
       <path id="DejaVuSans-65" d="M 3597 1894 
L 3597 1613 
L 953 1613 
Q 991 1019 1311 708 
Q 1631 397 2203 397 
Q 2534 397 2845 478 
Q 3156 559 3463 722 
L 3463 178 
Q 3153 47 2828 -22 
Q 2503 -91 2169 -91 
Q 1331 -91 842 396 
Q 353 884 353 1716 
Q 353 2575 817 3079 
Q 1281 3584 2069 3584 
Q 2775 3584 3186 3129 
Q 3597 2675 3597 1894 
z
M 3022 2063 
Q 3016 2534 2758 2815 
Q 2500 3097 2075 3097 
Q 1594 3097 1305 2825 
Q 1016 2553 972 2059 
L 3022 2063 
z
" transform="scale(0.015625)"/>
       <path id="DejaVuSans-64" d="M 2906 2969 
L 2906 4863 
L 3481 4863 
L 3481 0 
L 2906 0 
L 2906 525 
Q 2725 213 2448 61 
Q 2172 -91 1784 -91 
Q 1150 -91 751 415 
Q 353 922 353 1747 
Q 353 2572 751 3078 
Q 1150 3584 1784 3584 
Q 2172 3584 2448 3432 
Q 2725 3281 2906 2969 
z
M 947 1747 
Q 947 1113 1208 752 
Q 1469 391 1925 391 
Q 2381 391 2643 752 
Q 2906 1113 2906 1747 
Q 2906 2381 2643 2742 
Q 2381 3103 1925 3103 
Q 1469 3103 1208 2742 
Q 947 2381 947 1747 
z
" transform="scale(0.015625)"/>
       <path id="DejaVuSans-69" d="M 603 3500 
L 1178 3500 
L 1178 0 
L 603 0 
L 603 3500 
z
M 603 4863 
L 1178 4863 
L 1178 4134 
L 603 4134 
L 603 4863 
z
" transform="scale(0.015625)"/>
       <path id="DejaVuSans-63" d="M 3122 3366 
L 3122 2828 
Q 2878 2963 2633 3030 
Q 2388 3097 2138 3097 
Q 1578 3097 1268 2742 
Q 959 2388 959 1747 
Q 959 1106 1268 751 
Q 1578 397 2138 397 
Q 2388 397 2633 464 
Q 2878 531 3122 666 
L 3122 134 
Q 2881 22 2623 -34 
Q 2366 -91 2075 -91 
Q 1284 -91 818 406 
Q 353 903 353 1747 
Q 353 2603 823 3093 
Q 1294 3584 2113 3584 
Q 2378 3584 2631 3529 
Q 2884 3475 3122 3366 
z
" transform="scale(0.015625)"/>
       <path id="DejaVuSans-74" d="M 1172 4494 
L 1172 3500 
L 2356 3500 
L 2356 3053 
L 1172 3053 
L 1172 1153 
Q 1172 725 1289 603 
Q 1406 481 1766 481 
L 2356 481 
L 2356 0 
L 1766 0 
Q 1100 0 847 248 
Q 594 497 594 1153 
L 594 3053 
L 172 3053 
L 172 3500 
L 594 3500 
L 594 4494 
L 1172 4494 
z
" transform="scale(0.015625)"/>
       <path id="DejaVuSans-20" transform="scale(0.015625)"/>
       <path id="DejaVuSans-6f" d="M 1959 3097 
Q 1497 3097 1228 2736 
Q 959 2375 959 1747 
Q 959 1119 1226 758 
Q 1494 397 1959 397 
Q 2419 397 2687 759 
Q 2956 1122 2956 1747 
Q 2956 2369 2687 2733 
Q 2419 3097 1959 3097 
z
M 1959 3584 
Q 2709 3584 3137 3096 
Q 3566 2609 3566 1747 
Q 3566 888 3137 398 
Q 2709 -91 1959 -91 
Q 1206 -91 779 398 
Q 353 888 353 1747 
Q 353 2609 779 3096 
Q 1206 3584 1959 3584 
z
" transform="scale(0.015625)"/>
       <path id="DejaVuSans-62" d="M 3116 1747 
Q 3116 2381 2855 2742 
Q 2594 3103 2138 3103 
Q 1681 3103 1420 2742 
Q 1159 2381 1159 1747 
Q 1159 1113 1420 752 
Q 1681 391 2138 391 
Q 2594 391 2855 752 
Q 3116 1113 3116 1747 
z
M 1159 2969 
Q 1341 3281 1617 3432 
Q 1894 3584 2278 3584 
Q 2916 3584 3314 3078 
Q 3713 2572 3713 1747 
Q 3713 922 3314 415 
Q 2916 -91 2278 -91 
Q 1894 -91 1617 61 
Q 1341 213 1159 525 
L 1159 0 
L 581 0 
L 581 4863 
L 1159 4863 
L 1159 2969 
z
" transform="scale(0.015625)"/>
       <path id="DejaVuSans-61" d="M 2194 1759 
Q 1497 1759 1228 1600 
Q 959 1441 959 1056 
Q 959 750 1161 570 
Q 1363 391 1709 391 
Q 2188 391 2477 730 
Q 2766 1069 2766 1631 
L 2766 1759 
L 2194 1759 
z
M 3341 1997 
L 3341 0 
L 2766 0 
L 2766 531 
Q 2569 213 2275 61 
Q 1981 -91 1556 -91 
Q 1019 -91 701 211 
Q 384 513 384 1019 
Q 384 1609 779 1909 
Q 1175 2209 1959 2209 
L 2766 2209 
L 2766 2266 
Q 2766 2663 2505 2880 
Q 2244 3097 1772 3097 
Q 1472 3097 1187 3025 
Q 903 2953 641 2809 
L 641 3341 
Q 956 3463 1253 3523 
Q 1550 3584 1831 3584 
Q 2591 3584 2966 3190 
Q 3341 2797 3341 1997 
z
" transform="scale(0.015625)"/>
       <path id="DejaVuSans-6c" d="M 603 4863 
L 1178 4863 
L 1178 0 
L 603 0 
L 603 4863 
z
" transform="scale(0.015625)"/>
       <path id="DejaVuSans-79" d="M 2059 -325 
Q 1816 -950 1584 -1140 
Q 1353 -1331 966 -1331 
L 506 -1331 
L 506 -850 
L 844 -850 
Q 1081 -850 1212 -737 
Q 1344 -625 1503 -206 
L 1606 56 
L 191 3500 
L 800 3500 
L 1894 763 
L 2988 3500 
L 3597 3500 
L 2059 -325 
z
" transform="scale(0.015625)"/>
      </defs>
      <use xlink:href="#DejaVuSans-70"/>
      <use xlink:href="#DejaVuSans-72" transform="translate(63.476562 0)"/>
      <use xlink:href="#DejaVuSans-65" transform="translate(102.339844 0)"/>
      <use xlink:href="#DejaVuSans-64" transform="translate(163.863281 0)"/>
      <use xlink:href="#DejaVuSans-69" transform="translate(227.339844 0)"/>
      <use xlink:href="#DejaVuSans-63" transform="translate(255.123047 0)"/>
      <use xlink:href="#DejaVuSans-74" transform="translate(310.103516 0)"/>
      <use xlink:href="#DejaVuSans-65" transform="translate(349.3125 0)"/>
      <use xlink:href="#DejaVuSans-64" transform="translate(410.835938 0)"/>
      <use xlink:href="#DejaVuSans-20" transform="translate(474.3125 0)"/>
      <use xlink:href="#DejaVuSans-70" transform="translate(506.099609 0)"/>
      <use xlink:href="#DejaVuSans-72" transform="translate(569.576172 0)"/>
      <use xlink:href="#DejaVuSans-6f" transform="translate(608.439453 0)"/>
      <use xlink:href="#DejaVuSans-62" transform="translate(669.621094 0)"/>
      <use xlink:href="#DejaVuSans-61" transform="translate(733.097656 0)"/>
      <use xlink:href="#DejaVuSans-62" transform="translate(794.376953 0)"/>
      <use xlink:href="#DejaVuSans-69" transform="translate(857.853516 0)"/>
      <use xlink:href="#DejaVuSans-6c" transform="translate(885.636719 0)"/>
      <use xlink:href="#DejaVuSans-69" transform="translate(913.419922 0)"/>
      <use xlink:href="#DejaVuSans-74" transform="translate(941.203125 0)"/>
      <use xlink:href="#DejaVuSans-79" transform="translate(980.412109 0)"/>
      <use xlink:href="#DejaVuSans-20" transform="translate(1039.591797 0)"/>
      <use xlink:href="#DejaVuSans-70" transform="translate(1071.378906 0)"/>
     </g>
    </g>
   </g>
   <g id="matplotlib.axis_2">
    <g id="ytick_1">
     <g id="line2d_13">
      <path d="M 34.240625 277.478125 
L 597.170625 277.478125 
" clip-path="url(#p02b23008b2)" style="fill: none; stroke: #b0b0b0; stroke-opacity: 0.25; stroke-width: 0.8; stroke-linecap: square"/>
     </g>
     <g id="line2d_14">
      <defs>
       <path id="mdbbae4d7c3" d="M 0 0 
L -3.5 0 
" style="stroke: #000000; stroke-width: 0.8"/>
      </defs>
      <g>
       <use xlink:href="#mdbbae4d7c3" x="34.240625" y="277.478125" style="stroke: #000000; stroke-width: 0.8"/>
      </g>
     </g>
     <g id="text_8">
      <!-- 0 -->
      <g transform="translate(20.878125 281.277344) scale(0.1 -0.1)">
       <use xlink:href="#DejaVuSans-30"/>
      </g>
     </g>
    </g>
    <g id="ytick_2">
     <g id="line2d_15">
      <path d="M 34.240625 234.951458 
L 597.170625 234.951458 
" clip-path="url(#p02b23008b2)" style="fill: none; stroke: #b0b0b0; stroke-opacity: 0.25; stroke-width: 0.8; stroke-linecap: square"/>
     </g>
     <g id="line2d_16">
      <g>
       <use xlink:href="#mdbbae4d7c3" x="34.240625" y="234.951458" style="stroke: #000000; stroke-width: 0.8"/>
      </g>
     </g>
     <g id="text_9">
      <!-- 1 -->
      <g transform="translate(20.878125 238.750677) scale(0.1 -0.1)">
       <use xlink:href="#DejaVuSans-31"/>
      </g>
     </g>
    </g>
    <g id="ytick_3">
     <g id="line2d_17">
      <path d="M 34.240625 192.424792 
L 597.170625 192.424792 
" clip-path="url(#p02b23008b2)" style="fill: none; stroke: #b0b0b0; stroke-opacity: 0.25; stroke-width: 0.8; stroke-linecap: square"/>
     </g>
     <g id="line2d_18">
      <g>
       <use xlink:href="#mdbbae4d7c3" x="34.240625" y="192.424792" style="stroke: #000000; stroke-width: 0.8"/>
      </g>
     </g>
     <g id="text_10">
      <!-- 2 -->
      <g transform="translate(20.878125 196.22401) scale(0.1 -0.1)">
       <use xlink:href="#DejaVuSans-32"/>
      </g>
     </g>
    </g>
    <g id="ytick_4">
     <g id="line2d_19">
      <path d="M 34.240625 149.898125 
L 597.170625 149.898125 
" clip-path="url(#p02b23008b2)" style="fill: none; stroke: #b0b0b0; stroke-opacity: 0.25; stroke-width: 0.8; stroke-linecap: square"/>
     </g>
     <g id="line2d_20">
      <g>
       <use xlink:href="#mdbbae4d7c3" x="34.240625" y="149.898125" style="stroke: #000000; stroke-width: 0.8"/>
      </g>
     </g>
     <g id="text_11">
      <!-- 3 -->
      <g transform="translate(20.878125 153.697344) scale(0.1 -0.1)">
       <defs>
        <path id="DejaVuSans-33" d="M 2597 2516 
Q 3050 2419 3304 2112 
Q 3559 1806 3559 1356 
Q 3559 666 3084 287 
Q 2609 -91 1734 -91 
Q 1441 -91 1130 -33 
Q 819 25 488 141 
L 488 750 
Q 750 597 1062 519 
Q 1375 441 1716 441 
Q 2309 441 2620 675 
Q 2931 909 2931 1356 
Q 2931 1769 2642 2001 
Q 2353 2234 1838 2234 
L 1294 2234 
L 1294 2753 
L 1863 2753 
Q 2328 2753 2575 2939 
Q 2822 3125 2822 3475 
Q 2822 3834 2567 4026 
Q 2313 4219 1838 4219 
Q 1578 4219 1281 4162 
Q 984 4106 628 3988 
L 628 4550 
Q 988 4650 1302 4700 
Q 1616 4750 1894 4750 
Q 2613 4750 3031 4423 
Q 3450 4097 3450 3541 
Q 3450 3153 3228 2886 
Q 3006 2619 2597 2516 
z
" transform="scale(0.015625)"/>
       </defs>
       <use xlink:href="#DejaVuSans-33"/>
      </g>
     </g>
    </g>
    <g id="ytick_5">
     <g id="line2d_21">
      <path d="M 34.240625 107.371458 
L 597.170625 107.371458 
" clip-path="url(#p02b23008b2)" style="fill: none; stroke: #b0b0b0; stroke-opacity: 0.25; stroke-width: 0.8; stroke-linecap: square"/>
     </g>
     <g id="line2d_22">
      <g>
       <use xlink:href="#mdbbae4d7c3" x="34.240625" y="107.371458" style="stroke: #000000; stroke-width: 0.8"/>
      </g>
     </g>
     <g id="text_12">
      <!-- 4 -->
      <g transform="translate(20.878125 111.170677) scale(0.1 -0.1)">
       <use xlink:href="#DejaVuSans-34"/>
      </g>
     </g>
    </g>
    <g id="ytick_6">
     <g id="line2d_23">
      <path d="M 34.240625 64.844792 
L 597.170625 64.844792 
" clip-path="url(#p02b23008b2)" style="fill: none; stroke: #b0b0b0; stroke-opacity: 0.25; stroke-width: 0.8; stroke-linecap: square"/>
     </g>
     <g id="line2d_24">
      <g>
       <use xlink:href="#mdbbae4d7c3" x="34.240625" y="64.844792" style="stroke: #000000; stroke-width: 0.8"/>
      </g>
     </g>
     <g id="text_13">
      <!-- 5 -->
      <g transform="translate(20.878125 68.64401) scale(0.1 -0.1)">
       <defs>
        <path id="DejaVuSans-35" d="M 691 4666 
L 3169 4666 
L 3169 4134 
L 1269 4134 
L 1269 2991 
Q 1406 3038 1543 3061 
Q 1681 3084 1819 3084 
Q 2600 3084 3056 2656 
Q 3513 2228 3513 1497 
Q 3513 744 3044 326 
Q 2575 -91 1722 -91 
Q 1428 -91 1123 -41 
Q 819 9 494 109 
L 494 744 
Q 775 591 1075 516 
Q 1375 441 1709 441 
Q 2250 441 2565 725 
Q 2881 1009 2881 1497 
Q 2881 1984 2565 2268 
Q 2250 2553 1709 2553 
Q 1456 2553 1204 2497 
Q 953 2441 691 2322 
L 691 4666 
z
" transform="scale(0.015625)"/>
       </defs>
       <use xlink:href="#DejaVuSans-35"/>
      </g>
     </g>
    </g>
    <g id="ytick_7">
     <g id="line2d_25">
      <path d="M 34.240625 22.318125 
L 597.170625 22.318125 
" clip-path="url(#p02b23008b2)" style="fill: none; stroke: #b0b0b0; stroke-opacity: 0.25; stroke-width: 0.8; stroke-linecap: square"/>
     </g>
     <g id="line2d_26">
      <g>
       <use xlink:href="#mdbbae4d7c3" x="34.240625" y="22.318125" style="stroke: #000000; stroke-width: 0.8"/>
      </g>
     </g>
     <g id="text_14">
      <!-- 6 -->
      <g transform="translate(20.878125 26.117344) scale(0.1 -0.1)">
       <use xlink:href="#DejaVuSans-36"/>
      </g>
     </g>
    </g>
    <g id="text_15">
     <!-- loss = - log probability of true label -->
     <g transform="translate(14.798438 238.145) rotate(-90) scale(0.1 -0.1)">
      <defs>
       <path id="DejaVuSans-73" d="M 2834 3397 
L 2834 2853 
Q 2591 2978 2328 3040 
Q 2066 3103 1784 3103 
Q 1356 3103 1142 2972 
Q 928 2841 928 2578 
Q 928 2378 1081 2264 
Q 1234 2150 1697 2047 
L 1894 2003 
Q 2506 1872 2764 1633 
Q 3022 1394 3022 966 
Q 3022 478 2636 193 
Q 2250 -91 1575 -91 
Q 1294 -91 989 -36 
Q 684 19 347 128 
L 347 722 
Q 666 556 975 473 
Q 1284 391 1588 391 
Q 1994 391 2212 530 
Q 2431 669 2431 922 
Q 2431 1156 2273 1281 
Q 2116 1406 1581 1522 
L 1381 1569 
Q 847 1681 609 1914 
Q 372 2147 372 2553 
Q 372 3047 722 3315 
Q 1072 3584 1716 3584 
Q 2034 3584 2315 3537 
Q 2597 3491 2834 3397 
z
" transform="scale(0.015625)"/>
       <path id="DejaVuSans-3d" d="M 678 2906 
L 4684 2906 
L 4684 2381 
L 678 2381 
L 678 2906 
z
M 678 1631 
L 4684 1631 
L 4684 1100 
L 678 1100 
L 678 1631 
z
" transform="scale(0.015625)"/>
       <path id="DejaVuSans-2d" d="M 313 2009 
L 1997 2009 
L 1997 1497 
L 313 1497 
L 313 2009 
z
" transform="scale(0.015625)"/>
       <path id="DejaVuSans-67" d="M 2906 1791 
Q 2906 2416 2648 2759 
Q 2391 3103 1925 3103 
Q 1463 3103 1205 2759 
Q 947 2416 947 1791 
Q 947 1169 1205 825 
Q 1463 481 1925 481 
Q 2391 481 2648 825 
Q 2906 1169 2906 1791 
z
M 3481 434 
Q 3481 -459 3084 -895 
Q 2688 -1331 1869 -1331 
Q 1566 -1331 1297 -1286 
Q 1028 -1241 775 -1147 
L 775 -588 
Q 1028 -725 1275 -790 
Q 1522 -856 1778 -856 
Q 2344 -856 2625 -561 
Q 2906 -266 2906 331 
L 2906 616 
Q 2728 306 2450 153 
Q 2172 0 1784 0 
Q 1141 0 747 490 
Q 353 981 353 1791 
Q 353 2603 747 3093 
Q 1141 3584 1784 3584 
Q 2172 3584 2450 3431 
Q 2728 3278 2906 2969 
L 2906 3500 
L 3481 3500 
L 3481 434 
z
" transform="scale(0.015625)"/>
       <path id="DejaVuSans-66" d="M 2375 4863 
L 2375 4384 
L 1825 4384 
Q 1516 4384 1395 4259 
Q 1275 4134 1275 3809 
L 1275 3500 
L 2222 3500 
L 2222 3053 
L 1275 3053 
L 1275 0 
L 697 0 
L 697 3053 
L 147 3053 
L 147 3500 
L 697 3500 
L 697 3744 
Q 697 4328 969 4595 
Q 1241 4863 1831 4863 
L 2375 4863 
z
" transform="scale(0.015625)"/>
       <path id="DejaVuSans-75" d="M 544 1381 
L 544 3500 
L 1119 3500 
L 1119 1403 
Q 1119 906 1312 657 
Q 1506 409 1894 409 
Q 2359 409 2629 706 
Q 2900 1003 2900 1516 
L 2900 3500 
L 3475 3500 
L 3475 0 
L 2900 0 
L 2900 538 
Q 2691 219 2414 64 
Q 2138 -91 1772 -91 
Q 1169 -91 856 284 
Q 544 659 544 1381 
z
M 1991 3584 
L 1991 3584 
z
" transform="scale(0.015625)"/>
      </defs>
      <use xlink:href="#DejaVuSans-6c"/>
      <use xlink:href="#DejaVuSans-6f" transform="translate(27.783203 0)"/>
      <use xlink:href="#DejaVuSans-73" transform="translate(88.964844 0)"/>
      <use xlink:href="#DejaVuSans-73" transform="translate(141.064453 0)"/>
      <use xlink:href="#DejaVuSans-20" transform="translate(193.164062 0)"/>
      <use xlink:href="#DejaVuSans-3d" transform="translate(224.951172 0)"/>
      <use xlink:href="#DejaVuSans-20" transform="translate(308.740234 0)"/>
      <use xlink:href="#DejaVuSans-2d" transform="translate(340.527344 0)"/>
      <use xlink:href="#DejaVuSans-20" transform="translate(376.611328 0)"/>
      <use xlink:href="#DejaVuSans-6c" transform="translate(408.398438 0)"/>
      <use xlink:href="#DejaVuSans-6f" transform="translate(436.181641 0)"/>
      <use xlink:href="#DejaVuSans-67" transform="translate(497.363281 0)"/>
      <use xlink:href="#DejaVuSans-20" transform="translate(560.839844 0)"/>
      <use xlink:href="#DejaVuSans-70" transform="translate(592.626953 0)"/>
      <use xlink:href="#DejaVuSans-72" transform="translate(656.103516 0)"/>
      <use xlink:href="#DejaVuSans-6f" transform="translate(694.966797 0)"/>
      <use xlink:href="#DejaVuSans-62" transform="translate(756.148438 0)"/>
      <use xlink:href="#DejaVuSans-61" transform="translate(819.625 0)"/>
      <use xlink:href="#DejaVuSans-62" transform="translate(880.904297 0)"/>
      <use xlink:href="#DejaVuSans-69" transform="translate(944.380859 0)"/>
      <use xlink:href="#DejaVuSans-6c" transform="translate(972.164062 0)"/>
      <use xlink:href="#DejaVuSans-69" transform="translate(999.947266 0)"/>
      <use xlink:href="#DejaVuSans-74" transform="translate(1027.730469 0)"/>
      <use xlink:href="#DejaVuSans-79" transform="translate(1066.939453 0)"/>
      <use xlink:href="#DejaVuSans-20" transform="translate(1126.119141 0)"/>
      <use xlink:href="#DejaVuSans-6f" transform="translate(1157.90625 0)"/>
      <use xlink:href="#DejaVuSans-66" transform="translate(1219.087891 0)"/>
      <use xlink:href="#DejaVuSans-20" transform="translate(1254.292969 0)"/>
      <use xlink:href="#DejaVuSans-74" transform="translate(1286.080078 0)"/>
      <use xlink:href="#DejaVuSans-72" transform="translate(1325.289062 0)"/>
      <use xlink:href="#DejaVuSans-75" transform="translate(1366.402344 0)"/>
      <use xlink:href="#DejaVuSans-65" transform="translate(1429.78125 0)"/>
      <use xlink:href="#DejaVuSans-20" transform="translate(1491.304688 0)"/>
      <use xlink:href="#DejaVuSans-6c" transform="translate(1523.091797 0)"/>
      <use xlink:href="#DejaVuSans-61" transform="translate(1550.875 0)"/>
      <use xlink:href="#DejaVuSans-62" transform="translate(1612.154297 0)"/>
      <use xlink:href="#DejaVuSans-65" transform="translate(1675.630859 0)"/>
      <use xlink:href="#DejaVuSans-6c" transform="translate(1737.154297 0)"/>
     </g>
    </g>
   </g>
   <g id="line2d_27">
    <path d="M 60.196243 -1 
L 61.110945 37.005375 
L 62.393538 59.929637 
L 63.676131 74.743004 
L 64.958724 85.708186 
L 66.241317 94.417769 
L 67.523909 101.643255 
L 68.806502 107.817542 
L 70.089095 113.208006 
L 71.371688 117.991428 
L 72.654281 122.290796 
L 75.219466 129.770972 
L 77.784652 136.130154 
L 80.349838 141.660952 
L 82.915023 146.554523 
L 85.480209 150.94265 
L 88.045395 154.920039 
L 90.610581 158.557043 
L 93.175766 161.907358 
L 97.023545 166.484564 
L 100.871323 170.616641 
L 104.719102 174.382545 
L 108.56688 177.841922 
L 112.414659 181.04094 
L 117.54503 184.963244 
L 122.675402 188.55414 
L 127.805773 191.865293 
L 132.936144 194.937156 
L 139.349109 198.489037 
L 145.762073 201.766991 
L 152.175037 204.810263 
L 159.870594 208.196144 
L 167.566151 211.332216 
L 176.544301 214.720667 
L 185.522451 217.858943 
L 195.783194 221.183036 
L 206.043937 224.266034 
L 217.587272 227.486585 
L 229.130608 230.48032 
L 241.956536 233.576791 
L 256.065058 236.741158 
L 271.456172 239.94418 
L 286.847286 242.922764 
L 303.520993 245.930255 
L 321.477293 248.947599 
L 340.716185 251.959242 
L 361.237671 254.952682 
L 384.324342 258.08618 
L 408.693606 261.160959 
L 434.345463 264.174024 
L 462.562506 267.259052 
L 492.062141 270.261569 
L 524.126962 273.301351 
L 558.756969 276.357256 
L 571.582898 277.435577 
L 571.582898 277.435577 
" clip-path="url(#p02b23008b2)" style="fill: none; stroke: #7aa6c2; stroke-width: 2.2; stroke-linecap: square"/>
   </g>
   <g id="line2d_28">
    <path d="M 59.828352 277.435577 
L 95.740952 274.344577 
L 129.088366 271.258139 
L 159.870594 268.195507 
L 189.37023 265.037832 
L 216.304679 261.934474 
L 241.956536 258.752234 
L 265.043208 255.66924 
L 286.847286 252.536798 
L 307.368772 249.361689 
L 326.607664 246.153025 
L 344.563964 242.922764 
L 361.237671 239.686286 
L 376.628785 236.463022 
L 390.737306 233.277095 
L 403.563235 230.157902 
L 415.106571 227.140556 
L 426.649906 223.892663 
L 436.910649 220.781459 
L 447.171392 217.424549 
L 456.149542 214.252821 
L 465.127692 210.825336 
L 472.823249 207.650222 
L 480.518806 204.218782 
L 486.93177 201.131302 
L 493.344734 197.801997 
L 499.757698 194.189741 
L 504.88807 191.061359 
L 510.018441 187.68444 
L 515.148813 184.016059 
L 518.996591 181.04094 
L 522.84437 177.841922 
L 526.692148 174.382545 
L 530.539927 170.616641 
L 534.387705 166.484564 
L 538.235484 161.907358 
L 540.800669 158.557043 
L 543.365855 154.920039 
L 545.931041 150.94265 
L 548.496227 146.554523 
L 551.061412 141.660952 
L 553.626598 136.130154 
L 556.191784 129.770972 
L 558.756969 122.290796 
L 560.039562 117.991428 
L 561.322155 113.208006 
L 562.604748 107.817542 
L 563.887341 101.643255 
L 565.169933 94.417769 
L 566.452526 85.708186 
L 567.735119 74.743004 
L 569.017712 59.929637 
L 570.300305 37.005375 
L 571.215007 -1 
L 571.215007 -1 
" clip-path="url(#p02b23008b2)" style="fill: none; stroke: #e15759; stroke-width: 2.2; stroke-linecap: square"/>
   </g>
   <g id="line2d_29">
    <path d="M 315.705625 277.478125 
L 315.705625 22.318125 
" clip-path="url(#p02b23008b2)" style="fill: none; stroke-dasharray: 0.5,0.825; stroke-dashoffset: 0; stroke: #999999; stroke-width: 0.5"/>
   </g>
   <g id="patch_3">
    <path d="M 34.240625 277.478125 
L 34.240625 22.318125 
" style="fill: none; stroke: #000000; stroke-width: 0.8; stroke-linejoin: miter; stroke-linecap: square"/>
   </g>
   <g id="patch_4">
    <path d="M 597.170625 277.478125 
L 597.170625 22.318125 
" style="fill: none; stroke: #000000; stroke-width: 0.8; stroke-linejoin: miter; stroke-linecap: square"/>
   </g>
   <g id="patch_5">
    <path d="M 34.240625 277.478125 
L 597.170625 277.478125 
" style="fill: none; stroke: #000000; stroke-width: 0.8; stroke-linejoin: miter; stroke-linecap: square"/>
   </g>
   <g id="patch_6">
    <path d="M 34.240625 22.318125 
L 597.170625 22.318125 
" style="fill: none; stroke: #000000; stroke-width: 0.8; stroke-linejoin: miter; stroke-linecap: square"/>
   </g>
   <g id="text_16">
    <!-- Binary cross-entropy: confident wrong predictions get infinite loss -->
    <g transform="translate(118.404063 16.318125) scale(0.12 -0.12)">
     <defs>
      <path id="DejaVuSans-42" d="M 1259 2228 
L 1259 519 
L 2272 519 
Q 2781 519 3026 730 
Q 3272 941 3272 1375 
Q 3272 1813 3026 2020 
Q 2781 2228 2272 2228 
L 1259 2228 
z
M 1259 4147 
L 1259 2741 
L 2194 2741 
Q 2656 2741 2882 2914 
Q 3109 3088 3109 3444 
Q 3109 3797 2882 3972 
Q 2656 4147 2194 4147 
L 1259 4147 
z
M 628 4666 
L 2241 4666 
Q 2963 4666 3353 4366 
Q 3744 4066 3744 3513 
Q 3744 3084 3544 2831 
Q 3344 2578 2956 2516 
Q 3422 2416 3680 2098 
Q 3938 1781 3938 1306 
Q 3938 681 3513 340 
Q 3088 0 2303 0 
L 628 0 
L 628 4666 
z
" transform="scale(0.015625)"/>
      <path id="DejaVuSans-6e" d="M 3513 2113 
L 3513 0 
L 2938 0 
L 2938 2094 
Q 2938 2591 2744 2837 
Q 2550 3084 2163 3084 
Q 1697 3084 1428 2787 
Q 1159 2491 1159 1978 
L 1159 0 
L 581 0 
L 581 3500 
L 1159 3500 
L 1159 2956 
Q 1366 3272 1645 3428 
Q 1925 3584 2291 3584 
Q 2894 3584 3203 3211 
Q 3513 2838 3513 2113 
z
" transform="scale(0.015625)"/>
      <path id="DejaVuSans-3a" d="M 750 794 
L 1409 794 
L 1409 0 
L 750 0 
L 750 794 
z
M 750 3309 
L 1409 3309 
L 1409 2516 
L 750 2516 
L 750 3309 
z
" transform="scale(0.015625)"/>
      <path id="DejaVuSans-77" d="M 269 3500 
L 844 3500 
L 1563 769 
L 2278 3500 
L 2956 3500 
L 3675 769 
L 4391 3500 
L 4966 3500 
L 4050 0 
L 3372 0 
L 2619 2869 
L 1863 0 
L 1184 0 
L 269 3500 
z
" transform="scale(0.015625)"/>
     </defs>
     <use xlink:href="#DejaVuSans-42"/>
     <use xlink:href="#DejaVuSans-69" transform="translate(68.603516 0)"/>
     <use xlink:href="#DejaVuSans-6e" transform="translate(96.386719 0)"/>
     <use xlink:href="#DejaVuSans-61" transform="translate(159.765625 0)"/>
     <use xlink:href="#DejaVuSans-72" transform="translate(221.044922 0)"/>
     <use xlink:href="#DejaVuSans-79" transform="translate(262.158203 0)"/>
     <use xlink:href="#DejaVuSans-20" transform="translate(321.337891 0)"/>
     <use xlink:href="#DejaVuSans-63" transform="translate(353.125 0)"/>
     <use xlink:href="#DejaVuSans-72" transform="translate(408.105469 0)"/>
     <use xlink:href="#DejaVuSans-6f" transform="translate(446.96875 0)"/>
     <use xlink:href="#DejaVuSans-73" transform="translate(508.150391 0)"/>
     <use xlink:href="#DejaVuSans-73" transform="translate(560.25 0)"/>
     <use xlink:href="#DejaVuSans-2d" transform="translate(612.349609 0)"/>
     <use xlink:href="#DejaVuSans-65" transform="translate(648.433594 0)"/>
     <use xlink:href="#DejaVuSans-6e" transform="translate(709.957031 0)"/>
     <use xlink:href="#DejaVuSans-74" transform="translate(773.335938 0)"/>
     <use xlink:href="#DejaVuSans-72" transform="translate(812.544922 0)"/>
     <use xlink:href="#DejaVuSans-6f" transform="translate(851.408203 0)"/>
     <use xlink:href="#DejaVuSans-70" transform="translate(912.589844 0)"/>
     <use xlink:href="#DejaVuSans-79" transform="translate(976.066406 0)"/>
     <use xlink:href="#DejaVuSans-3a" transform="translate(1027.996094 0)"/>
     <use xlink:href="#DejaVuSans-20" transform="translate(1061.6875 0)"/>
     <use xlink:href="#DejaVuSans-63" transform="translate(1093.474609 0)"/>
     <use xlink:href="#DejaVuSans-6f" transform="translate(1148.455078 0)"/>
     <use xlink:href="#DejaVuSans-6e" transform="translate(1209.636719 0)"/>
     <use xlink:href="#DejaVuSans-66" transform="translate(1273.015625 0)"/>
     <use xlink:href="#DejaVuSans-69" transform="translate(1308.220703 0)"/>
     <use xlink:href="#DejaVuSans-64" transform="translate(1336.003906 0)"/>
     <use xlink:href="#DejaVuSans-65" transform="translate(1399.480469 0)"/>
     <use xlink:href="#DejaVuSans-6e" transform="translate(1461.003906 0)"/>
     <use xlink:href="#DejaVuSans-74" transform="translate(1524.382812 0)"/>
     <use xlink:href="#DejaVuSans-20" transform="translate(1563.591797 0)"/>
     <use xlink:href="#DejaVuSans-77" transform="translate(1595.378906 0)"/>
     <use xlink:href="#DejaVuSans-72" transform="translate(1677.166016 0)"/>
     <use xlink:href="#DejaVuSans-6f" transform="translate(1716.029297 0)"/>
     <use xlink:href="#DejaVuSans-6e" transform="translate(1777.210938 0)"/>
     <use xlink:href="#DejaVuSans-67" transform="translate(1840.589844 0)"/>
     <use xlink:href="#DejaVuSans-20" transform="translate(1904.066406 0)"/>
     <use xlink:href="#DejaVuSans-70" transform="translate(1935.853516 0)"/>
     <use xlink:href="#DejaVuSans-72" transform="translate(1999.330078 0)"/>
     <use xlink:href="#DejaVuSans-65" transform="translate(2038.193359 0)"/>
     <use xlink:href="#DejaVuSans-64" transform="translate(2099.716797 0)"/>
     <use xlink:href="#DejaVuSans-69" transform="translate(2163.193359 0)"/>
     <use xlink:href="#DejaVuSans-63" transform="translate(2190.976562 0)"/>
     <use xlink:href="#DejaVuSans-74" transform="translate(2245.957031 0)"/>
     <use xlink:href="#DejaVuSans-69" transform="translate(2285.166016 0)"/>
     <use xlink:href="#DejaVuSans-6f" transform="translate(2312.949219 0)"/>
     <use xlink:href="#DejaVuSans-6e" transform="translate(2374.130859 0)"/>
     <use xlink:href="#DejaVuSans-73" transform="translate(2437.509766 0)"/>
     <use xlink:href="#DejaVuSans-20" transform="translate(2489.609375 0)"/>
     <use xlink:href="#DejaVuSans-67" transform="translate(2521.396484 0)"/>
     <use xlink:href="#DejaVuSans-65" transform="translate(2584.873047 0)"/>
     <use xlink:href="#DejaVuSans-74" transform="translate(2646.396484 0)"/>
     <use xlink:href="#DejaVuSans-20" transform="translate(2685.605469 0)"/>
     <use xlink:href="#DejaVuSans-69" transform="translate(2717.392578 0)"/>
     <use xlink:href="#DejaVuSans-6e" transform="translate(2745.175781 0)"/>
     <use xlink:href="#DejaVuSans-66" transform="translate(2808.554688 0)"/>
     <use xlink:href="#DejaVuSans-69" transform="translate(2843.759766 0)"/>
     <use xlink:href="#DejaVuSans-6e" transform="translate(2871.542969 0)"/>
     <use xlink:href="#DejaVuSans-69" transform="translate(2934.921875 0)"/>
     <use xlink:href="#DejaVuSans-74" transform="translate(2962.705078 0)"/>
     <use xlink:href="#DejaVuSans-65" transform="translate(3001.914062 0)"/>
     <use xlink:href="#DejaVuSans-20" transform="translate(3063.4375 0)"/>
     <use xlink:href="#DejaVuSans-6c" transform="translate(3095.224609 0)"/>
     <use xlink:href="#DejaVuSans-6f" transform="translate(3123.007812 0)"/>
     <use xlink:href="#DejaVuSans-73" transform="translate(3184.189453 0)"/>
     <use xlink:href="#DejaVuSans-73" transform="translate(3236.289062 0)"/>
    </g>
   </g>
   <g id="legend_1">
    <g id="patch_7">
     <path d="M 256.198047 55.93875 
L 375.213203 55.93875 
Q 377.013203 55.93875 377.013203 54.13875 
L 377.013203 28.618125 
Q 377.013203 26.818125 375.213203 26.818125 
L 256.198047 26.818125 
Q 254.398047 26.818125 254.398047 28.618125 
L 254.398047 54.13875 
Q 254.398047 55.93875 256.198047 55.93875 
z
" style="fill: #ffffff; opacity: 0.8; stroke: #cccccc; stroke-linejoin: miter"/>
    </g>
    <g id="line2d_30">
     <path d="M 257.998047 34.106719 
L 266.998047 34.106719 
L 275.998047 34.106719 
" style="fill: none; stroke: #7aa6c2; stroke-width: 2.2; stroke-linecap: square"/>
    </g>
    <g id="text_17">
     <!-- true y=1: -log(p) -->
     <g transform="translate(283.198047 37.256719) scale(0.09 -0.09)">
      <defs>
       <path id="DejaVuSans-28" d="M 1984 4856 
Q 1566 4138 1362 3434 
Q 1159 2731 1159 2009 
Q 1159 1288 1364 580 
Q 1569 -128 1984 -844 
L 1484 -844 
Q 1016 -109 783 600 
Q 550 1309 550 2009 
Q 550 2706 781 3412 
Q 1013 4119 1484 4856 
L 1984 4856 
z
" transform="scale(0.015625)"/>
       <path id="DejaVuSans-29" d="M 513 4856 
L 1013 4856 
Q 1481 4119 1714 3412 
Q 1947 2706 1947 2009 
Q 1947 1309 1714 600 
Q 1481 -109 1013 -844 
L 513 -844 
Q 928 -128 1133 580 
Q 1338 1288 1338 2009 
Q 1338 2731 1133 3434 
Q 928 4138 513 4856 
z
" transform="scale(0.015625)"/>
      </defs>
      <use xlink:href="#DejaVuSans-74"/>
      <use xlink:href="#DejaVuSans-72" transform="translate(39.208984 0)"/>
      <use xlink:href="#DejaVuSans-75" transform="translate(80.322266 0)"/>
      <use xlink:href="#DejaVuSans-65" transform="translate(143.701172 0)"/>
      <use xlink:href="#DejaVuSans-20" transform="translate(205.224609 0)"/>
      <use xlink:href="#DejaVuSans-79" transform="translate(237.011719 0)"/>
      <use xlink:href="#DejaVuSans-3d" transform="translate(296.191406 0)"/>
      <use xlink:href="#DejaVuSans-31" transform="translate(379.980469 0)"/>
      <use xlink:href="#DejaVuSans-3a" transform="translate(443.603516 0)"/>
      <use xlink:href="#DejaVuSans-20" transform="translate(477.294922 0)"/>
      <use xlink:href="#DejaVuSans-2d" transform="translate(509.082031 0)"/>
      <use xlink:href="#DejaVuSans-6c" transform="translate(545.166016 0)"/>
      <use xlink:href="#DejaVuSans-6f" transform="translate(572.949219 0)"/>
      <use xlink:href="#DejaVuSans-67" transform="translate(634.130859 0)"/>
      <use xlink:href="#DejaVuSans-28" transform="translate(697.607422 0)"/>
      <use xlink:href="#DejaVuSans-70" transform="translate(736.621094 0)"/>
      <use xlink:href="#DejaVuSans-29" transform="translate(800.097656 0)"/>
     </g>
    </g>
    <g id="line2d_31">
     <path d="M 257.998047 47.317031 
L 266.998047 47.317031 
L 275.998047 47.317031 
" style="fill: none; stroke: #e15759; stroke-width: 2.2; stroke-linecap: square"/>
    </g>
    <g id="text_18">
     <!-- true y=0: -log(1 - p) -->
     <g transform="translate(283.198047 50.467031) scale(0.09 -0.09)">
      <use xlink:href="#DejaVuSans-74"/>
      <use xlink:href="#DejaVuSans-72" transform="translate(39.208984 0)"/>
      <use xlink:href="#DejaVuSans-75" transform="translate(80.322266 0)"/>
      <use xlink:href="#DejaVuSans-65" transform="translate(143.701172 0)"/>
      <use xlink:href="#DejaVuSans-20" transform="translate(205.224609 0)"/>
      <use xlink:href="#DejaVuSans-79" transform="translate(237.011719 0)"/>
      <use xlink:href="#DejaVuSans-3d" transform="translate(296.191406 0)"/>
      <use xlink:href="#DejaVuSans-30" transform="translate(379.980469 0)"/>
      <use xlink:href="#DejaVuSans-3a" transform="translate(443.603516 0)"/>
      <use xlink:href="#DejaVuSans-20" transform="translate(477.294922 0)"/>
      <use xlink:href="#DejaVuSans-2d" transform="translate(509.082031 0)"/>
      <use xlink:href="#DejaVuSans-6c" transform="translate(545.166016 0)"/>
      <use xlink:href="#DejaVuSans-6f" transform="translate(572.949219 0)"/>
      <use xlink:href="#DejaVuSans-67" transform="translate(634.130859 0)"/>
      <use xlink:href="#DejaVuSans-28" transform="translate(697.607422 0)"/>
      <use xlink:href="#DejaVuSans-31" transform="translate(736.621094 0)"/>
      <use xlink:href="#DejaVuSans-20" transform="translate(800.244141 0)"/>
      <use xlink:href="#DejaVuSans-2d" transform="translate(832.03125 0)"/>
      <use xlink:href="#DejaVuSans-20" transform="translate(868.115234 0)"/>
      <use xlink:href="#DejaVuSans-70" transform="translate(899.902344 0)"/>
      <use xlink:href="#DejaVuSans-29" transform="translate(963.378906 0)"/>
     </g>
    </g>
   </g>
  </g>
 </g>
 <defs>
  <clipPath id="p02b23008b2">
   <rect x="34.240625" y="22.318125" width="562.93" height="255.16"/>
  </clipPath>
 </defs>
</svg>
