<?xml version="1.0" encoding="utf-8" standalone="no"?>
<!DOCTYPE svg PUBLIC "-//W3C//DTD SVG 1.1//EN"
  "http://www.w3.org/Graphics/SVG/1.1/DTD/svg11.dtd">
<svg xmlns:xlink="http://www.w3.org/1999/xlink" width="568.433125pt" height="315.034375pt" viewBox="0 0 568.433125 315.034375" xmlns="http://www.w3.org/2000/svg" version="1.1">
 <metadata>
  <rdf:RDF xmlns:dc="http://purl.org/dc/elements/1.1/" xmlns:cc="http://creativecommons.org/ns#" xmlns:rdf="http://www.w3.org/1999/02/22-rdf-syntax-ns#">
   <cc:Work>
    <dc:type rdf:resource="http://purl.org/dc/dcmitype/StillImage"/>
    <dc:date>2026-05-26T10:39:17.204621</dc:date>
    <dc:format>image/svg+xml</dc:format>
    <dc:creator>
     <cc:Agent>
      <dc:title>Matplotlib v3.10.8, https://matplotlib.org/</dc:title>
     </cc:Agent>
    </dc:creator>
   </cc:Work>
  </rdf:RDF>
 </metadata>
 <defs>
  <style type="text/css">*{stroke-linejoin: round; stroke-linecap: butt}</style>
 </defs>
 <g id="figure_1">
  <g id="patch_1">
   <path d="M 0 315.034375 
L 568.433125 315.034375 
L 568.433125 0 
L 0 0 
z
" style="fill: #ffffff"/>
  </g>
  <g id="axes_1">
   <g id="patch_2">
    <path d="M 40.603125 277.478125 
L 561.233125 277.478125 
L 561.233125 22.318125 
L 40.603125 22.318125 
z
" style="fill: #ffffff"/>
   </g>
   <g id="PathCollection_1">
    <defs>
     <path id="m6e1e9d659e" d="M 0 2.738613 
C 0.726289 2.738613 1.422928 2.450055 1.936492 1.936492 
C 2.450055 1.422928 2.738613 0.726289 2.738613 0 
C 2.738613 -0.726289 2.450055 -1.422928 1.936492 -1.936492 
C 1.422928 -2.450055 0.726289 -2.738613 0 -2.738613 
C -0.726289 -2.738613 -1.422928 -2.450055 -1.936492 -1.936492 
C -2.450055 -1.422928 -2.738613 -0.726289 -2.738613 0 
C -2.738613 0.726289 -2.450055 1.422928 -1.936492 1.936492 
C -1.422928 2.450055 -0.726289 2.738613 0 2.738613 
z
" style="stroke: #7aa6c2; stroke-opacity: 0.5"/>
    </defs>
    <g clip-path="url(#p96f086bdd4)">
     <use xlink:href="#m6e1e9d659e" x="64.268125" y="264.735254" style="fill: #7aa6c2; fill-opacity: 0.5; stroke: #7aa6c2; stroke-opacity: 0.5"/>
     <use xlink:href="#m6e1e9d659e" x="70.259264" y="265.136853" style="fill: #7aa6c2; fill-opacity: 0.5; stroke: #7aa6c2; stroke-opacity: 0.5"/>
     <use xlink:href="#m6e1e9d659e" x="76.250403" y="259.449835" style="fill: #7aa6c2; fill-opacity: 0.5; stroke: #7aa6c2; stroke-opacity: 0.5"/>
     <use xlink:href="#m6e1e9d659e" x="82.241543" y="261.492344" style="fill: #7aa6c2; fill-opacity: 0.5; stroke: #7aa6c2; stroke-opacity: 0.5"/>
     <use xlink:href="#m6e1e9d659e" x="88.232682" y="264.155597" style="fill: #7aa6c2; fill-opacity: 0.5; stroke: #7aa6c2; stroke-opacity: 0.5"/>
     <use xlink:href="#m6e1e9d659e" x="94.223821" y="155.907381" style="fill: #7aa6c2; fill-opacity: 0.5; stroke: #7aa6c2; stroke-opacity: 0.5"/>
     <use xlink:href="#m6e1e9d659e" x="100.21496" y="251.040627" style="fill: #7aa6c2; fill-opacity: 0.5; stroke: #7aa6c2; stroke-opacity: 0.5"/>
     <use xlink:href="#m6e1e9d659e" x="106.2061" y="252.027733" style="fill: #7aa6c2; fill-opacity: 0.5; stroke: #7aa6c2; stroke-opacity: 0.5"/>
     <use xlink:href="#m6e1e9d659e" x="112.197239" y="260.660733" style="fill: #7aa6c2; fill-opacity: 0.5; stroke: #7aa6c2; stroke-opacity: 0.5"/>
     <use xlink:href="#m6e1e9d659e" x="118.188378" y="262.857848" style="fill: #7aa6c2; fill-opacity: 0.5; stroke: #7aa6c2; stroke-opacity: 0.5"/>
     <use xlink:href="#m6e1e9d659e" x="124.179517" y="257.941275" style="fill: #7aa6c2; fill-opacity: 0.5; stroke: #7aa6c2; stroke-opacity: 0.5"/>
     <use xlink:href="#m6e1e9d659e" x="130.170657" y="252.89202" style="fill: #7aa6c2; fill-opacity: 0.5; stroke: #7aa6c2; stroke-opacity: 0.5"/>
     <use xlink:href="#m6e1e9d659e" x="136.161796" y="265.75329" style="fill: #7aa6c2; fill-opacity: 0.5; stroke: #7aa6c2; stroke-opacity: 0.5"/>
     <use xlink:href="#m6e1e9d659e" x="142.152935" y="252.185108" style="fill: #7aa6c2; fill-opacity: 0.5; stroke: #7aa6c2; stroke-opacity: 0.5"/>
     <use xlink:href="#m6e1e9d659e" x="148.144074" y="257.132559" style="fill: #7aa6c2; fill-opacity: 0.5; stroke: #7aa6c2; stroke-opacity: 0.5"/>
     <use xlink:href="#m6e1e9d659e" x="154.135214" y="252.975338" style="fill: #7aa6c2; fill-opacity: 0.5; stroke: #7aa6c2; stroke-opacity: 0.5"/>
     <use xlink:href="#m6e1e9d659e" x="160.126353" y="250.74236" style="fill: #7aa6c2; fill-opacity: 0.5; stroke: #7aa6c2; stroke-opacity: 0.5"/>
     <use xlink:href="#m6e1e9d659e" x="166.117492" y="73.840336" style="fill: #7aa6c2; fill-opacity: 0.5; stroke: #7aa6c2; stroke-opacity: 0.5"/>
     <use xlink:href="#m6e1e9d659e" x="172.108631" y="242.849821" style="fill: #7aa6c2; fill-opacity: 0.5; stroke: #7aa6c2; stroke-opacity: 0.5"/>
     <use xlink:href="#m6e1e9d659e" x="178.099771" y="237.99981" style="fill: #7aa6c2; fill-opacity: 0.5; stroke: #7aa6c2; stroke-opacity: 0.5"/>
     <use xlink:href="#m6e1e9d659e" x="184.09091" y="243.797764" style="fill: #7aa6c2; fill-opacity: 0.5; stroke: #7aa6c2; stroke-opacity: 0.5"/>
     <use xlink:href="#m6e1e9d659e" x="190.082049" y="233.841525" style="fill: #7aa6c2; fill-opacity: 0.5; stroke: #7aa6c2; stroke-opacity: 0.5"/>
     <use xlink:href="#m6e1e9d659e" x="196.073188" y="69.115901" style="fill: #7aa6c2; fill-opacity: 0.5; stroke: #7aa6c2; stroke-opacity: 0.5"/>
     <use xlink:href="#m6e1e9d659e" x="202.064328" y="237.595087" style="fill: #7aa6c2; fill-opacity: 0.5; stroke: #7aa6c2; stroke-opacity: 0.5"/>
     <use xlink:href="#m6e1e9d659e" x="208.055467" y="233.211446" style="fill: #7aa6c2; fill-opacity: 0.5; stroke: #7aa6c2; stroke-opacity: 0.5"/>
     <use xlink:href="#m6e1e9d659e" x="214.046606" y="236.872693" style="fill: #7aa6c2; fill-opacity: 0.5; stroke: #7aa6c2; stroke-opacity: 0.5"/>
     <use xlink:href="#m6e1e9d659e" x="220.037745" y="240.699714" style="fill: #7aa6c2; fill-opacity: 0.5; stroke: #7aa6c2; stroke-opacity: 0.5"/>
     <use xlink:href="#m6e1e9d659e" x="226.028884" y="240.630888" style="fill: #7aa6c2; fill-opacity: 0.5; stroke: #7aa6c2; stroke-opacity: 0.5"/>
     <use xlink:href="#m6e1e9d659e" x="232.020024" y="236.767024" style="fill: #7aa6c2; fill-opacity: 0.5; stroke: #7aa6c2; stroke-opacity: 0.5"/>
     <use xlink:href="#m6e1e9d659e" x="238.011163" y="231.639055" style="fill: #7aa6c2; fill-opacity: 0.5; stroke: #7aa6c2; stroke-opacity: 0.5"/>
     <use xlink:href="#m6e1e9d659e" x="244.002302" y="72.595003" style="fill: #7aa6c2; fill-opacity: 0.5; stroke: #7aa6c2; stroke-opacity: 0.5"/>
     <use xlink:href="#m6e1e9d659e" x="249.993441" y="231.932293" style="fill: #7aa6c2; fill-opacity: 0.5; stroke: #7aa6c2; stroke-opacity: 0.5"/>
     <use xlink:href="#m6e1e9d659e" x="255.984581" y="55.665324" style="fill: #7aa6c2; fill-opacity: 0.5; stroke: #7aa6c2; stroke-opacity: 0.5"/>
     <use xlink:href="#m6e1e9d659e" x="261.97572" y="225.25627" style="fill: #7aa6c2; fill-opacity: 0.5; stroke: #7aa6c2; stroke-opacity: 0.5"/>
     <use xlink:href="#m6e1e9d659e" x="267.966859" y="226.061771" style="fill: #7aa6c2; fill-opacity: 0.5; stroke: #7aa6c2; stroke-opacity: 0.5"/>
     <use xlink:href="#m6e1e9d659e" x="273.957998" y="224.108267" style="fill: #7aa6c2; fill-opacity: 0.5; stroke: #7aa6c2; stroke-opacity: 0.5"/>
     <use xlink:href="#m6e1e9d659e" x="279.949138" y="228.949837" style="fill: #7aa6c2; fill-opacity: 0.5; stroke: #7aa6c2; stroke-opacity: 0.5"/>
     <use xlink:href="#m6e1e9d659e" x="285.940277" y="224.730148" style="fill: #7aa6c2; fill-opacity: 0.5; stroke: #7aa6c2; stroke-opacity: 0.5"/>
     <use xlink:href="#m6e1e9d659e" x="291.931416" y="218.20957" style="fill: #7aa6c2; fill-opacity: 0.5; stroke: #7aa6c2; stroke-opacity: 0.5"/>
     <use xlink:href="#m6e1e9d659e" x="297.922555" y="42.052324" style="fill: #7aa6c2; fill-opacity: 0.5; stroke: #7aa6c2; stroke-opacity: 0.5"/>
     <use xlink:href="#m6e1e9d659e" x="303.913695" y="228.038304" style="fill: #7aa6c2; fill-opacity: 0.5; stroke: #7aa6c2; stroke-opacity: 0.5"/>
     <use xlink:href="#m6e1e9d659e" x="309.904834" y="210.530163" style="fill: #7aa6c2; fill-opacity: 0.5; stroke: #7aa6c2; stroke-opacity: 0.5"/>
     <use xlink:href="#m6e1e9d659e" x="315.895973" y="210.401194" style="fill: #7aa6c2; fill-opacity: 0.5; stroke: #7aa6c2; stroke-opacity: 0.5"/>
     <use xlink:href="#m6e1e9d659e" x="321.887112" y="212.615315" style="fill: #7aa6c2; fill-opacity: 0.5; stroke: #7aa6c2; stroke-opacity: 0.5"/>
     <use xlink:href="#m6e1e9d659e" x="327.878252" y="214.547518" style="fill: #7aa6c2; fill-opacity: 0.5; stroke: #7aa6c2; stroke-opacity: 0.5"/>
     <use xlink:href="#m6e1e9d659e" x="333.869391" y="216.843271" style="fill: #7aa6c2; fill-opacity: 0.5; stroke: #7aa6c2; stroke-opacity: 0.5"/>
     <use xlink:href="#m6e1e9d659e" x="339.86053" y="205.250507" style="fill: #7aa6c2; fill-opacity: 0.5; stroke: #7aa6c2; stroke-opacity: 0.5"/>
     <use xlink:href="#m6e1e9d659e" x="345.851669" y="201.160686" style="fill: #7aa6c2; fill-opacity: 0.5; stroke: #7aa6c2; stroke-opacity: 0.5"/>
     <use xlink:href="#m6e1e9d659e" x="351.842809" y="200.976024" style="fill: #7aa6c2; fill-opacity: 0.5; stroke: #7aa6c2; stroke-opacity: 0.5"/>
     <use xlink:href="#m6e1e9d659e" x="357.833948" y="202.729033" style="fill: #7aa6c2; fill-opacity: 0.5; stroke: #7aa6c2; stroke-opacity: 0.5"/>
     <use xlink:href="#m6e1e9d659e" x="363.825087" y="207.26641" style="fill: #7aa6c2; fill-opacity: 0.5; stroke: #7aa6c2; stroke-opacity: 0.5"/>
     <use xlink:href="#m6e1e9d659e" x="369.816226" y="215.396435" style="fill: #7aa6c2; fill-opacity: 0.5; stroke: #7aa6c2; stroke-opacity: 0.5"/>
     <use xlink:href="#m6e1e9d659e" x="375.807366" y="207.160563" style="fill: #7aa6c2; fill-opacity: 0.5; stroke: #7aa6c2; stroke-opacity: 0.5"/>
     <use xlink:href="#m6e1e9d659e" x="381.798505" y="202.133003" style="fill: #7aa6c2; fill-opacity: 0.5; stroke: #7aa6c2; stroke-opacity: 0.5"/>
     <use xlink:href="#m6e1e9d659e" x="387.789644" y="212.503426" style="fill: #7aa6c2; fill-opacity: 0.5; stroke: #7aa6c2; stroke-opacity: 0.5"/>
     <use xlink:href="#m6e1e9d659e" x="393.780783" y="201.433389" style="fill: #7aa6c2; fill-opacity: 0.5; stroke: #7aa6c2; stroke-opacity: 0.5"/>
     <use xlink:href="#m6e1e9d659e" x="399.771922" y="200.106095" style="fill: #7aa6c2; fill-opacity: 0.5; stroke: #7aa6c2; stroke-opacity: 0.5"/>
     <use xlink:href="#m6e1e9d659e" x="405.763062" y="197.411191" style="fill: #7aa6c2; fill-opacity: 0.5; stroke: #7aa6c2; stroke-opacity: 0.5"/>
     <use xlink:href="#m6e1e9d659e" x="411.754201" y="33.916307" style="fill: #7aa6c2; fill-opacity: 0.5; stroke: #7aa6c2; stroke-opacity: 0.5"/>
     <use xlink:href="#m6e1e9d659e" x="417.74534" y="113.248876" style="fill: #7aa6c2; fill-opacity: 0.5; stroke: #7aa6c2; stroke-opacity: 0.5"/>
     <use xlink:href="#m6e1e9d659e" x="423.736479" y="200.737228" style="fill: #7aa6c2; fill-opacity: 0.5; stroke: #7aa6c2; stroke-opacity: 0.5"/>
     <use xlink:href="#m6e1e9d659e" x="429.727619" y="203.948837" style="fill: #7aa6c2; fill-opacity: 0.5; stroke: #7aa6c2; stroke-opacity: 0.5"/>
     <use xlink:href="#m6e1e9d659e" x="435.718758" y="185.635978" style="fill: #7aa6c2; fill-opacity: 0.5; stroke: #7aa6c2; stroke-opacity: 0.5"/>
     <use xlink:href="#m6e1e9d659e" x="441.709897" y="197.722682" style="fill: #7aa6c2; fill-opacity: 0.5; stroke: #7aa6c2; stroke-opacity: 0.5"/>
     <use xlink:href="#m6e1e9d659e" x="447.701036" y="191.726301" style="fill: #7aa6c2; fill-opacity: 0.5; stroke: #7aa6c2; stroke-opacity: 0.5"/>
     <use xlink:href="#m6e1e9d659e" x="453.692176" y="194.076205" style="fill: #7aa6c2; fill-opacity: 0.5; stroke: #7aa6c2; stroke-opacity: 0.5"/>
     <use xlink:href="#m6e1e9d659e" x="459.683315" y="182.069195" style="fill: #7aa6c2; fill-opacity: 0.5; stroke: #7aa6c2; stroke-opacity: 0.5"/>
     <use xlink:href="#m6e1e9d659e" x="465.674454" y="182.501975" style="fill: #7aa6c2; fill-opacity: 0.5; stroke: #7aa6c2; stroke-opacity: 0.5"/>
     <use xlink:href="#m6e1e9d659e" x="471.665593" y="185.439644" style="fill: #7aa6c2; fill-opacity: 0.5; stroke: #7aa6c2; stroke-opacity: 0.5"/>
     <use xlink:href="#m6e1e9d659e" x="477.656733" y="201.081225" style="fill: #7aa6c2; fill-opacity: 0.5; stroke: #7aa6c2; stroke-opacity: 0.5"/>
     <use xlink:href="#m6e1e9d659e" x="483.647872" y="186.630801" style="fill: #7aa6c2; fill-opacity: 0.5; stroke: #7aa6c2; stroke-opacity: 0.5"/>
     <use xlink:href="#m6e1e9d659e" x="489.639011" y="181.776214" style="fill: #7aa6c2; fill-opacity: 0.5; stroke: #7aa6c2; stroke-opacity: 0.5"/>
     <use xlink:href="#m6e1e9d659e" x="495.63015" y="178.761644" style="fill: #7aa6c2; fill-opacity: 0.5; stroke: #7aa6c2; stroke-opacity: 0.5"/>
     <use xlink:href="#m6e1e9d659e" x="501.62129" y="187.223587" style="fill: #7aa6c2; fill-opacity: 0.5; stroke: #7aa6c2; stroke-opacity: 0.5"/>
     <use xlink:href="#m6e1e9d659e" x="507.612429" y="171.683627" style="fill: #7aa6c2; fill-opacity: 0.5; stroke: #7aa6c2; stroke-opacity: 0.5"/>
     <use xlink:href="#m6e1e9d659e" x="513.603568" y="189.13094" style="fill: #7aa6c2; fill-opacity: 0.5; stroke: #7aa6c2; stroke-opacity: 0.5"/>
     <use xlink:href="#m6e1e9d659e" x="519.594707" y="184.115353" style="fill: #7aa6c2; fill-opacity: 0.5; stroke: #7aa6c2; stroke-opacity: 0.5"/>
     <use xlink:href="#m6e1e9d659e" x="525.585847" y="173.558859" style="fill: #7aa6c2; fill-opacity: 0.5; stroke: #7aa6c2; stroke-opacity: 0.5"/>
     <use xlink:href="#m6e1e9d659e" x="531.576986" y="177.672381" style="fill: #7aa6c2; fill-opacity: 0.5; stroke: #7aa6c2; stroke-opacity: 0.5"/>
     <use xlink:href="#m6e1e9d659e" x="537.568125" y="165.007721" style="fill: #7aa6c2; fill-opacity: 0.5; stroke: #7aa6c2; stroke-opacity: 0.5"/>
    </g>
   </g>
   <g id="matplotlib.axis_1">
    <g id="xtick_1">
     <g id="line2d_1">
      <path d="M 64.268125 277.478125 
L 64.268125 22.318125 
" clip-path="url(#p96f086bdd4)" style="fill: none; stroke: #b0b0b0; stroke-opacity: 0.25; stroke-width: 0.8; stroke-linecap: square"/>
     </g>
     <g id="line2d_2">
      <defs>
       <path id="m81fedec502" d="M 0 0 
L 0 3.5 
" style="stroke: #000000; stroke-width: 0.8"/>
      </defs>
      <g>
       <use xlink:href="#m81fedec502" x="64.268125" y="277.478125" style="stroke: #000000; stroke-width: 0.8"/>
      </g>
     </g>
     <g id="text_1">
      <!-- 0 -->
      <g transform="translate(61.086875 292.076563) scale(0.1 -0.1)">
       <defs>
        <path id="DejaVuSans-30" d="M 2034 4250 
Q 1547 4250 1301 3770 
Q 1056 3291 1056 2328 
Q 1056 1369 1301 889 
Q 1547 409 2034 409 
Q 2525 409 2770 889 
Q 3016 1369 3016 2328 
Q 3016 3291 2770 3770 
Q 2525 4250 2034 4250 
z
M 2034 4750 
Q 2819 4750 3233 4129 
Q 3647 3509 3647 2328 
Q 3647 1150 3233 529 
Q 2819 -91 2034 -91 
Q 1250 -91 836 529 
Q 422 1150 422 2328 
Q 422 3509 836 4129 
Q 1250 4750 2034 4750 
z
" transform="scale(0.015625)"/>
       </defs>
       <use xlink:href="#DejaVuSans-30"/>
      </g>
     </g>
    </g>
    <g id="xtick_2">
     <g id="line2d_3">
      <path d="M 158.928125 277.478125 
L 158.928125 22.318125 
" clip-path="url(#p96f086bdd4)" style="fill: none; stroke: #b0b0b0; stroke-opacity: 0.25; stroke-width: 0.8; stroke-linecap: square"/>
     </g>
     <g id="line2d_4">
      <g>
       <use xlink:href="#m81fedec502" x="158.928125" y="277.478125" style="stroke: #000000; stroke-width: 0.8"/>
      </g>
     </g>
     <g id="text_2">
      <!-- 2 -->
      <g transform="translate(155.746875 292.076563) scale(0.1 -0.1)">
       <defs>
        <path id="DejaVuSans-32" d="M 1228 531 
L 3431 531 
L 3431 0 
L 469 0 
L 469 531 
Q 828 903 1448 1529 
Q 2069 2156 2228 2338 
Q 2531 2678 2651 2914 
Q 2772 3150 2772 3378 
Q 2772 3750 2511 3984 
Q 2250 4219 1831 4219 
Q 1534 4219 1204 4116 
Q 875 4013 500 3803 
L 500 4441 
Q 881 4594 1212 4672 
Q 1544 4750 1819 4750 
Q 2544 4750 2975 4387 
Q 3406 4025 3406 3419 
Q 3406 3131 3298 2873 
Q 3191 2616 2906 2266 
Q 2828 2175 2409 1742 
Q 1991 1309 1228 531 
z
" transform="scale(0.015625)"/>
       </defs>
       <use xlink:href="#DejaVuSans-32"/>
      </g>
     </g>
    </g>
    <g id="xtick_3">
     <g id="line2d_5">
      <path d="M 253.588125 277.478125 
L 253.588125 22.318125 
" clip-path="url(#p96f086bdd4)" style="fill: none; stroke: #b0b0b0; stroke-opacity: 0.25; stroke-width: 0.8; stroke-linecap: square"/>
     </g>
     <g id="line2d_6">
      <g>
       <use xlink:href="#m81fedec502" x="253.588125" y="277.478125" style="stroke: #000000; stroke-width: 0.8"/>
      </g>
     </g>
     <g id="text_3">
      <!-- 4 -->
      <g transform="translate(250.406875 292.076563) scale(0.1 -0.1)">
       <defs>
        <path id="DejaVuSans-34" d="M 2419 4116 
L 825 1625 
L 2419 1625 
L 2419 4116 
z
M 2253 4666 
L 3047 4666 
L 3047 1625 
L 3713 1625 
L 3713 1100 
L 3047 1100 
L 3047 0 
L 2419 0 
L 2419 1100 
L 313 1100 
L 313 1709 
L 2253 4666 
z
" transform="scale(0.015625)"/>
       </defs>
       <use xlink:href="#DejaVuSans-34"/>
      </g>
     </g>
    </g>
    <g id="xtick_4">
     <g id="line2d_7">
      <path d="M 348.248125 277.478125 
L 348.248125 22.318125 
" clip-path="url(#p96f086bdd4)" style="fill: none; stroke: #b0b0b0; stroke-opacity: 0.25; stroke-width: 0.8; stroke-linecap: square"/>
     </g>
     <g id="line2d_8">
      <g>
       <use xlink:href="#m81fedec502" x="348.248125" y="277.478125" style="stroke: #000000; stroke-width: 0.8"/>
      </g>
     </g>
     <g id="text_4">
      <!-- 6 -->
      <g transform="translate(345.066875 292.076563) scale(0.1 -0.1)">
       <defs>
        <path id="DejaVuSans-36" d="M 2113 2584 
Q 1688 2584 1439 2293 
Q 1191 2003 1191 1497 
Q 1191 994 1439 701 
Q 1688 409 2113 409 
Q 2538 409 2786 701 
Q 3034 994 3034 1497 
Q 3034 2003 2786 2293 
Q 2538 2584 2113 2584 
z
M 3366 4563 
L 3366 3988 
Q 3128 4100 2886 4159 
Q 2644 4219 2406 4219 
Q 1781 4219 1451 3797 
Q 1122 3375 1075 2522 
Q 1259 2794 1537 2939 
Q 1816 3084 2150 3084 
Q 2853 3084 3261 2657 
Q 3669 2231 3669 1497 
Q 3669 778 3244 343 
Q 2819 -91 2113 -91 
Q 1303 -91 875 529 
Q 447 1150 447 2328 
Q 447 3434 972 4092 
Q 1497 4750 2381 4750 
Q 2619 4750 2861 4703 
Q 3103 4656 3366 4563 
z
" transform="scale(0.015625)"/>
       </defs>
       <use xlink:href="#DejaVuSans-36"/>
      </g>
     </g>
    </g>
    <g id="xtick_5">
     <g id="line2d_9">
      <path d="M 442.908125 277.478125 
L 442.908125 22.318125 
" clip-path="url(#p96f086bdd4)" style="fill: none; stroke: #b0b0b0; stroke-opacity: 0.25; stroke-width: 0.8; stroke-linecap: square"/>
     </g>
     <g id="line2d_10">
      <g>
       <use xlink:href="#m81fedec502" x="442.908125" y="277.478125" style="stroke: #000000; stroke-width: 0.8"/>
      </g>
     </g>
     <g id="text_5">
      <!-- 8 -->
      <g transform="translate(439.726875 292.076563) scale(0.1 -0.1)">
       <defs>
        <path id="DejaVuSans-38" d="M 2034 2216 
Q 1584 2216 1326 1975 
Q 1069 1734 1069 1313 
Q 1069 891 1326 650 
Q 1584 409 2034 409 
Q 2484 409 2743 651 
Q 3003 894 3003 1313 
Q 3003 1734 2745 1975 
Q 2488 2216 2034 2216 
z
M 1403 2484 
Q 997 2584 770 2862 
Q 544 3141 544 3541 
Q 544 4100 942 4425 
Q 1341 4750 2034 4750 
Q 2731 4750 3128 4425 
Q 3525 4100 3525 3541 
Q 3525 3141 3298 2862 
Q 3072 2584 2669 2484 
Q 3125 2378 3379 2068 
Q 3634 1759 3634 1313 
Q 3634 634 3220 271 
Q 2806 -91 2034 -91 
Q 1263 -91 848 271 
Q 434 634 434 1313 
Q 434 1759 690 2068 
Q 947 2378 1403 2484 
z
M 1172 3481 
Q 1172 3119 1398 2916 
Q 1625 2713 2034 2713 
Q 2441 2713 2670 2916 
Q 2900 3119 2900 3481 
Q 2900 3844 2670 4047 
Q 2441 4250 2034 4250 
Q 1625 4250 1398 4047 
Q 1172 3844 1172 3481 
z
" transform="scale(0.015625)"/>
       </defs>
       <use xlink:href="#DejaVuSans-38"/>
      </g>
     </g>
    </g>
    <g id="xtick_6">
     <g id="line2d_11">
      <path d="M 537.568125 277.478125 
L 537.568125 22.318125 
" clip-path="url(#p96f086bdd4)" style="fill: none; stroke: #b0b0b0; stroke-opacity: 0.25; stroke-width: 0.8; stroke-linecap: square"/>
     </g>
     <g id="line2d_12">
      <g>
       <use xlink:href="#m81fedec502" x="537.568125" y="277.478125" style="stroke: #000000; stroke-width: 0.8"/>
      </g>
     </g>
     <g id="text_6">
      <!-- 10 -->
      <g transform="translate(531.205625 292.076563) scale(0.1 -0.1)">
       <defs>
        <path id="DejaVuSans-31" d="M 794 531 
L 1825 531 
L 1825 4091 
L 703 3866 
L 703 4441 
L 1819 4666 
L 2450 4666 
L 2450 531 
L 3481 531 
L 3481 0 
L 794 0 
L 794 531 
z
" transform="scale(0.015625)"/>
       </defs>
       <use xlink:href="#DejaVuSans-31"/>
       <use xlink:href="#DejaVuSans-30" transform="translate(63.623047 0)"/>
      </g>
     </g>
    </g>
    <g id="text_7">
     <!-- x -->
     <g transform="translate(297.95875 305.754687) scale(0.1 -0.1)">
      <defs>
       <path id="DejaVuSans-78" d="M 3513 3500 
L 2247 1797 
L 3578 0 
L 2900 0 
L 1881 1375 
L 863 0 
L 184 0 
L 1544 1831 
L 300 3500 
L 978 3500 
L 1906 2253 
L 2834 3500 
L 3513 3500 
z
" transform="scale(0.015625)"/>
      </defs>
      <use xlink:href="#DejaVuSans-78"/>
     </g>
    </g>
   </g>
   <g id="matplotlib.axis_2">
    <g id="ytick_1">
     <g id="line2d_13">
      <path d="M 40.603125 277.296614 
L 561.233125 277.296614 
" clip-path="url(#p96f086bdd4)" style="fill: none; stroke: #b0b0b0; stroke-opacity: 0.25; stroke-width: 0.8; stroke-linecap: square"/>
     </g>
     <g id="line2d_14">
      <defs>
       <path id="mf6f29eac19" d="M 0 0 
L -3.5 0 
" style="stroke: #000000; stroke-width: 0.8"/>
      </defs>
      <g>
       <use xlink:href="#mf6f29eac19" x="40.603125" y="277.296614" style="stroke: #000000; stroke-width: 0.8"/>
      </g>
     </g>
     <g id="text_8">
      <!-- 0 -->
      <g transform="translate(27.240625 281.095832) scale(0.1 -0.1)">
       <use xlink:href="#DejaVuSans-30"/>
      </g>
     </g>
    </g>
    <g id="ytick_2">
     <g id="line2d_15">
      <path d="M 40.603125 247.750626 
L 561.233125 247.750626 
" clip-path="url(#p96f086bdd4)" style="fill: none; stroke: #b0b0b0; stroke-opacity: 0.25; stroke-width: 0.8; stroke-linecap: square"/>
     </g>
     <g id="line2d_16">
      <g>
       <use xlink:href="#mf6f29eac19" x="40.603125" y="247.750626" style="stroke: #000000; stroke-width: 0.8"/>
      </g>
     </g>
     <g id="text_9">
      <!-- 5 -->
      <g transform="translate(27.240625 251.549845) scale(0.1 -0.1)">
       <defs>
        <path id="DejaVuSans-35" d="M 691 4666 
L 3169 4666 
L 3169 4134 
L 1269 4134 
L 1269 2991 
Q 1406 3038 1543 3061 
Q 1681 3084 1819 3084 
Q 2600 3084 3056 2656 
Q 3513 2228 3513 1497 
Q 3513 744 3044 326 
Q 2575 -91 1722 -91 
Q 1428 -91 1123 -41 
Q 819 9 494 109 
L 494 744 
Q 775 591 1075 516 
Q 1375 441 1709 441 
Q 2250 441 2565 725 
Q 2881 1009 2881 1497 
Q 2881 1984 2565 2268 
Q 2250 2553 1709 2553 
Q 1456 2553 1204 2497 
Q 953 2441 691 2322 
L 691 4666 
z
" transform="scale(0.015625)"/>
       </defs>
       <use xlink:href="#DejaVuSans-35"/>
      </g>
     </g>
    </g>
    <g id="ytick_3">
     <g id="line2d_17">
      <path d="M 40.603125 218.204638 
L 561.233125 218.204638 
" clip-path="url(#p96f086bdd4)" style="fill: none; stroke: #b0b0b0; stroke-opacity: 0.25; stroke-width: 0.8; stroke-linecap: square"/>
     </g>
     <g id="line2d_18">
      <g>
       <use xlink:href="#mf6f29eac19" x="40.603125" y="218.204638" style="stroke: #000000; stroke-width: 0.8"/>
      </g>
     </g>
     <g id="text_10">
      <!-- 10 -->
      <g transform="translate(20.878125 222.003857) scale(0.1 -0.1)">
       <use xlink:href="#DejaVuSans-31"/>
       <use xlink:href="#DejaVuSans-30" transform="translate(63.623047 0)"/>
      </g>
     </g>
    </g>
    <g id="ytick_4">
     <g id="line2d_19">
      <path d="M 40.603125 188.65865 
L 561.233125 188.65865 
" clip-path="url(#p96f086bdd4)" style="fill: none; stroke: #b0b0b0; stroke-opacity: 0.25; stroke-width: 0.8; stroke-linecap: square"/>
     </g>
     <g id="line2d_20">
      <g>
       <use xlink:href="#mf6f29eac19" x="40.603125" y="188.65865" style="stroke: #000000; stroke-width: 0.8"/>
      </g>
     </g>
     <g id="text_11">
      <!-- 15 -->
      <g transform="translate(20.878125 192.457869) scale(0.1 -0.1)">
       <use xlink:href="#DejaVuSans-31"/>
       <use xlink:href="#DejaVuSans-35" transform="translate(63.623047 0)"/>
      </g>
     </g>
    </g>
    <g id="ytick_5">
     <g id="line2d_21">
      <path d="M 40.603125 159.112662 
L 561.233125 159.112662 
" clip-path="url(#p96f086bdd4)" style="fill: none; stroke: #b0b0b0; stroke-opacity: 0.25; stroke-width: 0.8; stroke-linecap: square"/>
     </g>
     <g id="line2d_22">
      <g>
       <use xlink:href="#mf6f29eac19" x="40.603125" y="159.112662" style="stroke: #000000; stroke-width: 0.8"/>
      </g>
     </g>
     <g id="text_12">
      <!-- 20 -->
      <g transform="translate(20.878125 162.911881) scale(0.1 -0.1)">
       <use xlink:href="#DejaVuSans-32"/>
       <use xlink:href="#DejaVuSans-30" transform="translate(63.623047 0)"/>
      </g>
     </g>
    </g>
    <g id="ytick_6">
     <g id="line2d_23">
      <path d="M 40.603125 129.566674 
L 561.233125 129.566674 
" clip-path="url(#p96f086bdd4)" style="fill: none; stroke: #b0b0b0; stroke-opacity: 0.25; stroke-width: 0.8; stroke-linecap: square"/>
     </g>
     <g id="line2d_24">
      <g>
       <use xlink:href="#mf6f29eac19" x="40.603125" y="129.566674" style="stroke: #000000; stroke-width: 0.8"/>
      </g>
     </g>
     <g id="text_13">
      <!-- 25 -->
      <g transform="translate(20.878125 133.365893) scale(0.1 -0.1)">
       <use xlink:href="#DejaVuSans-32"/>
       <use xlink:href="#DejaVuSans-35" transform="translate(63.623047 0)"/>
      </g>
     </g>
    </g>
    <g id="ytick_7">
     <g id="line2d_25">
      <path d="M 40.603125 100.020686 
L 561.233125 100.020686 
" clip-path="url(#p96f086bdd4)" style="fill: none; stroke: #b0b0b0; stroke-opacity: 0.25; stroke-width: 0.8; stroke-linecap: square"/>
     </g>
     <g id="line2d_26">
      <g>
       <use xlink:href="#mf6f29eac19" x="40.603125" y="100.020686" style="stroke: #000000; stroke-width: 0.8"/>
      </g>
     </g>
     <g id="text_14">
      <!-- 30 -->
      <g transform="translate(20.878125 103.819905) scale(0.1 -0.1)">
       <defs>
        <path id="DejaVuSans-33" d="M 2597 2516 
Q 3050 2419 3304 2112 
Q 3559 1806 3559 1356 
Q 3559 666 3084 287 
Q 2609 -91 1734 -91 
Q 1441 -91 1130 -33 
Q 819 25 488 141 
L 488 750 
Q 750 597 1062 519 
Q 1375 441 1716 441 
Q 2309 441 2620 675 
Q 2931 909 2931 1356 
Q 2931 1769 2642 2001 
Q 2353 2234 1838 2234 
L 1294 2234 
L 1294 2753 
L 1863 2753 
Q 2328 2753 2575 2939 
Q 2822 3125 2822 3475 
Q 2822 3834 2567 4026 
Q 2313 4219 1838 4219 
Q 1578 4219 1281 4162 
Q 984 4106 628 3988 
L 628 4550 
Q 988 4650 1302 4700 
Q 1616 4750 1894 4750 
Q 2613 4750 3031 4423 
Q 3450 4097 3450 3541 
Q 3450 3153 3228 2886 
Q 3006 2619 2597 2516 
z
" transform="scale(0.015625)"/>
       </defs>
       <use xlink:href="#DejaVuSans-33"/>
       <use xlink:href="#DejaVuSans-30" transform="translate(63.623047 0)"/>
      </g>
     </g>
    </g>
    <g id="ytick_8">
     <g id="line2d_27">
      <path d="M 40.603125 70.474698 
L 561.233125 70.474698 
" clip-path="url(#p96f086bdd4)" style="fill: none; stroke: #b0b0b0; stroke-opacity: 0.25; stroke-width: 0.8; stroke-linecap: square"/>
     </g>
     <g id="line2d_28">
      <g>
       <use xlink:href="#mf6f29eac19" x="40.603125" y="70.474698" style="stroke: #000000; stroke-width: 0.8"/>
      </g>
     </g>
     <g id="text_15">
      <!-- 35 -->
      <g transform="translate(20.878125 74.273917) scale(0.1 -0.1)">
       <use xlink:href="#DejaVuSans-33"/>
       <use xlink:href="#DejaVuSans-35" transform="translate(63.623047 0)"/>
      </g>
     </g>
    </g>
    <g id="ytick_9">
     <g id="line2d_29">
      <path d="M 40.603125 40.92871 
L 561.233125 40.92871 
" clip-path="url(#p96f086bdd4)" style="fill: none; stroke: #b0b0b0; stroke-opacity: 0.25; stroke-width: 0.8; stroke-linecap: square"/>
     </g>
     <g id="line2d_30">
      <g>
       <use xlink:href="#mf6f29eac19" x="40.603125" y="40.92871" style="stroke: #000000; stroke-width: 0.8"/>
      </g>
     </g>
     <g id="text_16">
      <!-- 40 -->
      <g transform="translate(20.878125 44.727929) scale(0.1 -0.1)">
       <use xlink:href="#DejaVuSans-34"/>
       <use xlink:href="#DejaVuSans-30" transform="translate(63.623047 0)"/>
      </g>
     </g>
    </g>
    <g id="text_17">
     <!-- y -->
     <g transform="translate(14.798438 152.8575) rotate(-90) scale(0.1 -0.1)">
      <defs>
       <path id="DejaVuSans-79" d="M 2059 -325 
Q 1816 -950 1584 -1140 
Q 1353 -1331 966 -1331 
L 506 -1331 
L 506 -850 
L 844 -850 
Q 1081 -850 1212 -737 
Q 1344 -625 1503 -206 
L 1606 56 
L 191 3500 
L 800 3500 
L 1894 763 
L 2988 3500 
L 3597 3500 
L 2059 -325 
z
" transform="scale(0.015625)"/>
      </defs>
      <use xlink:href="#DejaVuSans-79"/>
     </g>
    </g>
   </g>
   <g id="line2d_31">
    <path d="M 64.268125 265.478219 
L 70.259264 264.356219 
L 76.250403 263.234219 
L 82.241543 262.11222 
L 88.232682 260.99022 
L 94.223821 259.868221 
L 100.21496 258.746221 
L 106.2061 257.624222 
L 112.197239 256.502222 
L 118.188378 255.380223 
L 124.179517 254.258223 
L 130.170657 253.136224 
L 136.161796 252.014224 
L 142.152935 250.892224 
L 148.144074 249.770225 
L 154.135214 248.648225 
L 160.126353 247.526226 
L 166.117492 246.404226 
L 172.108631 245.282227 
L 178.099771 244.160227 
L 184.09091 243.038228 
L 190.082049 241.916228 
L 196.073188 240.794229 
L 202.064328 239.672229 
L 208.055467 238.55023 
L 214.046606 237.42823 
L 220.037745 236.30623 
L 226.028884 235.184231 
L 232.020024 234.062231 
L 238.011163 232.940232 
L 244.002302 231.818232 
L 249.993441 230.696233 
L 255.984581 229.574233 
L 261.97572 228.452234 
L 267.966859 227.330234 
L 273.957998 226.208235 
L 279.949138 225.086235 
L 285.940277 223.964235 
L 291.931416 222.842236 
L 297.922555 221.720236 
L 303.913695 220.598237 
L 309.904834 219.476237 
L 315.895973 218.354238 
L 321.887112 217.232238 
L 327.878252 216.110239 
L 333.869391 214.988239 
L 339.86053 213.86624 
L 345.851669 212.74424 
L 351.842809 211.62224 
L 357.833948 210.500241 
L 363.825087 209.378241 
L 369.816226 208.256242 
L 375.807366 207.134242 
L 381.798505 206.012243 
L 387.789644 204.890243 
L 393.780783 203.768244 
L 399.771922 202.646244 
L 405.763062 201.524245 
L 411.754201 200.402245 
L 417.74534 199.280245 
L 423.736479 198.158246 
L 429.727619 197.036246 
L 435.718758 195.914247 
L 441.709897 194.792247 
L 447.701036 193.670248 
L 453.692176 192.548248 
L 459.683315 191.426249 
L 465.674454 190.304249 
L 471.665593 189.18225 
L 477.656733 188.06025 
L 483.647872 186.938251 
L 489.639011 185.816251 
L 495.63015 184.694251 
L 501.62129 183.572252 
L 507.612429 182.450252 
L 513.603568 181.328253 
L 519.594707 180.206253 
L 525.585847 179.084254 
L 531.576986 177.962254 
L 537.568125 176.840255 
" clip-path="url(#p96f086bdd4)" style="fill: none; stroke-dasharray: 1.5,2.475; stroke-dashoffset: 0; stroke: #000000; stroke-width: 1.5"/>
   </g>
   <g id="line2d_32">
    <path d="M 64.268125 243.140908 
L 537.568125 167.100995 
L 537.568125 167.100995 
" clip-path="url(#p96f086bdd4)" style="fill: none; stroke: #e15759; stroke-width: 2; stroke-linecap: square"/>
   </g>
   <g id="line2d_33">
    <path d="M 64.268125 265.879943 
L 537.568125 172.603042 
L 537.568125 172.603042 
" clip-path="url(#p96f086bdd4)" style="fill: none; stroke: #59a14f; stroke-width: 2; stroke-linecap: square"/>
   </g>
   <g id="patch_3">
    <path d="M 40.603125 277.478125 
L 40.603125 22.318125 
" style="fill: none; stroke: #000000; stroke-width: 0.8; stroke-linejoin: miter; stroke-linecap: square"/>
   </g>
   <g id="patch_4">
    <path d="M 561.233125 277.478125 
L 561.233125 22.318125 
" style="fill: none; stroke: #000000; stroke-width: 0.8; stroke-linejoin: miter; stroke-linecap: square"/>
   </g>
   <g id="patch_5">
    <path d="M 40.603125 277.478125 
L 561.233125 277.478125 
" style="fill: none; stroke: #000000; stroke-width: 0.8; stroke-linejoin: miter; stroke-linecap: square"/>
   </g>
   <g id="patch_6">
    <path d="M 40.603125 22.318125 
L 561.233125 22.318125 
" style="fill: none; stroke: #000000; stroke-width: 0.8; stroke-linejoin: miter; stroke-linecap: square"/>
   </g>
   <g id="text_18">
    <!-- Loss choice changes the model: MSE bends toward outliers, MAE ignores them -->
    <g transform="translate(64.586563 16.318125) scale(0.12 -0.12)">
     <defs>
      <path id="DejaVuSans-4c" d="M 628 4666 
L 1259 4666 
L 1259 531 
L 3531 531 
L 3531 0 
L 628 0 
L 628 4666 
z
" transform="scale(0.015625)"/>
      <path id="DejaVuSans-6f" d="M 1959 3097 
Q 1497 3097 1228 2736 
Q 959 2375 959 1747 
Q 959 1119 1226 758 
Q 1494 397 1959 397 
Q 2419 397 2687 759 
Q 2956 1122 2956 1747 
Q 2956 2369 2687 2733 
Q 2419 3097 1959 3097 
z
M 1959 3584 
Q 2709 3584 3137 3096 
Q 3566 2609 3566 1747 
Q 3566 888 3137 398 
Q 2709 -91 1959 -91 
Q 1206 -91 779 398 
Q 353 888 353 1747 
Q 353 2609 779 3096 
Q 1206 3584 1959 3584 
z
" transform="scale(0.015625)"/>
      <path id="DejaVuSans-73" d="M 2834 3397 
L 2834 2853 
Q 2591 2978 2328 3040 
Q 2066 3103 1784 3103 
Q 1356 3103 1142 2972 
Q 928 2841 928 2578 
Q 928 2378 1081 2264 
Q 1234 2150 1697 2047 
L 1894 2003 
Q 2506 1872 2764 1633 
Q 3022 1394 3022 966 
Q 3022 478 2636 193 
Q 2250 -91 1575 -91 
Q 1294 -91 989 -36 
Q 684 19 347 128 
L 347 722 
Q 666 556 975 473 
Q 1284 391 1588 391 
Q 1994 391 2212 530 
Q 2431 669 2431 922 
Q 2431 1156 2273 1281 
Q 2116 1406 1581 1522 
L 1381 1569 
Q 847 1681 609 1914 
Q 372 2147 372 2553 
Q 372 3047 722 3315 
Q 1072 3584 1716 3584 
Q 2034 3584 2315 3537 
Q 2597 3491 2834 3397 
z
" transform="scale(0.015625)"/>
      <path id="DejaVuSans-20" transform="scale(0.015625)"/>
      <path id="DejaVuSans-63" d="M 3122 3366 
L 3122 2828 
Q 2878 2963 2633 3030 
Q 2388 3097 2138 3097 
Q 1578 3097 1268 2742 
Q 959 2388 959 1747 
Q 959 1106 1268 751 
Q 1578 397 2138 397 
Q 2388 397 2633 464 
Q 2878 531 3122 666 
L 3122 134 
Q 2881 22 2623 -34 
Q 2366 -91 2075 -91 
Q 1284 -91 818 406 
Q 353 903 353 1747 
Q 353 2603 823 3093 
Q 1294 3584 2113 3584 
Q 2378 3584 2631 3529 
Q 2884 3475 3122 3366 
z
" transform="scale(0.015625)"/>
      <path id="DejaVuSans-68" d="M 3513 2113 
L 3513 0 
L 2938 0 
L 2938 2094 
Q 2938 2591 2744 2837 
Q 2550 3084 2163 3084 
Q 1697 3084 1428 2787 
Q 1159 2491 1159 1978 
L 1159 0 
L 581 0 
L 581 4863 
L 1159 4863 
L 1159 2956 
Q 1366 3272 1645 3428 
Q 1925 3584 2291 3584 
Q 2894 3584 3203 3211 
Q 3513 2838 3513 2113 
z
" transform="scale(0.015625)"/>
      <path id="DejaVuSans-69" d="M 603 3500 
L 1178 3500 
L 1178 0 
L 603 0 
L 603 3500 
z
M 603 4863 
L 1178 4863 
L 1178 4134 
L 603 4134 
L 603 4863 
z
" transform="scale(0.015625)"/>
      <path id="DejaVuSans-65" d="M 3597 1894 
L 3597 1613 
L 953 1613 
Q 991 1019 1311 708 
Q 1631 397 2203 397 
Q 2534 397 2845 478 
Q 3156 559 3463 722 
L 3463 178 
Q 3153 47 2828 -22 
Q 2503 -91 2169 -91 
Q 1331 -91 842 396 
Q 353 884 353 1716 
Q 353 2575 817 3079 
Q 1281 3584 2069 3584 
Q 2775 3584 3186 3129 
Q 3597 2675 3597 1894 
z
M 3022 2063 
Q 3016 2534 2758 2815 
Q 2500 3097 2075 3097 
Q 1594 3097 1305 2825 
Q 1016 2553 972 2059 
L 3022 2063 
z
" transform="scale(0.015625)"/>
      <path id="DejaVuSans-61" d="M 2194 1759 
Q 1497 1759 1228 1600 
Q 959 1441 959 1056 
Q 959 750 1161 570 
Q 1363 391 1709 391 
Q 2188 391 2477 730 
Q 2766 1069 2766 1631 
L 2766 1759 
L 2194 1759 
z
M 3341 1997 
L 3341 0 
L 2766 0 
L 2766 531 
Q 2569 213 2275 61 
Q 1981 -91 1556 -91 
Q 1019 -91 701 211 
Q 384 513 384 1019 
Q 384 1609 779 1909 
Q 1175 2209 1959 2209 
L 2766 2209 
L 2766 2266 
Q 2766 2663 2505 2880 
Q 2244 3097 1772 3097 
Q 1472 3097 1187 3025 
Q 903 2953 641 2809 
L 641 3341 
Q 956 3463 1253 3523 
Q 1550 3584 1831 3584 
Q 2591 3584 2966 3190 
Q 3341 2797 3341 1997 
z
" transform="scale(0.015625)"/>
      <path id="DejaVuSans-6e" d="M 3513 2113 
L 3513 0 
L 2938 0 
L 2938 2094 
Q 2938 2591 2744 2837 
Q 2550 3084 2163 3084 
Q 1697 3084 1428 2787 
Q 1159 2491 1159 1978 
L 1159 0 
L 581 0 
L 581 3500 
L 1159 3500 
L 1159 2956 
Q 1366 3272 1645 3428 
Q 1925 3584 2291 3584 
Q 2894 3584 3203 3211 
Q 3513 2838 3513 2113 
z
" transform="scale(0.015625)"/>
      <path id="DejaVuSans-67" d="M 2906 1791 
Q 2906 2416 2648 2759 
Q 2391 3103 1925 3103 
Q 1463 3103 1205 2759 
Q 947 2416 947 1791 
Q 947 1169 1205 825 
Q 1463 481 1925 481 
Q 2391 481 2648 825 
Q 2906 1169 2906 1791 
z
M 3481 434 
Q 3481 -459 3084 -895 
Q 2688 -1331 1869 -1331 
Q 1566 -1331 1297 -1286 
Q 1028 -1241 775 -1147 
L 775 -588 
Q 1028 -725 1275 -790 
Q 1522 -856 1778 -856 
Q 2344 -856 2625 -561 
Q 2906 -266 2906 331 
L 2906 616 
Q 2728 306 2450 153 
Q 2172 0 1784 0 
Q 1141 0 747 490 
Q 353 981 353 1791 
Q 353 2603 747 3093 
Q 1141 3584 1784 3584 
Q 2172 3584 2450 3431 
Q 2728 3278 2906 2969 
L 2906 3500 
L 3481 3500 
L 3481 434 
z
" transform="scale(0.015625)"/>
      <path id="DejaVuSans-74" d="M 1172 4494 
L 1172 3500 
L 2356 3500 
L 2356 3053 
L 1172 3053 
L 1172 1153 
Q 1172 725 1289 603 
Q 1406 481 1766 481 
L 2356 481 
L 2356 0 
L 1766 0 
Q 1100 0 847 248 
Q 594 497 594 1153 
L 594 3053 
L 172 3053 
L 172 3500 
L 594 3500 
L 594 4494 
L 1172 4494 
z
" transform="scale(0.015625)"/>
      <path id="DejaVuSans-6d" d="M 3328 2828 
Q 3544 3216 3844 3400 
Q 4144 3584 4550 3584 
Q 5097 3584 5394 3201 
Q 5691 2819 5691 2113 
L 5691 0 
L 5113 0 
L 5113 2094 
Q 5113 2597 4934 2840 
Q 4756 3084 4391 3084 
Q 3944 3084 3684 2787 
Q 3425 2491 3425 1978 
L 3425 0 
L 2847 0 
L 2847 2094 
Q 2847 2600 2669 2842 
Q 2491 3084 2119 3084 
Q 1678 3084 1418 2786 
Q 1159 2488 1159 1978 
L 1159 0 
L 581 0 
L 581 3500 
L 1159 3500 
L 1159 2956 
Q 1356 3278 1631 3431 
Q 1906 3584 2284 3584 
Q 2666 3584 2933 3390 
Q 3200 3197 3328 2828 
z
" transform="scale(0.015625)"/>
      <path id="DejaVuSans-64" d="M 2906 2969 
L 2906 4863 
L 3481 4863 
L 3481 0 
L 2906 0 
L 2906 525 
Q 2725 213 2448 61 
Q 2172 -91 1784 -91 
Q 1150 -91 751 415 
Q 353 922 353 1747 
Q 353 2572 751 3078 
Q 1150 3584 1784 3584 
Q 2172 3584 2448 3432 
Q 2725 3281 2906 2969 
z
M 947 1747 
Q 947 1113 1208 752 
Q 1469 391 1925 391 
Q 2381 391 2643 752 
Q 2906 1113 2906 1747 
Q 2906 2381 2643 2742 
Q 2381 3103 1925 3103 
Q 1469 3103 1208 2742 
Q 947 2381 947 1747 
z
" transform="scale(0.015625)"/>
      <path id="DejaVuSans-6c" d="M 603 4863 
L 1178 4863 
L 1178 0 
L 603 0 
L 603 4863 
z
" transform="scale(0.015625)"/>
      <path id="DejaVuSans-3a" d="M 750 794 
L 1409 794 
L 1409 0 
L 750 0 
L 750 794 
z
M 750 3309 
L 1409 3309 
L 1409 2516 
L 750 2516 
L 750 3309 
z
" transform="scale(0.015625)"/>
      <path id="DejaVuSans-4d" d="M 628 4666 
L 1569 4666 
L 2759 1491 
L 3956 4666 
L 4897 4666 
L 4897 0 
L 4281 0 
L 4281 4097 
L 3078 897 
L 2444 897 
L 1241 4097 
L 1241 0 
L 628 0 
L 628 4666 
z
" transform="scale(0.015625)"/>
      <path id="DejaVuSans-53" d="M 3425 4513 
L 3425 3897 
Q 3066 4069 2747 4153 
Q 2428 4238 2131 4238 
Q 1616 4238 1336 4038 
Q 1056 3838 1056 3469 
Q 1056 3159 1242 3001 
Q 1428 2844 1947 2747 
L 2328 2669 
Q 3034 2534 3370 2195 
Q 3706 1856 3706 1288 
Q 3706 609 3251 259 
Q 2797 -91 1919 -91 
Q 1588 -91 1214 -16 
Q 841 59 441 206 
L 441 856 
Q 825 641 1194 531 
Q 1563 422 1919 422 
Q 2459 422 2753 634 
Q 3047 847 3047 1241 
Q 3047 1584 2836 1778 
Q 2625 1972 2144 2069 
L 1759 2144 
Q 1053 2284 737 2584 
Q 422 2884 422 3419 
Q 422 4038 858 4394 
Q 1294 4750 2059 4750 
Q 2388 4750 2728 4690 
Q 3069 4631 3425 4513 
z
" transform="scale(0.015625)"/>
      <path id="DejaVuSans-45" d="M 628 4666 
L 3578 4666 
L 3578 4134 
L 1259 4134 
L 1259 2753 
L 3481 2753 
L 3481 2222 
L 1259 2222 
L 1259 531 
L 3634 531 
L 3634 0 
L 628 0 
L 628 4666 
z
" transform="scale(0.015625)"/>
      <path id="DejaVuSans-62" d="M 3116 1747 
Q 3116 2381 2855 2742 
Q 2594 3103 2138 3103 
Q 1681 3103 1420 2742 
Q 1159 2381 1159 1747 
Q 1159 1113 1420 752 
Q 1681 391 2138 391 
Q 2594 391 2855 752 
Q 3116 1113 3116 1747 
z
M 1159 2969 
Q 1341 3281 1617 3432 
Q 1894 3584 2278 3584 
Q 2916 3584 3314 3078 
Q 3713 2572 3713 1747 
Q 3713 922 3314 415 
Q 2916 -91 2278 -91 
Q 1894 -91 1617 61 
Q 1341 213 1159 525 
L 1159 0 
L 581 0 
L 581 4863 
L 1159 4863 
L 1159 2969 
z
" transform="scale(0.015625)"/>
      <path id="DejaVuSans-77" d="M 269 3500 
L 844 3500 
L 1563 769 
L 2278 3500 
L 2956 3500 
L 3675 769 
L 4391 3500 
L 4966 3500 
L 4050 0 
L 3372 0 
L 2619 2869 
L 1863 0 
L 1184 0 
L 269 3500 
z
" transform="scale(0.015625)"/>
      <path id="DejaVuSans-72" d="M 2631 2963 
Q 2534 3019 2420 3045 
Q 2306 3072 2169 3072 
Q 1681 3072 1420 2755 
Q 1159 2438 1159 1844 
L 1159 0 
L 581 0 
L 581 3500 
L 1159 3500 
L 1159 2956 
Q 1341 3275 1631 3429 
Q 1922 3584 2338 3584 
Q 2397 3584 2469 3576 
Q 2541 3569 2628 3553 
L 2631 2963 
z
" transform="scale(0.015625)"/>
      <path id="DejaVuSans-75" d="M 544 1381 
L 544 3500 
L 1119 3500 
L 1119 1403 
Q 1119 906 1312 657 
Q 1506 409 1894 409 
Q 2359 409 2629 706 
Q 2900 1003 2900 1516 
L 2900 3500 
L 3475 3500 
L 3475 0 
L 2900 0 
L 2900 538 
Q 2691 219 2414 64 
Q 2138 -91 1772 -91 
Q 1169 -91 856 284 
Q 544 659 544 1381 
z
M 1991 3584 
L 1991 3584 
z
" transform="scale(0.015625)"/>
      <path id="DejaVuSans-2c" d="M 750 794 
L 1409 794 
L 1409 256 
L 897 -744 
L 494 -744 
L 750 256 
L 750 794 
z
" transform="scale(0.015625)"/>
      <path id="DejaVuSans-41" d="M 2188 4044 
L 1331 1722 
L 3047 1722 
L 2188 4044 
z
M 1831 4666 
L 2547 4666 
L 4325 0 
L 3669 0 
L 3244 1197 
L 1141 1197 
L 716 0 
L 50 0 
L 1831 4666 
z
" transform="scale(0.015625)"/>
     </defs>
     <use xlink:href="#DejaVuSans-4c"/>
     <use xlink:href="#DejaVuSans-6f" transform="translate(53.962891 0)"/>
     <use xlink:href="#DejaVuSans-73" transform="translate(115.144531 0)"/>
     <use xlink:href="#DejaVuSans-73" transform="translate(167.244141 0)"/>
     <use xlink:href="#DejaVuSans-20" transform="translate(219.34375 0)"/>
     <use xlink:href="#DejaVuSans-63" transform="translate(251.130859 0)"/>
     <use xlink:href="#DejaVuSans-68" transform="translate(306.111328 0)"/>
     <use xlink:href="#DejaVuSans-6f" transform="translate(369.490234 0)"/>
     <use xlink:href="#DejaVuSans-69" transform="translate(430.671875 0)"/>
     <use xlink:href="#DejaVuSans-63" transform="translate(458.455078 0)"/>
     <use xlink:href="#DejaVuSans-65" transform="translate(513.435547 0)"/>
     <use xlink:href="#DejaVuSans-20" transform="translate(574.958984 0)"/>
     <use xlink:href="#DejaVuSans-63" transform="translate(606.746094 0)"/>
     <use xlink:href="#DejaVuSans-68" transform="translate(661.726562 0)"/>
     <use xlink:href="#DejaVuSans-61" transform="translate(725.105469 0)"/>
     <use xlink:href="#DejaVuSans-6e" transform="translate(786.384766 0)"/>
     <use xlink:href="#DejaVuSans-67" transform="translate(849.763672 0)"/>
     <use xlink:href="#DejaVuSans-65" transform="translate(913.240234 0)"/>
     <use xlink:href="#DejaVuSans-73" transform="translate(974.763672 0)"/>
     <use xlink:href="#DejaVuSans-20" transform="translate(1026.863281 0)"/>
     <use xlink:href="#DejaVuSans-74" transform="translate(1058.650391 0)"/>
     <use xlink:href="#DejaVuSans-68" transform="translate(1097.859375 0)"/>
     <use xlink:href="#DejaVuSans-65" transform="translate(1161.238281 0)"/>
     <use xlink:href="#DejaVuSans-20" transform="translate(1222.761719 0)"/>
     <use xlink:href="#DejaVuSans-6d" transform="translate(1254.548828 0)"/>
     <use xlink:href="#DejaVuSans-6f" transform="translate(1351.960938 0)"/>
     <use xlink:href="#DejaVuSans-64" transform="translate(1413.142578 0)"/>
     <use xlink:href="#DejaVuSans-65" transform="translate(1476.619141 0)"/>
     <use xlink:href="#DejaVuSans-6c" transform="translate(1538.142578 0)"/>
     <use xlink:href="#DejaVuSans-3a" transform="translate(1565.925781 0)"/>
     <use xlink:href="#DejaVuSans-20" transform="translate(1599.617188 0)"/>
     <use xlink:href="#DejaVuSans-4d" transform="translate(1631.404297 0)"/>
     <use xlink:href="#DejaVuSans-53" transform="translate(1717.683594 0)"/>
     <use xlink:href="#DejaVuSans-45" transform="translate(1781.160156 0)"/>
     <use xlink:href="#DejaVuSans-20" transform="translate(1844.34375 0)"/>
     <use xlink:href="#DejaVuSans-62" transform="translate(1876.130859 0)"/>
     <use xlink:href="#DejaVuSans-65" transform="translate(1939.607422 0)"/>
     <use xlink:href="#DejaVuSans-6e" transform="translate(2001.130859 0)"/>
     <use xlink:href="#DejaVuSans-64" transform="translate(2064.509766 0)"/>
     <use xlink:href="#DejaVuSans-73" transform="translate(2127.986328 0)"/>
     <use xlink:href="#DejaVuSans-20" transform="translate(2180.085938 0)"/>
     <use xlink:href="#DejaVuSans-74" transform="translate(2211.873047 0)"/>
     <use xlink:href="#DejaVuSans-6f" transform="translate(2251.082031 0)"/>
     <use xlink:href="#DejaVuSans-77" transform="translate(2312.263672 0)"/>
     <use xlink:href="#DejaVuSans-61" transform="translate(2394.050781 0)"/>
     <use xlink:href="#DejaVuSans-72" transform="translate(2455.330078 0)"/>
     <use xlink:href="#DejaVuSans-64" transform="translate(2494.693359 0)"/>
     <use xlink:href="#DejaVuSans-20" transform="translate(2558.169922 0)"/>
     <use xlink:href="#DejaVuSans-6f" transform="translate(2589.957031 0)"/>
     <use xlink:href="#DejaVuSans-75" transform="translate(2651.138672 0)"/>
     <use xlink:href="#DejaVuSans-74" transform="translate(2714.517578 0)"/>
     <use xlink:href="#DejaVuSans-6c" transform="translate(2753.726562 0)"/>
     <use xlink:href="#DejaVuSans-69" transform="translate(2781.509766 0)"/>
     <use xlink:href="#DejaVuSans-65" transform="translate(2809.292969 0)"/>
     <use xlink:href="#DejaVuSans-72" transform="translate(2870.816406 0)"/>
     <use xlink:href="#DejaVuSans-73" transform="translate(2911.929688 0)"/>
     <use xlink:href="#DejaVuSans-2c" transform="translate(2964.029297 0)"/>
     <use xlink:href="#DejaVuSans-20" transform="translate(2995.816406 0)"/>
     <use xlink:href="#DejaVuSans-4d" transform="translate(3027.603516 0)"/>
     <use xlink:href="#DejaVuSans-41" transform="translate(3113.882812 0)"/>
     <use xlink:href="#DejaVuSans-45" transform="translate(3182.291016 0)"/>
     <use xlink:href="#DejaVuSans-20" transform="translate(3245.474609 0)"/>
     <use xlink:href="#DejaVuSans-69" transform="translate(3277.261719 0)"/>
     <use xlink:href="#DejaVuSans-67" transform="translate(3305.044922 0)"/>
     <use xlink:href="#DejaVuSans-6e" transform="translate(3368.521484 0)"/>
     <use xlink:href="#DejaVuSans-6f" transform="translate(3431.900391 0)"/>
     <use xlink:href="#DejaVuSans-72" transform="translate(3493.082031 0)"/>
     <use xlink:href="#DejaVuSans-65" transform="translate(3531.945312 0)"/>
     <use xlink:href="#DejaVuSans-73" transform="translate(3593.46875 0)"/>
     <use xlink:href="#DejaVuSans-20" transform="translate(3645.568359 0)"/>
     <use xlink:href="#DejaVuSans-74" transform="translate(3677.355469 0)"/>
     <use xlink:href="#DejaVuSans-68" transform="translate(3716.564453 0)"/>
     <use xlink:href="#DejaVuSans-65" transform="translate(3779.943359 0)"/>
     <use xlink:href="#DejaVuSans-6d" transform="translate(3841.466797 0)"/>
    </g>
   </g>
   <g id="legend_1">
    <g id="patch_7">
     <path d="M 335.233281 272.978125 
L 554.933125 272.978125 
Q 556.733125 272.978125 556.733125 271.178125 
L 556.733125 219.236875 
Q 556.733125 217.436875 554.933125 217.436875 
L 335.233281 217.436875 
Q 333.433281 217.436875 333.433281 219.236875 
L 333.433281 271.178125 
Q 333.433281 272.978125 335.233281 272.978125 
z
" style="fill: #ffffff; opacity: 0.8; stroke: #cccccc; stroke-linejoin: miter"/>
    </g>
    <g id="PathCollection_2">
     <g>
      <use xlink:href="#m6e1e9d659e" x="346.033281" y="225.512969" style="fill: #7aa6c2; fill-opacity: 0.5; stroke: #7aa6c2; stroke-opacity: 0.5"/>
     </g>
    </g>
    <g id="text_19">
     <!-- data (with outliers) -->
     <g transform="translate(362.233281 227.875469) scale(0.09 -0.09)">
      <defs>
       <path id="DejaVuSans-28" d="M 1984 4856 
Q 1566 4138 1362 3434 
Q 1159 2731 1159 2009 
Q 1159 1288 1364 580 
Q 1569 -128 1984 -844 
L 1484 -844 
Q 1016 -109 783 600 
Q 550 1309 550 2009 
Q 550 2706 781 3412 
Q 1013 4119 1484 4856 
L 1984 4856 
z
" transform="scale(0.015625)"/>
       <path id="DejaVuSans-29" d="M 513 4856 
L 1013 4856 
Q 1481 4119 1714 3412 
Q 1947 2706 1947 2009 
Q 1947 1309 1714 600 
Q 1481 -109 1013 -844 
L 513 -844 
Q 928 -128 1133 580 
Q 1338 1288 1338 2009 
Q 1338 2731 1133 3434 
Q 928 4138 513 4856 
z
" transform="scale(0.015625)"/>
      </defs>
      <use xlink:href="#DejaVuSans-64"/>
      <use xlink:href="#DejaVuSans-61" transform="translate(63.476562 0)"/>
      <use xlink:href="#DejaVuSans-74" transform="translate(124.755859 0)"/>
      <use xlink:href="#DejaVuSans-61" transform="translate(163.964844 0)"/>
      <use xlink:href="#DejaVuSans-20" transform="translate(225.244141 0)"/>
      <use xlink:href="#DejaVuSans-28" transform="translate(257.03125 0)"/>
      <use xlink:href="#DejaVuSans-77" transform="translate(296.044922 0)"/>
      <use xlink:href="#DejaVuSans-69" transform="translate(377.832031 0)"/>
      <use xlink:href="#DejaVuSans-74" transform="translate(405.615234 0)"/>
      <use xlink:href="#DejaVuSans-68" transform="translate(444.824219 0)"/>
      <use xlink:href="#DejaVuSans-20" transform="translate(508.203125 0)"/>
      <use xlink:href="#DejaVuSans-6f" transform="translate(539.990234 0)"/>
      <use xlink:href="#DejaVuSans-75" transform="translate(601.171875 0)"/>
      <use xlink:href="#DejaVuSans-74" transform="translate(664.550781 0)"/>
      <use xlink:href="#DejaVuSans-6c" transform="translate(703.759766 0)"/>
      <use xlink:href="#DejaVuSans-69" transform="translate(731.542969 0)"/>
      <use xlink:href="#DejaVuSans-65" transform="translate(759.326172 0)"/>
      <use xlink:href="#DejaVuSans-72" transform="translate(820.849609 0)"/>
      <use xlink:href="#DejaVuSans-73" transform="translate(861.962891 0)"/>
      <use xlink:href="#DejaVuSans-29" transform="translate(914.0625 0)"/>
     </g>
    </g>
    <g id="line2d_34">
     <path d="M 337.033281 237.935781 
L 346.033281 237.935781 
L 355.033281 237.935781 
" style="fill: none; stroke-dasharray: 1.5,2.475; stroke-dashoffset: 0; stroke: #000000; stroke-width: 1.5"/>
    </g>
    <g id="text_20">
     <!-- true line (slope=1.5) -->
     <g transform="translate(362.233281 241.085781) scale(0.09 -0.09)">
      <defs>
       <path id="DejaVuSans-70" d="M 1159 525 
L 1159 -1331 
L 581 -1331 
L 581 3500 
L 1159 3500 
L 1159 2969 
Q 1341 3281 1617 3432 
Q 1894 3584 2278 3584 
Q 2916 3584 3314 3078 
Q 3713 2572 3713 1747 
Q 3713 922 3314 415 
Q 2916 -91 2278 -91 
Q 1894 -91 1617 61 
Q 1341 213 1159 525 
z
M 3116 1747 
Q 3116 2381 2855 2742 
Q 2594 3103 2138 3103 
Q 1681 3103 1420 2742 
Q 1159 2381 1159 1747 
Q 1159 1113 1420 752 
Q 1681 391 2138 391 
Q 2594 391 2855 752 
Q 3116 1113 3116 1747 
z
" transform="scale(0.015625)"/>
       <path id="DejaVuSans-3d" d="M 678 2906 
L 4684 2906 
L 4684 2381 
L 678 2381 
L 678 2906 
z
M 678 1631 
L 4684 1631 
L 4684 1100 
L 678 1100 
L 678 1631 
z
" transform="scale(0.015625)"/>
       <path id="DejaVuSans-2e" d="M 684 794 
L 1344 794 
L 1344 0 
L 684 0 
L 684 794 
z
" transform="scale(0.015625)"/>
      </defs>
      <use xlink:href="#DejaVuSans-74"/>
      <use xlink:href="#DejaVuSans-72" transform="translate(39.208984 0)"/>
      <use xlink:href="#DejaVuSans-75" transform="translate(80.322266 0)"/>
      <use xlink:href="#DejaVuSans-65" transform="translate(143.701172 0)"/>
      <use xlink:href="#DejaVuSans-20" transform="translate(205.224609 0)"/>
      <use xlink:href="#DejaVuSans-6c" transform="translate(237.011719 0)"/>
      <use xlink:href="#DejaVuSans-69" transform="translate(264.794922 0)"/>
      <use xlink:href="#DejaVuSans-6e" transform="translate(292.578125 0)"/>
      <use xlink:href="#DejaVuSans-65" transform="translate(355.957031 0)"/>
      <use xlink:href="#DejaVuSans-20" transform="translate(417.480469 0)"/>
      <use xlink:href="#DejaVuSans-28" transform="translate(449.267578 0)"/>
      <use xlink:href="#DejaVuSans-73" transform="translate(488.28125 0)"/>
      <use xlink:href="#DejaVuSans-6c" transform="translate(540.380859 0)"/>
      <use xlink:href="#DejaVuSans-6f" transform="translate(568.164062 0)"/>
      <use xlink:href="#DejaVuSans-70" transform="translate(629.345703 0)"/>
      <use xlink:href="#DejaVuSans-65" transform="translate(692.822266 0)"/>
      <use xlink:href="#DejaVuSans-3d" transform="translate(754.345703 0)"/>
      <use xlink:href="#DejaVuSans-31" transform="translate(838.134766 0)"/>
      <use xlink:href="#DejaVuSans-2e" transform="translate(901.757812 0)"/>
      <use xlink:href="#DejaVuSans-35" transform="translate(933.544922 0)"/>
      <use xlink:href="#DejaVuSans-29" transform="translate(997.167969 0)"/>
     </g>
    </g>
    <g id="line2d_35">
     <path d="M 337.033281 251.146094 
L 346.033281 251.146094 
L 355.033281 251.146094 
" style="fill: none; stroke: #e15759; stroke-width: 2; stroke-linecap: square"/>
    </g>
    <g id="text_21">
     <!-- MSE fit: slope=1.29 (pulled up by outliers) -->
     <g transform="translate(362.233281 254.296094) scale(0.09 -0.09)">
      <defs>
       <path id="DejaVuSans-66" d="M 2375 4863 
L 2375 4384 
L 1825 4384 
Q 1516 4384 1395 4259 
Q 1275 4134 1275 3809 
L 1275 3500 
L 2222 3500 
L 2222 3053 
L 1275 3053 
L 1275 0 
L 697 0 
L 697 3053 
L 147 3053 
L 147 3500 
L 697 3500 
L 697 3744 
Q 697 4328 969 4595 
Q 1241 4863 1831 4863 
L 2375 4863 
z
" transform="scale(0.015625)"/>
       <path id="DejaVuSans-39" d="M 703 97 
L 703 672 
Q 941 559 1184 500 
Q 1428 441 1663 441 
Q 2288 441 2617 861 
Q 2947 1281 2994 2138 
Q 2813 1869 2534 1725 
Q 2256 1581 1919 1581 
Q 1219 1581 811 2004 
Q 403 2428 403 3163 
Q 403 3881 828 4315 
Q 1253 4750 1959 4750 
Q 2769 4750 3195 4129 
Q 3622 3509 3622 2328 
Q 3622 1225 3098 567 
Q 2575 -91 1691 -91 
Q 1453 -91 1209 -44 
Q 966 3 703 97 
z
M 1959 2075 
Q 2384 2075 2632 2365 
Q 2881 2656 2881 3163 
Q 2881 3666 2632 3958 
Q 2384 4250 1959 4250 
Q 1534 4250 1286 3958 
Q 1038 3666 1038 3163 
Q 1038 2656 1286 2365 
Q 1534 2075 1959 2075 
z
" transform="scale(0.015625)"/>
      </defs>
      <use xlink:href="#DejaVuSans-4d"/>
      <use xlink:href="#DejaVuSans-53" transform="translate(86.279297 0)"/>
      <use xlink:href="#DejaVuSans-45" transform="translate(149.755859 0)"/>
      <use xlink:href="#DejaVuSans-20" transform="translate(212.939453 0)"/>
      <use xlink:href="#DejaVuSans-66" transform="translate(244.726562 0)"/>
      <use xlink:href="#DejaVuSans-69" transform="translate(279.931641 0)"/>
      <use xlink:href="#DejaVuSans-74" transform="translate(307.714844 0)"/>
      <use xlink:href="#DejaVuSans-3a" transform="translate(346.923828 0)"/>
      <use xlink:href="#DejaVuSans-20" transform="translate(380.615234 0)"/>
      <use xlink:href="#DejaVuSans-73" transform="translate(412.402344 0)"/>
      <use xlink:href="#DejaVuSans-6c" transform="translate(464.501953 0)"/>
      <use xlink:href="#DejaVuSans-6f" transform="translate(492.285156 0)"/>
      <use xlink:href="#DejaVuSans-70" transform="translate(553.466797 0)"/>
      <use xlink:href="#DejaVuSans-65" transform="translate(616.943359 0)"/>
      <use xlink:href="#DejaVuSans-3d" transform="translate(678.466797 0)"/>
      <use xlink:href="#DejaVuSans-31" transform="translate(762.255859 0)"/>
      <use xlink:href="#DejaVuSans-2e" transform="translate(825.878906 0)"/>
      <use xlink:href="#DejaVuSans-32" transform="translate(857.666016 0)"/>
      <use xlink:href="#DejaVuSans-39" transform="translate(921.289062 0)"/>
      <use xlink:href="#DejaVuSans-20" transform="translate(984.912109 0)"/>
      <use xlink:href="#DejaVuSans-28" transform="translate(1016.699219 0)"/>
      <use xlink:href="#DejaVuSans-70" transform="translate(1055.712891 0)"/>
      <use xlink:href="#DejaVuSans-75" transform="translate(1119.189453 0)"/>
      <use xlink:href="#DejaVuSans-6c" transform="translate(1182.568359 0)"/>
      <use xlink:href="#DejaVuSans-6c" transform="translate(1210.351562 0)"/>
      <use xlink:href="#DejaVuSans-65" transform="translate(1238.134766 0)"/>
      <use xlink:href="#DejaVuSans-64" transform="translate(1299.658203 0)"/>
      <use xlink:href="#DejaVuSans-20" transform="translate(1363.134766 0)"/>
      <use xlink:href="#DejaVuSans-75" transform="translate(1394.921875 0)"/>
      <use xlink:href="#DejaVuSans-70" transform="translate(1458.300781 0)"/>
      <use xlink:href="#DejaVuSans-20" transform="translate(1521.777344 0)"/>
      <use xlink:href="#DejaVuSans-62" transform="translate(1553.564453 0)"/>
      <use xlink:href="#DejaVuSans-79" transform="translate(1617.041016 0)"/>
      <use xlink:href="#DejaVuSans-20" transform="translate(1676.220703 0)"/>
      <use xlink:href="#DejaVuSans-6f" transform="translate(1708.007812 0)"/>
      <use xlink:href="#DejaVuSans-75" transform="translate(1769.189453 0)"/>
      <use xlink:href="#DejaVuSans-74" transform="translate(1832.568359 0)"/>
      <use xlink:href="#DejaVuSans-6c" transform="translate(1871.777344 0)"/>
      <use xlink:href="#DejaVuSans-69" transform="translate(1899.560547 0)"/>
      <use xlink:href="#DejaVuSans-65" transform="translate(1927.34375 0)"/>
      <use xlink:href="#DejaVuSans-72" transform="translate(1988.867188 0)"/>
      <use xlink:href="#DejaVuSans-73" transform="translate(2029.980469 0)"/>
      <use xlink:href="#DejaVuSans-29" transform="translate(2082.080078 0)"/>
     </g>
    </g>
    <g id="line2d_36">
     <path d="M 337.033281 264.356406 
L 346.033281 264.356406 
L 355.033281 264.356406 
" style="fill: none; stroke: #59a14f; stroke-width: 2; stroke-linecap: square"/>
    </g>
    <g id="text_22">
     <!-- MAE fit: slope=1.58 (robust) -->
     <g transform="translate(362.233281 267.506406) scale(0.09 -0.09)">
      <use xlink:href="#DejaVuSans-4d"/>
      <use xlink:href="#DejaVuSans-41" transform="translate(86.279297 0)"/>
      <use xlink:href="#DejaVuSans-45" transform="translate(154.6875 0)"/>
      <use xlink:href="#DejaVuSans-20" transform="translate(217.871094 0)"/>
      <use xlink:href="#DejaVuSans-66" transform="translate(249.658203 0)"/>
      <use xlink:href="#DejaVuSans-69" transform="translate(284.863281 0)"/>
      <use xlink:href="#DejaVuSans-74" transform="translate(312.646484 0)"/>
      <use xlink:href="#DejaVuSans-3a" transform="translate(351.855469 0)"/>
      <use xlink:href="#DejaVuSans-20" transform="translate(385.546875 0)"/>
      <use xlink:href="#DejaVuSans-73" transform="translate(417.333984 0)"/>
      <use xlink:href="#DejaVuSans-6c" transform="translate(469.433594 0)"/>
      <use xlink:href="#DejaVuSans-6f" transform="translate(497.216797 0)"/>
      <use xlink:href="#DejaVuSans-70" transform="translate(558.398438 0)"/>
      <use xlink:href="#DejaVuSans-65" transform="translate(621.875 0)"/>
      <use xlink:href="#DejaVuSans-3d" transform="translate(683.398438 0)"/>
      <use xlink:href="#DejaVuSans-31" transform="translate(767.1875 0)"/>
      <use xlink:href="#DejaVuSans-2e" transform="translate(830.810547 0)"/>
      <use xlink:href="#DejaVuSans-35" transform="translate(862.597656 0)"/>
      <use xlink:href="#DejaVuSans-38" transform="translate(926.220703 0)"/>
      <use xlink:href="#DejaVuSans-20" transform="translate(989.84375 0)"/>
      <use xlink:href="#DejaVuSans-28" transform="translate(1021.630859 0)"/>
      <use xlink:href="#DejaVuSans-72" transform="translate(1060.644531 0)"/>
      <use xlink:href="#DejaVuSans-6f" transform="translate(1099.507812 0)"/>
      <use xlink:href="#DejaVuSans-62" transform="translate(1160.689453 0)"/>
      <use xlink:href="#DejaVuSans-75" transform="translate(1224.166016 0)"/>
      <use xlink:href="#DejaVuSans-73" transform="translate(1287.544922 0)"/>
      <use xlink:href="#DejaVuSans-74" transform="translate(1339.644531 0)"/>
      <use xlink:href="#DejaVuSans-29" transform="translate(1378.853516 0)"/>
     </g>
    </g>
   </g>
  </g>
 </g>
 <defs>
  <clipPath id="p96f086bdd4">
   <rect x="40.603125" y="22.318125" width="520.63" height="255.16"/>
  </clipPath>
 </defs>
</svg>
