<?xml version="1.0" encoding="utf-8" standalone="no"?>
<!DOCTYPE svg PUBLIC "-//W3C//DTD SVG 1.1//EN"
  "http://www.w3.org/Graphics/SVG/1.1/DTD/svg11.dtd">
<svg xmlns:xlink="http://www.w3.org/1999/xlink" width="568.87125pt" height="387.034375pt" viewBox="0 0 568.87125 387.034375" xmlns="http://www.w3.org/2000/svg" version="1.1">
 <metadata>
  <rdf:RDF xmlns:dc="http://purl.org/dc/elements/1.1/" xmlns:cc="http://creativecommons.org/ns#" xmlns:rdf="http://www.w3.org/1999/02/22-rdf-syntax-ns#">
   <cc:Work>
    <dc:type rdf:resource="http://purl.org/dc/dcmitype/StillImage"/>
    <dc:date>2026-05-26T11:00:25.740421</dc:date>
    <dc:format>image/svg+xml</dc:format>
    <dc:creator>
     <cc:Agent>
      <dc:title>Matplotlib v3.10.8, https://matplotlib.org/</dc:title>
     </cc:Agent>
    </dc:creator>
   </cc:Work>
  </rdf:RDF>
 </metadata>
 <defs>
  <style type="text/css">*{stroke-linejoin: round; stroke-linecap: butt}</style>
 </defs>
 <g id="figure_1">
  <g id="patch_1">
   <path d="M 0 387.034375 
L 568.87125 387.034375 
L 568.87125 0 
L 0 0 
z
" style="fill: #ffffff"/>
  </g>
  <g id="axes_1">
   <g id="patch_2">
    <path d="M 121.28125 349.478125 
L 561.67125 349.478125 
L 561.67125 22.318125 
L 121.28125 22.318125 
z
" style="fill: #ffffff"/>
   </g>
   <g id="patch_3">
    <path d="M 121.28125 334.607216 
L 161.391636 334.607216 
L 161.391636 318.530557 
L 121.28125 318.530557 
z
" clip-path="url(#peca3a1ee06)" style="fill: #7aa6c2; stroke: #ffffff; stroke-linejoin: miter"/>
   </g>
   <g id="patch_4">
    <path d="M 121.28125 314.511393 
L 165.774763 314.511393 
L 165.774763 298.434734 
L 121.28125 298.434734 
z
" clip-path="url(#peca3a1ee06)" style="fill: #7aa6c2; stroke: #ffffff; stroke-linejoin: miter"/>
   </g>
   <g id="patch_5">
    <path d="M 121.28125 294.41557 
L 173.281302 294.41557 
L 173.281302 278.338911 
L 121.28125 278.338911 
z
" clip-path="url(#peca3a1ee06)" style="fill: #7aa6c2; stroke: #ffffff; stroke-linejoin: miter"/>
   </g>
   <g id="patch_6">
    <path d="M 121.28125 274.319747 
L 176.225102 274.319747 
L 176.225102 258.243088 
L 121.28125 258.243088 
z
" clip-path="url(#peca3a1ee06)" style="fill: #7aa6c2; stroke: #ffffff; stroke-linejoin: miter"/>
   </g>
   <g id="patch_7">
    <path d="M 121.28125 254.223924 
L 200.445678 254.223924 
L 200.445678 238.147265 
L 121.28125 238.147265 
z
" clip-path="url(#peca3a1ee06)" style="fill: #7aa6c2; stroke: #ffffff; stroke-linejoin: miter"/>
   </g>
   <g id="patch_8">
    <path d="M 121.28125 234.1281 
L 220.536145 234.1281 
L 220.536145 218.051442 
L 121.28125 218.051442 
z
" clip-path="url(#peca3a1ee06)" style="fill: #7aa6c2; stroke: #ffffff; stroke-linejoin: miter"/>
   </g>
   <g id="patch_9">
    <path d="M 121.28125 214.032277 
L 238.03436 214.032277 
L 238.03436 197.955619 
L 121.28125 197.955619 
z
" clip-path="url(#peca3a1ee06)" style="fill: #7aa6c2; stroke: #ffffff; stroke-linejoin: miter"/>
   </g>
   <g id="patch_10">
    <path d="M 121.28125 193.936454 
L 243.042568 193.936454 
L 243.042568 177.859796 
L 121.28125 177.859796 
z
" clip-path="url(#peca3a1ee06)" style="fill: #7aa6c2; stroke: #ffffff; stroke-linejoin: miter"/>
   </g>
   <g id="patch_11">
    <path d="M 121.28125 173.840631 
L 312.668175 173.840631 
L 312.668175 157.763973 
L 121.28125 157.763973 
z
" clip-path="url(#peca3a1ee06)" style="fill: #7aa6c2; stroke: #ffffff; stroke-linejoin: miter"/>
   </g>
   <g id="patch_12">
    <path d="M 121.28125 153.744808 
L 316.292034 153.744808 
L 316.292034 137.66815 
L 121.28125 137.66815 
z
" clip-path="url(#peca3a1ee06)" style="fill: #7aa6c2; stroke: #ffffff; stroke-linejoin: miter"/>
   </g>
   <g id="patch_13">
    <path d="M 121.28125 133.648985 
L 431.33697 133.648985 
L 431.33697 117.572326 
L 121.28125 117.572326 
z
" clip-path="url(#peca3a1ee06)" style="fill: #7aa6c2; stroke: #ffffff; stroke-linejoin: miter"/>
   </g>
   <g id="patch_14">
    <path d="M 121.28125 113.553162 
L 463.416179 113.553162 
L 463.416179 97.476503 
L 121.28125 97.476503 
z
" clip-path="url(#peca3a1ee06)" style="fill: #7aa6c2; stroke: #ffffff; stroke-linejoin: miter"/>
   </g>
   <g id="patch_15">
    <path d="M 121.28125 93.457339 
L 526.57958 93.457339 
L 526.57958 77.38068 
L 121.28125 77.38068 
z
" clip-path="url(#peca3a1ee06)" style="fill: #7aa6c2; stroke: #ffffff; stroke-linejoin: miter"/>
   </g>
   <g id="patch_16">
    <path d="M 121.28125 73.361516 
L 537.74556 73.361516 
L 537.74556 57.284857 
L 121.28125 57.284857 
z
" clip-path="url(#peca3a1ee06)" style="fill: #7aa6c2; stroke: #ffffff; stroke-linejoin: miter"/>
   </g>
   <g id="patch_17">
    <path d="M 121.28125 53.265693 
L 540.700298 53.265693 
L 540.700298 37.189034 
L 121.28125 37.189034 
z
" clip-path="url(#peca3a1ee06)" style="fill: #7aa6c2; stroke: #ffffff; stroke-linejoin: miter"/>
   </g>
   <g id="matplotlib.axis_1">
    <g id="xtick_1">
     <g id="line2d_1">
      <defs>
       <path id="m2c09cdd83c" d="M 0 0 
L 0 3.5 
" style="stroke: #000000; stroke-width: 0.8"/>
      </defs>
      <g>
       <use xlink:href="#m2c09cdd83c" x="121.28125" y="349.478125" style="stroke: #000000; stroke-width: 0.8"/>
      </g>
     </g>
     <g id="text_1">
      <!-- 0.00 -->
      <g transform="translate(110.148438 364.076562) scale(0.1 -0.1)">
       <defs>
        <path id="DejaVuSans-30" d="M 2034 4250 
Q 1547 4250 1301 3770 
Q 1056 3291 1056 2328 
Q 1056 1369 1301 889 
Q 1547 409 2034 409 
Q 2525 409 2770 889 
Q 3016 1369 3016 2328 
Q 3016 3291 2770 3770 
Q 2525 4250 2034 4250 
z
M 2034 4750 
Q 2819 4750 3233 4129 
Q 3647 3509 3647 2328 
Q 3647 1150 3233 529 
Q 2819 -91 2034 -91 
Q 1250 -91 836 529 
Q 422 1150 422 2328 
Q 422 3509 836 4129 
Q 1250 4750 2034 4750 
z
" transform="scale(0.015625)"/>
        <path id="DejaVuSans-2e" d="M 684 794 
L 1344 794 
L 1344 0 
L 684 0 
L 684 794 
z
" transform="scale(0.015625)"/>
       </defs>
       <use xlink:href="#DejaVuSans-30"/>
       <use xlink:href="#DejaVuSans-2e" transform="translate(63.623047 0)"/>
       <use xlink:href="#DejaVuSans-30" transform="translate(95.410156 0)"/>
       <use xlink:href="#DejaVuSans-30" transform="translate(159.033203 0)"/>
      </g>
     </g>
    </g>
    <g id="xtick_2">
     <g id="line2d_2">
      <g>
       <use xlink:href="#m2c09cdd83c" x="184.516852" y="349.478125" style="stroke: #000000; stroke-width: 0.8"/>
      </g>
     </g>
     <g id="text_2">
      <!-- 0.02 -->
      <g transform="translate(173.38404 364.076562) scale(0.1 -0.1)">
       <defs>
        <path id="DejaVuSans-32" d="M 1228 531 
L 3431 531 
L 3431 0 
L 469 0 
L 469 531 
Q 828 903 1448 1529 
Q 2069 2156 2228 2338 
Q 2531 2678 2651 2914 
Q 2772 3150 2772 3378 
Q 2772 3750 2511 3984 
Q 2250 4219 1831 4219 
Q 1534 4219 1204 4116 
Q 875 4013 500 3803 
L 500 4441 
Q 881 4594 1212 4672 
Q 1544 4750 1819 4750 
Q 2544 4750 2975 4387 
Q 3406 4025 3406 3419 
Q 3406 3131 3298 2873 
Q 3191 2616 2906 2266 
Q 2828 2175 2409 1742 
Q 1991 1309 1228 531 
z
" transform="scale(0.015625)"/>
       </defs>
       <use xlink:href="#DejaVuSans-30"/>
       <use xlink:href="#DejaVuSans-2e" transform="translate(63.623047 0)"/>
       <use xlink:href="#DejaVuSans-30" transform="translate(95.410156 0)"/>
       <use xlink:href="#DejaVuSans-32" transform="translate(159.033203 0)"/>
      </g>
     </g>
    </g>
    <g id="xtick_3">
     <g id="line2d_3">
      <g>
       <use xlink:href="#m2c09cdd83c" x="247.752454" y="349.478125" style="stroke: #000000; stroke-width: 0.8"/>
      </g>
     </g>
     <g id="text_3">
      <!-- 0.04 -->
      <g transform="translate(236.619642 364.076562) scale(0.1 -0.1)">
       <defs>
        <path id="DejaVuSans-34" d="M 2419 4116 
L 825 1625 
L 2419 1625 
L 2419 4116 
z
M 2253 4666 
L 3047 4666 
L 3047 1625 
L 3713 1625 
L 3713 1100 
L 3047 1100 
L 3047 0 
L 2419 0 
L 2419 1100 
L 313 1100 
L 313 1709 
L 2253 4666 
z
" transform="scale(0.015625)"/>
       </defs>
       <use xlink:href="#DejaVuSans-30"/>
       <use xlink:href="#DejaVuSans-2e" transform="translate(63.623047 0)"/>
       <use xlink:href="#DejaVuSans-30" transform="translate(95.410156 0)"/>
       <use xlink:href="#DejaVuSans-34" transform="translate(159.033203 0)"/>
      </g>
     </g>
    </g>
    <g id="xtick_4">
     <g id="line2d_4">
      <g>
       <use xlink:href="#m2c09cdd83c" x="310.988056" y="349.478125" style="stroke: #000000; stroke-width: 0.8"/>
      </g>
     </g>
     <g id="text_4">
      <!-- 0.06 -->
      <g transform="translate(299.855244 364.076562) scale(0.1 -0.1)">
       <defs>
        <path id="DejaVuSans-36" d="M 2113 2584 
Q 1688 2584 1439 2293 
Q 1191 2003 1191 1497 
Q 1191 994 1439 701 
Q 1688 409 2113 409 
Q 2538 409 2786 701 
Q 3034 994 3034 1497 
Q 3034 2003 2786 2293 
Q 2538 2584 2113 2584 
z
M 3366 4563 
L 3366 3988 
Q 3128 4100 2886 4159 
Q 2644 4219 2406 4219 
Q 1781 4219 1451 3797 
Q 1122 3375 1075 2522 
Q 1259 2794 1537 2939 
Q 1816 3084 2150 3084 
Q 2853 3084 3261 2657 
Q 3669 2231 3669 1497 
Q 3669 778 3244 343 
Q 2819 -91 2113 -91 
Q 1303 -91 875 529 
Q 447 1150 447 2328 
Q 447 3434 972 4092 
Q 1497 4750 2381 4750 
Q 2619 4750 2861 4703 
Q 3103 4656 3366 4563 
z
" transform="scale(0.015625)"/>
       </defs>
       <use xlink:href="#DejaVuSans-30"/>
       <use xlink:href="#DejaVuSans-2e" transform="translate(63.623047 0)"/>
       <use xlink:href="#DejaVuSans-30" transform="translate(95.410156 0)"/>
       <use xlink:href="#DejaVuSans-36" transform="translate(159.033203 0)"/>
      </g>
     </g>
    </g>
    <g id="xtick_5">
     <g id="line2d_5">
      <g>
       <use xlink:href="#m2c09cdd83c" x="374.223658" y="349.478125" style="stroke: #000000; stroke-width: 0.8"/>
      </g>
     </g>
     <g id="text_5">
      <!-- 0.08 -->
      <g transform="translate(363.090846 364.076562) scale(0.1 -0.1)">
       <defs>
        <path id="DejaVuSans-38" d="M 2034 2216 
Q 1584 2216 1326 1975 
Q 1069 1734 1069 1313 
Q 1069 891 1326 650 
Q 1584 409 2034 409 
Q 2484 409 2743 651 
Q 3003 894 3003 1313 
Q 3003 1734 2745 1975 
Q 2488 2216 2034 2216 
z
M 1403 2484 
Q 997 2584 770 2862 
Q 544 3141 544 3541 
Q 544 4100 942 4425 
Q 1341 4750 2034 4750 
Q 2731 4750 3128 4425 
Q 3525 4100 3525 3541 
Q 3525 3141 3298 2862 
Q 3072 2584 2669 2484 
Q 3125 2378 3379 2068 
Q 3634 1759 3634 1313 
Q 3634 634 3220 271 
Q 2806 -91 2034 -91 
Q 1263 -91 848 271 
Q 434 634 434 1313 
Q 434 1759 690 2068 
Q 947 2378 1403 2484 
z
M 1172 3481 
Q 1172 3119 1398 2916 
Q 1625 2713 2034 2713 
Q 2441 2713 2670 2916 
Q 2900 3119 2900 3481 
Q 2900 3844 2670 4047 
Q 2441 4250 2034 4250 
Q 1625 4250 1398 4047 
Q 1172 3844 1172 3481 
z
" transform="scale(0.015625)"/>
       </defs>
       <use xlink:href="#DejaVuSans-30"/>
       <use xlink:href="#DejaVuSans-2e" transform="translate(63.623047 0)"/>
       <use xlink:href="#DejaVuSans-30" transform="translate(95.410156 0)"/>
       <use xlink:href="#DejaVuSans-38" transform="translate(159.033203 0)"/>
      </g>
     </g>
    </g>
    <g id="xtick_6">
     <g id="line2d_6">
      <g>
       <use xlink:href="#m2c09cdd83c" x="437.45926" y="349.478125" style="stroke: #000000; stroke-width: 0.8"/>
      </g>
     </g>
     <g id="text_6">
      <!-- 0.10 -->
      <g transform="translate(426.326448 364.076562) scale(0.1 -0.1)">
       <defs>
        <path id="DejaVuSans-31" d="M 794 531 
L 1825 531 
L 1825 4091 
L 703 3866 
L 703 4441 
L 1819 4666 
L 2450 4666 
L 2450 531 
L 3481 531 
L 3481 0 
L 794 0 
L 794 531 
z
" transform="scale(0.015625)"/>
       </defs>
       <use xlink:href="#DejaVuSans-30"/>
       <use xlink:href="#DejaVuSans-2e" transform="translate(63.623047 0)"/>
       <use xlink:href="#DejaVuSans-31" transform="translate(95.410156 0)"/>
       <use xlink:href="#DejaVuSans-30" transform="translate(159.033203 0)"/>
      </g>
     </g>
    </g>
    <g id="xtick_7">
     <g id="line2d_7">
      <g>
       <use xlink:href="#m2c09cdd83c" x="500.694862" y="349.478125" style="stroke: #000000; stroke-width: 0.8"/>
      </g>
     </g>
     <g id="text_7">
      <!-- 0.12 -->
      <g transform="translate(489.56205 364.076562) scale(0.1 -0.1)">
       <use xlink:href="#DejaVuSans-30"/>
       <use xlink:href="#DejaVuSans-2e" transform="translate(63.623047 0)"/>
       <use xlink:href="#DejaVuSans-31" transform="translate(95.410156 0)"/>
       <use xlink:href="#DejaVuSans-32" transform="translate(159.033203 0)"/>
      </g>
     </g>
    </g>
    <g id="text_8">
     <!-- MDI (mean decrease in impurity) -->
     <g transform="translate(259.110625 377.754687) scale(0.1 -0.1)">
      <defs>
       <path id="DejaVuSans-4d" d="M 628 4666 
L 1569 4666 
L 2759 1491 
L 3956 4666 
L 4897 4666 
L 4897 0 
L 4281 0 
L 4281 4097 
L 3078 897 
L 2444 897 
L 1241 4097 
L 1241 0 
L 628 0 
L 628 4666 
z
" transform="scale(0.015625)"/>
       <path id="DejaVuSans-44" d="M 1259 4147 
L 1259 519 
L 2022 519 
Q 2988 519 3436 956 
Q 3884 1394 3884 2338 
Q 3884 3275 3436 3711 
Q 2988 4147 2022 4147 
L 1259 4147 
z
M 628 4666 
L 1925 4666 
Q 3281 4666 3915 4102 
Q 4550 3538 4550 2338 
Q 4550 1131 3912 565 
Q 3275 0 1925 0 
L 628 0 
L 628 4666 
z
" transform="scale(0.015625)"/>
       <path id="DejaVuSans-49" d="M 628 4666 
L 1259 4666 
L 1259 0 
L 628 0 
L 628 4666 
z
" transform="scale(0.015625)"/>
       <path id="DejaVuSans-20" transform="scale(0.015625)"/>
       <path id="DejaVuSans-28" d="M 1984 4856 
Q 1566 4138 1362 3434 
Q 1159 2731 1159 2009 
Q 1159 1288 1364 580 
Q 1569 -128 1984 -844 
L 1484 -844 
Q 1016 -109 783 600 
Q 550 1309 550 2009 
Q 550 2706 781 3412 
Q 1013 4119 1484 4856 
L 1984 4856 
z
" transform="scale(0.015625)"/>
       <path id="DejaVuSans-6d" d="M 3328 2828 
Q 3544 3216 3844 3400 
Q 4144 3584 4550 3584 
Q 5097 3584 5394 3201 
Q 5691 2819 5691 2113 
L 5691 0 
L 5113 0 
L 5113 2094 
Q 5113 2597 4934 2840 
Q 4756 3084 4391 3084 
Q 3944 3084 3684 2787 
Q 3425 2491 3425 1978 
L 3425 0 
L 2847 0 
L 2847 2094 
Q 2847 2600 2669 2842 
Q 2491 3084 2119 3084 
Q 1678 3084 1418 2786 
Q 1159 2488 1159 1978 
L 1159 0 
L 581 0 
L 581 3500 
L 1159 3500 
L 1159 2956 
Q 1356 3278 1631 3431 
Q 1906 3584 2284 3584 
Q 2666 3584 2933 3390 
Q 3200 3197 3328 2828 
z
" transform="scale(0.015625)"/>
       <path id="DejaVuSans-65" d="M 3597 1894 
L 3597 1613 
L 953 1613 
Q 991 1019 1311 708 
Q 1631 397 2203 397 
Q 2534 397 2845 478 
Q 3156 559 3463 722 
L 3463 178 
Q 3153 47 2828 -22 
Q 2503 -91 2169 -91 
Q 1331 -91 842 396 
Q 353 884 353 1716 
Q 353 2575 817 3079 
Q 1281 3584 2069 3584 
Q 2775 3584 3186 3129 
Q 3597 2675 3597 1894 
z
M 3022 2063 
Q 3016 2534 2758 2815 
Q 2500 3097 2075 3097 
Q 1594 3097 1305 2825 
Q 1016 2553 972 2059 
L 3022 2063 
z
" transform="scale(0.015625)"/>
       <path id="DejaVuSans-61" d="M 2194 1759 
Q 1497 1759 1228 1600 
Q 959 1441 959 1056 
Q 959 750 1161 570 
Q 1363 391 1709 391 
Q 2188 391 2477 730 
Q 2766 1069 2766 1631 
L 2766 1759 
L 2194 1759 
z
M 3341 1997 
L 3341 0 
L 2766 0 
L 2766 531 
Q 2569 213 2275 61 
Q 1981 -91 1556 -91 
Q 1019 -91 701 211 
Q 384 513 384 1019 
Q 384 1609 779 1909 
Q 1175 2209 1959 2209 
L 2766 2209 
L 2766 2266 
Q 2766 2663 2505 2880 
Q 2244 3097 1772 3097 
Q 1472 3097 1187 3025 
Q 903 2953 641 2809 
L 641 3341 
Q 956 3463 1253 3523 
Q 1550 3584 1831 3584 
Q 2591 3584 2966 3190 
Q 3341 2797 3341 1997 
z
" transform="scale(0.015625)"/>
       <path id="DejaVuSans-6e" d="M 3513 2113 
L 3513 0 
L 2938 0 
L 2938 2094 
Q 2938 2591 2744 2837 
Q 2550 3084 2163 3084 
Q 1697 3084 1428 2787 
Q 1159 2491 1159 1978 
L 1159 0 
L 581 0 
L 581 3500 
L 1159 3500 
L 1159 2956 
Q 1366 3272 1645 3428 
Q 1925 3584 2291 3584 
Q 2894 3584 3203 3211 
Q 3513 2838 3513 2113 
z
" transform="scale(0.015625)"/>
       <path id="DejaVuSans-64" d="M 2906 2969 
L 2906 4863 
L 3481 4863 
L 3481 0 
L 2906 0 
L 2906 525 
Q 2725 213 2448 61 
Q 2172 -91 1784 -91 
Q 1150 -91 751 415 
Q 353 922 353 1747 
Q 353 2572 751 3078 
Q 1150 3584 1784 3584 
Q 2172 3584 2448 3432 
Q 2725 3281 2906 2969 
z
M 947 1747 
Q 947 1113 1208 752 
Q 1469 391 1925 391 
Q 2381 391 2643 752 
Q 2906 1113 2906 1747 
Q 2906 2381 2643 2742 
Q 2381 3103 1925 3103 
Q 1469 3103 1208 2742 
Q 947 2381 947 1747 
z
" transform="scale(0.015625)"/>
       <path id="DejaVuSans-63" d="M 3122 3366 
L 3122 2828 
Q 2878 2963 2633 3030 
Q 2388 3097 2138 3097 
Q 1578 3097 1268 2742 
Q 959 2388 959 1747 
Q 959 1106 1268 751 
Q 1578 397 2138 397 
Q 2388 397 2633 464 
Q 2878 531 3122 666 
L 3122 134 
Q 2881 22 2623 -34 
Q 2366 -91 2075 -91 
Q 1284 -91 818 406 
Q 353 903 353 1747 
Q 353 2603 823 3093 
Q 1294 3584 2113 3584 
Q 2378 3584 2631 3529 
Q 2884 3475 3122 3366 
z
" transform="scale(0.015625)"/>
       <path id="DejaVuSans-72" d="M 2631 2963 
Q 2534 3019 2420 3045 
Q 2306 3072 2169 3072 
Q 1681 3072 1420 2755 
Q 1159 2438 1159 1844 
L 1159 0 
L 581 0 
L 581 3500 
L 1159 3500 
L 1159 2956 
Q 1341 3275 1631 3429 
Q 1922 3584 2338 3584 
Q 2397 3584 2469 3576 
Q 2541 3569 2628 3553 
L 2631 2963 
z
" transform="scale(0.015625)"/>
       <path id="DejaVuSans-73" d="M 2834 3397 
L 2834 2853 
Q 2591 2978 2328 3040 
Q 2066 3103 1784 3103 
Q 1356 3103 1142 2972 
Q 928 2841 928 2578 
Q 928 2378 1081 2264 
Q 1234 2150 1697 2047 
L 1894 2003 
Q 2506 1872 2764 1633 
Q 3022 1394 3022 966 
Q 3022 478 2636 193 
Q 2250 -91 1575 -91 
Q 1294 -91 989 -36 
Q 684 19 347 128 
L 347 722 
Q 666 556 975 473 
Q 1284 391 1588 391 
Q 1994 391 2212 530 
Q 2431 669 2431 922 
Q 2431 1156 2273 1281 
Q 2116 1406 1581 1522 
L 1381 1569 
Q 847 1681 609 1914 
Q 372 2147 372 2553 
Q 372 3047 722 3315 
Q 1072 3584 1716 3584 
Q 2034 3584 2315 3537 
Q 2597 3491 2834 3397 
z
" transform="scale(0.015625)"/>
       <path id="DejaVuSans-69" d="M 603 3500 
L 1178 3500 
L 1178 0 
L 603 0 
L 603 3500 
z
M 603 4863 
L 1178 4863 
L 1178 4134 
L 603 4134 
L 603 4863 
z
" transform="scale(0.015625)"/>
       <path id="DejaVuSans-70" d="M 1159 525 
L 1159 -1331 
L 581 -1331 
L 581 3500 
L 1159 3500 
L 1159 2969 
Q 1341 3281 1617 3432 
Q 1894 3584 2278 3584 
Q 2916 3584 3314 3078 
Q 3713 2572 3713 1747 
Q 3713 922 3314 415 
Q 2916 -91 2278 -91 
Q 1894 -91 1617 61 
Q 1341 213 1159 525 
z
M 3116 1747 
Q 3116 2381 2855 2742 
Q 2594 3103 2138 3103 
Q 1681 3103 1420 2742 
Q 1159 2381 1159 1747 
Q 1159 1113 1420 752 
Q 1681 391 2138 391 
Q 2594 391 2855 752 
Q 3116 1113 3116 1747 
z
" transform="scale(0.015625)"/>
       <path id="DejaVuSans-75" d="M 544 1381 
L 544 3500 
L 1119 3500 
L 1119 1403 
Q 1119 906 1312 657 
Q 1506 409 1894 409 
Q 2359 409 2629 706 
Q 2900 1003 2900 1516 
L 2900 3500 
L 3475 3500 
L 3475 0 
L 2900 0 
L 2900 538 
Q 2691 219 2414 64 
Q 2138 -91 1772 -91 
Q 1169 -91 856 284 
Q 544 659 544 1381 
z
M 1991 3584 
L 1991 3584 
z
" transform="scale(0.015625)"/>
       <path id="DejaVuSans-74" d="M 1172 4494 
L 1172 3500 
L 2356 3500 
L 2356 3053 
L 1172 3053 
L 1172 1153 
Q 1172 725 1289 603 
Q 1406 481 1766 481 
L 2356 481 
L 2356 0 
L 1766 0 
Q 1100 0 847 248 
Q 594 497 594 1153 
L 594 3053 
L 172 3053 
L 172 3500 
L 594 3500 
L 594 4494 
L 1172 4494 
z
" transform="scale(0.015625)"/>
       <path id="DejaVuSans-79" d="M 2059 -325 
Q 1816 -950 1584 -1140 
Q 1353 -1331 966 -1331 
L 506 -1331 
L 506 -850 
L 844 -850 
Q 1081 -850 1212 -737 
Q 1344 -625 1503 -206 
L 1606 56 
L 191 3500 
L 800 3500 
L 1894 763 
L 2988 3500 
L 3597 3500 
L 2059 -325 
z
" transform="scale(0.015625)"/>
       <path id="DejaVuSans-29" d="M 513 4856 
L 1013 4856 
Q 1481 4119 1714 3412 
Q 1947 2706 1947 2009 
Q 1947 1309 1714 600 
Q 1481 -109 1013 -844 
L 513 -844 
Q 928 -128 1133 580 
Q 1338 1288 1338 2009 
Q 1338 2731 1133 3434 
Q 928 4138 513 4856 
z
" transform="scale(0.015625)"/>
      </defs>
      <use xlink:href="#DejaVuSans-4d"/>
      <use xlink:href="#DejaVuSans-44" transform="translate(86.279297 0)"/>
      <use xlink:href="#DejaVuSans-49" transform="translate(163.28125 0)"/>
      <use xlink:href="#DejaVuSans-20" transform="translate(192.773438 0)"/>
      <use xlink:href="#DejaVuSans-28" transform="translate(224.560547 0)"/>
      <use xlink:href="#DejaVuSans-6d" transform="translate(263.574219 0)"/>
      <use xlink:href="#DejaVuSans-65" transform="translate(360.986328 0)"/>
      <use xlink:href="#DejaVuSans-61" transform="translate(422.509766 0)"/>
      <use xlink:href="#DejaVuSans-6e" transform="translate(483.789062 0)"/>
      <use xlink:href="#DejaVuSans-20" transform="translate(547.167969 0)"/>
      <use xlink:href="#DejaVuSans-64" transform="translate(578.955078 0)"/>
      <use xlink:href="#DejaVuSans-65" transform="translate(642.431641 0)"/>
      <use xlink:href="#DejaVuSans-63" transform="translate(703.955078 0)"/>
      <use xlink:href="#DejaVuSans-72" transform="translate(758.935547 0)"/>
      <use xlink:href="#DejaVuSans-65" transform="translate(797.798828 0)"/>
      <use xlink:href="#DejaVuSans-61" transform="translate(859.322266 0)"/>
      <use xlink:href="#DejaVuSans-73" transform="translate(920.601562 0)"/>
      <use xlink:href="#DejaVuSans-65" transform="translate(972.701172 0)"/>
      <use xlink:href="#DejaVuSans-20" transform="translate(1034.224609 0)"/>
      <use xlink:href="#DejaVuSans-69" transform="translate(1066.011719 0)"/>
      <use xlink:href="#DejaVuSans-6e" transform="translate(1093.794922 0)"/>
      <use xlink:href="#DejaVuSans-20" transform="translate(1157.173828 0)"/>
      <use xlink:href="#DejaVuSans-69" transform="translate(1188.960938 0)"/>
      <use xlink:href="#DejaVuSans-6d" transform="translate(1216.744141 0)"/>
      <use xlink:href="#DejaVuSans-70" transform="translate(1314.15625 0)"/>
      <use xlink:href="#DejaVuSans-75" transform="translate(1377.632812 0)"/>
      <use xlink:href="#DejaVuSans-72" transform="translate(1441.011719 0)"/>
      <use xlink:href="#DejaVuSans-69" transform="translate(1482.125 0)"/>
      <use xlink:href="#DejaVuSans-74" transform="translate(1509.908203 0)"/>
      <use xlink:href="#DejaVuSans-79" transform="translate(1549.117188 0)"/>
      <use xlink:href="#DejaVuSans-29" transform="translate(1608.296875 0)"/>
     </g>
    </g>
   </g>
   <g id="matplotlib.axis_2">
    <g id="ytick_1">
     <g id="line2d_8">
      <defs>
       <path id="ma420f50c14" d="M 0 0 
L -3.5 0 
" style="stroke: #000000; stroke-width: 0.8"/>
      </defs>
      <g>
       <use xlink:href="#ma420f50c14" x="121.28125" y="326.568887" style="stroke: #000000; stroke-width: 0.8"/>
      </g>
     </g>
     <g id="text_9">
      <!-- worst texture -->
      <g transform="translate(47.451563 330.368105) scale(0.1 -0.1)">
       <defs>
        <path id="DejaVuSans-77" d="M 269 3500 
L 844 3500 
L 1563 769 
L 2278 3500 
L 2956 3500 
L 3675 769 
L 4391 3500 
L 4966 3500 
L 4050 0 
L 3372 0 
L 2619 2869 
L 1863 0 
L 1184 0 
L 269 3500 
z
" transform="scale(0.015625)"/>
        <path id="DejaVuSans-6f" d="M 1959 3097 
Q 1497 3097 1228 2736 
Q 959 2375 959 1747 
Q 959 1119 1226 758 
Q 1494 397 1959 397 
Q 2419 397 2687 759 
Q 2956 1122 2956 1747 
Q 2956 2369 2687 2733 
Q 2419 3097 1959 3097 
z
M 1959 3584 
Q 2709 3584 3137 3096 
Q 3566 2609 3566 1747 
Q 3566 888 3137 398 
Q 2709 -91 1959 -91 
Q 1206 -91 779 398 
Q 353 888 353 1747 
Q 353 2609 779 3096 
Q 1206 3584 1959 3584 
z
" transform="scale(0.015625)"/>
        <path id="DejaVuSans-78" d="M 3513 3500 
L 2247 1797 
L 3578 0 
L 2900 0 
L 1881 1375 
L 863 0 
L 184 0 
L 1544 1831 
L 300 3500 
L 978 3500 
L 1906 2253 
L 2834 3500 
L 3513 3500 
z
" transform="scale(0.015625)"/>
       </defs>
       <use xlink:href="#DejaVuSans-77"/>
       <use xlink:href="#DejaVuSans-6f" transform="translate(81.787109 0)"/>
       <use xlink:href="#DejaVuSans-72" transform="translate(142.96875 0)"/>
       <use xlink:href="#DejaVuSans-73" transform="translate(184.082031 0)"/>
       <use xlink:href="#DejaVuSans-74" transform="translate(236.181641 0)"/>
       <use xlink:href="#DejaVuSans-20" transform="translate(275.390625 0)"/>
       <use xlink:href="#DejaVuSans-74" transform="translate(307.177734 0)"/>
       <use xlink:href="#DejaVuSans-65" transform="translate(346.386719 0)"/>
       <use xlink:href="#DejaVuSans-78" transform="translate(406.160156 0)"/>
       <use xlink:href="#DejaVuSans-74" transform="translate(465.339844 0)"/>
       <use xlink:href="#DejaVuSans-75" transform="translate(504.548828 0)"/>
       <use xlink:href="#DejaVuSans-72" transform="translate(567.927734 0)"/>
       <use xlink:href="#DejaVuSans-65" transform="translate(606.791016 0)"/>
      </g>
     </g>
    </g>
    <g id="ytick_2">
     <g id="line2d_9">
      <g>
       <use xlink:href="#ma420f50c14" x="121.28125" y="306.473064" style="stroke: #000000; stroke-width: 0.8"/>
      </g>
     </g>
     <g id="text_10">
      <!-- perimeter error -->
      <g transform="translate(37.429688 310.272282) scale(0.1 -0.1)">
       <use xlink:href="#DejaVuSans-70"/>
       <use xlink:href="#DejaVuSans-65" transform="translate(63.476562 0)"/>
       <use xlink:href="#DejaVuSans-72" transform="translate(125 0)"/>
       <use xlink:href="#DejaVuSans-69" transform="translate(166.113281 0)"/>
       <use xlink:href="#DejaVuSans-6d" transform="translate(193.896484 0)"/>
       <use xlink:href="#DejaVuSans-65" transform="translate(291.308594 0)"/>
       <use xlink:href="#DejaVuSans-74" transform="translate(352.832031 0)"/>
       <use xlink:href="#DejaVuSans-65" transform="translate(392.041016 0)"/>
       <use xlink:href="#DejaVuSans-72" transform="translate(453.564453 0)"/>
       <use xlink:href="#DejaVuSans-20" transform="translate(494.677734 0)"/>
       <use xlink:href="#DejaVuSans-65" transform="translate(526.464844 0)"/>
       <use xlink:href="#DejaVuSans-72" transform="translate(587.988281 0)"/>
       <use xlink:href="#DejaVuSans-72" transform="translate(627.351562 0)"/>
       <use xlink:href="#DejaVuSans-6f" transform="translate(666.214844 0)"/>
       <use xlink:href="#DejaVuSans-72" transform="translate(727.396484 0)"/>
      </g>
     </g>
    </g>
    <g id="ytick_3">
     <g id="line2d_10">
      <g>
       <use xlink:href="#ma420f50c14" x="121.28125" y="286.37724" style="stroke: #000000; stroke-width: 0.8"/>
      </g>
     </g>
     <g id="text_11">
      <!-- mean texture -->
      <g transform="translate(46.629688 290.176459) scale(0.1 -0.1)">
       <use xlink:href="#DejaVuSans-6d"/>
       <use xlink:href="#DejaVuSans-65" transform="translate(97.412109 0)"/>
       <use xlink:href="#DejaVuSans-61" transform="translate(158.935547 0)"/>
       <use xlink:href="#DejaVuSans-6e" transform="translate(220.214844 0)"/>
       <use xlink:href="#DejaVuSans-20" transform="translate(283.59375 0)"/>
       <use xlink:href="#DejaVuSans-74" transform="translate(315.380859 0)"/>
       <use xlink:href="#DejaVuSans-65" transform="translate(354.589844 0)"/>
       <use xlink:href="#DejaVuSans-78" transform="translate(414.363281 0)"/>
       <use xlink:href="#DejaVuSans-74" transform="translate(473.542969 0)"/>
       <use xlink:href="#DejaVuSans-75" transform="translate(512.751953 0)"/>
       <use xlink:href="#DejaVuSans-72" transform="translate(576.130859 0)"/>
       <use xlink:href="#DejaVuSans-65" transform="translate(614.994141 0)"/>
      </g>
     </g>
    </g>
    <g id="ytick_4">
     <g id="line2d_11">
      <g>
       <use xlink:href="#ma420f50c14" x="121.28125" y="266.281417" style="stroke: #000000; stroke-width: 0.8"/>
      </g>
     </g>
     <g id="text_12">
      <!-- radius error -->
      <g transform="translate(55.985938 270.080636) scale(0.1 -0.1)">
       <use xlink:href="#DejaVuSans-72"/>
       <use xlink:href="#DejaVuSans-61" transform="translate(41.113281 0)"/>
       <use xlink:href="#DejaVuSans-64" transform="translate(102.392578 0)"/>
       <use xlink:href="#DejaVuSans-69" transform="translate(165.869141 0)"/>
       <use xlink:href="#DejaVuSans-75" transform="translate(193.652344 0)"/>
       <use xlink:href="#DejaVuSans-73" transform="translate(257.03125 0)"/>
       <use xlink:href="#DejaVuSans-20" transform="translate(309.130859 0)"/>
       <use xlink:href="#DejaVuSans-65" transform="translate(340.917969 0)"/>
       <use xlink:href="#DejaVuSans-72" transform="translate(402.441406 0)"/>
       <use xlink:href="#DejaVuSans-72" transform="translate(441.804688 0)"/>
       <use xlink:href="#DejaVuSans-6f" transform="translate(480.667969 0)"/>
       <use xlink:href="#DejaVuSans-72" transform="translate(541.849609 0)"/>
      </g>
     </g>
    </g>
    <g id="ytick_5">
     <g id="line2d_12">
      <g>
       <use xlink:href="#ma420f50c14" x="121.28125" y="246.185594" style="stroke: #000000; stroke-width: 0.8"/>
      </g>
     </g>
     <g id="text_13">
      <!-- mean radius -->
      <g transform="translate(51.83125 249.984813) scale(0.1 -0.1)">
       <use xlink:href="#DejaVuSans-6d"/>
       <use xlink:href="#DejaVuSans-65" transform="translate(97.412109 0)"/>
       <use xlink:href="#DejaVuSans-61" transform="translate(158.935547 0)"/>
       <use xlink:href="#DejaVuSans-6e" transform="translate(220.214844 0)"/>
       <use xlink:href="#DejaVuSans-20" transform="translate(283.59375 0)"/>
       <use xlink:href="#DejaVuSans-72" transform="translate(315.380859 0)"/>
       <use xlink:href="#DejaVuSans-61" transform="translate(356.494141 0)"/>
       <use xlink:href="#DejaVuSans-64" transform="translate(417.773438 0)"/>
       <use xlink:href="#DejaVuSans-69" transform="translate(481.25 0)"/>
       <use xlink:href="#DejaVuSans-75" transform="translate(509.033203 0)"/>
       <use xlink:href="#DejaVuSans-73" transform="translate(572.412109 0)"/>
      </g>
     </g>
    </g>
    <g id="ytick_6">
     <g id="line2d_13">
      <g>
       <use xlink:href="#ma420f50c14" x="121.28125" y="226.089771" style="stroke: #000000; stroke-width: 0.8"/>
      </g>
     </g>
     <g id="text_14">
      <!-- area error -->
      <g transform="translate(64.603125 229.88899) scale(0.1 -0.1)">
       <use xlink:href="#DejaVuSans-61"/>
       <use xlink:href="#DejaVuSans-72" transform="translate(61.279297 0)"/>
       <use xlink:href="#DejaVuSans-65" transform="translate(100.142578 0)"/>
       <use xlink:href="#DejaVuSans-61" transform="translate(161.666016 0)"/>
       <use xlink:href="#DejaVuSans-20" transform="translate(222.945312 0)"/>
       <use xlink:href="#DejaVuSans-65" transform="translate(254.732422 0)"/>
       <use xlink:href="#DejaVuSans-72" transform="translate(316.255859 0)"/>
       <use xlink:href="#DejaVuSans-72" transform="translate(355.619141 0)"/>
       <use xlink:href="#DejaVuSans-6f" transform="translate(394.482422 0)"/>
       <use xlink:href="#DejaVuSans-72" transform="translate(455.664062 0)"/>
      </g>
     </g>
    </g>
    <g id="ytick_7">
     <g id="line2d_14">
      <g>
       <use xlink:href="#ma420f50c14" x="121.28125" y="205.993948" style="stroke: #000000; stroke-width: 0.8"/>
      </g>
     </g>
     <g id="text_15">
      <!-- worst concavity -->
      <g transform="translate(35.448438 209.793167) scale(0.1 -0.1)">
       <defs>
        <path id="DejaVuSans-76" d="M 191 3500 
L 800 3500 
L 1894 563 
L 2988 3500 
L 3597 3500 
L 2284 0 
L 1503 0 
L 191 3500 
z
" transform="scale(0.015625)"/>
       </defs>
       <use xlink:href="#DejaVuSans-77"/>
       <use xlink:href="#DejaVuSans-6f" transform="translate(81.787109 0)"/>
       <use xlink:href="#DejaVuSans-72" transform="translate(142.96875 0)"/>
       <use xlink:href="#DejaVuSans-73" transform="translate(184.082031 0)"/>
       <use xlink:href="#DejaVuSans-74" transform="translate(236.181641 0)"/>
       <use xlink:href="#DejaVuSans-20" transform="translate(275.390625 0)"/>
       <use xlink:href="#DejaVuSans-63" transform="translate(307.177734 0)"/>
       <use xlink:href="#DejaVuSans-6f" transform="translate(362.158203 0)"/>
       <use xlink:href="#DejaVuSans-6e" transform="translate(423.339844 0)"/>
       <use xlink:href="#DejaVuSans-63" transform="translate(486.71875 0)"/>
       <use xlink:href="#DejaVuSans-61" transform="translate(541.699219 0)"/>
       <use xlink:href="#DejaVuSans-76" transform="translate(602.978516 0)"/>
       <use xlink:href="#DejaVuSans-69" transform="translate(662.158203 0)"/>
       <use xlink:href="#DejaVuSans-74" transform="translate(689.941406 0)"/>
       <use xlink:href="#DejaVuSans-79" transform="translate(729.150391 0)"/>
      </g>
     </g>
    </g>
    <g id="ytick_8">
     <g id="line2d_15">
      <g>
       <use xlink:href="#ma420f50c14" x="121.28125" y="185.898125" style="stroke: #000000; stroke-width: 0.8"/>
      </g>
     </g>
     <g id="text_16">
      <!-- mean area -->
      <g transform="translate(60.448438 189.697344) scale(0.1 -0.1)">
       <use xlink:href="#DejaVuSans-6d"/>
       <use xlink:href="#DejaVuSans-65" transform="translate(97.412109 0)"/>
       <use xlink:href="#DejaVuSans-61" transform="translate(158.935547 0)"/>
       <use xlink:href="#DejaVuSans-6e" transform="translate(220.214844 0)"/>
       <use xlink:href="#DejaVuSans-20" transform="translate(283.59375 0)"/>
       <use xlink:href="#DejaVuSans-61" transform="translate(315.380859 0)"/>
       <use xlink:href="#DejaVuSans-72" transform="translate(376.660156 0)"/>
       <use xlink:href="#DejaVuSans-65" transform="translate(415.523438 0)"/>
       <use xlink:href="#DejaVuSans-61" transform="translate(477.046875 0)"/>
      </g>
     </g>
    </g>
    <g id="ytick_9">
     <g id="line2d_16">
      <g>
       <use xlink:href="#ma420f50c14" x="121.28125" y="165.802302" style="stroke: #000000; stroke-width: 0.8"/>
      </g>
     </g>
     <g id="text_17">
      <!-- mean perimeter -->
      <g transform="translate(33.275 169.601521) scale(0.1 -0.1)">
       <use xlink:href="#DejaVuSans-6d"/>
       <use xlink:href="#DejaVuSans-65" transform="translate(97.412109 0)"/>
       <use xlink:href="#DejaVuSans-61" transform="translate(158.935547 0)"/>
       <use xlink:href="#DejaVuSans-6e" transform="translate(220.214844 0)"/>
       <use xlink:href="#DejaVuSans-20" transform="translate(283.59375 0)"/>
       <use xlink:href="#DejaVuSans-70" transform="translate(315.380859 0)"/>
       <use xlink:href="#DejaVuSans-65" transform="translate(378.857422 0)"/>
       <use xlink:href="#DejaVuSans-72" transform="translate(440.380859 0)"/>
       <use xlink:href="#DejaVuSans-69" transform="translate(481.494141 0)"/>
       <use xlink:href="#DejaVuSans-6d" transform="translate(509.277344 0)"/>
       <use xlink:href="#DejaVuSans-65" transform="translate(606.689453 0)"/>
       <use xlink:href="#DejaVuSans-74" transform="translate(668.212891 0)"/>
       <use xlink:href="#DejaVuSans-65" transform="translate(707.421875 0)"/>
       <use xlink:href="#DejaVuSans-72" transform="translate(768.945312 0)"/>
      </g>
     </g>
    </g>
    <g id="ytick_10">
     <g id="line2d_17">
      <g>
       <use xlink:href="#ma420f50c14" x="121.28125" y="145.706479" style="stroke: #000000; stroke-width: 0.8"/>
      </g>
     </g>
     <g id="text_18">
      <!-- mean concavity -->
      <g transform="translate(34.626563 149.505698) scale(0.1 -0.1)">
       <use xlink:href="#DejaVuSans-6d"/>
       <use xlink:href="#DejaVuSans-65" transform="translate(97.412109 0)"/>
       <use xlink:href="#DejaVuSans-61" transform="translate(158.935547 0)"/>
       <use xlink:href="#DejaVuSans-6e" transform="translate(220.214844 0)"/>
       <use xlink:href="#DejaVuSans-20" transform="translate(283.59375 0)"/>
       <use xlink:href="#DejaVuSans-63" transform="translate(315.380859 0)"/>
       <use xlink:href="#DejaVuSans-6f" transform="translate(370.361328 0)"/>
       <use xlink:href="#DejaVuSans-6e" transform="translate(431.542969 0)"/>
       <use xlink:href="#DejaVuSans-63" transform="translate(494.921875 0)"/>
       <use xlink:href="#DejaVuSans-61" transform="translate(549.902344 0)"/>
       <use xlink:href="#DejaVuSans-76" transform="translate(611.181641 0)"/>
       <use xlink:href="#DejaVuSans-69" transform="translate(670.361328 0)"/>
       <use xlink:href="#DejaVuSans-74" transform="translate(698.144531 0)"/>
       <use xlink:href="#DejaVuSans-79" transform="translate(737.353516 0)"/>
      </g>
     </g>
    </g>
    <g id="ytick_11">
     <g id="line2d_18">
      <g>
       <use xlink:href="#ma420f50c14" x="121.28125" y="125.610656" style="stroke: #000000; stroke-width: 0.8"/>
      </g>
     </g>
     <g id="text_19">
      <!-- mean concave points -->
      <g transform="translate(7.2 129.409874) scale(0.1 -0.1)">
       <use xlink:href="#DejaVuSans-6d"/>
       <use xlink:href="#DejaVuSans-65" transform="translate(97.412109 0)"/>
       <use xlink:href="#DejaVuSans-61" transform="translate(158.935547 0)"/>
       <use xlink:href="#DejaVuSans-6e" transform="translate(220.214844 0)"/>
       <use xlink:href="#DejaVuSans-20" transform="translate(283.59375 0)"/>
       <use xlink:href="#DejaVuSans-63" transform="translate(315.380859 0)"/>
       <use xlink:href="#DejaVuSans-6f" transform="translate(370.361328 0)"/>
       <use xlink:href="#DejaVuSans-6e" transform="translate(431.542969 0)"/>
       <use xlink:href="#DejaVuSans-63" transform="translate(494.921875 0)"/>
       <use xlink:href="#DejaVuSans-61" transform="translate(549.902344 0)"/>
       <use xlink:href="#DejaVuSans-76" transform="translate(611.181641 0)"/>
       <use xlink:href="#DejaVuSans-65" transform="translate(670.361328 0)"/>
       <use xlink:href="#DejaVuSans-20" transform="translate(731.884766 0)"/>
       <use xlink:href="#DejaVuSans-70" transform="translate(763.671875 0)"/>
       <use xlink:href="#DejaVuSans-6f" transform="translate(827.148438 0)"/>
       <use xlink:href="#DejaVuSans-69" transform="translate(888.330078 0)"/>
       <use xlink:href="#DejaVuSans-6e" transform="translate(916.113281 0)"/>
       <use xlink:href="#DejaVuSans-74" transform="translate(979.492188 0)"/>
       <use xlink:href="#DejaVuSans-73" transform="translate(1018.701172 0)"/>
      </g>
     </g>
    </g>
    <g id="ytick_12">
     <g id="line2d_19">
      <g>
       <use xlink:href="#ma420f50c14" x="121.28125" y="105.514833" style="stroke: #000000; stroke-width: 0.8"/>
      </g>
     </g>
     <g id="text_20">
      <!-- worst area -->
      <g transform="translate(61.270313 109.314051) scale(0.1 -0.1)">
       <use xlink:href="#DejaVuSans-77"/>
       <use xlink:href="#DejaVuSans-6f" transform="translate(81.787109 0)"/>
       <use xlink:href="#DejaVuSans-72" transform="translate(142.96875 0)"/>
       <use xlink:href="#DejaVuSans-73" transform="translate(184.082031 0)"/>
       <use xlink:href="#DejaVuSans-74" transform="translate(236.181641 0)"/>
       <use xlink:href="#DejaVuSans-20" transform="translate(275.390625 0)"/>
       <use xlink:href="#DejaVuSans-61" transform="translate(307.177734 0)"/>
       <use xlink:href="#DejaVuSans-72" transform="translate(368.457031 0)"/>
       <use xlink:href="#DejaVuSans-65" transform="translate(407.320312 0)"/>
       <use xlink:href="#DejaVuSans-61" transform="translate(468.84375 0)"/>
      </g>
     </g>
    </g>
    <g id="ytick_13">
     <g id="line2d_20">
      <g>
       <use xlink:href="#ma420f50c14" x="121.28125" y="85.41901" style="stroke: #000000; stroke-width: 0.8"/>
      </g>
     </g>
     <g id="text_21">
      <!-- worst concave points -->
      <g transform="translate(8.021875 89.218228) scale(0.1 -0.1)">
       <use xlink:href="#DejaVuSans-77"/>
       <use xlink:href="#DejaVuSans-6f" transform="translate(81.787109 0)"/>
       <use xlink:href="#DejaVuSans-72" transform="translate(142.96875 0)"/>
       <use xlink:href="#DejaVuSans-73" transform="translate(184.082031 0)"/>
       <use xlink:href="#DejaVuSans-74" transform="translate(236.181641 0)"/>
       <use xlink:href="#DejaVuSans-20" transform="translate(275.390625 0)"/>
       <use xlink:href="#DejaVuSans-63" transform="translate(307.177734 0)"/>
       <use xlink:href="#DejaVuSans-6f" transform="translate(362.158203 0)"/>
       <use xlink:href="#DejaVuSans-6e" transform="translate(423.339844 0)"/>
       <use xlink:href="#DejaVuSans-63" transform="translate(486.71875 0)"/>
       <use xlink:href="#DejaVuSans-61" transform="translate(541.699219 0)"/>
       <use xlink:href="#DejaVuSans-76" transform="translate(602.978516 0)"/>
       <use xlink:href="#DejaVuSans-65" transform="translate(662.158203 0)"/>
       <use xlink:href="#DejaVuSans-20" transform="translate(723.681641 0)"/>
       <use xlink:href="#DejaVuSans-70" transform="translate(755.46875 0)"/>
       <use xlink:href="#DejaVuSans-6f" transform="translate(818.945312 0)"/>
       <use xlink:href="#DejaVuSans-69" transform="translate(880.126953 0)"/>
       <use xlink:href="#DejaVuSans-6e" transform="translate(907.910156 0)"/>
       <use xlink:href="#DejaVuSans-74" transform="translate(971.289062 0)"/>
       <use xlink:href="#DejaVuSans-73" transform="translate(1010.498047 0)"/>
      </g>
     </g>
    </g>
    <g id="ytick_14">
     <g id="line2d_21">
      <g>
       <use xlink:href="#ma420f50c14" x="121.28125" y="65.323186" style="stroke: #000000; stroke-width: 0.8"/>
      </g>
     </g>
     <g id="text_22">
      <!-- worst perimeter -->
      <g transform="translate(34.096875 69.122405) scale(0.1 -0.1)">
       <use xlink:href="#DejaVuSans-77"/>
       <use xlink:href="#DejaVuSans-6f" transform="translate(81.787109 0)"/>
       <use xlink:href="#DejaVuSans-72" transform="translate(142.96875 0)"/>
       <use xlink:href="#DejaVuSans-73" transform="translate(184.082031 0)"/>
       <use xlink:href="#DejaVuSans-74" transform="translate(236.181641 0)"/>
       <use xlink:href="#DejaVuSans-20" transform="translate(275.390625 0)"/>
       <use xlink:href="#DejaVuSans-70" transform="translate(307.177734 0)"/>
       <use xlink:href="#DejaVuSans-65" transform="translate(370.654297 0)"/>
       <use xlink:href="#DejaVuSans-72" transform="translate(432.177734 0)"/>
       <use xlink:href="#DejaVuSans-69" transform="translate(473.291016 0)"/>
       <use xlink:href="#DejaVuSans-6d" transform="translate(501.074219 0)"/>
       <use xlink:href="#DejaVuSans-65" transform="translate(598.486328 0)"/>
       <use xlink:href="#DejaVuSans-74" transform="translate(660.009766 0)"/>
       <use xlink:href="#DejaVuSans-65" transform="translate(699.21875 0)"/>
       <use xlink:href="#DejaVuSans-72" transform="translate(760.742188 0)"/>
      </g>
     </g>
    </g>
    <g id="ytick_15">
     <g id="line2d_22">
      <g>
       <use xlink:href="#ma420f50c14" x="121.28125" y="45.227363" style="stroke: #000000; stroke-width: 0.8"/>
      </g>
     </g>
     <g id="text_23">
      <!-- worst radius -->
      <g transform="translate(52.653125 49.026582) scale(0.1 -0.1)">
       <use xlink:href="#DejaVuSans-77"/>
       <use xlink:href="#DejaVuSans-6f" transform="translate(81.787109 0)"/>
       <use xlink:href="#DejaVuSans-72" transform="translate(142.96875 0)"/>
       <use xlink:href="#DejaVuSans-73" transform="translate(184.082031 0)"/>
       <use xlink:href="#DejaVuSans-74" transform="translate(236.181641 0)"/>
       <use xlink:href="#DejaVuSans-20" transform="translate(275.390625 0)"/>
       <use xlink:href="#DejaVuSans-72" transform="translate(307.177734 0)"/>
       <use xlink:href="#DejaVuSans-61" transform="translate(348.291016 0)"/>
       <use xlink:href="#DejaVuSans-64" transform="translate(409.570312 0)"/>
       <use xlink:href="#DejaVuSans-69" transform="translate(473.046875 0)"/>
       <use xlink:href="#DejaVuSans-75" transform="translate(500.830078 0)"/>
       <use xlink:href="#DejaVuSans-73" transform="translate(564.208984 0)"/>
      </g>
     </g>
    </g>
   </g>
   <g id="patch_18">
    <path d="M 121.28125 349.478125 
L 121.28125 22.318125 
" style="fill: none; stroke: #000000; stroke-width: 0.8; stroke-linejoin: miter; stroke-linecap: square"/>
   </g>
   <g id="patch_19">
    <path d="M 561.67125 349.478125 
L 561.67125 22.318125 
" style="fill: none; stroke: #000000; stroke-width: 0.8; stroke-linejoin: miter; stroke-linecap: square"/>
   </g>
   <g id="patch_20">
    <path d="M 121.28125 349.478125 
L 561.67125 349.478125 
" style="fill: none; stroke: #000000; stroke-width: 0.8; stroke-linejoin: miter; stroke-linecap: square"/>
   </g>
   <g id="patch_21">
    <path d="M 121.28125 22.318125 
L 561.67125 22.318125 
" style="fill: none; stroke: #000000; stroke-width: 0.8; stroke-linejoin: miter; stroke-linecap: square"/>
   </g>
   <g id="text_24">
    <!-- Built-in feature importance (top 15) on breast cancer dataset -->
    <g transform="translate(157.511562 16.318125) scale(0.12 -0.12)">
     <defs>
      <path id="DejaVuSans-42" d="M 1259 2228 
L 1259 519 
L 2272 519 
Q 2781 519 3026 730 
Q 3272 941 3272 1375 
Q 3272 1813 3026 2020 
Q 2781 2228 2272 2228 
L 1259 2228 
z
M 1259 4147 
L 1259 2741 
L 2194 2741 
Q 2656 2741 2882 2914 
Q 3109 3088 3109 3444 
Q 3109 3797 2882 3972 
Q 2656 4147 2194 4147 
L 1259 4147 
z
M 628 4666 
L 2241 4666 
Q 2963 4666 3353 4366 
Q 3744 4066 3744 3513 
Q 3744 3084 3544 2831 
Q 3344 2578 2956 2516 
Q 3422 2416 3680 2098 
Q 3938 1781 3938 1306 
Q 3938 681 3513 340 
Q 3088 0 2303 0 
L 628 0 
L 628 4666 
z
" transform="scale(0.015625)"/>
      <path id="DejaVuSans-6c" d="M 603 4863 
L 1178 4863 
L 1178 0 
L 603 0 
L 603 4863 
z
" transform="scale(0.015625)"/>
      <path id="DejaVuSans-2d" d="M 313 2009 
L 1997 2009 
L 1997 1497 
L 313 1497 
L 313 2009 
z
" transform="scale(0.015625)"/>
      <path id="DejaVuSans-66" d="M 2375 4863 
L 2375 4384 
L 1825 4384 
Q 1516 4384 1395 4259 
Q 1275 4134 1275 3809 
L 1275 3500 
L 2222 3500 
L 2222 3053 
L 1275 3053 
L 1275 0 
L 697 0 
L 697 3053 
L 147 3053 
L 147 3500 
L 697 3500 
L 697 3744 
Q 697 4328 969 4595 
Q 1241 4863 1831 4863 
L 2375 4863 
z
" transform="scale(0.015625)"/>
      <path id="DejaVuSans-35" d="M 691 4666 
L 3169 4666 
L 3169 4134 
L 1269 4134 
L 1269 2991 
Q 1406 3038 1543 3061 
Q 1681 3084 1819 3084 
Q 2600 3084 3056 2656 
Q 3513 2228 3513 1497 
Q 3513 744 3044 326 
Q 2575 -91 1722 -91 
Q 1428 -91 1123 -41 
Q 819 9 494 109 
L 494 744 
Q 775 591 1075 516 
Q 1375 441 1709 441 
Q 2250 441 2565 725 
Q 2881 1009 2881 1497 
Q 2881 1984 2565 2268 
Q 2250 2553 1709 2553 
Q 1456 2553 1204 2497 
Q 953 2441 691 2322 
L 691 4666 
z
" transform="scale(0.015625)"/>
      <path id="DejaVuSans-62" d="M 3116 1747 
Q 3116 2381 2855 2742 
Q 2594 3103 2138 3103 
Q 1681 3103 1420 2742 
Q 1159 2381 1159 1747 
Q 1159 1113 1420 752 
Q 1681 391 2138 391 
Q 2594 391 2855 752 
Q 3116 1113 3116 1747 
z
M 1159 2969 
Q 1341 3281 1617 3432 
Q 1894 3584 2278 3584 
Q 2916 3584 3314 3078 
Q 3713 2572 3713 1747 
Q 3713 922 3314 415 
Q 2916 -91 2278 -91 
Q 1894 -91 1617 61 
Q 1341 213 1159 525 
L 1159 0 
L 581 0 
L 581 4863 
L 1159 4863 
L 1159 2969 
z
" transform="scale(0.015625)"/>
     </defs>
     <use xlink:href="#DejaVuSans-42"/>
     <use xlink:href="#DejaVuSans-75" transform="translate(68.603516 0)"/>
     <use xlink:href="#DejaVuSans-69" transform="translate(131.982422 0)"/>
     <use xlink:href="#DejaVuSans-6c" transform="translate(159.765625 0)"/>
     <use xlink:href="#DejaVuSans-74" transform="translate(187.548828 0)"/>
     <use xlink:href="#DejaVuSans-2d" transform="translate(226.757812 0)"/>
     <use xlink:href="#DejaVuSans-69" transform="translate(262.841797 0)"/>
     <use xlink:href="#DejaVuSans-6e" transform="translate(290.625 0)"/>
     <use xlink:href="#DejaVuSans-20" transform="translate(354.003906 0)"/>
     <use xlink:href="#DejaVuSans-66" transform="translate(385.791016 0)"/>
     <use xlink:href="#DejaVuSans-65" transform="translate(420.996094 0)"/>
     <use xlink:href="#DejaVuSans-61" transform="translate(482.519531 0)"/>
     <use xlink:href="#DejaVuSans-74" transform="translate(543.798828 0)"/>
     <use xlink:href="#DejaVuSans-75" transform="translate(583.007812 0)"/>
     <use xlink:href="#DejaVuSans-72" transform="translate(646.386719 0)"/>
     <use xlink:href="#DejaVuSans-65" transform="translate(685.25 0)"/>
     <use xlink:href="#DejaVuSans-20" transform="translate(746.773438 0)"/>
     <use xlink:href="#DejaVuSans-69" transform="translate(778.560547 0)"/>
     <use xlink:href="#DejaVuSans-6d" transform="translate(806.34375 0)"/>
     <use xlink:href="#DejaVuSans-70" transform="translate(903.755859 0)"/>
     <use xlink:href="#DejaVuSans-6f" transform="translate(967.232422 0)"/>
     <use xlink:href="#DejaVuSans-72" transform="translate(1028.414062 0)"/>
     <use xlink:href="#DejaVuSans-74" transform="translate(1069.527344 0)"/>
     <use xlink:href="#DejaVuSans-61" transform="translate(1108.736328 0)"/>
     <use xlink:href="#DejaVuSans-6e" transform="translate(1170.015625 0)"/>
     <use xlink:href="#DejaVuSans-63" transform="translate(1233.394531 0)"/>
     <use xlink:href="#DejaVuSans-65" transform="translate(1288.375 0)"/>
     <use xlink:href="#DejaVuSans-20" transform="translate(1349.898438 0)"/>
     <use xlink:href="#DejaVuSans-28" transform="translate(1381.685547 0)"/>
     <use xlink:href="#DejaVuSans-74" transform="translate(1420.699219 0)"/>
     <use xlink:href="#DejaVuSans-6f" transform="translate(1459.908203 0)"/>
     <use xlink:href="#DejaVuSans-70" transform="translate(1521.089844 0)"/>
     <use xlink:href="#DejaVuSans-20" transform="translate(1584.566406 0)"/>
     <use xlink:href="#DejaVuSans-31" transform="translate(1616.353516 0)"/>
     <use xlink:href="#DejaVuSans-35" transform="translate(1679.976562 0)"/>
     <use xlink:href="#DejaVuSans-29" transform="translate(1743.599609 0)"/>
     <use xlink:href="#DejaVuSans-20" transform="translate(1782.613281 0)"/>
     <use xlink:href="#DejaVuSans-6f" transform="translate(1814.400391 0)"/>
     <use xlink:href="#DejaVuSans-6e" transform="translate(1875.582031 0)"/>
     <use xlink:href="#DejaVuSans-20" transform="translate(1938.960938 0)"/>
     <use xlink:href="#DejaVuSans-62" transform="translate(1970.748047 0)"/>
     <use xlink:href="#DejaVuSans-72" transform="translate(2034.224609 0)"/>
     <use xlink:href="#DejaVuSans-65" transform="translate(2073.087891 0)"/>
     <use xlink:href="#DejaVuSans-61" transform="translate(2134.611328 0)"/>
     <use xlink:href="#DejaVuSans-73" transform="translate(2195.890625 0)"/>
     <use xlink:href="#DejaVuSans-74" transform="translate(2247.990234 0)"/>
     <use xlink:href="#DejaVuSans-20" transform="translate(2287.199219 0)"/>
     <use xlink:href="#DejaVuSans-63" transform="translate(2318.986328 0)"/>
     <use xlink:href="#DejaVuSans-61" transform="translate(2373.966797 0)"/>
     <use xlink:href="#DejaVuSans-6e" transform="translate(2435.246094 0)"/>
     <use xlink:href="#DejaVuSans-63" transform="translate(2498.625 0)"/>
     <use xlink:href="#DejaVuSans-65" transform="translate(2553.605469 0)"/>
     <use xlink:href="#DejaVuSans-72" transform="translate(2615.128906 0)"/>
     <use xlink:href="#DejaVuSans-20" transform="translate(2656.242188 0)"/>
     <use xlink:href="#DejaVuSans-64" transform="translate(2688.029297 0)"/>
     <use xlink:href="#DejaVuSans-61" transform="translate(2751.505859 0)"/>
     <use xlink:href="#DejaVuSans-74" transform="translate(2812.785156 0)"/>
     <use xlink:href="#DejaVuSans-61" transform="translate(2851.994141 0)"/>
     <use xlink:href="#DejaVuSans-73" transform="translate(2913.273438 0)"/>
     <use xlink:href="#DejaVuSans-65" transform="translate(2965.373047 0)"/>
     <use xlink:href="#DejaVuSans-74" transform="translate(3026.896484 0)"/>
    </g>
   </g>
  </g>
 </g>
 <defs>
  <clipPath id="peca3a1ee06">
   <rect x="121.28125" y="22.318125" width="440.39" height="327.16"/>
  </clipPath>
 </defs>
</svg>
