<?xml version="1.0" encoding="utf-8" standalone="no"?>
<!DOCTYPE svg PUBLIC "-//W3C//DTD SVG 1.1//EN"
  "http://www.w3.org/Graphics/SVG/1.1/DTD/svg11.dtd">
<svg xmlns:xlink="http://www.w3.org/1999/xlink" width="496.533437pt" height="275.722375pt" viewBox="0 0 496.533437 275.722375" xmlns="http://www.w3.org/2000/svg" version="1.1">
 <metadata>
  <rdf:RDF xmlns:dc="http://purl.org/dc/elements/1.1/" xmlns:cc="http://creativecommons.org/ns#" xmlns:rdf="http://www.w3.org/1999/02/22-rdf-syntax-ns#">
   <cc:Work>
    <dc:type rdf:resource="http://purl.org/dc/dcmitype/StillImage"/>
    <dc:date>2026-05-24T21:41:12.267565</dc:date>
    <dc:format>image/svg+xml</dc:format>
    <dc:creator>
     <cc:Agent>
      <dc:title>Matplotlib v3.10.8, https://matplotlib.org/</dc:title>
     </cc:Agent>
    </dc:creator>
   </cc:Work>
  </rdf:RDF>
 </metadata>
 <defs>
  <style type="text/css">*{stroke-linejoin: round; stroke-linecap: butt}</style>
 </defs>
 <g id="figure_1">
  <g id="patch_1">
   <path d="M 0 275.722375 
L 496.533437 275.722375 
L 496.533437 0 
L 0 0 
z
" style="fill: #ffffff"/>
  </g>
  <g id="axes_1">
   <g id="patch_2">
    <path d="M 58.523438 238.166125 
L 489.333438 238.166125 
L 489.333438 22.318125 
L 58.523438 22.318125 
z
" style="fill: #ffffff"/>
   </g>
   <g id="matplotlib.axis_1">
    <g id="xtick_1">
     <g id="line2d_1">
      <defs>
       <path id="m4fce4d605a" d="M 0 0 
L 0 3.5 
" style="stroke: #000000; stroke-width: 0.8"/>
      </defs>
      <g>
       <use xlink:href="#m4fce4d605a" x="78.10571" y="238.166125" style="stroke: #000000; stroke-width: 0.8"/>
      </g>
     </g>
     <g id="text_1">
      <!-- $\mathdefault{10^{-3}}$ -->
      <g transform="translate(66.35571 252.764563) scale(0.1 -0.1)">
       <defs>
        <path id="DejaVuSans-31" d="M 794 531 
L 1825 531 
L 1825 4091 
L 703 3866 
L 703 4441 
L 1819 4666 
L 2450 4666 
L 2450 531 
L 3481 531 
L 3481 0 
L 794 0 
L 794 531 
z
" transform="scale(0.015625)"/>
        <path id="DejaVuSans-30" d="M 2034 4250 
Q 1547 4250 1301 3770 
Q 1056 3291 1056 2328 
Q 1056 1369 1301 889 
Q 1547 409 2034 409 
Q 2525 409 2770 889 
Q 3016 1369 3016 2328 
Q 3016 3291 2770 3770 
Q 2525 4250 2034 4250 
z
M 2034 4750 
Q 2819 4750 3233 4129 
Q 3647 3509 3647 2328 
Q 3647 1150 3233 529 
Q 2819 -91 2034 -91 
Q 1250 -91 836 529 
Q 422 1150 422 2328 
Q 422 3509 836 4129 
Q 1250 4750 2034 4750 
z
" transform="scale(0.015625)"/>
        <path id="DejaVuSans-2212" d="M 678 2272 
L 4684 2272 
L 4684 1741 
L 678 1741 
L 678 2272 
z
" transform="scale(0.015625)"/>
        <path id="DejaVuSans-33" d="M 2597 2516 
Q 3050 2419 3304 2112 
Q 3559 1806 3559 1356 
Q 3559 666 3084 287 
Q 2609 -91 1734 -91 
Q 1441 -91 1130 -33 
Q 819 25 488 141 
L 488 750 
Q 750 597 1062 519 
Q 1375 441 1716 441 
Q 2309 441 2620 675 
Q 2931 909 2931 1356 
Q 2931 1769 2642 2001 
Q 2353 2234 1838 2234 
L 1294 2234 
L 1294 2753 
L 1863 2753 
Q 2328 2753 2575 2939 
Q 2822 3125 2822 3475 
Q 2822 3834 2567 4026 
Q 2313 4219 1838 4219 
Q 1578 4219 1281 4162 
Q 984 4106 628 3988 
L 628 4550 
Q 988 4650 1302 4700 
Q 1616 4750 1894 4750 
Q 2613 4750 3031 4423 
Q 3450 4097 3450 3541 
Q 3450 3153 3228 2886 
Q 3006 2619 2597 2516 
z
" transform="scale(0.015625)"/>
       </defs>
       <use xlink:href="#DejaVuSans-31" transform="translate(0 0.765625)"/>
       <use xlink:href="#DejaVuSans-30" transform="translate(63.623047 0.765625)"/>
       <use xlink:href="#DejaVuSans-2212" transform="translate(128.203125 39.046875) scale(0.7)"/>
       <use xlink:href="#DejaVuSans-33" transform="translate(186.855469 39.046875) scale(0.7)"/>
      </g>
     </g>
    </g>
    <g id="xtick_2">
     <g id="line2d_2">
      <g>
       <use xlink:href="#m4fce4d605a" x="156.434801" y="238.166125" style="stroke: #000000; stroke-width: 0.8"/>
      </g>
     </g>
     <g id="text_2">
      <!-- $\mathdefault{10^{-2}}$ -->
      <g transform="translate(144.684801 252.764563) scale(0.1 -0.1)">
       <defs>
        <path id="DejaVuSans-32" d="M 1228 531 
L 3431 531 
L 3431 0 
L 469 0 
L 469 531 
Q 828 903 1448 1529 
Q 2069 2156 2228 2338 
Q 2531 2678 2651 2914 
Q 2772 3150 2772 3378 
Q 2772 3750 2511 3984 
Q 2250 4219 1831 4219 
Q 1534 4219 1204 4116 
Q 875 4013 500 3803 
L 500 4441 
Q 881 4594 1212 4672 
Q 1544 4750 1819 4750 
Q 2544 4750 2975 4387 
Q 3406 4025 3406 3419 
Q 3406 3131 3298 2873 
Q 3191 2616 2906 2266 
Q 2828 2175 2409 1742 
Q 1991 1309 1228 531 
z
" transform="scale(0.015625)"/>
       </defs>
       <use xlink:href="#DejaVuSans-31" transform="translate(0 0.765625)"/>
       <use xlink:href="#DejaVuSans-30" transform="translate(63.623047 0.765625)"/>
       <use xlink:href="#DejaVuSans-2212" transform="translate(128.203125 39.046875) scale(0.7)"/>
       <use xlink:href="#DejaVuSans-32" transform="translate(186.855469 39.046875) scale(0.7)"/>
      </g>
     </g>
    </g>
    <g id="xtick_3">
     <g id="line2d_3">
      <g>
       <use xlink:href="#m4fce4d605a" x="234.763892" y="238.166125" style="stroke: #000000; stroke-width: 0.8"/>
      </g>
     </g>
     <g id="text_3">
      <!-- $\mathdefault{10^{-1}}$ -->
      <g transform="translate(223.013892 252.764563) scale(0.1 -0.1)">
       <use xlink:href="#DejaVuSans-31" transform="translate(0 0.684375)"/>
       <use xlink:href="#DejaVuSans-30" transform="translate(63.623047 0.684375)"/>
       <use xlink:href="#DejaVuSans-2212" transform="translate(128.203125 38.965625) scale(0.7)"/>
       <use xlink:href="#DejaVuSans-31" transform="translate(186.855469 38.965625) scale(0.7)"/>
      </g>
     </g>
    </g>
    <g id="xtick_4">
     <g id="line2d_4">
      <g>
       <use xlink:href="#m4fce4d605a" x="313.092983" y="238.166125" style="stroke: #000000; stroke-width: 0.8"/>
      </g>
     </g>
     <g id="text_4">
      <!-- $\mathdefault{10^{0}}$ -->
      <g transform="translate(304.292983 252.764563) scale(0.1 -0.1)">
       <use xlink:href="#DejaVuSans-31" transform="translate(0 0.765625)"/>
       <use xlink:href="#DejaVuSans-30" transform="translate(63.623047 0.765625)"/>
       <use xlink:href="#DejaVuSans-30" transform="translate(128.203125 39.046875) scale(0.7)"/>
      </g>
     </g>
    </g>
    <g id="xtick_5">
     <g id="line2d_5">
      <g>
       <use xlink:href="#m4fce4d605a" x="391.422074" y="238.166125" style="stroke: #000000; stroke-width: 0.8"/>
      </g>
     </g>
     <g id="text_5">
      <!-- $\mathdefault{10^{1}}$ -->
      <g transform="translate(382.622074 252.764563) scale(0.1 -0.1)">
       <use xlink:href="#DejaVuSans-31" transform="translate(0 0.684375)"/>
       <use xlink:href="#DejaVuSans-30" transform="translate(63.623047 0.684375)"/>
       <use xlink:href="#DejaVuSans-31" transform="translate(128.203125 38.965625) scale(0.7)"/>
      </g>
     </g>
    </g>
    <g id="xtick_6">
     <g id="line2d_6">
      <g>
       <use xlink:href="#m4fce4d605a" x="469.751165" y="238.166125" style="stroke: #000000; stroke-width: 0.8"/>
      </g>
     </g>
     <g id="text_6">
      <!-- $\mathdefault{10^{2}}$ -->
      <g transform="translate(460.951165 252.764563) scale(0.1 -0.1)">
       <use xlink:href="#DejaVuSans-31" transform="translate(0 0.765625)"/>
       <use xlink:href="#DejaVuSans-30" transform="translate(63.623047 0.765625)"/>
       <use xlink:href="#DejaVuSans-32" transform="translate(128.203125 39.046875) scale(0.7)"/>
      </g>
     </g>
    </g>
    <g id="xtick_7">
     <g id="line2d_7">
      <defs>
       <path id="m4e07993bf4" d="M 0 0 
L 0 2 
" style="stroke: #000000; stroke-width: 0.6"/>
      </defs>
      <g>
       <use xlink:href="#m4e07993bf4" x="60.728499" y="238.166125" style="stroke: #000000; stroke-width: 0.6"/>
      </g>
     </g>
    </g>
    <g id="xtick_8">
     <g id="line2d_8">
      <g>
       <use xlink:href="#m4e07993bf4" x="65.972381" y="238.166125" style="stroke: #000000; stroke-width: 0.6"/>
      </g>
     </g>
    </g>
    <g id="xtick_9">
     <g id="line2d_9">
      <g>
       <use xlink:href="#m4e07993bf4" x="70.514837" y="238.166125" style="stroke: #000000; stroke-width: 0.6"/>
      </g>
     </g>
    </g>
    <g id="xtick_10">
     <g id="line2d_10">
      <g>
       <use xlink:href="#m4e07993bf4" x="74.521568" y="238.166125" style="stroke: #000000; stroke-width: 0.6"/>
      </g>
     </g>
    </g>
    <g id="xtick_11">
     <g id="line2d_11">
      <g>
       <use xlink:href="#m4e07993bf4" x="101.685116" y="238.166125" style="stroke: #000000; stroke-width: 0.6"/>
      </g>
     </g>
    </g>
    <g id="xtick_12">
     <g id="line2d_12">
      <g>
       <use xlink:href="#m4e07993bf4" x="115.478184" y="238.166125" style="stroke: #000000; stroke-width: 0.6"/>
      </g>
     </g>
    </g>
    <g id="xtick_13">
     <g id="line2d_13">
      <g>
       <use xlink:href="#m4e07993bf4" x="125.264522" y="238.166125" style="stroke: #000000; stroke-width: 0.6"/>
      </g>
     </g>
    </g>
    <g id="xtick_14">
     <g id="line2d_14">
      <g>
       <use xlink:href="#m4e07993bf4" x="132.855395" y="238.166125" style="stroke: #000000; stroke-width: 0.6"/>
      </g>
     </g>
    </g>
    <g id="xtick_15">
     <g id="line2d_15">
      <g>
       <use xlink:href="#m4e07993bf4" x="139.05759" y="238.166125" style="stroke: #000000; stroke-width: 0.6"/>
      </g>
     </g>
    </g>
    <g id="xtick_16">
     <g id="line2d_16">
      <g>
       <use xlink:href="#m4e07993bf4" x="144.301471" y="238.166125" style="stroke: #000000; stroke-width: 0.6"/>
      </g>
     </g>
    </g>
    <g id="xtick_17">
     <g id="line2d_17">
      <g>
       <use xlink:href="#m4e07993bf4" x="148.843928" y="238.166125" style="stroke: #000000; stroke-width: 0.6"/>
      </g>
     </g>
    </g>
    <g id="xtick_18">
     <g id="line2d_18">
      <g>
       <use xlink:href="#m4e07993bf4" x="152.850658" y="238.166125" style="stroke: #000000; stroke-width: 0.6"/>
      </g>
     </g>
    </g>
    <g id="xtick_19">
     <g id="line2d_19">
      <g>
       <use xlink:href="#m4e07993bf4" x="180.014207" y="238.166125" style="stroke: #000000; stroke-width: 0.6"/>
      </g>
     </g>
    </g>
    <g id="xtick_20">
     <g id="line2d_20">
      <g>
       <use xlink:href="#m4e07993bf4" x="193.807275" y="238.166125" style="stroke: #000000; stroke-width: 0.6"/>
      </g>
     </g>
    </g>
    <g id="xtick_21">
     <g id="line2d_21">
      <g>
       <use xlink:href="#m4e07993bf4" x="203.593613" y="238.166125" style="stroke: #000000; stroke-width: 0.6"/>
      </g>
     </g>
    </g>
    <g id="xtick_22">
     <g id="line2d_22">
      <g>
       <use xlink:href="#m4e07993bf4" x="211.184486" y="238.166125" style="stroke: #000000; stroke-width: 0.6"/>
      </g>
     </g>
    </g>
    <g id="xtick_23">
     <g id="line2d_23">
      <g>
       <use xlink:href="#m4e07993bf4" x="217.386681" y="238.166125" style="stroke: #000000; stroke-width: 0.6"/>
      </g>
     </g>
    </g>
    <g id="xtick_24">
     <g id="line2d_24">
      <g>
       <use xlink:href="#m4e07993bf4" x="222.630562" y="238.166125" style="stroke: #000000; stroke-width: 0.6"/>
      </g>
     </g>
    </g>
    <g id="xtick_25">
     <g id="line2d_25">
      <g>
       <use xlink:href="#m4e07993bf4" x="227.173019" y="238.166125" style="stroke: #000000; stroke-width: 0.6"/>
      </g>
     </g>
    </g>
    <g id="xtick_26">
     <g id="line2d_26">
      <g>
       <use xlink:href="#m4e07993bf4" x="231.179749" y="238.166125" style="stroke: #000000; stroke-width: 0.6"/>
      </g>
     </g>
    </g>
    <g id="xtick_27">
     <g id="line2d_27">
      <g>
       <use xlink:href="#m4e07993bf4" x="258.343298" y="238.166125" style="stroke: #000000; stroke-width: 0.6"/>
      </g>
     </g>
    </g>
    <g id="xtick_28">
     <g id="line2d_28">
      <g>
       <use xlink:href="#m4e07993bf4" x="272.136366" y="238.166125" style="stroke: #000000; stroke-width: 0.6"/>
      </g>
     </g>
    </g>
    <g id="xtick_29">
     <g id="line2d_29">
      <g>
       <use xlink:href="#m4e07993bf4" x="281.922704" y="238.166125" style="stroke: #000000; stroke-width: 0.6"/>
      </g>
     </g>
    </g>
    <g id="xtick_30">
     <g id="line2d_30">
      <g>
       <use xlink:href="#m4e07993bf4" x="289.513577" y="238.166125" style="stroke: #000000; stroke-width: 0.6"/>
      </g>
     </g>
    </g>
    <g id="xtick_31">
     <g id="line2d_31">
      <g>
       <use xlink:href="#m4e07993bf4" x="295.715772" y="238.166125" style="stroke: #000000; stroke-width: 0.6"/>
      </g>
     </g>
    </g>
    <g id="xtick_32">
     <g id="line2d_32">
      <g>
       <use xlink:href="#m4e07993bf4" x="300.959653" y="238.166125" style="stroke: #000000; stroke-width: 0.6"/>
      </g>
     </g>
    </g>
    <g id="xtick_33">
     <g id="line2d_33">
      <g>
       <use xlink:href="#m4e07993bf4" x="305.50211" y="238.166125" style="stroke: #000000; stroke-width: 0.6"/>
      </g>
     </g>
    </g>
    <g id="xtick_34">
     <g id="line2d_34">
      <g>
       <use xlink:href="#m4e07993bf4" x="309.50884" y="238.166125" style="stroke: #000000; stroke-width: 0.6"/>
      </g>
     </g>
    </g>
    <g id="xtick_35">
     <g id="line2d_35">
      <g>
       <use xlink:href="#m4e07993bf4" x="336.672389" y="238.166125" style="stroke: #000000; stroke-width: 0.6"/>
      </g>
     </g>
    </g>
    <g id="xtick_36">
     <g id="line2d_36">
      <g>
       <use xlink:href="#m4e07993bf4" x="350.465457" y="238.166125" style="stroke: #000000; stroke-width: 0.6"/>
      </g>
     </g>
    </g>
    <g id="xtick_37">
     <g id="line2d_37">
      <g>
       <use xlink:href="#m4e07993bf4" x="360.251795" y="238.166125" style="stroke: #000000; stroke-width: 0.6"/>
      </g>
     </g>
    </g>
    <g id="xtick_38">
     <g id="line2d_38">
      <g>
       <use xlink:href="#m4e07993bf4" x="367.842668" y="238.166125" style="stroke: #000000; stroke-width: 0.6"/>
      </g>
     </g>
    </g>
    <g id="xtick_39">
     <g id="line2d_39">
      <g>
       <use xlink:href="#m4e07993bf4" x="374.044863" y="238.166125" style="stroke: #000000; stroke-width: 0.6"/>
      </g>
     </g>
    </g>
    <g id="xtick_40">
     <g id="line2d_40">
      <g>
       <use xlink:href="#m4e07993bf4" x="379.288744" y="238.166125" style="stroke: #000000; stroke-width: 0.6"/>
      </g>
     </g>
    </g>
    <g id="xtick_41">
     <g id="line2d_41">
      <g>
       <use xlink:href="#m4e07993bf4" x="383.831201" y="238.166125" style="stroke: #000000; stroke-width: 0.6"/>
      </g>
     </g>
    </g>
    <g id="xtick_42">
     <g id="line2d_42">
      <g>
       <use xlink:href="#m4e07993bf4" x="387.837931" y="238.166125" style="stroke: #000000; stroke-width: 0.6"/>
      </g>
     </g>
    </g>
    <g id="xtick_43">
     <g id="line2d_43">
      <g>
       <use xlink:href="#m4e07993bf4" x="415.00148" y="238.166125" style="stroke: #000000; stroke-width: 0.6"/>
      </g>
     </g>
    </g>
    <g id="xtick_44">
     <g id="line2d_44">
      <g>
       <use xlink:href="#m4e07993bf4" x="428.794548" y="238.166125" style="stroke: #000000; stroke-width: 0.6"/>
      </g>
     </g>
    </g>
    <g id="xtick_45">
     <g id="line2d_45">
      <g>
       <use xlink:href="#m4e07993bf4" x="438.580886" y="238.166125" style="stroke: #000000; stroke-width: 0.6"/>
      </g>
     </g>
    </g>
    <g id="xtick_46">
     <g id="line2d_46">
      <g>
       <use xlink:href="#m4e07993bf4" x="446.171759" y="238.166125" style="stroke: #000000; stroke-width: 0.6"/>
      </g>
     </g>
    </g>
    <g id="xtick_47">
     <g id="line2d_47">
      <g>
       <use xlink:href="#m4e07993bf4" x="452.373954" y="238.166125" style="stroke: #000000; stroke-width: 0.6"/>
      </g>
     </g>
    </g>
    <g id="xtick_48">
     <g id="line2d_48">
      <g>
       <use xlink:href="#m4e07993bf4" x="457.617835" y="238.166125" style="stroke: #000000; stroke-width: 0.6"/>
      </g>
     </g>
    </g>
    <g id="xtick_49">
     <g id="line2d_49">
      <g>
       <use xlink:href="#m4e07993bf4" x="462.160292" y="238.166125" style="stroke: #000000; stroke-width: 0.6"/>
      </g>
     </g>
    </g>
    <g id="xtick_50">
     <g id="line2d_50">
      <g>
       <use xlink:href="#m4e07993bf4" x="466.167022" y="238.166125" style="stroke: #000000; stroke-width: 0.6"/>
      </g>
     </g>
    </g>
    <g id="text_7">
     <!-- C (inverse of regularization strength) -->
     <g transform="translate(181.447188 266.442687) scale(0.1 -0.1)">
      <defs>
       <path id="DejaVuSans-43" d="M 4122 4306 
L 4122 3641 
Q 3803 3938 3442 4084 
Q 3081 4231 2675 4231 
Q 1875 4231 1450 3742 
Q 1025 3253 1025 2328 
Q 1025 1406 1450 917 
Q 1875 428 2675 428 
Q 3081 428 3442 575 
Q 3803 722 4122 1019 
L 4122 359 
Q 3791 134 3420 21 
Q 3050 -91 2638 -91 
Q 1578 -91 968 557 
Q 359 1206 359 2328 
Q 359 3453 968 4101 
Q 1578 4750 2638 4750 
Q 3056 4750 3426 4639 
Q 3797 4528 4122 4306 
z
" transform="scale(0.015625)"/>
       <path id="DejaVuSans-20" transform="scale(0.015625)"/>
       <path id="DejaVuSans-28" d="M 1984 4856 
Q 1566 4138 1362 3434 
Q 1159 2731 1159 2009 
Q 1159 1288 1364 580 
Q 1569 -128 1984 -844 
L 1484 -844 
Q 1016 -109 783 600 
Q 550 1309 550 2009 
Q 550 2706 781 3412 
Q 1013 4119 1484 4856 
L 1984 4856 
z
" transform="scale(0.015625)"/>
       <path id="DejaVuSans-69" d="M 603 3500 
L 1178 3500 
L 1178 0 
L 603 0 
L 603 3500 
z
M 603 4863 
L 1178 4863 
L 1178 4134 
L 603 4134 
L 603 4863 
z
" transform="scale(0.015625)"/>
       <path id="DejaVuSans-6e" d="M 3513 2113 
L 3513 0 
L 2938 0 
L 2938 2094 
Q 2938 2591 2744 2837 
Q 2550 3084 2163 3084 
Q 1697 3084 1428 2787 
Q 1159 2491 1159 1978 
L 1159 0 
L 581 0 
L 581 3500 
L 1159 3500 
L 1159 2956 
Q 1366 3272 1645 3428 
Q 1925 3584 2291 3584 
Q 2894 3584 3203 3211 
Q 3513 2838 3513 2113 
z
" transform="scale(0.015625)"/>
       <path id="DejaVuSans-76" d="M 191 3500 
L 800 3500 
L 1894 563 
L 2988 3500 
L 3597 3500 
L 2284 0 
L 1503 0 
L 191 3500 
z
" transform="scale(0.015625)"/>
       <path id="DejaVuSans-65" d="M 3597 1894 
L 3597 1613 
L 953 1613 
Q 991 1019 1311 708 
Q 1631 397 2203 397 
Q 2534 397 2845 478 
Q 3156 559 3463 722 
L 3463 178 
Q 3153 47 2828 -22 
Q 2503 -91 2169 -91 
Q 1331 -91 842 396 
Q 353 884 353 1716 
Q 353 2575 817 3079 
Q 1281 3584 2069 3584 
Q 2775 3584 3186 3129 
Q 3597 2675 3597 1894 
z
M 3022 2063 
Q 3016 2534 2758 2815 
Q 2500 3097 2075 3097 
Q 1594 3097 1305 2825 
Q 1016 2553 972 2059 
L 3022 2063 
z
" transform="scale(0.015625)"/>
       <path id="DejaVuSans-72" d="M 2631 2963 
Q 2534 3019 2420 3045 
Q 2306 3072 2169 3072 
Q 1681 3072 1420 2755 
Q 1159 2438 1159 1844 
L 1159 0 
L 581 0 
L 581 3500 
L 1159 3500 
L 1159 2956 
Q 1341 3275 1631 3429 
Q 1922 3584 2338 3584 
Q 2397 3584 2469 3576 
Q 2541 3569 2628 3553 
L 2631 2963 
z
" transform="scale(0.015625)"/>
       <path id="DejaVuSans-73" d="M 2834 3397 
L 2834 2853 
Q 2591 2978 2328 3040 
Q 2066 3103 1784 3103 
Q 1356 3103 1142 2972 
Q 928 2841 928 2578 
Q 928 2378 1081 2264 
Q 1234 2150 1697 2047 
L 1894 2003 
Q 2506 1872 2764 1633 
Q 3022 1394 3022 966 
Q 3022 478 2636 193 
Q 2250 -91 1575 -91 
Q 1294 -91 989 -36 
Q 684 19 347 128 
L 347 722 
Q 666 556 975 473 
Q 1284 391 1588 391 
Q 1994 391 2212 530 
Q 2431 669 2431 922 
Q 2431 1156 2273 1281 
Q 2116 1406 1581 1522 
L 1381 1569 
Q 847 1681 609 1914 
Q 372 2147 372 2553 
Q 372 3047 722 3315 
Q 1072 3584 1716 3584 
Q 2034 3584 2315 3537 
Q 2597 3491 2834 3397 
z
" transform="scale(0.015625)"/>
       <path id="DejaVuSans-6f" d="M 1959 3097 
Q 1497 3097 1228 2736 
Q 959 2375 959 1747 
Q 959 1119 1226 758 
Q 1494 397 1959 397 
Q 2419 397 2687 759 
Q 2956 1122 2956 1747 
Q 2956 2369 2687 2733 
Q 2419 3097 1959 3097 
z
M 1959 3584 
Q 2709 3584 3137 3096 
Q 3566 2609 3566 1747 
Q 3566 888 3137 398 
Q 2709 -91 1959 -91 
Q 1206 -91 779 398 
Q 353 888 353 1747 
Q 353 2609 779 3096 
Q 1206 3584 1959 3584 
z
" transform="scale(0.015625)"/>
       <path id="DejaVuSans-66" d="M 2375 4863 
L 2375 4384 
L 1825 4384 
Q 1516 4384 1395 4259 
Q 1275 4134 1275 3809 
L 1275 3500 
L 2222 3500 
L 2222 3053 
L 1275 3053 
L 1275 0 
L 697 0 
L 697 3053 
L 147 3053 
L 147 3500 
L 697 3500 
L 697 3744 
Q 697 4328 969 4595 
Q 1241 4863 1831 4863 
L 2375 4863 
z
" transform="scale(0.015625)"/>
       <path id="DejaVuSans-67" d="M 2906 1791 
Q 2906 2416 2648 2759 
Q 2391 3103 1925 3103 
Q 1463 3103 1205 2759 
Q 947 2416 947 1791 
Q 947 1169 1205 825 
Q 1463 481 1925 481 
Q 2391 481 2648 825 
Q 2906 1169 2906 1791 
z
M 3481 434 
Q 3481 -459 3084 -895 
Q 2688 -1331 1869 -1331 
Q 1566 -1331 1297 -1286 
Q 1028 -1241 775 -1147 
L 775 -588 
Q 1028 -725 1275 -790 
Q 1522 -856 1778 -856 
Q 2344 -856 2625 -561 
Q 2906 -266 2906 331 
L 2906 616 
Q 2728 306 2450 153 
Q 2172 0 1784 0 
Q 1141 0 747 490 
Q 353 981 353 1791 
Q 353 2603 747 3093 
Q 1141 3584 1784 3584 
Q 2172 3584 2450 3431 
Q 2728 3278 2906 2969 
L 2906 3500 
L 3481 3500 
L 3481 434 
z
" transform="scale(0.015625)"/>
       <path id="DejaVuSans-75" d="M 544 1381 
L 544 3500 
L 1119 3500 
L 1119 1403 
Q 1119 906 1312 657 
Q 1506 409 1894 409 
Q 2359 409 2629 706 
Q 2900 1003 2900 1516 
L 2900 3500 
L 3475 3500 
L 3475 0 
L 2900 0 
L 2900 538 
Q 2691 219 2414 64 
Q 2138 -91 1772 -91 
Q 1169 -91 856 284 
Q 544 659 544 1381 
z
M 1991 3584 
L 1991 3584 
z
" transform="scale(0.015625)"/>
       <path id="DejaVuSans-6c" d="M 603 4863 
L 1178 4863 
L 1178 0 
L 603 0 
L 603 4863 
z
" transform="scale(0.015625)"/>
       <path id="DejaVuSans-61" d="M 2194 1759 
Q 1497 1759 1228 1600 
Q 959 1441 959 1056 
Q 959 750 1161 570 
Q 1363 391 1709 391 
Q 2188 391 2477 730 
Q 2766 1069 2766 1631 
L 2766 1759 
L 2194 1759 
z
M 3341 1997 
L 3341 0 
L 2766 0 
L 2766 531 
Q 2569 213 2275 61 
Q 1981 -91 1556 -91 
Q 1019 -91 701 211 
Q 384 513 384 1019 
Q 384 1609 779 1909 
Q 1175 2209 1959 2209 
L 2766 2209 
L 2766 2266 
Q 2766 2663 2505 2880 
Q 2244 3097 1772 3097 
Q 1472 3097 1187 3025 
Q 903 2953 641 2809 
L 641 3341 
Q 956 3463 1253 3523 
Q 1550 3584 1831 3584 
Q 2591 3584 2966 3190 
Q 3341 2797 3341 1997 
z
" transform="scale(0.015625)"/>
       <path id="DejaVuSans-7a" d="M 353 3500 
L 3084 3500 
L 3084 2975 
L 922 459 
L 3084 459 
L 3084 0 
L 275 0 
L 275 525 
L 2438 3041 
L 353 3041 
L 353 3500 
z
" transform="scale(0.015625)"/>
       <path id="DejaVuSans-74" d="M 1172 4494 
L 1172 3500 
L 2356 3500 
L 2356 3053 
L 1172 3053 
L 1172 1153 
Q 1172 725 1289 603 
Q 1406 481 1766 481 
L 2356 481 
L 2356 0 
L 1766 0 
Q 1100 0 847 248 
Q 594 497 594 1153 
L 594 3053 
L 172 3053 
L 172 3500 
L 594 3500 
L 594 4494 
L 1172 4494 
z
" transform="scale(0.015625)"/>
       <path id="DejaVuSans-68" d="M 3513 2113 
L 3513 0 
L 2938 0 
L 2938 2094 
Q 2938 2591 2744 2837 
Q 2550 3084 2163 3084 
Q 1697 3084 1428 2787 
Q 1159 2491 1159 1978 
L 1159 0 
L 581 0 
L 581 4863 
L 1159 4863 
L 1159 2956 
Q 1366 3272 1645 3428 
Q 1925 3584 2291 3584 
Q 2894 3584 3203 3211 
Q 3513 2838 3513 2113 
z
" transform="scale(0.015625)"/>
       <path id="DejaVuSans-29" d="M 513 4856 
L 1013 4856 
Q 1481 4119 1714 3412 
Q 1947 2706 1947 2009 
Q 1947 1309 1714 600 
Q 1481 -109 1013 -844 
L 513 -844 
Q 928 -128 1133 580 
Q 1338 1288 1338 2009 
Q 1338 2731 1133 3434 
Q 928 4138 513 4856 
z
" transform="scale(0.015625)"/>
      </defs>
      <use xlink:href="#DejaVuSans-43"/>
      <use xlink:href="#DejaVuSans-20" transform="translate(69.824219 0)"/>
      <use xlink:href="#DejaVuSans-28" transform="translate(101.611328 0)"/>
      <use xlink:href="#DejaVuSans-69" transform="translate(140.625 0)"/>
      <use xlink:href="#DejaVuSans-6e" transform="translate(168.408203 0)"/>
      <use xlink:href="#DejaVuSans-76" transform="translate(231.787109 0)"/>
      <use xlink:href="#DejaVuSans-65" transform="translate(290.966797 0)"/>
      <use xlink:href="#DejaVuSans-72" transform="translate(352.490234 0)"/>
      <use xlink:href="#DejaVuSans-73" transform="translate(393.603516 0)"/>
      <use xlink:href="#DejaVuSans-65" transform="translate(445.703125 0)"/>
      <use xlink:href="#DejaVuSans-20" transform="translate(507.226562 0)"/>
      <use xlink:href="#DejaVuSans-6f" transform="translate(539.013672 0)"/>
      <use xlink:href="#DejaVuSans-66" transform="translate(600.195312 0)"/>
      <use xlink:href="#DejaVuSans-20" transform="translate(635.400391 0)"/>
      <use xlink:href="#DejaVuSans-72" transform="translate(667.1875 0)"/>
      <use xlink:href="#DejaVuSans-65" transform="translate(706.050781 0)"/>
      <use xlink:href="#DejaVuSans-67" transform="translate(767.574219 0)"/>
      <use xlink:href="#DejaVuSans-75" transform="translate(831.050781 0)"/>
      <use xlink:href="#DejaVuSans-6c" transform="translate(894.429688 0)"/>
      <use xlink:href="#DejaVuSans-61" transform="translate(922.212891 0)"/>
      <use xlink:href="#DejaVuSans-72" transform="translate(983.492188 0)"/>
      <use xlink:href="#DejaVuSans-69" transform="translate(1024.605469 0)"/>
      <use xlink:href="#DejaVuSans-7a" transform="translate(1052.388672 0)"/>
      <use xlink:href="#DejaVuSans-61" transform="translate(1104.878906 0)"/>
      <use xlink:href="#DejaVuSans-74" transform="translate(1166.158203 0)"/>
      <use xlink:href="#DejaVuSans-69" transform="translate(1205.367188 0)"/>
      <use xlink:href="#DejaVuSans-6f" transform="translate(1233.150391 0)"/>
      <use xlink:href="#DejaVuSans-6e" transform="translate(1294.332031 0)"/>
      <use xlink:href="#DejaVuSans-20" transform="translate(1357.710938 0)"/>
      <use xlink:href="#DejaVuSans-73" transform="translate(1389.498047 0)"/>
      <use xlink:href="#DejaVuSans-74" transform="translate(1441.597656 0)"/>
      <use xlink:href="#DejaVuSans-72" transform="translate(1480.806641 0)"/>
      <use xlink:href="#DejaVuSans-65" transform="translate(1519.669922 0)"/>
      <use xlink:href="#DejaVuSans-6e" transform="translate(1581.193359 0)"/>
      <use xlink:href="#DejaVuSans-67" transform="translate(1644.572266 0)"/>
      <use xlink:href="#DejaVuSans-74" transform="translate(1708.048828 0)"/>
      <use xlink:href="#DejaVuSans-68" transform="translate(1747.257812 0)"/>
      <use xlink:href="#DejaVuSans-29" transform="translate(1810.636719 0)"/>
     </g>
    </g>
   </g>
   <g id="matplotlib.axis_2">
    <g id="ytick_1">
     <g id="line2d_51">
      <defs>
       <path id="m0a3a73145f" d="M 0 0 
L -3.5 0 
" style="stroke: #000000; stroke-width: 0.8"/>
      </defs>
      <g>
       <use xlink:href="#m0a3a73145f" x="58.523438" y="237.17075" style="stroke: #000000; stroke-width: 0.8"/>
      </g>
     </g>
     <g id="text_8">
      <!-- −1.00 -->
      <g transform="translate(20.878125 240.969968) scale(0.1 -0.1)">
       <defs>
        <path id="DejaVuSans-2e" d="M 684 794 
L 1344 794 
L 1344 0 
L 684 0 
L 684 794 
z
" transform="scale(0.015625)"/>
       </defs>
       <use xlink:href="#DejaVuSans-2212"/>
       <use xlink:href="#DejaVuSans-31" transform="translate(83.789062 0)"/>
       <use xlink:href="#DejaVuSans-2e" transform="translate(147.412109 0)"/>
       <use xlink:href="#DejaVuSans-30" transform="translate(179.199219 0)"/>
       <use xlink:href="#DejaVuSans-30" transform="translate(242.822266 0)"/>
      </g>
     </g>
    </g>
    <g id="ytick_2">
     <g id="line2d_52">
      <g>
       <use xlink:href="#m0a3a73145f" x="58.523438" y="209.352725" style="stroke: #000000; stroke-width: 0.8"/>
      </g>
     </g>
     <g id="text_9">
      <!-- −0.75 -->
      <g transform="translate(20.878125 213.151944) scale(0.1 -0.1)">
       <defs>
        <path id="DejaVuSans-37" d="M 525 4666 
L 3525 4666 
L 3525 4397 
L 1831 0 
L 1172 0 
L 2766 4134 
L 525 4134 
L 525 4666 
z
" transform="scale(0.015625)"/>
        <path id="DejaVuSans-35" d="M 691 4666 
L 3169 4666 
L 3169 4134 
L 1269 4134 
L 1269 2991 
Q 1406 3038 1543 3061 
Q 1681 3084 1819 3084 
Q 2600 3084 3056 2656 
Q 3513 2228 3513 1497 
Q 3513 744 3044 326 
Q 2575 -91 1722 -91 
Q 1428 -91 1123 -41 
Q 819 9 494 109 
L 494 744 
Q 775 591 1075 516 
Q 1375 441 1709 441 
Q 2250 441 2565 725 
Q 2881 1009 2881 1497 
Q 2881 1984 2565 2268 
Q 2250 2553 1709 2553 
Q 1456 2553 1204 2497 
Q 953 2441 691 2322 
L 691 4666 
z
" transform="scale(0.015625)"/>
       </defs>
       <use xlink:href="#DejaVuSans-2212"/>
       <use xlink:href="#DejaVuSans-30" transform="translate(83.789062 0)"/>
       <use xlink:href="#DejaVuSans-2e" transform="translate(147.412109 0)"/>
       <use xlink:href="#DejaVuSans-37" transform="translate(179.199219 0)"/>
       <use xlink:href="#DejaVuSans-35" transform="translate(242.822266 0)"/>
      </g>
     </g>
    </g>
    <g id="ytick_3">
     <g id="line2d_53">
      <g>
       <use xlink:href="#m0a3a73145f" x="58.523438" y="181.534701" style="stroke: #000000; stroke-width: 0.8"/>
      </g>
     </g>
     <g id="text_10">
      <!-- −0.50 -->
      <g transform="translate(20.878125 185.33392) scale(0.1 -0.1)">
       <use xlink:href="#DejaVuSans-2212"/>
       <use xlink:href="#DejaVuSans-30" transform="translate(83.789062 0)"/>
       <use xlink:href="#DejaVuSans-2e" transform="translate(147.412109 0)"/>
       <use xlink:href="#DejaVuSans-35" transform="translate(179.199219 0)"/>
       <use xlink:href="#DejaVuSans-30" transform="translate(242.822266 0)"/>
      </g>
     </g>
    </g>
    <g id="ytick_4">
     <g id="line2d_54">
      <g>
       <use xlink:href="#m0a3a73145f" x="58.523438" y="153.716677" style="stroke: #000000; stroke-width: 0.8"/>
      </g>
     </g>
     <g id="text_11">
      <!-- −0.25 -->
      <g transform="translate(20.878125 157.515895) scale(0.1 -0.1)">
       <use xlink:href="#DejaVuSans-2212"/>
       <use xlink:href="#DejaVuSans-30" transform="translate(83.789062 0)"/>
       <use xlink:href="#DejaVuSans-2e" transform="translate(147.412109 0)"/>
       <use xlink:href="#DejaVuSans-32" transform="translate(179.199219 0)"/>
       <use xlink:href="#DejaVuSans-35" transform="translate(242.822266 0)"/>
      </g>
     </g>
    </g>
    <g id="ytick_5">
     <g id="line2d_55">
      <g>
       <use xlink:href="#m0a3a73145f" x="58.523438" y="125.898652" style="stroke: #000000; stroke-width: 0.8"/>
      </g>
     </g>
     <g id="text_12">
      <!-- 0.00 -->
      <g transform="translate(29.257813 129.697871) scale(0.1 -0.1)">
       <use xlink:href="#DejaVuSans-30"/>
       <use xlink:href="#DejaVuSans-2e" transform="translate(63.623047 0)"/>
       <use xlink:href="#DejaVuSans-30" transform="translate(95.410156 0)"/>
       <use xlink:href="#DejaVuSans-30" transform="translate(159.033203 0)"/>
      </g>
     </g>
    </g>
    <g id="ytick_6">
     <g id="line2d_56">
      <g>
       <use xlink:href="#m0a3a73145f" x="58.523438" y="98.080628" style="stroke: #000000; stroke-width: 0.8"/>
      </g>
     </g>
     <g id="text_13">
      <!-- 0.25 -->
      <g transform="translate(29.257813 101.879847) scale(0.1 -0.1)">
       <use xlink:href="#DejaVuSans-30"/>
       <use xlink:href="#DejaVuSans-2e" transform="translate(63.623047 0)"/>
       <use xlink:href="#DejaVuSans-32" transform="translate(95.410156 0)"/>
       <use xlink:href="#DejaVuSans-35" transform="translate(159.033203 0)"/>
      </g>
     </g>
    </g>
    <g id="ytick_7">
     <g id="line2d_57">
      <g>
       <use xlink:href="#m0a3a73145f" x="58.523438" y="70.262604" style="stroke: #000000; stroke-width: 0.8"/>
      </g>
     </g>
     <g id="text_14">
      <!-- 0.50 -->
      <g transform="translate(29.257813 74.061822) scale(0.1 -0.1)">
       <use xlink:href="#DejaVuSans-30"/>
       <use xlink:href="#DejaVuSans-2e" transform="translate(63.623047 0)"/>
       <use xlink:href="#DejaVuSans-35" transform="translate(95.410156 0)"/>
       <use xlink:href="#DejaVuSans-30" transform="translate(159.033203 0)"/>
      </g>
     </g>
    </g>
    <g id="ytick_8">
     <g id="line2d_58">
      <g>
       <use xlink:href="#m0a3a73145f" x="58.523438" y="42.444579" style="stroke: #000000; stroke-width: 0.8"/>
      </g>
     </g>
     <g id="text_15">
      <!-- 0.75 -->
      <g transform="translate(29.257813 46.243798) scale(0.1 -0.1)">
       <use xlink:href="#DejaVuSans-30"/>
       <use xlink:href="#DejaVuSans-2e" transform="translate(63.623047 0)"/>
       <use xlink:href="#DejaVuSans-37" transform="translate(95.410156 0)"/>
       <use xlink:href="#DejaVuSans-35" transform="translate(159.033203 0)"/>
      </g>
     </g>
    </g>
    <g id="text_16">
     <!-- Coefficient value -->
     <g transform="translate(14.798438 172.369469) rotate(-90) scale(0.1 -0.1)">
      <defs>
       <path id="DejaVuSans-63" d="M 3122 3366 
L 3122 2828 
Q 2878 2963 2633 3030 
Q 2388 3097 2138 3097 
Q 1578 3097 1268 2742 
Q 959 2388 959 1747 
Q 959 1106 1268 751 
Q 1578 397 2138 397 
Q 2388 397 2633 464 
Q 2878 531 3122 666 
L 3122 134 
Q 2881 22 2623 -34 
Q 2366 -91 2075 -91 
Q 1284 -91 818 406 
Q 353 903 353 1747 
Q 353 2603 823 3093 
Q 1294 3584 2113 3584 
Q 2378 3584 2631 3529 
Q 2884 3475 3122 3366 
z
" transform="scale(0.015625)"/>
      </defs>
      <use xlink:href="#DejaVuSans-43"/>
      <use xlink:href="#DejaVuSans-6f" transform="translate(69.824219 0)"/>
      <use xlink:href="#DejaVuSans-65" transform="translate(131.005859 0)"/>
      <use xlink:href="#DejaVuSans-66" transform="translate(192.529297 0)"/>
      <use xlink:href="#DejaVuSans-66" transform="translate(227.734375 0)"/>
      <use xlink:href="#DejaVuSans-69" transform="translate(262.939453 0)"/>
      <use xlink:href="#DejaVuSans-63" transform="translate(290.722656 0)"/>
      <use xlink:href="#DejaVuSans-69" transform="translate(345.703125 0)"/>
      <use xlink:href="#DejaVuSans-65" transform="translate(373.486328 0)"/>
      <use xlink:href="#DejaVuSans-6e" transform="translate(435.009766 0)"/>
      <use xlink:href="#DejaVuSans-74" transform="translate(498.388672 0)"/>
      <use xlink:href="#DejaVuSans-20" transform="translate(537.597656 0)"/>
      <use xlink:href="#DejaVuSans-76" transform="translate(569.384766 0)"/>
      <use xlink:href="#DejaVuSans-61" transform="translate(628.564453 0)"/>
      <use xlink:href="#DejaVuSans-6c" transform="translate(689.84375 0)"/>
      <use xlink:href="#DejaVuSans-75" transform="translate(717.626953 0)"/>
      <use xlink:href="#DejaVuSans-65" transform="translate(781.005859 0)"/>
     </g>
    </g>
   </g>
   <g id="line2d_59">
    <path d="M 78.10571 125.751731 
L 91.610726 125.743861 
L 105.115742 125.754013 
L 118.620757 125.791872 
L 132.125773 125.848672 
L 145.630789 125.97045 
L 159.135804 126.110377 
L 172.64082 126.324436 
L 186.145836 126.580828 
L 199.650851 126.841122 
L 213.155867 127.18084 
L 226.660883 127.420605 
L 240.165898 127.650736 
L 253.670914 127.839436 
L 267.17593 127.994753 
L 280.680945 128.100101 
L 294.185961 128.174833 
L 307.690977 128.22802 
L 321.195992 128.265437 
L 334.701008 128.291393 
L 348.206024 128.309211 
L 361.711039 128.321356 
L 375.216055 128.329596 
L 388.721071 128.33517 
L 402.226086 128.338933 
L 415.731102 128.341469 
L 429.236118 128.343178 
L 442.741133 128.344328 
L 456.246149 128.345101 
L 469.751165 128.345622 
" clip-path="url(#p47b04dcc22)" style="fill: none; stroke: #1f77b4; stroke-width: 1.5; stroke-linecap: square"/>
   </g>
   <g id="line2d_60">
    <path d="M 78.10571 129.32246 
L 91.610726 130.816512 
L 105.115742 132.688579 
L 118.620757 134.91203 
L 132.125773 137.405507 
L 145.630789 140.054683 
L 159.135804 142.732818 
L 172.64082 145.33451 
L 186.145836 147.690766 
L 199.650851 149.752148 
L 213.155867 151.470759 
L 226.660883 152.855064 
L 240.165898 153.919501 
L 253.670914 154.711806 
L 267.17593 155.294679 
L 280.680945 155.703559 
L 294.185961 155.993827 
L 307.690977 156.195844 
L 321.195992 156.334495 
L 334.701008 156.428942 
L 348.206024 156.492998 
L 361.711039 156.536321 
L 375.216055 156.565566 
L 388.721071 156.585283 
L 402.226086 156.598564 
L 415.731102 156.607504 
L 429.236118 156.61352 
L 442.741133 156.617567 
L 456.246149 156.62029 
L 469.751165 156.62212 
" clip-path="url(#p47b04dcc22)" style="fill: none; stroke: #ff7f0e; stroke-width: 1.5; stroke-linecap: square"/>
   </g>
   <g id="line2d_61">
    <path d="M 78.10571 122.129165 
L 91.610726 122.091012 
L 105.115742 122.479514 
L 118.620757 123.39018 
L 132.125773 124.902985 
L 145.630789 126.996175 
L 159.135804 129.633218 
L 172.64082 132.687427 
L 186.145836 135.928527 
L 199.650851 139.209645 
L 213.155867 142.331403 
L 226.660883 145.143208 
L 240.165898 147.55243 
L 253.670914 149.51968 
L 267.17593 151.04873 
L 280.680945 152.195764 
L 294.185961 153.028488 
L 307.690977 153.621261 
L 321.195992 154.036541 
L 334.701008 154.323881 
L 348.206024 154.520916 
L 361.711039 154.655178 
L 375.216055 154.746271 
L 388.721071 154.807894 
L 402.226086 154.849498 
L 415.731102 154.877547 
L 429.236118 154.896442 
L 442.741133 154.909161 
L 456.246149 154.91772 
L 469.751165 154.923478 
" clip-path="url(#p47b04dcc22)" style="fill: none; stroke: #2ca02c; stroke-width: 1.5; stroke-linecap: square"/>
   </g>
   <g id="line2d_62">
    <path d="M 78.10571 128.665423 
L 91.610726 128.714946 
L 105.115742 128.554642 
L 118.620757 128.167267 
L 132.125773 127.551804 
L 145.630789 126.715855 
L 159.135804 125.719838 
L 172.64082 124.605582 
L 186.145836 123.432365 
L 199.650851 122.300193 
L 213.155867 121.223211 
L 226.660883 120.269465 
L 240.165898 119.462175 
L 253.670914 118.810251 
L 267.17593 118.307263 
L 280.680945 117.934258 
L 294.185961 117.665625 
L 307.690977 117.475223 
L 321.195992 117.342104 
L 334.701008 117.250107 
L 348.206024 117.187077 
L 361.711039 117.144154 
L 375.216055 117.115045 
L 388.721071 117.095359 
L 402.226086 117.082072 
L 415.731102 117.073115 
L 429.236118 117.067082 
L 442.741133 117.063021 
L 456.246149 117.060288 
L 469.751165 117.05845 
" clip-path="url(#p47b04dcc22)" style="fill: none; stroke: #d62728; stroke-width: 1.5; stroke-linecap: square"/>
   </g>
   <g id="line2d_63">
    <path d="M 78.10571 135.717964 
L 91.610726 136.935393 
L 105.115742 137.89869 
L 118.620757 138.580631 
L 132.125773 138.986223 
L 145.630789 139.156971 
L 159.135804 139.143506 
L 172.64082 138.997534 
L 186.145836 138.779271 
L 199.650851 138.537224 
L 213.155867 138.288126 
L 226.660883 138.062767 
L 240.165898 137.870471 
L 253.670914 137.718963 
L 267.17593 137.60507 
L 280.680945 137.521265 
L 294.185961 137.461354 
L 307.690977 137.419308 
L 321.195992 137.39018 
L 334.701008 137.37018 
L 348.206024 137.356535 
L 361.711039 137.347268 
L 375.216055 137.340994 
L 388.721071 137.336756 
L 402.226086 137.333898 
L 415.731102 137.331972 
L 429.236118 137.330676 
L 442.741133 137.329803 
L 456.246149 137.329216 
L 469.751165 137.328821 
" clip-path="url(#p47b04dcc22)" style="fill: none; stroke: #9467bd; stroke-width: 1.5; stroke-linecap: square"/>
   </g>
   <g id="line2d_64">
    <path d="M 78.10571 141.735667 
L 91.610726 145.996525 
L 105.115742 150.933004 
L 118.620757 156.541806 
L 132.125773 162.779178 
L 145.630789 169.568348 
L 159.135804 176.732229 
L 172.64082 184.098622 
L 186.145836 191.362196 
L 199.650851 198.24892 
L 213.155867 204.556958 
L 226.660883 210.07096 
L 240.165898 214.686106 
L 253.670914 218.382916 
L 267.17593 221.251801 
L 280.680945 223.363151 
L 294.185961 224.892406 
L 307.690977 225.978789 
L 321.195992 226.738275 
L 334.701008 227.262854 
L 348.206024 227.622098 
L 361.711039 227.866668 
L 375.216055 228.032499 
L 388.721071 228.144632 
L 402.226086 228.220315 
L 415.731102 228.271331 
L 429.236118 228.305692 
L 442.741133 228.328821 
L 456.246149 228.344383 
L 469.751165 228.354852 
" clip-path="url(#p47b04dcc22)" style="fill: none; stroke: #8c564b; stroke-width: 1.5; stroke-linecap: square"/>
   </g>
   <g id="line2d_65">
    <path d="M 78.10571 140.793664 
L 91.610726 144.610446 
L 105.115742 148.978495 
L 118.620757 153.888773 
L 132.125773 159.294766 
L 145.630789 165.108234 
L 159.135804 171.190994 
L 172.64082 177.390499 
L 186.145836 183.430415 
L 199.650851 189.12694 
L 213.155867 194.290604 
L 226.660883 198.777195 
L 240.165898 202.510051 
L 253.670914 205.486251 
L 267.17593 207.790361 
L 280.680945 209.481824 
L 294.185961 210.706792 
L 307.690977 211.576422 
L 321.195992 212.183843 
L 334.701008 212.603091 
L 348.206024 212.890061 
L 361.711039 213.085364 
L 375.216055 213.21776 
L 388.721071 213.307272 
L 402.226086 213.367682 
L 415.731102 213.4084 
L 429.236118 213.435824 
L 442.741133 213.454282 
L 456.246149 213.466703 
L 469.751165 213.475057 
" clip-path="url(#p47b04dcc22)" style="fill: none; stroke: #e377c2; stroke-width: 1.5; stroke-linecap: square"/>
   </g>
   <g id="line2d_66">
    <path d="M 78.10571 114.466016 
L 91.610726 110.83379 
L 105.115742 106.48992 
L 118.620757 101.447812 
L 132.125773 95.76619 
L 145.630789 89.531872 
L 159.135804 82.894018 
L 172.64082 76.006321 
L 186.145836 69.115375 
L 199.650851 62.474198 
L 213.155867 56.295375 
L 226.660883 50.819266 
L 240.165898 46.172777 
L 253.670914 42.423109 
L 267.17593 39.477767 
L 280.680945 37.307951 
L 294.185961 35.728596 
L 307.690977 34.602553 
L 321.195992 33.81351 
L 334.701008 33.267693 
L 348.206024 32.893528 
L 361.711039 32.638626 
L 375.216055 32.46571 
L 388.721071 32.348748 
L 402.226086 32.269791 
L 415.731102 32.216559 
L 429.236118 32.180703 
L 442.741133 32.156566 
L 456.246149 32.140324 
L 469.751165 32.129398 
" clip-path="url(#p47b04dcc22)" style="fill: none; stroke: #7f7f7f; stroke-width: 1.5; stroke-linecap: square"/>
   </g>
   <g id="line2d_67">
    <path d="M 58.523438 125.898652 
L 489.333438 125.898652 
" clip-path="url(#p47b04dcc22)" style="fill: none; stroke: #808080; stroke-width: 0.5; stroke-linecap: square"/>
   </g>
   <g id="patch_3">
    <path d="M 58.523438 238.166125 
L 58.523438 22.318125 
" style="fill: none; stroke: #000000; stroke-width: 0.8; stroke-linejoin: miter; stroke-linecap: square"/>
   </g>
   <g id="patch_4">
    <path d="M 489.333438 238.166125 
L 489.333438 22.318125 
" style="fill: none; stroke: #000000; stroke-width: 0.8; stroke-linejoin: miter; stroke-linecap: square"/>
   </g>
   <g id="patch_5">
    <path d="M 58.523438 238.166125 
L 489.333438 238.166125 
" style="fill: none; stroke: #000000; stroke-width: 0.8; stroke-linejoin: miter; stroke-linecap: square"/>
   </g>
   <g id="patch_6">
    <path d="M 58.523438 22.318125 
L 489.333438 22.318125 
" style="fill: none; stroke: #000000; stroke-width: 0.8; stroke-linejoin: miter; stroke-linecap: square"/>
   </g>
   <g id="text_17">
    <!-- L2 regularization: small C shrinks coefficients toward 0 -->
    <g transform="translate(109.24625 16.318125) scale(0.12 -0.12)">
     <defs>
      <path id="DejaVuSans-4c" d="M 628 4666 
L 1259 4666 
L 1259 531 
L 3531 531 
L 3531 0 
L 628 0 
L 628 4666 
z
" transform="scale(0.015625)"/>
      <path id="DejaVuSans-3a" d="M 750 794 
L 1409 794 
L 1409 0 
L 750 0 
L 750 794 
z
M 750 3309 
L 1409 3309 
L 1409 2516 
L 750 2516 
L 750 3309 
z
" transform="scale(0.015625)"/>
      <path id="DejaVuSans-6d" d="M 3328 2828 
Q 3544 3216 3844 3400 
Q 4144 3584 4550 3584 
Q 5097 3584 5394 3201 
Q 5691 2819 5691 2113 
L 5691 0 
L 5113 0 
L 5113 2094 
Q 5113 2597 4934 2840 
Q 4756 3084 4391 3084 
Q 3944 3084 3684 2787 
Q 3425 2491 3425 1978 
L 3425 0 
L 2847 0 
L 2847 2094 
Q 2847 2600 2669 2842 
Q 2491 3084 2119 3084 
Q 1678 3084 1418 2786 
Q 1159 2488 1159 1978 
L 1159 0 
L 581 0 
L 581 3500 
L 1159 3500 
L 1159 2956 
Q 1356 3278 1631 3431 
Q 1906 3584 2284 3584 
Q 2666 3584 2933 3390 
Q 3200 3197 3328 2828 
z
" transform="scale(0.015625)"/>
      <path id="DejaVuSans-6b" d="M 581 4863 
L 1159 4863 
L 1159 1991 
L 2875 3500 
L 3609 3500 
L 1753 1863 
L 3688 0 
L 2938 0 
L 1159 1709 
L 1159 0 
L 581 0 
L 581 4863 
z
" transform="scale(0.015625)"/>
      <path id="DejaVuSans-77" d="M 269 3500 
L 844 3500 
L 1563 769 
L 2278 3500 
L 2956 3500 
L 3675 769 
L 4391 3500 
L 4966 3500 
L 4050 0 
L 3372 0 
L 2619 2869 
L 1863 0 
L 1184 0 
L 269 3500 
z
" transform="scale(0.015625)"/>
      <path id="DejaVuSans-64" d="M 2906 2969 
L 2906 4863 
L 3481 4863 
L 3481 0 
L 2906 0 
L 2906 525 
Q 2725 213 2448 61 
Q 2172 -91 1784 -91 
Q 1150 -91 751 415 
Q 353 922 353 1747 
Q 353 2572 751 3078 
Q 1150 3584 1784 3584 
Q 2172 3584 2448 3432 
Q 2725 3281 2906 2969 
z
M 947 1747 
Q 947 1113 1208 752 
Q 1469 391 1925 391 
Q 2381 391 2643 752 
Q 2906 1113 2906 1747 
Q 2906 2381 2643 2742 
Q 2381 3103 1925 3103 
Q 1469 3103 1208 2742 
Q 947 2381 947 1747 
z
" transform="scale(0.015625)"/>
     </defs>
     <use xlink:href="#DejaVuSans-4c"/>
     <use xlink:href="#DejaVuSans-32" transform="translate(55.712891 0)"/>
     <use xlink:href="#DejaVuSans-20" transform="translate(119.335938 0)"/>
     <use xlink:href="#DejaVuSans-72" transform="translate(151.123047 0)"/>
     <use xlink:href="#DejaVuSans-65" transform="translate(189.986328 0)"/>
     <use xlink:href="#DejaVuSans-67" transform="translate(251.509766 0)"/>
     <use xlink:href="#DejaVuSans-75" transform="translate(314.986328 0)"/>
     <use xlink:href="#DejaVuSans-6c" transform="translate(378.365234 0)"/>
     <use xlink:href="#DejaVuSans-61" transform="translate(406.148438 0)"/>
     <use xlink:href="#DejaVuSans-72" transform="translate(467.427734 0)"/>
     <use xlink:href="#DejaVuSans-69" transform="translate(508.541016 0)"/>
     <use xlink:href="#DejaVuSans-7a" transform="translate(536.324219 0)"/>
     <use xlink:href="#DejaVuSans-61" transform="translate(588.814453 0)"/>
     <use xlink:href="#DejaVuSans-74" transform="translate(650.09375 0)"/>
     <use xlink:href="#DejaVuSans-69" transform="translate(689.302734 0)"/>
     <use xlink:href="#DejaVuSans-6f" transform="translate(717.085938 0)"/>
     <use xlink:href="#DejaVuSans-6e" transform="translate(778.267578 0)"/>
     <use xlink:href="#DejaVuSans-3a" transform="translate(841.646484 0)"/>
     <use xlink:href="#DejaVuSans-20" transform="translate(875.337891 0)"/>
     <use xlink:href="#DejaVuSans-73" transform="translate(907.125 0)"/>
     <use xlink:href="#DejaVuSans-6d" transform="translate(959.224609 0)"/>
     <use xlink:href="#DejaVuSans-61" transform="translate(1056.636719 0)"/>
     <use xlink:href="#DejaVuSans-6c" transform="translate(1117.916016 0)"/>
     <use xlink:href="#DejaVuSans-6c" transform="translate(1145.699219 0)"/>
     <use xlink:href="#DejaVuSans-20" transform="translate(1173.482422 0)"/>
     <use xlink:href="#DejaVuSans-43" transform="translate(1205.269531 0)"/>
     <use xlink:href="#DejaVuSans-20" transform="translate(1275.09375 0)"/>
     <use xlink:href="#DejaVuSans-73" transform="translate(1306.880859 0)"/>
     <use xlink:href="#DejaVuSans-68" transform="translate(1358.980469 0)"/>
     <use xlink:href="#DejaVuSans-72" transform="translate(1422.359375 0)"/>
     <use xlink:href="#DejaVuSans-69" transform="translate(1463.472656 0)"/>
     <use xlink:href="#DejaVuSans-6e" transform="translate(1491.255859 0)"/>
     <use xlink:href="#DejaVuSans-6b" transform="translate(1554.634766 0)"/>
     <use xlink:href="#DejaVuSans-73" transform="translate(1612.544922 0)"/>
     <use xlink:href="#DejaVuSans-20" transform="translate(1664.644531 0)"/>
     <use xlink:href="#DejaVuSans-63" transform="translate(1696.431641 0)"/>
     <use xlink:href="#DejaVuSans-6f" transform="translate(1751.412109 0)"/>
     <use xlink:href="#DejaVuSans-65" transform="translate(1812.59375 0)"/>
     <use xlink:href="#DejaVuSans-66" transform="translate(1874.117188 0)"/>
     <use xlink:href="#DejaVuSans-66" transform="translate(1909.322266 0)"/>
     <use xlink:href="#DejaVuSans-69" transform="translate(1944.527344 0)"/>
     <use xlink:href="#DejaVuSans-63" transform="translate(1972.310547 0)"/>
     <use xlink:href="#DejaVuSans-69" transform="translate(2027.291016 0)"/>
     <use xlink:href="#DejaVuSans-65" transform="translate(2055.074219 0)"/>
     <use xlink:href="#DejaVuSans-6e" transform="translate(2116.597656 0)"/>
     <use xlink:href="#DejaVuSans-74" transform="translate(2179.976562 0)"/>
     <use xlink:href="#DejaVuSans-73" transform="translate(2219.185547 0)"/>
     <use xlink:href="#DejaVuSans-20" transform="translate(2271.285156 0)"/>
     <use xlink:href="#DejaVuSans-74" transform="translate(2303.072266 0)"/>
     <use xlink:href="#DejaVuSans-6f" transform="translate(2342.28125 0)"/>
     <use xlink:href="#DejaVuSans-77" transform="translate(2403.462891 0)"/>
     <use xlink:href="#DejaVuSans-61" transform="translate(2485.25 0)"/>
     <use xlink:href="#DejaVuSans-72" transform="translate(2546.529297 0)"/>
     <use xlink:href="#DejaVuSans-64" transform="translate(2585.892578 0)"/>
     <use xlink:href="#DejaVuSans-20" transform="translate(2649.369141 0)"/>
     <use xlink:href="#DejaVuSans-30" transform="translate(2681.15625 0)"/>
    </g>
   </g>
   <g id="legend_1">
    <g id="patch_7">
     <path d="M 64.123437 75.688125 
L 151.388438 75.688125 
Q 152.988438 75.688125 152.988438 74.088125 
L 152.988438 27.918125 
Q 152.988438 26.318125 151.388438 26.318125 
L 64.123437 26.318125 
Q 62.523438 26.318125 62.523438 27.918125 
L 62.523438 74.088125 
Q 62.523438 75.688125 64.123437 75.688125 
z
" style="fill: #ffffff; opacity: 0.8; stroke: #cccccc; stroke-linejoin: miter"/>
    </g>
    <g id="line2d_68">
     <path d="M 65.723438 32.796875 
L 73.723438 32.796875 
L 81.723438 32.796875 
" style="fill: none; stroke: #1f77b4; stroke-width: 1.5; stroke-linecap: square"/>
    </g>
    <g id="text_18">
     <!-- w1 -->
     <g transform="translate(88.123437 35.596875) scale(0.08 -0.08)">
      <use xlink:href="#DejaVuSans-77"/>
      <use xlink:href="#DejaVuSans-31" transform="translate(81.787109 0)"/>
     </g>
    </g>
    <g id="line2d_69">
     <path d="M 65.723438 44.539375 
L 73.723438 44.539375 
L 81.723438 44.539375 
" style="fill: none; stroke: #ff7f0e; stroke-width: 1.5; stroke-linecap: square"/>
    </g>
    <g id="text_19">
     <!-- w2 -->
     <g transform="translate(88.123437 47.339375) scale(0.08 -0.08)">
      <use xlink:href="#DejaVuSans-77"/>
      <use xlink:href="#DejaVuSans-32" transform="translate(81.787109 0)"/>
     </g>
    </g>
    <g id="line2d_70">
     <path d="M 65.723438 56.281875 
L 73.723438 56.281875 
L 81.723438 56.281875 
" style="fill: none; stroke: #2ca02c; stroke-width: 1.5; stroke-linecap: square"/>
    </g>
    <g id="text_20">
     <!-- w3 -->
     <g transform="translate(88.123437 59.081875) scale(0.08 -0.08)">
      <use xlink:href="#DejaVuSans-77"/>
      <use xlink:href="#DejaVuSans-33" transform="translate(81.787109 0)"/>
     </g>
    </g>
    <g id="line2d_71">
     <path d="M 65.723438 68.024375 
L 73.723438 68.024375 
L 81.723438 68.024375 
" style="fill: none; stroke: #d62728; stroke-width: 1.5; stroke-linecap: square"/>
    </g>
    <g id="text_21">
     <!-- w4 -->
     <g transform="translate(88.123437 70.824375) scale(0.08 -0.08)">
      <defs>
       <path id="DejaVuSans-34" d="M 2419 4116 
L 825 1625 
L 2419 1625 
L 2419 4116 
z
M 2253 4666 
L 3047 4666 
L 3047 1625 
L 3713 1625 
L 3713 1100 
L 3047 1100 
L 3047 0 
L 2419 0 
L 2419 1100 
L 313 1100 
L 313 1709 
L 2253 4666 
z
" transform="scale(0.015625)"/>
      </defs>
      <use xlink:href="#DejaVuSans-77"/>
      <use xlink:href="#DejaVuSans-34" transform="translate(81.787109 0)"/>
     </g>
    </g>
    <g id="line2d_72">
     <path d="M 115.755938 32.796875 
L 123.755938 32.796875 
L 131.755938 32.796875 
" style="fill: none; stroke: #9467bd; stroke-width: 1.5; stroke-linecap: square"/>
    </g>
    <g id="text_22">
     <!-- w5 -->
     <g transform="translate(138.155937 35.596875) scale(0.08 -0.08)">
      <use xlink:href="#DejaVuSans-77"/>
      <use xlink:href="#DejaVuSans-35" transform="translate(81.787109 0)"/>
     </g>
    </g>
    <g id="line2d_73">
     <path d="M 115.755938 44.539375 
L 123.755938 44.539375 
L 131.755938 44.539375 
" style="fill: none; stroke: #8c564b; stroke-width: 1.5; stroke-linecap: square"/>
    </g>
    <g id="text_23">
     <!-- w6 -->
     <g transform="translate(138.155937 47.339375) scale(0.08 -0.08)">
      <defs>
       <path id="DejaVuSans-36" d="M 2113 2584 
Q 1688 2584 1439 2293 
Q 1191 2003 1191 1497 
Q 1191 994 1439 701 
Q 1688 409 2113 409 
Q 2538 409 2786 701 
Q 3034 994 3034 1497 
Q 3034 2003 2786 2293 
Q 2538 2584 2113 2584 
z
M 3366 4563 
L 3366 3988 
Q 3128 4100 2886 4159 
Q 2644 4219 2406 4219 
Q 1781 4219 1451 3797 
Q 1122 3375 1075 2522 
Q 1259 2794 1537 2939 
Q 1816 3084 2150 3084 
Q 2853 3084 3261 2657 
Q 3669 2231 3669 1497 
Q 3669 778 3244 343 
Q 2819 -91 2113 -91 
Q 1303 -91 875 529 
Q 447 1150 447 2328 
Q 447 3434 972 4092 
Q 1497 4750 2381 4750 
Q 2619 4750 2861 4703 
Q 3103 4656 3366 4563 
z
" transform="scale(0.015625)"/>
      </defs>
      <use xlink:href="#DejaVuSans-77"/>
      <use xlink:href="#DejaVuSans-36" transform="translate(81.787109 0)"/>
     </g>
    </g>
    <g id="line2d_74">
     <path d="M 115.755938 56.281875 
L 123.755938 56.281875 
L 131.755938 56.281875 
" style="fill: none; stroke: #e377c2; stroke-width: 1.5; stroke-linecap: square"/>
    </g>
    <g id="text_24">
     <!-- w7 -->
     <g transform="translate(138.155937 59.081875) scale(0.08 -0.08)">
      <use xlink:href="#DejaVuSans-77"/>
      <use xlink:href="#DejaVuSans-37" transform="translate(81.787109 0)"/>
     </g>
    </g>
    <g id="line2d_75">
     <path d="M 115.755938 68.024375 
L 123.755938 68.024375 
L 131.755938 68.024375 
" style="fill: none; stroke: #7f7f7f; stroke-width: 1.5; stroke-linecap: square"/>
    </g>
    <g id="text_25">
     <!-- w8 -->
     <g transform="translate(138.155937 70.824375) scale(0.08 -0.08)">
      <defs>
       <path id="DejaVuSans-38" d="M 2034 2216 
Q 1584 2216 1326 1975 
Q 1069 1734 1069 1313 
Q 1069 891 1326 650 
Q 1584 409 2034 409 
Q 2484 409 2743 651 
Q 3003 894 3003 1313 
Q 3003 1734 2745 1975 
Q 2488 2216 2034 2216 
z
M 1403 2484 
Q 997 2584 770 2862 
Q 544 3141 544 3541 
Q 544 4100 942 4425 
Q 1341 4750 2034 4750 
Q 2731 4750 3128 4425 
Q 3525 4100 3525 3541 
Q 3525 3141 3298 2862 
Q 3072 2584 2669 2484 
Q 3125 2378 3379 2068 
Q 3634 1759 3634 1313 
Q 3634 634 3220 271 
Q 2806 -91 2034 -91 
Q 1263 -91 848 271 
Q 434 634 434 1313 
Q 434 1759 690 2068 
Q 947 2378 1403 2484 
z
M 1172 3481 
Q 1172 3119 1398 2916 
Q 1625 2713 2034 2713 
Q 2441 2713 2670 2916 
Q 2900 3119 2900 3481 
Q 2900 3844 2670 4047 
Q 2441 4250 2034 4250 
Q 1625 4250 1398 4047 
Q 1172 3844 1172 3481 
z
" transform="scale(0.015625)"/>
      </defs>
      <use xlink:href="#DejaVuSans-77"/>
      <use xlink:href="#DejaVuSans-38" transform="translate(81.787109 0)"/>
     </g>
    </g>
   </g>
  </g>
 </g>
 <defs>
  <clipPath id="p47b04dcc22">
   <rect x="58.523438" y="22.318125" width="430.81" height="215.848"/>
  </clipPath>
 </defs>
</svg>
