<?xml version="1.0" encoding="utf-8" standalone="no"?>
<!DOCTYPE svg PUBLIC "-//W3C//DTD SVG 1.1//EN"
  "http://www.w3.org/Graphics/SVG/1.1/DTD/svg11.dtd">
<svg xmlns:xlink="http://www.w3.org/1999/xlink" width="571.101103pt" height="387.034375pt" viewBox="0 0 571.101103 387.034375" xmlns="http://www.w3.org/2000/svg" version="1.1">
 <metadata>
  <rdf:RDF xmlns:dc="http://purl.org/dc/elements/1.1/" xmlns:cc="http://creativecommons.org/ns#" xmlns:rdf="http://www.w3.org/1999/02/22-rdf-syntax-ns#">
   <cc:Work>
    <dc:type rdf:resource="http://purl.org/dc/dcmitype/StillImage"/>
    <dc:date>2026-05-24T21:37:35.371197</dc:date>
    <dc:format>image/svg+xml</dc:format>
    <dc:creator>
     <cc:Agent>
      <dc:title>Matplotlib v3.10.8, https://matplotlib.org/</dc:title>
     </cc:Agent>
    </dc:creator>
   </cc:Work>
  </rdf:RDF>
 </metadata>
 <defs>
  <style type="text/css">*{stroke-linejoin: round; stroke-linecap: butt}</style>
 </defs>
 <g id="figure_1">
  <g id="patch_1">
   <path d="M 0 387.034375 
L 571.101103 387.034375 
L 571.101103 0 
L 0 0 
z
" style="fill: #ffffff"/>
  </g>
  <g id="axes_1">
   <g id="patch_2">
    <path d="M 40.603125 156.878125 
L 278.633125 156.878125 
L 278.633125 22.318125 
L 40.603125 22.318125 
z
" style="fill: #ffffff"/>
   </g>
   <g id="patch_3">
    <path d="M 51.42267 156.878125 
L 58.635701 156.878125 
L 58.635701 78.562781 
L 51.42267 78.562781 
z
" clip-path="url(#p4e814f195f)" style="fill: #7aa6c2; stroke: #ffffff; stroke-linejoin: miter"/>
   </g>
   <g id="patch_4">
    <path d="M 58.635701 156.878125 
L 65.848731 156.878125 
L 65.848731 103.4813 
L 58.635701 103.4813 
z
" clip-path="url(#p4e814f195f)" style="fill: #7aa6c2; stroke: #ffffff; stroke-linejoin: miter"/>
   </g>
   <g id="patch_5">
    <path d="M 65.848731 156.878125 
L 73.061761 156.878125 
L 73.061761 85.682358 
L 65.848731 85.682358 
z
" clip-path="url(#p4e814f195f)" style="fill: #7aa6c2; stroke: #ffffff; stroke-linejoin: miter"/>
   </g>
   <g id="patch_6">
    <path d="M 73.061761 156.878125 
L 80.274792 156.878125 
L 80.274792 75.002993 
L 73.061761 75.002993 
z
" clip-path="url(#p4e814f195f)" style="fill: #7aa6c2; stroke: #ffffff; stroke-linejoin: miter"/>
   </g>
   <g id="patch_7">
    <path d="M 80.274792 156.878125 
L 87.487822 156.878125 
L 87.487822 96.361723 
L 80.274792 96.361723 
z
" clip-path="url(#p4e814f195f)" style="fill: #7aa6c2; stroke: #ffffff; stroke-linejoin: miter"/>
   </g>
   <g id="patch_8">
    <path d="M 87.487822 156.878125 
L 94.700852 156.878125 
L 94.700852 71.443204 
L 87.487822 71.443204 
z
" clip-path="url(#p4e814f195f)" style="fill: #7aa6c2; stroke: #ffffff; stroke-linejoin: miter"/>
   </g>
   <g id="patch_9">
    <path d="M 94.700852 156.878125 
L 101.913883 156.878125 
L 101.913883 53.644263 
L 94.700852 53.644263 
z
" clip-path="url(#p4e814f195f)" style="fill: #7aa6c2; stroke: #ffffff; stroke-linejoin: miter"/>
   </g>
   <g id="patch_10">
    <path d="M 101.913883 156.878125 
L 109.126913 156.878125 
L 109.126913 57.204051 
L 101.913883 57.204051 
z
" clip-path="url(#p4e814f195f)" style="fill: #7aa6c2; stroke: #ffffff; stroke-linejoin: miter"/>
   </g>
   <g id="patch_11">
    <path d="M 109.126913 156.878125 
L 116.339943 156.878125 
L 116.339943 28.725744 
L 109.126913 28.725744 
z
" clip-path="url(#p4e814f195f)" style="fill: #7aa6c2; stroke: #ffffff; stroke-linejoin: miter"/>
   </g>
   <g id="patch_12">
    <path d="M 116.339943 156.878125 
L 123.552973 156.878125 
L 123.552973 46.524686 
L 116.339943 46.524686 
z
" clip-path="url(#p4e814f195f)" style="fill: #7aa6c2; stroke: #ffffff; stroke-linejoin: miter"/>
   </g>
   <g id="patch_13">
    <path d="M 123.552973 156.878125 
L 130.766004 156.878125 
L 130.766004 64.323628 
L 123.552973 64.323628 
z
" clip-path="url(#p4e814f195f)" style="fill: #7aa6c2; stroke: #ffffff; stroke-linejoin: miter"/>
   </g>
   <g id="patch_14">
    <path d="M 130.766004 156.878125 
L 137.979034 156.878125 
L 137.979034 50.084474 
L 130.766004 50.084474 
z
" clip-path="url(#p4e814f195f)" style="fill: #7aa6c2; stroke: #ffffff; stroke-linejoin: miter"/>
   </g>
   <g id="patch_15">
    <path d="M 137.979034 156.878125 
L 145.192064 156.878125 
L 145.192064 39.405109 
L 137.979034 39.405109 
z
" clip-path="url(#p4e814f195f)" style="fill: #7aa6c2; stroke: #ffffff; stroke-linejoin: miter"/>
   </g>
   <g id="patch_16">
    <path d="M 145.192064 156.878125 
L 152.405095 156.878125 
L 152.405095 99.921511 
L 145.192064 99.921511 
z
" clip-path="url(#p4e814f195f)" style="fill: #7aa6c2; stroke: #ffffff; stroke-linejoin: miter"/>
   </g>
   <g id="patch_17">
    <path d="M 152.405095 156.878125 
L 159.618125 156.878125 
L 159.618125 60.763839 
L 152.405095 60.763839 
z
" clip-path="url(#p4e814f195f)" style="fill: #7aa6c2; stroke: #ffffff; stroke-linejoin: miter"/>
   </g>
   <g id="patch_18">
    <path d="M 159.618125 156.878125 
L 166.831155 156.878125 
L 166.831155 67.883416 
L 159.618125 67.883416 
z
" clip-path="url(#p4e814f195f)" style="fill: #7aa6c2; stroke: #ffffff; stroke-linejoin: miter"/>
   </g>
   <g id="patch_19">
    <path d="M 166.831155 156.878125 
L 174.044186 156.878125 
L 174.044186 103.4813 
L 166.831155 103.4813 
z
" clip-path="url(#p4e814f195f)" style="fill: #7aa6c2; stroke: #ffffff; stroke-linejoin: miter"/>
   </g>
   <g id="patch_20">
    <path d="M 174.044186 156.878125 
L 181.257216 156.878125 
L 181.257216 67.883416 
L 174.044186 67.883416 
z
" clip-path="url(#p4e814f195f)" style="fill: #7aa6c2; stroke: #ffffff; stroke-linejoin: miter"/>
   </g>
   <g id="patch_21">
    <path d="M 181.257216 156.878125 
L 188.470246 156.878125 
L 188.470246 114.160665 
L 181.257216 114.160665 
z
" clip-path="url(#p4e814f195f)" style="fill: #7aa6c2; stroke: #ffffff; stroke-linejoin: miter"/>
   </g>
   <g id="patch_22">
    <path d="M 188.470246 156.878125 
L 195.683277 156.878125 
L 195.683277 99.921511 
L 188.470246 99.921511 
z
" clip-path="url(#p4e814f195f)" style="fill: #7aa6c2; stroke: #ffffff; stroke-linejoin: miter"/>
   </g>
   <g id="patch_23">
    <path d="M 195.683277 156.878125 
L 202.896307 156.878125 
L 202.896307 128.399818 
L 195.683277 128.399818 
z
" clip-path="url(#p4e814f195f)" style="fill: #7aa6c2; stroke: #ffffff; stroke-linejoin: miter"/>
   </g>
   <g id="patch_24">
    <path d="M 202.896307 156.878125 
L 210.109337 156.878125 
L 210.109337 131.959606 
L 202.896307 131.959606 
z
" clip-path="url(#p4e814f195f)" style="fill: #7aa6c2; stroke: #ffffff; stroke-linejoin: miter"/>
   </g>
   <g id="patch_25">
    <path d="M 210.109337 156.878125 
L 217.322367 156.878125 
L 217.322367 142.638972 
L 210.109337 142.638972 
z
" clip-path="url(#p4e814f195f)" style="fill: #7aa6c2; stroke: #ffffff; stroke-linejoin: miter"/>
   </g>
   <g id="patch_26">
    <path d="M 217.322367 156.878125 
L 224.535398 156.878125 
L 224.535398 135.519395 
L 217.322367 135.519395 
z
" clip-path="url(#p4e814f195f)" style="fill: #7aa6c2; stroke: #ffffff; stroke-linejoin: miter"/>
   </g>
   <g id="patch_27">
    <path d="M 224.535398 156.878125 
L 231.748428 156.878125 
L 231.748428 156.878125 
L 224.535398 156.878125 
z
" clip-path="url(#p4e814f195f)" style="fill: #7aa6c2; stroke: #ffffff; stroke-linejoin: miter"/>
   </g>
   <g id="patch_28">
    <path d="M 231.748428 156.878125 
L 238.961458 156.878125 
L 238.961458 149.758548 
L 231.748428 149.758548 
z
" clip-path="url(#p4e814f195f)" style="fill: #7aa6c2; stroke: #ffffff; stroke-linejoin: miter"/>
   </g>
   <g id="patch_29">
    <path d="M 238.961458 156.878125 
L 246.174489 156.878125 
L 246.174489 153.318337 
L 238.961458 153.318337 
z
" clip-path="url(#p4e814f195f)" style="fill: #7aa6c2; stroke: #ffffff; stroke-linejoin: miter"/>
   </g>
   <g id="patch_30">
    <path d="M 246.174489 156.878125 
L 253.387519 156.878125 
L 253.387519 156.878125 
L 246.174489 156.878125 
z
" clip-path="url(#p4e814f195f)" style="fill: #7aa6c2; stroke: #ffffff; stroke-linejoin: miter"/>
   </g>
   <g id="patch_31">
    <path d="M 253.387519 156.878125 
L 260.600549 156.878125 
L 260.600549 153.318337 
L 253.387519 153.318337 
z
" clip-path="url(#p4e814f195f)" style="fill: #7aa6c2; stroke: #ffffff; stroke-linejoin: miter"/>
   </g>
   <g id="patch_32">
    <path d="M 260.600549 156.878125 
L 267.81358 156.878125 
L 267.81358 153.318337 
L 260.600549 153.318337 
z
" clip-path="url(#p4e814f195f)" style="fill: #7aa6c2; stroke: #ffffff; stroke-linejoin: miter"/>
   </g>
   <g id="matplotlib.axis_1">
    <g id="xtick_1">
     <g id="line2d_1">
      <defs>
       <path id="m0195d2f370" d="M 0 0 
L 0 3.5 
" style="stroke: #000000; stroke-width: 0.8"/>
      </defs>
      <g>
       <use xlink:href="#m0195d2f370" x="51.42267" y="156.878125" style="stroke: #000000; stroke-width: 0.8"/>
      </g>
     </g>
     <g id="text_1">
      <!-- 0 -->
      <g transform="translate(48.24142 171.476562) scale(0.1 -0.1)">
       <defs>
        <path id="DejaVuSans-30" d="M 2034 4250 
Q 1547 4250 1301 3770 
Q 1056 3291 1056 2328 
Q 1056 1369 1301 889 
Q 1547 409 2034 409 
Q 2525 409 2770 889 
Q 3016 1369 3016 2328 
Q 3016 3291 2770 3770 
Q 2525 4250 2034 4250 
z
M 2034 4750 
Q 2819 4750 3233 4129 
Q 3647 3509 3647 2328 
Q 3647 1150 3233 529 
Q 2819 -91 2034 -91 
Q 1250 -91 836 529 
Q 422 1150 422 2328 
Q 422 3509 836 4129 
Q 1250 4750 2034 4750 
z
" transform="scale(0.015625)"/>
       </defs>
       <use xlink:href="#DejaVuSans-30"/>
      </g>
     </g>
    </g>
    <g id="xtick_2">
     <g id="line2d_2">
      <g>
       <use xlink:href="#m0195d2f370" x="89.524732" y="156.878125" style="stroke: #000000; stroke-width: 0.8"/>
      </g>
     </g>
     <g id="text_2">
      <!-- 25000 -->
      <g transform="translate(73.618482 171.476562) scale(0.1 -0.1)">
       <defs>
        <path id="DejaVuSans-32" d="M 1228 531 
L 3431 531 
L 3431 0 
L 469 0 
L 469 531 
Q 828 903 1448 1529 
Q 2069 2156 2228 2338 
Q 2531 2678 2651 2914 
Q 2772 3150 2772 3378 
Q 2772 3750 2511 3984 
Q 2250 4219 1831 4219 
Q 1534 4219 1204 4116 
Q 875 4013 500 3803 
L 500 4441 
Q 881 4594 1212 4672 
Q 1544 4750 1819 4750 
Q 2544 4750 2975 4387 
Q 3406 4025 3406 3419 
Q 3406 3131 3298 2873 
Q 3191 2616 2906 2266 
Q 2828 2175 2409 1742 
Q 1991 1309 1228 531 
z
" transform="scale(0.015625)"/>
        <path id="DejaVuSans-35" d="M 691 4666 
L 3169 4666 
L 3169 4134 
L 1269 4134 
L 1269 2991 
Q 1406 3038 1543 3061 
Q 1681 3084 1819 3084 
Q 2600 3084 3056 2656 
Q 3513 2228 3513 1497 
Q 3513 744 3044 326 
Q 2575 -91 1722 -91 
Q 1428 -91 1123 -41 
Q 819 9 494 109 
L 494 744 
Q 775 591 1075 516 
Q 1375 441 1709 441 
Q 2250 441 2565 725 
Q 2881 1009 2881 1497 
Q 2881 1984 2565 2268 
Q 2250 2553 1709 2553 
Q 1456 2553 1204 2497 
Q 953 2441 691 2322 
L 691 4666 
z
" transform="scale(0.015625)"/>
       </defs>
       <use xlink:href="#DejaVuSans-32"/>
       <use xlink:href="#DejaVuSans-35" transform="translate(63.623047 0)"/>
       <use xlink:href="#DejaVuSans-30" transform="translate(127.246094 0)"/>
       <use xlink:href="#DejaVuSans-30" transform="translate(190.869141 0)"/>
       <use xlink:href="#DejaVuSans-30" transform="translate(254.492188 0)"/>
      </g>
     </g>
    </g>
    <g id="xtick_3">
     <g id="line2d_3">
      <g>
       <use xlink:href="#m0195d2f370" x="127.626794" y="156.878125" style="stroke: #000000; stroke-width: 0.8"/>
      </g>
     </g>
     <g id="text_3">
      <!-- 50000 -->
      <g transform="translate(111.720544 171.476562) scale(0.1 -0.1)">
       <use xlink:href="#DejaVuSans-35"/>
       <use xlink:href="#DejaVuSans-30" transform="translate(63.623047 0)"/>
       <use xlink:href="#DejaVuSans-30" transform="translate(127.246094 0)"/>
       <use xlink:href="#DejaVuSans-30" transform="translate(190.869141 0)"/>
       <use xlink:href="#DejaVuSans-30" transform="translate(254.492188 0)"/>
      </g>
     </g>
    </g>
    <g id="xtick_4">
     <g id="line2d_4">
      <g>
       <use xlink:href="#m0195d2f370" x="165.728856" y="156.878125" style="stroke: #000000; stroke-width: 0.8"/>
      </g>
     </g>
     <g id="text_4">
      <!-- 75000 -->
      <g transform="translate(149.822606 171.476562) scale(0.1 -0.1)">
       <defs>
        <path id="DejaVuSans-37" d="M 525 4666 
L 3525 4666 
L 3525 4397 
L 1831 0 
L 1172 0 
L 2766 4134 
L 525 4134 
L 525 4666 
z
" transform="scale(0.015625)"/>
       </defs>
       <use xlink:href="#DejaVuSans-37"/>
       <use xlink:href="#DejaVuSans-35" transform="translate(63.623047 0)"/>
       <use xlink:href="#DejaVuSans-30" transform="translate(127.246094 0)"/>
       <use xlink:href="#DejaVuSans-30" transform="translate(190.869141 0)"/>
       <use xlink:href="#DejaVuSans-30" transform="translate(254.492188 0)"/>
      </g>
     </g>
    </g>
    <g id="xtick_5">
     <g id="line2d_5">
      <g>
       <use xlink:href="#m0195d2f370" x="203.830918" y="156.878125" style="stroke: #000000; stroke-width: 0.8"/>
      </g>
     </g>
     <g id="text_5">
      <!-- 100000 -->
      <g transform="translate(184.743418 171.476562) scale(0.1 -0.1)">
       <defs>
        <path id="DejaVuSans-31" d="M 794 531 
L 1825 531 
L 1825 4091 
L 703 3866 
L 703 4441 
L 1819 4666 
L 2450 4666 
L 2450 531 
L 3481 531 
L 3481 0 
L 794 0 
L 794 531 
z
" transform="scale(0.015625)"/>
       </defs>
       <use xlink:href="#DejaVuSans-31"/>
       <use xlink:href="#DejaVuSans-30" transform="translate(63.623047 0)"/>
       <use xlink:href="#DejaVuSans-30" transform="translate(127.246094 0)"/>
       <use xlink:href="#DejaVuSans-30" transform="translate(190.869141 0)"/>
       <use xlink:href="#DejaVuSans-30" transform="translate(254.492188 0)"/>
       <use xlink:href="#DejaVuSans-30" transform="translate(318.115234 0)"/>
      </g>
     </g>
    </g>
    <g id="xtick_6">
     <g id="line2d_6">
      <g>
       <use xlink:href="#m0195d2f370" x="241.932979" y="156.878125" style="stroke: #000000; stroke-width: 0.8"/>
      </g>
     </g>
     <g id="text_6">
      <!-- 125000 -->
      <g transform="translate(222.845479 171.476562) scale(0.1 -0.1)">
       <use xlink:href="#DejaVuSans-31"/>
       <use xlink:href="#DejaVuSans-32" transform="translate(63.623047 0)"/>
       <use xlink:href="#DejaVuSans-35" transform="translate(127.246094 0)"/>
       <use xlink:href="#DejaVuSans-30" transform="translate(190.869141 0)"/>
       <use xlink:href="#DejaVuSans-30" transform="translate(254.492188 0)"/>
       <use xlink:href="#DejaVuSans-30" transform="translate(318.115234 0)"/>
      </g>
     </g>
    </g>
    <g id="text_7">
     <!-- Value -->
     <g transform="translate(145.886875 185.154687) scale(0.1 -0.1)">
      <defs>
       <path id="DejaVuSans-56" d="M 1831 0 
L 50 4666 
L 709 4666 
L 2188 738 
L 3669 4666 
L 4325 4666 
L 2547 0 
L 1831 0 
z
" transform="scale(0.015625)"/>
       <path id="DejaVuSans-61" d="M 2194 1759 
Q 1497 1759 1228 1600 
Q 959 1441 959 1056 
Q 959 750 1161 570 
Q 1363 391 1709 391 
Q 2188 391 2477 730 
Q 2766 1069 2766 1631 
L 2766 1759 
L 2194 1759 
z
M 3341 1997 
L 3341 0 
L 2766 0 
L 2766 531 
Q 2569 213 2275 61 
Q 1981 -91 1556 -91 
Q 1019 -91 701 211 
Q 384 513 384 1019 
Q 384 1609 779 1909 
Q 1175 2209 1959 2209 
L 2766 2209 
L 2766 2266 
Q 2766 2663 2505 2880 
Q 2244 3097 1772 3097 
Q 1472 3097 1187 3025 
Q 903 2953 641 2809 
L 641 3341 
Q 956 3463 1253 3523 
Q 1550 3584 1831 3584 
Q 2591 3584 2966 3190 
Q 3341 2797 3341 1997 
z
" transform="scale(0.015625)"/>
       <path id="DejaVuSans-6c" d="M 603 4863 
L 1178 4863 
L 1178 0 
L 603 0 
L 603 4863 
z
" transform="scale(0.015625)"/>
       <path id="DejaVuSans-75" d="M 544 1381 
L 544 3500 
L 1119 3500 
L 1119 1403 
Q 1119 906 1312 657 
Q 1506 409 1894 409 
Q 2359 409 2629 706 
Q 2900 1003 2900 1516 
L 2900 3500 
L 3475 3500 
L 3475 0 
L 2900 0 
L 2900 538 
Q 2691 219 2414 64 
Q 2138 -91 1772 -91 
Q 1169 -91 856 284 
Q 544 659 544 1381 
z
M 1991 3584 
L 1991 3584 
z
" transform="scale(0.015625)"/>
       <path id="DejaVuSans-65" d="M 3597 1894 
L 3597 1613 
L 953 1613 
Q 991 1019 1311 708 
Q 1631 397 2203 397 
Q 2534 397 2845 478 
Q 3156 559 3463 722 
L 3463 178 
Q 3153 47 2828 -22 
Q 2503 -91 2169 -91 
Q 1331 -91 842 396 
Q 353 884 353 1716 
Q 353 2575 817 3079 
Q 1281 3584 2069 3584 
Q 2775 3584 3186 3129 
Q 3597 2675 3597 1894 
z
M 3022 2063 
Q 3016 2534 2758 2815 
Q 2500 3097 2075 3097 
Q 1594 3097 1305 2825 
Q 1016 2553 972 2059 
L 3022 2063 
z
" transform="scale(0.015625)"/>
      </defs>
      <use xlink:href="#DejaVuSans-56"/>
      <use xlink:href="#DejaVuSans-61" transform="translate(60.658203 0)"/>
      <use xlink:href="#DejaVuSans-6c" transform="translate(121.9375 0)"/>
      <use xlink:href="#DejaVuSans-75" transform="translate(149.720703 0)"/>
      <use xlink:href="#DejaVuSans-65" transform="translate(213.099609 0)"/>
     </g>
    </g>
   </g>
   <g id="matplotlib.axis_2">
    <g id="ytick_1">
     <g id="line2d_7">
      <defs>
       <path id="m4b9229877d" d="M 0 0 
L -3.5 0 
" style="stroke: #000000; stroke-width: 0.8"/>
      </defs>
      <g>
       <use xlink:href="#m4b9229877d" x="40.603125" y="156.878125" style="stroke: #000000; stroke-width: 0.8"/>
      </g>
     </g>
     <g id="text_8">
      <!-- 0 -->
      <g transform="translate(27.240625 160.677344) scale(0.1 -0.1)">
       <use xlink:href="#DejaVuSans-30"/>
      </g>
     </g>
    </g>
    <g id="ytick_2">
     <g id="line2d_8">
      <g>
       <use xlink:href="#m4b9229877d" x="40.603125" y="121.280241" style="stroke: #000000; stroke-width: 0.8"/>
      </g>
     </g>
     <g id="text_9">
      <!-- 10 -->
      <g transform="translate(20.878125 125.07946) scale(0.1 -0.1)">
       <use xlink:href="#DejaVuSans-31"/>
       <use xlink:href="#DejaVuSans-30" transform="translate(63.623047 0)"/>
      </g>
     </g>
    </g>
    <g id="ytick_3">
     <g id="line2d_9">
      <g>
       <use xlink:href="#m4b9229877d" x="40.603125" y="85.682358" style="stroke: #000000; stroke-width: 0.8"/>
      </g>
     </g>
     <g id="text_10">
      <!-- 20 -->
      <g transform="translate(20.878125 89.481577) scale(0.1 -0.1)">
       <use xlink:href="#DejaVuSans-32"/>
       <use xlink:href="#DejaVuSans-30" transform="translate(63.623047 0)"/>
      </g>
     </g>
    </g>
    <g id="ytick_4">
     <g id="line2d_10">
      <g>
       <use xlink:href="#m4b9229877d" x="40.603125" y="50.084474" style="stroke: #000000; stroke-width: 0.8"/>
      </g>
     </g>
     <g id="text_11">
      <!-- 30 -->
      <g transform="translate(20.878125 53.883693) scale(0.1 -0.1)">
       <defs>
        <path id="DejaVuSans-33" d="M 2597 2516 
Q 3050 2419 3304 2112 
Q 3559 1806 3559 1356 
Q 3559 666 3084 287 
Q 2609 -91 1734 -91 
Q 1441 -91 1130 -33 
Q 819 25 488 141 
L 488 750 
Q 750 597 1062 519 
Q 1375 441 1716 441 
Q 2309 441 2620 675 
Q 2931 909 2931 1356 
Q 2931 1769 2642 2001 
Q 2353 2234 1838 2234 
L 1294 2234 
L 1294 2753 
L 1863 2753 
Q 2328 2753 2575 2939 
Q 2822 3125 2822 3475 
Q 2822 3834 2567 4026 
Q 2313 4219 1838 4219 
Q 1578 4219 1281 4162 
Q 984 4106 628 3988 
L 628 4550 
Q 988 4650 1302 4700 
Q 1616 4750 1894 4750 
Q 2613 4750 3031 4423 
Q 3450 4097 3450 3541 
Q 3450 3153 3228 2886 
Q 3006 2619 2597 2516 
z
" transform="scale(0.015625)"/>
       </defs>
       <use xlink:href="#DejaVuSans-33"/>
       <use xlink:href="#DejaVuSans-30" transform="translate(63.623047 0)"/>
      </g>
     </g>
    </g>
    <g id="text_12">
     <!-- Count -->
     <g transform="translate(14.798438 104.446562) rotate(-90) scale(0.1 -0.1)">
      <defs>
       <path id="DejaVuSans-43" d="M 4122 4306 
L 4122 3641 
Q 3803 3938 3442 4084 
Q 3081 4231 2675 4231 
Q 1875 4231 1450 3742 
Q 1025 3253 1025 2328 
Q 1025 1406 1450 917 
Q 1875 428 2675 428 
Q 3081 428 3442 575 
Q 3803 722 4122 1019 
L 4122 359 
Q 3791 134 3420 21 
Q 3050 -91 2638 -91 
Q 1578 -91 968 557 
Q 359 1206 359 2328 
Q 359 3453 968 4101 
Q 1578 4750 2638 4750 
Q 3056 4750 3426 4639 
Q 3797 4528 4122 4306 
z
" transform="scale(0.015625)"/>
       <path id="DejaVuSans-6f" d="M 1959 3097 
Q 1497 3097 1228 2736 
Q 959 2375 959 1747 
Q 959 1119 1226 758 
Q 1494 397 1959 397 
Q 2419 397 2687 759 
Q 2956 1122 2956 1747 
Q 2956 2369 2687 2733 
Q 2419 3097 1959 3097 
z
M 1959 3584 
Q 2709 3584 3137 3096 
Q 3566 2609 3566 1747 
Q 3566 888 3137 398 
Q 2709 -91 1959 -91 
Q 1206 -91 779 398 
Q 353 888 353 1747 
Q 353 2609 779 3096 
Q 1206 3584 1959 3584 
z
" transform="scale(0.015625)"/>
       <path id="DejaVuSans-6e" d="M 3513 2113 
L 3513 0 
L 2938 0 
L 2938 2094 
Q 2938 2591 2744 2837 
Q 2550 3084 2163 3084 
Q 1697 3084 1428 2787 
Q 1159 2491 1159 1978 
L 1159 0 
L 581 0 
L 581 3500 
L 1159 3500 
L 1159 2956 
Q 1366 3272 1645 3428 
Q 1925 3584 2291 3584 
Q 2894 3584 3203 3211 
Q 3513 2838 3513 2113 
z
" transform="scale(0.015625)"/>
       <path id="DejaVuSans-74" d="M 1172 4494 
L 1172 3500 
L 2356 3500 
L 2356 3053 
L 1172 3053 
L 1172 1153 
Q 1172 725 1289 603 
Q 1406 481 1766 481 
L 2356 481 
L 2356 0 
L 1766 0 
Q 1100 0 847 248 
Q 594 497 594 1153 
L 594 3053 
L 172 3053 
L 172 3500 
L 594 3500 
L 594 4494 
L 1172 4494 
z
" transform="scale(0.015625)"/>
      </defs>
      <use xlink:href="#DejaVuSans-43"/>
      <use xlink:href="#DejaVuSans-6f" transform="translate(69.824219 0)"/>
      <use xlink:href="#DejaVuSans-75" transform="translate(131.005859 0)"/>
      <use xlink:href="#DejaVuSans-6e" transform="translate(194.384766 0)"/>
      <use xlink:href="#DejaVuSans-74" transform="translate(257.763672 0)"/>
     </g>
    </g>
   </g>
   <g id="patch_33">
    <path d="M 40.603125 156.878125 
L 40.603125 22.318125 
" style="fill: none; stroke: #000000; stroke-width: 0.8; stroke-linejoin: miter; stroke-linecap: square"/>
   </g>
   <g id="patch_34">
    <path d="M 278.633125 156.878125 
L 278.633125 22.318125 
" style="fill: none; stroke: #000000; stroke-width: 0.8; stroke-linejoin: miter; stroke-linecap: square"/>
   </g>
   <g id="patch_35">
    <path d="M 40.603125 156.878125 
L 278.633125 156.878125 
" style="fill: none; stroke: #000000; stroke-width: 0.8; stroke-linejoin: miter; stroke-linecap: square"/>
   </g>
   <g id="patch_36">
    <path d="M 40.603125 22.318125 
L 278.633125 22.318125 
" style="fill: none; stroke: #000000; stroke-width: 0.8; stroke-linejoin: miter; stroke-linecap: square"/>
   </g>
   <g id="text_13">
    <!-- Raw: amount (yen) -->
    <g transform="translate(102.618125 16.318125) scale(0.12 -0.12)">
     <defs>
      <path id="DejaVuSans-52" d="M 2841 2188 
Q 3044 2119 3236 1894 
Q 3428 1669 3622 1275 
L 4263 0 
L 3584 0 
L 2988 1197 
Q 2756 1666 2539 1819 
Q 2322 1972 1947 1972 
L 1259 1972 
L 1259 0 
L 628 0 
L 628 4666 
L 2053 4666 
Q 2853 4666 3247 4331 
Q 3641 3997 3641 3322 
Q 3641 2881 3436 2590 
Q 3231 2300 2841 2188 
z
M 1259 4147 
L 1259 2491 
L 2053 2491 
Q 2509 2491 2742 2702 
Q 2975 2913 2975 3322 
Q 2975 3731 2742 3939 
Q 2509 4147 2053 4147 
L 1259 4147 
z
" transform="scale(0.015625)"/>
      <path id="DejaVuSans-77" d="M 269 3500 
L 844 3500 
L 1563 769 
L 2278 3500 
L 2956 3500 
L 3675 769 
L 4391 3500 
L 4966 3500 
L 4050 0 
L 3372 0 
L 2619 2869 
L 1863 0 
L 1184 0 
L 269 3500 
z
" transform="scale(0.015625)"/>
      <path id="DejaVuSans-3a" d="M 750 794 
L 1409 794 
L 1409 0 
L 750 0 
L 750 794 
z
M 750 3309 
L 1409 3309 
L 1409 2516 
L 750 2516 
L 750 3309 
z
" transform="scale(0.015625)"/>
      <path id="DejaVuSans-20" transform="scale(0.015625)"/>
      <path id="DejaVuSans-6d" d="M 3328 2828 
Q 3544 3216 3844 3400 
Q 4144 3584 4550 3584 
Q 5097 3584 5394 3201 
Q 5691 2819 5691 2113 
L 5691 0 
L 5113 0 
L 5113 2094 
Q 5113 2597 4934 2840 
Q 4756 3084 4391 3084 
Q 3944 3084 3684 2787 
Q 3425 2491 3425 1978 
L 3425 0 
L 2847 0 
L 2847 2094 
Q 2847 2600 2669 2842 
Q 2491 3084 2119 3084 
Q 1678 3084 1418 2786 
Q 1159 2488 1159 1978 
L 1159 0 
L 581 0 
L 581 3500 
L 1159 3500 
L 1159 2956 
Q 1356 3278 1631 3431 
Q 1906 3584 2284 3584 
Q 2666 3584 2933 3390 
Q 3200 3197 3328 2828 
z
" transform="scale(0.015625)"/>
      <path id="DejaVuSans-28" d="M 1984 4856 
Q 1566 4138 1362 3434 
Q 1159 2731 1159 2009 
Q 1159 1288 1364 580 
Q 1569 -128 1984 -844 
L 1484 -844 
Q 1016 -109 783 600 
Q 550 1309 550 2009 
Q 550 2706 781 3412 
Q 1013 4119 1484 4856 
L 1984 4856 
z
" transform="scale(0.015625)"/>
      <path id="DejaVuSans-79" d="M 2059 -325 
Q 1816 -950 1584 -1140 
Q 1353 -1331 966 -1331 
L 506 -1331 
L 506 -850 
L 844 -850 
Q 1081 -850 1212 -737 
Q 1344 -625 1503 -206 
L 1606 56 
L 191 3500 
L 800 3500 
L 1894 763 
L 2988 3500 
L 3597 3500 
L 2059 -325 
z
" transform="scale(0.015625)"/>
      <path id="DejaVuSans-29" d="M 513 4856 
L 1013 4856 
Q 1481 4119 1714 3412 
Q 1947 2706 1947 2009 
Q 1947 1309 1714 600 
Q 1481 -109 1013 -844 
L 513 -844 
Q 928 -128 1133 580 
Q 1338 1288 1338 2009 
Q 1338 2731 1133 3434 
Q 928 4138 513 4856 
z
" transform="scale(0.015625)"/>
     </defs>
     <use xlink:href="#DejaVuSans-52"/>
     <use xlink:href="#DejaVuSans-61" transform="translate(67.232422 0)"/>
     <use xlink:href="#DejaVuSans-77" transform="translate(128.511719 0)"/>
     <use xlink:href="#DejaVuSans-3a" transform="translate(204.798828 0)"/>
     <use xlink:href="#DejaVuSans-20" transform="translate(238.490234 0)"/>
     <use xlink:href="#DejaVuSans-61" transform="translate(270.277344 0)"/>
     <use xlink:href="#DejaVuSans-6d" transform="translate(331.556641 0)"/>
     <use xlink:href="#DejaVuSans-6f" transform="translate(428.96875 0)"/>
     <use xlink:href="#DejaVuSans-75" transform="translate(490.150391 0)"/>
     <use xlink:href="#DejaVuSans-6e" transform="translate(553.529297 0)"/>
     <use xlink:href="#DejaVuSans-74" transform="translate(616.908203 0)"/>
     <use xlink:href="#DejaVuSans-20" transform="translate(656.117188 0)"/>
     <use xlink:href="#DejaVuSans-28" transform="translate(687.904297 0)"/>
     <use xlink:href="#DejaVuSans-79" transform="translate(726.917969 0)"/>
     <use xlink:href="#DejaVuSans-65" transform="translate(786.097656 0)"/>
     <use xlink:href="#DejaVuSans-6e" transform="translate(847.621094 0)"/>
     <use xlink:href="#DejaVuSans-29" transform="translate(911 0)"/>
    </g>
   </g>
  </g>
  <g id="axes_2">
   <g id="patch_37">
    <path d="M 323.203125 156.878125 
L 561.233125 156.878125 
L 561.233125 22.318125 
L 323.203125 22.318125 
z
" style="fill: #ffffff"/>
   </g>
   <g id="patch_38">
    <path d="M 334.02267 156.878125 
L 341.235701 156.878125 
L 341.235701 154.092204 
L 334.02267 154.092204 
z
" clip-path="url(#p5965c904b4)" style="fill: #59a14f; stroke: #ffffff; stroke-linejoin: miter"/>
   </g>
   <g id="patch_39">
    <path d="M 341.235701 156.878125 
L 348.448731 156.878125 
L 348.448731 154.092204 
L 341.235701 154.092204 
z
" clip-path="url(#p5965c904b4)" style="fill: #59a14f; stroke: #ffffff; stroke-linejoin: miter"/>
   </g>
   <g id="patch_40">
    <path d="M 348.448731 156.878125 
L 355.661761 156.878125 
L 355.661761 148.520361 
L 348.448731 148.520361 
z
" clip-path="url(#p5965c904b4)" style="fill: #59a14f; stroke: #ffffff; stroke-linejoin: miter"/>
   </g>
   <g id="patch_41">
    <path d="M 355.661761 156.878125 
L 362.874792 156.878125 
L 362.874792 151.306282 
L 355.661761 151.306282 
z
" clip-path="url(#p5965c904b4)" style="fill: #59a14f; stroke: #ffffff; stroke-linejoin: miter"/>
   </g>
   <g id="patch_42">
    <path d="M 362.874792 156.878125 
L 370.087822 156.878125 
L 370.087822 154.092204 
L 362.874792 154.092204 
z
" clip-path="url(#p5965c904b4)" style="fill: #59a14f; stroke: #ffffff; stroke-linejoin: miter"/>
   </g>
   <g id="patch_43">
    <path d="M 370.087822 156.878125 
L 377.300852 156.878125 
L 377.300852 142.948518 
L 370.087822 142.948518 
z
" clip-path="url(#p5965c904b4)" style="fill: #59a14f; stroke: #ffffff; stroke-linejoin: miter"/>
   </g>
   <g id="patch_44">
    <path d="M 377.300852 156.878125 
L 384.513883 156.878125 
L 384.513883 123.447069 
L 377.300852 123.447069 
z
" clip-path="url(#p5965c904b4)" style="fill: #59a14f; stroke: #ffffff; stroke-linejoin: miter"/>
   </g>
   <g id="patch_45">
    <path d="M 384.513883 156.878125 
L 391.726913 156.878125 
L 391.726913 131.804833 
L 384.513883 131.804833 
z
" clip-path="url(#p5965c904b4)" style="fill: #59a14f; stroke: #ffffff; stroke-linejoin: miter"/>
   </g>
   <g id="patch_46">
    <path d="M 391.726913 156.878125 
L 398.939943 156.878125 
L 398.939943 131.804833 
L 391.726913 131.804833 
z
" clip-path="url(#p5965c904b4)" style="fill: #59a14f; stroke: #ffffff; stroke-linejoin: miter"/>
   </g>
   <g id="patch_47">
    <path d="M 398.939943 156.878125 
L 406.152973 156.878125 
L 406.152973 90.016013 
L 398.939943 90.016013 
z
" clip-path="url(#p5965c904b4)" style="fill: #59a14f; stroke: #ffffff; stroke-linejoin: miter"/>
   </g>
   <g id="patch_48">
    <path d="M 406.152973 156.878125 
L 413.366004 156.878125 
L 413.366004 98.373777 
L 406.152973 98.373777 
z
" clip-path="url(#p5965c904b4)" style="fill: #59a14f; stroke: #ffffff; stroke-linejoin: miter"/>
   </g>
   <g id="patch_49">
    <path d="M 413.366004 156.878125 
L 420.579034 156.878125 
L 420.579034 101.159698 
L 413.366004 101.159698 
z
" clip-path="url(#p5965c904b4)" style="fill: #59a14f; stroke: #ffffff; stroke-linejoin: miter"/>
   </g>
   <g id="patch_50">
    <path d="M 420.579034 156.878125 
L 427.792064 156.878125 
L 427.792064 59.370879 
L 420.579034 59.370879 
z
" clip-path="url(#p5965c904b4)" style="fill: #59a14f; stroke: #ffffff; stroke-linejoin: miter"/>
   </g>
   <g id="patch_51">
    <path d="M 427.792064 156.878125 
L 435.005095 156.878125 
L 435.005095 67.728643 
L 427.792064 67.728643 
z
" clip-path="url(#p5965c904b4)" style="fill: #59a14f; stroke: #ffffff; stroke-linejoin: miter"/>
   </g>
   <g id="patch_52">
    <path d="M 435.005095 156.878125 
L 442.218125 156.878125 
L 442.218125 28.725744 
L 435.005095 28.725744 
z
" clip-path="url(#p5965c904b4)" style="fill: #59a14f; stroke: #ffffff; stroke-linejoin: miter"/>
   </g>
   <g id="patch_53">
    <path d="M 442.218125 156.878125 
L 449.431155 156.878125 
L 449.431155 42.655351 
L 442.218125 42.655351 
z
" clip-path="url(#p5965c904b4)" style="fill: #59a14f; stroke: #ffffff; stroke-linejoin: miter"/>
   </g>
   <g id="patch_54">
    <path d="M 449.431155 156.878125 
L 456.644186 156.878125 
L 456.644186 59.370879 
L 449.431155 59.370879 
z
" clip-path="url(#p5965c904b4)" style="fill: #59a14f; stroke: #ffffff; stroke-linejoin: miter"/>
   </g>
   <g id="patch_55">
    <path d="M 456.644186 156.878125 
L 463.857216 156.878125 
L 463.857216 62.1568 
L 456.644186 62.1568 
z
" clip-path="url(#p5965c904b4)" style="fill: #59a14f; stroke: #ffffff; stroke-linejoin: miter"/>
   </g>
   <g id="patch_56">
    <path d="M 463.857216 156.878125 
L 471.070246 156.878125 
L 471.070246 59.370879 
L 463.857216 59.370879 
z
" clip-path="url(#p5965c904b4)" style="fill: #59a14f; stroke: #ffffff; stroke-linejoin: miter"/>
   </g>
   <g id="patch_57">
    <path d="M 471.070246 156.878125 
L 478.283277 156.878125 
L 478.283277 70.514564 
L 471.070246 70.514564 
z
" clip-path="url(#p5965c904b4)" style="fill: #59a14f; stroke: #ffffff; stroke-linejoin: miter"/>
   </g>
   <g id="patch_58">
    <path d="M 478.283277 156.878125 
L 485.496307 156.878125 
L 485.496307 73.300485 
L 478.283277 73.300485 
z
" clip-path="url(#p5965c904b4)" style="fill: #59a14f; stroke: #ffffff; stroke-linejoin: miter"/>
   </g>
   <g id="patch_59">
    <path d="M 485.496307 156.878125 
L 492.709337 156.878125 
L 492.709337 120.661148 
L 485.496307 120.661148 
z
" clip-path="url(#p5965c904b4)" style="fill: #59a14f; stroke: #ffffff; stroke-linejoin: miter"/>
   </g>
   <g id="patch_60">
    <path d="M 492.709337 156.878125 
L 499.922367 156.878125 
L 499.922367 120.661148 
L 492.709337 120.661148 
z
" clip-path="url(#p5965c904b4)" style="fill: #59a14f; stroke: #ffffff; stroke-linejoin: miter"/>
   </g>
   <g id="patch_61">
    <path d="M 499.922367 156.878125 
L 507.135398 156.878125 
L 507.135398 98.373777 
L 499.922367 98.373777 
z
" clip-path="url(#p5965c904b4)" style="fill: #59a14f; stroke: #ffffff; stroke-linejoin: miter"/>
   </g>
   <g id="patch_62">
    <path d="M 507.135398 156.878125 
L 514.348428 156.878125 
L 514.348428 142.948518 
L 507.135398 142.948518 
z
" clip-path="url(#p5965c904b4)" style="fill: #59a14f; stroke: #ffffff; stroke-linejoin: miter"/>
   </g>
   <g id="patch_63">
    <path d="M 514.348428 156.878125 
L 521.561458 156.878125 
L 521.561458 140.162597 
L 514.348428 140.162597 
z
" clip-path="url(#p5965c904b4)" style="fill: #59a14f; stroke: #ffffff; stroke-linejoin: miter"/>
   </g>
   <g id="patch_64">
    <path d="M 521.561458 156.878125 
L 528.774489 156.878125 
L 528.774489 137.376676 
L 521.561458 137.376676 
z
" clip-path="url(#p5965c904b4)" style="fill: #59a14f; stroke: #ffffff; stroke-linejoin: miter"/>
   </g>
   <g id="patch_65">
    <path d="M 528.774489 156.878125 
L 535.987519 156.878125 
L 535.987519 154.092204 
L 528.774489 154.092204 
z
" clip-path="url(#p5965c904b4)" style="fill: #59a14f; stroke: #ffffff; stroke-linejoin: miter"/>
   </g>
   <g id="patch_66">
    <path d="M 535.987519 156.878125 
L 543.200549 156.878125 
L 543.200549 148.520361 
L 535.987519 148.520361 
z
" clip-path="url(#p5965c904b4)" style="fill: #59a14f; stroke: #ffffff; stroke-linejoin: miter"/>
   </g>
   <g id="patch_67">
    <path d="M 543.200549 156.878125 
L 550.41358 156.878125 
L 550.41358 145.73444 
L 543.200549 145.73444 
z
" clip-path="url(#p5965c904b4)" style="fill: #59a14f; stroke: #ffffff; stroke-linejoin: miter"/>
   </g>
   <g id="matplotlib.axis_3">
    <g id="xtick_7">
     <g id="line2d_11">
      <g>
       <use xlink:href="#m0195d2f370" x="384.431154" y="156.878125" style="stroke: #000000; stroke-width: 0.8"/>
      </g>
     </g>
     <g id="text_14">
      <!-- 20 -->
      <g transform="translate(378.068654 171.476562) scale(0.1 -0.1)">
       <use xlink:href="#DejaVuSans-32"/>
       <use xlink:href="#DejaVuSans-30" transform="translate(63.623047 0)"/>
      </g>
     </g>
    </g>
    <g id="xtick_8">
     <g id="line2d_12">
      <g>
       <use xlink:href="#m0195d2f370" x="451.033797" y="156.878125" style="stroke: #000000; stroke-width: 0.8"/>
      </g>
     </g>
     <g id="text_15">
      <!-- 40 -->
      <g transform="translate(444.671297 171.476562) scale(0.1 -0.1)">
       <defs>
        <path id="DejaVuSans-34" d="M 2419 4116 
L 825 1625 
L 2419 1625 
L 2419 4116 
z
M 2253 4666 
L 3047 4666 
L 3047 1625 
L 3713 1625 
L 3713 1100 
L 3047 1100 
L 3047 0 
L 2419 0 
L 2419 1100 
L 313 1100 
L 313 1709 
L 2253 4666 
z
" transform="scale(0.015625)"/>
       </defs>
       <use xlink:href="#DejaVuSans-34"/>
       <use xlink:href="#DejaVuSans-30" transform="translate(63.623047 0)"/>
      </g>
     </g>
    </g>
    <g id="xtick_9">
     <g id="line2d_13">
      <g>
       <use xlink:href="#m0195d2f370" x="517.63644" y="156.878125" style="stroke: #000000; stroke-width: 0.8"/>
      </g>
     </g>
     <g id="text_16">
      <!-- 60 -->
      <g transform="translate(511.27394 171.476562) scale(0.1 -0.1)">
       <defs>
        <path id="DejaVuSans-36" d="M 2113 2584 
Q 1688 2584 1439 2293 
Q 1191 2003 1191 1497 
Q 1191 994 1439 701 
Q 1688 409 2113 409 
Q 2538 409 2786 701 
Q 3034 994 3034 1497 
Q 3034 2003 2786 2293 
Q 2538 2584 2113 2584 
z
M 3366 4563 
L 3366 3988 
Q 3128 4100 2886 4159 
Q 2644 4219 2406 4219 
Q 1781 4219 1451 3797 
Q 1122 3375 1075 2522 
Q 1259 2794 1537 2939 
Q 1816 3084 2150 3084 
Q 2853 3084 3261 2657 
Q 3669 2231 3669 1497 
Q 3669 778 3244 343 
Q 2819 -91 2113 -91 
Q 1303 -91 875 529 
Q 447 1150 447 2328 
Q 447 3434 972 4092 
Q 1497 4750 2381 4750 
Q 2619 4750 2861 4703 
Q 3103 4656 3366 4563 
z
" transform="scale(0.015625)"/>
       </defs>
       <use xlink:href="#DejaVuSans-36"/>
       <use xlink:href="#DejaVuSans-30" transform="translate(63.623047 0)"/>
      </g>
     </g>
    </g>
    <g id="text_17">
     <!-- Value -->
     <g transform="translate(428.486875 185.154687) scale(0.1 -0.1)">
      <use xlink:href="#DejaVuSans-56"/>
      <use xlink:href="#DejaVuSans-61" transform="translate(60.658203 0)"/>
      <use xlink:href="#DejaVuSans-6c" transform="translate(121.9375 0)"/>
      <use xlink:href="#DejaVuSans-75" transform="translate(149.720703 0)"/>
      <use xlink:href="#DejaVuSans-65" transform="translate(213.099609 0)"/>
     </g>
    </g>
   </g>
   <g id="matplotlib.axis_4">
    <g id="ytick_5">
     <g id="line2d_14">
      <g>
       <use xlink:href="#m4b9229877d" x="323.203125" y="156.878125" style="stroke: #000000; stroke-width: 0.8"/>
      </g>
     </g>
     <g id="text_18">
      <!-- 0 -->
      <g transform="translate(309.840625 160.677344) scale(0.1 -0.1)">
       <use xlink:href="#DejaVuSans-30"/>
      </g>
     </g>
    </g>
    <g id="ytick_6">
     <g id="line2d_15">
      <g>
       <use xlink:href="#m4b9229877d" x="323.203125" y="129.018912" style="stroke: #000000; stroke-width: 0.8"/>
      </g>
     </g>
     <g id="text_19">
      <!-- 10 -->
      <g transform="translate(303.478125 132.81813) scale(0.1 -0.1)">
       <use xlink:href="#DejaVuSans-31"/>
       <use xlink:href="#DejaVuSans-30" transform="translate(63.623047 0)"/>
      </g>
     </g>
    </g>
    <g id="ytick_7">
     <g id="line2d_16">
      <g>
       <use xlink:href="#m4b9229877d" x="323.203125" y="101.159698" style="stroke: #000000; stroke-width: 0.8"/>
      </g>
     </g>
     <g id="text_20">
      <!-- 20 -->
      <g transform="translate(303.478125 104.958917) scale(0.1 -0.1)">
       <use xlink:href="#DejaVuSans-32"/>
       <use xlink:href="#DejaVuSans-30" transform="translate(63.623047 0)"/>
      </g>
     </g>
    </g>
    <g id="ytick_8">
     <g id="line2d_17">
      <g>
       <use xlink:href="#m4b9229877d" x="323.203125" y="73.300485" style="stroke: #000000; stroke-width: 0.8"/>
      </g>
     </g>
     <g id="text_21">
      <!-- 30 -->
      <g transform="translate(303.478125 77.099704) scale(0.1 -0.1)">
       <use xlink:href="#DejaVuSans-33"/>
       <use xlink:href="#DejaVuSans-30" transform="translate(63.623047 0)"/>
      </g>
     </g>
    </g>
    <g id="ytick_9">
     <g id="line2d_18">
      <g>
       <use xlink:href="#m4b9229877d" x="323.203125" y="45.441272" style="stroke: #000000; stroke-width: 0.8"/>
      </g>
     </g>
     <g id="text_22">
      <!-- 40 -->
      <g transform="translate(303.478125 49.240491) scale(0.1 -0.1)">
       <use xlink:href="#DejaVuSans-34"/>
       <use xlink:href="#DejaVuSans-30" transform="translate(63.623047 0)"/>
      </g>
     </g>
    </g>
    <g id="text_23">
     <!-- Count -->
     <g transform="translate(297.398437 104.446562) rotate(-90) scale(0.1 -0.1)">
      <use xlink:href="#DejaVuSans-43"/>
      <use xlink:href="#DejaVuSans-6f" transform="translate(69.824219 0)"/>
      <use xlink:href="#DejaVuSans-75" transform="translate(131.005859 0)"/>
      <use xlink:href="#DejaVuSans-6e" transform="translate(194.384766 0)"/>
      <use xlink:href="#DejaVuSans-74" transform="translate(257.763672 0)"/>
     </g>
    </g>
   </g>
   <g id="patch_68">
    <path d="M 323.203125 156.878125 
L 323.203125 22.318125 
" style="fill: none; stroke: #000000; stroke-width: 0.8; stroke-linejoin: miter; stroke-linecap: square"/>
   </g>
   <g id="patch_69">
    <path d="M 561.233125 156.878125 
L 561.233125 22.318125 
" style="fill: none; stroke: #000000; stroke-width: 0.8; stroke-linejoin: miter; stroke-linecap: square"/>
   </g>
   <g id="patch_70">
    <path d="M 323.203125 156.878125 
L 561.233125 156.878125 
" style="fill: none; stroke: #000000; stroke-width: 0.8; stroke-linejoin: miter; stroke-linecap: square"/>
   </g>
   <g id="patch_71">
    <path d="M 323.203125 22.318125 
L 561.233125 22.318125 
" style="fill: none; stroke: #000000; stroke-width: 0.8; stroke-linejoin: miter; stroke-linecap: square"/>
   </g>
   <g id="text_24">
    <!-- Raw: age -->
    <g transform="translate(414.824375 16.318125) scale(0.12 -0.12)">
     <defs>
      <path id="DejaVuSans-67" d="M 2906 1791 
Q 2906 2416 2648 2759 
Q 2391 3103 1925 3103 
Q 1463 3103 1205 2759 
Q 947 2416 947 1791 
Q 947 1169 1205 825 
Q 1463 481 1925 481 
Q 2391 481 2648 825 
Q 2906 1169 2906 1791 
z
M 3481 434 
Q 3481 -459 3084 -895 
Q 2688 -1331 1869 -1331 
Q 1566 -1331 1297 -1286 
Q 1028 -1241 775 -1147 
L 775 -588 
Q 1028 -725 1275 -790 
Q 1522 -856 1778 -856 
Q 2344 -856 2625 -561 
Q 2906 -266 2906 331 
L 2906 616 
Q 2728 306 2450 153 
Q 2172 0 1784 0 
Q 1141 0 747 490 
Q 353 981 353 1791 
Q 353 2603 747 3093 
Q 1141 3584 1784 3584 
Q 2172 3584 2450 3431 
Q 2728 3278 2906 2969 
L 2906 3500 
L 3481 3500 
L 3481 434 
z
" transform="scale(0.015625)"/>
     </defs>
     <use xlink:href="#DejaVuSans-52"/>
     <use xlink:href="#DejaVuSans-61" transform="translate(67.232422 0)"/>
     <use xlink:href="#DejaVuSans-77" transform="translate(128.511719 0)"/>
     <use xlink:href="#DejaVuSans-3a" transform="translate(204.798828 0)"/>
     <use xlink:href="#DejaVuSans-20" transform="translate(238.490234 0)"/>
     <use xlink:href="#DejaVuSans-61" transform="translate(270.277344 0)"/>
     <use xlink:href="#DejaVuSans-67" transform="translate(331.556641 0)"/>
     <use xlink:href="#DejaVuSans-65" transform="translate(395.033203 0)"/>
    </g>
   </g>
  </g>
  <g id="axes_3">
   <g id="patch_72">
    <path d="M 40.603125 349.478125 
L 278.633125 349.478125 
L 278.633125 214.918125 
L 40.603125 214.918125 
z
" style="fill: #ffffff"/>
   </g>
   <g id="patch_73">
    <path d="M 51.42267 349.478125 
L 58.635701 349.478125 
L 58.635701 271.162781 
L 51.42267 271.162781 
z
" clip-path="url(#p6316bd102d)" style="fill: #7aa6c2; stroke: #ffffff; stroke-linejoin: miter"/>
   </g>
   <g id="patch_74">
    <path d="M 58.635701 349.478125 
L 65.848731 349.478125 
L 65.848731 296.0813 
L 58.635701 296.0813 
z
" clip-path="url(#p6316bd102d)" style="fill: #7aa6c2; stroke: #ffffff; stroke-linejoin: miter"/>
   </g>
   <g id="patch_75">
    <path d="M 65.848731 349.478125 
L 73.061761 349.478125 
L 73.061761 278.282358 
L 65.848731 278.282358 
z
" clip-path="url(#p6316bd102d)" style="fill: #7aa6c2; stroke: #ffffff; stroke-linejoin: miter"/>
   </g>
   <g id="patch_76">
    <path d="M 73.061761 349.478125 
L 80.274792 349.478125 
L 80.274792 267.602993 
L 73.061761 267.602993 
z
" clip-path="url(#p6316bd102d)" style="fill: #7aa6c2; stroke: #ffffff; stroke-linejoin: miter"/>
   </g>
   <g id="patch_77">
    <path d="M 80.274792 349.478125 
L 87.487822 349.478125 
L 87.487822 288.961723 
L 80.274792 288.961723 
z
" clip-path="url(#p6316bd102d)" style="fill: #7aa6c2; stroke: #ffffff; stroke-linejoin: miter"/>
   </g>
   <g id="patch_78">
    <path d="M 87.487822 349.478125 
L 94.700852 349.478125 
L 94.700852 264.043204 
L 87.487822 264.043204 
z
" clip-path="url(#p6316bd102d)" style="fill: #7aa6c2; stroke: #ffffff; stroke-linejoin: miter"/>
   </g>
   <g id="patch_79">
    <path d="M 94.700852 349.478125 
L 101.913883 349.478125 
L 101.913883 246.244263 
L 94.700852 246.244263 
z
" clip-path="url(#p6316bd102d)" style="fill: #7aa6c2; stroke: #ffffff; stroke-linejoin: miter"/>
   </g>
   <g id="patch_80">
    <path d="M 101.913883 349.478125 
L 109.126913 349.478125 
L 109.126913 249.804051 
L 101.913883 249.804051 
z
" clip-path="url(#p6316bd102d)" style="fill: #7aa6c2; stroke: #ffffff; stroke-linejoin: miter"/>
   </g>
   <g id="patch_81">
    <path d="M 109.126913 349.478125 
L 116.339943 349.478125 
L 116.339943 221.325744 
L 109.126913 221.325744 
z
" clip-path="url(#p6316bd102d)" style="fill: #7aa6c2; stroke: #ffffff; stroke-linejoin: miter"/>
   </g>
   <g id="patch_82">
    <path d="M 116.339943 349.478125 
L 123.552973 349.478125 
L 123.552973 239.124686 
L 116.339943 239.124686 
z
" clip-path="url(#p6316bd102d)" style="fill: #7aa6c2; stroke: #ffffff; stroke-linejoin: miter"/>
   </g>
   <g id="patch_83">
    <path d="M 123.552973 349.478125 
L 130.766004 349.478125 
L 130.766004 256.923628 
L 123.552973 256.923628 
z
" clip-path="url(#p6316bd102d)" style="fill: #7aa6c2; stroke: #ffffff; stroke-linejoin: miter"/>
   </g>
   <g id="patch_84">
    <path d="M 130.766004 349.478125 
L 137.979034 349.478125 
L 137.979034 242.684474 
L 130.766004 242.684474 
z
" clip-path="url(#p6316bd102d)" style="fill: #7aa6c2; stroke: #ffffff; stroke-linejoin: miter"/>
   </g>
   <g id="patch_85">
    <path d="M 137.979034 349.478125 
L 145.192064 349.478125 
L 145.192064 232.005109 
L 137.979034 232.005109 
z
" clip-path="url(#p6316bd102d)" style="fill: #7aa6c2; stroke: #ffffff; stroke-linejoin: miter"/>
   </g>
   <g id="patch_86">
    <path d="M 145.192064 349.478125 
L 152.405095 349.478125 
L 152.405095 292.521511 
L 145.192064 292.521511 
z
" clip-path="url(#p6316bd102d)" style="fill: #7aa6c2; stroke: #ffffff; stroke-linejoin: miter"/>
   </g>
   <g id="patch_87">
    <path d="M 152.405095 349.478125 
L 159.618125 349.478125 
L 159.618125 253.363839 
L 152.405095 253.363839 
z
" clip-path="url(#p6316bd102d)" style="fill: #7aa6c2; stroke: #ffffff; stroke-linejoin: miter"/>
   </g>
   <g id="patch_88">
    <path d="M 159.618125 349.478125 
L 166.831155 349.478125 
L 166.831155 260.483416 
L 159.618125 260.483416 
z
" clip-path="url(#p6316bd102d)" style="fill: #7aa6c2; stroke: #ffffff; stroke-linejoin: miter"/>
   </g>
   <g id="patch_89">
    <path d="M 166.831155 349.478125 
L 174.044186 349.478125 
L 174.044186 296.0813 
L 166.831155 296.0813 
z
" clip-path="url(#p6316bd102d)" style="fill: #7aa6c2; stroke: #ffffff; stroke-linejoin: miter"/>
   </g>
   <g id="patch_90">
    <path d="M 174.044186 349.478125 
L 181.257216 349.478125 
L 181.257216 260.483416 
L 174.044186 260.483416 
z
" clip-path="url(#p6316bd102d)" style="fill: #7aa6c2; stroke: #ffffff; stroke-linejoin: miter"/>
   </g>
   <g id="patch_91">
    <path d="M 181.257216 349.478125 
L 188.470246 349.478125 
L 188.470246 306.760665 
L 181.257216 306.760665 
z
" clip-path="url(#p6316bd102d)" style="fill: #7aa6c2; stroke: #ffffff; stroke-linejoin: miter"/>
   </g>
   <g id="patch_92">
    <path d="M 188.470246 349.478125 
L 195.683277 349.478125 
L 195.683277 292.521511 
L 188.470246 292.521511 
z
" clip-path="url(#p6316bd102d)" style="fill: #7aa6c2; stroke: #ffffff; stroke-linejoin: miter"/>
   </g>
   <g id="patch_93">
    <path d="M 195.683277 349.478125 
L 202.896307 349.478125 
L 202.896307 320.999818 
L 195.683277 320.999818 
z
" clip-path="url(#p6316bd102d)" style="fill: #7aa6c2; stroke: #ffffff; stroke-linejoin: miter"/>
   </g>
   <g id="patch_94">
    <path d="M 202.896307 349.478125 
L 210.109337 349.478125 
L 210.109337 324.559606 
L 202.896307 324.559606 
z
" clip-path="url(#p6316bd102d)" style="fill: #7aa6c2; stroke: #ffffff; stroke-linejoin: miter"/>
   </g>
   <g id="patch_95">
    <path d="M 210.109337 349.478125 
L 217.322367 349.478125 
L 217.322367 335.238972 
L 210.109337 335.238972 
z
" clip-path="url(#p6316bd102d)" style="fill: #7aa6c2; stroke: #ffffff; stroke-linejoin: miter"/>
   </g>
   <g id="patch_96">
    <path d="M 217.322367 349.478125 
L 224.535398 349.478125 
L 224.535398 328.119395 
L 217.322367 328.119395 
z
" clip-path="url(#p6316bd102d)" style="fill: #7aa6c2; stroke: #ffffff; stroke-linejoin: miter"/>
   </g>
   <g id="patch_97">
    <path d="M 224.535398 349.478125 
L 231.748428 349.478125 
L 231.748428 349.478125 
L 224.535398 349.478125 
z
" clip-path="url(#p6316bd102d)" style="fill: #7aa6c2; stroke: #ffffff; stroke-linejoin: miter"/>
   </g>
   <g id="patch_98">
    <path d="M 231.748428 349.478125 
L 238.961458 349.478125 
L 238.961458 342.358548 
L 231.748428 342.358548 
z
" clip-path="url(#p6316bd102d)" style="fill: #7aa6c2; stroke: #ffffff; stroke-linejoin: miter"/>
   </g>
   <g id="patch_99">
    <path d="M 238.961458 349.478125 
L 246.174489 349.478125 
L 246.174489 345.918337 
L 238.961458 345.918337 
z
" clip-path="url(#p6316bd102d)" style="fill: #7aa6c2; stroke: #ffffff; stroke-linejoin: miter"/>
   </g>
   <g id="patch_100">
    <path d="M 246.174489 349.478125 
L 253.387519 349.478125 
L 253.387519 349.478125 
L 246.174489 349.478125 
z
" clip-path="url(#p6316bd102d)" style="fill: #7aa6c2; stroke: #ffffff; stroke-linejoin: miter"/>
   </g>
   <g id="patch_101">
    <path d="M 253.387519 349.478125 
L 260.600549 349.478125 
L 260.600549 345.918337 
L 253.387519 345.918337 
z
" clip-path="url(#p6316bd102d)" style="fill: #7aa6c2; stroke: #ffffff; stroke-linejoin: miter"/>
   </g>
   <g id="patch_102">
    <path d="M 260.600549 349.478125 
L 267.81358 349.478125 
L 267.81358 345.918337 
L 260.600549 345.918337 
z
" clip-path="url(#p6316bd102d)" style="fill: #7aa6c2; stroke: #ffffff; stroke-linejoin: miter"/>
   </g>
   <g id="matplotlib.axis_5">
    <g id="xtick_10">
     <g id="line2d_19">
      <g>
       <use xlink:href="#m0195d2f370" x="41.054536" y="349.478125" style="stroke: #000000; stroke-width: 0.8"/>
      </g>
     </g>
     <g id="text_25">
      <!-- −2 -->
      <g transform="translate(33.683442 364.076562) scale(0.1 -0.1)">
       <defs>
        <path id="DejaVuSans-2212" d="M 678 2272 
L 4684 2272 
L 4684 1741 
L 678 1741 
L 678 2272 
z
" transform="scale(0.015625)"/>
       </defs>
       <use xlink:href="#DejaVuSans-2212"/>
       <use xlink:href="#DejaVuSans-32" transform="translate(83.789062 0)"/>
      </g>
     </g>
    </g>
    <g id="xtick_11">
     <g id="line2d_20">
      <g>
       <use xlink:href="#m0195d2f370" x="84.373312" y="349.478125" style="stroke: #000000; stroke-width: 0.8"/>
      </g>
     </g>
     <g id="text_26">
      <!-- −1 -->
      <g transform="translate(77.002218 364.076562) scale(0.1 -0.1)">
       <use xlink:href="#DejaVuSans-2212"/>
       <use xlink:href="#DejaVuSans-31" transform="translate(83.789062 0)"/>
      </g>
     </g>
    </g>
    <g id="xtick_12">
     <g id="line2d_21">
      <g>
       <use xlink:href="#m0195d2f370" x="127.692088" y="349.478125" style="stroke: #000000; stroke-width: 0.8"/>
      </g>
     </g>
     <g id="text_27">
      <!-- 0 -->
      <g transform="translate(124.510838 364.076562) scale(0.1 -0.1)">
       <use xlink:href="#DejaVuSans-30"/>
      </g>
     </g>
    </g>
    <g id="xtick_13">
     <g id="line2d_22">
      <g>
       <use xlink:href="#m0195d2f370" x="171.010865" y="349.478125" style="stroke: #000000; stroke-width: 0.8"/>
      </g>
     </g>
     <g id="text_28">
      <!-- 1 -->
      <g transform="translate(167.829615 364.076562) scale(0.1 -0.1)">
       <use xlink:href="#DejaVuSans-31"/>
      </g>
     </g>
    </g>
    <g id="xtick_14">
     <g id="line2d_23">
      <g>
       <use xlink:href="#m0195d2f370" x="214.329641" y="349.478125" style="stroke: #000000; stroke-width: 0.8"/>
      </g>
     </g>
     <g id="text_29">
      <!-- 2 -->
      <g transform="translate(211.148391 364.076562) scale(0.1 -0.1)">
       <use xlink:href="#DejaVuSans-32"/>
      </g>
     </g>
    </g>
    <g id="xtick_15">
     <g id="line2d_24">
      <g>
       <use xlink:href="#m0195d2f370" x="257.648417" y="349.478125" style="stroke: #000000; stroke-width: 0.8"/>
      </g>
     </g>
     <g id="text_30">
      <!-- 3 -->
      <g transform="translate(254.467167 364.076562) scale(0.1 -0.1)">
       <use xlink:href="#DejaVuSans-33"/>
      </g>
     </g>
    </g>
    <g id="text_31">
     <!-- Z-score -->
     <g transform="translate(141.043906 377.754687) scale(0.1 -0.1)">
      <defs>
       <path id="DejaVuSans-5a" d="M 359 4666 
L 4025 4666 
L 4025 4184 
L 1075 531 
L 4097 531 
L 4097 0 
L 288 0 
L 288 481 
L 3238 4134 
L 359 4134 
L 359 4666 
z
" transform="scale(0.015625)"/>
       <path id="DejaVuSans-2d" d="M 313 2009 
L 1997 2009 
L 1997 1497 
L 313 1497 
L 313 2009 
z
" transform="scale(0.015625)"/>
       <path id="DejaVuSans-73" d="M 2834 3397 
L 2834 2853 
Q 2591 2978 2328 3040 
Q 2066 3103 1784 3103 
Q 1356 3103 1142 2972 
Q 928 2841 928 2578 
Q 928 2378 1081 2264 
Q 1234 2150 1697 2047 
L 1894 2003 
Q 2506 1872 2764 1633 
Q 3022 1394 3022 966 
Q 3022 478 2636 193 
Q 2250 -91 1575 -91 
Q 1294 -91 989 -36 
Q 684 19 347 128 
L 347 722 
Q 666 556 975 473 
Q 1284 391 1588 391 
Q 1994 391 2212 530 
Q 2431 669 2431 922 
Q 2431 1156 2273 1281 
Q 2116 1406 1581 1522 
L 1381 1569 
Q 847 1681 609 1914 
Q 372 2147 372 2553 
Q 372 3047 722 3315 
Q 1072 3584 1716 3584 
Q 2034 3584 2315 3537 
Q 2597 3491 2834 3397 
z
" transform="scale(0.015625)"/>
       <path id="DejaVuSans-63" d="M 3122 3366 
L 3122 2828 
Q 2878 2963 2633 3030 
Q 2388 3097 2138 3097 
Q 1578 3097 1268 2742 
Q 959 2388 959 1747 
Q 959 1106 1268 751 
Q 1578 397 2138 397 
Q 2388 397 2633 464 
Q 2878 531 3122 666 
L 3122 134 
Q 2881 22 2623 -34 
Q 2366 -91 2075 -91 
Q 1284 -91 818 406 
Q 353 903 353 1747 
Q 353 2603 823 3093 
Q 1294 3584 2113 3584 
Q 2378 3584 2631 3529 
Q 2884 3475 3122 3366 
z
" transform="scale(0.015625)"/>
       <path id="DejaVuSans-72" d="M 2631 2963 
Q 2534 3019 2420 3045 
Q 2306 3072 2169 3072 
Q 1681 3072 1420 2755 
Q 1159 2438 1159 1844 
L 1159 0 
L 581 0 
L 581 3500 
L 1159 3500 
L 1159 2956 
Q 1341 3275 1631 3429 
Q 1922 3584 2338 3584 
Q 2397 3584 2469 3576 
Q 2541 3569 2628 3553 
L 2631 2963 
z
" transform="scale(0.015625)"/>
      </defs>
      <use xlink:href="#DejaVuSans-5a"/>
      <use xlink:href="#DejaVuSans-2d" transform="translate(66.755859 0)"/>
      <use xlink:href="#DejaVuSans-73" transform="translate(102.839844 0)"/>
      <use xlink:href="#DejaVuSans-63" transform="translate(154.939453 0)"/>
      <use xlink:href="#DejaVuSans-6f" transform="translate(209.919922 0)"/>
      <use xlink:href="#DejaVuSans-72" transform="translate(271.101562 0)"/>
      <use xlink:href="#DejaVuSans-65" transform="translate(309.964844 0)"/>
     </g>
    </g>
   </g>
   <g id="matplotlib.axis_6">
    <g id="ytick_10">
     <g id="line2d_25">
      <g>
       <use xlink:href="#m4b9229877d" x="40.603125" y="349.478125" style="stroke: #000000; stroke-width: 0.8"/>
      </g>
     </g>
     <g id="text_32">
      <!-- 0 -->
      <g transform="translate(27.240625 353.277344) scale(0.1 -0.1)">
       <use xlink:href="#DejaVuSans-30"/>
      </g>
     </g>
    </g>
    <g id="ytick_11">
     <g id="line2d_26">
      <g>
       <use xlink:href="#m4b9229877d" x="40.603125" y="313.880241" style="stroke: #000000; stroke-width: 0.8"/>
      </g>
     </g>
     <g id="text_33">
      <!-- 10 -->
      <g transform="translate(20.878125 317.67946) scale(0.1 -0.1)">
       <use xlink:href="#DejaVuSans-31"/>
       <use xlink:href="#DejaVuSans-30" transform="translate(63.623047 0)"/>
      </g>
     </g>
    </g>
    <g id="ytick_12">
     <g id="line2d_27">
      <g>
       <use xlink:href="#m4b9229877d" x="40.603125" y="278.282358" style="stroke: #000000; stroke-width: 0.8"/>
      </g>
     </g>
     <g id="text_34">
      <!-- 20 -->
      <g transform="translate(20.878125 282.081577) scale(0.1 -0.1)">
       <use xlink:href="#DejaVuSans-32"/>
       <use xlink:href="#DejaVuSans-30" transform="translate(63.623047 0)"/>
      </g>
     </g>
    </g>
    <g id="ytick_13">
     <g id="line2d_28">
      <g>
       <use xlink:href="#m4b9229877d" x="40.603125" y="242.684474" style="stroke: #000000; stroke-width: 0.8"/>
      </g>
     </g>
     <g id="text_35">
      <!-- 30 -->
      <g transform="translate(20.878125 246.483693) scale(0.1 -0.1)">
       <use xlink:href="#DejaVuSans-33"/>
       <use xlink:href="#DejaVuSans-30" transform="translate(63.623047 0)"/>
      </g>
     </g>
    </g>
    <g id="text_36">
     <!-- Count -->
     <g transform="translate(14.798438 297.046562) rotate(-90) scale(0.1 -0.1)">
      <use xlink:href="#DejaVuSans-43"/>
      <use xlink:href="#DejaVuSans-6f" transform="translate(69.824219 0)"/>
      <use xlink:href="#DejaVuSans-75" transform="translate(131.005859 0)"/>
      <use xlink:href="#DejaVuSans-6e" transform="translate(194.384766 0)"/>
      <use xlink:href="#DejaVuSans-74" transform="translate(257.763672 0)"/>
     </g>
    </g>
   </g>
   <g id="patch_103">
    <path d="M 40.603125 349.478125 
L 40.603125 214.918125 
" style="fill: none; stroke: #000000; stroke-width: 0.8; stroke-linejoin: miter; stroke-linecap: square"/>
   </g>
   <g id="patch_104">
    <path d="M 278.633125 349.478125 
L 278.633125 214.918125 
" style="fill: none; stroke: #000000; stroke-width: 0.8; stroke-linejoin: miter; stroke-linecap: square"/>
   </g>
   <g id="patch_105">
    <path d="M 40.603125 349.478125 
L 278.633125 349.478125 
" style="fill: none; stroke: #000000; stroke-width: 0.8; stroke-linejoin: miter; stroke-linecap: square"/>
   </g>
   <g id="patch_106">
    <path d="M 40.603125 214.918125 
L 278.633125 214.918125 
" style="fill: none; stroke: #000000; stroke-width: 0.8; stroke-linejoin: miter; stroke-linecap: square"/>
   </g>
   <g id="text_37">
    <!-- Standardized: amount -->
    <g transform="translate(92.92625 208.918125) scale(0.12 -0.12)">
     <defs>
      <path id="DejaVuSans-53" d="M 3425 4513 
L 3425 3897 
Q 3066 4069 2747 4153 
Q 2428 4238 2131 4238 
Q 1616 4238 1336 4038 
Q 1056 3838 1056 3469 
Q 1056 3159 1242 3001 
Q 1428 2844 1947 2747 
L 2328 2669 
Q 3034 2534 3370 2195 
Q 3706 1856 3706 1288 
Q 3706 609 3251 259 
Q 2797 -91 1919 -91 
Q 1588 -91 1214 -16 
Q 841 59 441 206 
L 441 856 
Q 825 641 1194 531 
Q 1563 422 1919 422 
Q 2459 422 2753 634 
Q 3047 847 3047 1241 
Q 3047 1584 2836 1778 
Q 2625 1972 2144 2069 
L 1759 2144 
Q 1053 2284 737 2584 
Q 422 2884 422 3419 
Q 422 4038 858 4394 
Q 1294 4750 2059 4750 
Q 2388 4750 2728 4690 
Q 3069 4631 3425 4513 
z
" transform="scale(0.015625)"/>
      <path id="DejaVuSans-64" d="M 2906 2969 
L 2906 4863 
L 3481 4863 
L 3481 0 
L 2906 0 
L 2906 525 
Q 2725 213 2448 61 
Q 2172 -91 1784 -91 
Q 1150 -91 751 415 
Q 353 922 353 1747 
Q 353 2572 751 3078 
Q 1150 3584 1784 3584 
Q 2172 3584 2448 3432 
Q 2725 3281 2906 2969 
z
M 947 1747 
Q 947 1113 1208 752 
Q 1469 391 1925 391 
Q 2381 391 2643 752 
Q 2906 1113 2906 1747 
Q 2906 2381 2643 2742 
Q 2381 3103 1925 3103 
Q 1469 3103 1208 2742 
Q 947 2381 947 1747 
z
" transform="scale(0.015625)"/>
      <path id="DejaVuSans-69" d="M 603 3500 
L 1178 3500 
L 1178 0 
L 603 0 
L 603 3500 
z
M 603 4863 
L 1178 4863 
L 1178 4134 
L 603 4134 
L 603 4863 
z
" transform="scale(0.015625)"/>
      <path id="DejaVuSans-7a" d="M 353 3500 
L 3084 3500 
L 3084 2975 
L 922 459 
L 3084 459 
L 3084 0 
L 275 0 
L 275 525 
L 2438 3041 
L 353 3041 
L 353 3500 
z
" transform="scale(0.015625)"/>
     </defs>
     <use xlink:href="#DejaVuSans-53"/>
     <use xlink:href="#DejaVuSans-74" transform="translate(63.476562 0)"/>
     <use xlink:href="#DejaVuSans-61" transform="translate(102.685547 0)"/>
     <use xlink:href="#DejaVuSans-6e" transform="translate(163.964844 0)"/>
     <use xlink:href="#DejaVuSans-64" transform="translate(227.34375 0)"/>
     <use xlink:href="#DejaVuSans-61" transform="translate(290.820312 0)"/>
     <use xlink:href="#DejaVuSans-72" transform="translate(352.099609 0)"/>
     <use xlink:href="#DejaVuSans-64" transform="translate(391.462891 0)"/>
     <use xlink:href="#DejaVuSans-69" transform="translate(454.939453 0)"/>
     <use xlink:href="#DejaVuSans-7a" transform="translate(482.722656 0)"/>
     <use xlink:href="#DejaVuSans-65" transform="translate(535.212891 0)"/>
     <use xlink:href="#DejaVuSans-64" transform="translate(596.736328 0)"/>
     <use xlink:href="#DejaVuSans-3a" transform="translate(660.212891 0)"/>
     <use xlink:href="#DejaVuSans-20" transform="translate(693.904297 0)"/>
     <use xlink:href="#DejaVuSans-61" transform="translate(725.691406 0)"/>
     <use xlink:href="#DejaVuSans-6d" transform="translate(786.970703 0)"/>
     <use xlink:href="#DejaVuSans-6f" transform="translate(884.382812 0)"/>
     <use xlink:href="#DejaVuSans-75" transform="translate(945.564453 0)"/>
     <use xlink:href="#DejaVuSans-6e" transform="translate(1008.943359 0)"/>
     <use xlink:href="#DejaVuSans-74" transform="translate(1072.322266 0)"/>
    </g>
   </g>
  </g>
  <g id="axes_4">
   <g id="patch_107">
    <path d="M 323.203125 349.478125 
L 561.233125 349.478125 
L 561.233125 214.918125 
L 323.203125 214.918125 
z
" style="fill: #ffffff"/>
   </g>
   <g id="patch_108">
    <path d="M 334.02267 349.478125 
L 341.235701 349.478125 
L 341.235701 346.692204 
L 334.02267 346.692204 
z
" clip-path="url(#p6bf2f0c2e0)" style="fill: #59a14f; stroke: #ffffff; stroke-linejoin: miter"/>
   </g>
   <g id="patch_109">
    <path d="M 341.235701 349.478125 
L 348.448731 349.478125 
L 348.448731 346.692204 
L 341.235701 346.692204 
z
" clip-path="url(#p6bf2f0c2e0)" style="fill: #59a14f; stroke: #ffffff; stroke-linejoin: miter"/>
   </g>
   <g id="patch_110">
    <path d="M 348.448731 349.478125 
L 355.661761 349.478125 
L 355.661761 341.120361 
L 348.448731 341.120361 
z
" clip-path="url(#p6bf2f0c2e0)" style="fill: #59a14f; stroke: #ffffff; stroke-linejoin: miter"/>
   </g>
   <g id="patch_111">
    <path d="M 355.661761 349.478125 
L 362.874792 349.478125 
L 362.874792 343.906282 
L 355.661761 343.906282 
z
" clip-path="url(#p6bf2f0c2e0)" style="fill: #59a14f; stroke: #ffffff; stroke-linejoin: miter"/>
   </g>
   <g id="patch_112">
    <path d="M 362.874792 349.478125 
L 370.087822 349.478125 
L 370.087822 346.692204 
L 362.874792 346.692204 
z
" clip-path="url(#p6bf2f0c2e0)" style="fill: #59a14f; stroke: #ffffff; stroke-linejoin: miter"/>
   </g>
   <g id="patch_113">
    <path d="M 370.087822 349.478125 
L 377.300852 349.478125 
L 377.300852 335.548518 
L 370.087822 335.548518 
z
" clip-path="url(#p6bf2f0c2e0)" style="fill: #59a14f; stroke: #ffffff; stroke-linejoin: miter"/>
   </g>
   <g id="patch_114">
    <path d="M 377.300852 349.478125 
L 384.513883 349.478125 
L 384.513883 316.047069 
L 377.300852 316.047069 
z
" clip-path="url(#p6bf2f0c2e0)" style="fill: #59a14f; stroke: #ffffff; stroke-linejoin: miter"/>
   </g>
   <g id="patch_115">
    <path d="M 384.513883 349.478125 
L 391.726913 349.478125 
L 391.726913 324.404833 
L 384.513883 324.404833 
z
" clip-path="url(#p6bf2f0c2e0)" style="fill: #59a14f; stroke: #ffffff; stroke-linejoin: miter"/>
   </g>
   <g id="patch_116">
    <path d="M 391.726913 349.478125 
L 398.939943 349.478125 
L 398.939943 324.404833 
L 391.726913 324.404833 
z
" clip-path="url(#p6bf2f0c2e0)" style="fill: #59a14f; stroke: #ffffff; stroke-linejoin: miter"/>
   </g>
   <g id="patch_117">
    <path d="M 398.939943 349.478125 
L 406.152973 349.478125 
L 406.152973 282.616013 
L 398.939943 282.616013 
z
" clip-path="url(#p6bf2f0c2e0)" style="fill: #59a14f; stroke: #ffffff; stroke-linejoin: miter"/>
   </g>
   <g id="patch_118">
    <path d="M 406.152973 349.478125 
L 413.366004 349.478125 
L 413.366004 290.973777 
L 406.152973 290.973777 
z
" clip-path="url(#p6bf2f0c2e0)" style="fill: #59a14f; stroke: #ffffff; stroke-linejoin: miter"/>
   </g>
   <g id="patch_119">
    <path d="M 413.366004 349.478125 
L 420.579034 349.478125 
L 420.579034 293.759698 
L 413.366004 293.759698 
z
" clip-path="url(#p6bf2f0c2e0)" style="fill: #59a14f; stroke: #ffffff; stroke-linejoin: miter"/>
   </g>
   <g id="patch_120">
    <path d="M 420.579034 349.478125 
L 427.792064 349.478125 
L 427.792064 251.970879 
L 420.579034 251.970879 
z
" clip-path="url(#p6bf2f0c2e0)" style="fill: #59a14f; stroke: #ffffff; stroke-linejoin: miter"/>
   </g>
   <g id="patch_121">
    <path d="M 427.792064 349.478125 
L 435.005095 349.478125 
L 435.005095 260.328643 
L 427.792064 260.328643 
z
" clip-path="url(#p6bf2f0c2e0)" style="fill: #59a14f; stroke: #ffffff; stroke-linejoin: miter"/>
   </g>
   <g id="patch_122">
    <path d="M 435.005095 349.478125 
L 442.218125 349.478125 
L 442.218125 221.325744 
L 435.005095 221.325744 
z
" clip-path="url(#p6bf2f0c2e0)" style="fill: #59a14f; stroke: #ffffff; stroke-linejoin: miter"/>
   </g>
   <g id="patch_123">
    <path d="M 442.218125 349.478125 
L 449.431155 349.478125 
L 449.431155 235.255351 
L 442.218125 235.255351 
z
" clip-path="url(#p6bf2f0c2e0)" style="fill: #59a14f; stroke: #ffffff; stroke-linejoin: miter"/>
   </g>
   <g id="patch_124">
    <path d="M 449.431155 349.478125 
L 456.644186 349.478125 
L 456.644186 251.970879 
L 449.431155 251.970879 
z
" clip-path="url(#p6bf2f0c2e0)" style="fill: #59a14f; stroke: #ffffff; stroke-linejoin: miter"/>
   </g>
   <g id="patch_125">
    <path d="M 456.644186 349.478125 
L 463.857216 349.478125 
L 463.857216 254.7568 
L 456.644186 254.7568 
z
" clip-path="url(#p6bf2f0c2e0)" style="fill: #59a14f; stroke: #ffffff; stroke-linejoin: miter"/>
   </g>
   <g id="patch_126">
    <path d="M 463.857216 349.478125 
L 471.070246 349.478125 
L 471.070246 251.970879 
L 463.857216 251.970879 
z
" clip-path="url(#p6bf2f0c2e0)" style="fill: #59a14f; stroke: #ffffff; stroke-linejoin: miter"/>
   </g>
   <g id="patch_127">
    <path d="M 471.070246 349.478125 
L 478.283277 349.478125 
L 478.283277 263.114564 
L 471.070246 263.114564 
z
" clip-path="url(#p6bf2f0c2e0)" style="fill: #59a14f; stroke: #ffffff; stroke-linejoin: miter"/>
   </g>
   <g id="patch_128">
    <path d="M 478.283277 349.478125 
L 485.496307 349.478125 
L 485.496307 265.900485 
L 478.283277 265.900485 
z
" clip-path="url(#p6bf2f0c2e0)" style="fill: #59a14f; stroke: #ffffff; stroke-linejoin: miter"/>
   </g>
   <g id="patch_129">
    <path d="M 485.496307 349.478125 
L 492.709337 349.478125 
L 492.709337 313.261148 
L 485.496307 313.261148 
z
" clip-path="url(#p6bf2f0c2e0)" style="fill: #59a14f; stroke: #ffffff; stroke-linejoin: miter"/>
   </g>
   <g id="patch_130">
    <path d="M 492.709337 349.478125 
L 499.922367 349.478125 
L 499.922367 313.261148 
L 492.709337 313.261148 
z
" clip-path="url(#p6bf2f0c2e0)" style="fill: #59a14f; stroke: #ffffff; stroke-linejoin: miter"/>
   </g>
   <g id="patch_131">
    <path d="M 499.922367 349.478125 
L 507.135398 349.478125 
L 507.135398 290.973777 
L 499.922367 290.973777 
z
" clip-path="url(#p6bf2f0c2e0)" style="fill: #59a14f; stroke: #ffffff; stroke-linejoin: miter"/>
   </g>
   <g id="patch_132">
    <path d="M 507.135398 349.478125 
L 514.348428 349.478125 
L 514.348428 335.548518 
L 507.135398 335.548518 
z
" clip-path="url(#p6bf2f0c2e0)" style="fill: #59a14f; stroke: #ffffff; stroke-linejoin: miter"/>
   </g>
   <g id="patch_133">
    <path d="M 514.348428 349.478125 
L 521.561458 349.478125 
L 521.561458 332.762597 
L 514.348428 332.762597 
z
" clip-path="url(#p6bf2f0c2e0)" style="fill: #59a14f; stroke: #ffffff; stroke-linejoin: miter"/>
   </g>
   <g id="patch_134">
    <path d="M 521.561458 349.478125 
L 528.774489 349.478125 
L 528.774489 329.976676 
L 521.561458 329.976676 
z
" clip-path="url(#p6bf2f0c2e0)" style="fill: #59a14f; stroke: #ffffff; stroke-linejoin: miter"/>
   </g>
   <g id="patch_135">
    <path d="M 528.774489 349.478125 
L 535.987519 349.478125 
L 535.987519 346.692204 
L 528.774489 346.692204 
z
" clip-path="url(#p6bf2f0c2e0)" style="fill: #59a14f; stroke: #ffffff; stroke-linejoin: miter"/>
   </g>
   <g id="patch_136">
    <path d="M 535.987519 349.478125 
L 543.200549 349.478125 
L 543.200549 341.120361 
L 535.987519 341.120361 
z
" clip-path="url(#p6bf2f0c2e0)" style="fill: #59a14f; stroke: #ffffff; stroke-linejoin: miter"/>
   </g>
   <g id="patch_137">
    <path d="M 543.200549 349.478125 
L 550.41358 349.478125 
L 550.41358 338.33444 
L 543.200549 338.33444 
z
" clip-path="url(#p6bf2f0c2e0)" style="fill: #59a14f; stroke: #ffffff; stroke-linejoin: miter"/>
   </g>
   <g id="matplotlib.axis_7">
    <g id="xtick_16">
     <g id="line2d_29">
      <g>
       <use xlink:href="#m0195d2f370" x="335.819722" y="349.478125" style="stroke: #000000; stroke-width: 0.8"/>
      </g>
     </g>
     <g id="text_38">
      <!-- −3 -->
      <g transform="translate(328.448629 364.076562) scale(0.1 -0.1)">
       <use xlink:href="#DejaVuSans-2212"/>
       <use xlink:href="#DejaVuSans-33" transform="translate(83.789062 0)"/>
      </g>
     </g>
    </g>
    <g id="xtick_17">
     <g id="line2d_30">
      <g>
       <use xlink:href="#m0195d2f370" x="373.303078" y="349.478125" style="stroke: #000000; stroke-width: 0.8"/>
      </g>
     </g>
     <g id="text_39">
      <!-- −2 -->
      <g transform="translate(365.931984 364.076562) scale(0.1 -0.1)">
       <use xlink:href="#DejaVuSans-2212"/>
       <use xlink:href="#DejaVuSans-32" transform="translate(83.789062 0)"/>
      </g>
     </g>
    </g>
    <g id="xtick_18">
     <g id="line2d_31">
      <g>
       <use xlink:href="#m0195d2f370" x="410.786433" y="349.478125" style="stroke: #000000; stroke-width: 0.8"/>
      </g>
     </g>
     <g id="text_40">
      <!-- −1 -->
      <g transform="translate(403.415339 364.076562) scale(0.1 -0.1)">
       <use xlink:href="#DejaVuSans-2212"/>
       <use xlink:href="#DejaVuSans-31" transform="translate(83.789062 0)"/>
      </g>
     </g>
    </g>
    <g id="xtick_19">
     <g id="line2d_32">
      <g>
       <use xlink:href="#m0195d2f370" x="448.269788" y="349.478125" style="stroke: #000000; stroke-width: 0.8"/>
      </g>
     </g>
     <g id="text_41">
      <!-- 0 -->
      <g transform="translate(445.088538 364.076562) scale(0.1 -0.1)">
       <use xlink:href="#DejaVuSans-30"/>
      </g>
     </g>
    </g>
    <g id="xtick_20">
     <g id="line2d_33">
      <g>
       <use xlink:href="#m0195d2f370" x="485.753143" y="349.478125" style="stroke: #000000; stroke-width: 0.8"/>
      </g>
     </g>
     <g id="text_42">
      <!-- 1 -->
      <g transform="translate(482.571893 364.076562) scale(0.1 -0.1)">
       <use xlink:href="#DejaVuSans-31"/>
      </g>
     </g>
    </g>
    <g id="xtick_21">
     <g id="line2d_34">
      <g>
       <use xlink:href="#m0195d2f370" x="523.236498" y="349.478125" style="stroke: #000000; stroke-width: 0.8"/>
      </g>
     </g>
     <g id="text_43">
      <!-- 2 -->
      <g transform="translate(520.055248 364.076562) scale(0.1 -0.1)">
       <use xlink:href="#DejaVuSans-32"/>
      </g>
     </g>
    </g>
    <g id="xtick_22">
     <g id="line2d_35">
      <g>
       <use xlink:href="#m0195d2f370" x="560.719853" y="349.478125" style="stroke: #000000; stroke-width: 0.8"/>
      </g>
     </g>
     <g id="text_44">
      <!-- 3 -->
      <g transform="translate(557.538603 364.076562) scale(0.1 -0.1)">
       <use xlink:href="#DejaVuSans-33"/>
      </g>
     </g>
    </g>
    <g id="text_45">
     <!-- Z-score -->
     <g transform="translate(423.643906 377.754687) scale(0.1 -0.1)">
      <use xlink:href="#DejaVuSans-5a"/>
      <use xlink:href="#DejaVuSans-2d" transform="translate(66.755859 0)"/>
      <use xlink:href="#DejaVuSans-73" transform="translate(102.839844 0)"/>
      <use xlink:href="#DejaVuSans-63" transform="translate(154.939453 0)"/>
      <use xlink:href="#DejaVuSans-6f" transform="translate(209.919922 0)"/>
      <use xlink:href="#DejaVuSans-72" transform="translate(271.101562 0)"/>
      <use xlink:href="#DejaVuSans-65" transform="translate(309.964844 0)"/>
     </g>
    </g>
   </g>
   <g id="matplotlib.axis_8">
    <g id="ytick_14">
     <g id="line2d_36">
      <g>
       <use xlink:href="#m4b9229877d" x="323.203125" y="349.478125" style="stroke: #000000; stroke-width: 0.8"/>
      </g>
     </g>
     <g id="text_46">
      <!-- 0 -->
      <g transform="translate(309.840625 353.277344) scale(0.1 -0.1)">
       <use xlink:href="#DejaVuSans-30"/>
      </g>
     </g>
    </g>
    <g id="ytick_15">
     <g id="line2d_37">
      <g>
       <use xlink:href="#m4b9229877d" x="323.203125" y="321.618912" style="stroke: #000000; stroke-width: 0.8"/>
      </g>
     </g>
     <g id="text_47">
      <!-- 10 -->
      <g transform="translate(303.478125 325.41813) scale(0.1 -0.1)">
       <use xlink:href="#DejaVuSans-31"/>
       <use xlink:href="#DejaVuSans-30" transform="translate(63.623047 0)"/>
      </g>
     </g>
    </g>
    <g id="ytick_16">
     <g id="line2d_38">
      <g>
       <use xlink:href="#m4b9229877d" x="323.203125" y="293.759698" style="stroke: #000000; stroke-width: 0.8"/>
      </g>
     </g>
     <g id="text_48">
      <!-- 20 -->
      <g transform="translate(303.478125 297.558917) scale(0.1 -0.1)">
       <use xlink:href="#DejaVuSans-32"/>
       <use xlink:href="#DejaVuSans-30" transform="translate(63.623047 0)"/>
      </g>
     </g>
    </g>
    <g id="ytick_17">
     <g id="line2d_39">
      <g>
       <use xlink:href="#m4b9229877d" x="323.203125" y="265.900485" style="stroke: #000000; stroke-width: 0.8"/>
      </g>
     </g>
     <g id="text_49">
      <!-- 30 -->
      <g transform="translate(303.478125 269.699704) scale(0.1 -0.1)">
       <use xlink:href="#DejaVuSans-33"/>
       <use xlink:href="#DejaVuSans-30" transform="translate(63.623047 0)"/>
      </g>
     </g>
    </g>
    <g id="ytick_18">
     <g id="line2d_40">
      <g>
       <use xlink:href="#m4b9229877d" x="323.203125" y="238.041272" style="stroke: #000000; stroke-width: 0.8"/>
      </g>
     </g>
     <g id="text_50">
      <!-- 40 -->
      <g transform="translate(303.478125 241.840491) scale(0.1 -0.1)">
       <use xlink:href="#DejaVuSans-34"/>
       <use xlink:href="#DejaVuSans-30" transform="translate(63.623047 0)"/>
      </g>
     </g>
    </g>
    <g id="text_51">
     <!-- Count -->
     <g transform="translate(297.398437 297.046562) rotate(-90) scale(0.1 -0.1)">
      <use xlink:href="#DejaVuSans-43"/>
      <use xlink:href="#DejaVuSans-6f" transform="translate(69.824219 0)"/>
      <use xlink:href="#DejaVuSans-75" transform="translate(131.005859 0)"/>
      <use xlink:href="#DejaVuSans-6e" transform="translate(194.384766 0)"/>
      <use xlink:href="#DejaVuSans-74" transform="translate(257.763672 0)"/>
     </g>
    </g>
   </g>
   <g id="patch_138">
    <path d="M 323.203125 349.478125 
L 323.203125 214.918125 
" style="fill: none; stroke: #000000; stroke-width: 0.8; stroke-linejoin: miter; stroke-linecap: square"/>
   </g>
   <g id="patch_139">
    <path d="M 561.233125 349.478125 
L 561.233125 214.918125 
" style="fill: none; stroke: #000000; stroke-width: 0.8; stroke-linejoin: miter; stroke-linecap: square"/>
   </g>
   <g id="patch_140">
    <path d="M 323.203125 349.478125 
L 561.233125 349.478125 
" style="fill: none; stroke: #000000; stroke-width: 0.8; stroke-linejoin: miter; stroke-linecap: square"/>
   </g>
   <g id="patch_141">
    <path d="M 323.203125 214.918125 
L 561.233125 214.918125 
" style="fill: none; stroke: #000000; stroke-width: 0.8; stroke-linejoin: miter; stroke-linecap: square"/>
   </g>
   <g id="text_52">
    <!-- Standardized: age -->
    <g transform="translate(387.498125 208.918125) scale(0.12 -0.12)">
     <use xlink:href="#DejaVuSans-53"/>
     <use xlink:href="#DejaVuSans-74" transform="translate(63.476562 0)"/>
     <use xlink:href="#DejaVuSans-61" transform="translate(102.685547 0)"/>
     <use xlink:href="#DejaVuSans-6e" transform="translate(163.964844 0)"/>
     <use xlink:href="#DejaVuSans-64" transform="translate(227.34375 0)"/>
     <use xlink:href="#DejaVuSans-61" transform="translate(290.820312 0)"/>
     <use xlink:href="#DejaVuSans-72" transform="translate(352.099609 0)"/>
     <use xlink:href="#DejaVuSans-64" transform="translate(391.462891 0)"/>
     <use xlink:href="#DejaVuSans-69" transform="translate(454.939453 0)"/>
     <use xlink:href="#DejaVuSans-7a" transform="translate(482.722656 0)"/>
     <use xlink:href="#DejaVuSans-65" transform="translate(535.212891 0)"/>
     <use xlink:href="#DejaVuSans-64" transform="translate(596.736328 0)"/>
     <use xlink:href="#DejaVuSans-3a" transform="translate(660.212891 0)"/>
     <use xlink:href="#DejaVuSans-20" transform="translate(693.904297 0)"/>
     <use xlink:href="#DejaVuSans-61" transform="translate(725.691406 0)"/>
     <use xlink:href="#DejaVuSans-67" transform="translate(786.970703 0)"/>
     <use xlink:href="#DejaVuSans-65" transform="translate(850.447266 0)"/>
    </g>
   </g>
  </g>
 </g>
 <defs>
  <clipPath id="p4e814f195f">
   <rect x="40.603125" y="22.318125" width="238.03" height="134.56"/>
  </clipPath>
  <clipPath id="p5965c904b4">
   <rect x="323.203125" y="22.318125" width="238.03" height="134.56"/>
  </clipPath>
  <clipPath id="p6316bd102d">
   <rect x="40.603125" y="214.918125" width="238.03" height="134.56"/>
  </clipPath>
  <clipPath id="p6bf2f0c2e0">
   <rect x="323.203125" y="214.918125" width="238.03" height="134.56"/>
  </clipPath>
 </defs>
</svg>
