<svg xmlns="http://www.w3.org/2000/svg" width="600" height="400">
  <rect width="100%" height="100%" fill="white" />
  <text x="40" y="24" font-size="16">Histogram with Quartiles</text>
  <line x1="40" y1="40" x2="40" y2="360" stroke="#333" />
  <line x1="40" y1="360" x2="560" y2="360" stroke="#333" />
  <rect x="40.00" y="265.64" width="23.40" height="94.36" fill="#7aa6c2" /><rect x="66.00" y="72.82" width="23.40" height="287.18" fill="#7aa6c2" /><rect x="92.00" y="97.44" width="23.40" height="262.56" fill="#7aa6c2" /><rect x="118.00" y="40.00" width="23.40" height="320.00" fill="#7aa6c2" /><rect x="144.00" y="76.92" width="23.40" height="283.08" fill="#7aa6c2" /><rect x="170.00" y="138.46" width="23.40" height="221.54" fill="#7aa6c2" /><rect x="196.00" y="191.79" width="23.40" height="168.21" fill="#7aa6c2" /><rect x="222.00" y="277.95" width="23.40" height="82.05" fill="#7aa6c2" /><rect x="248.00" y="294.36" width="23.40" height="65.64" fill="#7aa6c2" /><rect x="274.00" y="277.95" width="23.40" height="82.05" fill="#7aa6c2" /><rect x="300.00" y="302.56" width="23.40" height="57.44" fill="#7aa6c2" /><rect x="326.00" y="343.59" width="23.40" height="16.41" fill="#7aa6c2" /><rect x="352.00" y="323.08" width="23.40" height="36.92" fill="#7aa6c2" /><rect x="378.00" y="343.59" width="23.40" height="16.41" fill="#7aa6c2" /><rect x="404.00" y="339.49" width="23.40" height="20.51" fill="#7aa6c2" /><rect x="430.00" y="347.69" width="23.40" height="12.31" fill="#7aa6c2" /><rect x="456.00" y="351.79" width="23.40" height="8.21" fill="#7aa6c2" /><rect x="482.00" y="347.69" width="23.40" height="12.31" fill="#7aa6c2" /><rect x="508.00" y="360.00" width="23.40" height="0.00" fill="#7aa6c2" /><rect x="534.00" y="355.90" width="23.40" height="4.10" fill="#7aa6c2" />
  <line x1="106.11" y1="40" x2="106.11" y2="360" stroke="#f28e2b" stroke-width="2" stroke-dasharray="6,4" /><text x="110.11" y="54" fill="#f28e2b" font-size="12">Q1</text><line x1="150.63" y1="40" x2="150.63" y2="360" stroke="#e15759" stroke-width="2" stroke-dasharray="6,4" /><text x="154.63" y="54" fill="#e15759" font-size="12">Q2</text><line x1="204.97" y1="40" x2="204.97" y2="360" stroke="#59a14f" stroke-width="2" stroke-dasharray="6,4" /><text x="208.97" y="54" fill="#59a14f" font-size="12">Q3</text>
</svg>
