<?xml version="1.0" encoding="utf-8" standalone="no"?>
<!DOCTYPE svg PUBLIC "-//W3C//DTD SVG 1.1//EN"
  "http://www.w3.org/Graphics/SVG/1.1/DTD/svg11.dtd">
<svg xmlns:xlink="http://www.w3.org/1999/xlink" width="928.8pt" height="411.965217pt" viewBox="0 0 928.8 411.965217" xmlns="http://www.w3.org/2000/svg" version="1.1">
 <metadata>
  <rdf:RDF xmlns:dc="http://purl.org/dc/elements/1.1/" xmlns:cc="http://creativecommons.org/ns#" xmlns:rdf="http://www.w3.org/1999/02/22-rdf-syntax-ns#">
   <cc:Work>
    <dc:type rdf:resource="http://purl.org/dc/dcmitype/StillImage"/>
    <dc:date>2026-05-26T13:03:39.765821</dc:date>
    <dc:format>image/svg+xml</dc:format>
    <dc:creator>
     <cc:Agent>
      <dc:title>Matplotlib v3.10.8, https://matplotlib.org/</dc:title>
     </cc:Agent>
    </dc:creator>
   </cc:Work>
  </rdf:RDF>
 </metadata>
 <defs>
  <style type="text/css">*{stroke-linejoin: round; stroke-linecap: butt}</style>
 </defs>
 <g id="figure_1">
  <g id="patch_1">
   <path d="M 0 411.965217 
L 928.8 411.965217 
L 928.8 0 
L 0 0 
z
" style="fill: #ffffff"/>
  </g>
  <g id="axes_1">
   <g id="patch_2">
    <path d="M 86.713043 245.73913 
C 97.256596 245.73913 107.369732 241.550133 114.82515 234.094715 
C 122.280567 226.639297 126.469565 216.526162 126.469565 205.982609 
C 126.469565 195.439056 122.280567 185.32592 114.82515 177.870503 
C 107.369732 170.415085 97.256596 166.226087 86.713043 166.226087 
C 76.169491 166.226087 66.056355 170.415085 58.600937 177.870503 
C 51.14552 185.32592 46.956522 195.439056 46.956522 205.982609 
C 46.956522 216.526162 51.14552 226.639297 58.600937 234.094715 
C 66.056355 241.550133 76.169491 245.73913 86.713043 245.73913 
z
" clip-path="url(#p3276652d50)" style="fill: #ffffff; stroke: #000000; stroke-width: 1.5; stroke-linejoin: miter"/>
   </g>
   <g id="patch_3">
    <path d="M 86.713043 166.226087 
C 97.256596 166.226087 107.369732 162.037089 114.82515 154.581671 
C 122.280567 147.126254 126.469565 137.013118 126.469565 126.469565 
C 126.469565 115.926012 122.280567 105.812877 114.82515 98.357459 
C 107.369732 90.902041 97.256596 86.713043 86.713043 86.713043 
C 76.169491 86.713043 66.056355 90.902041 58.600937 98.357459 
C 51.14552 105.812877 46.956522 115.926012 46.956522 126.469565 
C 46.956522 137.013118 51.14552 147.126254 58.600937 154.581671 
C 66.056355 162.037089 76.169491 166.226087 86.713043 166.226087 
z
" clip-path="url(#p3276652d50)" style="fill: #ffffff; stroke: #000000; stroke-width: 1.5; stroke-linejoin: miter"/>
   </g>
   <g id="patch_4">
    <path d="M 86.713043 325.252174 
C 97.256596 325.252174 107.369732 321.063176 114.82515 313.607758 
C 122.280567 306.152341 126.469565 296.039205 126.469565 285.495652 
C 126.469565 274.952099 122.280567 264.838964 114.82515 257.383546 
C 107.369732 249.928128 97.256596 245.73913 86.713043 245.73913 
C 76.169491 245.73913 66.056355 249.928128 58.600937 257.383546 
C 51.14552 264.838964 46.956522 274.952099 46.956522 285.495652 
C 46.956522 296.039205 51.14552 306.152341 58.600937 313.607758 
C 66.056355 321.063176 76.169491 325.252174 86.713043 325.252174 
z
" clip-path="url(#p3276652d50)" style="fill: #ffffff; stroke: #000000; stroke-width: 1.5; stroke-linejoin: miter"/>
   </g>
   <g id="patch_5">
    <path d="M 285.495652 245.73913 
C 296.039205 245.73913 306.152341 241.550133 313.607758 234.094715 
C 321.063176 226.639297 325.252174 216.526162 325.252174 205.982609 
C 325.252174 195.439056 321.063176 185.32592 313.607758 177.870503 
C 306.152341 170.415085 296.039205 166.226087 285.495652 166.226087 
C 274.952099 166.226087 264.838964 170.415085 257.383546 177.870503 
C 249.928128 185.32592 245.73913 195.439056 245.73913 205.982609 
C 245.73913 216.526162 249.928128 226.639297 257.383546 234.094715 
C 264.838964 241.550133 274.952099 245.73913 285.495652 245.73913 
z
" clip-path="url(#p3276652d50)" style="fill: #ffffff; stroke: #000000; stroke-width: 1.5; stroke-linejoin: miter"/>
   </g>
   <g id="patch_6">
    <path d="M 444.521739 245.73913 
C 455.065292 245.73913 465.178428 241.550133 472.633845 234.094715 
C 480.089263 226.639297 484.278261 216.526162 484.278261 205.982609 
C 484.278261 195.439056 480.089263 185.32592 472.633845 177.870503 
C 465.178428 170.415085 455.065292 166.226087 444.521739 166.226087 
C 433.978186 166.226087 423.865051 170.415085 416.409633 177.870503 
C 408.954215 185.32592 404.765217 195.439056 404.765217 205.982609 
C 404.765217 216.526162 408.954215 226.639297 416.409633 234.094715 
C 423.865051 241.550133 433.978186 245.73913 444.521739 245.73913 
z
" clip-path="url(#p3276652d50)" style="fill: #ffffff; stroke: #000000; stroke-width: 1.5; stroke-linejoin: miter"/>
   </g>
   <g id="patch_7">
    <path d="M 444.521739 150.323478 
C 455.065292 150.323478 465.178428 146.13448 472.633845 138.679063 
C 480.089263 131.223645 484.278261 121.110509 484.278261 110.566957 
C 484.278261 100.023404 480.089263 89.910268 472.633845 82.45485 
C 465.178428 74.999433 455.065292 70.810435 444.521739 70.810435 
C 433.978186 70.810435 423.865051 74.999433 416.409633 82.45485 
C 408.954215 89.910268 404.765217 100.023404 404.765217 110.566957 
C 404.765217 121.110509 408.954215 131.223645 416.409633 138.679063 
C 423.865051 146.13448 433.978186 150.323478 444.521739 150.323478 
z
" clip-path="url(#p3276652d50)" style="fill: #ffffff; stroke: #000000; stroke-width: 1.5; stroke-linejoin: miter"/>
   </g>
   <g id="patch_8">
    <path d="M 444.521739 341.154783 
C 455.065292 341.154783 465.178428 336.965785 472.633845 329.510367 
C 480.089263 322.054949 484.278261 311.941814 484.278261 301.398261 
C 484.278261 290.854708 480.089263 280.741572 472.633845 273.286155 
C 465.178428 265.830737 455.065292 261.641739 444.521739 261.641739 
C 433.978186 261.641739 423.865051 265.830737 416.409633 273.286155 
C 408.954215 280.741572 404.765217 290.854708 404.765217 301.398261 
C 404.765217 311.941814 408.954215 322.054949 416.409633 329.510367 
C 423.865051 336.965785 433.978186 341.154783 444.521739 341.154783 
z
" clip-path="url(#p3276652d50)" style="fill: #ffffff; stroke: #000000; stroke-width: 1.5; stroke-linejoin: miter"/>
   </g>
   <g id="patch_9">
    <path d="M 643.304348 245.73913 
C 653.847901 245.73913 663.961036 241.550133 671.416454 234.094715 
C 678.871872 226.639297 683.06087 216.526162 683.06087 205.982609 
C 683.06087 195.439056 678.871872 185.32592 671.416454 177.870503 
C 663.961036 170.415085 653.847901 166.226087 643.304348 166.226087 
C 632.760795 166.226087 622.647659 170.415085 615.192242 177.870503 
C 607.736824 185.32592 603.547826 195.439056 603.547826 205.982609 
C 603.547826 216.526162 607.736824 226.639297 615.192242 234.094715 
C 622.647659 241.550133 632.760795 245.73913 643.304348 245.73913 
z
" clip-path="url(#p3276652d50)" style="fill: #ffffff; stroke: #000000; stroke-width: 1.5; stroke-linejoin: miter"/>
   </g>
   <g id="patch_10">
    <path d="M 842.086957 245.73913 
C 852.630509 245.73913 862.743645 241.550133 870.199063 234.094715 
C 877.65448 226.639297 881.843478 216.526162 881.843478 205.982609 
C 881.843478 195.439056 877.65448 185.32592 870.199063 177.870503 
C 862.743645 170.415085 852.630509 166.226087 842.086957 166.226087 
C 831.543404 166.226087 821.430268 170.415085 813.97485 177.870503 
C 806.519433 185.32592 802.330435 195.439056 802.330435 205.982609 
C 802.330435 216.526162 806.519433 226.639297 813.97485 234.094715 
C 821.430268 241.550133 831.543404 245.73913 842.086957 245.73913 
z
" clip-path="url(#p3276652d50)" style="fill: #ffffff; stroke: #000000; stroke-width: 1.5; stroke-linejoin: miter"/>
   </g>
   <g id="text_1">
    <!-- x -->
    <g transform="translate(83.488043 200.790679) scale(0.1 -0.1)">
     <defs>
      <path id="DejaVuSans-Bold-78" d="M 1422 1791 
L 159 3500 
L 1344 3500 
L 2059 2463 
L 2784 3500 
L 3969 3500 
L 2706 1797 
L 4031 0 
L 2847 0 
L 2059 1106 
L 1281 0 
L 97 0 
L 1422 1791 
z
" transform="scale(0.015625)"/>
     </defs>
     <use xlink:href="#DejaVuSans-Bold-78"/>
    </g>
   </g>
   <g id="text_2">
    <!-- =2.0 -->
    <g style="fill: #7aa6c2" transform="translate(75.785778 224.368655) scale(0.09 -0.09)">
     <defs>
      <path id="DejaVuSans-3d" d="M 678 2906 
L 4684 2906 
L 4684 2381 
L 678 2381 
L 678 2906 
z
M 678 1631 
L 4684 1631 
L 4684 1100 
L 678 1100 
L 678 1631 
z
" transform="scale(0.015625)"/>
      <path id="DejaVuSans-32" d="M 1228 531 
L 3431 531 
L 3431 0 
L 469 0 
L 469 531 
Q 828 903 1448 1529 
Q 2069 2156 2228 2338 
Q 2531 2678 2651 2914 
Q 2772 3150 2772 3378 
Q 2772 3750 2511 3984 
Q 2250 4219 1831 4219 
Q 1534 4219 1204 4116 
Q 875 4013 500 3803 
L 500 4441 
Q 881 4594 1212 4672 
Q 1544 4750 1819 4750 
Q 2544 4750 2975 4387 
Q 3406 4025 3406 3419 
Q 3406 3131 3298 2873 
Q 3191 2616 2906 2266 
Q 2828 2175 2409 1742 
Q 1991 1309 1228 531 
z
" transform="scale(0.015625)"/>
      <path id="DejaVuSans-2e" d="M 684 794 
L 1344 794 
L 1344 0 
L 684 0 
L 684 794 
z
" transform="scale(0.015625)"/>
      <path id="DejaVuSans-30" d="M 2034 4250 
Q 1547 4250 1301 3770 
Q 1056 3291 1056 2328 
Q 1056 1369 1301 889 
Q 1547 409 2034 409 
Q 2525 409 2770 889 
Q 3016 1369 3016 2328 
Q 3016 3291 2770 3770 
Q 2525 4250 2034 4250 
z
M 2034 4750 
Q 2819 4750 3233 4129 
Q 3647 3509 3647 2328 
Q 3647 1150 3233 529 
Q 2819 -91 2034 -91 
Q 1250 -91 836 529 
Q 422 1150 422 2328 
Q 422 3509 836 4129 
Q 1250 4750 2034 4750 
z
" transform="scale(0.015625)"/>
     </defs>
     <use xlink:href="#DejaVuSans-3d"/>
     <use xlink:href="#DejaVuSans-32" transform="translate(83.789062 0)"/>
     <use xlink:href="#DejaVuSans-2e" transform="translate(147.412109 0)"/>
     <use xlink:href="#DejaVuSans-30" transform="translate(179.199219 0)"/>
    </g>
   </g>
   <g id="text_3">
    <!-- w1 -->
    <g transform="translate(78.614606 121.277636) scale(0.1 -0.1)">
     <defs>
      <path id="DejaVuSans-Bold-77" d="M 225 3500 
L 1313 3500 
L 1900 1088 
L 2491 3500 
L 3425 3500 
L 4013 1113 
L 4603 3500 
L 5691 3500 
L 4769 0 
L 3547 0 
L 2956 2406 
L 2369 0 
L 1147 0 
L 225 3500 
z
" transform="scale(0.015625)"/>
      <path id="DejaVuSans-Bold-31" d="M 750 831 
L 1813 831 
L 1813 3847 
L 722 3622 
L 722 4441 
L 1806 4666 
L 2950 4666 
L 2950 831 
L 4013 831 
L 4013 0 
L 750 0 
L 750 831 
z
" transform="scale(0.015625)"/>
     </defs>
     <use xlink:href="#DejaVuSans-Bold-77"/>
     <use xlink:href="#DejaVuSans-Bold-31" transform="translate(92.382812 0)"/>
    </g>
   </g>
   <g id="text_4">
    <!-- =3.0 -->
    <g style="fill: #7aa6c2" transform="translate(75.785778 144.855611) scale(0.09 -0.09)">
     <defs>
      <path id="DejaVuSans-33" d="M 2597 2516 
Q 3050 2419 3304 2112 
Q 3559 1806 3559 1356 
Q 3559 666 3084 287 
Q 2609 -91 1734 -91 
Q 1441 -91 1130 -33 
Q 819 25 488 141 
L 488 750 
Q 750 597 1062 519 
Q 1375 441 1716 441 
Q 2309 441 2620 675 
Q 2931 909 2931 1356 
Q 2931 1769 2642 2001 
Q 2353 2234 1838 2234 
L 1294 2234 
L 1294 2753 
L 1863 2753 
Q 2328 2753 2575 2939 
Q 2822 3125 2822 3475 
Q 2822 3834 2567 4026 
Q 2313 4219 1838 4219 
Q 1578 4219 1281 4162 
Q 984 4106 628 3988 
L 628 4550 
Q 988 4650 1302 4700 
Q 1616 4750 1894 4750 
Q 2613 4750 3031 4423 
Q 3450 4097 3450 3541 
Q 3450 3153 3228 2886 
Q 3006 2619 2597 2516 
z
" transform="scale(0.015625)"/>
     </defs>
     <use xlink:href="#DejaVuSans-3d"/>
     <use xlink:href="#DejaVuSans-33" transform="translate(83.789062 0)"/>
     <use xlink:href="#DejaVuSans-2e" transform="translate(147.412109 0)"/>
     <use xlink:href="#DejaVuSans-30" transform="translate(179.199219 0)"/>
    </g>
   </g>
   <g id="text_5">
    <!-- ∂L/∂w1=-1.0 -->
    <g style="fill: #e15759" transform="translate(60.485231 70.810435) scale(0.085 -0.085)">
     <defs>
      <path id="DejaVuSans-2202" d="M 1366 -91 
Q 925 -91 638 175 
Q 297 491 297 1063 
Q 297 1656 597 2119 
Q 906 2594 1463 2594 
Q 1828 2594 2116 2366 
Q 2284 2231 2400 2006 
Q 2441 2259 2441 2547 
Q 2441 2969 2341 3213 
Q 2119 3753 1531 3753 
Q 1309 3753 966 3616 
L 966 4141 
Q 1328 4238 1653 4238 
Q 2491 4238 2847 3469 
Q 3013 3106 3013 2566 
Q 3013 2213 2934 1803 
Q 2738 778 2228 291 
Q 1828 -91 1366 -91 
z
M 831 969 
Q 831 656 969 488 
Q 1116 309 1341 309 
Q 1541 309 1700 450 
Q 1925 644 2091 959 
Q 2228 1219 2297 1497 
Q 2019 2169 1538 2169 
Q 1125 2169 944 1625 
Q 831 1288 831 969 
z
" transform="scale(0.015625)"/>
      <path id="DejaVuSans-4c" d="M 628 4666 
L 1259 4666 
L 1259 531 
L 3531 531 
L 3531 0 
L 628 0 
L 628 4666 
z
" transform="scale(0.015625)"/>
      <path id="DejaVuSans-2f" d="M 1625 4666 
L 2156 4666 
L 531 -594 
L 0 -594 
L 1625 4666 
z
" transform="scale(0.015625)"/>
      <path id="DejaVuSans-77" d="M 269 3500 
L 844 3500 
L 1563 769 
L 2278 3500 
L 2956 3500 
L 3675 769 
L 4391 3500 
L 4966 3500 
L 4050 0 
L 3372 0 
L 2619 2869 
L 1863 0 
L 1184 0 
L 269 3500 
z
" transform="scale(0.015625)"/>
      <path id="DejaVuSans-31" d="M 794 531 
L 1825 531 
L 1825 4091 
L 703 3866 
L 703 4441 
L 1819 4666 
L 2450 4666 
L 2450 531 
L 3481 531 
L 3481 0 
L 794 0 
L 794 531 
z
" transform="scale(0.015625)"/>
      <path id="DejaVuSans-2d" d="M 313 2009 
L 1997 2009 
L 1997 1497 
L 313 1497 
L 313 2009 
z
" transform="scale(0.015625)"/>
     </defs>
     <use xlink:href="#DejaVuSans-2202"/>
     <use xlink:href="#DejaVuSans-4c" transform="translate(51.708984 0)"/>
     <use xlink:href="#DejaVuSans-2f" transform="translate(107.421875 0)"/>
     <use xlink:href="#DejaVuSans-2202" transform="translate(141.113281 0)"/>
     <use xlink:href="#DejaVuSans-77" transform="translate(192.822266 0)"/>
     <use xlink:href="#DejaVuSans-31" transform="translate(274.609375 0)"/>
     <use xlink:href="#DejaVuSans-3d" transform="translate(338.232422 0)"/>
     <use xlink:href="#DejaVuSans-2d" transform="translate(422.021484 0)"/>
     <use xlink:href="#DejaVuSans-31" transform="translate(458.105469 0)"/>
     <use xlink:href="#DejaVuSans-2e" transform="translate(521.728516 0)"/>
     <use xlink:href="#DejaVuSans-30" transform="translate(553.515625 0)"/>
    </g>
   </g>
   <g id="text_6">
    <!-- b1 -->
    <g transform="translate(79.655231 280.303723) scale(0.1 -0.1)">
     <defs>
      <path id="DejaVuSans-Bold-62" d="M 2400 722 
Q 2759 722 2948 984 
Q 3138 1247 3138 1747 
Q 3138 2247 2948 2509 
Q 2759 2772 2400 2772 
Q 2041 2772 1848 2508 
Q 1656 2244 1656 1747 
Q 1656 1250 1848 986 
Q 2041 722 2400 722 
z
M 1656 2988 
Q 1888 3294 2169 3439 
Q 2450 3584 2816 3584 
Q 3463 3584 3878 3070 
Q 4294 2556 4294 1747 
Q 4294 938 3878 423 
Q 3463 -91 2816 -91 
Q 2450 -91 2169 54 
Q 1888 200 1656 506 
L 1656 0 
L 538 0 
L 538 4863 
L 1656 4863 
L 1656 2988 
z
" transform="scale(0.015625)"/>
     </defs>
     <use xlink:href="#DejaVuSans-Bold-62"/>
     <use xlink:href="#DejaVuSans-Bold-31" transform="translate(71.582031 0)"/>
    </g>
   </g>
   <g id="text_7">
    <!-- =-1.0 -->
    <g style="fill: #7aa6c2" transform="translate(74.162262 303.881698) scale(0.09 -0.09)">
     <use xlink:href="#DejaVuSans-3d"/>
     <use xlink:href="#DejaVuSans-2d" transform="translate(83.789062 0)"/>
     <use xlink:href="#DejaVuSans-31" transform="translate(119.873047 0)"/>
     <use xlink:href="#DejaVuSans-2e" transform="translate(183.496094 0)"/>
     <use xlink:href="#DejaVuSans-30" transform="translate(215.283203 0)"/>
    </g>
   </g>
   <g id="text_8">
    <!-- ∂L/∂b1=-0.5 -->
    <g style="fill: #e15759" transform="translate(61.262848 229.836522) scale(0.085 -0.085)">
     <defs>
      <path id="DejaVuSans-62" d="M 3116 1747 
Q 3116 2381 2855 2742 
Q 2594 3103 2138 3103 
Q 1681 3103 1420 2742 
Q 1159 2381 1159 1747 
Q 1159 1113 1420 752 
Q 1681 391 2138 391 
Q 2594 391 2855 752 
Q 3116 1113 3116 1747 
z
M 1159 2969 
Q 1341 3281 1617 3432 
Q 1894 3584 2278 3584 
Q 2916 3584 3314 3078 
Q 3713 2572 3713 1747 
Q 3713 922 3314 415 
Q 2916 -91 2278 -91 
Q 1894 -91 1617 61 
Q 1341 213 1159 525 
L 1159 0 
L 581 0 
L 581 4863 
L 1159 4863 
L 1159 2969 
z
" transform="scale(0.015625)"/>
      <path id="DejaVuSans-35" d="M 691 4666 
L 3169 4666 
L 3169 4134 
L 1269 4134 
L 1269 2991 
Q 1406 3038 1543 3061 
Q 1681 3084 1819 3084 
Q 2600 3084 3056 2656 
Q 3513 2228 3513 1497 
Q 3513 744 3044 326 
Q 2575 -91 1722 -91 
Q 1428 -91 1123 -41 
Q 819 9 494 109 
L 494 744 
Q 775 591 1075 516 
Q 1375 441 1709 441 
Q 2250 441 2565 725 
Q 2881 1009 2881 1497 
Q 2881 1984 2565 2268 
Q 2250 2553 1709 2553 
Q 1456 2553 1204 2497 
Q 953 2441 691 2322 
L 691 4666 
z
" transform="scale(0.015625)"/>
     </defs>
     <use xlink:href="#DejaVuSans-2202"/>
     <use xlink:href="#DejaVuSans-4c" transform="translate(51.708984 0)"/>
     <use xlink:href="#DejaVuSans-2f" transform="translate(107.421875 0)"/>
     <use xlink:href="#DejaVuSans-2202" transform="translate(141.113281 0)"/>
     <use xlink:href="#DejaVuSans-62" transform="translate(192.822266 0)"/>
     <use xlink:href="#DejaVuSans-31" transform="translate(256.298828 0)"/>
     <use xlink:href="#DejaVuSans-3d" transform="translate(319.921875 0)"/>
     <use xlink:href="#DejaVuSans-2d" transform="translate(403.710938 0)"/>
     <use xlink:href="#DejaVuSans-30" transform="translate(439.794922 0)"/>
     <use xlink:href="#DejaVuSans-2e" transform="translate(503.417969 0)"/>
     <use xlink:href="#DejaVuSans-35" transform="translate(535.205078 0)"/>
    </g>
   </g>
   <g id="text_9">
    <!-- z1 -->
    <g transform="translate(279.10659 200.790679) scale(0.1 -0.1)">
     <defs>
      <path id="DejaVuSans-Bold-7a" d="M 366 3500 
L 3419 3500 
L 3419 2719 
L 1575 800 
L 3419 800 
L 3419 0 
L 288 0 
L 288 781 
L 2131 2700 
L 366 2700 
L 366 3500 
z
" transform="scale(0.015625)"/>
     </defs>
     <use xlink:href="#DejaVuSans-Bold-7a"/>
     <use xlink:href="#DejaVuSans-Bold-31" transform="translate(58.203125 0)"/>
    </g>
   </g>
   <g id="text_10">
    <!-- =5.0 -->
    <g style="fill: #7aa6c2" transform="translate(274.568387 224.368655) scale(0.09 -0.09)">
     <use xlink:href="#DejaVuSans-3d"/>
     <use xlink:href="#DejaVuSans-35" transform="translate(83.789062 0)"/>
     <use xlink:href="#DejaVuSans-2e" transform="translate(147.412109 0)"/>
     <use xlink:href="#DejaVuSans-30" transform="translate(179.199219 0)"/>
    </g>
   </g>
   <g id="text_11">
    <!-- ∂L/∂z1=-0.5 -->
    <g style="fill: #e15759" transform="translate(260.512957 150.323478) scale(0.085 -0.085)">
     <defs>
      <path id="DejaVuSans-7a" d="M 353 3500 
L 3084 3500 
L 3084 2975 
L 922 459 
L 3084 459 
L 3084 0 
L 275 0 
L 275 525 
L 2438 3041 
L 353 3041 
L 353 3500 
z
" transform="scale(0.015625)"/>
     </defs>
     <use xlink:href="#DejaVuSans-2202"/>
     <use xlink:href="#DejaVuSans-4c" transform="translate(51.708984 0)"/>
     <use xlink:href="#DejaVuSans-2f" transform="translate(107.421875 0)"/>
     <use xlink:href="#DejaVuSans-2202" transform="translate(141.113281 0)"/>
     <use xlink:href="#DejaVuSans-7a" transform="translate(192.822266 0)"/>
     <use xlink:href="#DejaVuSans-31" transform="translate(245.3125 0)"/>
     <use xlink:href="#DejaVuSans-3d" transform="translate(308.935547 0)"/>
     <use xlink:href="#DejaVuSans-2d" transform="translate(392.724609 0)"/>
     <use xlink:href="#DejaVuSans-30" transform="translate(428.808594 0)"/>
     <use xlink:href="#DejaVuSans-2e" transform="translate(492.431641 0)"/>
     <use xlink:href="#DejaVuSans-35" transform="translate(524.21875 0)"/>
    </g>
   </g>
   <g id="text_12">
    <!-- a1 -->
    <g transform="translate(437.668614 200.790679) scale(0.1 -0.1)">
     <defs>
      <path id="DejaVuSans-Bold-61" d="M 2106 1575 
Q 1756 1575 1579 1456 
Q 1403 1338 1403 1106 
Q 1403 894 1545 773 
Q 1688 653 1941 653 
Q 2256 653 2472 879 
Q 2688 1106 2688 1447 
L 2688 1575 
L 2106 1575 
z
M 3816 1997 
L 3816 0 
L 2688 0 
L 2688 519 
Q 2463 200 2181 54 
Q 1900 -91 1497 -91 
Q 953 -91 614 226 
Q 275 544 275 1050 
Q 275 1666 698 1953 
Q 1122 2241 2028 2241 
L 2688 2241 
L 2688 2328 
Q 2688 2594 2478 2717 
Q 2269 2841 1825 2841 
Q 1466 2841 1156 2769 
Q 847 2697 581 2553 
L 581 3406 
Q 941 3494 1303 3539 
Q 1666 3584 2028 3584 
Q 2975 3584 3395 3211 
Q 3816 2838 3816 1997 
z
" transform="scale(0.015625)"/>
     </defs>
     <use xlink:href="#DejaVuSans-Bold-61"/>
     <use xlink:href="#DejaVuSans-Bold-31" transform="translate(67.480469 0)"/>
    </g>
   </g>
   <g id="text_13">
    <!-- =5.0 -->
    <g style="fill: #7aa6c2" transform="translate(433.594474 224.368655) scale(0.09 -0.09)">
     <use xlink:href="#DejaVuSans-3d"/>
     <use xlink:href="#DejaVuSans-35" transform="translate(83.789062 0)"/>
     <use xlink:href="#DejaVuSans-2e" transform="translate(147.412109 0)"/>
     <use xlink:href="#DejaVuSans-30" transform="translate(179.199219 0)"/>
    </g>
   </g>
   <g id="text_14">
    <!-- w2 -->
    <g transform="translate(436.423302 105.375027) scale(0.1 -0.1)">
     <defs>
      <path id="DejaVuSans-Bold-32" d="M 1844 884 
L 3897 884 
L 3897 0 
L 506 0 
L 506 884 
L 2209 2388 
Q 2438 2594 2547 2791 
Q 2656 2988 2656 3200 
Q 2656 3528 2436 3728 
Q 2216 3928 1850 3928 
Q 1569 3928 1234 3808 
Q 900 3688 519 3450 
L 519 4475 
Q 925 4609 1322 4679 
Q 1719 4750 2100 4750 
Q 2938 4750 3402 4381 
Q 3866 4013 3866 3353 
Q 3866 2972 3669 2642 
Q 3472 2313 2841 1759 
L 1844 884 
z
" transform="scale(0.015625)"/>
     </defs>
     <use xlink:href="#DejaVuSans-Bold-77"/>
     <use xlink:href="#DejaVuSans-Bold-32" transform="translate(92.382812 0)"/>
    </g>
   </g>
   <g id="text_15">
    <!-- =0.5 -->
    <g style="fill: #7aa6c2" transform="translate(433.594474 128.953003) scale(0.09 -0.09)">
     <use xlink:href="#DejaVuSans-3d"/>
     <use xlink:href="#DejaVuSans-30" transform="translate(83.789062 0)"/>
     <use xlink:href="#DejaVuSans-2e" transform="translate(147.412109 0)"/>
     <use xlink:href="#DejaVuSans-35" transform="translate(179.199219 0)"/>
    </g>
   </g>
   <g id="text_16">
    <!-- ∂L/∂w2=-5.0 -->
    <g style="fill: #e15759" transform="translate(418.293927 54.907826) scale(0.085 -0.085)">
     <use xlink:href="#DejaVuSans-2202"/>
     <use xlink:href="#DejaVuSans-4c" transform="translate(51.708984 0)"/>
     <use xlink:href="#DejaVuSans-2f" transform="translate(107.421875 0)"/>
     <use xlink:href="#DejaVuSans-2202" transform="translate(141.113281 0)"/>
     <use xlink:href="#DejaVuSans-77" transform="translate(192.822266 0)"/>
     <use xlink:href="#DejaVuSans-32" transform="translate(274.609375 0)"/>
     <use xlink:href="#DejaVuSans-3d" transform="translate(338.232422 0)"/>
     <use xlink:href="#DejaVuSans-2d" transform="translate(422.021484 0)"/>
     <use xlink:href="#DejaVuSans-35" transform="translate(458.105469 0)"/>
     <use xlink:href="#DejaVuSans-2e" transform="translate(521.728516 0)"/>
     <use xlink:href="#DejaVuSans-30" transform="translate(553.515625 0)"/>
    </g>
   </g>
   <g id="text_17">
    <!-- b2 -->
    <g transform="translate(437.463927 296.206332) scale(0.1 -0.1)">
     <use xlink:href="#DejaVuSans-Bold-62"/>
     <use xlink:href="#DejaVuSans-Bold-32" transform="translate(71.582031 0)"/>
    </g>
   </g>
   <g id="text_18">
    <!-- =2.0 -->
    <g style="fill: #7aa6c2" transform="translate(433.594474 319.784307) scale(0.09 -0.09)">
     <use xlink:href="#DejaVuSans-3d"/>
     <use xlink:href="#DejaVuSans-32" transform="translate(83.789062 0)"/>
     <use xlink:href="#DejaVuSans-2e" transform="translate(147.412109 0)"/>
     <use xlink:href="#DejaVuSans-30" transform="translate(179.199219 0)"/>
    </g>
   </g>
   <g id="text_19">
    <!-- ∂L/∂b2=-1.0 -->
    <g style="fill: #e15759" transform="translate(419.071544 245.73913) scale(0.085 -0.085)">
     <use xlink:href="#DejaVuSans-2202"/>
     <use xlink:href="#DejaVuSans-4c" transform="translate(51.708984 0)"/>
     <use xlink:href="#DejaVuSans-2f" transform="translate(107.421875 0)"/>
     <use xlink:href="#DejaVuSans-2202" transform="translate(141.113281 0)"/>
     <use xlink:href="#DejaVuSans-62" transform="translate(192.822266 0)"/>
     <use xlink:href="#DejaVuSans-32" transform="translate(256.298828 0)"/>
     <use xlink:href="#DejaVuSans-3d" transform="translate(319.921875 0)"/>
     <use xlink:href="#DejaVuSans-2d" transform="translate(403.710938 0)"/>
     <use xlink:href="#DejaVuSans-31" transform="translate(439.794922 0)"/>
     <use xlink:href="#DejaVuSans-2e" transform="translate(503.417969 0)"/>
     <use xlink:href="#DejaVuSans-30" transform="translate(535.205078 0)"/>
    </g>
   </g>
   <g id="text_20">
    <!-- z2 -->
    <g transform="translate(636.915285 200.790679) scale(0.1 -0.1)">
     <use xlink:href="#DejaVuSans-Bold-7a"/>
     <use xlink:href="#DejaVuSans-Bold-32" transform="translate(58.203125 0)"/>
    </g>
   </g>
   <g id="text_21">
    <!-- =4.5 -->
    <g style="fill: #7aa6c2" transform="translate(632.377082 224.368655) scale(0.09 -0.09)">
     <defs>
      <path id="DejaVuSans-34" d="M 2419 4116 
L 825 1625 
L 2419 1625 
L 2419 4116 
z
M 2253 4666 
L 3047 4666 
L 3047 1625 
L 3713 1625 
L 3713 1100 
L 3047 1100 
L 3047 0 
L 2419 0 
L 2419 1100 
L 313 1100 
L 313 1709 
L 2253 4666 
z
" transform="scale(0.015625)"/>
     </defs>
     <use xlink:href="#DejaVuSans-3d"/>
     <use xlink:href="#DejaVuSans-34" transform="translate(83.789062 0)"/>
     <use xlink:href="#DejaVuSans-2e" transform="translate(147.412109 0)"/>
     <use xlink:href="#DejaVuSans-35" transform="translate(179.199219 0)"/>
    </g>
   </g>
   <g id="text_22">
    <!-- ∂L/∂z2=-1.0 -->
    <g style="fill: #e15759" transform="translate(618.321653 150.323478) scale(0.085 -0.085)">
     <use xlink:href="#DejaVuSans-2202"/>
     <use xlink:href="#DejaVuSans-4c" transform="translate(51.708984 0)"/>
     <use xlink:href="#DejaVuSans-2f" transform="translate(107.421875 0)"/>
     <use xlink:href="#DejaVuSans-2202" transform="translate(141.113281 0)"/>
     <use xlink:href="#DejaVuSans-7a" transform="translate(192.822266 0)"/>
     <use xlink:href="#DejaVuSans-32" transform="translate(245.3125 0)"/>
     <use xlink:href="#DejaVuSans-3d" transform="translate(308.935547 0)"/>
     <use xlink:href="#DejaVuSans-2d" transform="translate(392.724609 0)"/>
     <use xlink:href="#DejaVuSans-31" transform="translate(428.808594 0)"/>
     <use xlink:href="#DejaVuSans-2e" transform="translate(492.431641 0)"/>
     <use xlink:href="#DejaVuSans-30" transform="translate(524.21875 0)"/>
    </g>
   </g>
   <g id="text_23">
    <!-- L -->
    <g transform="translate(838.901019 200.790679) scale(0.1 -0.1)">
     <defs>
      <path id="DejaVuSans-Bold-4c" d="M 588 4666 
L 1791 4666 
L 1791 909 
L 3903 909 
L 3903 0 
L 588 0 
L 588 4666 
z
" transform="scale(0.015625)"/>
     </defs>
     <use xlink:href="#DejaVuSans-Bold-4c"/>
    </g>
   </g>
   <g id="text_24">
    <!-- =0.2 -->
    <g style="fill: #7aa6c2" transform="translate(831.159691 224.368655) scale(0.09 -0.09)">
     <use xlink:href="#DejaVuSans-3d"/>
     <use xlink:href="#DejaVuSans-30" transform="translate(83.789062 0)"/>
     <use xlink:href="#DejaVuSans-2e" transform="translate(147.412109 0)"/>
     <use xlink:href="#DejaVuSans-32" transform="translate(179.199219 0)"/>
    </g>
   </g>
   <g id="text_25">
    <!-- ∂L/∂L=+1.0 -->
    <g style="fill: #e15759" transform="translate(817.642816 150.323478) scale(0.085 -0.085)">
     <defs>
      <path id="DejaVuSans-2b" d="M 2944 4013 
L 2944 2272 
L 4684 2272 
L 4684 1741 
L 2944 1741 
L 2944 0 
L 2419 0 
L 2419 1741 
L 678 1741 
L 678 2272 
L 2419 2272 
L 2419 4013 
L 2944 4013 
z
" transform="scale(0.015625)"/>
     </defs>
     <use xlink:href="#DejaVuSans-2202"/>
     <use xlink:href="#DejaVuSans-4c" transform="translate(51.708984 0)"/>
     <use xlink:href="#DejaVuSans-2f" transform="translate(107.421875 0)"/>
     <use xlink:href="#DejaVuSans-2202" transform="translate(141.113281 0)"/>
     <use xlink:href="#DejaVuSans-4c" transform="translate(192.822266 0)"/>
     <use xlink:href="#DejaVuSans-3d" transform="translate(248.535156 0)"/>
     <use xlink:href="#DejaVuSans-2b" transform="translate(332.324219 0)"/>
     <use xlink:href="#DejaVuSans-31" transform="translate(416.113281 0)"/>
     <use xlink:href="#DejaVuSans-2e" transform="translate(479.736328 0)"/>
     <use xlink:href="#DejaVuSans-30" transform="translate(511.523438 0)"/>
    </g>
   </g>
   <g id="patch_11">
    <path d="M 106.710812 205.982609 
Q 186.103601 205.982609 263.819339 205.982609 
" style="fill: none; stroke: #7aa6c2; stroke-width: 1.5; stroke-linecap: round"/>
    <path d="M 259.819339 203.982609 
L 263.819339 205.982609 
L 259.819339 207.982609 
" style="fill: none; stroke: #7aa6c2; stroke-width: 1.5; stroke-linecap: round"/>
   </g>
   <g id="patch_12">
    <path d="M 105.285216 133.898434 
Q 186.105758 166.226651 265.369197 197.932027 
" style="fill: none; stroke: #7aa6c2; stroke-width: 1.5; stroke-linecap: round"/>
    <path d="M 262.398072 194.589511 
L 265.369197 197.932027 
L 260.912509 198.303417 
" style="fill: none; stroke: #7aa6c2; stroke-width: 1.5; stroke-linecap: round"/>
   </g>
   <g id="patch_13">
    <path d="M 105.285216 278.066783 
Q 186.105758 245.738566 265.369197 214.033191 
" style="fill: none; stroke: #7aa6c2; stroke-width: 1.5; stroke-linecap: round"/>
    <path d="M 260.912509 213.6618 
L 265.369197 214.033191 
L 262.398072 217.375707 
" style="fill: none; stroke: #7aa6c2; stroke-width: 1.5; stroke-linecap: round"/>
   </g>
   <g id="patch_14">
    <path d="M 305.49524 205.982609 
Q 365.010445 205.982609 422.848598 205.982609 
" style="fill: none; stroke: #7aa6c2; stroke-width: 1.5; stroke-linecap: round"/>
    <path d="M 418.848598 203.982609 
L 422.848598 205.982609 
L 418.848598 207.982609 
" style="fill: none; stroke: #7aa6c2; stroke-width: 1.5; stroke-linecap: round"/>
   </g>
   <g id="patch_15">
    <path d="M 464.519507 205.982609 
Q 543.912296 205.982609 621.628034 205.982609 
" style="fill: none; stroke: #7aa6c2; stroke-width: 1.5; stroke-linecap: round"/>
    <path d="M 617.628034 203.982609 
L 621.628034 205.982609 
L 617.628034 207.982609 
" style="fill: none; stroke: #7aa6c2; stroke-width: 1.5; stroke-linecap: round"/>
   </g>
   <g id="patch_16">
    <path d="M 462.554005 119.222444 
Q 543.914551 158.275506 623.763197 196.602856 
" style="fill: none; stroke: #7aa6c2; stroke-width: 1.5; stroke-linecap: round"/>
    <path d="M 621.022567 193.068886 
L 623.763197 196.602856 
L 619.291642 196.674978 
" style="fill: none; stroke: #7aa6c2; stroke-width: 1.5; stroke-linecap: round"/>
   </g>
   <g id="patch_17">
    <path d="M 462.554005 292.742773 
Q 543.914551 253.689711 623.763197 215.362361 
" style="fill: none; stroke: #7aa6c2; stroke-width: 1.5; stroke-linecap: round"/>
    <path d="M 619.291642 215.290239 
L 623.763197 215.362361 
L 621.022567 218.896332 
" style="fill: none; stroke: #7aa6c2; stroke-width: 1.5; stroke-linecap: round"/>
   </g>
   <g id="patch_18">
    <path d="M 663.302116 205.982609 
Q 742.694905 205.982609 820.410643 205.982609 
" style="fill: none; stroke: #7aa6c2; stroke-width: 1.5; stroke-linecap: round"/>
    <path d="M 816.410643 203.982609 
L 820.410643 205.982609 
L 816.410643 207.982609 
" style="fill: none; stroke: #7aa6c2; stroke-width: 1.5; stroke-linecap: round"/>
   </g>
   <g id="text_26">
    <!-- Forward pass (blue): compute values left → right -->
    <g style="fill: #7aa6c2" transform="translate(293.350802 39.005217) scale(0.11 -0.11)">
     <defs>
      <path id="DejaVuSans-Bold-46" d="M 588 4666 
L 3834 4666 
L 3834 3756 
L 1791 3756 
L 1791 2888 
L 3713 2888 
L 3713 1978 
L 1791 1978 
L 1791 0 
L 588 0 
L 588 4666 
z
" transform="scale(0.015625)"/>
      <path id="DejaVuSans-Bold-6f" d="M 2203 2784 
Q 1831 2784 1636 2517 
Q 1441 2250 1441 1747 
Q 1441 1244 1636 976 
Q 1831 709 2203 709 
Q 2569 709 2762 976 
Q 2956 1244 2956 1747 
Q 2956 2250 2762 2517 
Q 2569 2784 2203 2784 
z
M 2203 3584 
Q 3106 3584 3614 3096 
Q 4122 2609 4122 1747 
Q 4122 884 3614 396 
Q 3106 -91 2203 -91 
Q 1297 -91 786 396 
Q 275 884 275 1747 
Q 275 2609 786 3096 
Q 1297 3584 2203 3584 
z
" transform="scale(0.015625)"/>
      <path id="DejaVuSans-Bold-72" d="M 3138 2547 
Q 2991 2616 2845 2648 
Q 2700 2681 2553 2681 
Q 2122 2681 1889 2404 
Q 1656 2128 1656 1613 
L 1656 0 
L 538 0 
L 538 3500 
L 1656 3500 
L 1656 2925 
Q 1872 3269 2151 3426 
Q 2431 3584 2822 3584 
Q 2878 3584 2943 3579 
Q 3009 3575 3134 3559 
L 3138 2547 
z
" transform="scale(0.015625)"/>
      <path id="DejaVuSans-Bold-64" d="M 2919 2988 
L 2919 4863 
L 4044 4863 
L 4044 0 
L 2919 0 
L 2919 506 
Q 2688 197 2409 53 
Q 2131 -91 1766 -91 
Q 1119 -91 703 423 
Q 288 938 288 1747 
Q 288 2556 703 3070 
Q 1119 3584 1766 3584 
Q 2128 3584 2408 3439 
Q 2688 3294 2919 2988 
z
M 2181 722 
Q 2541 722 2730 984 
Q 2919 1247 2919 1747 
Q 2919 2247 2730 2509 
Q 2541 2772 2181 2772 
Q 1825 2772 1636 2509 
Q 1447 2247 1447 1747 
Q 1447 1247 1636 984 
Q 1825 722 2181 722 
z
" transform="scale(0.015625)"/>
      <path id="DejaVuSans-Bold-20" transform="scale(0.015625)"/>
      <path id="DejaVuSans-Bold-70" d="M 1656 506 
L 1656 -1331 
L 538 -1331 
L 538 3500 
L 1656 3500 
L 1656 2988 
Q 1888 3294 2169 3439 
Q 2450 3584 2816 3584 
Q 3463 3584 3878 3070 
Q 4294 2556 4294 1747 
Q 4294 938 3878 423 
Q 3463 -91 2816 -91 
Q 2450 -91 2169 54 
Q 1888 200 1656 506 
z
M 2400 2772 
Q 2041 2772 1848 2508 
Q 1656 2244 1656 1747 
Q 1656 1250 1848 986 
Q 2041 722 2400 722 
Q 2759 722 2948 984 
Q 3138 1247 3138 1747 
Q 3138 2247 2948 2509 
Q 2759 2772 2400 2772 
z
" transform="scale(0.015625)"/>
      <path id="DejaVuSans-Bold-73" d="M 3272 3391 
L 3272 2541 
Q 2913 2691 2578 2766 
Q 2244 2841 1947 2841 
Q 1628 2841 1473 2761 
Q 1319 2681 1319 2516 
Q 1319 2381 1436 2309 
Q 1553 2238 1856 2203 
L 2053 2175 
Q 2913 2066 3209 1816 
Q 3506 1566 3506 1031 
Q 3506 472 3093 190 
Q 2681 -91 1863 -91 
Q 1516 -91 1145 -36 
Q 775 19 384 128 
L 384 978 
Q 719 816 1070 734 
Q 1422 653 1784 653 
Q 2113 653 2278 743 
Q 2444 834 2444 1013 
Q 2444 1163 2330 1236 
Q 2216 1309 1875 1350 
L 1678 1375 
Q 931 1469 631 1722 
Q 331 1975 331 2491 
Q 331 3047 712 3315 
Q 1094 3584 1881 3584 
Q 2191 3584 2531 3537 
Q 2872 3491 3272 3391 
z
" transform="scale(0.015625)"/>
      <path id="DejaVuSans-Bold-28" d="M 2413 -844 
L 1484 -844 
Q 1006 -72 778 623 
Q 550 1319 550 2003 
Q 550 2688 779 3389 
Q 1009 4091 1484 4856 
L 2413 4856 
Q 2013 4116 1813 3408 
Q 1613 2700 1613 2009 
Q 1613 1319 1811 609 
Q 2009 -100 2413 -844 
z
" transform="scale(0.015625)"/>
      <path id="DejaVuSans-Bold-6c" d="M 538 4863 
L 1656 4863 
L 1656 0 
L 538 0 
L 538 4863 
z
" transform="scale(0.015625)"/>
      <path id="DejaVuSans-Bold-75" d="M 500 1363 
L 500 3500 
L 1625 3500 
L 1625 3150 
Q 1625 2866 1622 2436 
Q 1619 2006 1619 1863 
Q 1619 1441 1641 1255 
Q 1663 1069 1716 984 
Q 1784 875 1895 815 
Q 2006 756 2150 756 
Q 2500 756 2700 1025 
Q 2900 1294 2900 1772 
L 2900 3500 
L 4019 3500 
L 4019 0 
L 2900 0 
L 2900 506 
Q 2647 200 2364 54 
Q 2081 -91 1741 -91 
Q 1134 -91 817 281 
Q 500 653 500 1363 
z
" transform="scale(0.015625)"/>
      <path id="DejaVuSans-Bold-65" d="M 4031 1759 
L 4031 1441 
L 1416 1441 
Q 1456 1047 1700 850 
Q 1944 653 2381 653 
Q 2734 653 3104 758 
Q 3475 863 3866 1075 
L 3866 213 
Q 3469 63 3072 -14 
Q 2675 -91 2278 -91 
Q 1328 -91 801 392 
Q 275 875 275 1747 
Q 275 2603 792 3093 
Q 1309 3584 2216 3584 
Q 3041 3584 3536 3087 
Q 4031 2591 4031 1759 
z
M 2881 2131 
Q 2881 2450 2695 2645 
Q 2509 2841 2209 2841 
Q 1884 2841 1681 2658 
Q 1478 2475 1428 2131 
L 2881 2131 
z
" transform="scale(0.015625)"/>
      <path id="DejaVuSans-Bold-29" d="M 513 -844 
Q 913 -100 1113 609 
Q 1313 1319 1313 2009 
Q 1313 2700 1113 3408 
Q 913 4116 513 4856 
L 1441 4856 
Q 1916 4091 2145 3389 
Q 2375 2688 2375 2003 
Q 2375 1319 2147 623 
Q 1919 -72 1441 -844 
L 513 -844 
z
" transform="scale(0.015625)"/>
      <path id="DejaVuSans-Bold-3a" d="M 716 3500 
L 1844 3500 
L 1844 2291 
L 716 2291 
L 716 3500 
z
M 716 1209 
L 1844 1209 
L 1844 0 
L 716 0 
L 716 1209 
z
" transform="scale(0.015625)"/>
      <path id="DejaVuSans-Bold-63" d="M 3366 3391 
L 3366 2478 
Q 3138 2634 2908 2709 
Q 2678 2784 2431 2784 
Q 1963 2784 1702 2511 
Q 1441 2238 1441 1747 
Q 1441 1256 1702 982 
Q 1963 709 2431 709 
Q 2694 709 2930 787 
Q 3166 866 3366 1019 
L 3366 103 
Q 3103 6 2833 -42 
Q 2563 -91 2291 -91 
Q 1344 -91 809 395 
Q 275 881 275 1747 
Q 275 2613 809 3098 
Q 1344 3584 2291 3584 
Q 2566 3584 2833 3536 
Q 3100 3488 3366 3391 
z
" transform="scale(0.015625)"/>
      <path id="DejaVuSans-Bold-6d" d="M 3781 2919 
Q 3994 3244 4286 3414 
Q 4578 3584 4928 3584 
Q 5531 3584 5847 3212 
Q 6163 2841 6163 2131 
L 6163 0 
L 5038 0 
L 5038 1825 
Q 5041 1866 5042 1909 
Q 5044 1953 5044 2034 
Q 5044 2406 4934 2573 
Q 4825 2741 4581 2741 
Q 4263 2741 4089 2478 
Q 3916 2216 3909 1719 
L 3909 0 
L 2784 0 
L 2784 1825 
Q 2784 2406 2684 2573 
Q 2584 2741 2328 2741 
Q 2006 2741 1831 2477 
Q 1656 2213 1656 1722 
L 1656 0 
L 531 0 
L 531 3500 
L 1656 3500 
L 1656 2988 
Q 1863 3284 2130 3434 
Q 2397 3584 2719 3584 
Q 3081 3584 3359 3409 
Q 3638 3234 3781 2919 
z
" transform="scale(0.015625)"/>
      <path id="DejaVuSans-Bold-74" d="M 1759 4494 
L 1759 3500 
L 2913 3500 
L 2913 2700 
L 1759 2700 
L 1759 1216 
Q 1759 972 1856 886 
Q 1953 800 2241 800 
L 2816 800 
L 2816 0 
L 1856 0 
Q 1194 0 917 276 
Q 641 553 641 1216 
L 641 2700 
L 84 2700 
L 84 3500 
L 641 3500 
L 641 4494 
L 1759 4494 
z
" transform="scale(0.015625)"/>
      <path id="DejaVuSans-Bold-76" d="M 97 3500 
L 1216 3500 
L 2088 1081 
L 2956 3500 
L 4078 3500 
L 2700 0 
L 1472 0 
L 97 3500 
z
" transform="scale(0.015625)"/>
      <path id="DejaVuSans-Bold-66" d="M 2841 4863 
L 2841 4128 
L 2222 4128 
Q 1984 4128 1890 4042 
Q 1797 3956 1797 3744 
L 1797 3500 
L 2753 3500 
L 2753 2700 
L 1797 2700 
L 1797 0 
L 678 0 
L 678 2700 
L 122 2700 
L 122 3500 
L 678 3500 
L 678 3744 
Q 678 4316 997 4589 
Q 1316 4863 1984 4863 
L 2841 4863 
z
" transform="scale(0.015625)"/>
      <path id="DejaVuSans-Bold-2192" d="M 5050 2225 
L 5050 1788 
L 3822 559 
L 3369 1013 
L 3988 1631 
L 366 1631 
L 366 2381 
L 3988 2381 
L 3369 3000 
L 3822 3453 
L 5050 2225 
z
" transform="scale(0.015625)"/>
      <path id="DejaVuSans-Bold-69" d="M 538 3500 
L 1656 3500 
L 1656 0 
L 538 0 
L 538 3500 
z
M 538 4863 
L 1656 4863 
L 1656 3950 
L 538 3950 
L 538 4863 
z
" transform="scale(0.015625)"/>
      <path id="DejaVuSans-Bold-67" d="M 2919 594 
Q 2688 288 2409 144 
Q 2131 0 1766 0 
Q 1125 0 706 504 
Q 288 1009 288 1791 
Q 288 2575 706 3076 
Q 1125 3578 1766 3578 
Q 2131 3578 2409 3434 
Q 2688 3291 2919 2981 
L 2919 3500 
L 4044 3500 
L 4044 353 
Q 4044 -491 3511 -936 
Q 2978 -1381 1966 -1381 
Q 1638 -1381 1331 -1331 
Q 1025 -1281 716 -1178 
L 716 -306 
Q 1009 -475 1290 -558 
Q 1572 -641 1856 -641 
Q 2406 -641 2662 -400 
Q 2919 -159 2919 353 
L 2919 594 
z
M 2181 2772 
Q 1834 2772 1640 2515 
Q 1447 2259 1447 1791 
Q 1447 1309 1634 1061 
Q 1822 813 2181 813 
Q 2531 813 2725 1069 
Q 2919 1325 2919 1791 
Q 2919 2259 2725 2515 
Q 2531 2772 2181 2772 
z
" transform="scale(0.015625)"/>
      <path id="DejaVuSans-Bold-68" d="M 4056 2131 
L 4056 0 
L 2931 0 
L 2931 347 
L 2931 1625 
Q 2931 2084 2911 2256 
Q 2891 2428 2841 2509 
Q 2775 2619 2662 2680 
Q 2550 2741 2406 2741 
Q 2056 2741 1856 2470 
Q 1656 2200 1656 1722 
L 1656 0 
L 538 0 
L 538 4863 
L 1656 4863 
L 1656 2988 
Q 1909 3294 2193 3439 
Q 2478 3584 2822 3584 
Q 3428 3584 3742 3212 
Q 4056 2841 4056 2131 
z
" transform="scale(0.015625)"/>
     </defs>
     <use xlink:href="#DejaVuSans-Bold-46"/>
     <use xlink:href="#DejaVuSans-Bold-6f" transform="translate(64.310547 0)"/>
     <use xlink:href="#DejaVuSans-Bold-72" transform="translate(133.011719 0)"/>
     <use xlink:href="#DejaVuSans-Bold-77" transform="translate(182.328125 0)"/>
     <use xlink:href="#DejaVuSans-Bold-61" transform="translate(274.710938 0)"/>
     <use xlink:href="#DejaVuSans-Bold-72" transform="translate(342.191406 0)"/>
     <use xlink:href="#DejaVuSans-Bold-64" transform="translate(391.507812 0)"/>
     <use xlink:href="#DejaVuSans-Bold-20" transform="translate(463.089844 0)"/>
     <use xlink:href="#DejaVuSans-Bold-70" transform="translate(497.904297 0)"/>
     <use xlink:href="#DejaVuSans-Bold-61" transform="translate(569.486328 0)"/>
     <use xlink:href="#DejaVuSans-Bold-73" transform="translate(636.966797 0)"/>
     <use xlink:href="#DejaVuSans-Bold-73" transform="translate(696.488281 0)"/>
     <use xlink:href="#DejaVuSans-Bold-20" transform="translate(756.009766 0)"/>
     <use xlink:href="#DejaVuSans-Bold-28" transform="translate(790.824219 0)"/>
     <use xlink:href="#DejaVuSans-Bold-62" transform="translate(836.527344 0)"/>
     <use xlink:href="#DejaVuSans-Bold-6c" transform="translate(908.109375 0)"/>
     <use xlink:href="#DejaVuSans-Bold-75" transform="translate(942.386719 0)"/>
     <use xlink:href="#DejaVuSans-Bold-65" transform="translate(1013.578125 0)"/>
     <use xlink:href="#DejaVuSans-Bold-29" transform="translate(1081.400391 0)"/>
     <use xlink:href="#DejaVuSans-Bold-3a" transform="translate(1127.103516 0)"/>
     <use xlink:href="#DejaVuSans-Bold-20" transform="translate(1167.09375 0)"/>
     <use xlink:href="#DejaVuSans-Bold-63" transform="translate(1201.908203 0)"/>
     <use xlink:href="#DejaVuSans-Bold-6f" transform="translate(1261.185547 0)"/>
     <use xlink:href="#DejaVuSans-Bold-6d" transform="translate(1329.886719 0)"/>
     <use xlink:href="#DejaVuSans-Bold-70" transform="translate(1434.085938 0)"/>
     <use xlink:href="#DejaVuSans-Bold-75" transform="translate(1505.667969 0)"/>
     <use xlink:href="#DejaVuSans-Bold-74" transform="translate(1576.859375 0)"/>
     <use xlink:href="#DejaVuSans-Bold-65" transform="translate(1624.662109 0)"/>
     <use xlink:href="#DejaVuSans-Bold-20" transform="translate(1692.484375 0)"/>
     <use xlink:href="#DejaVuSans-Bold-76" transform="translate(1727.298828 0)"/>
     <use xlink:href="#DejaVuSans-Bold-61" transform="translate(1792.484375 0)"/>
     <use xlink:href="#DejaVuSans-Bold-6c" transform="translate(1859.964844 0)"/>
     <use xlink:href="#DejaVuSans-Bold-75" transform="translate(1894.242188 0)"/>
     <use xlink:href="#DejaVuSans-Bold-65" transform="translate(1965.433594 0)"/>
     <use xlink:href="#DejaVuSans-Bold-73" transform="translate(2033.255859 0)"/>
     <use xlink:href="#DejaVuSans-Bold-20" transform="translate(2092.777344 0)"/>
     <use xlink:href="#DejaVuSans-Bold-6c" transform="translate(2127.591797 0)"/>
     <use xlink:href="#DejaVuSans-Bold-65" transform="translate(2161.869141 0)"/>
     <use xlink:href="#DejaVuSans-Bold-66" transform="translate(2229.691406 0)"/>
     <use xlink:href="#DejaVuSans-Bold-74" transform="translate(2273.197266 0)"/>
     <use xlink:href="#DejaVuSans-Bold-20" transform="translate(2321 0)"/>
     <use xlink:href="#DejaVuSans-Bold-2192" transform="translate(2355.814453 0)"/>
     <use xlink:href="#DejaVuSans-Bold-20" transform="translate(2439.603516 0)"/>
     <use xlink:href="#DejaVuSans-Bold-72" transform="translate(2474.417969 0)"/>
     <use xlink:href="#DejaVuSans-Bold-69" transform="translate(2523.734375 0)"/>
     <use xlink:href="#DejaVuSans-Bold-67" transform="translate(2558.011719 0)"/>
     <use xlink:href="#DejaVuSans-Bold-68" transform="translate(2629.59375 0)"/>
     <use xlink:href="#DejaVuSans-Bold-74" transform="translate(2700.785156 0)"/>
    </g>
   </g>
   <g id="text_27">
    <!-- Backward pass (red labels): compute gradients right → left via chain rule -->
    <g style="fill: #e15759" transform="translate(217.820333 372.96) scale(0.11 -0.11)">
     <defs>
      <path id="DejaVuSans-Bold-42" d="M 2456 2859 
Q 2741 2859 2887 2984 
Q 3034 3109 3034 3353 
Q 3034 3594 2887 3720 
Q 2741 3847 2456 3847 
L 1791 3847 
L 1791 2859 
L 2456 2859 
z
M 2497 819 
Q 2859 819 3042 972 
Q 3225 1125 3225 1434 
Q 3225 1738 3044 1889 
Q 2863 2041 2497 2041 
L 1791 2041 
L 1791 819 
L 2497 819 
z
M 3616 2497 
Q 4003 2384 4215 2081 
Q 4428 1778 4428 1338 
Q 4428 663 3972 331 
Q 3516 0 2584 0 
L 588 0 
L 588 4666 
L 2394 4666 
Q 3366 4666 3802 4372 
Q 4238 4078 4238 3431 
Q 4238 3091 4078 2852 
Q 3919 2613 3616 2497 
z
" transform="scale(0.015625)"/>
      <path id="DejaVuSans-Bold-6b" d="M 538 4863 
L 1656 4863 
L 1656 2216 
L 2944 3500 
L 4244 3500 
L 2534 1894 
L 4378 0 
L 3022 0 
L 1656 1459 
L 1656 0 
L 538 0 
L 538 4863 
z
" transform="scale(0.015625)"/>
      <path id="DejaVuSans-Bold-6e" d="M 4056 2131 
L 4056 0 
L 2931 0 
L 2931 347 
L 2931 1631 
Q 2931 2084 2911 2256 
Q 2891 2428 2841 2509 
Q 2775 2619 2662 2680 
Q 2550 2741 2406 2741 
Q 2056 2741 1856 2470 
Q 1656 2200 1656 1722 
L 1656 0 
L 538 0 
L 538 3500 
L 1656 3500 
L 1656 2988 
Q 1909 3294 2193 3439 
Q 2478 3584 2822 3584 
Q 3428 3584 3742 3212 
Q 4056 2841 4056 2131 
z
" transform="scale(0.015625)"/>
     </defs>
     <use xlink:href="#DejaVuSans-Bold-42"/>
     <use xlink:href="#DejaVuSans-Bold-61" transform="translate(76.220703 0)"/>
     <use xlink:href="#DejaVuSans-Bold-63" transform="translate(143.701172 0)"/>
     <use xlink:href="#DejaVuSans-Bold-6b" transform="translate(202.978516 0)"/>
     <use xlink:href="#DejaVuSans-Bold-77" transform="translate(269.482422 0)"/>
     <use xlink:href="#DejaVuSans-Bold-61" transform="translate(361.865234 0)"/>
     <use xlink:href="#DejaVuSans-Bold-72" transform="translate(429.345703 0)"/>
     <use xlink:href="#DejaVuSans-Bold-64" transform="translate(478.662109 0)"/>
     <use xlink:href="#DejaVuSans-Bold-20" transform="translate(550.244141 0)"/>
     <use xlink:href="#DejaVuSans-Bold-70" transform="translate(585.058594 0)"/>
     <use xlink:href="#DejaVuSans-Bold-61" transform="translate(656.640625 0)"/>
     <use xlink:href="#DejaVuSans-Bold-73" transform="translate(724.121094 0)"/>
     <use xlink:href="#DejaVuSans-Bold-73" transform="translate(783.642578 0)"/>
     <use xlink:href="#DejaVuSans-Bold-20" transform="translate(843.164062 0)"/>
     <use xlink:href="#DejaVuSans-Bold-28" transform="translate(877.978516 0)"/>
     <use xlink:href="#DejaVuSans-Bold-72" transform="translate(923.681641 0)"/>
     <use xlink:href="#DejaVuSans-Bold-65" transform="translate(972.998047 0)"/>
     <use xlink:href="#DejaVuSans-Bold-64" transform="translate(1040.820312 0)"/>
     <use xlink:href="#DejaVuSans-Bold-20" transform="translate(1112.402344 0)"/>
     <use xlink:href="#DejaVuSans-Bold-6c" transform="translate(1147.216797 0)"/>
     <use xlink:href="#DejaVuSans-Bold-61" transform="translate(1181.494141 0)"/>
     <use xlink:href="#DejaVuSans-Bold-62" transform="translate(1248.974609 0)"/>
     <use xlink:href="#DejaVuSans-Bold-65" transform="translate(1320.556641 0)"/>
     <use xlink:href="#DejaVuSans-Bold-6c" transform="translate(1388.378906 0)"/>
     <use xlink:href="#DejaVuSans-Bold-73" transform="translate(1422.65625 0)"/>
     <use xlink:href="#DejaVuSans-Bold-29" transform="translate(1482.177734 0)"/>
     <use xlink:href="#DejaVuSans-Bold-3a" transform="translate(1527.880859 0)"/>
     <use xlink:href="#DejaVuSans-Bold-20" transform="translate(1567.871094 0)"/>
     <use xlink:href="#DejaVuSans-Bold-63" transform="translate(1602.685547 0)"/>
     <use xlink:href="#DejaVuSans-Bold-6f" transform="translate(1661.962891 0)"/>
     <use xlink:href="#DejaVuSans-Bold-6d" transform="translate(1730.664062 0)"/>
     <use xlink:href="#DejaVuSans-Bold-70" transform="translate(1834.863281 0)"/>
     <use xlink:href="#DejaVuSans-Bold-75" transform="translate(1906.445312 0)"/>
     <use xlink:href="#DejaVuSans-Bold-74" transform="translate(1977.636719 0)"/>
     <use xlink:href="#DejaVuSans-Bold-65" transform="translate(2025.439453 0)"/>
     <use xlink:href="#DejaVuSans-Bold-20" transform="translate(2093.261719 0)"/>
     <use xlink:href="#DejaVuSans-Bold-67" transform="translate(2128.076172 0)"/>
     <use xlink:href="#DejaVuSans-Bold-72" transform="translate(2199.658203 0)"/>
     <use xlink:href="#DejaVuSans-Bold-61" transform="translate(2248.974609 0)"/>
     <use xlink:href="#DejaVuSans-Bold-64" transform="translate(2316.455078 0)"/>
     <use xlink:href="#DejaVuSans-Bold-69" transform="translate(2388.037109 0)"/>
     <use xlink:href="#DejaVuSans-Bold-65" transform="translate(2422.314453 0)"/>
     <use xlink:href="#DejaVuSans-Bold-6e" transform="translate(2490.136719 0)"/>
     <use xlink:href="#DejaVuSans-Bold-74" transform="translate(2561.328125 0)"/>
     <use xlink:href="#DejaVuSans-Bold-73" transform="translate(2609.130859 0)"/>
     <use xlink:href="#DejaVuSans-Bold-20" transform="translate(2668.652344 0)"/>
     <use xlink:href="#DejaVuSans-Bold-72" transform="translate(2703.466797 0)"/>
     <use xlink:href="#DejaVuSans-Bold-69" transform="translate(2752.783203 0)"/>
     <use xlink:href="#DejaVuSans-Bold-67" transform="translate(2787.060547 0)"/>
     <use xlink:href="#DejaVuSans-Bold-68" transform="translate(2858.642578 0)"/>
     <use xlink:href="#DejaVuSans-Bold-74" transform="translate(2929.833984 0)"/>
     <use xlink:href="#DejaVuSans-Bold-20" transform="translate(2977.636719 0)"/>
     <use xlink:href="#DejaVuSans-Bold-2192" transform="translate(3012.451172 0)"/>
     <use xlink:href="#DejaVuSans-Bold-20" transform="translate(3096.240234 0)"/>
     <use xlink:href="#DejaVuSans-Bold-6c" transform="translate(3131.054688 0)"/>
     <use xlink:href="#DejaVuSans-Bold-65" transform="translate(3165.332031 0)"/>
     <use xlink:href="#DejaVuSans-Bold-66" transform="translate(3233.154297 0)"/>
     <use xlink:href="#DejaVuSans-Bold-74" transform="translate(3276.660156 0)"/>
     <use xlink:href="#DejaVuSans-Bold-20" transform="translate(3324.462891 0)"/>
     <use xlink:href="#DejaVuSans-Bold-76" transform="translate(3359.277344 0)"/>
     <use xlink:href="#DejaVuSans-Bold-69" transform="translate(3424.462891 0)"/>
     <use xlink:href="#DejaVuSans-Bold-61" transform="translate(3458.740234 0)"/>
     <use xlink:href="#DejaVuSans-Bold-20" transform="translate(3526.220703 0)"/>
     <use xlink:href="#DejaVuSans-Bold-63" transform="translate(3561.035156 0)"/>
     <use xlink:href="#DejaVuSans-Bold-68" transform="translate(3620.3125 0)"/>
     <use xlink:href="#DejaVuSans-Bold-61" transform="translate(3691.503906 0)"/>
     <use xlink:href="#DejaVuSans-Bold-69" transform="translate(3758.984375 0)"/>
     <use xlink:href="#DejaVuSans-Bold-6e" transform="translate(3793.261719 0)"/>
     <use xlink:href="#DejaVuSans-Bold-20" transform="translate(3864.453125 0)"/>
     <use xlink:href="#DejaVuSans-Bold-72" transform="translate(3899.267578 0)"/>
     <use xlink:href="#DejaVuSans-Bold-75" transform="translate(3948.583984 0)"/>
     <use xlink:href="#DejaVuSans-Bold-6c" transform="translate(4019.775391 0)"/>
     <use xlink:href="#DejaVuSans-Bold-65" transform="translate(4054.052734 0)"/>
    </g>
   </g>
  </g>
 </g>
 <defs>
  <clipPath id="p3276652d50">
   <rect x="7.2" y="7.2" width="914.4" height="397.565217"/>
  </clipPath>
 </defs>
</svg>
