<?xml version="1.0" encoding="utf-8" standalone="no"?>
<!DOCTYPE svg PUBLIC "-//W3C//DTD SVG 1.1//EN"
  "http://www.w3.org/Graphics/SVG/1.1/DTD/svg11.dtd">
<svg xmlns:xlink="http://www.w3.org/1999/xlink" width="603.781071pt" height="313.49575pt" viewBox="0 0 603.781071 313.49575" xmlns="http://www.w3.org/2000/svg" version="1.1">
 <metadata>
  <rdf:RDF xmlns:dc="http://purl.org/dc/elements/1.1/" xmlns:cc="http://creativecommons.org/ns#" xmlns:rdf="http://www.w3.org/1999/02/22-rdf-syntax-ns#">
   <cc:Work>
    <dc:type rdf:resource="http://purl.org/dc/dcmitype/StillImage"/>
    <dc:date>2026-05-26T13:03:40.744311</dc:date>
    <dc:format>image/svg+xml</dc:format>
    <dc:creator>
     <cc:Agent>
      <dc:title>Matplotlib v3.10.8, https://matplotlib.org/</dc:title>
     </cc:Agent>
    </dc:creator>
   </cc:Work>
  </rdf:RDF>
 </metadata>
 <defs>
  <style type="text/css">*{stroke-linejoin: round; stroke-linecap: butt}</style>
 </defs>
 <g id="figure_1">
  <g id="patch_1">
   <path d="M 0 313.49575 
L 603.781071 313.49575 
L 603.781071 0 
L 0 0 
z
" style="fill: #ffffff"/>
  </g>
  <g id="axes_1">
   <g id="patch_2">
    <path d="M 51.378125 275.9395 
L 596.581071 275.9395 
L 596.581071 35.7555 
L 51.378125 35.7555 
z
" style="fill: #ffffff"/>
   </g>
   <g id="matplotlib.axis_1">
    <g id="xtick_1">
     <g id="line2d_1">
      <path d="M 131.231082 275.9395 
L 131.231082 35.7555 
" clip-path="url(#p269f9489b4)" style="fill: none; stroke: #b0b0b0; stroke-opacity: 0.25; stroke-width: 0.8; stroke-linecap: square"/>
     </g>
     <g id="line2d_2">
      <defs>
       <path id="m1d12121f0f" d="M 0 0 
L 0 3.5 
" style="stroke: #000000; stroke-width: 0.8"/>
      </defs>
      <g>
       <use xlink:href="#m1d12121f0f" x="131.231082" y="275.9395" style="stroke: #000000; stroke-width: 0.8"/>
      </g>
     </g>
     <g id="text_1">
      <!-- 2 -->
      <g transform="translate(128.049832 290.537937) scale(0.1 -0.1)">
       <defs>
        <path id="DejaVuSans-32" d="M 1228 531 
L 3431 531 
L 3431 0 
L 469 0 
L 469 531 
Q 828 903 1448 1529 
Q 2069 2156 2228 2338 
Q 2531 2678 2651 2914 
Q 2772 3150 2772 3378 
Q 2772 3750 2511 3984 
Q 2250 4219 1831 4219 
Q 1534 4219 1204 4116 
Q 875 4013 500 3803 
L 500 4441 
Q 881 4594 1212 4672 
Q 1544 4750 1819 4750 
Q 2544 4750 2975 4387 
Q 3406 4025 3406 3419 
Q 3406 3131 3298 2873 
Q 3191 2616 2906 2266 
Q 2828 2175 2409 1742 
Q 1991 1309 1228 531 
z
" transform="scale(0.015625)"/>
       </defs>
       <use xlink:href="#DejaVuSans-32"/>
      </g>
     </g>
    </g>
    <g id="xtick_2">
     <g id="line2d_3">
      <path d="M 241.373091 275.9395 
L 241.373091 35.7555 
" clip-path="url(#p269f9489b4)" style="fill: none; stroke: #b0b0b0; stroke-opacity: 0.25; stroke-width: 0.8; stroke-linecap: square"/>
     </g>
     <g id="line2d_4">
      <g>
       <use xlink:href="#m1d12121f0f" x="241.373091" y="275.9395" style="stroke: #000000; stroke-width: 0.8"/>
      </g>
     </g>
     <g id="text_2">
      <!-- 4 -->
      <g transform="translate(238.191841 290.537937) scale(0.1 -0.1)">
       <defs>
        <path id="DejaVuSans-34" d="M 2419 4116 
L 825 1625 
L 2419 1625 
L 2419 4116 
z
M 2253 4666 
L 3047 4666 
L 3047 1625 
L 3713 1625 
L 3713 1100 
L 3047 1100 
L 3047 0 
L 2419 0 
L 2419 1100 
L 313 1100 
L 313 1709 
L 2253 4666 
z
" transform="scale(0.015625)"/>
       </defs>
       <use xlink:href="#DejaVuSans-34"/>
      </g>
     </g>
    </g>
    <g id="xtick_3">
     <g id="line2d_5">
      <path d="M 351.5151 275.9395 
L 351.5151 35.7555 
" clip-path="url(#p269f9489b4)" style="fill: none; stroke: #b0b0b0; stroke-opacity: 0.25; stroke-width: 0.8; stroke-linecap: square"/>
     </g>
     <g id="line2d_6">
      <g>
       <use xlink:href="#m1d12121f0f" x="351.5151" y="275.9395" style="stroke: #000000; stroke-width: 0.8"/>
      </g>
     </g>
     <g id="text_3">
      <!-- 6 -->
      <g transform="translate(348.33385 290.537937) scale(0.1 -0.1)">
       <defs>
        <path id="DejaVuSans-36" d="M 2113 2584 
Q 1688 2584 1439 2293 
Q 1191 2003 1191 1497 
Q 1191 994 1439 701 
Q 1688 409 2113 409 
Q 2538 409 2786 701 
Q 3034 994 3034 1497 
Q 3034 2003 2786 2293 
Q 2538 2584 2113 2584 
z
M 3366 4563 
L 3366 3988 
Q 3128 4100 2886 4159 
Q 2644 4219 2406 4219 
Q 1781 4219 1451 3797 
Q 1122 3375 1075 2522 
Q 1259 2794 1537 2939 
Q 1816 3084 2150 3084 
Q 2853 3084 3261 2657 
Q 3669 2231 3669 1497 
Q 3669 778 3244 343 
Q 2819 -91 2113 -91 
Q 1303 -91 875 529 
Q 447 1150 447 2328 
Q 447 3434 972 4092 
Q 1497 4750 2381 4750 
Q 2619 4750 2861 4703 
Q 3103 4656 3366 4563 
z
" transform="scale(0.015625)"/>
       </defs>
       <use xlink:href="#DejaVuSans-36"/>
      </g>
     </g>
    </g>
    <g id="xtick_4">
     <g id="line2d_7">
      <path d="M 461.65711 275.9395 
L 461.65711 35.7555 
" clip-path="url(#p269f9489b4)" style="fill: none; stroke: #b0b0b0; stroke-opacity: 0.25; stroke-width: 0.8; stroke-linecap: square"/>
     </g>
     <g id="line2d_8">
      <g>
       <use xlink:href="#m1d12121f0f" x="461.65711" y="275.9395" style="stroke: #000000; stroke-width: 0.8"/>
      </g>
     </g>
     <g id="text_4">
      <!-- 8 -->
      <g transform="translate(458.47586 290.537937) scale(0.1 -0.1)">
       <defs>
        <path id="DejaVuSans-38" d="M 2034 2216 
Q 1584 2216 1326 1975 
Q 1069 1734 1069 1313 
Q 1069 891 1326 650 
Q 1584 409 2034 409 
Q 2484 409 2743 651 
Q 3003 894 3003 1313 
Q 3003 1734 2745 1975 
Q 2488 2216 2034 2216 
z
M 1403 2484 
Q 997 2584 770 2862 
Q 544 3141 544 3541 
Q 544 4100 942 4425 
Q 1341 4750 2034 4750 
Q 2731 4750 3128 4425 
Q 3525 4100 3525 3541 
Q 3525 3141 3298 2862 
Q 3072 2584 2669 2484 
Q 3125 2378 3379 2068 
Q 3634 1759 3634 1313 
Q 3634 634 3220 271 
Q 2806 -91 2034 -91 
Q 1263 -91 848 271 
Q 434 634 434 1313 
Q 434 1759 690 2068 
Q 947 2378 1403 2484 
z
M 1172 3481 
Q 1172 3119 1398 2916 
Q 1625 2713 2034 2713 
Q 2441 2713 2670 2916 
Q 2900 3119 2900 3481 
Q 2900 3844 2670 4047 
Q 2441 4250 2034 4250 
Q 1625 4250 1398 4047 
Q 1172 3844 1172 3481 
z
" transform="scale(0.015625)"/>
       </defs>
       <use xlink:href="#DejaVuSans-38"/>
      </g>
     </g>
    </g>
    <g id="xtick_5">
     <g id="line2d_9">
      <path d="M 571.799119 275.9395 
L 571.799119 35.7555 
" clip-path="url(#p269f9489b4)" style="fill: none; stroke: #b0b0b0; stroke-opacity: 0.25; stroke-width: 0.8; stroke-linecap: square"/>
     </g>
     <g id="line2d_10">
      <g>
       <use xlink:href="#m1d12121f0f" x="571.799119" y="275.9395" style="stroke: #000000; stroke-width: 0.8"/>
      </g>
     </g>
     <g id="text_5">
      <!-- 10 -->
      <g transform="translate(565.436619 290.537937) scale(0.1 -0.1)">
       <defs>
        <path id="DejaVuSans-31" d="M 794 531 
L 1825 531 
L 1825 4091 
L 703 3866 
L 703 4441 
L 1819 4666 
L 2450 4666 
L 2450 531 
L 3481 531 
L 3481 0 
L 794 0 
L 794 531 
z
" transform="scale(0.015625)"/>
        <path id="DejaVuSans-30" d="M 2034 4250 
Q 1547 4250 1301 3770 
Q 1056 3291 1056 2328 
Q 1056 1369 1301 889 
Q 1547 409 2034 409 
Q 2525 409 2770 889 
Q 3016 1369 3016 2328 
Q 3016 3291 2770 3770 
Q 2525 4250 2034 4250 
z
M 2034 4750 
Q 2819 4750 3233 4129 
Q 3647 3509 3647 2328 
Q 3647 1150 3233 529 
Q 2819 -91 2034 -91 
Q 1250 -91 836 529 
Q 422 1150 422 2328 
Q 422 3509 836 4129 
Q 1250 4750 2034 4750 
z
" transform="scale(0.015625)"/>
       </defs>
       <use xlink:href="#DejaVuSans-31"/>
       <use xlink:href="#DejaVuSans-30" transform="translate(63.623047 0)"/>
      </g>
     </g>
    </g>
    <g id="text_6">
     <!-- layer (from output) -->
     <g transform="translate(276.231161 304.216062) scale(0.1 -0.1)">
      <defs>
       <path id="DejaVuSans-6c" d="M 603 4863 
L 1178 4863 
L 1178 0 
L 603 0 
L 603 4863 
z
" transform="scale(0.015625)"/>
       <path id="DejaVuSans-61" d="M 2194 1759 
Q 1497 1759 1228 1600 
Q 959 1441 959 1056 
Q 959 750 1161 570 
Q 1363 391 1709 391 
Q 2188 391 2477 730 
Q 2766 1069 2766 1631 
L 2766 1759 
L 2194 1759 
z
M 3341 1997 
L 3341 0 
L 2766 0 
L 2766 531 
Q 2569 213 2275 61 
Q 1981 -91 1556 -91 
Q 1019 -91 701 211 
Q 384 513 384 1019 
Q 384 1609 779 1909 
Q 1175 2209 1959 2209 
L 2766 2209 
L 2766 2266 
Q 2766 2663 2505 2880 
Q 2244 3097 1772 3097 
Q 1472 3097 1187 3025 
Q 903 2953 641 2809 
L 641 3341 
Q 956 3463 1253 3523 
Q 1550 3584 1831 3584 
Q 2591 3584 2966 3190 
Q 3341 2797 3341 1997 
z
" transform="scale(0.015625)"/>
       <path id="DejaVuSans-79" d="M 2059 -325 
Q 1816 -950 1584 -1140 
Q 1353 -1331 966 -1331 
L 506 -1331 
L 506 -850 
L 844 -850 
Q 1081 -850 1212 -737 
Q 1344 -625 1503 -206 
L 1606 56 
L 191 3500 
L 800 3500 
L 1894 763 
L 2988 3500 
L 3597 3500 
L 2059 -325 
z
" transform="scale(0.015625)"/>
       <path id="DejaVuSans-65" d="M 3597 1894 
L 3597 1613 
L 953 1613 
Q 991 1019 1311 708 
Q 1631 397 2203 397 
Q 2534 397 2845 478 
Q 3156 559 3463 722 
L 3463 178 
Q 3153 47 2828 -22 
Q 2503 -91 2169 -91 
Q 1331 -91 842 396 
Q 353 884 353 1716 
Q 353 2575 817 3079 
Q 1281 3584 2069 3584 
Q 2775 3584 3186 3129 
Q 3597 2675 3597 1894 
z
M 3022 2063 
Q 3016 2534 2758 2815 
Q 2500 3097 2075 3097 
Q 1594 3097 1305 2825 
Q 1016 2553 972 2059 
L 3022 2063 
z
" transform="scale(0.015625)"/>
       <path id="DejaVuSans-72" d="M 2631 2963 
Q 2534 3019 2420 3045 
Q 2306 3072 2169 3072 
Q 1681 3072 1420 2755 
Q 1159 2438 1159 1844 
L 1159 0 
L 581 0 
L 581 3500 
L 1159 3500 
L 1159 2956 
Q 1341 3275 1631 3429 
Q 1922 3584 2338 3584 
Q 2397 3584 2469 3576 
Q 2541 3569 2628 3553 
L 2631 2963 
z
" transform="scale(0.015625)"/>
       <path id="DejaVuSans-20" transform="scale(0.015625)"/>
       <path id="DejaVuSans-28" d="M 1984 4856 
Q 1566 4138 1362 3434 
Q 1159 2731 1159 2009 
Q 1159 1288 1364 580 
Q 1569 -128 1984 -844 
L 1484 -844 
Q 1016 -109 783 600 
Q 550 1309 550 2009 
Q 550 2706 781 3412 
Q 1013 4119 1484 4856 
L 1984 4856 
z
" transform="scale(0.015625)"/>
       <path id="DejaVuSans-66" d="M 2375 4863 
L 2375 4384 
L 1825 4384 
Q 1516 4384 1395 4259 
Q 1275 4134 1275 3809 
L 1275 3500 
L 2222 3500 
L 2222 3053 
L 1275 3053 
L 1275 0 
L 697 0 
L 697 3053 
L 147 3053 
L 147 3500 
L 697 3500 
L 697 3744 
Q 697 4328 969 4595 
Q 1241 4863 1831 4863 
L 2375 4863 
z
" transform="scale(0.015625)"/>
       <path id="DejaVuSans-6f" d="M 1959 3097 
Q 1497 3097 1228 2736 
Q 959 2375 959 1747 
Q 959 1119 1226 758 
Q 1494 397 1959 397 
Q 2419 397 2687 759 
Q 2956 1122 2956 1747 
Q 2956 2369 2687 2733 
Q 2419 3097 1959 3097 
z
M 1959 3584 
Q 2709 3584 3137 3096 
Q 3566 2609 3566 1747 
Q 3566 888 3137 398 
Q 2709 -91 1959 -91 
Q 1206 -91 779 398 
Q 353 888 353 1747 
Q 353 2609 779 3096 
Q 1206 3584 1959 3584 
z
" transform="scale(0.015625)"/>
       <path id="DejaVuSans-6d" d="M 3328 2828 
Q 3544 3216 3844 3400 
Q 4144 3584 4550 3584 
Q 5097 3584 5394 3201 
Q 5691 2819 5691 2113 
L 5691 0 
L 5113 0 
L 5113 2094 
Q 5113 2597 4934 2840 
Q 4756 3084 4391 3084 
Q 3944 3084 3684 2787 
Q 3425 2491 3425 1978 
L 3425 0 
L 2847 0 
L 2847 2094 
Q 2847 2600 2669 2842 
Q 2491 3084 2119 3084 
Q 1678 3084 1418 2786 
Q 1159 2488 1159 1978 
L 1159 0 
L 581 0 
L 581 3500 
L 1159 3500 
L 1159 2956 
Q 1356 3278 1631 3431 
Q 1906 3584 2284 3584 
Q 2666 3584 2933 3390 
Q 3200 3197 3328 2828 
z
" transform="scale(0.015625)"/>
       <path id="DejaVuSans-75" d="M 544 1381 
L 544 3500 
L 1119 3500 
L 1119 1403 
Q 1119 906 1312 657 
Q 1506 409 1894 409 
Q 2359 409 2629 706 
Q 2900 1003 2900 1516 
L 2900 3500 
L 3475 3500 
L 3475 0 
L 2900 0 
L 2900 538 
Q 2691 219 2414 64 
Q 2138 -91 1772 -91 
Q 1169 -91 856 284 
Q 544 659 544 1381 
z
M 1991 3584 
L 1991 3584 
z
" transform="scale(0.015625)"/>
       <path id="DejaVuSans-74" d="M 1172 4494 
L 1172 3500 
L 2356 3500 
L 2356 3053 
L 1172 3053 
L 1172 1153 
Q 1172 725 1289 603 
Q 1406 481 1766 481 
L 2356 481 
L 2356 0 
L 1766 0 
Q 1100 0 847 248 
Q 594 497 594 1153 
L 594 3053 
L 172 3053 
L 172 3500 
L 594 3500 
L 594 4494 
L 1172 4494 
z
" transform="scale(0.015625)"/>
       <path id="DejaVuSans-70" d="M 1159 525 
L 1159 -1331 
L 581 -1331 
L 581 3500 
L 1159 3500 
L 1159 2969 
Q 1341 3281 1617 3432 
Q 1894 3584 2278 3584 
Q 2916 3584 3314 3078 
Q 3713 2572 3713 1747 
Q 3713 922 3314 415 
Q 2916 -91 2278 -91 
Q 1894 -91 1617 61 
Q 1341 213 1159 525 
z
M 3116 1747 
Q 3116 2381 2855 2742 
Q 2594 3103 2138 3103 
Q 1681 3103 1420 2742 
Q 1159 2381 1159 1747 
Q 1159 1113 1420 752 
Q 1681 391 2138 391 
Q 2594 391 2855 752 
Q 3116 1113 3116 1747 
z
" transform="scale(0.015625)"/>
       <path id="DejaVuSans-29" d="M 513 4856 
L 1013 4856 
Q 1481 4119 1714 3412 
Q 1947 2706 1947 2009 
Q 1947 1309 1714 600 
Q 1481 -109 1013 -844 
L 513 -844 
Q 928 -128 1133 580 
Q 1338 1288 1338 2009 
Q 1338 2731 1133 3434 
Q 928 4138 513 4856 
z
" transform="scale(0.015625)"/>
      </defs>
      <use xlink:href="#DejaVuSans-6c"/>
      <use xlink:href="#DejaVuSans-61" transform="translate(27.783203 0)"/>
      <use xlink:href="#DejaVuSans-79" transform="translate(89.0625 0)"/>
      <use xlink:href="#DejaVuSans-65" transform="translate(148.242188 0)"/>
      <use xlink:href="#DejaVuSans-72" transform="translate(209.765625 0)"/>
      <use xlink:href="#DejaVuSans-20" transform="translate(250.878906 0)"/>
      <use xlink:href="#DejaVuSans-28" transform="translate(282.666016 0)"/>
      <use xlink:href="#DejaVuSans-66" transform="translate(321.679688 0)"/>
      <use xlink:href="#DejaVuSans-72" transform="translate(356.884766 0)"/>
      <use xlink:href="#DejaVuSans-6f" transform="translate(395.748047 0)"/>
      <use xlink:href="#DejaVuSans-6d" transform="translate(456.929688 0)"/>
      <use xlink:href="#DejaVuSans-20" transform="translate(554.341797 0)"/>
      <use xlink:href="#DejaVuSans-6f" transform="translate(586.128906 0)"/>
      <use xlink:href="#DejaVuSans-75" transform="translate(647.310547 0)"/>
      <use xlink:href="#DejaVuSans-74" transform="translate(710.689453 0)"/>
      <use xlink:href="#DejaVuSans-70" transform="translate(749.898438 0)"/>
      <use xlink:href="#DejaVuSans-75" transform="translate(813.375 0)"/>
      <use xlink:href="#DejaVuSans-74" transform="translate(876.753906 0)"/>
      <use xlink:href="#DejaVuSans-29" transform="translate(915.962891 0)"/>
     </g>
    </g>
   </g>
   <g id="matplotlib.axis_2">
    <g id="ytick_1">
     <g id="line2d_11">
      <path d="M 51.378125 248.156282 
L 596.581071 248.156282 
" clip-path="url(#p269f9489b4)" style="fill: none; stroke: #b0b0b0; stroke-opacity: 0.25; stroke-width: 0.8; stroke-linecap: square"/>
     </g>
     <g id="line2d_12">
      <defs>
       <path id="mc6dc99b24d" d="M 0 0 
L -3.5 0 
" style="stroke: #000000; stroke-width: 0.8"/>
      </defs>
      <g>
       <use xlink:href="#mc6dc99b24d" x="51.378125" y="248.156282" style="stroke: #000000; stroke-width: 0.8"/>
      </g>
     </g>
     <g id="text_7">
      <!-- $\mathdefault{10^{-5}}$ -->
      <g transform="translate(20.878125 251.955501) scale(0.1 -0.1)">
       <defs>
        <path id="DejaVuSans-2212" d="M 678 2272 
L 4684 2272 
L 4684 1741 
L 678 1741 
L 678 2272 
z
" transform="scale(0.015625)"/>
        <path id="DejaVuSans-35" d="M 691 4666 
L 3169 4666 
L 3169 4134 
L 1269 4134 
L 1269 2991 
Q 1406 3038 1543 3061 
Q 1681 3084 1819 3084 
Q 2600 3084 3056 2656 
Q 3513 2228 3513 1497 
Q 3513 744 3044 326 
Q 2575 -91 1722 -91 
Q 1428 -91 1123 -41 
Q 819 9 494 109 
L 494 744 
Q 775 591 1075 516 
Q 1375 441 1709 441 
Q 2250 441 2565 725 
Q 2881 1009 2881 1497 
Q 2881 1984 2565 2268 
Q 2250 2553 1709 2553 
Q 1456 2553 1204 2497 
Q 953 2441 691 2322 
L 691 4666 
z
" transform="scale(0.015625)"/>
       </defs>
       <use xlink:href="#DejaVuSans-31" transform="translate(0 0.684375)"/>
       <use xlink:href="#DejaVuSans-30" transform="translate(63.623047 0.684375)"/>
       <use xlink:href="#DejaVuSans-2212" transform="translate(128.203125 38.965625) scale(0.7)"/>
       <use xlink:href="#DejaVuSans-35" transform="translate(186.855469 38.965625) scale(0.7)"/>
      </g>
     </g>
    </g>
    <g id="ytick_2">
     <g id="line2d_13">
      <path d="M 51.378125 207.859617 
L 596.581071 207.859617 
" clip-path="url(#p269f9489b4)" style="fill: none; stroke: #b0b0b0; stroke-opacity: 0.25; stroke-width: 0.8; stroke-linecap: square"/>
     </g>
     <g id="line2d_14">
      <g>
       <use xlink:href="#mc6dc99b24d" x="51.378125" y="207.859617" style="stroke: #000000; stroke-width: 0.8"/>
      </g>
     </g>
     <g id="text_8">
      <!-- $\mathdefault{10^{-4}}$ -->
      <g transform="translate(20.878125 211.658835) scale(0.1 -0.1)">
       <use xlink:href="#DejaVuSans-31" transform="translate(0 0.684375)"/>
       <use xlink:href="#DejaVuSans-30" transform="translate(63.623047 0.684375)"/>
       <use xlink:href="#DejaVuSans-2212" transform="translate(128.203125 38.965625) scale(0.7)"/>
       <use xlink:href="#DejaVuSans-34" transform="translate(186.855469 38.965625) scale(0.7)"/>
      </g>
     </g>
    </g>
    <g id="ytick_3">
     <g id="line2d_15">
      <path d="M 51.378125 167.562951 
L 596.581071 167.562951 
" clip-path="url(#p269f9489b4)" style="fill: none; stroke: #b0b0b0; stroke-opacity: 0.25; stroke-width: 0.8; stroke-linecap: square"/>
     </g>
     <g id="line2d_16">
      <g>
       <use xlink:href="#mc6dc99b24d" x="51.378125" y="167.562951" style="stroke: #000000; stroke-width: 0.8"/>
      </g>
     </g>
     <g id="text_9">
      <!-- $\mathdefault{10^{-3}}$ -->
      <g transform="translate(20.878125 171.36217) scale(0.1 -0.1)">
       <defs>
        <path id="DejaVuSans-33" d="M 2597 2516 
Q 3050 2419 3304 2112 
Q 3559 1806 3559 1356 
Q 3559 666 3084 287 
Q 2609 -91 1734 -91 
Q 1441 -91 1130 -33 
Q 819 25 488 141 
L 488 750 
Q 750 597 1062 519 
Q 1375 441 1716 441 
Q 2309 441 2620 675 
Q 2931 909 2931 1356 
Q 2931 1769 2642 2001 
Q 2353 2234 1838 2234 
L 1294 2234 
L 1294 2753 
L 1863 2753 
Q 2328 2753 2575 2939 
Q 2822 3125 2822 3475 
Q 2822 3834 2567 4026 
Q 2313 4219 1838 4219 
Q 1578 4219 1281 4162 
Q 984 4106 628 3988 
L 628 4550 
Q 988 4650 1302 4700 
Q 1616 4750 1894 4750 
Q 2613 4750 3031 4423 
Q 3450 4097 3450 3541 
Q 3450 3153 3228 2886 
Q 3006 2619 2597 2516 
z
" transform="scale(0.015625)"/>
       </defs>
       <use xlink:href="#DejaVuSans-31" transform="translate(0 0.765625)"/>
       <use xlink:href="#DejaVuSans-30" transform="translate(63.623047 0.765625)"/>
       <use xlink:href="#DejaVuSans-2212" transform="translate(128.203125 39.046875) scale(0.7)"/>
       <use xlink:href="#DejaVuSans-33" transform="translate(186.855469 39.046875) scale(0.7)"/>
      </g>
     </g>
    </g>
    <g id="ytick_4">
     <g id="line2d_17">
      <path d="M 51.378125 127.266286 
L 596.581071 127.266286 
" clip-path="url(#p269f9489b4)" style="fill: none; stroke: #b0b0b0; stroke-opacity: 0.25; stroke-width: 0.8; stroke-linecap: square"/>
     </g>
     <g id="line2d_18">
      <g>
       <use xlink:href="#mc6dc99b24d" x="51.378125" y="127.266286" style="stroke: #000000; stroke-width: 0.8"/>
      </g>
     </g>
     <g id="text_10">
      <!-- $\mathdefault{10^{-2}}$ -->
      <g transform="translate(20.878125 131.065504) scale(0.1 -0.1)">
       <use xlink:href="#DejaVuSans-31" transform="translate(0 0.765625)"/>
       <use xlink:href="#DejaVuSans-30" transform="translate(63.623047 0.765625)"/>
       <use xlink:href="#DejaVuSans-2212" transform="translate(128.203125 39.046875) scale(0.7)"/>
       <use xlink:href="#DejaVuSans-32" transform="translate(186.855469 39.046875) scale(0.7)"/>
      </g>
     </g>
    </g>
    <g id="ytick_5">
     <g id="line2d_19">
      <path d="M 51.378125 86.96962 
L 596.581071 86.96962 
" clip-path="url(#p269f9489b4)" style="fill: none; stroke: #b0b0b0; stroke-opacity: 0.25; stroke-width: 0.8; stroke-linecap: square"/>
     </g>
     <g id="line2d_20">
      <g>
       <use xlink:href="#mc6dc99b24d" x="51.378125" y="86.96962" style="stroke: #000000; stroke-width: 0.8"/>
      </g>
     </g>
     <g id="text_11">
      <!-- $\mathdefault{10^{-1}}$ -->
      <g transform="translate(20.878125 90.768839) scale(0.1 -0.1)">
       <use xlink:href="#DejaVuSans-31" transform="translate(0 0.684375)"/>
       <use xlink:href="#DejaVuSans-30" transform="translate(63.623047 0.684375)"/>
       <use xlink:href="#DejaVuSans-2212" transform="translate(128.203125 38.965625) scale(0.7)"/>
       <use xlink:href="#DejaVuSans-31" transform="translate(186.855469 38.965625) scale(0.7)"/>
      </g>
     </g>
    </g>
    <g id="ytick_6">
     <g id="line2d_21">
      <path d="M 51.378125 46.672955 
L 596.581071 46.672955 
" clip-path="url(#p269f9489b4)" style="fill: none; stroke: #b0b0b0; stroke-opacity: 0.25; stroke-width: 0.8; stroke-linecap: square"/>
     </g>
     <g id="line2d_22">
      <g>
       <use xlink:href="#mc6dc99b24d" x="51.378125" y="46.672955" style="stroke: #000000; stroke-width: 0.8"/>
      </g>
     </g>
     <g id="text_12">
      <!-- $\mathdefault{10^{0}}$ -->
      <g transform="translate(26.778125 50.472173) scale(0.1 -0.1)">
       <use xlink:href="#DejaVuSans-31" transform="translate(0 0.765625)"/>
       <use xlink:href="#DejaVuSans-30" transform="translate(63.623047 0.765625)"/>
       <use xlink:href="#DejaVuSans-30" transform="translate(128.203125 39.046875) scale(0.7)"/>
      </g>
     </g>
    </g>
    <g id="ytick_7">
     <g id="line2d_23">
      <defs>
       <path id="mb85143ae5c" d="M 0 0 
L -2 0 
" style="stroke: #000000; stroke-width: 0.6"/>
      </defs>
      <g>
       <use xlink:href="#mb85143ae5c" x="51.378125" y="269.226552" style="stroke: #000000; stroke-width: 0.6"/>
      </g>
     </g>
    </g>
    <g id="ytick_8">
     <g id="line2d_24">
      <g>
       <use xlink:href="#mb85143ae5c" x="51.378125" y="264.191938" style="stroke: #000000; stroke-width: 0.6"/>
      </g>
     </g>
    </g>
    <g id="ytick_9">
     <g id="line2d_25">
      <g>
       <use xlink:href="#mb85143ae5c" x="51.378125" y="260.286787" style="stroke: #000000; stroke-width: 0.6"/>
      </g>
     </g>
    </g>
    <g id="ytick_10">
     <g id="line2d_26">
      <g>
       <use xlink:href="#mb85143ae5c" x="51.378125" y="257.096047" style="stroke: #000000; stroke-width: 0.6"/>
      </g>
     </g>
    </g>
    <g id="ytick_11">
     <g id="line2d_27">
      <g>
       <use xlink:href="#mb85143ae5c" x="51.378125" y="254.398315" style="stroke: #000000; stroke-width: 0.6"/>
      </g>
     </g>
    </g>
    <g id="ytick_12">
     <g id="line2d_28">
      <g>
       <use xlink:href="#mb85143ae5c" x="51.378125" y="252.061433" style="stroke: #000000; stroke-width: 0.6"/>
      </g>
     </g>
    </g>
    <g id="ytick_13">
     <g id="line2d_29">
      <g>
       <use xlink:href="#mb85143ae5c" x="51.378125" y="250.000157" style="stroke: #000000; stroke-width: 0.6"/>
      </g>
     </g>
    </g>
    <g id="ytick_14">
     <g id="line2d_30">
      <g>
       <use xlink:href="#mb85143ae5c" x="51.378125" y="236.025777" style="stroke: #000000; stroke-width: 0.6"/>
      </g>
     </g>
    </g>
    <g id="ytick_15">
     <g id="line2d_31">
      <g>
       <use xlink:href="#mb85143ae5c" x="51.378125" y="228.929887" style="stroke: #000000; stroke-width: 0.6"/>
      </g>
     </g>
    </g>
    <g id="ytick_16">
     <g id="line2d_32">
      <g>
       <use xlink:href="#mb85143ae5c" x="51.378125" y="223.895272" style="stroke: #000000; stroke-width: 0.6"/>
      </g>
     </g>
    </g>
    <g id="ytick_17">
     <g id="line2d_33">
      <g>
       <use xlink:href="#mb85143ae5c" x="51.378125" y="219.990122" style="stroke: #000000; stroke-width: 0.6"/>
      </g>
     </g>
    </g>
    <g id="ytick_18">
     <g id="line2d_34">
      <g>
       <use xlink:href="#mb85143ae5c" x="51.378125" y="216.799382" style="stroke: #000000; stroke-width: 0.6"/>
      </g>
     </g>
    </g>
    <g id="ytick_19">
     <g id="line2d_35">
      <g>
       <use xlink:href="#mb85143ae5c" x="51.378125" y="214.101649" style="stroke: #000000; stroke-width: 0.6"/>
      </g>
     </g>
    </g>
    <g id="ytick_20">
     <g id="line2d_36">
      <g>
       <use xlink:href="#mb85143ae5c" x="51.378125" y="211.764767" style="stroke: #000000; stroke-width: 0.6"/>
      </g>
     </g>
    </g>
    <g id="ytick_21">
     <g id="line2d_37">
      <g>
       <use xlink:href="#mb85143ae5c" x="51.378125" y="209.703491" style="stroke: #000000; stroke-width: 0.6"/>
      </g>
     </g>
    </g>
    <g id="ytick_22">
     <g id="line2d_38">
      <g>
       <use xlink:href="#mb85143ae5c" x="51.378125" y="195.729112" style="stroke: #000000; stroke-width: 0.6"/>
      </g>
     </g>
    </g>
    <g id="ytick_23">
     <g id="line2d_39">
      <g>
       <use xlink:href="#mb85143ae5c" x="51.378125" y="188.633221" style="stroke: #000000; stroke-width: 0.6"/>
      </g>
     </g>
    </g>
    <g id="ytick_24">
     <g id="line2d_40">
      <g>
       <use xlink:href="#mb85143ae5c" x="51.378125" y="183.598607" style="stroke: #000000; stroke-width: 0.6"/>
      </g>
     </g>
    </g>
    <g id="ytick_25">
     <g id="line2d_41">
      <g>
       <use xlink:href="#mb85143ae5c" x="51.378125" y="179.693456" style="stroke: #000000; stroke-width: 0.6"/>
      </g>
     </g>
    </g>
    <g id="ytick_26">
     <g id="line2d_42">
      <g>
       <use xlink:href="#mb85143ae5c" x="51.378125" y="176.502716" style="stroke: #000000; stroke-width: 0.6"/>
      </g>
     </g>
    </g>
    <g id="ytick_27">
     <g id="line2d_43">
      <g>
       <use xlink:href="#mb85143ae5c" x="51.378125" y="173.804984" style="stroke: #000000; stroke-width: 0.6"/>
      </g>
     </g>
    </g>
    <g id="ytick_28">
     <g id="line2d_44">
      <g>
       <use xlink:href="#mb85143ae5c" x="51.378125" y="171.468102" style="stroke: #000000; stroke-width: 0.6"/>
      </g>
     </g>
    </g>
    <g id="ytick_29">
     <g id="line2d_45">
      <g>
       <use xlink:href="#mb85143ae5c" x="51.378125" y="169.406825" style="stroke: #000000; stroke-width: 0.6"/>
      </g>
     </g>
    </g>
    <g id="ytick_30">
     <g id="line2d_46">
      <g>
       <use xlink:href="#mb85143ae5c" x="51.378125" y="155.432446" style="stroke: #000000; stroke-width: 0.6"/>
      </g>
     </g>
    </g>
    <g id="ytick_31">
     <g id="line2d_47">
      <g>
       <use xlink:href="#mb85143ae5c" x="51.378125" y="148.336556" style="stroke: #000000; stroke-width: 0.6"/>
      </g>
     </g>
    </g>
    <g id="ytick_32">
     <g id="line2d_48">
      <g>
       <use xlink:href="#mb85143ae5c" x="51.378125" y="143.301941" style="stroke: #000000; stroke-width: 0.6"/>
      </g>
     </g>
    </g>
    <g id="ytick_33">
     <g id="line2d_49">
      <g>
       <use xlink:href="#mb85143ae5c" x="51.378125" y="139.396791" style="stroke: #000000; stroke-width: 0.6"/>
      </g>
     </g>
    </g>
    <g id="ytick_34">
     <g id="line2d_50">
      <g>
       <use xlink:href="#mb85143ae5c" x="51.378125" y="136.20605" style="stroke: #000000; stroke-width: 0.6"/>
      </g>
     </g>
    </g>
    <g id="ytick_35">
     <g id="line2d_51">
      <g>
       <use xlink:href="#mb85143ae5c" x="51.378125" y="133.508318" style="stroke: #000000; stroke-width: 0.6"/>
      </g>
     </g>
    </g>
    <g id="ytick_36">
     <g id="line2d_52">
      <g>
       <use xlink:href="#mb85143ae5c" x="51.378125" y="131.171436" style="stroke: #000000; stroke-width: 0.6"/>
      </g>
     </g>
    </g>
    <g id="ytick_37">
     <g id="line2d_53">
      <g>
       <use xlink:href="#mb85143ae5c" x="51.378125" y="129.11016" style="stroke: #000000; stroke-width: 0.6"/>
      </g>
     </g>
    </g>
    <g id="ytick_38">
     <g id="line2d_54">
      <g>
       <use xlink:href="#mb85143ae5c" x="51.378125" y="115.135781" style="stroke: #000000; stroke-width: 0.6"/>
      </g>
     </g>
    </g>
    <g id="ytick_39">
     <g id="line2d_55">
      <g>
       <use xlink:href="#mb85143ae5c" x="51.378125" y="108.03989" style="stroke: #000000; stroke-width: 0.6"/>
      </g>
     </g>
    </g>
    <g id="ytick_40">
     <g id="line2d_56">
      <g>
       <use xlink:href="#mb85143ae5c" x="51.378125" y="103.005276" style="stroke: #000000; stroke-width: 0.6"/>
      </g>
     </g>
    </g>
    <g id="ytick_41">
     <g id="line2d_57">
      <g>
       <use xlink:href="#mb85143ae5c" x="51.378125" y="99.100125" style="stroke: #000000; stroke-width: 0.6"/>
      </g>
     </g>
    </g>
    <g id="ytick_42">
     <g id="line2d_58">
      <g>
       <use xlink:href="#mb85143ae5c" x="51.378125" y="95.909385" style="stroke: #000000; stroke-width: 0.6"/>
      </g>
     </g>
    </g>
    <g id="ytick_43">
     <g id="line2d_59">
      <g>
       <use xlink:href="#mb85143ae5c" x="51.378125" y="93.211653" style="stroke: #000000; stroke-width: 0.6"/>
      </g>
     </g>
    </g>
    <g id="ytick_44">
     <g id="line2d_60">
      <g>
       <use xlink:href="#mb85143ae5c" x="51.378125" y="90.87477" style="stroke: #000000; stroke-width: 0.6"/>
      </g>
     </g>
    </g>
    <g id="ytick_45">
     <g id="line2d_61">
      <g>
       <use xlink:href="#mb85143ae5c" x="51.378125" y="88.813494" style="stroke: #000000; stroke-width: 0.6"/>
      </g>
     </g>
    </g>
    <g id="ytick_46">
     <g id="line2d_62">
      <g>
       <use xlink:href="#mb85143ae5c" x="51.378125" y="74.839115" style="stroke: #000000; stroke-width: 0.6"/>
      </g>
     </g>
    </g>
    <g id="ytick_47">
     <g id="line2d_63">
      <g>
       <use xlink:href="#mb85143ae5c" x="51.378125" y="67.743224" style="stroke: #000000; stroke-width: 0.6"/>
      </g>
     </g>
    </g>
    <g id="ytick_48">
     <g id="line2d_64">
      <g>
       <use xlink:href="#mb85143ae5c" x="51.378125" y="62.70861" style="stroke: #000000; stroke-width: 0.6"/>
      </g>
     </g>
    </g>
    <g id="ytick_49">
     <g id="line2d_65">
      <g>
       <use xlink:href="#mb85143ae5c" x="51.378125" y="58.80346" style="stroke: #000000; stroke-width: 0.6"/>
      </g>
     </g>
    </g>
    <g id="ytick_50">
     <g id="line2d_66">
      <g>
       <use xlink:href="#mb85143ae5c" x="51.378125" y="55.612719" style="stroke: #000000; stroke-width: 0.6"/>
      </g>
     </g>
    </g>
    <g id="ytick_51">
     <g id="line2d_67">
      <g>
       <use xlink:href="#mb85143ae5c" x="51.378125" y="52.914987" style="stroke: #000000; stroke-width: 0.6"/>
      </g>
     </g>
    </g>
    <g id="ytick_52">
     <g id="line2d_68">
      <g>
       <use xlink:href="#mb85143ae5c" x="51.378125" y="50.578105" style="stroke: #000000; stroke-width: 0.6"/>
      </g>
     </g>
    </g>
    <g id="ytick_53">
     <g id="line2d_69">
      <g>
       <use xlink:href="#mb85143ae5c" x="51.378125" y="48.516829" style="stroke: #000000; stroke-width: 0.6"/>
      </g>
     </g>
    </g>
    <g id="text_13">
     <!-- gradient magnitude (log scale) -->
     <g transform="translate(14.798438 233.131094) rotate(-90) scale(0.1 -0.1)">
      <defs>
       <path id="DejaVuSans-67" d="M 2906 1791 
Q 2906 2416 2648 2759 
Q 2391 3103 1925 3103 
Q 1463 3103 1205 2759 
Q 947 2416 947 1791 
Q 947 1169 1205 825 
Q 1463 481 1925 481 
Q 2391 481 2648 825 
Q 2906 1169 2906 1791 
z
M 3481 434 
Q 3481 -459 3084 -895 
Q 2688 -1331 1869 -1331 
Q 1566 -1331 1297 -1286 
Q 1028 -1241 775 -1147 
L 775 -588 
Q 1028 -725 1275 -790 
Q 1522 -856 1778 -856 
Q 2344 -856 2625 -561 
Q 2906 -266 2906 331 
L 2906 616 
Q 2728 306 2450 153 
Q 2172 0 1784 0 
Q 1141 0 747 490 
Q 353 981 353 1791 
Q 353 2603 747 3093 
Q 1141 3584 1784 3584 
Q 2172 3584 2450 3431 
Q 2728 3278 2906 2969 
L 2906 3500 
L 3481 3500 
L 3481 434 
z
" transform="scale(0.015625)"/>
       <path id="DejaVuSans-64" d="M 2906 2969 
L 2906 4863 
L 3481 4863 
L 3481 0 
L 2906 0 
L 2906 525 
Q 2725 213 2448 61 
Q 2172 -91 1784 -91 
Q 1150 -91 751 415 
Q 353 922 353 1747 
Q 353 2572 751 3078 
Q 1150 3584 1784 3584 
Q 2172 3584 2448 3432 
Q 2725 3281 2906 2969 
z
M 947 1747 
Q 947 1113 1208 752 
Q 1469 391 1925 391 
Q 2381 391 2643 752 
Q 2906 1113 2906 1747 
Q 2906 2381 2643 2742 
Q 2381 3103 1925 3103 
Q 1469 3103 1208 2742 
Q 947 2381 947 1747 
z
" transform="scale(0.015625)"/>
       <path id="DejaVuSans-69" d="M 603 3500 
L 1178 3500 
L 1178 0 
L 603 0 
L 603 3500 
z
M 603 4863 
L 1178 4863 
L 1178 4134 
L 603 4134 
L 603 4863 
z
" transform="scale(0.015625)"/>
       <path id="DejaVuSans-6e" d="M 3513 2113 
L 3513 0 
L 2938 0 
L 2938 2094 
Q 2938 2591 2744 2837 
Q 2550 3084 2163 3084 
Q 1697 3084 1428 2787 
Q 1159 2491 1159 1978 
L 1159 0 
L 581 0 
L 581 3500 
L 1159 3500 
L 1159 2956 
Q 1366 3272 1645 3428 
Q 1925 3584 2291 3584 
Q 2894 3584 3203 3211 
Q 3513 2838 3513 2113 
z
" transform="scale(0.015625)"/>
       <path id="DejaVuSans-73" d="M 2834 3397 
L 2834 2853 
Q 2591 2978 2328 3040 
Q 2066 3103 1784 3103 
Q 1356 3103 1142 2972 
Q 928 2841 928 2578 
Q 928 2378 1081 2264 
Q 1234 2150 1697 2047 
L 1894 2003 
Q 2506 1872 2764 1633 
Q 3022 1394 3022 966 
Q 3022 478 2636 193 
Q 2250 -91 1575 -91 
Q 1294 -91 989 -36 
Q 684 19 347 128 
L 347 722 
Q 666 556 975 473 
Q 1284 391 1588 391 
Q 1994 391 2212 530 
Q 2431 669 2431 922 
Q 2431 1156 2273 1281 
Q 2116 1406 1581 1522 
L 1381 1569 
Q 847 1681 609 1914 
Q 372 2147 372 2553 
Q 372 3047 722 3315 
Q 1072 3584 1716 3584 
Q 2034 3584 2315 3537 
Q 2597 3491 2834 3397 
z
" transform="scale(0.015625)"/>
       <path id="DejaVuSans-63" d="M 3122 3366 
L 3122 2828 
Q 2878 2963 2633 3030 
Q 2388 3097 2138 3097 
Q 1578 3097 1268 2742 
Q 959 2388 959 1747 
Q 959 1106 1268 751 
Q 1578 397 2138 397 
Q 2388 397 2633 464 
Q 2878 531 3122 666 
L 3122 134 
Q 2881 22 2623 -34 
Q 2366 -91 2075 -91 
Q 1284 -91 818 406 
Q 353 903 353 1747 
Q 353 2603 823 3093 
Q 1294 3584 2113 3584 
Q 2378 3584 2631 3529 
Q 2884 3475 3122 3366 
z
" transform="scale(0.015625)"/>
      </defs>
      <use xlink:href="#DejaVuSans-67"/>
      <use xlink:href="#DejaVuSans-72" transform="translate(63.476562 0)"/>
      <use xlink:href="#DejaVuSans-61" transform="translate(104.589844 0)"/>
      <use xlink:href="#DejaVuSans-64" transform="translate(165.869141 0)"/>
      <use xlink:href="#DejaVuSans-69" transform="translate(229.345703 0)"/>
      <use xlink:href="#DejaVuSans-65" transform="translate(257.128906 0)"/>
      <use xlink:href="#DejaVuSans-6e" transform="translate(318.652344 0)"/>
      <use xlink:href="#DejaVuSans-74" transform="translate(382.03125 0)"/>
      <use xlink:href="#DejaVuSans-20" transform="translate(421.240234 0)"/>
      <use xlink:href="#DejaVuSans-6d" transform="translate(453.027344 0)"/>
      <use xlink:href="#DejaVuSans-61" transform="translate(550.439453 0)"/>
      <use xlink:href="#DejaVuSans-67" transform="translate(611.71875 0)"/>
      <use xlink:href="#DejaVuSans-6e" transform="translate(675.195312 0)"/>
      <use xlink:href="#DejaVuSans-69" transform="translate(738.574219 0)"/>
      <use xlink:href="#DejaVuSans-74" transform="translate(766.357422 0)"/>
      <use xlink:href="#DejaVuSans-75" transform="translate(805.566406 0)"/>
      <use xlink:href="#DejaVuSans-64" transform="translate(868.945312 0)"/>
      <use xlink:href="#DejaVuSans-65" transform="translate(932.421875 0)"/>
      <use xlink:href="#DejaVuSans-20" transform="translate(993.945312 0)"/>
      <use xlink:href="#DejaVuSans-28" transform="translate(1025.732422 0)"/>
      <use xlink:href="#DejaVuSans-6c" transform="translate(1064.746094 0)"/>
      <use xlink:href="#DejaVuSans-6f" transform="translate(1092.529297 0)"/>
      <use xlink:href="#DejaVuSans-67" transform="translate(1153.710938 0)"/>
      <use xlink:href="#DejaVuSans-20" transform="translate(1217.1875 0)"/>
      <use xlink:href="#DejaVuSans-73" transform="translate(1248.974609 0)"/>
      <use xlink:href="#DejaVuSans-63" transform="translate(1301.074219 0)"/>
      <use xlink:href="#DejaVuSans-61" transform="translate(1356.054688 0)"/>
      <use xlink:href="#DejaVuSans-6c" transform="translate(1417.333984 0)"/>
      <use xlink:href="#DejaVuSans-65" transform="translate(1445.117188 0)"/>
      <use xlink:href="#DejaVuSans-29" transform="translate(1506.640625 0)"/>
     </g>
    </g>
   </g>
   <g id="line2d_70">
    <path d="M 76.160077 46.672955 
L 131.231082 70.933965 
L 186.302086 95.194975 
L 241.373091 119.455985 
L 296.444096 143.716995 
L 351.5151 167.978005 
L 406.586105 192.239015 
L 461.65711 216.500025 
L 516.728114 240.761035 
L 571.799119 265.022045 
" clip-path="url(#p269f9489b4)" style="fill: none; stroke: #7aa6c2; stroke-width: 2; stroke-linecap: square"/>
    <defs>
     <path id="mf87fdbd1d4" d="M 0 3 
C 0.795609 3 1.55874 2.683901 2.12132 2.12132 
C 2.683901 1.55874 3 0.795609 3 0 
C 3 -0.795609 2.683901 -1.55874 2.12132 -2.12132 
C 1.55874 -2.683901 0.795609 -3 0 -3 
C -0.795609 -3 -1.55874 -2.683901 -2.12132 -2.12132 
C -2.683901 -1.55874 -3 -0.795609 -3 0 
C -3 0.795609 -2.683901 1.55874 -2.12132 2.12132 
C -1.55874 2.683901 -0.795609 3 0 3 
z
" style="stroke: #7aa6c2"/>
    </defs>
    <g clip-path="url(#p269f9489b4)">
     <use xlink:href="#mf87fdbd1d4" x="76.160077" y="46.672955" style="fill: #7aa6c2; stroke: #7aa6c2"/>
     <use xlink:href="#mf87fdbd1d4" x="131.231082" y="70.933965" style="fill: #7aa6c2; stroke: #7aa6c2"/>
     <use xlink:href="#mf87fdbd1d4" x="186.302086" y="95.194975" style="fill: #7aa6c2; stroke: #7aa6c2"/>
     <use xlink:href="#mf87fdbd1d4" x="241.373091" y="119.455985" style="fill: #7aa6c2; stroke: #7aa6c2"/>
     <use xlink:href="#mf87fdbd1d4" x="296.444096" y="143.716995" style="fill: #7aa6c2; stroke: #7aa6c2"/>
     <use xlink:href="#mf87fdbd1d4" x="351.5151" y="167.978005" style="fill: #7aa6c2; stroke: #7aa6c2"/>
     <use xlink:href="#mf87fdbd1d4" x="406.586105" y="192.239015" style="fill: #7aa6c2; stroke: #7aa6c2"/>
     <use xlink:href="#mf87fdbd1d4" x="461.65711" y="216.500025" style="fill: #7aa6c2; stroke: #7aa6c2"/>
     <use xlink:href="#mf87fdbd1d4" x="516.728114" y="240.761035" style="fill: #7aa6c2; stroke: #7aa6c2"/>
     <use xlink:href="#mf87fdbd1d4" x="571.799119" y="265.022045" style="fill: #7aa6c2; stroke: #7aa6c2"/>
    </g>
   </g>
   <g id="line2d_71">
    <path d="M 76.160077 46.672955 
L 131.231082 46.672955 
L 186.302086 46.672955 
L 241.373091 46.672955 
L 296.444096 46.672955 
L 351.5151 46.672955 
L 406.586105 46.672955 
L 461.65711 46.672955 
L 516.728114 46.672955 
L 571.799119 46.672955 
" clip-path="url(#p269f9489b4)" style="fill: none; stroke: #59a14f; stroke-width: 2; stroke-linecap: square"/>
    <defs>
     <path id="m7d6f2e4591" d="M 0 3 
C 0.795609 3 1.55874 2.683901 2.12132 2.12132 
C 2.683901 1.55874 3 0.795609 3 0 
C 3 -0.795609 2.683901 -1.55874 2.12132 -2.12132 
C 1.55874 -2.683901 0.795609 -3 0 -3 
C -0.795609 -3 -1.55874 -2.683901 -2.12132 -2.12132 
C -2.683901 -1.55874 -3 -0.795609 -3 0 
C -3 0.795609 -2.683901 1.55874 -2.12132 2.12132 
C -1.55874 2.683901 -0.795609 3 0 3 
z
" style="stroke: #59a14f"/>
    </defs>
    <g clip-path="url(#p269f9489b4)">
     <use xlink:href="#m7d6f2e4591" x="76.160077" y="46.672955" style="fill: #59a14f; stroke: #59a14f"/>
     <use xlink:href="#m7d6f2e4591" x="131.231082" y="46.672955" style="fill: #59a14f; stroke: #59a14f"/>
     <use xlink:href="#m7d6f2e4591" x="186.302086" y="46.672955" style="fill: #59a14f; stroke: #59a14f"/>
     <use xlink:href="#m7d6f2e4591" x="241.373091" y="46.672955" style="fill: #59a14f; stroke: #59a14f"/>
     <use xlink:href="#m7d6f2e4591" x="296.444096" y="46.672955" style="fill: #59a14f; stroke: #59a14f"/>
     <use xlink:href="#m7d6f2e4591" x="351.5151" y="46.672955" style="fill: #59a14f; stroke: #59a14f"/>
     <use xlink:href="#m7d6f2e4591" x="406.586105" y="46.672955" style="fill: #59a14f; stroke: #59a14f"/>
     <use xlink:href="#m7d6f2e4591" x="461.65711" y="46.672955" style="fill: #59a14f; stroke: #59a14f"/>
     <use xlink:href="#m7d6f2e4591" x="516.728114" y="46.672955" style="fill: #59a14f; stroke: #59a14f"/>
     <use xlink:href="#m7d6f2e4591" x="571.799119" y="46.672955" style="fill: #59a14f; stroke: #59a14f"/>
    </g>
   </g>
   <g id="line2d_72">
    <path d="M 76.160077 46.672955 
L 131.231082 58.80346 
L 186.302086 70.933965 
L 241.373091 83.06447 
L 296.444096 95.194975 
L 351.5151 107.32548 
L 406.586105 119.455985 
L 461.65711 131.58649 
L 516.728114 143.716995 
L 571.799119 155.8475 
" clip-path="url(#p269f9489b4)" style="fill: none; stroke: #e15759; stroke-width: 2; stroke-linecap: square"/>
    <defs>
     <path id="md3b8eb58c2" d="M 0 3 
C 0.795609 3 1.55874 2.683901 2.12132 2.12132 
C 2.683901 1.55874 3 0.795609 3 0 
C 3 -0.795609 2.683901 -1.55874 2.12132 -2.12132 
C 1.55874 -2.683901 0.795609 -3 0 -3 
C -0.795609 -3 -1.55874 -2.683901 -2.12132 -2.12132 
C -2.683901 -1.55874 -3 -0.795609 -3 0 
C -3 0.795609 -2.683901 1.55874 -2.12132 2.12132 
C -1.55874 2.683901 -0.795609 3 0 3 
z
" style="stroke: #e15759"/>
    </defs>
    <g clip-path="url(#p269f9489b4)">
     <use xlink:href="#md3b8eb58c2" x="76.160077" y="46.672955" style="fill: #e15759; stroke: #e15759"/>
     <use xlink:href="#md3b8eb58c2" x="131.231082" y="58.80346" style="fill: #e15759; stroke: #e15759"/>
     <use xlink:href="#md3b8eb58c2" x="186.302086" y="70.933965" style="fill: #e15759; stroke: #e15759"/>
     <use xlink:href="#md3b8eb58c2" x="241.373091" y="83.06447" style="fill: #e15759; stroke: #e15759"/>
     <use xlink:href="#md3b8eb58c2" x="296.444096" y="95.194975" style="fill: #e15759; stroke: #e15759"/>
     <use xlink:href="#md3b8eb58c2" x="351.5151" y="107.32548" style="fill: #e15759; stroke: #e15759"/>
     <use xlink:href="#md3b8eb58c2" x="406.586105" y="119.455985" style="fill: #e15759; stroke: #e15759"/>
     <use xlink:href="#md3b8eb58c2" x="461.65711" y="131.58649" style="fill: #e15759; stroke: #e15759"/>
     <use xlink:href="#md3b8eb58c2" x="516.728114" y="143.716995" style="fill: #e15759; stroke: #e15759"/>
     <use xlink:href="#md3b8eb58c2" x="571.799119" y="155.8475" style="fill: #e15759; stroke: #e15759"/>
    </g>
   </g>
   <g id="patch_3">
    <path d="M 51.378125 275.9395 
L 51.378125 35.7555 
" style="fill: none; stroke: #000000; stroke-width: 0.8; stroke-linejoin: miter; stroke-linecap: square"/>
   </g>
   <g id="patch_4">
    <path d="M 596.581071 275.9395 
L 596.581071 35.7555 
" style="fill: none; stroke: #000000; stroke-width: 0.8; stroke-linejoin: miter; stroke-linecap: square"/>
   </g>
   <g id="patch_5">
    <path d="M 51.378125 275.9395 
L 596.581071 275.9395 
" style="fill: none; stroke: #000000; stroke-width: 0.8; stroke-linejoin: miter; stroke-linecap: square"/>
   </g>
   <g id="patch_6">
    <path d="M 51.378125 35.7555 
L 596.581071 35.7555 
" style="fill: none; stroke: #000000; stroke-width: 0.8; stroke-linejoin: miter; stroke-linecap: square"/>
   </g>
   <g id="text_14">
    <!-- Gradient shrinks by activation derivative each layer -->
    <g transform="translate(168.234598 16.318125) scale(0.12 -0.12)">
     <defs>
      <path id="DejaVuSans-47" d="M 3809 666 
L 3809 1919 
L 2778 1919 
L 2778 2438 
L 4434 2438 
L 4434 434 
Q 4069 175 3628 42 
Q 3188 -91 2688 -91 
Q 1594 -91 976 548 
Q 359 1188 359 2328 
Q 359 3472 976 4111 
Q 1594 4750 2688 4750 
Q 3144 4750 3555 4637 
Q 3966 4525 4313 4306 
L 4313 3634 
Q 3963 3931 3569 4081 
Q 3175 4231 2741 4231 
Q 1884 4231 1454 3753 
Q 1025 3275 1025 2328 
Q 1025 1384 1454 906 
Q 1884 428 2741 428 
Q 3075 428 3337 486 
Q 3600 544 3809 666 
z
" transform="scale(0.015625)"/>
      <path id="DejaVuSans-68" d="M 3513 2113 
L 3513 0 
L 2938 0 
L 2938 2094 
Q 2938 2591 2744 2837 
Q 2550 3084 2163 3084 
Q 1697 3084 1428 2787 
Q 1159 2491 1159 1978 
L 1159 0 
L 581 0 
L 581 4863 
L 1159 4863 
L 1159 2956 
Q 1366 3272 1645 3428 
Q 1925 3584 2291 3584 
Q 2894 3584 3203 3211 
Q 3513 2838 3513 2113 
z
" transform="scale(0.015625)"/>
      <path id="DejaVuSans-6b" d="M 581 4863 
L 1159 4863 
L 1159 1991 
L 2875 3500 
L 3609 3500 
L 1753 1863 
L 3688 0 
L 2938 0 
L 1159 1709 
L 1159 0 
L 581 0 
L 581 4863 
z
" transform="scale(0.015625)"/>
      <path id="DejaVuSans-62" d="M 3116 1747 
Q 3116 2381 2855 2742 
Q 2594 3103 2138 3103 
Q 1681 3103 1420 2742 
Q 1159 2381 1159 1747 
Q 1159 1113 1420 752 
Q 1681 391 2138 391 
Q 2594 391 2855 752 
Q 3116 1113 3116 1747 
z
M 1159 2969 
Q 1341 3281 1617 3432 
Q 1894 3584 2278 3584 
Q 2916 3584 3314 3078 
Q 3713 2572 3713 1747 
Q 3713 922 3314 415 
Q 2916 -91 2278 -91 
Q 1894 -91 1617 61 
Q 1341 213 1159 525 
L 1159 0 
L 581 0 
L 581 4863 
L 1159 4863 
L 1159 2969 
z
" transform="scale(0.015625)"/>
      <path id="DejaVuSans-76" d="M 191 3500 
L 800 3500 
L 1894 563 
L 2988 3500 
L 3597 3500 
L 2284 0 
L 1503 0 
L 191 3500 
z
" transform="scale(0.015625)"/>
     </defs>
     <use xlink:href="#DejaVuSans-47"/>
     <use xlink:href="#DejaVuSans-72" transform="translate(77.490234 0)"/>
     <use xlink:href="#DejaVuSans-61" transform="translate(118.603516 0)"/>
     <use xlink:href="#DejaVuSans-64" transform="translate(179.882812 0)"/>
     <use xlink:href="#DejaVuSans-69" transform="translate(243.359375 0)"/>
     <use xlink:href="#DejaVuSans-65" transform="translate(271.142578 0)"/>
     <use xlink:href="#DejaVuSans-6e" transform="translate(332.666016 0)"/>
     <use xlink:href="#DejaVuSans-74" transform="translate(396.044922 0)"/>
     <use xlink:href="#DejaVuSans-20" transform="translate(435.253906 0)"/>
     <use xlink:href="#DejaVuSans-73" transform="translate(467.041016 0)"/>
     <use xlink:href="#DejaVuSans-68" transform="translate(519.140625 0)"/>
     <use xlink:href="#DejaVuSans-72" transform="translate(582.519531 0)"/>
     <use xlink:href="#DejaVuSans-69" transform="translate(623.632812 0)"/>
     <use xlink:href="#DejaVuSans-6e" transform="translate(651.416016 0)"/>
     <use xlink:href="#DejaVuSans-6b" transform="translate(714.794922 0)"/>
     <use xlink:href="#DejaVuSans-73" transform="translate(772.705078 0)"/>
     <use xlink:href="#DejaVuSans-20" transform="translate(824.804688 0)"/>
     <use xlink:href="#DejaVuSans-62" transform="translate(856.591797 0)"/>
     <use xlink:href="#DejaVuSans-79" transform="translate(920.068359 0)"/>
     <use xlink:href="#DejaVuSans-20" transform="translate(979.248047 0)"/>
     <use xlink:href="#DejaVuSans-61" transform="translate(1011.035156 0)"/>
     <use xlink:href="#DejaVuSans-63" transform="translate(1072.314453 0)"/>
     <use xlink:href="#DejaVuSans-74" transform="translate(1127.294922 0)"/>
     <use xlink:href="#DejaVuSans-69" transform="translate(1166.503906 0)"/>
     <use xlink:href="#DejaVuSans-76" transform="translate(1194.287109 0)"/>
     <use xlink:href="#DejaVuSans-61" transform="translate(1253.466797 0)"/>
     <use xlink:href="#DejaVuSans-74" transform="translate(1314.746094 0)"/>
     <use xlink:href="#DejaVuSans-69" transform="translate(1353.955078 0)"/>
     <use xlink:href="#DejaVuSans-6f" transform="translate(1381.738281 0)"/>
     <use xlink:href="#DejaVuSans-6e" transform="translate(1442.919922 0)"/>
     <use xlink:href="#DejaVuSans-20" transform="translate(1506.298828 0)"/>
     <use xlink:href="#DejaVuSans-64" transform="translate(1538.085938 0)"/>
     <use xlink:href="#DejaVuSans-65" transform="translate(1601.5625 0)"/>
     <use xlink:href="#DejaVuSans-72" transform="translate(1663.085938 0)"/>
     <use xlink:href="#DejaVuSans-69" transform="translate(1704.199219 0)"/>
     <use xlink:href="#DejaVuSans-76" transform="translate(1731.982422 0)"/>
     <use xlink:href="#DejaVuSans-61" transform="translate(1791.162109 0)"/>
     <use xlink:href="#DejaVuSans-74" transform="translate(1852.441406 0)"/>
     <use xlink:href="#DejaVuSans-69" transform="translate(1891.650391 0)"/>
     <use xlink:href="#DejaVuSans-76" transform="translate(1919.433594 0)"/>
     <use xlink:href="#DejaVuSans-65" transform="translate(1978.613281 0)"/>
     <use xlink:href="#DejaVuSans-20" transform="translate(2040.136719 0)"/>
     <use xlink:href="#DejaVuSans-65" transform="translate(2071.923828 0)"/>
     <use xlink:href="#DejaVuSans-61" transform="translate(2133.447266 0)"/>
     <use xlink:href="#DejaVuSans-63" transform="translate(2194.726562 0)"/>
     <use xlink:href="#DejaVuSans-68" transform="translate(2249.707031 0)"/>
     <use xlink:href="#DejaVuSans-20" transform="translate(2313.085938 0)"/>
     <use xlink:href="#DejaVuSans-6c" transform="translate(2344.873047 0)"/>
     <use xlink:href="#DejaVuSans-61" transform="translate(2372.65625 0)"/>
     <use xlink:href="#DejaVuSans-79" transform="translate(2433.935547 0)"/>
     <use xlink:href="#DejaVuSans-65" transform="translate(2493.115234 0)"/>
     <use xlink:href="#DejaVuSans-72" transform="translate(2554.638672 0)"/>
    </g>
    <!-- sigmoid in deep nets → vanishing -->
    <g transform="translate(223.476786 29.7555) scale(0.12 -0.12)">
     <defs>
      <path id="DejaVuSans-2192" d="M 5050 2147 
L 5050 1866 
L 3822 638 
L 3447 1013 
L 4175 1741 
L 366 1741 
L 366 2272 
L 4175 2272 
L 3447 3000 
L 3822 3375 
L 5050 2147 
z
" transform="scale(0.015625)"/>
     </defs>
     <use xlink:href="#DejaVuSans-73"/>
     <use xlink:href="#DejaVuSans-69" transform="translate(52.099609 0)"/>
     <use xlink:href="#DejaVuSans-67" transform="translate(79.882812 0)"/>
     <use xlink:href="#DejaVuSans-6d" transform="translate(143.359375 0)"/>
     <use xlink:href="#DejaVuSans-6f" transform="translate(240.771484 0)"/>
     <use xlink:href="#DejaVuSans-69" transform="translate(301.953125 0)"/>
     <use xlink:href="#DejaVuSans-64" transform="translate(329.736328 0)"/>
     <use xlink:href="#DejaVuSans-20" transform="translate(393.212891 0)"/>
     <use xlink:href="#DejaVuSans-69" transform="translate(425 0)"/>
     <use xlink:href="#DejaVuSans-6e" transform="translate(452.783203 0)"/>
     <use xlink:href="#DejaVuSans-20" transform="translate(516.162109 0)"/>
     <use xlink:href="#DejaVuSans-64" transform="translate(547.949219 0)"/>
     <use xlink:href="#DejaVuSans-65" transform="translate(611.425781 0)"/>
     <use xlink:href="#DejaVuSans-65" transform="translate(672.949219 0)"/>
     <use xlink:href="#DejaVuSans-70" transform="translate(734.472656 0)"/>
     <use xlink:href="#DejaVuSans-20" transform="translate(797.949219 0)"/>
     <use xlink:href="#DejaVuSans-6e" transform="translate(829.736328 0)"/>
     <use xlink:href="#DejaVuSans-65" transform="translate(893.115234 0)"/>
     <use xlink:href="#DejaVuSans-74" transform="translate(954.638672 0)"/>
     <use xlink:href="#DejaVuSans-73" transform="translate(993.847656 0)"/>
     <use xlink:href="#DejaVuSans-20" transform="translate(1045.947266 0)"/>
     <use xlink:href="#DejaVuSans-2192" transform="translate(1077.734375 0)"/>
     <use xlink:href="#DejaVuSans-20" transform="translate(1161.523438 0)"/>
     <use xlink:href="#DejaVuSans-76" transform="translate(1193.310547 0)"/>
     <use xlink:href="#DejaVuSans-61" transform="translate(1252.490234 0)"/>
     <use xlink:href="#DejaVuSans-6e" transform="translate(1313.769531 0)"/>
     <use xlink:href="#DejaVuSans-69" transform="translate(1377.148438 0)"/>
     <use xlink:href="#DejaVuSans-73" transform="translate(1404.931641 0)"/>
     <use xlink:href="#DejaVuSans-68" transform="translate(1457.03125 0)"/>
     <use xlink:href="#DejaVuSans-69" transform="translate(1520.410156 0)"/>
     <use xlink:href="#DejaVuSans-6e" transform="translate(1548.193359 0)"/>
     <use xlink:href="#DejaVuSans-67" transform="translate(1611.572266 0)"/>
    </g>
   </g>
   <g id="legend_1">
    <g id="patch_7">
     <path d="M 58.378125 270.9395 
L 129.7 270.9395 
Q 131.7 270.9395 131.7 268.9395 
L 131.7 225.905125 
Q 131.7 223.905125 129.7 223.905125 
L 58.378125 223.905125 
Q 56.378125 223.905125 56.378125 225.905125 
L 56.378125 268.9395 
Q 56.378125 270.9395 58.378125 270.9395 
z
" style="fill: #ffffff; opacity: 0.8; stroke: #cccccc; stroke-linejoin: miter"/>
    </g>
    <g id="line2d_73">
     <path d="M 60.378125 232.003562 
L 70.378125 232.003562 
L 80.378125 232.003562 
" style="fill: none; stroke: #7aa6c2; stroke-width: 2; stroke-linecap: square"/>
     <g>
      <use xlink:href="#mf87fdbd1d4" x="70.378125" y="232.003562" style="fill: #7aa6c2; stroke: #7aa6c2"/>
     </g>
    </g>
    <g id="text_15">
     <!-- sigmoid -->
     <g transform="translate(88.378125 235.503562) scale(0.1 -0.1)">
      <use xlink:href="#DejaVuSans-73"/>
      <use xlink:href="#DejaVuSans-69" transform="translate(52.099609 0)"/>
      <use xlink:href="#DejaVuSans-67" transform="translate(79.882812 0)"/>
      <use xlink:href="#DejaVuSans-6d" transform="translate(143.359375 0)"/>
      <use xlink:href="#DejaVuSans-6f" transform="translate(240.771484 0)"/>
      <use xlink:href="#DejaVuSans-69" transform="translate(301.953125 0)"/>
      <use xlink:href="#DejaVuSans-64" transform="translate(329.736328 0)"/>
     </g>
    </g>
    <g id="line2d_74">
     <path d="M 60.378125 246.681687 
L 70.378125 246.681687 
L 80.378125 246.681687 
" style="fill: none; stroke: #59a14f; stroke-width: 2; stroke-linecap: square"/>
     <g>
      <use xlink:href="#m7d6f2e4591" x="70.378125" y="246.681687" style="fill: #59a14f; stroke: #59a14f"/>
     </g>
    </g>
    <g id="text_16">
     <!-- tanh -->
     <g transform="translate(88.378125 250.181687) scale(0.1 -0.1)">
      <use xlink:href="#DejaVuSans-74"/>
      <use xlink:href="#DejaVuSans-61" transform="translate(39.208984 0)"/>
      <use xlink:href="#DejaVuSans-6e" transform="translate(100.488281 0)"/>
      <use xlink:href="#DejaVuSans-68" transform="translate(163.867188 0)"/>
     </g>
    </g>
    <g id="line2d_75">
     <path d="M 60.378125 261.359812 
L 70.378125 261.359812 
L 80.378125 261.359812 
" style="fill: none; stroke: #e15759; stroke-width: 2; stroke-linecap: square"/>
     <g>
      <use xlink:href="#md3b8eb58c2" x="70.378125" y="261.359812" style="fill: #e15759; stroke: #e15759"/>
     </g>
    </g>
    <g id="text_17">
     <!-- relu -->
     <g transform="translate(88.378125 264.859812) scale(0.1 -0.1)">
      <use xlink:href="#DejaVuSans-72"/>
      <use xlink:href="#DejaVuSans-65" transform="translate(38.863281 0)"/>
      <use xlink:href="#DejaVuSans-6c" transform="translate(100.386719 0)"/>
      <use xlink:href="#DejaVuSans-75" transform="translate(128.169922 0)"/>
     </g>
    </g>
   </g>
  </g>
 </g>
 <defs>
  <clipPath id="p269f9489b4">
   <rect x="51.378125" y="35.7555" width="545.202946" height="240.184"/>
  </clipPath>
 </defs>
</svg>
