<?xml version="1.0" encoding="utf-8" standalone="no"?>
<!DOCTYPE svg PUBLIC "-//W3C//DTD SVG 1.1//EN"
  "http://www.w3.org/Graphics/SVG/1.1/DTD/svg11.dtd">
<svg xmlns:xlink="http://www.w3.org/1999/xlink" width="713.7pt" height="280.8pt" viewBox="0 0 713.7 280.8" xmlns="http://www.w3.org/2000/svg" version="1.1">
 <metadata>
  <rdf:RDF xmlns:dc="http://purl.org/dc/elements/1.1/" xmlns:cc="http://creativecommons.org/ns#" xmlns:rdf="http://www.w3.org/1999/02/22-rdf-syntax-ns#">
   <cc:Work>
    <dc:type rdf:resource="http://purl.org/dc/dcmitype/StillImage"/>
    <dc:date>2026-05-26T13:03:40.156964</dc:date>
    <dc:format>image/svg+xml</dc:format>
    <dc:creator>
     <cc:Agent>
      <dc:title>Matplotlib v3.10.8, https://matplotlib.org/</dc:title>
     </cc:Agent>
    </dc:creator>
   </cc:Work>
  </rdf:RDF>
 </metadata>
 <defs>
  <style type="text/css">*{stroke-linejoin: round; stroke-linecap: butt}</style>
 </defs>
 <g id="figure_1">
  <g id="patch_1">
   <path d="M 0 280.8 
L 713.7 280.8 
L 713.7 0 
L 0 0 
z
" style="fill: #ffffff"/>
  </g>
  <g id="axes_1">
   <g id="patch_2">
    <path d="M 40.5 173.7 
L 107.1 173.7 
L 107.1 107.1 
L 40.5 107.1 
z
" clip-path="url(#p323d80aa04)" style="fill: #7aa6c2; opacity: 0.6; stroke: #000000; stroke-width: 1.2; stroke-linejoin: miter"/>
   </g>
   <g id="patch_3">
    <path d="M 173.7 173.7 
L 240.3 173.7 
L 240.3 107.1 
L 173.7 107.1 
z
" clip-path="url(#p323d80aa04)" style="fill: #7aa6c2; opacity: 0.6; stroke: #000000; stroke-width: 1.2; stroke-linejoin: miter"/>
   </g>
   <g id="patch_4">
    <path d="M 306.9 173.7 
L 373.5 173.7 
L 373.5 107.1 
L 306.9 107.1 
z
" clip-path="url(#p323d80aa04)" style="fill: #7aa6c2; opacity: 0.6; stroke: #000000; stroke-width: 1.2; stroke-linejoin: miter"/>
   </g>
   <g id="patch_5">
    <path d="M 440.1 173.7 
L 506.7 173.7 
L 506.7 107.1 
L 440.1 107.1 
z
" clip-path="url(#p323d80aa04)" style="fill: #7aa6c2; opacity: 0.6; stroke: #000000; stroke-width: 1.2; stroke-linejoin: miter"/>
   </g>
   <g id="patch_6">
    <path d="M 573.3 173.7 
L 639.9 173.7 
L 639.9 107.1 
L 573.3 107.1 
z
" clip-path="url(#p323d80aa04)" style="fill: #7aa6c2; opacity: 0.6; stroke: #000000; stroke-width: 1.2; stroke-linejoin: miter"/>
   </g>
   <g id="text_1">
    <!-- x -->
    <g transform="translate(70.840625 143.159375) scale(0.1 -0.1)">
     <defs>
      <path id="DejaVuSans-78" d="M 3513 3500 
L 2247 1797 
L 3578 0 
L 2900 0 
L 1881 1375 
L 863 0 
L 184 0 
L 1544 1831 
L 300 3500 
L 978 3500 
L 1906 2253 
L 2834 3500 
L 3513 3500 
z
" transform="scale(0.015625)"/>
     </defs>
     <use xlink:href="#DejaVuSans-78"/>
    </g>
   </g>
   <g id="text_2">
    <!-- h = sin(x) -->
    <g transform="translate(182.439844 143.159375) scale(0.1 -0.1)">
     <defs>
      <path id="DejaVuSans-68" d="M 3513 2113 
L 3513 0 
L 2938 0 
L 2938 2094 
Q 2938 2591 2744 2837 
Q 2550 3084 2163 3084 
Q 1697 3084 1428 2787 
Q 1159 2491 1159 1978 
L 1159 0 
L 581 0 
L 581 4863 
L 1159 4863 
L 1159 2956 
Q 1366 3272 1645 3428 
Q 1925 3584 2291 3584 
Q 2894 3584 3203 3211 
Q 3513 2838 3513 2113 
z
" transform="scale(0.015625)"/>
      <path id="DejaVuSans-20" transform="scale(0.015625)"/>
      <path id="DejaVuSans-3d" d="M 678 2906 
L 4684 2906 
L 4684 2381 
L 678 2381 
L 678 2906 
z
M 678 1631 
L 4684 1631 
L 4684 1100 
L 678 1100 
L 678 1631 
z
" transform="scale(0.015625)"/>
      <path id="DejaVuSans-73" d="M 2834 3397 
L 2834 2853 
Q 2591 2978 2328 3040 
Q 2066 3103 1784 3103 
Q 1356 3103 1142 2972 
Q 928 2841 928 2578 
Q 928 2378 1081 2264 
Q 1234 2150 1697 2047 
L 1894 2003 
Q 2506 1872 2764 1633 
Q 3022 1394 3022 966 
Q 3022 478 2636 193 
Q 2250 -91 1575 -91 
Q 1294 -91 989 -36 
Q 684 19 347 128 
L 347 722 
Q 666 556 975 473 
Q 1284 391 1588 391 
Q 1994 391 2212 530 
Q 2431 669 2431 922 
Q 2431 1156 2273 1281 
Q 2116 1406 1581 1522 
L 1381 1569 
Q 847 1681 609 1914 
Q 372 2147 372 2553 
Q 372 3047 722 3315 
Q 1072 3584 1716 3584 
Q 2034 3584 2315 3537 
Q 2597 3491 2834 3397 
z
" transform="scale(0.015625)"/>
      <path id="DejaVuSans-69" d="M 603 3500 
L 1178 3500 
L 1178 0 
L 603 0 
L 603 3500 
z
M 603 4863 
L 1178 4863 
L 1178 4134 
L 603 4134 
L 603 4863 
z
" transform="scale(0.015625)"/>
      <path id="DejaVuSans-6e" d="M 3513 2113 
L 3513 0 
L 2938 0 
L 2938 2094 
Q 2938 2591 2744 2837 
Q 2550 3084 2163 3084 
Q 1697 3084 1428 2787 
Q 1159 2491 1159 1978 
L 1159 0 
L 581 0 
L 581 3500 
L 1159 3500 
L 1159 2956 
Q 1366 3272 1645 3428 
Q 1925 3584 2291 3584 
Q 2894 3584 3203 3211 
Q 3513 2838 3513 2113 
z
" transform="scale(0.015625)"/>
      <path id="DejaVuSans-28" d="M 1984 4856 
Q 1566 4138 1362 3434 
Q 1159 2731 1159 2009 
Q 1159 1288 1364 580 
Q 1569 -128 1984 -844 
L 1484 -844 
Q 1016 -109 783 600 
Q 550 1309 550 2009 
Q 550 2706 781 3412 
Q 1013 4119 1484 4856 
L 1984 4856 
z
" transform="scale(0.015625)"/>
      <path id="DejaVuSans-29" d="M 513 4856 
L 1013 4856 
Q 1481 4119 1714 3412 
Q 1947 2706 1947 2009 
Q 1947 1309 1714 600 
Q 1481 -109 1013 -844 
L 513 -844 
Q 928 -128 1133 580 
Q 1338 1288 1338 2009 
Q 1338 2731 1133 3434 
Q 928 4138 513 4856 
z
" transform="scale(0.015625)"/>
     </defs>
     <use xlink:href="#DejaVuSans-68"/>
     <use xlink:href="#DejaVuSans-20" transform="translate(63.378906 0)"/>
     <use xlink:href="#DejaVuSans-3d" transform="translate(95.166016 0)"/>
     <use xlink:href="#DejaVuSans-20" transform="translate(178.955078 0)"/>
     <use xlink:href="#DejaVuSans-73" transform="translate(210.742188 0)"/>
     <use xlink:href="#DejaVuSans-69" transform="translate(262.841797 0)"/>
     <use xlink:href="#DejaVuSans-6e" transform="translate(290.625 0)"/>
     <use xlink:href="#DejaVuSans-28" transform="translate(354.003906 0)"/>
     <use xlink:href="#DejaVuSans-78" transform="translate(393.017578 0)"/>
     <use xlink:href="#DejaVuSans-29" transform="translate(452.197266 0)"/>
    </g>
   </g>
   <g id="text_3">
    <!-- g = h² -->
    <g transform="translate(324.484375 143.159375) scale(0.1 -0.1)">
     <defs>
      <path id="DejaVuSans-67" d="M 2906 1791 
Q 2906 2416 2648 2759 
Q 2391 3103 1925 3103 
Q 1463 3103 1205 2759 
Q 947 2416 947 1791 
Q 947 1169 1205 825 
Q 1463 481 1925 481 
Q 2391 481 2648 825 
Q 2906 1169 2906 1791 
z
M 3481 434 
Q 3481 -459 3084 -895 
Q 2688 -1331 1869 -1331 
Q 1566 -1331 1297 -1286 
Q 1028 -1241 775 -1147 
L 775 -588 
Q 1028 -725 1275 -790 
Q 1522 -856 1778 -856 
Q 2344 -856 2625 -561 
Q 2906 -266 2906 331 
L 2906 616 
Q 2728 306 2450 153 
Q 2172 0 1784 0 
Q 1141 0 747 490 
Q 353 981 353 1791 
Q 353 2603 747 3093 
Q 1141 3584 1784 3584 
Q 2172 3584 2450 3431 
Q 2728 3278 2906 2969 
L 2906 3500 
L 3481 3500 
L 3481 434 
z
" transform="scale(0.015625)"/>
      <path id="DejaVuSans-b2" d="M 838 2444 
L 2163 2444 
L 2163 2088 
L 294 2088 
L 294 2431 
Q 400 2528 597 2703 
Q 1672 3656 1672 3950 
Q 1672 4156 1509 4282 
Q 1347 4409 1081 4409 
Q 919 4409 728 4354 
Q 538 4300 313 4191 
L 313 4575 
Q 553 4663 761 4706 
Q 969 4750 1147 4750 
Q 1600 4750 1872 4544 
Q 2144 4338 2144 4000 
Q 2144 3566 1109 2678 
Q 934 2528 838 2444 
z
" transform="scale(0.015625)"/>
     </defs>
     <use xlink:href="#DejaVuSans-67"/>
     <use xlink:href="#DejaVuSans-20" transform="translate(63.476562 0)"/>
     <use xlink:href="#DejaVuSans-3d" transform="translate(95.263672 0)"/>
     <use xlink:href="#DejaVuSans-20" transform="translate(179.052734 0)"/>
     <use xlink:href="#DejaVuSans-68" transform="translate(210.839844 0)"/>
     <use xlink:href="#DejaVuSans-b2" transform="translate(274.21875 0)"/>
    </g>
   </g>
   <g id="text_4">
    <!-- f = exp(g) -->
    <g transform="translate(448.073438 143.159375) scale(0.1 -0.1)">
     <defs>
      <path id="DejaVuSans-66" d="M 2375 4863 
L 2375 4384 
L 1825 4384 
Q 1516 4384 1395 4259 
Q 1275 4134 1275 3809 
L 1275 3500 
L 2222 3500 
L 2222 3053 
L 1275 3053 
L 1275 0 
L 697 0 
L 697 3053 
L 147 3053 
L 147 3500 
L 697 3500 
L 697 3744 
Q 697 4328 969 4595 
Q 1241 4863 1831 4863 
L 2375 4863 
z
" transform="scale(0.015625)"/>
      <path id="DejaVuSans-65" d="M 3597 1894 
L 3597 1613 
L 953 1613 
Q 991 1019 1311 708 
Q 1631 397 2203 397 
Q 2534 397 2845 478 
Q 3156 559 3463 722 
L 3463 178 
Q 3153 47 2828 -22 
Q 2503 -91 2169 -91 
Q 1331 -91 842 396 
Q 353 884 353 1716 
Q 353 2575 817 3079 
Q 1281 3584 2069 3584 
Q 2775 3584 3186 3129 
Q 3597 2675 3597 1894 
z
M 3022 2063 
Q 3016 2534 2758 2815 
Q 2500 3097 2075 3097 
Q 1594 3097 1305 2825 
Q 1016 2553 972 2059 
L 3022 2063 
z
" transform="scale(0.015625)"/>
      <path id="DejaVuSans-70" d="M 1159 525 
L 1159 -1331 
L 581 -1331 
L 581 3500 
L 1159 3500 
L 1159 2969 
Q 1341 3281 1617 3432 
Q 1894 3584 2278 3584 
Q 2916 3584 3314 3078 
Q 3713 2572 3713 1747 
Q 3713 922 3314 415 
Q 2916 -91 2278 -91 
Q 1894 -91 1617 61 
Q 1341 213 1159 525 
z
M 3116 1747 
Q 3116 2381 2855 2742 
Q 2594 3103 2138 3103 
Q 1681 3103 1420 2742 
Q 1159 2381 1159 1747 
Q 1159 1113 1420 752 
Q 1681 391 2138 391 
Q 2594 391 2855 752 
Q 3116 1113 3116 1747 
z
" transform="scale(0.015625)"/>
     </defs>
     <use xlink:href="#DejaVuSans-66"/>
     <use xlink:href="#DejaVuSans-20" transform="translate(35.205078 0)"/>
     <use xlink:href="#DejaVuSans-3d" transform="translate(66.992188 0)"/>
     <use xlink:href="#DejaVuSans-20" transform="translate(150.78125 0)"/>
     <use xlink:href="#DejaVuSans-65" transform="translate(182.568359 0)"/>
     <use xlink:href="#DejaVuSans-78" transform="translate(242.341797 0)"/>
     <use xlink:href="#DejaVuSans-70" transform="translate(301.521484 0)"/>
     <use xlink:href="#DejaVuSans-28" transform="translate(364.998047 0)"/>
     <use xlink:href="#DejaVuSans-67" transform="translate(404.011719 0)"/>
     <use xlink:href="#DejaVuSans-29" transform="translate(467.488281 0)"/>
    </g>
   </g>
   <g id="text_5">
    <!-- L = log(f) + ... -->
    <g transform="translate(571.026563 143.159375) scale(0.1 -0.1)">
     <defs>
      <path id="DejaVuSans-4c" d="M 628 4666 
L 1259 4666 
L 1259 531 
L 3531 531 
L 3531 0 
L 628 0 
L 628 4666 
z
" transform="scale(0.015625)"/>
      <path id="DejaVuSans-6c" d="M 603 4863 
L 1178 4863 
L 1178 0 
L 603 0 
L 603 4863 
z
" transform="scale(0.015625)"/>
      <path id="DejaVuSans-6f" d="M 1959 3097 
Q 1497 3097 1228 2736 
Q 959 2375 959 1747 
Q 959 1119 1226 758 
Q 1494 397 1959 397 
Q 2419 397 2687 759 
Q 2956 1122 2956 1747 
Q 2956 2369 2687 2733 
Q 2419 3097 1959 3097 
z
M 1959 3584 
Q 2709 3584 3137 3096 
Q 3566 2609 3566 1747 
Q 3566 888 3137 398 
Q 2709 -91 1959 -91 
Q 1206 -91 779 398 
Q 353 888 353 1747 
Q 353 2609 779 3096 
Q 1206 3584 1959 3584 
z
" transform="scale(0.015625)"/>
      <path id="DejaVuSans-2b" d="M 2944 4013 
L 2944 2272 
L 4684 2272 
L 4684 1741 
L 2944 1741 
L 2944 0 
L 2419 0 
L 2419 1741 
L 678 1741 
L 678 2272 
L 2419 2272 
L 2419 4013 
L 2944 4013 
z
" transform="scale(0.015625)"/>
      <path id="DejaVuSans-2e" d="M 684 794 
L 1344 794 
L 1344 0 
L 684 0 
L 684 794 
z
" transform="scale(0.015625)"/>
     </defs>
     <use xlink:href="#DejaVuSans-4c"/>
     <use xlink:href="#DejaVuSans-20" transform="translate(55.712891 0)"/>
     <use xlink:href="#DejaVuSans-3d" transform="translate(87.5 0)"/>
     <use xlink:href="#DejaVuSans-20" transform="translate(171.289062 0)"/>
     <use xlink:href="#DejaVuSans-6c" transform="translate(203.076172 0)"/>
     <use xlink:href="#DejaVuSans-6f" transform="translate(230.859375 0)"/>
     <use xlink:href="#DejaVuSans-67" transform="translate(292.041016 0)"/>
     <use xlink:href="#DejaVuSans-28" transform="translate(355.517578 0)"/>
     <use xlink:href="#DejaVuSans-66" transform="translate(394.53125 0)"/>
     <use xlink:href="#DejaVuSans-29" transform="translate(429.736328 0)"/>
     <use xlink:href="#DejaVuSans-20" transform="translate(468.75 0)"/>
     <use xlink:href="#DejaVuSans-2b" transform="translate(500.537109 0)"/>
     <use xlink:href="#DejaVuSans-20" transform="translate(584.326172 0)"/>
     <use xlink:href="#DejaVuSans-2e" transform="translate(616.113281 0)"/>
     <use xlink:href="#DejaVuSans-2e" transform="translate(647.900391 0)"/>
     <use xlink:href="#DejaVuSans-2e" transform="translate(679.6875 0)"/>
    </g>
   </g>
   <g id="patch_7">
    <path d="M 112.431171 140.4 
Q 140.401579 140.4 166.694936 140.4 
" style="fill: none; stroke: #7aa6c2; stroke-width: 1.5; stroke-linecap: round"/>
    <path d="M 162.694936 138.4 
L 166.694936 140.4 
L 162.694936 142.4 
" style="fill: none; stroke: #7aa6c2; stroke-width: 1.5; stroke-linecap: round"/>
   </g>
   <g id="patch_8">
    <path d="M 245.631171 140.4 
Q 273.601579 140.4 299.894936 140.4 
" style="fill: none; stroke: #7aa6c2; stroke-width: 1.5; stroke-linecap: round"/>
    <path d="M 295.894936 138.4 
L 299.894936 140.4 
L 295.894936 142.4 
" style="fill: none; stroke: #7aa6c2; stroke-width: 1.5; stroke-linecap: round"/>
   </g>
   <g id="patch_9">
    <path d="M 378.831171 140.4 
Q 406.801579 140.4 433.094936 140.4 
" style="fill: none; stroke: #7aa6c2; stroke-width: 1.5; stroke-linecap: round"/>
    <path d="M 429.094936 138.4 
L 433.094936 140.4 
L 429.094936 142.4 
" style="fill: none; stroke: #7aa6c2; stroke-width: 1.5; stroke-linecap: round"/>
   </g>
   <g id="patch_10">
    <path d="M 512.031171 140.4 
Q 540.001579 140.4 566.294936 140.4 
" style="fill: none; stroke: #7aa6c2; stroke-width: 1.5; stroke-linecap: round"/>
    <path d="M 562.294936 138.4 
L 566.294936 140.4 
L 562.294936 142.4 
" style="fill: none; stroke: #7aa6c2; stroke-width: 1.5; stroke-linecap: round"/>
   </g>
   <g id="text_6">
    <!-- ∂L/∂f = 1/f -->
    <g style="fill: #e15759" transform="translate(517.144922 226.98) scale(0.09 -0.09)">
     <defs>
      <path id="DejaVuSans-2202" d="M 1366 -91 
Q 925 -91 638 175 
Q 297 491 297 1063 
Q 297 1656 597 2119 
Q 906 2594 1463 2594 
Q 1828 2594 2116 2366 
Q 2284 2231 2400 2006 
Q 2441 2259 2441 2547 
Q 2441 2969 2341 3213 
Q 2119 3753 1531 3753 
Q 1309 3753 966 3616 
L 966 4141 
Q 1328 4238 1653 4238 
Q 2491 4238 2847 3469 
Q 3013 3106 3013 2566 
Q 3013 2213 2934 1803 
Q 2738 778 2228 291 
Q 1828 -91 1366 -91 
z
M 831 969 
Q 831 656 969 488 
Q 1116 309 1341 309 
Q 1541 309 1700 450 
Q 1925 644 2091 959 
Q 2228 1219 2297 1497 
Q 2019 2169 1538 2169 
Q 1125 2169 944 1625 
Q 831 1288 831 969 
z
" transform="scale(0.015625)"/>
      <path id="DejaVuSans-2f" d="M 1625 4666 
L 2156 4666 
L 531 -594 
L 0 -594 
L 1625 4666 
z
" transform="scale(0.015625)"/>
      <path id="DejaVuSans-31" d="M 794 531 
L 1825 531 
L 1825 4091 
L 703 3866 
L 703 4441 
L 1819 4666 
L 2450 4666 
L 2450 531 
L 3481 531 
L 3481 0 
L 794 0 
L 794 531 
z
" transform="scale(0.015625)"/>
     </defs>
     <use xlink:href="#DejaVuSans-2202"/>
     <use xlink:href="#DejaVuSans-4c" transform="translate(51.708984 0)"/>
     <use xlink:href="#DejaVuSans-2f" transform="translate(107.421875 0)"/>
     <use xlink:href="#DejaVuSans-2202" transform="translate(141.113281 0)"/>
     <use xlink:href="#DejaVuSans-66" transform="translate(192.822266 0)"/>
     <use xlink:href="#DejaVuSans-20" transform="translate(228.027344 0)"/>
     <use xlink:href="#DejaVuSans-3d" transform="translate(259.814453 0)"/>
     <use xlink:href="#DejaVuSans-20" transform="translate(343.603516 0)"/>
     <use xlink:href="#DejaVuSans-31" transform="translate(375.390625 0)"/>
     <use xlink:href="#DejaVuSans-2f" transform="translate(439.013672 0)"/>
     <use xlink:href="#DejaVuSans-66" transform="translate(472.705078 0)"/>
    </g>
   </g>
   <g id="patch_11">
    <path d="M 567.968829 207 
Q 539.998421 207 513.705064 207 
" style="fill: none; stroke: #e15759; stroke-width: 1.5; stroke-linecap: round"/>
    <path d="M 517.705064 209 
L 513.705064 207 
L 517.705064 205 
" style="fill: none; stroke: #e15759; stroke-width: 1.5; stroke-linecap: round"/>
   </g>
   <g id="text_7">
    <!-- ∂f/∂g = exp(g) -->
    <g style="fill: #e15759" transform="translate(374.980078 226.98) scale(0.09 -0.09)">
     <use xlink:href="#DejaVuSans-2202"/>
     <use xlink:href="#DejaVuSans-66" transform="translate(51.708984 0)"/>
     <use xlink:href="#DejaVuSans-2f" transform="translate(86.914062 0)"/>
     <use xlink:href="#DejaVuSans-2202" transform="translate(120.605469 0)"/>
     <use xlink:href="#DejaVuSans-67" transform="translate(172.314453 0)"/>
     <use xlink:href="#DejaVuSans-20" transform="translate(235.791016 0)"/>
     <use xlink:href="#DejaVuSans-3d" transform="translate(267.578125 0)"/>
     <use xlink:href="#DejaVuSans-20" transform="translate(351.367188 0)"/>
     <use xlink:href="#DejaVuSans-65" transform="translate(383.154297 0)"/>
     <use xlink:href="#DejaVuSans-78" transform="translate(442.927734 0)"/>
     <use xlink:href="#DejaVuSans-70" transform="translate(502.107422 0)"/>
     <use xlink:href="#DejaVuSans-28" transform="translate(565.583984 0)"/>
     <use xlink:href="#DejaVuSans-67" transform="translate(604.597656 0)"/>
     <use xlink:href="#DejaVuSans-29" transform="translate(668.074219 0)"/>
    </g>
   </g>
   <g id="patch_12">
    <path d="M 434.768829 207 
Q 406.798421 207 380.505064 207 
" style="fill: none; stroke: #e15759; stroke-width: 1.5; stroke-linecap: round"/>
    <path d="M 384.505064 209 
L 380.505064 207 
L 384.505064 205 
" style="fill: none; stroke: #e15759; stroke-width: 1.5; stroke-linecap: round"/>
   </g>
   <g id="text_8">
    <!-- ∂g/∂h = 2h -->
    <g style="fill: #e15759" transform="translate(249.375938 226.98) scale(0.09 -0.09)">
     <defs>
      <path id="DejaVuSans-32" d="M 1228 531 
L 3431 531 
L 3431 0 
L 469 0 
L 469 531 
Q 828 903 1448 1529 
Q 2069 2156 2228 2338 
Q 2531 2678 2651 2914 
Q 2772 3150 2772 3378 
Q 2772 3750 2511 3984 
Q 2250 4219 1831 4219 
Q 1534 4219 1204 4116 
Q 875 4013 500 3803 
L 500 4441 
Q 881 4594 1212 4672 
Q 1544 4750 1819 4750 
Q 2544 4750 2975 4387 
Q 3406 4025 3406 3419 
Q 3406 3131 3298 2873 
Q 3191 2616 2906 2266 
Q 2828 2175 2409 1742 
Q 1991 1309 1228 531 
z
" transform="scale(0.015625)"/>
     </defs>
     <use xlink:href="#DejaVuSans-2202"/>
     <use xlink:href="#DejaVuSans-67" transform="translate(51.708984 0)"/>
     <use xlink:href="#DejaVuSans-2f" transform="translate(115.185547 0)"/>
     <use xlink:href="#DejaVuSans-2202" transform="translate(148.876953 0)"/>
     <use xlink:href="#DejaVuSans-68" transform="translate(200.585938 0)"/>
     <use xlink:href="#DejaVuSans-20" transform="translate(263.964844 0)"/>
     <use xlink:href="#DejaVuSans-3d" transform="translate(295.751953 0)"/>
     <use xlink:href="#DejaVuSans-20" transform="translate(379.541016 0)"/>
     <use xlink:href="#DejaVuSans-32" transform="translate(411.328125 0)"/>
     <use xlink:href="#DejaVuSans-68" transform="translate(474.951172 0)"/>
    </g>
   </g>
   <g id="patch_13">
    <path d="M 301.568829 207 
Q 273.598421 207 247.305064 207 
" style="fill: none; stroke: #e15759; stroke-width: 1.5; stroke-linecap: round"/>
    <path d="M 251.305064 209 
L 247.305064 207 
L 251.305064 205 
" style="fill: none; stroke: #e15759; stroke-width: 1.5; stroke-linecap: round"/>
   </g>
   <g id="text_9">
    <!-- ∂h/∂x = cos(x) -->
    <g style="fill: #e15759" transform="translate(108.3375 226.98) scale(0.09 -0.09)">
     <defs>
      <path id="DejaVuSans-63" d="M 3122 3366 
L 3122 2828 
Q 2878 2963 2633 3030 
Q 2388 3097 2138 3097 
Q 1578 3097 1268 2742 
Q 959 2388 959 1747 
Q 959 1106 1268 751 
Q 1578 397 2138 397 
Q 2388 397 2633 464 
Q 2878 531 3122 666 
L 3122 134 
Q 2881 22 2623 -34 
Q 2366 -91 2075 -91 
Q 1284 -91 818 406 
Q 353 903 353 1747 
Q 353 2603 823 3093 
Q 1294 3584 2113 3584 
Q 2378 3584 2631 3529 
Q 2884 3475 3122 3366 
z
" transform="scale(0.015625)"/>
     </defs>
     <use xlink:href="#DejaVuSans-2202"/>
     <use xlink:href="#DejaVuSans-68" transform="translate(51.708984 0)"/>
     <use xlink:href="#DejaVuSans-2f" transform="translate(115.087891 0)"/>
     <use xlink:href="#DejaVuSans-2202" transform="translate(148.779297 0)"/>
     <use xlink:href="#DejaVuSans-78" transform="translate(200.488281 0)"/>
     <use xlink:href="#DejaVuSans-20" transform="translate(259.667969 0)"/>
     <use xlink:href="#DejaVuSans-3d" transform="translate(291.455078 0)"/>
     <use xlink:href="#DejaVuSans-20" transform="translate(375.244141 0)"/>
     <use xlink:href="#DejaVuSans-63" transform="translate(407.03125 0)"/>
     <use xlink:href="#DejaVuSans-6f" transform="translate(462.011719 0)"/>
     <use xlink:href="#DejaVuSans-73" transform="translate(523.193359 0)"/>
     <use xlink:href="#DejaVuSans-28" transform="translate(575.292969 0)"/>
     <use xlink:href="#DejaVuSans-78" transform="translate(614.306641 0)"/>
     <use xlink:href="#DejaVuSans-29" transform="translate(673.486328 0)"/>
    </g>
   </g>
   <g id="patch_14">
    <path d="M 168.368829 207 
Q 140.398421 207 114.105064 207 
" style="fill: none; stroke: #e15759; stroke-width: 1.5; stroke-linecap: round"/>
    <path d="M 118.105064 209 
L 114.105064 207 
L 118.105064 205 
" style="fill: none; stroke: #e15759; stroke-width: 1.5; stroke-linecap: round"/>
   </g>
   <g id="text_10">
    <!-- Chain rule:  ∂L/∂x = (∂L/∂f) × (∂f/∂g) × (∂g/∂h) × (∂h/∂x) -->
    <g transform="translate(159.035625 40.5) scale(0.12 -0.12)">
     <defs>
      <path id="DejaVuSans-Bold-43" d="M 4288 256 
Q 3956 84 3597 -3 
Q 3238 -91 2847 -91 
Q 1681 -91 1000 561 
Q 319 1213 319 2328 
Q 319 3447 1000 4098 
Q 1681 4750 2847 4750 
Q 3238 4750 3597 4662 
Q 3956 4575 4288 4403 
L 4288 3438 
Q 3953 3666 3628 3772 
Q 3303 3878 2944 3878 
Q 2300 3878 1931 3465 
Q 1563 3053 1563 2328 
Q 1563 1606 1931 1193 
Q 2300 781 2944 781 
Q 3303 781 3628 887 
Q 3953 994 4288 1222 
L 4288 256 
z
" transform="scale(0.015625)"/>
      <path id="DejaVuSans-Bold-68" d="M 4056 2131 
L 4056 0 
L 2931 0 
L 2931 347 
L 2931 1625 
Q 2931 2084 2911 2256 
Q 2891 2428 2841 2509 
Q 2775 2619 2662 2680 
Q 2550 2741 2406 2741 
Q 2056 2741 1856 2470 
Q 1656 2200 1656 1722 
L 1656 0 
L 538 0 
L 538 4863 
L 1656 4863 
L 1656 2988 
Q 1909 3294 2193 3439 
Q 2478 3584 2822 3584 
Q 3428 3584 3742 3212 
Q 4056 2841 4056 2131 
z
" transform="scale(0.015625)"/>
      <path id="DejaVuSans-Bold-61" d="M 2106 1575 
Q 1756 1575 1579 1456 
Q 1403 1338 1403 1106 
Q 1403 894 1545 773 
Q 1688 653 1941 653 
Q 2256 653 2472 879 
Q 2688 1106 2688 1447 
L 2688 1575 
L 2106 1575 
z
M 3816 1997 
L 3816 0 
L 2688 0 
L 2688 519 
Q 2463 200 2181 54 
Q 1900 -91 1497 -91 
Q 953 -91 614 226 
Q 275 544 275 1050 
Q 275 1666 698 1953 
Q 1122 2241 2028 2241 
L 2688 2241 
L 2688 2328 
Q 2688 2594 2478 2717 
Q 2269 2841 1825 2841 
Q 1466 2841 1156 2769 
Q 847 2697 581 2553 
L 581 3406 
Q 941 3494 1303 3539 
Q 1666 3584 2028 3584 
Q 2975 3584 3395 3211 
Q 3816 2838 3816 1997 
z
" transform="scale(0.015625)"/>
      <path id="DejaVuSans-Bold-69" d="M 538 3500 
L 1656 3500 
L 1656 0 
L 538 0 
L 538 3500 
z
M 538 4863 
L 1656 4863 
L 1656 3950 
L 538 3950 
L 538 4863 
z
" transform="scale(0.015625)"/>
      <path id="DejaVuSans-Bold-6e" d="M 4056 2131 
L 4056 0 
L 2931 0 
L 2931 347 
L 2931 1631 
Q 2931 2084 2911 2256 
Q 2891 2428 2841 2509 
Q 2775 2619 2662 2680 
Q 2550 2741 2406 2741 
Q 2056 2741 1856 2470 
Q 1656 2200 1656 1722 
L 1656 0 
L 538 0 
L 538 3500 
L 1656 3500 
L 1656 2988 
Q 1909 3294 2193 3439 
Q 2478 3584 2822 3584 
Q 3428 3584 3742 3212 
Q 4056 2841 4056 2131 
z
" transform="scale(0.015625)"/>
      <path id="DejaVuSans-Bold-20" transform="scale(0.015625)"/>
      <path id="DejaVuSans-Bold-72" d="M 3138 2547 
Q 2991 2616 2845 2648 
Q 2700 2681 2553 2681 
Q 2122 2681 1889 2404 
Q 1656 2128 1656 1613 
L 1656 0 
L 538 0 
L 538 3500 
L 1656 3500 
L 1656 2925 
Q 1872 3269 2151 3426 
Q 2431 3584 2822 3584 
Q 2878 3584 2943 3579 
Q 3009 3575 3134 3559 
L 3138 2547 
z
" transform="scale(0.015625)"/>
      <path id="DejaVuSans-Bold-75" d="M 500 1363 
L 500 3500 
L 1625 3500 
L 1625 3150 
Q 1625 2866 1622 2436 
Q 1619 2006 1619 1863 
Q 1619 1441 1641 1255 
Q 1663 1069 1716 984 
Q 1784 875 1895 815 
Q 2006 756 2150 756 
Q 2500 756 2700 1025 
Q 2900 1294 2900 1772 
L 2900 3500 
L 4019 3500 
L 4019 0 
L 2900 0 
L 2900 506 
Q 2647 200 2364 54 
Q 2081 -91 1741 -91 
Q 1134 -91 817 281 
Q 500 653 500 1363 
z
" transform="scale(0.015625)"/>
      <path id="DejaVuSans-Bold-6c" d="M 538 4863 
L 1656 4863 
L 1656 0 
L 538 0 
L 538 4863 
z
" transform="scale(0.015625)"/>
      <path id="DejaVuSans-Bold-65" d="M 4031 1759 
L 4031 1441 
L 1416 1441 
Q 1456 1047 1700 850 
Q 1944 653 2381 653 
Q 2734 653 3104 758 
Q 3475 863 3866 1075 
L 3866 213 
Q 3469 63 3072 -14 
Q 2675 -91 2278 -91 
Q 1328 -91 801 392 
Q 275 875 275 1747 
Q 275 2603 792 3093 
Q 1309 3584 2216 3584 
Q 3041 3584 3536 3087 
Q 4031 2591 4031 1759 
z
M 2881 2131 
Q 2881 2450 2695 2645 
Q 2509 2841 2209 2841 
Q 1884 2841 1681 2658 
Q 1478 2475 1428 2131 
L 2881 2131 
z
" transform="scale(0.015625)"/>
      <path id="DejaVuSans-Bold-3a" d="M 716 3500 
L 1844 3500 
L 1844 2291 
L 716 2291 
L 716 3500 
z
M 716 1209 
L 1844 1209 
L 1844 0 
L 716 0 
L 716 1209 
z
" transform="scale(0.015625)"/>
      <path id="DejaVuSans-Bold-2202" d="M 950 3516 
L 950 4203 
Q 1406 4316 1738 4316 
Q 2684 4316 3106 3500 
Q 3294 3138 3294 2566 
Q 3294 2213 3206 1803 
Q 2988 781 2397 291 
Q 1938 -91 1428 -91 
Q 897 -91 572 194 
Q 184 538 184 1113 
Q 184 1750 531 2250 
Q 869 2741 1531 2741 
Q 1875 2741 2200 2525 
Q 2322 2444 2497 2188 
Q 2525 2391 2525 2619 
Q 2525 2966 2425 3147 
Q 2128 3681 1606 3681 
Q 1347 3681 950 3516 
z
M 956 1034 
Q 956 806 1081 666 
Q 1209 522 1431 522 
Q 1613 522 1772 634 
Q 1969 772 2122 1025 
Q 2241 1222 2309 1450 
Q 2056 1991 1625 1991 
Q 1219 1991 1059 1553 
Q 956 1275 956 1034 
z
" transform="scale(0.015625)"/>
      <path id="DejaVuSans-Bold-4c" d="M 588 4666 
L 1791 4666 
L 1791 909 
L 3903 909 
L 3903 0 
L 588 0 
L 588 4666 
z
" transform="scale(0.015625)"/>
      <path id="DejaVuSans-Bold-2f" d="M 1644 4666 
L 2338 4666 
L 691 -594 
L 0 -594 
L 1644 4666 
z
" transform="scale(0.015625)"/>
      <path id="DejaVuSans-Bold-78" d="M 1422 1791 
L 159 3500 
L 1344 3500 
L 2059 2463 
L 2784 3500 
L 3969 3500 
L 2706 1797 
L 4031 0 
L 2847 0 
L 2059 1106 
L 1281 0 
L 97 0 
L 1422 1791 
z
" transform="scale(0.015625)"/>
      <path id="DejaVuSans-Bold-3d" d="M 678 3084 
L 4684 3084 
L 4684 2350 
L 678 2350 
L 678 3084 
z
M 678 1663 
L 4684 1663 
L 4684 922 
L 678 922 
L 678 1663 
z
" transform="scale(0.015625)"/>
      <path id="DejaVuSans-Bold-28" d="M 2413 -844 
L 1484 -844 
Q 1006 -72 778 623 
Q 550 1319 550 2003 
Q 550 2688 779 3389 
Q 1009 4091 1484 4856 
L 2413 4856 
Q 2013 4116 1813 3408 
Q 1613 2700 1613 2009 
Q 1613 1319 1811 609 
Q 2009 -100 2413 -844 
z
" transform="scale(0.015625)"/>
      <path id="DejaVuSans-Bold-66" d="M 2841 4863 
L 2841 4128 
L 2222 4128 
Q 1984 4128 1890 4042 
Q 1797 3956 1797 3744 
L 1797 3500 
L 2753 3500 
L 2753 2700 
L 1797 2700 
L 1797 0 
L 678 0 
L 678 2700 
L 122 2700 
L 122 3500 
L 678 3500 
L 678 3744 
Q 678 4316 997 4589 
Q 1316 4863 1984 4863 
L 2841 4863 
z
" transform="scale(0.015625)"/>
      <path id="DejaVuSans-Bold-29" d="M 513 -844 
Q 913 -100 1113 609 
Q 1313 1319 1313 2009 
Q 1313 2700 1113 3408 
Q 913 4116 513 4856 
L 1441 4856 
Q 1916 4091 2145 3389 
Q 2375 2688 2375 2003 
Q 2375 1319 2147 623 
Q 1919 -72 1441 -844 
L 513 -844 
z
" transform="scale(0.015625)"/>
      <path id="DejaVuSans-Bold-d7" d="M 4563 3359 
L 3206 2003 
L 4563 653 
L 4038 128 
L 2681 1478 
L 1325 128 
L 800 653 
L 2156 2003 
L 800 3359 
L 1325 3884 
L 2681 2528 
L 4038 3884 
L 4563 3359 
z
" transform="scale(0.015625)"/>
      <path id="DejaVuSans-Bold-67" d="M 2919 594 
Q 2688 288 2409 144 
Q 2131 0 1766 0 
Q 1125 0 706 504 
Q 288 1009 288 1791 
Q 288 2575 706 3076 
Q 1125 3578 1766 3578 
Q 2131 3578 2409 3434 
Q 2688 3291 2919 2981 
L 2919 3500 
L 4044 3500 
L 4044 353 
Q 4044 -491 3511 -936 
Q 2978 -1381 1966 -1381 
Q 1638 -1381 1331 -1331 
Q 1025 -1281 716 -1178 
L 716 -306 
Q 1009 -475 1290 -558 
Q 1572 -641 1856 -641 
Q 2406 -641 2662 -400 
Q 2919 -159 2919 353 
L 2919 594 
z
M 2181 2772 
Q 1834 2772 1640 2515 
Q 1447 2259 1447 1791 
Q 1447 1309 1634 1061 
Q 1822 813 2181 813 
Q 2531 813 2725 1069 
Q 2919 1325 2919 1791 
Q 2919 2259 2725 2515 
Q 2531 2772 2181 2772 
z
" transform="scale(0.015625)"/>
     </defs>
     <use xlink:href="#DejaVuSans-Bold-43"/>
     <use xlink:href="#DejaVuSans-Bold-68" transform="translate(73.388672 0)"/>
     <use xlink:href="#DejaVuSans-Bold-61" transform="translate(144.580078 0)"/>
     <use xlink:href="#DejaVuSans-Bold-69" transform="translate(212.060547 0)"/>
     <use xlink:href="#DejaVuSans-Bold-6e" transform="translate(246.337891 0)"/>
     <use xlink:href="#DejaVuSans-Bold-20" transform="translate(317.529297 0)"/>
     <use xlink:href="#DejaVuSans-Bold-72" transform="translate(352.34375 0)"/>
     <use xlink:href="#DejaVuSans-Bold-75" transform="translate(401.660156 0)"/>
     <use xlink:href="#DejaVuSans-Bold-6c" transform="translate(472.851562 0)"/>
     <use xlink:href="#DejaVuSans-Bold-65" transform="translate(507.128906 0)"/>
     <use xlink:href="#DejaVuSans-Bold-3a" transform="translate(574.951172 0)"/>
     <use xlink:href="#DejaVuSans-Bold-20" transform="translate(614.941406 0)"/>
     <use xlink:href="#DejaVuSans-Bold-20" transform="translate(649.755859 0)"/>
     <use xlink:href="#DejaVuSans-Bold-2202" transform="translate(684.570312 0)"/>
     <use xlink:href="#DejaVuSans-Bold-4c" transform="translate(738.964844 0)"/>
     <use xlink:href="#DejaVuSans-Bold-2f" transform="translate(802.685547 0)"/>
     <use xlink:href="#DejaVuSans-Bold-2202" transform="translate(839.208984 0)"/>
     <use xlink:href="#DejaVuSans-Bold-78" transform="translate(893.603516 0)"/>
     <use xlink:href="#DejaVuSans-Bold-20" transform="translate(958.105469 0)"/>
     <use xlink:href="#DejaVuSans-Bold-3d" transform="translate(992.919922 0)"/>
     <use xlink:href="#DejaVuSans-Bold-20" transform="translate(1076.708984 0)"/>
     <use xlink:href="#DejaVuSans-Bold-28" transform="translate(1111.523438 0)"/>
     <use xlink:href="#DejaVuSans-Bold-2202" transform="translate(1157.226562 0)"/>
     <use xlink:href="#DejaVuSans-Bold-4c" transform="translate(1211.621094 0)"/>
     <use xlink:href="#DejaVuSans-Bold-2f" transform="translate(1275.341797 0)"/>
     <use xlink:href="#DejaVuSans-Bold-2202" transform="translate(1311.865234 0)"/>
     <use xlink:href="#DejaVuSans-Bold-66" transform="translate(1366.259766 0)"/>
     <use xlink:href="#DejaVuSans-Bold-29" transform="translate(1409.765625 0)"/>
     <use xlink:href="#DejaVuSans-Bold-20" transform="translate(1455.46875 0)"/>
     <use xlink:href="#DejaVuSans-Bold-d7" transform="translate(1490.283203 0)"/>
     <use xlink:href="#DejaVuSans-Bold-20" transform="translate(1574.072266 0)"/>
     <use xlink:href="#DejaVuSans-Bold-28" transform="translate(1608.886719 0)"/>
     <use xlink:href="#DejaVuSans-Bold-2202" transform="translate(1654.589844 0)"/>
     <use xlink:href="#DejaVuSans-Bold-66" transform="translate(1708.984375 0)"/>
     <use xlink:href="#DejaVuSans-Bold-2f" transform="translate(1752.490234 0)"/>
     <use xlink:href="#DejaVuSans-Bold-2202" transform="translate(1789.013672 0)"/>
     <use xlink:href="#DejaVuSans-Bold-67" transform="translate(1843.408203 0)"/>
     <use xlink:href="#DejaVuSans-Bold-29" transform="translate(1914.990234 0)"/>
     <use xlink:href="#DejaVuSans-Bold-20" transform="translate(1960.693359 0)"/>
     <use xlink:href="#DejaVuSans-Bold-d7" transform="translate(1995.507812 0)"/>
     <use xlink:href="#DejaVuSans-Bold-20" transform="translate(2079.296875 0)"/>
     <use xlink:href="#DejaVuSans-Bold-28" transform="translate(2114.111328 0)"/>
     <use xlink:href="#DejaVuSans-Bold-2202" transform="translate(2159.814453 0)"/>
     <use xlink:href="#DejaVuSans-Bold-67" transform="translate(2214.208984 0)"/>
     <use xlink:href="#DejaVuSans-Bold-2f" transform="translate(2285.791016 0)"/>
     <use xlink:href="#DejaVuSans-Bold-2202" transform="translate(2322.314453 0)"/>
     <use xlink:href="#DejaVuSans-Bold-68" transform="translate(2376.708984 0)"/>
     <use xlink:href="#DejaVuSans-Bold-29" transform="translate(2447.900391 0)"/>
     <use xlink:href="#DejaVuSans-Bold-20" transform="translate(2493.603516 0)"/>
     <use xlink:href="#DejaVuSans-Bold-d7" transform="translate(2528.417969 0)"/>
     <use xlink:href="#DejaVuSans-Bold-20" transform="translate(2612.207031 0)"/>
     <use xlink:href="#DejaVuSans-Bold-28" transform="translate(2647.021484 0)"/>
     <use xlink:href="#DejaVuSans-Bold-2202" transform="translate(2692.724609 0)"/>
     <use xlink:href="#DejaVuSans-Bold-68" transform="translate(2747.119141 0)"/>
     <use xlink:href="#DejaVuSans-Bold-2f" transform="translate(2818.310547 0)"/>
     <use xlink:href="#DejaVuSans-Bold-2202" transform="translate(2854.833984 0)"/>
     <use xlink:href="#DejaVuSans-Bold-78" transform="translate(2909.228516 0)"/>
     <use xlink:href="#DejaVuSans-Bold-29" transform="translate(2973.730469 0)"/>
    </g>
   </g>
  </g>
 </g>
 <defs>
  <clipPath id="p323d80aa04">
   <rect x="7.2" y="7.2" width="699.3" height="266.4"/>
  </clipPath>
 </defs>
</svg>
