<?xml version="1.0" encoding="utf-8" standalone="no"?>
<!DOCTYPE svg PUBLIC "-//W3C//DTD SVG 1.1//EN"
  "http://www.w3.org/Graphics/SVG/1.1/DTD/svg11.dtd">
<svg xmlns:xlink="http://www.w3.org/1999/xlink" width="653.984416pt" height="424.8pt" viewBox="0 0 653.984416 424.8" xmlns="http://www.w3.org/2000/svg" version="1.1">
 <metadata>
  <rdf:RDF xmlns:dc="http://purl.org/dc/elements/1.1/" xmlns:cc="http://creativecommons.org/ns#" xmlns:rdf="http://www.w3.org/1999/02/22-rdf-syntax-ns#">
   <cc:Work>
    <dc:type rdf:resource="http://purl.org/dc/dcmitype/StillImage"/>
    <dc:date>2026-05-26T13:03:39.896091</dc:date>
    <dc:format>image/svg+xml</dc:format>
    <dc:creator>
     <cc:Agent>
      <dc:title>Matplotlib v3.10.8, https://matplotlib.org/</dc:title>
     </cc:Agent>
    </dc:creator>
   </cc:Work>
  </rdf:RDF>
 </metadata>
 <defs>
  <style type="text/css">*{stroke-linejoin: round; stroke-linecap: butt}</style>
 </defs>
 <g id="figure_1">
  <g id="patch_1">
   <path d="M 0 424.8 
L 653.984416 424.8 
L 653.984416 0 
L 0 0 
z
" style="fill: #ffffff"/>
  </g>
  <g id="axes_1">
   <g id="patch_2">
    <path d="M 87.148052 159.101299 
C 92.095295 159.101299 96.840578 157.135738 100.338808 153.637509 
C 103.837037 150.13928 105.802597 145.393997 105.802597 140.446753 
C 105.802597 135.49951 103.837037 130.754227 100.338808 127.255998 
C 96.840578 123.757768 92.095295 121.792208 87.148052 121.792208 
C 82.200809 121.792208 77.455526 123.757768 73.957296 127.255998 
C 70.459067 130.754227 68.493506 135.49951 68.493506 140.446753 
C 68.493506 145.393997 70.459067 150.13928 73.957296 153.637509 
C 77.455526 157.135738 82.200809 159.101299 87.148052 159.101299 
z
" clip-path="url(#p3e3bc90474)" style="fill: #7aa6c2; stroke: #000000; stroke-width: 1.2; stroke-linejoin: miter"/>
   </g>
   <g id="patch_3">
    <path d="M 87.148052 372.296104 
C 92.095295 372.296104 96.840578 370.330543 100.338808 366.832314 
C 103.837037 363.334085 105.802597 358.588802 105.802597 353.641558 
C 105.802597 348.694315 103.837037 343.949032 100.338808 340.450803 
C 96.840578 336.952574 92.095295 334.987013 87.148052 334.987013 
C 82.200809 334.987013 77.455526 336.952574 73.957296 340.450803 
C 70.459067 343.949032 68.493506 348.694315 68.493506 353.641558 
C 68.493506 358.588802 70.459067 363.334085 73.957296 366.832314 
C 77.455526 370.330543 82.200809 372.296104 87.148052 372.296104 
z
" clip-path="url(#p3e3bc90474)" style="fill: #7aa6c2; stroke: #000000; stroke-width: 1.2; stroke-linejoin: miter"/>
   </g>
   <g id="patch_4">
    <path d="M 247.044156 159.101299 
C 251.991399 159.101299 256.736682 157.135738 260.234911 153.637509 
C 263.733141 150.13928 265.698701 145.393997 265.698701 140.446753 
C 265.698701 135.49951 263.733141 130.754227 260.234911 127.255998 
C 256.736682 123.757768 251.991399 121.792208 247.044156 121.792208 
C 242.096913 121.792208 237.35163 123.757768 233.8534 127.255998 
C 230.355171 130.754227 228.38961 135.49951 228.38961 140.446753 
C 228.38961 145.393997 230.355171 150.13928 233.8534 153.637509 
C 237.35163 157.135738 242.096913 159.101299 247.044156 159.101299 
z
" clip-path="url(#p3e3bc90474)" style="fill: #f28e2b; stroke: #000000; stroke-width: 1.2; stroke-linejoin: miter"/>
   </g>
   <g id="patch_5">
    <path d="M 247.044156 372.296104 
C 251.991399 372.296104 256.736682 370.330543 260.234911 366.832314 
C 263.733141 363.334085 265.698701 358.588802 265.698701 353.641558 
C 265.698701 348.694315 263.733141 343.949032 260.234911 340.450803 
C 256.736682 336.952574 251.991399 334.987013 247.044156 334.987013 
C 242.096913 334.987013 237.35163 336.952574 233.8534 340.450803 
C 230.355171 343.949032 228.38961 348.694315 228.38961 353.641558 
C 228.38961 358.588802 230.355171 363.334085 233.8534 366.832314 
C 237.35163 370.330543 242.096913 372.296104 247.044156 372.296104 
z
" clip-path="url(#p3e3bc90474)" style="fill: #f28e2b; stroke: #000000; stroke-width: 1.2; stroke-linejoin: miter"/>
   </g>
   <g id="patch_6">
    <path d="M 406.94026 265.698701 
C 411.887503 265.698701 416.632786 263.733141 420.131015 260.234911 
C 423.629245 256.736682 425.594805 251.991399 425.594805 247.044156 
C 425.594805 242.096913 423.629245 237.35163 420.131015 233.8534 
C 416.632786 230.355171 411.887503 228.38961 406.94026 228.38961 
C 401.993016 228.38961 397.247733 230.355171 393.749504 233.8534 
C 390.251275 237.35163 388.285714 242.096913 388.285714 247.044156 
C 388.285714 251.991399 390.251275 256.736682 393.749504 260.234911 
C 397.247733 263.733141 401.993016 265.698701 406.94026 265.698701 
z
" clip-path="url(#p3e3bc90474)" style="fill: #59a14f; stroke: #000000; stroke-width: 1.2; stroke-linejoin: miter"/>
   </g>
   <g id="patch_7">
    <path d="M 406.94026 132.451948 
C 411.887503 132.451948 416.632786 130.486387 420.131015 126.988158 
C 423.629245 123.489929 425.594805 118.744646 425.594805 113.797403 
C 425.594805 108.850159 423.629245 104.104876 420.131015 100.606647 
C 416.632786 97.108418 411.887503 95.142857 406.94026 95.142857 
C 401.993016 95.142857 397.247733 97.108418 393.749504 100.606647 
C 390.251275 104.104876 388.285714 108.850159 388.285714 113.797403 
C 388.285714 118.744646 390.251275 123.489929 393.749504 126.988158 
C 397.247733 130.486387 401.993016 132.451948 406.94026 132.451948 
z
" clip-path="url(#p3e3bc90474)" style="fill: #7aa6c2; stroke: #000000; stroke-width: 1.2; stroke-linejoin: miter"/>
   </g>
   <g id="patch_8">
    <path d="M 566.836364 265.698701 
C 571.783607 265.698701 576.52889 263.733141 580.027119 260.234911 
C 583.525349 256.736682 585.490909 251.991399 585.490909 247.044156 
C 585.490909 242.096913 583.525349 237.35163 580.027119 233.8534 
C 576.52889 230.355171 571.783607 228.38961 566.836364 228.38961 
C 561.88912 228.38961 557.143837 230.355171 553.645608 233.8534 
C 550.147379 237.35163 548.181818 242.096913 548.181818 247.044156 
C 548.181818 251.991399 550.147379 256.736682 553.645608 260.234911 
C 557.143837 263.733141 561.88912 265.698701 566.836364 265.698701 
z
" clip-path="url(#p3e3bc90474)" style="fill: #e15759; stroke: #000000; stroke-width: 1.2; stroke-linejoin: miter"/>
   </g>
   <g id="text_1">
    <!-- x1 -->
    <g style="fill: #ffffff" transform="translate(80.444146 143.206128) scale(0.1 -0.1)">
     <defs>
      <path id="DejaVuSans-Bold-78" d="M 1422 1791 
L 159 3500 
L 1344 3500 
L 2059 2463 
L 2784 3500 
L 3969 3500 
L 2706 1797 
L 4031 0 
L 2847 0 
L 2059 1106 
L 1281 0 
L 97 0 
L 1422 1791 
z
" transform="scale(0.015625)"/>
      <path id="DejaVuSans-Bold-31" d="M 750 831 
L 1813 831 
L 1813 3847 
L 722 3622 
L 722 4441 
L 1806 4666 
L 2950 4666 
L 2950 831 
L 4013 831 
L 4013 0 
L 750 0 
L 750 831 
z
" transform="scale(0.015625)"/>
     </defs>
     <use xlink:href="#DejaVuSans-Bold-78"/>
     <use xlink:href="#DejaVuSans-Bold-31" transform="translate(64.501953 0)"/>
    </g>
   </g>
   <g id="text_2">
    <!-- x2 -->
    <g style="fill: #ffffff" transform="translate(80.444146 356.400933) scale(0.1 -0.1)">
     <defs>
      <path id="DejaVuSans-Bold-32" d="M 1844 884 
L 3897 884 
L 3897 0 
L 506 0 
L 506 884 
L 2209 2388 
Q 2438 2594 2547 2791 
Q 2656 2988 2656 3200 
Q 2656 3528 2436 3728 
Q 2216 3928 1850 3928 
Q 1569 3928 1234 3808 
Q 900 3688 519 3450 
L 519 4475 
Q 925 4609 1322 4679 
Q 1719 4750 2100 4750 
Q 2938 4750 3402 4381 
Q 3866 4013 3866 3353 
Q 3866 2972 3669 2642 
Q 3472 2313 2841 1759 
L 1844 884 
z
" transform="scale(0.015625)"/>
     </defs>
     <use xlink:href="#DejaVuSans-Bold-78"/>
     <use xlink:href="#DejaVuSans-Bold-32" transform="translate(64.501953 0)"/>
    </g>
   </g>
   <g id="text_3">
    <!-- h1 -->
    <g style="fill: #ffffff" transform="translate(240.005875 143.206128) scale(0.1 -0.1)">
     <defs>
      <path id="DejaVuSans-Bold-68" d="M 4056 2131 
L 4056 0 
L 2931 0 
L 2931 347 
L 2931 1625 
Q 2931 2084 2911 2256 
Q 2891 2428 2841 2509 
Q 2775 2619 2662 2680 
Q 2550 2741 2406 2741 
Q 2056 2741 1856 2470 
Q 1656 2200 1656 1722 
L 1656 0 
L 538 0 
L 538 4863 
L 1656 4863 
L 1656 2988 
Q 1909 3294 2193 3439 
Q 2478 3584 2822 3584 
Q 3428 3584 3742 3212 
Q 4056 2841 4056 2131 
z
" transform="scale(0.015625)"/>
     </defs>
     <use xlink:href="#DejaVuSans-Bold-68"/>
     <use xlink:href="#DejaVuSans-Bold-31" transform="translate(71.191406 0)"/>
    </g>
   </g>
   <g id="text_4">
    <!-- h2 -->
    <g style="fill: #ffffff" transform="translate(240.005875 356.400933) scale(0.1 -0.1)">
     <use xlink:href="#DejaVuSans-Bold-68"/>
     <use xlink:href="#DejaVuSans-Bold-32" transform="translate(71.191406 0)"/>
    </g>
   </g>
   <g id="text_5">
    <!-- y_hat -->
    <g style="fill: #ffffff" transform="translate(391.857447 249.664468) scale(0.1 -0.1)">
     <defs>
      <path id="DejaVuSans-Bold-79" d="M 78 3500 
L 1197 3500 
L 2138 1125 
L 2938 3500 
L 4056 3500 
L 2584 -331 
Q 2363 -916 2067 -1148 
Q 1772 -1381 1288 -1381 
L 641 -1381 
L 641 -647 
L 991 -647 
Q 1275 -647 1404 -556 
Q 1534 -466 1606 -231 
L 1638 -134 
L 78 3500 
z
" transform="scale(0.015625)"/>
      <path id="DejaVuSans-Bold-5f" d="M 3200 -916 
L 3200 -1509 
L 0 -1509 
L 0 -916 
L 3200 -916 
z
" transform="scale(0.015625)"/>
      <path id="DejaVuSans-Bold-61" d="M 2106 1575 
Q 1756 1575 1579 1456 
Q 1403 1338 1403 1106 
Q 1403 894 1545 773 
Q 1688 653 1941 653 
Q 2256 653 2472 879 
Q 2688 1106 2688 1447 
L 2688 1575 
L 2106 1575 
z
M 3816 1997 
L 3816 0 
L 2688 0 
L 2688 519 
Q 2463 200 2181 54 
Q 1900 -91 1497 -91 
Q 953 -91 614 226 
Q 275 544 275 1050 
Q 275 1666 698 1953 
Q 1122 2241 2028 2241 
L 2688 2241 
L 2688 2328 
Q 2688 2594 2478 2717 
Q 2269 2841 1825 2841 
Q 1466 2841 1156 2769 
Q 847 2697 581 2553 
L 581 3406 
Q 941 3494 1303 3539 
Q 1666 3584 2028 3584 
Q 2975 3584 3395 3211 
Q 3816 2838 3816 1997 
z
" transform="scale(0.015625)"/>
      <path id="DejaVuSans-Bold-74" d="M 1759 4494 
L 1759 3500 
L 2913 3500 
L 2913 2700 
L 1759 2700 
L 1759 1216 
Q 1759 972 1856 886 
Q 1953 800 2241 800 
L 2816 800 
L 2816 0 
L 1856 0 
Q 1194 0 917 276 
Q 641 553 641 1216 
L 641 2700 
L 84 2700 
L 84 3500 
L 641 3500 
L 641 4494 
L 1759 4494 
z
" transform="scale(0.015625)"/>
     </defs>
     <use xlink:href="#DejaVuSans-Bold-79"/>
     <use xlink:href="#DejaVuSans-Bold-5f" transform="translate(65.185547 0)"/>
     <use xlink:href="#DejaVuSans-Bold-68" transform="translate(115.185547 0)"/>
     <use xlink:href="#DejaVuSans-Bold-61" transform="translate(186.376953 0)"/>
     <use xlink:href="#DejaVuSans-Bold-74" transform="translate(253.857422 0)"/>
    </g>
   </g>
   <g id="text_6">
    <!-- y -->
    <g style="fill: #ffffff" transform="translate(403.680885 116.478653) scale(0.1 -0.1)">
     <use xlink:href="#DejaVuSans-Bold-79"/>
    </g>
   </g>
   <g id="text_7">
    <!-- L -->
    <g style="fill: #ffffff" transform="translate(563.650426 249.803531) scale(0.1 -0.1)">
     <defs>
      <path id="DejaVuSans-Bold-4c" d="M 588 4666 
L 1791 4666 
L 1791 909 
L 3903 909 
L 3903 0 
L 588 0 
L 588 4666 
z
" transform="scale(0.015625)"/>
     </defs>
     <use xlink:href="#DejaVuSans-Bold-4c"/>
    </g>
   </g>
   <g id="patch_9">
    <path d="M 101.147744 140.446753 
Q 167.094543 140.446753 232.146915 140.446753 
" style="fill: none; stroke: #000000; stroke-width: 0.8; stroke-linecap: round"/>
    <path d="M 228.146915 138.446753 
L 232.146915 140.446753 
L 228.146915 142.446753 
" style="fill: none; stroke: #000000; stroke-width: 0.8; stroke-linecap: round"/>
   </g>
   <g id="text_8">
    <!-- w_{11} -->
    <g style="fill: #999999" transform="translate(151.644854 132.451948) scale(0.08 -0.08)">
     <defs>
      <path id="DejaVuSans-77" d="M 269 3500 
L 844 3500 
L 1563 769 
L 2278 3500 
L 2956 3500 
L 3675 769 
L 4391 3500 
L 4966 3500 
L 4050 0 
L 3372 0 
L 2619 2869 
L 1863 0 
L 1184 0 
L 269 3500 
z
" transform="scale(0.015625)"/>
      <path id="DejaVuSans-5f" d="M 3263 -1063 
L 3263 -1509 
L -63 -1509 
L -63 -1063 
L 3263 -1063 
z
" transform="scale(0.015625)"/>
      <path id="DejaVuSans-7b" d="M 3272 -594 
L 3272 -1044 
L 3078 -1044 
Q 2300 -1044 2036 -812 
Q 1772 -581 1772 109 
L 1772 856 
Q 1772 1328 1603 1509 
Q 1434 1691 991 1691 
L 800 1691 
L 800 2138 
L 991 2138 
Q 1438 2138 1605 2317 
Q 1772 2497 1772 2963 
L 1772 3713 
Q 1772 4403 2036 4633 
Q 2300 4863 3078 4863 
L 3272 4863 
L 3272 4416 
L 3059 4416 
Q 2619 4416 2484 4278 
Q 2350 4141 2350 3700 
L 2350 2925 
Q 2350 2434 2208 2212 
Q 2066 1991 1722 1913 
Q 2069 1828 2209 1606 
Q 2350 1384 2350 897 
L 2350 122 
Q 2350 -319 2484 -456 
Q 2619 -594 3059 -594 
L 3272 -594 
z
" transform="scale(0.015625)"/>
      <path id="DejaVuSans-31" d="M 794 531 
L 1825 531 
L 1825 4091 
L 703 3866 
L 703 4441 
L 1819 4666 
L 2450 4666 
L 2450 531 
L 3481 531 
L 3481 0 
L 794 0 
L 794 531 
z
" transform="scale(0.015625)"/>
      <path id="DejaVuSans-7d" d="M 800 -594 
L 1019 -594 
Q 1456 -594 1589 -459 
Q 1722 -325 1722 122 
L 1722 897 
Q 1722 1384 1862 1606 
Q 2003 1828 2350 1913 
Q 2003 1991 1862 2212 
Q 1722 2434 1722 2925 
L 1722 3700 
Q 1722 4144 1589 4280 
Q 1456 4416 1019 4416 
L 800 4416 
L 800 4863 
L 997 4863 
Q 1775 4863 2036 4633 
Q 2297 4403 2297 3713 
L 2297 2963 
Q 2297 2497 2465 2317 
Q 2634 2138 3078 2138 
L 3272 2138 
L 3272 1691 
L 3078 1691 
Q 2634 1691 2465 1509 
Q 2297 1328 2297 856 
L 2297 109 
Q 2297 -581 2036 -812 
Q 1775 -1044 997 -1044 
L 800 -1044 
L 800 -594 
z
" transform="scale(0.015625)"/>
     </defs>
     <use xlink:href="#DejaVuSans-77"/>
     <use xlink:href="#DejaVuSans-5f" transform="translate(81.787109 0)"/>
     <use xlink:href="#DejaVuSans-7b" transform="translate(131.787109 0)"/>
     <use xlink:href="#DejaVuSans-31" transform="translate(195.410156 0)"/>
     <use xlink:href="#DejaVuSans-31" transform="translate(259.033203 0)"/>
     <use xlink:href="#DejaVuSans-7d" transform="translate(322.65625 0)"/>
    </g>
   </g>
   <g id="patch_10">
    <path d="M 95.548355 151.647158 
Q 167.097157 247.04556 238.109302 341.728421 
" style="fill: none; stroke: #000000; stroke-width: 0.8; stroke-linecap: round"/>
    <path d="M 237.309302 337.328421 
L 238.109302 341.728421 
L 234.109302 339.728421 
" style="fill: none; stroke: #000000; stroke-width: 0.8; stroke-linecap: round"/>
   </g>
   <g id="text_9">
    <!-- w_{12} -->
    <g style="fill: #999999" transform="translate(151.644854 239.049351) scale(0.08 -0.08)">
     <defs>
      <path id="DejaVuSans-32" d="M 1228 531 
L 3431 531 
L 3431 0 
L 469 0 
L 469 531 
Q 828 903 1448 1529 
Q 2069 2156 2228 2338 
Q 2531 2678 2651 2914 
Q 2772 3150 2772 3378 
Q 2772 3750 2511 3984 
Q 2250 4219 1831 4219 
Q 1534 4219 1204 4116 
Q 875 4013 500 3803 
L 500 4441 
Q 881 4594 1212 4672 
Q 1544 4750 1819 4750 
Q 2544 4750 2975 4387 
Q 3406 4025 3406 3419 
Q 3406 3131 3298 2873 
Q 3191 2616 2906 2266 
Q 2828 2175 2409 1742 
Q 1991 1309 1228 531 
z
" transform="scale(0.015625)"/>
     </defs>
     <use xlink:href="#DejaVuSans-77"/>
     <use xlink:href="#DejaVuSans-5f" transform="translate(81.787109 0)"/>
     <use xlink:href="#DejaVuSans-7b" transform="translate(131.787109 0)"/>
     <use xlink:href="#DejaVuSans-31" transform="translate(195.410156 0)"/>
     <use xlink:href="#DejaVuSans-32" transform="translate(259.033203 0)"/>
     <use xlink:href="#DejaVuSans-7d" transform="translate(322.65625 0)"/>
    </g>
   </g>
   <g id="patch_11">
    <path d="M 95.548355 342.441154 
Q 167.097157 247.042752 238.109302 152.359891 
" style="fill: none; stroke: #000000; stroke-width: 0.8; stroke-linecap: round"/>
    <path d="M 234.109302 154.359891 
L 238.109302 152.359891 
L 237.309302 156.759891 
" style="fill: none; stroke: #000000; stroke-width: 0.8; stroke-linecap: round"/>
   </g>
   <g id="text_10">
    <!-- w_{21} -->
    <g style="fill: #999999" transform="translate(151.644854 239.049351) scale(0.08 -0.08)">
     <use xlink:href="#DejaVuSans-77"/>
     <use xlink:href="#DejaVuSans-5f" transform="translate(81.787109 0)"/>
     <use xlink:href="#DejaVuSans-7b" transform="translate(131.787109 0)"/>
     <use xlink:href="#DejaVuSans-32" transform="translate(195.410156 0)"/>
     <use xlink:href="#DejaVuSans-31" transform="translate(259.033203 0)"/>
     <use xlink:href="#DejaVuSans-7d" transform="translate(322.65625 0)"/>
    </g>
   </g>
   <g id="patch_12">
    <path d="M 101.147744 353.641558 
Q 167.094543 353.641558 232.146915 353.641558 
" style="fill: none; stroke: #000000; stroke-width: 0.8; stroke-linecap: round"/>
    <path d="M 228.146915 351.641558 
L 232.146915 353.641558 
L 228.146915 355.641558 
" style="fill: none; stroke: #000000; stroke-width: 0.8; stroke-linecap: round"/>
   </g>
   <g id="text_11">
    <!-- w_{22} -->
    <g style="fill: #999999" transform="translate(151.644854 345.646753) scale(0.08 -0.08)">
     <use xlink:href="#DejaVuSans-77"/>
     <use xlink:href="#DejaVuSans-5f" transform="translate(81.787109 0)"/>
     <use xlink:href="#DejaVuSans-7b" transform="translate(131.787109 0)"/>
     <use xlink:href="#DejaVuSans-32" transform="translate(195.410156 0)"/>
     <use xlink:href="#DejaVuSans-32" transform="translate(259.033203 0)"/>
     <use xlink:href="#DejaVuSans-7d" transform="translate(322.65625 0)"/>
    </g>
   </g>
   <g id="patch_13">
    <path d="M 258.694301 148.213517 
Q 326.993623 193.746398 394.548736 238.78314 
" style="fill: none; stroke: #000000; stroke-width: 0.8; stroke-linecap: round"/>
    <path d="M 392.329935 234.900239 
L 394.548736 238.78314 
L 390.111135 238.22844 
" style="fill: none; stroke: #000000; stroke-width: 0.8; stroke-linecap: round"/>
   </g>
   <g id="text_12">
    <!-- v_1 -->
    <g style="fill: #999999" transform="translate(320.079708 185.750649) scale(0.08 -0.08)">
     <defs>
      <path id="DejaVuSans-76" d="M 191 3500 
L 800 3500 
L 1894 563 
L 2988 3500 
L 3597 3500 
L 2284 0 
L 1503 0 
L 191 3500 
z
" transform="scale(0.015625)"/>
     </defs>
     <use xlink:href="#DejaVuSans-76"/>
     <use xlink:href="#DejaVuSans-5f" transform="translate(59.179688 0)"/>
     <use xlink:href="#DejaVuSans-31" transform="translate(109.179688 0)"/>
    </g>
   </g>
   <g id="patch_14">
    <path d="M 258.694301 345.874795 
Q 326.993623 300.341914 394.548736 255.305172 
" style="fill: none; stroke: #000000; stroke-width: 0.8; stroke-linecap: round"/>
    <path d="M 390.111135 255.859872 
L 394.548736 255.305172 
L 392.329935 259.188073 
" style="fill: none; stroke: #000000; stroke-width: 0.8; stroke-linecap: round"/>
   </g>
   <g id="text_13">
    <!-- v_2 -->
    <g style="fill: #999999" transform="translate(320.079708 292.348052) scale(0.08 -0.08)">
     <use xlink:href="#DejaVuSans-76"/>
     <use xlink:href="#DejaVuSans-5f" transform="translate(59.179688 0)"/>
     <use xlink:href="#DejaVuSans-32" transform="translate(109.179688 0)"/>
    </g>
   </g>
   <g id="patch_15">
    <path d="M 420.939952 247.044156 
Q 486.886751 247.044156 551.939122 247.044156 
" style="fill: none; stroke: #000000; stroke-width: 0.8; stroke-linecap: round"/>
    <path d="M 547.939122 245.044156 
L 551.939122 247.044156 
L 547.939122 249.044156 
" style="fill: none; stroke: #000000; stroke-width: 0.8; stroke-linecap: round"/>
   </g>
   <g id="patch_16">
    <path d="M 417.69743 122.761711 
Q 486.888328 180.420793 555.392109 237.507277 
" style="fill: none; stroke: #000000; stroke-width: 0.8; stroke-linecap: round"/>
    <path d="M 553.599592 233.410096 
L 555.392109 237.507277 
L 551.038855 236.482982 
" style="fill: none; stroke: #000000; stroke-width: 0.8; stroke-linecap: round"/>
   </g>
   <g id="patch_17">
    <path d="M 51.839289 326.992208 
Q 326.991603 326.992208 599.90785 326.992208 
" style="fill: none; stroke: #7aa6c2; stroke-width: 2; stroke-linecap: round"/>
    <path d="M 595.90785 324.992208 
L 599.90785 326.992208 
L 595.90785 328.992208 
" style="fill: none; stroke: #7aa6c2; stroke-width: 2; stroke-linecap: round"/>
   </g>
   <g id="text_14">
    <!-- FORWARD: compute h, y_hat, L (left→right) -->
    <g style="fill: #7aa6c2" transform="translate(193.152286 369.631169) scale(0.11 -0.11)">
     <defs>
      <path id="DejaVuSans-Bold-46" d="M 588 4666 
L 3834 4666 
L 3834 3756 
L 1791 3756 
L 1791 2888 
L 3713 2888 
L 3713 1978 
L 1791 1978 
L 1791 0 
L 588 0 
L 588 4666 
z
" transform="scale(0.015625)"/>
      <path id="DejaVuSans-Bold-4f" d="M 2719 3878 
Q 2169 3878 1866 3472 
Q 1563 3066 1563 2328 
Q 1563 1594 1866 1187 
Q 2169 781 2719 781 
Q 3272 781 3575 1187 
Q 3878 1594 3878 2328 
Q 3878 3066 3575 3472 
Q 3272 3878 2719 3878 
z
M 2719 4750 
Q 3844 4750 4481 4106 
Q 5119 3463 5119 2328 
Q 5119 1197 4481 553 
Q 3844 -91 2719 -91 
Q 1597 -91 958 553 
Q 319 1197 319 2328 
Q 319 3463 958 4106 
Q 1597 4750 2719 4750 
z
" transform="scale(0.015625)"/>
      <path id="DejaVuSans-Bold-52" d="M 2297 2597 
Q 2675 2597 2839 2737 
Q 3003 2878 3003 3200 
Q 3003 3519 2839 3656 
Q 2675 3794 2297 3794 
L 1791 3794 
L 1791 2597 
L 2297 2597 
z
M 1791 1766 
L 1791 0 
L 588 0 
L 588 4666 
L 2425 4666 
Q 3347 4666 3776 4356 
Q 4206 4047 4206 3378 
Q 4206 2916 3982 2619 
Q 3759 2322 3309 2181 
Q 3556 2125 3751 1926 
Q 3947 1728 4147 1325 
L 4800 0 
L 3519 0 
L 2950 1159 
Q 2778 1509 2601 1637 
Q 2425 1766 2131 1766 
L 1791 1766 
z
" transform="scale(0.015625)"/>
      <path id="DejaVuSans-Bold-57" d="M 191 4666 
L 1344 4666 
L 2150 1275 
L 2950 4666 
L 4109 4666 
L 4909 1275 
L 5716 4666 
L 6859 4666 
L 5759 0 
L 4372 0 
L 3525 3547 
L 2688 0 
L 1300 0 
L 191 4666 
z
" transform="scale(0.015625)"/>
      <path id="DejaVuSans-Bold-41" d="M 3419 850 
L 1538 850 
L 1241 0 
L 31 0 
L 1759 4666 
L 3194 4666 
L 4922 0 
L 3713 0 
L 3419 850 
z
M 1838 1716 
L 3116 1716 
L 2478 3572 
L 1838 1716 
z
" transform="scale(0.015625)"/>
      <path id="DejaVuSans-Bold-44" d="M 1791 3756 
L 1791 909 
L 2222 909 
Q 2959 909 3348 1275 
Q 3738 1641 3738 2338 
Q 3738 3031 3350 3393 
Q 2963 3756 2222 3756 
L 1791 3756 
z
M 588 4666 
L 1856 4666 
Q 2919 4666 3439 4514 
Q 3959 4363 4331 4000 
Q 4659 3684 4818 3271 
Q 4978 2859 4978 2338 
Q 4978 1809 4818 1395 
Q 4659 981 4331 666 
Q 3956 303 3431 151 
Q 2906 0 1856 0 
L 588 0 
L 588 4666 
z
" transform="scale(0.015625)"/>
      <path id="DejaVuSans-Bold-3a" d="M 716 3500 
L 1844 3500 
L 1844 2291 
L 716 2291 
L 716 3500 
z
M 716 1209 
L 1844 1209 
L 1844 0 
L 716 0 
L 716 1209 
z
" transform="scale(0.015625)"/>
      <path id="DejaVuSans-Bold-20" transform="scale(0.015625)"/>
      <path id="DejaVuSans-Bold-63" d="M 3366 3391 
L 3366 2478 
Q 3138 2634 2908 2709 
Q 2678 2784 2431 2784 
Q 1963 2784 1702 2511 
Q 1441 2238 1441 1747 
Q 1441 1256 1702 982 
Q 1963 709 2431 709 
Q 2694 709 2930 787 
Q 3166 866 3366 1019 
L 3366 103 
Q 3103 6 2833 -42 
Q 2563 -91 2291 -91 
Q 1344 -91 809 395 
Q 275 881 275 1747 
Q 275 2613 809 3098 
Q 1344 3584 2291 3584 
Q 2566 3584 2833 3536 
Q 3100 3488 3366 3391 
z
" transform="scale(0.015625)"/>
      <path id="DejaVuSans-Bold-6f" d="M 2203 2784 
Q 1831 2784 1636 2517 
Q 1441 2250 1441 1747 
Q 1441 1244 1636 976 
Q 1831 709 2203 709 
Q 2569 709 2762 976 
Q 2956 1244 2956 1747 
Q 2956 2250 2762 2517 
Q 2569 2784 2203 2784 
z
M 2203 3584 
Q 3106 3584 3614 3096 
Q 4122 2609 4122 1747 
Q 4122 884 3614 396 
Q 3106 -91 2203 -91 
Q 1297 -91 786 396 
Q 275 884 275 1747 
Q 275 2609 786 3096 
Q 1297 3584 2203 3584 
z
" transform="scale(0.015625)"/>
      <path id="DejaVuSans-Bold-6d" d="M 3781 2919 
Q 3994 3244 4286 3414 
Q 4578 3584 4928 3584 
Q 5531 3584 5847 3212 
Q 6163 2841 6163 2131 
L 6163 0 
L 5038 0 
L 5038 1825 
Q 5041 1866 5042 1909 
Q 5044 1953 5044 2034 
Q 5044 2406 4934 2573 
Q 4825 2741 4581 2741 
Q 4263 2741 4089 2478 
Q 3916 2216 3909 1719 
L 3909 0 
L 2784 0 
L 2784 1825 
Q 2784 2406 2684 2573 
Q 2584 2741 2328 2741 
Q 2006 2741 1831 2477 
Q 1656 2213 1656 1722 
L 1656 0 
L 531 0 
L 531 3500 
L 1656 3500 
L 1656 2988 
Q 1863 3284 2130 3434 
Q 2397 3584 2719 3584 
Q 3081 3584 3359 3409 
Q 3638 3234 3781 2919 
z
" transform="scale(0.015625)"/>
      <path id="DejaVuSans-Bold-70" d="M 1656 506 
L 1656 -1331 
L 538 -1331 
L 538 3500 
L 1656 3500 
L 1656 2988 
Q 1888 3294 2169 3439 
Q 2450 3584 2816 3584 
Q 3463 3584 3878 3070 
Q 4294 2556 4294 1747 
Q 4294 938 3878 423 
Q 3463 -91 2816 -91 
Q 2450 -91 2169 54 
Q 1888 200 1656 506 
z
M 2400 2772 
Q 2041 2772 1848 2508 
Q 1656 2244 1656 1747 
Q 1656 1250 1848 986 
Q 2041 722 2400 722 
Q 2759 722 2948 984 
Q 3138 1247 3138 1747 
Q 3138 2247 2948 2509 
Q 2759 2772 2400 2772 
z
" transform="scale(0.015625)"/>
      <path id="DejaVuSans-Bold-75" d="M 500 1363 
L 500 3500 
L 1625 3500 
L 1625 3150 
Q 1625 2866 1622 2436 
Q 1619 2006 1619 1863 
Q 1619 1441 1641 1255 
Q 1663 1069 1716 984 
Q 1784 875 1895 815 
Q 2006 756 2150 756 
Q 2500 756 2700 1025 
Q 2900 1294 2900 1772 
L 2900 3500 
L 4019 3500 
L 4019 0 
L 2900 0 
L 2900 506 
Q 2647 200 2364 54 
Q 2081 -91 1741 -91 
Q 1134 -91 817 281 
Q 500 653 500 1363 
z
" transform="scale(0.015625)"/>
      <path id="DejaVuSans-Bold-65" d="M 4031 1759 
L 4031 1441 
L 1416 1441 
Q 1456 1047 1700 850 
Q 1944 653 2381 653 
Q 2734 653 3104 758 
Q 3475 863 3866 1075 
L 3866 213 
Q 3469 63 3072 -14 
Q 2675 -91 2278 -91 
Q 1328 -91 801 392 
Q 275 875 275 1747 
Q 275 2603 792 3093 
Q 1309 3584 2216 3584 
Q 3041 3584 3536 3087 
Q 4031 2591 4031 1759 
z
M 2881 2131 
Q 2881 2450 2695 2645 
Q 2509 2841 2209 2841 
Q 1884 2841 1681 2658 
Q 1478 2475 1428 2131 
L 2881 2131 
z
" transform="scale(0.015625)"/>
      <path id="DejaVuSans-Bold-2c" d="M 653 1209 
L 1778 1209 
L 1778 256 
L 1006 -909 
L 341 -909 
L 653 256 
L 653 1209 
z
" transform="scale(0.015625)"/>
      <path id="DejaVuSans-Bold-28" d="M 2413 -844 
L 1484 -844 
Q 1006 -72 778 623 
Q 550 1319 550 2003 
Q 550 2688 779 3389 
Q 1009 4091 1484 4856 
L 2413 4856 
Q 2013 4116 1813 3408 
Q 1613 2700 1613 2009 
Q 1613 1319 1811 609 
Q 2009 -100 2413 -844 
z
" transform="scale(0.015625)"/>
      <path id="DejaVuSans-Bold-6c" d="M 538 4863 
L 1656 4863 
L 1656 0 
L 538 0 
L 538 4863 
z
" transform="scale(0.015625)"/>
      <path id="DejaVuSans-Bold-66" d="M 2841 4863 
L 2841 4128 
L 2222 4128 
Q 1984 4128 1890 4042 
Q 1797 3956 1797 3744 
L 1797 3500 
L 2753 3500 
L 2753 2700 
L 1797 2700 
L 1797 0 
L 678 0 
L 678 2700 
L 122 2700 
L 122 3500 
L 678 3500 
L 678 3744 
Q 678 4316 997 4589 
Q 1316 4863 1984 4863 
L 2841 4863 
z
" transform="scale(0.015625)"/>
      <path id="DejaVuSans-Bold-2192" d="M 5050 2225 
L 5050 1788 
L 3822 559 
L 3369 1013 
L 3988 1631 
L 366 1631 
L 366 2381 
L 3988 2381 
L 3369 3000 
L 3822 3453 
L 5050 2225 
z
" transform="scale(0.015625)"/>
      <path id="DejaVuSans-Bold-72" d="M 3138 2547 
Q 2991 2616 2845 2648 
Q 2700 2681 2553 2681 
Q 2122 2681 1889 2404 
Q 1656 2128 1656 1613 
L 1656 0 
L 538 0 
L 538 3500 
L 1656 3500 
L 1656 2925 
Q 1872 3269 2151 3426 
Q 2431 3584 2822 3584 
Q 2878 3584 2943 3579 
Q 3009 3575 3134 3559 
L 3138 2547 
z
" transform="scale(0.015625)"/>
      <path id="DejaVuSans-Bold-69" d="M 538 3500 
L 1656 3500 
L 1656 0 
L 538 0 
L 538 3500 
z
M 538 4863 
L 1656 4863 
L 1656 3950 
L 538 3950 
L 538 4863 
z
" transform="scale(0.015625)"/>
      <path id="DejaVuSans-Bold-67" d="M 2919 594 
Q 2688 288 2409 144 
Q 2131 0 1766 0 
Q 1125 0 706 504 
Q 288 1009 288 1791 
Q 288 2575 706 3076 
Q 1125 3578 1766 3578 
Q 2131 3578 2409 3434 
Q 2688 3291 2919 2981 
L 2919 3500 
L 4044 3500 
L 4044 353 
Q 4044 -491 3511 -936 
Q 2978 -1381 1966 -1381 
Q 1638 -1381 1331 -1331 
Q 1025 -1281 716 -1178 
L 716 -306 
Q 1009 -475 1290 -558 
Q 1572 -641 1856 -641 
Q 2406 -641 2662 -400 
Q 2919 -159 2919 353 
L 2919 594 
z
M 2181 2772 
Q 1834 2772 1640 2515 
Q 1447 2259 1447 1791 
Q 1447 1309 1634 1061 
Q 1822 813 2181 813 
Q 2531 813 2725 1069 
Q 2919 1325 2919 1791 
Q 2919 2259 2725 2515 
Q 2531 2772 2181 2772 
z
" transform="scale(0.015625)"/>
      <path id="DejaVuSans-Bold-29" d="M 513 -844 
Q 913 -100 1113 609 
Q 1313 1319 1313 2009 
Q 1313 2700 1113 3408 
Q 913 4116 513 4856 
L 1441 4856 
Q 1916 4091 2145 3389 
Q 2375 2688 2375 2003 
Q 2375 1319 2147 623 
Q 1919 -72 1441 -844 
L 513 -844 
z
" transform="scale(0.015625)"/>
     </defs>
     <use xlink:href="#DejaVuSans-Bold-46"/>
     <use xlink:href="#DejaVuSans-Bold-4f" transform="translate(68.310547 0)"/>
     <use xlink:href="#DejaVuSans-Bold-52" transform="translate(153.320312 0)"/>
     <use xlink:href="#DejaVuSans-Bold-57" transform="translate(230.322266 0)"/>
     <use xlink:href="#DejaVuSans-Bold-41" transform="translate(336.125 0)"/>
     <use xlink:href="#DejaVuSans-Bold-52" transform="translate(413.517578 0)"/>
     <use xlink:href="#DejaVuSans-Bold-44" transform="translate(490.519531 0)"/>
     <use xlink:href="#DejaVuSans-Bold-3a" transform="translate(573.527344 0)"/>
     <use xlink:href="#DejaVuSans-Bold-20" transform="translate(613.517578 0)"/>
     <use xlink:href="#DejaVuSans-Bold-63" transform="translate(648.332031 0)"/>
     <use xlink:href="#DejaVuSans-Bold-6f" transform="translate(707.609375 0)"/>
     <use xlink:href="#DejaVuSans-Bold-6d" transform="translate(776.310547 0)"/>
     <use xlink:href="#DejaVuSans-Bold-70" transform="translate(880.509766 0)"/>
     <use xlink:href="#DejaVuSans-Bold-75" transform="translate(952.091797 0)"/>
     <use xlink:href="#DejaVuSans-Bold-74" transform="translate(1023.283203 0)"/>
     <use xlink:href="#DejaVuSans-Bold-65" transform="translate(1071.085938 0)"/>
     <use xlink:href="#DejaVuSans-Bold-20" transform="translate(1138.908203 0)"/>
     <use xlink:href="#DejaVuSans-Bold-68" transform="translate(1173.722656 0)"/>
     <use xlink:href="#DejaVuSans-Bold-2c" transform="translate(1244.914062 0)"/>
     <use xlink:href="#DejaVuSans-Bold-20" transform="translate(1282.902344 0)"/>
     <use xlink:href="#DejaVuSans-Bold-79" transform="translate(1317.716797 0)"/>
     <use xlink:href="#DejaVuSans-Bold-5f" transform="translate(1382.902344 0)"/>
     <use xlink:href="#DejaVuSans-Bold-68" transform="translate(1432.902344 0)"/>
     <use xlink:href="#DejaVuSans-Bold-61" transform="translate(1504.09375 0)"/>
     <use xlink:href="#DejaVuSans-Bold-74" transform="translate(1571.574219 0)"/>
     <use xlink:href="#DejaVuSans-Bold-2c" transform="translate(1619.376953 0)"/>
     <use xlink:href="#DejaVuSans-Bold-20" transform="translate(1657.365234 0)"/>
     <use xlink:href="#DejaVuSans-Bold-4c" transform="translate(1692.179688 0)"/>
     <use xlink:href="#DejaVuSans-Bold-20" transform="translate(1755.900391 0)"/>
     <use xlink:href="#DejaVuSans-Bold-28" transform="translate(1790.714844 0)"/>
     <use xlink:href="#DejaVuSans-Bold-6c" transform="translate(1836.417969 0)"/>
     <use xlink:href="#DejaVuSans-Bold-65" transform="translate(1870.695312 0)"/>
     <use xlink:href="#DejaVuSans-Bold-66" transform="translate(1938.517578 0)"/>
     <use xlink:href="#DejaVuSans-Bold-74" transform="translate(1982.023438 0)"/>
     <use xlink:href="#DejaVuSans-Bold-2192" transform="translate(2029.826172 0)"/>
     <use xlink:href="#DejaVuSans-Bold-72" transform="translate(2113.615234 0)"/>
     <use xlink:href="#DejaVuSans-Bold-69" transform="translate(2162.931641 0)"/>
     <use xlink:href="#DejaVuSans-Bold-67" transform="translate(2197.208984 0)"/>
     <use xlink:href="#DejaVuSans-Bold-68" transform="translate(2268.791016 0)"/>
     <use xlink:href="#DejaVuSans-Bold-74" transform="translate(2339.982422 0)"/>
     <use xlink:href="#DejaVuSans-Bold-29" transform="translate(2387.785156 0)"/>
    </g>
   </g>
   <g id="patch_18">
    <path d="M 602.145127 49.838961 
Q 326.992812 49.838961 54.076566 49.838961 
" style="fill: none; stroke: #e15759; stroke-width: 2; stroke-linecap: round"/>
    <path d="M 58.076566 51.838961 
L 54.076566 49.838961 
L 58.076566 47.838961 
" style="fill: none; stroke: #e15759; stroke-width: 2; stroke-linecap: round"/>
   </g>
   <g id="text_15">
    <!-- BACKWARD: propagate ∂L/∂(weight) via chain rule (right→left) -->
    <g style="fill: #e15759" transform="translate(134.429473 33.849351) scale(0.11 -0.11)">
     <defs>
      <path id="DejaVuSans-Bold-42" d="M 2456 2859 
Q 2741 2859 2887 2984 
Q 3034 3109 3034 3353 
Q 3034 3594 2887 3720 
Q 2741 3847 2456 3847 
L 1791 3847 
L 1791 2859 
L 2456 2859 
z
M 2497 819 
Q 2859 819 3042 972 
Q 3225 1125 3225 1434 
Q 3225 1738 3044 1889 
Q 2863 2041 2497 2041 
L 1791 2041 
L 1791 819 
L 2497 819 
z
M 3616 2497 
Q 4003 2384 4215 2081 
Q 4428 1778 4428 1338 
Q 4428 663 3972 331 
Q 3516 0 2584 0 
L 588 0 
L 588 4666 
L 2394 4666 
Q 3366 4666 3802 4372 
Q 4238 4078 4238 3431 
Q 4238 3091 4078 2852 
Q 3919 2613 3616 2497 
z
" transform="scale(0.015625)"/>
      <path id="DejaVuSans-Bold-43" d="M 4288 256 
Q 3956 84 3597 -3 
Q 3238 -91 2847 -91 
Q 1681 -91 1000 561 
Q 319 1213 319 2328 
Q 319 3447 1000 4098 
Q 1681 4750 2847 4750 
Q 3238 4750 3597 4662 
Q 3956 4575 4288 4403 
L 4288 3438 
Q 3953 3666 3628 3772 
Q 3303 3878 2944 3878 
Q 2300 3878 1931 3465 
Q 1563 3053 1563 2328 
Q 1563 1606 1931 1193 
Q 2300 781 2944 781 
Q 3303 781 3628 887 
Q 3953 994 4288 1222 
L 4288 256 
z
" transform="scale(0.015625)"/>
      <path id="DejaVuSans-Bold-4b" d="M 588 4666 
L 1791 4666 
L 1791 2963 
L 3525 4666 
L 4922 4666 
L 2675 2456 
L 5153 0 
L 3647 0 
L 1791 1838 
L 1791 0 
L 588 0 
L 588 4666 
z
" transform="scale(0.015625)"/>
      <path id="DejaVuSans-Bold-2202" d="M 950 3516 
L 950 4203 
Q 1406 4316 1738 4316 
Q 2684 4316 3106 3500 
Q 3294 3138 3294 2566 
Q 3294 2213 3206 1803 
Q 2988 781 2397 291 
Q 1938 -91 1428 -91 
Q 897 -91 572 194 
Q 184 538 184 1113 
Q 184 1750 531 2250 
Q 869 2741 1531 2741 
Q 1875 2741 2200 2525 
Q 2322 2444 2497 2188 
Q 2525 2391 2525 2619 
Q 2525 2966 2425 3147 
Q 2128 3681 1606 3681 
Q 1347 3681 950 3516 
z
M 956 1034 
Q 956 806 1081 666 
Q 1209 522 1431 522 
Q 1613 522 1772 634 
Q 1969 772 2122 1025 
Q 2241 1222 2309 1450 
Q 2056 1991 1625 1991 
Q 1219 1991 1059 1553 
Q 956 1275 956 1034 
z
" transform="scale(0.015625)"/>
      <path id="DejaVuSans-Bold-2f" d="M 1644 4666 
L 2338 4666 
L 691 -594 
L 0 -594 
L 1644 4666 
z
" transform="scale(0.015625)"/>
      <path id="DejaVuSans-Bold-77" d="M 225 3500 
L 1313 3500 
L 1900 1088 
L 2491 3500 
L 3425 3500 
L 4013 1113 
L 4603 3500 
L 5691 3500 
L 4769 0 
L 3547 0 
L 2956 2406 
L 2369 0 
L 1147 0 
L 225 3500 
z
" transform="scale(0.015625)"/>
      <path id="DejaVuSans-Bold-76" d="M 97 3500 
L 1216 3500 
L 2088 1081 
L 2956 3500 
L 4078 3500 
L 2700 0 
L 1472 0 
L 97 3500 
z
" transform="scale(0.015625)"/>
      <path id="DejaVuSans-Bold-6e" d="M 4056 2131 
L 4056 0 
L 2931 0 
L 2931 347 
L 2931 1631 
Q 2931 2084 2911 2256 
Q 2891 2428 2841 2509 
Q 2775 2619 2662 2680 
Q 2550 2741 2406 2741 
Q 2056 2741 1856 2470 
Q 1656 2200 1656 1722 
L 1656 0 
L 538 0 
L 538 3500 
L 1656 3500 
L 1656 2988 
Q 1909 3294 2193 3439 
Q 2478 3584 2822 3584 
Q 3428 3584 3742 3212 
Q 4056 2841 4056 2131 
z
" transform="scale(0.015625)"/>
     </defs>
     <use xlink:href="#DejaVuSans-Bold-42"/>
     <use xlink:href="#DejaVuSans-Bold-41" transform="translate(76.220703 0)"/>
     <use xlink:href="#DejaVuSans-Bold-43" transform="translate(153.613281 0)"/>
     <use xlink:href="#DejaVuSans-Bold-4b" transform="translate(227.001953 0)"/>
     <use xlink:href="#DejaVuSans-Bold-57" transform="translate(304.492188 0)"/>
     <use xlink:href="#DejaVuSans-Bold-41" transform="translate(410.294922 0)"/>
     <use xlink:href="#DejaVuSans-Bold-52" transform="translate(487.6875 0)"/>
     <use xlink:href="#DejaVuSans-Bold-44" transform="translate(564.689453 0)"/>
     <use xlink:href="#DejaVuSans-Bold-3a" transform="translate(647.697266 0)"/>
     <use xlink:href="#DejaVuSans-Bold-20" transform="translate(687.6875 0)"/>
     <use xlink:href="#DejaVuSans-Bold-70" transform="translate(722.501953 0)"/>
     <use xlink:href="#DejaVuSans-Bold-72" transform="translate(794.083984 0)"/>
     <use xlink:href="#DejaVuSans-Bold-6f" transform="translate(843.400391 0)"/>
     <use xlink:href="#DejaVuSans-Bold-70" transform="translate(912.101562 0)"/>
     <use xlink:href="#DejaVuSans-Bold-61" transform="translate(983.683594 0)"/>
     <use xlink:href="#DejaVuSans-Bold-67" transform="translate(1051.164062 0)"/>
     <use xlink:href="#DejaVuSans-Bold-61" transform="translate(1122.746094 0)"/>
     <use xlink:href="#DejaVuSans-Bold-74" transform="translate(1190.226562 0)"/>
     <use xlink:href="#DejaVuSans-Bold-65" transform="translate(1238.029297 0)"/>
     <use xlink:href="#DejaVuSans-Bold-20" transform="translate(1305.851562 0)"/>
     <use xlink:href="#DejaVuSans-Bold-2202" transform="translate(1340.666016 0)"/>
     <use xlink:href="#DejaVuSans-Bold-4c" transform="translate(1395.060547 0)"/>
     <use xlink:href="#DejaVuSans-Bold-2f" transform="translate(1458.78125 0)"/>
     <use xlink:href="#DejaVuSans-Bold-2202" transform="translate(1495.304688 0)"/>
     <use xlink:href="#DejaVuSans-Bold-28" transform="translate(1549.699219 0)"/>
     <use xlink:href="#DejaVuSans-Bold-77" transform="translate(1595.402344 0)"/>
     <use xlink:href="#DejaVuSans-Bold-65" transform="translate(1687.785156 0)"/>
     <use xlink:href="#DejaVuSans-Bold-69" transform="translate(1755.607422 0)"/>
     <use xlink:href="#DejaVuSans-Bold-67" transform="translate(1789.884766 0)"/>
     <use xlink:href="#DejaVuSans-Bold-68" transform="translate(1861.466797 0)"/>
     <use xlink:href="#DejaVuSans-Bold-74" transform="translate(1932.658203 0)"/>
     <use xlink:href="#DejaVuSans-Bold-29" transform="translate(1980.460938 0)"/>
     <use xlink:href="#DejaVuSans-Bold-20" transform="translate(2026.164062 0)"/>
     <use xlink:href="#DejaVuSans-Bold-76" transform="translate(2060.978516 0)"/>
     <use xlink:href="#DejaVuSans-Bold-69" transform="translate(2126.164062 0)"/>
     <use xlink:href="#DejaVuSans-Bold-61" transform="translate(2160.441406 0)"/>
     <use xlink:href="#DejaVuSans-Bold-20" transform="translate(2227.921875 0)"/>
     <use xlink:href="#DejaVuSans-Bold-63" transform="translate(2262.736328 0)"/>
     <use xlink:href="#DejaVuSans-Bold-68" transform="translate(2322.013672 0)"/>
     <use xlink:href="#DejaVuSans-Bold-61" transform="translate(2393.205078 0)"/>
     <use xlink:href="#DejaVuSans-Bold-69" transform="translate(2460.685547 0)"/>
     <use xlink:href="#DejaVuSans-Bold-6e" transform="translate(2494.962891 0)"/>
     <use xlink:href="#DejaVuSans-Bold-20" transform="translate(2566.154297 0)"/>
     <use xlink:href="#DejaVuSans-Bold-72" transform="translate(2600.96875 0)"/>
     <use xlink:href="#DejaVuSans-Bold-75" transform="translate(2650.285156 0)"/>
     <use xlink:href="#DejaVuSans-Bold-6c" transform="translate(2721.476562 0)"/>
     <use xlink:href="#DejaVuSans-Bold-65" transform="translate(2755.753906 0)"/>
     <use xlink:href="#DejaVuSans-Bold-20" transform="translate(2823.576172 0)"/>
     <use xlink:href="#DejaVuSans-Bold-28" transform="translate(2858.390625 0)"/>
     <use xlink:href="#DejaVuSans-Bold-72" transform="translate(2904.09375 0)"/>
     <use xlink:href="#DejaVuSans-Bold-69" transform="translate(2953.410156 0)"/>
     <use xlink:href="#DejaVuSans-Bold-67" transform="translate(2987.6875 0)"/>
     <use xlink:href="#DejaVuSans-Bold-68" transform="translate(3059.269531 0)"/>
     <use xlink:href="#DejaVuSans-Bold-74" transform="translate(3130.460938 0)"/>
     <use xlink:href="#DejaVuSans-Bold-2192" transform="translate(3178.263672 0)"/>
     <use xlink:href="#DejaVuSans-Bold-6c" transform="translate(3262.052734 0)"/>
     <use xlink:href="#DejaVuSans-Bold-65" transform="translate(3296.330078 0)"/>
     <use xlink:href="#DejaVuSans-Bold-66" transform="translate(3364.152344 0)"/>
     <use xlink:href="#DejaVuSans-Bold-74" transform="translate(3407.658203 0)"/>
     <use xlink:href="#DejaVuSans-Bold-29" transform="translate(3455.460938 0)"/>
    </g>
   </g>
  </g>
 </g>
 <defs>
  <clipPath id="p3e3bc90474">
   <rect x="7.2" y="7.2" width="639.584416" height="410.4"/>
  </clipPath>
 </defs>
</svg>
