<?xml version="1.0" encoding="utf-8" standalone="no"?>
<!DOCTYPE svg PUBLIC "-//W3C//DTD SVG 1.1//EN"
  "http://www.w3.org/Graphics/SVG/1.1/DTD/svg11.dtd">
<svg xmlns:xlink="http://www.w3.org/1999/xlink" width="532.46125pt" height="315.034375pt" viewBox="0 0 532.46125 315.034375" xmlns="http://www.w3.org/2000/svg" version="1.1">
 <metadata>
  <rdf:RDF xmlns:dc="http://purl.org/dc/elements/1.1/" xmlns:cc="http://creativecommons.org/ns#" xmlns:rdf="http://www.w3.org/1999/02/22-rdf-syntax-ns#">
   <cc:Work>
    <dc:type rdf:resource="http://purl.org/dc/dcmitype/StillImage"/>
    <dc:date>2026-05-26T13:31:05.554710</dc:date>
    <dc:format>image/svg+xml</dc:format>
    <dc:creator>
     <cc:Agent>
      <dc:title>Matplotlib v3.10.8, https://matplotlib.org/</dc:title>
     </cc:Agent>
    </dc:creator>
   </cc:Work>
  </rdf:RDF>
 </metadata>
 <defs>
  <style type="text/css">*{stroke-linejoin: round; stroke-linecap: butt}</style>
 </defs>
 <g id="figure_1">
  <g id="patch_1">
   <path d="M 0 315.034375 
L 532.46125 315.034375 
L 532.46125 0 
L 0 0 
z
" style="fill: #ffffff"/>
  </g>
  <g id="axes_1">
   <g id="patch_2">
    <path d="M 43.78125 277.478125 
L 525.26125 277.478125 
L 525.26125 22.318125 
L 43.78125 22.318125 
z
" style="fill: #ffffff"/>
   </g>
   <g id="matplotlib.axis_1">
    <g id="xtick_1">
     <g id="line2d_1">
      <path d="M 65.228118 277.478125 
L 65.228118 22.318125 
" clip-path="url(#pc21f52ac7f)" style="fill: none; stroke: #b0b0b0; stroke-opacity: 0.25; stroke-width: 0.8; stroke-linecap: square"/>
     </g>
     <g id="line2d_2">
      <defs>
       <path id="maa6ac8df3f" d="M 0 0 
L 0 3.5 
" style="stroke: #000000; stroke-width: 0.8"/>
      </defs>
      <g>
       <use xlink:href="#maa6ac8df3f" x="65.228118" y="277.478125" style="stroke: #000000; stroke-width: 0.8"/>
      </g>
     </g>
     <g id="text_1">
      <!-- 0.0 -->
      <g transform="translate(57.276556 292.076563) scale(0.1 -0.1)">
       <defs>
        <path id="DejaVuSans-30" d="M 2034 4250 
Q 1547 4250 1301 3770 
Q 1056 3291 1056 2328 
Q 1056 1369 1301 889 
Q 1547 409 2034 409 
Q 2525 409 2770 889 
Q 3016 1369 3016 2328 
Q 3016 3291 2770 3770 
Q 2525 4250 2034 4250 
z
M 2034 4750 
Q 2819 4750 3233 4129 
Q 3647 3509 3647 2328 
Q 3647 1150 3233 529 
Q 2819 -91 2034 -91 
Q 1250 -91 836 529 
Q 422 1150 422 2328 
Q 422 3509 836 4129 
Q 1250 4750 2034 4750 
z
" transform="scale(0.015625)"/>
        <path id="DejaVuSans-2e" d="M 684 794 
L 1344 794 
L 1344 0 
L 684 0 
L 684 794 
z
" transform="scale(0.015625)"/>
       </defs>
       <use xlink:href="#DejaVuSans-30"/>
       <use xlink:href="#DejaVuSans-2e" transform="translate(63.623047 0)"/>
       <use xlink:href="#DejaVuSans-30" transform="translate(95.410156 0)"/>
      </g>
     </g>
    </g>
    <g id="xtick_2">
     <g id="line2d_3">
      <path d="M 152.945371 277.478125 
L 152.945371 22.318125 
" clip-path="url(#pc21f52ac7f)" style="fill: none; stroke: #b0b0b0; stroke-opacity: 0.25; stroke-width: 0.8; stroke-linecap: square"/>
     </g>
     <g id="line2d_4">
      <g>
       <use xlink:href="#maa6ac8df3f" x="152.945371" y="277.478125" style="stroke: #000000; stroke-width: 0.8"/>
      </g>
     </g>
     <g id="text_2">
      <!-- 0.2 -->
      <g transform="translate(144.993808 292.076563) scale(0.1 -0.1)">
       <defs>
        <path id="DejaVuSans-32" d="M 1228 531 
L 3431 531 
L 3431 0 
L 469 0 
L 469 531 
Q 828 903 1448 1529 
Q 2069 2156 2228 2338 
Q 2531 2678 2651 2914 
Q 2772 3150 2772 3378 
Q 2772 3750 2511 3984 
Q 2250 4219 1831 4219 
Q 1534 4219 1204 4116 
Q 875 4013 500 3803 
L 500 4441 
Q 881 4594 1212 4672 
Q 1544 4750 1819 4750 
Q 2544 4750 2975 4387 
Q 3406 4025 3406 3419 
Q 3406 3131 3298 2873 
Q 3191 2616 2906 2266 
Q 2828 2175 2409 1742 
Q 1991 1309 1228 531 
z
" transform="scale(0.015625)"/>
       </defs>
       <use xlink:href="#DejaVuSans-30"/>
       <use xlink:href="#DejaVuSans-2e" transform="translate(63.623047 0)"/>
       <use xlink:href="#DejaVuSans-32" transform="translate(95.410156 0)"/>
      </g>
     </g>
    </g>
    <g id="xtick_3">
     <g id="line2d_5">
      <path d="M 240.662624 277.478125 
L 240.662624 22.318125 
" clip-path="url(#pc21f52ac7f)" style="fill: none; stroke: #b0b0b0; stroke-opacity: 0.25; stroke-width: 0.8; stroke-linecap: square"/>
     </g>
     <g id="line2d_6">
      <g>
       <use xlink:href="#maa6ac8df3f" x="240.662624" y="277.478125" style="stroke: #000000; stroke-width: 0.8"/>
      </g>
     </g>
     <g id="text_3">
      <!-- 0.4 -->
      <g transform="translate(232.711061 292.076563) scale(0.1 -0.1)">
       <defs>
        <path id="DejaVuSans-34" d="M 2419 4116 
L 825 1625 
L 2419 1625 
L 2419 4116 
z
M 2253 4666 
L 3047 4666 
L 3047 1625 
L 3713 1625 
L 3713 1100 
L 3047 1100 
L 3047 0 
L 2419 0 
L 2419 1100 
L 313 1100 
L 313 1709 
L 2253 4666 
z
" transform="scale(0.015625)"/>
       </defs>
       <use xlink:href="#DejaVuSans-30"/>
       <use xlink:href="#DejaVuSans-2e" transform="translate(63.623047 0)"/>
       <use xlink:href="#DejaVuSans-34" transform="translate(95.410156 0)"/>
      </g>
     </g>
    </g>
    <g id="xtick_4">
     <g id="line2d_7">
      <path d="M 328.379876 277.478125 
L 328.379876 22.318125 
" clip-path="url(#pc21f52ac7f)" style="fill: none; stroke: #b0b0b0; stroke-opacity: 0.25; stroke-width: 0.8; stroke-linecap: square"/>
     </g>
     <g id="line2d_8">
      <g>
       <use xlink:href="#maa6ac8df3f" x="328.379876" y="277.478125" style="stroke: #000000; stroke-width: 0.8"/>
      </g>
     </g>
     <g id="text_4">
      <!-- 0.6 -->
      <g transform="translate(320.428314 292.076563) scale(0.1 -0.1)">
       <defs>
        <path id="DejaVuSans-36" d="M 2113 2584 
Q 1688 2584 1439 2293 
Q 1191 2003 1191 1497 
Q 1191 994 1439 701 
Q 1688 409 2113 409 
Q 2538 409 2786 701 
Q 3034 994 3034 1497 
Q 3034 2003 2786 2293 
Q 2538 2584 2113 2584 
z
M 3366 4563 
L 3366 3988 
Q 3128 4100 2886 4159 
Q 2644 4219 2406 4219 
Q 1781 4219 1451 3797 
Q 1122 3375 1075 2522 
Q 1259 2794 1537 2939 
Q 1816 3084 2150 3084 
Q 2853 3084 3261 2657 
Q 3669 2231 3669 1497 
Q 3669 778 3244 343 
Q 2819 -91 2113 -91 
Q 1303 -91 875 529 
Q 447 1150 447 2328 
Q 447 3434 972 4092 
Q 1497 4750 2381 4750 
Q 2619 4750 2861 4703 
Q 3103 4656 3366 4563 
z
" transform="scale(0.015625)"/>
       </defs>
       <use xlink:href="#DejaVuSans-30"/>
       <use xlink:href="#DejaVuSans-2e" transform="translate(63.623047 0)"/>
       <use xlink:href="#DejaVuSans-36" transform="translate(95.410156 0)"/>
      </g>
     </g>
    </g>
    <g id="xtick_5">
     <g id="line2d_9">
      <path d="M 416.097129 277.478125 
L 416.097129 22.318125 
" clip-path="url(#pc21f52ac7f)" style="fill: none; stroke: #b0b0b0; stroke-opacity: 0.25; stroke-width: 0.8; stroke-linecap: square"/>
     </g>
     <g id="line2d_10">
      <g>
       <use xlink:href="#maa6ac8df3f" x="416.097129" y="277.478125" style="stroke: #000000; stroke-width: 0.8"/>
      </g>
     </g>
     <g id="text_5">
      <!-- 0.8 -->
      <g transform="translate(408.145567 292.076563) scale(0.1 -0.1)">
       <defs>
        <path id="DejaVuSans-38" d="M 2034 2216 
Q 1584 2216 1326 1975 
Q 1069 1734 1069 1313 
Q 1069 891 1326 650 
Q 1584 409 2034 409 
Q 2484 409 2743 651 
Q 3003 894 3003 1313 
Q 3003 1734 2745 1975 
Q 2488 2216 2034 2216 
z
M 1403 2484 
Q 997 2584 770 2862 
Q 544 3141 544 3541 
Q 544 4100 942 4425 
Q 1341 4750 2034 4750 
Q 2731 4750 3128 4425 
Q 3525 4100 3525 3541 
Q 3525 3141 3298 2862 
Q 3072 2584 2669 2484 
Q 3125 2378 3379 2068 
Q 3634 1759 3634 1313 
Q 3634 634 3220 271 
Q 2806 -91 2034 -91 
Q 1263 -91 848 271 
Q 434 634 434 1313 
Q 434 1759 690 2068 
Q 947 2378 1403 2484 
z
M 1172 3481 
Q 1172 3119 1398 2916 
Q 1625 2713 2034 2713 
Q 2441 2713 2670 2916 
Q 2900 3119 2900 3481 
Q 2900 3844 2670 4047 
Q 2441 4250 2034 4250 
Q 1625 4250 1398 4047 
Q 1172 3844 1172 3481 
z
" transform="scale(0.015625)"/>
       </defs>
       <use xlink:href="#DejaVuSans-30"/>
       <use xlink:href="#DejaVuSans-2e" transform="translate(63.623047 0)"/>
       <use xlink:href="#DejaVuSans-38" transform="translate(95.410156 0)"/>
      </g>
     </g>
    </g>
    <g id="xtick_6">
     <g id="line2d_11">
      <path d="M 503.814382 277.478125 
L 503.814382 22.318125 
" clip-path="url(#pc21f52ac7f)" style="fill: none; stroke: #b0b0b0; stroke-opacity: 0.25; stroke-width: 0.8; stroke-linecap: square"/>
     </g>
     <g id="line2d_12">
      <g>
       <use xlink:href="#maa6ac8df3f" x="503.814382" y="277.478125" style="stroke: #000000; stroke-width: 0.8"/>
      </g>
     </g>
     <g id="text_6">
      <!-- 1.0 -->
      <g transform="translate(495.862819 292.076563) scale(0.1 -0.1)">
       <defs>
        <path id="DejaVuSans-31" d="M 794 531 
L 1825 531 
L 1825 4091 
L 703 3866 
L 703 4441 
L 1819 4666 
L 2450 4666 
L 2450 531 
L 3481 531 
L 3481 0 
L 794 0 
L 794 531 
z
" transform="scale(0.015625)"/>
       </defs>
       <use xlink:href="#DejaVuSans-31"/>
       <use xlink:href="#DejaVuSans-2e" transform="translate(63.623047 0)"/>
       <use xlink:href="#DejaVuSans-30" transform="translate(95.410156 0)"/>
      </g>
     </g>
    </g>
    <g id="text_7">
     <!-- p (probability of class 1) -->
     <g transform="translate(224.000938 305.754687) scale(0.1 -0.1)">
      <defs>
       <path id="DejaVuSans-70" d="M 1159 525 
L 1159 -1331 
L 581 -1331 
L 581 3500 
L 1159 3500 
L 1159 2969 
Q 1341 3281 1617 3432 
Q 1894 3584 2278 3584 
Q 2916 3584 3314 3078 
Q 3713 2572 3713 1747 
Q 3713 922 3314 415 
Q 2916 -91 2278 -91 
Q 1894 -91 1617 61 
Q 1341 213 1159 525 
z
M 3116 1747 
Q 3116 2381 2855 2742 
Q 2594 3103 2138 3103 
Q 1681 3103 1420 2742 
Q 1159 2381 1159 1747 
Q 1159 1113 1420 752 
Q 1681 391 2138 391 
Q 2594 391 2855 752 
Q 3116 1113 3116 1747 
z
" transform="scale(0.015625)"/>
       <path id="DejaVuSans-20" transform="scale(0.015625)"/>
       <path id="DejaVuSans-28" d="M 1984 4856 
Q 1566 4138 1362 3434 
Q 1159 2731 1159 2009 
Q 1159 1288 1364 580 
Q 1569 -128 1984 -844 
L 1484 -844 
Q 1016 -109 783 600 
Q 550 1309 550 2009 
Q 550 2706 781 3412 
Q 1013 4119 1484 4856 
L 1984 4856 
z
" transform="scale(0.015625)"/>
       <path id="DejaVuSans-72" d="M 2631 2963 
Q 2534 3019 2420 3045 
Q 2306 3072 2169 3072 
Q 1681 3072 1420 2755 
Q 1159 2438 1159 1844 
L 1159 0 
L 581 0 
L 581 3500 
L 1159 3500 
L 1159 2956 
Q 1341 3275 1631 3429 
Q 1922 3584 2338 3584 
Q 2397 3584 2469 3576 
Q 2541 3569 2628 3553 
L 2631 2963 
z
" transform="scale(0.015625)"/>
       <path id="DejaVuSans-6f" d="M 1959 3097 
Q 1497 3097 1228 2736 
Q 959 2375 959 1747 
Q 959 1119 1226 758 
Q 1494 397 1959 397 
Q 2419 397 2687 759 
Q 2956 1122 2956 1747 
Q 2956 2369 2687 2733 
Q 2419 3097 1959 3097 
z
M 1959 3584 
Q 2709 3584 3137 3096 
Q 3566 2609 3566 1747 
Q 3566 888 3137 398 
Q 2709 -91 1959 -91 
Q 1206 -91 779 398 
Q 353 888 353 1747 
Q 353 2609 779 3096 
Q 1206 3584 1959 3584 
z
" transform="scale(0.015625)"/>
       <path id="DejaVuSans-62" d="M 3116 1747 
Q 3116 2381 2855 2742 
Q 2594 3103 2138 3103 
Q 1681 3103 1420 2742 
Q 1159 2381 1159 1747 
Q 1159 1113 1420 752 
Q 1681 391 2138 391 
Q 2594 391 2855 752 
Q 3116 1113 3116 1747 
z
M 1159 2969 
Q 1341 3281 1617 3432 
Q 1894 3584 2278 3584 
Q 2916 3584 3314 3078 
Q 3713 2572 3713 1747 
Q 3713 922 3314 415 
Q 2916 -91 2278 -91 
Q 1894 -91 1617 61 
Q 1341 213 1159 525 
L 1159 0 
L 581 0 
L 581 4863 
L 1159 4863 
L 1159 2969 
z
" transform="scale(0.015625)"/>
       <path id="DejaVuSans-61" d="M 2194 1759 
Q 1497 1759 1228 1600 
Q 959 1441 959 1056 
Q 959 750 1161 570 
Q 1363 391 1709 391 
Q 2188 391 2477 730 
Q 2766 1069 2766 1631 
L 2766 1759 
L 2194 1759 
z
M 3341 1997 
L 3341 0 
L 2766 0 
L 2766 531 
Q 2569 213 2275 61 
Q 1981 -91 1556 -91 
Q 1019 -91 701 211 
Q 384 513 384 1019 
Q 384 1609 779 1909 
Q 1175 2209 1959 2209 
L 2766 2209 
L 2766 2266 
Q 2766 2663 2505 2880 
Q 2244 3097 1772 3097 
Q 1472 3097 1187 3025 
Q 903 2953 641 2809 
L 641 3341 
Q 956 3463 1253 3523 
Q 1550 3584 1831 3584 
Q 2591 3584 2966 3190 
Q 3341 2797 3341 1997 
z
" transform="scale(0.015625)"/>
       <path id="DejaVuSans-69" d="M 603 3500 
L 1178 3500 
L 1178 0 
L 603 0 
L 603 3500 
z
M 603 4863 
L 1178 4863 
L 1178 4134 
L 603 4134 
L 603 4863 
z
" transform="scale(0.015625)"/>
       <path id="DejaVuSans-6c" d="M 603 4863 
L 1178 4863 
L 1178 0 
L 603 0 
L 603 4863 
z
" transform="scale(0.015625)"/>
       <path id="DejaVuSans-74" d="M 1172 4494 
L 1172 3500 
L 2356 3500 
L 2356 3053 
L 1172 3053 
L 1172 1153 
Q 1172 725 1289 603 
Q 1406 481 1766 481 
L 2356 481 
L 2356 0 
L 1766 0 
Q 1100 0 847 248 
Q 594 497 594 1153 
L 594 3053 
L 172 3053 
L 172 3500 
L 594 3500 
L 594 4494 
L 1172 4494 
z
" transform="scale(0.015625)"/>
       <path id="DejaVuSans-79" d="M 2059 -325 
Q 1816 -950 1584 -1140 
Q 1353 -1331 966 -1331 
L 506 -1331 
L 506 -850 
L 844 -850 
Q 1081 -850 1212 -737 
Q 1344 -625 1503 -206 
L 1606 56 
L 191 3500 
L 800 3500 
L 1894 763 
L 2988 3500 
L 3597 3500 
L 2059 -325 
z
" transform="scale(0.015625)"/>
       <path id="DejaVuSans-66" d="M 2375 4863 
L 2375 4384 
L 1825 4384 
Q 1516 4384 1395 4259 
Q 1275 4134 1275 3809 
L 1275 3500 
L 2222 3500 
L 2222 3053 
L 1275 3053 
L 1275 0 
L 697 0 
L 697 3053 
L 147 3053 
L 147 3500 
L 697 3500 
L 697 3744 
Q 697 4328 969 4595 
Q 1241 4863 1831 4863 
L 2375 4863 
z
" transform="scale(0.015625)"/>
       <path id="DejaVuSans-63" d="M 3122 3366 
L 3122 2828 
Q 2878 2963 2633 3030 
Q 2388 3097 2138 3097 
Q 1578 3097 1268 2742 
Q 959 2388 959 1747 
Q 959 1106 1268 751 
Q 1578 397 2138 397 
Q 2388 397 2633 464 
Q 2878 531 3122 666 
L 3122 134 
Q 2881 22 2623 -34 
Q 2366 -91 2075 -91 
Q 1284 -91 818 406 
Q 353 903 353 1747 
Q 353 2603 823 3093 
Q 1294 3584 2113 3584 
Q 2378 3584 2631 3529 
Q 2884 3475 3122 3366 
z
" transform="scale(0.015625)"/>
       <path id="DejaVuSans-73" d="M 2834 3397 
L 2834 2853 
Q 2591 2978 2328 3040 
Q 2066 3103 1784 3103 
Q 1356 3103 1142 2972 
Q 928 2841 928 2578 
Q 928 2378 1081 2264 
Q 1234 2150 1697 2047 
L 1894 2003 
Q 2506 1872 2764 1633 
Q 3022 1394 3022 966 
Q 3022 478 2636 193 
Q 2250 -91 1575 -91 
Q 1294 -91 989 -36 
Q 684 19 347 128 
L 347 722 
Q 666 556 975 473 
Q 1284 391 1588 391 
Q 1994 391 2212 530 
Q 2431 669 2431 922 
Q 2431 1156 2273 1281 
Q 2116 1406 1581 1522 
L 1381 1569 
Q 847 1681 609 1914 
Q 372 2147 372 2553 
Q 372 3047 722 3315 
Q 1072 3584 1716 3584 
Q 2034 3584 2315 3537 
Q 2597 3491 2834 3397 
z
" transform="scale(0.015625)"/>
       <path id="DejaVuSans-29" d="M 513 4856 
L 1013 4856 
Q 1481 4119 1714 3412 
Q 1947 2706 1947 2009 
Q 1947 1309 1714 600 
Q 1481 -109 1013 -844 
L 513 -844 
Q 928 -128 1133 580 
Q 1338 1288 1338 2009 
Q 1338 2731 1133 3434 
Q 928 4138 513 4856 
z
" transform="scale(0.015625)"/>
      </defs>
      <use xlink:href="#DejaVuSans-70"/>
      <use xlink:href="#DejaVuSans-20" transform="translate(63.476562 0)"/>
      <use xlink:href="#DejaVuSans-28" transform="translate(95.263672 0)"/>
      <use xlink:href="#DejaVuSans-70" transform="translate(134.277344 0)"/>
      <use xlink:href="#DejaVuSans-72" transform="translate(197.753906 0)"/>
      <use xlink:href="#DejaVuSans-6f" transform="translate(236.617188 0)"/>
      <use xlink:href="#DejaVuSans-62" transform="translate(297.798828 0)"/>
      <use xlink:href="#DejaVuSans-61" transform="translate(361.275391 0)"/>
      <use xlink:href="#DejaVuSans-62" transform="translate(422.554688 0)"/>
      <use xlink:href="#DejaVuSans-69" transform="translate(486.03125 0)"/>
      <use xlink:href="#DejaVuSans-6c" transform="translate(513.814453 0)"/>
      <use xlink:href="#DejaVuSans-69" transform="translate(541.597656 0)"/>
      <use xlink:href="#DejaVuSans-74" transform="translate(569.380859 0)"/>
      <use xlink:href="#DejaVuSans-79" transform="translate(608.589844 0)"/>
      <use xlink:href="#DejaVuSans-20" transform="translate(667.769531 0)"/>
      <use xlink:href="#DejaVuSans-6f" transform="translate(699.556641 0)"/>
      <use xlink:href="#DejaVuSans-66" transform="translate(760.738281 0)"/>
      <use xlink:href="#DejaVuSans-20" transform="translate(795.943359 0)"/>
      <use xlink:href="#DejaVuSans-63" transform="translate(827.730469 0)"/>
      <use xlink:href="#DejaVuSans-6c" transform="translate(882.710938 0)"/>
      <use xlink:href="#DejaVuSans-61" transform="translate(910.494141 0)"/>
      <use xlink:href="#DejaVuSans-73" transform="translate(971.773438 0)"/>
      <use xlink:href="#DejaVuSans-73" transform="translate(1023.873047 0)"/>
      <use xlink:href="#DejaVuSans-20" transform="translate(1075.972656 0)"/>
      <use xlink:href="#DejaVuSans-31" transform="translate(1107.759766 0)"/>
      <use xlink:href="#DejaVuSans-29" transform="translate(1171.382812 0)"/>
     </g>
    </g>
   </g>
   <g id="matplotlib.axis_2">
    <g id="ytick_1">
     <g id="line2d_13">
      <path d="M 43.78125 277.478125 
L 525.26125 277.478125 
" clip-path="url(#pc21f52ac7f)" style="fill: none; stroke: #b0b0b0; stroke-opacity: 0.25; stroke-width: 0.8; stroke-linecap: square"/>
     </g>
     <g id="line2d_14">
      <defs>
       <path id="m30be0e01e1" d="M 0 0 
L -3.5 0 
" style="stroke: #000000; stroke-width: 0.8"/>
      </defs>
      <g>
       <use xlink:href="#m30be0e01e1" x="43.78125" y="277.478125" style="stroke: #000000; stroke-width: 0.8"/>
      </g>
     </g>
     <g id="text_8">
      <!-- 0.0 -->
      <g transform="translate(20.878125 281.277344) scale(0.1 -0.1)">
       <use xlink:href="#DejaVuSans-30"/>
       <use xlink:href="#DejaVuSans-2e" transform="translate(63.623047 0)"/>
       <use xlink:href="#DejaVuSans-30" transform="translate(95.410156 0)"/>
      </g>
     </g>
    </g>
    <g id="ytick_2">
     <g id="line2d_15">
      <path d="M 43.78125 231.085398 
L 525.26125 231.085398 
" clip-path="url(#pc21f52ac7f)" style="fill: none; stroke: #b0b0b0; stroke-opacity: 0.25; stroke-width: 0.8; stroke-linecap: square"/>
     </g>
     <g id="line2d_16">
      <g>
       <use xlink:href="#m30be0e01e1" x="43.78125" y="231.085398" style="stroke: #000000; stroke-width: 0.8"/>
      </g>
     </g>
     <g id="text_9">
      <!-- 0.2 -->
      <g transform="translate(20.878125 234.884616) scale(0.1 -0.1)">
       <use xlink:href="#DejaVuSans-30"/>
       <use xlink:href="#DejaVuSans-2e" transform="translate(63.623047 0)"/>
       <use xlink:href="#DejaVuSans-32" transform="translate(95.410156 0)"/>
      </g>
     </g>
    </g>
    <g id="ytick_3">
     <g id="line2d_17">
      <path d="M 43.78125 184.69267 
L 525.26125 184.69267 
" clip-path="url(#pc21f52ac7f)" style="fill: none; stroke: #b0b0b0; stroke-opacity: 0.25; stroke-width: 0.8; stroke-linecap: square"/>
     </g>
     <g id="line2d_18">
      <g>
       <use xlink:href="#m30be0e01e1" x="43.78125" y="184.69267" style="stroke: #000000; stroke-width: 0.8"/>
      </g>
     </g>
     <g id="text_10">
      <!-- 0.4 -->
      <g transform="translate(20.878125 188.491889) scale(0.1 -0.1)">
       <use xlink:href="#DejaVuSans-30"/>
       <use xlink:href="#DejaVuSans-2e" transform="translate(63.623047 0)"/>
       <use xlink:href="#DejaVuSans-34" transform="translate(95.410156 0)"/>
      </g>
     </g>
    </g>
    <g id="ytick_4">
     <g id="line2d_19">
      <path d="M 43.78125 138.299943 
L 525.26125 138.299943 
" clip-path="url(#pc21f52ac7f)" style="fill: none; stroke: #b0b0b0; stroke-opacity: 0.25; stroke-width: 0.8; stroke-linecap: square"/>
     </g>
     <g id="line2d_20">
      <g>
       <use xlink:href="#m30be0e01e1" x="43.78125" y="138.299943" style="stroke: #000000; stroke-width: 0.8"/>
      </g>
     </g>
     <g id="text_11">
      <!-- 0.6 -->
      <g transform="translate(20.878125 142.099162) scale(0.1 -0.1)">
       <use xlink:href="#DejaVuSans-30"/>
       <use xlink:href="#DejaVuSans-2e" transform="translate(63.623047 0)"/>
       <use xlink:href="#DejaVuSans-36" transform="translate(95.410156 0)"/>
      </g>
     </g>
    </g>
    <g id="ytick_5">
     <g id="line2d_21">
      <path d="M 43.78125 91.907216 
L 525.26125 91.907216 
" clip-path="url(#pc21f52ac7f)" style="fill: none; stroke: #b0b0b0; stroke-opacity: 0.25; stroke-width: 0.8; stroke-linecap: square"/>
     </g>
     <g id="line2d_22">
      <g>
       <use xlink:href="#m30be0e01e1" x="43.78125" y="91.907216" style="stroke: #000000; stroke-width: 0.8"/>
      </g>
     </g>
     <g id="text_12">
      <!-- 0.8 -->
      <g transform="translate(20.878125 95.706435) scale(0.1 -0.1)">
       <use xlink:href="#DejaVuSans-30"/>
       <use xlink:href="#DejaVuSans-2e" transform="translate(63.623047 0)"/>
       <use xlink:href="#DejaVuSans-38" transform="translate(95.410156 0)"/>
      </g>
     </g>
    </g>
    <g id="ytick_6">
     <g id="line2d_23">
      <path d="M 43.78125 45.514489 
L 525.26125 45.514489 
" clip-path="url(#pc21f52ac7f)" style="fill: none; stroke: #b0b0b0; stroke-opacity: 0.25; stroke-width: 0.8; stroke-linecap: square"/>
     </g>
     <g id="line2d_24">
      <g>
       <use xlink:href="#m30be0e01e1" x="43.78125" y="45.514489" style="stroke: #000000; stroke-width: 0.8"/>
      </g>
     </g>
     <g id="text_13">
      <!-- 1.0 -->
      <g transform="translate(20.878125 49.313707) scale(0.1 -0.1)">
       <use xlink:href="#DejaVuSans-31"/>
       <use xlink:href="#DejaVuSans-2e" transform="translate(63.623047 0)"/>
       <use xlink:href="#DejaVuSans-30" transform="translate(95.410156 0)"/>
      </g>
     </g>
    </g>
    <g id="text_14">
     <!-- Entropy H(X) (bits) -->
     <g transform="translate(14.798438 196.616875) rotate(-90) scale(0.1 -0.1)">
      <defs>
       <path id="DejaVuSans-45" d="M 628 4666 
L 3578 4666 
L 3578 4134 
L 1259 4134 
L 1259 2753 
L 3481 2753 
L 3481 2222 
L 1259 2222 
L 1259 531 
L 3634 531 
L 3634 0 
L 628 0 
L 628 4666 
z
" transform="scale(0.015625)"/>
       <path id="DejaVuSans-6e" d="M 3513 2113 
L 3513 0 
L 2938 0 
L 2938 2094 
Q 2938 2591 2744 2837 
Q 2550 3084 2163 3084 
Q 1697 3084 1428 2787 
Q 1159 2491 1159 1978 
L 1159 0 
L 581 0 
L 581 3500 
L 1159 3500 
L 1159 2956 
Q 1366 3272 1645 3428 
Q 1925 3584 2291 3584 
Q 2894 3584 3203 3211 
Q 3513 2838 3513 2113 
z
" transform="scale(0.015625)"/>
       <path id="DejaVuSans-48" d="M 628 4666 
L 1259 4666 
L 1259 2753 
L 3553 2753 
L 3553 4666 
L 4184 4666 
L 4184 0 
L 3553 0 
L 3553 2222 
L 1259 2222 
L 1259 0 
L 628 0 
L 628 4666 
z
" transform="scale(0.015625)"/>
       <path id="DejaVuSans-58" d="M 403 4666 
L 1081 4666 
L 2241 2931 
L 3406 4666 
L 4084 4666 
L 2584 2425 
L 4184 0 
L 3506 0 
L 2194 1984 
L 872 0 
L 191 0 
L 1856 2491 
L 403 4666 
z
" transform="scale(0.015625)"/>
      </defs>
      <use xlink:href="#DejaVuSans-45"/>
      <use xlink:href="#DejaVuSans-6e" transform="translate(63.183594 0)"/>
      <use xlink:href="#DejaVuSans-74" transform="translate(126.5625 0)"/>
      <use xlink:href="#DejaVuSans-72" transform="translate(165.771484 0)"/>
      <use xlink:href="#DejaVuSans-6f" transform="translate(204.634766 0)"/>
      <use xlink:href="#DejaVuSans-70" transform="translate(265.816406 0)"/>
      <use xlink:href="#DejaVuSans-79" transform="translate(329.292969 0)"/>
      <use xlink:href="#DejaVuSans-20" transform="translate(388.472656 0)"/>
      <use xlink:href="#DejaVuSans-48" transform="translate(420.259766 0)"/>
      <use xlink:href="#DejaVuSans-28" transform="translate(495.455078 0)"/>
      <use xlink:href="#DejaVuSans-58" transform="translate(534.46875 0)"/>
      <use xlink:href="#DejaVuSans-29" transform="translate(602.974609 0)"/>
      <use xlink:href="#DejaVuSans-20" transform="translate(641.988281 0)"/>
      <use xlink:href="#DejaVuSans-28" transform="translate(673.775391 0)"/>
      <use xlink:href="#DejaVuSans-62" transform="translate(712.789062 0)"/>
      <use xlink:href="#DejaVuSans-69" transform="translate(776.265625 0)"/>
      <use xlink:href="#DejaVuSans-74" transform="translate(804.048828 0)"/>
      <use xlink:href="#DejaVuSans-73" transform="translate(843.257812 0)"/>
      <use xlink:href="#DejaVuSans-29" transform="translate(895.357422 0)"/>
     </g>
    </g>
   </g>
   <g id="line2d_25">
    <path d="M 65.666705 274.83194 
L 66.76372 269.682916 
L 68.95775 261.077789 
L 71.151781 253.532468 
L 73.345811 246.630715 
L 76.636857 237.120484 
L 79.927903 228.364382 
L 83.218949 220.194776 
L 86.509995 212.50678 
L 90.898056 202.883956 
L 95.286117 193.871881 
L 99.674178 185.386315 
L 104.062239 177.36479 
L 108.4503 169.759159 
L 112.838361 162.531196 
L 118.323437 153.980551 
L 123.808514 145.922595 
L 129.29359 138.317505 
L 134.778666 131.13248 
L 140.263743 124.340076 
L 145.748819 117.917032 
L 151.233895 111.843425 
L 156.718972 106.102029 
L 162.204048 100.67784 
L 167.689124 95.557705 
L 173.174201 90.730027 
L 178.659277 86.184541 
L 184.144353 81.91212 
L 189.62943 77.904632 
L 195.114506 74.15481 
L 200.599582 70.656151 
L 206.084659 67.402835 
L 211.569735 64.389647 
L 217.054811 61.611921 
L 222.539888 59.065489 
L 228.024964 56.746637 
L 233.51004 54.65207 
L 238.995116 52.778877 
L 244.480193 51.124511 
L 249.965269 49.686759 
L 255.450345 48.463732 
L 260.935422 47.453842 
L 266.420498 46.655794 
L 271.905574 46.068572 
L 277.390651 45.691436 
L 282.875727 45.52391 
L 288.360803 45.565786 
L 293.84588 45.817116 
L 299.330956 46.278215 
L 304.816032 46.949664 
L 310.301109 47.832311 
L 315.786185 48.927284 
L 321.271261 50.235994 
L 326.756338 51.760147 
L 332.241414 53.50176 
L 337.72649 55.463177 
L 343.211567 57.647088 
L 348.696643 60.056554 
L 354.181719 62.695033 
L 359.666796 65.566417 
L 365.151872 68.675067 
L 370.636948 72.025862 
L 376.122025 75.624251 
L 381.607101 79.476319 
L 387.092177 83.588862 
L 392.577254 87.96948 
L 398.06233 92.626688 
L 403.547406 97.570047 
L 409.032483 102.810331 
L 414.517559 108.359727 
L 420.002635 114.232092 
L 425.487712 120.443268 
L 430.972788 127.011494 
L 436.457864 133.957943 
L 441.942941 141.307431 
L 447.428017 149.089382 
L 452.913093 157.339171 
L 457.301154 164.304582 
L 461.689215 171.623806 
L 466.077276 179.329496 
L 470.465337 187.46205 
L 474.853399 196.072697 
L 479.24146 205.228478 
L 483.629521 215.020865 
L 486.920566 222.860149 
L 490.211612 231.211364 
L 493.502658 240.195644 
L 496.793704 250.014862 
L 498.987734 257.20811 
L 501.181765 265.199465 
L 502.27878 269.682916 
L 503.375795 274.83194 
L 503.375795 274.83194 
" clip-path="url(#pc21f52ac7f)" style="fill: none; stroke: #7aa6c2; stroke-width: 2.5; stroke-linecap: square"/>
   </g>
   <g id="line2d_26">
    <path d="M 284.52125 277.478125 
L 284.52125 22.318125 
" clip-path="url(#pc21f52ac7f)" style="fill: none; stroke-dasharray: 5.55,2.4; stroke-dashoffset: 0; stroke: #e15759; stroke-width: 1.5"/>
   </g>
   <g id="patch_3">
    <path d="M 43.78125 277.478125 
L 43.78125 22.318125 
" style="fill: none; stroke: #000000; stroke-width: 0.8; stroke-linejoin: miter; stroke-linecap: square"/>
   </g>
   <g id="patch_4">
    <path d="M 525.26125 277.478125 
L 525.26125 22.318125 
" style="fill: none; stroke: #000000; stroke-width: 0.8; stroke-linejoin: miter; stroke-linecap: square"/>
   </g>
   <g id="patch_5">
    <path d="M 43.78125 277.478125 
L 525.26125 277.478125 
" style="fill: none; stroke: #000000; stroke-width: 0.8; stroke-linejoin: miter; stroke-linecap: square"/>
   </g>
   <g id="patch_6">
    <path d="M 43.78125 22.318125 
L 525.26125 22.318125 
" style="fill: none; stroke: #000000; stroke-width: 0.8; stroke-linejoin: miter; stroke-linecap: square"/>
   </g>
   <g id="text_15">
    <!-- Bernoulli entropy: maximum uncertainty at p = 0.5 -->
    <g transform="translate(130.8275 16.318125) scale(0.12 -0.12)">
     <defs>
      <path id="DejaVuSans-42" d="M 1259 2228 
L 1259 519 
L 2272 519 
Q 2781 519 3026 730 
Q 3272 941 3272 1375 
Q 3272 1813 3026 2020 
Q 2781 2228 2272 2228 
L 1259 2228 
z
M 1259 4147 
L 1259 2741 
L 2194 2741 
Q 2656 2741 2882 2914 
Q 3109 3088 3109 3444 
Q 3109 3797 2882 3972 
Q 2656 4147 2194 4147 
L 1259 4147 
z
M 628 4666 
L 2241 4666 
Q 2963 4666 3353 4366 
Q 3744 4066 3744 3513 
Q 3744 3084 3544 2831 
Q 3344 2578 2956 2516 
Q 3422 2416 3680 2098 
Q 3938 1781 3938 1306 
Q 3938 681 3513 340 
Q 3088 0 2303 0 
L 628 0 
L 628 4666 
z
" transform="scale(0.015625)"/>
      <path id="DejaVuSans-65" d="M 3597 1894 
L 3597 1613 
L 953 1613 
Q 991 1019 1311 708 
Q 1631 397 2203 397 
Q 2534 397 2845 478 
Q 3156 559 3463 722 
L 3463 178 
Q 3153 47 2828 -22 
Q 2503 -91 2169 -91 
Q 1331 -91 842 396 
Q 353 884 353 1716 
Q 353 2575 817 3079 
Q 1281 3584 2069 3584 
Q 2775 3584 3186 3129 
Q 3597 2675 3597 1894 
z
M 3022 2063 
Q 3016 2534 2758 2815 
Q 2500 3097 2075 3097 
Q 1594 3097 1305 2825 
Q 1016 2553 972 2059 
L 3022 2063 
z
" transform="scale(0.015625)"/>
      <path id="DejaVuSans-75" d="M 544 1381 
L 544 3500 
L 1119 3500 
L 1119 1403 
Q 1119 906 1312 657 
Q 1506 409 1894 409 
Q 2359 409 2629 706 
Q 2900 1003 2900 1516 
L 2900 3500 
L 3475 3500 
L 3475 0 
L 2900 0 
L 2900 538 
Q 2691 219 2414 64 
Q 2138 -91 1772 -91 
Q 1169 -91 856 284 
Q 544 659 544 1381 
z
M 1991 3584 
L 1991 3584 
z
" transform="scale(0.015625)"/>
      <path id="DejaVuSans-3a" d="M 750 794 
L 1409 794 
L 1409 0 
L 750 0 
L 750 794 
z
M 750 3309 
L 1409 3309 
L 1409 2516 
L 750 2516 
L 750 3309 
z
" transform="scale(0.015625)"/>
      <path id="DejaVuSans-6d" d="M 3328 2828 
Q 3544 3216 3844 3400 
Q 4144 3584 4550 3584 
Q 5097 3584 5394 3201 
Q 5691 2819 5691 2113 
L 5691 0 
L 5113 0 
L 5113 2094 
Q 5113 2597 4934 2840 
Q 4756 3084 4391 3084 
Q 3944 3084 3684 2787 
Q 3425 2491 3425 1978 
L 3425 0 
L 2847 0 
L 2847 2094 
Q 2847 2600 2669 2842 
Q 2491 3084 2119 3084 
Q 1678 3084 1418 2786 
Q 1159 2488 1159 1978 
L 1159 0 
L 581 0 
L 581 3500 
L 1159 3500 
L 1159 2956 
Q 1356 3278 1631 3431 
Q 1906 3584 2284 3584 
Q 2666 3584 2933 3390 
Q 3200 3197 3328 2828 
z
" transform="scale(0.015625)"/>
      <path id="DejaVuSans-78" d="M 3513 3500 
L 2247 1797 
L 3578 0 
L 2900 0 
L 1881 1375 
L 863 0 
L 184 0 
L 1544 1831 
L 300 3500 
L 978 3500 
L 1906 2253 
L 2834 3500 
L 3513 3500 
z
" transform="scale(0.015625)"/>
      <path id="DejaVuSans-3d" d="M 678 2906 
L 4684 2906 
L 4684 2381 
L 678 2381 
L 678 2906 
z
M 678 1631 
L 4684 1631 
L 4684 1100 
L 678 1100 
L 678 1631 
z
" transform="scale(0.015625)"/>
      <path id="DejaVuSans-35" d="M 691 4666 
L 3169 4666 
L 3169 4134 
L 1269 4134 
L 1269 2991 
Q 1406 3038 1543 3061 
Q 1681 3084 1819 3084 
Q 2600 3084 3056 2656 
Q 3513 2228 3513 1497 
Q 3513 744 3044 326 
Q 2575 -91 1722 -91 
Q 1428 -91 1123 -41 
Q 819 9 494 109 
L 494 744 
Q 775 591 1075 516 
Q 1375 441 1709 441 
Q 2250 441 2565 725 
Q 2881 1009 2881 1497 
Q 2881 1984 2565 2268 
Q 2250 2553 1709 2553 
Q 1456 2553 1204 2497 
Q 953 2441 691 2322 
L 691 4666 
z
" transform="scale(0.015625)"/>
     </defs>
     <use xlink:href="#DejaVuSans-42"/>
     <use xlink:href="#DejaVuSans-65" transform="translate(68.603516 0)"/>
     <use xlink:href="#DejaVuSans-72" transform="translate(130.126953 0)"/>
     <use xlink:href="#DejaVuSans-6e" transform="translate(169.490234 0)"/>
     <use xlink:href="#DejaVuSans-6f" transform="translate(232.869141 0)"/>
     <use xlink:href="#DejaVuSans-75" transform="translate(294.050781 0)"/>
     <use xlink:href="#DejaVuSans-6c" transform="translate(357.429688 0)"/>
     <use xlink:href="#DejaVuSans-6c" transform="translate(385.212891 0)"/>
     <use xlink:href="#DejaVuSans-69" transform="translate(412.996094 0)"/>
     <use xlink:href="#DejaVuSans-20" transform="translate(440.779297 0)"/>
     <use xlink:href="#DejaVuSans-65" transform="translate(472.566406 0)"/>
     <use xlink:href="#DejaVuSans-6e" transform="translate(534.089844 0)"/>
     <use xlink:href="#DejaVuSans-74" transform="translate(597.46875 0)"/>
     <use xlink:href="#DejaVuSans-72" transform="translate(636.677734 0)"/>
     <use xlink:href="#DejaVuSans-6f" transform="translate(675.541016 0)"/>
     <use xlink:href="#DejaVuSans-70" transform="translate(736.722656 0)"/>
     <use xlink:href="#DejaVuSans-79" transform="translate(800.199219 0)"/>
     <use xlink:href="#DejaVuSans-3a" transform="translate(852.128906 0)"/>
     <use xlink:href="#DejaVuSans-20" transform="translate(885.820312 0)"/>
     <use xlink:href="#DejaVuSans-6d" transform="translate(917.607422 0)"/>
     <use xlink:href="#DejaVuSans-61" transform="translate(1015.019531 0)"/>
     <use xlink:href="#DejaVuSans-78" transform="translate(1076.298828 0)"/>
     <use xlink:href="#DejaVuSans-69" transform="translate(1135.478516 0)"/>
     <use xlink:href="#DejaVuSans-6d" transform="translate(1163.261719 0)"/>
     <use xlink:href="#DejaVuSans-75" transform="translate(1260.673828 0)"/>
     <use xlink:href="#DejaVuSans-6d" transform="translate(1324.052734 0)"/>
     <use xlink:href="#DejaVuSans-20" transform="translate(1421.464844 0)"/>
     <use xlink:href="#DejaVuSans-75" transform="translate(1453.251953 0)"/>
     <use xlink:href="#DejaVuSans-6e" transform="translate(1516.630859 0)"/>
     <use xlink:href="#DejaVuSans-63" transform="translate(1580.009766 0)"/>
     <use xlink:href="#DejaVuSans-65" transform="translate(1634.990234 0)"/>
     <use xlink:href="#DejaVuSans-72" transform="translate(1696.513672 0)"/>
     <use xlink:href="#DejaVuSans-74" transform="translate(1737.626953 0)"/>
     <use xlink:href="#DejaVuSans-61" transform="translate(1776.835938 0)"/>
     <use xlink:href="#DejaVuSans-69" transform="translate(1838.115234 0)"/>
     <use xlink:href="#DejaVuSans-6e" transform="translate(1865.898438 0)"/>
     <use xlink:href="#DejaVuSans-74" transform="translate(1929.277344 0)"/>
     <use xlink:href="#DejaVuSans-79" transform="translate(1968.486328 0)"/>
     <use xlink:href="#DejaVuSans-20" transform="translate(2027.666016 0)"/>
     <use xlink:href="#DejaVuSans-61" transform="translate(2059.453125 0)"/>
     <use xlink:href="#DejaVuSans-74" transform="translate(2120.732422 0)"/>
     <use xlink:href="#DejaVuSans-20" transform="translate(2159.941406 0)"/>
     <use xlink:href="#DejaVuSans-70" transform="translate(2191.728516 0)"/>
     <use xlink:href="#DejaVuSans-20" transform="translate(2255.205078 0)"/>
     <use xlink:href="#DejaVuSans-3d" transform="translate(2286.992188 0)"/>
     <use xlink:href="#DejaVuSans-20" transform="translate(2370.78125 0)"/>
     <use xlink:href="#DejaVuSans-30" transform="translate(2402.568359 0)"/>
     <use xlink:href="#DejaVuSans-2e" transform="translate(2466.191406 0)"/>
     <use xlink:href="#DejaVuSans-35" transform="translate(2497.978516 0)"/>
    </g>
   </g>
   <g id="PathCollection_1">
    <defs>
     <path id="m3be2dacb96" d="M 0 5 
C 1.326016 5 2.597899 4.473168 3.535534 3.535534 
C 4.473168 2.597899 5 1.326016 5 0 
C 5 -1.326016 4.473168 -2.597899 3.535534 -3.535534 
C 2.597899 -4.473168 1.326016 -5 0 -5 
C -1.326016 -5 -2.597899 -4.473168 -3.535534 -3.535534 
C -4.473168 -2.597899 -5 -1.326016 -5 0 
C -5 1.326016 -4.473168 2.597899 -3.535534 3.535534 
C -2.597899 4.473168 -1.326016 5 0 5 
z
" style="stroke: #e15759"/>
    </defs>
    <g clip-path="url(#pc21f52ac7f)">
     <use xlink:href="#m3be2dacb96" x="284.52125" y="45.514489" style="fill: #e15759; stroke: #e15759"/>
    </g>
   </g>
   <g id="legend_1">
    <g id="patch_7">
     <path d="M 375.576875 56.194063 
L 518.26125 56.194063 
Q 520.26125 56.194063 520.26125 54.194063 
L 520.26125 29.318125 
Q 520.26125 27.318125 518.26125 27.318125 
L 375.576875 27.318125 
Q 373.576875 27.318125 373.576875 29.318125 
L 373.576875 54.194063 
Q 373.576875 56.194063 375.576875 56.194063 
z
" style="fill: #ffffff; opacity: 0.8; stroke: #cccccc; stroke-linejoin: miter"/>
    </g>
    <g id="line2d_27">
     <path d="M 377.576875 42.055313 
L 387.576875 42.055313 
L 397.576875 42.055313 
" style="fill: none; stroke-dasharray: 5.55,2.4; stroke-dashoffset: 0; stroke: #e15759; stroke-width: 1.5"/>
    </g>
    <g id="text_16">
     <!-- max entropy at p=0.5 -->
     <g transform="translate(405.576875 38.916562) scale(0.1 -0.1)">
      <use xlink:href="#DejaVuSans-6d"/>
      <use xlink:href="#DejaVuSans-61" transform="translate(97.412109 0)"/>
      <use xlink:href="#DejaVuSans-78" transform="translate(158.691406 0)"/>
      <use xlink:href="#DejaVuSans-20" transform="translate(217.871094 0)"/>
      <use xlink:href="#DejaVuSans-65" transform="translate(249.658203 0)"/>
      <use xlink:href="#DejaVuSans-6e" transform="translate(311.181641 0)"/>
      <use xlink:href="#DejaVuSans-74" transform="translate(374.560547 0)"/>
      <use xlink:href="#DejaVuSans-72" transform="translate(413.769531 0)"/>
      <use xlink:href="#DejaVuSans-6f" transform="translate(452.632812 0)"/>
      <use xlink:href="#DejaVuSans-70" transform="translate(513.814453 0)"/>
      <use xlink:href="#DejaVuSans-79" transform="translate(577.291016 0)"/>
      <use xlink:href="#DejaVuSans-20" transform="translate(636.470703 0)"/>
      <use xlink:href="#DejaVuSans-61" transform="translate(668.257812 0)"/>
      <use xlink:href="#DejaVuSans-74" transform="translate(729.537109 0)"/>
      <use xlink:href="#DejaVuSans-20" transform="translate(768.746094 0)"/>
      <use xlink:href="#DejaVuSans-70" transform="translate(800.533203 0)"/>
      <use xlink:href="#DejaVuSans-3d" transform="translate(864.009766 0)"/>
      <use xlink:href="#DejaVuSans-30" transform="translate(947.798828 0)"/>
      <use xlink:href="#DejaVuSans-2e" transform="translate(1011.421875 0)"/>
      <use xlink:href="#DejaVuSans-35" transform="translate(1043.208984 0)"/>
     </g>
     <!-- (H = 1 bit) -->
     <g transform="translate(405.576875 50.114375) scale(0.1 -0.1)">
      <use xlink:href="#DejaVuSans-28"/>
      <use xlink:href="#DejaVuSans-48" transform="translate(39.013672 0)"/>
      <use xlink:href="#DejaVuSans-20" transform="translate(114.208984 0)"/>
      <use xlink:href="#DejaVuSans-3d" transform="translate(145.996094 0)"/>
      <use xlink:href="#DejaVuSans-20" transform="translate(229.785156 0)"/>
      <use xlink:href="#DejaVuSans-31" transform="translate(261.572266 0)"/>
      <use xlink:href="#DejaVuSans-20" transform="translate(325.195312 0)"/>
      <use xlink:href="#DejaVuSans-62" transform="translate(356.982422 0)"/>
      <use xlink:href="#DejaVuSans-69" transform="translate(420.458984 0)"/>
      <use xlink:href="#DejaVuSans-74" transform="translate(448.242188 0)"/>
      <use xlink:href="#DejaVuSans-29" transform="translate(487.451172 0)"/>
     </g>
    </g>
   </g>
  </g>
 </g>
 <defs>
  <clipPath id="pc21f52ac7f">
   <rect x="43.78125" y="22.318125" width="481.48" height="255.16"/>
  </clipPath>
 </defs>
</svg>
