<svg xmlns="http://www.w3.org/2000/svg" width="360" height="300" viewBox="0 0 360 300">
<rect width="100%" height="100%" fill="white"/>
<text x="180" y="18" font-size="12" text-anchor="middle" font-family="sans-serif">Monotonic (nonlinear) example</text>
<text x="180" y="34" font-size="10" text-anchor="middle" font-family="sans-serif" fill="#555">Rank correlation is high</text>
<rect x="40" y="40" width="280" height="220" fill="none" stroke="#333" stroke-width="0.8"/>
<line x1="86.66666666666666" y1="40" x2="86.66666666666666" y2="260" stroke="#eee" stroke-width="0.6"/>
<line x1="40" y1="76.66666666666666" x2="320" y2="76.66666666666666" stroke="#eee" stroke-width="0.6"/>
<line x1="133.33333333333331" y1="40" x2="133.33333333333331" y2="260" stroke="#eee" stroke-width="0.6"/>
<line x1="40" y1="113.33333333333333" x2="320" y2="113.33333333333333" stroke="#eee" stroke-width="0.6"/>
<line x1="180.0" y1="40" x2="180.0" y2="260" stroke="#eee" stroke-width="0.6"/>
<line x1="40" y1="150.0" x2="320" y2="150.0" stroke="#eee" stroke-width="0.6"/>
<line x1="226.66666666666666" y1="40" x2="226.66666666666666" y2="260" stroke="#eee" stroke-width="0.6"/>
<line x1="40" y1="186.66666666666666" x2="320" y2="186.66666666666666" stroke="#eee" stroke-width="0.6"/>
<line x1="273.33333333333337" y1="40" x2="273.33333333333337" y2="260" stroke="#eee" stroke-width="0.6"/>
<line x1="40" y1="223.33333333333334" x2="320" y2="223.33333333333334" stroke="#eee" stroke-width="0.6"/>
<circle cx="98.10" cy="169.73" r="2" fill="#54A24B" fill-opacity="0.7"/>
<circle cx="125.14" cy="171.36" r="2" fill="#54A24B" fill-opacity="0.7"/>
<circle cx="178.98" cy="162.65" r="2" fill="#54A24B" fill-opacity="0.7"/>
<circle cx="244.67" cy="131.73" r="2" fill="#54A24B" fill-opacity="0.7"/>
<circle cx="89.02" cy="172.15" r="2" fill="#54A24B" fill-opacity="0.7"/>
<circle cx="164.94" cy="147.09" r="2" fill="#54A24B" fill-opacity="0.7"/>
<circle cx="238.75" cy="129.46" r="2" fill="#54A24B" fill-opacity="0.7"/>
<circle cx="229.62" cy="143.49" r="2" fill="#54A24B" fill-opacity="0.7"/>
<circle cx="119.24" cy="143.13" r="2" fill="#54A24B" fill-opacity="0.7"/>
<circle cx="74.85" cy="217.33" r="2" fill="#54A24B" fill-opacity="0.7"/>
<circle cx="73.70" cy="233.66" r="2" fill="#54A24B" fill-opacity="0.7"/>
<circle cx="153.39" cy="156.56" r="2" fill="#54A24B" fill-opacity="0.7"/>
<circle cx="116.52" cy="165.32" r="2" fill="#54A24B" fill-opacity="0.7"/>
<circle cx="117.66" cy="161.60" r="2" fill="#54A24B" fill-opacity="0.7"/>
<circle cx="166.09" cy="156.82" r="2" fill="#54A24B" fill-opacity="0.7"/>
<circle cx="119.71" cy="161.26" r="2" fill="#54A24B" fill-opacity="0.7"/>
<circle cx="117.01" cy="170.39" r="2" fill="#54A24B" fill-opacity="0.7"/>
<circle cx="72.81" cy="212.37" r="2" fill="#54A24B" fill-opacity="0.7"/>
<circle cx="255.62" cy="139.76" r="2" fill="#54A24B" fill-opacity="0.7"/>
<circle cx="109.64" cy="172.74" r="2" fill="#54A24B" fill-opacity="0.7"/>
<circle cx="290.33" cy="76.93" r="2" fill="#54A24B" fill-opacity="0.7"/>
<circle cx="142.52" cy="156.33" r="2" fill="#54A24B" fill-opacity="0.7"/>
<circle cx="229.61" cy="148.82" r="2" fill="#54A24B" fill-opacity="0.7"/>
<circle cx="162.55" cy="171.16" r="2" fill="#54A24B" fill-opacity="0.7"/>
<circle cx="253.93" cy="132.65" r="2" fill="#54A24B" fill-opacity="0.7"/>
<circle cx="199.62" cy="156.44" r="2" fill="#54A24B" fill-opacity="0.7"/>
<circle cx="265.68" cy="110.99" r="2" fill="#54A24B" fill-opacity="0.7"/>
<circle cx="199.94" cy="158.53" r="2" fill="#54A24B" fill-opacity="0.7"/>
<circle cx="75.73" cy="208.42" r="2" fill="#54A24B" fill-opacity="0.7"/>
<circle cx="160.81" cy="134.01" r="2" fill="#54A24B" fill-opacity="0.7"/>
<circle cx="106.75" cy="184.13" r="2" fill="#54A24B" fill-opacity="0.7"/>
<circle cx="219.08" cy="151.19" r="2" fill="#54A24B" fill-opacity="0.7"/>
<circle cx="151.93" cy="161.28" r="2" fill="#54A24B" fill-opacity="0.7"/>
<circle cx="242.37" cy="133.25" r="2" fill="#54A24B" fill-opacity="0.7"/>
<circle cx="184.69" cy="158.32" r="2" fill="#54A24B" fill-opacity="0.7"/>
<circle cx="74.62" cy="204.47" r="2" fill="#54A24B" fill-opacity="0.7"/>
<circle cx="77.74" cy="213.38" r="2" fill="#54A24B" fill-opacity="0.7"/>
<circle cx="200.87" cy="174.61" r="2" fill="#54A24B" fill-opacity="0.7"/>
<circle cx="156.17" cy="145.51" r="2" fill="#54A24B" fill-opacity="0.7"/>
<circle cx="287.99" cy="74.77" r="2" fill="#54A24B" fill-opacity="0.7"/>
<circle cx="240.60" cy="156.01" r="2" fill="#54A24B" fill-opacity="0.7"/>
<circle cx="120.01" cy="165.75" r="2" fill="#54A24B" fill-opacity="0.7"/>
<circle cx="183.08" cy="138.49" r="2" fill="#54A24B" fill-opacity="0.7"/>
<circle cx="170.85" cy="153.58" r="2" fill="#54A24B" fill-opacity="0.7"/>
<circle cx="128.32" cy="179.17" r="2" fill="#54A24B" fill-opacity="0.7"/>
<circle cx="69.28" cy="227.68" r="2" fill="#54A24B" fill-opacity="0.7"/>
<circle cx="243.54" cy="128.42" r="2" fill="#54A24B" fill-opacity="0.7"/>
<circle cx="233.87" cy="159.11" r="2" fill="#54A24B" fill-opacity="0.7"/>
<circle cx="249.25" cy="144.35" r="2" fill="#54A24B" fill-opacity="0.7"/>
<circle cx="163.44" cy="151.61" r="2" fill="#54A24B" fill-opacity="0.7"/>
<circle cx="80.57" cy="193.15" r="2" fill="#54A24B" fill-opacity="0.7"/>
<circle cx="112.76" cy="174.55" r="2" fill="#54A24B" fill-opacity="0.7"/>
<circle cx="181.06" cy="158.57" r="2" fill="#54A24B" fill-opacity="0.7"/>
<circle cx="145.52" cy="151.32" r="2" fill="#54A24B" fill-opacity="0.7"/>
<circle cx="188.62" cy="158.98" r="2" fill="#54A24B" fill-opacity="0.7"/>
<circle cx="170.62" cy="158.88" r="2" fill="#54A24B" fill-opacity="0.7"/>
<circle cx="74.27" cy="210.97" r="2" fill="#54A24B" fill-opacity="0.7"/>
<circle cx="198.92" cy="143.97" r="2" fill="#54A24B" fill-opacity="0.7"/>
<circle cx="260.87" cy="117.49" r="2" fill="#54A24B" fill-opacity="0.7"/>
<circle cx="250.88" cy="147.03" r="2" fill="#54A24B" fill-opacity="0.7"/>
<circle cx="125.19" cy="151.12" r="2" fill="#54A24B" fill-opacity="0.7"/>
<circle cx="86.64" cy="203.96" r="2" fill="#54A24B" fill-opacity="0.7"/>
<circle cx="71.74" cy="200.91" r="2" fill="#54A24B" fill-opacity="0.7"/>
<circle cx="123.90" cy="157.81" r="2" fill="#54A24B" fill-opacity="0.7"/>
<circle cx="92.53" cy="190.90" r="2" fill="#54A24B" fill-opacity="0.7"/>
<circle cx="83.57" cy="202.75" r="2" fill="#54A24B" fill-opacity="0.7"/>
<circle cx="103.76" cy="178.61" r="2" fill="#54A24B" fill-opacity="0.7"/>
<circle cx="129.13" cy="157.82" r="2" fill="#54A24B" fill-opacity="0.7"/>
<circle cx="227.40" cy="152.20" r="2" fill="#54A24B" fill-opacity="0.7"/>
<circle cx="174.12" cy="147.74" r="2" fill="#54A24B" fill-opacity="0.7"/>
<circle cx="73.29" cy="220.67" r="2" fill="#54A24B" fill-opacity="0.7"/>
<circle cx="110.12" cy="161.55" r="2" fill="#54A24B" fill-opacity="0.7"/>
<circle cx="92.36" cy="176.28" r="2" fill="#54A24B" fill-opacity="0.7"/>
<circle cx="114.84" cy="170.89" r="2" fill="#54A24B" fill-opacity="0.7"/>
<circle cx="203.67" cy="148.54" r="2" fill="#54A24B" fill-opacity="0.7"/>
<circle cx="72.00" cy="217.47" r="2" fill="#54A24B" fill-opacity="0.7"/>
<circle cx="100.81" cy="176.98" r="2" fill="#54A24B" fill-opacity="0.7"/>
<circle cx="225.83" cy="150.29" r="2" fill="#54A24B" fill-opacity="0.7"/>
<circle cx="219.91" cy="152.90" r="2" fill="#54A24B" fill-opacity="0.7"/>
<circle cx="286.53" cy="88.68" r="2" fill="#54A24B" fill-opacity="0.7"/>
<circle cx="246.71" cy="140.98" r="2" fill="#54A24B" fill-opacity="0.7"/>
<circle cx="213.27" cy="148.76" r="2" fill="#54A24B" fill-opacity="0.7"/>
<circle cx="156.46" cy="157.85" r="2" fill="#54A24B" fill-opacity="0.7"/>
<circle cx="209.33" cy="152.38" r="2" fill="#54A24B" fill-opacity="0.7"/>
<circle cx="81.17" cy="207.62" r="2" fill="#54A24B" fill-opacity="0.7"/>
<circle cx="264.12" cy="96.00" r="2" fill="#54A24B" fill-opacity="0.7"/>
<circle cx="136.63" cy="149.28" r="2" fill="#54A24B" fill-opacity="0.7"/>
<circle cx="278.40" cy="106.40" r="2" fill="#54A24B" fill-opacity="0.7"/>
<circle cx="234.62" cy="147.54" r="2" fill="#54A24B" fill-opacity="0.7"/>
<circle cx="69.90" cy="216.15" r="2" fill="#54A24B" fill-opacity="0.7"/>
<circle cx="264.83" cy="101.65" r="2" fill="#54A24B" fill-opacity="0.7"/>
<circle cx="283.53" cy="88.07" r="2" fill="#54A24B" fill-opacity="0.7"/>
<circle cx="195.74" cy="141.07" r="2" fill="#54A24B" fill-opacity="0.7"/>
<circle cx="286.13" cy="71.37" r="2" fill="#54A24B" fill-opacity="0.7"/>
<circle cx="225.70" cy="153.94" r="2" fill="#54A24B" fill-opacity="0.7"/>
<circle cx="145.71" cy="152.60" r="2" fill="#54A24B" fill-opacity="0.7"/>
<circle cx="114.09" cy="169.42" r="2" fill="#54A24B" fill-opacity="0.7"/>
<circle cx="111.48" cy="175.47" r="2" fill="#54A24B" fill-opacity="0.7"/>
<circle cx="91.39" cy="190.18" r="2" fill="#54A24B" fill-opacity="0.7"/>
<circle cx="179.96" cy="156.63" r="2" fill="#54A24B" fill-opacity="0.7"/>
<circle cx="140.88" cy="139.52" r="2" fill="#54A24B" fill-opacity="0.7"/>
<circle cx="72.05" cy="229.85" r="2" fill="#54A24B" fill-opacity="0.7"/>
<circle cx="112.99" cy="178.39" r="2" fill="#54A24B" fill-opacity="0.7"/>
<circle cx="243.32" cy="112.88" r="2" fill="#54A24B" fill-opacity="0.7"/>
<circle cx="143.96" cy="149.28" r="2" fill="#54A24B" fill-opacity="0.7"/>
<circle cx="255.65" cy="114.04" r="2" fill="#54A24B" fill-opacity="0.7"/>
<circle cx="276.81" cy="113.19" r="2" fill="#54A24B" fill-opacity="0.7"/>
<circle cx="221.91" cy="130.39" r="2" fill="#54A24B" fill-opacity="0.7"/>
<circle cx="176.53" cy="143.33" r="2" fill="#54A24B" fill-opacity="0.7"/>
<circle cx="230.50" cy="143.89" r="2" fill="#54A24B" fill-opacity="0.7"/>
<circle cx="86.97" cy="182.28" r="2" fill="#54A24B" fill-opacity="0.7"/>
<circle cx="115.70" cy="146.22" r="2" fill="#54A24B" fill-opacity="0.7"/>
<circle cx="238.04" cy="154.01" r="2" fill="#54A24B" fill-opacity="0.7"/>
<circle cx="150.46" cy="161.70" r="2" fill="#54A24B" fill-opacity="0.7"/>
<circle cx="144.22" cy="157.11" r="2" fill="#54A24B" fill-opacity="0.7"/>
<circle cx="203.29" cy="131.53" r="2" fill="#54A24B" fill-opacity="0.7"/>
<circle cx="281.76" cy="91.24" r="2" fill="#54A24B" fill-opacity="0.7"/>
<circle cx="191.46" cy="153.14" r="2" fill="#54A24B" fill-opacity="0.7"/>
<circle cx="91.36" cy="182.89" r="2" fill="#54A24B" fill-opacity="0.7"/>
<circle cx="262.02" cy="120.33" r="2" fill="#54A24B" fill-opacity="0.7"/>
<circle cx="244.54" cy="132.01" r="2" fill="#54A24B" fill-opacity="0.7"/>
<circle cx="205.80" cy="156.48" r="2" fill="#54A24B" fill-opacity="0.7"/>
<circle cx="243.15" cy="145.45" r="2" fill="#54A24B" fill-opacity="0.7"/>
<circle cx="118.11" cy="154.11" r="2" fill="#54A24B" fill-opacity="0.7"/>
<circle cx="86.31" cy="194.95" r="2" fill="#54A24B" fill-opacity="0.7"/>
<circle cx="194.44" cy="130.66" r="2" fill="#54A24B" fill-opacity="0.7"/>
<circle cx="275.22" cy="112.07" r="2" fill="#54A24B" fill-opacity="0.7"/>
<circle cx="244.29" cy="134.19" r="2" fill="#54A24B" fill-opacity="0.7"/>
<circle cx="253.42" cy="115.73" r="2" fill="#54A24B" fill-opacity="0.7"/>
<circle cx="88.54" cy="188.88" r="2" fill="#54A24B" fill-opacity="0.7"/>
<circle cx="93.78" cy="181.49" r="2" fill="#54A24B" fill-opacity="0.7"/>
<circle cx="121.68" cy="162.09" r="2" fill="#54A24B" fill-opacity="0.7"/>
<circle cx="289.35" cy="85.75" r="2" fill="#54A24B" fill-opacity="0.7"/>
<circle cx="105.49" cy="169.43" r="2" fill="#54A24B" fill-opacity="0.7"/>
<circle cx="122.08" cy="160.30" r="2" fill="#54A24B" fill-opacity="0.7"/>
<circle cx="272.01" cy="113.61" r="2" fill="#54A24B" fill-opacity="0.7"/>
<circle cx="152.73" cy="131.33" r="2" fill="#54A24B" fill-opacity="0.7"/>
<circle cx="133.86" cy="158.86" r="2" fill="#54A24B" fill-opacity="0.7"/>
<circle cx="124.76" cy="162.96" r="2" fill="#54A24B" fill-opacity="0.7"/>
<circle cx="214.06" cy="147.33" r="2" fill="#54A24B" fill-opacity="0.7"/>
<circle cx="76.87" cy="181.21" r="2" fill="#54A24B" fill-opacity="0.7"/>
<circle cx="134.20" cy="153.29" r="2" fill="#54A24B" fill-opacity="0.7"/>
<circle cx="201.63" cy="157.03" r="2" fill="#54A24B" fill-opacity="0.7"/>
<circle cx="82.10" cy="196.51" r="2" fill="#54A24B" fill-opacity="0.7"/>
<circle cx="272.60" cy="84.74" r="2" fill="#54A24B" fill-opacity="0.7"/>
<circle cx="92.95" cy="189.01" r="2" fill="#54A24B" fill-opacity="0.7"/>
<circle cx="116.20" cy="182.48" r="2" fill="#54A24B" fill-opacity="0.7"/>
<circle cx="189.61" cy="167.24" r="2" fill="#54A24B" fill-opacity="0.7"/>
<circle cx="222.15" cy="149.82" r="2" fill="#54A24B" fill-opacity="0.7"/>
<circle cx="189.32" cy="156.00" r="2" fill="#54A24B" fill-opacity="0.7"/>
<circle cx="136.84" cy="154.11" r="2" fill="#54A24B" fill-opacity="0.7"/>
<circle cx="130.90" cy="152.40" r="2" fill="#54A24B" fill-opacity="0.7"/>
<circle cx="288.28" cy="96.35" r="2" fill="#54A24B" fill-opacity="0.7"/>
<circle cx="212.14" cy="143.99" r="2" fill="#54A24B" fill-opacity="0.7"/>
<circle cx="278.72" cy="105.84" r="2" fill="#54A24B" fill-opacity="0.7"/>
<circle cx="141.30" cy="148.04" r="2" fill="#54A24B" fill-opacity="0.7"/>
<circle cx="138.95" cy="142.49" r="2" fill="#54A24B" fill-opacity="0.7"/>
<circle cx="135.83" cy="170.40" r="2" fill="#54A24B" fill-opacity="0.7"/>
<circle cx="142.89" cy="164.26" r="2" fill="#54A24B" fill-opacity="0.7"/>
<circle cx="201.50" cy="152.79" r="2" fill="#54A24B" fill-opacity="0.7"/>
<circle cx="122.90" cy="152.92" r="2" fill="#54A24B" fill-opacity="0.7"/>
<circle cx="84.20" cy="195.02" r="2" fill="#54A24B" fill-opacity="0.7"/>
<circle cx="191.47" cy="146.65" r="2" fill="#54A24B" fill-opacity="0.7"/>
<circle cx="210.33" cy="146.98" r="2" fill="#54A24B" fill-opacity="0.7"/>
<circle cx="133.14" cy="152.57" r="2" fill="#54A24B" fill-opacity="0.7"/>
<circle cx="261.23" cy="132.33" r="2" fill="#54A24B" fill-opacity="0.7"/>
<circle cx="102.54" cy="190.58" r="2" fill="#54A24B" fill-opacity="0.7"/>
<circle cx="85.27" cy="194.52" r="2" fill="#54A24B" fill-opacity="0.7"/>
<circle cx="280.63" cy="89.46" r="2" fill="#54A24B" fill-opacity="0.7"/>
<circle cx="288.62" cy="69.06" r="2" fill="#54A24B" fill-opacity="0.7"/>
<circle cx="252.03" cy="132.35" r="2" fill="#54A24B" fill-opacity="0.7"/>
<circle cx="183.22" cy="146.05" r="2" fill="#54A24B" fill-opacity="0.7"/>
<circle cx="273.94" cy="111.97" r="2" fill="#54A24B" fill-opacity="0.7"/>
<circle cx="99.74" cy="158.30" r="2" fill="#54A24B" fill-opacity="0.7"/>
<circle cx="271.95" cy="101.59" r="2" fill="#54A24B" fill-opacity="0.7"/>
<circle cx="270.29" cy="109.99" r="2" fill="#54A24B" fill-opacity="0.7"/>
<circle cx="248.06" cy="118.88" r="2" fill="#54A24B" fill-opacity="0.7"/>
<circle cx="235.15" cy="150.93" r="2" fill="#54A24B" fill-opacity="0.7"/>
<circle cx="222.47" cy="141.74" r="2" fill="#54A24B" fill-opacity="0.7"/>
<circle cx="103.37" cy="164.71" r="2" fill="#54A24B" fill-opacity="0.7"/>
<circle cx="228.12" cy="147.64" r="2" fill="#54A24B" fill-opacity="0.7"/>
<circle cx="82.43" cy="204.57" r="2" fill="#54A24B" fill-opacity="0.7"/>
<circle cx="283.80" cy="87.48" r="2" fill="#54A24B" fill-opacity="0.7"/>
<circle cx="189.27" cy="160.76" r="2" fill="#54A24B" fill-opacity="0.7"/>
<circle cx="258.69" cy="133.37" r="2" fill="#54A24B" fill-opacity="0.7"/>
<circle cx="143.86" cy="149.80" r="2" fill="#54A24B" fill-opacity="0.7"/>
<circle cx="125.79" cy="145.25" r="2" fill="#54A24B" fill-opacity="0.7"/>
<circle cx="161.34" cy="148.32" r="2" fill="#54A24B" fill-opacity="0.7"/>
<circle cx="195.82" cy="141.86" r="2" fill="#54A24B" fill-opacity="0.7"/>
<circle cx="98.98" cy="174.49" r="2" fill="#54A24B" fill-opacity="0.7"/>
<circle cx="96.03" cy="181.89" r="2" fill="#54A24B" fill-opacity="0.7"/>
<circle cx="157.11" cy="133.43" r="2" fill="#54A24B" fill-opacity="0.7"/>
<circle cx="157.84" cy="155.65" r="2" fill="#54A24B" fill-opacity="0.7"/>
<circle cx="69.67" cy="224.43" r="2" fill="#54A24B" fill-opacity="0.7"/>
<circle cx="186.43" cy="163.25" r="2" fill="#54A24B" fill-opacity="0.7"/>
<circle cx="166.18" cy="150.21" r="2" fill="#54A24B" fill-opacity="0.7"/>
<circle cx="221.78" cy="146.98" r="2" fill="#54A24B" fill-opacity="0.7"/>
<circle cx="178.90" cy="156.72" r="2" fill="#54A24B" fill-opacity="0.7"/>
<circle cx="175.26" cy="148.53" r="2" fill="#54A24B" fill-opacity="0.7"/>
<circle cx="193.53" cy="140.54" r="2" fill="#54A24B" fill-opacity="0.7"/>
</svg>
