<svg xmlns="http://www.w3.org/2000/svg" width="900" height="300" viewBox="0 0 900 300">
<rect width="100%" height="100%" fill="white"/>
<text x="450" y="22" font-size="14" text-anchor="middle" font-family="sans-serif">Pearson Correlation Examples</text>
<rect x="30" y="50" width="260" height="220" fill="none" stroke="#333" stroke-width="0.8"/>
<text x="160.0" y="44" font-size="11" text-anchor="middle" font-family="sans-serif">Positive</text>
<line x1="73.33333333333334" y1="50" x2="73.33333333333334" y2="270" stroke="#eee" stroke-width="0.6"/>
<line x1="30" y1="86.66666666666666" x2="290" y2="86.66666666666666" stroke="#eee" stroke-width="0.6"/>
<line x1="116.66666666666667" y1="50" x2="116.66666666666667" y2="270" stroke="#eee" stroke-width="0.6"/>
<line x1="30" y1="123.33333333333333" x2="290" y2="123.33333333333333" stroke="#eee" stroke-width="0.6"/>
<line x1="160.0" y1="50" x2="160.0" y2="270" stroke="#eee" stroke-width="0.6"/>
<line x1="30" y1="160.0" x2="290" y2="160.0" stroke="#eee" stroke-width="0.6"/>
<line x1="203.33333333333334" y1="50" x2="203.33333333333334" y2="270" stroke="#eee" stroke-width="0.6"/>
<line x1="30" y1="196.66666666666666" x2="290" y2="196.66666666666666" stroke="#eee" stroke-width="0.6"/>
<line x1="246.66666666666666" y1="50" x2="246.66666666666666" y2="270" stroke="#eee" stroke-width="0.6"/>
<line x1="30" y1="233.33333333333334" x2="290" y2="233.33333333333334" stroke="#eee" stroke-width="0.6"/>
<circle cx="200.81" cy="157.98" r="2" fill="#4C78A8" fill-opacity="0.7"/>
<circle cx="130.55" cy="173.15" r="2" fill="#4C78A8" fill-opacity="0.7"/>
<circle cx="115.96" cy="191.14" r="2" fill="#4C78A8" fill-opacity="0.7"/>
<circle cx="167.77" cy="169.98" r="2" fill="#4C78A8" fill-opacity="0.7"/>
<circle cx="103.28" cy="194.84" r="2" fill="#4C78A8" fill-opacity="0.7"/>
<circle cx="203.04" cy="142.73" r="2" fill="#4C78A8" fill-opacity="0.7"/>
<circle cx="145.54" cy="139.62" r="2" fill="#4C78A8" fill-opacity="0.7"/>
<circle cx="135.78" cy="185.82" r="2" fill="#4C78A8" fill-opacity="0.7"/>
<circle cx="264.18" cy="117.55" r="2" fill="#4C78A8" fill-opacity="0.7"/>
<circle cx="194.51" cy="173.37" r="2" fill="#4C78A8" fill-opacity="0.7"/>
<circle cx="134.13" cy="149.94" r="2" fill="#4C78A8" fill-opacity="0.7"/>
<circle cx="212.93" cy="140.69" r="2" fill="#4C78A8" fill-opacity="0.7"/>
<circle cx="140.34" cy="171.84" r="2" fill="#4C78A8" fill-opacity="0.7"/>
<circle cx="105.48" cy="186.78" r="2" fill="#4C78A8" fill-opacity="0.7"/>
<circle cx="256.53" cy="119.50" r="2" fill="#4C78A8" fill-opacity="0.7"/>
<circle cx="74.13" cy="212.84" r="2" fill="#4C78A8" fill-opacity="0.7"/>
<circle cx="154.84" cy="130.41" r="2" fill="#4C78A8" fill-opacity="0.7"/>
<circle cx="153.05" cy="165.63" r="2" fill="#4C78A8" fill-opacity="0.7"/>
<circle cx="151.73" cy="183.76" r="2" fill="#4C78A8" fill-opacity="0.7"/>
<circle cx="189.16" cy="164.53" r="2" fill="#4C78A8" fill-opacity="0.7"/>
<circle cx="210.55" cy="125.63" r="2" fill="#4C78A8" fill-opacity="0.7"/>
<circle cx="181.82" cy="155.36" r="2" fill="#4C78A8" fill-opacity="0.7"/>
<circle cx="120.12" cy="153.99" r="2" fill="#4C78A8" fill-opacity="0.7"/>
<circle cx="180.30" cy="124.13" r="2" fill="#4C78A8" fill-opacity="0.7"/>
<circle cx="168.11" cy="106.63" r="2" fill="#4C78A8" fill-opacity="0.7"/>
<circle cx="175.49" cy="168.39" r="2" fill="#4C78A8" fill-opacity="0.7"/>
<circle cx="193.30" cy="129.66" r="2" fill="#4C78A8" fill-opacity="0.7"/>
<circle cx="59.42" cy="230.21" r="2" fill="#4C78A8" fill-opacity="0.7"/>
<circle cx="202.48" cy="116.56" r="2" fill="#4C78A8" fill-opacity="0.7"/>
<circle cx="145.29" cy="192.19" r="2" fill="#4C78A8" fill-opacity="0.7"/>
<circle cx="181.29" cy="166.60" r="2" fill="#4C78A8" fill-opacity="0.7"/>
<circle cx="217.40" cy="126.76" r="2" fill="#4C78A8" fill-opacity="0.7"/>
<circle cx="119.92" cy="197.54" r="2" fill="#4C78A8" fill-opacity="0.7"/>
<circle cx="124.86" cy="194.07" r="2" fill="#4C78A8" fill-opacity="0.7"/>
<circle cx="128.09" cy="188.55" r="2" fill="#4C78A8" fill-opacity="0.7"/>
<circle cx="170.36" cy="142.05" r="2" fill="#4C78A8" fill-opacity="0.7"/>
<circle cx="111.89" cy="210.01" r="2" fill="#4C78A8" fill-opacity="0.7"/>
<circle cx="141.40" cy="171.42" r="2" fill="#4C78A8" fill-opacity="0.7"/>
<circle cx="164.23" cy="194.61" r="2" fill="#4C78A8" fill-opacity="0.7"/>
<circle cx="233.84" cy="126.34" r="2" fill="#4C78A8" fill-opacity="0.7"/>
<circle cx="238.74" cy="131.49" r="2" fill="#4C78A8" fill-opacity="0.7"/>
<circle cx="118.22" cy="192.89" r="2" fill="#4C78A8" fill-opacity="0.7"/>
<circle cx="150.35" cy="180.68" r="2" fill="#4C78A8" fill-opacity="0.7"/>
<circle cx="191.85" cy="171.48" r="2" fill="#4C78A8" fill-opacity="0.7"/>
<circle cx="205.72" cy="144.05" r="2" fill="#4C78A8" fill-opacity="0.7"/>
<circle cx="214.24" cy="130.78" r="2" fill="#4C78A8" fill-opacity="0.7"/>
<circle cx="99.37" cy="192.81" r="2" fill="#4C78A8" fill-opacity="0.7"/>
<circle cx="256.64" cy="95.54" r="2" fill="#4C78A8" fill-opacity="0.7"/>
<circle cx="164.83" cy="164.05" r="2" fill="#4C78A8" fill-opacity="0.7"/>
<circle cx="122.02" cy="199.49" r="2" fill="#4C78A8" fill-opacity="0.7"/>
<circle cx="102.77" cy="224.57" r="2" fill="#4C78A8" fill-opacity="0.7"/>
<circle cx="163.07" cy="128.22" r="2" fill="#4C78A8" fill-opacity="0.7"/>
<circle cx="182.67" cy="135.97" r="2" fill="#4C78A8" fill-opacity="0.7"/>
<circle cx="170.77" cy="168.55" r="2" fill="#4C78A8" fill-opacity="0.7"/>
<circle cx="168.03" cy="162.29" r="2" fill="#4C78A8" fill-opacity="0.7"/>
<circle cx="200.63" cy="109.94" r="2" fill="#4C78A8" fill-opacity="0.7"/>
<circle cx="214.33" cy="116.51" r="2" fill="#4C78A8" fill-opacity="0.7"/>
<circle cx="205.23" cy="141.52" r="2" fill="#4C78A8" fill-opacity="0.7"/>
<circle cx="155.74" cy="166.75" r="2" fill="#4C78A8" fill-opacity="0.7"/>
<circle cx="120.87" cy="205.27" r="2" fill="#4C78A8" fill-opacity="0.7"/>
<circle cx="121.65" cy="194.35" r="2" fill="#4C78A8" fill-opacity="0.7"/>
<circle cx="76.67" cy="178.93" r="2" fill="#4C78A8" fill-opacity="0.7"/>
<circle cx="168.83" cy="153.16" r="2" fill="#4C78A8" fill-opacity="0.7"/>
<circle cx="186.89" cy="144.64" r="2" fill="#4C78A8" fill-opacity="0.7"/>
<circle cx="181.22" cy="136.78" r="2" fill="#4C78A8" fill-opacity="0.7"/>
<circle cx="191.94" cy="179.31" r="2" fill="#4C78A8" fill-opacity="0.7"/>
<circle cx="205.17" cy="126.67" r="2" fill="#4C78A8" fill-opacity="0.7"/>
<circle cx="187.01" cy="133.25" r="2" fill="#4C78A8" fill-opacity="0.7"/>
<circle cx="171.40" cy="126.27" r="2" fill="#4C78A8" fill-opacity="0.7"/>
<circle cx="143.90" cy="161.56" r="2" fill="#4C78A8" fill-opacity="0.7"/>
<circle cx="147.72" cy="168.43" r="2" fill="#4C78A8" fill-opacity="0.7"/>
<circle cx="264.06" cy="57.18" r="2" fill="#4C78A8" fill-opacity="0.7"/>
<circle cx="172.78" cy="134.94" r="2" fill="#4C78A8" fill-opacity="0.7"/>
<circle cx="150.46" cy="201.23" r="2" fill="#4C78A8" fill-opacity="0.7"/>
<circle cx="183.02" cy="149.89" r="2" fill="#4C78A8" fill-opacity="0.7"/>
<circle cx="107.23" cy="237.98" r="2" fill="#4C78A8" fill-opacity="0.7"/>
<circle cx="220.80" cy="109.03" r="2" fill="#4C78A8" fill-opacity="0.7"/>
<circle cx="182.39" cy="158.70" r="2" fill="#4C78A8" fill-opacity="0.7"/>
<circle cx="159.75" cy="135.46" r="2" fill="#4C78A8" fill-opacity="0.7"/>
<circle cx="134.88" cy="172.97" r="2" fill="#4C78A8" fill-opacity="0.7"/>
<circle cx="116.20" cy="186.31" r="2" fill="#4C78A8" fill-opacity="0.7"/>
<circle cx="113.14" cy="200.92" r="2" fill="#4C78A8" fill-opacity="0.7"/>
<circle cx="144.66" cy="154.42" r="2" fill="#4C78A8" fill-opacity="0.7"/>
<circle cx="177.24" cy="160.21" r="2" fill="#4C78A8" fill-opacity="0.7"/>
<circle cx="153.64" cy="165.39" r="2" fill="#4C78A8" fill-opacity="0.7"/>
<circle cx="157.93" cy="177.97" r="2" fill="#4C78A8" fill-opacity="0.7"/>
<circle cx="193.75" cy="132.94" r="2" fill="#4C78A8" fill-opacity="0.7"/>
<circle cx="166.64" cy="110.23" r="2" fill="#4C78A8" fill-opacity="0.7"/>
<circle cx="138.61" cy="162.38" r="2" fill="#4C78A8" fill-opacity="0.7"/>
<circle cx="93.48" cy="170.66" r="2" fill="#4C78A8" fill-opacity="0.7"/>
<circle cx="119.72" cy="206.29" r="2" fill="#4C78A8" fill-opacity="0.7"/>
<circle cx="150.80" cy="183.98" r="2" fill="#4C78A8" fill-opacity="0.7"/>
<circle cx="106.01" cy="182.93" r="2" fill="#4C78A8" fill-opacity="0.7"/>
<circle cx="188.32" cy="140.71" r="2" fill="#4C78A8" fill-opacity="0.7"/>
<circle cx="143.78" cy="159.28" r="2" fill="#4C78A8" fill-opacity="0.7"/>
<circle cx="132.52" cy="192.19" r="2" fill="#4C78A8" fill-opacity="0.7"/>
<circle cx="199.81" cy="149.80" r="2" fill="#4C78A8" fill-opacity="0.7"/>
<circle cx="122.24" cy="176.03" r="2" fill="#4C78A8" fill-opacity="0.7"/>
<circle cx="146.56" cy="187.31" r="2" fill="#4C78A8" fill-opacity="0.7"/>
<circle cx="152.97" cy="169.59" r="2" fill="#4C78A8" fill-opacity="0.7"/>
<circle cx="128.39" cy="176.62" r="2" fill="#4C78A8" fill-opacity="0.7"/>
<circle cx="189.08" cy="121.53" r="2" fill="#4C78A8" fill-opacity="0.7"/>
<circle cx="104.54" cy="195.66" r="2" fill="#4C78A8" fill-opacity="0.7"/>
<circle cx="163.10" cy="195.92" r="2" fill="#4C78A8" fill-opacity="0.7"/>
<circle cx="122.54" cy="184.82" r="2" fill="#4C78A8" fill-opacity="0.7"/>
<circle cx="82.84" cy="205.34" r="2" fill="#4C78A8" fill-opacity="0.7"/>
<circle cx="216.06" cy="145.76" r="2" fill="#4C78A8" fill-opacity="0.7"/>
<circle cx="223.54" cy="51.51" r="2" fill="#4C78A8" fill-opacity="0.7"/>
<circle cx="147.87" cy="173.89" r="2" fill="#4C78A8" fill-opacity="0.7"/>
<circle cx="140.49" cy="226.52" r="2" fill="#4C78A8" fill-opacity="0.7"/>
<circle cx="106.75" cy="180.07" r="2" fill="#4C78A8" fill-opacity="0.7"/>
<circle cx="147.87" cy="156.59" r="2" fill="#4C78A8" fill-opacity="0.7"/>
<circle cx="159.39" cy="161.64" r="2" fill="#4C78A8" fill-opacity="0.7"/>
<circle cx="183.44" cy="164.30" r="2" fill="#4C78A8" fill-opacity="0.7"/>
<circle cx="177.82" cy="142.62" r="2" fill="#4C78A8" fill-opacity="0.7"/>
<circle cx="107.86" cy="225.36" r="2" fill="#4C78A8" fill-opacity="0.7"/>
<circle cx="137.51" cy="125.31" r="2" fill="#4C78A8" fill-opacity="0.7"/>
<circle cx="228.71" cy="92.32" r="2" fill="#4C78A8" fill-opacity="0.7"/>
<circle cx="145.78" cy="165.06" r="2" fill="#4C78A8" fill-opacity="0.7"/>
<circle cx="152.64" cy="145.09" r="2" fill="#4C78A8" fill-opacity="0.7"/>
<circle cx="182.65" cy="179.83" r="2" fill="#4C78A8" fill-opacity="0.7"/>
<circle cx="195.15" cy="119.67" r="2" fill="#4C78A8" fill-opacity="0.7"/>
<circle cx="136.64" cy="189.56" r="2" fill="#4C78A8" fill-opacity="0.7"/>
<circle cx="184.26" cy="154.25" r="2" fill="#4C78A8" fill-opacity="0.7"/>
<circle cx="172.40" cy="150.99" r="2" fill="#4C78A8" fill-opacity="0.7"/>
<circle cx="136.73" cy="197.02" r="2" fill="#4C78A8" fill-opacity="0.7"/>
<circle cx="256.59" cy="108.89" r="2" fill="#4C78A8" fill-opacity="0.7"/>
<circle cx="170.71" cy="155.63" r="2" fill="#4C78A8" fill-opacity="0.7"/>
<circle cx="159.63" cy="188.75" r="2" fill="#4C78A8" fill-opacity="0.7"/>
<circle cx="121.68" cy="209.91" r="2" fill="#4C78A8" fill-opacity="0.7"/>
<circle cx="210.73" cy="140.70" r="2" fill="#4C78A8" fill-opacity="0.7"/>
<circle cx="122.54" cy="168.99" r="2" fill="#4C78A8" fill-opacity="0.7"/>
<circle cx="175.09" cy="126.25" r="2" fill="#4C78A8" fill-opacity="0.7"/>
<circle cx="184.76" cy="142.65" r="2" fill="#4C78A8" fill-opacity="0.7"/>
<circle cx="121.71" cy="157.89" r="2" fill="#4C78A8" fill-opacity="0.7"/>
<circle cx="152.26" cy="181.58" r="2" fill="#4C78A8" fill-opacity="0.7"/>
<circle cx="150.87" cy="169.84" r="2" fill="#4C78A8" fill-opacity="0.7"/>
<circle cx="223.24" cy="72.68" r="2" fill="#4C78A8" fill-opacity="0.7"/>
<circle cx="149.32" cy="149.42" r="2" fill="#4C78A8" fill-opacity="0.7"/>
<circle cx="125.55" cy="187.90" r="2" fill="#4C78A8" fill-opacity="0.7"/>
<circle cx="128.22" cy="179.65" r="2" fill="#4C78A8" fill-opacity="0.7"/>
<circle cx="186.02" cy="138.94" r="2" fill="#4C78A8" fill-opacity="0.7"/>
<circle cx="143.56" cy="172.14" r="2" fill="#4C78A8" fill-opacity="0.7"/>
<circle cx="128.27" cy="172.13" r="2" fill="#4C78A8" fill-opacity="0.7"/>
<circle cx="142.95" cy="167.26" r="2" fill="#4C78A8" fill-opacity="0.7"/>
<circle cx="201.25" cy="143.36" r="2" fill="#4C78A8" fill-opacity="0.7"/>
<circle cx="224.03" cy="158.84" r="2" fill="#4C78A8" fill-opacity="0.7"/>
<circle cx="132.53" cy="161.18" r="2" fill="#4C78A8" fill-opacity="0.7"/>
<circle cx="145.77" cy="188.01" r="2" fill="#4C78A8" fill-opacity="0.7"/>
<circle cx="137.38" cy="147.02" r="2" fill="#4C78A8" fill-opacity="0.7"/>
<circle cx="236.67" cy="133.46" r="2" fill="#4C78A8" fill-opacity="0.7"/>
<circle cx="130.59" cy="192.63" r="2" fill="#4C78A8" fill-opacity="0.7"/>
<circle cx="221.06" cy="122.83" r="2" fill="#4C78A8" fill-opacity="0.7"/>
<circle cx="176.69" cy="145.60" r="2" fill="#4C78A8" fill-opacity="0.7"/>
<circle cx="159.99" cy="166.52" r="2" fill="#4C78A8" fill-opacity="0.7"/>
<circle cx="203.30" cy="129.78" r="2" fill="#4C78A8" fill-opacity="0.7"/>
<circle cx="113.06" cy="194.16" r="2" fill="#4C78A8" fill-opacity="0.7"/>
<circle cx="102.68" cy="197.06" r="2" fill="#4C78A8" fill-opacity="0.7"/>
<circle cx="140.47" cy="190.58" r="2" fill="#4C78A8" fill-opacity="0.7"/>
<circle cx="72.38" cy="179.00" r="2" fill="#4C78A8" fill-opacity="0.7"/>
<circle cx="154.85" cy="131.79" r="2" fill="#4C78A8" fill-opacity="0.7"/>
<circle cx="122.92" cy="177.86" r="2" fill="#4C78A8" fill-opacity="0.7"/>
<circle cx="239.62" cy="91.81" r="2" fill="#4C78A8" fill-opacity="0.7"/>
<circle cx="132.20" cy="216.64" r="2" fill="#4C78A8" fill-opacity="0.7"/>
<circle cx="97.85" cy="193.82" r="2" fill="#4C78A8" fill-opacity="0.7"/>
<circle cx="192.03" cy="125.77" r="2" fill="#4C78A8" fill-opacity="0.7"/>
<circle cx="163.37" cy="152.53" r="2" fill="#4C78A8" fill-opacity="0.7"/>
<circle cx="188.62" cy="144.73" r="2" fill="#4C78A8" fill-opacity="0.7"/>
<circle cx="177.45" cy="138.50" r="2" fill="#4C78A8" fill-opacity="0.7"/>
<circle cx="120.74" cy="170.59" r="2" fill="#4C78A8" fill-opacity="0.7"/>
<circle cx="235.38" cy="64.30" r="2" fill="#4C78A8" fill-opacity="0.7"/>
<circle cx="184.42" cy="144.58" r="2" fill="#4C78A8" fill-opacity="0.7"/>
<circle cx="105.69" cy="181.34" r="2" fill="#4C78A8" fill-opacity="0.7"/>
<circle cx="196.43" cy="150.25" r="2" fill="#4C78A8" fill-opacity="0.7"/>
<circle cx="193.16" cy="145.61" r="2" fill="#4C78A8" fill-opacity="0.7"/>
<circle cx="109.08" cy="194.26" r="2" fill="#4C78A8" fill-opacity="0.7"/>
<circle cx="145.99" cy="180.28" r="2" fill="#4C78A8" fill-opacity="0.7"/>
<circle cx="136.51" cy="184.10" r="2" fill="#4C78A8" fill-opacity="0.7"/>
<circle cx="100.35" cy="160.73" r="2" fill="#4C78A8" fill-opacity="0.7"/>
<circle cx="224.43" cy="136.45" r="2" fill="#4C78A8" fill-opacity="0.7"/>
<circle cx="183.95" cy="141.49" r="2" fill="#4C78A8" fill-opacity="0.7"/>
<circle cx="156.72" cy="130.15" r="2" fill="#4C78A8" fill-opacity="0.7"/>
<circle cx="191.41" cy="159.01" r="2" fill="#4C78A8" fill-opacity="0.7"/>
<circle cx="144.36" cy="203.18" r="2" fill="#4C78A8" fill-opacity="0.7"/>
<circle cx="176.66" cy="145.60" r="2" fill="#4C78A8" fill-opacity="0.7"/>
<circle cx="168.35" cy="158.16" r="2" fill="#4C78A8" fill-opacity="0.7"/>
<circle cx="161.95" cy="153.47" r="2" fill="#4C78A8" fill-opacity="0.7"/>
<circle cx="243.14" cy="100.33" r="2" fill="#4C78A8" fill-opacity="0.7"/>
<circle cx="147.56" cy="158.93" r="2" fill="#4C78A8" fill-opacity="0.7"/>
<circle cx="197.59" cy="113.00" r="2" fill="#4C78A8" fill-opacity="0.7"/>
<circle cx="210.39" cy="130.15" r="2" fill="#4C78A8" fill-opacity="0.7"/>
<circle cx="201.63" cy="144.43" r="2" fill="#4C78A8" fill-opacity="0.7"/>
<circle cx="101.62" cy="211.88" r="2" fill="#4C78A8" fill-opacity="0.7"/>
<circle cx="184.77" cy="172.28" r="2" fill="#4C78A8" fill-opacity="0.7"/>
<circle cx="231.71" cy="113.26" r="2" fill="#4C78A8" fill-opacity="0.7"/>
<circle cx="184.43" cy="150.41" r="2" fill="#4C78A8" fill-opacity="0.7"/>
<circle cx="102.89" cy="204.12" r="2" fill="#4C78A8" fill-opacity="0.7"/>
<circle cx="182.77" cy="163.29" r="2" fill="#4C78A8" fill-opacity="0.7"/>
<circle cx="170.96" cy="170.16" r="2" fill="#4C78A8" fill-opacity="0.7"/>
<circle cx="87.56" cy="227.53" r="2" fill="#4C78A8" fill-opacity="0.7"/>
<rect x="310" y="50" width="260" height="220" fill="none" stroke="#333" stroke-width="0.8"/>
<text x="440.0" y="44" font-size="11" text-anchor="middle" font-family="sans-serif">None</text>
<line x1="353.3333333333333" y1="50" x2="353.3333333333333" y2="270" stroke="#eee" stroke-width="0.6"/>
<line x1="310" y1="86.66666666666666" x2="570" y2="86.66666666666666" stroke="#eee" stroke-width="0.6"/>
<line x1="396.6666666666667" y1="50" x2="396.6666666666667" y2="270" stroke="#eee" stroke-width="0.6"/>
<line x1="310" y1="123.33333333333333" x2="570" y2="123.33333333333333" stroke="#eee" stroke-width="0.6"/>
<line x1="440.0" y1="50" x2="440.0" y2="270" stroke="#eee" stroke-width="0.6"/>
<line x1="310" y1="160.0" x2="570" y2="160.0" stroke="#eee" stroke-width="0.6"/>
<line x1="483.33333333333337" y1="50" x2="483.33333333333337" y2="270" stroke="#eee" stroke-width="0.6"/>
<line x1="310" y1="196.66666666666666" x2="570" y2="196.66666666666666" stroke="#eee" stroke-width="0.6"/>
<line x1="526.6666666666666" y1="50" x2="526.6666666666666" y2="270" stroke="#eee" stroke-width="0.6"/>
<line x1="310" y1="233.33333333333334" x2="570" y2="233.33333333333334" stroke="#eee" stroke-width="0.6"/>
<circle cx="458.85" cy="211.21" r="2" fill="#72B7B2" fill-opacity="0.7"/>
<circle cx="467.46" cy="159.96" r="2" fill="#72B7B2" fill-opacity="0.7"/>
<circle cx="406.82" cy="161.21" r="2" fill="#72B7B2" fill-opacity="0.7"/>
<circle cx="518.71" cy="130.87" r="2" fill="#72B7B2" fill-opacity="0.7"/>
<circle cx="474.47" cy="170.93" r="2" fill="#72B7B2" fill-opacity="0.7"/>
<circle cx="373.83" cy="123.51" r="2" fill="#72B7B2" fill-opacity="0.7"/>
<circle cx="497.34" cy="139.99" r="2" fill="#72B7B2" fill-opacity="0.7"/>
<circle cx="464.84" cy="138.36" r="2" fill="#72B7B2" fill-opacity="0.7"/>
<circle cx="447.05" cy="170.86" r="2" fill="#72B7B2" fill-opacity="0.7"/>
<circle cx="483.93" cy="151.46" r="2" fill="#72B7B2" fill-opacity="0.7"/>
<circle cx="353.66" cy="156.25" r="2" fill="#72B7B2" fill-opacity="0.7"/>
<circle cx="426.73" cy="213.70" r="2" fill="#72B7B2" fill-opacity="0.7"/>
<circle cx="513.98" cy="72.26" r="2" fill="#72B7B2" fill-opacity="0.7"/>
<circle cx="389.44" cy="133.28" r="2" fill="#72B7B2" fill-opacity="0.7"/>
<circle cx="429.82" cy="152.56" r="2" fill="#72B7B2" fill-opacity="0.7"/>
<circle cx="415.59" cy="156.18" r="2" fill="#72B7B2" fill-opacity="0.7"/>
<circle cx="498.82" cy="149.70" r="2" fill="#72B7B2" fill-opacity="0.7"/>
<circle cx="426.00" cy="172.61" r="2" fill="#72B7B2" fill-opacity="0.7"/>
<circle cx="401.91" cy="170.28" r="2" fill="#72B7B2" fill-opacity="0.7"/>
<circle cx="384.23" cy="117.56" r="2" fill="#72B7B2" fill-opacity="0.7"/>
<circle cx="350.71" cy="155.40" r="2" fill="#72B7B2" fill-opacity="0.7"/>
<circle cx="402.56" cy="186.25" r="2" fill="#72B7B2" fill-opacity="0.7"/>
<circle cx="413.48" cy="184.60" r="2" fill="#72B7B2" fill-opacity="0.7"/>
<circle cx="486.61" cy="120.89" r="2" fill="#72B7B2" fill-opacity="0.7"/>
<circle cx="384.99" cy="204.85" r="2" fill="#72B7B2" fill-opacity="0.7"/>
<circle cx="506.62" cy="102.11" r="2" fill="#72B7B2" fill-opacity="0.7"/>
<circle cx="469.49" cy="237.89" r="2" fill="#72B7B2" fill-opacity="0.7"/>
<circle cx="485.60" cy="199.80" r="2" fill="#72B7B2" fill-opacity="0.7"/>
<circle cx="459.38" cy="201.22" r="2" fill="#72B7B2" fill-opacity="0.7"/>
<circle cx="446.21" cy="183.15" r="2" fill="#72B7B2" fill-opacity="0.7"/>
<circle cx="449.42" cy="198.96" r="2" fill="#72B7B2" fill-opacity="0.7"/>
<circle cx="441.99" cy="200.39" r="2" fill="#72B7B2" fill-opacity="0.7"/>
<circle cx="444.22" cy="174.07" r="2" fill="#72B7B2" fill-opacity="0.7"/>
<circle cx="537.16" cy="136.31" r="2" fill="#72B7B2" fill-opacity="0.7"/>
<circle cx="347.14" cy="153.15" r="2" fill="#72B7B2" fill-opacity="0.7"/>
<circle cx="500.39" cy="178.48" r="2" fill="#72B7B2" fill-opacity="0.7"/>
<circle cx="412.79" cy="171.15" r="2" fill="#72B7B2" fill-opacity="0.7"/>
<circle cx="506.74" cy="122.41" r="2" fill="#72B7B2" fill-opacity="0.7"/>
<circle cx="497.68" cy="201.01" r="2" fill="#72B7B2" fill-opacity="0.7"/>
<circle cx="425.62" cy="196.29" r="2" fill="#72B7B2" fill-opacity="0.7"/>
<circle cx="432.76" cy="143.08" r="2" fill="#72B7B2" fill-opacity="0.7"/>
<circle cx="389.96" cy="138.75" r="2" fill="#72B7B2" fill-opacity="0.7"/>
<circle cx="529.85" cy="200.02" r="2" fill="#72B7B2" fill-opacity="0.7"/>
<circle cx="422.91" cy="151.53" r="2" fill="#72B7B2" fill-opacity="0.7"/>
<circle cx="450.52" cy="219.03" r="2" fill="#72B7B2" fill-opacity="0.7"/>
<circle cx="486.27" cy="152.35" r="2" fill="#72B7B2" fill-opacity="0.7"/>
<circle cx="435.83" cy="168.36" r="2" fill="#72B7B2" fill-opacity="0.7"/>
<circle cx="536.97" cy="205.59" r="2" fill="#72B7B2" fill-opacity="0.7"/>
<circle cx="436.99" cy="174.61" r="2" fill="#72B7B2" fill-opacity="0.7"/>
<circle cx="476.96" cy="145.20" r="2" fill="#72B7B2" fill-opacity="0.7"/>
<circle cx="479.39" cy="153.78" r="2" fill="#72B7B2" fill-opacity="0.7"/>
<circle cx="557.05" cy="153.79" r="2" fill="#72B7B2" fill-opacity="0.7"/>
<circle cx="446.96" cy="172.72" r="2" fill="#72B7B2" fill-opacity="0.7"/>
<circle cx="463.20" cy="175.54" r="2" fill="#72B7B2" fill-opacity="0.7"/>
<circle cx="458.18" cy="107.32" r="2" fill="#72B7B2" fill-opacity="0.7"/>
<circle cx="460.57" cy="167.11" r="2" fill="#72B7B2" fill-opacity="0.7"/>
<circle cx="481.55" cy="158.41" r="2" fill="#72B7B2" fill-opacity="0.7"/>
<circle cx="498.34" cy="152.29" r="2" fill="#72B7B2" fill-opacity="0.7"/>
<circle cx="457.66" cy="178.26" r="2" fill="#72B7B2" fill-opacity="0.7"/>
<circle cx="470.30" cy="138.13" r="2" fill="#72B7B2" fill-opacity="0.7"/>
<circle cx="462.14" cy="164.91" r="2" fill="#72B7B2" fill-opacity="0.7"/>
<circle cx="480.19" cy="167.26" r="2" fill="#72B7B2" fill-opacity="0.7"/>
<circle cx="404.45" cy="154.92" r="2" fill="#72B7B2" fill-opacity="0.7"/>
<circle cx="540.76" cy="195.55" r="2" fill="#72B7B2" fill-opacity="0.7"/>
<circle cx="421.84" cy="177.63" r="2" fill="#72B7B2" fill-opacity="0.7"/>
<circle cx="460.14" cy="160.76" r="2" fill="#72B7B2" fill-opacity="0.7"/>
<circle cx="417.92" cy="170.40" r="2" fill="#72B7B2" fill-opacity="0.7"/>
<circle cx="523.71" cy="213.06" r="2" fill="#72B7B2" fill-opacity="0.7"/>
<circle cx="452.65" cy="190.10" r="2" fill="#72B7B2" fill-opacity="0.7"/>
<circle cx="443.27" cy="98.58" r="2" fill="#72B7B2" fill-opacity="0.7"/>
<circle cx="428.46" cy="123.01" r="2" fill="#72B7B2" fill-opacity="0.7"/>
<circle cx="462.11" cy="154.40" r="2" fill="#72B7B2" fill-opacity="0.7"/>
<circle cx="457.31" cy="158.10" r="2" fill="#72B7B2" fill-opacity="0.7"/>
<circle cx="480.54" cy="143.00" r="2" fill="#72B7B2" fill-opacity="0.7"/>
<circle cx="372.38" cy="178.90" r="2" fill="#72B7B2" fill-opacity="0.7"/>
<circle cx="468.43" cy="130.06" r="2" fill="#72B7B2" fill-opacity="0.7"/>
<circle cx="428.12" cy="171.69" r="2" fill="#72B7B2" fill-opacity="0.7"/>
<circle cx="400.87" cy="148.04" r="2" fill="#72B7B2" fill-opacity="0.7"/>
<circle cx="454.20" cy="163.99" r="2" fill="#72B7B2" fill-opacity="0.7"/>
<circle cx="402.19" cy="139.31" r="2" fill="#72B7B2" fill-opacity="0.7"/>
<circle cx="434.79" cy="191.94" r="2" fill="#72B7B2" fill-opacity="0.7"/>
<circle cx="450.29" cy="130.71" r="2" fill="#72B7B2" fill-opacity="0.7"/>
<circle cx="335.61" cy="143.66" r="2" fill="#72B7B2" fill-opacity="0.7"/>
<circle cx="450.06" cy="188.28" r="2" fill="#72B7B2" fill-opacity="0.7"/>
<circle cx="378.21" cy="180.01" r="2" fill="#72B7B2" fill-opacity="0.7"/>
<circle cx="453.33" cy="198.23" r="2" fill="#72B7B2" fill-opacity="0.7"/>
<circle cx="380.44" cy="122.79" r="2" fill="#72B7B2" fill-opacity="0.7"/>
<circle cx="410.25" cy="148.48" r="2" fill="#72B7B2" fill-opacity="0.7"/>
<circle cx="342.40" cy="135.13" r="2" fill="#72B7B2" fill-opacity="0.7"/>
<circle cx="470.17" cy="128.11" r="2" fill="#72B7B2" fill-opacity="0.7"/>
<circle cx="407.61" cy="192.01" r="2" fill="#72B7B2" fill-opacity="0.7"/>
<circle cx="440.76" cy="157.87" r="2" fill="#72B7B2" fill-opacity="0.7"/>
<circle cx="421.04" cy="208.33" r="2" fill="#72B7B2" fill-opacity="0.7"/>
<circle cx="476.45" cy="158.49" r="2" fill="#72B7B2" fill-opacity="0.7"/>
<circle cx="447.13" cy="211.28" r="2" fill="#72B7B2" fill-opacity="0.7"/>
<circle cx="415.75" cy="165.99" r="2" fill="#72B7B2" fill-opacity="0.7"/>
<circle cx="426.73" cy="199.85" r="2" fill="#72B7B2" fill-opacity="0.7"/>
<circle cx="408.07" cy="215.75" r="2" fill="#72B7B2" fill-opacity="0.7"/>
<circle cx="448.12" cy="98.25" r="2" fill="#72B7B2" fill-opacity="0.7"/>
<circle cx="416.58" cy="56.42" r="2" fill="#72B7B2" fill-opacity="0.7"/>
<circle cx="505.21" cy="107.64" r="2" fill="#72B7B2" fill-opacity="0.7"/>
<circle cx="472.29" cy="152.88" r="2" fill="#72B7B2" fill-opacity="0.7"/>
<circle cx="383.56" cy="167.90" r="2" fill="#72B7B2" fill-opacity="0.7"/>
<circle cx="424.02" cy="149.68" r="2" fill="#72B7B2" fill-opacity="0.7"/>
<circle cx="439.42" cy="130.07" r="2" fill="#72B7B2" fill-opacity="0.7"/>
<circle cx="443.11" cy="240.20" r="2" fill="#72B7B2" fill-opacity="0.7"/>
<circle cx="430.39" cy="165.56" r="2" fill="#72B7B2" fill-opacity="0.7"/>
<circle cx="449.71" cy="190.22" r="2" fill="#72B7B2" fill-opacity="0.7"/>
<circle cx="411.49" cy="121.93" r="2" fill="#72B7B2" fill-opacity="0.7"/>
<circle cx="440.58" cy="77.60" r="2" fill="#72B7B2" fill-opacity="0.7"/>
<circle cx="463.19" cy="127.50" r="2" fill="#72B7B2" fill-opacity="0.7"/>
<circle cx="427.04" cy="116.96" r="2" fill="#72B7B2" fill-opacity="0.7"/>
<circle cx="385.59" cy="183.09" r="2" fill="#72B7B2" fill-opacity="0.7"/>
<circle cx="396.29" cy="167.39" r="2" fill="#72B7B2" fill-opacity="0.7"/>
<circle cx="410.79" cy="187.89" r="2" fill="#72B7B2" fill-opacity="0.7"/>
<circle cx="453.62" cy="223.56" r="2" fill="#72B7B2" fill-opacity="0.7"/>
<circle cx="429.04" cy="125.88" r="2" fill="#72B7B2" fill-opacity="0.7"/>
<circle cx="422.52" cy="175.52" r="2" fill="#72B7B2" fill-opacity="0.7"/>
<circle cx="426.12" cy="193.97" r="2" fill="#72B7B2" fill-opacity="0.7"/>
<circle cx="420.03" cy="170.88" r="2" fill="#72B7B2" fill-opacity="0.7"/>
<circle cx="420.10" cy="189.86" r="2" fill="#72B7B2" fill-opacity="0.7"/>
<circle cx="395.78" cy="153.51" r="2" fill="#72B7B2" fill-opacity="0.7"/>
<circle cx="373.96" cy="151.77" r="2" fill="#72B7B2" fill-opacity="0.7"/>
<circle cx="413.82" cy="111.54" r="2" fill="#72B7B2" fill-opacity="0.7"/>
<circle cx="474.02" cy="148.56" r="2" fill="#72B7B2" fill-opacity="0.7"/>
<circle cx="439.57" cy="172.03" r="2" fill="#72B7B2" fill-opacity="0.7"/>
<circle cx="432.86" cy="165.75" r="2" fill="#72B7B2" fill-opacity="0.7"/>
<circle cx="350.67" cy="146.33" r="2" fill="#72B7B2" fill-opacity="0.7"/>
<circle cx="492.91" cy="157.15" r="2" fill="#72B7B2" fill-opacity="0.7"/>
<circle cx="519.58" cy="130.13" r="2" fill="#72B7B2" fill-opacity="0.7"/>
<circle cx="412.21" cy="215.58" r="2" fill="#72B7B2" fill-opacity="0.7"/>
<circle cx="437.60" cy="163.64" r="2" fill="#72B7B2" fill-opacity="0.7"/>
<circle cx="498.34" cy="146.93" r="2" fill="#72B7B2" fill-opacity="0.7"/>
<circle cx="528.06" cy="160.15" r="2" fill="#72B7B2" fill-opacity="0.7"/>
<circle cx="418.29" cy="216.16" r="2" fill="#72B7B2" fill-opacity="0.7"/>
<circle cx="450.56" cy="99.46" r="2" fill="#72B7B2" fill-opacity="0.7"/>
<circle cx="435.17" cy="143.18" r="2" fill="#72B7B2" fill-opacity="0.7"/>
<circle cx="402.37" cy="152.02" r="2" fill="#72B7B2" fill-opacity="0.7"/>
<circle cx="462.28" cy="126.58" r="2" fill="#72B7B2" fill-opacity="0.7"/>
<circle cx="476.99" cy="183.59" r="2" fill="#72B7B2" fill-opacity="0.7"/>
<circle cx="375.63" cy="141.27" r="2" fill="#72B7B2" fill-opacity="0.7"/>
<circle cx="417.47" cy="162.92" r="2" fill="#72B7B2" fill-opacity="0.7"/>
<circle cx="479.71" cy="181.21" r="2" fill="#72B7B2" fill-opacity="0.7"/>
<circle cx="450.52" cy="195.28" r="2" fill="#72B7B2" fill-opacity="0.7"/>
<circle cx="455.05" cy="194.13" r="2" fill="#72B7B2" fill-opacity="0.7"/>
<circle cx="445.34" cy="136.19" r="2" fill="#72B7B2" fill-opacity="0.7"/>
<circle cx="493.55" cy="177.93" r="2" fill="#72B7B2" fill-opacity="0.7"/>
<circle cx="480.88" cy="148.81" r="2" fill="#72B7B2" fill-opacity="0.7"/>
<circle cx="441.83" cy="144.66" r="2" fill="#72B7B2" fill-opacity="0.7"/>
<circle cx="445.74" cy="148.42" r="2" fill="#72B7B2" fill-opacity="0.7"/>
<circle cx="422.71" cy="177.26" r="2" fill="#72B7B2" fill-opacity="0.7"/>
<circle cx="394.21" cy="192.37" r="2" fill="#72B7B2" fill-opacity="0.7"/>
<circle cx="425.49" cy="202.18" r="2" fill="#72B7B2" fill-opacity="0.7"/>
<circle cx="420.94" cy="86.62" r="2" fill="#72B7B2" fill-opacity="0.7"/>
<circle cx="411.05" cy="127.62" r="2" fill="#72B7B2" fill-opacity="0.7"/>
<circle cx="404.71" cy="192.56" r="2" fill="#72B7B2" fill-opacity="0.7"/>
<circle cx="543.80" cy="184.64" r="2" fill="#72B7B2" fill-opacity="0.7"/>
<circle cx="531.37" cy="196.52" r="2" fill="#72B7B2" fill-opacity="0.7"/>
<circle cx="396.07" cy="180.73" r="2" fill="#72B7B2" fill-opacity="0.7"/>
<circle cx="431.42" cy="184.49" r="2" fill="#72B7B2" fill-opacity="0.7"/>
<circle cx="438.71" cy="149.08" r="2" fill="#72B7B2" fill-opacity="0.7"/>
<circle cx="441.99" cy="157.24" r="2" fill="#72B7B2" fill-opacity="0.7"/>
<circle cx="426.56" cy="176.66" r="2" fill="#72B7B2" fill-opacity="0.7"/>
<circle cx="454.95" cy="213.93" r="2" fill="#72B7B2" fill-opacity="0.7"/>
<circle cx="482.81" cy="166.75" r="2" fill="#72B7B2" fill-opacity="0.7"/>
<circle cx="481.96" cy="179.11" r="2" fill="#72B7B2" fill-opacity="0.7"/>
<circle cx="429.26" cy="145.59" r="2" fill="#72B7B2" fill-opacity="0.7"/>
<circle cx="497.15" cy="203.82" r="2" fill="#72B7B2" fill-opacity="0.7"/>
<circle cx="418.86" cy="123.73" r="2" fill="#72B7B2" fill-opacity="0.7"/>
<circle cx="435.23" cy="152.10" r="2" fill="#72B7B2" fill-opacity="0.7"/>
<circle cx="479.96" cy="150.33" r="2" fill="#72B7B2" fill-opacity="0.7"/>
<circle cx="453.27" cy="116.72" r="2" fill="#72B7B2" fill-opacity="0.7"/>
<circle cx="451.08" cy="137.25" r="2" fill="#72B7B2" fill-opacity="0.7"/>
<circle cx="406.99" cy="212.89" r="2" fill="#72B7B2" fill-opacity="0.7"/>
<circle cx="407.25" cy="92.78" r="2" fill="#72B7B2" fill-opacity="0.7"/>
<circle cx="438.84" cy="126.35" r="2" fill="#72B7B2" fill-opacity="0.7"/>
<circle cx="436.95" cy="170.76" r="2" fill="#72B7B2" fill-opacity="0.7"/>
<circle cx="455.38" cy="165.71" r="2" fill="#72B7B2" fill-opacity="0.7"/>
<circle cx="372.49" cy="145.69" r="2" fill="#72B7B2" fill-opacity="0.7"/>
<circle cx="515.37" cy="140.39" r="2" fill="#72B7B2" fill-opacity="0.7"/>
<circle cx="487.72" cy="165.39" r="2" fill="#72B7B2" fill-opacity="0.7"/>
<circle cx="453.17" cy="149.78" r="2" fill="#72B7B2" fill-opacity="0.7"/>
<circle cx="500.05" cy="123.70" r="2" fill="#72B7B2" fill-opacity="0.7"/>
<circle cx="356.64" cy="117.69" r="2" fill="#72B7B2" fill-opacity="0.7"/>
<circle cx="423.83" cy="154.65" r="2" fill="#72B7B2" fill-opacity="0.7"/>
<circle cx="374.86" cy="132.76" r="2" fill="#72B7B2" fill-opacity="0.7"/>
<circle cx="445.87" cy="169.13" r="2" fill="#72B7B2" fill-opacity="0.7"/>
<circle cx="461.30" cy="121.45" r="2" fill="#72B7B2" fill-opacity="0.7"/>
<circle cx="500.81" cy="106.51" r="2" fill="#72B7B2" fill-opacity="0.7"/>
<circle cx="474.85" cy="172.88" r="2" fill="#72B7B2" fill-opacity="0.7"/>
<circle cx="389.27" cy="141.37" r="2" fill="#72B7B2" fill-opacity="0.7"/>
<circle cx="428.03" cy="115.37" r="2" fill="#72B7B2" fill-opacity="0.7"/>
<circle cx="450.98" cy="130.68" r="2" fill="#72B7B2" fill-opacity="0.7"/>
<circle cx="384.87" cy="142.13" r="2" fill="#72B7B2" fill-opacity="0.7"/>
<circle cx="407.16" cy="166.42" r="2" fill="#72B7B2" fill-opacity="0.7"/>
<circle cx="442.49" cy="141.69" r="2" fill="#72B7B2" fill-opacity="0.7"/>
<circle cx="444.13" cy="176.36" r="2" fill="#72B7B2" fill-opacity="0.7"/>
<circle cx="436.48" cy="187.57" r="2" fill="#72B7B2" fill-opacity="0.7"/>
<circle cx="424.76" cy="101.56" r="2" fill="#72B7B2" fill-opacity="0.7"/>
<circle cx="401.64" cy="210.88" r="2" fill="#72B7B2" fill-opacity="0.7"/>
<rect x="590" y="50" width="260" height="220" fill="none" stroke="#333" stroke-width="0.8"/>
<text x="720.0" y="44" font-size="11" text-anchor="middle" font-family="sans-serif">Negative</text>
<line x1="633.3333333333334" y1="50" x2="633.3333333333334" y2="270" stroke="#eee" stroke-width="0.6"/>
<line x1="590" y1="86.66666666666666" x2="850" y2="86.66666666666666" stroke="#eee" stroke-width="0.6"/>
<line x1="676.6666666666666" y1="50" x2="676.6666666666666" y2="270" stroke="#eee" stroke-width="0.6"/>
<line x1="590" y1="123.33333333333333" x2="850" y2="123.33333333333333" stroke="#eee" stroke-width="0.6"/>
<line x1="720.0" y1="50" x2="720.0" y2="270" stroke="#eee" stroke-width="0.6"/>
<line x1="590" y1="160.0" x2="850" y2="160.0" stroke="#eee" stroke-width="0.6"/>
<line x1="763.3333333333334" y1="50" x2="763.3333333333334" y2="270" stroke="#eee" stroke-width="0.6"/>
<line x1="590" y1="196.66666666666666" x2="850" y2="196.66666666666666" stroke="#eee" stroke-width="0.6"/>
<line x1="806.6666666666666" y1="50" x2="806.6666666666666" y2="270" stroke="#eee" stroke-width="0.6"/>
<line x1="590" y1="233.33333333333334" x2="850" y2="233.33333333333334" stroke="#eee" stroke-width="0.6"/>
<circle cx="634.61" cy="105.68" r="2" fill="#F58518" fill-opacity="0.7"/>
<circle cx="764.99" cy="172.17" r="2" fill="#F58518" fill-opacity="0.7"/>
<circle cx="772.18" cy="175.04" r="2" fill="#F58518" fill-opacity="0.7"/>
<circle cx="678.94" cy="110.91" r="2" fill="#F58518" fill-opacity="0.7"/>
<circle cx="701.65" cy="173.38" r="2" fill="#F58518" fill-opacity="0.7"/>
<circle cx="734.54" cy="135.78" r="2" fill="#F58518" fill-opacity="0.7"/>
<circle cx="723.24" cy="140.08" r="2" fill="#F58518" fill-opacity="0.7"/>
<circle cx="705.59" cy="162.15" r="2" fill="#F58518" fill-opacity="0.7"/>
<circle cx="695.37" cy="154.22" r="2" fill="#F58518" fill-opacity="0.7"/>
<circle cx="757.43" cy="155.93" r="2" fill="#F58518" fill-opacity="0.7"/>
<circle cx="683.50" cy="140.65" r="2" fill="#F58518" fill-opacity="0.7"/>
<circle cx="711.57" cy="156.42" r="2" fill="#F58518" fill-opacity="0.7"/>
<circle cx="749.80" cy="166.78" r="2" fill="#F58518" fill-opacity="0.7"/>
<circle cx="771.19" cy="197.98" r="2" fill="#F58518" fill-opacity="0.7"/>
<circle cx="785.40" cy="189.85" r="2" fill="#F58518" fill-opacity="0.7"/>
<circle cx="734.69" cy="200.98" r="2" fill="#F58518" fill-opacity="0.7"/>
<circle cx="659.43" cy="130.96" r="2" fill="#F58518" fill-opacity="0.7"/>
<circle cx="736.02" cy="141.85" r="2" fill="#F58518" fill-opacity="0.7"/>
<circle cx="749.57" cy="208.35" r="2" fill="#F58518" fill-opacity="0.7"/>
<circle cx="684.93" cy="116.74" r="2" fill="#F58518" fill-opacity="0.7"/>
<circle cx="655.80" cy="145.10" r="2" fill="#F58518" fill-opacity="0.7"/>
<circle cx="783.92" cy="181.46" r="2" fill="#F58518" fill-opacity="0.7"/>
<circle cx="679.72" cy="135.59" r="2" fill="#F58518" fill-opacity="0.7"/>
<circle cx="713.36" cy="154.70" r="2" fill="#F58518" fill-opacity="0.7"/>
<circle cx="731.78" cy="141.78" r="2" fill="#F58518" fill-opacity="0.7"/>
<circle cx="693.10" cy="159.94" r="2" fill="#F58518" fill-opacity="0.7"/>
<circle cx="767.50" cy="198.23" r="2" fill="#F58518" fill-opacity="0.7"/>
<circle cx="687.12" cy="105.00" r="2" fill="#F58518" fill-opacity="0.7"/>
<circle cx="716.61" cy="132.78" r="2" fill="#F58518" fill-opacity="0.7"/>
<circle cx="696.78" cy="176.88" r="2" fill="#F58518" fill-opacity="0.7"/>
<circle cx="729.40" cy="183.97" r="2" fill="#F58518" fill-opacity="0.7"/>
<circle cx="731.28" cy="165.78" r="2" fill="#F58518" fill-opacity="0.7"/>
<circle cx="703.69" cy="195.28" r="2" fill="#F58518" fill-opacity="0.7"/>
<circle cx="694.17" cy="126.03" r="2" fill="#F58518" fill-opacity="0.7"/>
<circle cx="710.39" cy="180.03" r="2" fill="#F58518" fill-opacity="0.7"/>
<circle cx="715.90" cy="129.92" r="2" fill="#F58518" fill-opacity="0.7"/>
<circle cx="706.24" cy="134.49" r="2" fill="#F58518" fill-opacity="0.7"/>
<circle cx="651.80" cy="121.15" r="2" fill="#F58518" fill-opacity="0.7"/>
<circle cx="725.31" cy="160.45" r="2" fill="#F58518" fill-opacity="0.7"/>
<circle cx="713.29" cy="158.40" r="2" fill="#F58518" fill-opacity="0.7"/>
<circle cx="749.77" cy="176.50" r="2" fill="#F58518" fill-opacity="0.7"/>
<circle cx="710.87" cy="159.42" r="2" fill="#F58518" fill-opacity="0.7"/>
<circle cx="827.14" cy="213.78" r="2" fill="#F58518" fill-opacity="0.7"/>
<circle cx="639.09" cy="87.15" r="2" fill="#F58518" fill-opacity="0.7"/>
<circle cx="729.67" cy="147.38" r="2" fill="#F58518" fill-opacity="0.7"/>
<circle cx="703.02" cy="139.60" r="2" fill="#F58518" fill-opacity="0.7"/>
<circle cx="659.42" cy="71.54" r="2" fill="#F58518" fill-opacity="0.7"/>
<circle cx="719.28" cy="177.52" r="2" fill="#F58518" fill-opacity="0.7"/>
<circle cx="691.45" cy="132.93" r="2" fill="#F58518" fill-opacity="0.7"/>
<circle cx="650.68" cy="118.93" r="2" fill="#F58518" fill-opacity="0.7"/>
<circle cx="701.28" cy="166.16" r="2" fill="#F58518" fill-opacity="0.7"/>
<circle cx="814.39" cy="213.12" r="2" fill="#F58518" fill-opacity="0.7"/>
<circle cx="683.76" cy="125.59" r="2" fill="#F58518" fill-opacity="0.7"/>
<circle cx="743.63" cy="175.80" r="2" fill="#F58518" fill-opacity="0.7"/>
<circle cx="755.36" cy="200.10" r="2" fill="#F58518" fill-opacity="0.7"/>
<circle cx="717.30" cy="168.49" r="2" fill="#F58518" fill-opacity="0.7"/>
<circle cx="680.00" cy="102.17" r="2" fill="#F58518" fill-opacity="0.7"/>
<circle cx="734.01" cy="181.95" r="2" fill="#F58518" fill-opacity="0.7"/>
<circle cx="797.79" cy="208.08" r="2" fill="#F58518" fill-opacity="0.7"/>
<circle cx="757.24" cy="157.04" r="2" fill="#F58518" fill-opacity="0.7"/>
<circle cx="709.35" cy="162.97" r="2" fill="#F58518" fill-opacity="0.7"/>
<circle cx="807.48" cy="199.33" r="2" fill="#F58518" fill-opacity="0.7"/>
<circle cx="670.73" cy="141.37" r="2" fill="#F58518" fill-opacity="0.7"/>
<circle cx="696.16" cy="141.11" r="2" fill="#F58518" fill-opacity="0.7"/>
<circle cx="693.50" cy="150.42" r="2" fill="#F58518" fill-opacity="0.7"/>
<circle cx="744.22" cy="204.36" r="2" fill="#F58518" fill-opacity="0.7"/>
<circle cx="819.12" cy="219.84" r="2" fill="#F58518" fill-opacity="0.7"/>
<circle cx="738.29" cy="170.58" r="2" fill="#F58518" fill-opacity="0.7"/>
<circle cx="713.43" cy="145.44" r="2" fill="#F58518" fill-opacity="0.7"/>
<circle cx="723.53" cy="145.26" r="2" fill="#F58518" fill-opacity="0.7"/>
<circle cx="715.98" cy="175.88" r="2" fill="#F58518" fill-opacity="0.7"/>
<circle cx="713.73" cy="134.57" r="2" fill="#F58518" fill-opacity="0.7"/>
<circle cx="690.81" cy="130.36" r="2" fill="#F58518" fill-opacity="0.7"/>
<circle cx="764.44" cy="203.65" r="2" fill="#F58518" fill-opacity="0.7"/>
<circle cx="793.86" cy="214.48" r="2" fill="#F58518" fill-opacity="0.7"/>
<circle cx="689.45" cy="145.45" r="2" fill="#F58518" fill-opacity="0.7"/>
<circle cx="701.52" cy="166.15" r="2" fill="#F58518" fill-opacity="0.7"/>
<circle cx="712.12" cy="173.01" r="2" fill="#F58518" fill-opacity="0.7"/>
<circle cx="711.14" cy="153.91" r="2" fill="#F58518" fill-opacity="0.7"/>
<circle cx="719.28" cy="164.34" r="2" fill="#F58518" fill-opacity="0.7"/>
<circle cx="695.87" cy="165.62" r="2" fill="#F58518" fill-opacity="0.7"/>
<circle cx="725.81" cy="178.90" r="2" fill="#F58518" fill-opacity="0.7"/>
<circle cx="708.47" cy="163.69" r="2" fill="#F58518" fill-opacity="0.7"/>
<circle cx="681.14" cy="136.76" r="2" fill="#F58518" fill-opacity="0.7"/>
<circle cx="834.74" cy="244.28" r="2" fill="#F58518" fill-opacity="0.7"/>
<circle cx="734.28" cy="146.76" r="2" fill="#F58518" fill-opacity="0.7"/>
<circle cx="665.44" cy="80.73" r="2" fill="#F58518" fill-opacity="0.7"/>
<circle cx="771.21" cy="205.79" r="2" fill="#F58518" fill-opacity="0.7"/>
<circle cx="707.75" cy="178.95" r="2" fill="#F58518" fill-opacity="0.7"/>
<circle cx="661.63" cy="87.96" r="2" fill="#F58518" fill-opacity="0.7"/>
<circle cx="751.33" cy="190.91" r="2" fill="#F58518" fill-opacity="0.7"/>
<circle cx="719.90" cy="162.41" r="2" fill="#F58518" fill-opacity="0.7"/>
<circle cx="742.64" cy="196.95" r="2" fill="#F58518" fill-opacity="0.7"/>
<circle cx="759.33" cy="191.77" r="2" fill="#F58518" fill-opacity="0.7"/>
<circle cx="693.06" cy="153.26" r="2" fill="#F58518" fill-opacity="0.7"/>
<circle cx="732.01" cy="192.45" r="2" fill="#F58518" fill-opacity="0.7"/>
<circle cx="721.94" cy="161.38" r="2" fill="#F58518" fill-opacity="0.7"/>
<circle cx="728.20" cy="161.32" r="2" fill="#F58518" fill-opacity="0.7"/>
<circle cx="790.17" cy="177.49" r="2" fill="#F58518" fill-opacity="0.7"/>
<circle cx="767.02" cy="198.49" r="2" fill="#F58518" fill-opacity="0.7"/>
<circle cx="795.59" cy="222.30" r="2" fill="#F58518" fill-opacity="0.7"/>
<circle cx="732.85" cy="198.62" r="2" fill="#F58518" fill-opacity="0.7"/>
<circle cx="740.87" cy="152.75" r="2" fill="#F58518" fill-opacity="0.7"/>
<circle cx="625.90" cy="75.66" r="2" fill="#F58518" fill-opacity="0.7"/>
<circle cx="732.18" cy="158.31" r="2" fill="#F58518" fill-opacity="0.7"/>
<circle cx="706.26" cy="159.72" r="2" fill="#F58518" fill-opacity="0.7"/>
<circle cx="759.52" cy="172.91" r="2" fill="#F58518" fill-opacity="0.7"/>
<circle cx="737.07" cy="195.48" r="2" fill="#F58518" fill-opacity="0.7"/>
<circle cx="721.02" cy="175.09" r="2" fill="#F58518" fill-opacity="0.7"/>
<circle cx="710.01" cy="134.30" r="2" fill="#F58518" fill-opacity="0.7"/>
<circle cx="788.83" cy="208.27" r="2" fill="#F58518" fill-opacity="0.7"/>
<circle cx="770.80" cy="201.94" r="2" fill="#F58518" fill-opacity="0.7"/>
<circle cx="596.02" cy="94.80" r="2" fill="#F58518" fill-opacity="0.7"/>
<circle cx="747.87" cy="149.09" r="2" fill="#F58518" fill-opacity="0.7"/>
<circle cx="741.57" cy="208.79" r="2" fill="#F58518" fill-opacity="0.7"/>
<circle cx="720.01" cy="170.66" r="2" fill="#F58518" fill-opacity="0.7"/>
<circle cx="667.92" cy="160.02" r="2" fill="#F58518" fill-opacity="0.7"/>
<circle cx="682.19" cy="141.13" r="2" fill="#F58518" fill-opacity="0.7"/>
<circle cx="772.87" cy="203.13" r="2" fill="#F58518" fill-opacity="0.7"/>
<circle cx="669.18" cy="112.26" r="2" fill="#F58518" fill-opacity="0.7"/>
<circle cx="730.41" cy="179.49" r="2" fill="#F58518" fill-opacity="0.7"/>
<circle cx="772.92" cy="193.61" r="2" fill="#F58518" fill-opacity="0.7"/>
<circle cx="781.05" cy="211.30" r="2" fill="#F58518" fill-opacity="0.7"/>
<circle cx="678.55" cy="150.83" r="2" fill="#F58518" fill-opacity="0.7"/>
<circle cx="649.80" cy="111.92" r="2" fill="#F58518" fill-opacity="0.7"/>
<circle cx="720.46" cy="121.65" r="2" fill="#F58518" fill-opacity="0.7"/>
<circle cx="704.02" cy="105.55" r="2" fill="#F58518" fill-opacity="0.7"/>
<circle cx="735.63" cy="173.87" r="2" fill="#F58518" fill-opacity="0.7"/>
<circle cx="652.22" cy="104.44" r="2" fill="#F58518" fill-opacity="0.7"/>
<circle cx="670.89" cy="119.95" r="2" fill="#F58518" fill-opacity="0.7"/>
<circle cx="743.66" cy="202.86" r="2" fill="#F58518" fill-opacity="0.7"/>
<circle cx="745.08" cy="179.84" r="2" fill="#F58518" fill-opacity="0.7"/>
<circle cx="808.15" cy="239.10" r="2" fill="#F58518" fill-opacity="0.7"/>
<circle cx="651.82" cy="146.46" r="2" fill="#F58518" fill-opacity="0.7"/>
<circle cx="718.49" cy="121.10" r="2" fill="#F58518" fill-opacity="0.7"/>
<circle cx="728.74" cy="190.79" r="2" fill="#F58518" fill-opacity="0.7"/>
<circle cx="729.03" cy="163.67" r="2" fill="#F58518" fill-opacity="0.7"/>
<circle cx="752.83" cy="181.27" r="2" fill="#F58518" fill-opacity="0.7"/>
<circle cx="723.32" cy="180.32" r="2" fill="#F58518" fill-opacity="0.7"/>
<circle cx="729.67" cy="191.92" r="2" fill="#F58518" fill-opacity="0.7"/>
<circle cx="651.49" cy="89.42" r="2" fill="#F58518" fill-opacity="0.7"/>
<circle cx="767.08" cy="186.97" r="2" fill="#F58518" fill-opacity="0.7"/>
<circle cx="730.85" cy="175.72" r="2" fill="#F58518" fill-opacity="0.7"/>
<circle cx="710.50" cy="169.42" r="2" fill="#F58518" fill-opacity="0.7"/>
<circle cx="768.53" cy="189.69" r="2" fill="#F58518" fill-opacity="0.7"/>
<circle cx="707.49" cy="152.26" r="2" fill="#F58518" fill-opacity="0.7"/>
<circle cx="683.35" cy="142.01" r="2" fill="#F58518" fill-opacity="0.7"/>
<circle cx="748.18" cy="178.74" r="2" fill="#F58518" fill-opacity="0.7"/>
<circle cx="761.47" cy="173.41" r="2" fill="#F58518" fill-opacity="0.7"/>
<circle cx="815.81" cy="213.60" r="2" fill="#F58518" fill-opacity="0.7"/>
<circle cx="778.75" cy="236.32" r="2" fill="#F58518" fill-opacity="0.7"/>
<circle cx="682.75" cy="98.23" r="2" fill="#F58518" fill-opacity="0.7"/>
<circle cx="793.36" cy="212.73" r="2" fill="#F58518" fill-opacity="0.7"/>
<circle cx="709.86" cy="126.14" r="2" fill="#F58518" fill-opacity="0.7"/>
<circle cx="683.63" cy="145.93" r="2" fill="#F58518" fill-opacity="0.7"/>
<circle cx="714.74" cy="150.40" r="2" fill="#F58518" fill-opacity="0.7"/>
<circle cx="736.39" cy="164.13" r="2" fill="#F58518" fill-opacity="0.7"/>
<circle cx="658.34" cy="115.12" r="2" fill="#F58518" fill-opacity="0.7"/>
<circle cx="721.18" cy="166.45" r="2" fill="#F58518" fill-opacity="0.7"/>
<circle cx="725.78" cy="168.80" r="2" fill="#F58518" fill-opacity="0.7"/>
<circle cx="652.67" cy="124.67" r="2" fill="#F58518" fill-opacity="0.7"/>
<circle cx="648.06" cy="144.22" r="2" fill="#F58518" fill-opacity="0.7"/>
<circle cx="687.75" cy="118.01" r="2" fill="#F58518" fill-opacity="0.7"/>
<circle cx="768.17" cy="180.93" r="2" fill="#F58518" fill-opacity="0.7"/>
<circle cx="731.26" cy="178.97" r="2" fill="#F58518" fill-opacity="0.7"/>
<circle cx="715.37" cy="128.47" r="2" fill="#F58518" fill-opacity="0.7"/>
<circle cx="719.18" cy="145.25" r="2" fill="#F58518" fill-opacity="0.7"/>
<circle cx="863.94" cy="283.55" r="2" fill="#F58518" fill-opacity="0.7"/>
<circle cx="772.19" cy="162.75" r="2" fill="#F58518" fill-opacity="0.7"/>
<circle cx="708.50" cy="153.89" r="2" fill="#F58518" fill-opacity="0.7"/>
<circle cx="666.67" cy="137.34" r="2" fill="#F58518" fill-opacity="0.7"/>
<circle cx="791.32" cy="201.78" r="2" fill="#F58518" fill-opacity="0.7"/>
<circle cx="726.90" cy="171.11" r="2" fill="#F58518" fill-opacity="0.7"/>
<circle cx="691.48" cy="156.96" r="2" fill="#F58518" fill-opacity="0.7"/>
<circle cx="723.40" cy="142.04" r="2" fill="#F58518" fill-opacity="0.7"/>
<circle cx="741.05" cy="160.33" r="2" fill="#F58518" fill-opacity="0.7"/>
<circle cx="692.34" cy="158.54" r="2" fill="#F58518" fill-opacity="0.7"/>
<circle cx="669.05" cy="133.41" r="2" fill="#F58518" fill-opacity="0.7"/>
<circle cx="737.06" cy="186.74" r="2" fill="#F58518" fill-opacity="0.7"/>
<circle cx="726.82" cy="171.52" r="2" fill="#F58518" fill-opacity="0.7"/>
<circle cx="683.70" cy="127.94" r="2" fill="#F58518" fill-opacity="0.7"/>
<circle cx="641.71" cy="96.61" r="2" fill="#F58518" fill-opacity="0.7"/>
<circle cx="592.40" cy="77.84" r="2" fill="#F58518" fill-opacity="0.7"/>
<circle cx="734.05" cy="176.56" r="2" fill="#F58518" fill-opacity="0.7"/>
<circle cx="716.21" cy="153.84" r="2" fill="#F58518" fill-opacity="0.7"/>
<circle cx="719.13" cy="163.00" r="2" fill="#F58518" fill-opacity="0.7"/>
<circle cx="741.42" cy="182.39" r="2" fill="#F58518" fill-opacity="0.7"/>
<circle cx="706.71" cy="147.62" r="2" fill="#F58518" fill-opacity="0.7"/>
<circle cx="703.84" cy="132.18" r="2" fill="#F58518" fill-opacity="0.7"/>
<circle cx="790.07" cy="197.34" r="2" fill="#F58518" fill-opacity="0.7"/>
<circle cx="710.19" cy="170.11" r="2" fill="#F58518" fill-opacity="0.7"/>
<circle cx="728.87" cy="172.34" r="2" fill="#F58518" fill-opacity="0.7"/>
<circle cx="758.27" cy="180.19" r="2" fill="#F58518" fill-opacity="0.7"/>
<circle cx="779.42" cy="218.04" r="2" fill="#F58518" fill-opacity="0.7"/>
<circle cx="693.86" cy="163.13" r="2" fill="#F58518" fill-opacity="0.7"/>
<circle cx="734.81" cy="187.85" r="2" fill="#F58518" fill-opacity="0.7"/>
<circle cx="796.59" cy="205.52" r="2" fill="#F58518" fill-opacity="0.7"/>
<circle cx="735.68" cy="153.71" r="2" fill="#F58518" fill-opacity="0.7"/>
<circle cx="706.08" cy="143.24" r="2" fill="#F58518" fill-opacity="0.7"/>
<circle cx="703.99" cy="139.94" r="2" fill="#F58518" fill-opacity="0.7"/>
</svg>