<?xml version="1.0" encoding="utf-8" standalone="no"?>
<!DOCTYPE svg PUBLIC "-//W3C//DTD SVG 1.1//EN"
  "http://www.w3.org/Graphics/SVG/1.1/DTD/svg11.dtd">
<svg xmlns:xlink="http://www.w3.org/1999/xlink" width="568.52375pt" height="315.034375pt" viewBox="0 0 568.52375 315.034375" xmlns="http://www.w3.org/2000/svg" version="1.1">
 <metadata>
  <rdf:RDF xmlns:dc="http://purl.org/dc/elements/1.1/" xmlns:cc="http://creativecommons.org/ns#" xmlns:rdf="http://www.w3.org/1999/02/22-rdf-syntax-ns#">
   <cc:Work>
    <dc:type rdf:resource="http://purl.org/dc/dcmitype/StillImage"/>
    <dc:date>2026-05-26T09:25:45.040757</dc:date>
    <dc:format>image/svg+xml</dc:format>
    <dc:creator>
     <cc:Agent>
      <dc:title>Matplotlib v3.10.8, https://matplotlib.org/</dc:title>
     </cc:Agent>
    </dc:creator>
   </cc:Work>
  </rdf:RDF>
 </metadata>
 <defs>
  <style type="text/css">*{stroke-linejoin: round; stroke-linecap: butt}</style>
 </defs>
 <g id="figure_1">
  <g id="patch_1">
   <path d="M 0 315.034375 
L 568.52375 315.034375 
L 568.52375 0 
L 0 0 
z
" style="fill: #ffffff"/>
  </g>
  <g id="axes_1">
   <g id="patch_2">
    <path d="M 50.14375 277.478125 
L 561.32375 277.478125 
L 561.32375 22.318125 
L 50.14375 22.318125 
z
" style="fill: #ffffff"/>
   </g>
   <g id="FillBetweenPolyCollection_1">
    <defs>
     <path id="mfdc45a719e" d="M 73.379205 -49.154432 
L 73.379205 -50.622337 
L 74.543889 -50.823704 
L 75.708573 -51.044806 
L 76.873258 -51.286435 
L 78.037942 -51.549278 
L 79.202627 -51.833906 
L 80.367311 -52.14077 
L 81.531996 -52.470195 
L 82.69668 -52.822389 
L 83.861364 -53.197445 
L 85.026049 -53.595358 
L 86.190733 -54.016043 
L 87.355418 -54.459358 
L 88.520102 -54.925136 
L 89.684787 -55.413215 
L 90.849471 -55.923479 
L 92.014156 -56.455895 
L 93.17884 -57.010553 
L 94.343524 -57.587707 
L 95.508209 -58.187808 
L 96.672893 -58.811541 
L 97.837578 -59.459847 
L 99.002262 -60.133944 
L 100.166947 -60.835333 
L 101.331631 -61.565797 
L 102.496316 -62.327384 
L 103.661 -63.122384 
L 104.825684 -63.953282 
L 105.990369 -64.82271 
L 107.155053 -65.733378 
L 108.319738 -66.688001 
L 109.484422 -67.689215 
L 110.649107 -68.739483 
L 111.813791 -69.841009 
L 112.978475 -70.995639 
L 114.14316 -72.204776 
L 115.307844 -73.469297 
L 116.472529 -74.789483 
L 117.637213 -76.164966 
L 118.801898 -77.594689 
L 119.966582 -79.07689 
L 121.131267 -80.609106 
L 122.295951 -82.188202 
L 123.460635 -83.810425 
L 124.62532 -85.47148 
L 125.790004 -87.166627 
L 126.954689 -88.890803 
L 128.119373 -90.638753 
L 129.284058 -92.405183 
L 130.448742 -94.184914 
L 131.613426 -95.973043 
L 132.778111 -97.765105 
L 133.942795 -99.557223 
L 135.10748 -101.34625 
L 136.272164 -103.129894 
L 137.436849 -104.906819 
L 138.601533 -106.676728 
L 139.766218 -108.440411 
L 140.930902 -110.199767 
L 142.095586 -111.957799 
L 143.260271 -113.718572 
L 144.424955 -115.487145 
L 145.58964 -117.269478 
L 146.754324 -119.072305 
L 147.919009 -120.902997 
L 149.083693 -122.769399 
L 150.248377 -124.679651 
L 151.413062 -126.64201 
L 152.577746 -128.664656 
L 153.742431 -130.755506 
L 154.907115 -132.922025 
L 156.0718 -135.17105 
L 157.236484 -137.508623 
L 158.401169 -139.939835 
L 159.565853 -142.468696 
L 160.730537 -145.098011 
L 161.895222 -147.829286 
L 163.059906 -150.662653 
L 164.224591 -153.596815 
L 165.389275 -156.629013 
L 166.55396 -159.755025 
L 167.718644 -162.969173 
L 168.883328 -166.264367 
L 170.048013 -169.632165 
L 171.212697 -173.062856 
L 172.377382 -176.545566 
L 173.542066 -180.068384 
L 174.706751 -183.618513 
L 175.871435 -187.182435 
L 177.03612 -190.746094 
L 178.200804 -194.295099 
L 179.365488 -197.814932 
L 180.530173 -201.291174 
L 181.694857 -204.709726 
L 182.859542 -208.057041 
L 184.024226 -211.320342 
L 185.188911 -214.487839 
L 186.353595 -217.548924 
L 187.51828 -220.494349 
L 188.682964 -223.316379 
L 189.847648 -226.008907 
L 191.012333 -228.567546 
L 192.177017 -230.989676 
L 193.341702 -233.274447 
L 194.506386 -235.422755 
L 195.671071 -237.437162 
L 196.835755 -239.321792 
L 198.000439 -241.082185 
L 199.165124 -242.725124 
L 200.329808 -244.258437 
L 201.494493 -245.690783 
L 202.659177 -247.031426 
L 203.823862 -248.290008 
L 204.988546 -249.476329 
L 206.153231 -250.600127 
L 207.317915 -251.67089 
L 208.482599 -252.697683 
L 209.647284 -253.689 
L 210.811968 -254.652646 
L 211.976653 -255.595657 
L 213.141337 -256.524237 
L 214.306022 -257.443733 
L 215.470706 -258.358633 
L 216.63539 -259.272585 
L 217.800075 -260.188435 
L 218.964759 -261.108279 
L 220.129444 -262.03352 
L 221.294128 -262.964927 
L 222.458813 -263.902697 
L 223.623497 -264.846507 
L 224.788182 -265.79556 
L 225.952866 -266.748616 
L 227.11755 -267.704022 
L 228.282235 -268.659714 
L 229.446919 -269.613229 
L 230.611604 -270.561688 
L 231.776288 -271.501791 
L 232.940973 -272.429801 
L 234.105657 -273.341528 
L 235.270341 -274.232325 
L 236.435026 -275.097087 
L 237.59971 -275.930261 
L 238.764395 -276.725874 
L 239.929079 -277.477566 
L 241.093764 -278.17865 
L 242.258448 -278.822178 
L 243.423133 -279.401022 
L 244.587817 -279.907964 
L 245.752501 -280.3358 
L 246.917186 -280.677437 
L 248.08187 -280.926 
L 249.246555 -281.074928 
L 250.411239 -281.118068 
L 251.575924 -281.049752 
L 252.740608 -280.864863 
L 253.905292 -280.558886 
L 255.069977 -280.12794 
L 256.234661 -279.568794 
L 257.399346 -278.878865 
L 258.56403 -278.056204 
L 259.728715 -277.099469 
L 260.893399 -276.007887 
L 262.058084 -274.781211 
L 263.222768 -273.419682 
L 264.387452 -271.923977 
L 265.552137 -270.295178 
L 266.716821 -268.534738 
L 267.881506 -266.644457 
L 269.04619 -264.626473 
L 270.210875 -262.483255 
L 271.375559 -260.217612 
L 272.540244 -257.832704 
L 273.704928 -255.332065 
L 274.869612 -252.719618 
L 276.034297 -249.999701 
L 277.198981 -247.17708 
L 278.363666 -244.256961 
L 279.52835 -241.244987 
L 280.693035 -238.147233 
L 281.857719 -234.970173 
L 283.022403 -231.720652 
L 284.187088 -228.405832 
L 285.351772 -225.03313 
L 286.516457 -221.610151 
L 287.681141 -218.144607 
L 288.845826 -214.644241 
L 290.01051 -211.116738 
L 291.175195 -207.569656 
L 292.339879 -204.010347 
L 293.504563 -200.445896 
L 294.669248 -196.88307 
L 295.833932 -193.328274 
L 296.998617 -189.787529 
L 298.163301 -186.266458 
L 299.327986 -182.77028 
L 300.49267 -179.303823 
L 301.657354 -175.871543 
L 302.822039 -172.477541 
L 303.986723 -169.1256 
L 305.151408 -165.819201 
L 306.316092 -162.561559 
L 307.480777 -159.355636 
L 308.645461 -156.204161 
L 309.810146 -153.109635 
L 310.97483 -150.074333 
L 312.139514 -147.100296 
L 313.304199 -144.189317 
L 314.468883 -141.342919 
L 315.633568 -138.562338 
L 316.798252 -135.848494 
L 317.962937 -133.201969 
L 319.127621 -130.62299 
L 320.292305 -128.111413 
L 321.45699 -125.66672 
L 322.621674 -123.288022 
L 323.786359 -120.974072 
L 324.951043 -118.723291 
L 326.115728 -116.533805 
L 327.280412 -114.403488 
L 328.445097 -112.330018 
L 329.609781 -110.310936 
L 330.774465 -108.343711 
L 331.93915 -106.425806 
L 333.103834 -104.55474 
L 334.268519 -102.728154 
L 335.433203 -100.943864 
L 336.597888 -99.199907 
L 337.762572 -97.494578 
L 338.927256 -95.826457 
L 340.091941 -94.194421 
L 341.256625 -92.597649 
L 342.42131 -91.035607 
L 343.585994 -89.508032 
L 344.750679 -88.014899 
L 345.915363 -86.556385 
L 347.080048 -85.132827 
L 348.244732 -83.744671 
L 349.409416 -82.392432 
L 350.574101 -81.076639 
L 351.738785 -79.797795 
L 352.90347 -78.556338 
L 354.068154 -77.352604 
L 355.232839 -76.186801 
L 356.397523 -75.058987 
L 357.562208 -73.969059 
L 358.726892 -72.916745 
L 359.891576 -71.901607 
L 361.056261 -70.923045 
L 362.220945 -69.98031 
L 363.38563 -69.072519 
L 364.550314 -68.198678 
L 365.714999 -67.357694 
L 366.879683 -66.548405 
L 368.044367 -65.769595 
L 369.209052 -65.020019 
L 370.373736 -64.298417 
L 371.538421 -63.603537 
L 372.703105 -62.934144 
L 373.86779 -62.289036 
L 375.032474 -61.667054 
L 376.197159 -61.067091 
L 377.361843 -60.488098 
L 378.526527 -59.929087 
L 379.691212 -59.38914 
L 380.855896 -58.867407 
L 382.020581 -58.363108 
L 383.185265 -57.875539 
L 384.34995 -57.404068 
L 385.514634 -56.948137 
L 386.679318 -56.50726 
L 387.844003 -56.081025 
L 389.008687 -55.669089 
L 390.173372 -55.271178 
L 391.338056 -54.887081 
L 392.502741 -54.516646 
L 393.667425 -54.159777 
L 394.83211 -53.816423 
L 395.996794 -53.486571 
L 397.161478 -53.170242 
L 398.326163 -52.867473 
L 399.490847 -52.578314 
L 400.655532 -52.302816 
L 401.820216 -52.041019 
L 402.984901 -51.792942 
L 404.149585 -51.558576 
L 405.314269 -51.337875 
L 406.478954 -51.130746 
L 407.643638 -50.937049 
L 408.808323 -50.756587 
L 409.973007 -50.58911 
L 411.137692 -50.434306 
L 412.302376 -50.291813 
L 413.467061 -50.161209 
L 414.631745 -50.04203 
L 415.796429 -49.933762 
L 416.961114 -49.835857 
L 418.125798 -49.747736 
L 419.290483 -49.668797 
L 420.455167 -49.598424 
L 421.619852 -49.535992 
L 422.784536 -49.480879 
L 423.94922 -49.432469 
L 425.113905 -49.390161 
L 426.278589 -49.353373 
L 427.443274 -49.321548 
L 428.607958 -49.294159 
L 429.772643 -49.270708 
L 430.937327 -49.250735 
L 432.102012 -49.233812 
L 433.266696 -49.219548 
L 434.43138 -49.20759 
L 435.596065 -49.197617 
L 436.760749 -49.189344 
L 437.925434 -49.182517 
L 439.090118 -49.176914 
L 440.254803 -49.17234 
L 441.419487 -49.168626 
L 442.584172 -49.165626 
L 443.748856 -49.163216 
L 444.91354 -49.16129 
L 446.078225 -49.15976 
L 447.242909 -49.15855 
L 448.407594 -49.157599 
L 449.572278 -49.156855 
L 450.736963 -49.156277 
L 451.901647 -49.155829 
L 453.066331 -49.155485 
L 454.231016 -49.155221 
L 455.3957 -49.155021 
L 456.560385 -49.154869 
L 457.725069 -49.154754 
L 458.889754 -49.154669 
L 460.054438 -49.154605 
L 461.219123 -49.154558 
L 462.383807 -49.154523 
L 463.548491 -49.154497 
L 464.713176 -49.154479 
L 465.87786 -49.154465 
L 467.042545 -49.154455 
L 468.207229 -49.154448 
L 469.371914 -49.154443 
L 470.536598 -49.15444 
L 471.701282 -49.154437 
L 472.865967 -49.154436 
L 474.030651 -49.154434 
L 475.195336 -49.154434 
L 476.36002 -49.154433 
L 477.524705 -49.154433 
L 478.689389 -49.154432 
L 479.854074 -49.154432 
L 481.018758 -49.154432 
L 482.183442 -49.154432 
L 483.348127 -49.154432 
L 484.512811 -49.154432 
L 485.677496 -49.154432 
L 486.84218 -49.154432 
L 488.006865 -49.154432 
L 489.171549 -49.154432 
L 490.336233 -49.154432 
L 491.500918 -49.154432 
L 492.665602 -49.154432 
L 493.830287 -49.154432 
L 494.994971 -49.154432 
L 496.159656 -49.154432 
L 497.32434 -49.154432 
L 498.489025 -49.154432 
L 499.653709 -49.154432 
L 500.818393 -49.154432 
L 501.983078 -49.154432 
L 503.147762 -49.154432 
L 504.312447 -49.154432 
L 505.477131 -49.154432 
L 506.641816 -49.154432 
L 507.8065 -49.154432 
L 508.971184 -49.154432 
L 510.135869 -49.154432 
L 511.300553 -49.154432 
L 512.465238 -49.154432 
L 513.629922 -49.154432 
L 514.794607 -49.154432 
L 515.959291 -49.154432 
L 517.123976 -49.154432 
L 518.28866 -49.154432 
L 519.453344 -49.154432 
L 520.618029 -49.154432 
L 521.782713 -49.154432 
L 522.947398 -49.154432 
L 524.112082 -49.154432 
L 525.276767 -49.154432 
L 526.441451 -49.154432 
L 527.606136 -49.154432 
L 528.77082 -49.154432 
L 529.935504 -49.154432 
L 531.100189 -49.154432 
L 532.264873 -49.154432 
L 533.429558 -49.154432 
L 534.594242 -49.154432 
L 535.758927 -49.154432 
L 536.923611 -49.154432 
L 538.088295 -49.154432 
L 538.088295 -49.154432 
L 538.088295 -49.154432 
L 536.923611 -49.154432 
L 535.758927 -49.154432 
L 534.594242 -49.154432 
L 533.429558 -49.154432 
L 532.264873 -49.154432 
L 531.100189 -49.154432 
L 529.935504 -49.154432 
L 528.77082 -49.154432 
L 527.606136 -49.154432 
L 526.441451 -49.154432 
L 525.276767 -49.154432 
L 524.112082 -49.154432 
L 522.947398 -49.154432 
L 521.782713 -49.154432 
L 520.618029 -49.154432 
L 519.453344 -49.154432 
L 518.28866 -49.154432 
L 517.123976 -49.154432 
L 515.959291 -49.154432 
L 514.794607 -49.154432 
L 513.629922 -49.154432 
L 512.465238 -49.154432 
L 511.300553 -49.154432 
L 510.135869 -49.154432 
L 508.971184 -49.154432 
L 507.8065 -49.154432 
L 506.641816 -49.154432 
L 505.477131 -49.154432 
L 504.312447 -49.154432 
L 503.147762 -49.154432 
L 501.983078 -49.154432 
L 500.818393 -49.154432 
L 499.653709 -49.154432 
L 498.489025 -49.154432 
L 497.32434 -49.154432 
L 496.159656 -49.154432 
L 494.994971 -49.154432 
L 493.830287 -49.154432 
L 492.665602 -49.154432 
L 491.500918 -49.154432 
L 490.336233 -49.154432 
L 489.171549 -49.154432 
L 488.006865 -49.154432 
L 486.84218 -49.154432 
L 485.677496 -49.154432 
L 484.512811 -49.154432 
L 483.348127 -49.154432 
L 482.183442 -49.154432 
L 481.018758 -49.154432 
L 479.854074 -49.154432 
L 478.689389 -49.154432 
L 477.524705 -49.154432 
L 476.36002 -49.154432 
L 475.195336 -49.154432 
L 474.030651 -49.154432 
L 472.865967 -49.154432 
L 471.701282 -49.154432 
L 470.536598 -49.154432 
L 469.371914 -49.154432 
L 468.207229 -49.154432 
L 467.042545 -49.154432 
L 465.87786 -49.154432 
L 464.713176 -49.154432 
L 463.548491 -49.154432 
L 462.383807 -49.154432 
L 461.219123 -49.154432 
L 460.054438 -49.154432 
L 458.889754 -49.154432 
L 457.725069 -49.154432 
L 456.560385 -49.154432 
L 455.3957 -49.154432 
L 454.231016 -49.154432 
L 453.066331 -49.154432 
L 451.901647 -49.154432 
L 450.736963 -49.154432 
L 449.572278 -49.154432 
L 448.407594 -49.154432 
L 447.242909 -49.154432 
L 446.078225 -49.154432 
L 444.91354 -49.154432 
L 443.748856 -49.154432 
L 442.584172 -49.154432 
L 441.419487 -49.154432 
L 440.254803 -49.154432 
L 439.090118 -49.154432 
L 437.925434 -49.154432 
L 436.760749 -49.154432 
L 435.596065 -49.154432 
L 434.43138 -49.154432 
L 433.266696 -49.154432 
L 432.102012 -49.154432 
L 430.937327 -49.154432 
L 429.772643 -49.154432 
L 428.607958 -49.154432 
L 427.443274 -49.154432 
L 426.278589 -49.154432 
L 425.113905 -49.154432 
L 423.94922 -49.154432 
L 422.784536 -49.154432 
L 421.619852 -49.154432 
L 420.455167 -49.154432 
L 419.290483 -49.154432 
L 418.125798 -49.154432 
L 416.961114 -49.154432 
L 415.796429 -49.154432 
L 414.631745 -49.154432 
L 413.467061 -49.154432 
L 412.302376 -49.154432 
L 411.137692 -49.154432 
L 409.973007 -49.154432 
L 408.808323 -49.154432 
L 407.643638 -49.154432 
L 406.478954 -49.154432 
L 405.314269 -49.154432 
L 404.149585 -49.154432 
L 402.984901 -49.154432 
L 401.820216 -49.154432 
L 400.655532 -49.154432 
L 399.490847 -49.154432 
L 398.326163 -49.154432 
L 397.161478 -49.154432 
L 395.996794 -49.154432 
L 394.83211 -49.154432 
L 393.667425 -49.154432 
L 392.502741 -49.154432 
L 391.338056 -49.154432 
L 390.173372 -49.154432 
L 389.008687 -49.154432 
L 387.844003 -49.154432 
L 386.679318 -49.154432 
L 385.514634 -49.154432 
L 384.34995 -49.154432 
L 383.185265 -49.154432 
L 382.020581 -49.154432 
L 380.855896 -49.154432 
L 379.691212 -49.154432 
L 378.526527 -49.154432 
L 377.361843 -49.154432 
L 376.197159 -49.154432 
L 375.032474 -49.154432 
L 373.86779 -49.154432 
L 372.703105 -49.154432 
L 371.538421 -49.154432 
L 370.373736 -49.154432 
L 369.209052 -49.154432 
L 368.044367 -49.154432 
L 366.879683 -49.154432 
L 365.714999 -49.154432 
L 364.550314 -49.154432 
L 363.38563 -49.154432 
L 362.220945 -49.154432 
L 361.056261 -49.154432 
L 359.891576 -49.154432 
L 358.726892 -49.154432 
L 357.562208 -49.154432 
L 356.397523 -49.154432 
L 355.232839 -49.154432 
L 354.068154 -49.154432 
L 352.90347 -49.154432 
L 351.738785 -49.154432 
L 350.574101 -49.154432 
L 349.409416 -49.154432 
L 348.244732 -49.154432 
L 347.080048 -49.154432 
L 345.915363 -49.154432 
L 344.750679 -49.154432 
L 343.585994 -49.154432 
L 342.42131 -49.154432 
L 341.256625 -49.154432 
L 340.091941 -49.154432 
L 338.927256 -49.154432 
L 337.762572 -49.154432 
L 336.597888 -49.154432 
L 335.433203 -49.154432 
L 334.268519 -49.154432 
L 333.103834 -49.154432 
L 331.93915 -49.154432 
L 330.774465 -49.154432 
L 329.609781 -49.154432 
L 328.445097 -49.154432 
L 327.280412 -49.154432 
L 326.115728 -49.154432 
L 324.951043 -49.154432 
L 323.786359 -49.154432 
L 322.621674 -49.154432 
L 321.45699 -49.154432 
L 320.292305 -49.154432 
L 319.127621 -49.154432 
L 317.962937 -49.154432 
L 316.798252 -49.154432 
L 315.633568 -49.154432 
L 314.468883 -49.154432 
L 313.304199 -49.154432 
L 312.139514 -49.154432 
L 310.97483 -49.154432 
L 309.810146 -49.154432 
L 308.645461 -49.154432 
L 307.480777 -49.154432 
L 306.316092 -49.154432 
L 305.151408 -49.154432 
L 303.986723 -49.154432 
L 302.822039 -49.154432 
L 301.657354 -49.154432 
L 300.49267 -49.154432 
L 299.327986 -49.154432 
L 298.163301 -49.154432 
L 296.998617 -49.154432 
L 295.833932 -49.154432 
L 294.669248 -49.154432 
L 293.504563 -49.154432 
L 292.339879 -49.154432 
L 291.175195 -49.154432 
L 290.01051 -49.154432 
L 288.845826 -49.154432 
L 287.681141 -49.154432 
L 286.516457 -49.154432 
L 285.351772 -49.154432 
L 284.187088 -49.154432 
L 283.022403 -49.154432 
L 281.857719 -49.154432 
L 280.693035 -49.154432 
L 279.52835 -49.154432 
L 278.363666 -49.154432 
L 277.198981 -49.154432 
L 276.034297 -49.154432 
L 274.869612 -49.154432 
L 273.704928 -49.154432 
L 272.540244 -49.154432 
L 271.375559 -49.154432 
L 270.210875 -49.154432 
L 269.04619 -49.154432 
L 267.881506 -49.154432 
L 266.716821 -49.154432 
L 265.552137 -49.154432 
L 264.387452 -49.154432 
L 263.222768 -49.154432 
L 262.058084 -49.154432 
L 260.893399 -49.154432 
L 259.728715 -49.154432 
L 258.56403 -49.154432 
L 257.399346 -49.154432 
L 256.234661 -49.154432 
L 255.069977 -49.154432 
L 253.905292 -49.154432 
L 252.740608 -49.154432 
L 251.575924 -49.154432 
L 250.411239 -49.154432 
L 249.246555 -49.154432 
L 248.08187 -49.154432 
L 246.917186 -49.154432 
L 245.752501 -49.154432 
L 244.587817 -49.154432 
L 243.423133 -49.154432 
L 242.258448 -49.154432 
L 241.093764 -49.154432 
L 239.929079 -49.154432 
L 238.764395 -49.154432 
L 237.59971 -49.154432 
L 236.435026 -49.154432 
L 235.270341 -49.154432 
L 234.105657 -49.154432 
L 232.940973 -49.154432 
L 231.776288 -49.154432 
L 230.611604 -49.154432 
L 229.446919 -49.154432 
L 228.282235 -49.154432 
L 227.11755 -49.154432 
L 225.952866 -49.154432 
L 224.788182 -49.154432 
L 223.623497 -49.154432 
L 222.458813 -49.154432 
L 221.294128 -49.154432 
L 220.129444 -49.154432 
L 218.964759 -49.154432 
L 217.800075 -49.154432 
L 216.63539 -49.154432 
L 215.470706 -49.154432 
L 214.306022 -49.154432 
L 213.141337 -49.154432 
L 211.976653 -49.154432 
L 210.811968 -49.154432 
L 209.647284 -49.154432 
L 208.482599 -49.154432 
L 207.317915 -49.154432 
L 206.153231 -49.154432 
L 204.988546 -49.154432 
L 203.823862 -49.154432 
L 202.659177 -49.154432 
L 201.494493 -49.154432 
L 200.329808 -49.154432 
L 199.165124 -49.154432 
L 198.000439 -49.154432 
L 196.835755 -49.154432 
L 195.671071 -49.154432 
L 194.506386 -49.154432 
L 193.341702 -49.154432 
L 192.177017 -49.154432 
L 191.012333 -49.154432 
L 189.847648 -49.154432 
L 188.682964 -49.154432 
L 187.51828 -49.154432 
L 186.353595 -49.154432 
L 185.188911 -49.154432 
L 184.024226 -49.154432 
L 182.859542 -49.154432 
L 181.694857 -49.154432 
L 180.530173 -49.154432 
L 179.365488 -49.154432 
L 178.200804 -49.154432 
L 177.03612 -49.154432 
L 175.871435 -49.154432 
L 174.706751 -49.154432 
L 173.542066 -49.154432 
L 172.377382 -49.154432 
L 171.212697 -49.154432 
L 170.048013 -49.154432 
L 168.883328 -49.154432 
L 167.718644 -49.154432 
L 166.55396 -49.154432 
L 165.389275 -49.154432 
L 164.224591 -49.154432 
L 163.059906 -49.154432 
L 161.895222 -49.154432 
L 160.730537 -49.154432 
L 159.565853 -49.154432 
L 158.401169 -49.154432 
L 157.236484 -49.154432 
L 156.0718 -49.154432 
L 154.907115 -49.154432 
L 153.742431 -49.154432 
L 152.577746 -49.154432 
L 151.413062 -49.154432 
L 150.248377 -49.154432 
L 149.083693 -49.154432 
L 147.919009 -49.154432 
L 146.754324 -49.154432 
L 145.58964 -49.154432 
L 144.424955 -49.154432 
L 143.260271 -49.154432 
L 142.095586 -49.154432 
L 140.930902 -49.154432 
L 139.766218 -49.154432 
L 138.601533 -49.154432 
L 137.436849 -49.154432 
L 136.272164 -49.154432 
L 135.10748 -49.154432 
L 133.942795 -49.154432 
L 132.778111 -49.154432 
L 131.613426 -49.154432 
L 130.448742 -49.154432 
L 129.284058 -49.154432 
L 128.119373 -49.154432 
L 126.954689 -49.154432 
L 125.790004 -49.154432 
L 124.62532 -49.154432 
L 123.460635 -49.154432 
L 122.295951 -49.154432 
L 121.131267 -49.154432 
L 119.966582 -49.154432 
L 118.801898 -49.154432 
L 117.637213 -49.154432 
L 116.472529 -49.154432 
L 115.307844 -49.154432 
L 114.14316 -49.154432 
L 112.978475 -49.154432 
L 111.813791 -49.154432 
L 110.649107 -49.154432 
L 109.484422 -49.154432 
L 108.319738 -49.154432 
L 107.155053 -49.154432 
L 105.990369 -49.154432 
L 104.825684 -49.154432 
L 103.661 -49.154432 
L 102.496316 -49.154432 
L 101.331631 -49.154432 
L 100.166947 -49.154432 
L 99.002262 -49.154432 
L 97.837578 -49.154432 
L 96.672893 -49.154432 
L 95.508209 -49.154432 
L 94.343524 -49.154432 
L 93.17884 -49.154432 
L 92.014156 -49.154432 
L 90.849471 -49.154432 
L 89.684787 -49.154432 
L 88.520102 -49.154432 
L 87.355418 -49.154432 
L 86.190733 -49.154432 
L 85.026049 -49.154432 
L 83.861364 -49.154432 
L 82.69668 -49.154432 
L 81.531996 -49.154432 
L 80.367311 -49.154432 
L 79.202627 -49.154432 
L 78.037942 -49.154432 
L 76.873258 -49.154432 
L 75.708573 -49.154432 
L 74.543889 -49.154432 
L 73.379205 -49.154432 
z
" style="stroke: #7aa6c2; stroke-opacity: 0.3"/>
    </defs>
    <g clip-path="url(#pab5904b782)">
     <use xlink:href="#mfdc45a719e" x="0" y="315.034375" style="fill: #7aa6c2; fill-opacity: 0.3; stroke: #7aa6c2; stroke-opacity: 0.3"/>
    </g>
   </g>
   <g id="FillBetweenPolyCollection_2">
    <defs>
     <path id="m18bf7e0672" d="M 73.379205 -49.154432 
L 73.379205 -49.15531 
L 74.543889 -49.155513 
L 75.708573 -49.155759 
L 76.873258 -49.156057 
L 78.037942 -49.156416 
L 79.202627 -49.156849 
L 80.367311 -49.157369 
L 81.531996 -49.157991 
L 82.69668 -49.158734 
L 83.861364 -49.159618 
L 85.026049 -49.160668 
L 86.190733 -49.161911 
L 87.355418 -49.163379 
L 88.520102 -49.165108 
L 89.684787 -49.167138 
L 90.849471 -49.169515 
L 92.014156 -49.172291 
L 93.17884 -49.175524 
L 94.343524 -49.179278 
L 95.508209 -49.183627 
L 96.672893 -49.18865 
L 97.837578 -49.194436 
L 99.002262 -49.201083 
L 100.166947 -49.208698 
L 101.331631 -49.217397 
L 102.496316 -49.22731 
L 103.661 -49.238573 
L 104.825684 -49.251338 
L 105.990369 -49.265764 
L 107.155053 -49.282025 
L 108.319738 -49.300305 
L 109.484422 -49.320801 
L 110.649107 -49.343719 
L 111.813791 -49.369281 
L 112.978475 -49.397715 
L 114.14316 -49.429264 
L 115.307844 -49.464179 
L 116.472529 -49.502721 
L 117.637213 -49.545161 
L 118.801898 -49.591776 
L 119.966582 -49.642853 
L 121.131267 -49.698684 
L 122.295951 -49.759566 
L 123.460635 -49.825801 
L 124.62532 -49.897697 
L 125.790004 -49.975562 
L 126.954689 -50.059708 
L 128.119373 -50.150448 
L 129.284058 -50.248098 
L 130.448742 -50.352973 
L 131.613426 -50.465391 
L 132.778111 -50.58567 
L 133.942795 -50.714131 
L 135.10748 -50.851098 
L 136.272164 -50.996898 
L 137.436849 -51.151865 
L 138.601533 -51.316337 
L 139.766218 -51.490666 
L 140.930902 -51.675211 
L 142.095586 -51.870346 
L 143.260271 -52.076464 
L 144.424955 -52.293973 
L 145.58964 -52.523306 
L 146.754324 -52.76492 
L 147.919009 -53.019299 
L 149.083693 -53.286959 
L 150.248377 -53.568446 
L 151.413062 -53.864343 
L 152.577746 -54.175265 
L 153.742431 -54.501868 
L 154.907115 -54.844843 
L 156.0718 -55.204918 
L 157.236484 -55.582858 
L 158.401169 -55.979462 
L 159.565853 -56.39556 
L 160.730537 -56.832012 
L 161.895222 -57.289702 
L 163.059906 -57.769533 
L 164.224591 -58.272422 
L 165.389275 -58.799294 
L 166.55396 -59.351073 
L 167.718644 -59.928679 
L 168.883328 -60.533014 
L 170.048013 -61.16496 
L 171.212697 -61.825366 
L 172.377382 -62.515041 
L 173.542066 -63.234748 
L 174.706751 -63.985193 
L 175.871435 -64.76702 
L 177.03612 -65.580801 
L 178.200804 -66.427034 
L 179.365488 -67.306135 
L 180.530173 -68.218433 
L 181.694857 -69.164169 
L 182.859542 -70.143494 
L 184.024226 -71.156464 
L 185.188911 -72.203045 
L 186.353595 -73.283112 
L 187.51828 -74.396454 
L 188.682964 -75.542776 
L 189.847648 -76.721705 
L 191.012333 -77.932797 
L 192.177017 -79.175544 
L 193.341702 -80.449382 
L 194.506386 -81.753704 
L 195.671071 -83.087864 
L 196.835755 -84.451193 
L 198.000439 -85.84301 
L 199.165124 -87.26263 
L 200.329808 -88.709379 
L 201.494493 -90.182608 
L 202.659177 -91.681698 
L 203.823862 -93.206081 
L 204.988546 -94.755243 
L 206.153231 -96.328743 
L 207.317915 -97.926217 
L 208.482599 -99.547391 
L 209.647284 -101.192091 
L 210.811968 -102.86025 
L 211.976653 -104.551916 
L 213.141337 -106.267259 
L 214.306022 -108.006574 
L 215.470706 -109.770287 
L 216.63539 -111.558959 
L 217.800075 -113.373285 
L 218.964759 -115.214094 
L 220.129444 -117.082351 
L 221.294128 -118.979148 
L 222.458813 -120.905706 
L 223.623497 -122.863365 
L 224.788182 -124.853574 
L 225.952866 -126.877886 
L 227.11755 -128.93794 
L 228.282235 -131.035453 
L 229.446919 -133.172201 
L 230.611604 -135.35 
L 231.776288 -137.570688 
L 232.940973 -139.836104 
L 234.105657 -142.14806 
L 235.270341 -144.508319 
L 236.435026 -146.918566 
L 237.59971 -149.380375 
L 238.764395 -151.895185 
L 239.929079 -154.464258 
L 241.093764 -157.088653 
L 242.258448 -159.769187 
L 243.423133 -162.506397 
L 244.587817 -165.300511 
L 245.752501 -168.151405 
L 246.917186 -171.05857 
L 248.08187 -174.021078 
L 249.246555 -177.037548 
L 250.411239 -180.106114 
L 251.575924 -183.224398 
L 252.740608 -186.389481 
L 253.905292 -189.597888 
L 255.069977 -192.84556 
L 256.234661 -196.127852 
L 257.399346 -199.439518 
L 258.56403 -202.774713 
L 259.728715 -206.127001 
L 260.893399 -209.48936 
L 262.058084 -212.854209 
L 263.222768 -216.213429 
L 264.387452 -219.558404 
L 265.552137 -222.880058 
L 266.716821 -226.168908 
L 267.881506 -229.415122 
L 269.04619 -232.608584 
L 270.210875 -235.738966 
L 271.375559 -238.795807 
L 272.540244 -241.768593 
L 273.704928 -244.646855 
L 274.869612 -247.420249 
L 276.034297 -250.078661 
L 277.198981 -252.612299 
L 278.363666 -255.01179 
L 279.52835 -257.268277 
L 280.693035 -259.373511 
L 281.857719 -261.319941 
L 283.022403 -263.100797 
L 284.187088 -264.710171 
L 285.351772 -266.143083 
L 286.516457 -267.395544 
L 287.681141 -268.464604 
L 288.845826 -269.348398 
L 290.01051 -270.046165 
L 291.175195 -270.55827 
L 292.339879 -270.886204 
L 293.504563 -271.032574 
L 294.669248 -271.001075 
L 295.833932 -270.796459 
L 296.998617 -270.424481 
L 298.163301 -269.891837 
L 299.327986 -269.206094 
L 300.49267 -268.375601 
L 301.657354 -267.409405 
L 302.822039 -266.317143 
L 303.986723 -265.108937 
L 305.151408 -263.795287 
L 306.316092 -262.386953 
L 307.480777 -260.894839 
L 308.645461 -259.329878 
L 309.810146 -257.70292 
L 310.97483 -256.024619 
L 312.139514 -254.30533 
L 313.304199 -252.555008 
L 314.468883 -250.78312 
L 315.633568 -248.99856 
L 316.798252 -247.20958 
L 317.962937 -245.423724 
L 319.127621 -243.647784 
L 320.292305 -241.887753 
L 321.45699 -240.148808 
L 322.621674 -238.435285 
L 323.786359 -236.750685 
L 324.951043 -235.097672 
L 326.115728 -233.4781 
L 327.280412 -231.893033 
L 328.445097 -230.342791 
L 329.609781 -228.826984 
L 330.774465 -227.344573 
L 331.93915 -225.893923 
L 333.103834 -224.472869 
L 334.268519 -223.078775 
L 335.433203 -221.708609 
L 336.597888 -220.359011 
L 337.762572 -219.026359 
L 338.927256 -217.706844 
L 340.091941 -216.39653 
L 341.256625 -215.091426 
L 342.42131 -213.787544 
L 343.585994 -212.480955 
L 344.750679 -211.16785 
L 345.915363 -209.844581 
L 347.080048 -208.507715 
L 348.244732 -207.154065 
L 349.409416 -205.780733 
L 350.574101 -204.385134 
L 351.738785 -202.965028 
L 352.90347 -201.518534 
L 354.068154 -200.044153 
L 355.232839 -198.540776 
L 356.397523 -197.007693 
L 357.562208 -195.444598 
L 358.726892 -193.851589 
L 359.891576 -192.229163 
L 361.056261 -190.578213 
L 362.220945 -188.900014 
L 363.38563 -187.196212 
L 364.550314 -185.468804 
L 365.714999 -183.720124 
L 366.879683 -181.952813 
L 368.044367 -180.1698 
L 369.209052 -178.374265 
L 370.373736 -176.569614 
L 371.538421 -174.759438 
L 372.703105 -172.947481 
L 373.86779 -171.137595 
L 375.032474 -169.333696 
L 376.197159 -167.539728 
L 377.361843 -165.759607 
L 378.526527 -163.997178 
L 379.691212 -162.256169 
L 380.855896 -160.54014 
L 382.020581 -158.852436 
L 383.185265 -157.196144 
L 384.34995 -155.574044 
L 385.514634 -153.988572 
L 386.679318 -152.441781 
L 387.844003 -150.935306 
L 389.008687 -149.470337 
L 390.173372 -148.047595 
L 391.338056 -146.667314 
L 392.502741 -145.329229 
L 393.667425 -144.032576 
L 394.83211 -142.77609 
L 395.996794 -141.558018 
L 397.161478 -140.376136 
L 398.326163 -139.227774 
L 399.490847 -138.109846 
L 400.655532 -137.01889 
L 401.820216 -135.951107 
L 402.984901 -134.902417 
L 404.149585 -133.868507 
L 405.314269 -132.844891 
L 406.478954 -131.826969 
L 407.643638 -130.810089 
L 408.808323 -129.78961 
L 409.973007 -128.760965 
L 411.137692 -127.719724 
L 412.302376 -126.661648 
L 413.467061 -125.582751 
L 414.631745 -124.479351 
L 415.796429 -123.348115 
L 416.961114 -122.186103 
L 418.125798 -120.990805 
L 419.290483 -119.760171 
L 420.455167 -118.492629 
L 421.619852 -117.187109 
L 422.784536 -115.843044 
L 423.94922 -114.460378 
L 425.113905 -113.039556 
L 426.278589 -111.581515 
L 427.443274 -110.087667 
L 428.607958 -108.559873 
L 429.772643 -107.000415 
L 430.937327 -105.411962 
L 432.102012 -103.797537 
L 433.266696 -102.160471 
L 434.43138 -100.504364 
L 435.596065 -98.833041 
L 436.760749 -97.150505 
L 437.925434 -95.460892 
L 439.090118 -93.76843 
L 440.254803 -92.077389 
L 441.419487 -90.392044 
L 442.584172 -88.716632 
L 443.748856 -87.055319 
L 444.91354 -85.412161 
L 446.078225 -83.791075 
L 447.242909 -82.195812 
L 448.407594 -80.629931 
L 449.572278 -79.096783 
L 450.736963 -77.599488 
L 451.901647 -76.140926 
L 453.066331 -74.723727 
L 454.231016 -73.350263 
L 455.3957 -72.022645 
L 456.560385 -70.742722 
L 457.725069 -69.512085 
L 458.889754 -68.332068 
L 460.054438 -67.203756 
L 461.219123 -66.127992 
L 462.383807 -65.105387 
L 463.548491 -64.136328 
L 464.713176 -63.220992 
L 465.87786 -62.359356 
L 467.042545 -61.551208 
L 468.207229 -60.796162 
L 469.371914 -60.093666 
L 470.536598 -59.443017 
L 471.701282 -58.843372 
L 472.865967 -58.293756 
L 474.030651 -57.793078 
L 475.195336 -57.340136 
L 476.36002 -56.933627 
L 477.524705 -56.572159 
L 478.689389 -56.254255 
L 479.854074 -55.978364 
L 481.018758 -55.742865 
L 482.183442 -55.546074 
L 483.348127 -55.38625 
L 484.512811 -55.261602 
L 485.677496 -55.170292 
L 486.84218 -55.110439 
L 488.006865 -55.080127 
L 489.171549 -55.077407 
L 490.336233 -55.100299 
L 491.500918 -55.146801 
L 492.665602 -55.214893 
L 493.830287 -55.302535 
L 494.994971 -55.407679 
L 496.159656 -55.528272 
L 497.32434 -55.662258 
L 498.489025 -55.807587 
L 499.653709 -55.962218 
L 500.818393 -56.124126 
L 501.983078 -56.291311 
L 503.147762 -56.461801 
L 504.312447 -56.633659 
L 505.477131 -56.804994 
L 506.641816 -56.973966 
L 507.8065 -57.138793 
L 508.971184 -57.297761 
L 510.135869 -57.449231 
L 511.300553 -57.591649 
L 512.465238 -57.723548 
L 513.629922 -57.843565 
L 514.794607 -57.95044 
L 515.959291 -58.043029 
L 517.123976 -58.120305 
L 518.28866 -58.18137 
L 519.453344 -58.225456 
L 520.618029 -58.25193 
L 521.782713 -58.260301 
L 522.947398 -58.250215 
L 524.112082 -58.221464 
L 525.276767 -58.173982 
L 526.441451 -58.107846 
L 527.606136 -58.023269 
L 528.77082 -57.920604 
L 529.935504 -57.800333 
L 531.100189 -57.663063 
L 532.264873 -57.509519 
L 533.429558 -57.340535 
L 534.594242 -57.157046 
L 535.758927 -56.960075 
L 536.923611 -56.750727 
L 538.088295 -56.530169 
L 538.088295 -49.154432 
L 538.088295 -49.154432 
L 536.923611 -49.154432 
L 535.758927 -49.154432 
L 534.594242 -49.154432 
L 533.429558 -49.154432 
L 532.264873 -49.154432 
L 531.100189 -49.154432 
L 529.935504 -49.154432 
L 528.77082 -49.154432 
L 527.606136 -49.154432 
L 526.441451 -49.154432 
L 525.276767 -49.154432 
L 524.112082 -49.154432 
L 522.947398 -49.154432 
L 521.782713 -49.154432 
L 520.618029 -49.154432 
L 519.453344 -49.154432 
L 518.28866 -49.154432 
L 517.123976 -49.154432 
L 515.959291 -49.154432 
L 514.794607 -49.154432 
L 513.629922 -49.154432 
L 512.465238 -49.154432 
L 511.300553 -49.154432 
L 510.135869 -49.154432 
L 508.971184 -49.154432 
L 507.8065 -49.154432 
L 506.641816 -49.154432 
L 505.477131 -49.154432 
L 504.312447 -49.154432 
L 503.147762 -49.154432 
L 501.983078 -49.154432 
L 500.818393 -49.154432 
L 499.653709 -49.154432 
L 498.489025 -49.154432 
L 497.32434 -49.154432 
L 496.159656 -49.154432 
L 494.994971 -49.154432 
L 493.830287 -49.154432 
L 492.665602 -49.154432 
L 491.500918 -49.154432 
L 490.336233 -49.154432 
L 489.171549 -49.154432 
L 488.006865 -49.154432 
L 486.84218 -49.154432 
L 485.677496 -49.154432 
L 484.512811 -49.154432 
L 483.348127 -49.154432 
L 482.183442 -49.154432 
L 481.018758 -49.154432 
L 479.854074 -49.154432 
L 478.689389 -49.154432 
L 477.524705 -49.154432 
L 476.36002 -49.154432 
L 475.195336 -49.154432 
L 474.030651 -49.154432 
L 472.865967 -49.154432 
L 471.701282 -49.154432 
L 470.536598 -49.154432 
L 469.371914 -49.154432 
L 468.207229 -49.154432 
L 467.042545 -49.154432 
L 465.87786 -49.154432 
L 464.713176 -49.154432 
L 463.548491 -49.154432 
L 462.383807 -49.154432 
L 461.219123 -49.154432 
L 460.054438 -49.154432 
L 458.889754 -49.154432 
L 457.725069 -49.154432 
L 456.560385 -49.154432 
L 455.3957 -49.154432 
L 454.231016 -49.154432 
L 453.066331 -49.154432 
L 451.901647 -49.154432 
L 450.736963 -49.154432 
L 449.572278 -49.154432 
L 448.407594 -49.154432 
L 447.242909 -49.154432 
L 446.078225 -49.154432 
L 444.91354 -49.154432 
L 443.748856 -49.154432 
L 442.584172 -49.154432 
L 441.419487 -49.154432 
L 440.254803 -49.154432 
L 439.090118 -49.154432 
L 437.925434 -49.154432 
L 436.760749 -49.154432 
L 435.596065 -49.154432 
L 434.43138 -49.154432 
L 433.266696 -49.154432 
L 432.102012 -49.154432 
L 430.937327 -49.154432 
L 429.772643 -49.154432 
L 428.607958 -49.154432 
L 427.443274 -49.154432 
L 426.278589 -49.154432 
L 425.113905 -49.154432 
L 423.94922 -49.154432 
L 422.784536 -49.154432 
L 421.619852 -49.154432 
L 420.455167 -49.154432 
L 419.290483 -49.154432 
L 418.125798 -49.154432 
L 416.961114 -49.154432 
L 415.796429 -49.154432 
L 414.631745 -49.154432 
L 413.467061 -49.154432 
L 412.302376 -49.154432 
L 411.137692 -49.154432 
L 409.973007 -49.154432 
L 408.808323 -49.154432 
L 407.643638 -49.154432 
L 406.478954 -49.154432 
L 405.314269 -49.154432 
L 404.149585 -49.154432 
L 402.984901 -49.154432 
L 401.820216 -49.154432 
L 400.655532 -49.154432 
L 399.490847 -49.154432 
L 398.326163 -49.154432 
L 397.161478 -49.154432 
L 395.996794 -49.154432 
L 394.83211 -49.154432 
L 393.667425 -49.154432 
L 392.502741 -49.154432 
L 391.338056 -49.154432 
L 390.173372 -49.154432 
L 389.008687 -49.154432 
L 387.844003 -49.154432 
L 386.679318 -49.154432 
L 385.514634 -49.154432 
L 384.34995 -49.154432 
L 383.185265 -49.154432 
L 382.020581 -49.154432 
L 380.855896 -49.154432 
L 379.691212 -49.154432 
L 378.526527 -49.154432 
L 377.361843 -49.154432 
L 376.197159 -49.154432 
L 375.032474 -49.154432 
L 373.86779 -49.154432 
L 372.703105 -49.154432 
L 371.538421 -49.154432 
L 370.373736 -49.154432 
L 369.209052 -49.154432 
L 368.044367 -49.154432 
L 366.879683 -49.154432 
L 365.714999 -49.154432 
L 364.550314 -49.154432 
L 363.38563 -49.154432 
L 362.220945 -49.154432 
L 361.056261 -49.154432 
L 359.891576 -49.154432 
L 358.726892 -49.154432 
L 357.562208 -49.154432 
L 356.397523 -49.154432 
L 355.232839 -49.154432 
L 354.068154 -49.154432 
L 352.90347 -49.154432 
L 351.738785 -49.154432 
L 350.574101 -49.154432 
L 349.409416 -49.154432 
L 348.244732 -49.154432 
L 347.080048 -49.154432 
L 345.915363 -49.154432 
L 344.750679 -49.154432 
L 343.585994 -49.154432 
L 342.42131 -49.154432 
L 341.256625 -49.154432 
L 340.091941 -49.154432 
L 338.927256 -49.154432 
L 337.762572 -49.154432 
L 336.597888 -49.154432 
L 335.433203 -49.154432 
L 334.268519 -49.154432 
L 333.103834 -49.154432 
L 331.93915 -49.154432 
L 330.774465 -49.154432 
L 329.609781 -49.154432 
L 328.445097 -49.154432 
L 327.280412 -49.154432 
L 326.115728 -49.154432 
L 324.951043 -49.154432 
L 323.786359 -49.154432 
L 322.621674 -49.154432 
L 321.45699 -49.154432 
L 320.292305 -49.154432 
L 319.127621 -49.154432 
L 317.962937 -49.154432 
L 316.798252 -49.154432 
L 315.633568 -49.154432 
L 314.468883 -49.154432 
L 313.304199 -49.154432 
L 312.139514 -49.154432 
L 310.97483 -49.154432 
L 309.810146 -49.154432 
L 308.645461 -49.154432 
L 307.480777 -49.154432 
L 306.316092 -49.154432 
L 305.151408 -49.154432 
L 303.986723 -49.154432 
L 302.822039 -49.154432 
L 301.657354 -49.154432 
L 300.49267 -49.154432 
L 299.327986 -49.154432 
L 298.163301 -49.154432 
L 296.998617 -49.154432 
L 295.833932 -49.154432 
L 294.669248 -49.154432 
L 293.504563 -49.154432 
L 292.339879 -49.154432 
L 291.175195 -49.154432 
L 290.01051 -49.154432 
L 288.845826 -49.154432 
L 287.681141 -49.154432 
L 286.516457 -49.154432 
L 285.351772 -49.154432 
L 284.187088 -49.154432 
L 283.022403 -49.154432 
L 281.857719 -49.154432 
L 280.693035 -49.154432 
L 279.52835 -49.154432 
L 278.363666 -49.154432 
L 277.198981 -49.154432 
L 276.034297 -49.154432 
L 274.869612 -49.154432 
L 273.704928 -49.154432 
L 272.540244 -49.154432 
L 271.375559 -49.154432 
L 270.210875 -49.154432 
L 269.04619 -49.154432 
L 267.881506 -49.154432 
L 266.716821 -49.154432 
L 265.552137 -49.154432 
L 264.387452 -49.154432 
L 263.222768 -49.154432 
L 262.058084 -49.154432 
L 260.893399 -49.154432 
L 259.728715 -49.154432 
L 258.56403 -49.154432 
L 257.399346 -49.154432 
L 256.234661 -49.154432 
L 255.069977 -49.154432 
L 253.905292 -49.154432 
L 252.740608 -49.154432 
L 251.575924 -49.154432 
L 250.411239 -49.154432 
L 249.246555 -49.154432 
L 248.08187 -49.154432 
L 246.917186 -49.154432 
L 245.752501 -49.154432 
L 244.587817 -49.154432 
L 243.423133 -49.154432 
L 242.258448 -49.154432 
L 241.093764 -49.154432 
L 239.929079 -49.154432 
L 238.764395 -49.154432 
L 237.59971 -49.154432 
L 236.435026 -49.154432 
L 235.270341 -49.154432 
L 234.105657 -49.154432 
L 232.940973 -49.154432 
L 231.776288 -49.154432 
L 230.611604 -49.154432 
L 229.446919 -49.154432 
L 228.282235 -49.154432 
L 227.11755 -49.154432 
L 225.952866 -49.154432 
L 224.788182 -49.154432 
L 223.623497 -49.154432 
L 222.458813 -49.154432 
L 221.294128 -49.154432 
L 220.129444 -49.154432 
L 218.964759 -49.154432 
L 217.800075 -49.154432 
L 216.63539 -49.154432 
L 215.470706 -49.154432 
L 214.306022 -49.154432 
L 213.141337 -49.154432 
L 211.976653 -49.154432 
L 210.811968 -49.154432 
L 209.647284 -49.154432 
L 208.482599 -49.154432 
L 207.317915 -49.154432 
L 206.153231 -49.154432 
L 204.988546 -49.154432 
L 203.823862 -49.154432 
L 202.659177 -49.154432 
L 201.494493 -49.154432 
L 200.329808 -49.154432 
L 199.165124 -49.154432 
L 198.000439 -49.154432 
L 196.835755 -49.154432 
L 195.671071 -49.154432 
L 194.506386 -49.154432 
L 193.341702 -49.154432 
L 192.177017 -49.154432 
L 191.012333 -49.154432 
L 189.847648 -49.154432 
L 188.682964 -49.154432 
L 187.51828 -49.154432 
L 186.353595 -49.154432 
L 185.188911 -49.154432 
L 184.024226 -49.154432 
L 182.859542 -49.154432 
L 181.694857 -49.154432 
L 180.530173 -49.154432 
L 179.365488 -49.154432 
L 178.200804 -49.154432 
L 177.03612 -49.154432 
L 175.871435 -49.154432 
L 174.706751 -49.154432 
L 173.542066 -49.154432 
L 172.377382 -49.154432 
L 171.212697 -49.154432 
L 170.048013 -49.154432 
L 168.883328 -49.154432 
L 167.718644 -49.154432 
L 166.55396 -49.154432 
L 165.389275 -49.154432 
L 164.224591 -49.154432 
L 163.059906 -49.154432 
L 161.895222 -49.154432 
L 160.730537 -49.154432 
L 159.565853 -49.154432 
L 158.401169 -49.154432 
L 157.236484 -49.154432 
L 156.0718 -49.154432 
L 154.907115 -49.154432 
L 153.742431 -49.154432 
L 152.577746 -49.154432 
L 151.413062 -49.154432 
L 150.248377 -49.154432 
L 149.083693 -49.154432 
L 147.919009 -49.154432 
L 146.754324 -49.154432 
L 145.58964 -49.154432 
L 144.424955 -49.154432 
L 143.260271 -49.154432 
L 142.095586 -49.154432 
L 140.930902 -49.154432 
L 139.766218 -49.154432 
L 138.601533 -49.154432 
L 137.436849 -49.154432 
L 136.272164 -49.154432 
L 135.10748 -49.154432 
L 133.942795 -49.154432 
L 132.778111 -49.154432 
L 131.613426 -49.154432 
L 130.448742 -49.154432 
L 129.284058 -49.154432 
L 128.119373 -49.154432 
L 126.954689 -49.154432 
L 125.790004 -49.154432 
L 124.62532 -49.154432 
L 123.460635 -49.154432 
L 122.295951 -49.154432 
L 121.131267 -49.154432 
L 119.966582 -49.154432 
L 118.801898 -49.154432 
L 117.637213 -49.154432 
L 116.472529 -49.154432 
L 115.307844 -49.154432 
L 114.14316 -49.154432 
L 112.978475 -49.154432 
L 111.813791 -49.154432 
L 110.649107 -49.154432 
L 109.484422 -49.154432 
L 108.319738 -49.154432 
L 107.155053 -49.154432 
L 105.990369 -49.154432 
L 104.825684 -49.154432 
L 103.661 -49.154432 
L 102.496316 -49.154432 
L 101.331631 -49.154432 
L 100.166947 -49.154432 
L 99.002262 -49.154432 
L 97.837578 -49.154432 
L 96.672893 -49.154432 
L 95.508209 -49.154432 
L 94.343524 -49.154432 
L 93.17884 -49.154432 
L 92.014156 -49.154432 
L 90.849471 -49.154432 
L 89.684787 -49.154432 
L 88.520102 -49.154432 
L 87.355418 -49.154432 
L 86.190733 -49.154432 
L 85.026049 -49.154432 
L 83.861364 -49.154432 
L 82.69668 -49.154432 
L 81.531996 -49.154432 
L 80.367311 -49.154432 
L 79.202627 -49.154432 
L 78.037942 -49.154432 
L 76.873258 -49.154432 
L 75.708573 -49.154432 
L 74.543889 -49.154432 
L 73.379205 -49.154432 
z
" style="stroke: #e15759; stroke-opacity: 0.3"/>
    </defs>
    <g clip-path="url(#pab5904b782)">
     <use xlink:href="#m18bf7e0672" x="0" y="315.034375" style="fill: #e15759; fill-opacity: 0.3; stroke: #e15759; stroke-opacity: 0.3"/>
    </g>
   </g>
   <g id="matplotlib.axis_1">
    <g id="xtick_1">
     <g id="line2d_1">
      <path d="M 73.379205 277.478125 
L 73.379205 22.318125 
" clip-path="url(#pab5904b782)" style="fill: none; stroke: #b0b0b0; stroke-opacity: 0.25; stroke-width: 0.8; stroke-linecap: square"/>
     </g>
     <g id="line2d_2">
      <defs>
       <path id="m00c80c99d7" d="M 0 0 
L 0 3.5 
" style="stroke: #000000; stroke-width: 0.8"/>
      </defs>
      <g>
       <use xlink:href="#m00c80c99d7" x="73.379205" y="277.478125" style="stroke: #000000; stroke-width: 0.8"/>
      </g>
     </g>
     <g id="text_1">
      <!-- 10 -->
      <g transform="translate(67.016705 292.076563) scale(0.1 -0.1)">
       <defs>
        <path id="DejaVuSans-31" d="M 794 531 
L 1825 531 
L 1825 4091 
L 703 3866 
L 703 4441 
L 1819 4666 
L 2450 4666 
L 2450 531 
L 3481 531 
L 3481 0 
L 794 0 
L 794 531 
z
" transform="scale(0.015625)"/>
        <path id="DejaVuSans-30" d="M 2034 4250 
Q 1547 4250 1301 3770 
Q 1056 3291 1056 2328 
Q 1056 1369 1301 889 
Q 1547 409 2034 409 
Q 2525 409 2770 889 
Q 3016 1369 3016 2328 
Q 3016 3291 2770 3770 
Q 2525 4250 2034 4250 
z
M 2034 4750 
Q 2819 4750 3233 4129 
Q 3647 3509 3647 2328 
Q 3647 1150 3233 529 
Q 2819 -91 2034 -91 
Q 1250 -91 836 529 
Q 422 1150 422 2328 
Q 422 3509 836 4129 
Q 1250 4750 2034 4750 
z
" transform="scale(0.015625)"/>
       </defs>
       <use xlink:href="#DejaVuSans-31"/>
       <use xlink:href="#DejaVuSans-30" transform="translate(63.623047 0)"/>
      </g>
     </g>
    </g>
    <g id="xtick_2">
     <g id="line2d_3">
      <path d="M 139.766218 277.478125 
L 139.766218 22.318125 
" clip-path="url(#pab5904b782)" style="fill: none; stroke: #b0b0b0; stroke-opacity: 0.25; stroke-width: 0.8; stroke-linecap: square"/>
     </g>
     <g id="line2d_4">
      <g>
       <use xlink:href="#m00c80c99d7" x="139.766218" y="277.478125" style="stroke: #000000; stroke-width: 0.8"/>
      </g>
     </g>
     <g id="text_2">
      <!-- 20 -->
      <g transform="translate(133.403718 292.076563) scale(0.1 -0.1)">
       <defs>
        <path id="DejaVuSans-32" d="M 1228 531 
L 3431 531 
L 3431 0 
L 469 0 
L 469 531 
Q 828 903 1448 1529 
Q 2069 2156 2228 2338 
Q 2531 2678 2651 2914 
Q 2772 3150 2772 3378 
Q 2772 3750 2511 3984 
Q 2250 4219 1831 4219 
Q 1534 4219 1204 4116 
Q 875 4013 500 3803 
L 500 4441 
Q 881 4594 1212 4672 
Q 1544 4750 1819 4750 
Q 2544 4750 2975 4387 
Q 3406 4025 3406 3419 
Q 3406 3131 3298 2873 
Q 3191 2616 2906 2266 
Q 2828 2175 2409 1742 
Q 1991 1309 1228 531 
z
" transform="scale(0.015625)"/>
       </defs>
       <use xlink:href="#DejaVuSans-32"/>
       <use xlink:href="#DejaVuSans-30" transform="translate(63.623047 0)"/>
      </g>
     </g>
    </g>
    <g id="xtick_3">
     <g id="line2d_5">
      <path d="M 206.153231 277.478125 
L 206.153231 22.318125 
" clip-path="url(#pab5904b782)" style="fill: none; stroke: #b0b0b0; stroke-opacity: 0.25; stroke-width: 0.8; stroke-linecap: square"/>
     </g>
     <g id="line2d_6">
      <g>
       <use xlink:href="#m00c80c99d7" x="206.153231" y="277.478125" style="stroke: #000000; stroke-width: 0.8"/>
      </g>
     </g>
     <g id="text_3">
      <!-- 30 -->
      <g transform="translate(199.790731 292.076563) scale(0.1 -0.1)">
       <defs>
        <path id="DejaVuSans-33" d="M 2597 2516 
Q 3050 2419 3304 2112 
Q 3559 1806 3559 1356 
Q 3559 666 3084 287 
Q 2609 -91 1734 -91 
Q 1441 -91 1130 -33 
Q 819 25 488 141 
L 488 750 
Q 750 597 1062 519 
Q 1375 441 1716 441 
Q 2309 441 2620 675 
Q 2931 909 2931 1356 
Q 2931 1769 2642 2001 
Q 2353 2234 1838 2234 
L 1294 2234 
L 1294 2753 
L 1863 2753 
Q 2328 2753 2575 2939 
Q 2822 3125 2822 3475 
Q 2822 3834 2567 4026 
Q 2313 4219 1838 4219 
Q 1578 4219 1281 4162 
Q 984 4106 628 3988 
L 628 4550 
Q 988 4650 1302 4700 
Q 1616 4750 1894 4750 
Q 2613 4750 3031 4423 
Q 3450 4097 3450 3541 
Q 3450 3153 3228 2886 
Q 3006 2619 2597 2516 
z
" transform="scale(0.015625)"/>
       </defs>
       <use xlink:href="#DejaVuSans-33"/>
       <use xlink:href="#DejaVuSans-30" transform="translate(63.623047 0)"/>
      </g>
     </g>
    </g>
    <g id="xtick_4">
     <g id="line2d_7">
      <path d="M 272.540244 277.478125 
L 272.540244 22.318125 
" clip-path="url(#pab5904b782)" style="fill: none; stroke: #b0b0b0; stroke-opacity: 0.25; stroke-width: 0.8; stroke-linecap: square"/>
     </g>
     <g id="line2d_8">
      <g>
       <use xlink:href="#m00c80c99d7" x="272.540244" y="277.478125" style="stroke: #000000; stroke-width: 0.8"/>
      </g>
     </g>
     <g id="text_4">
      <!-- 40 -->
      <g transform="translate(266.177744 292.076563) scale(0.1 -0.1)">
       <defs>
        <path id="DejaVuSans-34" d="M 2419 4116 
L 825 1625 
L 2419 1625 
L 2419 4116 
z
M 2253 4666 
L 3047 4666 
L 3047 1625 
L 3713 1625 
L 3713 1100 
L 3047 1100 
L 3047 0 
L 2419 0 
L 2419 1100 
L 313 1100 
L 313 1709 
L 2253 4666 
z
" transform="scale(0.015625)"/>
       </defs>
       <use xlink:href="#DejaVuSans-34"/>
       <use xlink:href="#DejaVuSans-30" transform="translate(63.623047 0)"/>
      </g>
     </g>
    </g>
    <g id="xtick_5">
     <g id="line2d_9">
      <path d="M 338.927256 277.478125 
L 338.927256 22.318125 
" clip-path="url(#pab5904b782)" style="fill: none; stroke: #b0b0b0; stroke-opacity: 0.25; stroke-width: 0.8; stroke-linecap: square"/>
     </g>
     <g id="line2d_10">
      <g>
       <use xlink:href="#m00c80c99d7" x="338.927256" y="277.478125" style="stroke: #000000; stroke-width: 0.8"/>
      </g>
     </g>
     <g id="text_5">
      <!-- 50 -->
      <g transform="translate(332.564756 292.076563) scale(0.1 -0.1)">
       <defs>
        <path id="DejaVuSans-35" d="M 691 4666 
L 3169 4666 
L 3169 4134 
L 1269 4134 
L 1269 2991 
Q 1406 3038 1543 3061 
Q 1681 3084 1819 3084 
Q 2600 3084 3056 2656 
Q 3513 2228 3513 1497 
Q 3513 744 3044 326 
Q 2575 -91 1722 -91 
Q 1428 -91 1123 -41 
Q 819 9 494 109 
L 494 744 
Q 775 591 1075 516 
Q 1375 441 1709 441 
Q 2250 441 2565 725 
Q 2881 1009 2881 1497 
Q 2881 1984 2565 2268 
Q 2250 2553 1709 2553 
Q 1456 2553 1204 2497 
Q 953 2441 691 2322 
L 691 4666 
z
" transform="scale(0.015625)"/>
       </defs>
       <use xlink:href="#DejaVuSans-35"/>
       <use xlink:href="#DejaVuSans-30" transform="translate(63.623047 0)"/>
      </g>
     </g>
    </g>
    <g id="xtick_6">
     <g id="line2d_11">
      <path d="M 405.314269 277.478125 
L 405.314269 22.318125 
" clip-path="url(#pab5904b782)" style="fill: none; stroke: #b0b0b0; stroke-opacity: 0.25; stroke-width: 0.8; stroke-linecap: square"/>
     </g>
     <g id="line2d_12">
      <g>
       <use xlink:href="#m00c80c99d7" x="405.314269" y="277.478125" style="stroke: #000000; stroke-width: 0.8"/>
      </g>
     </g>
     <g id="text_6">
      <!-- 60 -->
      <g transform="translate(398.951769 292.076563) scale(0.1 -0.1)">
       <defs>
        <path id="DejaVuSans-36" d="M 2113 2584 
Q 1688 2584 1439 2293 
Q 1191 2003 1191 1497 
Q 1191 994 1439 701 
Q 1688 409 2113 409 
Q 2538 409 2786 701 
Q 3034 994 3034 1497 
Q 3034 2003 2786 2293 
Q 2538 2584 2113 2584 
z
M 3366 4563 
L 3366 3988 
Q 3128 4100 2886 4159 
Q 2644 4219 2406 4219 
Q 1781 4219 1451 3797 
Q 1122 3375 1075 2522 
Q 1259 2794 1537 2939 
Q 1816 3084 2150 3084 
Q 2853 3084 3261 2657 
Q 3669 2231 3669 1497 
Q 3669 778 3244 343 
Q 2819 -91 2113 -91 
Q 1303 -91 875 529 
Q 447 1150 447 2328 
Q 447 3434 972 4092 
Q 1497 4750 2381 4750 
Q 2619 4750 2861 4703 
Q 3103 4656 3366 4563 
z
" transform="scale(0.015625)"/>
       </defs>
       <use xlink:href="#DejaVuSans-36"/>
       <use xlink:href="#DejaVuSans-30" transform="translate(63.623047 0)"/>
      </g>
     </g>
    </g>
    <g id="xtick_7">
     <g id="line2d_13">
      <path d="M 471.701282 277.478125 
L 471.701282 22.318125 
" clip-path="url(#pab5904b782)" style="fill: none; stroke: #b0b0b0; stroke-opacity: 0.25; stroke-width: 0.8; stroke-linecap: square"/>
     </g>
     <g id="line2d_14">
      <g>
       <use xlink:href="#m00c80c99d7" x="471.701282" y="277.478125" style="stroke: #000000; stroke-width: 0.8"/>
      </g>
     </g>
     <g id="text_7">
      <!-- 70 -->
      <g transform="translate(465.338782 292.076563) scale(0.1 -0.1)">
       <defs>
        <path id="DejaVuSans-37" d="M 525 4666 
L 3525 4666 
L 3525 4397 
L 1831 0 
L 1172 0 
L 2766 4134 
L 525 4134 
L 525 4666 
z
" transform="scale(0.015625)"/>
       </defs>
       <use xlink:href="#DejaVuSans-37"/>
       <use xlink:href="#DejaVuSans-30" transform="translate(63.623047 0)"/>
      </g>
     </g>
    </g>
    <g id="xtick_8">
     <g id="line2d_15">
      <path d="M 538.088295 277.478125 
L 538.088295 22.318125 
" clip-path="url(#pab5904b782)" style="fill: none; stroke: #b0b0b0; stroke-opacity: 0.25; stroke-width: 0.8; stroke-linecap: square"/>
     </g>
     <g id="line2d_16">
      <g>
       <use xlink:href="#m00c80c99d7" x="538.088295" y="277.478125" style="stroke: #000000; stroke-width: 0.8"/>
      </g>
     </g>
     <g id="text_8">
      <!-- 80 -->
      <g transform="translate(531.725795 292.076563) scale(0.1 -0.1)">
       <defs>
        <path id="DejaVuSans-38" d="M 2034 2216 
Q 1584 2216 1326 1975 
Q 1069 1734 1069 1313 
Q 1069 891 1326 650 
Q 1584 409 2034 409 
Q 2484 409 2743 651 
Q 3003 894 3003 1313 
Q 3003 1734 2745 1975 
Q 2488 2216 2034 2216 
z
M 1403 2484 
Q 997 2584 770 2862 
Q 544 3141 544 3541 
Q 544 4100 942 4425 
Q 1341 4750 2034 4750 
Q 2731 4750 3128 4425 
Q 3525 4100 3525 3541 
Q 3525 3141 3298 2862 
Q 3072 2584 2669 2484 
Q 3125 2378 3379 2068 
Q 3634 1759 3634 1313 
Q 3634 634 3220 271 
Q 2806 -91 2034 -91 
Q 1263 -91 848 271 
Q 434 634 434 1313 
Q 434 1759 690 2068 
Q 947 2378 1403 2484 
z
M 1172 3481 
Q 1172 3119 1398 2916 
Q 1625 2713 2034 2713 
Q 2441 2713 2670 2916 
Q 2900 3119 2900 3481 
Q 2900 3844 2670 4047 
Q 2441 4250 2034 4250 
Q 1625 4250 1398 4047 
Q 1172 3844 1172 3481 
z
" transform="scale(0.015625)"/>
       </defs>
       <use xlink:href="#DejaVuSans-38"/>
       <use xlink:href="#DejaVuSans-30" transform="translate(63.623047 0)"/>
      </g>
     </g>
    </g>
    <g id="text_9">
     <!-- age -->
     <g transform="translate(296.418906 305.754687) scale(0.1 -0.1)">
      <defs>
       <path id="DejaVuSans-61" d="M 2194 1759 
Q 1497 1759 1228 1600 
Q 959 1441 959 1056 
Q 959 750 1161 570 
Q 1363 391 1709 391 
Q 2188 391 2477 730 
Q 2766 1069 2766 1631 
L 2766 1759 
L 2194 1759 
z
M 3341 1997 
L 3341 0 
L 2766 0 
L 2766 531 
Q 2569 213 2275 61 
Q 1981 -91 1556 -91 
Q 1019 -91 701 211 
Q 384 513 384 1019 
Q 384 1609 779 1909 
Q 1175 2209 1959 2209 
L 2766 2209 
L 2766 2266 
Q 2766 2663 2505 2880 
Q 2244 3097 1772 3097 
Q 1472 3097 1187 3025 
Q 903 2953 641 2809 
L 641 3341 
Q 956 3463 1253 3523 
Q 1550 3584 1831 3584 
Q 2591 3584 2966 3190 
Q 3341 2797 3341 1997 
z
" transform="scale(0.015625)"/>
       <path id="DejaVuSans-67" d="M 2906 1791 
Q 2906 2416 2648 2759 
Q 2391 3103 1925 3103 
Q 1463 3103 1205 2759 
Q 947 2416 947 1791 
Q 947 1169 1205 825 
Q 1463 481 1925 481 
Q 2391 481 2648 825 
Q 2906 1169 2906 1791 
z
M 3481 434 
Q 3481 -459 3084 -895 
Q 2688 -1331 1869 -1331 
Q 1566 -1331 1297 -1286 
Q 1028 -1241 775 -1147 
L 775 -588 
Q 1028 -725 1275 -790 
Q 1522 -856 1778 -856 
Q 2344 -856 2625 -561 
Q 2906 -266 2906 331 
L 2906 616 
Q 2728 306 2450 153 
Q 2172 0 1784 0 
Q 1141 0 747 490 
Q 353 981 353 1791 
Q 353 2603 747 3093 
Q 1141 3584 1784 3584 
Q 2172 3584 2450 3431 
Q 2728 3278 2906 2969 
L 2906 3500 
L 3481 3500 
L 3481 434 
z
" transform="scale(0.015625)"/>
       <path id="DejaVuSans-65" d="M 3597 1894 
L 3597 1613 
L 953 1613 
Q 991 1019 1311 708 
Q 1631 397 2203 397 
Q 2534 397 2845 478 
Q 3156 559 3463 722 
L 3463 178 
Q 3153 47 2828 -22 
Q 2503 -91 2169 -91 
Q 1331 -91 842 396 
Q 353 884 353 1716 
Q 353 2575 817 3079 
Q 1281 3584 2069 3584 
Q 2775 3584 3186 3129 
Q 3597 2675 3597 1894 
z
M 3022 2063 
Q 3016 2534 2758 2815 
Q 2500 3097 2075 3097 
Q 1594 3097 1305 2825 
Q 1016 2553 972 2059 
L 3022 2063 
z
" transform="scale(0.015625)"/>
      </defs>
      <use xlink:href="#DejaVuSans-61"/>
      <use xlink:href="#DejaVuSans-67" transform="translate(61.279297 0)"/>
      <use xlink:href="#DejaVuSans-65" transform="translate(124.755859 0)"/>
     </g>
    </g>
   </g>
   <g id="matplotlib.axis_2">
    <g id="ytick_1">
     <g id="line2d_17">
      <path d="M 50.14375 265.879943 
L 561.32375 265.879943 
" clip-path="url(#pab5904b782)" style="fill: none; stroke: #b0b0b0; stroke-opacity: 0.25; stroke-width: 0.8; stroke-linecap: square"/>
     </g>
     <g id="line2d_18">
      <defs>
       <path id="m912d212bf8" d="M 0 0 
L -3.5 0 
" style="stroke: #000000; stroke-width: 0.8"/>
      </defs>
      <g>
       <use xlink:href="#m912d212bf8" x="50.14375" y="265.879943" style="stroke: #000000; stroke-width: 0.8"/>
      </g>
     </g>
     <g id="text_10">
      <!-- 0.00 -->
      <g transform="translate(20.878125 269.679162) scale(0.1 -0.1)">
       <defs>
        <path id="DejaVuSans-2e" d="M 684 794 
L 1344 794 
L 1344 0 
L 684 0 
L 684 794 
z
" transform="scale(0.015625)"/>
       </defs>
       <use xlink:href="#DejaVuSans-30"/>
       <use xlink:href="#DejaVuSans-2e" transform="translate(63.623047 0)"/>
       <use xlink:href="#DejaVuSans-30" transform="translate(95.410156 0)"/>
       <use xlink:href="#DejaVuSans-30" transform="translate(159.033203 0)"/>
      </g>
     </g>
    </g>
    <g id="ytick_2">
     <g id="line2d_19">
      <path d="M 50.14375 214.77243 
L 561.32375 214.77243 
" clip-path="url(#pab5904b782)" style="fill: none; stroke: #b0b0b0; stroke-opacity: 0.25; stroke-width: 0.8; stroke-linecap: square"/>
     </g>
     <g id="line2d_20">
      <g>
       <use xlink:href="#m912d212bf8" x="50.14375" y="214.77243" style="stroke: #000000; stroke-width: 0.8"/>
      </g>
     </g>
     <g id="text_11">
      <!-- 0.01 -->
      <g transform="translate(20.878125 218.571649) scale(0.1 -0.1)">
       <use xlink:href="#DejaVuSans-30"/>
       <use xlink:href="#DejaVuSans-2e" transform="translate(63.623047 0)"/>
       <use xlink:href="#DejaVuSans-30" transform="translate(95.410156 0)"/>
       <use xlink:href="#DejaVuSans-31" transform="translate(159.033203 0)"/>
      </g>
     </g>
    </g>
    <g id="ytick_3">
     <g id="line2d_21">
      <path d="M 50.14375 163.664916 
L 561.32375 163.664916 
" clip-path="url(#pab5904b782)" style="fill: none; stroke: #b0b0b0; stroke-opacity: 0.25; stroke-width: 0.8; stroke-linecap: square"/>
     </g>
     <g id="line2d_22">
      <g>
       <use xlink:href="#m912d212bf8" x="50.14375" y="163.664916" style="stroke: #000000; stroke-width: 0.8"/>
      </g>
     </g>
     <g id="text_12">
      <!-- 0.02 -->
      <g transform="translate(20.878125 167.464135) scale(0.1 -0.1)">
       <use xlink:href="#DejaVuSans-30"/>
       <use xlink:href="#DejaVuSans-2e" transform="translate(63.623047 0)"/>
       <use xlink:href="#DejaVuSans-30" transform="translate(95.410156 0)"/>
       <use xlink:href="#DejaVuSans-32" transform="translate(159.033203 0)"/>
      </g>
     </g>
    </g>
    <g id="ytick_4">
     <g id="line2d_23">
      <path d="M 50.14375 112.557403 
L 561.32375 112.557403 
" clip-path="url(#pab5904b782)" style="fill: none; stroke: #b0b0b0; stroke-opacity: 0.25; stroke-width: 0.8; stroke-linecap: square"/>
     </g>
     <g id="line2d_24">
      <g>
       <use xlink:href="#m912d212bf8" x="50.14375" y="112.557403" style="stroke: #000000; stroke-width: 0.8"/>
      </g>
     </g>
     <g id="text_13">
      <!-- 0.03 -->
      <g transform="translate(20.878125 116.356622) scale(0.1 -0.1)">
       <use xlink:href="#DejaVuSans-30"/>
       <use xlink:href="#DejaVuSans-2e" transform="translate(63.623047 0)"/>
       <use xlink:href="#DejaVuSans-30" transform="translate(95.410156 0)"/>
       <use xlink:href="#DejaVuSans-33" transform="translate(159.033203 0)"/>
      </g>
     </g>
    </g>
    <g id="ytick_5">
     <g id="line2d_25">
      <path d="M 50.14375 61.44989 
L 561.32375 61.44989 
" clip-path="url(#pab5904b782)" style="fill: none; stroke: #b0b0b0; stroke-opacity: 0.25; stroke-width: 0.8; stroke-linecap: square"/>
     </g>
     <g id="line2d_26">
      <g>
       <use xlink:href="#m912d212bf8" x="50.14375" y="61.44989" style="stroke: #000000; stroke-width: 0.8"/>
      </g>
     </g>
     <g id="text_14">
      <!-- 0.04 -->
      <g transform="translate(20.878125 65.249108) scale(0.1 -0.1)">
       <use xlink:href="#DejaVuSans-30"/>
       <use xlink:href="#DejaVuSans-2e" transform="translate(63.623047 0)"/>
       <use xlink:href="#DejaVuSans-30" transform="translate(95.410156 0)"/>
       <use xlink:href="#DejaVuSans-34" transform="translate(159.033203 0)"/>
      </g>
     </g>
    </g>
    <g id="text_15">
     <!-- density (per class) -->
     <g transform="translate(14.798438 196.028594) rotate(-90) scale(0.1 -0.1)">
      <defs>
       <path id="DejaVuSans-64" d="M 2906 2969 
L 2906 4863 
L 3481 4863 
L 3481 0 
L 2906 0 
L 2906 525 
Q 2725 213 2448 61 
Q 2172 -91 1784 -91 
Q 1150 -91 751 415 
Q 353 922 353 1747 
Q 353 2572 751 3078 
Q 1150 3584 1784 3584 
Q 2172 3584 2448 3432 
Q 2725 3281 2906 2969 
z
M 947 1747 
Q 947 1113 1208 752 
Q 1469 391 1925 391 
Q 2381 391 2643 752 
Q 2906 1113 2906 1747 
Q 2906 2381 2643 2742 
Q 2381 3103 1925 3103 
Q 1469 3103 1208 2742 
Q 947 2381 947 1747 
z
" transform="scale(0.015625)"/>
       <path id="DejaVuSans-6e" d="M 3513 2113 
L 3513 0 
L 2938 0 
L 2938 2094 
Q 2938 2591 2744 2837 
Q 2550 3084 2163 3084 
Q 1697 3084 1428 2787 
Q 1159 2491 1159 1978 
L 1159 0 
L 581 0 
L 581 3500 
L 1159 3500 
L 1159 2956 
Q 1366 3272 1645 3428 
Q 1925 3584 2291 3584 
Q 2894 3584 3203 3211 
Q 3513 2838 3513 2113 
z
" transform="scale(0.015625)"/>
       <path id="DejaVuSans-73" d="M 2834 3397 
L 2834 2853 
Q 2591 2978 2328 3040 
Q 2066 3103 1784 3103 
Q 1356 3103 1142 2972 
Q 928 2841 928 2578 
Q 928 2378 1081 2264 
Q 1234 2150 1697 2047 
L 1894 2003 
Q 2506 1872 2764 1633 
Q 3022 1394 3022 966 
Q 3022 478 2636 193 
Q 2250 -91 1575 -91 
Q 1294 -91 989 -36 
Q 684 19 347 128 
L 347 722 
Q 666 556 975 473 
Q 1284 391 1588 391 
Q 1994 391 2212 530 
Q 2431 669 2431 922 
Q 2431 1156 2273 1281 
Q 2116 1406 1581 1522 
L 1381 1569 
Q 847 1681 609 1914 
Q 372 2147 372 2553 
Q 372 3047 722 3315 
Q 1072 3584 1716 3584 
Q 2034 3584 2315 3537 
Q 2597 3491 2834 3397 
z
" transform="scale(0.015625)"/>
       <path id="DejaVuSans-69" d="M 603 3500 
L 1178 3500 
L 1178 0 
L 603 0 
L 603 3500 
z
M 603 4863 
L 1178 4863 
L 1178 4134 
L 603 4134 
L 603 4863 
z
" transform="scale(0.015625)"/>
       <path id="DejaVuSans-74" d="M 1172 4494 
L 1172 3500 
L 2356 3500 
L 2356 3053 
L 1172 3053 
L 1172 1153 
Q 1172 725 1289 603 
Q 1406 481 1766 481 
L 2356 481 
L 2356 0 
L 1766 0 
Q 1100 0 847 248 
Q 594 497 594 1153 
L 594 3053 
L 172 3053 
L 172 3500 
L 594 3500 
L 594 4494 
L 1172 4494 
z
" transform="scale(0.015625)"/>
       <path id="DejaVuSans-79" d="M 2059 -325 
Q 1816 -950 1584 -1140 
Q 1353 -1331 966 -1331 
L 506 -1331 
L 506 -850 
L 844 -850 
Q 1081 -850 1212 -737 
Q 1344 -625 1503 -206 
L 1606 56 
L 191 3500 
L 800 3500 
L 1894 763 
L 2988 3500 
L 3597 3500 
L 2059 -325 
z
" transform="scale(0.015625)"/>
       <path id="DejaVuSans-20" transform="scale(0.015625)"/>
       <path id="DejaVuSans-28" d="M 1984 4856 
Q 1566 4138 1362 3434 
Q 1159 2731 1159 2009 
Q 1159 1288 1364 580 
Q 1569 -128 1984 -844 
L 1484 -844 
Q 1016 -109 783 600 
Q 550 1309 550 2009 
Q 550 2706 781 3412 
Q 1013 4119 1484 4856 
L 1984 4856 
z
" transform="scale(0.015625)"/>
       <path id="DejaVuSans-70" d="M 1159 525 
L 1159 -1331 
L 581 -1331 
L 581 3500 
L 1159 3500 
L 1159 2969 
Q 1341 3281 1617 3432 
Q 1894 3584 2278 3584 
Q 2916 3584 3314 3078 
Q 3713 2572 3713 1747 
Q 3713 922 3314 415 
Q 2916 -91 2278 -91 
Q 1894 -91 1617 61 
Q 1341 213 1159 525 
z
M 3116 1747 
Q 3116 2381 2855 2742 
Q 2594 3103 2138 3103 
Q 1681 3103 1420 2742 
Q 1159 2381 1159 1747 
Q 1159 1113 1420 752 
Q 1681 391 2138 391 
Q 2594 391 2855 752 
Q 3116 1113 3116 1747 
z
" transform="scale(0.015625)"/>
       <path id="DejaVuSans-72" d="M 2631 2963 
Q 2534 3019 2420 3045 
Q 2306 3072 2169 3072 
Q 1681 3072 1420 2755 
Q 1159 2438 1159 1844 
L 1159 0 
L 581 0 
L 581 3500 
L 1159 3500 
L 1159 2956 
Q 1341 3275 1631 3429 
Q 1922 3584 2338 3584 
Q 2397 3584 2469 3576 
Q 2541 3569 2628 3553 
L 2631 2963 
z
" transform="scale(0.015625)"/>
       <path id="DejaVuSans-63" d="M 3122 3366 
L 3122 2828 
Q 2878 2963 2633 3030 
Q 2388 3097 2138 3097 
Q 1578 3097 1268 2742 
Q 959 2388 959 1747 
Q 959 1106 1268 751 
Q 1578 397 2138 397 
Q 2388 397 2633 464 
Q 2878 531 3122 666 
L 3122 134 
Q 2881 22 2623 -34 
Q 2366 -91 2075 -91 
Q 1284 -91 818 406 
Q 353 903 353 1747 
Q 353 2603 823 3093 
Q 1294 3584 2113 3584 
Q 2378 3584 2631 3529 
Q 2884 3475 3122 3366 
z
" transform="scale(0.015625)"/>
       <path id="DejaVuSans-6c" d="M 603 4863 
L 1178 4863 
L 1178 0 
L 603 0 
L 603 4863 
z
" transform="scale(0.015625)"/>
       <path id="DejaVuSans-29" d="M 513 4856 
L 1013 4856 
Q 1481 4119 1714 3412 
Q 1947 2706 1947 2009 
Q 1947 1309 1714 600 
Q 1481 -109 1013 -844 
L 513 -844 
Q 928 -128 1133 580 
Q 1338 1288 1338 2009 
Q 1338 2731 1133 3434 
Q 928 4138 513 4856 
z
" transform="scale(0.015625)"/>
      </defs>
      <use xlink:href="#DejaVuSans-64"/>
      <use xlink:href="#DejaVuSans-65" transform="translate(63.476562 0)"/>
      <use xlink:href="#DejaVuSans-6e" transform="translate(125 0)"/>
      <use xlink:href="#DejaVuSans-73" transform="translate(188.378906 0)"/>
      <use xlink:href="#DejaVuSans-69" transform="translate(240.478516 0)"/>
      <use xlink:href="#DejaVuSans-74" transform="translate(268.261719 0)"/>
      <use xlink:href="#DejaVuSans-79" transform="translate(307.470703 0)"/>
      <use xlink:href="#DejaVuSans-20" transform="translate(366.650391 0)"/>
      <use xlink:href="#DejaVuSans-28" transform="translate(398.4375 0)"/>
      <use xlink:href="#DejaVuSans-70" transform="translate(437.451172 0)"/>
      <use xlink:href="#DejaVuSans-65" transform="translate(500.927734 0)"/>
      <use xlink:href="#DejaVuSans-72" transform="translate(562.451172 0)"/>
      <use xlink:href="#DejaVuSans-20" transform="translate(603.564453 0)"/>
      <use xlink:href="#DejaVuSans-63" transform="translate(635.351562 0)"/>
      <use xlink:href="#DejaVuSans-6c" transform="translate(690.332031 0)"/>
      <use xlink:href="#DejaVuSans-61" transform="translate(718.115234 0)"/>
      <use xlink:href="#DejaVuSans-73" transform="translate(779.394531 0)"/>
      <use xlink:href="#DejaVuSans-73" transform="translate(831.494141 0)"/>
      <use xlink:href="#DejaVuSans-29" transform="translate(883.59375 0)"/>
     </g>
    </g>
   </g>
   <g id="line2d_27">
    <path d="M 73.379205 264.412038 
L 76.873258 263.74794 
L 80.367311 262.893605 
L 83.861364 261.83693 
L 87.355418 260.575017 
L 90.849471 259.110896 
L 94.343524 257.446668 
L 97.837578 255.574528 
L 101.331631 253.468578 
L 104.825684 251.081093 
L 108.319738 248.346374 
L 110.649107 246.294892 
L 112.978475 244.038736 
L 115.307844 241.565078 
L 118.801898 237.439686 
L 122.295951 232.846173 
L 125.790004 227.867748 
L 131.613426 219.061332 
L 144.424955 199.54723 
L 149.083693 192.264976 
L 152.577746 186.369719 
L 154.907115 182.11235 
L 157.236484 177.525752 
L 159.565853 172.565679 
L 161.895222 167.205089 
L 164.224591 161.43756 
L 167.718644 152.065202 
L 171.212697 141.971519 
L 178.200804 120.739276 
L 182.859542 106.977334 
L 186.353595 97.485451 
L 188.682964 91.717996 
L 191.012333 86.466829 
L 193.341702 81.759928 
L 195.671071 77.597213 
L 198.000439 73.95219 
L 200.329808 70.775938 
L 202.659177 68.002949 
L 204.988546 65.558046 
L 208.482599 62.336692 
L 213.141337 58.510138 
L 225.952866 48.285759 
L 234.105657 41.692847 
L 237.59971 39.104114 
L 239.929079 37.556809 
L 242.258448 36.212197 
L 244.587817 35.126411 
L 246.917186 34.356938 
L 249.246555 33.959447 
L 250.411239 33.916307 
L 251.575924 33.984623 
L 252.740608 34.169512 
L 253.905292 34.475489 
L 255.069977 34.906435 
L 256.234661 35.465581 
L 257.399346 36.15551 
L 259.728715 37.934906 
L 262.058084 40.253164 
L 264.387452 43.110398 
L 266.716821 46.499637 
L 269.04619 50.407902 
L 271.375559 54.816763 
L 273.704928 59.70231 
L 276.034297 65.034674 
L 279.52835 73.789388 
L 283.022403 83.313723 
L 287.681141 96.889768 
L 295.833932 121.706101 
L 301.657354 139.162832 
L 306.316092 152.472816 
L 309.810146 161.92474 
L 313.304199 170.845058 
L 316.798252 179.185881 
L 320.292305 186.922962 
L 323.786359 194.060303 
L 327.280412 200.630887 
L 330.774465 206.690664 
L 334.268519 212.306221 
L 337.762572 217.539797 
L 341.256625 222.436726 
L 344.750679 227.019476 
L 348.244732 231.289704 
L 351.738785 235.23658 
L 355.232839 238.847574 
L 358.726892 242.11763 
L 362.220945 245.054065 
L 365.714999 247.676681 
L 369.209052 250.014356 
L 372.703105 252.100231 
L 376.197159 253.967284 
L 380.855896 256.166968 
L 385.514634 258.086238 
L 390.173372 259.763197 
L 394.83211 261.217952 
L 399.490847 262.456061 
L 404.149585 263.475799 
L 408.808323 264.277788 
L 413.467061 264.873166 
L 419.290483 265.365578 
L 426.278589 265.681002 
L 435.596065 265.836758 
L 456.560385 265.879506 
L 538.088295 265.879943 
L 538.088295 265.879943 
" clip-path="url(#pab5904b782)" style="fill: none; stroke: #7aa6c2; stroke-width: 2; stroke-linecap: square"/>
   </g>
   <g id="line2d_28">
    <path d="M 73.379205 265.879065 
L 105.990369 265.768611 
L 116.472529 265.531654 
L 124.62532 265.136678 
L 131.613426 264.568984 
L 137.436849 263.88251 
L 143.260271 262.957911 
L 147.919009 262.015076 
L 152.577746 260.85911 
L 157.236484 259.451517 
L 160.730537 258.202363 
L 164.224591 256.761953 
L 167.718644 255.105696 
L 171.212697 253.209009 
L 174.706751 251.049182 
L 178.200804 248.607341 
L 181.694857 245.870206 
L 185.188911 242.83133 
L 188.682964 239.491599 
L 192.177017 235.858831 
L 195.671071 231.946511 
L 200.329808 226.324996 
L 204.988546 220.279132 
L 209.647284 213.842284 
L 214.306022 207.027801 
L 218.964759 199.820281 
L 223.623497 192.17101 
L 228.282235 183.998922 
L 231.776288 177.463687 
L 235.270341 170.526056 
L 238.764395 163.13919 
L 242.258448 155.265188 
L 245.752501 146.88297 
L 249.246555 137.996827 
L 253.905292 125.436487 
L 259.728715 108.907374 
L 267.881506 85.619253 
L 271.375559 76.238568 
L 274.869612 67.614126 
L 277.198981 62.422076 
L 279.52835 57.766098 
L 281.857719 53.714434 
L 284.187088 50.324204 
L 285.351772 48.891292 
L 286.516457 47.638831 
L 287.681141 46.569771 
L 288.845826 45.685977 
L 290.01051 44.98821 
L 291.175195 44.476105 
L 292.339879 44.148171 
L 293.504563 44.001801 
L 294.669248 44.0333 
L 295.833932 44.237916 
L 296.998617 44.609894 
L 298.163301 45.142538 
L 299.327986 45.828281 
L 301.657354 47.62497 
L 303.986723 49.925438 
L 306.316092 52.647422 
L 308.645461 55.704497 
L 312.139514 60.729045 
L 326.115728 81.556275 
L 329.609781 86.207391 
L 333.103834 90.561506 
L 337.762572 96.008016 
L 350.574101 110.649241 
L 355.232839 116.493599 
L 359.891576 122.805212 
L 364.550314 129.565571 
L 370.373736 138.464761 
L 379.691212 152.778206 
L 384.34995 159.460331 
L 387.844003 164.099069 
L 391.338056 168.367061 
L 394.83211 172.258285 
L 398.326163 175.806601 
L 402.984901 180.131958 
L 414.631745 190.555024 
L 418.125798 194.04357 
L 421.619852 197.847266 
L 425.113905 201.994819 
L 428.607958 206.474502 
L 433.266696 212.873904 
L 441.419487 224.642331 
L 447.242909 232.838563 
L 450.736963 237.434887 
L 454.231016 241.684112 
L 457.725069 245.52229 
L 461.219123 248.906383 
L 463.548491 250.898047 
L 465.87786 252.675019 
L 468.207229 254.238213 
L 470.536598 255.591358 
L 472.865967 256.740619 
L 475.195336 257.694239 
L 477.524705 258.462216 
L 479.854074 259.056011 
L 482.183442 259.488301 
L 485.677496 259.864083 
L 489.171549 259.956968 
L 492.665602 259.819482 
L 497.32434 259.372117 
L 504.312447 258.400716 
L 512.465238 257.310827 
L 517.123976 256.91407 
L 521.782713 256.774074 
L 525.276767 256.860393 
L 529.935504 257.234042 
L 534.594242 257.877329 
L 538.088295 258.504206 
L 538.088295 258.504206 
" clip-path="url(#pab5904b782)" style="fill: none; stroke: #e15759; stroke-width: 2; stroke-linecap: square"/>
   </g>
   <g id="patch_3">
    <path d="M 50.14375 277.478125 
L 50.14375 22.318125 
" style="fill: none; stroke: #000000; stroke-width: 0.8; stroke-linejoin: miter; stroke-linecap: square"/>
   </g>
   <g id="patch_4">
    <path d="M 561.32375 277.478125 
L 561.32375 22.318125 
" style="fill: none; stroke: #000000; stroke-width: 0.8; stroke-linejoin: miter; stroke-linecap: square"/>
   </g>
   <g id="patch_5">
    <path d="M 50.14375 277.478125 
L 561.32375 277.478125 
" style="fill: none; stroke: #000000; stroke-width: 0.8; stroke-linejoin: miter; stroke-linecap: square"/>
   </g>
   <g id="patch_6">
    <path d="M 50.14375 22.318125 
L 561.32375 22.318125 
" style="fill: none; stroke: #000000; stroke-width: 0.8; stroke-linejoin: miter; stroke-linecap: square"/>
   </g>
   <g id="text_16">
    <!-- Class-conditional KDE: see how the feature separates classes -->
    <g transform="translate(121.26 16.318125) scale(0.12 -0.12)">
     <defs>
      <path id="DejaVuSans-43" d="M 4122 4306 
L 4122 3641 
Q 3803 3938 3442 4084 
Q 3081 4231 2675 4231 
Q 1875 4231 1450 3742 
Q 1025 3253 1025 2328 
Q 1025 1406 1450 917 
Q 1875 428 2675 428 
Q 3081 428 3442 575 
Q 3803 722 4122 1019 
L 4122 359 
Q 3791 134 3420 21 
Q 3050 -91 2638 -91 
Q 1578 -91 968 557 
Q 359 1206 359 2328 
Q 359 3453 968 4101 
Q 1578 4750 2638 4750 
Q 3056 4750 3426 4639 
Q 3797 4528 4122 4306 
z
" transform="scale(0.015625)"/>
      <path id="DejaVuSans-2d" d="M 313 2009 
L 1997 2009 
L 1997 1497 
L 313 1497 
L 313 2009 
z
" transform="scale(0.015625)"/>
      <path id="DejaVuSans-6f" d="M 1959 3097 
Q 1497 3097 1228 2736 
Q 959 2375 959 1747 
Q 959 1119 1226 758 
Q 1494 397 1959 397 
Q 2419 397 2687 759 
Q 2956 1122 2956 1747 
Q 2956 2369 2687 2733 
Q 2419 3097 1959 3097 
z
M 1959 3584 
Q 2709 3584 3137 3096 
Q 3566 2609 3566 1747 
Q 3566 888 3137 398 
Q 2709 -91 1959 -91 
Q 1206 -91 779 398 
Q 353 888 353 1747 
Q 353 2609 779 3096 
Q 1206 3584 1959 3584 
z
" transform="scale(0.015625)"/>
      <path id="DejaVuSans-4b" d="M 628 4666 
L 1259 4666 
L 1259 2694 
L 3353 4666 
L 4166 4666 
L 1850 2491 
L 4331 0 
L 3500 0 
L 1259 2247 
L 1259 0 
L 628 0 
L 628 4666 
z
" transform="scale(0.015625)"/>
      <path id="DejaVuSans-44" d="M 1259 4147 
L 1259 519 
L 2022 519 
Q 2988 519 3436 956 
Q 3884 1394 3884 2338 
Q 3884 3275 3436 3711 
Q 2988 4147 2022 4147 
L 1259 4147 
z
M 628 4666 
L 1925 4666 
Q 3281 4666 3915 4102 
Q 4550 3538 4550 2338 
Q 4550 1131 3912 565 
Q 3275 0 1925 0 
L 628 0 
L 628 4666 
z
" transform="scale(0.015625)"/>
      <path id="DejaVuSans-45" d="M 628 4666 
L 3578 4666 
L 3578 4134 
L 1259 4134 
L 1259 2753 
L 3481 2753 
L 3481 2222 
L 1259 2222 
L 1259 531 
L 3634 531 
L 3634 0 
L 628 0 
L 628 4666 
z
" transform="scale(0.015625)"/>
      <path id="DejaVuSans-3a" d="M 750 794 
L 1409 794 
L 1409 0 
L 750 0 
L 750 794 
z
M 750 3309 
L 1409 3309 
L 1409 2516 
L 750 2516 
L 750 3309 
z
" transform="scale(0.015625)"/>
      <path id="DejaVuSans-68" d="M 3513 2113 
L 3513 0 
L 2938 0 
L 2938 2094 
Q 2938 2591 2744 2837 
Q 2550 3084 2163 3084 
Q 1697 3084 1428 2787 
Q 1159 2491 1159 1978 
L 1159 0 
L 581 0 
L 581 4863 
L 1159 4863 
L 1159 2956 
Q 1366 3272 1645 3428 
Q 1925 3584 2291 3584 
Q 2894 3584 3203 3211 
Q 3513 2838 3513 2113 
z
" transform="scale(0.015625)"/>
      <path id="DejaVuSans-77" d="M 269 3500 
L 844 3500 
L 1563 769 
L 2278 3500 
L 2956 3500 
L 3675 769 
L 4391 3500 
L 4966 3500 
L 4050 0 
L 3372 0 
L 2619 2869 
L 1863 0 
L 1184 0 
L 269 3500 
z
" transform="scale(0.015625)"/>
      <path id="DejaVuSans-66" d="M 2375 4863 
L 2375 4384 
L 1825 4384 
Q 1516 4384 1395 4259 
Q 1275 4134 1275 3809 
L 1275 3500 
L 2222 3500 
L 2222 3053 
L 1275 3053 
L 1275 0 
L 697 0 
L 697 3053 
L 147 3053 
L 147 3500 
L 697 3500 
L 697 3744 
Q 697 4328 969 4595 
Q 1241 4863 1831 4863 
L 2375 4863 
z
" transform="scale(0.015625)"/>
      <path id="DejaVuSans-75" d="M 544 1381 
L 544 3500 
L 1119 3500 
L 1119 1403 
Q 1119 906 1312 657 
Q 1506 409 1894 409 
Q 2359 409 2629 706 
Q 2900 1003 2900 1516 
L 2900 3500 
L 3475 3500 
L 3475 0 
L 2900 0 
L 2900 538 
Q 2691 219 2414 64 
Q 2138 -91 1772 -91 
Q 1169 -91 856 284 
Q 544 659 544 1381 
z
M 1991 3584 
L 1991 3584 
z
" transform="scale(0.015625)"/>
     </defs>
     <use xlink:href="#DejaVuSans-43"/>
     <use xlink:href="#DejaVuSans-6c" transform="translate(69.824219 0)"/>
     <use xlink:href="#DejaVuSans-61" transform="translate(97.607422 0)"/>
     <use xlink:href="#DejaVuSans-73" transform="translate(158.886719 0)"/>
     <use xlink:href="#DejaVuSans-73" transform="translate(210.986328 0)"/>
     <use xlink:href="#DejaVuSans-2d" transform="translate(263.085938 0)"/>
     <use xlink:href="#DejaVuSans-63" transform="translate(299.169922 0)"/>
     <use xlink:href="#DejaVuSans-6f" transform="translate(354.150391 0)"/>
     <use xlink:href="#DejaVuSans-6e" transform="translate(415.332031 0)"/>
     <use xlink:href="#DejaVuSans-64" transform="translate(478.710938 0)"/>
     <use xlink:href="#DejaVuSans-69" transform="translate(542.1875 0)"/>
     <use xlink:href="#DejaVuSans-74" transform="translate(569.970703 0)"/>
     <use xlink:href="#DejaVuSans-69" transform="translate(609.179688 0)"/>
     <use xlink:href="#DejaVuSans-6f" transform="translate(636.962891 0)"/>
     <use xlink:href="#DejaVuSans-6e" transform="translate(698.144531 0)"/>
     <use xlink:href="#DejaVuSans-61" transform="translate(761.523438 0)"/>
     <use xlink:href="#DejaVuSans-6c" transform="translate(822.802734 0)"/>
     <use xlink:href="#DejaVuSans-20" transform="translate(850.585938 0)"/>
     <use xlink:href="#DejaVuSans-4b" transform="translate(882.373047 0)"/>
     <use xlink:href="#DejaVuSans-44" transform="translate(947.949219 0)"/>
     <use xlink:href="#DejaVuSans-45" transform="translate(1024.951172 0)"/>
     <use xlink:href="#DejaVuSans-3a" transform="translate(1088.134766 0)"/>
     <use xlink:href="#DejaVuSans-20" transform="translate(1121.826172 0)"/>
     <use xlink:href="#DejaVuSans-73" transform="translate(1153.613281 0)"/>
     <use xlink:href="#DejaVuSans-65" transform="translate(1205.712891 0)"/>
     <use xlink:href="#DejaVuSans-65" transform="translate(1267.236328 0)"/>
     <use xlink:href="#DejaVuSans-20" transform="translate(1328.759766 0)"/>
     <use xlink:href="#DejaVuSans-68" transform="translate(1360.546875 0)"/>
     <use xlink:href="#DejaVuSans-6f" transform="translate(1423.925781 0)"/>
     <use xlink:href="#DejaVuSans-77" transform="translate(1485.107422 0)"/>
     <use xlink:href="#DejaVuSans-20" transform="translate(1566.894531 0)"/>
     <use xlink:href="#DejaVuSans-74" transform="translate(1598.681641 0)"/>
     <use xlink:href="#DejaVuSans-68" transform="translate(1637.890625 0)"/>
     <use xlink:href="#DejaVuSans-65" transform="translate(1701.269531 0)"/>
     <use xlink:href="#DejaVuSans-20" transform="translate(1762.792969 0)"/>
     <use xlink:href="#DejaVuSans-66" transform="translate(1794.580078 0)"/>
     <use xlink:href="#DejaVuSans-65" transform="translate(1829.785156 0)"/>
     <use xlink:href="#DejaVuSans-61" transform="translate(1891.308594 0)"/>
     <use xlink:href="#DejaVuSans-74" transform="translate(1952.587891 0)"/>
     <use xlink:href="#DejaVuSans-75" transform="translate(1991.796875 0)"/>
     <use xlink:href="#DejaVuSans-72" transform="translate(2055.175781 0)"/>
     <use xlink:href="#DejaVuSans-65" transform="translate(2094.039062 0)"/>
     <use xlink:href="#DejaVuSans-20" transform="translate(2155.5625 0)"/>
     <use xlink:href="#DejaVuSans-73" transform="translate(2187.349609 0)"/>
     <use xlink:href="#DejaVuSans-65" transform="translate(2239.449219 0)"/>
     <use xlink:href="#DejaVuSans-70" transform="translate(2300.972656 0)"/>
     <use xlink:href="#DejaVuSans-61" transform="translate(2364.449219 0)"/>
     <use xlink:href="#DejaVuSans-72" transform="translate(2425.728516 0)"/>
     <use xlink:href="#DejaVuSans-61" transform="translate(2466.841797 0)"/>
     <use xlink:href="#DejaVuSans-74" transform="translate(2528.121094 0)"/>
     <use xlink:href="#DejaVuSans-65" transform="translate(2567.330078 0)"/>
     <use xlink:href="#DejaVuSans-73" transform="translate(2628.853516 0)"/>
     <use xlink:href="#DejaVuSans-20" transform="translate(2680.953125 0)"/>
     <use xlink:href="#DejaVuSans-63" transform="translate(2712.740234 0)"/>
     <use xlink:href="#DejaVuSans-6c" transform="translate(2767.720703 0)"/>
     <use xlink:href="#DejaVuSans-61" transform="translate(2795.503906 0)"/>
     <use xlink:href="#DejaVuSans-73" transform="translate(2856.783203 0)"/>
     <use xlink:href="#DejaVuSans-73" transform="translate(2908.882812 0)"/>
     <use xlink:href="#DejaVuSans-65" transform="translate(2960.982422 0)"/>
     <use xlink:href="#DejaVuSans-73" transform="translate(3022.505859 0)"/>
    </g>
   </g>
   <g id="legend_1">
    <g id="patch_7">
     <path d="M 426.13 59.674375 
L 554.32375 59.674375 
Q 556.32375 59.674375 556.32375 57.674375 
L 556.32375 29.318125 
Q 556.32375 27.318125 554.32375 27.318125 
L 426.13 27.318125 
Q 424.13 27.318125 424.13 29.318125 
L 424.13 57.674375 
Q 424.13 59.674375 426.13 59.674375 
z
" style="fill: #ffffff; opacity: 0.8; stroke: #cccccc; stroke-linejoin: miter"/>
    </g>
    <g id="line2d_29">
     <path d="M 428.13 35.416562 
L 438.13 35.416562 
L 448.13 35.416562 
" style="fill: none; stroke: #7aa6c2; stroke-width: 2; stroke-linecap: square"/>
    </g>
    <g id="text_17">
     <!-- class 0 (non-churn) -->
     <g transform="translate(456.13 38.916562) scale(0.1 -0.1)">
      <use xlink:href="#DejaVuSans-63"/>
      <use xlink:href="#DejaVuSans-6c" transform="translate(54.980469 0)"/>
      <use xlink:href="#DejaVuSans-61" transform="translate(82.763672 0)"/>
      <use xlink:href="#DejaVuSans-73" transform="translate(144.042969 0)"/>
      <use xlink:href="#DejaVuSans-73" transform="translate(196.142578 0)"/>
      <use xlink:href="#DejaVuSans-20" transform="translate(248.242188 0)"/>
      <use xlink:href="#DejaVuSans-30" transform="translate(280.029297 0)"/>
      <use xlink:href="#DejaVuSans-20" transform="translate(343.652344 0)"/>
      <use xlink:href="#DejaVuSans-28" transform="translate(375.439453 0)"/>
      <use xlink:href="#DejaVuSans-6e" transform="translate(414.453125 0)"/>
      <use xlink:href="#DejaVuSans-6f" transform="translate(477.832031 0)"/>
      <use xlink:href="#DejaVuSans-6e" transform="translate(539.013672 0)"/>
      <use xlink:href="#DejaVuSans-2d" transform="translate(602.392578 0)"/>
      <use xlink:href="#DejaVuSans-63" transform="translate(638.476562 0)"/>
      <use xlink:href="#DejaVuSans-68" transform="translate(693.457031 0)"/>
      <use xlink:href="#DejaVuSans-75" transform="translate(756.835938 0)"/>
      <use xlink:href="#DejaVuSans-72" transform="translate(820.214844 0)"/>
      <use xlink:href="#DejaVuSans-6e" transform="translate(859.578125 0)"/>
      <use xlink:href="#DejaVuSans-29" transform="translate(922.957031 0)"/>
     </g>
    </g>
    <g id="line2d_30">
     <path d="M 428.13 50.094688 
L 438.13 50.094688 
L 448.13 50.094688 
" style="fill: none; stroke: #e15759; stroke-width: 2; stroke-linecap: square"/>
    </g>
    <g id="text_18">
     <!-- class 1 (churn) -->
     <g transform="translate(456.13 53.594688) scale(0.1 -0.1)">
      <use xlink:href="#DejaVuSans-63"/>
      <use xlink:href="#DejaVuSans-6c" transform="translate(54.980469 0)"/>
      <use xlink:href="#DejaVuSans-61" transform="translate(82.763672 0)"/>
      <use xlink:href="#DejaVuSans-73" transform="translate(144.042969 0)"/>
      <use xlink:href="#DejaVuSans-73" transform="translate(196.142578 0)"/>
      <use xlink:href="#DejaVuSans-20" transform="translate(248.242188 0)"/>
      <use xlink:href="#DejaVuSans-31" transform="translate(280.029297 0)"/>
      <use xlink:href="#DejaVuSans-20" transform="translate(343.652344 0)"/>
      <use xlink:href="#DejaVuSans-28" transform="translate(375.439453 0)"/>
      <use xlink:href="#DejaVuSans-63" transform="translate(414.453125 0)"/>
      <use xlink:href="#DejaVuSans-68" transform="translate(469.433594 0)"/>
      <use xlink:href="#DejaVuSans-75" transform="translate(532.8125 0)"/>
      <use xlink:href="#DejaVuSans-72" transform="translate(596.191406 0)"/>
      <use xlink:href="#DejaVuSans-6e" transform="translate(635.554688 0)"/>
      <use xlink:href="#DejaVuSans-29" transform="translate(698.933594 0)"/>
     </g>
    </g>
   </g>
  </g>
 </g>
 <defs>
  <clipPath id="pab5904b782">
   <rect x="50.14375" y="22.318125" width="511.18" height="255.16"/>
  </clipPath>
 </defs>
</svg>
