<?xml version="1.0" encoding="utf-8" standalone="no"?>
<!DOCTYPE svg PUBLIC "-//W3C//DTD SVG 1.1//EN"
  "http://www.w3.org/Graphics/SVG/1.1/DTD/svg11.dtd">
<svg xmlns:xlink="http://www.w3.org/1999/xlink" width="604.52375pt" height="315.034375pt" viewBox="0 0 604.52375 315.034375" xmlns="http://www.w3.org/2000/svg" version="1.1">
 <metadata>
  <rdf:RDF xmlns:dc="http://purl.org/dc/elements/1.1/" xmlns:cc="http://creativecommons.org/ns#" xmlns:rdf="http://www.w3.org/1999/02/22-rdf-syntax-ns#">
   <cc:Work>
    <dc:type rdf:resource="http://purl.org/dc/dcmitype/StillImage"/>
    <dc:date>2026-05-26T09:25:44.321669</dc:date>
    <dc:format>image/svg+xml</dc:format>
    <dc:creator>
     <cc:Agent>
      <dc:title>Matplotlib v3.10.8, https://matplotlib.org/</dc:title>
     </cc:Agent>
    </dc:creator>
   </cc:Work>
  </rdf:RDF>
 </metadata>
 <defs>
  <style type="text/css">*{stroke-linejoin: round; stroke-linecap: butt}</style>
 </defs>
 <g id="figure_1">
  <g id="patch_1">
   <path d="M 0 315.034375 
L 604.52375 315.034375 
L 604.52375 0 
L 0 0 
z
" style="fill: #ffffff"/>
  </g>
  <g id="axes_1">
   <g id="patch_2">
    <path d="M 50.14375 277.478125 
L 597.32375 277.478125 
L 597.32375 22.318125 
L 50.14375 22.318125 
z
" style="fill: #ffffff"/>
   </g>
   <g id="matplotlib.axis_1">
    <g id="xtick_1">
     <g id="line2d_1">
      <path d="M 75.015568 277.478125 
L 75.015568 22.318125 
" clip-path="url(#p807c8804d8)" style="fill: none; stroke: #b0b0b0; stroke-opacity: 0.25; stroke-width: 0.8; stroke-linecap: square"/>
     </g>
     <g id="line2d_2">
      <defs>
       <path id="m2bd1088390" d="M 0 0 
L 0 3.5 
" style="stroke: #000000; stroke-width: 0.8"/>
      </defs>
      <g>
       <use xlink:href="#m2bd1088390" x="75.015568" y="277.478125" style="stroke: #000000; stroke-width: 0.8"/>
      </g>
     </g>
     <g id="text_1">
      <!-- −4 -->
      <g transform="translate(67.644474 292.076563) scale(0.1 -0.1)">
       <defs>
        <path id="DejaVuSans-2212" d="M 678 2272 
L 4684 2272 
L 4684 1741 
L 678 1741 
L 678 2272 
z
" transform="scale(0.015625)"/>
        <path id="DejaVuSans-34" d="M 2419 4116 
L 825 1625 
L 2419 1625 
L 2419 4116 
z
M 2253 4666 
L 3047 4666 
L 3047 1625 
L 3713 1625 
L 3713 1100 
L 3047 1100 
L 3047 0 
L 2419 0 
L 2419 1100 
L 313 1100 
L 313 1709 
L 2253 4666 
z
" transform="scale(0.015625)"/>
       </defs>
       <use xlink:href="#DejaVuSans-2212"/>
       <use xlink:href="#DejaVuSans-34" transform="translate(83.789062 0)"/>
      </g>
     </g>
    </g>
    <g id="xtick_2">
     <g id="line2d_3">
      <path d="M 137.195114 277.478125 
L 137.195114 22.318125 
" clip-path="url(#p807c8804d8)" style="fill: none; stroke: #b0b0b0; stroke-opacity: 0.25; stroke-width: 0.8; stroke-linecap: square"/>
     </g>
     <g id="line2d_4">
      <g>
       <use xlink:href="#m2bd1088390" x="137.195114" y="277.478125" style="stroke: #000000; stroke-width: 0.8"/>
      </g>
     </g>
     <g id="text_2">
      <!-- −3 -->
      <g transform="translate(129.82402 292.076563) scale(0.1 -0.1)">
       <defs>
        <path id="DejaVuSans-33" d="M 2597 2516 
Q 3050 2419 3304 2112 
Q 3559 1806 3559 1356 
Q 3559 666 3084 287 
Q 2609 -91 1734 -91 
Q 1441 -91 1130 -33 
Q 819 25 488 141 
L 488 750 
Q 750 597 1062 519 
Q 1375 441 1716 441 
Q 2309 441 2620 675 
Q 2931 909 2931 1356 
Q 2931 1769 2642 2001 
Q 2353 2234 1838 2234 
L 1294 2234 
L 1294 2753 
L 1863 2753 
Q 2328 2753 2575 2939 
Q 2822 3125 2822 3475 
Q 2822 3834 2567 4026 
Q 2313 4219 1838 4219 
Q 1578 4219 1281 4162 
Q 984 4106 628 3988 
L 628 4550 
Q 988 4650 1302 4700 
Q 1616 4750 1894 4750 
Q 2613 4750 3031 4423 
Q 3450 4097 3450 3541 
Q 3450 3153 3228 2886 
Q 3006 2619 2597 2516 
z
" transform="scale(0.015625)"/>
       </defs>
       <use xlink:href="#DejaVuSans-2212"/>
       <use xlink:href="#DejaVuSans-33" transform="translate(83.789062 0)"/>
      </g>
     </g>
    </g>
    <g id="xtick_3">
     <g id="line2d_5">
      <path d="M 199.374659 277.478125 
L 199.374659 22.318125 
" clip-path="url(#p807c8804d8)" style="fill: none; stroke: #b0b0b0; stroke-opacity: 0.25; stroke-width: 0.8; stroke-linecap: square"/>
     </g>
     <g id="line2d_6">
      <g>
       <use xlink:href="#m2bd1088390" x="199.374659" y="277.478125" style="stroke: #000000; stroke-width: 0.8"/>
      </g>
     </g>
     <g id="text_3">
      <!-- −2 -->
      <g transform="translate(192.003565 292.076563) scale(0.1 -0.1)">
       <defs>
        <path id="DejaVuSans-32" d="M 1228 531 
L 3431 531 
L 3431 0 
L 469 0 
L 469 531 
Q 828 903 1448 1529 
Q 2069 2156 2228 2338 
Q 2531 2678 2651 2914 
Q 2772 3150 2772 3378 
Q 2772 3750 2511 3984 
Q 2250 4219 1831 4219 
Q 1534 4219 1204 4116 
Q 875 4013 500 3803 
L 500 4441 
Q 881 4594 1212 4672 
Q 1544 4750 1819 4750 
Q 2544 4750 2975 4387 
Q 3406 4025 3406 3419 
Q 3406 3131 3298 2873 
Q 3191 2616 2906 2266 
Q 2828 2175 2409 1742 
Q 1991 1309 1228 531 
z
" transform="scale(0.015625)"/>
       </defs>
       <use xlink:href="#DejaVuSans-2212"/>
       <use xlink:href="#DejaVuSans-32" transform="translate(83.789062 0)"/>
      </g>
     </g>
    </g>
    <g id="xtick_4">
     <g id="line2d_7">
      <path d="M 261.554205 277.478125 
L 261.554205 22.318125 
" clip-path="url(#p807c8804d8)" style="fill: none; stroke: #b0b0b0; stroke-opacity: 0.25; stroke-width: 0.8; stroke-linecap: square"/>
     </g>
     <g id="line2d_8">
      <g>
       <use xlink:href="#m2bd1088390" x="261.554205" y="277.478125" style="stroke: #000000; stroke-width: 0.8"/>
      </g>
     </g>
     <g id="text_4">
      <!-- −1 -->
      <g transform="translate(254.183111 292.076563) scale(0.1 -0.1)">
       <defs>
        <path id="DejaVuSans-31" d="M 794 531 
L 1825 531 
L 1825 4091 
L 703 3866 
L 703 4441 
L 1819 4666 
L 2450 4666 
L 2450 531 
L 3481 531 
L 3481 0 
L 794 0 
L 794 531 
z
" transform="scale(0.015625)"/>
       </defs>
       <use xlink:href="#DejaVuSans-2212"/>
       <use xlink:href="#DejaVuSans-31" transform="translate(83.789062 0)"/>
      </g>
     </g>
    </g>
    <g id="xtick_5">
     <g id="line2d_9">
      <path d="M 323.73375 277.478125 
L 323.73375 22.318125 
" clip-path="url(#p807c8804d8)" style="fill: none; stroke: #b0b0b0; stroke-opacity: 0.25; stroke-width: 0.8; stroke-linecap: square"/>
     </g>
     <g id="line2d_10">
      <g>
       <use xlink:href="#m2bd1088390" x="323.73375" y="277.478125" style="stroke: #000000; stroke-width: 0.8"/>
      </g>
     </g>
     <g id="text_5">
      <!-- 0 -->
      <g transform="translate(320.5525 292.076563) scale(0.1 -0.1)">
       <defs>
        <path id="DejaVuSans-30" d="M 2034 4250 
Q 1547 4250 1301 3770 
Q 1056 3291 1056 2328 
Q 1056 1369 1301 889 
Q 1547 409 2034 409 
Q 2525 409 2770 889 
Q 3016 1369 3016 2328 
Q 3016 3291 2770 3770 
Q 2525 4250 2034 4250 
z
M 2034 4750 
Q 2819 4750 3233 4129 
Q 3647 3509 3647 2328 
Q 3647 1150 3233 529 
Q 2819 -91 2034 -91 
Q 1250 -91 836 529 
Q 422 1150 422 2328 
Q 422 3509 836 4129 
Q 1250 4750 2034 4750 
z
" transform="scale(0.015625)"/>
       </defs>
       <use xlink:href="#DejaVuSans-30"/>
      </g>
     </g>
    </g>
    <g id="xtick_6">
     <g id="line2d_11">
      <path d="M 385.913295 277.478125 
L 385.913295 22.318125 
" clip-path="url(#p807c8804d8)" style="fill: none; stroke: #b0b0b0; stroke-opacity: 0.25; stroke-width: 0.8; stroke-linecap: square"/>
     </g>
     <g id="line2d_12">
      <g>
       <use xlink:href="#m2bd1088390" x="385.913295" y="277.478125" style="stroke: #000000; stroke-width: 0.8"/>
      </g>
     </g>
     <g id="text_6">
      <!-- 1 -->
      <g transform="translate(382.732045 292.076563) scale(0.1 -0.1)">
       <use xlink:href="#DejaVuSans-31"/>
      </g>
     </g>
    </g>
    <g id="xtick_7">
     <g id="line2d_13">
      <path d="M 448.092841 277.478125 
L 448.092841 22.318125 
" clip-path="url(#p807c8804d8)" style="fill: none; stroke: #b0b0b0; stroke-opacity: 0.25; stroke-width: 0.8; stroke-linecap: square"/>
     </g>
     <g id="line2d_14">
      <g>
       <use xlink:href="#m2bd1088390" x="448.092841" y="277.478125" style="stroke: #000000; stroke-width: 0.8"/>
      </g>
     </g>
     <g id="text_7">
      <!-- 2 -->
      <g transform="translate(444.911591 292.076563) scale(0.1 -0.1)">
       <use xlink:href="#DejaVuSans-32"/>
      </g>
     </g>
    </g>
    <g id="xtick_8">
     <g id="line2d_15">
      <path d="M 510.272386 277.478125 
L 510.272386 22.318125 
" clip-path="url(#p807c8804d8)" style="fill: none; stroke: #b0b0b0; stroke-opacity: 0.25; stroke-width: 0.8; stroke-linecap: square"/>
     </g>
     <g id="line2d_16">
      <g>
       <use xlink:href="#m2bd1088390" x="510.272386" y="277.478125" style="stroke: #000000; stroke-width: 0.8"/>
      </g>
     </g>
     <g id="text_8">
      <!-- 3 -->
      <g transform="translate(507.091136 292.076563) scale(0.1 -0.1)">
       <use xlink:href="#DejaVuSans-33"/>
      </g>
     </g>
    </g>
    <g id="xtick_9">
     <g id="line2d_17">
      <path d="M 572.451932 277.478125 
L 572.451932 22.318125 
" clip-path="url(#p807c8804d8)" style="fill: none; stroke: #b0b0b0; stroke-opacity: 0.25; stroke-width: 0.8; stroke-linecap: square"/>
     </g>
     <g id="line2d_18">
      <g>
       <use xlink:href="#m2bd1088390" x="572.451932" y="277.478125" style="stroke: #000000; stroke-width: 0.8"/>
      </g>
     </g>
     <g id="text_9">
      <!-- 4 -->
      <g transform="translate(569.270682 292.076563) scale(0.1 -0.1)">
       <use xlink:href="#DejaVuSans-34"/>
      </g>
     </g>
    </g>
    <g id="text_10">
     <!-- x -->
     <g transform="translate(320.774375 305.754687) scale(0.1 -0.1)">
      <defs>
       <path id="DejaVuSans-78" d="M 3513 3500 
L 2247 1797 
L 3578 0 
L 2900 0 
L 1881 1375 
L 863 0 
L 184 0 
L 1544 1831 
L 300 3500 
L 978 3500 
L 1906 2253 
L 2834 3500 
L 3513 3500 
z
" transform="scale(0.015625)"/>
      </defs>
      <use xlink:href="#DejaVuSans-78"/>
     </g>
    </g>
   </g>
   <g id="matplotlib.axis_2">
    <g id="ytick_1">
     <g id="line2d_19">
      <path d="M 50.14375 265.879943 
L 597.32375 265.879943 
" clip-path="url(#p807c8804d8)" style="fill: none; stroke: #b0b0b0; stroke-opacity: 0.25; stroke-width: 0.8; stroke-linecap: square"/>
     </g>
     <g id="line2d_20">
      <defs>
       <path id="m4c05bea5a9" d="M 0 0 
L -3.5 0 
" style="stroke: #000000; stroke-width: 0.8"/>
      </defs>
      <g>
       <use xlink:href="#m4c05bea5a9" x="50.14375" y="265.879943" style="stroke: #000000; stroke-width: 0.8"/>
      </g>
     </g>
     <g id="text_11">
      <!-- 0.00 -->
      <g transform="translate(20.878125 269.679162) scale(0.1 -0.1)">
       <defs>
        <path id="DejaVuSans-2e" d="M 684 794 
L 1344 794 
L 1344 0 
L 684 0 
L 684 794 
z
" transform="scale(0.015625)"/>
       </defs>
       <use xlink:href="#DejaVuSans-30"/>
       <use xlink:href="#DejaVuSans-2e" transform="translate(63.623047 0)"/>
       <use xlink:href="#DejaVuSans-30" transform="translate(95.410156 0)"/>
       <use xlink:href="#DejaVuSans-30" transform="translate(159.033203 0)"/>
      </g>
     </g>
    </g>
    <g id="ytick_2">
     <g id="line2d_21">
      <path d="M 50.14375 230.805989 
L 597.32375 230.805989 
" clip-path="url(#p807c8804d8)" style="fill: none; stroke: #b0b0b0; stroke-opacity: 0.25; stroke-width: 0.8; stroke-linecap: square"/>
     </g>
     <g id="line2d_22">
      <g>
       <use xlink:href="#m4c05bea5a9" x="50.14375" y="230.805989" style="stroke: #000000; stroke-width: 0.8"/>
      </g>
     </g>
     <g id="text_12">
      <!-- 0.05 -->
      <g transform="translate(20.878125 234.605208) scale(0.1 -0.1)">
       <defs>
        <path id="DejaVuSans-35" d="M 691 4666 
L 3169 4666 
L 3169 4134 
L 1269 4134 
L 1269 2991 
Q 1406 3038 1543 3061 
Q 1681 3084 1819 3084 
Q 2600 3084 3056 2656 
Q 3513 2228 3513 1497 
Q 3513 744 3044 326 
Q 2575 -91 1722 -91 
Q 1428 -91 1123 -41 
Q 819 9 494 109 
L 494 744 
Q 775 591 1075 516 
Q 1375 441 1709 441 
Q 2250 441 2565 725 
Q 2881 1009 2881 1497 
Q 2881 1984 2565 2268 
Q 2250 2553 1709 2553 
Q 1456 2553 1204 2497 
Q 953 2441 691 2322 
L 691 4666 
z
" transform="scale(0.015625)"/>
       </defs>
       <use xlink:href="#DejaVuSans-30"/>
       <use xlink:href="#DejaVuSans-2e" transform="translate(63.623047 0)"/>
       <use xlink:href="#DejaVuSans-30" transform="translate(95.410156 0)"/>
       <use xlink:href="#DejaVuSans-35" transform="translate(159.033203 0)"/>
      </g>
     </g>
    </g>
    <g id="ytick_3">
     <g id="line2d_23">
      <path d="M 50.14375 195.732036 
L 597.32375 195.732036 
" clip-path="url(#p807c8804d8)" style="fill: none; stroke: #b0b0b0; stroke-opacity: 0.25; stroke-width: 0.8; stroke-linecap: square"/>
     </g>
     <g id="line2d_24">
      <g>
       <use xlink:href="#m4c05bea5a9" x="50.14375" y="195.732036" style="stroke: #000000; stroke-width: 0.8"/>
      </g>
     </g>
     <g id="text_13">
      <!-- 0.10 -->
      <g transform="translate(20.878125 199.531254) scale(0.1 -0.1)">
       <use xlink:href="#DejaVuSans-30"/>
       <use xlink:href="#DejaVuSans-2e" transform="translate(63.623047 0)"/>
       <use xlink:href="#DejaVuSans-31" transform="translate(95.410156 0)"/>
       <use xlink:href="#DejaVuSans-30" transform="translate(159.033203 0)"/>
      </g>
     </g>
    </g>
    <g id="ytick_4">
     <g id="line2d_25">
      <path d="M 50.14375 160.658082 
L 597.32375 160.658082 
" clip-path="url(#p807c8804d8)" style="fill: none; stroke: #b0b0b0; stroke-opacity: 0.25; stroke-width: 0.8; stroke-linecap: square"/>
     </g>
     <g id="line2d_26">
      <g>
       <use xlink:href="#m4c05bea5a9" x="50.14375" y="160.658082" style="stroke: #000000; stroke-width: 0.8"/>
      </g>
     </g>
     <g id="text_14">
      <!-- 0.15 -->
      <g transform="translate(20.878125 164.457301) scale(0.1 -0.1)">
       <use xlink:href="#DejaVuSans-30"/>
       <use xlink:href="#DejaVuSans-2e" transform="translate(63.623047 0)"/>
       <use xlink:href="#DejaVuSans-31" transform="translate(95.410156 0)"/>
       <use xlink:href="#DejaVuSans-35" transform="translate(159.033203 0)"/>
      </g>
     </g>
    </g>
    <g id="ytick_5">
     <g id="line2d_27">
      <path d="M 50.14375 125.584128 
L 597.32375 125.584128 
" clip-path="url(#p807c8804d8)" style="fill: none; stroke: #b0b0b0; stroke-opacity: 0.25; stroke-width: 0.8; stroke-linecap: square"/>
     </g>
     <g id="line2d_28">
      <g>
       <use xlink:href="#m4c05bea5a9" x="50.14375" y="125.584128" style="stroke: #000000; stroke-width: 0.8"/>
      </g>
     </g>
     <g id="text_15">
      <!-- 0.20 -->
      <g transform="translate(20.878125 129.383347) scale(0.1 -0.1)">
       <use xlink:href="#DejaVuSans-30"/>
       <use xlink:href="#DejaVuSans-2e" transform="translate(63.623047 0)"/>
       <use xlink:href="#DejaVuSans-32" transform="translate(95.410156 0)"/>
       <use xlink:href="#DejaVuSans-30" transform="translate(159.033203 0)"/>
      </g>
     </g>
    </g>
    <g id="ytick_6">
     <g id="line2d_29">
      <path d="M 50.14375 90.510174 
L 597.32375 90.510174 
" clip-path="url(#p807c8804d8)" style="fill: none; stroke: #b0b0b0; stroke-opacity: 0.25; stroke-width: 0.8; stroke-linecap: square"/>
     </g>
     <g id="line2d_30">
      <g>
       <use xlink:href="#m4c05bea5a9" x="50.14375" y="90.510174" style="stroke: #000000; stroke-width: 0.8"/>
      </g>
     </g>
     <g id="text_16">
      <!-- 0.25 -->
      <g transform="translate(20.878125 94.309393) scale(0.1 -0.1)">
       <use xlink:href="#DejaVuSans-30"/>
       <use xlink:href="#DejaVuSans-2e" transform="translate(63.623047 0)"/>
       <use xlink:href="#DejaVuSans-32" transform="translate(95.410156 0)"/>
       <use xlink:href="#DejaVuSans-35" transform="translate(159.033203 0)"/>
      </g>
     </g>
    </g>
    <g id="ytick_7">
     <g id="line2d_31">
      <path d="M 50.14375 55.436221 
L 597.32375 55.436221 
" clip-path="url(#p807c8804d8)" style="fill: none; stroke: #b0b0b0; stroke-opacity: 0.25; stroke-width: 0.8; stroke-linecap: square"/>
     </g>
     <g id="line2d_32">
      <g>
       <use xlink:href="#m4c05bea5a9" x="50.14375" y="55.436221" style="stroke: #000000; stroke-width: 0.8"/>
      </g>
     </g>
     <g id="text_17">
      <!-- 0.30 -->
      <g transform="translate(20.878125 59.235439) scale(0.1 -0.1)">
       <use xlink:href="#DejaVuSans-30"/>
       <use xlink:href="#DejaVuSans-2e" transform="translate(63.623047 0)"/>
       <use xlink:href="#DejaVuSans-33" transform="translate(95.410156 0)"/>
       <use xlink:href="#DejaVuSans-30" transform="translate(159.033203 0)"/>
      </g>
     </g>
    </g>
    <g id="text_18">
     <!-- density -->
     <g transform="translate(14.798438 168.230937) rotate(-90) scale(0.1 -0.1)">
      <defs>
       <path id="DejaVuSans-64" d="M 2906 2969 
L 2906 4863 
L 3481 4863 
L 3481 0 
L 2906 0 
L 2906 525 
Q 2725 213 2448 61 
Q 2172 -91 1784 -91 
Q 1150 -91 751 415 
Q 353 922 353 1747 
Q 353 2572 751 3078 
Q 1150 3584 1784 3584 
Q 2172 3584 2448 3432 
Q 2725 3281 2906 2969 
z
M 947 1747 
Q 947 1113 1208 752 
Q 1469 391 1925 391 
Q 2381 391 2643 752 
Q 2906 1113 2906 1747 
Q 2906 2381 2643 2742 
Q 2381 3103 1925 3103 
Q 1469 3103 1208 2742 
Q 947 2381 947 1747 
z
" transform="scale(0.015625)"/>
       <path id="DejaVuSans-65" d="M 3597 1894 
L 3597 1613 
L 953 1613 
Q 991 1019 1311 708 
Q 1631 397 2203 397 
Q 2534 397 2845 478 
Q 3156 559 3463 722 
L 3463 178 
Q 3153 47 2828 -22 
Q 2503 -91 2169 -91 
Q 1331 -91 842 396 
Q 353 884 353 1716 
Q 353 2575 817 3079 
Q 1281 3584 2069 3584 
Q 2775 3584 3186 3129 
Q 3597 2675 3597 1894 
z
M 3022 2063 
Q 3016 2534 2758 2815 
Q 2500 3097 2075 3097 
Q 1594 3097 1305 2825 
Q 1016 2553 972 2059 
L 3022 2063 
z
" transform="scale(0.015625)"/>
       <path id="DejaVuSans-6e" d="M 3513 2113 
L 3513 0 
L 2938 0 
L 2938 2094 
Q 2938 2591 2744 2837 
Q 2550 3084 2163 3084 
Q 1697 3084 1428 2787 
Q 1159 2491 1159 1978 
L 1159 0 
L 581 0 
L 581 3500 
L 1159 3500 
L 1159 2956 
Q 1366 3272 1645 3428 
Q 1925 3584 2291 3584 
Q 2894 3584 3203 3211 
Q 3513 2838 3513 2113 
z
" transform="scale(0.015625)"/>
       <path id="DejaVuSans-73" d="M 2834 3397 
L 2834 2853 
Q 2591 2978 2328 3040 
Q 2066 3103 1784 3103 
Q 1356 3103 1142 2972 
Q 928 2841 928 2578 
Q 928 2378 1081 2264 
Q 1234 2150 1697 2047 
L 1894 2003 
Q 2506 1872 2764 1633 
Q 3022 1394 3022 966 
Q 3022 478 2636 193 
Q 2250 -91 1575 -91 
Q 1294 -91 989 -36 
Q 684 19 347 128 
L 347 722 
Q 666 556 975 473 
Q 1284 391 1588 391 
Q 1994 391 2212 530 
Q 2431 669 2431 922 
Q 2431 1156 2273 1281 
Q 2116 1406 1581 1522 
L 1381 1569 
Q 847 1681 609 1914 
Q 372 2147 372 2553 
Q 372 3047 722 3315 
Q 1072 3584 1716 3584 
Q 2034 3584 2315 3537 
Q 2597 3491 2834 3397 
z
" transform="scale(0.015625)"/>
       <path id="DejaVuSans-69" d="M 603 3500 
L 1178 3500 
L 1178 0 
L 603 0 
L 603 3500 
z
M 603 4863 
L 1178 4863 
L 1178 4134 
L 603 4134 
L 603 4863 
z
" transform="scale(0.015625)"/>
       <path id="DejaVuSans-74" d="M 1172 4494 
L 1172 3500 
L 2356 3500 
L 2356 3053 
L 1172 3053 
L 1172 1153 
Q 1172 725 1289 603 
Q 1406 481 1766 481 
L 2356 481 
L 2356 0 
L 1766 0 
Q 1100 0 847 248 
Q 594 497 594 1153 
L 594 3053 
L 172 3053 
L 172 3500 
L 594 3500 
L 594 4494 
L 1172 4494 
z
" transform="scale(0.015625)"/>
       <path id="DejaVuSans-79" d="M 2059 -325 
Q 1816 -950 1584 -1140 
Q 1353 -1331 966 -1331 
L 506 -1331 
L 506 -850 
L 844 -850 
Q 1081 -850 1212 -737 
Q 1344 -625 1503 -206 
L 1606 56 
L 191 3500 
L 800 3500 
L 1894 763 
L 2988 3500 
L 3597 3500 
L 2059 -325 
z
" transform="scale(0.015625)"/>
      </defs>
      <use xlink:href="#DejaVuSans-64"/>
      <use xlink:href="#DejaVuSans-65" transform="translate(63.476562 0)"/>
      <use xlink:href="#DejaVuSans-6e" transform="translate(125 0)"/>
      <use xlink:href="#DejaVuSans-73" transform="translate(188.378906 0)"/>
      <use xlink:href="#DejaVuSans-69" transform="translate(240.478516 0)"/>
      <use xlink:href="#DejaVuSans-74" transform="translate(268.261719 0)"/>
      <use xlink:href="#DejaVuSans-79" transform="translate(307.470703 0)"/>
     </g>
    </g>
   </g>
   <g id="line2d_33">
    <path d="M 75.015568 265.879943 
L 167.271936 265.775458 
L 178.492305 265.542514 
L 185.972552 265.19418 
L 192.20609 264.695187 
L 197.192921 264.097472 
L 202.179751 263.266325 
L 205.919874 262.455626 
L 209.659997 261.457923 
L 213.40012 260.251579 
L 217.140244 258.819069 
L 220.880367 257.149235 
L 224.62049 255.239609 
L 228.360613 253.098619 
L 233.347443 249.922637 
L 238.334274 246.463504 
L 252.048058 236.713565 
L 255.788182 234.372627 
L 259.528305 232.332836 
L 262.02172 231.180242 
L 264.515135 230.218168 
L 267.008551 229.464404 
L 269.501966 228.93312 
L 271.995381 228.634425 
L 274.488797 228.574045 
L 276.982212 228.75314 
L 279.475627 229.168271 
L 281.969043 229.811504 
L 284.462458 230.670667 
L 286.955873 231.72973 
L 289.449289 232.969306 
L 293.189412 235.11806 
L 296.929535 237.539651 
L 301.916366 241.040082 
L 313.136735 249.073682 
L 318.123565 252.331129 
L 321.863688 254.545735 
L 325.603812 256.534587 
L 329.343935 258.285162 
L 333.084058 259.7965 
L 336.824181 261.0771 
L 340.564304 262.142607 
L 344.304427 263.013517 
L 349.291257 263.912351 
L 354.278088 264.563641 
L 360.511627 265.111842 
L 367.991873 265.498309 
L 377.965534 265.742693 
L 394.172734 265.859028 
L 447.781164 265.879937 
L 572.451932 265.879943 
L 572.451932 265.879943 
" clip-path="url(#p807c8804d8)" style="fill: none; stroke: #7aa6c2; stroke-opacity: 0.5; stroke-linecap: square"/>
   </g>
   <g id="line2d_34">
    <path d="M 75.015568 265.879921 
L 134.857537 265.774649 
L 146.077906 265.540179 
L 153.558152 265.189808 
L 159.79169 264.688171 
L 164.778521 264.087564 
L 169.765352 263.252745 
L 173.505475 262.438764 
L 177.245598 261.43735 
L 180.985721 260.226923 
L 184.725844 258.790056 
L 188.465967 257.115732 
L 192.20609 255.201667 
L 195.946213 253.056512 
L 200.933044 249.87584 
L 205.919874 246.413585 
L 219.633659 236.667569 
L 223.373782 234.331475 
L 227.113905 232.298104 
L 229.60732 231.150581 
L 232.100736 230.194121 
L 234.594151 229.446419 
L 237.087566 228.921539 
L 239.580982 228.629469 
L 242.074397 228.575808 
L 244.567812 228.76159 
L 247.061228 229.183245 
L 249.554643 229.832717 
L 252.048058 230.69772 
L 254.541474 231.762123 
L 257.034889 233.006452 
L 260.775012 235.161091 
L 264.515135 237.58695 
L 269.501966 241.090481 
L 280.722335 249.121388 
L 285.709166 252.374459 
L 289.449289 254.585039 
L 293.189412 256.569514 
L 296.929535 258.315592 
L 300.669658 259.822513 
L 304.409781 261.098931 
L 308.149904 262.160601 
L 311.890027 263.02809 
L 316.876858 263.92306 
L 321.863688 264.571277 
L 328.097227 265.116642 
L 335.577473 265.500899 
L 345.551134 265.743723 
L 361.758334 265.859209 
L 416.613472 265.879938 
L 572.451932 265.879943 
L 572.451932 265.879943 
" clip-path="url(#p807c8804d8)" style="fill: none; stroke: #7aa6c2; stroke-opacity: 0.5; stroke-linecap: square"/>
   </g>
   <g id="line2d_35">
    <path d="M 75.015568 265.879943 
L 202.179751 265.769705 
L 213.40012 265.525943 
L 220.880367 265.163209 
L 227.113905 264.645564 
L 232.100736 264.027476 
L 237.087566 263.170508 
L 240.827689 262.336771 
L 244.567812 261.313055 
L 248.307935 260.078136 
L 252.048058 258.615188 
L 255.788182 256.914053 
L 259.528305 254.973562 
L 263.268428 252.803709 
L 268.255258 249.595422 
L 274.488797 245.217706 
L 285.709166 237.218044 
L 289.449289 234.826456 
L 293.189412 232.718717 
L 295.682827 231.512103 
L 298.176243 230.48995 
L 300.669658 229.671048 
L 303.163073 229.070721 
L 305.656489 228.700355 
L 308.149904 228.567038 
L 310.643319 228.673331 
L 313.136735 229.017191 
L 315.63015 229.592034 
L 318.123565 230.386943 
L 320.616981 231.387018 
L 323.110396 232.573832 
L 326.850519 234.656768 
L 330.590642 237.029999 
L 335.577473 240.494085 
L 349.291257 250.241045 
L 354.278088 253.384504 
L 358.018211 255.496826 
L 361.758334 257.376031 
L 365.498457 259.015195 
L 369.23858 260.418025 
L 372.978703 261.596623 
L 376.718826 262.569161 
L 380.458949 263.35765 
L 385.44578 264.163992 
L 390.432611 264.742209 
L 396.666149 265.223424 
L 404.146395 265.558096 
L 414.120057 265.766247 
L 431.573964 265.865576 
L 505.129717 265.879943 
L 572.451932 265.879943 
L 572.451932 265.879943 
" clip-path="url(#p807c8804d8)" style="fill: none; stroke: #7aa6c2; stroke-opacity: 0.5; stroke-linecap: square"/>
   </g>
   <g id="line2d_36">
    <path d="M 75.015568 265.879943 
L 243.321105 265.774969 
L 254.541474 265.541101 
L 262.02172 265.191535 
L 268.255258 264.690942 
L 273.242089 264.091476 
L 278.22892 263.258107 
L 281.969043 262.445421 
L 285.709166 261.445471 
L 289.449289 260.236655 
L 293.189412 258.801507 
L 296.929535 257.128953 
L 300.669658 255.216638 
L 304.409781 253.073124 
L 309.396612 249.894299 
L 314.383442 246.433272 
L 328.097227 236.685697 
L 331.83735 234.347689 
L 335.577473 232.311783 
L 338.070888 231.162259 
L 340.564304 230.203583 
L 343.057719 229.45349 
L 345.551134 228.926084 
L 348.04455 228.631401 
L 350.537965 228.57509 
L 353.03138 228.758236 
L 355.524796 229.177319 
L 358.018211 229.824332 
L 360.511627 230.687034 
L 363.005042 231.749333 
L 365.498457 232.99179 
L 369.23858 235.144112 
L 372.978703 237.568292 
L 377.965534 241.070605 
L 389.185903 249.102583 
L 394.172734 252.357382 
L 397.912857 254.56955 
L 401.65298 256.555752 
L 405.393103 258.303603 
L 409.133226 259.812266 
L 412.873349 261.090331 
L 416.613472 262.153514 
L 420.353595 263.022351 
L 425.340426 263.918843 
L 430.327256 264.568271 
L 436.560795 265.114753 
L 444.041041 265.499879 
L 454.014702 265.743318 
L 470.221902 265.859138 
L 523.830332 265.879937 
L 572.451932 265.879943 
L 572.451932 265.879943 
" clip-path="url(#p807c8804d8)" style="fill: none; stroke: #7aa6c2; stroke-opacity: 0.5; stroke-linecap: square"/>
   </g>
   <g id="line2d_37">
    <path d="M 75.015568 265.879943 
L 288.202581 265.770417 
L 299.42295 265.527989 
L 306.903196 265.167027 
L 313.136735 264.651671 
L 318.123565 264.03608 
L 323.110396 263.182271 
L 326.850519 262.351348 
L 330.590642 261.330805 
L 334.330765 260.099365 
L 338.070888 258.640116 
L 341.811011 256.942776 
L 345.551134 255.006018 
L 349.291257 252.839644 
L 354.278088 249.635225 
L 360.511627 245.26036 
L 371.731996 237.257602 
L 375.472119 234.862229 
L 379.212242 232.749351 
L 381.705657 231.538622 
L 384.199072 230.511872 
L 386.692488 229.687965 
L 389.185903 229.082314 
L 391.679318 228.706404 
L 394.172734 228.567426 
L 396.666149 228.668051 
L 399.159565 229.006344 
L 401.65298 229.575828 
L 404.146395 230.365684 
L 406.639811 231.3611 
L 409.133226 232.54373 
L 412.873349 234.621408 
L 416.613472 236.990727 
L 421.600303 240.451784 
L 435.314087 250.201858 
L 440.300918 253.349378 
L 444.041041 255.465259 
L 447.781164 257.348228 
L 451.521287 258.991178 
L 455.26141 260.397664 
L 459.001533 261.579673 
L 462.741656 262.5553 
L 466.481779 263.346512 
L 471.46861 264.155889 
L 476.455441 264.736488 
L 482.688979 265.219872 
L 490.169225 265.556207 
L 500.142886 265.76551 
L 517.596794 265.865468 
L 572.451932 265.87994 
L 572.451932 265.87994 
" clip-path="url(#p807c8804d8)" style="fill: none; stroke: #7aa6c2; stroke-opacity: 0.5; stroke-linecap: square"/>
   </g>
   <g id="line2d_38">
    <path d="M 75.015568 265.879943 
L 223.373782 265.781986 
L 234.594151 265.561446 
L 242.074397 265.229726 
L 248.307935 264.752364 
L 253.294766 264.178383 
L 258.281597 263.377443 
L 262.02172 262.5938 
L 265.761843 261.626766 
L 269.501966 260.454249 
L 273.242089 259.057939 
L 276.982212 257.425532 
L 280.722335 255.553054 
L 284.462458 253.4471 
L 288.202581 251.126746 
L 293.189412 247.758335 
L 301.916366 241.467938 
L 308.149904 237.100256 
L 311.890027 234.720095 
L 315.63015 232.627821 
L 318.123565 231.433562 
L 320.616981 230.425196 
L 323.110396 229.621282 
L 325.603812 229.036884 
L 328.097227 228.683092 
L 330.590642 228.566679 
L 333.084058 228.689884 
L 335.577473 229.050338 
L 338.070888 229.641143 
L 340.564304 230.451087 
L 343.057719 231.465003 
L 345.551134 232.664238 
L 349.291257 234.762746 
L 353.03138 237.147522 
L 358.018211 240.620473 
L 370.485288 249.524244 
L 375.472119 252.739409 
L 379.212242 254.915459 
L 382.952365 256.862609 
L 386.692488 258.570524 
L 390.432611 260.040084 
L 394.172734 261.281227 
L 397.912857 262.310622 
L 401.65298 263.149397 
L 406.639811 264.012026 
L 411.626641 264.634592 
L 417.86018 265.156346 
L 425.340426 265.522262 
L 435.314087 265.752185 
L 451.521287 265.86069 
L 508.86984 265.87994 
L 572.451932 265.879943 
L 572.451932 265.879943 
" clip-path="url(#p807c8804d8)" style="fill: none; stroke: #7aa6c2; stroke-opacity: 0.5; stroke-linecap: square"/>
   </g>
   <g id="line2d_39">
    <path d="M 75.015568 265.879943 
L 182.232429 265.781512 
L 193.452798 265.560068 
L 200.933044 265.227133 
L 207.166582 264.748184 
L 212.153413 264.172458 
L 217.140244 263.369292 
L 220.880367 262.583652 
L 224.62049 261.61435 
L 228.360613 260.439325 
L 232.100736 259.040327 
L 235.840859 257.405132 
L 239.580982 255.529878 
L 243.321105 253.421296 
L 247.061228 251.098613 
L 252.048058 247.727854 
L 260.775012 241.436478 
L 267.008551 237.07125 
L 270.748674 234.69394 
L 274.488797 232.605511 
L 276.982212 231.414319 
L 279.475627 230.409369 
L 281.969043 229.609167 
L 284.462458 229.028709 
L 286.955873 228.679013 
L 289.449289 228.566775 
L 291.942704 228.694153 
L 294.43612 229.058698 
L 296.929535 229.653433 
L 299.42295 230.467077 
L 301.916366 231.484395 
L 304.409781 232.686679 
L 308.149904 234.789004 
L 311.890027 237.176598 
L 316.876858 240.651698 
L 329.343935 249.553625 
L 334.330765 252.765957 
L 338.070888 254.939453 
L 341.811011 256.883857 
L 345.551134 258.588974 
L 349.291257 260.055806 
L 353.03138 261.294379 
L 356.771503 262.321429 
L 360.511627 263.158123 
L 365.498457 264.018413 
L 370.485288 264.639129 
L 376.718826 265.159185 
L 384.199072 265.523784 
L 394.172734 265.752786 
L 410.379934 265.860794 
L 467.728487 265.879941 
L 572.451932 265.879943 
L 572.451932 265.879943 
" clip-path="url(#p807c8804d8)" style="fill: none; stroke: #7aa6c2; stroke-opacity: 0.5; stroke-linecap: square"/>
   </g>
   <g id="line2d_40">
    <path d="M 75.015568 265.879943 
L 168.518644 265.773361 
L 179.739013 265.536464 
L 187.219259 265.182857 
L 193.452798 264.677025 
L 198.439628 264.07183 
L 203.426459 263.231191 
L 207.166582 262.412014 
L 210.906705 261.404727 
L 214.646828 260.187842 
L 218.386951 258.74409 
L 222.127074 257.062676 
L 225.867197 255.14161 
L 229.60732 252.989895 
L 234.594151 249.801856 
L 239.580982 246.334727 
L 253.294766 236.595117 
L 257.034889 234.266731 
L 260.775012 232.243554 
L 263.268428 231.104067 
L 265.761843 230.156497 
L 268.255258 229.418388 
L 270.748674 228.903632 
L 273.242089 228.622028 
L 275.735504 228.578976 
L 278.22892 228.775306 
L 280.722335 229.207246 
L 283.21575 229.866547 
L 285.709166 230.740743 
L 288.202581 231.813544 
L 291.942704 233.75147 
L 295.682827 236.014517 
L 300.669658 239.389055 
L 318.123565 251.661545 
L 321.863688 253.936413 
L 325.603812 255.991464 
L 329.343935 257.810546 
L 333.084058 259.389603 
L 336.824181 260.734668 
L 340.564304 261.859588 
L 344.304427 262.783699 
L 349.291257 263.742872 
L 354.278088 264.442373 
L 360.511627 265.035289 
L 366.745165 265.403217 
L 375.472119 265.679881 
L 387.939195 265.829467 
L 416.613472 265.878788 
L 572.451932 265.879943 
L 572.451932 265.879943 
" clip-path="url(#p807c8804d8)" style="fill: none; stroke: #7aa6c2; stroke-opacity: 0.5; stroke-linecap: square"/>
   </g>
   <g id="line2d_41">
    <path d="M 75.015568 265.879943 
L 263.268428 265.780239 
L 274.488797 265.556367 
L 281.969043 265.220174 
L 288.202581 264.736975 
L 293.189412 264.156577 
L 298.176243 263.347458 
L 301.916366 262.556477 
L 305.656489 261.581113 
L 309.396612 260.399393 
L 313.136735 258.993217 
L 316.876858 257.350588 
L 320.616981 255.467938 
L 324.357104 253.352359 
L 328.097227 251.023493 
L 333.084058 247.646515 
L 341.811011 241.352643 
L 348.04455 236.994055 
L 351.784673 234.624404 
L 355.524796 232.546279 
L 358.018211 231.363294 
L 360.511627 230.367482 
L 363.005042 229.577197 
L 365.498457 229.007259 
L 367.991873 228.668494 
L 370.485288 228.567388 
L 372.978703 228.705886 
L 375.472119 229.081326 
L 377.965534 229.686525 
L 380.458949 230.510008 
L 382.952365 231.536369 
L 385.44578 232.74675 
L 389.185903 234.859193 
L 392.926026 237.254246 
L 397.912857 240.734994 
L 410.379934 249.631851 
L 415.366764 252.836598 
L 419.106887 255.003268 
L 422.84701 256.940342 
L 426.587133 258.638004 
L 430.327256 260.097567 
L 434.06738 261.329301 
L 437.807503 262.350114 
L 441.547626 263.181275 
L 446.534456 264.035351 
L 451.521287 264.651154 
L 457.754825 265.166704 
L 465.235071 265.527816 
L 475.208733 265.754376 
L 491.415933 265.86107 
L 550.011194 265.879941 
L 572.451932 265.879943 
L 572.451932 265.879943 
" clip-path="url(#p807c8804d8)" style="fill: none; stroke: #7aa6c2; stroke-opacity: 0.5; stroke-linecap: square"/>
   </g>
   <g id="line2d_42">
    <path d="M 75.015568 265.879943 
L 318.123565 265.782838 
L 329.343935 265.563928 
L 336.824181 265.234401 
L 343.057719 264.759902 
L 348.04455 264.18907 
L 353.03138 263.39215 
L 356.771503 262.612117 
L 360.511627 261.649183 
L 364.25175 260.481201 
L 367.991873 259.089758 
L 371.731996 257.462399 
L 375.472119 255.594951 
L 379.212242 253.493765 
L 382.952365 251.177638 
L 387.939195 247.813504 
L 395.419442 242.429423 
L 401.65298 237.996426 
L 405.393103 235.535141 
L 409.133226 233.33108 
L 412.873349 231.468561 
L 415.366764 230.45402 
L 417.86018 229.643396 
L 420.353595 229.051869 
L 422.84701 228.690663 
L 425.340426 228.566691 
L 427.833841 228.682337 
L 430.327256 229.035376 
L 432.820672 229.619051 
L 435.314087 230.422283 
L 437.807503 231.430022 
L 440.300918 232.623718 
L 444.041041 234.715287 
L 447.781164 237.094925 
L 452.767995 240.563945 
L 465.235071 249.470975 
L 470.221902 252.691251 
L 473.962025 254.871921 
L 477.702148 256.824042 
L 481.442271 258.537023 
L 485.182394 260.01153 
L 488.922517 261.257332 
L 492.66264 262.290982 
L 496.402763 263.133536 
L 501.389594 264.000412 
L 506.376425 264.626339 
L 512.609963 265.151181 
L 520.090209 265.519488 
L 530.063871 265.75109 
L 546.271071 265.860499 
L 572.451932 265.879427 
L 572.451932 265.879427 
" clip-path="url(#p807c8804d8)" style="fill: none; stroke: #7aa6c2; stroke-opacity: 0.5; stroke-linecap: square"/>
   </g>
   <g id="line2d_43">
    <path d="M 75.015568 265.879943 
L 234.594151 265.769575 
L 245.81452 265.525569 
L 253.294766 265.162512 
L 259.528305 264.644449 
L 264.515135 264.025905 
L 269.501966 263.168362 
L 273.242089 262.334113 
L 276.982212 261.309818 
L 280.722335 260.074265 
L 284.462458 258.610644 
L 288.202581 256.908817 
L 291.942704 254.967647 
L 295.682827 252.797162 
L 300.669658 249.588171 
L 306.903196 245.209939 
L 318.123565 237.210848 
L 321.863688 234.81995 
L 325.603812 232.71315 
L 328.097227 231.507286 
L 330.590642 230.485972 
L 333.084058 229.667981 
L 335.577473 229.068624 
L 338.070888 228.699268 
L 340.564304 228.566982 
L 343.057719 228.674306 
L 345.551134 229.01918 
L 348.04455 229.594997 
L 350.537965 230.390826 
L 353.03138 231.391747 
L 355.524796 232.579323 
L 359.264919 234.663213 
L 363.005042 237.037153 
L 367.991873 240.501788 
L 381.705657 250.248174 
L 386.692488 253.390893 
L 390.432611 255.502566 
L 394.172734 257.381086 
L 397.912857 259.019561 
L 401.65298 260.421726 
L 405.393103 261.599704 
L 409.133226 262.57168 
L 414.120057 263.585561 
L 419.106887 264.329136 
L 424.093718 264.858355 
L 430.327256 265.295206 
L 437.807503 265.596062 
L 449.027872 265.793792 
L 468.975195 265.872446 
L 572.451932 265.879943 
L 572.451932 265.879943 
" clip-path="url(#p807c8804d8)" style="fill: none; stroke: #7aa6c2; stroke-opacity: 0.5; stroke-linecap: square"/>
   </g>
   <g id="line2d_44">
    <path d="M 75.015568 265.879935 
L 139.844367 265.782204 
L 151.064737 265.562081 
L 158.544983 265.230922 
L 164.778521 264.754292 
L 169.765352 264.181115 
L 174.752182 263.381203 
L 178.492305 262.598482 
L 182.232429 261.632495 
L 185.972552 260.461135 
L 189.712675 259.066068 
L 193.452798 257.43495 
L 197.192921 255.563755 
L 200.933044 253.459017 
L 204.673167 251.13974 
L 209.659997 247.772418 
L 218.386951 241.482481 
L 224.62049 237.113671 
L 228.360613 234.732197 
L 232.100736 232.638149 
L 234.594151 231.442475 
L 237.087566 230.432531 
L 239.580982 229.626904 
L 242.074397 229.040686 
L 244.567812 228.685001 
L 247.061228 228.566659 
L 249.554643 228.687936 
L 252.048058 229.046499 
L 254.541474 229.635485 
L 257.034889 230.443717 
L 259.528305 231.456059 
L 262.02172 232.653883 
L 265.761843 234.750624 
L 269.501966 237.134092 
L 274.488797 240.606046 
L 286.955873 249.510657 
L 291.942704 252.727129 
L 295.682827 254.904359 
L 299.42295 256.852778 
L 303.163073 258.561986 
L 306.903196 260.032808 
L 310.643319 261.275139 
L 314.383442 262.305618 
L 318.123565 263.145357 
L 323.110396 264.009068 
L 328.097227 264.63249 
L 334.330765 265.155031 
L 341.811011 265.521556 
L 351.784673 265.751906 
L 367.991873 265.860641 
L 425.340426 265.87994 
L 572.451932 265.879943 
L 572.451932 265.879943 
" clip-path="url(#p807c8804d8)" style="fill: none; stroke: #7aa6c2; stroke-opacity: 0.5; stroke-linecap: square"/>
   </g>
   <g id="line2d_45">
    <path d="M 75.015568 265.879943 
L 157.298275 265.778335 
L 168.518644 265.550841 
L 175.99889 265.209793 
L 182.232429 264.720271 
L 187.219259 264.132934 
L 192.20609 263.314978 
L 195.946213 262.516079 
L 199.686336 261.531737 
L 203.426459 260.340111 
L 207.166582 258.92333 
L 210.906705 257.269731 
L 214.646828 255.376186 
L 218.386951 253.250325 
L 222.127074 250.912399 
L 227.113905 247.526369 
L 237.087566 240.33296 
L 242.074397 236.880578 
L 245.81452 234.522374 
L 249.554643 232.459588 
L 252.048058 231.28879 
L 254.541474 230.306525 
L 257.034889 229.530923 
L 259.528305 228.976542 
L 262.02172 228.653921 
L 264.515135 228.569239 
L 267.008551 228.724125 
L 269.501966 229.115603 
L 271.995381 229.736187 
L 274.488797 230.574119 
L 276.982212 231.613739 
L 279.475627 232.835974 
L 283.21575 234.963194 
L 286.955873 237.36909 
L 291.942704 240.857961 
L 304.409781 249.746934 
L 309.396612 252.940404 
L 313.136735 255.096968 
L 316.876858 257.023218 
L 320.616981 258.709888 
L 324.357104 260.15875 
L 328.097227 261.38043 
L 331.83735 262.392082 
L 335.577473 263.215125 
L 340.564304 264.060095 
L 345.551134 264.668707 
L 351.784673 265.177667 
L 359.264919 265.533687 
L 369.23858 265.756687 
L 385.44578 265.861471 
L 445.287749 265.879942 
L 572.451932 265.879943 
L 572.451932 265.879943 
" clip-path="url(#p807c8804d8)" style="fill: none; stroke: #7aa6c2; stroke-opacity: 0.5; stroke-linecap: square"/>
   </g>
   <g id="line2d_46">
    <path d="M 75.015568 265.879943 
L 316.876858 265.772508 
L 328.097227 265.534004 
L 335.577473 265.17826 
L 341.811011 264.669657 
L 346.797842 264.061435 
L 351.784673 263.216959 
L 355.524796 262.394358 
L 359.264919 261.383204 
L 363.005042 260.16207 
L 366.745165 258.713791 
L 370.485288 257.02772 
L 374.225411 255.10206 
L 377.965534 252.946049 
L 382.952365 249.753196 
L 387.939195 246.282902 
L 401.65298 236.547641 
L 405.393103 234.224358 
L 409.133226 232.207913 
L 411.626641 231.073726 
L 414.120057 230.132013 
L 416.613472 229.400218 
L 419.106887 228.892121 
L 421.600303 228.617395 
L 424.093718 228.581312 
L 426.587133 228.784565 
L 429.080549 229.223251 
L 431.573964 229.888992 
L 434.06738 230.769208 
L 436.560795 231.847502 
L 440.300918 233.792496 
L 444.041041 236.061016 
L 449.027872 239.440187 
L 465.235071 250.906334 
L 468.975195 253.244752 
L 472.715318 255.371172 
L 476.455441 257.26531 
L 480.195564 258.919507 
L 483.935687 260.336867 
L 487.67581 261.529034 
L 491.415933 262.513867 
L 495.156056 263.313198 
L 500.142886 264.131638 
L 505.129717 264.719355 
L 511.363256 265.209223 
L 518.843502 265.550537 
L 528.817163 265.763295 
L 546.271071 265.865141 
L 572.451932 265.879573 
L 572.451932 265.879573 
" clip-path="url(#p807c8804d8)" style="fill: none; stroke: #7aa6c2; stroke-opacity: 0.5; stroke-linecap: square"/>
   </g>
   <g id="line2d_47">
    <path d="M 75.015568 265.879943 
L 229.60732 265.777099 
L 240.827689 265.547261 
L 248.307935 265.203077 
L 254.541474 264.709475 
L 259.528305 264.117665 
L 264.515135 263.29402 
L 268.255258 262.490029 
L 271.995381 261.499919 
L 275.735504 260.301936 
L 279.475627 258.878357 
L 283.21575 257.217735 
L 286.955873 255.317229 
L 290.695997 253.184811 
L 295.682827 250.018508 
L 300.669658 246.565866 
L 314.383442 236.808204 
L 318.123565 234.457421 
L 321.863688 232.404538 
L 324.357104 231.241589 
L 326.850519 230.268037 
L 329.343935 229.501864 
L 331.83735 228.957463 
L 334.330765 228.645185 
L 336.824181 228.571015 
L 339.317596 228.736379 
L 341.811011 229.1381 
L 344.304427 229.768498 
L 346.797842 230.615635 
L 349.291257 231.663691 
L 351.784673 232.893457 
L 355.524796 235.030039 
L 359.264919 237.442775 
L 364.25175 240.936713 
L 376.718826 249.82039 
L 381.705657 253.006589 
L 385.44578 255.156663 
L 389.185903 257.075977 
L 392.926026 258.755616 
L 396.666149 260.197644 
L 400.406272 261.412911 
L 404.146395 262.418725 
L 407.886518 263.2366 
L 412.873349 264.07578 
L 417.86018 264.679823 
L 424.093718 265.184603 
L 431.573964 265.537397 
L 441.547626 265.758145 
L 457.754825 265.861723 
L 517.596794 265.879942 
L 572.451932 265.879943 
L 572.451932 265.879943 
" clip-path="url(#p807c8804d8)" style="fill: none; stroke: #7aa6c2; stroke-opacity: 0.5; stroke-linecap: square"/>
   </g>
   <g id="line2d_48">
    <path d="M 75.015568 265.879912 
L 131.117414 265.769163 
L 141.091075 265.539822 
L 148.571321 265.140178 
L 153.558152 264.67522 
L 158.544983 263.964716 
L 162.285106 263.210605 
L 166.025229 262.208934 
L 169.765352 260.897909 
L 172.258767 259.817583 
L 174.752182 258.545796 
L 177.245598 257.058398 
L 179.739013 255.330196 
L 182.232429 253.335318 
L 184.725844 251.047655 
L 187.219259 248.441379 
L 189.712675 245.491525 
L 192.20609 242.174647 
L 194.699505 238.469512 
L 197.192921 234.35783 
L 199.686336 229.824994 
L 202.179751 224.860815 
L 204.673167 219.460215 
L 207.166582 213.623868 
L 209.659997 207.358745 
L 213.40012 197.189028 
L 217.140244 186.163248 
L 220.880367 174.393895 
L 225.867197 157.804585 
L 234.594151 127.586013 
L 240.827689 106.399108 
L 244.567812 94.364523 
L 248.307935 83.106826 
L 250.801351 76.129385 
L 253.294766 69.631721 
L 255.788182 63.654219 
L 258.281597 58.228194 
L 260.775012 53.375151 
L 263.268428 49.106286 
L 265.761843 45.422257 
L 268.255258 42.313239 
L 270.748674 39.75927 
L 273.242089 37.730895 
L 275.735504 36.190102 
L 278.22892 35.091514 
L 280.722335 34.38383 
L 283.21575 34.011459 
L 285.709166 33.916307 
L 288.202581 34.039655 
L 291.942704 34.509543 
L 299.42295 35.852919 
L 304.409781 36.641452 
L 309.396612 37.17041 
L 315.63015 37.521081 
L 321.863688 37.875325 
L 325.603812 38.328699 
L 328.097227 38.819 
L 330.590642 39.508121 
L 333.084058 40.434062 
L 335.577473 41.629837 
L 338.070888 43.121988 
L 340.564304 44.929393 
L 343.057719 47.0624 
L 345.551134 49.522335 
L 348.04455 52.301382 
L 350.537965 55.382853 
L 353.03138 58.7418 
L 356.771503 64.228217 
L 360.511627 70.131899 
L 366.745165 80.481075 
L 374.225411 92.857286 
L 379.212242 100.597549 
L 382.952365 105.989667 
L 386.692488 110.989379 
L 390.432611 115.606859 
L 394.172734 119.891338 
L 399.159565 125.233347 
L 409.133226 135.688612 
L 412.873349 139.919873 
L 416.613472 144.499172 
L 420.353595 149.510248 
L 424.093718 155.005089 
L 427.833841 160.999821 
L 431.573964 167.473517 
L 435.314087 174.369935 
L 440.300918 184.068444 
L 456.508118 216.203704 
L 460.248241 222.991229 
L 463.988364 229.314724 
L 467.728487 235.103397 
L 470.221902 238.641661 
L 472.715318 241.913773 
L 475.208733 244.916854 
L 477.702148 247.652312 
L 480.195564 250.125402 
L 482.688979 252.344706 
L 485.182394 254.321592 
L 487.67581 256.069638 
L 490.169225 257.604075 
L 492.66264 258.941245 
L 495.156056 260.098109 
L 498.896179 261.532757 
L 502.636302 262.656801 
L 506.376425 263.52351 
L 510.116548 264.181255 
L 515.103379 264.805845 
L 521.336917 265.295409 
L 528.817163 265.612602 
L 538.790825 265.793749 
L 558.738147 265.873344 
L 572.451932 265.879054 
L 572.451932 265.879054 
" clip-path="url(#p807c8804d8)" style="fill: none; stroke: #e15759; stroke-width: 2.5; stroke-linecap: square"/>
   </g>
   <g id="patch_3">
    <path d="M 50.14375 277.478125 
L 50.14375 22.318125 
" style="fill: none; stroke: #000000; stroke-width: 0.8; stroke-linejoin: miter; stroke-linecap: square"/>
   </g>
   <g id="patch_4">
    <path d="M 597.32375 277.478125 
L 597.32375 22.318125 
" style="fill: none; stroke: #000000; stroke-width: 0.8; stroke-linejoin: miter; stroke-linecap: square"/>
   </g>
   <g id="patch_5">
    <path d="M 50.14375 277.478125 
L 597.32375 277.478125 
" style="fill: none; stroke: #000000; stroke-width: 0.8; stroke-linejoin: miter; stroke-linecap: square"/>
   </g>
   <g id="patch_6">
    <path d="M 50.14375 22.318125 
L 597.32375 22.318125 
" style="fill: none; stroke: #000000; stroke-width: 0.8; stroke-linejoin: miter; stroke-linecap: square"/>
   </g>
   <g id="text_19">
    <!-- Each data point contributes a small Gaussian; their sum is the KDE -->
    <g transform="translate(122.389688 16.318125) scale(0.12 -0.12)">
     <defs>
      <path id="DejaVuSans-45" d="M 628 4666 
L 3578 4666 
L 3578 4134 
L 1259 4134 
L 1259 2753 
L 3481 2753 
L 3481 2222 
L 1259 2222 
L 1259 531 
L 3634 531 
L 3634 0 
L 628 0 
L 628 4666 
z
" transform="scale(0.015625)"/>
      <path id="DejaVuSans-61" d="M 2194 1759 
Q 1497 1759 1228 1600 
Q 959 1441 959 1056 
Q 959 750 1161 570 
Q 1363 391 1709 391 
Q 2188 391 2477 730 
Q 2766 1069 2766 1631 
L 2766 1759 
L 2194 1759 
z
M 3341 1997 
L 3341 0 
L 2766 0 
L 2766 531 
Q 2569 213 2275 61 
Q 1981 -91 1556 -91 
Q 1019 -91 701 211 
Q 384 513 384 1019 
Q 384 1609 779 1909 
Q 1175 2209 1959 2209 
L 2766 2209 
L 2766 2266 
Q 2766 2663 2505 2880 
Q 2244 3097 1772 3097 
Q 1472 3097 1187 3025 
Q 903 2953 641 2809 
L 641 3341 
Q 956 3463 1253 3523 
Q 1550 3584 1831 3584 
Q 2591 3584 2966 3190 
Q 3341 2797 3341 1997 
z
" transform="scale(0.015625)"/>
      <path id="DejaVuSans-63" d="M 3122 3366 
L 3122 2828 
Q 2878 2963 2633 3030 
Q 2388 3097 2138 3097 
Q 1578 3097 1268 2742 
Q 959 2388 959 1747 
Q 959 1106 1268 751 
Q 1578 397 2138 397 
Q 2388 397 2633 464 
Q 2878 531 3122 666 
L 3122 134 
Q 2881 22 2623 -34 
Q 2366 -91 2075 -91 
Q 1284 -91 818 406 
Q 353 903 353 1747 
Q 353 2603 823 3093 
Q 1294 3584 2113 3584 
Q 2378 3584 2631 3529 
Q 2884 3475 3122 3366 
z
" transform="scale(0.015625)"/>
      <path id="DejaVuSans-68" d="M 3513 2113 
L 3513 0 
L 2938 0 
L 2938 2094 
Q 2938 2591 2744 2837 
Q 2550 3084 2163 3084 
Q 1697 3084 1428 2787 
Q 1159 2491 1159 1978 
L 1159 0 
L 581 0 
L 581 4863 
L 1159 4863 
L 1159 2956 
Q 1366 3272 1645 3428 
Q 1925 3584 2291 3584 
Q 2894 3584 3203 3211 
Q 3513 2838 3513 2113 
z
" transform="scale(0.015625)"/>
      <path id="DejaVuSans-20" transform="scale(0.015625)"/>
      <path id="DejaVuSans-70" d="M 1159 525 
L 1159 -1331 
L 581 -1331 
L 581 3500 
L 1159 3500 
L 1159 2969 
Q 1341 3281 1617 3432 
Q 1894 3584 2278 3584 
Q 2916 3584 3314 3078 
Q 3713 2572 3713 1747 
Q 3713 922 3314 415 
Q 2916 -91 2278 -91 
Q 1894 -91 1617 61 
Q 1341 213 1159 525 
z
M 3116 1747 
Q 3116 2381 2855 2742 
Q 2594 3103 2138 3103 
Q 1681 3103 1420 2742 
Q 1159 2381 1159 1747 
Q 1159 1113 1420 752 
Q 1681 391 2138 391 
Q 2594 391 2855 752 
Q 3116 1113 3116 1747 
z
" transform="scale(0.015625)"/>
      <path id="DejaVuSans-6f" d="M 1959 3097 
Q 1497 3097 1228 2736 
Q 959 2375 959 1747 
Q 959 1119 1226 758 
Q 1494 397 1959 397 
Q 2419 397 2687 759 
Q 2956 1122 2956 1747 
Q 2956 2369 2687 2733 
Q 2419 3097 1959 3097 
z
M 1959 3584 
Q 2709 3584 3137 3096 
Q 3566 2609 3566 1747 
Q 3566 888 3137 398 
Q 2709 -91 1959 -91 
Q 1206 -91 779 398 
Q 353 888 353 1747 
Q 353 2609 779 3096 
Q 1206 3584 1959 3584 
z
" transform="scale(0.015625)"/>
      <path id="DejaVuSans-72" d="M 2631 2963 
Q 2534 3019 2420 3045 
Q 2306 3072 2169 3072 
Q 1681 3072 1420 2755 
Q 1159 2438 1159 1844 
L 1159 0 
L 581 0 
L 581 3500 
L 1159 3500 
L 1159 2956 
Q 1341 3275 1631 3429 
Q 1922 3584 2338 3584 
Q 2397 3584 2469 3576 
Q 2541 3569 2628 3553 
L 2631 2963 
z
" transform="scale(0.015625)"/>
      <path id="DejaVuSans-62" d="M 3116 1747 
Q 3116 2381 2855 2742 
Q 2594 3103 2138 3103 
Q 1681 3103 1420 2742 
Q 1159 2381 1159 1747 
Q 1159 1113 1420 752 
Q 1681 391 2138 391 
Q 2594 391 2855 752 
Q 3116 1113 3116 1747 
z
M 1159 2969 
Q 1341 3281 1617 3432 
Q 1894 3584 2278 3584 
Q 2916 3584 3314 3078 
Q 3713 2572 3713 1747 
Q 3713 922 3314 415 
Q 2916 -91 2278 -91 
Q 1894 -91 1617 61 
Q 1341 213 1159 525 
L 1159 0 
L 581 0 
L 581 4863 
L 1159 4863 
L 1159 2969 
z
" transform="scale(0.015625)"/>
      <path id="DejaVuSans-75" d="M 544 1381 
L 544 3500 
L 1119 3500 
L 1119 1403 
Q 1119 906 1312 657 
Q 1506 409 1894 409 
Q 2359 409 2629 706 
Q 2900 1003 2900 1516 
L 2900 3500 
L 3475 3500 
L 3475 0 
L 2900 0 
L 2900 538 
Q 2691 219 2414 64 
Q 2138 -91 1772 -91 
Q 1169 -91 856 284 
Q 544 659 544 1381 
z
M 1991 3584 
L 1991 3584 
z
" transform="scale(0.015625)"/>
      <path id="DejaVuSans-6d" d="M 3328 2828 
Q 3544 3216 3844 3400 
Q 4144 3584 4550 3584 
Q 5097 3584 5394 3201 
Q 5691 2819 5691 2113 
L 5691 0 
L 5113 0 
L 5113 2094 
Q 5113 2597 4934 2840 
Q 4756 3084 4391 3084 
Q 3944 3084 3684 2787 
Q 3425 2491 3425 1978 
L 3425 0 
L 2847 0 
L 2847 2094 
Q 2847 2600 2669 2842 
Q 2491 3084 2119 3084 
Q 1678 3084 1418 2786 
Q 1159 2488 1159 1978 
L 1159 0 
L 581 0 
L 581 3500 
L 1159 3500 
L 1159 2956 
Q 1356 3278 1631 3431 
Q 1906 3584 2284 3584 
Q 2666 3584 2933 3390 
Q 3200 3197 3328 2828 
z
" transform="scale(0.015625)"/>
      <path id="DejaVuSans-6c" d="M 603 4863 
L 1178 4863 
L 1178 0 
L 603 0 
L 603 4863 
z
" transform="scale(0.015625)"/>
      <path id="DejaVuSans-47" d="M 3809 666 
L 3809 1919 
L 2778 1919 
L 2778 2438 
L 4434 2438 
L 4434 434 
Q 4069 175 3628 42 
Q 3188 -91 2688 -91 
Q 1594 -91 976 548 
Q 359 1188 359 2328 
Q 359 3472 976 4111 
Q 1594 4750 2688 4750 
Q 3144 4750 3555 4637 
Q 3966 4525 4313 4306 
L 4313 3634 
Q 3963 3931 3569 4081 
Q 3175 4231 2741 4231 
Q 1884 4231 1454 3753 
Q 1025 3275 1025 2328 
Q 1025 1384 1454 906 
Q 1884 428 2741 428 
Q 3075 428 3337 486 
Q 3600 544 3809 666 
z
" transform="scale(0.015625)"/>
      <path id="DejaVuSans-3b" d="M 750 3309 
L 1409 3309 
L 1409 2516 
L 750 2516 
L 750 3309 
z
M 750 794 
L 1409 794 
L 1409 256 
L 897 -744 
L 494 -744 
L 750 256 
L 750 794 
z
" transform="scale(0.015625)"/>
      <path id="DejaVuSans-4b" d="M 628 4666 
L 1259 4666 
L 1259 2694 
L 3353 4666 
L 4166 4666 
L 1850 2491 
L 4331 0 
L 3500 0 
L 1259 2247 
L 1259 0 
L 628 0 
L 628 4666 
z
" transform="scale(0.015625)"/>
      <path id="DejaVuSans-44" d="M 1259 4147 
L 1259 519 
L 2022 519 
Q 2988 519 3436 956 
Q 3884 1394 3884 2338 
Q 3884 3275 3436 3711 
Q 2988 4147 2022 4147 
L 1259 4147 
z
M 628 4666 
L 1925 4666 
Q 3281 4666 3915 4102 
Q 4550 3538 4550 2338 
Q 4550 1131 3912 565 
Q 3275 0 1925 0 
L 628 0 
L 628 4666 
z
" transform="scale(0.015625)"/>
     </defs>
     <use xlink:href="#DejaVuSans-45"/>
     <use xlink:href="#DejaVuSans-61" transform="translate(63.183594 0)"/>
     <use xlink:href="#DejaVuSans-63" transform="translate(124.462891 0)"/>
     <use xlink:href="#DejaVuSans-68" transform="translate(179.443359 0)"/>
     <use xlink:href="#DejaVuSans-20" transform="translate(242.822266 0)"/>
     <use xlink:href="#DejaVuSans-64" transform="translate(274.609375 0)"/>
     <use xlink:href="#DejaVuSans-61" transform="translate(338.085938 0)"/>
     <use xlink:href="#DejaVuSans-74" transform="translate(399.365234 0)"/>
     <use xlink:href="#DejaVuSans-61" transform="translate(438.574219 0)"/>
     <use xlink:href="#DejaVuSans-20" transform="translate(499.853516 0)"/>
     <use xlink:href="#DejaVuSans-70" transform="translate(531.640625 0)"/>
     <use xlink:href="#DejaVuSans-6f" transform="translate(595.117188 0)"/>
     <use xlink:href="#DejaVuSans-69" transform="translate(656.298828 0)"/>
     <use xlink:href="#DejaVuSans-6e" transform="translate(684.082031 0)"/>
     <use xlink:href="#DejaVuSans-74" transform="translate(747.460938 0)"/>
     <use xlink:href="#DejaVuSans-20" transform="translate(786.669922 0)"/>
     <use xlink:href="#DejaVuSans-63" transform="translate(818.457031 0)"/>
     <use xlink:href="#DejaVuSans-6f" transform="translate(873.4375 0)"/>
     <use xlink:href="#DejaVuSans-6e" transform="translate(934.619141 0)"/>
     <use xlink:href="#DejaVuSans-74" transform="translate(997.998047 0)"/>
     <use xlink:href="#DejaVuSans-72" transform="translate(1037.207031 0)"/>
     <use xlink:href="#DejaVuSans-69" transform="translate(1078.320312 0)"/>
     <use xlink:href="#DejaVuSans-62" transform="translate(1106.103516 0)"/>
     <use xlink:href="#DejaVuSans-75" transform="translate(1169.580078 0)"/>
     <use xlink:href="#DejaVuSans-74" transform="translate(1232.958984 0)"/>
     <use xlink:href="#DejaVuSans-65" transform="translate(1272.167969 0)"/>
     <use xlink:href="#DejaVuSans-73" transform="translate(1333.691406 0)"/>
     <use xlink:href="#DejaVuSans-20" transform="translate(1385.791016 0)"/>
     <use xlink:href="#DejaVuSans-61" transform="translate(1417.578125 0)"/>
     <use xlink:href="#DejaVuSans-20" transform="translate(1478.857422 0)"/>
     <use xlink:href="#DejaVuSans-73" transform="translate(1510.644531 0)"/>
     <use xlink:href="#DejaVuSans-6d" transform="translate(1562.744141 0)"/>
     <use xlink:href="#DejaVuSans-61" transform="translate(1660.15625 0)"/>
     <use xlink:href="#DejaVuSans-6c" transform="translate(1721.435547 0)"/>
     <use xlink:href="#DejaVuSans-6c" transform="translate(1749.21875 0)"/>
     <use xlink:href="#DejaVuSans-20" transform="translate(1777.001953 0)"/>
     <use xlink:href="#DejaVuSans-47" transform="translate(1808.789062 0)"/>
     <use xlink:href="#DejaVuSans-61" transform="translate(1886.279297 0)"/>
     <use xlink:href="#DejaVuSans-75" transform="translate(1947.558594 0)"/>
     <use xlink:href="#DejaVuSans-73" transform="translate(2010.9375 0)"/>
     <use xlink:href="#DejaVuSans-73" transform="translate(2063.037109 0)"/>
     <use xlink:href="#DejaVuSans-69" transform="translate(2115.136719 0)"/>
     <use xlink:href="#DejaVuSans-61" transform="translate(2142.919922 0)"/>
     <use xlink:href="#DejaVuSans-6e" transform="translate(2204.199219 0)"/>
     <use xlink:href="#DejaVuSans-3b" transform="translate(2267.578125 0)"/>
     <use xlink:href="#DejaVuSans-20" transform="translate(2301.269531 0)"/>
     <use xlink:href="#DejaVuSans-74" transform="translate(2333.056641 0)"/>
     <use xlink:href="#DejaVuSans-68" transform="translate(2372.265625 0)"/>
     <use xlink:href="#DejaVuSans-65" transform="translate(2435.644531 0)"/>
     <use xlink:href="#DejaVuSans-69" transform="translate(2497.167969 0)"/>
     <use xlink:href="#DejaVuSans-72" transform="translate(2524.951172 0)"/>
     <use xlink:href="#DejaVuSans-20" transform="translate(2566.064453 0)"/>
     <use xlink:href="#DejaVuSans-73" transform="translate(2597.851562 0)"/>
     <use xlink:href="#DejaVuSans-75" transform="translate(2649.951172 0)"/>
     <use xlink:href="#DejaVuSans-6d" transform="translate(2713.330078 0)"/>
     <use xlink:href="#DejaVuSans-20" transform="translate(2810.742188 0)"/>
     <use xlink:href="#DejaVuSans-69" transform="translate(2842.529297 0)"/>
     <use xlink:href="#DejaVuSans-73" transform="translate(2870.3125 0)"/>
     <use xlink:href="#DejaVuSans-20" transform="translate(2922.412109 0)"/>
     <use xlink:href="#DejaVuSans-74" transform="translate(2954.199219 0)"/>
     <use xlink:href="#DejaVuSans-68" transform="translate(2993.408203 0)"/>
     <use xlink:href="#DejaVuSans-65" transform="translate(3056.787109 0)"/>
     <use xlink:href="#DejaVuSans-20" transform="translate(3118.310547 0)"/>
     <use xlink:href="#DejaVuSans-4b" transform="translate(3150.097656 0)"/>
     <use xlink:href="#DejaVuSans-44" transform="translate(3215.673828 0)"/>
     <use xlink:href="#DejaVuSans-45" transform="translate(3292.675781 0)"/>
    </g>
   </g>
   <g id="PathCollection_1">
    <defs>
     <path id="mb2c1bde15d" d="M 0 2.738613 
C 0.726289 2.738613 1.422928 2.450055 1.936492 1.936492 
C 2.450055 1.422928 2.738613 0.726289 2.738613 0 
C 2.738613 -0.726289 2.450055 -1.422928 1.936492 -1.936492 
C 1.422928 -2.450055 0.726289 -2.738613 0 -2.738613 
C -0.726289 -2.738613 -1.422928 -2.450055 -1.936492 -1.936492 
C -2.450055 -1.422928 -2.738613 -0.726289 -2.738613 0 
C -2.738613 0.726289 -2.450055 1.422928 -1.936492 1.936492 
C -1.422928 2.450055 -0.726289 2.738613 0 2.738613 
z
" style="stroke: #000000"/>
    </defs>
    <g clip-path="url(#p807c8804d8)">
     <use xlink:href="#mb2c1bde15d" x="273.870018" y="265.879943" style="stroke: #000000"/>
    </g>
   </g>
   <g id="PathCollection_2">
    <g clip-path="url(#p807c8804d8)">
     <use xlink:href="#mb2c1bde15d" x="241.38571" y="265.879943" style="stroke: #000000"/>
    </g>
   </g>
   <g id="PathCollection_3">
    <g clip-path="url(#p807c8804d8)">
     <use xlink:href="#mb2c1bde15d" x="308.290737" y="265.879943" style="stroke: #000000"/>
    </g>
   </g>
   <g id="PathCollection_4">
    <g clip-path="url(#p807c8804d8)">
     <use xlink:href="#mb2c1bde15d" x="349.876844" y="265.879943" style="stroke: #000000"/>
    </g>
   </g>
   <g id="PathCollection_5">
    <g clip-path="url(#p807c8804d8)">
     <use xlink:href="#mb2c1bde15d" x="394.372607" y="265.879943" style="stroke: #000000"/>
    </g>
   </g>
   <g id="PathCollection_6">
    <g clip-path="url(#p807c8804d8)">
     <use xlink:href="#mb2c1bde15d" x="330.555244" y="265.879943" style="stroke: #000000"/>
    </g>
   </g>
   <g id="PathCollection_7">
    <g clip-path="url(#p807c8804d8)">
     <use xlink:href="#mb2c1bde15d" x="289.370391" y="265.879943" style="stroke: #000000"/>
    </g>
   </g>
   <g id="PathCollection_8">
    <g clip-path="url(#p807c8804d8)">
     <use xlink:href="#mb2c1bde15d" x="274.936464" y="265.879943" style="stroke: #000000"/>
    </g>
   </g>
   <g id="PathCollection_9">
    <g clip-path="url(#p807c8804d8)">
     <use xlink:href="#mb2c1bde15d" x="370.290422" y="265.879943" style="stroke: #000000"/>
    </g>
   </g>
   <g id="PathCollection_10">
    <g clip-path="url(#p807c8804d8)">
     <use xlink:href="#mb2c1bde15d" x="425.383817" y="265.879943" style="stroke: #000000"/>
    </g>
   </g>
   <g id="PathCollection_11">
    <g clip-path="url(#p807c8804d8)">
     <use xlink:href="#mb2c1bde15d" x="340.694388" y="265.879943" style="stroke: #000000"/>
    </g>
   </g>
   <g id="PathCollection_12">
    <g clip-path="url(#p807c8804d8)">
     <use xlink:href="#mb2c1bde15d" x="247.045934" y="265.879943" style="stroke: #000000"/>
    </g>
   </g>
   <g id="PathCollection_13">
    <g clip-path="url(#p807c8804d8)">
     <use xlink:href="#mb2c1bde15d" x="264.149255" y="265.879943" style="stroke: #000000"/>
    </g>
   </g>
   <g id="PathCollection_14">
    <g clip-path="url(#p807c8804d8)">
     <use xlink:href="#mb2c1bde15d" x="423.22221" y="265.879943" style="stroke: #000000"/>
    </g>
   </g>
   <g id="PathCollection_15">
    <g clip-path="url(#p807c8804d8)">
     <use xlink:href="#mb2c1bde15d" x="336.348888" y="265.879943" style="stroke: #000000"/>
    </g>
   </g>
   <g id="legend_1">
    <g id="patch_7">
     <path d="M 418.808125 44.99625 
L 590.32375 44.99625 
Q 592.32375 44.99625 592.32375 42.99625 
L 592.32375 29.318125 
Q 592.32375 27.318125 590.32375 27.318125 
L 418.808125 27.318125 
Q 416.808125 27.318125 416.808125 29.318125 
L 416.808125 42.99625 
Q 416.808125 44.99625 418.808125 44.99625 
z
" style="fill: #ffffff; opacity: 0.8; stroke: #cccccc; stroke-linejoin: miter"/>
    </g>
    <g id="line2d_49">
     <path d="M 420.808125 35.416562 
L 430.808125 35.416562 
L 440.808125 35.416562 
" style="fill: none; stroke: #e15759; stroke-width: 2.5; stroke-linecap: square"/>
    </g>
    <g id="text_20">
     <!-- KDE = sum of all kernels / n -->
     <g transform="translate(448.808125 38.916562) scale(0.1 -0.1)">
      <defs>
       <path id="DejaVuSans-3d" d="M 678 2906 
L 4684 2906 
L 4684 2381 
L 678 2381 
L 678 2906 
z
M 678 1631 
L 4684 1631 
L 4684 1100 
L 678 1100 
L 678 1631 
z
" transform="scale(0.015625)"/>
       <path id="DejaVuSans-66" d="M 2375 4863 
L 2375 4384 
L 1825 4384 
Q 1516 4384 1395 4259 
Q 1275 4134 1275 3809 
L 1275 3500 
L 2222 3500 
L 2222 3053 
L 1275 3053 
L 1275 0 
L 697 0 
L 697 3053 
L 147 3053 
L 147 3500 
L 697 3500 
L 697 3744 
Q 697 4328 969 4595 
Q 1241 4863 1831 4863 
L 2375 4863 
z
" transform="scale(0.015625)"/>
       <path id="DejaVuSans-6b" d="M 581 4863 
L 1159 4863 
L 1159 1991 
L 2875 3500 
L 3609 3500 
L 1753 1863 
L 3688 0 
L 2938 0 
L 1159 1709 
L 1159 0 
L 581 0 
L 581 4863 
z
" transform="scale(0.015625)"/>
       <path id="DejaVuSans-2f" d="M 1625 4666 
L 2156 4666 
L 531 -594 
L 0 -594 
L 1625 4666 
z
" transform="scale(0.015625)"/>
      </defs>
      <use xlink:href="#DejaVuSans-4b"/>
      <use xlink:href="#DejaVuSans-44" transform="translate(65.576172 0)"/>
      <use xlink:href="#DejaVuSans-45" transform="translate(142.578125 0)"/>
      <use xlink:href="#DejaVuSans-20" transform="translate(205.761719 0)"/>
      <use xlink:href="#DejaVuSans-3d" transform="translate(237.548828 0)"/>
      <use xlink:href="#DejaVuSans-20" transform="translate(321.337891 0)"/>
      <use xlink:href="#DejaVuSans-73" transform="translate(353.125 0)"/>
      <use xlink:href="#DejaVuSans-75" transform="translate(405.224609 0)"/>
      <use xlink:href="#DejaVuSans-6d" transform="translate(468.603516 0)"/>
      <use xlink:href="#DejaVuSans-20" transform="translate(566.015625 0)"/>
      <use xlink:href="#DejaVuSans-6f" transform="translate(597.802734 0)"/>
      <use xlink:href="#DejaVuSans-66" transform="translate(658.984375 0)"/>
      <use xlink:href="#DejaVuSans-20" transform="translate(694.189453 0)"/>
      <use xlink:href="#DejaVuSans-61" transform="translate(725.976562 0)"/>
      <use xlink:href="#DejaVuSans-6c" transform="translate(787.255859 0)"/>
      <use xlink:href="#DejaVuSans-6c" transform="translate(815.039062 0)"/>
      <use xlink:href="#DejaVuSans-20" transform="translate(842.822266 0)"/>
      <use xlink:href="#DejaVuSans-6b" transform="translate(874.609375 0)"/>
      <use xlink:href="#DejaVuSans-65" transform="translate(928.894531 0)"/>
      <use xlink:href="#DejaVuSans-72" transform="translate(990.417969 0)"/>
      <use xlink:href="#DejaVuSans-6e" transform="translate(1029.78125 0)"/>
      <use xlink:href="#DejaVuSans-65" transform="translate(1093.160156 0)"/>
      <use xlink:href="#DejaVuSans-6c" transform="translate(1154.683594 0)"/>
      <use xlink:href="#DejaVuSans-73" transform="translate(1182.466797 0)"/>
      <use xlink:href="#DejaVuSans-20" transform="translate(1234.566406 0)"/>
      <use xlink:href="#DejaVuSans-2f" transform="translate(1266.353516 0)"/>
      <use xlink:href="#DejaVuSans-20" transform="translate(1300.044922 0)"/>
      <use xlink:href="#DejaVuSans-6e" transform="translate(1331.832031 0)"/>
     </g>
    </g>
   </g>
  </g>
 </g>
 <defs>
  <clipPath id="p807c8804d8">
   <rect x="50.14375" y="22.318125" width="547.18" height="255.16"/>
  </clipPath>
 </defs>
</svg>
