<?xml version="1.0" encoding="utf-8" standalone="no"?>
<!DOCTYPE svg PUBLIC "-//W3C//DTD SVG 1.1//EN"
  "http://www.w3.org/Graphics/SVG/1.1/DTD/svg11.dtd">
<svg xmlns:xlink="http://www.w3.org/1999/xlink" width="640.380312pt" height="228.58825pt" viewBox="0 0 640.380312 228.58825" xmlns="http://www.w3.org/2000/svg" version="1.1">
 <metadata>
  <rdf:RDF xmlns:dc="http://purl.org/dc/elements/1.1/" xmlns:cc="http://creativecommons.org/ns#" xmlns:rdf="http://www.w3.org/1999/02/22-rdf-syntax-ns#">
   <cc:Work>
    <dc:type rdf:resource="http://purl.org/dc/dcmitype/StillImage"/>
    <dc:date>2026-05-24T16:24:53.917253</dc:date>
    <dc:format>image/svg+xml</dc:format>
    <dc:creator>
     <cc:Agent>
      <dc:title>Matplotlib v3.10.8, https://matplotlib.org/</dc:title>
     </cc:Agent>
    </dc:creator>
   </cc:Work>
  </rdf:RDF>
 </metadata>
 <defs>
  <style type="text/css">*{stroke-linejoin: round; stroke-linecap: butt}</style>
 </defs>
 <g id="figure_1">
  <g id="patch_1">
   <path d="M 0 228.58825 
L 640.380312 228.58825 
L 640.380312 0 
L 0 0 
z
" style="fill: #ffffff"/>
  </g>
  <g id="axes_1">
   <g id="patch_2">
    <path d="M 42.620313 191.032 
L 229.940312 191.032 
L 229.940312 48.192 
L 42.620313 48.192 
z
" style="fill: #ffffff"/>
   </g>
   <g id="matplotlib.axis_1">
    <g id="xtick_1">
     <g id="line2d_1">
      <path d="M 77.742812 191.032 
L 77.742812 48.192 
" clip-path="url(#p862da8cb33)" style="fill: none; stroke: #b0b0b0; stroke-opacity: 0.25; stroke-width: 0.8; stroke-linecap: square"/>
     </g>
     <g id="line2d_2">
      <defs>
       <path id="mc91300f350" d="M 0 0 
L 0 3.5 
" style="stroke: #000000; stroke-width: 0.8"/>
      </defs>
      <g>
       <use xlink:href="#mc91300f350" x="77.742812" y="191.032" style="stroke: #000000; stroke-width: 0.8"/>
      </g>
     </g>
     <g id="text_1">
      <!-- −2 -->
      <g transform="translate(70.371719 205.630437) scale(0.1 -0.1)">
       <defs>
        <path id="DejaVuSans-2212" d="M 678 2272 
L 4684 2272 
L 4684 1741 
L 678 1741 
L 678 2272 
z
" transform="scale(0.015625)"/>
        <path id="DejaVuSans-32" d="M 1228 531 
L 3431 531 
L 3431 0 
L 469 0 
L 469 531 
Q 828 903 1448 1529 
Q 2069 2156 2228 2338 
Q 2531 2678 2651 2914 
Q 2772 3150 2772 3378 
Q 2772 3750 2511 3984 
Q 2250 4219 1831 4219 
Q 1534 4219 1204 4116 
Q 875 4013 500 3803 
L 500 4441 
Q 881 4594 1212 4672 
Q 1544 4750 1819 4750 
Q 2544 4750 2975 4387 
Q 3406 4025 3406 3419 
Q 3406 3131 3298 2873 
Q 3191 2616 2906 2266 
Q 2828 2175 2409 1742 
Q 1991 1309 1228 531 
z
" transform="scale(0.015625)"/>
       </defs>
       <use xlink:href="#DejaVuSans-2212"/>
       <use xlink:href="#DejaVuSans-32" transform="translate(83.789062 0)"/>
      </g>
     </g>
    </g>
    <g id="xtick_2">
     <g id="line2d_3">
      <path d="M 136.280312 191.032 
L 136.280312 48.192 
" clip-path="url(#p862da8cb33)" style="fill: none; stroke: #b0b0b0; stroke-opacity: 0.25; stroke-width: 0.8; stroke-linecap: square"/>
     </g>
     <g id="line2d_4">
      <g>
       <use xlink:href="#mc91300f350" x="136.280312" y="191.032" style="stroke: #000000; stroke-width: 0.8"/>
      </g>
     </g>
     <g id="text_2">
      <!-- 0 -->
      <g transform="translate(133.099062 205.630437) scale(0.1 -0.1)">
       <defs>
        <path id="DejaVuSans-30" d="M 2034 4250 
Q 1547 4250 1301 3770 
Q 1056 3291 1056 2328 
Q 1056 1369 1301 889 
Q 1547 409 2034 409 
Q 2525 409 2770 889 
Q 3016 1369 3016 2328 
Q 3016 3291 2770 3770 
Q 2525 4250 2034 4250 
z
M 2034 4750 
Q 2819 4750 3233 4129 
Q 3647 3509 3647 2328 
Q 3647 1150 3233 529 
Q 2819 -91 2034 -91 
Q 1250 -91 836 529 
Q 422 1150 422 2328 
Q 422 3509 836 4129 
Q 1250 4750 2034 4750 
z
" transform="scale(0.015625)"/>
       </defs>
       <use xlink:href="#DejaVuSans-30"/>
      </g>
     </g>
    </g>
    <g id="xtick_3">
     <g id="line2d_5">
      <path d="M 194.817812 191.032 
L 194.817812 48.192 
" clip-path="url(#p862da8cb33)" style="fill: none; stroke: #b0b0b0; stroke-opacity: 0.25; stroke-width: 0.8; stroke-linecap: square"/>
     </g>
     <g id="line2d_6">
      <g>
       <use xlink:href="#mc91300f350" x="194.817812" y="191.032" style="stroke: #000000; stroke-width: 0.8"/>
      </g>
     </g>
     <g id="text_3">
      <!-- 2 -->
      <g transform="translate(191.636562 205.630437) scale(0.1 -0.1)">
       <use xlink:href="#DejaVuSans-32"/>
      </g>
     </g>
    </g>
    <g id="text_4">
     <!-- x -->
     <g transform="translate(133.320937 219.308562) scale(0.1 -0.1)">
      <defs>
       <path id="DejaVuSans-78" d="M 3513 3500 
L 2247 1797 
L 3578 0 
L 2900 0 
L 1881 1375 
L 863 0 
L 184 0 
L 1544 1831 
L 300 3500 
L 978 3500 
L 1906 2253 
L 2834 3500 
L 3513 3500 
z
" transform="scale(0.015625)"/>
      </defs>
      <use xlink:href="#DejaVuSans-78"/>
     </g>
    </g>
   </g>
   <g id="matplotlib.axis_2">
    <g id="ytick_1">
     <g id="line2d_7">
      <path d="M 42.620313 177.556528 
L 229.940312 177.556528 
" clip-path="url(#p862da8cb33)" style="fill: none; stroke: #b0b0b0; stroke-opacity: 0.25; stroke-width: 0.8; stroke-linecap: square"/>
     </g>
     <g id="line2d_8">
      <defs>
       <path id="me7684f2ad9" d="M 0 0 
L -3.5 0 
" style="stroke: #000000; stroke-width: 0.8"/>
      </defs>
      <g>
       <use xlink:href="#me7684f2ad9" x="42.620313" y="177.556528" style="stroke: #000000; stroke-width: 0.8"/>
      </g>
     </g>
     <g id="text_5">
      <!-- −2 -->
      <g transform="translate(20.878125 181.355747) scale(0.1 -0.1)">
       <use xlink:href="#DejaVuSans-2212"/>
       <use xlink:href="#DejaVuSans-32" transform="translate(83.789062 0)"/>
      </g>
     </g>
    </g>
    <g id="ytick_2">
     <g id="line2d_9">
      <path d="M 42.620313 150.605585 
L 229.940312 150.605585 
" clip-path="url(#p862da8cb33)" style="fill: none; stroke: #b0b0b0; stroke-opacity: 0.25; stroke-width: 0.8; stroke-linecap: square"/>
     </g>
     <g id="line2d_10">
      <g>
       <use xlink:href="#me7684f2ad9" x="42.620313" y="150.605585" style="stroke: #000000; stroke-width: 0.8"/>
      </g>
     </g>
     <g id="text_6">
      <!-- −1 -->
      <g transform="translate(20.878125 154.404804) scale(0.1 -0.1)">
       <defs>
        <path id="DejaVuSans-31" d="M 794 531 
L 1825 531 
L 1825 4091 
L 703 3866 
L 703 4441 
L 1819 4666 
L 2450 4666 
L 2450 531 
L 3481 531 
L 3481 0 
L 794 0 
L 794 531 
z
" transform="scale(0.015625)"/>
       </defs>
       <use xlink:href="#DejaVuSans-2212"/>
       <use xlink:href="#DejaVuSans-31" transform="translate(83.789062 0)"/>
      </g>
     </g>
    </g>
    <g id="ytick_3">
     <g id="line2d_11">
      <path d="M 42.620313 123.654642 
L 229.940312 123.654642 
" clip-path="url(#p862da8cb33)" style="fill: none; stroke: #b0b0b0; stroke-opacity: 0.25; stroke-width: 0.8; stroke-linecap: square"/>
     </g>
     <g id="line2d_12">
      <g>
       <use xlink:href="#me7684f2ad9" x="42.620313" y="123.654642" style="stroke: #000000; stroke-width: 0.8"/>
      </g>
     </g>
     <g id="text_7">
      <!-- 0 -->
      <g transform="translate(29.257813 127.45386) scale(0.1 -0.1)">
       <use xlink:href="#DejaVuSans-30"/>
      </g>
     </g>
    </g>
    <g id="ytick_4">
     <g id="line2d_13">
      <path d="M 42.620313 96.703698 
L 229.940312 96.703698 
" clip-path="url(#p862da8cb33)" style="fill: none; stroke: #b0b0b0; stroke-opacity: 0.25; stroke-width: 0.8; stroke-linecap: square"/>
     </g>
     <g id="line2d_14">
      <g>
       <use xlink:href="#me7684f2ad9" x="42.620313" y="96.703698" style="stroke: #000000; stroke-width: 0.8"/>
      </g>
     </g>
     <g id="text_8">
      <!-- 1 -->
      <g transform="translate(29.257813 100.502917) scale(0.1 -0.1)">
       <use xlink:href="#DejaVuSans-31"/>
      </g>
     </g>
    </g>
    <g id="ytick_5">
     <g id="line2d_15">
      <path d="M 42.620313 69.752755 
L 229.940312 69.752755 
" clip-path="url(#p862da8cb33)" style="fill: none; stroke: #b0b0b0; stroke-opacity: 0.25; stroke-width: 0.8; stroke-linecap: square"/>
     </g>
     <g id="line2d_16">
      <g>
       <use xlink:href="#me7684f2ad9" x="42.620313" y="69.752755" style="stroke: #000000; stroke-width: 0.8"/>
      </g>
     </g>
     <g id="text_9">
      <!-- 2 -->
      <g transform="translate(29.257813 73.551973) scale(0.1 -0.1)">
       <use xlink:href="#DejaVuSans-32"/>
      </g>
     </g>
    </g>
    <g id="text_10">
     <!-- y -->
     <g transform="translate(14.798438 122.571375) rotate(-90) scale(0.1 -0.1)">
      <defs>
       <path id="DejaVuSans-79" d="M 2059 -325 
Q 1816 -950 1584 -1140 
Q 1353 -1331 966 -1331 
L 506 -1331 
L 506 -850 
L 844 -850 
Q 1081 -850 1212 -737 
Q 1344 -625 1503 -206 
L 1606 56 
L 191 3500 
L 800 3500 
L 1894 763 
L 2988 3500 
L 3597 3500 
L 2059 -325 
z
" transform="scale(0.015625)"/>
      </defs>
      <use xlink:href="#DejaVuSans-79"/>
     </g>
    </g>
   </g>
   <g id="line2d_17">
    <path d="M 42.620312 147.954309 
L 53.418207 154.77954 
L 58.112944 157.475535 
L 62.338207 159.63629 
L 66.093997 161.28729 
L 69.380312 162.487213 
L 72.666628 163.43083 
L 75.48347 164.017878 
L 78.300312 164.386797 
L 81.117155 164.52697 
L 83.933997 164.429898 
L 86.750839 164.089279 
L 89.567681 163.501063 
L 92.384523 162.663492 
L 95.201365 161.577116 
L 98.018207 160.244789 
L 100.835049 158.671639 
L 103.651891 156.865025 
L 106.938207 154.475049 
L 110.224523 151.79901 
L 113.980312 148.419116 
L 117.736102 144.7333 
L 121.961365 140.275481 
L 127.125576 134.476561 
L 134.167681 126.181883 
L 146.373997 111.75511 
L 151.538207 106.017899 
L 155.76347 101.628151 
L 159.51926 98.014918 
L 163.275049 94.717734 
L 166.561365 92.121307 
L 169.847681 89.816657 
L 172.664523 88.086911 
L 175.481365 86.593327 
L 178.298207 85.342525 
L 181.115049 84.338881 
L 183.931891 83.584481 
L 186.748734 83.079106 
L 189.565576 82.820232 
L 192.382418 82.803052 
L 195.19926 83.020524 
L 198.016102 83.463434 
L 200.832944 84.120481 
L 204.11926 85.139855 
L 207.405576 86.408266 
L 211.161365 88.127535 
L 214.917155 90.090857 
L 219.611891 92.812718 
L 225.715049 96.635257 
L 229.940312 99.354974 
L 229.940312 99.354974 
" clip-path="url(#p862da8cb33)" style="fill: none; stroke-dasharray: 5.55,2.4; stroke-dashoffset: 0; stroke: #59a14f; stroke-width: 1.5"/>
   </g>
   <g id="line2d_18">
    <path d="M 42.620312 148.0935 
L 44.498207 151.507288 
L 46.376102 154.342584 
L 48.253997 156.672376 
L 50.131891 158.573249 
L 52.009786 160.11974 
L 53.887681 161.380511 
L 56.235049 162.645819 
L 58.582418 163.655389 
L 61.39926 164.630543 
L 64.685576 165.543554 
L 68.441365 166.36515 
L 72.197155 166.958919 
L 75.48347 167.257306 
L 78.300312 167.31253 
L 81.117155 167.150691 
L 83.933997 166.744979 
L 86.750839 166.074722 
L 89.098207 165.304398 
L 91.915049 164.120905 
L 94.731891 162.656362 
L 97.548734 160.919216 
L 100.365576 158.923914 
L 103.651891 156.29564 
L 106.938207 153.378774 
L 110.693997 149.744037 
L 114.91926 145.347245 
L 120.552944 139.130019 
L 141.67926 115.405301 
L 146.373997 110.663437 
L 150.59926 106.728877 
L 154.355049 103.550806 
L 157.641365 101.053354 
L 160.927681 98.850964 
L 163.744523 97.218905 
L 166.561365 95.839273 
L 169.378207 94.724747 
L 172.195049 93.883779 
L 174.542418 93.393827 
L 177.35926 93.054109 
L 180.176102 92.969542 
L 182.992944 93.109166 
L 186.748734 93.554698 
L 194.260312 94.555899 
L 196.607681 94.607002 
L 198.485576 94.4543 
L 200.36347 94.082108 
L 202.241365 93.454833 
L 204.11926 92.552845 
L 205.997155 91.383748 
L 208.344523 89.629202 
L 211.630839 87.124611 
L 213.03926 86.34911 
L 213.978207 86.065026 
L 214.917155 86.055021 
L 215.856102 86.411945 
L 216.795049 87.246992 
L 217.733997 88.692457 
L 218.672944 90.904836 
L 219.611891 94.068313 
L 220.550839 98.398653 
L 221.489786 104.147569 
L 222.428734 111.607592 
L 223.367681 121.117509 
L 224.306628 133.068404 
L 225.245576 147.910391 
L 226.184523 166.160078 
L 227.12347 188.408848 
L 228.062418 215.332025 
L 228.49559 229.58825 
L 228.49559 229.58825 
" clip-path="url(#p862da8cb33)" style="fill: none; stroke: #e15759; stroke-width: 2; stroke-linecap: square"/>
   </g>
   <g id="patch_3">
    <path d="M 42.620313 191.032 
L 42.620313 48.192 
" style="fill: none; stroke: #000000; stroke-width: 0.8; stroke-linejoin: miter; stroke-linecap: square"/>
   </g>
   <g id="patch_4">
    <path d="M 229.940312 191.032 
L 229.940312 48.192 
" style="fill: none; stroke: #000000; stroke-width: 0.8; stroke-linejoin: miter; stroke-linecap: square"/>
   </g>
   <g id="patch_5">
    <path d="M 42.620312 191.032 
L 229.940312 191.032 
" style="fill: none; stroke: #000000; stroke-width: 0.8; stroke-linejoin: miter; stroke-linecap: square"/>
   </g>
   <g id="patch_6">
    <path d="M 42.620312 48.192 
L 229.940312 48.192 
" style="fill: none; stroke: #000000; stroke-width: 0.8; stroke-linejoin: miter; stroke-linecap: square"/>
   </g>
   <g id="PathCollection_1">
    <defs>
     <path id="m951685db9c" d="M 0 2.645751 
C 0.701661 2.645751 1.374679 2.366978 1.870829 1.870829 
C 2.366978 1.374679 2.645751 0.701661 2.645751 0 
C 2.645751 -0.701661 2.366978 -1.374679 1.870829 -1.870829 
C 1.374679 -2.366978 0.701661 -2.645751 0 -2.645751 
C -0.701661 -2.645751 -1.374679 -2.366978 -1.870829 -1.870829 
C -2.366978 -1.374679 -2.645751 -0.701661 -2.645751 0 
C -2.645751 0.701661 -2.366978 1.374679 -1.870829 1.870829 
C -1.374679 2.366978 -0.701661 2.645751 0 2.645751 
z
" style="stroke: #ffffff; stroke-width: 0.5"/>
    </defs>
    <g clip-path="url(#p862da8cb33)">
     <use xlink:href="#m951685db9c" x="53.512211" y="161.417804" style="fill: #7aa6c2; stroke: #ffffff; stroke-width: 0.5"/>
     <use xlink:href="#m951685db9c" x="60.840796" y="162.684764" style="fill: #7aa6c2; stroke: #ffffff; stroke-width: 0.5"/>
     <use xlink:href="#m951685db9c" x="71.052597" y="172.648338" style="fill: #7aa6c2; stroke: #ffffff; stroke-width: 0.5"/>
     <use xlink:href="#m951685db9c" x="71.26399" y="175.128001" style="fill: #7aa6c2; stroke: #ffffff; stroke-width: 0.5"/>
     <use xlink:href="#m951685db9c" x="72.702981" y="163.143517" style="fill: #7aa6c2; stroke: #ffffff; stroke-width: 0.5"/>
     <use xlink:href="#m951685db9c" x="74.451732" y="156.573034" style="fill: #7aa6c2; stroke: #ffffff; stroke-width: 0.5"/>
     <use xlink:href="#m951685db9c" x="84.38848" y="166.276491" style="fill: #7aa6c2; stroke: #ffffff; stroke-width: 0.5"/>
     <use xlink:href="#m951685db9c" x="96.821732" y="166.85266" style="fill: #7aa6c2; stroke: #ffffff; stroke-width: 0.5"/>
     <use xlink:href="#m951685db9c" x="110.513543" y="148.437907" style="fill: #7aa6c2; stroke: #ffffff; stroke-width: 0.5"/>
     <use xlink:href="#m951685db9c" x="113.273867" y="143.2804" style="fill: #7aa6c2; stroke: #ffffff; stroke-width: 0.5"/>
     <use xlink:href="#m951685db9c" x="133.404605" y="129.518427" style="fill: #7aa6c2; stroke: #ffffff; stroke-width: 0.5"/>
     <use xlink:href="#m951685db9c" x="136.153496" y="119.402654" style="fill: #7aa6c2; stroke: #ffffff; stroke-width: 0.5"/>
     <use xlink:href="#m951685db9c" x="138.280543" y="112.829751" style="fill: #7aa6c2; stroke: #ffffff; stroke-width: 0.5"/>
     <use xlink:href="#m951685db9c" x="138.454802" y="122.726807" style="fill: #7aa6c2; stroke: #ffffff; stroke-width: 0.5"/>
     <use xlink:href="#m951685db9c" x="144.898543" y="120.029849" style="fill: #7aa6c2; stroke: #ffffff; stroke-width: 0.5"/>
     <use xlink:href="#m951685db9c" x="145.716036" y="109.698453" style="fill: #7aa6c2; stroke: #ffffff; stroke-width: 0.5"/>
     <use xlink:href="#m951685db9c" x="154.104693" y="101.312304" style="fill: #7aa6c2; stroke: #ffffff; stroke-width: 0.5"/>
     <use xlink:href="#m951685db9c" x="157.684595" y="90.858759" style="fill: #7aa6c2; stroke: #ffffff; stroke-width: 0.5"/>
     <use xlink:href="#m951685db9c" x="164.87757" y="103.802632" style="fill: #7aa6c2; stroke: #ffffff; stroke-width: 0.5"/>
     <use xlink:href="#m951685db9c" x="166.197761" y="97.74391" style="fill: #7aa6c2; stroke: #ffffff; stroke-width: 0.5"/>
     <use xlink:href="#m951685db9c" x="186.863666" y="89.840562" style="fill: #7aa6c2; stroke: #ffffff; stroke-width: 0.5"/>
     <use xlink:href="#m951685db9c" x="191.90319" y="96.809189" style="fill: #7aa6c2; stroke: #ffffff; stroke-width: 0.5"/>
     <use xlink:href="#m951685db9c" x="211.479521" y="87.262796" style="fill: #7aa6c2; stroke: #ffffff; stroke-width: 0.5"/>
     <use xlink:href="#m951685db9c" x="215.012393" y="85.875944" style="fill: #7aa6c2; stroke: #ffffff; stroke-width: 0.5"/>
     <use xlink:href="#m951685db9c" x="220.734759" y="99.470814" style="fill: #7aa6c2; stroke: #ffffff; stroke-width: 0.5"/>
    </g>
   </g>
   <g id="text_11">
    <!-- alpha = 0.001 (too small) -->
    <g transform="translate(72.262344 42.192) scale(0.1 -0.1)">
     <defs>
      <path id="DejaVuSans-61" d="M 2194 1759 
Q 1497 1759 1228 1600 
Q 959 1441 959 1056 
Q 959 750 1161 570 
Q 1363 391 1709 391 
Q 2188 391 2477 730 
Q 2766 1069 2766 1631 
L 2766 1759 
L 2194 1759 
z
M 3341 1997 
L 3341 0 
L 2766 0 
L 2766 531 
Q 2569 213 2275 61 
Q 1981 -91 1556 -91 
Q 1019 -91 701 211 
Q 384 513 384 1019 
Q 384 1609 779 1909 
Q 1175 2209 1959 2209 
L 2766 2209 
L 2766 2266 
Q 2766 2663 2505 2880 
Q 2244 3097 1772 3097 
Q 1472 3097 1187 3025 
Q 903 2953 641 2809 
L 641 3341 
Q 956 3463 1253 3523 
Q 1550 3584 1831 3584 
Q 2591 3584 2966 3190 
Q 3341 2797 3341 1997 
z
" transform="scale(0.015625)"/>
      <path id="DejaVuSans-6c" d="M 603 4863 
L 1178 4863 
L 1178 0 
L 603 0 
L 603 4863 
z
" transform="scale(0.015625)"/>
      <path id="DejaVuSans-70" d="M 1159 525 
L 1159 -1331 
L 581 -1331 
L 581 3500 
L 1159 3500 
L 1159 2969 
Q 1341 3281 1617 3432 
Q 1894 3584 2278 3584 
Q 2916 3584 3314 3078 
Q 3713 2572 3713 1747 
Q 3713 922 3314 415 
Q 2916 -91 2278 -91 
Q 1894 -91 1617 61 
Q 1341 213 1159 525 
z
M 3116 1747 
Q 3116 2381 2855 2742 
Q 2594 3103 2138 3103 
Q 1681 3103 1420 2742 
Q 1159 2381 1159 1747 
Q 1159 1113 1420 752 
Q 1681 391 2138 391 
Q 2594 391 2855 752 
Q 3116 1113 3116 1747 
z
" transform="scale(0.015625)"/>
      <path id="DejaVuSans-68" d="M 3513 2113 
L 3513 0 
L 2938 0 
L 2938 2094 
Q 2938 2591 2744 2837 
Q 2550 3084 2163 3084 
Q 1697 3084 1428 2787 
Q 1159 2491 1159 1978 
L 1159 0 
L 581 0 
L 581 4863 
L 1159 4863 
L 1159 2956 
Q 1366 3272 1645 3428 
Q 1925 3584 2291 3584 
Q 2894 3584 3203 3211 
Q 3513 2838 3513 2113 
z
" transform="scale(0.015625)"/>
      <path id="DejaVuSans-20" transform="scale(0.015625)"/>
      <path id="DejaVuSans-3d" d="M 678 2906 
L 4684 2906 
L 4684 2381 
L 678 2381 
L 678 2906 
z
M 678 1631 
L 4684 1631 
L 4684 1100 
L 678 1100 
L 678 1631 
z
" transform="scale(0.015625)"/>
      <path id="DejaVuSans-2e" d="M 684 794 
L 1344 794 
L 1344 0 
L 684 0 
L 684 794 
z
" transform="scale(0.015625)"/>
      <path id="DejaVuSans-28" d="M 1984 4856 
Q 1566 4138 1362 3434 
Q 1159 2731 1159 2009 
Q 1159 1288 1364 580 
Q 1569 -128 1984 -844 
L 1484 -844 
Q 1016 -109 783 600 
Q 550 1309 550 2009 
Q 550 2706 781 3412 
Q 1013 4119 1484 4856 
L 1984 4856 
z
" transform="scale(0.015625)"/>
      <path id="DejaVuSans-74" d="M 1172 4494 
L 1172 3500 
L 2356 3500 
L 2356 3053 
L 1172 3053 
L 1172 1153 
Q 1172 725 1289 603 
Q 1406 481 1766 481 
L 2356 481 
L 2356 0 
L 1766 0 
Q 1100 0 847 248 
Q 594 497 594 1153 
L 594 3053 
L 172 3053 
L 172 3500 
L 594 3500 
L 594 4494 
L 1172 4494 
z
" transform="scale(0.015625)"/>
      <path id="DejaVuSans-6f" d="M 1959 3097 
Q 1497 3097 1228 2736 
Q 959 2375 959 1747 
Q 959 1119 1226 758 
Q 1494 397 1959 397 
Q 2419 397 2687 759 
Q 2956 1122 2956 1747 
Q 2956 2369 2687 2733 
Q 2419 3097 1959 3097 
z
M 1959 3584 
Q 2709 3584 3137 3096 
Q 3566 2609 3566 1747 
Q 3566 888 3137 398 
Q 2709 -91 1959 -91 
Q 1206 -91 779 398 
Q 353 888 353 1747 
Q 353 2609 779 3096 
Q 1206 3584 1959 3584 
z
" transform="scale(0.015625)"/>
      <path id="DejaVuSans-73" d="M 2834 3397 
L 2834 2853 
Q 2591 2978 2328 3040 
Q 2066 3103 1784 3103 
Q 1356 3103 1142 2972 
Q 928 2841 928 2578 
Q 928 2378 1081 2264 
Q 1234 2150 1697 2047 
L 1894 2003 
Q 2506 1872 2764 1633 
Q 3022 1394 3022 966 
Q 3022 478 2636 193 
Q 2250 -91 1575 -91 
Q 1294 -91 989 -36 
Q 684 19 347 128 
L 347 722 
Q 666 556 975 473 
Q 1284 391 1588 391 
Q 1994 391 2212 530 
Q 2431 669 2431 922 
Q 2431 1156 2273 1281 
Q 2116 1406 1581 1522 
L 1381 1569 
Q 847 1681 609 1914 
Q 372 2147 372 2553 
Q 372 3047 722 3315 
Q 1072 3584 1716 3584 
Q 2034 3584 2315 3537 
Q 2597 3491 2834 3397 
z
" transform="scale(0.015625)"/>
      <path id="DejaVuSans-6d" d="M 3328 2828 
Q 3544 3216 3844 3400 
Q 4144 3584 4550 3584 
Q 5097 3584 5394 3201 
Q 5691 2819 5691 2113 
L 5691 0 
L 5113 0 
L 5113 2094 
Q 5113 2597 4934 2840 
Q 4756 3084 4391 3084 
Q 3944 3084 3684 2787 
Q 3425 2491 3425 1978 
L 3425 0 
L 2847 0 
L 2847 2094 
Q 2847 2600 2669 2842 
Q 2491 3084 2119 3084 
Q 1678 3084 1418 2786 
Q 1159 2488 1159 1978 
L 1159 0 
L 581 0 
L 581 3500 
L 1159 3500 
L 1159 2956 
Q 1356 3278 1631 3431 
Q 1906 3584 2284 3584 
Q 2666 3584 2933 3390 
Q 3200 3197 3328 2828 
z
" transform="scale(0.015625)"/>
      <path id="DejaVuSans-29" d="M 513 4856 
L 1013 4856 
Q 1481 4119 1714 3412 
Q 1947 2706 1947 2009 
Q 1947 1309 1714 600 
Q 1481 -109 1013 -844 
L 513 -844 
Q 928 -128 1133 580 
Q 1338 1288 1338 2009 
Q 1338 2731 1133 3434 
Q 928 4138 513 4856 
z
" transform="scale(0.015625)"/>
     </defs>
     <use xlink:href="#DejaVuSans-61"/>
     <use xlink:href="#DejaVuSans-6c" transform="translate(61.279297 0)"/>
     <use xlink:href="#DejaVuSans-70" transform="translate(89.0625 0)"/>
     <use xlink:href="#DejaVuSans-68" transform="translate(152.539062 0)"/>
     <use xlink:href="#DejaVuSans-61" transform="translate(215.917969 0)"/>
     <use xlink:href="#DejaVuSans-20" transform="translate(277.197266 0)"/>
     <use xlink:href="#DejaVuSans-3d" transform="translate(308.984375 0)"/>
     <use xlink:href="#DejaVuSans-20" transform="translate(392.773438 0)"/>
     <use xlink:href="#DejaVuSans-30" transform="translate(424.560547 0)"/>
     <use xlink:href="#DejaVuSans-2e" transform="translate(488.183594 0)"/>
     <use xlink:href="#DejaVuSans-30" transform="translate(519.970703 0)"/>
     <use xlink:href="#DejaVuSans-30" transform="translate(583.59375 0)"/>
     <use xlink:href="#DejaVuSans-31" transform="translate(647.216797 0)"/>
     <use xlink:href="#DejaVuSans-20" transform="translate(710.839844 0)"/>
     <use xlink:href="#DejaVuSans-28" transform="translate(742.626953 0)"/>
     <use xlink:href="#DejaVuSans-74" transform="translate(781.640625 0)"/>
     <use xlink:href="#DejaVuSans-6f" transform="translate(820.849609 0)"/>
     <use xlink:href="#DejaVuSans-6f" transform="translate(882.03125 0)"/>
     <use xlink:href="#DejaVuSans-20" transform="translate(943.212891 0)"/>
     <use xlink:href="#DejaVuSans-73" transform="translate(975 0)"/>
     <use xlink:href="#DejaVuSans-6d" transform="translate(1027.099609 0)"/>
     <use xlink:href="#DejaVuSans-61" transform="translate(1124.511719 0)"/>
     <use xlink:href="#DejaVuSans-6c" transform="translate(1185.791016 0)"/>
     <use xlink:href="#DejaVuSans-6c" transform="translate(1213.574219 0)"/>
     <use xlink:href="#DejaVuSans-29" transform="translate(1241.357422 0)"/>
    </g>
   </g>
   <g id="legend_1">
    <g id="patch_7">
     <path d="M 147.101562 187.032 
L 224.340312 187.032 
Q 225.940312 187.032 225.940312 185.432 
L 225.940312 151.0045 
Q 225.940312 149.4045 224.340312 149.4045 
L 147.101562 149.4045 
Q 145.501562 149.4045 145.501562 151.0045 
L 145.501562 185.432 
Q 145.501562 187.032 147.101562 187.032 
z
" style="fill: #ffffff; opacity: 0.8; stroke: #cccccc; stroke-linejoin: miter"/>
    </g>
    <g id="line2d_19">
     <path d="M 148.701562 155.88325 
L 156.701562 155.88325 
L 164.701562 155.88325 
" style="fill: none; stroke-dasharray: 5.55,2.4; stroke-dashoffset: 0; stroke: #59a14f; stroke-width: 1.5"/>
    </g>
    <g id="text_12">
     <!-- true function -->
     <g transform="translate(171.101562 158.68325) scale(0.08 -0.08)">
      <defs>
       <path id="DejaVuSans-72" d="M 2631 2963 
Q 2534 3019 2420 3045 
Q 2306 3072 2169 3072 
Q 1681 3072 1420 2755 
Q 1159 2438 1159 1844 
L 1159 0 
L 581 0 
L 581 3500 
L 1159 3500 
L 1159 2956 
Q 1341 3275 1631 3429 
Q 1922 3584 2338 3584 
Q 2397 3584 2469 3576 
Q 2541 3569 2628 3553 
L 2631 2963 
z
" transform="scale(0.015625)"/>
       <path id="DejaVuSans-75" d="M 544 1381 
L 544 3500 
L 1119 3500 
L 1119 1403 
Q 1119 906 1312 657 
Q 1506 409 1894 409 
Q 2359 409 2629 706 
Q 2900 1003 2900 1516 
L 2900 3500 
L 3475 3500 
L 3475 0 
L 2900 0 
L 2900 538 
Q 2691 219 2414 64 
Q 2138 -91 1772 -91 
Q 1169 -91 856 284 
Q 544 659 544 1381 
z
M 1991 3584 
L 1991 3584 
z
" transform="scale(0.015625)"/>
       <path id="DejaVuSans-65" d="M 3597 1894 
L 3597 1613 
L 953 1613 
Q 991 1019 1311 708 
Q 1631 397 2203 397 
Q 2534 397 2845 478 
Q 3156 559 3463 722 
L 3463 178 
Q 3153 47 2828 -22 
Q 2503 -91 2169 -91 
Q 1331 -91 842 396 
Q 353 884 353 1716 
Q 353 2575 817 3079 
Q 1281 3584 2069 3584 
Q 2775 3584 3186 3129 
Q 3597 2675 3597 1894 
z
M 3022 2063 
Q 3016 2534 2758 2815 
Q 2500 3097 2075 3097 
Q 1594 3097 1305 2825 
Q 1016 2553 972 2059 
L 3022 2063 
z
" transform="scale(0.015625)"/>
       <path id="DejaVuSans-66" d="M 2375 4863 
L 2375 4384 
L 1825 4384 
Q 1516 4384 1395 4259 
Q 1275 4134 1275 3809 
L 1275 3500 
L 2222 3500 
L 2222 3053 
L 1275 3053 
L 1275 0 
L 697 0 
L 697 3053 
L 147 3053 
L 147 3500 
L 697 3500 
L 697 3744 
Q 697 4328 969 4595 
Q 1241 4863 1831 4863 
L 2375 4863 
z
" transform="scale(0.015625)"/>
       <path id="DejaVuSans-6e" d="M 3513 2113 
L 3513 0 
L 2938 0 
L 2938 2094 
Q 2938 2591 2744 2837 
Q 2550 3084 2163 3084 
Q 1697 3084 1428 2787 
Q 1159 2491 1159 1978 
L 1159 0 
L 581 0 
L 581 3500 
L 1159 3500 
L 1159 2956 
Q 1366 3272 1645 3428 
Q 1925 3584 2291 3584 
Q 2894 3584 3203 3211 
Q 3513 2838 3513 2113 
z
" transform="scale(0.015625)"/>
       <path id="DejaVuSans-63" d="M 3122 3366 
L 3122 2828 
Q 2878 2963 2633 3030 
Q 2388 3097 2138 3097 
Q 1578 3097 1268 2742 
Q 959 2388 959 1747 
Q 959 1106 1268 751 
Q 1578 397 2138 397 
Q 2388 397 2633 464 
Q 2878 531 3122 666 
L 3122 134 
Q 2881 22 2623 -34 
Q 2366 -91 2075 -91 
Q 1284 -91 818 406 
Q 353 903 353 1747 
Q 353 2603 823 3093 
Q 1294 3584 2113 3584 
Q 2378 3584 2631 3529 
Q 2884 3475 3122 3366 
z
" transform="scale(0.015625)"/>
       <path id="DejaVuSans-69" d="M 603 3500 
L 1178 3500 
L 1178 0 
L 603 0 
L 603 3500 
z
M 603 4863 
L 1178 4863 
L 1178 4134 
L 603 4134 
L 603 4863 
z
" transform="scale(0.015625)"/>
      </defs>
      <use xlink:href="#DejaVuSans-74"/>
      <use xlink:href="#DejaVuSans-72" transform="translate(39.208984 0)"/>
      <use xlink:href="#DejaVuSans-75" transform="translate(80.322266 0)"/>
      <use xlink:href="#DejaVuSans-65" transform="translate(143.701172 0)"/>
      <use xlink:href="#DejaVuSans-20" transform="translate(205.224609 0)"/>
      <use xlink:href="#DejaVuSans-66" transform="translate(237.011719 0)"/>
      <use xlink:href="#DejaVuSans-75" transform="translate(272.216797 0)"/>
      <use xlink:href="#DejaVuSans-6e" transform="translate(335.595703 0)"/>
      <use xlink:href="#DejaVuSans-63" transform="translate(398.974609 0)"/>
      <use xlink:href="#DejaVuSans-74" transform="translate(453.955078 0)"/>
      <use xlink:href="#DejaVuSans-69" transform="translate(493.164062 0)"/>
      <use xlink:href="#DejaVuSans-6f" transform="translate(520.947266 0)"/>
      <use xlink:href="#DejaVuSans-6e" transform="translate(582.128906 0)"/>
     </g>
    </g>
    <g id="line2d_20">
     <path d="M 148.701562 167.62575 
L 156.701562 167.62575 
L 164.701562 167.62575 
" style="fill: none; stroke: #e15759; stroke-width: 2; stroke-linecap: square"/>
    </g>
    <g id="text_13">
     <!-- model -->
     <g transform="translate(171.101562 170.42575) scale(0.08 -0.08)">
      <defs>
       <path id="DejaVuSans-64" d="M 2906 2969 
L 2906 4863 
L 3481 4863 
L 3481 0 
L 2906 0 
L 2906 525 
Q 2725 213 2448 61 
Q 2172 -91 1784 -91 
Q 1150 -91 751 415 
Q 353 922 353 1747 
Q 353 2572 751 3078 
Q 1150 3584 1784 3584 
Q 2172 3584 2448 3432 
Q 2725 3281 2906 2969 
z
M 947 1747 
Q 947 1113 1208 752 
Q 1469 391 1925 391 
Q 2381 391 2643 752 
Q 2906 1113 2906 1747 
Q 2906 2381 2643 2742 
Q 2381 3103 1925 3103 
Q 1469 3103 1208 2742 
Q 947 2381 947 1747 
z
" transform="scale(0.015625)"/>
      </defs>
      <use xlink:href="#DejaVuSans-6d"/>
      <use xlink:href="#DejaVuSans-6f" transform="translate(97.412109 0)"/>
      <use xlink:href="#DejaVuSans-64" transform="translate(158.59375 0)"/>
      <use xlink:href="#DejaVuSans-65" transform="translate(222.070312 0)"/>
      <use xlink:href="#DejaVuSans-6c" transform="translate(283.59375 0)"/>
     </g>
    </g>
    <g id="PathCollection_2">
     <g>
      <use xlink:href="#m951685db9c" x="156.701562" y="180.06825" style="fill: #7aa6c2; stroke: #ffffff; stroke-width: 0.5"/>
     </g>
    </g>
    <g id="text_14">
     <!-- training data -->
     <g transform="translate(171.101562 182.16825) scale(0.08 -0.08)">
      <defs>
       <path id="DejaVuSans-67" d="M 2906 1791 
Q 2906 2416 2648 2759 
Q 2391 3103 1925 3103 
Q 1463 3103 1205 2759 
Q 947 2416 947 1791 
Q 947 1169 1205 825 
Q 1463 481 1925 481 
Q 2391 481 2648 825 
Q 2906 1169 2906 1791 
z
M 3481 434 
Q 3481 -459 3084 -895 
Q 2688 -1331 1869 -1331 
Q 1566 -1331 1297 -1286 
Q 1028 -1241 775 -1147 
L 775 -588 
Q 1028 -725 1275 -790 
Q 1522 -856 1778 -856 
Q 2344 -856 2625 -561 
Q 2906 -266 2906 331 
L 2906 616 
Q 2728 306 2450 153 
Q 2172 0 1784 0 
Q 1141 0 747 490 
Q 353 981 353 1791 
Q 353 2603 747 3093 
Q 1141 3584 1784 3584 
Q 2172 3584 2450 3431 
Q 2728 3278 2906 2969 
L 2906 3500 
L 3481 3500 
L 3481 434 
z
" transform="scale(0.015625)"/>
      </defs>
      <use xlink:href="#DejaVuSans-74"/>
      <use xlink:href="#DejaVuSans-72" transform="translate(39.208984 0)"/>
      <use xlink:href="#DejaVuSans-61" transform="translate(80.322266 0)"/>
      <use xlink:href="#DejaVuSans-69" transform="translate(141.601562 0)"/>
      <use xlink:href="#DejaVuSans-6e" transform="translate(169.384766 0)"/>
      <use xlink:href="#DejaVuSans-69" transform="translate(232.763672 0)"/>
      <use xlink:href="#DejaVuSans-6e" transform="translate(260.546875 0)"/>
      <use xlink:href="#DejaVuSans-67" transform="translate(323.925781 0)"/>
      <use xlink:href="#DejaVuSans-20" transform="translate(387.402344 0)"/>
      <use xlink:href="#DejaVuSans-64" transform="translate(419.189453 0)"/>
      <use xlink:href="#DejaVuSans-61" transform="translate(482.666016 0)"/>
      <use xlink:href="#DejaVuSans-74" transform="translate(543.945312 0)"/>
      <use xlink:href="#DejaVuSans-61" transform="translate(583.154297 0)"/>
     </g>
    </g>
   </g>
  </g>
  <g id="axes_2">
   <g id="patch_8">
    <path d="M 244.240313 191.032 
L 431.560312 191.032 
L 431.560312 48.192 
L 244.240313 48.192 
z
" style="fill: #ffffff"/>
   </g>
   <g id="matplotlib.axis_3">
    <g id="xtick_4">
     <g id="line2d_21">
      <path d="M 279.362813 191.032 
L 279.362813 48.192 
" clip-path="url(#pff3b13311d)" style="fill: none; stroke: #b0b0b0; stroke-opacity: 0.25; stroke-width: 0.8; stroke-linecap: square"/>
     </g>
     <g id="line2d_22">
      <g>
       <use xlink:href="#mc91300f350" x="279.362813" y="191.032" style="stroke: #000000; stroke-width: 0.8"/>
      </g>
     </g>
     <g id="text_15">
      <!-- −2 -->
      <g transform="translate(271.991719 205.630437) scale(0.1 -0.1)">
       <use xlink:href="#DejaVuSans-2212"/>
       <use xlink:href="#DejaVuSans-32" transform="translate(83.789062 0)"/>
      </g>
     </g>
    </g>
    <g id="xtick_5">
     <g id="line2d_23">
      <path d="M 337.900312 191.032 
L 337.900312 48.192 
" clip-path="url(#pff3b13311d)" style="fill: none; stroke: #b0b0b0; stroke-opacity: 0.25; stroke-width: 0.8; stroke-linecap: square"/>
     </g>
     <g id="line2d_24">
      <g>
       <use xlink:href="#mc91300f350" x="337.900312" y="191.032" style="stroke: #000000; stroke-width: 0.8"/>
      </g>
     </g>
     <g id="text_16">
      <!-- 0 -->
      <g transform="translate(334.719063 205.630437) scale(0.1 -0.1)">
       <use xlink:href="#DejaVuSans-30"/>
      </g>
     </g>
    </g>
    <g id="xtick_6">
     <g id="line2d_25">
      <path d="M 396.437812 191.032 
L 396.437812 48.192 
" clip-path="url(#pff3b13311d)" style="fill: none; stroke: #b0b0b0; stroke-opacity: 0.25; stroke-width: 0.8; stroke-linecap: square"/>
     </g>
     <g id="line2d_26">
      <g>
       <use xlink:href="#mc91300f350" x="396.437812" y="191.032" style="stroke: #000000; stroke-width: 0.8"/>
      </g>
     </g>
     <g id="text_17">
      <!-- 2 -->
      <g transform="translate(393.256562 205.630437) scale(0.1 -0.1)">
       <use xlink:href="#DejaVuSans-32"/>
      </g>
     </g>
    </g>
    <g id="text_18">
     <!-- x -->
     <g transform="translate(334.940937 219.308562) scale(0.1 -0.1)">
      <use xlink:href="#DejaVuSans-78"/>
     </g>
    </g>
   </g>
   <g id="matplotlib.axis_4">
    <g id="ytick_6">
     <g id="line2d_27">
      <path d="M 244.240313 177.556528 
L 431.560312 177.556528 
" clip-path="url(#pff3b13311d)" style="fill: none; stroke: #b0b0b0; stroke-opacity: 0.25; stroke-width: 0.8; stroke-linecap: square"/>
     </g>
     <g id="line2d_28">
      <g>
       <use xlink:href="#me7684f2ad9" x="244.240313" y="177.556528" style="stroke: #000000; stroke-width: 0.8"/>
      </g>
     </g>
    </g>
    <g id="ytick_7">
     <g id="line2d_29">
      <path d="M 244.240313 150.605585 
L 431.560312 150.605585 
" clip-path="url(#pff3b13311d)" style="fill: none; stroke: #b0b0b0; stroke-opacity: 0.25; stroke-width: 0.8; stroke-linecap: square"/>
     </g>
     <g id="line2d_30">
      <g>
       <use xlink:href="#me7684f2ad9" x="244.240313" y="150.605585" style="stroke: #000000; stroke-width: 0.8"/>
      </g>
     </g>
    </g>
    <g id="ytick_8">
     <g id="line2d_31">
      <path d="M 244.240313 123.654642 
L 431.560312 123.654642 
" clip-path="url(#pff3b13311d)" style="fill: none; stroke: #b0b0b0; stroke-opacity: 0.25; stroke-width: 0.8; stroke-linecap: square"/>
     </g>
     <g id="line2d_32">
      <g>
       <use xlink:href="#me7684f2ad9" x="244.240313" y="123.654642" style="stroke: #000000; stroke-width: 0.8"/>
      </g>
     </g>
    </g>
    <g id="ytick_9">
     <g id="line2d_33">
      <path d="M 244.240313 96.703698 
L 431.560312 96.703698 
" clip-path="url(#pff3b13311d)" style="fill: none; stroke: #b0b0b0; stroke-opacity: 0.25; stroke-width: 0.8; stroke-linecap: square"/>
     </g>
     <g id="line2d_34">
      <g>
       <use xlink:href="#me7684f2ad9" x="244.240313" y="96.703698" style="stroke: #000000; stroke-width: 0.8"/>
      </g>
     </g>
    </g>
    <g id="ytick_10">
     <g id="line2d_35">
      <path d="M 244.240313 69.752755 
L 431.560312 69.752755 
" clip-path="url(#pff3b13311d)" style="fill: none; stroke: #b0b0b0; stroke-opacity: 0.25; stroke-width: 0.8; stroke-linecap: square"/>
     </g>
     <g id="line2d_36">
      <g>
       <use xlink:href="#me7684f2ad9" x="244.240313" y="69.752755" style="stroke: #000000; stroke-width: 0.8"/>
      </g>
     </g>
    </g>
   </g>
   <g id="line2d_37">
    <path d="M 244.240313 147.954309 
L 255.038207 154.77954 
L 259.732944 157.475535 
L 263.958207 159.63629 
L 267.713997 161.28729 
L 271.000313 162.487213 
L 274.286628 163.43083 
L 277.10347 164.017878 
L 279.920313 164.386797 
L 282.737155 164.52697 
L 285.553997 164.429898 
L 288.370839 164.089279 
L 291.187681 163.501063 
L 294.004523 162.663492 
L 296.821365 161.577116 
L 299.638207 160.244789 
L 302.455049 158.671639 
L 305.271891 156.865025 
L 308.558207 154.475049 
L 311.844523 151.79901 
L 315.600312 148.419116 
L 319.356102 144.7333 
L 323.581365 140.275481 
L 328.745576 134.476561 
L 335.787681 126.181883 
L 347.993997 111.75511 
L 353.158207 106.017899 
L 357.38347 101.628151 
L 361.13926 98.014918 
L 364.895049 94.717734 
L 368.181365 92.121307 
L 371.467681 89.816657 
L 374.284523 88.086911 
L 377.101365 86.593327 
L 379.918207 85.342525 
L 382.735049 84.338881 
L 385.551891 83.584481 
L 388.368734 83.079106 
L 391.185576 82.820232 
L 394.002418 82.803052 
L 396.81926 83.020524 
L 399.636102 83.463434 
L 402.452944 84.120481 
L 405.73926 85.139855 
L 409.025576 86.408266 
L 412.781365 88.127535 
L 416.537155 90.090857 
L 421.231891 92.812718 
L 427.335049 96.635257 
L 431.560312 99.354974 
L 431.560312 99.354974 
" clip-path="url(#pff3b13311d)" style="fill: none; stroke-dasharray: 5.55,2.4; stroke-dashoffset: 0; stroke: #59a14f; stroke-width: 1.5"/>
   </g>
   <g id="line2d_38">
    <path d="M 244.240313 188.493859 
L 245.648734 180.931481 
L 247.057155 174.983387 
L 247.996102 171.793035 
L 248.935049 169.145331 
L 249.873997 166.979683 
L 250.812944 165.240323 
L 251.751891 163.876055 
L 252.690839 162.840003 
L 253.629786 162.089357 
L 254.568734 161.585129 
L 255.507681 161.291905 
L 256.446628 161.177612 
L 257.855049 161.279111 
L 259.26347 161.632942 
L 261.141365 162.373229 
L 263.958207 163.784941 
L 268.652944 166.153908 
L 271.000313 167.097849 
L 273.347681 167.791978 
L 275.225576 168.145025 
L 277.10347 168.309774 
L 278.981365 168.284869 
L 280.85926 168.073485 
L 283.206628 167.557133 
L 285.553997 166.777286 
L 287.901365 165.754932 
L 290.248734 164.512784 
L 293.065576 162.764748 
L 296.351891 160.420004 
L 299.638207 157.80247 
L 303.86347 154.12234 
L 309.027681 149.278214 
L 316.069786 142.315047 
L 332.970839 125.470021 
L 339.073997 119.743646 
L 344.707681 114.764131 
L 349.402418 110.888184 
L 354.097155 107.298891 
L 358.322418 104.341098 
L 362.547681 101.664527 
L 366.30347 99.536838 
L 370.05926 97.656249 
L 373.815049 96.027563 
L 377.570839 94.648018 
L 381.326628 93.504039 
L 385.551891 92.462843 
L 390.716102 91.444003 
L 401.044523 89.479145 
L 406.208734 88.194738 
L 409.964523 87.300613 
L 411.842418 87.033028 
L 413.250839 87.006399 
L 414.65926 87.212763 
L 415.598207 87.528551 
L 416.537155 88.029237 
L 417.476102 88.758554 
L 418.415049 89.767915 
L 419.353997 91.117512 
L 420.292944 92.877539 
L 421.231891 95.129562 
L 422.170839 97.968058 
L 423.109786 101.502125 
L 424.048734 105.85739 
L 424.987681 111.178142 
L 425.926628 117.629688 
L 426.865576 125.400986 
L 427.804523 134.707552 
L 428.74347 145.794689 
L 429.682418 158.941056 
L 430.621365 174.462613 
L 431.560312 192.716981 
L 431.560312 192.716981 
" clip-path="url(#pff3b13311d)" style="fill: none; stroke: #e15759; stroke-width: 2; stroke-linecap: square"/>
   </g>
   <g id="patch_9">
    <path d="M 244.240313 191.032 
L 244.240313 48.192 
" style="fill: none; stroke: #000000; stroke-width: 0.8; stroke-linejoin: miter; stroke-linecap: square"/>
   </g>
   <g id="patch_10">
    <path d="M 431.560312 191.032 
L 431.560312 48.192 
" style="fill: none; stroke: #000000; stroke-width: 0.8; stroke-linejoin: miter; stroke-linecap: square"/>
   </g>
   <g id="patch_11">
    <path d="M 244.240313 191.032 
L 431.560312 191.032 
" style="fill: none; stroke: #000000; stroke-width: 0.8; stroke-linejoin: miter; stroke-linecap: square"/>
   </g>
   <g id="patch_12">
    <path d="M 244.240313 48.192 
L 431.560312 48.192 
" style="fill: none; stroke: #000000; stroke-width: 0.8; stroke-linejoin: miter; stroke-linecap: square"/>
   </g>
   <g id="PathCollection_3">
    <g clip-path="url(#pff3b13311d)">
     <use xlink:href="#m951685db9c" x="255.132211" y="161.417804" style="fill: #7aa6c2; stroke: #ffffff; stroke-width: 0.5"/>
     <use xlink:href="#m951685db9c" x="262.460796" y="162.684764" style="fill: #7aa6c2; stroke: #ffffff; stroke-width: 0.5"/>
     <use xlink:href="#m951685db9c" x="272.672597" y="172.648338" style="fill: #7aa6c2; stroke: #ffffff; stroke-width: 0.5"/>
     <use xlink:href="#m951685db9c" x="272.88399" y="175.128001" style="fill: #7aa6c2; stroke: #ffffff; stroke-width: 0.5"/>
     <use xlink:href="#m951685db9c" x="274.322981" y="163.143517" style="fill: #7aa6c2; stroke: #ffffff; stroke-width: 0.5"/>
     <use xlink:href="#m951685db9c" x="276.071732" y="156.573034" style="fill: #7aa6c2; stroke: #ffffff; stroke-width: 0.5"/>
     <use xlink:href="#m951685db9c" x="286.00848" y="166.276491" style="fill: #7aa6c2; stroke: #ffffff; stroke-width: 0.5"/>
     <use xlink:href="#m951685db9c" x="298.441732" y="166.85266" style="fill: #7aa6c2; stroke: #ffffff; stroke-width: 0.5"/>
     <use xlink:href="#m951685db9c" x="312.133543" y="148.437907" style="fill: #7aa6c2; stroke: #ffffff; stroke-width: 0.5"/>
     <use xlink:href="#m951685db9c" x="314.893867" y="143.2804" style="fill: #7aa6c2; stroke: #ffffff; stroke-width: 0.5"/>
     <use xlink:href="#m951685db9c" x="335.024605" y="129.518427" style="fill: #7aa6c2; stroke: #ffffff; stroke-width: 0.5"/>
     <use xlink:href="#m951685db9c" x="337.773496" y="119.402654" style="fill: #7aa6c2; stroke: #ffffff; stroke-width: 0.5"/>
     <use xlink:href="#m951685db9c" x="339.900543" y="112.829751" style="fill: #7aa6c2; stroke: #ffffff; stroke-width: 0.5"/>
     <use xlink:href="#m951685db9c" x="340.074802" y="122.726807" style="fill: #7aa6c2; stroke: #ffffff; stroke-width: 0.5"/>
     <use xlink:href="#m951685db9c" x="346.518543" y="120.029849" style="fill: #7aa6c2; stroke: #ffffff; stroke-width: 0.5"/>
     <use xlink:href="#m951685db9c" x="347.336036" y="109.698453" style="fill: #7aa6c2; stroke: #ffffff; stroke-width: 0.5"/>
     <use xlink:href="#m951685db9c" x="355.724693" y="101.312304" style="fill: #7aa6c2; stroke: #ffffff; stroke-width: 0.5"/>
     <use xlink:href="#m951685db9c" x="359.304595" y="90.858759" style="fill: #7aa6c2; stroke: #ffffff; stroke-width: 0.5"/>
     <use xlink:href="#m951685db9c" x="366.49757" y="103.802632" style="fill: #7aa6c2; stroke: #ffffff; stroke-width: 0.5"/>
     <use xlink:href="#m951685db9c" x="367.817761" y="97.74391" style="fill: #7aa6c2; stroke: #ffffff; stroke-width: 0.5"/>
     <use xlink:href="#m951685db9c" x="388.483666" y="89.840562" style="fill: #7aa6c2; stroke: #ffffff; stroke-width: 0.5"/>
     <use xlink:href="#m951685db9c" x="393.52319" y="96.809189" style="fill: #7aa6c2; stroke: #ffffff; stroke-width: 0.5"/>
     <use xlink:href="#m951685db9c" x="413.099521" y="87.262796" style="fill: #7aa6c2; stroke: #ffffff; stroke-width: 0.5"/>
     <use xlink:href="#m951685db9c" x="416.632393" y="85.875944" style="fill: #7aa6c2; stroke: #ffffff; stroke-width: 0.5"/>
     <use xlink:href="#m951685db9c" x="422.354759" y="99.470814" style="fill: #7aa6c2; stroke: #ffffff; stroke-width: 0.5"/>
    </g>
   </g>
   <g id="text_19">
    <!-- alpha = 0.1 (good choice) -->
    <g transform="translate(272.981562 42.192) scale(0.1 -0.1)">
     <use xlink:href="#DejaVuSans-61"/>
     <use xlink:href="#DejaVuSans-6c" transform="translate(61.279297 0)"/>
     <use xlink:href="#DejaVuSans-70" transform="translate(89.0625 0)"/>
     <use xlink:href="#DejaVuSans-68" transform="translate(152.539062 0)"/>
     <use xlink:href="#DejaVuSans-61" transform="translate(215.917969 0)"/>
     <use xlink:href="#DejaVuSans-20" transform="translate(277.197266 0)"/>
     <use xlink:href="#DejaVuSans-3d" transform="translate(308.984375 0)"/>
     <use xlink:href="#DejaVuSans-20" transform="translate(392.773438 0)"/>
     <use xlink:href="#DejaVuSans-30" transform="translate(424.560547 0)"/>
     <use xlink:href="#DejaVuSans-2e" transform="translate(488.183594 0)"/>
     <use xlink:href="#DejaVuSans-31" transform="translate(519.970703 0)"/>
     <use xlink:href="#DejaVuSans-20" transform="translate(583.59375 0)"/>
     <use xlink:href="#DejaVuSans-28" transform="translate(615.380859 0)"/>
     <use xlink:href="#DejaVuSans-67" transform="translate(654.394531 0)"/>
     <use xlink:href="#DejaVuSans-6f" transform="translate(717.871094 0)"/>
     <use xlink:href="#DejaVuSans-6f" transform="translate(779.052734 0)"/>
     <use xlink:href="#DejaVuSans-64" transform="translate(840.234375 0)"/>
     <use xlink:href="#DejaVuSans-20" transform="translate(903.710938 0)"/>
     <use xlink:href="#DejaVuSans-63" transform="translate(935.498047 0)"/>
     <use xlink:href="#DejaVuSans-68" transform="translate(990.478516 0)"/>
     <use xlink:href="#DejaVuSans-6f" transform="translate(1053.857422 0)"/>
     <use xlink:href="#DejaVuSans-69" transform="translate(1115.039062 0)"/>
     <use xlink:href="#DejaVuSans-63" transform="translate(1142.822266 0)"/>
     <use xlink:href="#DejaVuSans-65" transform="translate(1197.802734 0)"/>
     <use xlink:href="#DejaVuSans-29" transform="translate(1259.326172 0)"/>
    </g>
   </g>
  </g>
  <g id="axes_3">
   <g id="patch_13">
    <path d="M 445.860313 191.032 
L 633.180313 191.032 
L 633.180313 48.192 
L 445.860313 48.192 
z
" style="fill: #ffffff"/>
   </g>
   <g id="matplotlib.axis_5">
    <g id="xtick_7">
     <g id="line2d_39">
      <path d="M 480.982813 191.032 
L 480.982813 48.192 
" clip-path="url(#p3a7572935e)" style="fill: none; stroke: #b0b0b0; stroke-opacity: 0.25; stroke-width: 0.8; stroke-linecap: square"/>
     </g>
     <g id="line2d_40">
      <g>
       <use xlink:href="#mc91300f350" x="480.982813" y="191.032" style="stroke: #000000; stroke-width: 0.8"/>
      </g>
     </g>
     <g id="text_20">
      <!-- −2 -->
      <g transform="translate(473.611719 205.630437) scale(0.1 -0.1)">
       <use xlink:href="#DejaVuSans-2212"/>
       <use xlink:href="#DejaVuSans-32" transform="translate(83.789062 0)"/>
      </g>
     </g>
    </g>
    <g id="xtick_8">
     <g id="line2d_41">
      <path d="M 539.520313 191.032 
L 539.520313 48.192 
" clip-path="url(#p3a7572935e)" style="fill: none; stroke: #b0b0b0; stroke-opacity: 0.25; stroke-width: 0.8; stroke-linecap: square"/>
     </g>
     <g id="line2d_42">
      <g>
       <use xlink:href="#mc91300f350" x="539.520313" y="191.032" style="stroke: #000000; stroke-width: 0.8"/>
      </g>
     </g>
     <g id="text_21">
      <!-- 0 -->
      <g transform="translate(536.339063 205.630437) scale(0.1 -0.1)">
       <use xlink:href="#DejaVuSans-30"/>
      </g>
     </g>
    </g>
    <g id="xtick_9">
     <g id="line2d_43">
      <path d="M 598.057813 191.032 
L 598.057813 48.192 
" clip-path="url(#p3a7572935e)" style="fill: none; stroke: #b0b0b0; stroke-opacity: 0.25; stroke-width: 0.8; stroke-linecap: square"/>
     </g>
     <g id="line2d_44">
      <g>
       <use xlink:href="#mc91300f350" x="598.057813" y="191.032" style="stroke: #000000; stroke-width: 0.8"/>
      </g>
     </g>
     <g id="text_22">
      <!-- 2 -->
      <g transform="translate(594.876563 205.630437) scale(0.1 -0.1)">
       <use xlink:href="#DejaVuSans-32"/>
      </g>
     </g>
    </g>
    <g id="text_23">
     <!-- x -->
     <g transform="translate(536.560938 219.308562) scale(0.1 -0.1)">
      <use xlink:href="#DejaVuSans-78"/>
     </g>
    </g>
   </g>
   <g id="matplotlib.axis_6">
    <g id="ytick_11">
     <g id="line2d_45">
      <path d="M 445.860313 177.556528 
L 633.180313 177.556528 
" clip-path="url(#p3a7572935e)" style="fill: none; stroke: #b0b0b0; stroke-opacity: 0.25; stroke-width: 0.8; stroke-linecap: square"/>
     </g>
     <g id="line2d_46">
      <g>
       <use xlink:href="#me7684f2ad9" x="445.860313" y="177.556528" style="stroke: #000000; stroke-width: 0.8"/>
      </g>
     </g>
    </g>
    <g id="ytick_12">
     <g id="line2d_47">
      <path d="M 445.860313 150.605585 
L 633.180313 150.605585 
" clip-path="url(#p3a7572935e)" style="fill: none; stroke: #b0b0b0; stroke-opacity: 0.25; stroke-width: 0.8; stroke-linecap: square"/>
     </g>
     <g id="line2d_48">
      <g>
       <use xlink:href="#me7684f2ad9" x="445.860313" y="150.605585" style="stroke: #000000; stroke-width: 0.8"/>
      </g>
     </g>
    </g>
    <g id="ytick_13">
     <g id="line2d_49">
      <path d="M 445.860313 123.654642 
L 633.180313 123.654642 
" clip-path="url(#p3a7572935e)" style="fill: none; stroke: #b0b0b0; stroke-opacity: 0.25; stroke-width: 0.8; stroke-linecap: square"/>
     </g>
     <g id="line2d_50">
      <g>
       <use xlink:href="#me7684f2ad9" x="445.860313" y="123.654642" style="stroke: #000000; stroke-width: 0.8"/>
      </g>
     </g>
    </g>
    <g id="ytick_14">
     <g id="line2d_51">
      <path d="M 445.860313 96.703698 
L 633.180313 96.703698 
" clip-path="url(#p3a7572935e)" style="fill: none; stroke: #b0b0b0; stroke-opacity: 0.25; stroke-width: 0.8; stroke-linecap: square"/>
     </g>
     <g id="line2d_52">
      <g>
       <use xlink:href="#me7684f2ad9" x="445.860313" y="96.703698" style="stroke: #000000; stroke-width: 0.8"/>
      </g>
     </g>
    </g>
    <g id="ytick_15">
     <g id="line2d_53">
      <path d="M 445.860313 69.752755 
L 633.180313 69.752755 
" clip-path="url(#p3a7572935e)" style="fill: none; stroke: #b0b0b0; stroke-opacity: 0.25; stroke-width: 0.8; stroke-linecap: square"/>
     </g>
     <g id="line2d_54">
      <g>
       <use xlink:href="#me7684f2ad9" x="445.860313" y="69.752755" style="stroke: #000000; stroke-width: 0.8"/>
      </g>
     </g>
    </g>
   </g>
   <g id="line2d_55">
    <path d="M 445.860313 147.954309 
L 456.658207 154.77954 
L 461.352944 157.475535 
L 465.578207 159.63629 
L 469.333997 161.28729 
L 472.620313 162.487213 
L 475.906628 163.43083 
L 478.72347 164.017878 
L 481.540313 164.386797 
L 484.357155 164.52697 
L 487.173997 164.429898 
L 489.990839 164.089279 
L 492.807681 163.501063 
L 495.624523 162.663492 
L 498.441365 161.577116 
L 501.258207 160.244789 
L 504.075049 158.671639 
L 506.891891 156.865025 
L 510.178207 154.475049 
L 513.464523 151.79901 
L 517.220313 148.419116 
L 520.976102 144.7333 
L 525.201365 140.275481 
L 530.365576 134.476561 
L 537.407681 126.181883 
L 549.613997 111.75511 
L 554.778207 106.017899 
L 559.00347 101.628151 
L 562.75926 98.014918 
L 566.515049 94.717734 
L 569.801365 92.121307 
L 573.087681 89.816657 
L 575.904523 88.086911 
L 578.721365 86.593327 
L 581.538207 85.342525 
L 584.355049 84.338881 
L 587.171891 83.584481 
L 589.988734 83.079106 
L 592.805576 82.820232 
L 595.622418 82.803052 
L 598.43926 83.020524 
L 601.256102 83.463434 
L 604.072944 84.120481 
L 607.35926 85.139855 
L 610.645576 86.408266 
L 614.401365 88.127535 
L 618.157155 90.090857 
L 622.851891 92.812718 
L 628.955049 96.635257 
L 633.180313 99.354974 
L 633.180313 99.354974 
" clip-path="url(#p3a7572935e)" style="fill: none; stroke-dasharray: 5.55,2.4; stroke-dashoffset: 0; stroke: #59a14f; stroke-width: 1.5"/>
   </g>
   <g id="line2d_56">
    <path d="M 445.860313 148.178021 
L 447.268734 145.476381 
L 448.677155 143.166323 
L 450.085576 141.189479 
L 451.96347 138.987003 
L 453.841365 137.190977 
L 455.71926 135.722174 
L 457.597155 134.516803 
L 459.944523 133.303419 
L 462.291891 132.343808 
L 465.108734 131.44453 
L 468.395049 130.649673 
L 472.150839 129.97592 
L 476.845576 129.367812 
L 482.948734 128.819601 
L 490.929786 128.340714 
L 502.197155 127.906727 
L 518.628734 127.516549 
L 546.797155 127.103022 
L 582.007681 126.551223 
L 593.744523 126.153951 
L 601.256102 125.684386 
L 606.420313 125.146668 
L 610.176102 124.557892 
L 613.462418 123.826241 
L 616.27926 122.963346 
L 618.626628 122.012782 
L 620.504523 121.052468 
L 622.382418 119.866021 
L 624.260313 118.396829 
L 626.138207 116.574335 
L 627.546628 114.923576 
L 628.955049 112.98054 
L 630.36347 110.69283 
L 631.771891 107.999001 
L 633.180313 104.827081 
L 633.180313 104.827081 
" clip-path="url(#p3a7572935e)" style="fill: none; stroke: #e15759; stroke-width: 2; stroke-linecap: square"/>
   </g>
   <g id="patch_14">
    <path d="M 445.860313 191.032 
L 445.860313 48.192 
" style="fill: none; stroke: #000000; stroke-width: 0.8; stroke-linejoin: miter; stroke-linecap: square"/>
   </g>
   <g id="patch_15">
    <path d="M 633.180313 191.032 
L 633.180313 48.192 
" style="fill: none; stroke: #000000; stroke-width: 0.8; stroke-linejoin: miter; stroke-linecap: square"/>
   </g>
   <g id="patch_16">
    <path d="M 445.860313 191.032 
L 633.180313 191.032 
" style="fill: none; stroke: #000000; stroke-width: 0.8; stroke-linejoin: miter; stroke-linecap: square"/>
   </g>
   <g id="patch_17">
    <path d="M 445.860313 48.192 
L 633.180313 48.192 
" style="fill: none; stroke: #000000; stroke-width: 0.8; stroke-linejoin: miter; stroke-linecap: square"/>
   </g>
   <g id="PathCollection_4">
    <g clip-path="url(#p3a7572935e)">
     <use xlink:href="#m951685db9c" x="456.752211" y="161.417804" style="fill: #7aa6c2; stroke: #ffffff; stroke-width: 0.5"/>
     <use xlink:href="#m951685db9c" x="464.080796" y="162.684764" style="fill: #7aa6c2; stroke: #ffffff; stroke-width: 0.5"/>
     <use xlink:href="#m951685db9c" x="474.292597" y="172.648338" style="fill: #7aa6c2; stroke: #ffffff; stroke-width: 0.5"/>
     <use xlink:href="#m951685db9c" x="474.50399" y="175.128001" style="fill: #7aa6c2; stroke: #ffffff; stroke-width: 0.5"/>
     <use xlink:href="#m951685db9c" x="475.942981" y="163.143517" style="fill: #7aa6c2; stroke: #ffffff; stroke-width: 0.5"/>
     <use xlink:href="#m951685db9c" x="477.691732" y="156.573034" style="fill: #7aa6c2; stroke: #ffffff; stroke-width: 0.5"/>
     <use xlink:href="#m951685db9c" x="487.62848" y="166.276491" style="fill: #7aa6c2; stroke: #ffffff; stroke-width: 0.5"/>
     <use xlink:href="#m951685db9c" x="500.061732" y="166.85266" style="fill: #7aa6c2; stroke: #ffffff; stroke-width: 0.5"/>
     <use xlink:href="#m951685db9c" x="513.753543" y="148.437907" style="fill: #7aa6c2; stroke: #ffffff; stroke-width: 0.5"/>
     <use xlink:href="#m951685db9c" x="516.513867" y="143.2804" style="fill: #7aa6c2; stroke: #ffffff; stroke-width: 0.5"/>
     <use xlink:href="#m951685db9c" x="536.644605" y="129.518427" style="fill: #7aa6c2; stroke: #ffffff; stroke-width: 0.5"/>
     <use xlink:href="#m951685db9c" x="539.393496" y="119.402654" style="fill: #7aa6c2; stroke: #ffffff; stroke-width: 0.5"/>
     <use xlink:href="#m951685db9c" x="541.520543" y="112.829751" style="fill: #7aa6c2; stroke: #ffffff; stroke-width: 0.5"/>
     <use xlink:href="#m951685db9c" x="541.694802" y="122.726807" style="fill: #7aa6c2; stroke: #ffffff; stroke-width: 0.5"/>
     <use xlink:href="#m951685db9c" x="548.138543" y="120.029849" style="fill: #7aa6c2; stroke: #ffffff; stroke-width: 0.5"/>
     <use xlink:href="#m951685db9c" x="548.956036" y="109.698453" style="fill: #7aa6c2; stroke: #ffffff; stroke-width: 0.5"/>
     <use xlink:href="#m951685db9c" x="557.344693" y="101.312304" style="fill: #7aa6c2; stroke: #ffffff; stroke-width: 0.5"/>
     <use xlink:href="#m951685db9c" x="560.924595" y="90.858759" style="fill: #7aa6c2; stroke: #ffffff; stroke-width: 0.5"/>
     <use xlink:href="#m951685db9c" x="568.11757" y="103.802632" style="fill: #7aa6c2; stroke: #ffffff; stroke-width: 0.5"/>
     <use xlink:href="#m951685db9c" x="569.437761" y="97.74391" style="fill: #7aa6c2; stroke: #ffffff; stroke-width: 0.5"/>
     <use xlink:href="#m951685db9c" x="590.103666" y="89.840562" style="fill: #7aa6c2; stroke: #ffffff; stroke-width: 0.5"/>
     <use xlink:href="#m951685db9c" x="595.14319" y="96.809189" style="fill: #7aa6c2; stroke: #ffffff; stroke-width: 0.5"/>
     <use xlink:href="#m951685db9c" x="614.719521" y="87.262796" style="fill: #7aa6c2; stroke: #ffffff; stroke-width: 0.5"/>
     <use xlink:href="#m951685db9c" x="618.252393" y="85.875944" style="fill: #7aa6c2; stroke: #ffffff; stroke-width: 0.5"/>
     <use xlink:href="#m951685db9c" x="623.974759" y="99.470814" style="fill: #7aa6c2; stroke: #ffffff; stroke-width: 0.5"/>
    </g>
   </g>
   <g id="text_24">
    <!-- alpha = 1000 (too large) -->
    <g transform="translate(477.736719 42.192) scale(0.1 -0.1)">
     <use xlink:href="#DejaVuSans-61"/>
     <use xlink:href="#DejaVuSans-6c" transform="translate(61.279297 0)"/>
     <use xlink:href="#DejaVuSans-70" transform="translate(89.0625 0)"/>
     <use xlink:href="#DejaVuSans-68" transform="translate(152.539062 0)"/>
     <use xlink:href="#DejaVuSans-61" transform="translate(215.917969 0)"/>
     <use xlink:href="#DejaVuSans-20" transform="translate(277.197266 0)"/>
     <use xlink:href="#DejaVuSans-3d" transform="translate(308.984375 0)"/>
     <use xlink:href="#DejaVuSans-20" transform="translate(392.773438 0)"/>
     <use xlink:href="#DejaVuSans-31" transform="translate(424.560547 0)"/>
     <use xlink:href="#DejaVuSans-30" transform="translate(488.183594 0)"/>
     <use xlink:href="#DejaVuSans-30" transform="translate(551.806641 0)"/>
     <use xlink:href="#DejaVuSans-30" transform="translate(615.429688 0)"/>
     <use xlink:href="#DejaVuSans-20" transform="translate(679.052734 0)"/>
     <use xlink:href="#DejaVuSans-28" transform="translate(710.839844 0)"/>
     <use xlink:href="#DejaVuSans-74" transform="translate(749.853516 0)"/>
     <use xlink:href="#DejaVuSans-6f" transform="translate(789.0625 0)"/>
     <use xlink:href="#DejaVuSans-6f" transform="translate(850.244141 0)"/>
     <use xlink:href="#DejaVuSans-20" transform="translate(911.425781 0)"/>
     <use xlink:href="#DejaVuSans-6c" transform="translate(943.212891 0)"/>
     <use xlink:href="#DejaVuSans-61" transform="translate(970.996094 0)"/>
     <use xlink:href="#DejaVuSans-72" transform="translate(1032.275391 0)"/>
     <use xlink:href="#DejaVuSans-67" transform="translate(1071.638672 0)"/>
     <use xlink:href="#DejaVuSans-65" transform="translate(1135.115234 0)"/>
     <use xlink:href="#DejaVuSans-29" transform="translate(1196.638672 0)"/>
    </g>
   </g>
  </g>
  <g id="text_25">
   <!-- same data + same algorithm (Ridge), only alpha differs -->
   <g transform="translate(180.417812 14.798437) scale(0.1 -0.1)">
    <defs>
     <path id="DejaVuSans-2b" d="M 2944 4013 
L 2944 2272 
L 4684 2272 
L 4684 1741 
L 2944 1741 
L 2944 0 
L 2419 0 
L 2419 1741 
L 678 1741 
L 678 2272 
L 2419 2272 
L 2419 4013 
L 2944 4013 
z
" transform="scale(0.015625)"/>
     <path id="DejaVuSans-52" d="M 2841 2188 
Q 3044 2119 3236 1894 
Q 3428 1669 3622 1275 
L 4263 0 
L 3584 0 
L 2988 1197 
Q 2756 1666 2539 1819 
Q 2322 1972 1947 1972 
L 1259 1972 
L 1259 0 
L 628 0 
L 628 4666 
L 2053 4666 
Q 2853 4666 3247 4331 
Q 3641 3997 3641 3322 
Q 3641 2881 3436 2590 
Q 3231 2300 2841 2188 
z
M 1259 4147 
L 1259 2491 
L 2053 2491 
Q 2509 2491 2742 2702 
Q 2975 2913 2975 3322 
Q 2975 3731 2742 3939 
Q 2509 4147 2053 4147 
L 1259 4147 
z
" transform="scale(0.015625)"/>
     <path id="DejaVuSans-2c" d="M 750 794 
L 1409 794 
L 1409 256 
L 897 -744 
L 494 -744 
L 750 256 
L 750 794 
z
" transform="scale(0.015625)"/>
    </defs>
    <use xlink:href="#DejaVuSans-73"/>
    <use xlink:href="#DejaVuSans-61" transform="translate(52.099609 0)"/>
    <use xlink:href="#DejaVuSans-6d" transform="translate(113.378906 0)"/>
    <use xlink:href="#DejaVuSans-65" transform="translate(210.791016 0)"/>
    <use xlink:href="#DejaVuSans-20" transform="translate(272.314453 0)"/>
    <use xlink:href="#DejaVuSans-64" transform="translate(304.101562 0)"/>
    <use xlink:href="#DejaVuSans-61" transform="translate(367.578125 0)"/>
    <use xlink:href="#DejaVuSans-74" transform="translate(428.857422 0)"/>
    <use xlink:href="#DejaVuSans-61" transform="translate(468.066406 0)"/>
    <use xlink:href="#DejaVuSans-20" transform="translate(529.345703 0)"/>
    <use xlink:href="#DejaVuSans-2b" transform="translate(561.132812 0)"/>
    <use xlink:href="#DejaVuSans-20" transform="translate(644.921875 0)"/>
    <use xlink:href="#DejaVuSans-73" transform="translate(676.708984 0)"/>
    <use xlink:href="#DejaVuSans-61" transform="translate(728.808594 0)"/>
    <use xlink:href="#DejaVuSans-6d" transform="translate(790.087891 0)"/>
    <use xlink:href="#DejaVuSans-65" transform="translate(887.5 0)"/>
    <use xlink:href="#DejaVuSans-20" transform="translate(949.023438 0)"/>
    <use xlink:href="#DejaVuSans-61" transform="translate(980.810547 0)"/>
    <use xlink:href="#DejaVuSans-6c" transform="translate(1042.089844 0)"/>
    <use xlink:href="#DejaVuSans-67" transform="translate(1069.873047 0)"/>
    <use xlink:href="#DejaVuSans-6f" transform="translate(1133.349609 0)"/>
    <use xlink:href="#DejaVuSans-72" transform="translate(1194.53125 0)"/>
    <use xlink:href="#DejaVuSans-69" transform="translate(1235.644531 0)"/>
    <use xlink:href="#DejaVuSans-74" transform="translate(1263.427734 0)"/>
    <use xlink:href="#DejaVuSans-68" transform="translate(1302.636719 0)"/>
    <use xlink:href="#DejaVuSans-6d" transform="translate(1366.015625 0)"/>
    <use xlink:href="#DejaVuSans-20" transform="translate(1463.427734 0)"/>
    <use xlink:href="#DejaVuSans-28" transform="translate(1495.214844 0)"/>
    <use xlink:href="#DejaVuSans-52" transform="translate(1534.228516 0)"/>
    <use xlink:href="#DejaVuSans-69" transform="translate(1603.710938 0)"/>
    <use xlink:href="#DejaVuSans-64" transform="translate(1631.494141 0)"/>
    <use xlink:href="#DejaVuSans-67" transform="translate(1694.970703 0)"/>
    <use xlink:href="#DejaVuSans-65" transform="translate(1758.447266 0)"/>
    <use xlink:href="#DejaVuSans-29" transform="translate(1819.970703 0)"/>
    <use xlink:href="#DejaVuSans-2c" transform="translate(1858.984375 0)"/>
    <use xlink:href="#DejaVuSans-20" transform="translate(1890.771484 0)"/>
    <use xlink:href="#DejaVuSans-6f" transform="translate(1922.558594 0)"/>
    <use xlink:href="#DejaVuSans-6e" transform="translate(1983.740234 0)"/>
    <use xlink:href="#DejaVuSans-6c" transform="translate(2047.119141 0)"/>
    <use xlink:href="#DejaVuSans-79" transform="translate(2074.902344 0)"/>
    <use xlink:href="#DejaVuSans-20" transform="translate(2134.082031 0)"/>
    <use xlink:href="#DejaVuSans-61" transform="translate(2165.869141 0)"/>
    <use xlink:href="#DejaVuSans-6c" transform="translate(2227.148438 0)"/>
    <use xlink:href="#DejaVuSans-70" transform="translate(2254.931641 0)"/>
    <use xlink:href="#DejaVuSans-68" transform="translate(2318.408203 0)"/>
    <use xlink:href="#DejaVuSans-61" transform="translate(2381.787109 0)"/>
    <use xlink:href="#DejaVuSans-20" transform="translate(2443.066406 0)"/>
    <use xlink:href="#DejaVuSans-64" transform="translate(2474.853516 0)"/>
    <use xlink:href="#DejaVuSans-69" transform="translate(2538.330078 0)"/>
    <use xlink:href="#DejaVuSans-66" transform="translate(2566.113281 0)"/>
    <use xlink:href="#DejaVuSans-66" transform="translate(2601.318359 0)"/>
    <use xlink:href="#DejaVuSans-65" transform="translate(2636.523438 0)"/>
    <use xlink:href="#DejaVuSans-72" transform="translate(2698.046875 0)"/>
    <use xlink:href="#DejaVuSans-73" transform="translate(2739.160156 0)"/>
   </g>
  </g>
 </g>
 <defs>
  <clipPath id="p862da8cb33">
   <rect x="42.620313" y="48.192" width="187.32" height="142.84"/>
  </clipPath>
  <clipPath id="pff3b13311d">
   <rect x="244.240313" y="48.192" width="187.32" height="142.84"/>
  </clipPath>
  <clipPath id="p3a7572935e">
   <rect x="445.860313" y="48.192" width="187.32" height="142.84"/>
  </clipPath>
 </defs>
</svg>
