<?xml version="1.0" encoding="utf-8" standalone="no"?>
<!DOCTYPE svg PUBLIC "-//W3C//DTD SVG 1.1//EN"
  "http://www.w3.org/Graphics/SVG/1.1/DTD/svg11.dtd">
<svg xmlns:xlink="http://www.w3.org/1999/xlink" width="1000.52375pt" height="279.034375pt" viewBox="0 0 1000.52375 279.034375" xmlns="http://www.w3.org/2000/svg" version="1.1">
 <metadata>
  <rdf:RDF xmlns:dc="http://purl.org/dc/elements/1.1/" xmlns:cc="http://creativecommons.org/ns#" xmlns:rdf="http://www.w3.org/1999/02/22-rdf-syntax-ns#">
   <cc:Work>
    <dc:type rdf:resource="http://purl.org/dc/dcmitype/StillImage"/>
    <dc:date>2026-05-26T13:28:59.047445</dc:date>
    <dc:format>image/svg+xml</dc:format>
    <dc:creator>
     <cc:Agent>
      <dc:title>Matplotlib v3.10.8, https://matplotlib.org/</dc:title>
     </cc:Agent>
    </dc:creator>
   </cc:Work>
  </rdf:RDF>
 </metadata>
 <defs>
  <style type="text/css">*{stroke-linejoin: round; stroke-linecap: butt}</style>
 </defs>
 <g id="figure_1">
  <g id="patch_1">
   <path d="M 0 279.034375 
L 1000.52375 279.034375 
L 1000.52375 0 
L 0 0 
z
" style="fill: #ffffff"/>
  </g>
  <g id="axes_1">
   <g id="patch_2">
    <path d="M 50.14375 241.478125 
L 328.52375 241.478125 
L 328.52375 22.318125 
L 50.14375 22.318125 
z
" style="fill: #ffffff"/>
   </g>
   <g id="matplotlib.axis_1">
    <g id="xtick_1">
     <g id="line2d_1">
      <path d="M 62.797386 241.478125 
L 62.797386 22.318125 
" clip-path="url(#pbbe24811a2)" style="fill: none; stroke: #b0b0b0; stroke-opacity: 0.25; stroke-width: 0.8; stroke-linecap: square"/>
     </g>
     <g id="line2d_2">
      <defs>
       <path id="m7aca31c5b0" d="M 0 0 
L 0 3.5 
" style="stroke: #000000; stroke-width: 0.8"/>
      </defs>
      <g>
       <use xlink:href="#m7aca31c5b0" x="62.797386" y="241.478125" style="stroke: #000000; stroke-width: 0.8"/>
      </g>
     </g>
     <g id="text_1">
      <!-- −6 -->
      <g transform="translate(55.426293 256.076563) scale(0.1 -0.1)">
       <defs>
        <path id="DejaVuSans-2212" d="M 678 2272 
L 4684 2272 
L 4684 1741 
L 678 1741 
L 678 2272 
z
" transform="scale(0.015625)"/>
        <path id="DejaVuSans-36" d="M 2113 2584 
Q 1688 2584 1439 2293 
Q 1191 2003 1191 1497 
Q 1191 994 1439 701 
Q 1688 409 2113 409 
Q 2538 409 2786 701 
Q 3034 994 3034 1497 
Q 3034 2003 2786 2293 
Q 2538 2584 2113 2584 
z
M 3366 4563 
L 3366 3988 
Q 3128 4100 2886 4159 
Q 2644 4219 2406 4219 
Q 1781 4219 1451 3797 
Q 1122 3375 1075 2522 
Q 1259 2794 1537 2939 
Q 1816 3084 2150 3084 
Q 2853 3084 3261 2657 
Q 3669 2231 3669 1497 
Q 3669 778 3244 343 
Q 2819 -91 2113 -91 
Q 1303 -91 875 529 
Q 447 1150 447 2328 
Q 447 3434 972 4092 
Q 1497 4750 2381 4750 
Q 2619 4750 2861 4703 
Q 3103 4656 3366 4563 
z
" transform="scale(0.015625)"/>
       </defs>
       <use xlink:href="#DejaVuSans-2212"/>
       <use xlink:href="#DejaVuSans-36" transform="translate(83.789062 0)"/>
      </g>
     </g>
    </g>
    <g id="xtick_2">
     <g id="line2d_3">
      <path d="M 98.950633 241.478125 
L 98.950633 22.318125 
" clip-path="url(#pbbe24811a2)" style="fill: none; stroke: #b0b0b0; stroke-opacity: 0.25; stroke-width: 0.8; stroke-linecap: square"/>
     </g>
     <g id="line2d_4">
      <g>
       <use xlink:href="#m7aca31c5b0" x="98.950633" y="241.478125" style="stroke: #000000; stroke-width: 0.8"/>
      </g>
     </g>
     <g id="text_2">
      <!-- −4 -->
      <g transform="translate(91.579539 256.076563) scale(0.1 -0.1)">
       <defs>
        <path id="DejaVuSans-34" d="M 2419 4116 
L 825 1625 
L 2419 1625 
L 2419 4116 
z
M 2253 4666 
L 3047 4666 
L 3047 1625 
L 3713 1625 
L 3713 1100 
L 3047 1100 
L 3047 0 
L 2419 0 
L 2419 1100 
L 313 1100 
L 313 1709 
L 2253 4666 
z
" transform="scale(0.015625)"/>
       </defs>
       <use xlink:href="#DejaVuSans-2212"/>
       <use xlink:href="#DejaVuSans-34" transform="translate(83.789062 0)"/>
      </g>
     </g>
    </g>
    <g id="xtick_3">
     <g id="line2d_5">
      <path d="M 135.10388 241.478125 
L 135.10388 22.318125 
" clip-path="url(#pbbe24811a2)" style="fill: none; stroke: #b0b0b0; stroke-opacity: 0.25; stroke-width: 0.8; stroke-linecap: square"/>
     </g>
     <g id="line2d_6">
      <g>
       <use xlink:href="#m7aca31c5b0" x="135.10388" y="241.478125" style="stroke: #000000; stroke-width: 0.8"/>
      </g>
     </g>
     <g id="text_3">
      <!-- −2 -->
      <g transform="translate(127.732786 256.076563) scale(0.1 -0.1)">
       <defs>
        <path id="DejaVuSans-32" d="M 1228 531 
L 3431 531 
L 3431 0 
L 469 0 
L 469 531 
Q 828 903 1448 1529 
Q 2069 2156 2228 2338 
Q 2531 2678 2651 2914 
Q 2772 3150 2772 3378 
Q 2772 3750 2511 3984 
Q 2250 4219 1831 4219 
Q 1534 4219 1204 4116 
Q 875 4013 500 3803 
L 500 4441 
Q 881 4594 1212 4672 
Q 1544 4750 1819 4750 
Q 2544 4750 2975 4387 
Q 3406 4025 3406 3419 
Q 3406 3131 3298 2873 
Q 3191 2616 2906 2266 
Q 2828 2175 2409 1742 
Q 1991 1309 1228 531 
z
" transform="scale(0.015625)"/>
       </defs>
       <use xlink:href="#DejaVuSans-2212"/>
       <use xlink:href="#DejaVuSans-32" transform="translate(83.789062 0)"/>
      </g>
     </g>
    </g>
    <g id="xtick_4">
     <g id="line2d_7">
      <path d="M 171.257127 241.478125 
L 171.257127 22.318125 
" clip-path="url(#pbbe24811a2)" style="fill: none; stroke: #b0b0b0; stroke-opacity: 0.25; stroke-width: 0.8; stroke-linecap: square"/>
     </g>
     <g id="line2d_8">
      <g>
       <use xlink:href="#m7aca31c5b0" x="171.257127" y="241.478125" style="stroke: #000000; stroke-width: 0.8"/>
      </g>
     </g>
     <g id="text_4">
      <!-- 0 -->
      <g transform="translate(168.075877 256.076563) scale(0.1 -0.1)">
       <defs>
        <path id="DejaVuSans-30" d="M 2034 4250 
Q 1547 4250 1301 3770 
Q 1056 3291 1056 2328 
Q 1056 1369 1301 889 
Q 1547 409 2034 409 
Q 2525 409 2770 889 
Q 3016 1369 3016 2328 
Q 3016 3291 2770 3770 
Q 2525 4250 2034 4250 
z
M 2034 4750 
Q 2819 4750 3233 4129 
Q 3647 3509 3647 2328 
Q 3647 1150 3233 529 
Q 2819 -91 2034 -91 
Q 1250 -91 836 529 
Q 422 1150 422 2328 
Q 422 3509 836 4129 
Q 1250 4750 2034 4750 
z
" transform="scale(0.015625)"/>
       </defs>
       <use xlink:href="#DejaVuSans-30"/>
      </g>
     </g>
    </g>
    <g id="xtick_5">
     <g id="line2d_9">
      <path d="M 207.410373 241.478125 
L 207.410373 22.318125 
" clip-path="url(#pbbe24811a2)" style="fill: none; stroke: #b0b0b0; stroke-opacity: 0.25; stroke-width: 0.8; stroke-linecap: square"/>
     </g>
     <g id="line2d_10">
      <g>
       <use xlink:href="#m7aca31c5b0" x="207.410373" y="241.478125" style="stroke: #000000; stroke-width: 0.8"/>
      </g>
     </g>
     <g id="text_5">
      <!-- 2 -->
      <g transform="translate(204.229123 256.076563) scale(0.1 -0.1)">
       <use xlink:href="#DejaVuSans-32"/>
      </g>
     </g>
    </g>
    <g id="xtick_6">
     <g id="line2d_11">
      <path d="M 243.56362 241.478125 
L 243.56362 22.318125 
" clip-path="url(#pbbe24811a2)" style="fill: none; stroke: #b0b0b0; stroke-opacity: 0.25; stroke-width: 0.8; stroke-linecap: square"/>
     </g>
     <g id="line2d_12">
      <g>
       <use xlink:href="#m7aca31c5b0" x="243.56362" y="241.478125" style="stroke: #000000; stroke-width: 0.8"/>
      </g>
     </g>
     <g id="text_6">
      <!-- 4 -->
      <g transform="translate(240.38237 256.076563) scale(0.1 -0.1)">
       <use xlink:href="#DejaVuSans-34"/>
      </g>
     </g>
    </g>
    <g id="xtick_7">
     <g id="line2d_13">
      <path d="M 279.716867 241.478125 
L 279.716867 22.318125 
" clip-path="url(#pbbe24811a2)" style="fill: none; stroke: #b0b0b0; stroke-opacity: 0.25; stroke-width: 0.8; stroke-linecap: square"/>
     </g>
     <g id="line2d_14">
      <g>
       <use xlink:href="#m7aca31c5b0" x="279.716867" y="241.478125" style="stroke: #000000; stroke-width: 0.8"/>
      </g>
     </g>
     <g id="text_7">
      <!-- 6 -->
      <g transform="translate(276.535617 256.076563) scale(0.1 -0.1)">
       <use xlink:href="#DejaVuSans-36"/>
      </g>
     </g>
    </g>
    <g id="xtick_8">
     <g id="line2d_15">
      <path d="M 315.870114 241.478125 
L 315.870114 22.318125 
" clip-path="url(#pbbe24811a2)" style="fill: none; stroke: #b0b0b0; stroke-opacity: 0.25; stroke-width: 0.8; stroke-linecap: square"/>
     </g>
     <g id="line2d_16">
      <g>
       <use xlink:href="#m7aca31c5b0" x="315.870114" y="241.478125" style="stroke: #000000; stroke-width: 0.8"/>
      </g>
     </g>
     <g id="text_8">
      <!-- 8 -->
      <g transform="translate(312.688864 256.076563) scale(0.1 -0.1)">
       <defs>
        <path id="DejaVuSans-38" d="M 2034 2216 
Q 1584 2216 1326 1975 
Q 1069 1734 1069 1313 
Q 1069 891 1326 650 
Q 1584 409 2034 409 
Q 2484 409 2743 651 
Q 3003 894 3003 1313 
Q 3003 1734 2745 1975 
Q 2488 2216 2034 2216 
z
M 1403 2484 
Q 997 2584 770 2862 
Q 544 3141 544 3541 
Q 544 4100 942 4425 
Q 1341 4750 2034 4750 
Q 2731 4750 3128 4425 
Q 3525 4100 3525 3541 
Q 3525 3141 3298 2862 
Q 3072 2584 2669 2484 
Q 3125 2378 3379 2068 
Q 3634 1759 3634 1313 
Q 3634 634 3220 271 
Q 2806 -91 2034 -91 
Q 1263 -91 848 271 
Q 434 634 434 1313 
Q 434 1759 690 2068 
Q 947 2378 1403 2484 
z
M 1172 3481 
Q 1172 3119 1398 2916 
Q 1625 2713 2034 2713 
Q 2441 2713 2670 2916 
Q 2900 3119 2900 3481 
Q 2900 3844 2670 4047 
Q 2441 4250 2034 4250 
Q 1625 4250 1398 4047 
Q 1172 3844 1172 3481 
z
" transform="scale(0.015625)"/>
       </defs>
       <use xlink:href="#DejaVuSans-38"/>
      </g>
     </g>
    </g>
    <g id="text_9">
     <!-- x -->
     <g transform="translate(186.374375 269.754687) scale(0.1 -0.1)">
      <defs>
       <path id="DejaVuSans-78" d="M 3513 3500 
L 2247 1797 
L 3578 0 
L 2900 0 
L 1881 1375 
L 863 0 
L 184 0 
L 1544 1831 
L 300 3500 
L 978 3500 
L 1906 2253 
L 2834 3500 
L 3513 3500 
z
" transform="scale(0.015625)"/>
      </defs>
      <use xlink:href="#DejaVuSans-78"/>
     </g>
    </g>
   </g>
   <g id="matplotlib.axis_2">
    <g id="ytick_1">
     <g id="line2d_17">
      <path d="M 50.14375 231.516307 
L 328.52375 231.516307 
" clip-path="url(#pbbe24811a2)" style="fill: none; stroke: #b0b0b0; stroke-opacity: 0.25; stroke-width: 0.8; stroke-linecap: square"/>
     </g>
     <g id="line2d_18">
      <defs>
       <path id="m98d59d4de7" d="M 0 0 
L -3.5 0 
" style="stroke: #000000; stroke-width: 0.8"/>
      </defs>
      <g>
       <use xlink:href="#m98d59d4de7" x="50.14375" y="231.516307" style="stroke: #000000; stroke-width: 0.8"/>
      </g>
     </g>
     <g id="text_10">
      <!-- 0.00 -->
      <g transform="translate(20.878125 235.315526) scale(0.1 -0.1)">
       <defs>
        <path id="DejaVuSans-2e" d="M 684 794 
L 1344 794 
L 1344 0 
L 684 0 
L 684 794 
z
" transform="scale(0.015625)"/>
       </defs>
       <use xlink:href="#DejaVuSans-30"/>
       <use xlink:href="#DejaVuSans-2e" transform="translate(63.623047 0)"/>
       <use xlink:href="#DejaVuSans-30" transform="translate(95.410156 0)"/>
       <use xlink:href="#DejaVuSans-30" transform="translate(159.033203 0)"/>
      </g>
     </g>
    </g>
    <g id="ytick_2">
     <g id="line2d_19">
      <path d="M 50.14375 206.545732 
L 328.52375 206.545732 
" clip-path="url(#pbbe24811a2)" style="fill: none; stroke: #b0b0b0; stroke-opacity: 0.25; stroke-width: 0.8; stroke-linecap: square"/>
     </g>
     <g id="line2d_20">
      <g>
       <use xlink:href="#m98d59d4de7" x="50.14375" y="206.545732" style="stroke: #000000; stroke-width: 0.8"/>
      </g>
     </g>
     <g id="text_11">
      <!-- 0.05 -->
      <g transform="translate(20.878125 210.34495) scale(0.1 -0.1)">
       <defs>
        <path id="DejaVuSans-35" d="M 691 4666 
L 3169 4666 
L 3169 4134 
L 1269 4134 
L 1269 2991 
Q 1406 3038 1543 3061 
Q 1681 3084 1819 3084 
Q 2600 3084 3056 2656 
Q 3513 2228 3513 1497 
Q 3513 744 3044 326 
Q 2575 -91 1722 -91 
Q 1428 -91 1123 -41 
Q 819 9 494 109 
L 494 744 
Q 775 591 1075 516 
Q 1375 441 1709 441 
Q 2250 441 2565 725 
Q 2881 1009 2881 1497 
Q 2881 1984 2565 2268 
Q 2250 2553 1709 2553 
Q 1456 2553 1204 2497 
Q 953 2441 691 2322 
L 691 4666 
z
" transform="scale(0.015625)"/>
       </defs>
       <use xlink:href="#DejaVuSans-30"/>
       <use xlink:href="#DejaVuSans-2e" transform="translate(63.623047 0)"/>
       <use xlink:href="#DejaVuSans-30" transform="translate(95.410156 0)"/>
       <use xlink:href="#DejaVuSans-35" transform="translate(159.033203 0)"/>
      </g>
     </g>
    </g>
    <g id="ytick_3">
     <g id="line2d_21">
      <path d="M 50.14375 181.575157 
L 328.52375 181.575157 
" clip-path="url(#pbbe24811a2)" style="fill: none; stroke: #b0b0b0; stroke-opacity: 0.25; stroke-width: 0.8; stroke-linecap: square"/>
     </g>
     <g id="line2d_22">
      <g>
       <use xlink:href="#m98d59d4de7" x="50.14375" y="181.575157" style="stroke: #000000; stroke-width: 0.8"/>
      </g>
     </g>
     <g id="text_12">
      <!-- 0.10 -->
      <g transform="translate(20.878125 185.374375) scale(0.1 -0.1)">
       <defs>
        <path id="DejaVuSans-31" d="M 794 531 
L 1825 531 
L 1825 4091 
L 703 3866 
L 703 4441 
L 1819 4666 
L 2450 4666 
L 2450 531 
L 3481 531 
L 3481 0 
L 794 0 
L 794 531 
z
" transform="scale(0.015625)"/>
       </defs>
       <use xlink:href="#DejaVuSans-30"/>
       <use xlink:href="#DejaVuSans-2e" transform="translate(63.623047 0)"/>
       <use xlink:href="#DejaVuSans-31" transform="translate(95.410156 0)"/>
       <use xlink:href="#DejaVuSans-30" transform="translate(159.033203 0)"/>
      </g>
     </g>
    </g>
    <g id="ytick_4">
     <g id="line2d_23">
      <path d="M 50.14375 156.604581 
L 328.52375 156.604581 
" clip-path="url(#pbbe24811a2)" style="fill: none; stroke: #b0b0b0; stroke-opacity: 0.25; stroke-width: 0.8; stroke-linecap: square"/>
     </g>
     <g id="line2d_24">
      <g>
       <use xlink:href="#m98d59d4de7" x="50.14375" y="156.604581" style="stroke: #000000; stroke-width: 0.8"/>
      </g>
     </g>
     <g id="text_13">
      <!-- 0.15 -->
      <g transform="translate(20.878125 160.4038) scale(0.1 -0.1)">
       <use xlink:href="#DejaVuSans-30"/>
       <use xlink:href="#DejaVuSans-2e" transform="translate(63.623047 0)"/>
       <use xlink:href="#DejaVuSans-31" transform="translate(95.410156 0)"/>
       <use xlink:href="#DejaVuSans-35" transform="translate(159.033203 0)"/>
      </g>
     </g>
    </g>
    <g id="ytick_5">
     <g id="line2d_25">
      <path d="M 50.14375 131.634006 
L 328.52375 131.634006 
" clip-path="url(#pbbe24811a2)" style="fill: none; stroke: #b0b0b0; stroke-opacity: 0.25; stroke-width: 0.8; stroke-linecap: square"/>
     </g>
     <g id="line2d_26">
      <g>
       <use xlink:href="#m98d59d4de7" x="50.14375" y="131.634006" style="stroke: #000000; stroke-width: 0.8"/>
      </g>
     </g>
     <g id="text_14">
      <!-- 0.20 -->
      <g transform="translate(20.878125 135.433225) scale(0.1 -0.1)">
       <use xlink:href="#DejaVuSans-30"/>
       <use xlink:href="#DejaVuSans-2e" transform="translate(63.623047 0)"/>
       <use xlink:href="#DejaVuSans-32" transform="translate(95.410156 0)"/>
       <use xlink:href="#DejaVuSans-30" transform="translate(159.033203 0)"/>
      </g>
     </g>
    </g>
    <g id="ytick_6">
     <g id="line2d_27">
      <path d="M 50.14375 106.663431 
L 328.52375 106.663431 
" clip-path="url(#pbbe24811a2)" style="fill: none; stroke: #b0b0b0; stroke-opacity: 0.25; stroke-width: 0.8; stroke-linecap: square"/>
     </g>
     <g id="line2d_28">
      <g>
       <use xlink:href="#m98d59d4de7" x="50.14375" y="106.663431" style="stroke: #000000; stroke-width: 0.8"/>
      </g>
     </g>
     <g id="text_15">
      <!-- 0.25 -->
      <g transform="translate(20.878125 110.46265) scale(0.1 -0.1)">
       <use xlink:href="#DejaVuSans-30"/>
       <use xlink:href="#DejaVuSans-2e" transform="translate(63.623047 0)"/>
       <use xlink:href="#DejaVuSans-32" transform="translate(95.410156 0)"/>
       <use xlink:href="#DejaVuSans-35" transform="translate(159.033203 0)"/>
      </g>
     </g>
    </g>
    <g id="ytick_7">
     <g id="line2d_29">
      <path d="M 50.14375 81.692856 
L 328.52375 81.692856 
" clip-path="url(#pbbe24811a2)" style="fill: none; stroke: #b0b0b0; stroke-opacity: 0.25; stroke-width: 0.8; stroke-linecap: square"/>
     </g>
     <g id="line2d_30">
      <g>
       <use xlink:href="#m98d59d4de7" x="50.14375" y="81.692856" style="stroke: #000000; stroke-width: 0.8"/>
      </g>
     </g>
     <g id="text_16">
      <!-- 0.30 -->
      <g transform="translate(20.878125 85.492075) scale(0.1 -0.1)">
       <defs>
        <path id="DejaVuSans-33" d="M 2597 2516 
Q 3050 2419 3304 2112 
Q 3559 1806 3559 1356 
Q 3559 666 3084 287 
Q 2609 -91 1734 -91 
Q 1441 -91 1130 -33 
Q 819 25 488 141 
L 488 750 
Q 750 597 1062 519 
Q 1375 441 1716 441 
Q 2309 441 2620 675 
Q 2931 909 2931 1356 
Q 2931 1769 2642 2001 
Q 2353 2234 1838 2234 
L 1294 2234 
L 1294 2753 
L 1863 2753 
Q 2328 2753 2575 2939 
Q 2822 3125 2822 3475 
Q 2822 3834 2567 4026 
Q 2313 4219 1838 4219 
Q 1578 4219 1281 4162 
Q 984 4106 628 3988 
L 628 4550 
Q 988 4650 1302 4700 
Q 1616 4750 1894 4750 
Q 2613 4750 3031 4423 
Q 3450 4097 3450 3541 
Q 3450 3153 3228 2886 
Q 3006 2619 2597 2516 
z
" transform="scale(0.015625)"/>
       </defs>
       <use xlink:href="#DejaVuSans-30"/>
       <use xlink:href="#DejaVuSans-2e" transform="translate(63.623047 0)"/>
       <use xlink:href="#DejaVuSans-33" transform="translate(95.410156 0)"/>
       <use xlink:href="#DejaVuSans-30" transform="translate(159.033203 0)"/>
      </g>
     </g>
    </g>
    <g id="ytick_8">
     <g id="line2d_31">
      <path d="M 50.14375 56.722281 
L 328.52375 56.722281 
" clip-path="url(#pbbe24811a2)" style="fill: none; stroke: #b0b0b0; stroke-opacity: 0.25; stroke-width: 0.8; stroke-linecap: square"/>
     </g>
     <g id="line2d_32">
      <g>
       <use xlink:href="#m98d59d4de7" x="50.14375" y="56.722281" style="stroke: #000000; stroke-width: 0.8"/>
      </g>
     </g>
     <g id="text_17">
      <!-- 0.35 -->
      <g transform="translate(20.878125 60.5215) scale(0.1 -0.1)">
       <use xlink:href="#DejaVuSans-30"/>
       <use xlink:href="#DejaVuSans-2e" transform="translate(63.623047 0)"/>
       <use xlink:href="#DejaVuSans-33" transform="translate(95.410156 0)"/>
       <use xlink:href="#DejaVuSans-35" transform="translate(159.033203 0)"/>
      </g>
     </g>
    </g>
    <g id="ytick_9">
     <g id="line2d_33">
      <path d="M 50.14375 31.751706 
L 328.52375 31.751706 
" clip-path="url(#pbbe24811a2)" style="fill: none; stroke: #b0b0b0; stroke-opacity: 0.25; stroke-width: 0.8; stroke-linecap: square"/>
     </g>
     <g id="line2d_34">
      <g>
       <use xlink:href="#m98d59d4de7" x="50.14375" y="31.751706" style="stroke: #000000; stroke-width: 0.8"/>
      </g>
     </g>
     <g id="text_18">
      <!-- 0.40 -->
      <g transform="translate(20.878125 35.550925) scale(0.1 -0.1)">
       <use xlink:href="#DejaVuSans-30"/>
       <use xlink:href="#DejaVuSans-2e" transform="translate(63.623047 0)"/>
       <use xlink:href="#DejaVuSans-34" transform="translate(95.410156 0)"/>
       <use xlink:href="#DejaVuSans-30" transform="translate(159.033203 0)"/>
      </g>
     </g>
    </g>
    <g id="text_19">
     <!-- f(x) -->
     <g transform="translate(14.798438 140.519219) rotate(-90) scale(0.1 -0.1)">
      <defs>
       <path id="DejaVuSans-66" d="M 2375 4863 
L 2375 4384 
L 1825 4384 
Q 1516 4384 1395 4259 
Q 1275 4134 1275 3809 
L 1275 3500 
L 2222 3500 
L 2222 3053 
L 1275 3053 
L 1275 0 
L 697 0 
L 697 3053 
L 147 3053 
L 147 3500 
L 697 3500 
L 697 3744 
Q 697 4328 969 4595 
Q 1241 4863 1831 4863 
L 2375 4863 
z
" transform="scale(0.015625)"/>
       <path id="DejaVuSans-28" d="M 1984 4856 
Q 1566 4138 1362 3434 
Q 1159 2731 1159 2009 
Q 1159 1288 1364 580 
Q 1569 -128 1984 -844 
L 1484 -844 
Q 1016 -109 783 600 
Q 550 1309 550 2009 
Q 550 2706 781 3412 
Q 1013 4119 1484 4856 
L 1984 4856 
z
" transform="scale(0.015625)"/>
       <path id="DejaVuSans-29" d="M 513 4856 
L 1013 4856 
Q 1481 4119 1714 3412 
Q 1947 2706 1947 2009 
Q 1947 1309 1714 600 
Q 1481 -109 1013 -844 
L 513 -844 
Q 928 -128 1133 580 
Q 1338 1288 1338 2009 
Q 1338 2731 1133 3434 
Q 928 4138 513 4856 
z
" transform="scale(0.015625)"/>
      </defs>
      <use xlink:href="#DejaVuSans-66"/>
      <use xlink:href="#DejaVuSans-28" transform="translate(35.205078 0)"/>
      <use xlink:href="#DejaVuSans-78" transform="translate(74.21875 0)"/>
      <use xlink:href="#DejaVuSans-29" transform="translate(133.398438 0)"/>
     </g>
    </g>
   </g>
   <g id="line2d_35">
    <path d="M 62.797386 231.516304 
L 100.853436 231.41504 
L 106.561843 231.186728 
L 110.367448 230.831514 
L 113.538785 230.298656 
L 116.075855 229.628884 
L 117.978658 228.928006 
L 119.88146 228.005974 
L 121.784263 226.807947 
L 123.687065 225.270639 
L 125.589868 223.322684 
L 126.858403 221.757412 
L 128.126938 219.950216 
L 129.395472 217.875696 
L 130.664007 215.508113 
L 132.56681 211.351458 
L 134.469612 206.395389 
L 136.372415 200.566076 
L 138.275217 193.804255 
L 140.17802 186.071496 
L 142.080822 177.356598 
L 143.983625 167.681698 
L 146.520695 153.399613 
L 149.057765 137.786739 
L 152.86337 112.793179 
L 157.303242 83.613692 
L 159.840312 68.304972 
L 161.743114 58.049247 
L 163.645917 49.180657 
L 164.914452 44.17456 
L 166.182987 39.976599 
L 167.451522 36.646591 
L 168.720057 34.232627 
L 169.354324 33.380694 
L 169.988592 32.769919 
L 170.622859 32.40255 
L 171.257127 32.279943 
L 171.891394 32.40255 
L 172.525662 32.769919 
L 173.159929 33.380694 
L 173.794197 34.232627 
L 174.428464 35.322589 
L 175.696999 38.199805 
L 176.965534 41.970564 
L 178.234069 46.580751 
L 179.502604 51.965203 
L 181.405406 61.328099 
L 183.308209 71.980298 
L 185.845279 87.654492 
L 190.285151 117.027707 
L 194.090756 141.79503 
L 196.627826 157.107564 
L 199.164896 171.010426 
L 201.067699 180.370073 
L 202.970501 188.758285 
L 204.873303 196.164679 
L 206.776106 202.610233 
L 208.678908 208.141035 
L 210.581711 212.821882 
L 212.484513 216.730146 
L 214.387316 219.950216 
L 216.290118 222.568726 
L 218.192921 224.67069 
L 220.095723 226.336574 
L 221.998526 227.640251 
L 223.901328 228.647769 
L 225.80413 229.416792 
L 228.3412 230.15514 
L 230.87827 230.651042 
L 234.049608 231.038596 
L 238.48948 231.318823 
L 244.832155 231.465953 
L 259.420307 231.514945 
L 315.870114 231.516307 
L 315.870114 231.516307 
" clip-path="url(#pbbe24811a2)" style="fill: none; stroke: #7aa6c2; stroke-width: 2; stroke-linecap: square"/>
   </g>
   <g id="line2d_36">
    <path d="M 62.797386 231.516307 
L 137.006682 231.41504 
L 142.71509 231.186728 
L 146.520695 230.831514 
L 149.692032 230.298656 
L 152.229102 229.628884 
L 154.131904 228.928006 
L 156.034707 228.005974 
L 157.937509 226.807947 
L 159.840312 225.270639 
L 161.743114 223.322684 
L 163.011649 221.757412 
L 164.280184 219.950216 
L 165.548719 217.875696 
L 166.817254 215.508113 
L 168.720057 211.351458 
L 170.622859 206.395389 
L 172.525662 200.566076 
L 174.428464 193.804255 
L 176.331267 186.071496 
L 178.234069 177.356598 
L 180.136871 167.681698 
L 182.673941 153.399613 
L 185.211011 137.786739 
L 189.016616 112.793179 
L 193.456489 83.613692 
L 195.993559 68.304972 
L 197.896361 58.049247 
L 199.799164 49.180657 
L 201.067699 44.17456 
L 202.336233 39.976599 
L 203.604768 36.646591 
L 204.873303 34.232627 
L 205.507571 33.380694 
L 206.141838 32.769919 
L 206.776106 32.40255 
L 207.410373 32.279943 
L 208.044641 32.40255 
L 208.678908 32.769919 
L 209.313176 33.380694 
L 209.947443 34.232627 
L 210.581711 35.322589 
L 211.850246 38.199805 
L 213.118781 41.970564 
L 214.387316 46.580751 
L 215.655851 51.965203 
L 217.558653 61.328099 
L 219.461456 71.980298 
L 221.998526 87.654492 
L 226.438398 117.027707 
L 230.244003 141.79503 
L 232.781073 157.107564 
L 235.318143 171.010426 
L 237.220945 180.370073 
L 239.123748 188.758285 
L 241.02655 196.164679 
L 242.929353 202.610233 
L 244.832155 208.141035 
L 246.734958 212.821882 
L 248.63776 216.730146 
L 250.540562 219.950216 
L 252.443365 222.568726 
L 254.346167 224.67069 
L 256.24897 226.336574 
L 258.151772 227.640251 
L 260.054575 228.647769 
L 261.957377 229.416792 
L 264.494447 230.15514 
L 267.031517 230.651042 
L 270.202855 231.038596 
L 274.642727 231.318823 
L 280.985402 231.465953 
L 295.573554 231.514945 
L 315.870114 231.516304 
L 315.870114 231.516304 
" clip-path="url(#pbbe24811a2)" style="fill: none; stroke: #59a14f; stroke-width: 2; stroke-linecap: square"/>
   </g>
   <g id="line2d_37">
    <path d="M 62.797386 230.409649 
L 67.871526 229.846767 
L 72.311399 229.162127 
L 76.751271 228.246421 
L 80.556876 227.234494 
L 84.362481 225.971191 
L 87.533818 224.696001 
L 90.705156 223.191862 
L 93.876493 221.433882 
L 97.047831 219.398252 
L 100.219168 217.06327 
L 103.390506 214.410501 
L 106.561843 211.426016 
L 109.73318 208.101685 
L 112.904518 204.436453 
L 116.075855 200.437543 
L 119.88146 195.222417 
L 123.687065 189.599212 
L 128.126938 182.61808 
L 134.469612 172.154743 
L 142.71509 158.57097 
L 146.520695 152.687959 
L 149.692032 148.133361 
L 152.86337 143.991675 
L 155.400439 141.033373 
L 157.937509 138.434601 
L 159.840312 136.743436 
L 161.743114 135.288472 
L 163.645917 134.081449 
L 165.548719 133.132195 
L 167.451522 132.4485 
L 169.354324 132.036005 
L 171.257127 131.898125 
L 173.159929 132.036005 
L 175.062732 132.4485 
L 176.965534 133.132195 
L 178.868336 134.081449 
L 180.771139 135.288472 
L 182.673941 136.743436 
L 184.576744 138.434601 
L 187.113814 141.033373 
L 189.650884 143.991675 
L 192.187954 147.269163 
L 195.359291 151.748303 
L 199.164896 157.564999 
L 204.239036 165.808571 
L 216.290118 185.657487 
L 220.729991 192.45796 
L 224.535596 197.884504 
L 227.706933 202.076308 
L 230.87827 205.94319 
L 234.049608 209.472439 
L 237.220945 212.660281 
L 240.392283 215.51075 
L 243.56362 218.034452 
L 246.734958 220.247271 
L 249.906295 222.169094 
L 253.077632 223.822599 
L 256.24897 225.232142 
L 259.420307 226.422791 
L 263.225912 227.59771 
L 267.031517 228.53483 
L 271.47139 229.378999 
L 276.545529 230.082038 
L 282.253937 230.621944 
L 289.230879 231.030894 
L 298.110624 231.30499 
L 311.430241 231.462101 
L 315.870114 231.482889 
L 315.870114 231.482889 
" clip-path="url(#pbbe24811a2)" style="fill: none; stroke: #e15759; stroke-width: 2; stroke-linecap: square"/>
   </g>
   <g id="patch_3">
    <path d="M 50.14375 241.478125 
L 50.14375 22.318125 
" style="fill: none; stroke: #000000; stroke-width: 0.8; stroke-linejoin: miter; stroke-linecap: square"/>
   </g>
   <g id="patch_4">
    <path d="M 328.52375 241.478125 
L 328.52375 22.318125 
" style="fill: none; stroke: #000000; stroke-width: 0.8; stroke-linejoin: miter; stroke-linecap: square"/>
   </g>
   <g id="patch_5">
    <path d="M 50.14375 241.478125 
L 328.52375 241.478125 
" style="fill: none; stroke: #000000; stroke-width: 0.8; stroke-linejoin: miter; stroke-linecap: square"/>
   </g>
   <g id="patch_6">
    <path d="M 50.14375 22.318125 
L 328.52375 22.318125 
" style="fill: none; stroke: #000000; stroke-width: 0.8; stroke-linejoin: miter; stroke-linecap: square"/>
   </g>
   <g id="text_20">
    <!-- Normal: shape determined by (μ, σ) -->
    <g transform="translate(81.672187 16.318125) scale(0.12 -0.12)">
     <defs>
      <path id="DejaVuSans-4e" d="M 628 4666 
L 1478 4666 
L 3547 763 
L 3547 4666 
L 4159 4666 
L 4159 0 
L 3309 0 
L 1241 3903 
L 1241 0 
L 628 0 
L 628 4666 
z
" transform="scale(0.015625)"/>
      <path id="DejaVuSans-6f" d="M 1959 3097 
Q 1497 3097 1228 2736 
Q 959 2375 959 1747 
Q 959 1119 1226 758 
Q 1494 397 1959 397 
Q 2419 397 2687 759 
Q 2956 1122 2956 1747 
Q 2956 2369 2687 2733 
Q 2419 3097 1959 3097 
z
M 1959 3584 
Q 2709 3584 3137 3096 
Q 3566 2609 3566 1747 
Q 3566 888 3137 398 
Q 2709 -91 1959 -91 
Q 1206 -91 779 398 
Q 353 888 353 1747 
Q 353 2609 779 3096 
Q 1206 3584 1959 3584 
z
" transform="scale(0.015625)"/>
      <path id="DejaVuSans-72" d="M 2631 2963 
Q 2534 3019 2420 3045 
Q 2306 3072 2169 3072 
Q 1681 3072 1420 2755 
Q 1159 2438 1159 1844 
L 1159 0 
L 581 0 
L 581 3500 
L 1159 3500 
L 1159 2956 
Q 1341 3275 1631 3429 
Q 1922 3584 2338 3584 
Q 2397 3584 2469 3576 
Q 2541 3569 2628 3553 
L 2631 2963 
z
" transform="scale(0.015625)"/>
      <path id="DejaVuSans-6d" d="M 3328 2828 
Q 3544 3216 3844 3400 
Q 4144 3584 4550 3584 
Q 5097 3584 5394 3201 
Q 5691 2819 5691 2113 
L 5691 0 
L 5113 0 
L 5113 2094 
Q 5113 2597 4934 2840 
Q 4756 3084 4391 3084 
Q 3944 3084 3684 2787 
Q 3425 2491 3425 1978 
L 3425 0 
L 2847 0 
L 2847 2094 
Q 2847 2600 2669 2842 
Q 2491 3084 2119 3084 
Q 1678 3084 1418 2786 
Q 1159 2488 1159 1978 
L 1159 0 
L 581 0 
L 581 3500 
L 1159 3500 
L 1159 2956 
Q 1356 3278 1631 3431 
Q 1906 3584 2284 3584 
Q 2666 3584 2933 3390 
Q 3200 3197 3328 2828 
z
" transform="scale(0.015625)"/>
      <path id="DejaVuSans-61" d="M 2194 1759 
Q 1497 1759 1228 1600 
Q 959 1441 959 1056 
Q 959 750 1161 570 
Q 1363 391 1709 391 
Q 2188 391 2477 730 
Q 2766 1069 2766 1631 
L 2766 1759 
L 2194 1759 
z
M 3341 1997 
L 3341 0 
L 2766 0 
L 2766 531 
Q 2569 213 2275 61 
Q 1981 -91 1556 -91 
Q 1019 -91 701 211 
Q 384 513 384 1019 
Q 384 1609 779 1909 
Q 1175 2209 1959 2209 
L 2766 2209 
L 2766 2266 
Q 2766 2663 2505 2880 
Q 2244 3097 1772 3097 
Q 1472 3097 1187 3025 
Q 903 2953 641 2809 
L 641 3341 
Q 956 3463 1253 3523 
Q 1550 3584 1831 3584 
Q 2591 3584 2966 3190 
Q 3341 2797 3341 1997 
z
" transform="scale(0.015625)"/>
      <path id="DejaVuSans-6c" d="M 603 4863 
L 1178 4863 
L 1178 0 
L 603 0 
L 603 4863 
z
" transform="scale(0.015625)"/>
      <path id="DejaVuSans-3a" d="M 750 794 
L 1409 794 
L 1409 0 
L 750 0 
L 750 794 
z
M 750 3309 
L 1409 3309 
L 1409 2516 
L 750 2516 
L 750 3309 
z
" transform="scale(0.015625)"/>
      <path id="DejaVuSans-20" transform="scale(0.015625)"/>
      <path id="DejaVuSans-73" d="M 2834 3397 
L 2834 2853 
Q 2591 2978 2328 3040 
Q 2066 3103 1784 3103 
Q 1356 3103 1142 2972 
Q 928 2841 928 2578 
Q 928 2378 1081 2264 
Q 1234 2150 1697 2047 
L 1894 2003 
Q 2506 1872 2764 1633 
Q 3022 1394 3022 966 
Q 3022 478 2636 193 
Q 2250 -91 1575 -91 
Q 1294 -91 989 -36 
Q 684 19 347 128 
L 347 722 
Q 666 556 975 473 
Q 1284 391 1588 391 
Q 1994 391 2212 530 
Q 2431 669 2431 922 
Q 2431 1156 2273 1281 
Q 2116 1406 1581 1522 
L 1381 1569 
Q 847 1681 609 1914 
Q 372 2147 372 2553 
Q 372 3047 722 3315 
Q 1072 3584 1716 3584 
Q 2034 3584 2315 3537 
Q 2597 3491 2834 3397 
z
" transform="scale(0.015625)"/>
      <path id="DejaVuSans-68" d="M 3513 2113 
L 3513 0 
L 2938 0 
L 2938 2094 
Q 2938 2591 2744 2837 
Q 2550 3084 2163 3084 
Q 1697 3084 1428 2787 
Q 1159 2491 1159 1978 
L 1159 0 
L 581 0 
L 581 4863 
L 1159 4863 
L 1159 2956 
Q 1366 3272 1645 3428 
Q 1925 3584 2291 3584 
Q 2894 3584 3203 3211 
Q 3513 2838 3513 2113 
z
" transform="scale(0.015625)"/>
      <path id="DejaVuSans-70" d="M 1159 525 
L 1159 -1331 
L 581 -1331 
L 581 3500 
L 1159 3500 
L 1159 2969 
Q 1341 3281 1617 3432 
Q 1894 3584 2278 3584 
Q 2916 3584 3314 3078 
Q 3713 2572 3713 1747 
Q 3713 922 3314 415 
Q 2916 -91 2278 -91 
Q 1894 -91 1617 61 
Q 1341 213 1159 525 
z
M 3116 1747 
Q 3116 2381 2855 2742 
Q 2594 3103 2138 3103 
Q 1681 3103 1420 2742 
Q 1159 2381 1159 1747 
Q 1159 1113 1420 752 
Q 1681 391 2138 391 
Q 2594 391 2855 752 
Q 3116 1113 3116 1747 
z
" transform="scale(0.015625)"/>
      <path id="DejaVuSans-65" d="M 3597 1894 
L 3597 1613 
L 953 1613 
Q 991 1019 1311 708 
Q 1631 397 2203 397 
Q 2534 397 2845 478 
Q 3156 559 3463 722 
L 3463 178 
Q 3153 47 2828 -22 
Q 2503 -91 2169 -91 
Q 1331 -91 842 396 
Q 353 884 353 1716 
Q 353 2575 817 3079 
Q 1281 3584 2069 3584 
Q 2775 3584 3186 3129 
Q 3597 2675 3597 1894 
z
M 3022 2063 
Q 3016 2534 2758 2815 
Q 2500 3097 2075 3097 
Q 1594 3097 1305 2825 
Q 1016 2553 972 2059 
L 3022 2063 
z
" transform="scale(0.015625)"/>
      <path id="DejaVuSans-64" d="M 2906 2969 
L 2906 4863 
L 3481 4863 
L 3481 0 
L 2906 0 
L 2906 525 
Q 2725 213 2448 61 
Q 2172 -91 1784 -91 
Q 1150 -91 751 415 
Q 353 922 353 1747 
Q 353 2572 751 3078 
Q 1150 3584 1784 3584 
Q 2172 3584 2448 3432 
Q 2725 3281 2906 2969 
z
M 947 1747 
Q 947 1113 1208 752 
Q 1469 391 1925 391 
Q 2381 391 2643 752 
Q 2906 1113 2906 1747 
Q 2906 2381 2643 2742 
Q 2381 3103 1925 3103 
Q 1469 3103 1208 2742 
Q 947 2381 947 1747 
z
" transform="scale(0.015625)"/>
      <path id="DejaVuSans-74" d="M 1172 4494 
L 1172 3500 
L 2356 3500 
L 2356 3053 
L 1172 3053 
L 1172 1153 
Q 1172 725 1289 603 
Q 1406 481 1766 481 
L 2356 481 
L 2356 0 
L 1766 0 
Q 1100 0 847 248 
Q 594 497 594 1153 
L 594 3053 
L 172 3053 
L 172 3500 
L 594 3500 
L 594 4494 
L 1172 4494 
z
" transform="scale(0.015625)"/>
      <path id="DejaVuSans-69" d="M 603 3500 
L 1178 3500 
L 1178 0 
L 603 0 
L 603 3500 
z
M 603 4863 
L 1178 4863 
L 1178 4134 
L 603 4134 
L 603 4863 
z
" transform="scale(0.015625)"/>
      <path id="DejaVuSans-6e" d="M 3513 2113 
L 3513 0 
L 2938 0 
L 2938 2094 
Q 2938 2591 2744 2837 
Q 2550 3084 2163 3084 
Q 1697 3084 1428 2787 
Q 1159 2491 1159 1978 
L 1159 0 
L 581 0 
L 581 3500 
L 1159 3500 
L 1159 2956 
Q 1366 3272 1645 3428 
Q 1925 3584 2291 3584 
Q 2894 3584 3203 3211 
Q 3513 2838 3513 2113 
z
" transform="scale(0.015625)"/>
      <path id="DejaVuSans-62" d="M 3116 1747 
Q 3116 2381 2855 2742 
Q 2594 3103 2138 3103 
Q 1681 3103 1420 2742 
Q 1159 2381 1159 1747 
Q 1159 1113 1420 752 
Q 1681 391 2138 391 
Q 2594 391 2855 752 
Q 3116 1113 3116 1747 
z
M 1159 2969 
Q 1341 3281 1617 3432 
Q 1894 3584 2278 3584 
Q 2916 3584 3314 3078 
Q 3713 2572 3713 1747 
Q 3713 922 3314 415 
Q 2916 -91 2278 -91 
Q 1894 -91 1617 61 
Q 1341 213 1159 525 
L 1159 0 
L 581 0 
L 581 4863 
L 1159 4863 
L 1159 2969 
z
" transform="scale(0.015625)"/>
      <path id="DejaVuSans-79" d="M 2059 -325 
Q 1816 -950 1584 -1140 
Q 1353 -1331 966 -1331 
L 506 -1331 
L 506 -850 
L 844 -850 
Q 1081 -850 1212 -737 
Q 1344 -625 1503 -206 
L 1606 56 
L 191 3500 
L 800 3500 
L 1894 763 
L 2988 3500 
L 3597 3500 
L 2059 -325 
z
" transform="scale(0.015625)"/>
      <path id="DejaVuSans-3bc" d="M 544 -1331 
L 544 3500 
L 1119 3500 
L 1119 1325 
Q 1119 872 1334 640 
Q 1550 409 1972 409 
Q 2434 409 2667 671 
Q 2900 934 2900 1459 
L 2900 3500 
L 3475 3500 
L 3475 806 
Q 3475 619 3529 530 
Q 3584 441 3700 441 
Q 3728 441 3778 458 
Q 3828 475 3916 513 
L 3916 50 
Q 3788 -22 3673 -56 
Q 3559 -91 3450 -91 
Q 3234 -91 3106 31 
Q 2978 153 2931 403 
Q 2775 156 2548 32 
Q 2322 -91 2016 -91 
Q 1697 -91 1473 31 
Q 1250 153 1119 397 
L 1119 -1331 
L 544 -1331 
z
" transform="scale(0.015625)"/>
      <path id="DejaVuSans-2c" d="M 750 794 
L 1409 794 
L 1409 256 
L 897 -744 
L 494 -744 
L 750 256 
L 750 794 
z
" transform="scale(0.015625)"/>
      <path id="DejaVuSans-3c3" d="M 1959 3044 
Q 1484 3044 1228 2700 
Q 959 2341 959 1747 
Q 959 1119 1226 758 
Q 1494 397 1959 397 
Q 2419 397 2687 759 
Q 2956 1122 2956 1747 
Q 2956 2319 2688 2700 
Q 2441 3044 1959 3044 
z
M 1959 3500 
L 3869 3500 
L 3869 2925 
L 3225 2925 
Q 3566 2438 3566 1747 
Q 3566 888 3138 400 
Q 2709 -91 1959 -91 
Q 1206 -91 781 400 
Q 353 888 353 1747 
Q 353 2613 781 3097 
Q 1134 3500 1959 3500 
z
" transform="scale(0.015625)"/>
     </defs>
     <use xlink:href="#DejaVuSans-4e"/>
     <use xlink:href="#DejaVuSans-6f" transform="translate(74.804688 0)"/>
     <use xlink:href="#DejaVuSans-72" transform="translate(135.986328 0)"/>
     <use xlink:href="#DejaVuSans-6d" transform="translate(175.349609 0)"/>
     <use xlink:href="#DejaVuSans-61" transform="translate(272.761719 0)"/>
     <use xlink:href="#DejaVuSans-6c" transform="translate(334.041016 0)"/>
     <use xlink:href="#DejaVuSans-3a" transform="translate(361.824219 0)"/>
     <use xlink:href="#DejaVuSans-20" transform="translate(395.515625 0)"/>
     <use xlink:href="#DejaVuSans-73" transform="translate(427.302734 0)"/>
     <use xlink:href="#DejaVuSans-68" transform="translate(479.402344 0)"/>
     <use xlink:href="#DejaVuSans-61" transform="translate(542.78125 0)"/>
     <use xlink:href="#DejaVuSans-70" transform="translate(604.060547 0)"/>
     <use xlink:href="#DejaVuSans-65" transform="translate(667.537109 0)"/>
     <use xlink:href="#DejaVuSans-20" transform="translate(729.060547 0)"/>
     <use xlink:href="#DejaVuSans-64" transform="translate(760.847656 0)"/>
     <use xlink:href="#DejaVuSans-65" transform="translate(824.324219 0)"/>
     <use xlink:href="#DejaVuSans-74" transform="translate(885.847656 0)"/>
     <use xlink:href="#DejaVuSans-65" transform="translate(925.056641 0)"/>
     <use xlink:href="#DejaVuSans-72" transform="translate(986.580078 0)"/>
     <use xlink:href="#DejaVuSans-6d" transform="translate(1025.943359 0)"/>
     <use xlink:href="#DejaVuSans-69" transform="translate(1123.355469 0)"/>
     <use xlink:href="#DejaVuSans-6e" transform="translate(1151.138672 0)"/>
     <use xlink:href="#DejaVuSans-65" transform="translate(1214.517578 0)"/>
     <use xlink:href="#DejaVuSans-64" transform="translate(1276.041016 0)"/>
     <use xlink:href="#DejaVuSans-20" transform="translate(1339.517578 0)"/>
     <use xlink:href="#DejaVuSans-62" transform="translate(1371.304688 0)"/>
     <use xlink:href="#DejaVuSans-79" transform="translate(1434.78125 0)"/>
     <use xlink:href="#DejaVuSans-20" transform="translate(1493.960938 0)"/>
     <use xlink:href="#DejaVuSans-28" transform="translate(1525.748047 0)"/>
     <use xlink:href="#DejaVuSans-3bc" transform="translate(1564.761719 0)"/>
     <use xlink:href="#DejaVuSans-2c" transform="translate(1628.384766 0)"/>
     <use xlink:href="#DejaVuSans-20" transform="translate(1660.171875 0)"/>
     <use xlink:href="#DejaVuSans-3c3" transform="translate(1691.958984 0)"/>
     <use xlink:href="#DejaVuSans-29" transform="translate(1755.337891 0)"/>
    </g>
   </g>
   <g id="legend_1">
    <g id="patch_7">
     <path d="M 235.98125 69.149063 
L 322.22375 69.149063 
Q 324.02375 69.149063 324.02375 67.349063 
L 324.02375 28.618125 
Q 324.02375 26.818125 322.22375 26.818125 
L 235.98125 26.818125 
Q 234.18125 26.818125 234.18125 28.618125 
L 234.18125 67.349063 
Q 234.18125 69.149063 235.98125 69.149063 
z
" style="fill: #ffffff; opacity: 0.8; stroke: #cccccc; stroke-linejoin: miter"/>
    </g>
    <g id="line2d_38">
     <path d="M 237.78125 34.106719 
L 246.78125 34.106719 
L 255.78125 34.106719 
" style="fill: none; stroke: #7aa6c2; stroke-width: 2; stroke-linecap: square"/>
    </g>
    <g id="text_21">
     <!-- N(μ=0, σ=1) -->
     <g transform="translate(262.98125 37.256719) scale(0.09 -0.09)">
      <defs>
       <path id="DejaVuSans-3d" d="M 678 2906 
L 4684 2906 
L 4684 2381 
L 678 2381 
L 678 2906 
z
M 678 1631 
L 4684 1631 
L 4684 1100 
L 678 1100 
L 678 1631 
z
" transform="scale(0.015625)"/>
      </defs>
      <use xlink:href="#DejaVuSans-4e"/>
      <use xlink:href="#DejaVuSans-28" transform="translate(74.804688 0)"/>
      <use xlink:href="#DejaVuSans-3bc" transform="translate(113.818359 0)"/>
      <use xlink:href="#DejaVuSans-3d" transform="translate(177.441406 0)"/>
      <use xlink:href="#DejaVuSans-30" transform="translate(261.230469 0)"/>
      <use xlink:href="#DejaVuSans-2c" transform="translate(324.853516 0)"/>
      <use xlink:href="#DejaVuSans-20" transform="translate(356.640625 0)"/>
      <use xlink:href="#DejaVuSans-3c3" transform="translate(388.427734 0)"/>
      <use xlink:href="#DejaVuSans-3d" transform="translate(451.806641 0)"/>
      <use xlink:href="#DejaVuSans-31" transform="translate(535.595703 0)"/>
      <use xlink:href="#DejaVuSans-29" transform="translate(599.21875 0)"/>
     </g>
    </g>
    <g id="line2d_39">
     <path d="M 237.78125 47.317031 
L 246.78125 47.317031 
L 255.78125 47.317031 
" style="fill: none; stroke: #59a14f; stroke-width: 2; stroke-linecap: square"/>
    </g>
    <g id="text_22">
     <!-- N(μ=2, σ=1) -->
     <g transform="translate(262.98125 50.467031) scale(0.09 -0.09)">
      <use xlink:href="#DejaVuSans-4e"/>
      <use xlink:href="#DejaVuSans-28" transform="translate(74.804688 0)"/>
      <use xlink:href="#DejaVuSans-3bc" transform="translate(113.818359 0)"/>
      <use xlink:href="#DejaVuSans-3d" transform="translate(177.441406 0)"/>
      <use xlink:href="#DejaVuSans-32" transform="translate(261.230469 0)"/>
      <use xlink:href="#DejaVuSans-2c" transform="translate(324.853516 0)"/>
      <use xlink:href="#DejaVuSans-20" transform="translate(356.640625 0)"/>
      <use xlink:href="#DejaVuSans-3c3" transform="translate(388.427734 0)"/>
      <use xlink:href="#DejaVuSans-3d" transform="translate(451.806641 0)"/>
      <use xlink:href="#DejaVuSans-31" transform="translate(535.595703 0)"/>
      <use xlink:href="#DejaVuSans-29" transform="translate(599.21875 0)"/>
     </g>
    </g>
    <g id="line2d_40">
     <path d="M 237.78125 60.527344 
L 246.78125 60.527344 
L 255.78125 60.527344 
" style="fill: none; stroke: #e15759; stroke-width: 2; stroke-linecap: square"/>
    </g>
    <g id="text_23">
     <!-- N(μ=0, σ=2) -->
     <g transform="translate(262.98125 63.677344) scale(0.09 -0.09)">
      <use xlink:href="#DejaVuSans-4e"/>
      <use xlink:href="#DejaVuSans-28" transform="translate(74.804688 0)"/>
      <use xlink:href="#DejaVuSans-3bc" transform="translate(113.818359 0)"/>
      <use xlink:href="#DejaVuSans-3d" transform="translate(177.441406 0)"/>
      <use xlink:href="#DejaVuSans-30" transform="translate(261.230469 0)"/>
      <use xlink:href="#DejaVuSans-2c" transform="translate(324.853516 0)"/>
      <use xlink:href="#DejaVuSans-20" transform="translate(356.640625 0)"/>
      <use xlink:href="#DejaVuSans-3c3" transform="translate(388.427734 0)"/>
      <use xlink:href="#DejaVuSans-3d" transform="translate(451.806641 0)"/>
      <use xlink:href="#DejaVuSans-32" transform="translate(535.595703 0)"/>
      <use xlink:href="#DejaVuSans-29" transform="translate(599.21875 0)"/>
     </g>
    </g>
   </g>
  </g>
  <g id="axes_2">
   <g id="patch_8">
    <path d="M 382.54375 241.478125 
L 660.92375 241.478125 
L 660.92375 22.318125 
L 382.54375 22.318125 
z
" style="fill: #ffffff"/>
   </g>
   <g id="matplotlib.axis_3">
    <g id="xtick_9">
     <g id="line2d_41">
      <path d="M 395.197386 241.478125 
L 395.197386 22.318125 
" clip-path="url(#padd4ef3cf4)" style="fill: none; stroke: #b0b0b0; stroke-opacity: 0.25; stroke-width: 0.8; stroke-linecap: square"/>
     </g>
     <g id="line2d_42">
      <g>
       <use xlink:href="#m7aca31c5b0" x="395.197386" y="241.478125" style="stroke: #000000; stroke-width: 0.8"/>
      </g>
     </g>
     <g id="text_24">
      <!-- 0 -->
      <g transform="translate(392.016136 256.076563) scale(0.1 -0.1)">
       <use xlink:href="#DejaVuSans-30"/>
      </g>
     </g>
    </g>
    <g id="xtick_10">
     <g id="line2d_43">
      <path d="M 437.376174 241.478125 
L 437.376174 22.318125 
" clip-path="url(#padd4ef3cf4)" style="fill: none; stroke: #b0b0b0; stroke-opacity: 0.25; stroke-width: 0.8; stroke-linecap: square"/>
     </g>
     <g id="line2d_44">
      <g>
       <use xlink:href="#m7aca31c5b0" x="437.376174" y="241.478125" style="stroke: #000000; stroke-width: 0.8"/>
      </g>
     </g>
     <g id="text_25">
      <!-- 1 -->
      <g transform="translate(434.194924 256.076563) scale(0.1 -0.1)">
       <use xlink:href="#DejaVuSans-31"/>
      </g>
     </g>
    </g>
    <g id="xtick_11">
     <g id="line2d_45">
      <path d="M 479.554962 241.478125 
L 479.554962 22.318125 
" clip-path="url(#padd4ef3cf4)" style="fill: none; stroke: #b0b0b0; stroke-opacity: 0.25; stroke-width: 0.8; stroke-linecap: square"/>
     </g>
     <g id="line2d_46">
      <g>
       <use xlink:href="#m7aca31c5b0" x="479.554962" y="241.478125" style="stroke: #000000; stroke-width: 0.8"/>
      </g>
     </g>
     <g id="text_26">
      <!-- 2 -->
      <g transform="translate(476.373712 256.076563) scale(0.1 -0.1)">
       <use xlink:href="#DejaVuSans-32"/>
      </g>
     </g>
    </g>
    <g id="xtick_12">
     <g id="line2d_47">
      <path d="M 521.73375 241.478125 
L 521.73375 22.318125 
" clip-path="url(#padd4ef3cf4)" style="fill: none; stroke: #b0b0b0; stroke-opacity: 0.25; stroke-width: 0.8; stroke-linecap: square"/>
     </g>
     <g id="line2d_48">
      <g>
       <use xlink:href="#m7aca31c5b0" x="521.73375" y="241.478125" style="stroke: #000000; stroke-width: 0.8"/>
      </g>
     </g>
     <g id="text_27">
      <!-- 3 -->
      <g transform="translate(518.5525 256.076563) scale(0.1 -0.1)">
       <use xlink:href="#DejaVuSans-33"/>
      </g>
     </g>
    </g>
    <g id="xtick_13">
     <g id="line2d_49">
      <path d="M 563.912538 241.478125 
L 563.912538 22.318125 
" clip-path="url(#padd4ef3cf4)" style="fill: none; stroke: #b0b0b0; stroke-opacity: 0.25; stroke-width: 0.8; stroke-linecap: square"/>
     </g>
     <g id="line2d_50">
      <g>
       <use xlink:href="#m7aca31c5b0" x="563.912538" y="241.478125" style="stroke: #000000; stroke-width: 0.8"/>
      </g>
     </g>
     <g id="text_28">
      <!-- 4 -->
      <g transform="translate(560.731288 256.076563) scale(0.1 -0.1)">
       <use xlink:href="#DejaVuSans-34"/>
      </g>
     </g>
    </g>
    <g id="xtick_14">
     <g id="line2d_51">
      <path d="M 606.091326 241.478125 
L 606.091326 22.318125 
" clip-path="url(#padd4ef3cf4)" style="fill: none; stroke: #b0b0b0; stroke-opacity: 0.25; stroke-width: 0.8; stroke-linecap: square"/>
     </g>
     <g id="line2d_52">
      <g>
       <use xlink:href="#m7aca31c5b0" x="606.091326" y="241.478125" style="stroke: #000000; stroke-width: 0.8"/>
      </g>
     </g>
     <g id="text_29">
      <!-- 5 -->
      <g transform="translate(602.910076 256.076563) scale(0.1 -0.1)">
       <use xlink:href="#DejaVuSans-35"/>
      </g>
     </g>
    </g>
    <g id="xtick_15">
     <g id="line2d_53">
      <path d="M 648.270114 241.478125 
L 648.270114 22.318125 
" clip-path="url(#padd4ef3cf4)" style="fill: none; stroke: #b0b0b0; stroke-opacity: 0.25; stroke-width: 0.8; stroke-linecap: square"/>
     </g>
     <g id="line2d_54">
      <g>
       <use xlink:href="#m7aca31c5b0" x="648.270114" y="241.478125" style="stroke: #000000; stroke-width: 0.8"/>
      </g>
     </g>
     <g id="text_30">
      <!-- 6 -->
      <g transform="translate(645.088864 256.076563) scale(0.1 -0.1)">
       <use xlink:href="#DejaVuSans-36"/>
      </g>
     </g>
    </g>
    <g id="text_31">
     <!-- x (wait time) -->
     <g transform="translate(489.89625 269.754687) scale(0.1 -0.1)">
      <defs>
       <path id="DejaVuSans-77" d="M 269 3500 
L 844 3500 
L 1563 769 
L 2278 3500 
L 2956 3500 
L 3675 769 
L 4391 3500 
L 4966 3500 
L 4050 0 
L 3372 0 
L 2619 2869 
L 1863 0 
L 1184 0 
L 269 3500 
z
" transform="scale(0.015625)"/>
      </defs>
      <use xlink:href="#DejaVuSans-78"/>
      <use xlink:href="#DejaVuSans-20" transform="translate(59.179688 0)"/>
      <use xlink:href="#DejaVuSans-28" transform="translate(90.966797 0)"/>
      <use xlink:href="#DejaVuSans-77" transform="translate(129.980469 0)"/>
      <use xlink:href="#DejaVuSans-61" transform="translate(211.767578 0)"/>
      <use xlink:href="#DejaVuSans-69" transform="translate(273.046875 0)"/>
      <use xlink:href="#DejaVuSans-74" transform="translate(300.830078 0)"/>
      <use xlink:href="#DejaVuSans-20" transform="translate(340.039062 0)"/>
      <use xlink:href="#DejaVuSans-74" transform="translate(371.826172 0)"/>
      <use xlink:href="#DejaVuSans-69" transform="translate(411.035156 0)"/>
      <use xlink:href="#DejaVuSans-6d" transform="translate(438.818359 0)"/>
      <use xlink:href="#DejaVuSans-65" transform="translate(536.230469 0)"/>
      <use xlink:href="#DejaVuSans-29" transform="translate(597.753906 0)"/>
     </g>
    </g>
   </g>
   <g id="matplotlib.axis_4">
    <g id="ytick_10">
     <g id="line2d_55">
      <path d="M 382.54375 231.517531 
L 660.92375 231.517531 
" clip-path="url(#padd4ef3cf4)" style="fill: none; stroke: #b0b0b0; stroke-opacity: 0.25; stroke-width: 0.8; stroke-linecap: square"/>
     </g>
     <g id="line2d_56">
      <g>
       <use xlink:href="#m98d59d4de7" x="382.54375" y="231.517531" style="stroke: #000000; stroke-width: 0.8"/>
      </g>
     </g>
     <g id="text_32">
      <!-- 0.00 -->
      <g transform="translate(353.278125 235.31675) scale(0.1 -0.1)">
       <use xlink:href="#DejaVuSans-30"/>
       <use xlink:href="#DejaVuSans-2e" transform="translate(63.623047 0)"/>
       <use xlink:href="#DejaVuSans-30" transform="translate(95.410156 0)"/>
       <use xlink:href="#DejaVuSans-30" transform="translate(159.033203 0)"/>
      </g>
     </g>
    </g>
    <g id="ytick_11">
     <g id="line2d_57">
      <path d="M 382.54375 206.612833 
L 660.92375 206.612833 
" clip-path="url(#padd4ef3cf4)" style="fill: none; stroke: #b0b0b0; stroke-opacity: 0.25; stroke-width: 0.8; stroke-linecap: square"/>
     </g>
     <g id="line2d_58">
      <g>
       <use xlink:href="#m98d59d4de7" x="382.54375" y="206.612833" style="stroke: #000000; stroke-width: 0.8"/>
      </g>
     </g>
     <g id="text_33">
      <!-- 0.25 -->
      <g transform="translate(353.278125 210.412051) scale(0.1 -0.1)">
       <use xlink:href="#DejaVuSans-30"/>
       <use xlink:href="#DejaVuSans-2e" transform="translate(63.623047 0)"/>
       <use xlink:href="#DejaVuSans-32" transform="translate(95.410156 0)"/>
       <use xlink:href="#DejaVuSans-35" transform="translate(159.033203 0)"/>
      </g>
     </g>
    </g>
    <g id="ytick_12">
     <g id="line2d_59">
      <path d="M 382.54375 181.708134 
L 660.92375 181.708134 
" clip-path="url(#padd4ef3cf4)" style="fill: none; stroke: #b0b0b0; stroke-opacity: 0.25; stroke-width: 0.8; stroke-linecap: square"/>
     </g>
     <g id="line2d_60">
      <g>
       <use xlink:href="#m98d59d4de7" x="382.54375" y="181.708134" style="stroke: #000000; stroke-width: 0.8"/>
      </g>
     </g>
     <g id="text_34">
      <!-- 0.50 -->
      <g transform="translate(353.278125 185.507353) scale(0.1 -0.1)">
       <use xlink:href="#DejaVuSans-30"/>
       <use xlink:href="#DejaVuSans-2e" transform="translate(63.623047 0)"/>
       <use xlink:href="#DejaVuSans-35" transform="translate(95.410156 0)"/>
       <use xlink:href="#DejaVuSans-30" transform="translate(159.033203 0)"/>
      </g>
     </g>
    </g>
    <g id="ytick_13">
     <g id="line2d_61">
      <path d="M 382.54375 156.803436 
L 660.92375 156.803436 
" clip-path="url(#padd4ef3cf4)" style="fill: none; stroke: #b0b0b0; stroke-opacity: 0.25; stroke-width: 0.8; stroke-linecap: square"/>
     </g>
     <g id="line2d_62">
      <g>
       <use xlink:href="#m98d59d4de7" x="382.54375" y="156.803436" style="stroke: #000000; stroke-width: 0.8"/>
      </g>
     </g>
     <g id="text_35">
      <!-- 0.75 -->
      <g transform="translate(353.278125 160.602654) scale(0.1 -0.1)">
       <defs>
        <path id="DejaVuSans-37" d="M 525 4666 
L 3525 4666 
L 3525 4397 
L 1831 0 
L 1172 0 
L 2766 4134 
L 525 4134 
L 525 4666 
z
" transform="scale(0.015625)"/>
       </defs>
       <use xlink:href="#DejaVuSans-30"/>
       <use xlink:href="#DejaVuSans-2e" transform="translate(63.623047 0)"/>
       <use xlink:href="#DejaVuSans-37" transform="translate(95.410156 0)"/>
       <use xlink:href="#DejaVuSans-35" transform="translate(159.033203 0)"/>
      </g>
     </g>
    </g>
    <g id="ytick_14">
     <g id="line2d_63">
      <path d="M 382.54375 131.898737 
L 660.92375 131.898737 
" clip-path="url(#padd4ef3cf4)" style="fill: none; stroke: #b0b0b0; stroke-opacity: 0.25; stroke-width: 0.8; stroke-linecap: square"/>
     </g>
     <g id="line2d_64">
      <g>
       <use xlink:href="#m98d59d4de7" x="382.54375" y="131.898737" style="stroke: #000000; stroke-width: 0.8"/>
      </g>
     </g>
     <g id="text_36">
      <!-- 1.00 -->
      <g transform="translate(353.278125 135.697956) scale(0.1 -0.1)">
       <use xlink:href="#DejaVuSans-31"/>
       <use xlink:href="#DejaVuSans-2e" transform="translate(63.623047 0)"/>
       <use xlink:href="#DejaVuSans-30" transform="translate(95.410156 0)"/>
       <use xlink:href="#DejaVuSans-30" transform="translate(159.033203 0)"/>
      </g>
     </g>
    </g>
    <g id="ytick_15">
     <g id="line2d_65">
      <path d="M 382.54375 106.994039 
L 660.92375 106.994039 
" clip-path="url(#padd4ef3cf4)" style="fill: none; stroke: #b0b0b0; stroke-opacity: 0.25; stroke-width: 0.8; stroke-linecap: square"/>
     </g>
     <g id="line2d_66">
      <g>
       <use xlink:href="#m98d59d4de7" x="382.54375" y="106.994039" style="stroke: #000000; stroke-width: 0.8"/>
      </g>
     </g>
     <g id="text_37">
      <!-- 1.25 -->
      <g transform="translate(353.278125 110.793257) scale(0.1 -0.1)">
       <use xlink:href="#DejaVuSans-31"/>
       <use xlink:href="#DejaVuSans-2e" transform="translate(63.623047 0)"/>
       <use xlink:href="#DejaVuSans-32" transform="translate(95.410156 0)"/>
       <use xlink:href="#DejaVuSans-35" transform="translate(159.033203 0)"/>
      </g>
     </g>
    </g>
    <g id="ytick_16">
     <g id="line2d_67">
      <path d="M 382.54375 82.08934 
L 660.92375 82.08934 
" clip-path="url(#padd4ef3cf4)" style="fill: none; stroke: #b0b0b0; stroke-opacity: 0.25; stroke-width: 0.8; stroke-linecap: square"/>
     </g>
     <g id="line2d_68">
      <g>
       <use xlink:href="#m98d59d4de7" x="382.54375" y="82.08934" style="stroke: #000000; stroke-width: 0.8"/>
      </g>
     </g>
     <g id="text_38">
      <!-- 1.50 -->
      <g transform="translate(353.278125 85.888559) scale(0.1 -0.1)">
       <use xlink:href="#DejaVuSans-31"/>
       <use xlink:href="#DejaVuSans-2e" transform="translate(63.623047 0)"/>
       <use xlink:href="#DejaVuSans-35" transform="translate(95.410156 0)"/>
       <use xlink:href="#DejaVuSans-30" transform="translate(159.033203 0)"/>
      </g>
     </g>
    </g>
    <g id="ytick_17">
     <g id="line2d_69">
      <path d="M 382.54375 57.184642 
L 660.92375 57.184642 
" clip-path="url(#padd4ef3cf4)" style="fill: none; stroke: #b0b0b0; stroke-opacity: 0.25; stroke-width: 0.8; stroke-linecap: square"/>
     </g>
     <g id="line2d_70">
      <g>
       <use xlink:href="#m98d59d4de7" x="382.54375" y="57.184642" style="stroke: #000000; stroke-width: 0.8"/>
      </g>
     </g>
     <g id="text_39">
      <!-- 1.75 -->
      <g transform="translate(353.278125 60.98386) scale(0.1 -0.1)">
       <use xlink:href="#DejaVuSans-31"/>
       <use xlink:href="#DejaVuSans-2e" transform="translate(63.623047 0)"/>
       <use xlink:href="#DejaVuSans-37" transform="translate(95.410156 0)"/>
       <use xlink:href="#DejaVuSans-35" transform="translate(159.033203 0)"/>
      </g>
     </g>
    </g>
    <g id="ytick_18">
     <g id="line2d_71">
      <path d="M 382.54375 32.279943 
L 660.92375 32.279943 
" clip-path="url(#padd4ef3cf4)" style="fill: none; stroke: #b0b0b0; stroke-opacity: 0.25; stroke-width: 0.8; stroke-linecap: square"/>
     </g>
     <g id="line2d_72">
      <g>
       <use xlink:href="#m98d59d4de7" x="382.54375" y="32.279943" style="stroke: #000000; stroke-width: 0.8"/>
      </g>
     </g>
     <g id="text_40">
      <!-- 2.00 -->
      <g transform="translate(353.278125 36.079162) scale(0.1 -0.1)">
       <use xlink:href="#DejaVuSans-32"/>
       <use xlink:href="#DejaVuSans-2e" transform="translate(63.623047 0)"/>
       <use xlink:href="#DejaVuSans-30" transform="translate(95.410156 0)"/>
       <use xlink:href="#DejaVuSans-30" transform="translate(159.033203 0)"/>
      </g>
     </g>
    </g>
    <g id="text_41">
     <!-- f(x) -->
     <g transform="translate(347.198438 140.519219) rotate(-90) scale(0.1 -0.1)">
      <use xlink:href="#DejaVuSans-66"/>
      <use xlink:href="#DejaVuSans-28" transform="translate(35.205078 0)"/>
      <use xlink:href="#DejaVuSans-78" transform="translate(74.21875 0)"/>
      <use xlink:href="#DejaVuSans-29" transform="translate(133.398438 0)"/>
     </g>
    </g>
   </g>
   <g id="line2d_73">
    <path d="M 395.197386 181.708134 
L 401.540061 185.315873 
L 407.882736 188.6623 
L 414.225411 191.766342 
L 421.202353 194.921749 
L 428.179296 197.826683 
L 435.156238 200.501027 
L 442.767448 203.176974 
L 450.378658 205.622054 
L 458.624135 208.033422 
L 466.869612 210.220246 
L 475.749357 212.348108 
L 485.26337 214.392615 
L 495.411649 216.33366 
L 506.194197 218.15554 
L 517.611011 219.846896 
L 529.662094 221.400516 
L 542.347443 222.813008 
L 556.301328 224.140072 
L 571.523748 225.358139 
L 588.014702 226.451846 
L 606.40846 227.444269 
L 626.705019 228.315316 
L 648.270114 229.037667 
L 648.270114 229.037667 
" clip-path="url(#padd4ef3cf4)" style="fill: none; stroke: #7aa6c2; stroke-width: 2; stroke-linecap: square"/>
   </g>
   <g id="line2d_74">
    <path d="M 395.197386 131.898737 
L 398.368724 139.114214 
L 401.540061 145.807069 
L 404.711399 152.015153 
L 407.882736 157.773581 
L 411.054074 163.11492 
L 414.225411 168.069382 
L 417.396748 172.664988 
L 420.568086 176.927729 
L 424.373691 181.637461 
L 428.179296 185.940861 
L 431.984901 189.872986 
L 435.790506 193.465867 
L 439.59611 196.748772 
L 443.401715 199.748444 
L 447.20732 202.48932 
L 451.647193 205.389598 
L 456.087065 208.000102 
L 460.526938 210.349784 
L 464.96681 212.464704 
L 470.04095 214.624271 
L 475.11509 216.539059 
L 480.823497 218.435028 
L 486.531904 220.091007 
L 492.874579 221.686327 
L 499.217254 223.058916 
L 506.194197 224.34849 
L 513.805406 225.532145 
L 522.050884 226.594955 
L 531.564896 227.58899 
L 542.347443 228.475185 
L 554.398526 229.231277 
L 568.35241 229.875247 
L 584.843365 230.406698 
L 605.139925 230.830992 
L 631.779159 231.152463 
L 648.270114 231.270601 
L 648.270114 231.270601 
" clip-path="url(#padd4ef3cf4)" style="fill: none; stroke: #59a14f; stroke-width: 2; stroke-linecap: square"/>
   </g>
   <g id="line2d_75">
    <path d="M 395.197386 32.279943 
L 397.734456 54.86278 
L 400.271526 74.885936 
L 402.808596 92.639543 
L 405.345666 108.380844 
L 407.882736 122.337928 
L 410.419806 134.713028 
L 412.956876 145.685457 
L 415.493946 155.414202 
L 418.031016 164.04023 
L 420.568086 171.68853 
L 423.105156 178.469924 
L 425.642226 184.482672 
L 428.179296 189.813898 
L 430.716366 194.540849 
L 433.253436 198.732018 
L 435.790506 202.448133 
L 438.327575 205.743041 
L 440.864645 208.664483 
L 443.401715 211.254791 
L 445.938785 213.551497 
L 448.475855 215.58788 
L 451.647193 217.811907 
L 454.81853 219.725425 
L 457.989868 221.371786 
L 461.161205 222.78829 
L 464.96681 224.229544 
L 468.772415 225.432838 
L 473.212287 226.58797 
L 477.65216 227.523809 
L 482.7263 228.377847 
L 488.434707 229.122382 
L 495.411649 229.797025 
L 503.657127 230.353789 
L 513.805406 230.798292 
L 527.125024 231.135075 
L 545.518781 231.357649 
L 576.597888 231.480905 
L 648.270114 231.516307 
L 648.270114 231.516307 
" clip-path="url(#padd4ef3cf4)" style="fill: none; stroke: #e15759; stroke-width: 2; stroke-linecap: square"/>
   </g>
   <g id="patch_9">
    <path d="M 382.54375 241.478125 
L 382.54375 22.318125 
" style="fill: none; stroke: #000000; stroke-width: 0.8; stroke-linejoin: miter; stroke-linecap: square"/>
   </g>
   <g id="patch_10">
    <path d="M 660.92375 241.478125 
L 660.92375 22.318125 
" style="fill: none; stroke: #000000; stroke-width: 0.8; stroke-linejoin: miter; stroke-linecap: square"/>
   </g>
   <g id="patch_11">
    <path d="M 382.54375 241.478125 
L 660.92375 241.478125 
" style="fill: none; stroke: #000000; stroke-width: 0.8; stroke-linejoin: miter; stroke-linecap: square"/>
   </g>
   <g id="patch_12">
    <path d="M 382.54375 22.318125 
L 660.92375 22.318125 
" style="fill: none; stroke: #000000; stroke-width: 0.8; stroke-linejoin: miter; stroke-linecap: square"/>
   </g>
   <g id="text_42">
    <!-- Exponential: waiting time between events -->
    <g transform="translate(395.004375 16.318125) scale(0.12 -0.12)">
     <defs>
      <path id="DejaVuSans-45" d="M 628 4666 
L 3578 4666 
L 3578 4134 
L 1259 4134 
L 1259 2753 
L 3481 2753 
L 3481 2222 
L 1259 2222 
L 1259 531 
L 3634 531 
L 3634 0 
L 628 0 
L 628 4666 
z
" transform="scale(0.015625)"/>
      <path id="DejaVuSans-67" d="M 2906 1791 
Q 2906 2416 2648 2759 
Q 2391 3103 1925 3103 
Q 1463 3103 1205 2759 
Q 947 2416 947 1791 
Q 947 1169 1205 825 
Q 1463 481 1925 481 
Q 2391 481 2648 825 
Q 2906 1169 2906 1791 
z
M 3481 434 
Q 3481 -459 3084 -895 
Q 2688 -1331 1869 -1331 
Q 1566 -1331 1297 -1286 
Q 1028 -1241 775 -1147 
L 775 -588 
Q 1028 -725 1275 -790 
Q 1522 -856 1778 -856 
Q 2344 -856 2625 -561 
Q 2906 -266 2906 331 
L 2906 616 
Q 2728 306 2450 153 
Q 2172 0 1784 0 
Q 1141 0 747 490 
Q 353 981 353 1791 
Q 353 2603 747 3093 
Q 1141 3584 1784 3584 
Q 2172 3584 2450 3431 
Q 2728 3278 2906 2969 
L 2906 3500 
L 3481 3500 
L 3481 434 
z
" transform="scale(0.015625)"/>
      <path id="DejaVuSans-76" d="M 191 3500 
L 800 3500 
L 1894 563 
L 2988 3500 
L 3597 3500 
L 2284 0 
L 1503 0 
L 191 3500 
z
" transform="scale(0.015625)"/>
     </defs>
     <use xlink:href="#DejaVuSans-45"/>
     <use xlink:href="#DejaVuSans-78" transform="translate(63.183594 0)"/>
     <use xlink:href="#DejaVuSans-70" transform="translate(122.363281 0)"/>
     <use xlink:href="#DejaVuSans-6f" transform="translate(185.839844 0)"/>
     <use xlink:href="#DejaVuSans-6e" transform="translate(247.021484 0)"/>
     <use xlink:href="#DejaVuSans-65" transform="translate(310.400391 0)"/>
     <use xlink:href="#DejaVuSans-6e" transform="translate(371.923828 0)"/>
     <use xlink:href="#DejaVuSans-74" transform="translate(435.302734 0)"/>
     <use xlink:href="#DejaVuSans-69" transform="translate(474.511719 0)"/>
     <use xlink:href="#DejaVuSans-61" transform="translate(502.294922 0)"/>
     <use xlink:href="#DejaVuSans-6c" transform="translate(563.574219 0)"/>
     <use xlink:href="#DejaVuSans-3a" transform="translate(591.357422 0)"/>
     <use xlink:href="#DejaVuSans-20" transform="translate(625.048828 0)"/>
     <use xlink:href="#DejaVuSans-77" transform="translate(656.835938 0)"/>
     <use xlink:href="#DejaVuSans-61" transform="translate(738.623047 0)"/>
     <use xlink:href="#DejaVuSans-69" transform="translate(799.902344 0)"/>
     <use xlink:href="#DejaVuSans-74" transform="translate(827.685547 0)"/>
     <use xlink:href="#DejaVuSans-69" transform="translate(866.894531 0)"/>
     <use xlink:href="#DejaVuSans-6e" transform="translate(894.677734 0)"/>
     <use xlink:href="#DejaVuSans-67" transform="translate(958.056641 0)"/>
     <use xlink:href="#DejaVuSans-20" transform="translate(1021.533203 0)"/>
     <use xlink:href="#DejaVuSans-74" transform="translate(1053.320312 0)"/>
     <use xlink:href="#DejaVuSans-69" transform="translate(1092.529297 0)"/>
     <use xlink:href="#DejaVuSans-6d" transform="translate(1120.3125 0)"/>
     <use xlink:href="#DejaVuSans-65" transform="translate(1217.724609 0)"/>
     <use xlink:href="#DejaVuSans-20" transform="translate(1279.248047 0)"/>
     <use xlink:href="#DejaVuSans-62" transform="translate(1311.035156 0)"/>
     <use xlink:href="#DejaVuSans-65" transform="translate(1374.511719 0)"/>
     <use xlink:href="#DejaVuSans-74" transform="translate(1436.035156 0)"/>
     <use xlink:href="#DejaVuSans-77" transform="translate(1475.244141 0)"/>
     <use xlink:href="#DejaVuSans-65" transform="translate(1557.03125 0)"/>
     <use xlink:href="#DejaVuSans-65" transform="translate(1618.554688 0)"/>
     <use xlink:href="#DejaVuSans-6e" transform="translate(1680.078125 0)"/>
     <use xlink:href="#DejaVuSans-20" transform="translate(1743.457031 0)"/>
     <use xlink:href="#DejaVuSans-65" transform="translate(1775.244141 0)"/>
     <use xlink:href="#DejaVuSans-76" transform="translate(1836.767578 0)"/>
     <use xlink:href="#DejaVuSans-65" transform="translate(1895.947266 0)"/>
     <use xlink:href="#DejaVuSans-6e" transform="translate(1957.470703 0)"/>
     <use xlink:href="#DejaVuSans-74" transform="translate(2020.849609 0)"/>
     <use xlink:href="#DejaVuSans-73" transform="translate(2060.058594 0)"/>
    </g>
   </g>
   <g id="legend_2">
    <g id="patch_13">
     <path d="M 574.892187 69.149063 
L 654.62375 69.149063 
Q 656.42375 69.149063 656.42375 67.349063 
L 656.42375 28.618125 
Q 656.42375 26.818125 654.62375 26.818125 
L 574.892187 26.818125 
Q 573.092187 26.818125 573.092187 28.618125 
L 573.092187 67.349063 
Q 573.092187 69.149063 574.892187 69.149063 
z
" style="fill: #ffffff; opacity: 0.8; stroke: #cccccc; stroke-linejoin: miter"/>
    </g>
    <g id="line2d_76">
     <path d="M 576.692187 34.106719 
L 585.692187 34.106719 
L 594.692187 34.106719 
" style="fill: none; stroke: #7aa6c2; stroke-width: 2; stroke-linecap: square"/>
    </g>
    <g id="text_43">
     <!-- Exp(λ=0.5) -->
     <g transform="translate(601.892187 37.256719) scale(0.09 -0.09)">
      <defs>
       <path id="DejaVuSans-3bb" d="M 1981 4316 
L 3597 0 
L 2988 0 
L 2006 2588 
L 800 0 
L 191 0 
L 1725 3356 
L 1494 3975 
Q 1347 4369 1013 4369 
L 713 4369 
L 713 4863 
L 1078 4856 
Q 1784 4847 1981 4316 
z
" transform="scale(0.015625)"/>
      </defs>
      <use xlink:href="#DejaVuSans-45"/>
      <use xlink:href="#DejaVuSans-78" transform="translate(63.183594 0)"/>
      <use xlink:href="#DejaVuSans-70" transform="translate(122.363281 0)"/>
      <use xlink:href="#DejaVuSans-28" transform="translate(185.839844 0)"/>
      <use xlink:href="#DejaVuSans-3bb" transform="translate(224.853516 0)"/>
      <use xlink:href="#DejaVuSans-3d" transform="translate(284.033203 0)"/>
      <use xlink:href="#DejaVuSans-30" transform="translate(367.822266 0)"/>
      <use xlink:href="#DejaVuSans-2e" transform="translate(431.445312 0)"/>
      <use xlink:href="#DejaVuSans-35" transform="translate(463.232422 0)"/>
      <use xlink:href="#DejaVuSans-29" transform="translate(526.855469 0)"/>
     </g>
    </g>
    <g id="line2d_77">
     <path d="M 576.692187 47.317031 
L 585.692187 47.317031 
L 594.692187 47.317031 
" style="fill: none; stroke: #59a14f; stroke-width: 2; stroke-linecap: square"/>
    </g>
    <g id="text_44">
     <!-- Exp(λ=1.0) -->
     <g transform="translate(601.892187 50.467031) scale(0.09 -0.09)">
      <use xlink:href="#DejaVuSans-45"/>
      <use xlink:href="#DejaVuSans-78" transform="translate(63.183594 0)"/>
      <use xlink:href="#DejaVuSans-70" transform="translate(122.363281 0)"/>
      <use xlink:href="#DejaVuSans-28" transform="translate(185.839844 0)"/>
      <use xlink:href="#DejaVuSans-3bb" transform="translate(224.853516 0)"/>
      <use xlink:href="#DejaVuSans-3d" transform="translate(284.033203 0)"/>
      <use xlink:href="#DejaVuSans-31" transform="translate(367.822266 0)"/>
      <use xlink:href="#DejaVuSans-2e" transform="translate(431.445312 0)"/>
      <use xlink:href="#DejaVuSans-30" transform="translate(463.232422 0)"/>
      <use xlink:href="#DejaVuSans-29" transform="translate(526.855469 0)"/>
     </g>
    </g>
    <g id="line2d_78">
     <path d="M 576.692187 60.527344 
L 585.692187 60.527344 
L 594.692187 60.527344 
" style="fill: none; stroke: #e15759; stroke-width: 2; stroke-linecap: square"/>
    </g>
    <g id="text_45">
     <!-- Exp(λ=2.0) -->
     <g transform="translate(601.892187 63.677344) scale(0.09 -0.09)">
      <use xlink:href="#DejaVuSans-45"/>
      <use xlink:href="#DejaVuSans-78" transform="translate(63.183594 0)"/>
      <use xlink:href="#DejaVuSans-70" transform="translate(122.363281 0)"/>
      <use xlink:href="#DejaVuSans-28" transform="translate(185.839844 0)"/>
      <use xlink:href="#DejaVuSans-3bb" transform="translate(224.853516 0)"/>
      <use xlink:href="#DejaVuSans-3d" transform="translate(284.033203 0)"/>
      <use xlink:href="#DejaVuSans-32" transform="translate(367.822266 0)"/>
      <use xlink:href="#DejaVuSans-2e" transform="translate(431.445312 0)"/>
      <use xlink:href="#DejaVuSans-30" transform="translate(463.232422 0)"/>
      <use xlink:href="#DejaVuSans-29" transform="translate(526.855469 0)"/>
     </g>
    </g>
   </g>
  </g>
  <g id="axes_3">
   <g id="patch_14">
    <path d="M 714.94375 241.478125 
L 993.32375 241.478125 
L 993.32375 22.318125 
L 714.94375 22.318125 
z
" style="fill: #ffffff"/>
   </g>
   <g id="matplotlib.axis_5">
    <g id="xtick_16">
     <g id="line2d_79">
      <path d="M 727.343806 241.478125 
L 727.343806 22.318125 
" clip-path="url(#ped8b87ef35)" style="fill: none; stroke: #b0b0b0; stroke-opacity: 0.25; stroke-width: 0.8; stroke-linecap: square"/>
     </g>
     <g id="line2d_80">
      <g>
       <use xlink:href="#m7aca31c5b0" x="727.343806" y="241.478125" style="stroke: #000000; stroke-width: 0.8"/>
      </g>
     </g>
     <g id="text_46">
      <!-- 0.0 -->
      <g transform="translate(719.392244 256.076563) scale(0.1 -0.1)">
       <use xlink:href="#DejaVuSans-30"/>
       <use xlink:href="#DejaVuSans-2e" transform="translate(63.623047 0)"/>
       <use xlink:href="#DejaVuSans-30" transform="translate(95.410156 0)"/>
      </g>
     </g>
    </g>
    <g id="xtick_17">
     <g id="line2d_81">
      <path d="M 778.059784 241.478125 
L 778.059784 22.318125 
" clip-path="url(#ped8b87ef35)" style="fill: none; stroke: #b0b0b0; stroke-opacity: 0.25; stroke-width: 0.8; stroke-linecap: square"/>
     </g>
     <g id="line2d_82">
      <g>
       <use xlink:href="#m7aca31c5b0" x="778.059784" y="241.478125" style="stroke: #000000; stroke-width: 0.8"/>
      </g>
     </g>
     <g id="text_47">
      <!-- 0.2 -->
      <g transform="translate(770.108221 256.076563) scale(0.1 -0.1)">
       <use xlink:href="#DejaVuSans-30"/>
       <use xlink:href="#DejaVuSans-2e" transform="translate(63.623047 0)"/>
       <use xlink:href="#DejaVuSans-32" transform="translate(95.410156 0)"/>
      </g>
     </g>
    </g>
    <g id="xtick_18">
     <g id="line2d_83">
      <path d="M 828.775761 241.478125 
L 828.775761 22.318125 
" clip-path="url(#ped8b87ef35)" style="fill: none; stroke: #b0b0b0; stroke-opacity: 0.25; stroke-width: 0.8; stroke-linecap: square"/>
     </g>
     <g id="line2d_84">
      <g>
       <use xlink:href="#m7aca31c5b0" x="828.775761" y="241.478125" style="stroke: #000000; stroke-width: 0.8"/>
      </g>
     </g>
     <g id="text_48">
      <!-- 0.4 -->
      <g transform="translate(820.824199 256.076563) scale(0.1 -0.1)">
       <use xlink:href="#DejaVuSans-30"/>
       <use xlink:href="#DejaVuSans-2e" transform="translate(63.623047 0)"/>
       <use xlink:href="#DejaVuSans-34" transform="translate(95.410156 0)"/>
      </g>
     </g>
    </g>
    <g id="xtick_19">
     <g id="line2d_85">
      <path d="M 879.491739 241.478125 
L 879.491739 22.318125 
" clip-path="url(#ped8b87ef35)" style="fill: none; stroke: #b0b0b0; stroke-opacity: 0.25; stroke-width: 0.8; stroke-linecap: square"/>
     </g>
     <g id="line2d_86">
      <g>
       <use xlink:href="#m7aca31c5b0" x="879.491739" y="241.478125" style="stroke: #000000; stroke-width: 0.8"/>
      </g>
     </g>
     <g id="text_49">
      <!-- 0.6 -->
      <g transform="translate(871.540176 256.076563) scale(0.1 -0.1)">
       <use xlink:href="#DejaVuSans-30"/>
       <use xlink:href="#DejaVuSans-2e" transform="translate(63.623047 0)"/>
       <use xlink:href="#DejaVuSans-36" transform="translate(95.410156 0)"/>
      </g>
     </g>
    </g>
    <g id="xtick_20">
     <g id="line2d_87">
      <path d="M 930.207716 241.478125 
L 930.207716 22.318125 
" clip-path="url(#ped8b87ef35)" style="fill: none; stroke: #b0b0b0; stroke-opacity: 0.25; stroke-width: 0.8; stroke-linecap: square"/>
     </g>
     <g id="line2d_88">
      <g>
       <use xlink:href="#m7aca31c5b0" x="930.207716" y="241.478125" style="stroke: #000000; stroke-width: 0.8"/>
      </g>
     </g>
     <g id="text_50">
      <!-- 0.8 -->
      <g transform="translate(922.256154 256.076563) scale(0.1 -0.1)">
       <use xlink:href="#DejaVuSans-30"/>
       <use xlink:href="#DejaVuSans-2e" transform="translate(63.623047 0)"/>
       <use xlink:href="#DejaVuSans-38" transform="translate(95.410156 0)"/>
      </g>
     </g>
    </g>
    <g id="xtick_21">
     <g id="line2d_89">
      <path d="M 980.923694 241.478125 
L 980.923694 22.318125 
" clip-path="url(#ped8b87ef35)" style="fill: none; stroke: #b0b0b0; stroke-opacity: 0.25; stroke-width: 0.8; stroke-linecap: square"/>
     </g>
     <g id="line2d_90">
      <g>
       <use xlink:href="#m7aca31c5b0" x="980.923694" y="241.478125" style="stroke: #000000; stroke-width: 0.8"/>
      </g>
     </g>
     <g id="text_51">
      <!-- 1.0 -->
      <g transform="translate(972.972131 256.076563) scale(0.1 -0.1)">
       <use xlink:href="#DejaVuSans-31"/>
       <use xlink:href="#DejaVuSans-2e" transform="translate(63.623047 0)"/>
       <use xlink:href="#DejaVuSans-30" transform="translate(95.410156 0)"/>
      </g>
     </g>
    </g>
    <g id="text_52">
     <!-- p -->
     <g transform="translate(850.959531 269.754687) scale(0.1 -0.1)">
      <use xlink:href="#DejaVuSans-70"/>
     </g>
    </g>
   </g>
   <g id="matplotlib.axis_6">
    <g id="ytick_19">
     <g id="line2d_91">
      <path d="M 714.94375 241.478125 
L 993.32375 241.478125 
" clip-path="url(#ped8b87ef35)" style="fill: none; stroke: #b0b0b0; stroke-opacity: 0.25; stroke-width: 0.8; stroke-linecap: square"/>
     </g>
     <g id="line2d_92">
      <g>
       <use xlink:href="#m98d59d4de7" x="714.94375" y="241.478125" style="stroke: #000000; stroke-width: 0.8"/>
      </g>
     </g>
     <g id="text_53">
      <!-- 0.0 -->
      <g transform="translate(692.040625 245.277344) scale(0.1 -0.1)">
       <use xlink:href="#DejaVuSans-30"/>
       <use xlink:href="#DejaVuSans-2e" transform="translate(63.623047 0)"/>
       <use xlink:href="#DejaVuSans-30" transform="translate(95.410156 0)"/>
      </g>
     </g>
    </g>
    <g id="ytick_20">
     <g id="line2d_93">
      <path d="M 714.94375 210.169554 
L 993.32375 210.169554 
" clip-path="url(#ped8b87ef35)" style="fill: none; stroke: #b0b0b0; stroke-opacity: 0.25; stroke-width: 0.8; stroke-linecap: square"/>
     </g>
     <g id="line2d_94">
      <g>
       <use xlink:href="#m98d59d4de7" x="714.94375" y="210.169554" style="stroke: #000000; stroke-width: 0.8"/>
      </g>
     </g>
     <g id="text_54">
      <!-- 0.5 -->
      <g transform="translate(692.040625 213.968772) scale(0.1 -0.1)">
       <use xlink:href="#DejaVuSans-30"/>
       <use xlink:href="#DejaVuSans-2e" transform="translate(63.623047 0)"/>
       <use xlink:href="#DejaVuSans-35" transform="translate(95.410156 0)"/>
      </g>
     </g>
    </g>
    <g id="ytick_21">
     <g id="line2d_95">
      <path d="M 714.94375 178.860982 
L 993.32375 178.860982 
" clip-path="url(#ped8b87ef35)" style="fill: none; stroke: #b0b0b0; stroke-opacity: 0.25; stroke-width: 0.8; stroke-linecap: square"/>
     </g>
     <g id="line2d_96">
      <g>
       <use xlink:href="#m98d59d4de7" x="714.94375" y="178.860982" style="stroke: #000000; stroke-width: 0.8"/>
      </g>
     </g>
     <g id="text_55">
      <!-- 1.0 -->
      <g transform="translate(692.040625 182.660201) scale(0.1 -0.1)">
       <use xlink:href="#DejaVuSans-31"/>
       <use xlink:href="#DejaVuSans-2e" transform="translate(63.623047 0)"/>
       <use xlink:href="#DejaVuSans-30" transform="translate(95.410156 0)"/>
      </g>
     </g>
    </g>
    <g id="ytick_22">
     <g id="line2d_97">
      <path d="M 714.94375 147.552411 
L 993.32375 147.552411 
" clip-path="url(#ped8b87ef35)" style="fill: none; stroke: #b0b0b0; stroke-opacity: 0.25; stroke-width: 0.8; stroke-linecap: square"/>
     </g>
     <g id="line2d_98">
      <g>
       <use xlink:href="#m98d59d4de7" x="714.94375" y="147.552411" style="stroke: #000000; stroke-width: 0.8"/>
      </g>
     </g>
     <g id="text_56">
      <!-- 1.5 -->
      <g transform="translate(692.040625 151.351629) scale(0.1 -0.1)">
       <use xlink:href="#DejaVuSans-31"/>
       <use xlink:href="#DejaVuSans-2e" transform="translate(63.623047 0)"/>
       <use xlink:href="#DejaVuSans-35" transform="translate(95.410156 0)"/>
      </g>
     </g>
    </g>
    <g id="ytick_23">
     <g id="line2d_99">
      <path d="M 714.94375 116.243839 
L 993.32375 116.243839 
" clip-path="url(#ped8b87ef35)" style="fill: none; stroke: #b0b0b0; stroke-opacity: 0.25; stroke-width: 0.8; stroke-linecap: square"/>
     </g>
     <g id="line2d_100">
      <g>
       <use xlink:href="#m98d59d4de7" x="714.94375" y="116.243839" style="stroke: #000000; stroke-width: 0.8"/>
      </g>
     </g>
     <g id="text_57">
      <!-- 2.0 -->
      <g transform="translate(692.040625 120.043058) scale(0.1 -0.1)">
       <use xlink:href="#DejaVuSans-32"/>
       <use xlink:href="#DejaVuSans-2e" transform="translate(63.623047 0)"/>
       <use xlink:href="#DejaVuSans-30" transform="translate(95.410156 0)"/>
      </g>
     </g>
    </g>
    <g id="ytick_24">
     <g id="line2d_101">
      <path d="M 714.94375 84.935268 
L 993.32375 84.935268 
" clip-path="url(#ped8b87ef35)" style="fill: none; stroke: #b0b0b0; stroke-opacity: 0.25; stroke-width: 0.8; stroke-linecap: square"/>
     </g>
     <g id="line2d_102">
      <g>
       <use xlink:href="#m98d59d4de7" x="714.94375" y="84.935268" style="stroke: #000000; stroke-width: 0.8"/>
      </g>
     </g>
     <g id="text_58">
      <!-- 2.5 -->
      <g transform="translate(692.040625 88.734487) scale(0.1 -0.1)">
       <use xlink:href="#DejaVuSans-32"/>
       <use xlink:href="#DejaVuSans-2e" transform="translate(63.623047 0)"/>
       <use xlink:href="#DejaVuSans-35" transform="translate(95.410156 0)"/>
      </g>
     </g>
    </g>
    <g id="ytick_25">
     <g id="line2d_103">
      <path d="M 714.94375 53.626696 
L 993.32375 53.626696 
" clip-path="url(#ped8b87ef35)" style="fill: none; stroke: #b0b0b0; stroke-opacity: 0.25; stroke-width: 0.8; stroke-linecap: square"/>
     </g>
     <g id="line2d_104">
      <g>
       <use xlink:href="#m98d59d4de7" x="714.94375" y="53.626696" style="stroke: #000000; stroke-width: 0.8"/>
      </g>
     </g>
     <g id="text_59">
      <!-- 3.0 -->
      <g transform="translate(692.040625 57.425915) scale(0.1 -0.1)">
       <use xlink:href="#DejaVuSans-33"/>
       <use xlink:href="#DejaVuSans-2e" transform="translate(63.623047 0)"/>
       <use xlink:href="#DejaVuSans-30" transform="translate(95.410156 0)"/>
      </g>
     </g>
    </g>
    <g id="ytick_26">
     <g id="line2d_105">
      <path d="M 714.94375 22.318125 
L 993.32375 22.318125 
" clip-path="url(#ped8b87ef35)" style="fill: none; stroke: #b0b0b0; stroke-opacity: 0.25; stroke-width: 0.8; stroke-linecap: square"/>
     </g>
     <g id="line2d_106">
      <g>
       <use xlink:href="#m98d59d4de7" x="714.94375" y="22.318125" style="stroke: #000000; stroke-width: 0.8"/>
      </g>
     </g>
     <g id="text_60">
      <!-- 3.5 -->
      <g transform="translate(692.040625 26.117344) scale(0.1 -0.1)">
       <use xlink:href="#DejaVuSans-33"/>
       <use xlink:href="#DejaVuSans-2e" transform="translate(63.623047 0)"/>
       <use xlink:href="#DejaVuSans-35" transform="translate(95.410156 0)"/>
      </g>
     </g>
    </g>
    <g id="text_61">
     <!-- f(p) -->
     <g transform="translate(685.960937 140.734062) rotate(-90) scale(0.1 -0.1)">
      <use xlink:href="#DejaVuSans-66"/>
      <use xlink:href="#DejaVuSans-28" transform="translate(35.205078 0)"/>
      <use xlink:href="#DejaVuSans-70" transform="translate(74.21875 0)"/>
      <use xlink:href="#DejaVuSans-29" transform="translate(137.695312 0)"/>
     </g>
    </g>
   </g>
   <g id="line2d_107">
    <path d="M 727.597386 239.607114 
L 730.134456 221.700169 
L 732.671526 205.224282 
L 735.208596 190.114583 
L 737.745666 176.307963 
L 740.282736 163.74305 
L 742.819806 152.360186 
L 745.356876 142.101403 
L 747.893946 132.910406 
L 750.431016 124.732542 
L 752.333818 119.232055 
L 754.236621 114.249817 
L 756.139423 109.76455 
L 758.042226 105.755475 
L 759.945028 102.202299 
L 761.847831 99.085218 
L 763.750633 96.384907 
L 765.653436 94.082513 
L 767.556238 92.159656 
L 769.45904 90.598416 
L 771.361843 89.381335 
L 773.264645 88.491406 
L 775.167448 87.912069 
L 777.07025 87.627208 
L 778.973053 87.621143 
L 780.875855 87.878626 
L 782.778658 88.384836 
L 784.68146 89.125371 
L 786.584263 90.086245 
L 788.487065 91.253884 
L 791.024135 93.109662 
L 793.561205 95.279536 
L 796.098275 97.734629 
L 799.269612 101.162558 
L 802.44095 104.941604 
L 806.246555 109.871761 
L 810.05216 115.159111 
L 815.1263 122.639069 
L 821.468974 132.460742 
L 846.205406 171.334491 
L 851.913814 179.655726 
L 856.987954 186.678239 
L 862.062094 193.301838 
L 866.501966 198.743179 
L 870.941838 203.836087 
L 875.381711 208.569146 
L 879.821583 212.935894 
L 883.627188 216.385722 
L 887.432793 219.566262 
L 891.238398 222.480904 
L 895.044003 225.134969 
L 898.849608 227.535533 
L 902.655213 229.691261 
L 906.460818 231.612229 
L 910.266423 233.309756 
L 914.706295 235.024383 
L 919.146167 236.472982 
L 923.58604 237.678046 
L 928.025912 238.662992 
L 933.100052 239.549872 
L 938.174192 240.216594 
L 943.882599 240.747808 
L 950.859542 241.150977 
L 959.105019 241.384024 
L 971.156101 241.474149 
L 980.670114 241.478125 
L 980.670114 241.478125 
" clip-path="url(#ped8b87ef35)" style="fill: none; stroke: #7aa6c2; stroke-width: 2; stroke-linecap: square"/>
   </g>
   <g id="line2d_108">
    <path d="M 727.597386 241.478125 
L 737.745666 241.383663 
L 742.185539 241.114427 
L 745.356876 240.730089 
L 748.528213 240.122651 
L 751.065283 239.438624 
L 753.602353 238.548858 
L 756.139423 237.427849 
L 758.676493 236.052483 
L 761.213563 234.402513 
L 763.750633 232.460951 
L 766.287703 230.214371 
L 768.824773 227.65314 
L 771.361843 224.771569 
L 773.898913 221.568 
L 776.435983 218.04483 
L 779.60732 213.201591 
L 782.778658 207.890469 
L 785.949995 202.141835 
L 789.7556 194.721446 
L 793.561205 186.809971 
L 798.001077 177.089016 
L 804.343752 162.620714 
L 815.1263 137.950129 
L 819.566172 128.337844 
L 823.371777 120.585133 
L 826.543114 114.560892 
L 829.714452 109.00418 
L 832.251522 104.936891 
L 834.788592 101.237151 
L 837.325662 97.931337 
L 839.862732 95.043079 
L 841.765534 93.163468 
L 843.668336 91.538022 
L 845.571139 90.173308 
L 847.473941 89.074847 
L 849.376744 88.247084 
L 851.279546 87.693372 
L 853.182349 87.415954 
L 855.085151 87.415954 
L 856.987954 87.693372 
L 858.890756 88.247084 
L 860.793559 89.074847 
L 862.696361 90.173308 
L 864.599164 91.538022 
L 866.501966 93.163468 
L 868.404768 95.043079 
L 870.941838 97.931337 
L 873.478908 101.237151 
L 876.015978 104.936891 
L 878.553048 109.00418 
L 881.724386 114.560892 
L 884.895723 120.585133 
L 888.701328 128.337844 
L 893.1412 137.950129 
L 898.849608 150.893428 
L 912.169225 181.310084 
L 916.609097 190.821359 
L 920.414702 198.498536 
L 924.220307 205.641519 
L 927.391645 211.131788 
L 930.562982 216.165247 
L 933.73432 220.716987 
L 936.27139 224.00084 
L 938.80846 226.962913 
L 941.345529 229.603852 
L 943.882599 231.928343 
L 946.419669 233.945047 
L 948.956739 235.666457 
L 951.493809 237.108697 
L 954.030879 238.291233 
L 956.567949 239.236503 
L 959.105019 239.969463 
L 962.276357 240.628249 
L 965.447694 241.052707 
L 969.253299 241.331547 
L 974.327439 241.46187 
L 980.670114 241.478125 
L 980.670114 241.478125 
" clip-path="url(#ped8b87ef35)" style="fill: none; stroke: #59a14f; stroke-width: 2; stroke-linecap: square"/>
   </g>
   <g id="line2d_109">
    <path d="M 727.597386 241.478125 
L 749.796748 241.372884 
L 758.676493 241.094358 
L 765.653436 240.647402 
L 771.361843 240.068592 
L 776.435983 239.350197 
L 781.510123 238.402649 
L 785.949995 237.357241 
L 790.389868 236.084951 
L 794.82974 234.56259 
L 798.635345 233.041838 
L 802.44095 231.307904 
L 806.246555 229.348564 
L 810.05216 227.152694 
L 813.857765 224.71044 
L 817.66337 222.013392 
L 821.468974 219.054753 
L 825.274579 215.829513 
L 829.080184 212.334619 
L 832.885789 208.569146 
L 837.325662 203.836087 
L 841.765534 198.743179 
L 846.205406 193.301838 
L 850.645279 187.528802 
L 855.719419 180.553937 
L 861.427826 172.278865 
L 867.770501 162.6455 
L 876.015978 149.651916 
L 891.238398 125.541617 
L 896.946805 116.988153 
L 901.386678 110.730222 
L 905.192283 105.735225 
L 908.36362 101.891872 
L 911.534958 98.389699 
L 914.072028 95.867671 
L 916.609097 93.623833 
L 919.146167 91.686756 
L 921.683237 90.086245 
L 923.58604 89.125371 
L 925.488842 88.384836 
L 927.391645 87.878626 
L 929.294447 87.621143 
L 931.19725 87.627208 
L 933.100052 87.912069 
L 935.002855 88.491406 
L 936.905657 89.381335 
L 938.80846 90.598416 
L 940.711262 92.159656 
L 942.614064 94.082513 
L 944.516867 96.384907 
L 946.419669 99.085218 
L 948.322472 102.202299 
L 950.225274 105.755475 
L 952.128077 109.76455 
L 954.030879 114.249817 
L 955.933682 119.232055 
L 957.836484 124.732542 
L 959.739287 130.773058 
L 962.276357 139.705712 
L 964.813426 149.692335 
L 967.350496 160.78881 
L 969.887566 173.052685 
L 972.424636 186.543191 
L 974.961706 201.321272 
L 977.498776 217.4496 
L 980.035846 234.992601 
L 980.670114 239.607114 
L 980.670114 239.607114 
" clip-path="url(#ped8b87ef35)" style="fill: none; stroke: #e15759; stroke-width: 2; stroke-linecap: square"/>
   </g>
   <g id="line2d_110">
    <path d="M 729.106802 -1 
L 729.500189 24.411848 
L 730.134456 50.426358 
L 730.768724 68.803483 
L 731.402991 82.665335 
L 732.037259 93.597471 
L 733.305794 109.933945 
L 734.574329 121.722031 
L 735.842864 130.734654 
L 737.111399 137.907495 
L 738.379934 143.787075 
L 739.648469 148.716795 
L 740.917004 152.924687 
L 742.185539 156.568882 
L 744.088341 161.218269 
L 745.991143 165.115971 
L 747.893946 168.440758 
L 749.796748 171.317045 
L 751.699551 173.834434 
L 754.236621 176.744985 
L 756.773691 179.248881 
L 759.310761 181.428542 
L 761.847831 183.344683 
L 765.019168 185.438065 
L 768.190506 187.257806 
L 771.99611 189.149617 
L 775.801715 190.782586 
L 780.241588 192.422917 
L 784.68146 193.830421 
L 789.7556 195.206245 
L 795.464007 196.510965 
L 801.806682 197.713838 
L 808.783625 198.790814 
L 816.394835 199.722242 
L 824.640312 200.490462 
L 833.520057 201.077286 
L 842.399801 201.442998 
L 851.913814 201.608702 
L 861.427826 201.548684 
L 870.941838 201.259852 
L 879.821583 200.770591 
L 888.067061 200.105569 
L 895.67827 199.285541 
L 902.655213 198.330227 
L 908.997888 197.260722 
L 915.340562 195.959731 
L 921.04897 194.546475 
L 926.12311 193.051968 
L 930.562982 191.517265 
L 934.368587 189.995184 
L 938.174192 188.239596 
L 941.345529 186.559239 
L 944.516867 184.636853 
L 947.688204 182.416399 
L 950.225274 180.375032 
L 952.762344 178.042002 
L 955.299414 175.346802 
L 957.202217 173.0307 
L 959.105019 170.40202 
L 961.007822 167.387613 
L 962.910624 163.887856 
L 964.813426 159.762938 
L 966.081961 156.568882 
L 967.350496 152.924687 
L 968.619031 148.716795 
L 969.887566 143.787075 
L 971.156101 137.907495 
L 972.424636 130.734654 
L 973.693171 121.722031 
L 974.961706 109.933945 
L 975.595974 102.501754 
L 976.230241 93.597471 
L 976.864509 82.665335 
L 977.498776 68.803483 
L 978.133044 50.426358 
L 978.767311 24.411848 
L 979.160698 -1 
L 979.160698 -1 
" clip-path="url(#ped8b87ef35)" style="fill: none; stroke: #b07aa1; stroke-width: 2; stroke-linecap: square"/>
   </g>
   <g id="patch_15">
    <path d="M 714.94375 241.478125 
L 714.94375 22.318125 
" style="fill: none; stroke: #000000; stroke-width: 0.8; stroke-linejoin: miter; stroke-linecap: square"/>
   </g>
   <g id="patch_16">
    <path d="M 993.32375 241.478125 
L 993.32375 22.318125 
" style="fill: none; stroke: #000000; stroke-width: 0.8; stroke-linejoin: miter; stroke-linecap: square"/>
   </g>
   <g id="patch_17">
    <path d="M 714.94375 241.478125 
L 993.32375 241.478125 
" style="fill: none; stroke: #000000; stroke-width: 0.8; stroke-linejoin: miter; stroke-linecap: square"/>
   </g>
   <g id="patch_18">
    <path d="M 714.94375 22.318125 
L 993.32375 22.318125 
" style="fill: none; stroke: #000000; stroke-width: 0.8; stroke-linejoin: miter; stroke-linecap: square"/>
   </g>
   <g id="text_62">
    <!-- Beta: prior over probabilities ∈ (0, 1) -->
    <g transform="translate(742.978125 16.318125) scale(0.12 -0.12)">
     <defs>
      <path id="DejaVuSans-42" d="M 1259 2228 
L 1259 519 
L 2272 519 
Q 2781 519 3026 730 
Q 3272 941 3272 1375 
Q 3272 1813 3026 2020 
Q 2781 2228 2272 2228 
L 1259 2228 
z
M 1259 4147 
L 1259 2741 
L 2194 2741 
Q 2656 2741 2882 2914 
Q 3109 3088 3109 3444 
Q 3109 3797 2882 3972 
Q 2656 4147 2194 4147 
L 1259 4147 
z
M 628 4666 
L 2241 4666 
Q 2963 4666 3353 4366 
Q 3744 4066 3744 3513 
Q 3744 3084 3544 2831 
Q 3344 2578 2956 2516 
Q 3422 2416 3680 2098 
Q 3938 1781 3938 1306 
Q 3938 681 3513 340 
Q 3088 0 2303 0 
L 628 0 
L 628 4666 
z
" transform="scale(0.015625)"/>
      <path id="DejaVuSans-2208" d="M 1072 1959 
Q 1094 1728 1291 1353 
Q 1522 919 1959 675 
Q 2388 438 2850 434 
L 5028 434 
L 5028 -63 
L 2850 -63 
Q 2250 -63 1695 246 
Q 1141 556 844 1106 
Q 547 1656 547 2241 
Q 547 2819 844 3369 
Q 1141 3919 1695 4231 
Q 2250 4544 2850 4544 
L 5028 4544 
L 5028 4047 
L 2850 4047 
Q 2388 4044 1959 3803 
Q 1525 3556 1291 3125 
Q 1091 2750 1063 2459 
L 5028 2459 
L 5028 1959 
L 1072 1959 
z
" transform="scale(0.015625)"/>
     </defs>
     <use xlink:href="#DejaVuSans-42"/>
     <use xlink:href="#DejaVuSans-65" transform="translate(68.603516 0)"/>
     <use xlink:href="#DejaVuSans-74" transform="translate(130.126953 0)"/>
     <use xlink:href="#DejaVuSans-61" transform="translate(169.335938 0)"/>
     <use xlink:href="#DejaVuSans-3a" transform="translate(230.615234 0)"/>
     <use xlink:href="#DejaVuSans-20" transform="translate(264.306641 0)"/>
     <use xlink:href="#DejaVuSans-70" transform="translate(296.09375 0)"/>
     <use xlink:href="#DejaVuSans-72" transform="translate(359.570312 0)"/>
     <use xlink:href="#DejaVuSans-69" transform="translate(400.683594 0)"/>
     <use xlink:href="#DejaVuSans-6f" transform="translate(428.466797 0)"/>
     <use xlink:href="#DejaVuSans-72" transform="translate(489.648438 0)"/>
     <use xlink:href="#DejaVuSans-20" transform="translate(530.761719 0)"/>
     <use xlink:href="#DejaVuSans-6f" transform="translate(562.548828 0)"/>
     <use xlink:href="#DejaVuSans-76" transform="translate(623.730469 0)"/>
     <use xlink:href="#DejaVuSans-65" transform="translate(682.910156 0)"/>
     <use xlink:href="#DejaVuSans-72" transform="translate(744.433594 0)"/>
     <use xlink:href="#DejaVuSans-20" transform="translate(785.546875 0)"/>
     <use xlink:href="#DejaVuSans-70" transform="translate(817.333984 0)"/>
     <use xlink:href="#DejaVuSans-72" transform="translate(880.810547 0)"/>
     <use xlink:href="#DejaVuSans-6f" transform="translate(919.673828 0)"/>
     <use xlink:href="#DejaVuSans-62" transform="translate(980.855469 0)"/>
     <use xlink:href="#DejaVuSans-61" transform="translate(1044.332031 0)"/>
     <use xlink:href="#DejaVuSans-62" transform="translate(1105.611328 0)"/>
     <use xlink:href="#DejaVuSans-69" transform="translate(1169.087891 0)"/>
     <use xlink:href="#DejaVuSans-6c" transform="translate(1196.871094 0)"/>
     <use xlink:href="#DejaVuSans-69" transform="translate(1224.654297 0)"/>
     <use xlink:href="#DejaVuSans-74" transform="translate(1252.4375 0)"/>
     <use xlink:href="#DejaVuSans-69" transform="translate(1291.646484 0)"/>
     <use xlink:href="#DejaVuSans-65" transform="translate(1319.429688 0)"/>
     <use xlink:href="#DejaVuSans-73" transform="translate(1380.953125 0)"/>
     <use xlink:href="#DejaVuSans-20" transform="translate(1433.052734 0)"/>
     <use xlink:href="#DejaVuSans-2208" transform="translate(1464.839844 0)"/>
     <use xlink:href="#DejaVuSans-20" transform="translate(1551.949219 0)"/>
     <use xlink:href="#DejaVuSans-28" transform="translate(1583.736328 0)"/>
     <use xlink:href="#DejaVuSans-30" transform="translate(1622.75 0)"/>
     <use xlink:href="#DejaVuSans-2c" transform="translate(1686.373047 0)"/>
     <use xlink:href="#DejaVuSans-20" transform="translate(1718.160156 0)"/>
     <use xlink:href="#DejaVuSans-31" transform="translate(1749.947266 0)"/>
     <use xlink:href="#DejaVuSans-29" transform="translate(1813.570312 0)"/>
    </g>
   </g>
   <g id="legend_3">
    <g id="patch_19">
     <path d="M 795.514922 82.359375 
L 912.752578 82.359375 
Q 914.552578 82.359375 914.552578 80.559375 
L 914.552578 28.618125 
Q 914.552578 26.818125 912.752578 26.818125 
L 795.514922 26.818125 
Q 793.714922 26.818125 793.714922 28.618125 
L 793.714922 80.559375 
Q 793.714922 82.359375 795.514922 82.359375 
z
" style="fill: #ffffff; opacity: 0.8; stroke: #cccccc; stroke-linejoin: miter"/>
    </g>
    <g id="line2d_111">
     <path d="M 797.314922 34.106719 
L 806.314922 34.106719 
L 815.314922 34.106719 
" style="fill: none; stroke: #7aa6c2; stroke-width: 2; stroke-linecap: square"/>
    </g>
    <g id="text_63">
     <!-- Beta(a=2, b=5) -->
     <g transform="translate(822.514922 37.256719) scale(0.09 -0.09)">
      <use xlink:href="#DejaVuSans-42"/>
      <use xlink:href="#DejaVuSans-65" transform="translate(68.603516 0)"/>
      <use xlink:href="#DejaVuSans-74" transform="translate(130.126953 0)"/>
      <use xlink:href="#DejaVuSans-61" transform="translate(169.335938 0)"/>
      <use xlink:href="#DejaVuSans-28" transform="translate(230.615234 0)"/>
      <use xlink:href="#DejaVuSans-61" transform="translate(269.628906 0)"/>
      <use xlink:href="#DejaVuSans-3d" transform="translate(330.908203 0)"/>
      <use xlink:href="#DejaVuSans-32" transform="translate(414.697266 0)"/>
      <use xlink:href="#DejaVuSans-2c" transform="translate(478.320312 0)"/>
      <use xlink:href="#DejaVuSans-20" transform="translate(510.107422 0)"/>
      <use xlink:href="#DejaVuSans-62" transform="translate(541.894531 0)"/>
      <use xlink:href="#DejaVuSans-3d" transform="translate(605.371094 0)"/>
      <use xlink:href="#DejaVuSans-35" transform="translate(689.160156 0)"/>
      <use xlink:href="#DejaVuSans-29" transform="translate(752.783203 0)"/>
     </g>
    </g>
    <g id="line2d_112">
     <path d="M 797.314922 47.317031 
L 806.314922 47.317031 
L 815.314922 47.317031 
" style="fill: none; stroke: #59a14f; stroke-width: 2; stroke-linecap: square"/>
    </g>
    <g id="text_64">
     <!-- Beta(a=5, b=5) -->
     <g transform="translate(822.514922 50.467031) scale(0.09 -0.09)">
      <use xlink:href="#DejaVuSans-42"/>
      <use xlink:href="#DejaVuSans-65" transform="translate(68.603516 0)"/>
      <use xlink:href="#DejaVuSans-74" transform="translate(130.126953 0)"/>
      <use xlink:href="#DejaVuSans-61" transform="translate(169.335938 0)"/>
      <use xlink:href="#DejaVuSans-28" transform="translate(230.615234 0)"/>
      <use xlink:href="#DejaVuSans-61" transform="translate(269.628906 0)"/>
      <use xlink:href="#DejaVuSans-3d" transform="translate(330.908203 0)"/>
      <use xlink:href="#DejaVuSans-35" transform="translate(414.697266 0)"/>
      <use xlink:href="#DejaVuSans-2c" transform="translate(478.320312 0)"/>
      <use xlink:href="#DejaVuSans-20" transform="translate(510.107422 0)"/>
      <use xlink:href="#DejaVuSans-62" transform="translate(541.894531 0)"/>
      <use xlink:href="#DejaVuSans-3d" transform="translate(605.371094 0)"/>
      <use xlink:href="#DejaVuSans-35" transform="translate(689.160156 0)"/>
      <use xlink:href="#DejaVuSans-29" transform="translate(752.783203 0)"/>
     </g>
    </g>
    <g id="line2d_113">
     <path d="M 797.314922 60.527344 
L 806.314922 60.527344 
L 815.314922 60.527344 
" style="fill: none; stroke: #e15759; stroke-width: 2; stroke-linecap: square"/>
    </g>
    <g id="text_65">
     <!-- Beta(a=5, b=2) -->
     <g transform="translate(822.514922 63.677344) scale(0.09 -0.09)">
      <use xlink:href="#DejaVuSans-42"/>
      <use xlink:href="#DejaVuSans-65" transform="translate(68.603516 0)"/>
      <use xlink:href="#DejaVuSans-74" transform="translate(130.126953 0)"/>
      <use xlink:href="#DejaVuSans-61" transform="translate(169.335938 0)"/>
      <use xlink:href="#DejaVuSans-28" transform="translate(230.615234 0)"/>
      <use xlink:href="#DejaVuSans-61" transform="translate(269.628906 0)"/>
      <use xlink:href="#DejaVuSans-3d" transform="translate(330.908203 0)"/>
      <use xlink:href="#DejaVuSans-35" transform="translate(414.697266 0)"/>
      <use xlink:href="#DejaVuSans-2c" transform="translate(478.320312 0)"/>
      <use xlink:href="#DejaVuSans-20" transform="translate(510.107422 0)"/>
      <use xlink:href="#DejaVuSans-62" transform="translate(541.894531 0)"/>
      <use xlink:href="#DejaVuSans-3d" transform="translate(605.371094 0)"/>
      <use xlink:href="#DejaVuSans-32" transform="translate(689.160156 0)"/>
      <use xlink:href="#DejaVuSans-29" transform="translate(752.783203 0)"/>
     </g>
    </g>
    <g id="line2d_114">
     <path d="M 797.314922 73.737656 
L 806.314922 73.737656 
L 815.314922 73.737656 
" style="fill: none; stroke: #b07aa1; stroke-width: 2; stroke-linecap: square"/>
    </g>
    <g id="text_66">
     <!-- Beta(a=0.5, b=0.5) -->
     <g transform="translate(822.514922 76.887656) scale(0.09 -0.09)">
      <use xlink:href="#DejaVuSans-42"/>
      <use xlink:href="#DejaVuSans-65" transform="translate(68.603516 0)"/>
      <use xlink:href="#DejaVuSans-74" transform="translate(130.126953 0)"/>
      <use xlink:href="#DejaVuSans-61" transform="translate(169.335938 0)"/>
      <use xlink:href="#DejaVuSans-28" transform="translate(230.615234 0)"/>
      <use xlink:href="#DejaVuSans-61" transform="translate(269.628906 0)"/>
      <use xlink:href="#DejaVuSans-3d" transform="translate(330.908203 0)"/>
      <use xlink:href="#DejaVuSans-30" transform="translate(414.697266 0)"/>
      <use xlink:href="#DejaVuSans-2e" transform="translate(478.320312 0)"/>
      <use xlink:href="#DejaVuSans-35" transform="translate(510.107422 0)"/>
      <use xlink:href="#DejaVuSans-2c" transform="translate(573.730469 0)"/>
      <use xlink:href="#DejaVuSans-20" transform="translate(605.517578 0)"/>
      <use xlink:href="#DejaVuSans-62" transform="translate(637.304688 0)"/>
      <use xlink:href="#DejaVuSans-3d" transform="translate(700.78125 0)"/>
      <use xlink:href="#DejaVuSans-30" transform="translate(784.570312 0)"/>
      <use xlink:href="#DejaVuSans-2e" transform="translate(848.193359 0)"/>
      <use xlink:href="#DejaVuSans-35" transform="translate(879.980469 0)"/>
      <use xlink:href="#DejaVuSans-29" transform="translate(943.603516 0)"/>
     </g>
    </g>
   </g>
  </g>
 </g>
 <defs>
  <clipPath id="pbbe24811a2">
   <rect x="50.14375" y="22.318125" width="278.38" height="219.16"/>
  </clipPath>
  <clipPath id="padd4ef3cf4">
   <rect x="382.54375" y="22.318125" width="278.38" height="219.16"/>
  </clipPath>
  <clipPath id="ped8b87ef35">
   <rect x="714.94375" y="22.318125" width="278.38" height="219.16"/>
  </clipPath>
 </defs>
</svg>
