<?xml version="1.0" encoding="utf-8" standalone="no"?>
<!DOCTYPE svg PUBLIC "-//W3C//DTD SVG 1.1//EN"
  "http://www.w3.org/Graphics/SVG/1.1/DTD/svg11.dtd">
<svg xmlns:xlink="http://www.w3.org/1999/xlink" width="640.006071pt" height="315.034375pt" viewBox="0 0 640.006071 315.034375" xmlns="http://www.w3.org/2000/svg" version="1.1">
 <metadata>
  <rdf:RDF xmlns:dc="http://purl.org/dc/elements/1.1/" xmlns:cc="http://creativecommons.org/ns#" xmlns:rdf="http://www.w3.org/1999/02/22-rdf-syntax-ns#">
   <cc:Work>
    <dc:type rdf:resource="http://purl.org/dc/dcmitype/StillImage"/>
    <dc:date>2026-05-26T13:01:07.327681</dc:date>
    <dc:format>image/svg+xml</dc:format>
    <dc:creator>
     <cc:Agent>
      <dc:title>Matplotlib v3.10.8, https://matplotlib.org/</dc:title>
     </cc:Agent>
    </dc:creator>
   </cc:Work>
  </rdf:RDF>
 </metadata>
 <defs>
  <style type="text/css">*{stroke-linejoin: round; stroke-linecap: butt}</style>
 </defs>
 <g id="figure_1">
  <g id="patch_1">
   <path d="M 0 315.034375 
L 640.006071 315.034375 
L 640.006071 0 
L 0 0 
z
" style="fill: #ffffff"/>
  </g>
  <g id="axes_1">
   <g id="patch_2">
    <path d="M 51.378125 277.478125 
L 632.806071 277.478125 
L 632.806071 22.318125 
L 51.378125 22.318125 
z
" style="fill: #ffffff"/>
   </g>
   <g id="matplotlib.axis_1">
    <g id="xtick_1">
     <g id="line2d_1">
      <path d="M 71.115898 277.478125 
L 71.115898 22.318125 
" clip-path="url(#pc7bd61b4bd)" style="fill: none; stroke: #b0b0b0; stroke-opacity: 0.25; stroke-width: 0.8; stroke-linecap: square"/>
     </g>
     <g id="line2d_2">
      <defs>
       <path id="mb375b860c0" d="M 0 0 
L 0 3.5 
" style="stroke: #000000; stroke-width: 0.8"/>
      </defs>
      <g>
       <use xlink:href="#mb375b860c0" x="71.115898" y="277.478125" style="stroke: #000000; stroke-width: 0.8"/>
      </g>
     </g>
     <g id="text_1">
      <!-- 0 -->
      <g transform="translate(67.934648 292.076563) scale(0.1 -0.1)">
       <defs>
        <path id="DejaVuSans-30" d="M 2034 4250 
Q 1547 4250 1301 3770 
Q 1056 3291 1056 2328 
Q 1056 1369 1301 889 
Q 1547 409 2034 409 
Q 2525 409 2770 889 
Q 3016 1369 3016 2328 
Q 3016 3291 2770 3770 
Q 2525 4250 2034 4250 
z
M 2034 4750 
Q 2819 4750 3233 4129 
Q 3647 3509 3647 2328 
Q 3647 1150 3233 529 
Q 2819 -91 2034 -91 
Q 1250 -91 836 529 
Q 422 1150 422 2328 
Q 422 3509 836 4129 
Q 1250 4750 2034 4750 
z
" transform="scale(0.015625)"/>
       </defs>
       <use xlink:href="#DejaVuSans-30"/>
      </g>
     </g>
    </g>
    <g id="xtick_2">
     <g id="line2d_3">
      <path d="M 138.023601 277.478125 
L 138.023601 22.318125 
" clip-path="url(#pc7bd61b4bd)" style="fill: none; stroke: #b0b0b0; stroke-opacity: 0.25; stroke-width: 0.8; stroke-linecap: square"/>
     </g>
     <g id="line2d_4">
      <g>
       <use xlink:href="#mb375b860c0" x="138.023601" y="277.478125" style="stroke: #000000; stroke-width: 0.8"/>
      </g>
     </g>
     <g id="text_2">
      <!-- 10 -->
      <g transform="translate(131.661101 292.076563) scale(0.1 -0.1)">
       <defs>
        <path id="DejaVuSans-31" d="M 794 531 
L 1825 531 
L 1825 4091 
L 703 3866 
L 703 4441 
L 1819 4666 
L 2450 4666 
L 2450 531 
L 3481 531 
L 3481 0 
L 794 0 
L 794 531 
z
" transform="scale(0.015625)"/>
       </defs>
       <use xlink:href="#DejaVuSans-31"/>
       <use xlink:href="#DejaVuSans-30" transform="translate(63.623047 0)"/>
      </g>
     </g>
    </g>
    <g id="xtick_3">
     <g id="line2d_5">
      <path d="M 204.931305 277.478125 
L 204.931305 22.318125 
" clip-path="url(#pc7bd61b4bd)" style="fill: none; stroke: #b0b0b0; stroke-opacity: 0.25; stroke-width: 0.8; stroke-linecap: square"/>
     </g>
     <g id="line2d_6">
      <g>
       <use xlink:href="#mb375b860c0" x="204.931305" y="277.478125" style="stroke: #000000; stroke-width: 0.8"/>
      </g>
     </g>
     <g id="text_3">
      <!-- 20 -->
      <g transform="translate(198.568805 292.076563) scale(0.1 -0.1)">
       <defs>
        <path id="DejaVuSans-32" d="M 1228 531 
L 3431 531 
L 3431 0 
L 469 0 
L 469 531 
Q 828 903 1448 1529 
Q 2069 2156 2228 2338 
Q 2531 2678 2651 2914 
Q 2772 3150 2772 3378 
Q 2772 3750 2511 3984 
Q 2250 4219 1831 4219 
Q 1534 4219 1204 4116 
Q 875 4013 500 3803 
L 500 4441 
Q 881 4594 1212 4672 
Q 1544 4750 1819 4750 
Q 2544 4750 2975 4387 
Q 3406 4025 3406 3419 
Q 3406 3131 3298 2873 
Q 3191 2616 2906 2266 
Q 2828 2175 2409 1742 
Q 1991 1309 1228 531 
z
" transform="scale(0.015625)"/>
       </defs>
       <use xlink:href="#DejaVuSans-32"/>
       <use xlink:href="#DejaVuSans-30" transform="translate(63.623047 0)"/>
      </g>
     </g>
    </g>
    <g id="xtick_4">
     <g id="line2d_7">
      <path d="M 271.839009 277.478125 
L 271.839009 22.318125 
" clip-path="url(#pc7bd61b4bd)" style="fill: none; stroke: #b0b0b0; stroke-opacity: 0.25; stroke-width: 0.8; stroke-linecap: square"/>
     </g>
     <g id="line2d_8">
      <g>
       <use xlink:href="#mb375b860c0" x="271.839009" y="277.478125" style="stroke: #000000; stroke-width: 0.8"/>
      </g>
     </g>
     <g id="text_4">
      <!-- 30 -->
      <g transform="translate(265.476509 292.076563) scale(0.1 -0.1)">
       <defs>
        <path id="DejaVuSans-33" d="M 2597 2516 
Q 3050 2419 3304 2112 
Q 3559 1806 3559 1356 
Q 3559 666 3084 287 
Q 2609 -91 1734 -91 
Q 1441 -91 1130 -33 
Q 819 25 488 141 
L 488 750 
Q 750 597 1062 519 
Q 1375 441 1716 441 
Q 2309 441 2620 675 
Q 2931 909 2931 1356 
Q 2931 1769 2642 2001 
Q 2353 2234 1838 2234 
L 1294 2234 
L 1294 2753 
L 1863 2753 
Q 2328 2753 2575 2939 
Q 2822 3125 2822 3475 
Q 2822 3834 2567 4026 
Q 2313 4219 1838 4219 
Q 1578 4219 1281 4162 
Q 984 4106 628 3988 
L 628 4550 
Q 988 4650 1302 4700 
Q 1616 4750 1894 4750 
Q 2613 4750 3031 4423 
Q 3450 4097 3450 3541 
Q 3450 3153 3228 2886 
Q 3006 2619 2597 2516 
z
" transform="scale(0.015625)"/>
       </defs>
       <use xlink:href="#DejaVuSans-33"/>
       <use xlink:href="#DejaVuSans-30" transform="translate(63.623047 0)"/>
      </g>
     </g>
    </g>
    <g id="xtick_5">
     <g id="line2d_9">
      <path d="M 338.746713 277.478125 
L 338.746713 22.318125 
" clip-path="url(#pc7bd61b4bd)" style="fill: none; stroke: #b0b0b0; stroke-opacity: 0.25; stroke-width: 0.8; stroke-linecap: square"/>
     </g>
     <g id="line2d_10">
      <g>
       <use xlink:href="#mb375b860c0" x="338.746713" y="277.478125" style="stroke: #000000; stroke-width: 0.8"/>
      </g>
     </g>
     <g id="text_5">
      <!-- 40 -->
      <g transform="translate(332.384213 292.076563) scale(0.1 -0.1)">
       <defs>
        <path id="DejaVuSans-34" d="M 2419 4116 
L 825 1625 
L 2419 1625 
L 2419 4116 
z
M 2253 4666 
L 3047 4666 
L 3047 1625 
L 3713 1625 
L 3713 1100 
L 3047 1100 
L 3047 0 
L 2419 0 
L 2419 1100 
L 313 1100 
L 313 1709 
L 2253 4666 
z
" transform="scale(0.015625)"/>
       </defs>
       <use xlink:href="#DejaVuSans-34"/>
       <use xlink:href="#DejaVuSans-30" transform="translate(63.623047 0)"/>
      </g>
     </g>
    </g>
    <g id="xtick_6">
     <g id="line2d_11">
      <path d="M 405.654417 277.478125 
L 405.654417 22.318125 
" clip-path="url(#pc7bd61b4bd)" style="fill: none; stroke: #b0b0b0; stroke-opacity: 0.25; stroke-width: 0.8; stroke-linecap: square"/>
     </g>
     <g id="line2d_12">
      <g>
       <use xlink:href="#mb375b860c0" x="405.654417" y="277.478125" style="stroke: #000000; stroke-width: 0.8"/>
      </g>
     </g>
     <g id="text_6">
      <!-- 50 -->
      <g transform="translate(399.291917 292.076563) scale(0.1 -0.1)">
       <defs>
        <path id="DejaVuSans-35" d="M 691 4666 
L 3169 4666 
L 3169 4134 
L 1269 4134 
L 1269 2991 
Q 1406 3038 1543 3061 
Q 1681 3084 1819 3084 
Q 2600 3084 3056 2656 
Q 3513 2228 3513 1497 
Q 3513 744 3044 326 
Q 2575 -91 1722 -91 
Q 1428 -91 1123 -41 
Q 819 9 494 109 
L 494 744 
Q 775 591 1075 516 
Q 1375 441 1709 441 
Q 2250 441 2565 725 
Q 2881 1009 2881 1497 
Q 2881 1984 2565 2268 
Q 2250 2553 1709 2553 
Q 1456 2553 1204 2497 
Q 953 2441 691 2322 
L 691 4666 
z
" transform="scale(0.015625)"/>
       </defs>
       <use xlink:href="#DejaVuSans-35"/>
       <use xlink:href="#DejaVuSans-30" transform="translate(63.623047 0)"/>
      </g>
     </g>
    </g>
    <g id="xtick_7">
     <g id="line2d_13">
      <path d="M 472.56212 277.478125 
L 472.56212 22.318125 
" clip-path="url(#pc7bd61b4bd)" style="fill: none; stroke: #b0b0b0; stroke-opacity: 0.25; stroke-width: 0.8; stroke-linecap: square"/>
     </g>
     <g id="line2d_14">
      <g>
       <use xlink:href="#mb375b860c0" x="472.56212" y="277.478125" style="stroke: #000000; stroke-width: 0.8"/>
      </g>
     </g>
     <g id="text_7">
      <!-- 60 -->
      <g transform="translate(466.19962 292.076563) scale(0.1 -0.1)">
       <defs>
        <path id="DejaVuSans-36" d="M 2113 2584 
Q 1688 2584 1439 2293 
Q 1191 2003 1191 1497 
Q 1191 994 1439 701 
Q 1688 409 2113 409 
Q 2538 409 2786 701 
Q 3034 994 3034 1497 
Q 3034 2003 2786 2293 
Q 2538 2584 2113 2584 
z
M 3366 4563 
L 3366 3988 
Q 3128 4100 2886 4159 
Q 2644 4219 2406 4219 
Q 1781 4219 1451 3797 
Q 1122 3375 1075 2522 
Q 1259 2794 1537 2939 
Q 1816 3084 2150 3084 
Q 2853 3084 3261 2657 
Q 3669 2231 3669 1497 
Q 3669 778 3244 343 
Q 2819 -91 2113 -91 
Q 1303 -91 875 529 
Q 447 1150 447 2328 
Q 447 3434 972 4092 
Q 1497 4750 2381 4750 
Q 2619 4750 2861 4703 
Q 3103 4656 3366 4563 
z
" transform="scale(0.015625)"/>
       </defs>
       <use xlink:href="#DejaVuSans-36"/>
       <use xlink:href="#DejaVuSans-30" transform="translate(63.623047 0)"/>
      </g>
     </g>
    </g>
    <g id="xtick_8">
     <g id="line2d_15">
      <path d="M 539.469824 277.478125 
L 539.469824 22.318125 
" clip-path="url(#pc7bd61b4bd)" style="fill: none; stroke: #b0b0b0; stroke-opacity: 0.25; stroke-width: 0.8; stroke-linecap: square"/>
     </g>
     <g id="line2d_16">
      <g>
       <use xlink:href="#mb375b860c0" x="539.469824" y="277.478125" style="stroke: #000000; stroke-width: 0.8"/>
      </g>
     </g>
     <g id="text_8">
      <!-- 70 -->
      <g transform="translate(533.107324 292.076563) scale(0.1 -0.1)">
       <defs>
        <path id="DejaVuSans-37" d="M 525 4666 
L 3525 4666 
L 3525 4397 
L 1831 0 
L 1172 0 
L 2766 4134 
L 525 4134 
L 525 4666 
z
" transform="scale(0.015625)"/>
       </defs>
       <use xlink:href="#DejaVuSans-37"/>
       <use xlink:href="#DejaVuSans-30" transform="translate(63.623047 0)"/>
      </g>
     </g>
    </g>
    <g id="xtick_9">
     <g id="line2d_17">
      <path d="M 606.377528 277.478125 
L 606.377528 22.318125 
" clip-path="url(#pc7bd61b4bd)" style="fill: none; stroke: #b0b0b0; stroke-opacity: 0.25; stroke-width: 0.8; stroke-linecap: square"/>
     </g>
     <g id="line2d_18">
      <g>
       <use xlink:href="#mb375b860c0" x="606.377528" y="277.478125" style="stroke: #000000; stroke-width: 0.8"/>
      </g>
     </g>
     <g id="text_9">
      <!-- 80 -->
      <g transform="translate(600.015028 292.076563) scale(0.1 -0.1)">
       <defs>
        <path id="DejaVuSans-38" d="M 2034 2216 
Q 1584 2216 1326 1975 
Q 1069 1734 1069 1313 
Q 1069 891 1326 650 
Q 1584 409 2034 409 
Q 2484 409 2743 651 
Q 3003 894 3003 1313 
Q 3003 1734 2745 1975 
Q 2488 2216 2034 2216 
z
M 1403 2484 
Q 997 2584 770 2862 
Q 544 3141 544 3541 
Q 544 4100 942 4425 
Q 1341 4750 2034 4750 
Q 2731 4750 3128 4425 
Q 3525 4100 3525 3541 
Q 3525 3141 3298 2862 
Q 3072 2584 2669 2484 
Q 3125 2378 3379 2068 
Q 3634 1759 3634 1313 
Q 3634 634 3220 271 
Q 2806 -91 2034 -91 
Q 1263 -91 848 271 
Q 434 634 434 1313 
Q 434 1759 690 2068 
Q 947 2378 1403 2484 
z
M 1172 3481 
Q 1172 3119 1398 2916 
Q 1625 2713 2034 2713 
Q 2441 2713 2670 2916 
Q 2900 3119 2900 3481 
Q 2900 3844 2670 4047 
Q 2441 4250 2034 4250 
Q 1625 4250 1398 4047 
Q 1172 3844 1172 3481 
z
" transform="scale(0.015625)"/>
       </defs>
       <use xlink:href="#DejaVuSans-38"/>
       <use xlink:href="#DejaVuSans-30" transform="translate(63.623047 0)"/>
      </g>
     </g>
    </g>
    <g id="text_10">
     <!-- epoch -->
     <g transform="translate(326.863973 305.754687) scale(0.1 -0.1)">
      <defs>
       <path id="DejaVuSans-65" d="M 3597 1894 
L 3597 1613 
L 953 1613 
Q 991 1019 1311 708 
Q 1631 397 2203 397 
Q 2534 397 2845 478 
Q 3156 559 3463 722 
L 3463 178 
Q 3153 47 2828 -22 
Q 2503 -91 2169 -91 
Q 1331 -91 842 396 
Q 353 884 353 1716 
Q 353 2575 817 3079 
Q 1281 3584 2069 3584 
Q 2775 3584 3186 3129 
Q 3597 2675 3597 1894 
z
M 3022 2063 
Q 3016 2534 2758 2815 
Q 2500 3097 2075 3097 
Q 1594 3097 1305 2825 
Q 1016 2553 972 2059 
L 3022 2063 
z
" transform="scale(0.015625)"/>
       <path id="DejaVuSans-70" d="M 1159 525 
L 1159 -1331 
L 581 -1331 
L 581 3500 
L 1159 3500 
L 1159 2969 
Q 1341 3281 1617 3432 
Q 1894 3584 2278 3584 
Q 2916 3584 3314 3078 
Q 3713 2572 3713 1747 
Q 3713 922 3314 415 
Q 2916 -91 2278 -91 
Q 1894 -91 1617 61 
Q 1341 213 1159 525 
z
M 3116 1747 
Q 3116 2381 2855 2742 
Q 2594 3103 2138 3103 
Q 1681 3103 1420 2742 
Q 1159 2381 1159 1747 
Q 1159 1113 1420 752 
Q 1681 391 2138 391 
Q 2594 391 2855 752 
Q 3116 1113 3116 1747 
z
" transform="scale(0.015625)"/>
       <path id="DejaVuSans-6f" d="M 1959 3097 
Q 1497 3097 1228 2736 
Q 959 2375 959 1747 
Q 959 1119 1226 758 
Q 1494 397 1959 397 
Q 2419 397 2687 759 
Q 2956 1122 2956 1747 
Q 2956 2369 2687 2733 
Q 2419 3097 1959 3097 
z
M 1959 3584 
Q 2709 3584 3137 3096 
Q 3566 2609 3566 1747 
Q 3566 888 3137 398 
Q 2709 -91 1959 -91 
Q 1206 -91 779 398 
Q 353 888 353 1747 
Q 353 2609 779 3096 
Q 1206 3584 1959 3584 
z
" transform="scale(0.015625)"/>
       <path id="DejaVuSans-63" d="M 3122 3366 
L 3122 2828 
Q 2878 2963 2633 3030 
Q 2388 3097 2138 3097 
Q 1578 3097 1268 2742 
Q 959 2388 959 1747 
Q 959 1106 1268 751 
Q 1578 397 2138 397 
Q 2388 397 2633 464 
Q 2878 531 3122 666 
L 3122 134 
Q 2881 22 2623 -34 
Q 2366 -91 2075 -91 
Q 1284 -91 818 406 
Q 353 903 353 1747 
Q 353 2603 823 3093 
Q 1294 3584 2113 3584 
Q 2378 3584 2631 3529 
Q 2884 3475 3122 3366 
z
" transform="scale(0.015625)"/>
       <path id="DejaVuSans-68" d="M 3513 2113 
L 3513 0 
L 2938 0 
L 2938 2094 
Q 2938 2591 2744 2837 
Q 2550 3084 2163 3084 
Q 1697 3084 1428 2787 
Q 1159 2491 1159 1978 
L 1159 0 
L 581 0 
L 581 4863 
L 1159 4863 
L 1159 2956 
Q 1366 3272 1645 3428 
Q 1925 3584 2291 3584 
Q 2894 3584 3203 3211 
Q 3513 2838 3513 2113 
z
" transform="scale(0.015625)"/>
      </defs>
      <use xlink:href="#DejaVuSans-65"/>
      <use xlink:href="#DejaVuSans-70" transform="translate(61.523438 0)"/>
      <use xlink:href="#DejaVuSans-6f" transform="translate(125 0)"/>
      <use xlink:href="#DejaVuSans-63" transform="translate(186.181641 0)"/>
      <use xlink:href="#DejaVuSans-68" transform="translate(241.162109 0)"/>
     </g>
    </g>
   </g>
   <g id="matplotlib.axis_2">
    <g id="ytick_1">
     <g id="line2d_19">
      <path d="M 51.378125 266.790711 
L 632.806071 266.790711 
" clip-path="url(#pc7bd61b4bd)" style="fill: none; stroke: #b0b0b0; stroke-opacity: 0.25; stroke-width: 0.8; stroke-linecap: square"/>
     </g>
     <g id="line2d_20">
      <defs>
       <path id="mb8ec84d929" d="M 0 0 
L -3.5 0 
" style="stroke: #000000; stroke-width: 0.8"/>
      </defs>
      <g>
       <use xlink:href="#mb8ec84d929" x="51.378125" y="266.790711" style="stroke: #000000; stroke-width: 0.8"/>
      </g>
     </g>
     <g id="text_11">
      <!-- $\mathdefault{10^{-2}}$ -->
      <g transform="translate(20.878125 270.58993) scale(0.1 -0.1)">
       <defs>
        <path id="DejaVuSans-2212" d="M 678 2272 
L 4684 2272 
L 4684 1741 
L 678 1741 
L 678 2272 
z
" transform="scale(0.015625)"/>
       </defs>
       <use xlink:href="#DejaVuSans-31" transform="translate(0 0.765625)"/>
       <use xlink:href="#DejaVuSans-30" transform="translate(63.623047 0.765625)"/>
       <use xlink:href="#DejaVuSans-2212" transform="translate(128.203125 39.046875) scale(0.7)"/>
       <use xlink:href="#DejaVuSans-32" transform="translate(186.855469 39.046875) scale(0.7)"/>
      </g>
     </g>
    </g>
    <g id="ytick_2">
     <g id="line2d_21">
      <path d="M 51.378125 114.631983 
L 632.806071 114.631983 
" clip-path="url(#pc7bd61b4bd)" style="fill: none; stroke: #b0b0b0; stroke-opacity: 0.25; stroke-width: 0.8; stroke-linecap: square"/>
     </g>
     <g id="line2d_22">
      <g>
       <use xlink:href="#mb8ec84d929" x="51.378125" y="114.631983" style="stroke: #000000; stroke-width: 0.8"/>
      </g>
     </g>
     <g id="text_12">
      <!-- $\mathdefault{10^{-1}}$ -->
      <g transform="translate(20.878125 118.431201) scale(0.1 -0.1)">
       <use xlink:href="#DejaVuSans-31" transform="translate(0 0.684375)"/>
       <use xlink:href="#DejaVuSans-30" transform="translate(63.623047 0.684375)"/>
       <use xlink:href="#DejaVuSans-2212" transform="translate(128.203125 38.965625) scale(0.7)"/>
       <use xlink:href="#DejaVuSans-31" transform="translate(186.855469 38.965625) scale(0.7)"/>
      </g>
     </g>
    </g>
    <g id="ytick_3">
     <g id="line2d_23">
      <defs>
       <path id="mdba05b6bb0" d="M 0 0 
L -2 0 
" style="stroke: #000000; stroke-width: 0.6"/>
      </defs>
      <g>
       <use xlink:href="#mdba05b6bb0" x="51.378125" y="273.753113" style="stroke: #000000; stroke-width: 0.6"/>
      </g>
     </g>
    </g>
    <g id="ytick_4">
     <g id="line2d_24">
      <g>
       <use xlink:href="#mdba05b6bb0" x="51.378125" y="220.98637" style="stroke: #000000; stroke-width: 0.6"/>
      </g>
     </g>
    </g>
    <g id="ytick_5">
     <g id="line2d_25">
      <g>
       <use xlink:href="#mdba05b6bb0" x="51.378125" y="194.192548" style="stroke: #000000; stroke-width: 0.6"/>
      </g>
     </g>
    </g>
    <g id="ytick_6">
     <g id="line2d_26">
      <g>
       <use xlink:href="#mdba05b6bb0" x="51.378125" y="175.182028" style="stroke: #000000; stroke-width: 0.6"/>
      </g>
     </g>
    </g>
    <g id="ytick_7">
     <g id="line2d_27">
      <g>
       <use xlink:href="#mdba05b6bb0" x="51.378125" y="160.436324" style="stroke: #000000; stroke-width: 0.6"/>
      </g>
     </g>
    </g>
    <g id="ytick_8">
     <g id="line2d_28">
      <g>
       <use xlink:href="#mdba05b6bb0" x="51.378125" y="148.388206" style="stroke: #000000; stroke-width: 0.6"/>
      </g>
     </g>
    </g>
    <g id="ytick_9">
     <g id="line2d_29">
      <g>
       <use xlink:href="#mdba05b6bb0" x="51.378125" y="138.201668" style="stroke: #000000; stroke-width: 0.6"/>
      </g>
     </g>
    </g>
    <g id="ytick_10">
     <g id="line2d_30">
      <g>
       <use xlink:href="#mdba05b6bb0" x="51.378125" y="129.377687" style="stroke: #000000; stroke-width: 0.6"/>
      </g>
     </g>
    </g>
    <g id="ytick_11">
     <g id="line2d_31">
      <g>
       <use xlink:href="#mdba05b6bb0" x="51.378125" y="121.594384" style="stroke: #000000; stroke-width: 0.6"/>
      </g>
     </g>
    </g>
    <g id="ytick_12">
     <g id="line2d_32">
      <g>
       <use xlink:href="#mdba05b6bb0" x="51.378125" y="68.827641" style="stroke: #000000; stroke-width: 0.6"/>
      </g>
     </g>
    </g>
    <g id="ytick_13">
     <g id="line2d_33">
      <g>
       <use xlink:href="#mdba05b6bb0" x="51.378125" y="42.033819" style="stroke: #000000; stroke-width: 0.6"/>
      </g>
     </g>
    </g>
    <g id="ytick_14">
     <g id="line2d_34">
      <g>
       <use xlink:href="#mdba05b6bb0" x="51.378125" y="23.0233" style="stroke: #000000; stroke-width: 0.6"/>
      </g>
     </g>
    </g>
    <g id="text_13">
     <!-- training MSE -->
     <g transform="translate(14.798438 181.504375) rotate(-90) scale(0.1 -0.1)">
      <defs>
       <path id="DejaVuSans-74" d="M 1172 4494 
L 1172 3500 
L 2356 3500 
L 2356 3053 
L 1172 3053 
L 1172 1153 
Q 1172 725 1289 603 
Q 1406 481 1766 481 
L 2356 481 
L 2356 0 
L 1766 0 
Q 1100 0 847 248 
Q 594 497 594 1153 
L 594 3053 
L 172 3053 
L 172 3500 
L 594 3500 
L 594 4494 
L 1172 4494 
z
" transform="scale(0.015625)"/>
       <path id="DejaVuSans-72" d="M 2631 2963 
Q 2534 3019 2420 3045 
Q 2306 3072 2169 3072 
Q 1681 3072 1420 2755 
Q 1159 2438 1159 1844 
L 1159 0 
L 581 0 
L 581 3500 
L 1159 3500 
L 1159 2956 
Q 1341 3275 1631 3429 
Q 1922 3584 2338 3584 
Q 2397 3584 2469 3576 
Q 2541 3569 2628 3553 
L 2631 2963 
z
" transform="scale(0.015625)"/>
       <path id="DejaVuSans-61" d="M 2194 1759 
Q 1497 1759 1228 1600 
Q 959 1441 959 1056 
Q 959 750 1161 570 
Q 1363 391 1709 391 
Q 2188 391 2477 730 
Q 2766 1069 2766 1631 
L 2766 1759 
L 2194 1759 
z
M 3341 1997 
L 3341 0 
L 2766 0 
L 2766 531 
Q 2569 213 2275 61 
Q 1981 -91 1556 -91 
Q 1019 -91 701 211 
Q 384 513 384 1019 
Q 384 1609 779 1909 
Q 1175 2209 1959 2209 
L 2766 2209 
L 2766 2266 
Q 2766 2663 2505 2880 
Q 2244 3097 1772 3097 
Q 1472 3097 1187 3025 
Q 903 2953 641 2809 
L 641 3341 
Q 956 3463 1253 3523 
Q 1550 3584 1831 3584 
Q 2591 3584 2966 3190 
Q 3341 2797 3341 1997 
z
" transform="scale(0.015625)"/>
       <path id="DejaVuSans-69" d="M 603 3500 
L 1178 3500 
L 1178 0 
L 603 0 
L 603 3500 
z
M 603 4863 
L 1178 4863 
L 1178 4134 
L 603 4134 
L 603 4863 
z
" transform="scale(0.015625)"/>
       <path id="DejaVuSans-6e" d="M 3513 2113 
L 3513 0 
L 2938 0 
L 2938 2094 
Q 2938 2591 2744 2837 
Q 2550 3084 2163 3084 
Q 1697 3084 1428 2787 
Q 1159 2491 1159 1978 
L 1159 0 
L 581 0 
L 581 3500 
L 1159 3500 
L 1159 2956 
Q 1366 3272 1645 3428 
Q 1925 3584 2291 3584 
Q 2894 3584 3203 3211 
Q 3513 2838 3513 2113 
z
" transform="scale(0.015625)"/>
       <path id="DejaVuSans-67" d="M 2906 1791 
Q 2906 2416 2648 2759 
Q 2391 3103 1925 3103 
Q 1463 3103 1205 2759 
Q 947 2416 947 1791 
Q 947 1169 1205 825 
Q 1463 481 1925 481 
Q 2391 481 2648 825 
Q 2906 1169 2906 1791 
z
M 3481 434 
Q 3481 -459 3084 -895 
Q 2688 -1331 1869 -1331 
Q 1566 -1331 1297 -1286 
Q 1028 -1241 775 -1147 
L 775 -588 
Q 1028 -725 1275 -790 
Q 1522 -856 1778 -856 
Q 2344 -856 2625 -561 
Q 2906 -266 2906 331 
L 2906 616 
Q 2728 306 2450 153 
Q 2172 0 1784 0 
Q 1141 0 747 490 
Q 353 981 353 1791 
Q 353 2603 747 3093 
Q 1141 3584 1784 3584 
Q 2172 3584 2450 3431 
Q 2728 3278 2906 2969 
L 2906 3500 
L 3481 3500 
L 3481 434 
z
" transform="scale(0.015625)"/>
       <path id="DejaVuSans-20" transform="scale(0.015625)"/>
       <path id="DejaVuSans-4d" d="M 628 4666 
L 1569 4666 
L 2759 1491 
L 3956 4666 
L 4897 4666 
L 4897 0 
L 4281 0 
L 4281 4097 
L 3078 897 
L 2444 897 
L 1241 4097 
L 1241 0 
L 628 0 
L 628 4666 
z
" transform="scale(0.015625)"/>
       <path id="DejaVuSans-53" d="M 3425 4513 
L 3425 3897 
Q 3066 4069 2747 4153 
Q 2428 4238 2131 4238 
Q 1616 4238 1336 4038 
Q 1056 3838 1056 3469 
Q 1056 3159 1242 3001 
Q 1428 2844 1947 2747 
L 2328 2669 
Q 3034 2534 3370 2195 
Q 3706 1856 3706 1288 
Q 3706 609 3251 259 
Q 2797 -91 1919 -91 
Q 1588 -91 1214 -16 
Q 841 59 441 206 
L 441 856 
Q 825 641 1194 531 
Q 1563 422 1919 422 
Q 2459 422 2753 634 
Q 3047 847 3047 1241 
Q 3047 1584 2836 1778 
Q 2625 1972 2144 2069 
L 1759 2144 
Q 1053 2284 737 2584 
Q 422 2884 422 3419 
Q 422 4038 858 4394 
Q 1294 4750 2059 4750 
Q 2388 4750 2728 4690 
Q 3069 4631 3425 4513 
z
" transform="scale(0.015625)"/>
       <path id="DejaVuSans-45" d="M 628 4666 
L 3578 4666 
L 3578 4134 
L 1259 4134 
L 1259 2753 
L 3481 2753 
L 3481 2222 
L 1259 2222 
L 1259 531 
L 3634 531 
L 3634 0 
L 628 0 
L 628 4666 
z
" transform="scale(0.015625)"/>
      </defs>
      <use xlink:href="#DejaVuSans-74"/>
      <use xlink:href="#DejaVuSans-72" transform="translate(39.208984 0)"/>
      <use xlink:href="#DejaVuSans-61" transform="translate(80.322266 0)"/>
      <use xlink:href="#DejaVuSans-69" transform="translate(141.601562 0)"/>
      <use xlink:href="#DejaVuSans-6e" transform="translate(169.384766 0)"/>
      <use xlink:href="#DejaVuSans-69" transform="translate(232.763672 0)"/>
      <use xlink:href="#DejaVuSans-6e" transform="translate(260.546875 0)"/>
      <use xlink:href="#DejaVuSans-67" transform="translate(323.925781 0)"/>
      <use xlink:href="#DejaVuSans-20" transform="translate(387.402344 0)"/>
      <use xlink:href="#DejaVuSans-4d" transform="translate(419.189453 0)"/>
      <use xlink:href="#DejaVuSans-53" transform="translate(505.46875 0)"/>
      <use xlink:href="#DejaVuSans-45" transform="translate(568.945312 0)"/>
     </g>
    </g>
   </g>
   <g id="line2d_35">
    <path d="M 77.806668 33.916307 
L 84.497438 48.921188 
L 91.188209 48.187882 
L 97.878979 47.00153 
L 104.56975 48.499443 
L 111.26052 47.126913 
L 117.95129 49.4451 
L 124.642061 50.15798 
L 131.332831 51.990736 
L 138.023601 59.835658 
L 144.714372 74.08104 
L 151.405142 108.784251 
L 158.095913 156.218872 
L 164.786683 172.532484 
L 171.477453 174.686175 
L 178.168224 178.052801 
L 184.858994 179.358031 
L 191.549764 181.409207 
L 198.240535 182.318298 
L 204.931305 183.538028 
L 211.622076 184.035174 
L 218.312846 184.711555 
L 225.003616 184.90006 
L 231.694387 185.246436 
L 238.385157 185.245963 
L 245.075928 185.423589 
L 251.766698 185.371386 
L 258.457468 185.538642 
L 265.148239 185.502181 
L 271.839009 185.672034 
L 278.529779 185.64633 
L 285.22055 185.812786 
L 291.91132 185.792506 
L 298.602091 185.955244 
L 305.292861 185.937863 
L 311.983631 186.09729 
L 318.674402 186.081281 
L 325.365172 186.239971 
L 332.055942 186.222967 
L 338.746713 186.381603 
L 345.437483 186.361967 
L 352.128254 186.520698 
L 358.819024 186.497687 
L 365.509794 186.657164 
L 372.200565 186.630188 
L 378.891335 186.791197 
L 385.582106 186.759628 
L 392.272876 186.922963 
L 398.963646 186.886134 
L 405.654417 187.052593 
L 412.345187 187.00978 
L 419.035957 187.180164 
L 425.726728 187.130569 
L 432.417498 187.305674 
L 439.108269 187.248361 
L 445.799039 187.428954 
L 452.489809 187.362695 
L 459.18058 187.54941 
L 465.87135 187.472453 
L 472.56212 187.665788 
L 479.252891 187.576133 
L 485.943661 187.777221 
L 492.634432 187.673436 
L 499.325202 187.884564 
L 506.015972 187.765491 
L 512.706743 187.989684 
L 519.397513 187.854052 
L 526.088284 188.094084 
L 532.779054 187.939386 
L 539.469824 188.197848 
L 546.160595 188.021096 
L 552.851365 188.30251 
L 559.542135 188.097191 
L 566.232906 188.409241 
L 572.923676 188.170207 
L 579.614447 188.514623 
L 586.305217 188.237941 
L 592.995987 188.623163 
L 599.686758 188.297033 
L 606.377528 188.736188 
" clip-path="url(#pc7bd61b4bd)" style="fill: none; stroke: #7aa6c2; stroke-width: 2; stroke-linecap: square"/>
   </g>
   <g id="line2d_36">
    <path d="M 77.806668 107.49055 
L 84.497438 133.607091 
L 91.188209 154.256426 
L 97.878979 160.188774 
L 104.56975 169.297985 
L 111.26052 163.693519 
L 117.95129 181.130943 
L 124.642061 171.665274 
L 131.332831 186.155531 
L 138.023601 178.434161 
L 144.714372 182.583111 
L 151.405142 183.296629 
L 158.095913 175.739813 
L 164.786683 188.149407 
L 171.477453 196.272533 
L 178.168224 197.516086 
L 184.858994 203.084165 
L 191.549764 198.336498 
L 198.240535 200.444816 
L 204.931305 185.358283 
L 211.622076 198.859069 
L 218.312846 207.901696 
L 225.003616 208.638827 
L 231.694387 225.690069 
L 238.385157 224.642927 
L 245.075928 216.717694 
L 251.766698 201.048464 
L 258.457468 209.670387 
L 265.148239 216.064841 
L 271.839009 222.627515 
L 278.529779 208.443267 
L 285.22055 216.462691 
L 291.91132 226.262308 
L 298.602091 221.304785 
L 305.292861 224.407397 
L 311.983631 230.637124 
L 318.674402 216.788287 
L 325.365172 228.315142 
L 332.055942 235.324888 
L 338.746713 221.701402 
L 345.437483 231.844638 
L 352.128254 234.117839 
L 358.819024 223.547867 
L 365.509794 227.617021 
L 372.200565 218.133747 
L 378.891335 229.243728 
L 385.582106 231.543028 
L 392.272876 230.651419 
L 398.963646 249.255416 
L 405.654417 239.901195 
L 412.345187 227.168717 
L 419.035957 231.018434 
L 425.726728 236.988064 
L 432.417498 227.444686 
L 439.108269 237.95038 
L 445.799039 247.000991 
L 452.489809 221.486511 
L 459.18058 243.00678 
L 465.87135 241.695717 
L 472.56212 258.731316 
L 479.252891 237.512705 
L 485.943661 244.101418 
L 492.634432 236.048359 
L 499.325202 233.709316 
L 506.015972 232.087005 
L 512.706743 235.995526 
L 519.397513 240.792445 
L 526.088284 235.755535 
L 532.779054 239.48834 
L 539.469824 241.588873 
L 546.160595 257.428136 
L 552.851365 232.199773 
L 559.542135 245.54692 
L 566.232906 244.532804 
L 572.923676 246.156019 
L 579.614447 237.630147 
L 586.305217 243.053069 
L 592.995987 248.184741 
L 599.686758 254.350753 
L 606.377528 265.879943 
" clip-path="url(#pc7bd61b4bd)" style="fill: none; stroke: #59a14f; stroke-width: 2; stroke-linecap: square"/>
   </g>
   <g id="line2d_37">
    <path d="M 77.806668 65.712887 
L 84.497438 157.569432 
L 91.188209 139.914288 
L 97.878979 148.295222 
L 104.56975 158.363598 
L 111.26052 163.811268 
L 117.95129 167.268802 
L 124.642061 173.079883 
L 131.332831 175.039371 
L 138.023601 180.137708 
L 144.714372 182.932849 
L 151.405142 187.474518 
L 158.095913 188.848435 
L 164.786683 193.49648 
L 171.477453 194.915807 
L 178.168224 200.087469 
L 184.858994 199.702002 
L 191.549764 204.622235 
L 198.240535 205.693912 
L 204.931305 208.851455 
L 211.622076 209.681903 
L 218.312846 211.734291 
L 225.003616 212.683968 
L 231.694387 213.370344 
L 238.385157 217.168935 
L 245.075928 217.306767 
L 251.766698 216.848807 
L 258.457468 219.129022 
L 265.148239 222.459085 
L 271.839009 220.847649 
L 278.529779 225.524746 
L 285.22055 223.981446 
L 291.91132 226.257337 
L 298.602091 226.10537 
L 305.292861 229.086043 
L 311.983631 227.830977 
L 318.674402 230.37611 
L 325.365172 230.619942 
L 332.055942 230.473343 
L 338.746713 233.235814 
L 345.437483 232.954792 
L 352.128254 235.915949 
L 358.819024 233.565876 
L 365.509794 235.940187 
L 372.200565 237.311881 
L 378.891335 239.183975 
L 385.582106 236.295759 
L 392.272876 238.120897 
L 398.963646 238.007888 
L 405.654417 240.748059 
L 412.345187 233.368578 
L 419.035957 243.382784 
L 425.726728 235.504008 
L 432.417498 242.861338 
L 439.108269 241.022054 
L 445.799039 244.807205 
L 452.489809 240.655352 
L 459.18058 246.701816 
L 465.87135 246.539522 
L 472.56212 240.777316 
L 479.252891 250.191694 
L 485.943661 242.669149 
L 492.634432 247.420649 
L 499.325202 248.494064 
L 506.015972 245.400544 
L 512.706743 248.342697 
L 519.397513 237.779705 
L 526.088284 247.773399 
L 532.779054 246.113859 
L 539.469824 248.784107 
L 546.160595 247.70825 
L 552.851365 246.293453 
L 559.542135 249.190901 
L 566.232906 247.665731 
L 572.923676 248.622173 
L 579.614447 247.464884 
L 586.305217 250.530183 
L 592.995987 246.527807 
L 599.686758 251.613049 
L 606.377528 248.483816 
" clip-path="url(#pc7bd61b4bd)" style="fill: none; stroke: #e15759; stroke-width: 2; stroke-linecap: square"/>
   </g>
   <g id="patch_3">
    <path d="M 51.378125 277.478125 
L 51.378125 22.318125 
" style="fill: none; stroke: #000000; stroke-width: 0.8; stroke-linejoin: miter; stroke-linecap: square"/>
   </g>
   <g id="patch_4">
    <path d="M 632.806071 277.478125 
L 632.806071 22.318125 
" style="fill: none; stroke: #000000; stroke-width: 0.8; stroke-linejoin: miter; stroke-linecap: square"/>
   </g>
   <g id="patch_5">
    <path d="M 51.378125 277.478125 
L 632.806071 277.478125 
" style="fill: none; stroke: #000000; stroke-width: 0.8; stroke-linejoin: miter; stroke-linecap: square"/>
   </g>
   <g id="patch_6">
    <path d="M 51.378125 22.318125 
L 632.806071 22.318125 
" style="fill: none; stroke: #000000; stroke-width: 0.8; stroke-linejoin: miter; stroke-linecap: square"/>
   </g>
   <g id="text_14">
    <!-- Deep net training: sigmoid converges slowly (vanishing gradient), ReLU is fastest -->
    <g transform="translate(97.891161 16.318125) scale(0.12 -0.12)">
     <defs>
      <path id="DejaVuSans-44" d="M 1259 4147 
L 1259 519 
L 2022 519 
Q 2988 519 3436 956 
Q 3884 1394 3884 2338 
Q 3884 3275 3436 3711 
Q 2988 4147 2022 4147 
L 1259 4147 
z
M 628 4666 
L 1925 4666 
Q 3281 4666 3915 4102 
Q 4550 3538 4550 2338 
Q 4550 1131 3912 565 
Q 3275 0 1925 0 
L 628 0 
L 628 4666 
z
" transform="scale(0.015625)"/>
      <path id="DejaVuSans-3a" d="M 750 794 
L 1409 794 
L 1409 0 
L 750 0 
L 750 794 
z
M 750 3309 
L 1409 3309 
L 1409 2516 
L 750 2516 
L 750 3309 
z
" transform="scale(0.015625)"/>
      <path id="DejaVuSans-73" d="M 2834 3397 
L 2834 2853 
Q 2591 2978 2328 3040 
Q 2066 3103 1784 3103 
Q 1356 3103 1142 2972 
Q 928 2841 928 2578 
Q 928 2378 1081 2264 
Q 1234 2150 1697 2047 
L 1894 2003 
Q 2506 1872 2764 1633 
Q 3022 1394 3022 966 
Q 3022 478 2636 193 
Q 2250 -91 1575 -91 
Q 1294 -91 989 -36 
Q 684 19 347 128 
L 347 722 
Q 666 556 975 473 
Q 1284 391 1588 391 
Q 1994 391 2212 530 
Q 2431 669 2431 922 
Q 2431 1156 2273 1281 
Q 2116 1406 1581 1522 
L 1381 1569 
Q 847 1681 609 1914 
Q 372 2147 372 2553 
Q 372 3047 722 3315 
Q 1072 3584 1716 3584 
Q 2034 3584 2315 3537 
Q 2597 3491 2834 3397 
z
" transform="scale(0.015625)"/>
      <path id="DejaVuSans-6d" d="M 3328 2828 
Q 3544 3216 3844 3400 
Q 4144 3584 4550 3584 
Q 5097 3584 5394 3201 
Q 5691 2819 5691 2113 
L 5691 0 
L 5113 0 
L 5113 2094 
Q 5113 2597 4934 2840 
Q 4756 3084 4391 3084 
Q 3944 3084 3684 2787 
Q 3425 2491 3425 1978 
L 3425 0 
L 2847 0 
L 2847 2094 
Q 2847 2600 2669 2842 
Q 2491 3084 2119 3084 
Q 1678 3084 1418 2786 
Q 1159 2488 1159 1978 
L 1159 0 
L 581 0 
L 581 3500 
L 1159 3500 
L 1159 2956 
Q 1356 3278 1631 3431 
Q 1906 3584 2284 3584 
Q 2666 3584 2933 3390 
Q 3200 3197 3328 2828 
z
" transform="scale(0.015625)"/>
      <path id="DejaVuSans-64" d="M 2906 2969 
L 2906 4863 
L 3481 4863 
L 3481 0 
L 2906 0 
L 2906 525 
Q 2725 213 2448 61 
Q 2172 -91 1784 -91 
Q 1150 -91 751 415 
Q 353 922 353 1747 
Q 353 2572 751 3078 
Q 1150 3584 1784 3584 
Q 2172 3584 2448 3432 
Q 2725 3281 2906 2969 
z
M 947 1747 
Q 947 1113 1208 752 
Q 1469 391 1925 391 
Q 2381 391 2643 752 
Q 2906 1113 2906 1747 
Q 2906 2381 2643 2742 
Q 2381 3103 1925 3103 
Q 1469 3103 1208 2742 
Q 947 2381 947 1747 
z
" transform="scale(0.015625)"/>
      <path id="DejaVuSans-76" d="M 191 3500 
L 800 3500 
L 1894 563 
L 2988 3500 
L 3597 3500 
L 2284 0 
L 1503 0 
L 191 3500 
z
" transform="scale(0.015625)"/>
      <path id="DejaVuSans-6c" d="M 603 4863 
L 1178 4863 
L 1178 0 
L 603 0 
L 603 4863 
z
" transform="scale(0.015625)"/>
      <path id="DejaVuSans-77" d="M 269 3500 
L 844 3500 
L 1563 769 
L 2278 3500 
L 2956 3500 
L 3675 769 
L 4391 3500 
L 4966 3500 
L 4050 0 
L 3372 0 
L 2619 2869 
L 1863 0 
L 1184 0 
L 269 3500 
z
" transform="scale(0.015625)"/>
      <path id="DejaVuSans-79" d="M 2059 -325 
Q 1816 -950 1584 -1140 
Q 1353 -1331 966 -1331 
L 506 -1331 
L 506 -850 
L 844 -850 
Q 1081 -850 1212 -737 
Q 1344 -625 1503 -206 
L 1606 56 
L 191 3500 
L 800 3500 
L 1894 763 
L 2988 3500 
L 3597 3500 
L 2059 -325 
z
" transform="scale(0.015625)"/>
      <path id="DejaVuSans-28" d="M 1984 4856 
Q 1566 4138 1362 3434 
Q 1159 2731 1159 2009 
Q 1159 1288 1364 580 
Q 1569 -128 1984 -844 
L 1484 -844 
Q 1016 -109 783 600 
Q 550 1309 550 2009 
Q 550 2706 781 3412 
Q 1013 4119 1484 4856 
L 1984 4856 
z
" transform="scale(0.015625)"/>
      <path id="DejaVuSans-29" d="M 513 4856 
L 1013 4856 
Q 1481 4119 1714 3412 
Q 1947 2706 1947 2009 
Q 1947 1309 1714 600 
Q 1481 -109 1013 -844 
L 513 -844 
Q 928 -128 1133 580 
Q 1338 1288 1338 2009 
Q 1338 2731 1133 3434 
Q 928 4138 513 4856 
z
" transform="scale(0.015625)"/>
      <path id="DejaVuSans-2c" d="M 750 794 
L 1409 794 
L 1409 256 
L 897 -744 
L 494 -744 
L 750 256 
L 750 794 
z
" transform="scale(0.015625)"/>
      <path id="DejaVuSans-52" d="M 2841 2188 
Q 3044 2119 3236 1894 
Q 3428 1669 3622 1275 
L 4263 0 
L 3584 0 
L 2988 1197 
Q 2756 1666 2539 1819 
Q 2322 1972 1947 1972 
L 1259 1972 
L 1259 0 
L 628 0 
L 628 4666 
L 2053 4666 
Q 2853 4666 3247 4331 
Q 3641 3997 3641 3322 
Q 3641 2881 3436 2590 
Q 3231 2300 2841 2188 
z
M 1259 4147 
L 1259 2491 
L 2053 2491 
Q 2509 2491 2742 2702 
Q 2975 2913 2975 3322 
Q 2975 3731 2742 3939 
Q 2509 4147 2053 4147 
L 1259 4147 
z
" transform="scale(0.015625)"/>
      <path id="DejaVuSans-4c" d="M 628 4666 
L 1259 4666 
L 1259 531 
L 3531 531 
L 3531 0 
L 628 0 
L 628 4666 
z
" transform="scale(0.015625)"/>
      <path id="DejaVuSans-55" d="M 556 4666 
L 1191 4666 
L 1191 1831 
Q 1191 1081 1462 751 
Q 1734 422 2344 422 
Q 2950 422 3222 751 
Q 3494 1081 3494 1831 
L 3494 4666 
L 4128 4666 
L 4128 1753 
Q 4128 841 3676 375 
Q 3225 -91 2344 -91 
Q 1459 -91 1007 375 
Q 556 841 556 1753 
L 556 4666 
z
" transform="scale(0.015625)"/>
      <path id="DejaVuSans-66" d="M 2375 4863 
L 2375 4384 
L 1825 4384 
Q 1516 4384 1395 4259 
Q 1275 4134 1275 3809 
L 1275 3500 
L 2222 3500 
L 2222 3053 
L 1275 3053 
L 1275 0 
L 697 0 
L 697 3053 
L 147 3053 
L 147 3500 
L 697 3500 
L 697 3744 
Q 697 4328 969 4595 
Q 1241 4863 1831 4863 
L 2375 4863 
z
" transform="scale(0.015625)"/>
     </defs>
     <use xlink:href="#DejaVuSans-44"/>
     <use xlink:href="#DejaVuSans-65" transform="translate(77.001953 0)"/>
     <use xlink:href="#DejaVuSans-65" transform="translate(138.525391 0)"/>
     <use xlink:href="#DejaVuSans-70" transform="translate(200.048828 0)"/>
     <use xlink:href="#DejaVuSans-20" transform="translate(263.525391 0)"/>
     <use xlink:href="#DejaVuSans-6e" transform="translate(295.3125 0)"/>
     <use xlink:href="#DejaVuSans-65" transform="translate(358.691406 0)"/>
     <use xlink:href="#DejaVuSans-74" transform="translate(420.214844 0)"/>
     <use xlink:href="#DejaVuSans-20" transform="translate(459.423828 0)"/>
     <use xlink:href="#DejaVuSans-74" transform="translate(491.210938 0)"/>
     <use xlink:href="#DejaVuSans-72" transform="translate(530.419922 0)"/>
     <use xlink:href="#DejaVuSans-61" transform="translate(571.533203 0)"/>
     <use xlink:href="#DejaVuSans-69" transform="translate(632.8125 0)"/>
     <use xlink:href="#DejaVuSans-6e" transform="translate(660.595703 0)"/>
     <use xlink:href="#DejaVuSans-69" transform="translate(723.974609 0)"/>
     <use xlink:href="#DejaVuSans-6e" transform="translate(751.757812 0)"/>
     <use xlink:href="#DejaVuSans-67" transform="translate(815.136719 0)"/>
     <use xlink:href="#DejaVuSans-3a" transform="translate(878.613281 0)"/>
     <use xlink:href="#DejaVuSans-20" transform="translate(912.304688 0)"/>
     <use xlink:href="#DejaVuSans-73" transform="translate(944.091797 0)"/>
     <use xlink:href="#DejaVuSans-69" transform="translate(996.191406 0)"/>
     <use xlink:href="#DejaVuSans-67" transform="translate(1023.974609 0)"/>
     <use xlink:href="#DejaVuSans-6d" transform="translate(1087.451172 0)"/>
     <use xlink:href="#DejaVuSans-6f" transform="translate(1184.863281 0)"/>
     <use xlink:href="#DejaVuSans-69" transform="translate(1246.044922 0)"/>
     <use xlink:href="#DejaVuSans-64" transform="translate(1273.828125 0)"/>
     <use xlink:href="#DejaVuSans-20" transform="translate(1337.304688 0)"/>
     <use xlink:href="#DejaVuSans-63" transform="translate(1369.091797 0)"/>
     <use xlink:href="#DejaVuSans-6f" transform="translate(1424.072266 0)"/>
     <use xlink:href="#DejaVuSans-6e" transform="translate(1485.253906 0)"/>
     <use xlink:href="#DejaVuSans-76" transform="translate(1548.632812 0)"/>
     <use xlink:href="#DejaVuSans-65" transform="translate(1607.8125 0)"/>
     <use xlink:href="#DejaVuSans-72" transform="translate(1669.335938 0)"/>
     <use xlink:href="#DejaVuSans-67" transform="translate(1708.699219 0)"/>
     <use xlink:href="#DejaVuSans-65" transform="translate(1772.175781 0)"/>
     <use xlink:href="#DejaVuSans-73" transform="translate(1833.699219 0)"/>
     <use xlink:href="#DejaVuSans-20" transform="translate(1885.798828 0)"/>
     <use xlink:href="#DejaVuSans-73" transform="translate(1917.585938 0)"/>
     <use xlink:href="#DejaVuSans-6c" transform="translate(1969.685547 0)"/>
     <use xlink:href="#DejaVuSans-6f" transform="translate(1997.46875 0)"/>
     <use xlink:href="#DejaVuSans-77" transform="translate(2058.650391 0)"/>
     <use xlink:href="#DejaVuSans-6c" transform="translate(2140.4375 0)"/>
     <use xlink:href="#DejaVuSans-79" transform="translate(2168.220703 0)"/>
     <use xlink:href="#DejaVuSans-20" transform="translate(2227.400391 0)"/>
     <use xlink:href="#DejaVuSans-28" transform="translate(2259.1875 0)"/>
     <use xlink:href="#DejaVuSans-76" transform="translate(2298.201172 0)"/>
     <use xlink:href="#DejaVuSans-61" transform="translate(2357.380859 0)"/>
     <use xlink:href="#DejaVuSans-6e" transform="translate(2418.660156 0)"/>
     <use xlink:href="#DejaVuSans-69" transform="translate(2482.039062 0)"/>
     <use xlink:href="#DejaVuSans-73" transform="translate(2509.822266 0)"/>
     <use xlink:href="#DejaVuSans-68" transform="translate(2561.921875 0)"/>
     <use xlink:href="#DejaVuSans-69" transform="translate(2625.300781 0)"/>
     <use xlink:href="#DejaVuSans-6e" transform="translate(2653.083984 0)"/>
     <use xlink:href="#DejaVuSans-67" transform="translate(2716.462891 0)"/>
     <use xlink:href="#DejaVuSans-20" transform="translate(2779.939453 0)"/>
     <use xlink:href="#DejaVuSans-67" transform="translate(2811.726562 0)"/>
     <use xlink:href="#DejaVuSans-72" transform="translate(2875.203125 0)"/>
     <use xlink:href="#DejaVuSans-61" transform="translate(2916.316406 0)"/>
     <use xlink:href="#DejaVuSans-64" transform="translate(2977.595703 0)"/>
     <use xlink:href="#DejaVuSans-69" transform="translate(3041.072266 0)"/>
     <use xlink:href="#DejaVuSans-65" transform="translate(3068.855469 0)"/>
     <use xlink:href="#DejaVuSans-6e" transform="translate(3130.378906 0)"/>
     <use xlink:href="#DejaVuSans-74" transform="translate(3193.757812 0)"/>
     <use xlink:href="#DejaVuSans-29" transform="translate(3232.966797 0)"/>
     <use xlink:href="#DejaVuSans-2c" transform="translate(3271.980469 0)"/>
     <use xlink:href="#DejaVuSans-20" transform="translate(3303.767578 0)"/>
     <use xlink:href="#DejaVuSans-52" transform="translate(3335.554688 0)"/>
     <use xlink:href="#DejaVuSans-65" transform="translate(3400.537109 0)"/>
     <use xlink:href="#DejaVuSans-4c" transform="translate(3462.060547 0)"/>
     <use xlink:href="#DejaVuSans-55" transform="translate(3512.773438 0)"/>
     <use xlink:href="#DejaVuSans-20" transform="translate(3585.966797 0)"/>
     <use xlink:href="#DejaVuSans-69" transform="translate(3617.753906 0)"/>
     <use xlink:href="#DejaVuSans-73" transform="translate(3645.537109 0)"/>
     <use xlink:href="#DejaVuSans-20" transform="translate(3697.636719 0)"/>
     <use xlink:href="#DejaVuSans-66" transform="translate(3729.423828 0)"/>
     <use xlink:href="#DejaVuSans-61" transform="translate(3764.628906 0)"/>
     <use xlink:href="#DejaVuSans-73" transform="translate(3825.908203 0)"/>
     <use xlink:href="#DejaVuSans-74" transform="translate(3878.007812 0)"/>
     <use xlink:href="#DejaVuSans-65" transform="translate(3917.216797 0)"/>
     <use xlink:href="#DejaVuSans-73" transform="translate(3978.740234 0)"/>
     <use xlink:href="#DejaVuSans-74" transform="translate(4030.839844 0)"/>
    </g>
   </g>
   <g id="legend_1">
    <g id="patch_7">
     <path d="M 503.663884 74.3525 
L 625.806071 74.3525 
Q 627.806071 74.3525 627.806071 72.3525 
L 627.806071 29.318125 
Q 627.806071 27.318125 625.806071 27.318125 
L 503.663884 27.318125 
Q 501.663884 27.318125 501.663884 29.318125 
L 501.663884 72.3525 
Q 501.663884 74.3525 503.663884 74.3525 
z
" style="fill: #ffffff; opacity: 0.8; stroke: #cccccc; stroke-linejoin: miter"/>
    </g>
    <g id="line2d_38">
     <path d="M 505.663884 35.416562 
L 515.663884 35.416562 
L 525.663884 35.416562 
" style="fill: none; stroke: #7aa6c2; stroke-width: 2; stroke-linecap: square"/>
    </g>
    <g id="text_15">
     <!-- sigmoid (5 layers) -->
     <g transform="translate(533.663884 38.916562) scale(0.1 -0.1)">
      <use xlink:href="#DejaVuSans-73"/>
      <use xlink:href="#DejaVuSans-69" transform="translate(52.099609 0)"/>
      <use xlink:href="#DejaVuSans-67" transform="translate(79.882812 0)"/>
      <use xlink:href="#DejaVuSans-6d" transform="translate(143.359375 0)"/>
      <use xlink:href="#DejaVuSans-6f" transform="translate(240.771484 0)"/>
      <use xlink:href="#DejaVuSans-69" transform="translate(301.953125 0)"/>
      <use xlink:href="#DejaVuSans-64" transform="translate(329.736328 0)"/>
      <use xlink:href="#DejaVuSans-20" transform="translate(393.212891 0)"/>
      <use xlink:href="#DejaVuSans-28" transform="translate(425 0)"/>
      <use xlink:href="#DejaVuSans-35" transform="translate(464.013672 0)"/>
      <use xlink:href="#DejaVuSans-20" transform="translate(527.636719 0)"/>
      <use xlink:href="#DejaVuSans-6c" transform="translate(559.423828 0)"/>
      <use xlink:href="#DejaVuSans-61" transform="translate(587.207031 0)"/>
      <use xlink:href="#DejaVuSans-79" transform="translate(648.486328 0)"/>
      <use xlink:href="#DejaVuSans-65" transform="translate(707.666016 0)"/>
      <use xlink:href="#DejaVuSans-72" transform="translate(769.189453 0)"/>
      <use xlink:href="#DejaVuSans-73" transform="translate(810.302734 0)"/>
      <use xlink:href="#DejaVuSans-29" transform="translate(862.402344 0)"/>
     </g>
    </g>
    <g id="line2d_39">
     <path d="M 505.663884 50.094688 
L 515.663884 50.094688 
L 525.663884 50.094688 
" style="fill: none; stroke: #59a14f; stroke-width: 2; stroke-linecap: square"/>
    </g>
    <g id="text_16">
     <!-- tanh (5 layers) -->
     <g transform="translate(533.663884 53.594688) scale(0.1 -0.1)">
      <use xlink:href="#DejaVuSans-74"/>
      <use xlink:href="#DejaVuSans-61" transform="translate(39.208984 0)"/>
      <use xlink:href="#DejaVuSans-6e" transform="translate(100.488281 0)"/>
      <use xlink:href="#DejaVuSans-68" transform="translate(163.867188 0)"/>
      <use xlink:href="#DejaVuSans-20" transform="translate(227.246094 0)"/>
      <use xlink:href="#DejaVuSans-28" transform="translate(259.033203 0)"/>
      <use xlink:href="#DejaVuSans-35" transform="translate(298.046875 0)"/>
      <use xlink:href="#DejaVuSans-20" transform="translate(361.669922 0)"/>
      <use xlink:href="#DejaVuSans-6c" transform="translate(393.457031 0)"/>
      <use xlink:href="#DejaVuSans-61" transform="translate(421.240234 0)"/>
      <use xlink:href="#DejaVuSans-79" transform="translate(482.519531 0)"/>
      <use xlink:href="#DejaVuSans-65" transform="translate(541.699219 0)"/>
      <use xlink:href="#DejaVuSans-72" transform="translate(603.222656 0)"/>
      <use xlink:href="#DejaVuSans-73" transform="translate(644.335938 0)"/>
      <use xlink:href="#DejaVuSans-29" transform="translate(696.435547 0)"/>
     </g>
    </g>
    <g id="line2d_40">
     <path d="M 505.663884 64.772812 
L 515.663884 64.772812 
L 525.663884 64.772812 
" style="fill: none; stroke: #e15759; stroke-width: 2; stroke-linecap: square"/>
    </g>
    <g id="text_17">
     <!-- ReLU (5 layers) -->
     <g transform="translate(533.663884 68.272812) scale(0.1 -0.1)">
      <use xlink:href="#DejaVuSans-52"/>
      <use xlink:href="#DejaVuSans-65" transform="translate(64.982422 0)"/>
      <use xlink:href="#DejaVuSans-4c" transform="translate(126.505859 0)"/>
      <use xlink:href="#DejaVuSans-55" transform="translate(177.21875 0)"/>
      <use xlink:href="#DejaVuSans-20" transform="translate(250.412109 0)"/>
      <use xlink:href="#DejaVuSans-28" transform="translate(282.199219 0)"/>
      <use xlink:href="#DejaVuSans-35" transform="translate(321.212891 0)"/>
      <use xlink:href="#DejaVuSans-20" transform="translate(384.835938 0)"/>
      <use xlink:href="#DejaVuSans-6c" transform="translate(416.623047 0)"/>
      <use xlink:href="#DejaVuSans-61" transform="translate(444.40625 0)"/>
      <use xlink:href="#DejaVuSans-79" transform="translate(505.685547 0)"/>
      <use xlink:href="#DejaVuSans-65" transform="translate(564.865234 0)"/>
      <use xlink:href="#DejaVuSans-72" transform="translate(626.388672 0)"/>
      <use xlink:href="#DejaVuSans-73" transform="translate(667.501953 0)"/>
      <use xlink:href="#DejaVuSans-29" transform="translate(719.601562 0)"/>
     </g>
    </g>
   </g>
  </g>
 </g>
 <defs>
  <clipPath id="pc7bd61b4bd">
   <rect x="51.378125" y="22.318125" width="581.427946" height="255.16"/>
  </clipPath>
 </defs>
</svg>
