<?xml version="1.0" encoding="utf-8" standalone="no"?>
<!DOCTYPE svg PUBLIC "-//W3C//DTD SVG 1.1//EN"
  "http://www.w3.org/Graphics/SVG/1.1/DTD/svg11.dtd">
<svg xmlns:xlink="http://www.w3.org/1999/xlink" width="712.46125pt" height="351.034375pt" viewBox="0 0 712.46125 351.034375" xmlns="http://www.w3.org/2000/svg" version="1.1">
 <metadata>
  <rdf:RDF xmlns:dc="http://purl.org/dc/elements/1.1/" xmlns:cc="http://creativecommons.org/ns#" xmlns:rdf="http://www.w3.org/1999/02/22-rdf-syntax-ns#">
   <cc:Work>
    <dc:type rdf:resource="http://purl.org/dc/dcmitype/StillImage"/>
    <dc:date>2026-05-26T13:01:01.173645</dc:date>
    <dc:format>image/svg+xml</dc:format>
    <dc:creator>
     <cc:Agent>
      <dc:title>Matplotlib v3.10.8, https://matplotlib.org/</dc:title>
     </cc:Agent>
    </dc:creator>
   </cc:Work>
  </rdf:RDF>
 </metadata>
 <defs>
  <style type="text/css">*{stroke-linejoin: round; stroke-linecap: butt}</style>
 </defs>
 <g id="figure_1">
  <g id="patch_1">
   <path d="M 0 351.034375 
L 712.46125 351.034375 
L 712.46125 0 
L 0 0 
z
" style="fill: #ffffff"/>
  </g>
  <g id="axes_1">
   <g id="patch_2">
    <path d="M 43.78125 313.478125 
L 705.26125 313.478125 
L 705.26125 22.318125 
L 43.78125 22.318125 
z
" style="fill: #ffffff"/>
   </g>
   <g id="matplotlib.axis_1">
    <g id="xtick_1">
     <g id="line2d_1">
      <path d="M 109.92925 313.478125 
L 109.92925 22.318125 
" clip-path="url(#p163eb1b0b0)" style="fill: none; stroke: #b0b0b0; stroke-opacity: 0.25; stroke-width: 0.8; stroke-linecap: square"/>
     </g>
     <g id="line2d_2">
      <defs>
       <path id="md582da74ad" d="M 0 0 
L 0 3.5 
" style="stroke: #000000; stroke-width: 0.8"/>
      </defs>
      <g>
       <use xlink:href="#md582da74ad" x="109.92925" y="313.478125" style="stroke: #000000; stroke-width: 0.8"/>
      </g>
     </g>
     <g id="text_1">
      <!-- −4 -->
      <g transform="translate(102.558156 328.076563) scale(0.1 -0.1)">
       <defs>
        <path id="DejaVuSans-2212" d="M 678 2272 
L 4684 2272 
L 4684 1741 
L 678 1741 
L 678 2272 
z
" transform="scale(0.015625)"/>
        <path id="DejaVuSans-34" d="M 2419 4116 
L 825 1625 
L 2419 1625 
L 2419 4116 
z
M 2253 4666 
L 3047 4666 
L 3047 1625 
L 3713 1625 
L 3713 1100 
L 3047 1100 
L 3047 0 
L 2419 0 
L 2419 1100 
L 313 1100 
L 313 1709 
L 2253 4666 
z
" transform="scale(0.015625)"/>
       </defs>
       <use xlink:href="#DejaVuSans-2212"/>
       <use xlink:href="#DejaVuSans-34" transform="translate(83.789062 0)"/>
      </g>
     </g>
    </g>
    <g id="xtick_2">
     <g id="line2d_3">
      <path d="M 242.22525 313.478125 
L 242.22525 22.318125 
" clip-path="url(#p163eb1b0b0)" style="fill: none; stroke: #b0b0b0; stroke-opacity: 0.25; stroke-width: 0.8; stroke-linecap: square"/>
     </g>
     <g id="line2d_4">
      <g>
       <use xlink:href="#md582da74ad" x="242.22525" y="313.478125" style="stroke: #000000; stroke-width: 0.8"/>
      </g>
     </g>
     <g id="text_2">
      <!-- −2 -->
      <g transform="translate(234.854156 328.076563) scale(0.1 -0.1)">
       <defs>
        <path id="DejaVuSans-32" d="M 1228 531 
L 3431 531 
L 3431 0 
L 469 0 
L 469 531 
Q 828 903 1448 1529 
Q 2069 2156 2228 2338 
Q 2531 2678 2651 2914 
Q 2772 3150 2772 3378 
Q 2772 3750 2511 3984 
Q 2250 4219 1831 4219 
Q 1534 4219 1204 4116 
Q 875 4013 500 3803 
L 500 4441 
Q 881 4594 1212 4672 
Q 1544 4750 1819 4750 
Q 2544 4750 2975 4387 
Q 3406 4025 3406 3419 
Q 3406 3131 3298 2873 
Q 3191 2616 2906 2266 
Q 2828 2175 2409 1742 
Q 1991 1309 1228 531 
z
" transform="scale(0.015625)"/>
       </defs>
       <use xlink:href="#DejaVuSans-2212"/>
       <use xlink:href="#DejaVuSans-32" transform="translate(83.789062 0)"/>
      </g>
     </g>
    </g>
    <g id="xtick_3">
     <g id="line2d_5">
      <path d="M 374.52125 313.478125 
L 374.52125 22.318125 
" clip-path="url(#p163eb1b0b0)" style="fill: none; stroke: #b0b0b0; stroke-opacity: 0.25; stroke-width: 0.8; stroke-linecap: square"/>
     </g>
     <g id="line2d_6">
      <g>
       <use xlink:href="#md582da74ad" x="374.52125" y="313.478125" style="stroke: #000000; stroke-width: 0.8"/>
      </g>
     </g>
     <g id="text_3">
      <!-- 0 -->
      <g transform="translate(371.34 328.076563) scale(0.1 -0.1)">
       <defs>
        <path id="DejaVuSans-30" d="M 2034 4250 
Q 1547 4250 1301 3770 
Q 1056 3291 1056 2328 
Q 1056 1369 1301 889 
Q 1547 409 2034 409 
Q 2525 409 2770 889 
Q 3016 1369 3016 2328 
Q 3016 3291 2770 3770 
Q 2525 4250 2034 4250 
z
M 2034 4750 
Q 2819 4750 3233 4129 
Q 3647 3509 3647 2328 
Q 3647 1150 3233 529 
Q 2819 -91 2034 -91 
Q 1250 -91 836 529 
Q 422 1150 422 2328 
Q 422 3509 836 4129 
Q 1250 4750 2034 4750 
z
" transform="scale(0.015625)"/>
       </defs>
       <use xlink:href="#DejaVuSans-30"/>
      </g>
     </g>
    </g>
    <g id="xtick_4">
     <g id="line2d_7">
      <path d="M 506.81725 313.478125 
L 506.81725 22.318125 
" clip-path="url(#p163eb1b0b0)" style="fill: none; stroke: #b0b0b0; stroke-opacity: 0.25; stroke-width: 0.8; stroke-linecap: square"/>
     </g>
     <g id="line2d_8">
      <g>
       <use xlink:href="#md582da74ad" x="506.81725" y="313.478125" style="stroke: #000000; stroke-width: 0.8"/>
      </g>
     </g>
     <g id="text_4">
      <!-- 2 -->
      <g transform="translate(503.636 328.076563) scale(0.1 -0.1)">
       <use xlink:href="#DejaVuSans-32"/>
      </g>
     </g>
    </g>
    <g id="xtick_5">
     <g id="line2d_9">
      <path d="M 639.11325 313.478125 
L 639.11325 22.318125 
" clip-path="url(#p163eb1b0b0)" style="fill: none; stroke: #b0b0b0; stroke-opacity: 0.25; stroke-width: 0.8; stroke-linecap: square"/>
     </g>
     <g id="line2d_10">
      <g>
       <use xlink:href="#md582da74ad" x="639.11325" y="313.478125" style="stroke: #000000; stroke-width: 0.8"/>
      </g>
     </g>
     <g id="text_5">
      <!-- 4 -->
      <g transform="translate(635.932 328.076563) scale(0.1 -0.1)">
       <use xlink:href="#DejaVuSans-34"/>
      </g>
     </g>
    </g>
    <g id="text_6">
     <!-- input z -->
     <g transform="translate(357.447031 341.754687) scale(0.1 -0.1)">
      <defs>
       <path id="DejaVuSans-69" d="M 603 3500 
L 1178 3500 
L 1178 0 
L 603 0 
L 603 3500 
z
M 603 4863 
L 1178 4863 
L 1178 4134 
L 603 4134 
L 603 4863 
z
" transform="scale(0.015625)"/>
       <path id="DejaVuSans-6e" d="M 3513 2113 
L 3513 0 
L 2938 0 
L 2938 2094 
Q 2938 2591 2744 2837 
Q 2550 3084 2163 3084 
Q 1697 3084 1428 2787 
Q 1159 2491 1159 1978 
L 1159 0 
L 581 0 
L 581 3500 
L 1159 3500 
L 1159 2956 
Q 1366 3272 1645 3428 
Q 1925 3584 2291 3584 
Q 2894 3584 3203 3211 
Q 3513 2838 3513 2113 
z
" transform="scale(0.015625)"/>
       <path id="DejaVuSans-70" d="M 1159 525 
L 1159 -1331 
L 581 -1331 
L 581 3500 
L 1159 3500 
L 1159 2969 
Q 1341 3281 1617 3432 
Q 1894 3584 2278 3584 
Q 2916 3584 3314 3078 
Q 3713 2572 3713 1747 
Q 3713 922 3314 415 
Q 2916 -91 2278 -91 
Q 1894 -91 1617 61 
Q 1341 213 1159 525 
z
M 3116 1747 
Q 3116 2381 2855 2742 
Q 2594 3103 2138 3103 
Q 1681 3103 1420 2742 
Q 1159 2381 1159 1747 
Q 1159 1113 1420 752 
Q 1681 391 2138 391 
Q 2594 391 2855 752 
Q 3116 1113 3116 1747 
z
" transform="scale(0.015625)"/>
       <path id="DejaVuSans-75" d="M 544 1381 
L 544 3500 
L 1119 3500 
L 1119 1403 
Q 1119 906 1312 657 
Q 1506 409 1894 409 
Q 2359 409 2629 706 
Q 2900 1003 2900 1516 
L 2900 3500 
L 3475 3500 
L 3475 0 
L 2900 0 
L 2900 538 
Q 2691 219 2414 64 
Q 2138 -91 1772 -91 
Q 1169 -91 856 284 
Q 544 659 544 1381 
z
M 1991 3584 
L 1991 3584 
z
" transform="scale(0.015625)"/>
       <path id="DejaVuSans-74" d="M 1172 4494 
L 1172 3500 
L 2356 3500 
L 2356 3053 
L 1172 3053 
L 1172 1153 
Q 1172 725 1289 603 
Q 1406 481 1766 481 
L 2356 481 
L 2356 0 
L 1766 0 
Q 1100 0 847 248 
Q 594 497 594 1153 
L 594 3053 
L 172 3053 
L 172 3500 
L 594 3500 
L 594 4494 
L 1172 4494 
z
" transform="scale(0.015625)"/>
       <path id="DejaVuSans-20" transform="scale(0.015625)"/>
       <path id="DejaVuSans-7a" d="M 353 3500 
L 3084 3500 
L 3084 2975 
L 922 459 
L 3084 459 
L 3084 0 
L 275 0 
L 275 525 
L 2438 3041 
L 353 3041 
L 353 3500 
z
" transform="scale(0.015625)"/>
      </defs>
      <use xlink:href="#DejaVuSans-69"/>
      <use xlink:href="#DejaVuSans-6e" transform="translate(27.783203 0)"/>
      <use xlink:href="#DejaVuSans-70" transform="translate(91.162109 0)"/>
      <use xlink:href="#DejaVuSans-75" transform="translate(154.638672 0)"/>
      <use xlink:href="#DejaVuSans-74" transform="translate(218.017578 0)"/>
      <use xlink:href="#DejaVuSans-20" transform="translate(257.226562 0)"/>
      <use xlink:href="#DejaVuSans-7a" transform="translate(289.013672 0)"/>
     </g>
    </g>
   </g>
   <g id="matplotlib.axis_2">
    <g id="ytick_1">
     <g id="line2d_11">
      <path d="M 43.78125 283.358125 
L 705.26125 283.358125 
" clip-path="url(#p163eb1b0b0)" style="fill: none; stroke: #b0b0b0; stroke-opacity: 0.25; stroke-width: 0.8; stroke-linecap: square"/>
     </g>
     <g id="line2d_12">
      <defs>
       <path id="m8009429c37" d="M 0 0 
L -3.5 0 
" style="stroke: #000000; stroke-width: 0.8"/>
      </defs>
      <g>
       <use xlink:href="#m8009429c37" x="43.78125" y="283.358125" style="stroke: #000000; stroke-width: 0.8"/>
      </g>
     </g>
     <g id="text_7">
      <!-- 0.0 -->
      <g transform="translate(20.878125 287.157344) scale(0.1 -0.1)">
       <defs>
        <path id="DejaVuSans-2e" d="M 684 794 
L 1344 794 
L 1344 0 
L 684 0 
L 684 794 
z
" transform="scale(0.015625)"/>
       </defs>
       <use xlink:href="#DejaVuSans-30"/>
       <use xlink:href="#DejaVuSans-2e" transform="translate(63.623047 0)"/>
       <use xlink:href="#DejaVuSans-30" transform="translate(95.410156 0)"/>
      </g>
     </g>
    </g>
    <g id="ytick_2">
     <g id="line2d_13">
      <path d="M 43.78125 243.198125 
L 705.26125 243.198125 
" clip-path="url(#p163eb1b0b0)" style="fill: none; stroke: #b0b0b0; stroke-opacity: 0.25; stroke-width: 0.8; stroke-linecap: square"/>
     </g>
     <g id="line2d_14">
      <g>
       <use xlink:href="#m8009429c37" x="43.78125" y="243.198125" style="stroke: #000000; stroke-width: 0.8"/>
      </g>
     </g>
     <g id="text_8">
      <!-- 0.2 -->
      <g transform="translate(20.878125 246.997344) scale(0.1 -0.1)">
       <use xlink:href="#DejaVuSans-30"/>
       <use xlink:href="#DejaVuSans-2e" transform="translate(63.623047 0)"/>
       <use xlink:href="#DejaVuSans-32" transform="translate(95.410156 0)"/>
      </g>
     </g>
    </g>
    <g id="ytick_3">
     <g id="line2d_15">
      <path d="M 43.78125 203.038125 
L 705.26125 203.038125 
" clip-path="url(#p163eb1b0b0)" style="fill: none; stroke: #b0b0b0; stroke-opacity: 0.25; stroke-width: 0.8; stroke-linecap: square"/>
     </g>
     <g id="line2d_16">
      <g>
       <use xlink:href="#m8009429c37" x="43.78125" y="203.038125" style="stroke: #000000; stroke-width: 0.8"/>
      </g>
     </g>
     <g id="text_9">
      <!-- 0.4 -->
      <g transform="translate(20.878125 206.837344) scale(0.1 -0.1)">
       <use xlink:href="#DejaVuSans-30"/>
       <use xlink:href="#DejaVuSans-2e" transform="translate(63.623047 0)"/>
       <use xlink:href="#DejaVuSans-34" transform="translate(95.410156 0)"/>
      </g>
     </g>
    </g>
    <g id="ytick_4">
     <g id="line2d_17">
      <path d="M 43.78125 162.878125 
L 705.26125 162.878125 
" clip-path="url(#p163eb1b0b0)" style="fill: none; stroke: #b0b0b0; stroke-opacity: 0.25; stroke-width: 0.8; stroke-linecap: square"/>
     </g>
     <g id="line2d_18">
      <g>
       <use xlink:href="#m8009429c37" x="43.78125" y="162.878125" style="stroke: #000000; stroke-width: 0.8"/>
      </g>
     </g>
     <g id="text_10">
      <!-- 0.6 -->
      <g transform="translate(20.878125 166.677344) scale(0.1 -0.1)">
       <defs>
        <path id="DejaVuSans-36" d="M 2113 2584 
Q 1688 2584 1439 2293 
Q 1191 2003 1191 1497 
Q 1191 994 1439 701 
Q 1688 409 2113 409 
Q 2538 409 2786 701 
Q 3034 994 3034 1497 
Q 3034 2003 2786 2293 
Q 2538 2584 2113 2584 
z
M 3366 4563 
L 3366 3988 
Q 3128 4100 2886 4159 
Q 2644 4219 2406 4219 
Q 1781 4219 1451 3797 
Q 1122 3375 1075 2522 
Q 1259 2794 1537 2939 
Q 1816 3084 2150 3084 
Q 2853 3084 3261 2657 
Q 3669 2231 3669 1497 
Q 3669 778 3244 343 
Q 2819 -91 2113 -91 
Q 1303 -91 875 529 
Q 447 1150 447 2328 
Q 447 3434 972 4092 
Q 1497 4750 2381 4750 
Q 2619 4750 2861 4703 
Q 3103 4656 3366 4563 
z
" transform="scale(0.015625)"/>
       </defs>
       <use xlink:href="#DejaVuSans-30"/>
       <use xlink:href="#DejaVuSans-2e" transform="translate(63.623047 0)"/>
       <use xlink:href="#DejaVuSans-36" transform="translate(95.410156 0)"/>
      </g>
     </g>
    </g>
    <g id="ytick_5">
     <g id="line2d_19">
      <path d="M 43.78125 122.718125 
L 705.26125 122.718125 
" clip-path="url(#p163eb1b0b0)" style="fill: none; stroke: #b0b0b0; stroke-opacity: 0.25; stroke-width: 0.8; stroke-linecap: square"/>
     </g>
     <g id="line2d_20">
      <g>
       <use xlink:href="#m8009429c37" x="43.78125" y="122.718125" style="stroke: #000000; stroke-width: 0.8"/>
      </g>
     </g>
     <g id="text_11">
      <!-- 0.8 -->
      <g transform="translate(20.878125 126.517344) scale(0.1 -0.1)">
       <defs>
        <path id="DejaVuSans-38" d="M 2034 2216 
Q 1584 2216 1326 1975 
Q 1069 1734 1069 1313 
Q 1069 891 1326 650 
Q 1584 409 2034 409 
Q 2484 409 2743 651 
Q 3003 894 3003 1313 
Q 3003 1734 2745 1975 
Q 2488 2216 2034 2216 
z
M 1403 2484 
Q 997 2584 770 2862 
Q 544 3141 544 3541 
Q 544 4100 942 4425 
Q 1341 4750 2034 4750 
Q 2731 4750 3128 4425 
Q 3525 4100 3525 3541 
Q 3525 3141 3298 2862 
Q 3072 2584 2669 2484 
Q 3125 2378 3379 2068 
Q 3634 1759 3634 1313 
Q 3634 634 3220 271 
Q 2806 -91 2034 -91 
Q 1263 -91 848 271 
Q 434 634 434 1313 
Q 434 1759 690 2068 
Q 947 2378 1403 2484 
z
M 1172 3481 
Q 1172 3119 1398 2916 
Q 1625 2713 2034 2713 
Q 2441 2713 2670 2916 
Q 2900 3119 2900 3481 
Q 2900 3844 2670 4047 
Q 2441 4250 2034 4250 
Q 1625 4250 1398 4047 
Q 1172 3844 1172 3481 
z
" transform="scale(0.015625)"/>
       </defs>
       <use xlink:href="#DejaVuSans-30"/>
       <use xlink:href="#DejaVuSans-2e" transform="translate(63.623047 0)"/>
       <use xlink:href="#DejaVuSans-38" transform="translate(95.410156 0)"/>
      </g>
     </g>
    </g>
    <g id="ytick_6">
     <g id="line2d_21">
      <path d="M 43.78125 82.558125 
L 705.26125 82.558125 
" clip-path="url(#p163eb1b0b0)" style="fill: none; stroke: #b0b0b0; stroke-opacity: 0.25; stroke-width: 0.8; stroke-linecap: square"/>
     </g>
     <g id="line2d_22">
      <g>
       <use xlink:href="#m8009429c37" x="43.78125" y="82.558125" style="stroke: #000000; stroke-width: 0.8"/>
      </g>
     </g>
     <g id="text_12">
      <!-- 1.0 -->
      <g transform="translate(20.878125 86.357344) scale(0.1 -0.1)">
       <defs>
        <path id="DejaVuSans-31" d="M 794 531 
L 1825 531 
L 1825 4091 
L 703 3866 
L 703 4441 
L 1819 4666 
L 2450 4666 
L 2450 531 
L 3481 531 
L 3481 0 
L 794 0 
L 794 531 
z
" transform="scale(0.015625)"/>
       </defs>
       <use xlink:href="#DejaVuSans-31"/>
       <use xlink:href="#DejaVuSans-2e" transform="translate(63.623047 0)"/>
       <use xlink:href="#DejaVuSans-30" transform="translate(95.410156 0)"/>
      </g>
     </g>
    </g>
    <g id="ytick_7">
     <g id="line2d_23">
      <path d="M 43.78125 42.398125 
L 705.26125 42.398125 
" clip-path="url(#p163eb1b0b0)" style="fill: none; stroke: #b0b0b0; stroke-opacity: 0.25; stroke-width: 0.8; stroke-linecap: square"/>
     </g>
     <g id="line2d_24">
      <g>
       <use xlink:href="#m8009429c37" x="43.78125" y="42.398125" style="stroke: #000000; stroke-width: 0.8"/>
      </g>
     </g>
     <g id="text_13">
      <!-- 1.2 -->
      <g transform="translate(20.878125 46.197344) scale(0.1 -0.1)">
       <use xlink:href="#DejaVuSans-31"/>
       <use xlink:href="#DejaVuSans-2e" transform="translate(63.623047 0)"/>
       <use xlink:href="#DejaVuSans-32" transform="translate(95.410156 0)"/>
      </g>
     </g>
    </g>
    <g id="text_14">
     <!-- gradient da/dz -->
     <g transform="translate(14.798438 204.270781) rotate(-90) scale(0.1 -0.1)">
      <defs>
       <path id="DejaVuSans-67" d="M 2906 1791 
Q 2906 2416 2648 2759 
Q 2391 3103 1925 3103 
Q 1463 3103 1205 2759 
Q 947 2416 947 1791 
Q 947 1169 1205 825 
Q 1463 481 1925 481 
Q 2391 481 2648 825 
Q 2906 1169 2906 1791 
z
M 3481 434 
Q 3481 -459 3084 -895 
Q 2688 -1331 1869 -1331 
Q 1566 -1331 1297 -1286 
Q 1028 -1241 775 -1147 
L 775 -588 
Q 1028 -725 1275 -790 
Q 1522 -856 1778 -856 
Q 2344 -856 2625 -561 
Q 2906 -266 2906 331 
L 2906 616 
Q 2728 306 2450 153 
Q 2172 0 1784 0 
Q 1141 0 747 490 
Q 353 981 353 1791 
Q 353 2603 747 3093 
Q 1141 3584 1784 3584 
Q 2172 3584 2450 3431 
Q 2728 3278 2906 2969 
L 2906 3500 
L 3481 3500 
L 3481 434 
z
" transform="scale(0.015625)"/>
       <path id="DejaVuSans-72" d="M 2631 2963 
Q 2534 3019 2420 3045 
Q 2306 3072 2169 3072 
Q 1681 3072 1420 2755 
Q 1159 2438 1159 1844 
L 1159 0 
L 581 0 
L 581 3500 
L 1159 3500 
L 1159 2956 
Q 1341 3275 1631 3429 
Q 1922 3584 2338 3584 
Q 2397 3584 2469 3576 
Q 2541 3569 2628 3553 
L 2631 2963 
z
" transform="scale(0.015625)"/>
       <path id="DejaVuSans-61" d="M 2194 1759 
Q 1497 1759 1228 1600 
Q 959 1441 959 1056 
Q 959 750 1161 570 
Q 1363 391 1709 391 
Q 2188 391 2477 730 
Q 2766 1069 2766 1631 
L 2766 1759 
L 2194 1759 
z
M 3341 1997 
L 3341 0 
L 2766 0 
L 2766 531 
Q 2569 213 2275 61 
Q 1981 -91 1556 -91 
Q 1019 -91 701 211 
Q 384 513 384 1019 
Q 384 1609 779 1909 
Q 1175 2209 1959 2209 
L 2766 2209 
L 2766 2266 
Q 2766 2663 2505 2880 
Q 2244 3097 1772 3097 
Q 1472 3097 1187 3025 
Q 903 2953 641 2809 
L 641 3341 
Q 956 3463 1253 3523 
Q 1550 3584 1831 3584 
Q 2591 3584 2966 3190 
Q 3341 2797 3341 1997 
z
" transform="scale(0.015625)"/>
       <path id="DejaVuSans-64" d="M 2906 2969 
L 2906 4863 
L 3481 4863 
L 3481 0 
L 2906 0 
L 2906 525 
Q 2725 213 2448 61 
Q 2172 -91 1784 -91 
Q 1150 -91 751 415 
Q 353 922 353 1747 
Q 353 2572 751 3078 
Q 1150 3584 1784 3584 
Q 2172 3584 2448 3432 
Q 2725 3281 2906 2969 
z
M 947 1747 
Q 947 1113 1208 752 
Q 1469 391 1925 391 
Q 2381 391 2643 752 
Q 2906 1113 2906 1747 
Q 2906 2381 2643 2742 
Q 2381 3103 1925 3103 
Q 1469 3103 1208 2742 
Q 947 2381 947 1747 
z
" transform="scale(0.015625)"/>
       <path id="DejaVuSans-65" d="M 3597 1894 
L 3597 1613 
L 953 1613 
Q 991 1019 1311 708 
Q 1631 397 2203 397 
Q 2534 397 2845 478 
Q 3156 559 3463 722 
L 3463 178 
Q 3153 47 2828 -22 
Q 2503 -91 2169 -91 
Q 1331 -91 842 396 
Q 353 884 353 1716 
Q 353 2575 817 3079 
Q 1281 3584 2069 3584 
Q 2775 3584 3186 3129 
Q 3597 2675 3597 1894 
z
M 3022 2063 
Q 3016 2534 2758 2815 
Q 2500 3097 2075 3097 
Q 1594 3097 1305 2825 
Q 1016 2553 972 2059 
L 3022 2063 
z
" transform="scale(0.015625)"/>
       <path id="DejaVuSans-2f" d="M 1625 4666 
L 2156 4666 
L 531 -594 
L 0 -594 
L 1625 4666 
z
" transform="scale(0.015625)"/>
      </defs>
      <use xlink:href="#DejaVuSans-67"/>
      <use xlink:href="#DejaVuSans-72" transform="translate(63.476562 0)"/>
      <use xlink:href="#DejaVuSans-61" transform="translate(104.589844 0)"/>
      <use xlink:href="#DejaVuSans-64" transform="translate(165.869141 0)"/>
      <use xlink:href="#DejaVuSans-69" transform="translate(229.345703 0)"/>
      <use xlink:href="#DejaVuSans-65" transform="translate(257.128906 0)"/>
      <use xlink:href="#DejaVuSans-6e" transform="translate(318.652344 0)"/>
      <use xlink:href="#DejaVuSans-74" transform="translate(382.03125 0)"/>
      <use xlink:href="#DejaVuSans-20" transform="translate(421.240234 0)"/>
      <use xlink:href="#DejaVuSans-64" transform="translate(453.027344 0)"/>
      <use xlink:href="#DejaVuSans-61" transform="translate(516.503906 0)"/>
      <use xlink:href="#DejaVuSans-2f" transform="translate(577.783203 0)"/>
      <use xlink:href="#DejaVuSans-64" transform="translate(611.474609 0)"/>
      <use xlink:href="#DejaVuSans-7a" transform="translate(674.951172 0)"/>
     </g>
    </g>
   </g>
   <g id="line2d_25">
    <path d="M 43.78125 282.023195 
L 70.306764 281.377745 
L 91.858744 280.635915 
L 110.095034 279.802874 
L 126.673481 278.836791 
L 141.594082 277.758266 
L 154.856839 276.601429 
L 168.119596 275.227693 
L 179.724508 273.823757 
L 191.32942 272.210085 
L 202.934333 270.36785 
L 214.539245 268.281437 
L 226.144157 265.940719 
L 237.74907 263.343879 
L 249.353982 260.500684 
L 260.958894 257.436016 
L 275.879496 253.24254 
L 314.009922 242.352133 
L 323.956989 239.832149 
L 332.246212 237.954342 
L 340.535435 236.330521 
L 347.166814 235.244583 
L 353.798192 234.36999 
L 360.429571 233.7234 
L 367.060949 233.31742 
L 373.692328 233.160096 
L 380.323706 233.254569 
L 386.955085 233.598952 
L 393.586463 234.186401 
L 400.217841 235.005407 
L 406.84922 236.040268 
L 413.480598 237.271715 
L 421.769821 239.053603 
L 430.059044 241.060594 
L 440.006112 243.69591 
L 453.268869 247.454328 
L 486.425761 256.982402 
L 499.688518 260.500684 
L 511.29343 263.343879 
L 522.898343 265.940719 
L 534.503255 268.281437 
L 546.108167 270.36785 
L 557.71308 272.210085 
L 569.317992 273.823757 
L 580.922904 275.227693 
L 594.185661 276.601429 
L 607.448418 277.758266 
L 622.369019 278.836791 
L 638.947466 279.802874 
L 657.183756 280.635915 
L 678.735736 281.377745 
L 703.603405 281.98978 
L 705.26125 282.023195 
L 705.26125 282.023195 
" clip-path="url(#p163eb1b0b0)" style="fill: none; stroke: #7aa6c2; stroke-width: 2.2; stroke-linecap: square"/>
   </g>
   <g id="line2d_26">
    <path d="M 43.78125 283.321663 
L 101.805811 283.14747 
L 129.98917 282.864565 
L 149.883305 282.458359 
L 164.803907 281.947223 
L 176.408819 281.357164 
L 186.355887 280.65981 
L 194.64511 279.897895 
L 202.934333 278.923255 
L 209.565711 277.951984 
L 216.19709 276.771573 
L 222.828468 275.338729 
L 227.802002 274.067848 
L 232.775536 272.601201 
L 237.74907 270.910571 
L 242.722603 268.96434 
L 247.696137 266.727313 
L 252.669671 264.160631 
L 255.98536 262.245531 
L 259.301049 260.151657 
L 262.616739 257.86494 
L 265.932428 255.370768 
L 269.248117 252.654101 
L 272.563806 249.699622 
L 275.879496 246.491935 
L 279.195185 243.015813 
L 282.510874 239.256498 
L 285.826563 235.200079 
L 289.142253 230.833929 
L 292.457942 226.147218 
L 295.773631 221.131512 
L 299.08932 215.78144 
L 302.405009 210.095436 
L 305.720699 204.076548 
L 310.694232 194.444393 
L 315.667766 184.140292 
L 320.6413 173.259169 
L 327.272679 158.100516 
L 340.535435 127.461753 
L 345.508969 116.722253 
L 348.824659 110.053811 
L 352.140348 103.898326 
L 355.456037 98.35669 
L 358.771726 93.524563 
L 360.429571 91.402221 
L 362.087415 89.489096 
L 363.74526 87.794227 
L 365.403105 86.325737 
L 367.060949 85.090751 
L 368.718794 84.095324 
L 370.376638 83.344378 
L 372.034483 82.84165 
L 373.692328 82.589654 
L 375.350172 82.589654 
L 377.008017 82.84165 
L 378.665862 83.344378 
L 380.323706 84.095324 
L 381.981551 85.090751 
L 383.639395 86.325737 
L 385.29724 87.794227 
L 386.955085 89.489096 
L 388.612929 91.402221 
L 390.270774 93.524563 
L 393.586463 98.35669 
L 396.902152 103.898326 
L 400.217841 110.053811 
L 403.533531 116.722253 
L 408.507065 127.461753 
L 415.138443 142.630783 
L 426.743355 169.526572 
L 431.716889 180.571452 
L 436.690423 191.080517 
L 441.663957 200.944696 
L 444.979646 207.127209 
L 448.295335 212.980357 
L 451.611024 218.498468 
L 454.926714 223.680905 
L 458.242403 228.531234 
L 461.558092 233.056446 
L 464.873781 237.266252 
L 468.189471 241.172448 
L 471.50516 244.788366 
L 474.820849 248.128389 
L 478.136538 251.207551 
L 481.452227 254.041199 
L 484.767917 256.644718 
L 488.083606 259.033306 
L 491.399295 261.221806 
L 494.714984 263.224572 
L 499.688518 265.910406 
L 504.662052 268.252818 
L 509.635586 270.291891 
L 514.60912 272.064034 
L 519.582654 273.602043 
L 524.556187 274.935245 
L 531.187566 276.438888 
L 537.818944 277.678051 
L 544.450323 278.697951 
L 552.739546 279.721648 
L 561.028769 280.522091 
L 570.975836 281.254849 
L 582.580749 281.874967 
L 595.843506 282.363716 
L 612.421952 282.755151 
L 635.631776 283.058995 
L 668.788669 283.248305 
L 705.26125 283.321663 
L 705.26125 283.321663 
" clip-path="url(#p163eb1b0b0)" style="fill: none; stroke: #59a14f; stroke-width: 2.2; stroke-linecap: square"/>
   </g>
   <g id="line2d_27">
    <path d="M 43.78125 283.358125 
L 373.692328 283.358125 
L 375.350172 82.558125 
L 705.26125 82.558125 
L 705.26125 82.558125 
" clip-path="url(#p163eb1b0b0)" style="fill: none; stroke: #e15759; stroke-width: 2.2; stroke-linecap: square"/>
   </g>
   <g id="line2d_28">
    <path d="M 43.78125 263.278125 
L 373.692328 263.278125 
L 375.350172 82.558125 
L 705.26125 82.558125 
L 705.26125 82.558125 
" clip-path="url(#p163eb1b0b0)" style="fill: none; stroke: #f28e2b; stroke-width: 2.2; stroke-linecap: square"/>
   </g>
   <g id="line2d_29">
    <path d="M 43.78125 283.358462 
L 116.726413 283.463035 
L 136.620548 283.701962 
L 149.883305 284.054832 
L 161.488217 284.583386 
L 171.435285 285.271214 
L 179.724508 286.059341 
L 188.013731 287.083764 
L 194.64511 288.097131 
L 201.276488 289.298471 
L 207.907867 290.696574 
L 214.539245 292.292513 
L 222.828468 294.550588 
L 231.117691 297.056158 
L 244.380448 301.351063 
L 254.327516 304.490368 
L 260.958894 306.348296 
L 265.932428 307.525394 
L 270.905962 308.447319 
L 274.221651 308.886845 
L 277.53734 309.161909 
L 280.853029 309.251029 
L 284.168719 309.132443 
L 287.484408 308.784345 
L 290.800097 308.185136 
L 294.115786 307.313706 
L 297.431476 306.149723 
L 300.747165 304.673931 
L 304.062854 302.868464 
L 307.378543 300.717151 
L 310.694232 298.205829 
L 314.009922 295.322635 
L 317.325611 292.058286 
L 320.6413 288.406342 
L 323.956989 284.363435 
L 327.272679 279.929463 
L 330.588368 275.107751 
L 333.904057 269.905164 
L 337.219746 264.332171 
L 340.535435 258.402865 
L 343.851125 252.134917 
L 348.824659 242.145255 
L 353.798192 231.527369 
L 358.771726 220.381839 
L 365.403105 204.898389 
L 375.350172 180.950943 
L 385.29724 157.09391 
L 391.928618 141.767382 
L 396.902152 130.785699 
L 401.875686 120.36676 
L 406.84922 110.606271 
L 410.164909 104.505214 
L 413.480598 98.752078 
L 416.796288 93.362753 
L 420.111977 88.349521 
L 423.427666 83.721044 
L 426.743355 79.482406 
L 430.059044 75.635201 
L 433.374734 72.177673 
L 436.690423 69.10489 
L 440.006112 66.40896 
L 443.321801 64.079276 
L 446.637491 62.102789 
L 449.95318 60.464294 
L 453.268869 59.146734 
L 456.584558 58.131509 
L 459.900247 57.398787 
L 463.215937 56.927809 
L 466.531626 56.697186 
L 469.847315 56.685182 
L 473.163004 56.869982 
L 476.478694 57.229936 
L 481.452227 58.051931 
L 486.425761 59.151243 
L 491.399295 60.463018 
L 498.030674 62.440315 
L 509.635586 66.192015 
L 521.240498 69.887525 
L 529.529721 72.301979 
L 536.1611 74.040968 
L 542.792478 75.587862 
L 549.423857 76.936331 
L 556.055235 78.089603 
L 564.344458 79.272975 
L 572.633681 80.198398 
L 580.922904 80.902691 
L 590.869972 81.51018 
L 602.474884 81.970548 
L 617.395486 82.298808 
L 637.289621 82.482074 
L 675.420047 82.553592 
L 705.26125 82.557788 
L 705.26125 82.557788 
" clip-path="url(#p163eb1b0b0)" style="fill: none; stroke: #b07aa1; stroke-width: 2.2; stroke-linecap: square"/>
   </g>
   <g id="line2d_30">
    <path d="M 43.78125 283.358125 
L 705.26125 283.358125 
" clip-path="url(#p163eb1b0b0)" style="fill: none; stroke: #000000; stroke-width: 0.5; stroke-linecap: square"/>
   </g>
   <g id="line2d_31">
    <path d="M 43.78125 82.558125 
L 705.26125 82.558125 
" clip-path="url(#p163eb1b0b0)" style="fill: none; stroke-dasharray: 0.7,1.155; stroke-dashoffset: 0; stroke: #000000; stroke-opacity: 0.5; stroke-width: 0.7"/>
   </g>
   <g id="patch_3">
    <path d="M 43.78125 313.478125 
L 43.78125 22.318125 
" style="fill: none; stroke: #000000; stroke-width: 0.8; stroke-linejoin: miter; stroke-linecap: square"/>
   </g>
   <g id="patch_4">
    <path d="M 705.26125 313.478125 
L 705.26125 22.318125 
" style="fill: none; stroke: #000000; stroke-width: 0.8; stroke-linejoin: miter; stroke-linecap: square"/>
   </g>
   <g id="patch_5">
    <path d="M 43.78125 313.478125 
L 705.26125 313.478125 
" style="fill: none; stroke: #000000; stroke-width: 0.8; stroke-linejoin: miter; stroke-linecap: square"/>
   </g>
   <g id="patch_6">
    <path d="M 43.78125 22.318125 
L 705.26125 22.318125 
" style="fill: none; stroke: #000000; stroke-width: 0.8; stroke-linejoin: miter; stroke-linecap: square"/>
   </g>
   <g id="text_15">
    <!-- Derivative of each activation: sigmoid/tanh saturate → vanishing gradient -->
    <g transform="translate(152.739688 16.318125) scale(0.12 -0.12)">
     <defs>
      <path id="DejaVuSans-44" d="M 1259 4147 
L 1259 519 
L 2022 519 
Q 2988 519 3436 956 
Q 3884 1394 3884 2338 
Q 3884 3275 3436 3711 
Q 2988 4147 2022 4147 
L 1259 4147 
z
M 628 4666 
L 1925 4666 
Q 3281 4666 3915 4102 
Q 4550 3538 4550 2338 
Q 4550 1131 3912 565 
Q 3275 0 1925 0 
L 628 0 
L 628 4666 
z
" transform="scale(0.015625)"/>
      <path id="DejaVuSans-76" d="M 191 3500 
L 800 3500 
L 1894 563 
L 2988 3500 
L 3597 3500 
L 2284 0 
L 1503 0 
L 191 3500 
z
" transform="scale(0.015625)"/>
      <path id="DejaVuSans-6f" d="M 1959 3097 
Q 1497 3097 1228 2736 
Q 959 2375 959 1747 
Q 959 1119 1226 758 
Q 1494 397 1959 397 
Q 2419 397 2687 759 
Q 2956 1122 2956 1747 
Q 2956 2369 2687 2733 
Q 2419 3097 1959 3097 
z
M 1959 3584 
Q 2709 3584 3137 3096 
Q 3566 2609 3566 1747 
Q 3566 888 3137 398 
Q 2709 -91 1959 -91 
Q 1206 -91 779 398 
Q 353 888 353 1747 
Q 353 2609 779 3096 
Q 1206 3584 1959 3584 
z
" transform="scale(0.015625)"/>
      <path id="DejaVuSans-66" d="M 2375 4863 
L 2375 4384 
L 1825 4384 
Q 1516 4384 1395 4259 
Q 1275 4134 1275 3809 
L 1275 3500 
L 2222 3500 
L 2222 3053 
L 1275 3053 
L 1275 0 
L 697 0 
L 697 3053 
L 147 3053 
L 147 3500 
L 697 3500 
L 697 3744 
Q 697 4328 969 4595 
Q 1241 4863 1831 4863 
L 2375 4863 
z
" transform="scale(0.015625)"/>
      <path id="DejaVuSans-63" d="M 3122 3366 
L 3122 2828 
Q 2878 2963 2633 3030 
Q 2388 3097 2138 3097 
Q 1578 3097 1268 2742 
Q 959 2388 959 1747 
Q 959 1106 1268 751 
Q 1578 397 2138 397 
Q 2388 397 2633 464 
Q 2878 531 3122 666 
L 3122 134 
Q 2881 22 2623 -34 
Q 2366 -91 2075 -91 
Q 1284 -91 818 406 
Q 353 903 353 1747 
Q 353 2603 823 3093 
Q 1294 3584 2113 3584 
Q 2378 3584 2631 3529 
Q 2884 3475 3122 3366 
z
" transform="scale(0.015625)"/>
      <path id="DejaVuSans-68" d="M 3513 2113 
L 3513 0 
L 2938 0 
L 2938 2094 
Q 2938 2591 2744 2837 
Q 2550 3084 2163 3084 
Q 1697 3084 1428 2787 
Q 1159 2491 1159 1978 
L 1159 0 
L 581 0 
L 581 4863 
L 1159 4863 
L 1159 2956 
Q 1366 3272 1645 3428 
Q 1925 3584 2291 3584 
Q 2894 3584 3203 3211 
Q 3513 2838 3513 2113 
z
" transform="scale(0.015625)"/>
      <path id="DejaVuSans-3a" d="M 750 794 
L 1409 794 
L 1409 0 
L 750 0 
L 750 794 
z
M 750 3309 
L 1409 3309 
L 1409 2516 
L 750 2516 
L 750 3309 
z
" transform="scale(0.015625)"/>
      <path id="DejaVuSans-73" d="M 2834 3397 
L 2834 2853 
Q 2591 2978 2328 3040 
Q 2066 3103 1784 3103 
Q 1356 3103 1142 2972 
Q 928 2841 928 2578 
Q 928 2378 1081 2264 
Q 1234 2150 1697 2047 
L 1894 2003 
Q 2506 1872 2764 1633 
Q 3022 1394 3022 966 
Q 3022 478 2636 193 
Q 2250 -91 1575 -91 
Q 1294 -91 989 -36 
Q 684 19 347 128 
L 347 722 
Q 666 556 975 473 
Q 1284 391 1588 391 
Q 1994 391 2212 530 
Q 2431 669 2431 922 
Q 2431 1156 2273 1281 
Q 2116 1406 1581 1522 
L 1381 1569 
Q 847 1681 609 1914 
Q 372 2147 372 2553 
Q 372 3047 722 3315 
Q 1072 3584 1716 3584 
Q 2034 3584 2315 3537 
Q 2597 3491 2834 3397 
z
" transform="scale(0.015625)"/>
      <path id="DejaVuSans-6d" d="M 3328 2828 
Q 3544 3216 3844 3400 
Q 4144 3584 4550 3584 
Q 5097 3584 5394 3201 
Q 5691 2819 5691 2113 
L 5691 0 
L 5113 0 
L 5113 2094 
Q 5113 2597 4934 2840 
Q 4756 3084 4391 3084 
Q 3944 3084 3684 2787 
Q 3425 2491 3425 1978 
L 3425 0 
L 2847 0 
L 2847 2094 
Q 2847 2600 2669 2842 
Q 2491 3084 2119 3084 
Q 1678 3084 1418 2786 
Q 1159 2488 1159 1978 
L 1159 0 
L 581 0 
L 581 3500 
L 1159 3500 
L 1159 2956 
Q 1356 3278 1631 3431 
Q 1906 3584 2284 3584 
Q 2666 3584 2933 3390 
Q 3200 3197 3328 2828 
z
" transform="scale(0.015625)"/>
      <path id="DejaVuSans-2192" d="M 5050 2147 
L 5050 1866 
L 3822 638 
L 3447 1013 
L 4175 1741 
L 366 1741 
L 366 2272 
L 4175 2272 
L 3447 3000 
L 3822 3375 
L 5050 2147 
z
" transform="scale(0.015625)"/>
     </defs>
     <use xlink:href="#DejaVuSans-44"/>
     <use xlink:href="#DejaVuSans-65" transform="translate(77.001953 0)"/>
     <use xlink:href="#DejaVuSans-72" transform="translate(138.525391 0)"/>
     <use xlink:href="#DejaVuSans-69" transform="translate(179.638672 0)"/>
     <use xlink:href="#DejaVuSans-76" transform="translate(207.421875 0)"/>
     <use xlink:href="#DejaVuSans-61" transform="translate(266.601562 0)"/>
     <use xlink:href="#DejaVuSans-74" transform="translate(327.880859 0)"/>
     <use xlink:href="#DejaVuSans-69" transform="translate(367.089844 0)"/>
     <use xlink:href="#DejaVuSans-76" transform="translate(394.873047 0)"/>
     <use xlink:href="#DejaVuSans-65" transform="translate(454.052734 0)"/>
     <use xlink:href="#DejaVuSans-20" transform="translate(515.576172 0)"/>
     <use xlink:href="#DejaVuSans-6f" transform="translate(547.363281 0)"/>
     <use xlink:href="#DejaVuSans-66" transform="translate(608.544922 0)"/>
     <use xlink:href="#DejaVuSans-20" transform="translate(643.75 0)"/>
     <use xlink:href="#DejaVuSans-65" transform="translate(675.537109 0)"/>
     <use xlink:href="#DejaVuSans-61" transform="translate(737.060547 0)"/>
     <use xlink:href="#DejaVuSans-63" transform="translate(798.339844 0)"/>
     <use xlink:href="#DejaVuSans-68" transform="translate(853.320312 0)"/>
     <use xlink:href="#DejaVuSans-20" transform="translate(916.699219 0)"/>
     <use xlink:href="#DejaVuSans-61" transform="translate(948.486328 0)"/>
     <use xlink:href="#DejaVuSans-63" transform="translate(1009.765625 0)"/>
     <use xlink:href="#DejaVuSans-74" transform="translate(1064.746094 0)"/>
     <use xlink:href="#DejaVuSans-69" transform="translate(1103.955078 0)"/>
     <use xlink:href="#DejaVuSans-76" transform="translate(1131.738281 0)"/>
     <use xlink:href="#DejaVuSans-61" transform="translate(1190.917969 0)"/>
     <use xlink:href="#DejaVuSans-74" transform="translate(1252.197266 0)"/>
     <use xlink:href="#DejaVuSans-69" transform="translate(1291.40625 0)"/>
     <use xlink:href="#DejaVuSans-6f" transform="translate(1319.189453 0)"/>
     <use xlink:href="#DejaVuSans-6e" transform="translate(1380.371094 0)"/>
     <use xlink:href="#DejaVuSans-3a" transform="translate(1443.75 0)"/>
     <use xlink:href="#DejaVuSans-20" transform="translate(1477.441406 0)"/>
     <use xlink:href="#DejaVuSans-73" transform="translate(1509.228516 0)"/>
     <use xlink:href="#DejaVuSans-69" transform="translate(1561.328125 0)"/>
     <use xlink:href="#DejaVuSans-67" transform="translate(1589.111328 0)"/>
     <use xlink:href="#DejaVuSans-6d" transform="translate(1652.587891 0)"/>
     <use xlink:href="#DejaVuSans-6f" transform="translate(1750 0)"/>
     <use xlink:href="#DejaVuSans-69" transform="translate(1811.181641 0)"/>
     <use xlink:href="#DejaVuSans-64" transform="translate(1838.964844 0)"/>
     <use xlink:href="#DejaVuSans-2f" transform="translate(1902.441406 0)"/>
     <use xlink:href="#DejaVuSans-74" transform="translate(1936.132812 0)"/>
     <use xlink:href="#DejaVuSans-61" transform="translate(1975.341797 0)"/>
     <use xlink:href="#DejaVuSans-6e" transform="translate(2036.621094 0)"/>
     <use xlink:href="#DejaVuSans-68" transform="translate(2100 0)"/>
     <use xlink:href="#DejaVuSans-20" transform="translate(2163.378906 0)"/>
     <use xlink:href="#DejaVuSans-73" transform="translate(2195.166016 0)"/>
     <use xlink:href="#DejaVuSans-61" transform="translate(2247.265625 0)"/>
     <use xlink:href="#DejaVuSans-74" transform="translate(2308.544922 0)"/>
     <use xlink:href="#DejaVuSans-75" transform="translate(2347.753906 0)"/>
     <use xlink:href="#DejaVuSans-72" transform="translate(2411.132812 0)"/>
     <use xlink:href="#DejaVuSans-61" transform="translate(2452.246094 0)"/>
     <use xlink:href="#DejaVuSans-74" transform="translate(2513.525391 0)"/>
     <use xlink:href="#DejaVuSans-65" transform="translate(2552.734375 0)"/>
     <use xlink:href="#DejaVuSans-20" transform="translate(2614.257812 0)"/>
     <use xlink:href="#DejaVuSans-2192" transform="translate(2646.044922 0)"/>
     <use xlink:href="#DejaVuSans-20" transform="translate(2729.833984 0)"/>
     <use xlink:href="#DejaVuSans-76" transform="translate(2761.621094 0)"/>
     <use xlink:href="#DejaVuSans-61" transform="translate(2820.800781 0)"/>
     <use xlink:href="#DejaVuSans-6e" transform="translate(2882.080078 0)"/>
     <use xlink:href="#DejaVuSans-69" transform="translate(2945.458984 0)"/>
     <use xlink:href="#DejaVuSans-73" transform="translate(2973.242188 0)"/>
     <use xlink:href="#DejaVuSans-68" transform="translate(3025.341797 0)"/>
     <use xlink:href="#DejaVuSans-69" transform="translate(3088.720703 0)"/>
     <use xlink:href="#DejaVuSans-6e" transform="translate(3116.503906 0)"/>
     <use xlink:href="#DejaVuSans-67" transform="translate(3179.882812 0)"/>
     <use xlink:href="#DejaVuSans-20" transform="translate(3243.359375 0)"/>
     <use xlink:href="#DejaVuSans-67" transform="translate(3275.146484 0)"/>
     <use xlink:href="#DejaVuSans-72" transform="translate(3338.623047 0)"/>
     <use xlink:href="#DejaVuSans-61" transform="translate(3379.736328 0)"/>
     <use xlink:href="#DejaVuSans-64" transform="translate(3441.015625 0)"/>
     <use xlink:href="#DejaVuSans-69" transform="translate(3504.492188 0)"/>
     <use xlink:href="#DejaVuSans-65" transform="translate(3532.275391 0)"/>
     <use xlink:href="#DejaVuSans-6e" transform="translate(3593.798828 0)"/>
     <use xlink:href="#DejaVuSans-74" transform="translate(3657.177734 0)"/>
    </g>
   </g>
   <g id="legend_1">
    <g id="patch_7">
     <path d="M 560.776875 308.478125 
L 698.26125 308.478125 
Q 700.26125 308.478125 700.26125 306.478125 
L 700.26125 234.0875 
Q 700.26125 232.0875 698.26125 232.0875 
L 560.776875 232.0875 
Q 558.776875 232.0875 558.776875 234.0875 
L 558.776875 306.478125 
Q 558.776875 308.478125 560.776875 308.478125 
z
" style="fill: #ffffff; opacity: 0.8; stroke: #cccccc; stroke-linejoin: miter"/>
    </g>
    <g id="line2d_32">
     <path d="M 562.776875 240.185938 
L 572.776875 240.185938 
L 582.776875 240.185938 
" style="fill: none; stroke: #7aa6c2; stroke-width: 2.2; stroke-linecap: square"/>
    </g>
    <g id="text_16">
     <!-- sigmoid' (max=0.25) -->
     <g transform="translate(590.776875 243.685938) scale(0.1 -0.1)">
      <defs>
       <path id="DejaVuSans-27" d="M 1147 4666 
L 1147 2931 
L 616 2931 
L 616 4666 
L 1147 4666 
z
" transform="scale(0.015625)"/>
       <path id="DejaVuSans-28" d="M 1984 4856 
Q 1566 4138 1362 3434 
Q 1159 2731 1159 2009 
Q 1159 1288 1364 580 
Q 1569 -128 1984 -844 
L 1484 -844 
Q 1016 -109 783 600 
Q 550 1309 550 2009 
Q 550 2706 781 3412 
Q 1013 4119 1484 4856 
L 1984 4856 
z
" transform="scale(0.015625)"/>
       <path id="DejaVuSans-78" d="M 3513 3500 
L 2247 1797 
L 3578 0 
L 2900 0 
L 1881 1375 
L 863 0 
L 184 0 
L 1544 1831 
L 300 3500 
L 978 3500 
L 1906 2253 
L 2834 3500 
L 3513 3500 
z
" transform="scale(0.015625)"/>
       <path id="DejaVuSans-3d" d="M 678 2906 
L 4684 2906 
L 4684 2381 
L 678 2381 
L 678 2906 
z
M 678 1631 
L 4684 1631 
L 4684 1100 
L 678 1100 
L 678 1631 
z
" transform="scale(0.015625)"/>
       <path id="DejaVuSans-35" d="M 691 4666 
L 3169 4666 
L 3169 4134 
L 1269 4134 
L 1269 2991 
Q 1406 3038 1543 3061 
Q 1681 3084 1819 3084 
Q 2600 3084 3056 2656 
Q 3513 2228 3513 1497 
Q 3513 744 3044 326 
Q 2575 -91 1722 -91 
Q 1428 -91 1123 -41 
Q 819 9 494 109 
L 494 744 
Q 775 591 1075 516 
Q 1375 441 1709 441 
Q 2250 441 2565 725 
Q 2881 1009 2881 1497 
Q 2881 1984 2565 2268 
Q 2250 2553 1709 2553 
Q 1456 2553 1204 2497 
Q 953 2441 691 2322 
L 691 4666 
z
" transform="scale(0.015625)"/>
       <path id="DejaVuSans-29" d="M 513 4856 
L 1013 4856 
Q 1481 4119 1714 3412 
Q 1947 2706 1947 2009 
Q 1947 1309 1714 600 
Q 1481 -109 1013 -844 
L 513 -844 
Q 928 -128 1133 580 
Q 1338 1288 1338 2009 
Q 1338 2731 1133 3434 
Q 928 4138 513 4856 
z
" transform="scale(0.015625)"/>
      </defs>
      <use xlink:href="#DejaVuSans-73"/>
      <use xlink:href="#DejaVuSans-69" transform="translate(52.099609 0)"/>
      <use xlink:href="#DejaVuSans-67" transform="translate(79.882812 0)"/>
      <use xlink:href="#DejaVuSans-6d" transform="translate(143.359375 0)"/>
      <use xlink:href="#DejaVuSans-6f" transform="translate(240.771484 0)"/>
      <use xlink:href="#DejaVuSans-69" transform="translate(301.953125 0)"/>
      <use xlink:href="#DejaVuSans-64" transform="translate(329.736328 0)"/>
      <use xlink:href="#DejaVuSans-27" transform="translate(393.212891 0)"/>
      <use xlink:href="#DejaVuSans-20" transform="translate(420.703125 0)"/>
      <use xlink:href="#DejaVuSans-28" transform="translate(452.490234 0)"/>
      <use xlink:href="#DejaVuSans-6d" transform="translate(491.503906 0)"/>
      <use xlink:href="#DejaVuSans-61" transform="translate(588.916016 0)"/>
      <use xlink:href="#DejaVuSans-78" transform="translate(650.195312 0)"/>
      <use xlink:href="#DejaVuSans-3d" transform="translate(709.375 0)"/>
      <use xlink:href="#DejaVuSans-30" transform="translate(793.164062 0)"/>
      <use xlink:href="#DejaVuSans-2e" transform="translate(856.787109 0)"/>
      <use xlink:href="#DejaVuSans-32" transform="translate(888.574219 0)"/>
      <use xlink:href="#DejaVuSans-35" transform="translate(952.197266 0)"/>
      <use xlink:href="#DejaVuSans-29" transform="translate(1015.820312 0)"/>
     </g>
    </g>
    <g id="line2d_33">
     <path d="M 562.776875 254.864063 
L 572.776875 254.864063 
L 582.776875 254.864063 
" style="fill: none; stroke: #59a14f; stroke-width: 2.2; stroke-linecap: square"/>
    </g>
    <g id="text_17">
     <!-- tanh' (max=1.0) -->
     <g transform="translate(590.776875 258.364063) scale(0.1 -0.1)">
      <use xlink:href="#DejaVuSans-74"/>
      <use xlink:href="#DejaVuSans-61" transform="translate(39.208984 0)"/>
      <use xlink:href="#DejaVuSans-6e" transform="translate(100.488281 0)"/>
      <use xlink:href="#DejaVuSans-68" transform="translate(163.867188 0)"/>
      <use xlink:href="#DejaVuSans-27" transform="translate(227.246094 0)"/>
      <use xlink:href="#DejaVuSans-20" transform="translate(254.736328 0)"/>
      <use xlink:href="#DejaVuSans-28" transform="translate(286.523438 0)"/>
      <use xlink:href="#DejaVuSans-6d" transform="translate(325.537109 0)"/>
      <use xlink:href="#DejaVuSans-61" transform="translate(422.949219 0)"/>
      <use xlink:href="#DejaVuSans-78" transform="translate(484.228516 0)"/>
      <use xlink:href="#DejaVuSans-3d" transform="translate(543.408203 0)"/>
      <use xlink:href="#DejaVuSans-31" transform="translate(627.197266 0)"/>
      <use xlink:href="#DejaVuSans-2e" transform="translate(690.820312 0)"/>
      <use xlink:href="#DejaVuSans-30" transform="translate(722.607422 0)"/>
      <use xlink:href="#DejaVuSans-29" transform="translate(786.230469 0)"/>
     </g>
    </g>
    <g id="line2d_34">
     <path d="M 562.776875 269.542188 
L 572.776875 269.542188 
L 582.776875 269.542188 
" style="fill: none; stroke: #e15759; stroke-width: 2.2; stroke-linecap: square"/>
    </g>
    <g id="text_18">
     <!-- ReLU' (1 or 0) -->
     <g transform="translate(590.776875 273.042188) scale(0.1 -0.1)">
      <defs>
       <path id="DejaVuSans-52" d="M 2841 2188 
Q 3044 2119 3236 1894 
Q 3428 1669 3622 1275 
L 4263 0 
L 3584 0 
L 2988 1197 
Q 2756 1666 2539 1819 
Q 2322 1972 1947 1972 
L 1259 1972 
L 1259 0 
L 628 0 
L 628 4666 
L 2053 4666 
Q 2853 4666 3247 4331 
Q 3641 3997 3641 3322 
Q 3641 2881 3436 2590 
Q 3231 2300 2841 2188 
z
M 1259 4147 
L 1259 2491 
L 2053 2491 
Q 2509 2491 2742 2702 
Q 2975 2913 2975 3322 
Q 2975 3731 2742 3939 
Q 2509 4147 2053 4147 
L 1259 4147 
z
" transform="scale(0.015625)"/>
       <path id="DejaVuSans-4c" d="M 628 4666 
L 1259 4666 
L 1259 531 
L 3531 531 
L 3531 0 
L 628 0 
L 628 4666 
z
" transform="scale(0.015625)"/>
       <path id="DejaVuSans-55" d="M 556 4666 
L 1191 4666 
L 1191 1831 
Q 1191 1081 1462 751 
Q 1734 422 2344 422 
Q 2950 422 3222 751 
Q 3494 1081 3494 1831 
L 3494 4666 
L 4128 4666 
L 4128 1753 
Q 4128 841 3676 375 
Q 3225 -91 2344 -91 
Q 1459 -91 1007 375 
Q 556 841 556 1753 
L 556 4666 
z
" transform="scale(0.015625)"/>
      </defs>
      <use xlink:href="#DejaVuSans-52"/>
      <use xlink:href="#DejaVuSans-65" transform="translate(64.982422 0)"/>
      <use xlink:href="#DejaVuSans-4c" transform="translate(126.505859 0)"/>
      <use xlink:href="#DejaVuSans-55" transform="translate(177.21875 0)"/>
      <use xlink:href="#DejaVuSans-27" transform="translate(250.412109 0)"/>
      <use xlink:href="#DejaVuSans-20" transform="translate(277.902344 0)"/>
      <use xlink:href="#DejaVuSans-28" transform="translate(309.689453 0)"/>
      <use xlink:href="#DejaVuSans-31" transform="translate(348.703125 0)"/>
      <use xlink:href="#DejaVuSans-20" transform="translate(412.326172 0)"/>
      <use xlink:href="#DejaVuSans-6f" transform="translate(444.113281 0)"/>
      <use xlink:href="#DejaVuSans-72" transform="translate(505.294922 0)"/>
      <use xlink:href="#DejaVuSans-20" transform="translate(546.408203 0)"/>
      <use xlink:href="#DejaVuSans-30" transform="translate(578.195312 0)"/>
      <use xlink:href="#DejaVuSans-29" transform="translate(641.818359 0)"/>
     </g>
    </g>
    <g id="line2d_35">
     <path d="M 562.776875 284.220313 
L 572.776875 284.220313 
L 582.776875 284.220313 
" style="fill: none; stroke: #f28e2b; stroke-width: 2.2; stroke-linecap: square"/>
    </g>
    <g id="text_19">
     <!-- Leaky ReLU' (1 or α) -->
     <g transform="translate(590.776875 287.720313) scale(0.1 -0.1)">
      <defs>
       <path id="DejaVuSans-6b" d="M 581 4863 
L 1159 4863 
L 1159 1991 
L 2875 3500 
L 3609 3500 
L 1753 1863 
L 3688 0 
L 2938 0 
L 1159 1709 
L 1159 0 
L 581 0 
L 581 4863 
z
" transform="scale(0.015625)"/>
       <path id="DejaVuSans-79" d="M 2059 -325 
Q 1816 -950 1584 -1140 
Q 1353 -1331 966 -1331 
L 506 -1331 
L 506 -850 
L 844 -850 
Q 1081 -850 1212 -737 
Q 1344 -625 1503 -206 
L 1606 56 
L 191 3500 
L 800 3500 
L 1894 763 
L 2988 3500 
L 3597 3500 
L 2059 -325 
z
" transform="scale(0.015625)"/>
       <path id="DejaVuSans-3b1" d="M 2644 1628 
L 2506 2350 
Q 2366 3091 1809 3091 
Q 1391 3091 1200 2747 
Q 959 2316 959 1747 
Q 959 1059 1194 731 
Q 1431 397 1809 397 
Q 2228 397 2453 1063 
L 2644 1628 
z
M 2966 2584 
L 3275 3500 
L 3788 3500 
L 3147 1603 
L 3272 919 
Q 3300 766 3409 638 
Q 3538 488 3638 488 
L 3913 488 
L 3913 0 
L 3569 0 
Q 3275 0 3013 263 
Q 2884 394 2831 669 
Q 2688 322 2394 50 
Q 2256 -78 1809 -78 
Q 1075 -78 719 397 
Q 353 888 353 1747 
Q 353 2666 750 3097 
Q 1191 3578 1809 3578 
Q 2781 3578 2966 2584 
z
" transform="scale(0.015625)"/>
      </defs>
      <use xlink:href="#DejaVuSans-4c"/>
      <use xlink:href="#DejaVuSans-65" transform="translate(53.962891 0)"/>
      <use xlink:href="#DejaVuSans-61" transform="translate(115.486328 0)"/>
      <use xlink:href="#DejaVuSans-6b" transform="translate(176.765625 0)"/>
      <use xlink:href="#DejaVuSans-79" transform="translate(231.050781 0)"/>
      <use xlink:href="#DejaVuSans-20" transform="translate(290.230469 0)"/>
      <use xlink:href="#DejaVuSans-52" transform="translate(322.017578 0)"/>
      <use xlink:href="#DejaVuSans-65" transform="translate(387 0)"/>
      <use xlink:href="#DejaVuSans-4c" transform="translate(448.523438 0)"/>
      <use xlink:href="#DejaVuSans-55" transform="translate(499.236328 0)"/>
      <use xlink:href="#DejaVuSans-27" transform="translate(572.429688 0)"/>
      <use xlink:href="#DejaVuSans-20" transform="translate(599.919922 0)"/>
      <use xlink:href="#DejaVuSans-28" transform="translate(631.707031 0)"/>
      <use xlink:href="#DejaVuSans-31" transform="translate(670.720703 0)"/>
      <use xlink:href="#DejaVuSans-20" transform="translate(734.34375 0)"/>
      <use xlink:href="#DejaVuSans-6f" transform="translate(766.130859 0)"/>
      <use xlink:href="#DejaVuSans-72" transform="translate(827.3125 0)"/>
      <use xlink:href="#DejaVuSans-20" transform="translate(868.425781 0)"/>
      <use xlink:href="#DejaVuSans-3b1" transform="translate(900.212891 0)"/>
      <use xlink:href="#DejaVuSans-29" transform="translate(966.130859 0)"/>
     </g>
    </g>
    <g id="line2d_36">
     <path d="M 562.776875 298.898438 
L 572.776875 298.898438 
L 582.776875 298.898438 
" style="fill: none; stroke: #b07aa1; stroke-width: 2.2; stroke-linecap: square"/>
    </g>
    <g id="text_20">
     <!-- GELU' -->
     <g transform="translate(590.776875 302.398438) scale(0.1 -0.1)">
      <defs>
       <path id="DejaVuSans-47" d="M 3809 666 
L 3809 1919 
L 2778 1919 
L 2778 2438 
L 4434 2438 
L 4434 434 
Q 4069 175 3628 42 
Q 3188 -91 2688 -91 
Q 1594 -91 976 548 
Q 359 1188 359 2328 
Q 359 3472 976 4111 
Q 1594 4750 2688 4750 
Q 3144 4750 3555 4637 
Q 3966 4525 4313 4306 
L 4313 3634 
Q 3963 3931 3569 4081 
Q 3175 4231 2741 4231 
Q 1884 4231 1454 3753 
Q 1025 3275 1025 2328 
Q 1025 1384 1454 906 
Q 1884 428 2741 428 
Q 3075 428 3337 486 
Q 3600 544 3809 666 
z
" transform="scale(0.015625)"/>
       <path id="DejaVuSans-45" d="M 628 4666 
L 3578 4666 
L 3578 4134 
L 1259 4134 
L 1259 2753 
L 3481 2753 
L 3481 2222 
L 1259 2222 
L 1259 531 
L 3634 531 
L 3634 0 
L 628 0 
L 628 4666 
z
" transform="scale(0.015625)"/>
      </defs>
      <use xlink:href="#DejaVuSans-47"/>
      <use xlink:href="#DejaVuSans-45" transform="translate(77.490234 0)"/>
      <use xlink:href="#DejaVuSans-4c" transform="translate(140.673828 0)"/>
      <use xlink:href="#DejaVuSans-55" transform="translate(191.386719 0)"/>
      <use xlink:href="#DejaVuSans-27" transform="translate(264.580078 0)"/>
     </g>
    </g>
   </g>
  </g>
 </g>
 <defs>
  <clipPath id="p163eb1b0b0">
   <rect x="43.78125" y="22.318125" width="661.48" height="291.16"/>
  </clipPath>
 </defs>
</svg>
