<?xml version="1.0" encoding="utf-8" standalone="no"?>
<!DOCTYPE svg PUBLIC "-//W3C//DTD SVG 1.1//EN"
  "http://www.w3.org/Graphics/SVG/1.1/DTD/svg11.dtd">
<svg xmlns:xlink="http://www.w3.org/1999/xlink" width="640.380312pt" height="222.074687pt" viewBox="0 0 640.380312 222.074687" xmlns="http://www.w3.org/2000/svg" version="1.1">
<defs>
  <style type="text/css">*{stroke-linejoin: round; stroke-linecap: butt}</style>
 </defs>
 <g id="figure_1">
  <g id="patch_1">
   <path d="M 0 222.074687 
L 640.380312 222.074687 
L 640.380312 0 
L 0 0 
z
" style="fill: #ffffff"/>
  </g>
  <g id="axes_1">
   <g id="patch_2">
    <path d="M 42.620313 184.518437 
L 229.940312 184.518437 
L 229.940312 20.798437 
L 42.620313 20.798437 
z
" style="fill: #ffffff"/>
   </g>
   <g id="matplotlib.axis_1">
    <g id="xtick_1">
     <g id="line2d_1">
      <path d="M 77.742812 184.518437 
L 77.742812 20.798437 
" clip-path="url(#p5f820a8498)" style="fill: none; stroke: #b0b0b0; stroke-opacity: 0.25; stroke-width: 0.8; stroke-linecap: square"/>
     </g>
     <g id="line2d_2">
      <defs>
       <path id="mdbe2e4d0cd" d="M 0 0 
L 0 3.5 
" style="stroke: #000000; stroke-width: 0.8"/>
      </defs>
      <g>
       <use xlink:href="#mdbe2e4d0cd" x="77.742812" y="184.518437" style="stroke: #000000; stroke-width: 0.8"/>
      </g>
     </g>
     <g id="text_1">
      <!-- −2 -->
      <g transform="translate(70.371719 199.116875) scale(0.1 -0.1)">
       <defs>
        <path id="DejaVuSans-2212" d="M 678 2272 
L 4684 2272 
L 4684 1741 
L 678 1741 
L 678 2272 
z
" transform="scale(0.015625)"/>
        <path id="DejaVuSans-32" d="M 1228 531 
L 3431 531 
L 3431 0 
L 469 0 
L 469 531 
Q 828 903 1448 1529 
Q 2069 2156 2228 2338 
Q 2531 2678 2651 2914 
Q 2772 3150 2772 3378 
Q 2772 3750 2511 3984 
Q 2250 4219 1831 4219 
Q 1534 4219 1204 4116 
Q 875 4013 500 3803 
L 500 4441 
Q 881 4594 1212 4672 
Q 1544 4750 1819 4750 
Q 2544 4750 2975 4387 
Q 3406 4025 3406 3419 
Q 3406 3131 3298 2873 
Q 3191 2616 2906 2266 
Q 2828 2175 2409 1742 
Q 1991 1309 1228 531 
z
" transform="scale(0.015625)"/>
       </defs>
       <use xlink:href="#DejaVuSans-2212"/>
       <use xlink:href="#DejaVuSans-32" transform="translate(83.789062 0)"/>
      </g>
     </g>
    </g>
    <g id="xtick_2">
     <g id="line2d_3">
      <path d="M 136.280312 184.518437 
L 136.280312 20.798437 
" clip-path="url(#p5f820a8498)" style="fill: none; stroke: #b0b0b0; stroke-opacity: 0.25; stroke-width: 0.8; stroke-linecap: square"/>
     </g>
     <g id="line2d_4">
      <g>
       <use xlink:href="#mdbe2e4d0cd" x="136.280312" y="184.518437" style="stroke: #000000; stroke-width: 0.8"/>
      </g>
     </g>
     <g id="text_2">
      <!-- 0 -->
      <g transform="translate(133.099062 199.116875) scale(0.1 -0.1)">
       <defs>
        <path id="DejaVuSans-30" d="M 2034 4250 
Q 1547 4250 1301 3770 
Q 1056 3291 1056 2328 
Q 1056 1369 1301 889 
Q 1547 409 2034 409 
Q 2525 409 2770 889 
Q 3016 1369 3016 2328 
Q 3016 3291 2770 3770 
Q 2525 4250 2034 4250 
z
M 2034 4750 
Q 2819 4750 3233 4129 
Q 3647 3509 3647 2328 
Q 3647 1150 3233 529 
Q 2819 -91 2034 -91 
Q 1250 -91 836 529 
Q 422 1150 422 2328 
Q 422 3509 836 4129 
Q 1250 4750 2034 4750 
z
" transform="scale(0.015625)"/>
       </defs>
       <use xlink:href="#DejaVuSans-30"/>
      </g>
     </g>
    </g>
    <g id="xtick_3">
     <g id="line2d_5">
      <path d="M 194.817812 184.518437 
L 194.817812 20.798437 
" clip-path="url(#p5f820a8498)" style="fill: none; stroke: #b0b0b0; stroke-opacity: 0.25; stroke-width: 0.8; stroke-linecap: square"/>
     </g>
     <g id="line2d_6">
      <g>
       <use xlink:href="#mdbe2e4d0cd" x="194.817812" y="184.518437" style="stroke: #000000; stroke-width: 0.8"/>
      </g>
     </g>
     <g id="text_3">
      <!-- 2 -->
      <g transform="translate(191.636562 199.116875) scale(0.1 -0.1)">
       <use xlink:href="#DejaVuSans-32"/>
      </g>
     </g>
    </g>
    <g id="text_4">
     <!-- x -->
     <g transform="translate(133.320937 212.795) scale(0.1 -0.1)">
      <defs>
       <path id="DejaVuSans-78" d="M 3513 3500 
L 2247 1797 
L 3578 0 
L 2900 0 
L 1881 1375 
L 863 0 
L 184 0 
L 1544 1831 
L 300 3500 
L 978 3500 
L 1906 2253 
L 2834 3500 
L 3513 3500 
z
" transform="scale(0.015625)"/>
      </defs>
      <use xlink:href="#DejaVuSans-78"/>
     </g>
    </g>
   </g>
   <g id="matplotlib.axis_2">
    <g id="ytick_1">
     <g id="line2d_7">
      <path d="M 42.620313 169.073154 
L 229.940312 169.073154 
" clip-path="url(#p5f820a8498)" style="fill: none; stroke: #b0b0b0; stroke-opacity: 0.25; stroke-width: 0.8; stroke-linecap: square"/>
     </g>
     <g id="line2d_8">
      <defs>
       <path id="md37067adda" d="M 0 0 
L -3.5 0 
" style="stroke: #000000; stroke-width: 0.8"/>
      </defs>
      <g>
       <use xlink:href="#md37067adda" x="42.620313" y="169.073154" style="stroke: #000000; stroke-width: 0.8"/>
      </g>
     </g>
     <g id="text_5">
      <!-- −2 -->
      <g transform="translate(20.878125 172.872373) scale(0.1 -0.1)">
       <use xlink:href="#DejaVuSans-2212"/>
       <use xlink:href="#DejaVuSans-32" transform="translate(83.789062 0)"/>
      </g>
     </g>
    </g>
    <g id="ytick_2">
     <g id="line2d_9">
      <path d="M 42.620313 138.182588 
L 229.940312 138.182588 
" clip-path="url(#p5f820a8498)" style="fill: none; stroke: #b0b0b0; stroke-opacity: 0.25; stroke-width: 0.8; stroke-linecap: square"/>
     </g>
     <g id="line2d_10">
      <g>
       <use xlink:href="#md37067adda" x="42.620313" y="138.182588" style="stroke: #000000; stroke-width: 0.8"/>
      </g>
     </g>
     <g id="text_6">
      <!-- −1 -->
      <g transform="translate(20.878125 141.981807) scale(0.1 -0.1)">
       <defs>
        <path id="DejaVuSans-31" d="M 794 531 
L 1825 531 
L 1825 4091 
L 703 3866 
L 703 4441 
L 1819 4666 
L 2450 4666 
L 2450 531 
L 3481 531 
L 3481 0 
L 794 0 
L 794 531 
z
" transform="scale(0.015625)"/>
       </defs>
       <use xlink:href="#DejaVuSans-2212"/>
       <use xlink:href="#DejaVuSans-31" transform="translate(83.789062 0)"/>
      </g>
     </g>
    </g>
    <g id="ytick_3">
     <g id="line2d_11">
      <path d="M 42.620313 107.292022 
L 229.940312 107.292022 
" clip-path="url(#p5f820a8498)" style="fill: none; stroke: #b0b0b0; stroke-opacity: 0.25; stroke-width: 0.8; stroke-linecap: square"/>
     </g>
     <g id="line2d_12">
      <g>
       <use xlink:href="#md37067adda" x="42.620313" y="107.292022" style="stroke: #000000; stroke-width: 0.8"/>
      </g>
     </g>
     <g id="text_7">
      <!-- 0 -->
      <g transform="translate(29.257813 111.091241) scale(0.1 -0.1)">
       <use xlink:href="#DejaVuSans-30"/>
      </g>
     </g>
    </g>
    <g id="ytick_4">
     <g id="line2d_13">
      <path d="M 42.620313 76.401456 
L 229.940312 76.401456 
" clip-path="url(#p5f820a8498)" style="fill: none; stroke: #b0b0b0; stroke-opacity: 0.25; stroke-width: 0.8; stroke-linecap: square"/>
     </g>
     <g id="line2d_14">
      <g>
       <use xlink:href="#md37067adda" x="42.620313" y="76.401456" style="stroke: #000000; stroke-width: 0.8"/>
      </g>
     </g>
     <g id="text_8">
      <!-- 1 -->
      <g transform="translate(29.257813 80.200675) scale(0.1 -0.1)">
       <use xlink:href="#DejaVuSans-31"/>
      </g>
     </g>
    </g>
    <g id="ytick_5">
     <g id="line2d_15">
      <path d="M 42.620313 45.51089 
L 229.940312 45.51089 
" clip-path="url(#p5f820a8498)" style="fill: none; stroke: #b0b0b0; stroke-opacity: 0.25; stroke-width: 0.8; stroke-linecap: square"/>
     </g>
     <g id="line2d_16">
      <g>
       <use xlink:href="#md37067adda" x="42.620313" y="45.51089" style="stroke: #000000; stroke-width: 0.8"/>
      </g>
     </g>
     <g id="text_9">
      <!-- 2 -->
      <g transform="translate(29.257813 49.310109) scale(0.1 -0.1)">
       <use xlink:href="#DejaVuSans-32"/>
      </g>
     </g>
    </g>
    <g id="text_10">
     <!-- y -->
     <g transform="translate(14.798438 105.617812) rotate(-90) scale(0.1 -0.1)">
      <defs>
       <path id="DejaVuSans-79" d="M 2059 -325 
Q 1816 -950 1584 -1140 
Q 1353 -1331 966 -1331 
L 506 -1331 
L 506 -850 
L 844 -850 
Q 1081 -850 1212 -737 
Q 1344 -625 1503 -206 
L 1606 56 
L 191 3500 
L 800 3500 
L 1894 763 
L 2988 3500 
L 3597 3500 
L 2059 -325 
z
" transform="scale(0.015625)"/>
      </defs>
      <use xlink:href="#DejaVuSans-79"/>
     </g>
    </g>
   </g>
   <g id="line2d_17">
    <path d="M 42.620312 135.143755 
L 52.948734 142.642343 
L 57.64347 145.762078 
L 61.39926 148.012393 
L 64.685576 149.75378 
L 67.971891 151.245898 
L 70.788734 152.302186 
L 73.605576 153.133816 
L 76.422418 153.724836 
L 79.23926 154.061522 
L 81.586628 154.139534 
L 83.933997 154.027706 
L 86.281365 153.721979 
L 88.628734 153.21954 
L 90.976102 152.518841 
L 93.32347 151.61961 
L 96.140312 150.279969 
L 98.957155 148.660096 
L 101.773997 146.766729 
L 104.590839 144.609135 
L 107.407681 142.19903 
L 110.693997 139.086964 
L 113.980312 135.676507 
L 117.736102 131.451908 
L 121.961365 126.342455 
L 126.656102 120.314714 
L 133.228734 111.473062 
L 146.84347 93.039449 
L 152.007681 86.500862 
L 156.232944 81.509873 
L 159.988734 77.411208 
L 163.275049 74.125189 
L 166.561365 71.149223 
L 169.378207 68.86376 
L 172.195049 66.836966 
L 175.011891 65.079344 
L 177.828734 63.598906 
L 180.645576 62.4011 
L 182.992944 61.620949 
L 185.340312 61.039321 
L 187.687681 60.655176 
L 190.035049 60.466206 
L 192.382418 60.468848 
L 195.19926 60.71811 
L 198.016102 61.225763 
L 200.832944 61.978855 
L 203.649786 62.962161 
L 206.936102 64.377052 
L 210.222418 66.050665 
L 213.978207 68.236186 
L 218.20347 70.97609 
L 223.367681 74.609118 
L 229.940312 79.440289 
L 229.940312 79.440289 
" clip-path="url(#p5f820a8498)" style="fill: none; stroke-dasharray: 5.55,2.4; stroke-dashoffset: 0; stroke: #59a14f; stroke-width: 1.5"/>
   </g>
   <g id="line2d_18">
    <path d="M 47.575462 -1 
L 48.253997 69.047108 
L 49.192944 132.059598 
L 49.662418 152.73604 
L 50.131891 167.724145 
L 50.601365 177.994605 
L 51.070839 184.39306 
L 51.540312 187.653114 
L 52.009786 188.408217 
L 52.47926 187.20252 
L 52.948734 184.500754 
L 53.887681 176.123974 
L 57.64347 136.377983 
L 58.582418 129.465295 
L 59.521365 124.346469 
L 60.460312 120.958965 
L 60.929786 119.867001 
L 61.39926 119.142724 
L 61.868734 118.757874 
L 62.338207 118.682788 
L 62.807681 118.887142 
L 63.277155 119.340577 
L 64.216102 120.87605 
L 65.155049 123.062681 
L 66.56347 127.125679 
L 71.727681 143.098574 
L 73.136102 146.655739 
L 74.544523 149.714777 
L 75.952944 152.292164 
L 77.361365 154.429031 
L 78.769786 156.175166 
L 80.178207 157.577996 
L 81.586628 158.67608 
L 82.995049 159.49636 
L 84.40347 160.05429 
L 85.811891 160.355948 
L 87.220312 160.401313 
L 88.628734 160.187978 
L 90.037155 159.714749 
L 91.445576 158.984684 
L 92.853997 158.007317 
L 94.262418 156.799909 
L 96.140312 154.876926 
L 98.487681 152.08526 
L 102.712944 146.557235 
L 105.99926 142.403144 
L 108.346628 139.746205 
L 110.693997 137.407994 
L 113.041365 135.359306 
L 116.797155 132.427016 
L 120.08347 129.788486 
L 122.430839 127.611337 
L 124.308734 125.598954 
L 126.186628 123.306541 
L 128.533997 120.038128 
L 130.881365 116.368442 
L 134.167681 110.770279 
L 139.801365 101.095052 
L 142.148734 97.463442 
L 144.496102 94.219074 
L 146.84347 91.380723 
L 149.190839 88.896218 
L 152.477155 85.78558 
L 156.702418 81.764698 
L 159.049786 79.220482 
L 161.397155 76.341114 
L 164.213997 72.465916 
L 170.786628 63.141522 
L 172.664523 61.01451 
L 174.072944 59.747007 
L 175.481365 58.816263 
L 176.420312 58.400374 
L 177.35926 58.154966 
L 178.298207 58.080963 
L 179.237155 58.174501 
L 180.645576 58.60805 
L 182.053997 59.345553 
L 183.931891 60.665559 
L 187.687681 63.500105 
L 189.096102 64.256145 
L 190.035049 64.573206 
L 190.973997 64.708524 
L 191.912944 64.642236 
L 192.851891 64.363355 
L 193.790839 63.871532 
L 194.729786 63.17865 
L 196.138207 61.821989 
L 200.36347 57.257182 
L 201.302418 56.68761 
L 202.241365 56.512326 
L 202.710839 56.609309 
L 203.180312 56.848859 
L 203.649786 57.245177 
L 204.11926 57.811884 
L 205.058207 59.506627 
L 205.997155 62.021235 
L 206.936102 65.418217 
L 207.875049 69.725146 
L 208.813997 74.924916 
L 210.222418 84.224847 
L 212.100312 98.524664 
L 213.978207 112.826299 
L 214.917155 118.917261 
L 215.856102 123.595391 
L 216.325576 125.221685 
L 216.795049 126.272538 
L 217.264523 126.67328 
L 217.733997 126.351581 
L 218.20347 125.239386 
L 218.672944 123.275171 
L 219.142418 120.406562 
L 219.611891 116.593358 
L 220.550839 106.054406 
L 221.489786 91.723722 
L 222.898207 64.464439 
L 224.776102 26.086408 
L 225.245576 18.644209 
L 225.715049 13.226757 
L 226.184523 10.619797 
L 226.653997 11.749765 
L 227.12347 17.701131 
L 227.592944 29.735356 
L 228.062418 49.311609 
L 228.531891 78.109354 
L 229.001365 118.052946 
L 229.822219 223.074687 
L 229.822219 223.074687 
" clip-path="url(#p5f820a8498)" style="fill: none; stroke: #e15759; stroke-width: 2; stroke-linecap: square"/>
   </g>
   <g id="patch_3">
    <path d="M 42.620313 184.518437 
L 42.620313 20.798437 
" style="fill: none; stroke: #000000; stroke-width: 0.8; stroke-linejoin: miter; stroke-linecap: square"/>
   </g>
   <g id="patch_4">
    <path d="M 229.940312 184.518437 
L 229.940312 20.798437 
" style="fill: none; stroke: #000000; stroke-width: 0.8; stroke-linejoin: miter; stroke-linecap: square"/>
   </g>
   <g id="patch_5">
    <path d="M 42.620312 184.518437 
L 229.940312 184.518437 
" style="fill: none; stroke: #000000; stroke-width: 0.8; stroke-linejoin: miter; stroke-linecap: square"/>
   </g>
   <g id="patch_6">
    <path d="M 42.620312 20.798437 
L 229.940312 20.798437 
" style="fill: none; stroke: #000000; stroke-width: 0.8; stroke-linejoin: miter; stroke-linecap: square"/>
   </g>
   <g id="PathCollection_1">
    <defs>
     <path id="m1fd4158836" d="M 0 2.645751 
C 0.701661 2.645751 1.374679 2.366978 1.870829 1.870829 
C 2.366978 1.374679 2.645751 0.701661 2.645751 0 
C 2.645751 -0.701661 2.366978 -1.374679 1.870829 -1.870829 
C 1.374679 -2.366978 0.701661 -2.645751 0 -2.645751 
C -0.701661 -2.645751 -1.374679 -2.366978 -1.870829 -1.870829 
C -2.366978 -1.374679 -2.645751 -0.701661 -2.645751 0 
C -2.645751 0.701661 -2.366978 1.374679 -1.870829 1.870829 
C -1.374679 2.366978 -0.701661 2.645751 0 2.645751 
z
" style="stroke: #ffffff; stroke-width: 0.5"/>
    </defs>
    <g clip-path="url(#p5f820a8498)">
     <use xlink:href="#m1fd4158836" x="49.398716" y="141.85615" style="fill: #7aa6c2; stroke: #ffffff; stroke-width: 0.5"/>
     <use xlink:href="#m1fd4158836" x="54.739965" y="167.189632" style="fill: #7aa6c2; stroke: #ffffff; stroke-width: 0.5"/>
     <use xlink:href="#m1fd4158836" x="56.190828" y="149.820792" style="fill: #7aa6c2; stroke: #ffffff; stroke-width: 0.5"/>
     <use xlink:href="#m1fd4158836" x="76.609298" y="154.204654" style="fill: #7aa6c2; stroke: #ffffff; stroke-width: 0.5"/>
     <use xlink:href="#m1fd4158836" x="86.284961" y="152.671307" style="fill: #7aa6c2; stroke: #ffffff; stroke-width: 0.5"/>
     <use xlink:href="#m1fd4158836" x="88.02326" y="167.5481" style="fill: #7aa6c2; stroke: #ffffff; stroke-width: 0.5"/>
     <use xlink:href="#m1fd4158836" x="93.232348" y="156.085633" style="fill: #7aa6c2; stroke: #ffffff; stroke-width: 0.5"/>
     <use xlink:href="#m1fd4158836" x="97.36908" y="158.67557" style="fill: #7aa6c2; stroke: #ffffff; stroke-width: 0.5"/>
     <use xlink:href="#m1fd4158836" x="101.187014" y="154.679045" style="fill: #7aa6c2; stroke: #ffffff; stroke-width: 0.5"/>
     <use xlink:href="#m1fd4158836" x="101.690345" y="136.995287" style="fill: #7aa6c2; stroke: #ffffff; stroke-width: 0.5"/>
     <use xlink:href="#m1fd4158836" x="126.635025" y="127.825998" style="fill: #7aa6c2; stroke: #ffffff; stroke-width: 0.5"/>
     <use xlink:href="#m1fd4158836" x="130.649289" y="115.28277" style="fill: #7aa6c2; stroke: #ffffff; stroke-width: 0.5"/>
     <use xlink:href="#m1fd4158836" x="137.079044" y="98.000449" style="fill: #7aa6c2; stroke: #ffffff; stroke-width: 0.5"/>
     <use xlink:href="#m1fd4158836" x="145.675116" y="99.979741" style="fill: #7aa6c2; stroke: #ffffff; stroke-width: 0.5"/>
     <use xlink:href="#m1fd4158836" x="156.043674" y="82.76048" style="fill: #7aa6c2; stroke: #ffffff; stroke-width: 0.5"/>
     <use xlink:href="#m1fd4158836" x="157.736512" y="78.804124" style="fill: #7aa6c2; stroke: #ffffff; stroke-width: 0.5"/>
     <use xlink:href="#m1fd4158836" x="158.24864" y="78.67611" style="fill: #7aa6c2; stroke: #ffffff; stroke-width: 0.5"/>
     <use xlink:href="#m1fd4158836" x="184.694166" y="72.532457" style="fill: #7aa6c2; stroke: #ffffff; stroke-width: 0.5"/>
     <use xlink:href="#m1fd4158836" x="187.675404" y="59.951071" style="fill: #7aa6c2; stroke: #ffffff; stroke-width: 0.5"/>
     <use xlink:href="#m1fd4158836" x="188.449418" y="47.980163" style="fill: #7aa6c2; stroke: #ffffff; stroke-width: 0.5"/>
     <use xlink:href="#m1fd4158836" x="192.692038" y="74.820913" style="fill: #7aa6c2; stroke: #ffffff; stroke-width: 0.5"/>
     <use xlink:href="#m1fd4158836" x="201.880967" y="54.354645" style="fill: #7aa6c2; stroke: #ffffff; stroke-width: 0.5"/>
     <use xlink:href="#m1fd4158836" x="206.036021" y="62.856362" style="fill: #7aa6c2; stroke: #ffffff; stroke-width: 0.5"/>
     <use xlink:href="#m1fd4158836" x="222.147826" y="79.675054" style="fill: #7aa6c2; stroke: #ffffff; stroke-width: 0.5"/>
     <use xlink:href="#m1fd4158836" x="223.296356" y="56.019276" style="fill: #7aa6c2; stroke: #ffffff; stroke-width: 0.5"/>
    </g>
   </g>
   <g id="text_11">
    <!-- alpha=0 (no regularization) -->
    <g transform="translate(67.215469 14.798437) scale(0.1 -0.1)">
     <defs>
      <path id="DejaVuSans-61" d="M 2194 1759 
Q 1497 1759 1228 1600 
Q 959 1441 959 1056 
Q 959 750 1161 570 
Q 1363 391 1709 391 
Q 2188 391 2477 730 
Q 2766 1069 2766 1631 
L 2766 1759 
L 2194 1759 
z
M 3341 1997 
L 3341 0 
L 2766 0 
L 2766 531 
Q 2569 213 2275 61 
Q 1981 -91 1556 -91 
Q 1019 -91 701 211 
Q 384 513 384 1019 
Q 384 1609 779 1909 
Q 1175 2209 1959 2209 
L 2766 2209 
L 2766 2266 
Q 2766 2663 2505 2880 
Q 2244 3097 1772 3097 
Q 1472 3097 1187 3025 
Q 903 2953 641 2809 
L 641 3341 
Q 956 3463 1253 3523 
Q 1550 3584 1831 3584 
Q 2591 3584 2966 3190 
Q 3341 2797 3341 1997 
z
" transform="scale(0.015625)"/>
      <path id="DejaVuSans-6c" d="M 603 4863 
L 1178 4863 
L 1178 0 
L 603 0 
L 603 4863 
z
" transform="scale(0.015625)"/>
      <path id="DejaVuSans-70" d="M 1159 525 
L 1159 -1331 
L 581 -1331 
L 581 3500 
L 1159 3500 
L 1159 2969 
Q 1341 3281 1617 3432 
Q 1894 3584 2278 3584 
Q 2916 3584 3314 3078 
Q 3713 2572 3713 1747 
Q 3713 922 3314 415 
Q 2916 -91 2278 -91 
Q 1894 -91 1617 61 
Q 1341 213 1159 525 
z
M 3116 1747 
Q 3116 2381 2855 2742 
Q 2594 3103 2138 3103 
Q 1681 3103 1420 2742 
Q 1159 2381 1159 1747 
Q 1159 1113 1420 752 
Q 1681 391 2138 391 
Q 2594 391 2855 752 
Q 3116 1113 3116 1747 
z
" transform="scale(0.015625)"/>
      <path id="DejaVuSans-68" d="M 3513 2113 
L 3513 0 
L 2938 0 
L 2938 2094 
Q 2938 2591 2744 2837 
Q 2550 3084 2163 3084 
Q 1697 3084 1428 2787 
Q 1159 2491 1159 1978 
L 1159 0 
L 581 0 
L 581 4863 
L 1159 4863 
L 1159 2956 
Q 1366 3272 1645 3428 
Q 1925 3584 2291 3584 
Q 2894 3584 3203 3211 
Q 3513 2838 3513 2113 
z
" transform="scale(0.015625)"/>
      <path id="DejaVuSans-3d" d="M 678 2906 
L 4684 2906 
L 4684 2381 
L 678 2381 
L 678 2906 
z
M 678 1631 
L 4684 1631 
L 4684 1100 
L 678 1100 
L 678 1631 
z
" transform="scale(0.015625)"/>
      <path id="DejaVuSans-20" transform="scale(0.015625)"/>
      <path id="DejaVuSans-28" d="M 1984 4856 
Q 1566 4138 1362 3434 
Q 1159 2731 1159 2009 
Q 1159 1288 1364 580 
Q 1569 -128 1984 -844 
L 1484 -844 
Q 1016 -109 783 600 
Q 550 1309 550 2009 
Q 550 2706 781 3412 
Q 1013 4119 1484 4856 
L 1984 4856 
z
" transform="scale(0.015625)"/>
      <path id="DejaVuSans-6e" d="M 3513 2113 
L 3513 0 
L 2938 0 
L 2938 2094 
Q 2938 2591 2744 2837 
Q 2550 3084 2163 3084 
Q 1697 3084 1428 2787 
Q 1159 2491 1159 1978 
L 1159 0 
L 581 0 
L 581 3500 
L 1159 3500 
L 1159 2956 
Q 1366 3272 1645 3428 
Q 1925 3584 2291 3584 
Q 2894 3584 3203 3211 
Q 3513 2838 3513 2113 
z
" transform="scale(0.015625)"/>
      <path id="DejaVuSans-6f" d="M 1959 3097 
Q 1497 3097 1228 2736 
Q 959 2375 959 1747 
Q 959 1119 1226 758 
Q 1494 397 1959 397 
Q 2419 397 2687 759 
Q 2956 1122 2956 1747 
Q 2956 2369 2687 2733 
Q 2419 3097 1959 3097 
z
M 1959 3584 
Q 2709 3584 3137 3096 
Q 3566 2609 3566 1747 
Q 3566 888 3137 398 
Q 2709 -91 1959 -91 
Q 1206 -91 779 398 
Q 353 888 353 1747 
Q 353 2609 779 3096 
Q 1206 3584 1959 3584 
z
" transform="scale(0.015625)"/>
      <path id="DejaVuSans-72" d="M 2631 2963 
Q 2534 3019 2420 3045 
Q 2306 3072 2169 3072 
Q 1681 3072 1420 2755 
Q 1159 2438 1159 1844 
L 1159 0 
L 581 0 
L 581 3500 
L 1159 3500 
L 1159 2956 
Q 1341 3275 1631 3429 
Q 1922 3584 2338 3584 
Q 2397 3584 2469 3576 
Q 2541 3569 2628 3553 
L 2631 2963 
z
" transform="scale(0.015625)"/>
      <path id="DejaVuSans-65" d="M 3597 1894 
L 3597 1613 
L 953 1613 
Q 991 1019 1311 708 
Q 1631 397 2203 397 
Q 2534 397 2845 478 
Q 3156 559 3463 722 
L 3463 178 
Q 3153 47 2828 -22 
Q 2503 -91 2169 -91 
Q 1331 -91 842 396 
Q 353 884 353 1716 
Q 353 2575 817 3079 
Q 1281 3584 2069 3584 
Q 2775 3584 3186 3129 
Q 3597 2675 3597 1894 
z
M 3022 2063 
Q 3016 2534 2758 2815 
Q 2500 3097 2075 3097 
Q 1594 3097 1305 2825 
Q 1016 2553 972 2059 
L 3022 2063 
z
" transform="scale(0.015625)"/>
      <path id="DejaVuSans-67" d="M 2906 1791 
Q 2906 2416 2648 2759 
Q 2391 3103 1925 3103 
Q 1463 3103 1205 2759 
Q 947 2416 947 1791 
Q 947 1169 1205 825 
Q 1463 481 1925 481 
Q 2391 481 2648 825 
Q 2906 1169 2906 1791 
z
M 3481 434 
Q 3481 -459 3084 -895 
Q 2688 -1331 1869 -1331 
Q 1566 -1331 1297 -1286 
Q 1028 -1241 775 -1147 
L 775 -588 
Q 1028 -725 1275 -790 
Q 1522 -856 1778 -856 
Q 2344 -856 2625 -561 
Q 2906 -266 2906 331 
L 2906 616 
Q 2728 306 2450 153 
Q 2172 0 1784 0 
Q 1141 0 747 490 
Q 353 981 353 1791 
Q 353 2603 747 3093 
Q 1141 3584 1784 3584 
Q 2172 3584 2450 3431 
Q 2728 3278 2906 2969 
L 2906 3500 
L 3481 3500 
L 3481 434 
z
" transform="scale(0.015625)"/>
      <path id="DejaVuSans-75" d="M 544 1381 
L 544 3500 
L 1119 3500 
L 1119 1403 
Q 1119 906 1312 657 
Q 1506 409 1894 409 
Q 2359 409 2629 706 
Q 2900 1003 2900 1516 
L 2900 3500 
L 3475 3500 
L 3475 0 
L 2900 0 
L 2900 538 
Q 2691 219 2414 64 
Q 2138 -91 1772 -91 
Q 1169 -91 856 284 
Q 544 659 544 1381 
z
M 1991 3584 
L 1991 3584 
z
" transform="scale(0.015625)"/>
      <path id="DejaVuSans-69" d="M 603 3500 
L 1178 3500 
L 1178 0 
L 603 0 
L 603 3500 
z
M 603 4863 
L 1178 4863 
L 1178 4134 
L 603 4134 
L 603 4863 
z
" transform="scale(0.015625)"/>
      <path id="DejaVuSans-7a" d="M 353 3500 
L 3084 3500 
L 3084 2975 
L 922 459 
L 3084 459 
L 3084 0 
L 275 0 
L 275 525 
L 2438 3041 
L 353 3041 
L 353 3500 
z
" transform="scale(0.015625)"/>
      <path id="DejaVuSans-74" d="M 1172 4494 
L 1172 3500 
L 2356 3500 
L 2356 3053 
L 1172 3053 
L 1172 1153 
Q 1172 725 1289 603 
Q 1406 481 1766 481 
L 2356 481 
L 2356 0 
L 1766 0 
Q 1100 0 847 248 
Q 594 497 594 1153 
L 594 3053 
L 172 3053 
L 172 3500 
L 594 3500 
L 594 4494 
L 1172 4494 
z
" transform="scale(0.015625)"/>
      <path id="DejaVuSans-29" d="M 513 4856 
L 1013 4856 
Q 1481 4119 1714 3412 
Q 1947 2706 1947 2009 
Q 1947 1309 1714 600 
Q 1481 -109 1013 -844 
L 513 -844 
Q 928 -128 1133 580 
Q 1338 1288 1338 2009 
Q 1338 2731 1133 3434 
Q 928 4138 513 4856 
z
" transform="scale(0.015625)"/>
     </defs>
     <use xlink:href="#DejaVuSans-61"/>
     <use xlink:href="#DejaVuSans-6c" transform="translate(61.279297 0)"/>
     <use xlink:href="#DejaVuSans-70" transform="translate(89.0625 0)"/>
     <use xlink:href="#DejaVuSans-68" transform="translate(152.539062 0)"/>
     <use xlink:href="#DejaVuSans-61" transform="translate(215.917969 0)"/>
     <use xlink:href="#DejaVuSans-3d" transform="translate(277.197266 0)"/>
     <use xlink:href="#DejaVuSans-30" transform="translate(360.986328 0)"/>
     <use xlink:href="#DejaVuSans-20" transform="translate(424.609375 0)"/>
     <use xlink:href="#DejaVuSans-28" transform="translate(456.396484 0)"/>
     <use xlink:href="#DejaVuSans-6e" transform="translate(495.410156 0)"/>
     <use xlink:href="#DejaVuSans-6f" transform="translate(558.789062 0)"/>
     <use xlink:href="#DejaVuSans-20" transform="translate(619.970703 0)"/>
     <use xlink:href="#DejaVuSans-72" transform="translate(651.757812 0)"/>
     <use xlink:href="#DejaVuSans-65" transform="translate(690.621094 0)"/>
     <use xlink:href="#DejaVuSans-67" transform="translate(752.144531 0)"/>
     <use xlink:href="#DejaVuSans-75" transform="translate(815.621094 0)"/>
     <use xlink:href="#DejaVuSans-6c" transform="translate(879 0)"/>
     <use xlink:href="#DejaVuSans-61" transform="translate(906.783203 0)"/>
     <use xlink:href="#DejaVuSans-72" transform="translate(968.0625 0)"/>
     <use xlink:href="#DejaVuSans-69" transform="translate(1009.175781 0)"/>
     <use xlink:href="#DejaVuSans-7a" transform="translate(1036.958984 0)"/>
     <use xlink:href="#DejaVuSans-61" transform="translate(1089.449219 0)"/>
     <use xlink:href="#DejaVuSans-74" transform="translate(1150.728516 0)"/>
     <use xlink:href="#DejaVuSans-69" transform="translate(1189.9375 0)"/>
     <use xlink:href="#DejaVuSans-6f" transform="translate(1217.720703 0)"/>
     <use xlink:href="#DejaVuSans-6e" transform="translate(1278.902344 0)"/>
     <use xlink:href="#DejaVuSans-29" transform="translate(1342.28125 0)"/>
    </g>
   </g>
   <g id="legend_1">
    <g id="patch_7">
     <path d="M 147.101562 180.518437 
L 224.340312 180.518437 
Q 225.940312 180.518437 225.940312 178.918437 
L 225.940312 144.490937 
Q 225.940312 142.890937 224.340312 142.890937 
L 147.101562 142.890937 
Q 145.501562 142.890937 145.501562 144.490937 
L 145.501562 178.918437 
Q 145.501562 180.518437 147.101562 180.518437 
z
" style="fill: #ffffff; opacity: 0.8; stroke: #cccccc; stroke-linejoin: miter"/>
    </g>
    <g id="line2d_19">
     <path d="M 148.701562 149.369687 
L 156.701562 149.369687 
L 164.701562 149.369687 
" style="fill: none; stroke-dasharray: 5.55,2.4; stroke-dashoffset: 0; stroke: #59a14f; stroke-width: 1.5"/>
    </g>
    <g id="text_12">
     <!-- true function -->
     <g transform="translate(171.101562 152.169687) scale(0.08 -0.08)">
      <defs>
       <path id="DejaVuSans-66" d="M 2375 4863 
L 2375 4384 
L 1825 4384 
Q 1516 4384 1395 4259 
Q 1275 4134 1275 3809 
L 1275 3500 
L 2222 3500 
L 2222 3053 
L 1275 3053 
L 1275 0 
L 697 0 
L 697 3053 
L 147 3053 
L 147 3500 
L 697 3500 
L 697 3744 
Q 697 4328 969 4595 
Q 1241 4863 1831 4863 
L 2375 4863 
z
" transform="scale(0.015625)"/>
       <path id="DejaVuSans-63" d="M 3122 3366 
L 3122 2828 
Q 2878 2963 2633 3030 
Q 2388 3097 2138 3097 
Q 1578 3097 1268 2742 
Q 959 2388 959 1747 
Q 959 1106 1268 751 
Q 1578 397 2138 397 
Q 2388 397 2633 464 
Q 2878 531 3122 666 
L 3122 134 
Q 2881 22 2623 -34 
Q 2366 -91 2075 -91 
Q 1284 -91 818 406 
Q 353 903 353 1747 
Q 353 2603 823 3093 
Q 1294 3584 2113 3584 
Q 2378 3584 2631 3529 
Q 2884 3475 3122 3366 
z
" transform="scale(0.015625)"/>
      </defs>
      <use xlink:href="#DejaVuSans-74"/>
      <use xlink:href="#DejaVuSans-72" transform="translate(39.208984 0)"/>
      <use xlink:href="#DejaVuSans-75" transform="translate(80.322266 0)"/>
      <use xlink:href="#DejaVuSans-65" transform="translate(143.701172 0)"/>
      <use xlink:href="#DejaVuSans-20" transform="translate(205.224609 0)"/>
      <use xlink:href="#DejaVuSans-66" transform="translate(237.011719 0)"/>
      <use xlink:href="#DejaVuSans-75" transform="translate(272.216797 0)"/>
      <use xlink:href="#DejaVuSans-6e" transform="translate(335.595703 0)"/>
      <use xlink:href="#DejaVuSans-63" transform="translate(398.974609 0)"/>
      <use xlink:href="#DejaVuSans-74" transform="translate(453.955078 0)"/>
      <use xlink:href="#DejaVuSans-69" transform="translate(493.164062 0)"/>
      <use xlink:href="#DejaVuSans-6f" transform="translate(520.947266 0)"/>
      <use xlink:href="#DejaVuSans-6e" transform="translate(582.128906 0)"/>
     </g>
    </g>
    <g id="line2d_20">
     <path d="M 148.701562 161.112187 
L 156.701562 161.112187 
L 164.701562 161.112187 
" style="fill: none; stroke: #e15759; stroke-width: 2; stroke-linecap: square"/>
    </g>
    <g id="text_13">
     <!-- model -->
     <g transform="translate(171.101562 163.912187) scale(0.08 -0.08)">
      <defs>
       <path id="DejaVuSans-6d" d="M 3328 2828 
Q 3544 3216 3844 3400 
Q 4144 3584 4550 3584 
Q 5097 3584 5394 3201 
Q 5691 2819 5691 2113 
L 5691 0 
L 5113 0 
L 5113 2094 
Q 5113 2597 4934 2840 
Q 4756 3084 4391 3084 
Q 3944 3084 3684 2787 
Q 3425 2491 3425 1978 
L 3425 0 
L 2847 0 
L 2847 2094 
Q 2847 2600 2669 2842 
Q 2491 3084 2119 3084 
Q 1678 3084 1418 2786 
Q 1159 2488 1159 1978 
L 1159 0 
L 581 0 
L 581 3500 
L 1159 3500 
L 1159 2956 
Q 1356 3278 1631 3431 
Q 1906 3584 2284 3584 
Q 2666 3584 2933 3390 
Q 3200 3197 3328 2828 
z
" transform="scale(0.015625)"/>
       <path id="DejaVuSans-64" d="M 2906 2969 
L 2906 4863 
L 3481 4863 
L 3481 0 
L 2906 0 
L 2906 525 
Q 2725 213 2448 61 
Q 2172 -91 1784 -91 
Q 1150 -91 751 415 
Q 353 922 353 1747 
Q 353 2572 751 3078 
Q 1150 3584 1784 3584 
Q 2172 3584 2448 3432 
Q 2725 3281 2906 2969 
z
M 947 1747 
Q 947 1113 1208 752 
Q 1469 391 1925 391 
Q 2381 391 2643 752 
Q 2906 1113 2906 1747 
Q 2906 2381 2643 2742 
Q 2381 3103 1925 3103 
Q 1469 3103 1208 2742 
Q 947 2381 947 1747 
z
" transform="scale(0.015625)"/>
      </defs>
      <use xlink:href="#DejaVuSans-6d"/>
      <use xlink:href="#DejaVuSans-6f" transform="translate(97.412109 0)"/>
      <use xlink:href="#DejaVuSans-64" transform="translate(158.59375 0)"/>
      <use xlink:href="#DejaVuSans-65" transform="translate(222.070312 0)"/>
      <use xlink:href="#DejaVuSans-6c" transform="translate(283.59375 0)"/>
     </g>
    </g>
    <g id="PathCollection_2">
     <g>
      <use xlink:href="#m1fd4158836" x="156.701562" y="173.554687" style="fill: #7aa6c2; stroke: #ffffff; stroke-width: 0.5"/>
     </g>
    </g>
    <g id="text_14">
     <!-- training data -->
     <g transform="translate(171.101562 175.654687) scale(0.08 -0.08)">
      <use xlink:href="#DejaVuSans-74"/>
      <use xlink:href="#DejaVuSans-72" transform="translate(39.208984 0)"/>
      <use xlink:href="#DejaVuSans-61" transform="translate(80.322266 0)"/>
      <use xlink:href="#DejaVuSans-69" transform="translate(141.601562 0)"/>
      <use xlink:href="#DejaVuSans-6e" transform="translate(169.384766 0)"/>
      <use xlink:href="#DejaVuSans-69" transform="translate(232.763672 0)"/>
      <use xlink:href="#DejaVuSans-6e" transform="translate(260.546875 0)"/>
      <use xlink:href="#DejaVuSans-67" transform="translate(323.925781 0)"/>
      <use xlink:href="#DejaVuSans-20" transform="translate(387.402344 0)"/>
      <use xlink:href="#DejaVuSans-64" transform="translate(419.189453 0)"/>
      <use xlink:href="#DejaVuSans-61" transform="translate(482.666016 0)"/>
      <use xlink:href="#DejaVuSans-74" transform="translate(543.945312 0)"/>
      <use xlink:href="#DejaVuSans-61" transform="translate(583.154297 0)"/>
     </g>
    </g>
   </g>
  </g>
  <g id="axes_2">
   <g id="patch_8">
    <path d="M 244.240313 184.518437 
L 431.560312 184.518437 
L 431.560312 20.798437 
L 244.240313 20.798437 
z
" style="fill: #ffffff"/>
   </g>
   <g id="matplotlib.axis_3">
    <g id="xtick_4">
     <g id="line2d_21">
      <path d="M 279.362813 184.518437 
L 279.362813 20.798437 
" clip-path="url(#p800b4be494)" style="fill: none; stroke: #b0b0b0; stroke-opacity: 0.25; stroke-width: 0.8; stroke-linecap: square"/>
     </g>
     <g id="line2d_22">
      <g>
       <use xlink:href="#mdbe2e4d0cd" x="279.362813" y="184.518437" style="stroke: #000000; stroke-width: 0.8"/>
      </g>
     </g>
     <g id="text_15">
      <!-- −2 -->
      <g transform="translate(271.991719 199.116875) scale(0.1 -0.1)">
       <use xlink:href="#DejaVuSans-2212"/>
       <use xlink:href="#DejaVuSans-32" transform="translate(83.789062 0)"/>
      </g>
     </g>
    </g>
    <g id="xtick_5">
     <g id="line2d_23">
      <path d="M 337.900312 184.518437 
L 337.900312 20.798437 
" clip-path="url(#p800b4be494)" style="fill: none; stroke: #b0b0b0; stroke-opacity: 0.25; stroke-width: 0.8; stroke-linecap: square"/>
     </g>
     <g id="line2d_24">
      <g>
       <use xlink:href="#mdbe2e4d0cd" x="337.900312" y="184.518437" style="stroke: #000000; stroke-width: 0.8"/>
      </g>
     </g>
     <g id="text_16">
      <!-- 0 -->
      <g transform="translate(334.719063 199.116875) scale(0.1 -0.1)">
       <use xlink:href="#DejaVuSans-30"/>
      </g>
     </g>
    </g>
    <g id="xtick_6">
     <g id="line2d_25">
      <path d="M 396.437812 184.518437 
L 396.437812 20.798437 
" clip-path="url(#p800b4be494)" style="fill: none; stroke: #b0b0b0; stroke-opacity: 0.25; stroke-width: 0.8; stroke-linecap: square"/>
     </g>
     <g id="line2d_26">
      <g>
       <use xlink:href="#mdbe2e4d0cd" x="396.437812" y="184.518437" style="stroke: #000000; stroke-width: 0.8"/>
      </g>
     </g>
     <g id="text_17">
      <!-- 2 -->
      <g transform="translate(393.256562 199.116875) scale(0.1 -0.1)">
       <use xlink:href="#DejaVuSans-32"/>
      </g>
     </g>
    </g>
    <g id="text_18">
     <!-- x -->
     <g transform="translate(334.940937 212.795) scale(0.1 -0.1)">
      <use xlink:href="#DejaVuSans-78"/>
     </g>
    </g>
   </g>
   <g id="matplotlib.axis_4">
    <g id="ytick_6">
     <g id="line2d_27">
      <path d="M 244.240313 169.073154 
L 431.560312 169.073154 
" clip-path="url(#p800b4be494)" style="fill: none; stroke: #b0b0b0; stroke-opacity: 0.25; stroke-width: 0.8; stroke-linecap: square"/>
     </g>
     <g id="line2d_28">
      <g>
       <use xlink:href="#md37067adda" x="244.240313" y="169.073154" style="stroke: #000000; stroke-width: 0.8"/>
      </g>
     </g>
    </g>
    <g id="ytick_7">
     <g id="line2d_29">
      <path d="M 244.240313 138.182588 
L 431.560312 138.182588 
" clip-path="url(#p800b4be494)" style="fill: none; stroke: #b0b0b0; stroke-opacity: 0.25; stroke-width: 0.8; stroke-linecap: square"/>
     </g>
     <g id="line2d_30">
      <g>
       <use xlink:href="#md37067adda" x="244.240313" y="138.182588" style="stroke: #000000; stroke-width: 0.8"/>
      </g>
     </g>
    </g>
    <g id="ytick_8">
     <g id="line2d_31">
      <path d="M 244.240313 107.292022 
L 431.560312 107.292022 
" clip-path="url(#p800b4be494)" style="fill: none; stroke: #b0b0b0; stroke-opacity: 0.25; stroke-width: 0.8; stroke-linecap: square"/>
     </g>
     <g id="line2d_32">
      <g>
       <use xlink:href="#md37067adda" x="244.240313" y="107.292022" style="stroke: #000000; stroke-width: 0.8"/>
      </g>
     </g>
    </g>
    <g id="ytick_9">
     <g id="line2d_33">
      <path d="M 244.240313 76.401456 
L 431.560312 76.401456 
" clip-path="url(#p800b4be494)" style="fill: none; stroke: #b0b0b0; stroke-opacity: 0.25; stroke-width: 0.8; stroke-linecap: square"/>
     </g>
     <g id="line2d_34">
      <g>
       <use xlink:href="#md37067adda" x="244.240313" y="76.401456" style="stroke: #000000; stroke-width: 0.8"/>
      </g>
     </g>
    </g>
    <g id="ytick_10">
     <g id="line2d_35">
      <path d="M 244.240313 45.51089 
L 431.560312 45.51089 
" clip-path="url(#p800b4be494)" style="fill: none; stroke: #b0b0b0; stroke-opacity: 0.25; stroke-width: 0.8; stroke-linecap: square"/>
     </g>
     <g id="line2d_36">
      <g>
       <use xlink:href="#md37067adda" x="244.240313" y="45.51089" style="stroke: #000000; stroke-width: 0.8"/>
      </g>
     </g>
    </g>
   </g>
   <g id="line2d_37">
    <path d="M 244.240313 135.143755 
L 254.568734 142.642343 
L 259.26347 145.762078 
L 263.01926 148.012393 
L 266.305576 149.75378 
L 269.591891 151.245898 
L 272.408734 152.302186 
L 275.225576 153.133816 
L 278.042418 153.724836 
L 280.85926 154.061522 
L 283.206628 154.139534 
L 285.553997 154.027706 
L 287.901365 153.721979 
L 290.248734 153.21954 
L 292.596102 152.518841 
L 294.94347 151.61961 
L 297.760312 150.279969 
L 300.577155 148.660096 
L 303.393997 146.766729 
L 306.210839 144.609135 
L 309.027681 142.19903 
L 312.313997 139.086964 
L 315.600312 135.676507 
L 319.356102 131.451908 
L 323.581365 126.342455 
L 328.276102 120.314714 
L 334.848734 111.473062 
L 348.46347 93.039449 
L 353.627681 86.500862 
L 357.852944 81.509873 
L 361.608734 77.411208 
L 364.895049 74.125189 
L 368.181365 71.149223 
L 370.998207 68.86376 
L 373.815049 66.836966 
L 376.631891 65.079344 
L 379.448734 63.598906 
L 382.265576 62.4011 
L 384.612944 61.620949 
L 386.960312 61.039321 
L 389.307681 60.655176 
L 391.655049 60.466206 
L 394.002418 60.468848 
L 396.81926 60.71811 
L 399.636102 61.225763 
L 402.452944 61.978855 
L 405.269786 62.962161 
L 408.556102 64.377052 
L 411.842418 66.050665 
L 415.598207 68.236186 
L 419.82347 70.97609 
L 424.987681 74.609118 
L 431.560312 79.440289 
L 431.560312 79.440289 
" clip-path="url(#p800b4be494)" style="fill: none; stroke-dasharray: 5.55,2.4; stroke-dashoffset: 0; stroke: #59a14f; stroke-width: 1.5"/>
   </g>
   <g id="line2d_38">
    <path d="M 244.240313 109.787715 
L 245.648734 119.710572 
L 247.057155 127.912446 
L 248.465576 134.68727 
L 249.873997 140.28091 
L 251.282418 144.898215 
L 252.690839 148.709163 
L 254.09926 151.85419 
L 255.507681 154.448811 
L 256.916102 156.587598 
L 258.324523 158.34761 
L 259.732944 159.791326 
L 261.141365 160.96915 
L 262.549786 161.921545 
L 264.427681 162.895623 
L 266.305576 163.584544 
L 268.18347 164.031435 
L 270.061365 164.26775 
L 271.93926 164.316453 
L 274.286628 164.138854 
L 276.633997 163.718433 
L 278.981365 163.07308 
L 281.328734 162.217102 
L 284.145576 160.929422 
L 286.962418 159.376628 
L 289.77926 157.578732 
L 293.065576 155.198516 
L 296.351891 152.545132 
L 300.107681 149.220395 
L 304.332944 145.164833 
L 309.027681 140.343394 
L 314.661365 134.23078 
L 322.172944 125.727102 
L 347.524523 96.741637 
L 354.566628 89.176978 
L 360.669786 82.955686 
L 365.833997 77.998609 
L 370.528734 73.79294 
L 374.753997 70.306103 
L 378.509786 67.494204 
L 381.796102 65.300432 
L 384.612944 63.654503 
L 387.429786 62.26181 
L 389.777155 61.324046 
L 392.124523 60.617153 
L 394.471891 60.169988 
L 396.349786 60.019394 
L 398.227681 60.069276 
L 400.105576 60.333381 
L 401.98347 60.822711 
L 403.861365 61.543514 
L 405.73926 62.494541 
L 407.617155 63.663341 
L 409.964523 65.38502 
L 416.537155 70.516403 
L 417.945576 71.240001 
L 418.884523 71.526642 
L 419.82347 71.603331 
L 420.762418 71.415891 
L 421.701365 70.901541 
L 422.640312 69.987773 
L 423.57926 68.591114 
L 424.518207 66.615743 
L 425.457155 63.95196 
L 426.396102 60.474492 
L 427.335049 56.040618 
L 428.273997 50.488098 
L 429.212944 43.632881 
L 430.151891 35.266592 
L 431.090839 25.153745 
L 431.560312 19.360618 
L 431.560312 19.360618 
" clip-path="url(#p800b4be494)" style="fill: none; stroke: #e15759; stroke-width: 2; stroke-linecap: square"/>
   </g>
   <g id="patch_9">
    <path d="M 244.240313 184.518437 
L 244.240313 20.798437 
" style="fill: none; stroke: #000000; stroke-width: 0.8; stroke-linejoin: miter; stroke-linecap: square"/>
   </g>
   <g id="patch_10">
    <path d="M 431.560312 184.518437 
L 431.560312 20.798437 
" style="fill: none; stroke: #000000; stroke-width: 0.8; stroke-linejoin: miter; stroke-linecap: square"/>
   </g>
   <g id="patch_11">
    <path d="M 244.240313 184.518437 
L 431.560312 184.518437 
" style="fill: none; stroke: #000000; stroke-width: 0.8; stroke-linejoin: miter; stroke-linecap: square"/>
   </g>
   <g id="patch_12">
    <path d="M 244.240313 20.798437 
L 431.560312 20.798437 
" style="fill: none; stroke: #000000; stroke-width: 0.8; stroke-linejoin: miter; stroke-linecap: square"/>
   </g>
   <g id="PathCollection_3">
    <g clip-path="url(#p800b4be494)">
     <use xlink:href="#m1fd4158836" x="251.018716" y="141.85615" style="fill: #7aa6c2; stroke: #ffffff; stroke-width: 0.5"/>
     <use xlink:href="#m1fd4158836" x="256.359965" y="167.189632" style="fill: #7aa6c2; stroke: #ffffff; stroke-width: 0.5"/>
     <use xlink:href="#m1fd4158836" x="257.810828" y="149.820792" style="fill: #7aa6c2; stroke: #ffffff; stroke-width: 0.5"/>
     <use xlink:href="#m1fd4158836" x="278.229298" y="154.204654" style="fill: #7aa6c2; stroke: #ffffff; stroke-width: 0.5"/>
     <use xlink:href="#m1fd4158836" x="287.904961" y="152.671307" style="fill: #7aa6c2; stroke: #ffffff; stroke-width: 0.5"/>
     <use xlink:href="#m1fd4158836" x="289.64326" y="167.5481" style="fill: #7aa6c2; stroke: #ffffff; stroke-width: 0.5"/>
     <use xlink:href="#m1fd4158836" x="294.852348" y="156.085633" style="fill: #7aa6c2; stroke: #ffffff; stroke-width: 0.5"/>
     <use xlink:href="#m1fd4158836" x="298.98908" y="158.67557" style="fill: #7aa6c2; stroke: #ffffff; stroke-width: 0.5"/>
     <use xlink:href="#m1fd4158836" x="302.807014" y="154.679045" style="fill: #7aa6c2; stroke: #ffffff; stroke-width: 0.5"/>
     <use xlink:href="#m1fd4158836" x="303.310345" y="136.995287" style="fill: #7aa6c2; stroke: #ffffff; stroke-width: 0.5"/>
     <use xlink:href="#m1fd4158836" x="328.255025" y="127.825998" style="fill: #7aa6c2; stroke: #ffffff; stroke-width: 0.5"/>
     <use xlink:href="#m1fd4158836" x="332.269289" y="115.28277" style="fill: #7aa6c2; stroke: #ffffff; stroke-width: 0.5"/>
     <use xlink:href="#m1fd4158836" x="338.699044" y="98.000449" style="fill: #7aa6c2; stroke: #ffffff; stroke-width: 0.5"/>
     <use xlink:href="#m1fd4158836" x="347.295116" y="99.979741" style="fill: #7aa6c2; stroke: #ffffff; stroke-width: 0.5"/>
     <use xlink:href="#m1fd4158836" x="357.663674" y="82.76048" style="fill: #7aa6c2; stroke: #ffffff; stroke-width: 0.5"/>
     <use xlink:href="#m1fd4158836" x="359.356512" y="78.804124" style="fill: #7aa6c2; stroke: #ffffff; stroke-width: 0.5"/>
     <use xlink:href="#m1fd4158836" x="359.86864" y="78.67611" style="fill: #7aa6c2; stroke: #ffffff; stroke-width: 0.5"/>
     <use xlink:href="#m1fd4158836" x="386.314166" y="72.532457" style="fill: #7aa6c2; stroke: #ffffff; stroke-width: 0.5"/>
     <use xlink:href="#m1fd4158836" x="389.295404" y="59.951071" style="fill: #7aa6c2; stroke: #ffffff; stroke-width: 0.5"/>
     <use xlink:href="#m1fd4158836" x="390.069418" y="47.980163" style="fill: #7aa6c2; stroke: #ffffff; stroke-width: 0.5"/>
     <use xlink:href="#m1fd4158836" x="394.312038" y="74.820913" style="fill: #7aa6c2; stroke: #ffffff; stroke-width: 0.5"/>
     <use xlink:href="#m1fd4158836" x="403.500967" y="54.354645" style="fill: #7aa6c2; stroke: #ffffff; stroke-width: 0.5"/>
     <use xlink:href="#m1fd4158836" x="407.656021" y="62.856362" style="fill: #7aa6c2; stroke: #ffffff; stroke-width: 0.5"/>
     <use xlink:href="#m1fd4158836" x="423.767826" y="79.675054" style="fill: #7aa6c2; stroke: #ffffff; stroke-width: 0.5"/>
     <use xlink:href="#m1fd4158836" x="424.916356" y="56.019276" style="fill: #7aa6c2; stroke: #ffffff; stroke-width: 0.5"/>
    </g>
   </g>
   <g id="text_19">
    <!-- alpha=0.1 (moderate) -->
    <g transform="translate(282.071406 14.798437) scale(0.1 -0.1)">
     <defs>
      <path id="DejaVuSans-2e" d="M 684 794 
L 1344 794 
L 1344 0 
L 684 0 
L 684 794 
z
" transform="scale(0.015625)"/>
     </defs>
     <use xlink:href="#DejaVuSans-61"/>
     <use xlink:href="#DejaVuSans-6c" transform="translate(61.279297 0)"/>
     <use xlink:href="#DejaVuSans-70" transform="translate(89.0625 0)"/>
     <use xlink:href="#DejaVuSans-68" transform="translate(152.539062 0)"/>
     <use xlink:href="#DejaVuSans-61" transform="translate(215.917969 0)"/>
     <use xlink:href="#DejaVuSans-3d" transform="translate(277.197266 0)"/>
     <use xlink:href="#DejaVuSans-30" transform="translate(360.986328 0)"/>
     <use xlink:href="#DejaVuSans-2e" transform="translate(424.609375 0)"/>
     <use xlink:href="#DejaVuSans-31" transform="translate(456.396484 0)"/>
     <use xlink:href="#DejaVuSans-20" transform="translate(520.019531 0)"/>
     <use xlink:href="#DejaVuSans-28" transform="translate(551.806641 0)"/>
     <use xlink:href="#DejaVuSans-6d" transform="translate(590.820312 0)"/>
     <use xlink:href="#DejaVuSans-6f" transform="translate(688.232422 0)"/>
     <use xlink:href="#DejaVuSans-64" transform="translate(749.414062 0)"/>
     <use xlink:href="#DejaVuSans-65" transform="translate(812.890625 0)"/>
     <use xlink:href="#DejaVuSans-72" transform="translate(874.414062 0)"/>
     <use xlink:href="#DejaVuSans-61" transform="translate(915.527344 0)"/>
     <use xlink:href="#DejaVuSans-74" transform="translate(976.806641 0)"/>
     <use xlink:href="#DejaVuSans-65" transform="translate(1016.015625 0)"/>
     <use xlink:href="#DejaVuSans-29" transform="translate(1077.539062 0)"/>
    </g>
   </g>
  </g>
  <g id="axes_3">
   <g id="patch_13">
    <path d="M 445.860313 184.518437 
L 633.180313 184.518437 
L 633.180313 20.798437 
L 445.860313 20.798437 
z
" style="fill: #ffffff"/>
   </g>
   <g id="matplotlib.axis_5">
    <g id="xtick_7">
     <g id="line2d_39">
      <path d="M 480.982813 184.518437 
L 480.982813 20.798437 
" clip-path="url(#p465e9d7404)" style="fill: none; stroke: #b0b0b0; stroke-opacity: 0.25; stroke-width: 0.8; stroke-linecap: square"/>
     </g>
     <g id="line2d_40">
      <g>
       <use xlink:href="#mdbe2e4d0cd" x="480.982813" y="184.518437" style="stroke: #000000; stroke-width: 0.8"/>
      </g>
     </g>
     <g id="text_20">
      <!-- −2 -->
      <g transform="translate(473.611719 199.116875) scale(0.1 -0.1)">
       <use xlink:href="#DejaVuSans-2212"/>
       <use xlink:href="#DejaVuSans-32" transform="translate(83.789062 0)"/>
      </g>
     </g>
    </g>
    <g id="xtick_8">
     <g id="line2d_41">
      <path d="M 539.520313 184.518437 
L 539.520313 20.798437 
" clip-path="url(#p465e9d7404)" style="fill: none; stroke: #b0b0b0; stroke-opacity: 0.25; stroke-width: 0.8; stroke-linecap: square"/>
     </g>
     <g id="line2d_42">
      <g>
       <use xlink:href="#mdbe2e4d0cd" x="539.520313" y="184.518437" style="stroke: #000000; stroke-width: 0.8"/>
      </g>
     </g>
     <g id="text_21">
      <!-- 0 -->
      <g transform="translate(536.339063 199.116875) scale(0.1 -0.1)">
       <use xlink:href="#DejaVuSans-30"/>
      </g>
     </g>
    </g>
    <g id="xtick_9">
     <g id="line2d_43">
      <path d="M 598.057813 184.518437 
L 598.057813 20.798437 
" clip-path="url(#p465e9d7404)" style="fill: none; stroke: #b0b0b0; stroke-opacity: 0.25; stroke-width: 0.8; stroke-linecap: square"/>
     </g>
     <g id="line2d_44">
      <g>
       <use xlink:href="#mdbe2e4d0cd" x="598.057813" y="184.518437" style="stroke: #000000; stroke-width: 0.8"/>
      </g>
     </g>
     <g id="text_22">
      <!-- 2 -->
      <g transform="translate(594.876563 199.116875) scale(0.1 -0.1)">
       <use xlink:href="#DejaVuSans-32"/>
      </g>
     </g>
    </g>
    <g id="text_23">
     <!-- x -->
     <g transform="translate(536.560938 212.795) scale(0.1 -0.1)">
      <use xlink:href="#DejaVuSans-78"/>
     </g>
    </g>
   </g>
   <g id="matplotlib.axis_6">
    <g id="ytick_11">
     <g id="line2d_45">
      <path d="M 445.860313 169.073154 
L 633.180313 169.073154 
" clip-path="url(#p465e9d7404)" style="fill: none; stroke: #b0b0b0; stroke-opacity: 0.25; stroke-width: 0.8; stroke-linecap: square"/>
     </g>
     <g id="line2d_46">
      <g>
       <use xlink:href="#md37067adda" x="445.860313" y="169.073154" style="stroke: #000000; stroke-width: 0.8"/>
      </g>
     </g>
    </g>
    <g id="ytick_12">
     <g id="line2d_47">
      <path d="M 445.860313 138.182588 
L 633.180313 138.182588 
" clip-path="url(#p465e9d7404)" style="fill: none; stroke: #b0b0b0; stroke-opacity: 0.25; stroke-width: 0.8; stroke-linecap: square"/>
     </g>
     <g id="line2d_48">
      <g>
       <use xlink:href="#md37067adda" x="445.860313" y="138.182588" style="stroke: #000000; stroke-width: 0.8"/>
      </g>
     </g>
    </g>
    <g id="ytick_13">
     <g id="line2d_49">
      <path d="M 445.860313 107.292022 
L 633.180313 107.292022 
" clip-path="url(#p465e9d7404)" style="fill: none; stroke: #b0b0b0; stroke-opacity: 0.25; stroke-width: 0.8; stroke-linecap: square"/>
     </g>
     <g id="line2d_50">
      <g>
       <use xlink:href="#md37067adda" x="445.860313" y="107.292022" style="stroke: #000000; stroke-width: 0.8"/>
      </g>
     </g>
    </g>
    <g id="ytick_14">
     <g id="line2d_51">
      <path d="M 445.860313 76.401456 
L 633.180313 76.401456 
" clip-path="url(#p465e9d7404)" style="fill: none; stroke: #b0b0b0; stroke-opacity: 0.25; stroke-width: 0.8; stroke-linecap: square"/>
     </g>
     <g id="line2d_52">
      <g>
       <use xlink:href="#md37067adda" x="445.860313" y="76.401456" style="stroke: #000000; stroke-width: 0.8"/>
      </g>
     </g>
    </g>
    <g id="ytick_15">
     <g id="line2d_53">
      <path d="M 445.860313 45.51089 
L 633.180313 45.51089 
" clip-path="url(#p465e9d7404)" style="fill: none; stroke: #b0b0b0; stroke-opacity: 0.25; stroke-width: 0.8; stroke-linecap: square"/>
     </g>
     <g id="line2d_54">
      <g>
       <use xlink:href="#md37067adda" x="445.860313" y="45.51089" style="stroke: #000000; stroke-width: 0.8"/>
      </g>
     </g>
    </g>
   </g>
   <g id="line2d_55">
    <path d="M 445.860313 135.143755 
L 456.188734 142.642343 
L 460.88347 145.762078 
L 464.63926 148.012393 
L 467.925576 149.75378 
L 471.211891 151.245898 
L 474.028734 152.302186 
L 476.845576 153.133816 
L 479.662418 153.724836 
L 482.47926 154.061522 
L 484.826628 154.139534 
L 487.173997 154.027706 
L 489.521365 153.721979 
L 491.868734 153.21954 
L 494.216102 152.518841 
L 496.56347 151.61961 
L 499.380313 150.279969 
L 502.197155 148.660096 
L 505.013997 146.766729 
L 507.830839 144.609135 
L 510.647681 142.19903 
L 513.933997 139.086964 
L 517.220313 135.676507 
L 520.976102 131.451908 
L 525.201365 126.342455 
L 529.896102 120.314714 
L 536.468734 111.473062 
L 550.08347 93.039449 
L 555.247681 86.500862 
L 559.472944 81.509873 
L 563.228734 77.411208 
L 566.515049 74.125189 
L 569.801365 71.149223 
L 572.618207 68.86376 
L 575.435049 66.836966 
L 578.251891 65.079344 
L 581.068734 63.598906 
L 583.885576 62.4011 
L 586.232944 61.620949 
L 588.580312 61.039321 
L 590.927681 60.655176 
L 593.275049 60.466206 
L 595.622418 60.468848 
L 598.43926 60.71811 
L 601.256102 61.225763 
L 604.072944 61.978855 
L 606.889786 62.962161 
L 610.176102 64.377052 
L 613.462418 66.050665 
L 617.218207 68.236186 
L 621.44347 70.97609 
L 626.607681 74.609118 
L 633.180313 79.440289 
L 633.180313 79.440289 
" clip-path="url(#p465e9d7404)" style="fill: none; stroke-dasharray: 5.55,2.4; stroke-dashoffset: 0; stroke: #59a14f; stroke-width: 1.5"/>
   </g>
   <g id="line2d_56">
    <path d="M 445.860313 169.495018 
L 447.268734 163.293065 
L 448.677155 157.899832 
L 450.085576 153.201802 
L 451.493997 149.101405 
L 453.371891 144.42078 
L 455.249786 140.4885 
L 457.127681 137.168917 
L 459.005576 134.351637 
L 460.88347 131.94688 
L 462.761365 129.881664 
L 464.63926 128.096663 
L 466.986628 126.186872 
L 469.333997 124.565296 
L 472.150839 122.91916 
L 474.967681 121.529145 
L 478.253997 120.156736 
L 482.009786 118.838599 
L 486.235049 117.594127 
L 491.39926 116.323604 
L 497.502418 115.07541 
L 504.544523 113.871569 
L 513.464523 112.587711 
L 525.201365 111.144234 
L 567.92347 106.117716 
L 576.373997 104.787096 
L 583.416102 103.45264 
L 589.049786 102.16964 
L 593.744523 100.895945 
L 597.969786 99.533152 
L 601.725576 98.090546 
L 605.011891 96.590886 
L 607.828734 95.074963 
L 610.645576 93.283546 
L 612.992944 91.522447 
L 615.340312 89.452062 
L 617.218207 87.519806 
L 619.096102 85.286763 
L 620.973997 82.689027 
L 622.851891 79.64783 
L 624.729786 76.066108 
L 626.138207 72.954164 
L 627.546628 69.411152 
L 628.955049 65.366611 
L 630.36347 60.738316 
L 631.771891 55.430391 
L 633.180313 49.331133 
L 633.180313 49.331133 
" clip-path="url(#p465e9d7404)" style="fill: none; stroke: #e15759; stroke-width: 2; stroke-linecap: square"/>
   </g>
   <g id="patch_14">
    <path d="M 445.860313 184.518437 
L 445.860313 20.798437 
" style="fill: none; stroke: #000000; stroke-width: 0.8; stroke-linejoin: miter; stroke-linecap: square"/>
   </g>
   <g id="patch_15">
    <path d="M 633.180313 184.518437 
L 633.180313 20.798437 
" style="fill: none; stroke: #000000; stroke-width: 0.8; stroke-linejoin: miter; stroke-linecap: square"/>
   </g>
   <g id="patch_16">
    <path d="M 445.860313 184.518437 
L 633.180313 184.518437 
" style="fill: none; stroke: #000000; stroke-width: 0.8; stroke-linejoin: miter; stroke-linecap: square"/>
   </g>
   <g id="patch_17">
    <path d="M 445.860313 20.798437 
L 633.180313 20.798437 
" style="fill: none; stroke: #000000; stroke-width: 0.8; stroke-linejoin: miter; stroke-linecap: square"/>
   </g>
   <g id="PathCollection_4">
    <g clip-path="url(#p465e9d7404)">
     <use xlink:href="#m1fd4158836" x="452.638716" y="141.85615" style="fill: #7aa6c2; stroke: #ffffff; stroke-width: 0.5"/>
     <use xlink:href="#m1fd4158836" x="457.979965" y="167.189632" style="fill: #7aa6c2; stroke: #ffffff; stroke-width: 0.5"/>
     <use xlink:href="#m1fd4158836" x="459.430828" y="149.820792" style="fill: #7aa6c2; stroke: #ffffff; stroke-width: 0.5"/>
     <use xlink:href="#m1fd4158836" x="479.849298" y="154.204654" style="fill: #7aa6c2; stroke: #ffffff; stroke-width: 0.5"/>
     <use xlink:href="#m1fd4158836" x="489.524961" y="152.671307" style="fill: #7aa6c2; stroke: #ffffff; stroke-width: 0.5"/>
     <use xlink:href="#m1fd4158836" x="491.26326" y="167.5481" style="fill: #7aa6c2; stroke: #ffffff; stroke-width: 0.5"/>
     <use xlink:href="#m1fd4158836" x="496.472348" y="156.085633" style="fill: #7aa6c2; stroke: #ffffff; stroke-width: 0.5"/>
     <use xlink:href="#m1fd4158836" x="500.60908" y="158.67557" style="fill: #7aa6c2; stroke: #ffffff; stroke-width: 0.5"/>
     <use xlink:href="#m1fd4158836" x="504.427014" y="154.679045" style="fill: #7aa6c2; stroke: #ffffff; stroke-width: 0.5"/>
     <use xlink:href="#m1fd4158836" x="504.930345" y="136.995287" style="fill: #7aa6c2; stroke: #ffffff; stroke-width: 0.5"/>
     <use xlink:href="#m1fd4158836" x="529.875025" y="127.825998" style="fill: #7aa6c2; stroke: #ffffff; stroke-width: 0.5"/>
     <use xlink:href="#m1fd4158836" x="533.889289" y="115.28277" style="fill: #7aa6c2; stroke: #ffffff; stroke-width: 0.5"/>
     <use xlink:href="#m1fd4158836" x="540.319044" y="98.000449" style="fill: #7aa6c2; stroke: #ffffff; stroke-width: 0.5"/>
     <use xlink:href="#m1fd4158836" x="548.915116" y="99.979741" style="fill: #7aa6c2; stroke: #ffffff; stroke-width: 0.5"/>
     <use xlink:href="#m1fd4158836" x="559.283674" y="82.76048" style="fill: #7aa6c2; stroke: #ffffff; stroke-width: 0.5"/>
     <use xlink:href="#m1fd4158836" x="560.976512" y="78.804124" style="fill: #7aa6c2; stroke: #ffffff; stroke-width: 0.5"/>
     <use xlink:href="#m1fd4158836" x="561.48864" y="78.67611" style="fill: #7aa6c2; stroke: #ffffff; stroke-width: 0.5"/>
     <use xlink:href="#m1fd4158836" x="587.934166" y="72.532457" style="fill: #7aa6c2; stroke: #ffffff; stroke-width: 0.5"/>
     <use xlink:href="#m1fd4158836" x="590.915404" y="59.951071" style="fill: #7aa6c2; stroke: #ffffff; stroke-width: 0.5"/>
     <use xlink:href="#m1fd4158836" x="591.689418" y="47.980163" style="fill: #7aa6c2; stroke: #ffffff; stroke-width: 0.5"/>
     <use xlink:href="#m1fd4158836" x="595.932038" y="74.820913" style="fill: #7aa6c2; stroke: #ffffff; stroke-width: 0.5"/>
     <use xlink:href="#m1fd4158836" x="605.120967" y="54.354645" style="fill: #7aa6c2; stroke: #ffffff; stroke-width: 0.5"/>
     <use xlink:href="#m1fd4158836" x="609.276021" y="62.856362" style="fill: #7aa6c2; stroke: #ffffff; stroke-width: 0.5"/>
     <use xlink:href="#m1fd4158836" x="625.387826" y="79.675054" style="fill: #7aa6c2; stroke: #ffffff; stroke-width: 0.5"/>
     <use xlink:href="#m1fd4158836" x="626.536356" y="56.019276" style="fill: #7aa6c2; stroke: #ffffff; stroke-width: 0.5"/>
    </g>
   </g>
   <g id="text_24">
    <!-- alpha=100 (too strong) -->
    <g transform="translate(480.857813 14.798437) scale(0.1 -0.1)">
     <defs>
      <path id="DejaVuSans-73" d="M 2834 3397 
L 2834 2853 
Q 2591 2978 2328 3040 
Q 2066 3103 1784 3103 
Q 1356 3103 1142 2972 
Q 928 2841 928 2578 
Q 928 2378 1081 2264 
Q 1234 2150 1697 2047 
L 1894 2003 
Q 2506 1872 2764 1633 
Q 3022 1394 3022 966 
Q 3022 478 2636 193 
Q 2250 -91 1575 -91 
Q 1294 -91 989 -36 
Q 684 19 347 128 
L 347 722 
Q 666 556 975 473 
Q 1284 391 1588 391 
Q 1994 391 2212 530 
Q 2431 669 2431 922 
Q 2431 1156 2273 1281 
Q 2116 1406 1581 1522 
L 1381 1569 
Q 847 1681 609 1914 
Q 372 2147 372 2553 
Q 372 3047 722 3315 
Q 1072 3584 1716 3584 
Q 2034 3584 2315 3537 
Q 2597 3491 2834 3397 
z
" transform="scale(0.015625)"/>
     </defs>
     <use xlink:href="#DejaVuSans-61"/>
     <use xlink:href="#DejaVuSans-6c" transform="translate(61.279297 0)"/>
     <use xlink:href="#DejaVuSans-70" transform="translate(89.0625 0)"/>
     <use xlink:href="#DejaVuSans-68" transform="translate(152.539062 0)"/>
     <use xlink:href="#DejaVuSans-61" transform="translate(215.917969 0)"/>
     <use xlink:href="#DejaVuSans-3d" transform="translate(277.197266 0)"/>
     <use xlink:href="#DejaVuSans-31" transform="translate(360.986328 0)"/>
     <use xlink:href="#DejaVuSans-30" transform="translate(424.609375 0)"/>
     <use xlink:href="#DejaVuSans-30" transform="translate(488.232422 0)"/>
     <use xlink:href="#DejaVuSans-20" transform="translate(551.855469 0)"/>
     <use xlink:href="#DejaVuSans-28" transform="translate(583.642578 0)"/>
     <use xlink:href="#DejaVuSans-74" transform="translate(622.65625 0)"/>
     <use xlink:href="#DejaVuSans-6f" transform="translate(661.865234 0)"/>
     <use xlink:href="#DejaVuSans-6f" transform="translate(723.046875 0)"/>
     <use xlink:href="#DejaVuSans-20" transform="translate(784.228516 0)"/>
     <use xlink:href="#DejaVuSans-73" transform="translate(816.015625 0)"/>
     <use xlink:href="#DejaVuSans-74" transform="translate(868.115234 0)"/>
     <use xlink:href="#DejaVuSans-72" transform="translate(907.324219 0)"/>
     <use xlink:href="#DejaVuSans-6f" transform="translate(946.1875 0)"/>
     <use xlink:href="#DejaVuSans-6e" transform="translate(1007.369141 0)"/>
     <use xlink:href="#DejaVuSans-67" transform="translate(1070.748047 0)"/>
     <use xlink:href="#DejaVuSans-29" transform="translate(1134.224609 0)"/>
    </g>
   </g>
  </g>
 </g>
 <defs>
  <clipPath id="p5f820a8498">
   <rect x="42.620313" y="20.798437" width="187.32" height="163.72"/>
  </clipPath>
  <clipPath id="p800b4be494">
   <rect x="244.240313" y="20.798437" width="187.32" height="163.72"/>
  </clipPath>
  <clipPath id="p465e9d7404">
   <rect x="445.860313" y="20.798437" width="187.32" height="163.72"/>
  </clipPath>
 </defs>
</svg>
