<?xml version="1.0" encoding="utf-8" standalone="no"?>
<!DOCTYPE svg PUBLIC "-//W3C//DTD SVG 1.1//EN"
  "http://www.w3.org/Graphics/SVG/1.1/DTD/svg11.dtd">
<svg xmlns:xlink="http://www.w3.org/1999/xlink" width="784.8pt" height="387.838125pt" viewBox="0 0 784.8 387.838125" xmlns="http://www.w3.org/2000/svg" version="1.1">
 <metadata>
  <rdf:RDF xmlns:dc="http://purl.org/dc/elements/1.1/" xmlns:cc="http://creativecommons.org/ns#" xmlns:rdf="http://www.w3.org/1999/02/22-rdf-syntax-ns#">
   <cc:Work>
    <dc:type rdf:resource="http://purl.org/dc/dcmitype/StillImage"/>
    <dc:date>2026-05-26T11:35:10.948887</dc:date>
    <dc:format>image/svg+xml</dc:format>
    <dc:creator>
     <cc:Agent>
      <dc:title>Matplotlib v3.10.8, https://matplotlib.org/</dc:title>
     </cc:Agent>
    </dc:creator>
   </cc:Work>
  </rdf:RDF>
 </metadata>
 <defs>
  <style type="text/css">*{stroke-linejoin: round; stroke-linecap: butt}</style>
 </defs>
 <g id="figure_1">
  <g id="patch_1">
   <path d="M 0 387.838125 
L 784.8 387.838125 
L 784.8 0 
L 0 0 
z
" style="fill: #ffffff"/>
  </g>
  <g id="axes_1">
   <g id="patch_2">
    <path d="M 7.2 380.638125 
L 777.6 380.638125 
L 777.6 22.318125 
L 7.2 22.318125 
z
" style="fill: #ffffff"/>
   </g>
   <g id="patch_3">
    <path d="M 45.72 76.066125 
L 739.08 76.066125 
L 739.08 11.568525 
L 45.72 11.568525 
z
" clip-path="url(#pa2a876e4ac)" style="fill: #e15759; opacity: 0.6; stroke: #000000; stroke-width: 1.5; stroke-linejoin: miter"/>
   </g>
   <g id="patch_4">
    <path d="M 45.72 154.896525 
L 739.08 154.896525 
L 739.08 90.398925 
L 45.72 90.398925 
z
" clip-path="url(#pa2a876e4ac)" style="fill: #f28e2b; opacity: 0.6; stroke: #000000; stroke-width: 1.5; stroke-linejoin: miter"/>
   </g>
   <g id="patch_5">
    <path d="M 45.72 233.726925 
L 739.08 233.726925 
L 739.08 169.229325 
L 45.72 169.229325 
z
" clip-path="url(#pa2a876e4ac)" style="fill: #59a14f; opacity: 0.6; stroke: #000000; stroke-width: 1.5; stroke-linejoin: miter"/>
   </g>
   <g id="patch_6">
    <path d="M 45.72 312.557325 
L 739.08 312.557325 
L 739.08 248.059725 
L 45.72 248.059725 
z
" clip-path="url(#pa2a876e4ac)" style="fill: #7aa6c2; opacity: 0.6; stroke: #000000; stroke-width: 1.5; stroke-linejoin: miter"/>
   </g>
   <g id="matplotlib.axis_1"/>
   <g id="matplotlib.axis_2"/>
   <g id="patch_7">
    <path d="M 7.2 380.638125 
L 7.2 22.318125 
" style="fill: none; stroke: #000000; stroke-width: 0.8; stroke-linejoin: miter; stroke-linecap: square"/>
   </g>
   <g id="patch_8">
    <path d="M 777.6 380.638125 
L 777.6 22.318125 
" style="fill: none; stroke: #000000; stroke-width: 0.8; stroke-linejoin: miter; stroke-linecap: square"/>
   </g>
   <g id="patch_9">
    <path d="M 7.2 380.638125 
L 777.6 380.638125 
" style="fill: none; stroke: #000000; stroke-width: 0.8; stroke-linejoin: miter; stroke-linecap: square"/>
   </g>
   <g id="patch_10">
    <path d="M 7.2 22.318125 
L 777.6 22.318125 
" style="fill: none; stroke: #000000; stroke-width: 0.8; stroke-linejoin: miter; stroke-linecap: square"/>
   </g>
   <g id="text_1">
    <!-- Business KPIs -->
    <g transform="translate(68.832 43.817325) scale(0.12 -0.12)">
     <defs>
      <path id="DejaVuSans-Bold-42" d="M 2456 2859 
Q 2741 2859 2887 2984 
Q 3034 3109 3034 3353 
Q 3034 3594 2887 3720 
Q 2741 3847 2456 3847 
L 1791 3847 
L 1791 2859 
L 2456 2859 
z
M 2497 819 
Q 2859 819 3042 972 
Q 3225 1125 3225 1434 
Q 3225 1738 3044 1889 
Q 2863 2041 2497 2041 
L 1791 2041 
L 1791 819 
L 2497 819 
z
M 3616 2497 
Q 4003 2384 4215 2081 
Q 4428 1778 4428 1338 
Q 4428 663 3972 331 
Q 3516 0 2584 0 
L 588 0 
L 588 4666 
L 2394 4666 
Q 3366 4666 3802 4372 
Q 4238 4078 4238 3431 
Q 4238 3091 4078 2852 
Q 3919 2613 3616 2497 
z
" transform="scale(0.015625)"/>
      <path id="DejaVuSans-Bold-75" d="M 500 1363 
L 500 3500 
L 1625 3500 
L 1625 3150 
Q 1625 2866 1622 2436 
Q 1619 2006 1619 1863 
Q 1619 1441 1641 1255 
Q 1663 1069 1716 984 
Q 1784 875 1895 815 
Q 2006 756 2150 756 
Q 2500 756 2700 1025 
Q 2900 1294 2900 1772 
L 2900 3500 
L 4019 3500 
L 4019 0 
L 2900 0 
L 2900 506 
Q 2647 200 2364 54 
Q 2081 -91 1741 -91 
Q 1134 -91 817 281 
Q 500 653 500 1363 
z
" transform="scale(0.015625)"/>
      <path id="DejaVuSans-Bold-73" d="M 3272 3391 
L 3272 2541 
Q 2913 2691 2578 2766 
Q 2244 2841 1947 2841 
Q 1628 2841 1473 2761 
Q 1319 2681 1319 2516 
Q 1319 2381 1436 2309 
Q 1553 2238 1856 2203 
L 2053 2175 
Q 2913 2066 3209 1816 
Q 3506 1566 3506 1031 
Q 3506 472 3093 190 
Q 2681 -91 1863 -91 
Q 1516 -91 1145 -36 
Q 775 19 384 128 
L 384 978 
Q 719 816 1070 734 
Q 1422 653 1784 653 
Q 2113 653 2278 743 
Q 2444 834 2444 1013 
Q 2444 1163 2330 1236 
Q 2216 1309 1875 1350 
L 1678 1375 
Q 931 1469 631 1722 
Q 331 1975 331 2491 
Q 331 3047 712 3315 
Q 1094 3584 1881 3584 
Q 2191 3584 2531 3537 
Q 2872 3491 3272 3391 
z
" transform="scale(0.015625)"/>
      <path id="DejaVuSans-Bold-69" d="M 538 3500 
L 1656 3500 
L 1656 0 
L 538 0 
L 538 3500 
z
M 538 4863 
L 1656 4863 
L 1656 3950 
L 538 3950 
L 538 4863 
z
" transform="scale(0.015625)"/>
      <path id="DejaVuSans-Bold-6e" d="M 4056 2131 
L 4056 0 
L 2931 0 
L 2931 347 
L 2931 1631 
Q 2931 2084 2911 2256 
Q 2891 2428 2841 2509 
Q 2775 2619 2662 2680 
Q 2550 2741 2406 2741 
Q 2056 2741 1856 2470 
Q 1656 2200 1656 1722 
L 1656 0 
L 538 0 
L 538 3500 
L 1656 3500 
L 1656 2988 
Q 1909 3294 2193 3439 
Q 2478 3584 2822 3584 
Q 3428 3584 3742 3212 
Q 4056 2841 4056 2131 
z
" transform="scale(0.015625)"/>
      <path id="DejaVuSans-Bold-65" d="M 4031 1759 
L 4031 1441 
L 1416 1441 
Q 1456 1047 1700 850 
Q 1944 653 2381 653 
Q 2734 653 3104 758 
Q 3475 863 3866 1075 
L 3866 213 
Q 3469 63 3072 -14 
Q 2675 -91 2278 -91 
Q 1328 -91 801 392 
Q 275 875 275 1747 
Q 275 2603 792 3093 
Q 1309 3584 2216 3584 
Q 3041 3584 3536 3087 
Q 4031 2591 4031 1759 
z
M 2881 2131 
Q 2881 2450 2695 2645 
Q 2509 2841 2209 2841 
Q 1884 2841 1681 2658 
Q 1478 2475 1428 2131 
L 2881 2131 
z
" transform="scale(0.015625)"/>
      <path id="DejaVuSans-Bold-20" transform="scale(0.015625)"/>
      <path id="DejaVuSans-Bold-4b" d="M 588 4666 
L 1791 4666 
L 1791 2963 
L 3525 4666 
L 4922 4666 
L 2675 2456 
L 5153 0 
L 3647 0 
L 1791 1838 
L 1791 0 
L 588 0 
L 588 4666 
z
" transform="scale(0.015625)"/>
      <path id="DejaVuSans-Bold-50" d="M 588 4666 
L 2584 4666 
Q 3475 4666 3951 4270 
Q 4428 3875 4428 3144 
Q 4428 2409 3951 2014 
Q 3475 1619 2584 1619 
L 1791 1619 
L 1791 0 
L 588 0 
L 588 4666 
z
M 1791 3794 
L 1791 2491 
L 2456 2491 
Q 2806 2491 2997 2661 
Q 3188 2831 3188 3144 
Q 3188 3456 2997 3625 
Q 2806 3794 2456 3794 
L 1791 3794 
z
" transform="scale(0.015625)"/>
      <path id="DejaVuSans-Bold-49" d="M 588 4666 
L 1791 4666 
L 1791 0 
L 588 0 
L 588 4666 
z
" transform="scale(0.015625)"/>
     </defs>
     <use xlink:href="#DejaVuSans-Bold-42"/>
     <use xlink:href="#DejaVuSans-Bold-75" transform="translate(76.220703 0)"/>
     <use xlink:href="#DejaVuSans-Bold-73" transform="translate(147.412109 0)"/>
     <use xlink:href="#DejaVuSans-Bold-69" transform="translate(206.933594 0)"/>
     <use xlink:href="#DejaVuSans-Bold-6e" transform="translate(241.210938 0)"/>
     <use xlink:href="#DejaVuSans-Bold-65" transform="translate(312.402344 0)"/>
     <use xlink:href="#DejaVuSans-Bold-73" transform="translate(380.224609 0)"/>
     <use xlink:href="#DejaVuSans-Bold-73" transform="translate(439.746094 0)"/>
     <use xlink:href="#DejaVuSans-Bold-20" transform="translate(499.267578 0)"/>
     <use xlink:href="#DejaVuSans-Bold-4b" transform="translate(534.082031 0)"/>
     <use xlink:href="#DejaVuSans-Bold-50" transform="translate(611.572266 0)"/>
     <use xlink:href="#DejaVuSans-Bold-49" transform="translate(684.863281 0)"/>
     <use xlink:href="#DejaVuSans-Bold-73" transform="translate(722.070312 0)"/>
    </g>
   </g>
   <g id="text_2">
    <!-- revenue / conversion / NPS -->
    <g transform="translate(68.832 61.733325) scale(0.1 -0.1)">
     <defs>
      <path id="DejaVuSans-72" d="M 2631 2963 
Q 2534 3019 2420 3045 
Q 2306 3072 2169 3072 
Q 1681 3072 1420 2755 
Q 1159 2438 1159 1844 
L 1159 0 
L 581 0 
L 581 3500 
L 1159 3500 
L 1159 2956 
Q 1341 3275 1631 3429 
Q 1922 3584 2338 3584 
Q 2397 3584 2469 3576 
Q 2541 3569 2628 3553 
L 2631 2963 
z
" transform="scale(0.015625)"/>
      <path id="DejaVuSans-65" d="M 3597 1894 
L 3597 1613 
L 953 1613 
Q 991 1019 1311 708 
Q 1631 397 2203 397 
Q 2534 397 2845 478 
Q 3156 559 3463 722 
L 3463 178 
Q 3153 47 2828 -22 
Q 2503 -91 2169 -91 
Q 1331 -91 842 396 
Q 353 884 353 1716 
Q 353 2575 817 3079 
Q 1281 3584 2069 3584 
Q 2775 3584 3186 3129 
Q 3597 2675 3597 1894 
z
M 3022 2063 
Q 3016 2534 2758 2815 
Q 2500 3097 2075 3097 
Q 1594 3097 1305 2825 
Q 1016 2553 972 2059 
L 3022 2063 
z
" transform="scale(0.015625)"/>
      <path id="DejaVuSans-76" d="M 191 3500 
L 800 3500 
L 1894 563 
L 2988 3500 
L 3597 3500 
L 2284 0 
L 1503 0 
L 191 3500 
z
" transform="scale(0.015625)"/>
      <path id="DejaVuSans-6e" d="M 3513 2113 
L 3513 0 
L 2938 0 
L 2938 2094 
Q 2938 2591 2744 2837 
Q 2550 3084 2163 3084 
Q 1697 3084 1428 2787 
Q 1159 2491 1159 1978 
L 1159 0 
L 581 0 
L 581 3500 
L 1159 3500 
L 1159 2956 
Q 1366 3272 1645 3428 
Q 1925 3584 2291 3584 
Q 2894 3584 3203 3211 
Q 3513 2838 3513 2113 
z
" transform="scale(0.015625)"/>
      <path id="DejaVuSans-75" d="M 544 1381 
L 544 3500 
L 1119 3500 
L 1119 1403 
Q 1119 906 1312 657 
Q 1506 409 1894 409 
Q 2359 409 2629 706 
Q 2900 1003 2900 1516 
L 2900 3500 
L 3475 3500 
L 3475 0 
L 2900 0 
L 2900 538 
Q 2691 219 2414 64 
Q 2138 -91 1772 -91 
Q 1169 -91 856 284 
Q 544 659 544 1381 
z
M 1991 3584 
L 1991 3584 
z
" transform="scale(0.015625)"/>
      <path id="DejaVuSans-20" transform="scale(0.015625)"/>
      <path id="DejaVuSans-2f" d="M 1625 4666 
L 2156 4666 
L 531 -594 
L 0 -594 
L 1625 4666 
z
" transform="scale(0.015625)"/>
      <path id="DejaVuSans-63" d="M 3122 3366 
L 3122 2828 
Q 2878 2963 2633 3030 
Q 2388 3097 2138 3097 
Q 1578 3097 1268 2742 
Q 959 2388 959 1747 
Q 959 1106 1268 751 
Q 1578 397 2138 397 
Q 2388 397 2633 464 
Q 2878 531 3122 666 
L 3122 134 
Q 2881 22 2623 -34 
Q 2366 -91 2075 -91 
Q 1284 -91 818 406 
Q 353 903 353 1747 
Q 353 2603 823 3093 
Q 1294 3584 2113 3584 
Q 2378 3584 2631 3529 
Q 2884 3475 3122 3366 
z
" transform="scale(0.015625)"/>
      <path id="DejaVuSans-6f" d="M 1959 3097 
Q 1497 3097 1228 2736 
Q 959 2375 959 1747 
Q 959 1119 1226 758 
Q 1494 397 1959 397 
Q 2419 397 2687 759 
Q 2956 1122 2956 1747 
Q 2956 2369 2687 2733 
Q 2419 3097 1959 3097 
z
M 1959 3584 
Q 2709 3584 3137 3096 
Q 3566 2609 3566 1747 
Q 3566 888 3137 398 
Q 2709 -91 1959 -91 
Q 1206 -91 779 398 
Q 353 888 353 1747 
Q 353 2609 779 3096 
Q 1206 3584 1959 3584 
z
" transform="scale(0.015625)"/>
      <path id="DejaVuSans-73" d="M 2834 3397 
L 2834 2853 
Q 2591 2978 2328 3040 
Q 2066 3103 1784 3103 
Q 1356 3103 1142 2972 
Q 928 2841 928 2578 
Q 928 2378 1081 2264 
Q 1234 2150 1697 2047 
L 1894 2003 
Q 2506 1872 2764 1633 
Q 3022 1394 3022 966 
Q 3022 478 2636 193 
Q 2250 -91 1575 -91 
Q 1294 -91 989 -36 
Q 684 19 347 128 
L 347 722 
Q 666 556 975 473 
Q 1284 391 1588 391 
Q 1994 391 2212 530 
Q 2431 669 2431 922 
Q 2431 1156 2273 1281 
Q 2116 1406 1581 1522 
L 1381 1569 
Q 847 1681 609 1914 
Q 372 2147 372 2553 
Q 372 3047 722 3315 
Q 1072 3584 1716 3584 
Q 2034 3584 2315 3537 
Q 2597 3491 2834 3397 
z
" transform="scale(0.015625)"/>
      <path id="DejaVuSans-69" d="M 603 3500 
L 1178 3500 
L 1178 0 
L 603 0 
L 603 3500 
z
M 603 4863 
L 1178 4863 
L 1178 4134 
L 603 4134 
L 603 4863 
z
" transform="scale(0.015625)"/>
      <path id="DejaVuSans-4e" d="M 628 4666 
L 1478 4666 
L 3547 763 
L 3547 4666 
L 4159 4666 
L 4159 0 
L 3309 0 
L 1241 3903 
L 1241 0 
L 628 0 
L 628 4666 
z
" transform="scale(0.015625)"/>
      <path id="DejaVuSans-50" d="M 1259 4147 
L 1259 2394 
L 2053 2394 
Q 2494 2394 2734 2622 
Q 2975 2850 2975 3272 
Q 2975 3691 2734 3919 
Q 2494 4147 2053 4147 
L 1259 4147 
z
M 628 4666 
L 2053 4666 
Q 2838 4666 3239 4311 
Q 3641 3956 3641 3272 
Q 3641 2581 3239 2228 
Q 2838 1875 2053 1875 
L 1259 1875 
L 1259 0 
L 628 0 
L 628 4666 
z
" transform="scale(0.015625)"/>
      <path id="DejaVuSans-53" d="M 3425 4513 
L 3425 3897 
Q 3066 4069 2747 4153 
Q 2428 4238 2131 4238 
Q 1616 4238 1336 4038 
Q 1056 3838 1056 3469 
Q 1056 3159 1242 3001 
Q 1428 2844 1947 2747 
L 2328 2669 
Q 3034 2534 3370 2195 
Q 3706 1856 3706 1288 
Q 3706 609 3251 259 
Q 2797 -91 1919 -91 
Q 1588 -91 1214 -16 
Q 841 59 441 206 
L 441 856 
Q 825 641 1194 531 
Q 1563 422 1919 422 
Q 2459 422 2753 634 
Q 3047 847 3047 1241 
Q 3047 1584 2836 1778 
Q 2625 1972 2144 2069 
L 1759 2144 
Q 1053 2284 737 2584 
Q 422 2884 422 3419 
Q 422 4038 858 4394 
Q 1294 4750 2059 4750 
Q 2388 4750 2728 4690 
Q 3069 4631 3425 4513 
z
" transform="scale(0.015625)"/>
     </defs>
     <use xlink:href="#DejaVuSans-72"/>
     <use xlink:href="#DejaVuSans-65" transform="translate(38.863281 0)"/>
     <use xlink:href="#DejaVuSans-76" transform="translate(100.386719 0)"/>
     <use xlink:href="#DejaVuSans-65" transform="translate(159.566406 0)"/>
     <use xlink:href="#DejaVuSans-6e" transform="translate(221.089844 0)"/>
     <use xlink:href="#DejaVuSans-75" transform="translate(284.46875 0)"/>
     <use xlink:href="#DejaVuSans-65" transform="translate(347.847656 0)"/>
     <use xlink:href="#DejaVuSans-20" transform="translate(409.371094 0)"/>
     <use xlink:href="#DejaVuSans-2f" transform="translate(441.158203 0)"/>
     <use xlink:href="#DejaVuSans-20" transform="translate(474.849609 0)"/>
     <use xlink:href="#DejaVuSans-63" transform="translate(506.636719 0)"/>
     <use xlink:href="#DejaVuSans-6f" transform="translate(561.617188 0)"/>
     <use xlink:href="#DejaVuSans-6e" transform="translate(622.798828 0)"/>
     <use xlink:href="#DejaVuSans-76" transform="translate(686.177734 0)"/>
     <use xlink:href="#DejaVuSans-65" transform="translate(745.357422 0)"/>
     <use xlink:href="#DejaVuSans-72" transform="translate(806.880859 0)"/>
     <use xlink:href="#DejaVuSans-73" transform="translate(847.994141 0)"/>
     <use xlink:href="#DejaVuSans-69" transform="translate(900.09375 0)"/>
     <use xlink:href="#DejaVuSans-6f" transform="translate(927.876953 0)"/>
     <use xlink:href="#DejaVuSans-6e" transform="translate(989.058594 0)"/>
     <use xlink:href="#DejaVuSans-20" transform="translate(1052.4375 0)"/>
     <use xlink:href="#DejaVuSans-2f" transform="translate(1084.224609 0)"/>
     <use xlink:href="#DejaVuSans-20" transform="translate(1117.916016 0)"/>
     <use xlink:href="#DejaVuSans-4e" transform="translate(1149.703125 0)"/>
     <use xlink:href="#DejaVuSans-50" transform="translate(1224.507812 0)"/>
     <use xlink:href="#DejaVuSans-53" transform="translate(1284.810547 0)"/>
    </g>
   </g>
   <g id="text_3">
    <!-- owner: Product / Business -->
    <g transform="translate(609.450312 54.566925) scale(0.1 -0.1)">
     <defs>
      <path id="DejaVuSans-Oblique-6f" d="M 1625 -91 
Q 1009 -91 651 289 
Q 294 669 294 1325 
Q 294 1706 417 2101 
Q 541 2497 738 2766 
Q 1047 3184 1428 3384 
Q 1809 3584 2291 3584 
Q 2888 3584 3255 3212 
Q 3622 2841 3622 2241 
Q 3622 1825 3500 1412 
Q 3378 1000 3181 728 
Q 2875 309 2494 109 
Q 2113 -91 1625 -91 
z
M 891 1344 
Q 891 869 1089 633 
Q 1288 397 1691 397 
Q 2269 397 2648 901 
Q 3028 1406 3028 2181 
Q 3028 2634 2825 2865 
Q 2622 3097 2228 3097 
Q 1903 3097 1650 2945 
Q 1397 2794 1197 2484 
Q 1050 2253 970 1956 
Q 891 1659 891 1344 
z
" transform="scale(0.015625)"/>
      <path id="DejaVuSans-Oblique-77" d="M 544 3500 
L 1113 3500 
L 1259 684 
L 2566 3500 
L 3231 3500 
L 3425 684 
L 4666 3500 
L 5241 3500 
L 3641 0 
L 2969 0 
L 2797 2900 
L 1459 0 
L 781 0 
L 544 3500 
z
" transform="scale(0.015625)"/>
      <path id="DejaVuSans-Oblique-6e" d="M 3566 2113 
L 3156 0 
L 2578 0 
L 2988 2091 
Q 3016 2238 3031 2350 
Q 3047 2463 3047 2528 
Q 3047 2791 2881 2937 
Q 2716 3084 2419 3084 
Q 1956 3084 1622 2776 
Q 1288 2469 1184 1941 
L 800 0 
L 225 0 
L 903 3500 
L 1478 3500 
L 1363 2950 
Q 1603 3253 1940 3418 
Q 2278 3584 2650 3584 
Q 3113 3584 3367 3334 
Q 3622 3084 3622 2631 
Q 3622 2519 3608 2391 
Q 3594 2263 3566 2113 
z
" transform="scale(0.015625)"/>
      <path id="DejaVuSans-Oblique-65" d="M 3078 2063 
Q 3088 2113 3092 2166 
Q 3097 2219 3097 2272 
Q 3097 2653 2873 2875 
Q 2650 3097 2266 3097 
Q 1838 3097 1509 2826 
Q 1181 2556 1013 2059 
L 3078 2063 
z
M 3578 1613 
L 903 1613 
Q 884 1494 878 1425 
Q 872 1356 872 1306 
Q 872 872 1139 634 
Q 1406 397 1894 397 
Q 2269 397 2603 481 
Q 2938 566 3225 728 
L 3116 159 
Q 2806 34 2476 -28 
Q 2147 -91 1806 -91 
Q 1078 -91 686 257 
Q 294 606 294 1247 
Q 294 1794 489 2264 
Q 684 2734 1063 3103 
Q 1306 3334 1642 3459 
Q 1978 3584 2356 3584 
Q 2950 3584 3301 3228 
Q 3653 2872 3653 2272 
Q 3653 2128 3634 1964 
Q 3616 1800 3578 1613 
z
" transform="scale(0.015625)"/>
      <path id="DejaVuSans-Oblique-72" d="M 2853 2969 
Q 2766 3016 2653 3041 
Q 2541 3066 2413 3066 
Q 1953 3066 1609 2717 
Q 1266 2369 1153 1784 
L 800 0 
L 225 0 
L 909 3500 
L 1484 3500 
L 1375 2956 
Q 1603 3259 1920 3421 
Q 2238 3584 2597 3584 
Q 2691 3584 2781 3573 
Q 2872 3563 2963 3538 
L 2853 2969 
z
" transform="scale(0.015625)"/>
      <path id="DejaVuSans-Oblique-3a" d="M 978 3309 
L 1638 3309 
L 1484 2516 
L 825 2516 
L 978 3309 
z
M 488 794 
L 1147 794 
L 991 0 
L 331 0 
L 488 794 
z
" transform="scale(0.015625)"/>
      <path id="DejaVuSans-Oblique-20" transform="scale(0.015625)"/>
      <path id="DejaVuSans-Oblique-50" d="M 1081 4666 
L 2541 4666 
Q 3178 4666 3512 4369 
Q 3847 4072 3847 3500 
Q 3847 2731 3353 2303 
Q 2859 1875 1966 1875 
L 1172 1875 
L 806 0 
L 172 0 
L 1081 4666 
z
M 1613 4147 
L 1275 2394 
L 2069 2394 
Q 2606 2394 2893 2669 
Q 3181 2944 3181 3456 
Q 3181 3784 2986 3965 
Q 2791 4147 2438 4147 
L 1613 4147 
z
" transform="scale(0.015625)"/>
      <path id="DejaVuSans-Oblique-64" d="M 2675 525 
Q 2444 222 2128 65 
Q 1813 -91 1428 -91 
Q 903 -91 598 267 
Q 294 625 294 1247 
Q 294 1766 478 2236 
Q 663 2706 1013 3078 
Q 1244 3325 1534 3454 
Q 1825 3584 2144 3584 
Q 2481 3584 2739 3421 
Q 2997 3259 3138 2956 
L 3513 4863 
L 4091 4863 
L 3144 0 
L 2566 0 
L 2675 525 
z
M 891 1350 
Q 891 897 1095 644 
Q 1300 391 1663 391 
Q 1931 391 2161 520 
Q 2391 650 2566 903 
Q 2750 1166 2856 1509 
Q 2963 1853 2963 2188 
Q 2963 2622 2758 2865 
Q 2553 3109 2194 3109 
Q 1922 3109 1687 2981 
Q 1453 2853 1288 2613 
Q 1106 2353 998 2009 
Q 891 1666 891 1350 
z
" transform="scale(0.015625)"/>
      <path id="DejaVuSans-Oblique-75" d="M 428 1388 
L 838 3500 
L 1416 3500 
L 1006 1409 
Q 975 1256 961 1147 
Q 947 1038 947 966 
Q 947 700 1109 554 
Q 1272 409 1569 409 
Q 2031 409 2368 721 
Q 2706 1034 2809 1563 
L 3194 3500 
L 3769 3500 
L 3091 0 
L 2516 0 
L 2631 550 
Q 2388 244 2052 76 
Q 1716 -91 1338 -91 
Q 878 -91 622 161 
Q 366 413 366 863 
Q 366 956 381 1097 
Q 397 1238 428 1388 
z
" transform="scale(0.015625)"/>
      <path id="DejaVuSans-Oblique-63" d="M 3431 3366 
L 3316 2797 
Q 3109 2947 2876 3022 
Q 2644 3097 2394 3097 
Q 2119 3097 1870 3000 
Q 1622 2903 1453 2725 
Q 1184 2453 1037 2087 
Q 891 1722 891 1331 
Q 891 859 1127 628 
Q 1363 397 1844 397 
Q 2081 397 2348 469 
Q 2616 541 2906 684 
L 2797 116 
Q 2547 13 2283 -39 
Q 2019 -91 1741 -91 
Q 1044 -91 669 257 
Q 294 606 294 1253 
Q 294 1797 489 2255 
Q 684 2713 1069 3078 
Q 1331 3328 1684 3456 
Q 2038 3584 2456 3584 
Q 2700 3584 2940 3529 
Q 3181 3475 3431 3366 
z
" transform="scale(0.015625)"/>
      <path id="DejaVuSans-Oblique-74" d="M 2706 3500 
L 2619 3053 
L 1472 3053 
L 1100 1153 
Q 1081 1047 1072 975 
Q 1063 903 1063 863 
Q 1063 663 1183 572 
Q 1303 481 1569 481 
L 2150 481 
L 2053 0 
L 1503 0 
Q 991 0 739 200 
Q 488 400 488 806 
Q 488 878 497 964 
Q 506 1050 525 1153 
L 897 3053 
L 409 3053 
L 500 3500 
L 978 3500 
L 1172 4494 
L 1747 4494 
L 1556 3500 
L 2706 3500 
z
" transform="scale(0.015625)"/>
      <path id="DejaVuSans-Oblique-2f" d="M 2175 4666 
L 2731 4666 
L 84 -594 
L -469 -594 
L 2175 4666 
z
" transform="scale(0.015625)"/>
      <path id="DejaVuSans-Oblique-42" d="M 1081 4666 
L 2694 4666 
Q 3350 4666 3675 4422 
Q 4000 4178 4000 3688 
Q 4000 3238 3720 2911 
Q 3441 2584 2988 2516 
Q 3375 2428 3569 2181 
Q 3763 1934 3763 1522 
Q 3763 819 3242 409 
Q 2722 0 1819 0 
L 172 0 
L 1081 4666 
z
M 1234 2228 
L 903 519 
L 1919 519 
Q 2491 519 2800 781 
Q 3109 1044 3109 1522 
Q 3109 1891 2904 2059 
Q 2700 2228 2247 2228 
L 1234 2228 
z
M 1606 4147 
L 1331 2741 
L 2272 2741 
Q 2775 2741 3058 2959 
Q 3341 3178 3341 3566 
Q 3341 3869 3150 4008 
Q 2959 4147 2541 4147 
L 1606 4147 
z
" transform="scale(0.015625)"/>
      <path id="DejaVuSans-Oblique-73" d="M 3200 3397 
L 3091 2853 
Q 2863 2978 2609 3040 
Q 2356 3103 2088 3103 
Q 1634 3103 1373 2948 
Q 1113 2794 1113 2528 
Q 1113 2219 1719 2053 
Q 1766 2041 1788 2034 
L 1972 1978 
Q 2547 1819 2739 1644 
Q 2931 1469 2931 1166 
Q 2931 609 2489 259 
Q 2047 -91 1331 -91 
Q 1053 -91 747 -37 
Q 441 16 72 128 
L 184 722 
Q 500 559 806 475 
Q 1113 391 1394 391 
Q 1816 391 2080 572 
Q 2344 753 2344 1031 
Q 2344 1331 1650 1516 
L 1591 1531 
L 1394 1581 
Q 956 1697 753 1886 
Q 550 2075 550 2369 
Q 550 2928 970 3256 
Q 1391 3584 2113 3584 
Q 2397 3584 2667 3537 
Q 2938 3491 3200 3397 
z
" transform="scale(0.015625)"/>
      <path id="DejaVuSans-Oblique-69" d="M 1172 4863 
L 1747 4863 
L 1606 4134 
L 1031 4134 
L 1172 4863 
z
M 909 3500 
L 1484 3500 
L 800 0 
L 225 0 
L 909 3500 
z
" transform="scale(0.015625)"/>
     </defs>
     <use xlink:href="#DejaVuSans-Oblique-6f"/>
     <use xlink:href="#DejaVuSans-Oblique-77" transform="translate(61.181641 0)"/>
     <use xlink:href="#DejaVuSans-Oblique-6e" transform="translate(142.96875 0)"/>
     <use xlink:href="#DejaVuSans-Oblique-65" transform="translate(206.347656 0)"/>
     <use xlink:href="#DejaVuSans-Oblique-72" transform="translate(267.871094 0)"/>
     <use xlink:href="#DejaVuSans-Oblique-3a" transform="translate(308.984375 0)"/>
     <use xlink:href="#DejaVuSans-Oblique-20" transform="translate(342.675781 0)"/>
     <use xlink:href="#DejaVuSans-Oblique-50" transform="translate(374.462891 0)"/>
     <use xlink:href="#DejaVuSans-Oblique-72" transform="translate(434.765625 0)"/>
     <use xlink:href="#DejaVuSans-Oblique-6f" transform="translate(475.878906 0)"/>
     <use xlink:href="#DejaVuSans-Oblique-64" transform="translate(537.060547 0)"/>
     <use xlink:href="#DejaVuSans-Oblique-75" transform="translate(600.537109 0)"/>
     <use xlink:href="#DejaVuSans-Oblique-63" transform="translate(663.916016 0)"/>
     <use xlink:href="#DejaVuSans-Oblique-74" transform="translate(718.896484 0)"/>
     <use xlink:href="#DejaVuSans-Oblique-20" transform="translate(758.105469 0)"/>
     <use xlink:href="#DejaVuSans-Oblique-2f" transform="translate(789.892578 0)"/>
     <use xlink:href="#DejaVuSans-Oblique-20" transform="translate(823.583984 0)"/>
     <use xlink:href="#DejaVuSans-Oblique-42" transform="translate(855.371094 0)"/>
     <use xlink:href="#DejaVuSans-Oblique-75" transform="translate(923.974609 0)"/>
     <use xlink:href="#DejaVuSans-Oblique-73" transform="translate(987.353516 0)"/>
     <use xlink:href="#DejaVuSans-Oblique-69" transform="translate(1039.453125 0)"/>
     <use xlink:href="#DejaVuSans-Oblique-6e" transform="translate(1067.236328 0)"/>
     <use xlink:href="#DejaVuSans-Oblique-65" transform="translate(1130.615234 0)"/>
     <use xlink:href="#DejaVuSans-Oblique-73" transform="translate(1192.138672 0)"/>
     <use xlink:href="#DejaVuSans-Oblique-73" transform="translate(1244.238281 0)"/>
    </g>
   </g>
   <g id="text_4">
    <!-- Model performance -->
    <g transform="translate(68.832 122.647725) scale(0.12 -0.12)">
     <defs>
      <path id="DejaVuSans-Bold-4d" d="M 588 4666 
L 2119 4666 
L 3181 2169 
L 4250 4666 
L 5778 4666 
L 5778 0 
L 4641 0 
L 4641 3413 
L 3566 897 
L 2803 897 
L 1728 3413 
L 1728 0 
L 588 0 
L 588 4666 
z
" transform="scale(0.015625)"/>
      <path id="DejaVuSans-Bold-6f" d="M 2203 2784 
Q 1831 2784 1636 2517 
Q 1441 2250 1441 1747 
Q 1441 1244 1636 976 
Q 1831 709 2203 709 
Q 2569 709 2762 976 
Q 2956 1244 2956 1747 
Q 2956 2250 2762 2517 
Q 2569 2784 2203 2784 
z
M 2203 3584 
Q 3106 3584 3614 3096 
Q 4122 2609 4122 1747 
Q 4122 884 3614 396 
Q 3106 -91 2203 -91 
Q 1297 -91 786 396 
Q 275 884 275 1747 
Q 275 2609 786 3096 
Q 1297 3584 2203 3584 
z
" transform="scale(0.015625)"/>
      <path id="DejaVuSans-Bold-64" d="M 2919 2988 
L 2919 4863 
L 4044 4863 
L 4044 0 
L 2919 0 
L 2919 506 
Q 2688 197 2409 53 
Q 2131 -91 1766 -91 
Q 1119 -91 703 423 
Q 288 938 288 1747 
Q 288 2556 703 3070 
Q 1119 3584 1766 3584 
Q 2128 3584 2408 3439 
Q 2688 3294 2919 2988 
z
M 2181 722 
Q 2541 722 2730 984 
Q 2919 1247 2919 1747 
Q 2919 2247 2730 2509 
Q 2541 2772 2181 2772 
Q 1825 2772 1636 2509 
Q 1447 2247 1447 1747 
Q 1447 1247 1636 984 
Q 1825 722 2181 722 
z
" transform="scale(0.015625)"/>
      <path id="DejaVuSans-Bold-6c" d="M 538 4863 
L 1656 4863 
L 1656 0 
L 538 0 
L 538 4863 
z
" transform="scale(0.015625)"/>
      <path id="DejaVuSans-Bold-70" d="M 1656 506 
L 1656 -1331 
L 538 -1331 
L 538 3500 
L 1656 3500 
L 1656 2988 
Q 1888 3294 2169 3439 
Q 2450 3584 2816 3584 
Q 3463 3584 3878 3070 
Q 4294 2556 4294 1747 
Q 4294 938 3878 423 
Q 3463 -91 2816 -91 
Q 2450 -91 2169 54 
Q 1888 200 1656 506 
z
M 2400 2772 
Q 2041 2772 1848 2508 
Q 1656 2244 1656 1747 
Q 1656 1250 1848 986 
Q 2041 722 2400 722 
Q 2759 722 2948 984 
Q 3138 1247 3138 1747 
Q 3138 2247 2948 2509 
Q 2759 2772 2400 2772 
z
" transform="scale(0.015625)"/>
      <path id="DejaVuSans-Bold-72" d="M 3138 2547 
Q 2991 2616 2845 2648 
Q 2700 2681 2553 2681 
Q 2122 2681 1889 2404 
Q 1656 2128 1656 1613 
L 1656 0 
L 538 0 
L 538 3500 
L 1656 3500 
L 1656 2925 
Q 1872 3269 2151 3426 
Q 2431 3584 2822 3584 
Q 2878 3584 2943 3579 
Q 3009 3575 3134 3559 
L 3138 2547 
z
" transform="scale(0.015625)"/>
      <path id="DejaVuSans-Bold-66" d="M 2841 4863 
L 2841 4128 
L 2222 4128 
Q 1984 4128 1890 4042 
Q 1797 3956 1797 3744 
L 1797 3500 
L 2753 3500 
L 2753 2700 
L 1797 2700 
L 1797 0 
L 678 0 
L 678 2700 
L 122 2700 
L 122 3500 
L 678 3500 
L 678 3744 
Q 678 4316 997 4589 
Q 1316 4863 1984 4863 
L 2841 4863 
z
" transform="scale(0.015625)"/>
      <path id="DejaVuSans-Bold-6d" d="M 3781 2919 
Q 3994 3244 4286 3414 
Q 4578 3584 4928 3584 
Q 5531 3584 5847 3212 
Q 6163 2841 6163 2131 
L 6163 0 
L 5038 0 
L 5038 1825 
Q 5041 1866 5042 1909 
Q 5044 1953 5044 2034 
Q 5044 2406 4934 2573 
Q 4825 2741 4581 2741 
Q 4263 2741 4089 2478 
Q 3916 2216 3909 1719 
L 3909 0 
L 2784 0 
L 2784 1825 
Q 2784 2406 2684 2573 
Q 2584 2741 2328 2741 
Q 2006 2741 1831 2477 
Q 1656 2213 1656 1722 
L 1656 0 
L 531 0 
L 531 3500 
L 1656 3500 
L 1656 2988 
Q 1863 3284 2130 3434 
Q 2397 3584 2719 3584 
Q 3081 3584 3359 3409 
Q 3638 3234 3781 2919 
z
" transform="scale(0.015625)"/>
      <path id="DejaVuSans-Bold-61" d="M 2106 1575 
Q 1756 1575 1579 1456 
Q 1403 1338 1403 1106 
Q 1403 894 1545 773 
Q 1688 653 1941 653 
Q 2256 653 2472 879 
Q 2688 1106 2688 1447 
L 2688 1575 
L 2106 1575 
z
M 3816 1997 
L 3816 0 
L 2688 0 
L 2688 519 
Q 2463 200 2181 54 
Q 1900 -91 1497 -91 
Q 953 -91 614 226 
Q 275 544 275 1050 
Q 275 1666 698 1953 
Q 1122 2241 2028 2241 
L 2688 2241 
L 2688 2328 
Q 2688 2594 2478 2717 
Q 2269 2841 1825 2841 
Q 1466 2841 1156 2769 
Q 847 2697 581 2553 
L 581 3406 
Q 941 3494 1303 3539 
Q 1666 3584 2028 3584 
Q 2975 3584 3395 3211 
Q 3816 2838 3816 1997 
z
" transform="scale(0.015625)"/>
      <path id="DejaVuSans-Bold-63" d="M 3366 3391 
L 3366 2478 
Q 3138 2634 2908 2709 
Q 2678 2784 2431 2784 
Q 1963 2784 1702 2511 
Q 1441 2238 1441 1747 
Q 1441 1256 1702 982 
Q 1963 709 2431 709 
Q 2694 709 2930 787 
Q 3166 866 3366 1019 
L 3366 103 
Q 3103 6 2833 -42 
Q 2563 -91 2291 -91 
Q 1344 -91 809 395 
Q 275 881 275 1747 
Q 275 2613 809 3098 
Q 1344 3584 2291 3584 
Q 2566 3584 2833 3536 
Q 3100 3488 3366 3391 
z
" transform="scale(0.015625)"/>
     </defs>
     <use xlink:href="#DejaVuSans-Bold-4d"/>
     <use xlink:href="#DejaVuSans-Bold-6f" transform="translate(99.511719 0)"/>
     <use xlink:href="#DejaVuSans-Bold-64" transform="translate(168.212891 0)"/>
     <use xlink:href="#DejaVuSans-Bold-65" transform="translate(239.794922 0)"/>
     <use xlink:href="#DejaVuSans-Bold-6c" transform="translate(307.617188 0)"/>
     <use xlink:href="#DejaVuSans-Bold-20" transform="translate(341.894531 0)"/>
     <use xlink:href="#DejaVuSans-Bold-70" transform="translate(376.708984 0)"/>
     <use xlink:href="#DejaVuSans-Bold-65" transform="translate(448.291016 0)"/>
     <use xlink:href="#DejaVuSans-Bold-72" transform="translate(516.113281 0)"/>
     <use xlink:href="#DejaVuSans-Bold-66" transform="translate(565.429688 0)"/>
     <use xlink:href="#DejaVuSans-Bold-6f" transform="translate(608.935547 0)"/>
     <use xlink:href="#DejaVuSans-Bold-72" transform="translate(677.636719 0)"/>
     <use xlink:href="#DejaVuSans-Bold-6d" transform="translate(726.953125 0)"/>
     <use xlink:href="#DejaVuSans-Bold-61" transform="translate(831.152344 0)"/>
     <use xlink:href="#DejaVuSans-Bold-6e" transform="translate(898.632812 0)"/>
     <use xlink:href="#DejaVuSans-Bold-63" transform="translate(969.824219 0)"/>
     <use xlink:href="#DejaVuSans-Bold-65" transform="translate(1029.101562 0)"/>
    </g>
   </g>
   <g id="text_5">
    <!-- accuracy / F1 / regression error -->
    <g transform="translate(68.832 140.563725) scale(0.1 -0.1)">
     <defs>
      <path id="DejaVuSans-61" d="M 2194 1759 
Q 1497 1759 1228 1600 
Q 959 1441 959 1056 
Q 959 750 1161 570 
Q 1363 391 1709 391 
Q 2188 391 2477 730 
Q 2766 1069 2766 1631 
L 2766 1759 
L 2194 1759 
z
M 3341 1997 
L 3341 0 
L 2766 0 
L 2766 531 
Q 2569 213 2275 61 
Q 1981 -91 1556 -91 
Q 1019 -91 701 211 
Q 384 513 384 1019 
Q 384 1609 779 1909 
Q 1175 2209 1959 2209 
L 2766 2209 
L 2766 2266 
Q 2766 2663 2505 2880 
Q 2244 3097 1772 3097 
Q 1472 3097 1187 3025 
Q 903 2953 641 2809 
L 641 3341 
Q 956 3463 1253 3523 
Q 1550 3584 1831 3584 
Q 2591 3584 2966 3190 
Q 3341 2797 3341 1997 
z
" transform="scale(0.015625)"/>
      <path id="DejaVuSans-79" d="M 2059 -325 
Q 1816 -950 1584 -1140 
Q 1353 -1331 966 -1331 
L 506 -1331 
L 506 -850 
L 844 -850 
Q 1081 -850 1212 -737 
Q 1344 -625 1503 -206 
L 1606 56 
L 191 3500 
L 800 3500 
L 1894 763 
L 2988 3500 
L 3597 3500 
L 2059 -325 
z
" transform="scale(0.015625)"/>
      <path id="DejaVuSans-46" d="M 628 4666 
L 3309 4666 
L 3309 4134 
L 1259 4134 
L 1259 2759 
L 3109 2759 
L 3109 2228 
L 1259 2228 
L 1259 0 
L 628 0 
L 628 4666 
z
" transform="scale(0.015625)"/>
      <path id="DejaVuSans-31" d="M 794 531 
L 1825 531 
L 1825 4091 
L 703 3866 
L 703 4441 
L 1819 4666 
L 2450 4666 
L 2450 531 
L 3481 531 
L 3481 0 
L 794 0 
L 794 531 
z
" transform="scale(0.015625)"/>
      <path id="DejaVuSans-67" d="M 2906 1791 
Q 2906 2416 2648 2759 
Q 2391 3103 1925 3103 
Q 1463 3103 1205 2759 
Q 947 2416 947 1791 
Q 947 1169 1205 825 
Q 1463 481 1925 481 
Q 2391 481 2648 825 
Q 2906 1169 2906 1791 
z
M 3481 434 
Q 3481 -459 3084 -895 
Q 2688 -1331 1869 -1331 
Q 1566 -1331 1297 -1286 
Q 1028 -1241 775 -1147 
L 775 -588 
Q 1028 -725 1275 -790 
Q 1522 -856 1778 -856 
Q 2344 -856 2625 -561 
Q 2906 -266 2906 331 
L 2906 616 
Q 2728 306 2450 153 
Q 2172 0 1784 0 
Q 1141 0 747 490 
Q 353 981 353 1791 
Q 353 2603 747 3093 
Q 1141 3584 1784 3584 
Q 2172 3584 2450 3431 
Q 2728 3278 2906 2969 
L 2906 3500 
L 3481 3500 
L 3481 434 
z
" transform="scale(0.015625)"/>
     </defs>
     <use xlink:href="#DejaVuSans-61"/>
     <use xlink:href="#DejaVuSans-63" transform="translate(61.279297 0)"/>
     <use xlink:href="#DejaVuSans-63" transform="translate(116.259766 0)"/>
     <use xlink:href="#DejaVuSans-75" transform="translate(171.240234 0)"/>
     <use xlink:href="#DejaVuSans-72" transform="translate(234.619141 0)"/>
     <use xlink:href="#DejaVuSans-61" transform="translate(275.732422 0)"/>
     <use xlink:href="#DejaVuSans-63" transform="translate(337.011719 0)"/>
     <use xlink:href="#DejaVuSans-79" transform="translate(391.992188 0)"/>
     <use xlink:href="#DejaVuSans-20" transform="translate(451.171875 0)"/>
     <use xlink:href="#DejaVuSans-2f" transform="translate(482.958984 0)"/>
     <use xlink:href="#DejaVuSans-20" transform="translate(516.650391 0)"/>
     <use xlink:href="#DejaVuSans-46" transform="translate(548.4375 0)"/>
     <use xlink:href="#DejaVuSans-31" transform="translate(605.957031 0)"/>
     <use xlink:href="#DejaVuSans-20" transform="translate(669.580078 0)"/>
     <use xlink:href="#DejaVuSans-2f" transform="translate(701.367188 0)"/>
     <use xlink:href="#DejaVuSans-20" transform="translate(735.058594 0)"/>
     <use xlink:href="#DejaVuSans-72" transform="translate(766.845703 0)"/>
     <use xlink:href="#DejaVuSans-65" transform="translate(805.708984 0)"/>
     <use xlink:href="#DejaVuSans-67" transform="translate(867.232422 0)"/>
     <use xlink:href="#DejaVuSans-72" transform="translate(930.708984 0)"/>
     <use xlink:href="#DejaVuSans-65" transform="translate(969.572266 0)"/>
     <use xlink:href="#DejaVuSans-73" transform="translate(1031.095703 0)"/>
     <use xlink:href="#DejaVuSans-73" transform="translate(1083.195312 0)"/>
     <use xlink:href="#DejaVuSans-69" transform="translate(1135.294922 0)"/>
     <use xlink:href="#DejaVuSans-6f" transform="translate(1163.078125 0)"/>
     <use xlink:href="#DejaVuSans-6e" transform="translate(1224.259766 0)"/>
     <use xlink:href="#DejaVuSans-20" transform="translate(1287.638672 0)"/>
     <use xlink:href="#DejaVuSans-65" transform="translate(1319.425781 0)"/>
     <use xlink:href="#DejaVuSans-72" transform="translate(1380.949219 0)"/>
     <use xlink:href="#DejaVuSans-72" transform="translate(1420.3125 0)"/>
     <use xlink:href="#DejaVuSans-6f" transform="translate(1459.175781 0)"/>
     <use xlink:href="#DejaVuSans-72" transform="translate(1520.357422 0)"/>
    </g>
   </g>
   <g id="text_6">
    <!-- owner: ML Engineer -->
    <g transform="translate(639.719062 133.397325) scale(0.1 -0.1)">
     <defs>
      <path id="DejaVuSans-Oblique-4d" d="M 1081 4666 
L 2028 4666 
L 2572 1522 
L 4378 4666 
L 5350 4666 
L 4441 0 
L 3828 0 
L 4622 4091 
L 2791 897 
L 2175 897 
L 1581 4103 
L 788 0 
L 172 0 
L 1081 4666 
z
" transform="scale(0.015625)"/>
      <path id="DejaVuSans-Oblique-4c" d="M 1075 4666 
L 1709 4666 
L 909 525 
L 3181 525 
L 3078 0 
L 172 0 
L 1075 4666 
z
" transform="scale(0.015625)"/>
      <path id="DejaVuSans-Oblique-45" d="M 1081 4666 
L 4031 4666 
L 3928 4134 
L 1606 4134 
L 1338 2753 
L 3566 2753 
L 3463 2222 
L 1234 2222 
L 909 531 
L 3284 531 
L 3181 0 
L 172 0 
L 1081 4666 
z
" transform="scale(0.015625)"/>
      <path id="DejaVuSans-Oblique-67" d="M 3816 3500 
L 3219 434 
Q 3047 -456 2561 -893 
Q 2075 -1331 1253 -1331 
Q 950 -1331 690 -1286 
Q 431 -1241 206 -1147 
L 313 -588 
Q 525 -725 762 -790 
Q 1000 -856 1269 -856 
Q 1816 -856 2167 -557 
Q 2519 -259 2631 300 
L 2681 563 
Q 2441 288 2122 144 
Q 1803 0 1434 0 
Q 903 0 598 351 
Q 294 703 294 1319 
Q 294 1803 478 2267 
Q 663 2731 997 3091 
Q 1219 3328 1514 3456 
Q 1809 3584 2131 3584 
Q 2484 3584 2746 3420 
Q 3009 3256 3138 2956 
L 3238 3500 
L 3816 3500 
z
M 2950 2216 
Q 2950 2641 2750 2872 
Q 2550 3103 2181 3103 
Q 1953 3103 1747 3012 
Q 1541 2922 1394 2759 
Q 1156 2491 1023 2127 
Q 891 1763 891 1375 
Q 891 944 1092 712 
Q 1294 481 1672 481 
Q 2219 481 2584 976 
Q 2950 1472 2950 2216 
z
" transform="scale(0.015625)"/>
     </defs>
     <use xlink:href="#DejaVuSans-Oblique-6f"/>
     <use xlink:href="#DejaVuSans-Oblique-77" transform="translate(61.181641 0)"/>
     <use xlink:href="#DejaVuSans-Oblique-6e" transform="translate(142.96875 0)"/>
     <use xlink:href="#DejaVuSans-Oblique-65" transform="translate(206.347656 0)"/>
     <use xlink:href="#DejaVuSans-Oblique-72" transform="translate(267.871094 0)"/>
     <use xlink:href="#DejaVuSans-Oblique-3a" transform="translate(308.984375 0)"/>
     <use xlink:href="#DejaVuSans-Oblique-20" transform="translate(342.675781 0)"/>
     <use xlink:href="#DejaVuSans-Oblique-4d" transform="translate(374.462891 0)"/>
     <use xlink:href="#DejaVuSans-Oblique-4c" transform="translate(460.742188 0)"/>
     <use xlink:href="#DejaVuSans-Oblique-20" transform="translate(516.455078 0)"/>
     <use xlink:href="#DejaVuSans-Oblique-45" transform="translate(548.242188 0)"/>
     <use xlink:href="#DejaVuSans-Oblique-6e" transform="translate(611.425781 0)"/>
     <use xlink:href="#DejaVuSans-Oblique-67" transform="translate(674.804688 0)"/>
     <use xlink:href="#DejaVuSans-Oblique-69" transform="translate(738.28125 0)"/>
     <use xlink:href="#DejaVuSans-Oblique-6e" transform="translate(766.064453 0)"/>
     <use xlink:href="#DejaVuSans-Oblique-65" transform="translate(829.443359 0)"/>
     <use xlink:href="#DejaVuSans-Oblique-65" transform="translate(890.966797 0)"/>
     <use xlink:href="#DejaVuSans-Oblique-72" transform="translate(952.490234 0)"/>
    </g>
   </g>
   <g id="text_7">
    <!-- Data quality -->
    <g transform="translate(68.832 201.478125) scale(0.12 -0.12)">
     <defs>
      <path id="DejaVuSans-Bold-44" d="M 1791 3756 
L 1791 909 
L 2222 909 
Q 2959 909 3348 1275 
Q 3738 1641 3738 2338 
Q 3738 3031 3350 3393 
Q 2963 3756 2222 3756 
L 1791 3756 
z
M 588 4666 
L 1856 4666 
Q 2919 4666 3439 4514 
Q 3959 4363 4331 4000 
Q 4659 3684 4818 3271 
Q 4978 2859 4978 2338 
Q 4978 1809 4818 1395 
Q 4659 981 4331 666 
Q 3956 303 3431 151 
Q 2906 0 1856 0 
L 588 0 
L 588 4666 
z
" transform="scale(0.015625)"/>
      <path id="DejaVuSans-Bold-74" d="M 1759 4494 
L 1759 3500 
L 2913 3500 
L 2913 2700 
L 1759 2700 
L 1759 1216 
Q 1759 972 1856 886 
Q 1953 800 2241 800 
L 2816 800 
L 2816 0 
L 1856 0 
Q 1194 0 917 276 
Q 641 553 641 1216 
L 641 2700 
L 84 2700 
L 84 3500 
L 641 3500 
L 641 4494 
L 1759 4494 
z
" transform="scale(0.015625)"/>
      <path id="DejaVuSans-Bold-71" d="M 2181 2772 
Q 1825 2772 1636 2509 
Q 1447 2247 1447 1747 
Q 1447 1247 1636 984 
Q 1825 722 2181 722 
Q 2541 722 2730 984 
Q 2919 1247 2919 1747 
Q 2919 2247 2730 2509 
Q 2541 2772 2181 2772 
z
M 2919 506 
Q 2688 197 2409 53 
Q 2131 -91 1766 -91 
Q 1119 -91 703 423 
Q 288 938 288 1747 
Q 288 2556 703 3067 
Q 1119 3578 1766 3578 
Q 2131 3578 2409 3434 
Q 2688 3291 2919 2981 
L 2919 3500 
L 4044 3500 
L 4044 -1331 
L 2919 -1331 
L 2919 506 
z
" transform="scale(0.015625)"/>
      <path id="DejaVuSans-Bold-79" d="M 78 3500 
L 1197 3500 
L 2138 1125 
L 2938 3500 
L 4056 3500 
L 2584 -331 
Q 2363 -916 2067 -1148 
Q 1772 -1381 1288 -1381 
L 641 -1381 
L 641 -647 
L 991 -647 
Q 1275 -647 1404 -556 
Q 1534 -466 1606 -231 
L 1638 -134 
L 78 3500 
z
" transform="scale(0.015625)"/>
     </defs>
     <use xlink:href="#DejaVuSans-Bold-44"/>
     <use xlink:href="#DejaVuSans-Bold-61" transform="translate(83.007812 0)"/>
     <use xlink:href="#DejaVuSans-Bold-74" transform="translate(150.488281 0)"/>
     <use xlink:href="#DejaVuSans-Bold-61" transform="translate(198.291016 0)"/>
     <use xlink:href="#DejaVuSans-Bold-20" transform="translate(265.771484 0)"/>
     <use xlink:href="#DejaVuSans-Bold-71" transform="translate(300.585938 0)"/>
     <use xlink:href="#DejaVuSans-Bold-75" transform="translate(372.167969 0)"/>
     <use xlink:href="#DejaVuSans-Bold-61" transform="translate(443.359375 0)"/>
     <use xlink:href="#DejaVuSans-Bold-6c" transform="translate(510.839844 0)"/>
     <use xlink:href="#DejaVuSans-Bold-69" transform="translate(545.117188 0)"/>
     <use xlink:href="#DejaVuSans-Bold-74" transform="translate(579.394531 0)"/>
     <use xlink:href="#DejaVuSans-Bold-79" transform="translate(627.197266 0)"/>
    </g>
   </g>
   <g id="text_8">
    <!-- schema / range / drift / null rate -->
    <g transform="translate(68.832 219.394125) scale(0.1 -0.1)">
     <defs>
      <path id="DejaVuSans-68" d="M 3513 2113 
L 3513 0 
L 2938 0 
L 2938 2094 
Q 2938 2591 2744 2837 
Q 2550 3084 2163 3084 
Q 1697 3084 1428 2787 
Q 1159 2491 1159 1978 
L 1159 0 
L 581 0 
L 581 4863 
L 1159 4863 
L 1159 2956 
Q 1366 3272 1645 3428 
Q 1925 3584 2291 3584 
Q 2894 3584 3203 3211 
Q 3513 2838 3513 2113 
z
" transform="scale(0.015625)"/>
      <path id="DejaVuSans-6d" d="M 3328 2828 
Q 3544 3216 3844 3400 
Q 4144 3584 4550 3584 
Q 5097 3584 5394 3201 
Q 5691 2819 5691 2113 
L 5691 0 
L 5113 0 
L 5113 2094 
Q 5113 2597 4934 2840 
Q 4756 3084 4391 3084 
Q 3944 3084 3684 2787 
Q 3425 2491 3425 1978 
L 3425 0 
L 2847 0 
L 2847 2094 
Q 2847 2600 2669 2842 
Q 2491 3084 2119 3084 
Q 1678 3084 1418 2786 
Q 1159 2488 1159 1978 
L 1159 0 
L 581 0 
L 581 3500 
L 1159 3500 
L 1159 2956 
Q 1356 3278 1631 3431 
Q 1906 3584 2284 3584 
Q 2666 3584 2933 3390 
Q 3200 3197 3328 2828 
z
" transform="scale(0.015625)"/>
      <path id="DejaVuSans-64" d="M 2906 2969 
L 2906 4863 
L 3481 4863 
L 3481 0 
L 2906 0 
L 2906 525 
Q 2725 213 2448 61 
Q 2172 -91 1784 -91 
Q 1150 -91 751 415 
Q 353 922 353 1747 
Q 353 2572 751 3078 
Q 1150 3584 1784 3584 
Q 2172 3584 2448 3432 
Q 2725 3281 2906 2969 
z
M 947 1747 
Q 947 1113 1208 752 
Q 1469 391 1925 391 
Q 2381 391 2643 752 
Q 2906 1113 2906 1747 
Q 2906 2381 2643 2742 
Q 2381 3103 1925 3103 
Q 1469 3103 1208 2742 
Q 947 2381 947 1747 
z
" transform="scale(0.015625)"/>
      <path id="DejaVuSans-66" d="M 2375 4863 
L 2375 4384 
L 1825 4384 
Q 1516 4384 1395 4259 
Q 1275 4134 1275 3809 
L 1275 3500 
L 2222 3500 
L 2222 3053 
L 1275 3053 
L 1275 0 
L 697 0 
L 697 3053 
L 147 3053 
L 147 3500 
L 697 3500 
L 697 3744 
Q 697 4328 969 4595 
Q 1241 4863 1831 4863 
L 2375 4863 
z
" transform="scale(0.015625)"/>
      <path id="DejaVuSans-74" d="M 1172 4494 
L 1172 3500 
L 2356 3500 
L 2356 3053 
L 1172 3053 
L 1172 1153 
Q 1172 725 1289 603 
Q 1406 481 1766 481 
L 2356 481 
L 2356 0 
L 1766 0 
Q 1100 0 847 248 
Q 594 497 594 1153 
L 594 3053 
L 172 3053 
L 172 3500 
L 594 3500 
L 594 4494 
L 1172 4494 
z
" transform="scale(0.015625)"/>
      <path id="DejaVuSans-6c" d="M 603 4863 
L 1178 4863 
L 1178 0 
L 603 0 
L 603 4863 
z
" transform="scale(0.015625)"/>
     </defs>
     <use xlink:href="#DejaVuSans-73"/>
     <use xlink:href="#DejaVuSans-63" transform="translate(52.099609 0)"/>
     <use xlink:href="#DejaVuSans-68" transform="translate(107.080078 0)"/>
     <use xlink:href="#DejaVuSans-65" transform="translate(170.458984 0)"/>
     <use xlink:href="#DejaVuSans-6d" transform="translate(231.982422 0)"/>
     <use xlink:href="#DejaVuSans-61" transform="translate(329.394531 0)"/>
     <use xlink:href="#DejaVuSans-20" transform="translate(390.673828 0)"/>
     <use xlink:href="#DejaVuSans-2f" transform="translate(422.460938 0)"/>
     <use xlink:href="#DejaVuSans-20" transform="translate(456.152344 0)"/>
     <use xlink:href="#DejaVuSans-72" transform="translate(487.939453 0)"/>
     <use xlink:href="#DejaVuSans-61" transform="translate(529.052734 0)"/>
     <use xlink:href="#DejaVuSans-6e" transform="translate(590.332031 0)"/>
     <use xlink:href="#DejaVuSans-67" transform="translate(653.710938 0)"/>
     <use xlink:href="#DejaVuSans-65" transform="translate(717.1875 0)"/>
     <use xlink:href="#DejaVuSans-20" transform="translate(778.710938 0)"/>
     <use xlink:href="#DejaVuSans-2f" transform="translate(810.498047 0)"/>
     <use xlink:href="#DejaVuSans-20" transform="translate(844.189453 0)"/>
     <use xlink:href="#DejaVuSans-64" transform="translate(875.976562 0)"/>
     <use xlink:href="#DejaVuSans-72" transform="translate(939.453125 0)"/>
     <use xlink:href="#DejaVuSans-69" transform="translate(980.566406 0)"/>
     <use xlink:href="#DejaVuSans-66" transform="translate(1008.349609 0)"/>
     <use xlink:href="#DejaVuSans-74" transform="translate(1041.804688 0)"/>
     <use xlink:href="#DejaVuSans-20" transform="translate(1081.013672 0)"/>
     <use xlink:href="#DejaVuSans-2f" transform="translate(1112.800781 0)"/>
     <use xlink:href="#DejaVuSans-20" transform="translate(1146.492188 0)"/>
     <use xlink:href="#DejaVuSans-6e" transform="translate(1178.279297 0)"/>
     <use xlink:href="#DejaVuSans-75" transform="translate(1241.658203 0)"/>
     <use xlink:href="#DejaVuSans-6c" transform="translate(1305.037109 0)"/>
     <use xlink:href="#DejaVuSans-6c" transform="translate(1332.820312 0)"/>
     <use xlink:href="#DejaVuSans-20" transform="translate(1360.603516 0)"/>
     <use xlink:href="#DejaVuSans-72" transform="translate(1392.390625 0)"/>
     <use xlink:href="#DejaVuSans-61" transform="translate(1433.503906 0)"/>
     <use xlink:href="#DejaVuSans-74" transform="translate(1494.783203 0)"/>
     <use xlink:href="#DejaVuSans-65" transform="translate(1533.992188 0)"/>
    </g>
   </g>
   <g id="text_9">
    <!-- owner: Data Engineer -->
    <g transform="translate(630.0425 212.227725) scale(0.1 -0.1)">
     <defs>
      <path id="DejaVuSans-Oblique-44" d="M 1081 4666 
L 2438 4666 
Q 3519 4666 4070 4208 
Q 4622 3750 4622 2847 
Q 4622 2250 4412 1698 
Q 4203 1147 3834 769 
Q 3463 381 2891 190 
Q 2319 0 1538 0 
L 172 0 
L 1081 4666 
z
M 1613 4147 
L 909 519 
L 1734 519 
Q 2794 519 3375 1128 
Q 3956 1738 3956 2847 
Q 3956 3519 3581 3833 
Q 3206 4147 2406 4147 
L 1613 4147 
z
" transform="scale(0.015625)"/>
      <path id="DejaVuSans-Oblique-61" d="M 3438 1997 
L 3047 0 
L 2472 0 
L 2578 531 
Q 2325 219 2001 64 
Q 1678 -91 1281 -91 
Q 834 -91 548 182 
Q 263 456 263 884 
Q 263 1497 752 1853 
Q 1241 2209 2100 2209 
L 2900 2209 
L 2931 2363 
Q 2938 2388 2941 2417 
Q 2944 2447 2944 2509 
Q 2944 2788 2717 2942 
Q 2491 3097 2081 3097 
Q 1800 3097 1504 3025 
Q 1209 2953 897 2809 
L 997 3341 
Q 1322 3463 1633 3523 
Q 1944 3584 2234 3584 
Q 2853 3584 3176 3315 
Q 3500 3047 3500 2534 
Q 3500 2431 3484 2292 
Q 3469 2153 3438 1997 
z
M 2816 1759 
L 2241 1759 
Q 1534 1759 1195 1570 
Q 856 1381 856 984 
Q 856 709 1029 553 
Q 1203 397 1509 397 
Q 1978 397 2328 733 
Q 2678 1069 2791 1631 
L 2816 1759 
z
" transform="scale(0.015625)"/>
     </defs>
     <use xlink:href="#DejaVuSans-Oblique-6f"/>
     <use xlink:href="#DejaVuSans-Oblique-77" transform="translate(61.181641 0)"/>
     <use xlink:href="#DejaVuSans-Oblique-6e" transform="translate(142.96875 0)"/>
     <use xlink:href="#DejaVuSans-Oblique-65" transform="translate(206.347656 0)"/>
     <use xlink:href="#DejaVuSans-Oblique-72" transform="translate(267.871094 0)"/>
     <use xlink:href="#DejaVuSans-Oblique-3a" transform="translate(308.984375 0)"/>
     <use xlink:href="#DejaVuSans-Oblique-20" transform="translate(342.675781 0)"/>
     <use xlink:href="#DejaVuSans-Oblique-44" transform="translate(374.462891 0)"/>
     <use xlink:href="#DejaVuSans-Oblique-61" transform="translate(451.464844 0)"/>
     <use xlink:href="#DejaVuSans-Oblique-74" transform="translate(512.744141 0)"/>
     <use xlink:href="#DejaVuSans-Oblique-61" transform="translate(551.953125 0)"/>
     <use xlink:href="#DejaVuSans-Oblique-20" transform="translate(613.232422 0)"/>
     <use xlink:href="#DejaVuSans-Oblique-45" transform="translate(645.019531 0)"/>
     <use xlink:href="#DejaVuSans-Oblique-6e" transform="translate(708.203125 0)"/>
     <use xlink:href="#DejaVuSans-Oblique-67" transform="translate(771.582031 0)"/>
     <use xlink:href="#DejaVuSans-Oblique-69" transform="translate(835.058594 0)"/>
     <use xlink:href="#DejaVuSans-Oblique-6e" transform="translate(862.841797 0)"/>
     <use xlink:href="#DejaVuSans-Oblique-65" transform="translate(926.220703 0)"/>
     <use xlink:href="#DejaVuSans-Oblique-65" transform="translate(987.744141 0)"/>
     <use xlink:href="#DejaVuSans-Oblique-72" transform="translate(1049.267578 0)"/>
    </g>
   </g>
   <g id="text_10">
    <!-- Infrastructure -->
    <g transform="translate(68.832 280.308525) scale(0.12 -0.12)">
     <use xlink:href="#DejaVuSans-Bold-49"/>
     <use xlink:href="#DejaVuSans-Bold-6e" transform="translate(37.207031 0)"/>
     <use xlink:href="#DejaVuSans-Bold-66" transform="translate(108.398438 0)"/>
     <use xlink:href="#DejaVuSans-Bold-72" transform="translate(151.904297 0)"/>
     <use xlink:href="#DejaVuSans-Bold-61" transform="translate(201.220703 0)"/>
     <use xlink:href="#DejaVuSans-Bold-73" transform="translate(268.701172 0)"/>
     <use xlink:href="#DejaVuSans-Bold-74" transform="translate(328.222656 0)"/>
     <use xlink:href="#DejaVuSans-Bold-72" transform="translate(376.025391 0)"/>
     <use xlink:href="#DejaVuSans-Bold-75" transform="translate(425.341797 0)"/>
     <use xlink:href="#DejaVuSans-Bold-63" transform="translate(496.533203 0)"/>
     <use xlink:href="#DejaVuSans-Bold-74" transform="translate(555.810547 0)"/>
     <use xlink:href="#DejaVuSans-Bold-75" transform="translate(603.613281 0)"/>
     <use xlink:href="#DejaVuSans-Bold-72" transform="translate(674.804688 0)"/>
     <use xlink:href="#DejaVuSans-Bold-65" transform="translate(724.121094 0)"/>
    </g>
   </g>
   <g id="text_11">
    <!-- latency / error rate / CPU / memory -->
    <g transform="translate(68.832 298.224525) scale(0.1 -0.1)">
     <defs>
      <path id="DejaVuSans-43" d="M 4122 4306 
L 4122 3641 
Q 3803 3938 3442 4084 
Q 3081 4231 2675 4231 
Q 1875 4231 1450 3742 
Q 1025 3253 1025 2328 
Q 1025 1406 1450 917 
Q 1875 428 2675 428 
Q 3081 428 3442 575 
Q 3803 722 4122 1019 
L 4122 359 
Q 3791 134 3420 21 
Q 3050 -91 2638 -91 
Q 1578 -91 968 557 
Q 359 1206 359 2328 
Q 359 3453 968 4101 
Q 1578 4750 2638 4750 
Q 3056 4750 3426 4639 
Q 3797 4528 4122 4306 
z
" transform="scale(0.015625)"/>
      <path id="DejaVuSans-55" d="M 556 4666 
L 1191 4666 
L 1191 1831 
Q 1191 1081 1462 751 
Q 1734 422 2344 422 
Q 2950 422 3222 751 
Q 3494 1081 3494 1831 
L 3494 4666 
L 4128 4666 
L 4128 1753 
Q 4128 841 3676 375 
Q 3225 -91 2344 -91 
Q 1459 -91 1007 375 
Q 556 841 556 1753 
L 556 4666 
z
" transform="scale(0.015625)"/>
     </defs>
     <use xlink:href="#DejaVuSans-6c"/>
     <use xlink:href="#DejaVuSans-61" transform="translate(27.783203 0)"/>
     <use xlink:href="#DejaVuSans-74" transform="translate(89.0625 0)"/>
     <use xlink:href="#DejaVuSans-65" transform="translate(128.271484 0)"/>
     <use xlink:href="#DejaVuSans-6e" transform="translate(189.794922 0)"/>
     <use xlink:href="#DejaVuSans-63" transform="translate(253.173828 0)"/>
     <use xlink:href="#DejaVuSans-79" transform="translate(308.154297 0)"/>
     <use xlink:href="#DejaVuSans-20" transform="translate(367.333984 0)"/>
     <use xlink:href="#DejaVuSans-2f" transform="translate(399.121094 0)"/>
     <use xlink:href="#DejaVuSans-20" transform="translate(432.8125 0)"/>
     <use xlink:href="#DejaVuSans-65" transform="translate(464.599609 0)"/>
     <use xlink:href="#DejaVuSans-72" transform="translate(526.123047 0)"/>
     <use xlink:href="#DejaVuSans-72" transform="translate(565.486328 0)"/>
     <use xlink:href="#DejaVuSans-6f" transform="translate(604.349609 0)"/>
     <use xlink:href="#DejaVuSans-72" transform="translate(665.53125 0)"/>
     <use xlink:href="#DejaVuSans-20" transform="translate(706.644531 0)"/>
     <use xlink:href="#DejaVuSans-72" transform="translate(738.431641 0)"/>
     <use xlink:href="#DejaVuSans-61" transform="translate(779.544922 0)"/>
     <use xlink:href="#DejaVuSans-74" transform="translate(840.824219 0)"/>
     <use xlink:href="#DejaVuSans-65" transform="translate(880.033203 0)"/>
     <use xlink:href="#DejaVuSans-20" transform="translate(941.556641 0)"/>
     <use xlink:href="#DejaVuSans-2f" transform="translate(973.34375 0)"/>
     <use xlink:href="#DejaVuSans-20" transform="translate(1007.035156 0)"/>
     <use xlink:href="#DejaVuSans-43" transform="translate(1038.822266 0)"/>
     <use xlink:href="#DejaVuSans-50" transform="translate(1108.646484 0)"/>
     <use xlink:href="#DejaVuSans-55" transform="translate(1168.949219 0)"/>
     <use xlink:href="#DejaVuSans-20" transform="translate(1242.142578 0)"/>
     <use xlink:href="#DejaVuSans-2f" transform="translate(1273.929688 0)"/>
     <use xlink:href="#DejaVuSans-20" transform="translate(1307.621094 0)"/>
     <use xlink:href="#DejaVuSans-6d" transform="translate(1339.408203 0)"/>
     <use xlink:href="#DejaVuSans-65" transform="translate(1436.820312 0)"/>
     <use xlink:href="#DejaVuSans-6d" transform="translate(1498.34375 0)"/>
     <use xlink:href="#DejaVuSans-6f" transform="translate(1595.755859 0)"/>
     <use xlink:href="#DejaVuSans-72" transform="translate(1656.9375 0)"/>
     <use xlink:href="#DejaVuSans-79" transform="translate(1698.050781 0)"/>
    </g>
   </g>
   <g id="text_12">
    <!-- owner: SRE / DevOps -->
    <g transform="translate(633.0925 291.058125) scale(0.1 -0.1)">
     <defs>
      <path id="DejaVuSans-Oblique-53" d="M 3859 4513 
L 3738 3897 
Q 3422 4066 3111 4152 
Q 2800 4238 2509 4238 
Q 1944 4238 1609 3991 
Q 1275 3744 1275 3334 
Q 1275 3109 1398 2989 
Q 1522 2869 2034 2731 
L 2413 2638 
Q 3053 2472 3303 2217 
Q 3553 1963 3553 1503 
Q 3553 797 2998 353 
Q 2444 -91 1538 -91 
Q 1166 -91 791 -17 
Q 416 56 38 206 
L 166 856 
Q 513 641 861 531 
Q 1209 422 1556 422 
Q 2147 422 2503 684 
Q 2859 947 2859 1369 
Q 2859 1650 2717 1795 
Q 2575 1941 2106 2059 
L 1728 2156 
Q 1081 2325 845 2545 
Q 609 2766 609 3163 
Q 609 3859 1145 4304 
Q 1681 4750 2541 4750 
Q 2875 4750 3203 4690 
Q 3531 4631 3859 4513 
z
" transform="scale(0.015625)"/>
      <path id="DejaVuSans-Oblique-52" d="M 1613 4147 
L 1294 2491 
L 2106 2491 
Q 2584 2491 2879 2755 
Q 3175 3019 3175 3444 
Q 3175 3784 2976 3965 
Q 2778 4147 2406 4147 
L 1613 4147 
z
M 2772 2241 
Q 2972 2194 3105 2009 
Q 3238 1825 3413 1275 
L 3809 0 
L 3144 0 
L 2778 1197 
Q 2638 1659 2453 1815 
Q 2269 1972 1888 1972 
L 1191 1972 
L 806 0 
L 172 0 
L 1081 4666 
L 2503 4666 
Q 3150 4666 3495 4373 
Q 3841 4081 3841 3531 
Q 3841 3044 3547 2687 
Q 3253 2331 2772 2241 
z
" transform="scale(0.015625)"/>
      <path id="DejaVuSans-Oblique-76" d="M 459 3500 
L 1069 3500 
L 1581 525 
L 3256 3500 
L 3866 3500 
L 1875 0 
L 1100 0 
L 459 3500 
z
" transform="scale(0.015625)"/>
      <path id="DejaVuSans-Oblique-4f" d="M 2919 4238 
Q 2400 4238 2003 3986 
Q 1606 3734 1313 3219 
Q 1125 2891 1026 2522 
Q 928 2153 928 1778 
Q 928 1128 1239 775 
Q 1550 422 2119 422 
Q 2631 422 3032 676 
Q 3434 931 3719 1434 
Q 3909 1772 4009 2142 
Q 4109 2513 4109 2881 
Q 4109 3528 3796 3883 
Q 3484 4238 2919 4238 
z
M 2100 -91 
Q 1241 -91 748 418 
Q 256 928 256 1813 
Q 256 2319 448 2847 
Q 641 3375 978 3788 
Q 1375 4272 1862 4511 
Q 2350 4750 2938 4750 
Q 3794 4750 4287 4245 
Q 4781 3741 4781 2869 
Q 4781 2331 4593 1812 
Q 4406 1294 4056 872 
Q 3656 384 3173 146 
Q 2691 -91 2100 -91 
z
" transform="scale(0.015625)"/>
      <path id="DejaVuSans-Oblique-70" d="M 3175 2156 
Q 3175 2616 2975 2859 
Q 2775 3103 2400 3103 
Q 2144 3103 1911 2972 
Q 1678 2841 1497 2591 
Q 1319 2344 1212 1994 
Q 1106 1644 1106 1300 
Q 1106 863 1306 627 
Q 1506 391 1875 391 
Q 2147 391 2380 519 
Q 2613 647 2778 891 
Q 2956 1147 3065 1494 
Q 3175 1841 3175 2156 
z
M 1394 2969 
Q 1625 3272 1939 3428 
Q 2253 3584 2638 3584 
Q 3175 3584 3472 3232 
Q 3769 2881 3769 2247 
Q 3769 1728 3584 1258 
Q 3400 788 3053 416 
Q 2822 169 2531 39 
Q 2241 -91 1919 -91 
Q 1547 -91 1294 64 
Q 1041 219 916 525 
L 556 -1331 
L -19 -1331 
L 922 3500 
L 1497 3500 
L 1394 2969 
z
" transform="scale(0.015625)"/>
     </defs>
     <use xlink:href="#DejaVuSans-Oblique-6f"/>
     <use xlink:href="#DejaVuSans-Oblique-77" transform="translate(61.181641 0)"/>
     <use xlink:href="#DejaVuSans-Oblique-6e" transform="translate(142.96875 0)"/>
     <use xlink:href="#DejaVuSans-Oblique-65" transform="translate(206.347656 0)"/>
     <use xlink:href="#DejaVuSans-Oblique-72" transform="translate(267.871094 0)"/>
     <use xlink:href="#DejaVuSans-Oblique-3a" transform="translate(308.984375 0)"/>
     <use xlink:href="#DejaVuSans-Oblique-20" transform="translate(342.675781 0)"/>
     <use xlink:href="#DejaVuSans-Oblique-53" transform="translate(374.462891 0)"/>
     <use xlink:href="#DejaVuSans-Oblique-52" transform="translate(437.939453 0)"/>
     <use xlink:href="#DejaVuSans-Oblique-45" transform="translate(507.421875 0)"/>
     <use xlink:href="#DejaVuSans-Oblique-20" transform="translate(570.605469 0)"/>
     <use xlink:href="#DejaVuSans-Oblique-2f" transform="translate(602.392578 0)"/>
     <use xlink:href="#DejaVuSans-Oblique-20" transform="translate(636.083984 0)"/>
     <use xlink:href="#DejaVuSans-Oblique-44" transform="translate(667.871094 0)"/>
     <use xlink:href="#DejaVuSans-Oblique-65" transform="translate(744.873047 0)"/>
     <use xlink:href="#DejaVuSans-Oblique-76" transform="translate(806.396484 0)"/>
     <use xlink:href="#DejaVuSans-Oblique-4f" transform="translate(865.576172 0)"/>
     <use xlink:href="#DejaVuSans-Oblique-70" transform="translate(944.287109 0)"/>
     <use xlink:href="#DejaVuSans-Oblique-73" transform="translate(1007.763672 0)"/>
    </g>
   </g>
   <g id="text_13">
    <!-- 4 layers of monitoring: each needs its own SLO and owner -->
    <g transform="translate(217.174687 16.318125) scale(0.12 -0.12)">
     <defs>
      <path id="DejaVuSans-34" d="M 2419 4116 
L 825 1625 
L 2419 1625 
L 2419 4116 
z
M 2253 4666 
L 3047 4666 
L 3047 1625 
L 3713 1625 
L 3713 1100 
L 3047 1100 
L 3047 0 
L 2419 0 
L 2419 1100 
L 313 1100 
L 313 1709 
L 2253 4666 
z
" transform="scale(0.015625)"/>
      <path id="DejaVuSans-3a" d="M 750 794 
L 1409 794 
L 1409 0 
L 750 0 
L 750 794 
z
M 750 3309 
L 1409 3309 
L 1409 2516 
L 750 2516 
L 750 3309 
z
" transform="scale(0.015625)"/>
      <path id="DejaVuSans-77" d="M 269 3500 
L 844 3500 
L 1563 769 
L 2278 3500 
L 2956 3500 
L 3675 769 
L 4391 3500 
L 4966 3500 
L 4050 0 
L 3372 0 
L 2619 2869 
L 1863 0 
L 1184 0 
L 269 3500 
z
" transform="scale(0.015625)"/>
      <path id="DejaVuSans-4c" d="M 628 4666 
L 1259 4666 
L 1259 531 
L 3531 531 
L 3531 0 
L 628 0 
L 628 4666 
z
" transform="scale(0.015625)"/>
      <path id="DejaVuSans-4f" d="M 2522 4238 
Q 1834 4238 1429 3725 
Q 1025 3213 1025 2328 
Q 1025 1447 1429 934 
Q 1834 422 2522 422 
Q 3209 422 3611 934 
Q 4013 1447 4013 2328 
Q 4013 3213 3611 3725 
Q 3209 4238 2522 4238 
z
M 2522 4750 
Q 3503 4750 4090 4092 
Q 4678 3434 4678 2328 
Q 4678 1225 4090 567 
Q 3503 -91 2522 -91 
Q 1538 -91 948 565 
Q 359 1222 359 2328 
Q 359 3434 948 4092 
Q 1538 4750 2522 4750 
z
" transform="scale(0.015625)"/>
     </defs>
     <use xlink:href="#DejaVuSans-34"/>
     <use xlink:href="#DejaVuSans-20" transform="translate(63.623047 0)"/>
     <use xlink:href="#DejaVuSans-6c" transform="translate(95.410156 0)"/>
     <use xlink:href="#DejaVuSans-61" transform="translate(123.193359 0)"/>
     <use xlink:href="#DejaVuSans-79" transform="translate(184.472656 0)"/>
     <use xlink:href="#DejaVuSans-65" transform="translate(243.652344 0)"/>
     <use xlink:href="#DejaVuSans-72" transform="translate(305.175781 0)"/>
     <use xlink:href="#DejaVuSans-73" transform="translate(346.289062 0)"/>
     <use xlink:href="#DejaVuSans-20" transform="translate(398.388672 0)"/>
     <use xlink:href="#DejaVuSans-6f" transform="translate(430.175781 0)"/>
     <use xlink:href="#DejaVuSans-66" transform="translate(491.357422 0)"/>
     <use xlink:href="#DejaVuSans-20" transform="translate(526.5625 0)"/>
     <use xlink:href="#DejaVuSans-6d" transform="translate(558.349609 0)"/>
     <use xlink:href="#DejaVuSans-6f" transform="translate(655.761719 0)"/>
     <use xlink:href="#DejaVuSans-6e" transform="translate(716.943359 0)"/>
     <use xlink:href="#DejaVuSans-69" transform="translate(780.322266 0)"/>
     <use xlink:href="#DejaVuSans-74" transform="translate(808.105469 0)"/>
     <use xlink:href="#DejaVuSans-6f" transform="translate(847.314453 0)"/>
     <use xlink:href="#DejaVuSans-72" transform="translate(908.496094 0)"/>
     <use xlink:href="#DejaVuSans-69" transform="translate(949.609375 0)"/>
     <use xlink:href="#DejaVuSans-6e" transform="translate(977.392578 0)"/>
     <use xlink:href="#DejaVuSans-67" transform="translate(1040.771484 0)"/>
     <use xlink:href="#DejaVuSans-3a" transform="translate(1104.248047 0)"/>
     <use xlink:href="#DejaVuSans-20" transform="translate(1137.939453 0)"/>
     <use xlink:href="#DejaVuSans-65" transform="translate(1169.726562 0)"/>
     <use xlink:href="#DejaVuSans-61" transform="translate(1231.25 0)"/>
     <use xlink:href="#DejaVuSans-63" transform="translate(1292.529297 0)"/>
     <use xlink:href="#DejaVuSans-68" transform="translate(1347.509766 0)"/>
     <use xlink:href="#DejaVuSans-20" transform="translate(1410.888672 0)"/>
     <use xlink:href="#DejaVuSans-6e" transform="translate(1442.675781 0)"/>
     <use xlink:href="#DejaVuSans-65" transform="translate(1506.054688 0)"/>
     <use xlink:href="#DejaVuSans-65" transform="translate(1567.578125 0)"/>
     <use xlink:href="#DejaVuSans-64" transform="translate(1629.101562 0)"/>
     <use xlink:href="#DejaVuSans-73" transform="translate(1692.578125 0)"/>
     <use xlink:href="#DejaVuSans-20" transform="translate(1744.677734 0)"/>
     <use xlink:href="#DejaVuSans-69" transform="translate(1776.464844 0)"/>
     <use xlink:href="#DejaVuSans-74" transform="translate(1804.248047 0)"/>
     <use xlink:href="#DejaVuSans-73" transform="translate(1843.457031 0)"/>
     <use xlink:href="#DejaVuSans-20" transform="translate(1895.556641 0)"/>
     <use xlink:href="#DejaVuSans-6f" transform="translate(1927.34375 0)"/>
     <use xlink:href="#DejaVuSans-77" transform="translate(1988.525391 0)"/>
     <use xlink:href="#DejaVuSans-6e" transform="translate(2070.3125 0)"/>
     <use xlink:href="#DejaVuSans-20" transform="translate(2133.691406 0)"/>
     <use xlink:href="#DejaVuSans-53" transform="translate(2165.478516 0)"/>
     <use xlink:href="#DejaVuSans-4c" transform="translate(2228.955078 0)"/>
     <use xlink:href="#DejaVuSans-4f" transform="translate(2281.042969 0)"/>
     <use xlink:href="#DejaVuSans-20" transform="translate(2359.753906 0)"/>
     <use xlink:href="#DejaVuSans-61" transform="translate(2391.541016 0)"/>
     <use xlink:href="#DejaVuSans-6e" transform="translate(2452.820312 0)"/>
     <use xlink:href="#DejaVuSans-64" transform="translate(2516.199219 0)"/>
     <use xlink:href="#DejaVuSans-20" transform="translate(2579.675781 0)"/>
     <use xlink:href="#DejaVuSans-6f" transform="translate(2611.462891 0)"/>
     <use xlink:href="#DejaVuSans-77" transform="translate(2672.644531 0)"/>
     <use xlink:href="#DejaVuSans-6e" transform="translate(2754.431641 0)"/>
     <use xlink:href="#DejaVuSans-65" transform="translate(2817.810547 0)"/>
     <use xlink:href="#DejaVuSans-72" transform="translate(2879.333984 0)"/>
    </g>
   </g>
  </g>
 </g>
 <defs>
  <clipPath id="pa2a876e4ac">
   <rect x="7.2" y="22.318125" width="770.4" height="358.32"/>
  </clipPath>
 </defs>
</svg>
