<?xml version="1.0" encoding="utf-8" standalone="no"?>
<!DOCTYPE svg PUBLIC "-//W3C//DTD SVG 1.1//EN"
  "http://www.w3.org/Graphics/SVG/1.1/DTD/svg11.dtd">
<svg xmlns:xlink="http://www.w3.org/1999/xlink" width="928.52375pt" height="333.27625pt" viewBox="0 0 928.52375 333.27625" xmlns="http://www.w3.org/2000/svg" version="1.1">
 <metadata>
  <rdf:RDF xmlns:dc="http://purl.org/dc/elements/1.1/" xmlns:cc="http://creativecommons.org/ns#" xmlns:rdf="http://www.w3.org/1999/02/22-rdf-syntax-ns#">
   <cc:Work>
    <dc:type rdf:resource="http://purl.org/dc/dcmitype/StillImage"/>
    <dc:date>2026-05-26T11:35:10.675359</dc:date>
    <dc:format>image/svg+xml</dc:format>
    <dc:creator>
     <cc:Agent>
      <dc:title>Matplotlib v3.10.8, https://matplotlib.org/</dc:title>
     </cc:Agent>
    </dc:creator>
   </cc:Work>
  </rdf:RDF>
 </metadata>
 <defs>
  <style type="text/css">*{stroke-linejoin: round; stroke-linecap: butt}</style>
 </defs>
 <g id="figure_1">
  <g id="patch_1">
   <path d="M -0 333.27625 
L 928.52375 333.27625 
L 928.52375 0 
L -0 0 
z
" style="fill: #ffffff"/>
  </g>
  <g id="axes_1">
   <g id="patch_2">
    <path d="M 50.14375 295.72 
L 461.87375 295.72 
L 461.87375 64.32 
L 50.14375 64.32 
z
" style="fill: #ffffff"/>
   </g>
   <g id="matplotlib.axis_1">
    <g id="xtick_1">
     <g id="line2d_1">
      <path d="M 68.85875 295.72 
L 68.85875 64.32 
" clip-path="url(#pef32d24595)" style="fill: none; stroke: #b0b0b0; stroke-opacity: 0.25; stroke-width: 0.8; stroke-linecap: square"/>
     </g>
     <g id="line2d_2">
      <defs>
       <path id="m1a9cf90c5f" d="M 0 0 
L 0 3.5 
" style="stroke: #000000; stroke-width: 0.8"/>
      </defs>
      <g>
       <use xlink:href="#m1a9cf90c5f" x="68.85875" y="295.72" style="stroke: #000000; stroke-width: 0.8"/>
      </g>
     </g>
     <g id="text_1">
      <!-- 0 -->
      <g transform="translate(65.6775 310.318438) scale(0.1 -0.1)">
       <defs>
        <path id="DejaVuSans-30" d="M 2034 4250 
Q 1547 4250 1301 3770 
Q 1056 3291 1056 2328 
Q 1056 1369 1301 889 
Q 1547 409 2034 409 
Q 2525 409 2770 889 
Q 3016 1369 3016 2328 
Q 3016 3291 2770 3770 
Q 2525 4250 2034 4250 
z
M 2034 4750 
Q 2819 4750 3233 4129 
Q 3647 3509 3647 2328 
Q 3647 1150 3233 529 
Q 2819 -91 2034 -91 
Q 1250 -91 836 529 
Q 422 1150 422 2328 
Q 422 3509 836 4129 
Q 1250 4750 2034 4750 
z
" transform="scale(0.015625)"/>
       </defs>
       <use xlink:href="#DejaVuSans-30"/>
      </g>
     </g>
    </g>
    <g id="xtick_2">
     <g id="line2d_3">
      <path d="M 131.766313 295.72 
L 131.766313 64.32 
" clip-path="url(#pef32d24595)" style="fill: none; stroke: #b0b0b0; stroke-opacity: 0.25; stroke-width: 0.8; stroke-linecap: square"/>
     </g>
     <g id="line2d_4">
      <g>
       <use xlink:href="#m1a9cf90c5f" x="131.766313" y="295.72" style="stroke: #000000; stroke-width: 0.8"/>
      </g>
     </g>
     <g id="text_2">
      <!-- 20 -->
      <g transform="translate(125.403813 310.318438) scale(0.1 -0.1)">
       <defs>
        <path id="DejaVuSans-32" d="M 1228 531 
L 3431 531 
L 3431 0 
L 469 0 
L 469 531 
Q 828 903 1448 1529 
Q 2069 2156 2228 2338 
Q 2531 2678 2651 2914 
Q 2772 3150 2772 3378 
Q 2772 3750 2511 3984 
Q 2250 4219 1831 4219 
Q 1534 4219 1204 4116 
Q 875 4013 500 3803 
L 500 4441 
Q 881 4594 1212 4672 
Q 1544 4750 1819 4750 
Q 2544 4750 2975 4387 
Q 3406 4025 3406 3419 
Q 3406 3131 3298 2873 
Q 3191 2616 2906 2266 
Q 2828 2175 2409 1742 
Q 1991 1309 1228 531 
z
" transform="scale(0.015625)"/>
       </defs>
       <use xlink:href="#DejaVuSans-32"/>
       <use xlink:href="#DejaVuSans-30" transform="translate(63.623047 0)"/>
      </g>
     </g>
    </g>
    <g id="xtick_3">
     <g id="line2d_5">
      <path d="M 194.673876 295.72 
L 194.673876 64.32 
" clip-path="url(#pef32d24595)" style="fill: none; stroke: #b0b0b0; stroke-opacity: 0.25; stroke-width: 0.8; stroke-linecap: square"/>
     </g>
     <g id="line2d_6">
      <g>
       <use xlink:href="#m1a9cf90c5f" x="194.673876" y="295.72" style="stroke: #000000; stroke-width: 0.8"/>
      </g>
     </g>
     <g id="text_3">
      <!-- 40 -->
      <g transform="translate(188.311376 310.318438) scale(0.1 -0.1)">
       <defs>
        <path id="DejaVuSans-34" d="M 2419 4116 
L 825 1625 
L 2419 1625 
L 2419 4116 
z
M 2253 4666 
L 3047 4666 
L 3047 1625 
L 3713 1625 
L 3713 1100 
L 3047 1100 
L 3047 0 
L 2419 0 
L 2419 1100 
L 313 1100 
L 313 1709 
L 2253 4666 
z
" transform="scale(0.015625)"/>
       </defs>
       <use xlink:href="#DejaVuSans-34"/>
       <use xlink:href="#DejaVuSans-30" transform="translate(63.623047 0)"/>
      </g>
     </g>
    </g>
    <g id="xtick_4">
     <g id="line2d_7">
      <path d="M 257.581439 295.72 
L 257.581439 64.32 
" clip-path="url(#pef32d24595)" style="fill: none; stroke: #b0b0b0; stroke-opacity: 0.25; stroke-width: 0.8; stroke-linecap: square"/>
     </g>
     <g id="line2d_8">
      <g>
       <use xlink:href="#m1a9cf90c5f" x="257.581439" y="295.72" style="stroke: #000000; stroke-width: 0.8"/>
      </g>
     </g>
     <g id="text_4">
      <!-- 60 -->
      <g transform="translate(251.218939 310.318438) scale(0.1 -0.1)">
       <defs>
        <path id="DejaVuSans-36" d="M 2113 2584 
Q 1688 2584 1439 2293 
Q 1191 2003 1191 1497 
Q 1191 994 1439 701 
Q 1688 409 2113 409 
Q 2538 409 2786 701 
Q 3034 994 3034 1497 
Q 3034 2003 2786 2293 
Q 2538 2584 2113 2584 
z
M 3366 4563 
L 3366 3988 
Q 3128 4100 2886 4159 
Q 2644 4219 2406 4219 
Q 1781 4219 1451 3797 
Q 1122 3375 1075 2522 
Q 1259 2794 1537 2939 
Q 1816 3084 2150 3084 
Q 2853 3084 3261 2657 
Q 3669 2231 3669 1497 
Q 3669 778 3244 343 
Q 2819 -91 2113 -91 
Q 1303 -91 875 529 
Q 447 1150 447 2328 
Q 447 3434 972 4092 
Q 1497 4750 2381 4750 
Q 2619 4750 2861 4703 
Q 3103 4656 3366 4563 
z
" transform="scale(0.015625)"/>
       </defs>
       <use xlink:href="#DejaVuSans-36"/>
       <use xlink:href="#DejaVuSans-30" transform="translate(63.623047 0)"/>
      </g>
     </g>
    </g>
    <g id="xtick_5">
     <g id="line2d_9">
      <path d="M 320.489002 295.72 
L 320.489002 64.32 
" clip-path="url(#pef32d24595)" style="fill: none; stroke: #b0b0b0; stroke-opacity: 0.25; stroke-width: 0.8; stroke-linecap: square"/>
     </g>
     <g id="line2d_10">
      <g>
       <use xlink:href="#m1a9cf90c5f" x="320.489002" y="295.72" style="stroke: #000000; stroke-width: 0.8"/>
      </g>
     </g>
     <g id="text_5">
      <!-- 80 -->
      <g transform="translate(314.126502 310.318438) scale(0.1 -0.1)">
       <defs>
        <path id="DejaVuSans-38" d="M 2034 2216 
Q 1584 2216 1326 1975 
Q 1069 1734 1069 1313 
Q 1069 891 1326 650 
Q 1584 409 2034 409 
Q 2484 409 2743 651 
Q 3003 894 3003 1313 
Q 3003 1734 2745 1975 
Q 2488 2216 2034 2216 
z
M 1403 2484 
Q 997 2584 770 2862 
Q 544 3141 544 3541 
Q 544 4100 942 4425 
Q 1341 4750 2034 4750 
Q 2731 4750 3128 4425 
Q 3525 4100 3525 3541 
Q 3525 3141 3298 2862 
Q 3072 2584 2669 2484 
Q 3125 2378 3379 2068 
Q 3634 1759 3634 1313 
Q 3634 634 3220 271 
Q 2806 -91 2034 -91 
Q 1263 -91 848 271 
Q 434 634 434 1313 
Q 434 1759 690 2068 
Q 947 2378 1403 2484 
z
M 1172 3481 
Q 1172 3119 1398 2916 
Q 1625 2713 2034 2713 
Q 2441 2713 2670 2916 
Q 2900 3119 2900 3481 
Q 2900 3844 2670 4047 
Q 2441 4250 2034 4250 
Q 1625 4250 1398 4047 
Q 1172 3844 1172 3481 
z
" transform="scale(0.015625)"/>
       </defs>
       <use xlink:href="#DejaVuSans-38"/>
       <use xlink:href="#DejaVuSans-30" transform="translate(63.623047 0)"/>
      </g>
     </g>
    </g>
    <g id="xtick_6">
     <g id="line2d_11">
      <path d="M 383.396565 295.72 
L 383.396565 64.32 
" clip-path="url(#pef32d24595)" style="fill: none; stroke: #b0b0b0; stroke-opacity: 0.25; stroke-width: 0.8; stroke-linecap: square"/>
     </g>
     <g id="line2d_12">
      <g>
       <use xlink:href="#m1a9cf90c5f" x="383.396565" y="295.72" style="stroke: #000000; stroke-width: 0.8"/>
      </g>
     </g>
     <g id="text_6">
      <!-- 100 -->
      <g transform="translate(373.852815 310.318438) scale(0.1 -0.1)">
       <defs>
        <path id="DejaVuSans-31" d="M 794 531 
L 1825 531 
L 1825 4091 
L 703 3866 
L 703 4441 
L 1819 4666 
L 2450 4666 
L 2450 531 
L 3481 531 
L 3481 0 
L 794 0 
L 794 531 
z
" transform="scale(0.015625)"/>
       </defs>
       <use xlink:href="#DejaVuSans-31"/>
       <use xlink:href="#DejaVuSans-30" transform="translate(63.623047 0)"/>
       <use xlink:href="#DejaVuSans-30" transform="translate(127.246094 0)"/>
      </g>
     </g>
    </g>
    <g id="xtick_7">
     <g id="line2d_13">
      <path d="M 446.304128 295.72 
L 446.304128 64.32 
" clip-path="url(#pef32d24595)" style="fill: none; stroke: #b0b0b0; stroke-opacity: 0.25; stroke-width: 0.8; stroke-linecap: square"/>
     </g>
     <g id="line2d_14">
      <g>
       <use xlink:href="#m1a9cf90c5f" x="446.304128" y="295.72" style="stroke: #000000; stroke-width: 0.8"/>
      </g>
     </g>
     <g id="text_7">
      <!-- 120 -->
      <g transform="translate(436.760378 310.318438) scale(0.1 -0.1)">
       <use xlink:href="#DejaVuSans-31"/>
       <use xlink:href="#DejaVuSans-32" transform="translate(63.623047 0)"/>
       <use xlink:href="#DejaVuSans-30" transform="translate(127.246094 0)"/>
      </g>
     </g>
    </g>
    <g id="text_8">
     <!-- day -->
     <g transform="translate(246.811094 323.996562) scale(0.1 -0.1)">
      <defs>
       <path id="DejaVuSans-64" d="M 2906 2969 
L 2906 4863 
L 3481 4863 
L 3481 0 
L 2906 0 
L 2906 525 
Q 2725 213 2448 61 
Q 2172 -91 1784 -91 
Q 1150 -91 751 415 
Q 353 922 353 1747 
Q 353 2572 751 3078 
Q 1150 3584 1784 3584 
Q 2172 3584 2448 3432 
Q 2725 3281 2906 2969 
z
M 947 1747 
Q 947 1113 1208 752 
Q 1469 391 1925 391 
Q 2381 391 2643 752 
Q 2906 1113 2906 1747 
Q 2906 2381 2643 2742 
Q 2381 3103 1925 3103 
Q 1469 3103 1208 2742 
Q 947 2381 947 1747 
z
" transform="scale(0.015625)"/>
       <path id="DejaVuSans-61" d="M 2194 1759 
Q 1497 1759 1228 1600 
Q 959 1441 959 1056 
Q 959 750 1161 570 
Q 1363 391 1709 391 
Q 2188 391 2477 730 
Q 2766 1069 2766 1631 
L 2766 1759 
L 2194 1759 
z
M 3341 1997 
L 3341 0 
L 2766 0 
L 2766 531 
Q 2569 213 2275 61 
Q 1981 -91 1556 -91 
Q 1019 -91 701 211 
Q 384 513 384 1019 
Q 384 1609 779 1909 
Q 1175 2209 1959 2209 
L 2766 2209 
L 2766 2266 
Q 2766 2663 2505 2880 
Q 2244 3097 1772 3097 
Q 1472 3097 1187 3025 
Q 903 2953 641 2809 
L 641 3341 
Q 956 3463 1253 3523 
Q 1550 3584 1831 3584 
Q 2591 3584 2966 3190 
Q 3341 2797 3341 1997 
z
" transform="scale(0.015625)"/>
       <path id="DejaVuSans-79" d="M 2059 -325 
Q 1816 -950 1584 -1140 
Q 1353 -1331 966 -1331 
L 506 -1331 
L 506 -850 
L 844 -850 
Q 1081 -850 1212 -737 
Q 1344 -625 1503 -206 
L 1606 56 
L 191 3500 
L 800 3500 
L 1894 763 
L 2988 3500 
L 3597 3500 
L 2059 -325 
z
" transform="scale(0.015625)"/>
      </defs>
      <use xlink:href="#DejaVuSans-64"/>
      <use xlink:href="#DejaVuSans-61" transform="translate(63.476562 0)"/>
      <use xlink:href="#DejaVuSans-79" transform="translate(124.755859 0)"/>
     </g>
    </g>
   </g>
   <g id="matplotlib.axis_2">
    <g id="ytick_1">
     <g id="line2d_15">
      <path d="M 50.14375 274.62831 
L 461.87375 274.62831 
" clip-path="url(#pef32d24595)" style="fill: none; stroke: #b0b0b0; stroke-opacity: 0.25; stroke-width: 0.8; stroke-linecap: square"/>
     </g>
     <g id="line2d_16">
      <defs>
       <path id="m732b883444" d="M 0 0 
L -3.5 0 
" style="stroke: #000000; stroke-width: 0.8"/>
      </defs>
      <g>
       <use xlink:href="#m732b883444" x="50.14375" y="274.62831" style="stroke: #000000; stroke-width: 0.8"/>
      </g>
     </g>
     <g id="text_9">
      <!-- 0.05 -->
      <g transform="translate(20.878125 278.427529) scale(0.1 -0.1)">
       <defs>
        <path id="DejaVuSans-2e" d="M 684 794 
L 1344 794 
L 1344 0 
L 684 0 
L 684 794 
z
" transform="scale(0.015625)"/>
        <path id="DejaVuSans-35" d="M 691 4666 
L 3169 4666 
L 3169 4134 
L 1269 4134 
L 1269 2991 
Q 1406 3038 1543 3061 
Q 1681 3084 1819 3084 
Q 2600 3084 3056 2656 
Q 3513 2228 3513 1497 
Q 3513 744 3044 326 
Q 2575 -91 1722 -91 
Q 1428 -91 1123 -41 
Q 819 9 494 109 
L 494 744 
Q 775 591 1075 516 
Q 1375 441 1709 441 
Q 2250 441 2565 725 
Q 2881 1009 2881 1497 
Q 2881 1984 2565 2268 
Q 2250 2553 1709 2553 
Q 1456 2553 1204 2497 
Q 953 2441 691 2322 
L 691 4666 
z
" transform="scale(0.015625)"/>
       </defs>
       <use xlink:href="#DejaVuSans-30"/>
       <use xlink:href="#DejaVuSans-2e" transform="translate(63.623047 0)"/>
       <use xlink:href="#DejaVuSans-30" transform="translate(95.410156 0)"/>
       <use xlink:href="#DejaVuSans-35" transform="translate(159.033203 0)"/>
      </g>
     </g>
    </g>
    <g id="ytick_2">
     <g id="line2d_17">
      <path d="M 50.14375 243.891367 
L 461.87375 243.891367 
" clip-path="url(#pef32d24595)" style="fill: none; stroke: #b0b0b0; stroke-opacity: 0.25; stroke-width: 0.8; stroke-linecap: square"/>
     </g>
     <g id="line2d_18">
      <g>
       <use xlink:href="#m732b883444" x="50.14375" y="243.891367" style="stroke: #000000; stroke-width: 0.8"/>
      </g>
     </g>
     <g id="text_10">
      <!-- 0.10 -->
      <g transform="translate(20.878125 247.690586) scale(0.1 -0.1)">
       <use xlink:href="#DejaVuSans-30"/>
       <use xlink:href="#DejaVuSans-2e" transform="translate(63.623047 0)"/>
       <use xlink:href="#DejaVuSans-31" transform="translate(95.410156 0)"/>
       <use xlink:href="#DejaVuSans-30" transform="translate(159.033203 0)"/>
      </g>
     </g>
    </g>
    <g id="ytick_3">
     <g id="line2d_19">
      <path d="M 50.14375 213.154424 
L 461.87375 213.154424 
" clip-path="url(#pef32d24595)" style="fill: none; stroke: #b0b0b0; stroke-opacity: 0.25; stroke-width: 0.8; stroke-linecap: square"/>
     </g>
     <g id="line2d_20">
      <g>
       <use xlink:href="#m732b883444" x="50.14375" y="213.154424" style="stroke: #000000; stroke-width: 0.8"/>
      </g>
     </g>
     <g id="text_11">
      <!-- 0.15 -->
      <g transform="translate(20.878125 216.953643) scale(0.1 -0.1)">
       <use xlink:href="#DejaVuSans-30"/>
       <use xlink:href="#DejaVuSans-2e" transform="translate(63.623047 0)"/>
       <use xlink:href="#DejaVuSans-31" transform="translate(95.410156 0)"/>
       <use xlink:href="#DejaVuSans-35" transform="translate(159.033203 0)"/>
      </g>
     </g>
    </g>
    <g id="ytick_4">
     <g id="line2d_21">
      <path d="M 50.14375 182.417482 
L 461.87375 182.417482 
" clip-path="url(#pef32d24595)" style="fill: none; stroke: #b0b0b0; stroke-opacity: 0.25; stroke-width: 0.8; stroke-linecap: square"/>
     </g>
     <g id="line2d_22">
      <g>
       <use xlink:href="#m732b883444" x="50.14375" y="182.417482" style="stroke: #000000; stroke-width: 0.8"/>
      </g>
     </g>
     <g id="text_12">
      <!-- 0.20 -->
      <g transform="translate(20.878125 186.2167) scale(0.1 -0.1)">
       <use xlink:href="#DejaVuSans-30"/>
       <use xlink:href="#DejaVuSans-2e" transform="translate(63.623047 0)"/>
       <use xlink:href="#DejaVuSans-32" transform="translate(95.410156 0)"/>
       <use xlink:href="#DejaVuSans-30" transform="translate(159.033203 0)"/>
      </g>
     </g>
    </g>
    <g id="ytick_5">
     <g id="line2d_23">
      <path d="M 50.14375 151.680539 
L 461.87375 151.680539 
" clip-path="url(#pef32d24595)" style="fill: none; stroke: #b0b0b0; stroke-opacity: 0.25; stroke-width: 0.8; stroke-linecap: square"/>
     </g>
     <g id="line2d_24">
      <g>
       <use xlink:href="#m732b883444" x="50.14375" y="151.680539" style="stroke: #000000; stroke-width: 0.8"/>
      </g>
     </g>
     <g id="text_13">
      <!-- 0.25 -->
      <g transform="translate(20.878125 155.479758) scale(0.1 -0.1)">
       <use xlink:href="#DejaVuSans-30"/>
       <use xlink:href="#DejaVuSans-2e" transform="translate(63.623047 0)"/>
       <use xlink:href="#DejaVuSans-32" transform="translate(95.410156 0)"/>
       <use xlink:href="#DejaVuSans-35" transform="translate(159.033203 0)"/>
      </g>
     </g>
    </g>
    <g id="ytick_6">
     <g id="line2d_25">
      <path d="M 50.14375 120.943596 
L 461.87375 120.943596 
" clip-path="url(#pef32d24595)" style="fill: none; stroke: #b0b0b0; stroke-opacity: 0.25; stroke-width: 0.8; stroke-linecap: square"/>
     </g>
     <g id="line2d_26">
      <g>
       <use xlink:href="#m732b883444" x="50.14375" y="120.943596" style="stroke: #000000; stroke-width: 0.8"/>
      </g>
     </g>
     <g id="text_14">
      <!-- 0.30 -->
      <g transform="translate(20.878125 124.742815) scale(0.1 -0.1)">
       <defs>
        <path id="DejaVuSans-33" d="M 2597 2516 
Q 3050 2419 3304 2112 
Q 3559 1806 3559 1356 
Q 3559 666 3084 287 
Q 2609 -91 1734 -91 
Q 1441 -91 1130 -33 
Q 819 25 488 141 
L 488 750 
Q 750 597 1062 519 
Q 1375 441 1716 441 
Q 2309 441 2620 675 
Q 2931 909 2931 1356 
Q 2931 1769 2642 2001 
Q 2353 2234 1838 2234 
L 1294 2234 
L 1294 2753 
L 1863 2753 
Q 2328 2753 2575 2939 
Q 2822 3125 2822 3475 
Q 2822 3834 2567 4026 
Q 2313 4219 1838 4219 
Q 1578 4219 1281 4162 
Q 984 4106 628 3988 
L 628 4550 
Q 988 4650 1302 4700 
Q 1616 4750 1894 4750 
Q 2613 4750 3031 4423 
Q 3450 4097 3450 3541 
Q 3450 3153 3228 2886 
Q 3006 2619 2597 2516 
z
" transform="scale(0.015625)"/>
       </defs>
       <use xlink:href="#DejaVuSans-30"/>
       <use xlink:href="#DejaVuSans-2e" transform="translate(63.623047 0)"/>
       <use xlink:href="#DejaVuSans-33" transform="translate(95.410156 0)"/>
       <use xlink:href="#DejaVuSans-30" transform="translate(159.033203 0)"/>
      </g>
     </g>
    </g>
    <g id="ytick_7">
     <g id="line2d_27">
      <path d="M 50.14375 90.206653 
L 461.87375 90.206653 
" clip-path="url(#pef32d24595)" style="fill: none; stroke: #b0b0b0; stroke-opacity: 0.25; stroke-width: 0.8; stroke-linecap: square"/>
     </g>
     <g id="line2d_28">
      <g>
       <use xlink:href="#m732b883444" x="50.14375" y="90.206653" style="stroke: #000000; stroke-width: 0.8"/>
      </g>
     </g>
     <g id="text_15">
      <!-- 0.35 -->
      <g transform="translate(20.878125 94.005872) scale(0.1 -0.1)">
       <use xlink:href="#DejaVuSans-30"/>
       <use xlink:href="#DejaVuSans-2e" transform="translate(63.623047 0)"/>
       <use xlink:href="#DejaVuSans-33" transform="translate(95.410156 0)"/>
       <use xlink:href="#DejaVuSans-35" transform="translate(159.033203 0)"/>
      </g>
     </g>
    </g>
    <g id="text_16">
     <!-- KS statistic -->
     <g transform="translate(14.798438 207.743437) rotate(-90) scale(0.1 -0.1)">
      <defs>
       <path id="DejaVuSans-4b" d="M 628 4666 
L 1259 4666 
L 1259 2694 
L 3353 4666 
L 4166 4666 
L 1850 2491 
L 4331 0 
L 3500 0 
L 1259 2247 
L 1259 0 
L 628 0 
L 628 4666 
z
" transform="scale(0.015625)"/>
       <path id="DejaVuSans-53" d="M 3425 4513 
L 3425 3897 
Q 3066 4069 2747 4153 
Q 2428 4238 2131 4238 
Q 1616 4238 1336 4038 
Q 1056 3838 1056 3469 
Q 1056 3159 1242 3001 
Q 1428 2844 1947 2747 
L 2328 2669 
Q 3034 2534 3370 2195 
Q 3706 1856 3706 1288 
Q 3706 609 3251 259 
Q 2797 -91 1919 -91 
Q 1588 -91 1214 -16 
Q 841 59 441 206 
L 441 856 
Q 825 641 1194 531 
Q 1563 422 1919 422 
Q 2459 422 2753 634 
Q 3047 847 3047 1241 
Q 3047 1584 2836 1778 
Q 2625 1972 2144 2069 
L 1759 2144 
Q 1053 2284 737 2584 
Q 422 2884 422 3419 
Q 422 4038 858 4394 
Q 1294 4750 2059 4750 
Q 2388 4750 2728 4690 
Q 3069 4631 3425 4513 
z
" transform="scale(0.015625)"/>
       <path id="DejaVuSans-20" transform="scale(0.015625)"/>
       <path id="DejaVuSans-73" d="M 2834 3397 
L 2834 2853 
Q 2591 2978 2328 3040 
Q 2066 3103 1784 3103 
Q 1356 3103 1142 2972 
Q 928 2841 928 2578 
Q 928 2378 1081 2264 
Q 1234 2150 1697 2047 
L 1894 2003 
Q 2506 1872 2764 1633 
Q 3022 1394 3022 966 
Q 3022 478 2636 193 
Q 2250 -91 1575 -91 
Q 1294 -91 989 -36 
Q 684 19 347 128 
L 347 722 
Q 666 556 975 473 
Q 1284 391 1588 391 
Q 1994 391 2212 530 
Q 2431 669 2431 922 
Q 2431 1156 2273 1281 
Q 2116 1406 1581 1522 
L 1381 1569 
Q 847 1681 609 1914 
Q 372 2147 372 2553 
Q 372 3047 722 3315 
Q 1072 3584 1716 3584 
Q 2034 3584 2315 3537 
Q 2597 3491 2834 3397 
z
" transform="scale(0.015625)"/>
       <path id="DejaVuSans-74" d="M 1172 4494 
L 1172 3500 
L 2356 3500 
L 2356 3053 
L 1172 3053 
L 1172 1153 
Q 1172 725 1289 603 
Q 1406 481 1766 481 
L 2356 481 
L 2356 0 
L 1766 0 
Q 1100 0 847 248 
Q 594 497 594 1153 
L 594 3053 
L 172 3053 
L 172 3500 
L 594 3500 
L 594 4494 
L 1172 4494 
z
" transform="scale(0.015625)"/>
       <path id="DejaVuSans-69" d="M 603 3500 
L 1178 3500 
L 1178 0 
L 603 0 
L 603 3500 
z
M 603 4863 
L 1178 4863 
L 1178 4134 
L 603 4134 
L 603 4863 
z
" transform="scale(0.015625)"/>
       <path id="DejaVuSans-63" d="M 3122 3366 
L 3122 2828 
Q 2878 2963 2633 3030 
Q 2388 3097 2138 3097 
Q 1578 3097 1268 2742 
Q 959 2388 959 1747 
Q 959 1106 1268 751 
Q 1578 397 2138 397 
Q 2388 397 2633 464 
Q 2878 531 3122 666 
L 3122 134 
Q 2881 22 2623 -34 
Q 2366 -91 2075 -91 
Q 1284 -91 818 406 
Q 353 903 353 1747 
Q 353 2603 823 3093 
Q 1294 3584 2113 3584 
Q 2378 3584 2631 3529 
Q 2884 3475 3122 3366 
z
" transform="scale(0.015625)"/>
      </defs>
      <use xlink:href="#DejaVuSans-4b"/>
      <use xlink:href="#DejaVuSans-53" transform="translate(65.576172 0)"/>
      <use xlink:href="#DejaVuSans-20" transform="translate(129.052734 0)"/>
      <use xlink:href="#DejaVuSans-73" transform="translate(160.839844 0)"/>
      <use xlink:href="#DejaVuSans-74" transform="translate(212.939453 0)"/>
      <use xlink:href="#DejaVuSans-61" transform="translate(252.148438 0)"/>
      <use xlink:href="#DejaVuSans-74" transform="translate(313.427734 0)"/>
      <use xlink:href="#DejaVuSans-69" transform="translate(352.636719 0)"/>
      <use xlink:href="#DejaVuSans-73" transform="translate(380.419922 0)"/>
      <use xlink:href="#DejaVuSans-74" transform="translate(432.519531 0)"/>
      <use xlink:href="#DejaVuSans-69" transform="translate(471.728516 0)"/>
      <use xlink:href="#DejaVuSans-63" transform="translate(499.511719 0)"/>
     </g>
    </g>
   </g>
   <g id="line2d_29">
    <path d="M 68.85875 274.751258 
L 72.004128 259.997525 
L 75.149506 279.546221 
L 78.294884 229.875321 
L 81.440263 270.571033 
L 84.585641 245.489688 
L 87.731019 278.316743 
L 90.876397 279.300325 
L 94.021775 273.029989 
L 97.167153 270.939877 
L 100.312532 276.595474 
L 103.45791 280.406855 
L 106.603288 258.399204 
L 109.748666 248.194539 
L 112.894044 278.685586 
L 116.039422 253.727189 
L 119.1848 278.070847 
L 122.330179 252.128868 
L 125.475557 285.201818 
L 128.620935 262.456481 
L 131.766313 275.243049 
L 134.911691 257.292674 
L 138.057069 271.431668 
L 141.202447 280.406855 
L 144.347826 280.898646 
L 147.493204 275.488944 
L 150.638582 260.243421 
L 153.78396 281.759281 
L 156.929338 257.661517 
L 160.074716 281.26749 
L 163.220095 262.825324 
L 166.365473 262.702376 
L 169.510851 252.128868 
L 172.656229 273.644728 
L 175.801607 263.808906 
L 178.946985 278.316743 
L 182.092363 269.587451 
L 185.237742 253.481293 
L 188.38312 271.431668 
L 191.528498 264.300697 
L 194.673876 254.833719 
L 197.819254 269.833347 
L 200.964632 277.702004 
L 204.110011 257.415622 
L 207.255389 276.349579 
L 210.400767 279.792116 
L 213.546145 248.440435 
L 216.691523 273.52178 
L 219.836901 271.554616 
L 222.982279 266.759653 
L 226.127658 261.472898 
L 229.273036 265.653123 
L 232.418414 248.194539 
L 235.563792 262.825324 
L 238.70917 255.571405 
L 241.854548 236.145658 
L 244.999926 264.300697 
L 248.145305 268.726817 
L 251.290683 266.267861 
L 254.436061 282.005176 
L 257.581439 265.653123 
L 260.726817 260.981107 
L 263.872195 273.029989 
L 267.017574 279.177377 
L 270.162952 244.752001 
L 273.30833 224.588567 
L 276.453708 277.579056 
L 279.599086 268.726817 
L 282.744464 261.227003 
L 285.889842 224.219724 
L 289.035221 264.423645 
L 292.180599 232.457224 
L 295.325977 257.784465 
L 298.471355 226.678679 
L 301.616733 207.621775 
L 304.762111 218.564126 
L 307.907489 233.686702 
L 311.052868 208.605357 
L 314.198246 214.752745 
L 317.343624 211.556103 
L 320.489002 187.335392 
L 323.63438 204.671028 
L 326.779758 235.285023 
L 329.925137 199.630169 
L 333.070515 186.35181 
L 336.215893 229.998269 
L 339.361271 207.375879 
L 342.506649 192.130355 
L 345.652027 174.671772 
L 348.797405 170.3686 
L 351.942784 186.474758 
L 355.088162 204.302185 
L 358.23354 166.557219 
L 361.378918 163.483525 
L 364.524296 156.844345 
L 367.669674 161.639308 
L 370.815053 163.237629 
L 373.960431 174.79472 
L 377.105809 157.950875 
L 380.251187 160.040987 
L 383.396565 163.72942 
L 386.541943 116.640424 
L 389.687321 130.779418 
L 392.8327 124.263186 
L 395.978078 117.624006 
L 399.123456 121.80423 
L 402.268834 156.967293 
L 405.414212 95.37046 
L 408.55959 134.590799 
L 411.704968 122.418969 
L 414.850347 128.320462 
L 417.995725 115.533894 
L 421.141103 107.296393 
L 424.286481 88.608332 
L 427.431859 92.665609 
L 430.577237 88.485384 
L 433.722616 113.074939 
L 436.867994 74.838182 
L 440.013372 100.28837 
L 443.15875 102.132587 
" clip-path="url(#pef32d24595)" style="fill: none; stroke: #7aa6c2; stroke-width: 2; stroke-linecap: square"/>
   </g>
   <g id="line2d_30">
    <path d="M 50.14375 243.891367 
L 461.87375 243.891367 
" clip-path="url(#pef32d24595)" style="fill: none; stroke-dasharray: 5.55,2.4; stroke-dashoffset: 0; stroke: #f28e2b; stroke-width: 1.5"/>
   </g>
   <g id="line2d_31">
    <path d="M 50.14375 182.417482 
L 461.87375 182.417482 
" clip-path="url(#pef32d24595)" style="fill: none; stroke-dasharray: 5.55,2.4; stroke-dashoffset: 0; stroke: #e15759; stroke-width: 1.5"/>
   </g>
   <g id="patch_3">
    <path d="M 50.14375 295.72 
L 50.14375 64.32 
" style="fill: none; stroke: #000000; stroke-width: 0.8; stroke-linejoin: miter; stroke-linecap: square"/>
   </g>
   <g id="patch_4">
    <path d="M 461.87375 295.72 
L 461.87375 64.32 
" style="fill: none; stroke: #000000; stroke-width: 0.8; stroke-linejoin: miter; stroke-linecap: square"/>
   </g>
   <g id="patch_5">
    <path d="M 50.14375 295.72 
L 461.87375 295.72 
" style="fill: none; stroke: #000000; stroke-width: 0.8; stroke-linejoin: miter; stroke-linecap: square"/>
   </g>
   <g id="patch_6">
    <path d="M 50.14375 64.32 
L 461.87375 64.32 
" style="fill: none; stroke: #000000; stroke-width: 0.8; stroke-linejoin: miter; stroke-linecap: square"/>
   </g>
   <g id="text_17">
    <!-- Kolmogorov-Smirnov statistic vs training distribution -->
    <g transform="translate(98.415 58.32) scale(0.12 -0.12)">
     <defs>
      <path id="DejaVuSans-6f" d="M 1959 3097 
Q 1497 3097 1228 2736 
Q 959 2375 959 1747 
Q 959 1119 1226 758 
Q 1494 397 1959 397 
Q 2419 397 2687 759 
Q 2956 1122 2956 1747 
Q 2956 2369 2687 2733 
Q 2419 3097 1959 3097 
z
M 1959 3584 
Q 2709 3584 3137 3096 
Q 3566 2609 3566 1747 
Q 3566 888 3137 398 
Q 2709 -91 1959 -91 
Q 1206 -91 779 398 
Q 353 888 353 1747 
Q 353 2609 779 3096 
Q 1206 3584 1959 3584 
z
" transform="scale(0.015625)"/>
      <path id="DejaVuSans-6c" d="M 603 4863 
L 1178 4863 
L 1178 0 
L 603 0 
L 603 4863 
z
" transform="scale(0.015625)"/>
      <path id="DejaVuSans-6d" d="M 3328 2828 
Q 3544 3216 3844 3400 
Q 4144 3584 4550 3584 
Q 5097 3584 5394 3201 
Q 5691 2819 5691 2113 
L 5691 0 
L 5113 0 
L 5113 2094 
Q 5113 2597 4934 2840 
Q 4756 3084 4391 3084 
Q 3944 3084 3684 2787 
Q 3425 2491 3425 1978 
L 3425 0 
L 2847 0 
L 2847 2094 
Q 2847 2600 2669 2842 
Q 2491 3084 2119 3084 
Q 1678 3084 1418 2786 
Q 1159 2488 1159 1978 
L 1159 0 
L 581 0 
L 581 3500 
L 1159 3500 
L 1159 2956 
Q 1356 3278 1631 3431 
Q 1906 3584 2284 3584 
Q 2666 3584 2933 3390 
Q 3200 3197 3328 2828 
z
" transform="scale(0.015625)"/>
      <path id="DejaVuSans-67" d="M 2906 1791 
Q 2906 2416 2648 2759 
Q 2391 3103 1925 3103 
Q 1463 3103 1205 2759 
Q 947 2416 947 1791 
Q 947 1169 1205 825 
Q 1463 481 1925 481 
Q 2391 481 2648 825 
Q 2906 1169 2906 1791 
z
M 3481 434 
Q 3481 -459 3084 -895 
Q 2688 -1331 1869 -1331 
Q 1566 -1331 1297 -1286 
Q 1028 -1241 775 -1147 
L 775 -588 
Q 1028 -725 1275 -790 
Q 1522 -856 1778 -856 
Q 2344 -856 2625 -561 
Q 2906 -266 2906 331 
L 2906 616 
Q 2728 306 2450 153 
Q 2172 0 1784 0 
Q 1141 0 747 490 
Q 353 981 353 1791 
Q 353 2603 747 3093 
Q 1141 3584 1784 3584 
Q 2172 3584 2450 3431 
Q 2728 3278 2906 2969 
L 2906 3500 
L 3481 3500 
L 3481 434 
z
" transform="scale(0.015625)"/>
      <path id="DejaVuSans-72" d="M 2631 2963 
Q 2534 3019 2420 3045 
Q 2306 3072 2169 3072 
Q 1681 3072 1420 2755 
Q 1159 2438 1159 1844 
L 1159 0 
L 581 0 
L 581 3500 
L 1159 3500 
L 1159 2956 
Q 1341 3275 1631 3429 
Q 1922 3584 2338 3584 
Q 2397 3584 2469 3576 
Q 2541 3569 2628 3553 
L 2631 2963 
z
" transform="scale(0.015625)"/>
      <path id="DejaVuSans-76" d="M 191 3500 
L 800 3500 
L 1894 563 
L 2988 3500 
L 3597 3500 
L 2284 0 
L 1503 0 
L 191 3500 
z
" transform="scale(0.015625)"/>
      <path id="DejaVuSans-2d" d="M 313 2009 
L 1997 2009 
L 1997 1497 
L 313 1497 
L 313 2009 
z
" transform="scale(0.015625)"/>
      <path id="DejaVuSans-6e" d="M 3513 2113 
L 3513 0 
L 2938 0 
L 2938 2094 
Q 2938 2591 2744 2837 
Q 2550 3084 2163 3084 
Q 1697 3084 1428 2787 
Q 1159 2491 1159 1978 
L 1159 0 
L 581 0 
L 581 3500 
L 1159 3500 
L 1159 2956 
Q 1366 3272 1645 3428 
Q 1925 3584 2291 3584 
Q 2894 3584 3203 3211 
Q 3513 2838 3513 2113 
z
" transform="scale(0.015625)"/>
      <path id="DejaVuSans-62" d="M 3116 1747 
Q 3116 2381 2855 2742 
Q 2594 3103 2138 3103 
Q 1681 3103 1420 2742 
Q 1159 2381 1159 1747 
Q 1159 1113 1420 752 
Q 1681 391 2138 391 
Q 2594 391 2855 752 
Q 3116 1113 3116 1747 
z
M 1159 2969 
Q 1341 3281 1617 3432 
Q 1894 3584 2278 3584 
Q 2916 3584 3314 3078 
Q 3713 2572 3713 1747 
Q 3713 922 3314 415 
Q 2916 -91 2278 -91 
Q 1894 -91 1617 61 
Q 1341 213 1159 525 
L 1159 0 
L 581 0 
L 581 4863 
L 1159 4863 
L 1159 2969 
z
" transform="scale(0.015625)"/>
      <path id="DejaVuSans-75" d="M 544 1381 
L 544 3500 
L 1119 3500 
L 1119 1403 
Q 1119 906 1312 657 
Q 1506 409 1894 409 
Q 2359 409 2629 706 
Q 2900 1003 2900 1516 
L 2900 3500 
L 3475 3500 
L 3475 0 
L 2900 0 
L 2900 538 
Q 2691 219 2414 64 
Q 2138 -91 1772 -91 
Q 1169 -91 856 284 
Q 544 659 544 1381 
z
M 1991 3584 
L 1991 3584 
z
" transform="scale(0.015625)"/>
     </defs>
     <use xlink:href="#DejaVuSans-4b"/>
     <use xlink:href="#DejaVuSans-6f" transform="translate(60.576172 0)"/>
     <use xlink:href="#DejaVuSans-6c" transform="translate(121.757812 0)"/>
     <use xlink:href="#DejaVuSans-6d" transform="translate(149.541016 0)"/>
     <use xlink:href="#DejaVuSans-6f" transform="translate(246.953125 0)"/>
     <use xlink:href="#DejaVuSans-67" transform="translate(308.134766 0)"/>
     <use xlink:href="#DejaVuSans-6f" transform="translate(371.611328 0)"/>
     <use xlink:href="#DejaVuSans-72" transform="translate(432.792969 0)"/>
     <use xlink:href="#DejaVuSans-6f" transform="translate(471.65625 0)"/>
     <use xlink:href="#DejaVuSans-76" transform="translate(532.837891 0)"/>
     <use xlink:href="#DejaVuSans-2d" transform="translate(589.392578 0)"/>
     <use xlink:href="#DejaVuSans-53" transform="translate(625.476562 0)"/>
     <use xlink:href="#DejaVuSans-6d" transform="translate(688.953125 0)"/>
     <use xlink:href="#DejaVuSans-69" transform="translate(786.365234 0)"/>
     <use xlink:href="#DejaVuSans-72" transform="translate(814.148438 0)"/>
     <use xlink:href="#DejaVuSans-6e" transform="translate(853.511719 0)"/>
     <use xlink:href="#DejaVuSans-6f" transform="translate(916.890625 0)"/>
     <use xlink:href="#DejaVuSans-76" transform="translate(978.072266 0)"/>
     <use xlink:href="#DejaVuSans-20" transform="translate(1037.251953 0)"/>
     <use xlink:href="#DejaVuSans-73" transform="translate(1069.039062 0)"/>
     <use xlink:href="#DejaVuSans-74" transform="translate(1121.138672 0)"/>
     <use xlink:href="#DejaVuSans-61" transform="translate(1160.347656 0)"/>
     <use xlink:href="#DejaVuSans-74" transform="translate(1221.626953 0)"/>
     <use xlink:href="#DejaVuSans-69" transform="translate(1260.835938 0)"/>
     <use xlink:href="#DejaVuSans-73" transform="translate(1288.619141 0)"/>
     <use xlink:href="#DejaVuSans-74" transform="translate(1340.71875 0)"/>
     <use xlink:href="#DejaVuSans-69" transform="translate(1379.927734 0)"/>
     <use xlink:href="#DejaVuSans-63" transform="translate(1407.710938 0)"/>
     <use xlink:href="#DejaVuSans-20" transform="translate(1462.691406 0)"/>
     <use xlink:href="#DejaVuSans-76" transform="translate(1494.478516 0)"/>
     <use xlink:href="#DejaVuSans-73" transform="translate(1553.658203 0)"/>
     <use xlink:href="#DejaVuSans-20" transform="translate(1605.757812 0)"/>
     <use xlink:href="#DejaVuSans-74" transform="translate(1637.544922 0)"/>
     <use xlink:href="#DejaVuSans-72" transform="translate(1676.753906 0)"/>
     <use xlink:href="#DejaVuSans-61" transform="translate(1717.867188 0)"/>
     <use xlink:href="#DejaVuSans-69" transform="translate(1779.146484 0)"/>
     <use xlink:href="#DejaVuSans-6e" transform="translate(1806.929688 0)"/>
     <use xlink:href="#DejaVuSans-69" transform="translate(1870.308594 0)"/>
     <use xlink:href="#DejaVuSans-6e" transform="translate(1898.091797 0)"/>
     <use xlink:href="#DejaVuSans-67" transform="translate(1961.470703 0)"/>
     <use xlink:href="#DejaVuSans-20" transform="translate(2024.947266 0)"/>
     <use xlink:href="#DejaVuSans-64" transform="translate(2056.734375 0)"/>
     <use xlink:href="#DejaVuSans-69" transform="translate(2120.210938 0)"/>
     <use xlink:href="#DejaVuSans-73" transform="translate(2147.994141 0)"/>
     <use xlink:href="#DejaVuSans-74" transform="translate(2200.09375 0)"/>
     <use xlink:href="#DejaVuSans-72" transform="translate(2239.302734 0)"/>
     <use xlink:href="#DejaVuSans-69" transform="translate(2280.416016 0)"/>
     <use xlink:href="#DejaVuSans-62" transform="translate(2308.199219 0)"/>
     <use xlink:href="#DejaVuSans-75" transform="translate(2371.675781 0)"/>
     <use xlink:href="#DejaVuSans-74" transform="translate(2435.054688 0)"/>
     <use xlink:href="#DejaVuSans-69" transform="translate(2474.263672 0)"/>
     <use xlink:href="#DejaVuSans-6f" transform="translate(2502.046875 0)"/>
     <use xlink:href="#DejaVuSans-6e" transform="translate(2563.228516 0)"/>
    </g>
   </g>
   <g id="legend_1">
    <g id="patch_7">
     <path d="M 56.44375 97.940625 
L 204.631563 97.940625 
Q 206.431563 97.940625 206.431563 96.140625 
L 206.431563 70.62 
Q 206.431563 68.82 204.631563 68.82 
L 56.44375 68.82 
Q 54.64375 68.82 54.64375 70.62 
L 54.64375 96.140625 
Q 54.64375 97.940625 56.44375 97.940625 
z
" style="fill: #ffffff; opacity: 0.8; stroke: #cccccc; stroke-linejoin: miter"/>
    </g>
    <g id="line2d_32">
     <path d="M 58.24375 76.108594 
L 67.24375 76.108594 
L 76.24375 76.108594 
" style="fill: none; stroke-dasharray: 5.55,2.4; stroke-dashoffset: 0; stroke: #f28e2b; stroke-width: 1.5"/>
    </g>
    <g id="text_18">
     <!-- threshold 0.1 (mild drift) -->
     <g transform="translate(83.44375 79.258594) scale(0.09 -0.09)">
      <defs>
       <path id="DejaVuSans-68" d="M 3513 2113 
L 3513 0 
L 2938 0 
L 2938 2094 
Q 2938 2591 2744 2837 
Q 2550 3084 2163 3084 
Q 1697 3084 1428 2787 
Q 1159 2491 1159 1978 
L 1159 0 
L 581 0 
L 581 4863 
L 1159 4863 
L 1159 2956 
Q 1366 3272 1645 3428 
Q 1925 3584 2291 3584 
Q 2894 3584 3203 3211 
Q 3513 2838 3513 2113 
z
" transform="scale(0.015625)"/>
       <path id="DejaVuSans-65" d="M 3597 1894 
L 3597 1613 
L 953 1613 
Q 991 1019 1311 708 
Q 1631 397 2203 397 
Q 2534 397 2845 478 
Q 3156 559 3463 722 
L 3463 178 
Q 3153 47 2828 -22 
Q 2503 -91 2169 -91 
Q 1331 -91 842 396 
Q 353 884 353 1716 
Q 353 2575 817 3079 
Q 1281 3584 2069 3584 
Q 2775 3584 3186 3129 
Q 3597 2675 3597 1894 
z
M 3022 2063 
Q 3016 2534 2758 2815 
Q 2500 3097 2075 3097 
Q 1594 3097 1305 2825 
Q 1016 2553 972 2059 
L 3022 2063 
z
" transform="scale(0.015625)"/>
       <path id="DejaVuSans-28" d="M 1984 4856 
Q 1566 4138 1362 3434 
Q 1159 2731 1159 2009 
Q 1159 1288 1364 580 
Q 1569 -128 1984 -844 
L 1484 -844 
Q 1016 -109 783 600 
Q 550 1309 550 2009 
Q 550 2706 781 3412 
Q 1013 4119 1484 4856 
L 1984 4856 
z
" transform="scale(0.015625)"/>
       <path id="DejaVuSans-66" d="M 2375 4863 
L 2375 4384 
L 1825 4384 
Q 1516 4384 1395 4259 
Q 1275 4134 1275 3809 
L 1275 3500 
L 2222 3500 
L 2222 3053 
L 1275 3053 
L 1275 0 
L 697 0 
L 697 3053 
L 147 3053 
L 147 3500 
L 697 3500 
L 697 3744 
Q 697 4328 969 4595 
Q 1241 4863 1831 4863 
L 2375 4863 
z
" transform="scale(0.015625)"/>
       <path id="DejaVuSans-29" d="M 513 4856 
L 1013 4856 
Q 1481 4119 1714 3412 
Q 1947 2706 1947 2009 
Q 1947 1309 1714 600 
Q 1481 -109 1013 -844 
L 513 -844 
Q 928 -128 1133 580 
Q 1338 1288 1338 2009 
Q 1338 2731 1133 3434 
Q 928 4138 513 4856 
z
" transform="scale(0.015625)"/>
      </defs>
      <use xlink:href="#DejaVuSans-74"/>
      <use xlink:href="#DejaVuSans-68" transform="translate(39.208984 0)"/>
      <use xlink:href="#DejaVuSans-72" transform="translate(102.587891 0)"/>
      <use xlink:href="#DejaVuSans-65" transform="translate(141.451172 0)"/>
      <use xlink:href="#DejaVuSans-73" transform="translate(202.974609 0)"/>
      <use xlink:href="#DejaVuSans-68" transform="translate(255.074219 0)"/>
      <use xlink:href="#DejaVuSans-6f" transform="translate(318.453125 0)"/>
      <use xlink:href="#DejaVuSans-6c" transform="translate(379.634766 0)"/>
      <use xlink:href="#DejaVuSans-64" transform="translate(407.417969 0)"/>
      <use xlink:href="#DejaVuSans-20" transform="translate(470.894531 0)"/>
      <use xlink:href="#DejaVuSans-30" transform="translate(502.681641 0)"/>
      <use xlink:href="#DejaVuSans-2e" transform="translate(566.304688 0)"/>
      <use xlink:href="#DejaVuSans-31" transform="translate(598.091797 0)"/>
      <use xlink:href="#DejaVuSans-20" transform="translate(661.714844 0)"/>
      <use xlink:href="#DejaVuSans-28" transform="translate(693.501953 0)"/>
      <use xlink:href="#DejaVuSans-6d" transform="translate(732.515625 0)"/>
      <use xlink:href="#DejaVuSans-69" transform="translate(829.927734 0)"/>
      <use xlink:href="#DejaVuSans-6c" transform="translate(857.710938 0)"/>
      <use xlink:href="#DejaVuSans-64" transform="translate(885.494141 0)"/>
      <use xlink:href="#DejaVuSans-20" transform="translate(948.970703 0)"/>
      <use xlink:href="#DejaVuSans-64" transform="translate(980.757812 0)"/>
      <use xlink:href="#DejaVuSans-72" transform="translate(1044.234375 0)"/>
      <use xlink:href="#DejaVuSans-69" transform="translate(1085.347656 0)"/>
      <use xlink:href="#DejaVuSans-66" transform="translate(1113.130859 0)"/>
      <use xlink:href="#DejaVuSans-74" transform="translate(1146.585938 0)"/>
      <use xlink:href="#DejaVuSans-29" transform="translate(1185.794922 0)"/>
     </g>
    </g>
    <g id="line2d_33">
     <path d="M 58.24375 89.318906 
L 67.24375 89.318906 
L 76.24375 89.318906 
" style="fill: none; stroke-dasharray: 5.55,2.4; stroke-dashoffset: 0; stroke: #e15759; stroke-width: 1.5"/>
    </g>
    <g id="text_19">
     <!-- threshold 0.2 (strong drift) -->
     <g transform="translate(83.44375 92.468906) scale(0.09 -0.09)">
      <use xlink:href="#DejaVuSans-74"/>
      <use xlink:href="#DejaVuSans-68" transform="translate(39.208984 0)"/>
      <use xlink:href="#DejaVuSans-72" transform="translate(102.587891 0)"/>
      <use xlink:href="#DejaVuSans-65" transform="translate(141.451172 0)"/>
      <use xlink:href="#DejaVuSans-73" transform="translate(202.974609 0)"/>
      <use xlink:href="#DejaVuSans-68" transform="translate(255.074219 0)"/>
      <use xlink:href="#DejaVuSans-6f" transform="translate(318.453125 0)"/>
      <use xlink:href="#DejaVuSans-6c" transform="translate(379.634766 0)"/>
      <use xlink:href="#DejaVuSans-64" transform="translate(407.417969 0)"/>
      <use xlink:href="#DejaVuSans-20" transform="translate(470.894531 0)"/>
      <use xlink:href="#DejaVuSans-30" transform="translate(502.681641 0)"/>
      <use xlink:href="#DejaVuSans-2e" transform="translate(566.304688 0)"/>
      <use xlink:href="#DejaVuSans-32" transform="translate(598.091797 0)"/>
      <use xlink:href="#DejaVuSans-20" transform="translate(661.714844 0)"/>
      <use xlink:href="#DejaVuSans-28" transform="translate(693.501953 0)"/>
      <use xlink:href="#DejaVuSans-73" transform="translate(732.515625 0)"/>
      <use xlink:href="#DejaVuSans-74" transform="translate(784.615234 0)"/>
      <use xlink:href="#DejaVuSans-72" transform="translate(823.824219 0)"/>
      <use xlink:href="#DejaVuSans-6f" transform="translate(862.6875 0)"/>
      <use xlink:href="#DejaVuSans-6e" transform="translate(923.869141 0)"/>
      <use xlink:href="#DejaVuSans-67" transform="translate(987.248047 0)"/>
      <use xlink:href="#DejaVuSans-20" transform="translate(1050.724609 0)"/>
      <use xlink:href="#DejaVuSans-64" transform="translate(1082.511719 0)"/>
      <use xlink:href="#DejaVuSans-72" transform="translate(1145.988281 0)"/>
      <use xlink:href="#DejaVuSans-69" transform="translate(1187.101562 0)"/>
      <use xlink:href="#DejaVuSans-66" transform="translate(1214.884766 0)"/>
      <use xlink:href="#DejaVuSans-74" transform="translate(1248.339844 0)"/>
      <use xlink:href="#DejaVuSans-29" transform="translate(1287.548828 0)"/>
     </g>
    </g>
   </g>
  </g>
  <g id="axes_2">
   <g id="patch_8">
    <path d="M 509.59375 295.72 
L 921.32375 295.72 
L 921.32375 64.32 
L 509.59375 64.32 
z
" style="fill: #ffffff"/>
   </g>
   <g id="matplotlib.axis_3">
    <g id="xtick_8">
     <g id="line2d_34">
      <path d="M 528.30875 295.72 
L 528.30875 64.32 
" clip-path="url(#pb0f777b3ac)" style="fill: none; stroke: #b0b0b0; stroke-opacity: 0.25; stroke-width: 0.8; stroke-linecap: square"/>
     </g>
     <g id="line2d_35">
      <g>
       <use xlink:href="#m1a9cf90c5f" x="528.30875" y="295.72" style="stroke: #000000; stroke-width: 0.8"/>
      </g>
     </g>
     <g id="text_20">
      <!-- 0 -->
      <g transform="translate(525.1275 310.318438) scale(0.1 -0.1)">
       <use xlink:href="#DejaVuSans-30"/>
      </g>
     </g>
    </g>
    <g id="xtick_9">
     <g id="line2d_36">
      <path d="M 591.216313 295.72 
L 591.216313 64.32 
" clip-path="url(#pb0f777b3ac)" style="fill: none; stroke: #b0b0b0; stroke-opacity: 0.25; stroke-width: 0.8; stroke-linecap: square"/>
     </g>
     <g id="line2d_37">
      <g>
       <use xlink:href="#m1a9cf90c5f" x="591.216313" y="295.72" style="stroke: #000000; stroke-width: 0.8"/>
      </g>
     </g>
     <g id="text_21">
      <!-- 20 -->
      <g transform="translate(584.853813 310.318438) scale(0.1 -0.1)">
       <use xlink:href="#DejaVuSans-32"/>
       <use xlink:href="#DejaVuSans-30" transform="translate(63.623047 0)"/>
      </g>
     </g>
    </g>
    <g id="xtick_10">
     <g id="line2d_38">
      <path d="M 654.123876 295.72 
L 654.123876 64.32 
" clip-path="url(#pb0f777b3ac)" style="fill: none; stroke: #b0b0b0; stroke-opacity: 0.25; stroke-width: 0.8; stroke-linecap: square"/>
     </g>
     <g id="line2d_39">
      <g>
       <use xlink:href="#m1a9cf90c5f" x="654.123876" y="295.72" style="stroke: #000000; stroke-width: 0.8"/>
      </g>
     </g>
     <g id="text_22">
      <!-- 40 -->
      <g transform="translate(647.761376 310.318438) scale(0.1 -0.1)">
       <use xlink:href="#DejaVuSans-34"/>
       <use xlink:href="#DejaVuSans-30" transform="translate(63.623047 0)"/>
      </g>
     </g>
    </g>
    <g id="xtick_11">
     <g id="line2d_40">
      <path d="M 717.031439 295.72 
L 717.031439 64.32 
" clip-path="url(#pb0f777b3ac)" style="fill: none; stroke: #b0b0b0; stroke-opacity: 0.25; stroke-width: 0.8; stroke-linecap: square"/>
     </g>
     <g id="line2d_41">
      <g>
       <use xlink:href="#m1a9cf90c5f" x="717.031439" y="295.72" style="stroke: #000000; stroke-width: 0.8"/>
      </g>
     </g>
     <g id="text_23">
      <!-- 60 -->
      <g transform="translate(710.668939 310.318438) scale(0.1 -0.1)">
       <use xlink:href="#DejaVuSans-36"/>
       <use xlink:href="#DejaVuSans-30" transform="translate(63.623047 0)"/>
      </g>
     </g>
    </g>
    <g id="xtick_12">
     <g id="line2d_42">
      <path d="M 779.939002 295.72 
L 779.939002 64.32 
" clip-path="url(#pb0f777b3ac)" style="fill: none; stroke: #b0b0b0; stroke-opacity: 0.25; stroke-width: 0.8; stroke-linecap: square"/>
     </g>
     <g id="line2d_43">
      <g>
       <use xlink:href="#m1a9cf90c5f" x="779.939002" y="295.72" style="stroke: #000000; stroke-width: 0.8"/>
      </g>
     </g>
     <g id="text_24">
      <!-- 80 -->
      <g transform="translate(773.576502 310.318438) scale(0.1 -0.1)">
       <use xlink:href="#DejaVuSans-38"/>
       <use xlink:href="#DejaVuSans-30" transform="translate(63.623047 0)"/>
      </g>
     </g>
    </g>
    <g id="xtick_13">
     <g id="line2d_44">
      <path d="M 842.846565 295.72 
L 842.846565 64.32 
" clip-path="url(#pb0f777b3ac)" style="fill: none; stroke: #b0b0b0; stroke-opacity: 0.25; stroke-width: 0.8; stroke-linecap: square"/>
     </g>
     <g id="line2d_45">
      <g>
       <use xlink:href="#m1a9cf90c5f" x="842.846565" y="295.72" style="stroke: #000000; stroke-width: 0.8"/>
      </g>
     </g>
     <g id="text_25">
      <!-- 100 -->
      <g transform="translate(833.302815 310.318438) scale(0.1 -0.1)">
       <use xlink:href="#DejaVuSans-31"/>
       <use xlink:href="#DejaVuSans-30" transform="translate(63.623047 0)"/>
       <use xlink:href="#DejaVuSans-30" transform="translate(127.246094 0)"/>
      </g>
     </g>
    </g>
    <g id="xtick_14">
     <g id="line2d_46">
      <path d="M 905.754128 295.72 
L 905.754128 64.32 
" clip-path="url(#pb0f777b3ac)" style="fill: none; stroke: #b0b0b0; stroke-opacity: 0.25; stroke-width: 0.8; stroke-linecap: square"/>
     </g>
     <g id="line2d_47">
      <g>
       <use xlink:href="#m1a9cf90c5f" x="905.754128" y="295.72" style="stroke: #000000; stroke-width: 0.8"/>
      </g>
     </g>
     <g id="text_26">
      <!-- 120 -->
      <g transform="translate(896.210378 310.318438) scale(0.1 -0.1)">
       <use xlink:href="#DejaVuSans-31"/>
       <use xlink:href="#DejaVuSans-32" transform="translate(63.623047 0)"/>
       <use xlink:href="#DejaVuSans-30" transform="translate(127.246094 0)"/>
      </g>
     </g>
    </g>
    <g id="text_27">
     <!-- day -->
     <g transform="translate(706.261094 323.996562) scale(0.1 -0.1)">
      <use xlink:href="#DejaVuSans-64"/>
      <use xlink:href="#DejaVuSans-61" transform="translate(63.476562 0)"/>
      <use xlink:href="#DejaVuSans-79" transform="translate(124.755859 0)"/>
     </g>
    </g>
   </g>
   <g id="matplotlib.axis_4">
    <g id="ytick_8">
     <g id="line2d_48">
      <path d="M 509.59375 287.659893 
L 921.32375 287.659893 
" clip-path="url(#pb0f777b3ac)" style="fill: none; stroke: #b0b0b0; stroke-opacity: 0.25; stroke-width: 0.8; stroke-linecap: square"/>
     </g>
     <g id="line2d_49">
      <g>
       <use xlink:href="#m732b883444" x="509.59375" y="287.659893" style="stroke: #000000; stroke-width: 0.8"/>
      </g>
     </g>
     <g id="text_28">
      <!-- 0.0 -->
      <g transform="translate(486.690625 291.459111) scale(0.1 -0.1)">
       <use xlink:href="#DejaVuSans-30"/>
       <use xlink:href="#DejaVuSans-2e" transform="translate(63.623047 0)"/>
       <use xlink:href="#DejaVuSans-30" transform="translate(95.410156 0)"/>
      </g>
     </g>
    </g>
    <g id="ytick_9">
     <g id="line2d_50">
      <path d="M 509.59375 261.286058 
L 921.32375 261.286058 
" clip-path="url(#pb0f777b3ac)" style="fill: none; stroke: #b0b0b0; stroke-opacity: 0.25; stroke-width: 0.8; stroke-linecap: square"/>
     </g>
     <g id="line2d_51">
      <g>
       <use xlink:href="#m732b883444" x="509.59375" y="261.286058" style="stroke: #000000; stroke-width: 0.8"/>
      </g>
     </g>
     <g id="text_29">
      <!-- 0.1 -->
      <g transform="translate(486.690625 265.085277) scale(0.1 -0.1)">
       <use xlink:href="#DejaVuSans-30"/>
       <use xlink:href="#DejaVuSans-2e" transform="translate(63.623047 0)"/>
       <use xlink:href="#DejaVuSans-31" transform="translate(95.410156 0)"/>
      </g>
     </g>
    </g>
    <g id="ytick_10">
     <g id="line2d_52">
      <path d="M 509.59375 234.912224 
L 921.32375 234.912224 
" clip-path="url(#pb0f777b3ac)" style="fill: none; stroke: #b0b0b0; stroke-opacity: 0.25; stroke-width: 0.8; stroke-linecap: square"/>
     </g>
     <g id="line2d_53">
      <g>
       <use xlink:href="#m732b883444" x="509.59375" y="234.912224" style="stroke: #000000; stroke-width: 0.8"/>
      </g>
     </g>
     <g id="text_30">
      <!-- 0.2 -->
      <g transform="translate(486.690625 238.711443) scale(0.1 -0.1)">
       <use xlink:href="#DejaVuSans-30"/>
       <use xlink:href="#DejaVuSans-2e" transform="translate(63.623047 0)"/>
       <use xlink:href="#DejaVuSans-32" transform="translate(95.410156 0)"/>
      </g>
     </g>
    </g>
    <g id="ytick_11">
     <g id="line2d_54">
      <path d="M 509.59375 208.53839 
L 921.32375 208.53839 
" clip-path="url(#pb0f777b3ac)" style="fill: none; stroke: #b0b0b0; stroke-opacity: 0.25; stroke-width: 0.8; stroke-linecap: square"/>
     </g>
     <g id="line2d_55">
      <g>
       <use xlink:href="#m732b883444" x="509.59375" y="208.53839" style="stroke: #000000; stroke-width: 0.8"/>
      </g>
     </g>
     <g id="text_31">
      <!-- 0.3 -->
      <g transform="translate(486.690625 212.337608) scale(0.1 -0.1)">
       <use xlink:href="#DejaVuSans-30"/>
       <use xlink:href="#DejaVuSans-2e" transform="translate(63.623047 0)"/>
       <use xlink:href="#DejaVuSans-33" transform="translate(95.410156 0)"/>
      </g>
     </g>
    </g>
    <g id="ytick_12">
     <g id="line2d_56">
      <path d="M 509.59375 182.164555 
L 921.32375 182.164555 
" clip-path="url(#pb0f777b3ac)" style="fill: none; stroke: #b0b0b0; stroke-opacity: 0.25; stroke-width: 0.8; stroke-linecap: square"/>
     </g>
     <g id="line2d_57">
      <g>
       <use xlink:href="#m732b883444" x="509.59375" y="182.164555" style="stroke: #000000; stroke-width: 0.8"/>
      </g>
     </g>
     <g id="text_32">
      <!-- 0.4 -->
      <g transform="translate(486.690625 185.963774) scale(0.1 -0.1)">
       <use xlink:href="#DejaVuSans-30"/>
       <use xlink:href="#DejaVuSans-2e" transform="translate(63.623047 0)"/>
       <use xlink:href="#DejaVuSans-34" transform="translate(95.410156 0)"/>
      </g>
     </g>
    </g>
    <g id="ytick_13">
     <g id="line2d_58">
      <path d="M 509.59375 155.790721 
L 921.32375 155.790721 
" clip-path="url(#pb0f777b3ac)" style="fill: none; stroke: #b0b0b0; stroke-opacity: 0.25; stroke-width: 0.8; stroke-linecap: square"/>
     </g>
     <g id="line2d_59">
      <g>
       <use xlink:href="#m732b883444" x="509.59375" y="155.790721" style="stroke: #000000; stroke-width: 0.8"/>
      </g>
     </g>
     <g id="text_33">
      <!-- 0.5 -->
      <g transform="translate(486.690625 159.58994) scale(0.1 -0.1)">
       <use xlink:href="#DejaVuSans-30"/>
       <use xlink:href="#DejaVuSans-2e" transform="translate(63.623047 0)"/>
       <use xlink:href="#DejaVuSans-35" transform="translate(95.410156 0)"/>
      </g>
     </g>
    </g>
    <g id="ytick_14">
     <g id="line2d_60">
      <path d="M 509.59375 129.416887 
L 921.32375 129.416887 
" clip-path="url(#pb0f777b3ac)" style="fill: none; stroke: #b0b0b0; stroke-opacity: 0.25; stroke-width: 0.8; stroke-linecap: square"/>
     </g>
     <g id="line2d_61">
      <g>
       <use xlink:href="#m732b883444" x="509.59375" y="129.416887" style="stroke: #000000; stroke-width: 0.8"/>
      </g>
     </g>
     <g id="text_34">
      <!-- 0.6 -->
      <g transform="translate(486.690625 133.216105) scale(0.1 -0.1)">
       <use xlink:href="#DejaVuSans-30"/>
       <use xlink:href="#DejaVuSans-2e" transform="translate(63.623047 0)"/>
       <use xlink:href="#DejaVuSans-36" transform="translate(95.410156 0)"/>
      </g>
     </g>
    </g>
    <g id="ytick_15">
     <g id="line2d_62">
      <path d="M 509.59375 103.043052 
L 921.32375 103.043052 
" clip-path="url(#pb0f777b3ac)" style="fill: none; stroke: #b0b0b0; stroke-opacity: 0.25; stroke-width: 0.8; stroke-linecap: square"/>
     </g>
     <g id="line2d_63">
      <g>
       <use xlink:href="#m732b883444" x="509.59375" y="103.043052" style="stroke: #000000; stroke-width: 0.8"/>
      </g>
     </g>
     <g id="text_35">
      <!-- 0.7 -->
      <g transform="translate(486.690625 106.842271) scale(0.1 -0.1)">
       <defs>
        <path id="DejaVuSans-37" d="M 525 4666 
L 3525 4666 
L 3525 4397 
L 1831 0 
L 1172 0 
L 2766 4134 
L 525 4134 
L 525 4666 
z
" transform="scale(0.015625)"/>
       </defs>
       <use xlink:href="#DejaVuSans-30"/>
       <use xlink:href="#DejaVuSans-2e" transform="translate(63.623047 0)"/>
       <use xlink:href="#DejaVuSans-37" transform="translate(95.410156 0)"/>
      </g>
     </g>
    </g>
    <g id="ytick_16">
     <g id="line2d_64">
      <path d="M 509.59375 76.669218 
L 921.32375 76.669218 
" clip-path="url(#pb0f777b3ac)" style="fill: none; stroke: #b0b0b0; stroke-opacity: 0.25; stroke-width: 0.8; stroke-linecap: square"/>
     </g>
     <g id="line2d_65">
      <g>
       <use xlink:href="#m732b883444" x="509.59375" y="76.669218" style="stroke: #000000; stroke-width: 0.8"/>
      </g>
     </g>
     <g id="text_36">
      <!-- 0.8 -->
      <g transform="translate(486.690625 80.468437) scale(0.1 -0.1)">
       <use xlink:href="#DejaVuSans-30"/>
       <use xlink:href="#DejaVuSans-2e" transform="translate(63.623047 0)"/>
       <use xlink:href="#DejaVuSans-38" transform="translate(95.410156 0)"/>
      </g>
     </g>
    </g>
    <g id="text_37">
     <!-- PSI -->
     <g transform="translate(480.610938 187.684062) rotate(-90) scale(0.1 -0.1)">
      <defs>
       <path id="DejaVuSans-50" d="M 1259 4147 
L 1259 2394 
L 2053 2394 
Q 2494 2394 2734 2622 
Q 2975 2850 2975 3272 
Q 2975 3691 2734 3919 
Q 2494 4147 2053 4147 
L 1259 4147 
z
M 628 4666 
L 2053 4666 
Q 2838 4666 3239 4311 
Q 3641 3956 3641 3272 
Q 3641 2581 3239 2228 
Q 2838 1875 2053 1875 
L 1259 1875 
L 1259 0 
L 628 0 
L 628 4666 
z
" transform="scale(0.015625)"/>
       <path id="DejaVuSans-49" d="M 628 4666 
L 1259 4666 
L 1259 0 
L 628 0 
L 628 4666 
z
" transform="scale(0.015625)"/>
      </defs>
      <use xlink:href="#DejaVuSans-50"/>
      <use xlink:href="#DejaVuSans-53" transform="translate(60.302734 0)"/>
      <use xlink:href="#DejaVuSans-49" transform="translate(123.779297 0)"/>
     </g>
    </g>
   </g>
   <g id="line2d_66">
    <path d="M 528.30875 285.201818 
L 531.454128 269.276297 
L 534.599506 279.205882 
L 537.744884 252.916407 
L 540.890263 273.887056 
L 544.035641 266.650944 
L 547.181019 277.30667 
L 550.326397 279.5919 
L 553.471775 280.267944 
L 556.617153 277.122917 
L 559.762532 282.600222 
L 562.90791 283.473514 
L 566.053288 259.34346 
L 569.198666 265.246713 
L 572.344044 277.992387 
L 575.489422 264.996048 
L 578.6348 277.981248 
L 581.780179 268.044733 
L 584.925557 276.406633 
L 588.070935 276.038849 
L 591.216313 281.313825 
L 594.361691 269.60423 
L 597.507069 258.374724 
L 600.652447 267.372334 
L 603.797826 274.786398 
L 606.943204 274.684286 
L 610.088582 273.921122 
L 613.23396 281.095896 
L 616.379338 278.595108 
L 619.524716 282.742956 
L 622.670095 272.91386 
L 625.815473 277.246329 
L 628.960851 271.435766 
L 632.106229 278.967762 
L 635.251607 270.430804 
L 638.396985 271.579819 
L 641.542363 277.122917 
L 644.687742 257.928112 
L 647.83312 280.374773 
L 650.978498 272.888988 
L 654.123876 277.619988 
L 657.269254 269.683451 
L 660.414632 282.556102 
L 663.560011 282.388089 
L 666.705389 268.536707 
L 669.850767 282.926798 
L 672.996145 270.206366 
L 676.141523 269.576815 
L 679.286901 284.500414 
L 682.432279 268.107605 
L 685.577658 279.717657 
L 688.723036 270.758832 
L 691.868414 265.032906 
L 695.013792 269.110472 
L 698.15917 278.632344 
L 701.304548 273.338 
L 704.449926 282.422511 
L 707.595305 274.053067 
L 710.740683 282.408483 
L 713.886061 281.561435 
L 717.031439 279.799078 
L 720.176817 275.083768 
L 723.322195 274.539652 
L 726.467574 279.54663 
L 729.612952 266.656775 
L 732.75833 254.325787 
L 735.903708 282.912134 
L 739.049086 278.666743 
L 742.194464 274.974715 
L 745.339842 260.785812 
L 748.485221 276.433837 
L 751.630599 272.581098 
L 754.775977 274.688534 
L 757.921355 274.507999 
L 761.066733 251.329032 
L 764.212111 257.355097 
L 767.357489 270.767617 
L 770.502868 243.702206 
L 773.648246 255.228366 
L 776.793624 255.034647 
L 779.939002 222.587708 
L 783.08438 248.414039 
L 786.229758 243.645428 
L 789.375137 243.343636 
L 792.520515 194.634891 
L 795.665893 246.880421 
L 798.811271 245.241313 
L 801.956649 242.644428 
L 805.102027 240.974097 
L 808.247405 220.732132 
L 811.392784 225.310856 
L 814.538162 239.587806 
L 817.68354 216.199182 
L 820.828918 206.792828 
L 823.974296 196.532721 
L 827.119674 206.601501 
L 830.265053 210.010211 
L 833.410431 219.859774 
L 836.555809 194.782352 
L 839.701187 203.568193 
L 842.846565 196.946149 
L 845.991943 150.585275 
L 849.137321 147.157312 
L 852.2827 152.766946 
L 855.428078 141.871846 
L 858.573456 165.213445 
L 861.718834 206.80178 
L 864.864212 129.003679 
L 868.00959 186.989539 
L 871.154968 144.3234 
L 874.300347 154.995603 
L 877.445725 138.937832 
L 880.591103 119.046803 
L 883.736481 88.386839 
L 886.881859 95.792472 
L 890.027237 75.976356 
L 893.172616 119.719662 
L 896.317994 74.838182 
L 899.463372 121.804126 
L 902.60875 113.813691 
" clip-path="url(#pb0f777b3ac)" style="fill: none; stroke: #e15759; stroke-width: 2; stroke-linecap: square"/>
   </g>
   <g id="line2d_67">
    <path d="M 509.59375 261.286058 
L 921.32375 261.286058 
" clip-path="url(#pb0f777b3ac)" style="fill: none; stroke-dasharray: 5.55,2.4; stroke-dashoffset: 0; stroke: #f28e2b; stroke-width: 1.5"/>
   </g>
   <g id="line2d_68">
    <path d="M 509.59375 221.725307 
L 921.32375 221.725307 
" clip-path="url(#pb0f777b3ac)" style="fill: none; stroke-dasharray: 5.55,2.4; stroke-dashoffset: 0; stroke: #e15759; stroke-width: 1.5"/>
   </g>
   <g id="patch_9">
    <path d="M 509.59375 295.72 
L 509.59375 64.32 
" style="fill: none; stroke: #000000; stroke-width: 0.8; stroke-linejoin: miter; stroke-linecap: square"/>
   </g>
   <g id="patch_10">
    <path d="M 921.32375 295.72 
L 921.32375 64.32 
" style="fill: none; stroke: #000000; stroke-width: 0.8; stroke-linejoin: miter; stroke-linecap: square"/>
   </g>
   <g id="patch_11">
    <path d="M 509.59375 295.72 
L 921.32375 295.72 
" style="fill: none; stroke: #000000; stroke-width: 0.8; stroke-linejoin: miter; stroke-linecap: square"/>
   </g>
   <g id="patch_12">
    <path d="M 509.59375 64.32 
L 921.32375 64.32 
" style="fill: none; stroke: #000000; stroke-width: 0.8; stroke-linejoin: miter; stroke-linecap: square"/>
   </g>
   <g id="text_38">
    <!-- Population Stability Index -->
    <g transform="translate(639.054375 58.32) scale(0.12 -0.12)">
     <defs>
      <path id="DejaVuSans-70" d="M 1159 525 
L 1159 -1331 
L 581 -1331 
L 581 3500 
L 1159 3500 
L 1159 2969 
Q 1341 3281 1617 3432 
Q 1894 3584 2278 3584 
Q 2916 3584 3314 3078 
Q 3713 2572 3713 1747 
Q 3713 922 3314 415 
Q 2916 -91 2278 -91 
Q 1894 -91 1617 61 
Q 1341 213 1159 525 
z
M 3116 1747 
Q 3116 2381 2855 2742 
Q 2594 3103 2138 3103 
Q 1681 3103 1420 2742 
Q 1159 2381 1159 1747 
Q 1159 1113 1420 752 
Q 1681 391 2138 391 
Q 2594 391 2855 752 
Q 3116 1113 3116 1747 
z
" transform="scale(0.015625)"/>
      <path id="DejaVuSans-78" d="M 3513 3500 
L 2247 1797 
L 3578 0 
L 2900 0 
L 1881 1375 
L 863 0 
L 184 0 
L 1544 1831 
L 300 3500 
L 978 3500 
L 1906 2253 
L 2834 3500 
L 3513 3500 
z
" transform="scale(0.015625)"/>
     </defs>
     <use xlink:href="#DejaVuSans-50"/>
     <use xlink:href="#DejaVuSans-6f" transform="translate(56.677734 0)"/>
     <use xlink:href="#DejaVuSans-70" transform="translate(117.859375 0)"/>
     <use xlink:href="#DejaVuSans-75" transform="translate(181.335938 0)"/>
     <use xlink:href="#DejaVuSans-6c" transform="translate(244.714844 0)"/>
     <use xlink:href="#DejaVuSans-61" transform="translate(272.498047 0)"/>
     <use xlink:href="#DejaVuSans-74" transform="translate(333.777344 0)"/>
     <use xlink:href="#DejaVuSans-69" transform="translate(372.986328 0)"/>
     <use xlink:href="#DejaVuSans-6f" transform="translate(400.769531 0)"/>
     <use xlink:href="#DejaVuSans-6e" transform="translate(461.951172 0)"/>
     <use xlink:href="#DejaVuSans-20" transform="translate(525.330078 0)"/>
     <use xlink:href="#DejaVuSans-53" transform="translate(557.117188 0)"/>
     <use xlink:href="#DejaVuSans-74" transform="translate(620.59375 0)"/>
     <use xlink:href="#DejaVuSans-61" transform="translate(659.802734 0)"/>
     <use xlink:href="#DejaVuSans-62" transform="translate(721.082031 0)"/>
     <use xlink:href="#DejaVuSans-69" transform="translate(784.558594 0)"/>
     <use xlink:href="#DejaVuSans-6c" transform="translate(812.341797 0)"/>
     <use xlink:href="#DejaVuSans-69" transform="translate(840.125 0)"/>
     <use xlink:href="#DejaVuSans-74" transform="translate(867.908203 0)"/>
     <use xlink:href="#DejaVuSans-79" transform="translate(907.117188 0)"/>
     <use xlink:href="#DejaVuSans-20" transform="translate(966.296875 0)"/>
     <use xlink:href="#DejaVuSans-49" transform="translate(998.083984 0)"/>
     <use xlink:href="#DejaVuSans-6e" transform="translate(1027.576172 0)"/>
     <use xlink:href="#DejaVuSans-64" transform="translate(1090.955078 0)"/>
     <use xlink:href="#DejaVuSans-65" transform="translate(1154.431641 0)"/>
     <use xlink:href="#DejaVuSans-78" transform="translate(1214.205078 0)"/>
    </g>
   </g>
   <g id="legend_2">
    <g id="patch_13">
     <path d="M 515.89375 97.940625 
L 627.6625 97.940625 
Q 629.4625 97.940625 629.4625 96.140625 
L 629.4625 70.62 
Q 629.4625 68.82 627.6625 68.82 
L 515.89375 68.82 
Q 514.09375 68.82 514.09375 70.62 
L 514.09375 96.140625 
Q 514.09375 97.940625 515.89375 97.940625 
z
" style="fill: #ffffff; opacity: 0.8; stroke: #cccccc; stroke-linejoin: miter"/>
    </g>
    <g id="line2d_69">
     <path d="M 517.69375 76.108594 
L 526.69375 76.108594 
L 535.69375 76.108594 
" style="fill: none; stroke-dasharray: 5.55,2.4; stroke-dashoffset: 0; stroke: #f28e2b; stroke-width: 1.5"/>
    </g>
    <g id="text_39">
     <!-- PSI = 0.1 (minor) -->
     <g transform="translate(542.89375 79.258594) scale(0.09 -0.09)">
      <defs>
       <path id="DejaVuSans-3d" d="M 678 2906 
L 4684 2906 
L 4684 2381 
L 678 2381 
L 678 2906 
z
M 678 1631 
L 4684 1631 
L 4684 1100 
L 678 1100 
L 678 1631 
z
" transform="scale(0.015625)"/>
      </defs>
      <use xlink:href="#DejaVuSans-50"/>
      <use xlink:href="#DejaVuSans-53" transform="translate(60.302734 0)"/>
      <use xlink:href="#DejaVuSans-49" transform="translate(123.779297 0)"/>
      <use xlink:href="#DejaVuSans-20" transform="translate(153.271484 0)"/>
      <use xlink:href="#DejaVuSans-3d" transform="translate(185.058594 0)"/>
      <use xlink:href="#DejaVuSans-20" transform="translate(268.847656 0)"/>
      <use xlink:href="#DejaVuSans-30" transform="translate(300.634766 0)"/>
      <use xlink:href="#DejaVuSans-2e" transform="translate(364.257812 0)"/>
      <use xlink:href="#DejaVuSans-31" transform="translate(396.044922 0)"/>
      <use xlink:href="#DejaVuSans-20" transform="translate(459.667969 0)"/>
      <use xlink:href="#DejaVuSans-28" transform="translate(491.455078 0)"/>
      <use xlink:href="#DejaVuSans-6d" transform="translate(530.46875 0)"/>
      <use xlink:href="#DejaVuSans-69" transform="translate(627.880859 0)"/>
      <use xlink:href="#DejaVuSans-6e" transform="translate(655.664062 0)"/>
      <use xlink:href="#DejaVuSans-6f" transform="translate(719.042969 0)"/>
      <use xlink:href="#DejaVuSans-72" transform="translate(780.224609 0)"/>
      <use xlink:href="#DejaVuSans-29" transform="translate(821.337891 0)"/>
     </g>
    </g>
    <g id="line2d_70">
     <path d="M 517.69375 89.318906 
L 526.69375 89.318906 
L 535.69375 89.318906 
" style="fill: none; stroke-dasharray: 5.55,2.4; stroke-dashoffset: 0; stroke: #e15759; stroke-width: 1.5"/>
    </g>
    <g id="text_40">
     <!-- PSI = 0.25 (major) -->
     <g transform="translate(542.89375 92.468906) scale(0.09 -0.09)">
      <defs>
       <path id="DejaVuSans-6a" d="M 603 3500 
L 1178 3500 
L 1178 -63 
Q 1178 -731 923 -1031 
Q 669 -1331 103 -1331 
L -116 -1331 
L -116 -844 
L 38 -844 
Q 366 -844 484 -692 
Q 603 -541 603 -63 
L 603 3500 
z
M 603 4863 
L 1178 4863 
L 1178 4134 
L 603 4134 
L 603 4863 
z
" transform="scale(0.015625)"/>
      </defs>
      <use xlink:href="#DejaVuSans-50"/>
      <use xlink:href="#DejaVuSans-53" transform="translate(60.302734 0)"/>
      <use xlink:href="#DejaVuSans-49" transform="translate(123.779297 0)"/>
      <use xlink:href="#DejaVuSans-20" transform="translate(153.271484 0)"/>
      <use xlink:href="#DejaVuSans-3d" transform="translate(185.058594 0)"/>
      <use xlink:href="#DejaVuSans-20" transform="translate(268.847656 0)"/>
      <use xlink:href="#DejaVuSans-30" transform="translate(300.634766 0)"/>
      <use xlink:href="#DejaVuSans-2e" transform="translate(364.257812 0)"/>
      <use xlink:href="#DejaVuSans-32" transform="translate(396.044922 0)"/>
      <use xlink:href="#DejaVuSans-35" transform="translate(459.667969 0)"/>
      <use xlink:href="#DejaVuSans-20" transform="translate(523.291016 0)"/>
      <use xlink:href="#DejaVuSans-28" transform="translate(555.078125 0)"/>
      <use xlink:href="#DejaVuSans-6d" transform="translate(594.091797 0)"/>
      <use xlink:href="#DejaVuSans-61" transform="translate(691.503906 0)"/>
      <use xlink:href="#DejaVuSans-6a" transform="translate(752.783203 0)"/>
      <use xlink:href="#DejaVuSans-6f" transform="translate(780.566406 0)"/>
      <use xlink:href="#DejaVuSans-72" transform="translate(841.748047 0)"/>
      <use xlink:href="#DejaVuSans-29" transform="translate(882.861328 0)"/>
     </g>
    </g>
   </g>
  </g>
  <g id="text_41">
   <!-- Input drift monitoring picks up the shift before accuracy collapses -->
   <g transform="translate(266.470625 16.318125) scale(0.12 -0.12)">
    <defs>
     <path id="DejaVuSans-6b" d="M 581 4863 
L 1159 4863 
L 1159 1991 
L 2875 3500 
L 3609 3500 
L 1753 1863 
L 3688 0 
L 2938 0 
L 1159 1709 
L 1159 0 
L 581 0 
L 581 4863 
z
" transform="scale(0.015625)"/>
    </defs>
    <use xlink:href="#DejaVuSans-49"/>
    <use xlink:href="#DejaVuSans-6e" transform="translate(29.492188 0)"/>
    <use xlink:href="#DejaVuSans-70" transform="translate(92.871094 0)"/>
    <use xlink:href="#DejaVuSans-75" transform="translate(156.347656 0)"/>
    <use xlink:href="#DejaVuSans-74" transform="translate(219.726562 0)"/>
    <use xlink:href="#DejaVuSans-20" transform="translate(258.935547 0)"/>
    <use xlink:href="#DejaVuSans-64" transform="translate(290.722656 0)"/>
    <use xlink:href="#DejaVuSans-72" transform="translate(354.199219 0)"/>
    <use xlink:href="#DejaVuSans-69" transform="translate(395.3125 0)"/>
    <use xlink:href="#DejaVuSans-66" transform="translate(423.095703 0)"/>
    <use xlink:href="#DejaVuSans-74" transform="translate(456.550781 0)"/>
    <use xlink:href="#DejaVuSans-20" transform="translate(495.759766 0)"/>
    <use xlink:href="#DejaVuSans-6d" transform="translate(527.546875 0)"/>
    <use xlink:href="#DejaVuSans-6f" transform="translate(624.958984 0)"/>
    <use xlink:href="#DejaVuSans-6e" transform="translate(686.140625 0)"/>
    <use xlink:href="#DejaVuSans-69" transform="translate(749.519531 0)"/>
    <use xlink:href="#DejaVuSans-74" transform="translate(777.302734 0)"/>
    <use xlink:href="#DejaVuSans-6f" transform="translate(816.511719 0)"/>
    <use xlink:href="#DejaVuSans-72" transform="translate(877.693359 0)"/>
    <use xlink:href="#DejaVuSans-69" transform="translate(918.806641 0)"/>
    <use xlink:href="#DejaVuSans-6e" transform="translate(946.589844 0)"/>
    <use xlink:href="#DejaVuSans-67" transform="translate(1009.96875 0)"/>
    <use xlink:href="#DejaVuSans-20" transform="translate(1073.445312 0)"/>
    <use xlink:href="#DejaVuSans-70" transform="translate(1105.232422 0)"/>
    <use xlink:href="#DejaVuSans-69" transform="translate(1168.708984 0)"/>
    <use xlink:href="#DejaVuSans-63" transform="translate(1196.492188 0)"/>
    <use xlink:href="#DejaVuSans-6b" transform="translate(1251.472656 0)"/>
    <use xlink:href="#DejaVuSans-73" transform="translate(1309.382812 0)"/>
    <use xlink:href="#DejaVuSans-20" transform="translate(1361.482422 0)"/>
    <use xlink:href="#DejaVuSans-75" transform="translate(1393.269531 0)"/>
    <use xlink:href="#DejaVuSans-70" transform="translate(1456.648438 0)"/>
    <use xlink:href="#DejaVuSans-20" transform="translate(1520.125 0)"/>
    <use xlink:href="#DejaVuSans-74" transform="translate(1551.912109 0)"/>
    <use xlink:href="#DejaVuSans-68" transform="translate(1591.121094 0)"/>
    <use xlink:href="#DejaVuSans-65" transform="translate(1654.5 0)"/>
    <use xlink:href="#DejaVuSans-20" transform="translate(1716.023438 0)"/>
    <use xlink:href="#DejaVuSans-73" transform="translate(1747.810547 0)"/>
    <use xlink:href="#DejaVuSans-68" transform="translate(1799.910156 0)"/>
    <use xlink:href="#DejaVuSans-69" transform="translate(1863.289062 0)"/>
    <use xlink:href="#DejaVuSans-66" transform="translate(1891.072266 0)"/>
    <use xlink:href="#DejaVuSans-74" transform="translate(1924.527344 0)"/>
    <use xlink:href="#DejaVuSans-20" transform="translate(1963.736328 0)"/>
    <use xlink:href="#DejaVuSans-62" transform="translate(1995.523438 0)"/>
    <use xlink:href="#DejaVuSans-65" transform="translate(2059 0)"/>
    <use xlink:href="#DejaVuSans-66" transform="translate(2120.523438 0)"/>
    <use xlink:href="#DejaVuSans-6f" transform="translate(2155.728516 0)"/>
    <use xlink:href="#DejaVuSans-72" transform="translate(2216.910156 0)"/>
    <use xlink:href="#DejaVuSans-65" transform="translate(2255.773438 0)"/>
    <use xlink:href="#DejaVuSans-20" transform="translate(2317.296875 0)"/>
    <use xlink:href="#DejaVuSans-61" transform="translate(2349.083984 0)"/>
    <use xlink:href="#DejaVuSans-63" transform="translate(2410.363281 0)"/>
    <use xlink:href="#DejaVuSans-63" transform="translate(2465.34375 0)"/>
    <use xlink:href="#DejaVuSans-75" transform="translate(2520.324219 0)"/>
    <use xlink:href="#DejaVuSans-72" transform="translate(2583.703125 0)"/>
    <use xlink:href="#DejaVuSans-61" transform="translate(2624.816406 0)"/>
    <use xlink:href="#DejaVuSans-63" transform="translate(2686.095703 0)"/>
    <use xlink:href="#DejaVuSans-79" transform="translate(2741.076172 0)"/>
    <use xlink:href="#DejaVuSans-20" transform="translate(2800.255859 0)"/>
    <use xlink:href="#DejaVuSans-63" transform="translate(2832.042969 0)"/>
    <use xlink:href="#DejaVuSans-6f" transform="translate(2887.023438 0)"/>
    <use xlink:href="#DejaVuSans-6c" transform="translate(2948.205078 0)"/>
    <use xlink:href="#DejaVuSans-6c" transform="translate(2975.988281 0)"/>
    <use xlink:href="#DejaVuSans-61" transform="translate(3003.771484 0)"/>
    <use xlink:href="#DejaVuSans-70" transform="translate(3065.050781 0)"/>
    <use xlink:href="#DejaVuSans-73" transform="translate(3128.527344 0)"/>
    <use xlink:href="#DejaVuSans-65" transform="translate(3180.626953 0)"/>
    <use xlink:href="#DejaVuSans-73" transform="translate(3242.150391 0)"/>
   </g>
  </g>
 </g>
 <defs>
  <clipPath id="pef32d24595">
   <rect x="50.14375" y="64.32" width="411.73" height="231.4"/>
  </clipPath>
  <clipPath id="pb0f777b3ac">
   <rect x="509.59375" y="64.32" width="411.73" height="231.4"/>
  </clipPath>
 </defs>
</svg>
