<?xml version="1.0" encoding="utf-8" standalone="no"?>
<!DOCTYPE svg PUBLIC "-//W3C//DTD SVG 1.1//EN"
  "http://www.w3.org/Graphics/SVG/1.1/DTD/svg11.dtd">
<svg xmlns:xlink="http://www.w3.org/1999/xlink" width="784.8pt" height="315.034375pt" viewBox="0 0 784.8 315.034375" xmlns="http://www.w3.org/2000/svg" version="1.1">
 <metadata>
  <rdf:RDF xmlns:dc="http://purl.org/dc/elements/1.1/" xmlns:cc="http://creativecommons.org/ns#" xmlns:rdf="http://www.w3.org/1999/02/22-rdf-syntax-ns#">
   <cc:Work>
    <dc:type rdf:resource="http://purl.org/dc/dcmitype/StillImage"/>
    <dc:date>2026-05-26T11:35:10.855925</dc:date>
    <dc:format>image/svg+xml</dc:format>
    <dc:creator>
     <cc:Agent>
      <dc:title>Matplotlib v3.10.8, https://matplotlib.org/</dc:title>
     </cc:Agent>
    </dc:creator>
   </cc:Work>
  </rdf:RDF>
 </metadata>
 <defs>
  <style type="text/css">*{stroke-linejoin: round; stroke-linecap: butt}</style>
 </defs>
 <g id="figure_1">
  <g id="patch_1">
   <path d="M 0 315.034375 
L 784.8 315.034375 
L 784.8 0 
L 0 0 
z
" style="fill: #ffffff"/>
  </g>
  <g id="axes_1">
   <g id="patch_2">
    <path d="M 7.2 277.478125 
L 777.6 277.478125 
L 777.6 22.318125 
L 7.2 22.318125 
z
" style="fill: #ffffff"/>
   </g>
   <g id="matplotlib.axis_1">
    <g id="xtick_1">
     <g id="line2d_1">
      <defs>
       <path id="m4a09c8781d" d="M 0 0 
L 0 3.5 
" style="stroke: #000000; stroke-width: 0.8"/>
      </defs>
      <g>
       <use xlink:href="#m4a09c8781d" x="264" y="277.478125" style="stroke: #000000; stroke-width: 0.8"/>
      </g>
     </g>
     <g id="text_1">
      <!-- t=0 -->
      <g transform="translate(254.66875 292.076563) scale(0.1 -0.1)">
       <defs>
        <path id="DejaVuSans-74" d="M 1172 4494 
L 1172 3500 
L 2356 3500 
L 2356 3053 
L 1172 3053 
L 1172 1153 
Q 1172 725 1289 603 
Q 1406 481 1766 481 
L 2356 481 
L 2356 0 
L 1766 0 
Q 1100 0 847 248 
Q 594 497 594 1153 
L 594 3053 
L 172 3053 
L 172 3500 
L 594 3500 
L 594 4494 
L 1172 4494 
z
" transform="scale(0.015625)"/>
        <path id="DejaVuSans-3d" d="M 678 2906 
L 4684 2906 
L 4684 2381 
L 678 2381 
L 678 2906 
z
M 678 1631 
L 4684 1631 
L 4684 1100 
L 678 1100 
L 678 1631 
z
" transform="scale(0.015625)"/>
        <path id="DejaVuSans-30" d="M 2034 4250 
Q 1547 4250 1301 3770 
Q 1056 3291 1056 2328 
Q 1056 1369 1301 889 
Q 1547 409 2034 409 
Q 2525 409 2770 889 
Q 3016 1369 3016 2328 
Q 3016 3291 2770 3770 
Q 2525 4250 2034 4250 
z
M 2034 4750 
Q 2819 4750 3233 4129 
Q 3647 3509 3647 2328 
Q 3647 1150 3233 529 
Q 2819 -91 2034 -91 
Q 1250 -91 836 529 
Q 422 1150 422 2328 
Q 422 3509 836 4129 
Q 1250 4750 2034 4750 
z
" transform="scale(0.015625)"/>
       </defs>
       <use xlink:href="#DejaVuSans-74"/>
       <use xlink:href="#DejaVuSans-3d" transform="translate(39.208984 0)"/>
       <use xlink:href="#DejaVuSans-30" transform="translate(122.998047 0)"/>
      </g>
     </g>
    </g>
    <g id="xtick_2">
     <g id="line2d_2">
      <g>
       <use xlink:href="#m4a09c8781d" x="315.36" y="277.478125" style="stroke: #000000; stroke-width: 0.8"/>
      </g>
     </g>
     <g id="text_2">
      <!-- t+1d -->
      <g transform="translate(302.854531 292.076563) scale(0.1 -0.1)">
       <defs>
        <path id="DejaVuSans-2b" d="M 2944 4013 
L 2944 2272 
L 4684 2272 
L 4684 1741 
L 2944 1741 
L 2944 0 
L 2419 0 
L 2419 1741 
L 678 1741 
L 678 2272 
L 2419 2272 
L 2419 4013 
L 2944 4013 
z
" transform="scale(0.015625)"/>
        <path id="DejaVuSans-31" d="M 794 531 
L 1825 531 
L 1825 4091 
L 703 3866 
L 703 4441 
L 1819 4666 
L 2450 4666 
L 2450 531 
L 3481 531 
L 3481 0 
L 794 0 
L 794 531 
z
" transform="scale(0.015625)"/>
        <path id="DejaVuSans-64" d="M 2906 2969 
L 2906 4863 
L 3481 4863 
L 3481 0 
L 2906 0 
L 2906 525 
Q 2725 213 2448 61 
Q 2172 -91 1784 -91 
Q 1150 -91 751 415 
Q 353 922 353 1747 
Q 353 2572 751 3078 
Q 1150 3584 1784 3584 
Q 2172 3584 2448 3432 
Q 2725 3281 2906 2969 
z
M 947 1747 
Q 947 1113 1208 752 
Q 1469 391 1925 391 
Q 2381 391 2643 752 
Q 2906 1113 2906 1747 
Q 2906 2381 2643 2742 
Q 2381 3103 1925 3103 
Q 1469 3103 1208 2742 
Q 947 2381 947 1747 
z
" transform="scale(0.015625)"/>
       </defs>
       <use xlink:href="#DejaVuSans-74"/>
       <use xlink:href="#DejaVuSans-2b" transform="translate(39.208984 0)"/>
       <use xlink:href="#DejaVuSans-31" transform="translate(122.998047 0)"/>
       <use xlink:href="#DejaVuSans-64" transform="translate(186.621094 0)"/>
      </g>
     </g>
    </g>
    <g id="xtick_3">
     <g id="line2d_3">
      <g>
       <use xlink:href="#m4a09c8781d" x="418.08" y="277.478125" style="stroke: #000000; stroke-width: 0.8"/>
      </g>
     </g>
     <g id="text_3">
      <!-- t+3d -->
      <g transform="translate(405.574531 292.076563) scale(0.1 -0.1)">
       <defs>
        <path id="DejaVuSans-33" d="M 2597 2516 
Q 3050 2419 3304 2112 
Q 3559 1806 3559 1356 
Q 3559 666 3084 287 
Q 2609 -91 1734 -91 
Q 1441 -91 1130 -33 
Q 819 25 488 141 
L 488 750 
Q 750 597 1062 519 
Q 1375 441 1716 441 
Q 2309 441 2620 675 
Q 2931 909 2931 1356 
Q 2931 1769 2642 2001 
Q 2353 2234 1838 2234 
L 1294 2234 
L 1294 2753 
L 1863 2753 
Q 2328 2753 2575 2939 
Q 2822 3125 2822 3475 
Q 2822 3834 2567 4026 
Q 2313 4219 1838 4219 
Q 1578 4219 1281 4162 
Q 984 4106 628 3988 
L 628 4550 
Q 988 4650 1302 4700 
Q 1616 4750 1894 4750 
Q 2613 4750 3031 4423 
Q 3450 4097 3450 3541 
Q 3450 3153 3228 2886 
Q 3006 2619 2597 2516 
z
" transform="scale(0.015625)"/>
       </defs>
       <use xlink:href="#DejaVuSans-74"/>
       <use xlink:href="#DejaVuSans-2b" transform="translate(39.208984 0)"/>
       <use xlink:href="#DejaVuSans-33" transform="translate(122.998047 0)"/>
       <use xlink:href="#DejaVuSans-64" transform="translate(186.621094 0)"/>
      </g>
     </g>
    </g>
    <g id="xtick_4">
     <g id="line2d_4">
      <g>
       <use xlink:href="#m4a09c8781d" x="623.52" y="277.478125" style="stroke: #000000; stroke-width: 0.8"/>
      </g>
     </g>
     <g id="text_4">
      <!-- t+7d -->
      <g transform="translate(611.014531 292.076563) scale(0.1 -0.1)">
       <defs>
        <path id="DejaVuSans-37" d="M 525 4666 
L 3525 4666 
L 3525 4397 
L 1831 0 
L 1172 0 
L 2766 4134 
L 525 4134 
L 525 4666 
z
" transform="scale(0.015625)"/>
       </defs>
       <use xlink:href="#DejaVuSans-74"/>
       <use xlink:href="#DejaVuSans-2b" transform="translate(39.208984 0)"/>
       <use xlink:href="#DejaVuSans-37" transform="translate(122.998047 0)"/>
       <use xlink:href="#DejaVuSans-64" transform="translate(186.621094 0)"/>
      </g>
     </g>
    </g>
    <g id="text_5">
     <!-- time after prediction -->
     <g transform="translate(341.013281 305.754687) scale(0.1 -0.1)">
      <defs>
       <path id="DejaVuSans-69" d="M 603 3500 
L 1178 3500 
L 1178 0 
L 603 0 
L 603 3500 
z
M 603 4863 
L 1178 4863 
L 1178 4134 
L 603 4134 
L 603 4863 
z
" transform="scale(0.015625)"/>
       <path id="DejaVuSans-6d" d="M 3328 2828 
Q 3544 3216 3844 3400 
Q 4144 3584 4550 3584 
Q 5097 3584 5394 3201 
Q 5691 2819 5691 2113 
L 5691 0 
L 5113 0 
L 5113 2094 
Q 5113 2597 4934 2840 
Q 4756 3084 4391 3084 
Q 3944 3084 3684 2787 
Q 3425 2491 3425 1978 
L 3425 0 
L 2847 0 
L 2847 2094 
Q 2847 2600 2669 2842 
Q 2491 3084 2119 3084 
Q 1678 3084 1418 2786 
Q 1159 2488 1159 1978 
L 1159 0 
L 581 0 
L 581 3500 
L 1159 3500 
L 1159 2956 
Q 1356 3278 1631 3431 
Q 1906 3584 2284 3584 
Q 2666 3584 2933 3390 
Q 3200 3197 3328 2828 
z
" transform="scale(0.015625)"/>
       <path id="DejaVuSans-65" d="M 3597 1894 
L 3597 1613 
L 953 1613 
Q 991 1019 1311 708 
Q 1631 397 2203 397 
Q 2534 397 2845 478 
Q 3156 559 3463 722 
L 3463 178 
Q 3153 47 2828 -22 
Q 2503 -91 2169 -91 
Q 1331 -91 842 396 
Q 353 884 353 1716 
Q 353 2575 817 3079 
Q 1281 3584 2069 3584 
Q 2775 3584 3186 3129 
Q 3597 2675 3597 1894 
z
M 3022 2063 
Q 3016 2534 2758 2815 
Q 2500 3097 2075 3097 
Q 1594 3097 1305 2825 
Q 1016 2553 972 2059 
L 3022 2063 
z
" transform="scale(0.015625)"/>
       <path id="DejaVuSans-20" transform="scale(0.015625)"/>
       <path id="DejaVuSans-61" d="M 2194 1759 
Q 1497 1759 1228 1600 
Q 959 1441 959 1056 
Q 959 750 1161 570 
Q 1363 391 1709 391 
Q 2188 391 2477 730 
Q 2766 1069 2766 1631 
L 2766 1759 
L 2194 1759 
z
M 3341 1997 
L 3341 0 
L 2766 0 
L 2766 531 
Q 2569 213 2275 61 
Q 1981 -91 1556 -91 
Q 1019 -91 701 211 
Q 384 513 384 1019 
Q 384 1609 779 1909 
Q 1175 2209 1959 2209 
L 2766 2209 
L 2766 2266 
Q 2766 2663 2505 2880 
Q 2244 3097 1772 3097 
Q 1472 3097 1187 3025 
Q 903 2953 641 2809 
L 641 3341 
Q 956 3463 1253 3523 
Q 1550 3584 1831 3584 
Q 2591 3584 2966 3190 
Q 3341 2797 3341 1997 
z
" transform="scale(0.015625)"/>
       <path id="DejaVuSans-66" d="M 2375 4863 
L 2375 4384 
L 1825 4384 
Q 1516 4384 1395 4259 
Q 1275 4134 1275 3809 
L 1275 3500 
L 2222 3500 
L 2222 3053 
L 1275 3053 
L 1275 0 
L 697 0 
L 697 3053 
L 147 3053 
L 147 3500 
L 697 3500 
L 697 3744 
Q 697 4328 969 4595 
Q 1241 4863 1831 4863 
L 2375 4863 
z
" transform="scale(0.015625)"/>
       <path id="DejaVuSans-72" d="M 2631 2963 
Q 2534 3019 2420 3045 
Q 2306 3072 2169 3072 
Q 1681 3072 1420 2755 
Q 1159 2438 1159 1844 
L 1159 0 
L 581 0 
L 581 3500 
L 1159 3500 
L 1159 2956 
Q 1341 3275 1631 3429 
Q 1922 3584 2338 3584 
Q 2397 3584 2469 3576 
Q 2541 3569 2628 3553 
L 2631 2963 
z
" transform="scale(0.015625)"/>
       <path id="DejaVuSans-70" d="M 1159 525 
L 1159 -1331 
L 581 -1331 
L 581 3500 
L 1159 3500 
L 1159 2969 
Q 1341 3281 1617 3432 
Q 1894 3584 2278 3584 
Q 2916 3584 3314 3078 
Q 3713 2572 3713 1747 
Q 3713 922 3314 415 
Q 2916 -91 2278 -91 
Q 1894 -91 1617 61 
Q 1341 213 1159 525 
z
M 3116 1747 
Q 3116 2381 2855 2742 
Q 2594 3103 2138 3103 
Q 1681 3103 1420 2742 
Q 1159 2381 1159 1747 
Q 1159 1113 1420 752 
Q 1681 391 2138 391 
Q 2594 391 2855 752 
Q 3116 1113 3116 1747 
z
" transform="scale(0.015625)"/>
       <path id="DejaVuSans-63" d="M 3122 3366 
L 3122 2828 
Q 2878 2963 2633 3030 
Q 2388 3097 2138 3097 
Q 1578 3097 1268 2742 
Q 959 2388 959 1747 
Q 959 1106 1268 751 
Q 1578 397 2138 397 
Q 2388 397 2633 464 
Q 2878 531 3122 666 
L 3122 134 
Q 2881 22 2623 -34 
Q 2366 -91 2075 -91 
Q 1284 -91 818 406 
Q 353 903 353 1747 
Q 353 2603 823 3093 
Q 1294 3584 2113 3584 
Q 2378 3584 2631 3529 
Q 2884 3475 3122 3366 
z
" transform="scale(0.015625)"/>
       <path id="DejaVuSans-6f" d="M 1959 3097 
Q 1497 3097 1228 2736 
Q 959 2375 959 1747 
Q 959 1119 1226 758 
Q 1494 397 1959 397 
Q 2419 397 2687 759 
Q 2956 1122 2956 1747 
Q 2956 2369 2687 2733 
Q 2419 3097 1959 3097 
z
M 1959 3584 
Q 2709 3584 3137 3096 
Q 3566 2609 3566 1747 
Q 3566 888 3137 398 
Q 2709 -91 1959 -91 
Q 1206 -91 779 398 
Q 353 888 353 1747 
Q 353 2609 779 3096 
Q 1206 3584 1959 3584 
z
" transform="scale(0.015625)"/>
       <path id="DejaVuSans-6e" d="M 3513 2113 
L 3513 0 
L 2938 0 
L 2938 2094 
Q 2938 2591 2744 2837 
Q 2550 3084 2163 3084 
Q 1697 3084 1428 2787 
Q 1159 2491 1159 1978 
L 1159 0 
L 581 0 
L 581 3500 
L 1159 3500 
L 1159 2956 
Q 1366 3272 1645 3428 
Q 1925 3584 2291 3584 
Q 2894 3584 3203 3211 
Q 3513 2838 3513 2113 
z
" transform="scale(0.015625)"/>
      </defs>
      <use xlink:href="#DejaVuSans-74"/>
      <use xlink:href="#DejaVuSans-69" transform="translate(39.208984 0)"/>
      <use xlink:href="#DejaVuSans-6d" transform="translate(66.992188 0)"/>
      <use xlink:href="#DejaVuSans-65" transform="translate(164.404297 0)"/>
      <use xlink:href="#DejaVuSans-20" transform="translate(225.927734 0)"/>
      <use xlink:href="#DejaVuSans-61" transform="translate(257.714844 0)"/>
      <use xlink:href="#DejaVuSans-66" transform="translate(318.994141 0)"/>
      <use xlink:href="#DejaVuSans-74" transform="translate(352.449219 0)"/>
      <use xlink:href="#DejaVuSans-65" transform="translate(391.658203 0)"/>
      <use xlink:href="#DejaVuSans-72" transform="translate(453.181641 0)"/>
      <use xlink:href="#DejaVuSans-20" transform="translate(494.294922 0)"/>
      <use xlink:href="#DejaVuSans-70" transform="translate(526.082031 0)"/>
      <use xlink:href="#DejaVuSans-72" transform="translate(589.558594 0)"/>
      <use xlink:href="#DejaVuSans-65" transform="translate(628.421875 0)"/>
      <use xlink:href="#DejaVuSans-64" transform="translate(689.945312 0)"/>
      <use xlink:href="#DejaVuSans-69" transform="translate(753.421875 0)"/>
      <use xlink:href="#DejaVuSans-63" transform="translate(781.205078 0)"/>
      <use xlink:href="#DejaVuSans-74" transform="translate(836.185547 0)"/>
      <use xlink:href="#DejaVuSans-69" transform="translate(875.394531 0)"/>
      <use xlink:href="#DejaVuSans-6f" transform="translate(903.177734 0)"/>
      <use xlink:href="#DejaVuSans-6e" transform="translate(964.359375 0)"/>
     </g>
    </g>
   </g>
   <g id="matplotlib.axis_2"/>
   <g id="line2d_5">
    <path d="M 7.2 91.280287 
L 777.6 91.280287 
" clip-path="url(#pe0581bca36)" style="fill: none; stroke: #7aa6c2; stroke-opacity: 0.7; stroke-width: 3; stroke-linecap: square"/>
   </g>
   <g id="line2d_6">
    <path d="M 7.2 160.242449 
L 777.6 160.242449 
" clip-path="url(#pe0581bca36)" style="fill: none; stroke: #f28e2b; stroke-opacity: 0.7; stroke-width: 3; stroke-linecap: square"/>
   </g>
   <g id="line2d_7">
    <path d="M 7.2 229.204611 
L 777.6 229.204611 
" clip-path="url(#pe0581bca36)" style="fill: none; stroke: #59a14f; stroke-opacity: 0.7; stroke-width: 3; stroke-linecap: square"/>
   </g>
   <g id="patch_3">
    <path d="M 7.2 277.478125 
L 7.2 22.318125 
" style="fill: none; stroke: #000000; stroke-width: 0.8; stroke-linejoin: miter; stroke-linecap: square"/>
   </g>
   <g id="patch_4">
    <path d="M 777.6 277.478125 
L 777.6 22.318125 
" style="fill: none; stroke: #000000; stroke-width: 0.8; stroke-linejoin: miter; stroke-linecap: square"/>
   </g>
   <g id="patch_5">
    <path d="M 7.2 277.478125 
L 777.6 277.478125 
" style="fill: none; stroke: #000000; stroke-width: 0.8; stroke-linejoin: miter; stroke-linecap: square"/>
   </g>
   <g id="patch_6">
    <path d="M 7.2 22.318125 
L 777.6 22.318125 
" style="fill: none; stroke: #000000; stroke-width: 0.8; stroke-linejoin: miter; stroke-linecap: square"/>
   </g>
   <g id="text_6">
    <!-- Prediction -->
    <g style="fill: #7aa6c2" transform="translate(52.165312 88.440756) scale(0.1 -0.1)">
     <defs>
      <path id="DejaVuSans-Bold-50" d="M 588 4666 
L 2584 4666 
Q 3475 4666 3951 4270 
Q 4428 3875 4428 3144 
Q 4428 2409 3951 2014 
Q 3475 1619 2584 1619 
L 1791 1619 
L 1791 0 
L 588 0 
L 588 4666 
z
M 1791 3794 
L 1791 2491 
L 2456 2491 
Q 2806 2491 2997 2661 
Q 3188 2831 3188 3144 
Q 3188 3456 2997 3625 
Q 2806 3794 2456 3794 
L 1791 3794 
z
" transform="scale(0.015625)"/>
      <path id="DejaVuSans-Bold-72" d="M 3138 2547 
Q 2991 2616 2845 2648 
Q 2700 2681 2553 2681 
Q 2122 2681 1889 2404 
Q 1656 2128 1656 1613 
L 1656 0 
L 538 0 
L 538 3500 
L 1656 3500 
L 1656 2925 
Q 1872 3269 2151 3426 
Q 2431 3584 2822 3584 
Q 2878 3584 2943 3579 
Q 3009 3575 3134 3559 
L 3138 2547 
z
" transform="scale(0.015625)"/>
      <path id="DejaVuSans-Bold-65" d="M 4031 1759 
L 4031 1441 
L 1416 1441 
Q 1456 1047 1700 850 
Q 1944 653 2381 653 
Q 2734 653 3104 758 
Q 3475 863 3866 1075 
L 3866 213 
Q 3469 63 3072 -14 
Q 2675 -91 2278 -91 
Q 1328 -91 801 392 
Q 275 875 275 1747 
Q 275 2603 792 3093 
Q 1309 3584 2216 3584 
Q 3041 3584 3536 3087 
Q 4031 2591 4031 1759 
z
M 2881 2131 
Q 2881 2450 2695 2645 
Q 2509 2841 2209 2841 
Q 1884 2841 1681 2658 
Q 1478 2475 1428 2131 
L 2881 2131 
z
" transform="scale(0.015625)"/>
      <path id="DejaVuSans-Bold-64" d="M 2919 2988 
L 2919 4863 
L 4044 4863 
L 4044 0 
L 2919 0 
L 2919 506 
Q 2688 197 2409 53 
Q 2131 -91 1766 -91 
Q 1119 -91 703 423 
Q 288 938 288 1747 
Q 288 2556 703 3070 
Q 1119 3584 1766 3584 
Q 2128 3584 2408 3439 
Q 2688 3294 2919 2988 
z
M 2181 722 
Q 2541 722 2730 984 
Q 2919 1247 2919 1747 
Q 2919 2247 2730 2509 
Q 2541 2772 2181 2772 
Q 1825 2772 1636 2509 
Q 1447 2247 1447 1747 
Q 1447 1247 1636 984 
Q 1825 722 2181 722 
z
" transform="scale(0.015625)"/>
      <path id="DejaVuSans-Bold-69" d="M 538 3500 
L 1656 3500 
L 1656 0 
L 538 0 
L 538 3500 
z
M 538 4863 
L 1656 4863 
L 1656 3950 
L 538 3950 
L 538 4863 
z
" transform="scale(0.015625)"/>
      <path id="DejaVuSans-Bold-63" d="M 3366 3391 
L 3366 2478 
Q 3138 2634 2908 2709 
Q 2678 2784 2431 2784 
Q 1963 2784 1702 2511 
Q 1441 2238 1441 1747 
Q 1441 1256 1702 982 
Q 1963 709 2431 709 
Q 2694 709 2930 787 
Q 3166 866 3366 1019 
L 3366 103 
Q 3103 6 2833 -42 
Q 2563 -91 2291 -91 
Q 1344 -91 809 395 
Q 275 881 275 1747 
Q 275 2613 809 3098 
Q 1344 3584 2291 3584 
Q 2566 3584 2833 3536 
Q 3100 3488 3366 3391 
z
" transform="scale(0.015625)"/>
      <path id="DejaVuSans-Bold-74" d="M 1759 4494 
L 1759 3500 
L 2913 3500 
L 2913 2700 
L 1759 2700 
L 1759 1216 
Q 1759 972 1856 886 
Q 1953 800 2241 800 
L 2816 800 
L 2816 0 
L 1856 0 
Q 1194 0 917 276 
Q 641 553 641 1216 
L 641 2700 
L 84 2700 
L 84 3500 
L 641 3500 
L 641 4494 
L 1759 4494 
z
" transform="scale(0.015625)"/>
      <path id="DejaVuSans-Bold-6f" d="M 2203 2784 
Q 1831 2784 1636 2517 
Q 1441 2250 1441 1747 
Q 1441 1244 1636 976 
Q 1831 709 2203 709 
Q 2569 709 2762 976 
Q 2956 1244 2956 1747 
Q 2956 2250 2762 2517 
Q 2569 2784 2203 2784 
z
M 2203 3584 
Q 3106 3584 3614 3096 
Q 4122 2609 4122 1747 
Q 4122 884 3614 396 
Q 3106 -91 2203 -91 
Q 1297 -91 786 396 
Q 275 884 275 1747 
Q 275 2609 786 3096 
Q 1297 3584 2203 3584 
z
" transform="scale(0.015625)"/>
      <path id="DejaVuSans-Bold-6e" d="M 4056 2131 
L 4056 0 
L 2931 0 
L 2931 347 
L 2931 1631 
Q 2931 2084 2911 2256 
Q 2891 2428 2841 2509 
Q 2775 2619 2662 2680 
Q 2550 2741 2406 2741 
Q 2056 2741 1856 2470 
Q 1656 2200 1656 1722 
L 1656 0 
L 538 0 
L 538 3500 
L 1656 3500 
L 1656 2988 
Q 1909 3294 2193 3439 
Q 2478 3584 2822 3584 
Q 3428 3584 3742 3212 
Q 4056 2841 4056 2131 
z
" transform="scale(0.015625)"/>
     </defs>
     <use xlink:href="#DejaVuSans-Bold-50"/>
     <use xlink:href="#DejaVuSans-Bold-72" transform="translate(73.291016 0)"/>
     <use xlink:href="#DejaVuSans-Bold-65" transform="translate(122.607422 0)"/>
     <use xlink:href="#DejaVuSans-Bold-64" transform="translate(190.429688 0)"/>
     <use xlink:href="#DejaVuSans-Bold-69" transform="translate(262.011719 0)"/>
     <use xlink:href="#DejaVuSans-Bold-63" transform="translate(296.289062 0)"/>
     <use xlink:href="#DejaVuSans-Bold-74" transform="translate(355.566406 0)"/>
     <use xlink:href="#DejaVuSans-Bold-69" transform="translate(403.369141 0)"/>
     <use xlink:href="#DejaVuSans-Bold-6f" transform="translate(437.646484 0)"/>
     <use xlink:href="#DejaVuSans-Bold-6e" transform="translate(506.347656 0)"/>
    </g>
    <!-- (now) -->
    <g style="fill: #7aa6c2" transform="translate(77.55125 99.638568) scale(0.1 -0.1)">
     <defs>
      <path id="DejaVuSans-Bold-28" d="M 2413 -844 
L 1484 -844 
Q 1006 -72 778 623 
Q 550 1319 550 2003 
Q 550 2688 779 3389 
Q 1009 4091 1484 4856 
L 2413 4856 
Q 2013 4116 1813 3408 
Q 1613 2700 1613 2009 
Q 1613 1319 1811 609 
Q 2009 -100 2413 -844 
z
" transform="scale(0.015625)"/>
      <path id="DejaVuSans-Bold-77" d="M 225 3500 
L 1313 3500 
L 1900 1088 
L 2491 3500 
L 3425 3500 
L 4013 1113 
L 4603 3500 
L 5691 3500 
L 4769 0 
L 3547 0 
L 2956 2406 
L 2369 0 
L 1147 0 
L 225 3500 
z
" transform="scale(0.015625)"/>
      <path id="DejaVuSans-Bold-29" d="M 513 -844 
Q 913 -100 1113 609 
Q 1313 1319 1313 2009 
Q 1313 2700 1113 3408 
Q 913 4116 513 4856 
L 1441 4856 
Q 1916 4091 2145 3389 
Q 2375 2688 2375 2003 
Q 2375 1319 2147 623 
Q 1919 -72 1441 -844 
L 513 -844 
z
" transform="scale(0.015625)"/>
     </defs>
     <use xlink:href="#DejaVuSans-Bold-28"/>
     <use xlink:href="#DejaVuSans-Bold-6e" transform="translate(45.703125 0)"/>
     <use xlink:href="#DejaVuSans-Bold-6f" transform="translate(116.894531 0)"/>
     <use xlink:href="#DejaVuSans-Bold-77" transform="translate(185.595703 0)"/>
     <use xlink:href="#DejaVuSans-Bold-29" transform="translate(277.978516 0)"/>
    </g>
   </g>
   <g id="text_7">
    <!-- Proxy signals -->
    <g style="fill: #f28e2b" transform="translate(44.568437 157.402918) scale(0.1 -0.1)">
     <defs>
      <path id="DejaVuSans-50" d="M 1259 4147 
L 1259 2394 
L 2053 2394 
Q 2494 2394 2734 2622 
Q 2975 2850 2975 3272 
Q 2975 3691 2734 3919 
Q 2494 4147 2053 4147 
L 1259 4147 
z
M 628 4666 
L 2053 4666 
Q 2838 4666 3239 4311 
Q 3641 3956 3641 3272 
Q 3641 2581 3239 2228 
Q 2838 1875 2053 1875 
L 1259 1875 
L 1259 0 
L 628 0 
L 628 4666 
z
" transform="scale(0.015625)"/>
      <path id="DejaVuSans-78" d="M 3513 3500 
L 2247 1797 
L 3578 0 
L 2900 0 
L 1881 1375 
L 863 0 
L 184 0 
L 1544 1831 
L 300 3500 
L 978 3500 
L 1906 2253 
L 2834 3500 
L 3513 3500 
z
" transform="scale(0.015625)"/>
      <path id="DejaVuSans-79" d="M 2059 -325 
Q 1816 -950 1584 -1140 
Q 1353 -1331 966 -1331 
L 506 -1331 
L 506 -850 
L 844 -850 
Q 1081 -850 1212 -737 
Q 1344 -625 1503 -206 
L 1606 56 
L 191 3500 
L 800 3500 
L 1894 763 
L 2988 3500 
L 3597 3500 
L 2059 -325 
z
" transform="scale(0.015625)"/>
      <path id="DejaVuSans-73" d="M 2834 3397 
L 2834 2853 
Q 2591 2978 2328 3040 
Q 2066 3103 1784 3103 
Q 1356 3103 1142 2972 
Q 928 2841 928 2578 
Q 928 2378 1081 2264 
Q 1234 2150 1697 2047 
L 1894 2003 
Q 2506 1872 2764 1633 
Q 3022 1394 3022 966 
Q 3022 478 2636 193 
Q 2250 -91 1575 -91 
Q 1294 -91 989 -36 
Q 684 19 347 128 
L 347 722 
Q 666 556 975 473 
Q 1284 391 1588 391 
Q 1994 391 2212 530 
Q 2431 669 2431 922 
Q 2431 1156 2273 1281 
Q 2116 1406 1581 1522 
L 1381 1569 
Q 847 1681 609 1914 
Q 372 2147 372 2553 
Q 372 3047 722 3315 
Q 1072 3584 1716 3584 
Q 2034 3584 2315 3537 
Q 2597 3491 2834 3397 
z
" transform="scale(0.015625)"/>
      <path id="DejaVuSans-67" d="M 2906 1791 
Q 2906 2416 2648 2759 
Q 2391 3103 1925 3103 
Q 1463 3103 1205 2759 
Q 947 2416 947 1791 
Q 947 1169 1205 825 
Q 1463 481 1925 481 
Q 2391 481 2648 825 
Q 2906 1169 2906 1791 
z
M 3481 434 
Q 3481 -459 3084 -895 
Q 2688 -1331 1869 -1331 
Q 1566 -1331 1297 -1286 
Q 1028 -1241 775 -1147 
L 775 -588 
Q 1028 -725 1275 -790 
Q 1522 -856 1778 -856 
Q 2344 -856 2625 -561 
Q 2906 -266 2906 331 
L 2906 616 
Q 2728 306 2450 153 
Q 2172 0 1784 0 
Q 1141 0 747 490 
Q 353 981 353 1791 
Q 353 2603 747 3093 
Q 1141 3584 1784 3584 
Q 2172 3584 2450 3431 
Q 2728 3278 2906 2969 
L 2906 3500 
L 3481 3500 
L 3481 434 
z
" transform="scale(0.015625)"/>
      <path id="DejaVuSans-6c" d="M 603 4863 
L 1178 4863 
L 1178 0 
L 603 0 
L 603 4863 
z
" transform="scale(0.015625)"/>
     </defs>
     <use xlink:href="#DejaVuSans-50"/>
     <use xlink:href="#DejaVuSans-72" transform="translate(58.552734 0)"/>
     <use xlink:href="#DejaVuSans-6f" transform="translate(97.416016 0)"/>
     <use xlink:href="#DejaVuSans-78" transform="translate(155.472656 0)"/>
     <use xlink:href="#DejaVuSans-79" transform="translate(214.652344 0)"/>
     <use xlink:href="#DejaVuSans-20" transform="translate(273.832031 0)"/>
     <use xlink:href="#DejaVuSans-73" transform="translate(305.619141 0)"/>
     <use xlink:href="#DejaVuSans-69" transform="translate(357.71875 0)"/>
     <use xlink:href="#DejaVuSans-67" transform="translate(385.501953 0)"/>
     <use xlink:href="#DejaVuSans-6e" transform="translate(448.978516 0)"/>
     <use xlink:href="#DejaVuSans-61" transform="translate(512.357422 0)"/>
     <use xlink:href="#DejaVuSans-6c" transform="translate(573.636719 0)"/>
     <use xlink:href="#DejaVuSans-73" transform="translate(601.419922 0)"/>
    </g>
    <!-- (clicks, errors) -->
    <g style="fill: #f28e2b" transform="translate(38.793437 168.600731) scale(0.1 -0.1)">
     <defs>
      <path id="DejaVuSans-28" d="M 1984 4856 
Q 1566 4138 1362 3434 
Q 1159 2731 1159 2009 
Q 1159 1288 1364 580 
Q 1569 -128 1984 -844 
L 1484 -844 
Q 1016 -109 783 600 
Q 550 1309 550 2009 
Q 550 2706 781 3412 
Q 1013 4119 1484 4856 
L 1984 4856 
z
" transform="scale(0.015625)"/>
      <path id="DejaVuSans-6b" d="M 581 4863 
L 1159 4863 
L 1159 1991 
L 2875 3500 
L 3609 3500 
L 1753 1863 
L 3688 0 
L 2938 0 
L 1159 1709 
L 1159 0 
L 581 0 
L 581 4863 
z
" transform="scale(0.015625)"/>
      <path id="DejaVuSans-2c" d="M 750 794 
L 1409 794 
L 1409 256 
L 897 -744 
L 494 -744 
L 750 256 
L 750 794 
z
" transform="scale(0.015625)"/>
      <path id="DejaVuSans-29" d="M 513 4856 
L 1013 4856 
Q 1481 4119 1714 3412 
Q 1947 2706 1947 2009 
Q 1947 1309 1714 600 
Q 1481 -109 1013 -844 
L 513 -844 
Q 928 -128 1133 580 
Q 1338 1288 1338 2009 
Q 1338 2731 1133 3434 
Q 928 4138 513 4856 
z
" transform="scale(0.015625)"/>
     </defs>
     <use xlink:href="#DejaVuSans-28"/>
     <use xlink:href="#DejaVuSans-63" transform="translate(39.013672 0)"/>
     <use xlink:href="#DejaVuSans-6c" transform="translate(93.994141 0)"/>
     <use xlink:href="#DejaVuSans-69" transform="translate(121.777344 0)"/>
     <use xlink:href="#DejaVuSans-63" transform="translate(149.560547 0)"/>
     <use xlink:href="#DejaVuSans-6b" transform="translate(204.541016 0)"/>
     <use xlink:href="#DejaVuSans-73" transform="translate(262.451172 0)"/>
     <use xlink:href="#DejaVuSans-2c" transform="translate(314.550781 0)"/>
     <use xlink:href="#DejaVuSans-20" transform="translate(346.337891 0)"/>
     <use xlink:href="#DejaVuSans-65" transform="translate(378.125 0)"/>
     <use xlink:href="#DejaVuSans-72" transform="translate(439.648438 0)"/>
     <use xlink:href="#DejaVuSans-72" transform="translate(479.011719 0)"/>
     <use xlink:href="#DejaVuSans-6f" transform="translate(517.875 0)"/>
     <use xlink:href="#DejaVuSans-72" transform="translate(579.056641 0)"/>
     <use xlink:href="#DejaVuSans-73" transform="translate(620.169922 0)"/>
     <use xlink:href="#DejaVuSans-29" transform="translate(672.269531 0)"/>
    </g>
   </g>
   <g id="text_8">
    <!-- Ground truth -->
    <g style="fill: #59a14f" transform="translate(45.33875 226.36508) scale(0.1 -0.1)">
     <defs>
      <path id="DejaVuSans-47" d="M 3809 666 
L 3809 1919 
L 2778 1919 
L 2778 2438 
L 4434 2438 
L 4434 434 
Q 4069 175 3628 42 
Q 3188 -91 2688 -91 
Q 1594 -91 976 548 
Q 359 1188 359 2328 
Q 359 3472 976 4111 
Q 1594 4750 2688 4750 
Q 3144 4750 3555 4637 
Q 3966 4525 4313 4306 
L 4313 3634 
Q 3963 3931 3569 4081 
Q 3175 4231 2741 4231 
Q 1884 4231 1454 3753 
Q 1025 3275 1025 2328 
Q 1025 1384 1454 906 
Q 1884 428 2741 428 
Q 3075 428 3337 486 
Q 3600 544 3809 666 
z
" transform="scale(0.015625)"/>
      <path id="DejaVuSans-75" d="M 544 1381 
L 544 3500 
L 1119 3500 
L 1119 1403 
Q 1119 906 1312 657 
Q 1506 409 1894 409 
Q 2359 409 2629 706 
Q 2900 1003 2900 1516 
L 2900 3500 
L 3475 3500 
L 3475 0 
L 2900 0 
L 2900 538 
Q 2691 219 2414 64 
Q 2138 -91 1772 -91 
Q 1169 -91 856 284 
Q 544 659 544 1381 
z
M 1991 3584 
L 1991 3584 
z
" transform="scale(0.015625)"/>
      <path id="DejaVuSans-68" d="M 3513 2113 
L 3513 0 
L 2938 0 
L 2938 2094 
Q 2938 2591 2744 2837 
Q 2550 3084 2163 3084 
Q 1697 3084 1428 2787 
Q 1159 2491 1159 1978 
L 1159 0 
L 581 0 
L 581 4863 
L 1159 4863 
L 1159 2956 
Q 1366 3272 1645 3428 
Q 1925 3584 2291 3584 
Q 2894 3584 3203 3211 
Q 3513 2838 3513 2113 
z
" transform="scale(0.015625)"/>
     </defs>
     <use xlink:href="#DejaVuSans-47"/>
     <use xlink:href="#DejaVuSans-72" transform="translate(77.490234 0)"/>
     <use xlink:href="#DejaVuSans-6f" transform="translate(116.353516 0)"/>
     <use xlink:href="#DejaVuSans-75" transform="translate(177.535156 0)"/>
     <use xlink:href="#DejaVuSans-6e" transform="translate(240.914062 0)"/>
     <use xlink:href="#DejaVuSans-64" transform="translate(304.292969 0)"/>
     <use xlink:href="#DejaVuSans-20" transform="translate(367.769531 0)"/>
     <use xlink:href="#DejaVuSans-74" transform="translate(399.556641 0)"/>
     <use xlink:href="#DejaVuSans-72" transform="translate(438.765625 0)"/>
     <use xlink:href="#DejaVuSans-75" transform="translate(479.878906 0)"/>
     <use xlink:href="#DejaVuSans-74" transform="translate(543.257812 0)"/>
     <use xlink:href="#DejaVuSans-68" transform="translate(582.466797 0)"/>
    </g>
    <!-- (actual label) -->
    <g style="fill: #59a14f" transform="translate(43.962187 237.562893) scale(0.1 -0.1)">
     <defs>
      <path id="DejaVuSans-62" d="M 3116 1747 
Q 3116 2381 2855 2742 
Q 2594 3103 2138 3103 
Q 1681 3103 1420 2742 
Q 1159 2381 1159 1747 
Q 1159 1113 1420 752 
Q 1681 391 2138 391 
Q 2594 391 2855 752 
Q 3116 1113 3116 1747 
z
M 1159 2969 
Q 1341 3281 1617 3432 
Q 1894 3584 2278 3584 
Q 2916 3584 3314 3078 
Q 3713 2572 3713 1747 
Q 3713 922 3314 415 
Q 2916 -91 2278 -91 
Q 1894 -91 1617 61 
Q 1341 213 1159 525 
L 1159 0 
L 581 0 
L 581 4863 
L 1159 4863 
L 1159 2969 
z
" transform="scale(0.015625)"/>
     </defs>
     <use xlink:href="#DejaVuSans-28"/>
     <use xlink:href="#DejaVuSans-61" transform="translate(39.013672 0)"/>
     <use xlink:href="#DejaVuSans-63" transform="translate(100.292969 0)"/>
     <use xlink:href="#DejaVuSans-74" transform="translate(155.273438 0)"/>
     <use xlink:href="#DejaVuSans-75" transform="translate(194.482422 0)"/>
     <use xlink:href="#DejaVuSans-61" transform="translate(257.861328 0)"/>
     <use xlink:href="#DejaVuSans-6c" transform="translate(319.140625 0)"/>
     <use xlink:href="#DejaVuSans-20" transform="translate(346.923828 0)"/>
     <use xlink:href="#DejaVuSans-6c" transform="translate(378.710938 0)"/>
     <use xlink:href="#DejaVuSans-61" transform="translate(406.494141 0)"/>
     <use xlink:href="#DejaVuSans-62" transform="translate(467.773438 0)"/>
     <use xlink:href="#DejaVuSans-65" transform="translate(531.25 0)"/>
     <use xlink:href="#DejaVuSans-6c" transform="translate(592.773438 0)"/>
     <use xlink:href="#DejaVuSans-29" transform="translate(620.556641 0)"/>
    </g>
   </g>
   <g id="text_9">
    <!-- t=0 -->
    <g transform="translate(255.601875 60.513607) scale(0.09 -0.09)">
     <use xlink:href="#DejaVuSans-74"/>
     <use xlink:href="#DejaVuSans-3d" transform="translate(39.208984 0)"/>
     <use xlink:href="#DejaVuSans-30" transform="translate(122.998047 0)"/>
    </g>
    <!-- (predict) -->
    <g transform="translate(244.768828 70.591639) scale(0.09 -0.09)">
     <use xlink:href="#DejaVuSans-28"/>
     <use xlink:href="#DejaVuSans-70" transform="translate(39.013672 0)"/>
     <use xlink:href="#DejaVuSans-72" transform="translate(102.490234 0)"/>
     <use xlink:href="#DejaVuSans-65" transform="translate(141.353516 0)"/>
     <use xlink:href="#DejaVuSans-64" transform="translate(202.876953 0)"/>
     <use xlink:href="#DejaVuSans-69" transform="translate(266.353516 0)"/>
     <use xlink:href="#DejaVuSans-63" transform="translate(294.136719 0)"/>
     <use xlink:href="#DejaVuSans-74" transform="translate(349.117188 0)"/>
     <use xlink:href="#DejaVuSans-29" transform="translate(388.326172 0)"/>
    </g>
   </g>
   <g id="text_10">
    <!-- t+1d -->
    <g transform="translate(304.105078 129.475769) scale(0.09 -0.09)">
     <use xlink:href="#DejaVuSans-74"/>
     <use xlink:href="#DejaVuSans-2b" transform="translate(39.208984 0)"/>
     <use xlink:href="#DejaVuSans-31" transform="translate(122.998047 0)"/>
     <use xlink:href="#DejaVuSans-64" transform="translate(186.621094 0)"/>
    </g>
    <!-- (user click) -->
    <g transform="translate(290.548828 139.553801) scale(0.09 -0.09)">
     <use xlink:href="#DejaVuSans-28"/>
     <use xlink:href="#DejaVuSans-75" transform="translate(39.013672 0)"/>
     <use xlink:href="#DejaVuSans-73" transform="translate(102.392578 0)"/>
     <use xlink:href="#DejaVuSans-65" transform="translate(154.492188 0)"/>
     <use xlink:href="#DejaVuSans-72" transform="translate(216.015625 0)"/>
     <use xlink:href="#DejaVuSans-20" transform="translate(257.128906 0)"/>
     <use xlink:href="#DejaVuSans-63" transform="translate(288.916016 0)"/>
     <use xlink:href="#DejaVuSans-6c" transform="translate(343.896484 0)"/>
     <use xlink:href="#DejaVuSans-69" transform="translate(371.679688 0)"/>
     <use xlink:href="#DejaVuSans-63" transform="translate(399.462891 0)"/>
     <use xlink:href="#DejaVuSans-6b" transform="translate(454.443359 0)"/>
     <use xlink:href="#DejaVuSans-29" transform="translate(512.353516 0)"/>
    </g>
   </g>
   <g id="text_11">
    <!-- t+3d -->
    <g transform="translate(406.825078 129.475769) scale(0.09 -0.09)">
     <use xlink:href="#DejaVuSans-74"/>
     <use xlink:href="#DejaVuSans-2b" transform="translate(39.208984 0)"/>
     <use xlink:href="#DejaVuSans-33" transform="translate(122.998047 0)"/>
     <use xlink:href="#DejaVuSans-64" transform="translate(186.621094 0)"/>
    </g>
    <!-- (conversion?) -->
    <g transform="translate(387.618516 139.553801) scale(0.09 -0.09)">
     <defs>
      <path id="DejaVuSans-76" d="M 191 3500 
L 800 3500 
L 1894 563 
L 2988 3500 
L 3597 3500 
L 2284 0 
L 1503 0 
L 191 3500 
z
" transform="scale(0.015625)"/>
      <path id="DejaVuSans-3f" d="M 1222 794 
L 1856 794 
L 1856 0 
L 1222 0 
L 1222 794 
z
M 1838 1253 
L 1241 1253 
L 1241 1734 
Q 1241 2050 1328 2253 
Q 1416 2456 1697 2725 
L 1978 3003 
Q 2156 3169 2236 3316 
Q 2316 3463 2316 3616 
Q 2316 3894 2111 4066 
Q 1906 4238 1569 4238 
Q 1322 4238 1042 4128 
Q 763 4019 459 3809 
L 459 4397 
Q 753 4575 1054 4662 
Q 1356 4750 1678 4750 
Q 2253 4750 2601 4447 
Q 2950 4144 2950 3647 
Q 2950 3409 2837 3195 
Q 2725 2981 2444 2713 
L 2169 2444 
Q 2022 2297 1961 2214 
Q 1900 2131 1875 2053 
Q 1856 1988 1847 1894 
Q 1838 1800 1838 1638 
L 1838 1253 
z
" transform="scale(0.015625)"/>
     </defs>
     <use xlink:href="#DejaVuSans-28"/>
     <use xlink:href="#DejaVuSans-63" transform="translate(39.013672 0)"/>
     <use xlink:href="#DejaVuSans-6f" transform="translate(93.994141 0)"/>
     <use xlink:href="#DejaVuSans-6e" transform="translate(155.175781 0)"/>
     <use xlink:href="#DejaVuSans-76" transform="translate(218.554688 0)"/>
     <use xlink:href="#DejaVuSans-65" transform="translate(277.734375 0)"/>
     <use xlink:href="#DejaVuSans-72" transform="translate(339.257812 0)"/>
     <use xlink:href="#DejaVuSans-73" transform="translate(380.371094 0)"/>
     <use xlink:href="#DejaVuSans-69" transform="translate(432.470703 0)"/>
     <use xlink:href="#DejaVuSans-6f" transform="translate(460.253906 0)"/>
     <use xlink:href="#DejaVuSans-6e" transform="translate(521.435547 0)"/>
     <use xlink:href="#DejaVuSans-3f" transform="translate(584.814453 0)"/>
     <use xlink:href="#DejaVuSans-29" transform="translate(637.890625 0)"/>
    </g>
   </g>
   <g id="text_12">
    <!-- t+7d -->
    <g transform="translate(612.265078 198.437932) scale(0.09 -0.09)">
     <use xlink:href="#DejaVuSans-74"/>
     <use xlink:href="#DejaVuSans-2b" transform="translate(39.208984 0)"/>
     <use xlink:href="#DejaVuSans-37" transform="translate(122.998047 0)"/>
     <use xlink:href="#DejaVuSans-64" transform="translate(186.621094 0)"/>
    </g>
    <!-- (actual outcome) -->
    <g transform="translate(584.973281 208.515963) scale(0.09 -0.09)">
     <use xlink:href="#DejaVuSans-28"/>
     <use xlink:href="#DejaVuSans-61" transform="translate(39.013672 0)"/>
     <use xlink:href="#DejaVuSans-63" transform="translate(100.292969 0)"/>
     <use xlink:href="#DejaVuSans-74" transform="translate(155.273438 0)"/>
     <use xlink:href="#DejaVuSans-75" transform="translate(194.482422 0)"/>
     <use xlink:href="#DejaVuSans-61" transform="translate(257.861328 0)"/>
     <use xlink:href="#DejaVuSans-6c" transform="translate(319.140625 0)"/>
     <use xlink:href="#DejaVuSans-20" transform="translate(346.923828 0)"/>
     <use xlink:href="#DejaVuSans-6f" transform="translate(378.710938 0)"/>
     <use xlink:href="#DejaVuSans-75" transform="translate(439.892578 0)"/>
     <use xlink:href="#DejaVuSans-74" transform="translate(503.271484 0)"/>
     <use xlink:href="#DejaVuSans-63" transform="translate(542.480469 0)"/>
     <use xlink:href="#DejaVuSans-6f" transform="translate(597.460938 0)"/>
     <use xlink:href="#DejaVuSans-6d" transform="translate(658.642578 0)"/>
     <use xlink:href="#DejaVuSans-65" transform="translate(756.054688 0)"/>
     <use xlink:href="#DejaVuSans-29" transform="translate(817.578125 0)"/>
    </g>
   </g>
   <g id="text_13">
    <!-- Ground truth is delayed → use proxy metrics until it arrives -->
    <g transform="translate(215.128125 16.318125) scale(0.12 -0.12)">
     <defs>
      <path id="DejaVuSans-2192" d="M 5050 2147 
L 5050 1866 
L 3822 638 
L 3447 1013 
L 4175 1741 
L 366 1741 
L 366 2272 
L 4175 2272 
L 3447 3000 
L 3822 3375 
L 5050 2147 
z
" transform="scale(0.015625)"/>
     </defs>
     <use xlink:href="#DejaVuSans-47"/>
     <use xlink:href="#DejaVuSans-72" transform="translate(77.490234 0)"/>
     <use xlink:href="#DejaVuSans-6f" transform="translate(116.353516 0)"/>
     <use xlink:href="#DejaVuSans-75" transform="translate(177.535156 0)"/>
     <use xlink:href="#DejaVuSans-6e" transform="translate(240.914062 0)"/>
     <use xlink:href="#DejaVuSans-64" transform="translate(304.292969 0)"/>
     <use xlink:href="#DejaVuSans-20" transform="translate(367.769531 0)"/>
     <use xlink:href="#DejaVuSans-74" transform="translate(399.556641 0)"/>
     <use xlink:href="#DejaVuSans-72" transform="translate(438.765625 0)"/>
     <use xlink:href="#DejaVuSans-75" transform="translate(479.878906 0)"/>
     <use xlink:href="#DejaVuSans-74" transform="translate(543.257812 0)"/>
     <use xlink:href="#DejaVuSans-68" transform="translate(582.466797 0)"/>
     <use xlink:href="#DejaVuSans-20" transform="translate(645.845703 0)"/>
     <use xlink:href="#DejaVuSans-69" transform="translate(677.632812 0)"/>
     <use xlink:href="#DejaVuSans-73" transform="translate(705.416016 0)"/>
     <use xlink:href="#DejaVuSans-20" transform="translate(757.515625 0)"/>
     <use xlink:href="#DejaVuSans-64" transform="translate(789.302734 0)"/>
     <use xlink:href="#DejaVuSans-65" transform="translate(852.779297 0)"/>
     <use xlink:href="#DejaVuSans-6c" transform="translate(914.302734 0)"/>
     <use xlink:href="#DejaVuSans-61" transform="translate(942.085938 0)"/>
     <use xlink:href="#DejaVuSans-79" transform="translate(1003.365234 0)"/>
     <use xlink:href="#DejaVuSans-65" transform="translate(1062.544922 0)"/>
     <use xlink:href="#DejaVuSans-64" transform="translate(1124.068359 0)"/>
     <use xlink:href="#DejaVuSans-20" transform="translate(1187.544922 0)"/>
     <use xlink:href="#DejaVuSans-2192" transform="translate(1219.332031 0)"/>
     <use xlink:href="#DejaVuSans-20" transform="translate(1303.121094 0)"/>
     <use xlink:href="#DejaVuSans-75" transform="translate(1334.908203 0)"/>
     <use xlink:href="#DejaVuSans-73" transform="translate(1398.287109 0)"/>
     <use xlink:href="#DejaVuSans-65" transform="translate(1450.386719 0)"/>
     <use xlink:href="#DejaVuSans-20" transform="translate(1511.910156 0)"/>
     <use xlink:href="#DejaVuSans-70" transform="translate(1543.697266 0)"/>
     <use xlink:href="#DejaVuSans-72" transform="translate(1607.173828 0)"/>
     <use xlink:href="#DejaVuSans-6f" transform="translate(1646.037109 0)"/>
     <use xlink:href="#DejaVuSans-78" transform="translate(1704.09375 0)"/>
     <use xlink:href="#DejaVuSans-79" transform="translate(1763.273438 0)"/>
     <use xlink:href="#DejaVuSans-20" transform="translate(1822.453125 0)"/>
     <use xlink:href="#DejaVuSans-6d" transform="translate(1854.240234 0)"/>
     <use xlink:href="#DejaVuSans-65" transform="translate(1951.652344 0)"/>
     <use xlink:href="#DejaVuSans-74" transform="translate(2013.175781 0)"/>
     <use xlink:href="#DejaVuSans-72" transform="translate(2052.384766 0)"/>
     <use xlink:href="#DejaVuSans-69" transform="translate(2093.498047 0)"/>
     <use xlink:href="#DejaVuSans-63" transform="translate(2121.28125 0)"/>
     <use xlink:href="#DejaVuSans-73" transform="translate(2176.261719 0)"/>
     <use xlink:href="#DejaVuSans-20" transform="translate(2228.361328 0)"/>
     <use xlink:href="#DejaVuSans-75" transform="translate(2260.148438 0)"/>
     <use xlink:href="#DejaVuSans-6e" transform="translate(2323.527344 0)"/>
     <use xlink:href="#DejaVuSans-74" transform="translate(2386.90625 0)"/>
     <use xlink:href="#DejaVuSans-69" transform="translate(2426.115234 0)"/>
     <use xlink:href="#DejaVuSans-6c" transform="translate(2453.898438 0)"/>
     <use xlink:href="#DejaVuSans-20" transform="translate(2481.681641 0)"/>
     <use xlink:href="#DejaVuSans-69" transform="translate(2513.46875 0)"/>
     <use xlink:href="#DejaVuSans-74" transform="translate(2541.251953 0)"/>
     <use xlink:href="#DejaVuSans-20" transform="translate(2580.460938 0)"/>
     <use xlink:href="#DejaVuSans-61" transform="translate(2612.248047 0)"/>
     <use xlink:href="#DejaVuSans-72" transform="translate(2673.527344 0)"/>
     <use xlink:href="#DejaVuSans-72" transform="translate(2712.890625 0)"/>
     <use xlink:href="#DejaVuSans-69" transform="translate(2754.003906 0)"/>
     <use xlink:href="#DejaVuSans-76" transform="translate(2781.787109 0)"/>
     <use xlink:href="#DejaVuSans-65" transform="translate(2840.966797 0)"/>
     <use xlink:href="#DejaVuSans-73" transform="translate(2902.490234 0)"/>
    </g>
   </g>
   <g id="PathCollection_1">
    <defs>
     <path id="m40922ebadd" d="M 0 10 
C 2.652031 10 5.195799 8.946337 7.071068 7.071068 
C 8.946337 5.195799 10 2.652031 10 0 
C 10 -2.652031 8.946337 -5.195799 7.071068 -7.071068 
C 5.195799 -8.946337 2.652031 -10 0 -10 
C -2.652031 -10 -5.195799 -8.946337 -7.071068 -7.071068 
C -8.946337 -5.195799 -10 -2.652031 -10 0 
C -10 2.652031 -8.946337 5.195799 -7.071068 7.071068 
C -5.195799 8.946337 -2.652031 10 0 10 
z
" style="stroke: #000000; stroke-width: 1.5"/>
    </defs>
    <g clip-path="url(#pe0581bca36)">
     <use xlink:href="#m40922ebadd" x="264" y="91.280287" style="fill: #7aa6c2; stroke: #000000; stroke-width: 1.5"/>
    </g>
   </g>
   <g id="PathCollection_2">
    <defs>
     <path id="m1de30e50a5" d="M 0 10 
C 2.652031 10 5.195799 8.946337 7.071068 7.071068 
C 8.946337 5.195799 10 2.652031 10 0 
C 10 -2.652031 8.946337 -5.195799 7.071068 -7.071068 
C 5.195799 -8.946337 2.652031 -10 0 -10 
C -2.652031 -10 -5.195799 -8.946337 -7.071068 -7.071068 
C -8.946337 -5.195799 -10 -2.652031 -10 0 
C -10 2.652031 -8.946337 5.195799 -7.071068 7.071068 
C -5.195799 8.946337 -2.652031 10 0 10 
z
" style="stroke: #000000; stroke-width: 1.5"/>
    </defs>
    <g clip-path="url(#pe0581bca36)">
     <use xlink:href="#m1de30e50a5" x="315.36" y="160.242449" style="fill: #f28e2b; stroke: #000000; stroke-width: 1.5"/>
    </g>
   </g>
   <g id="PathCollection_3">
    <g clip-path="url(#pe0581bca36)">
     <use xlink:href="#m1de30e50a5" x="418.08" y="160.242449" style="fill: #f28e2b; stroke: #000000; stroke-width: 1.5"/>
    </g>
   </g>
   <g id="PathCollection_4">
    <defs>
     <path id="mda1f0806c2" d="M 0 10 
C 2.652031 10 5.195799 8.946337 7.071068 7.071068 
C 8.946337 5.195799 10 2.652031 10 0 
C 10 -2.652031 8.946337 -5.195799 7.071068 -7.071068 
C 5.195799 -8.946337 2.652031 -10 0 -10 
C -2.652031 -10 -5.195799 -8.946337 -7.071068 -7.071068 
C -8.946337 -5.195799 -10 -2.652031 -10 0 
C -10 2.652031 -8.946337 5.195799 -7.071068 7.071068 
C -5.195799 8.946337 -2.652031 10 0 10 
z
" style="stroke: #000000; stroke-width: 1.5"/>
    </defs>
    <g clip-path="url(#pe0581bca36)">
     <use xlink:href="#mda1f0806c2" x="623.52" y="229.204611" style="fill: #59a14f; stroke: #000000; stroke-width: 1.5"/>
    </g>
   </g>
  </g>
 </g>
 <defs>
  <clipPath id="pe0581bca36">
   <rect x="7.2" y="22.318125" width="770.4" height="255.16"/>
  </clipPath>
 </defs>
</svg>
