<?xml version="1.0" encoding="utf-8" standalone="no"?>
<!DOCTYPE svg PUBLIC "-//W3C//DTD SVG 1.1//EN"
  "http://www.w3.org/Graphics/SVG/1.1/DTD/svg11.dtd">
<svg xmlns:xlink="http://www.w3.org/1999/xlink" width="856.558125pt" height="249.75625pt" viewBox="0 0 856.558125 249.75625" xmlns="http://www.w3.org/2000/svg" version="1.1">
 <metadata>
  <rdf:RDF xmlns:dc="http://purl.org/dc/elements/1.1/" xmlns:cc="http://creativecommons.org/ns#" xmlns:rdf="http://www.w3.org/1999/02/22-rdf-syntax-ns#">
   <cc:Work>
    <dc:type rdf:resource="http://purl.org/dc/dcmitype/StillImage"/>
    <dc:date>2026-05-25T12:32:17.589363</dc:date>
    <dc:format>image/svg+xml</dc:format>
    <dc:creator>
     <cc:Agent>
      <dc:title>Matplotlib v3.10.8, https://matplotlib.org/</dc:title>
     </cc:Agent>
    </dc:creator>
   </cc:Work>
  </rdf:RDF>
 </metadata>
 <defs>
  <style type="text/css">*{stroke-linejoin: round; stroke-linecap: butt}</style>
 </defs>
 <g id="figure_1">
  <g id="patch_1">
   <path d="M 0 249.75625 
L 856.558125 249.75625 
L 856.558125 0 
L 0 0 
z
" style="fill: #ffffff"/>
  </g>
  <g id="axes_1">
   <g id="patch_2">
    <path d="M 53.328125 212.2 
L 282.658125 212.2 
L 282.658125 50.64 
L 53.328125 50.64 
z
" style="fill: #ffffff"/>
   </g>
   <g id="matplotlib.axis_1">
    <g id="xtick_1">
     <g id="line2d_1">
      <defs>
       <path id="m0d2027b73d" d="M 0 0 
L 0 3.5 
" style="stroke: #000000; stroke-width: 0.8"/>
      </defs>
      <g>
       <use xlink:href="#m0d2027b73d" x="63.752216" y="212.2" style="stroke: #000000; stroke-width: 0.8"/>
      </g>
     </g>
     <g id="text_1">
      <!-- 2 -->
      <g transform="translate(60.570966 226.798437) scale(0.1 -0.1)">
       <defs>
        <path id="DejaVuSans-32" d="M 1228 531 
L 3431 531 
L 3431 0 
L 469 0 
L 469 531 
Q 828 903 1448 1529 
Q 2069 2156 2228 2338 
Q 2531 2678 2651 2914 
Q 2772 3150 2772 3378 
Q 2772 3750 2511 3984 
Q 2250 4219 1831 4219 
Q 1534 4219 1204 4116 
Q 875 4013 500 3803 
L 500 4441 
Q 881 4594 1212 4672 
Q 1544 4750 1819 4750 
Q 2544 4750 2975 4387 
Q 3406 4025 3406 3419 
Q 3406 3131 3298 2873 
Q 3191 2616 2906 2266 
Q 2828 2175 2409 1742 
Q 1991 1309 1228 531 
z
" transform="scale(0.015625)"/>
       </defs>
       <use xlink:href="#DejaVuSans-32"/>
      </g>
     </g>
    </g>
    <g id="xtick_2">
     <g id="line2d_2">
      <g>
       <use xlink:href="#m0d2027b73d" x="115.87267" y="212.2" style="stroke: #000000; stroke-width: 0.8"/>
      </g>
     </g>
     <g id="text_2">
      <!-- 4 -->
      <g transform="translate(112.69142 226.798437) scale(0.1 -0.1)">
       <defs>
        <path id="DejaVuSans-34" d="M 2419 4116 
L 825 1625 
L 2419 1625 
L 2419 4116 
z
M 2253 4666 
L 3047 4666 
L 3047 1625 
L 3713 1625 
L 3713 1100 
L 3047 1100 
L 3047 0 
L 2419 0 
L 2419 1100 
L 313 1100 
L 313 1709 
L 2253 4666 
z
" transform="scale(0.015625)"/>
       </defs>
       <use xlink:href="#DejaVuSans-34"/>
      </g>
     </g>
    </g>
    <g id="xtick_3">
     <g id="line2d_3">
      <g>
       <use xlink:href="#m0d2027b73d" x="167.993125" y="212.2" style="stroke: #000000; stroke-width: 0.8"/>
      </g>
     </g>
     <g id="text_3">
      <!-- 6 -->
      <g transform="translate(164.811875 226.798437) scale(0.1 -0.1)">
       <defs>
        <path id="DejaVuSans-36" d="M 2113 2584 
Q 1688 2584 1439 2293 
Q 1191 2003 1191 1497 
Q 1191 994 1439 701 
Q 1688 409 2113 409 
Q 2538 409 2786 701 
Q 3034 994 3034 1497 
Q 3034 2003 2786 2293 
Q 2538 2584 2113 2584 
z
M 3366 4563 
L 3366 3988 
Q 3128 4100 2886 4159 
Q 2644 4219 2406 4219 
Q 1781 4219 1451 3797 
Q 1122 3375 1075 2522 
Q 1259 2794 1537 2939 
Q 1816 3084 2150 3084 
Q 2853 3084 3261 2657 
Q 3669 2231 3669 1497 
Q 3669 778 3244 343 
Q 2819 -91 2113 -91 
Q 1303 -91 875 529 
Q 447 1150 447 2328 
Q 447 3434 972 4092 
Q 1497 4750 2381 4750 
Q 2619 4750 2861 4703 
Q 3103 4656 3366 4563 
z
" transform="scale(0.015625)"/>
       </defs>
       <use xlink:href="#DejaVuSans-36"/>
      </g>
     </g>
    </g>
    <g id="xtick_4">
     <g id="line2d_4">
      <g>
       <use xlink:href="#m0d2027b73d" x="220.11358" y="212.2" style="stroke: #000000; stroke-width: 0.8"/>
      </g>
     </g>
     <g id="text_4">
      <!-- 8 -->
      <g transform="translate(216.93233 226.798437) scale(0.1 -0.1)">
       <defs>
        <path id="DejaVuSans-38" d="M 2034 2216 
Q 1584 2216 1326 1975 
Q 1069 1734 1069 1313 
Q 1069 891 1326 650 
Q 1584 409 2034 409 
Q 2484 409 2743 651 
Q 3003 894 3003 1313 
Q 3003 1734 2745 1975 
Q 2488 2216 2034 2216 
z
M 1403 2484 
Q 997 2584 770 2862 
Q 544 3141 544 3541 
Q 544 4100 942 4425 
Q 1341 4750 2034 4750 
Q 2731 4750 3128 4425 
Q 3525 4100 3525 3541 
Q 3525 3141 3298 2862 
Q 3072 2584 2669 2484 
Q 3125 2378 3379 2068 
Q 3634 1759 3634 1313 
Q 3634 634 3220 271 
Q 2806 -91 2034 -91 
Q 1263 -91 848 271 
Q 434 634 434 1313 
Q 434 1759 690 2068 
Q 947 2378 1403 2484 
z
M 1172 3481 
Q 1172 3119 1398 2916 
Q 1625 2713 2034 2713 
Q 2441 2713 2670 2916 
Q 2900 3119 2900 3481 
Q 2900 3844 2670 4047 
Q 2441 4250 2034 4250 
Q 1625 4250 1398 4047 
Q 1172 3844 1172 3481 
z
" transform="scale(0.015625)"/>
       </defs>
       <use xlink:href="#DejaVuSans-38"/>
      </g>
     </g>
    </g>
    <g id="xtick_5">
     <g id="line2d_5">
      <g>
       <use xlink:href="#m0d2027b73d" x="272.234034" y="212.2" style="stroke: #000000; stroke-width: 0.8"/>
      </g>
     </g>
     <g id="text_5">
      <!-- 10 -->
      <g transform="translate(265.871534 226.798437) scale(0.1 -0.1)">
       <defs>
        <path id="DejaVuSans-31" d="M 794 531 
L 1825 531 
L 1825 4091 
L 703 3866 
L 703 4441 
L 1819 4666 
L 2450 4666 
L 2450 531 
L 3481 531 
L 3481 0 
L 794 0 
L 794 531 
z
" transform="scale(0.015625)"/>
        <path id="DejaVuSans-30" d="M 2034 4250 
Q 1547 4250 1301 3770 
Q 1056 3291 1056 2328 
Q 1056 1369 1301 889 
Q 1547 409 2034 409 
Q 2525 409 2770 889 
Q 3016 1369 3016 2328 
Q 3016 3291 2770 3770 
Q 2525 4250 2034 4250 
z
M 2034 4750 
Q 2819 4750 3233 4129 
Q 3647 3509 3647 2328 
Q 3647 1150 3233 529 
Q 2819 -91 2034 -91 
Q 1250 -91 836 529 
Q 422 1150 422 2328 
Q 422 3509 836 4129 
Q 1250 4750 2034 4750 
z
" transform="scale(0.015625)"/>
       </defs>
       <use xlink:href="#DejaVuSans-31"/>
       <use xlink:href="#DejaVuSans-30" transform="translate(63.623047 0)"/>
      </g>
     </g>
    </g>
    <g id="text_6">
     <!-- k -->
     <g transform="translate(165.097813 240.476562) scale(0.1 -0.1)">
      <defs>
       <path id="DejaVuSans-6b" d="M 581 4863 
L 1159 4863 
L 1159 1991 
L 2875 3500 
L 3609 3500 
L 1753 1863 
L 3688 0 
L 2938 0 
L 1159 1709 
L 1159 0 
L 581 0 
L 581 4863 
z
" transform="scale(0.015625)"/>
      </defs>
      <use xlink:href="#DejaVuSans-6b"/>
     </g>
    </g>
   </g>
   <g id="matplotlib.axis_2">
    <g id="ytick_1">
     <g id="line2d_6">
      <defs>
       <path id="m3af88aef6c" d="M 0 0 
L -3.5 0 
" style="stroke: #000000; stroke-width: 0.8"/>
      </defs>
      <g>
       <use xlink:href="#m3af88aef6c" x="53.328125" y="205.226945" style="stroke: #000000; stroke-width: 0.8"/>
      </g>
     </g>
     <g id="text_7">
      <!-- 200 -->
      <g transform="translate(27.240625 209.026163) scale(0.1 -0.1)">
       <use xlink:href="#DejaVuSans-32"/>
       <use xlink:href="#DejaVuSans-30" transform="translate(63.623047 0)"/>
       <use xlink:href="#DejaVuSans-30" transform="translate(127.246094 0)"/>
      </g>
     </g>
    </g>
    <g id="ytick_2">
     <g id="line2d_7">
      <g>
       <use xlink:href="#m3af88aef6c" x="53.328125" y="168.872834" style="stroke: #000000; stroke-width: 0.8"/>
      </g>
     </g>
     <g id="text_8">
      <!-- 400 -->
      <g transform="translate(27.240625 172.672053) scale(0.1 -0.1)">
       <use xlink:href="#DejaVuSans-34"/>
       <use xlink:href="#DejaVuSans-30" transform="translate(63.623047 0)"/>
       <use xlink:href="#DejaVuSans-30" transform="translate(127.246094 0)"/>
      </g>
     </g>
    </g>
    <g id="ytick_3">
     <g id="line2d_8">
      <g>
       <use xlink:href="#m3af88aef6c" x="53.328125" y="132.518724" style="stroke: #000000; stroke-width: 0.8"/>
      </g>
     </g>
     <g id="text_9">
      <!-- 600 -->
      <g transform="translate(27.240625 136.317943) scale(0.1 -0.1)">
       <use xlink:href="#DejaVuSans-36"/>
       <use xlink:href="#DejaVuSans-30" transform="translate(63.623047 0)"/>
       <use xlink:href="#DejaVuSans-30" transform="translate(127.246094 0)"/>
      </g>
     </g>
    </g>
    <g id="ytick_4">
     <g id="line2d_9">
      <g>
       <use xlink:href="#m3af88aef6c" x="53.328125" y="96.164613" style="stroke: #000000; stroke-width: 0.8"/>
      </g>
     </g>
     <g id="text_10">
      <!-- 800 -->
      <g transform="translate(27.240625 99.963832) scale(0.1 -0.1)">
       <use xlink:href="#DejaVuSans-38"/>
       <use xlink:href="#DejaVuSans-30" transform="translate(63.623047 0)"/>
       <use xlink:href="#DejaVuSans-30" transform="translate(127.246094 0)"/>
      </g>
     </g>
    </g>
    <g id="ytick_5">
     <g id="line2d_10">
      <g>
       <use xlink:href="#m3af88aef6c" x="53.328125" y="59.810503" style="stroke: #000000; stroke-width: 0.8"/>
      </g>
     </g>
     <g id="text_11">
      <!-- 1000 -->
      <g transform="translate(20.878125 63.609722) scale(0.1 -0.1)">
       <use xlink:href="#DejaVuSans-31"/>
       <use xlink:href="#DejaVuSans-30" transform="translate(63.623047 0)"/>
       <use xlink:href="#DejaVuSans-30" transform="translate(127.246094 0)"/>
       <use xlink:href="#DejaVuSans-30" transform="translate(190.869141 0)"/>
      </g>
     </g>
    </g>
    <g id="text_12">
     <!-- Inertia -->
     <g transform="translate(14.798438 147.609062) rotate(-90) scale(0.1 -0.1)">
      <defs>
       <path id="DejaVuSans-49" d="M 628 4666 
L 1259 4666 
L 1259 0 
L 628 0 
L 628 4666 
z
" transform="scale(0.015625)"/>
       <path id="DejaVuSans-6e" d="M 3513 2113 
L 3513 0 
L 2938 0 
L 2938 2094 
Q 2938 2591 2744 2837 
Q 2550 3084 2163 3084 
Q 1697 3084 1428 2787 
Q 1159 2491 1159 1978 
L 1159 0 
L 581 0 
L 581 3500 
L 1159 3500 
L 1159 2956 
Q 1366 3272 1645 3428 
Q 1925 3584 2291 3584 
Q 2894 3584 3203 3211 
Q 3513 2838 3513 2113 
z
" transform="scale(0.015625)"/>
       <path id="DejaVuSans-65" d="M 3597 1894 
L 3597 1613 
L 953 1613 
Q 991 1019 1311 708 
Q 1631 397 2203 397 
Q 2534 397 2845 478 
Q 3156 559 3463 722 
L 3463 178 
Q 3153 47 2828 -22 
Q 2503 -91 2169 -91 
Q 1331 -91 842 396 
Q 353 884 353 1716 
Q 353 2575 817 3079 
Q 1281 3584 2069 3584 
Q 2775 3584 3186 3129 
Q 3597 2675 3597 1894 
z
M 3022 2063 
Q 3016 2534 2758 2815 
Q 2500 3097 2075 3097 
Q 1594 3097 1305 2825 
Q 1016 2553 972 2059 
L 3022 2063 
z
" transform="scale(0.015625)"/>
       <path id="DejaVuSans-72" d="M 2631 2963 
Q 2534 3019 2420 3045 
Q 2306 3072 2169 3072 
Q 1681 3072 1420 2755 
Q 1159 2438 1159 1844 
L 1159 0 
L 581 0 
L 581 3500 
L 1159 3500 
L 1159 2956 
Q 1341 3275 1631 3429 
Q 1922 3584 2338 3584 
Q 2397 3584 2469 3576 
Q 2541 3569 2628 3553 
L 2631 2963 
z
" transform="scale(0.015625)"/>
       <path id="DejaVuSans-74" d="M 1172 4494 
L 1172 3500 
L 2356 3500 
L 2356 3053 
L 1172 3053 
L 1172 1153 
Q 1172 725 1289 603 
Q 1406 481 1766 481 
L 2356 481 
L 2356 0 
L 1766 0 
Q 1100 0 847 248 
Q 594 497 594 1153 
L 594 3053 
L 172 3053 
L 172 3500 
L 594 3500 
L 594 4494 
L 1172 4494 
z
" transform="scale(0.015625)"/>
       <path id="DejaVuSans-69" d="M 603 3500 
L 1178 3500 
L 1178 0 
L 603 0 
L 603 3500 
z
M 603 4863 
L 1178 4863 
L 1178 4134 
L 603 4134 
L 603 4863 
z
" transform="scale(0.015625)"/>
       <path id="DejaVuSans-61" d="M 2194 1759 
Q 1497 1759 1228 1600 
Q 959 1441 959 1056 
Q 959 750 1161 570 
Q 1363 391 1709 391 
Q 2188 391 2477 730 
Q 2766 1069 2766 1631 
L 2766 1759 
L 2194 1759 
z
M 3341 1997 
L 3341 0 
L 2766 0 
L 2766 531 
Q 2569 213 2275 61 
Q 1981 -91 1556 -91 
Q 1019 -91 701 211 
Q 384 513 384 1019 
Q 384 1609 779 1909 
Q 1175 2209 1959 2209 
L 2766 2209 
L 2766 2266 
Q 2766 2663 2505 2880 
Q 2244 3097 1772 3097 
Q 1472 3097 1187 3025 
Q 903 2953 641 2809 
L 641 3341 
Q 956 3463 1253 3523 
Q 1550 3584 1831 3584 
Q 2591 3584 2966 3190 
Q 3341 2797 3341 1997 
z
" transform="scale(0.015625)"/>
      </defs>
      <use xlink:href="#DejaVuSans-49"/>
      <use xlink:href="#DejaVuSans-6e" transform="translate(29.492188 0)"/>
      <use xlink:href="#DejaVuSans-65" transform="translate(92.871094 0)"/>
      <use xlink:href="#DejaVuSans-72" transform="translate(154.394531 0)"/>
      <use xlink:href="#DejaVuSans-74" transform="translate(195.507812 0)"/>
      <use xlink:href="#DejaVuSans-69" transform="translate(234.716797 0)"/>
      <use xlink:href="#DejaVuSans-61" transform="translate(262.5 0)"/>
     </g>
    </g>
   </g>
   <g id="line2d_11">
    <path d="M 63.752216 57.983636 
L 89.812443 144.085158 
L 115.87267 160.045851 
L 141.932898 173.924158 
L 167.993125 184.308762 
L 194.053352 190.705164 
L 220.11358 197.749465 
L 246.173807 201.758733 
L 272.234034 204.856364 
" clip-path="url(#p39dacaeb9b)" style="fill: none; stroke: #7aa6c2; stroke-width: 2; stroke-linecap: square"/>
    <defs>
     <path id="m65c44d63d6" d="M 0 3 
C 0.795609 3 1.55874 2.683901 2.12132 2.12132 
C 2.683901 1.55874 3 0.795609 3 0 
C 3 -0.795609 2.683901 -1.55874 2.12132 -2.12132 
C 1.55874 -2.683901 0.795609 -3 0 -3 
C -0.795609 -3 -1.55874 -2.683901 -2.12132 -2.12132 
C -2.683901 -1.55874 -3 -0.795609 -3 0 
C -3 0.795609 -2.683901 1.55874 -2.12132 2.12132 
C -1.55874 2.683901 -0.795609 3 0 3 
z
" style="stroke: #7aa6c2"/>
    </defs>
    <g clip-path="url(#p39dacaeb9b)">
     <use xlink:href="#m65c44d63d6" x="63.752216" y="57.983636" style="fill: #7aa6c2; stroke: #7aa6c2"/>
     <use xlink:href="#m65c44d63d6" x="89.812443" y="144.085158" style="fill: #7aa6c2; stroke: #7aa6c2"/>
     <use xlink:href="#m65c44d63d6" x="115.87267" y="160.045851" style="fill: #7aa6c2; stroke: #7aa6c2"/>
     <use xlink:href="#m65c44d63d6" x="141.932898" y="173.924158" style="fill: #7aa6c2; stroke: #7aa6c2"/>
     <use xlink:href="#m65c44d63d6" x="167.993125" y="184.308762" style="fill: #7aa6c2; stroke: #7aa6c2"/>
     <use xlink:href="#m65c44d63d6" x="194.053352" y="190.705164" style="fill: #7aa6c2; stroke: #7aa6c2"/>
     <use xlink:href="#m65c44d63d6" x="220.11358" y="197.749465" style="fill: #7aa6c2; stroke: #7aa6c2"/>
     <use xlink:href="#m65c44d63d6" x="246.173807" y="201.758733" style="fill: #7aa6c2; stroke: #7aa6c2"/>
     <use xlink:href="#m65c44d63d6" x="272.234034" y="204.856364" style="fill: #7aa6c2; stroke: #7aa6c2"/>
    </g>
   </g>
   <g id="line2d_12">
    <path d="M 89.812443 212.2 
L 89.812443 50.64 
" clip-path="url(#p39dacaeb9b)" style="fill: none; stroke-dasharray: 5.55,2.4; stroke-dashoffset: 0; stroke: #808080; stroke-opacity: 0.5; stroke-width: 1.5"/>
   </g>
   <g id="patch_3">
    <path d="M 53.328125 212.2 
L 53.328125 50.64 
" style="fill: none; stroke: #000000; stroke-width: 0.8; stroke-linejoin: miter; stroke-linecap: square"/>
   </g>
   <g id="patch_4">
    <path d="M 282.658125 212.2 
L 282.658125 50.64 
" style="fill: none; stroke: #000000; stroke-width: 0.8; stroke-linejoin: miter; stroke-linecap: square"/>
   </g>
   <g id="patch_5">
    <path d="M 53.328125 212.2 
L 282.658125 212.2 
" style="fill: none; stroke: #000000; stroke-width: 0.8; stroke-linejoin: miter; stroke-linecap: square"/>
   </g>
   <g id="patch_6">
    <path d="M 53.328125 50.64 
L 282.658125 50.64 
" style="fill: none; stroke: #000000; stroke-width: 0.8; stroke-linejoin: miter; stroke-linecap: square"/>
   </g>
   <g id="text_13">
    <!-- Elbow (inertia, lower is better but monotone) -->
    <g transform="translate(32.763438 44.64) scale(0.12 -0.12)">
     <defs>
      <path id="DejaVuSans-45" d="M 628 4666 
L 3578 4666 
L 3578 4134 
L 1259 4134 
L 1259 2753 
L 3481 2753 
L 3481 2222 
L 1259 2222 
L 1259 531 
L 3634 531 
L 3634 0 
L 628 0 
L 628 4666 
z
" transform="scale(0.015625)"/>
      <path id="DejaVuSans-6c" d="M 603 4863 
L 1178 4863 
L 1178 0 
L 603 0 
L 603 4863 
z
" transform="scale(0.015625)"/>
      <path id="DejaVuSans-62" d="M 3116 1747 
Q 3116 2381 2855 2742 
Q 2594 3103 2138 3103 
Q 1681 3103 1420 2742 
Q 1159 2381 1159 1747 
Q 1159 1113 1420 752 
Q 1681 391 2138 391 
Q 2594 391 2855 752 
Q 3116 1113 3116 1747 
z
M 1159 2969 
Q 1341 3281 1617 3432 
Q 1894 3584 2278 3584 
Q 2916 3584 3314 3078 
Q 3713 2572 3713 1747 
Q 3713 922 3314 415 
Q 2916 -91 2278 -91 
Q 1894 -91 1617 61 
Q 1341 213 1159 525 
L 1159 0 
L 581 0 
L 581 4863 
L 1159 4863 
L 1159 2969 
z
" transform="scale(0.015625)"/>
      <path id="DejaVuSans-6f" d="M 1959 3097 
Q 1497 3097 1228 2736 
Q 959 2375 959 1747 
Q 959 1119 1226 758 
Q 1494 397 1959 397 
Q 2419 397 2687 759 
Q 2956 1122 2956 1747 
Q 2956 2369 2687 2733 
Q 2419 3097 1959 3097 
z
M 1959 3584 
Q 2709 3584 3137 3096 
Q 3566 2609 3566 1747 
Q 3566 888 3137 398 
Q 2709 -91 1959 -91 
Q 1206 -91 779 398 
Q 353 888 353 1747 
Q 353 2609 779 3096 
Q 1206 3584 1959 3584 
z
" transform="scale(0.015625)"/>
      <path id="DejaVuSans-77" d="M 269 3500 
L 844 3500 
L 1563 769 
L 2278 3500 
L 2956 3500 
L 3675 769 
L 4391 3500 
L 4966 3500 
L 4050 0 
L 3372 0 
L 2619 2869 
L 1863 0 
L 1184 0 
L 269 3500 
z
" transform="scale(0.015625)"/>
      <path id="DejaVuSans-20" transform="scale(0.015625)"/>
      <path id="DejaVuSans-28" d="M 1984 4856 
Q 1566 4138 1362 3434 
Q 1159 2731 1159 2009 
Q 1159 1288 1364 580 
Q 1569 -128 1984 -844 
L 1484 -844 
Q 1016 -109 783 600 
Q 550 1309 550 2009 
Q 550 2706 781 3412 
Q 1013 4119 1484 4856 
L 1984 4856 
z
" transform="scale(0.015625)"/>
      <path id="DejaVuSans-2c" d="M 750 794 
L 1409 794 
L 1409 256 
L 897 -744 
L 494 -744 
L 750 256 
L 750 794 
z
" transform="scale(0.015625)"/>
      <path id="DejaVuSans-73" d="M 2834 3397 
L 2834 2853 
Q 2591 2978 2328 3040 
Q 2066 3103 1784 3103 
Q 1356 3103 1142 2972 
Q 928 2841 928 2578 
Q 928 2378 1081 2264 
Q 1234 2150 1697 2047 
L 1894 2003 
Q 2506 1872 2764 1633 
Q 3022 1394 3022 966 
Q 3022 478 2636 193 
Q 2250 -91 1575 -91 
Q 1294 -91 989 -36 
Q 684 19 347 128 
L 347 722 
Q 666 556 975 473 
Q 1284 391 1588 391 
Q 1994 391 2212 530 
Q 2431 669 2431 922 
Q 2431 1156 2273 1281 
Q 2116 1406 1581 1522 
L 1381 1569 
Q 847 1681 609 1914 
Q 372 2147 372 2553 
Q 372 3047 722 3315 
Q 1072 3584 1716 3584 
Q 2034 3584 2315 3537 
Q 2597 3491 2834 3397 
z
" transform="scale(0.015625)"/>
      <path id="DejaVuSans-75" d="M 544 1381 
L 544 3500 
L 1119 3500 
L 1119 1403 
Q 1119 906 1312 657 
Q 1506 409 1894 409 
Q 2359 409 2629 706 
Q 2900 1003 2900 1516 
L 2900 3500 
L 3475 3500 
L 3475 0 
L 2900 0 
L 2900 538 
Q 2691 219 2414 64 
Q 2138 -91 1772 -91 
Q 1169 -91 856 284 
Q 544 659 544 1381 
z
M 1991 3584 
L 1991 3584 
z
" transform="scale(0.015625)"/>
      <path id="DejaVuSans-6d" d="M 3328 2828 
Q 3544 3216 3844 3400 
Q 4144 3584 4550 3584 
Q 5097 3584 5394 3201 
Q 5691 2819 5691 2113 
L 5691 0 
L 5113 0 
L 5113 2094 
Q 5113 2597 4934 2840 
Q 4756 3084 4391 3084 
Q 3944 3084 3684 2787 
Q 3425 2491 3425 1978 
L 3425 0 
L 2847 0 
L 2847 2094 
Q 2847 2600 2669 2842 
Q 2491 3084 2119 3084 
Q 1678 3084 1418 2786 
Q 1159 2488 1159 1978 
L 1159 0 
L 581 0 
L 581 3500 
L 1159 3500 
L 1159 2956 
Q 1356 3278 1631 3431 
Q 1906 3584 2284 3584 
Q 2666 3584 2933 3390 
Q 3200 3197 3328 2828 
z
" transform="scale(0.015625)"/>
      <path id="DejaVuSans-29" d="M 513 4856 
L 1013 4856 
Q 1481 4119 1714 3412 
Q 1947 2706 1947 2009 
Q 1947 1309 1714 600 
Q 1481 -109 1013 -844 
L 513 -844 
Q 928 -128 1133 580 
Q 1338 1288 1338 2009 
Q 1338 2731 1133 3434 
Q 928 4138 513 4856 
z
" transform="scale(0.015625)"/>
     </defs>
     <use xlink:href="#DejaVuSans-45"/>
     <use xlink:href="#DejaVuSans-6c" transform="translate(63.183594 0)"/>
     <use xlink:href="#DejaVuSans-62" transform="translate(90.966797 0)"/>
     <use xlink:href="#DejaVuSans-6f" transform="translate(154.443359 0)"/>
     <use xlink:href="#DejaVuSans-77" transform="translate(215.625 0)"/>
     <use xlink:href="#DejaVuSans-20" transform="translate(297.412109 0)"/>
     <use xlink:href="#DejaVuSans-28" transform="translate(329.199219 0)"/>
     <use xlink:href="#DejaVuSans-69" transform="translate(368.212891 0)"/>
     <use xlink:href="#DejaVuSans-6e" transform="translate(395.996094 0)"/>
     <use xlink:href="#DejaVuSans-65" transform="translate(459.375 0)"/>
     <use xlink:href="#DejaVuSans-72" transform="translate(520.898438 0)"/>
     <use xlink:href="#DejaVuSans-74" transform="translate(562.011719 0)"/>
     <use xlink:href="#DejaVuSans-69" transform="translate(601.220703 0)"/>
     <use xlink:href="#DejaVuSans-61" transform="translate(629.003906 0)"/>
     <use xlink:href="#DejaVuSans-2c" transform="translate(690.283203 0)"/>
     <use xlink:href="#DejaVuSans-20" transform="translate(722.070312 0)"/>
     <use xlink:href="#DejaVuSans-6c" transform="translate(753.857422 0)"/>
     <use xlink:href="#DejaVuSans-6f" transform="translate(781.640625 0)"/>
     <use xlink:href="#DejaVuSans-77" transform="translate(842.822266 0)"/>
     <use xlink:href="#DejaVuSans-65" transform="translate(924.609375 0)"/>
     <use xlink:href="#DejaVuSans-72" transform="translate(986.132812 0)"/>
     <use xlink:href="#DejaVuSans-20" transform="translate(1027.246094 0)"/>
     <use xlink:href="#DejaVuSans-69" transform="translate(1059.033203 0)"/>
     <use xlink:href="#DejaVuSans-73" transform="translate(1086.816406 0)"/>
     <use xlink:href="#DejaVuSans-20" transform="translate(1138.916016 0)"/>
     <use xlink:href="#DejaVuSans-62" transform="translate(1170.703125 0)"/>
     <use xlink:href="#DejaVuSans-65" transform="translate(1234.179688 0)"/>
     <use xlink:href="#DejaVuSans-74" transform="translate(1295.703125 0)"/>
     <use xlink:href="#DejaVuSans-74" transform="translate(1334.912109 0)"/>
     <use xlink:href="#DejaVuSans-65" transform="translate(1374.121094 0)"/>
     <use xlink:href="#DejaVuSans-72" transform="translate(1435.644531 0)"/>
     <use xlink:href="#DejaVuSans-20" transform="translate(1476.757812 0)"/>
     <use xlink:href="#DejaVuSans-62" transform="translate(1508.544922 0)"/>
     <use xlink:href="#DejaVuSans-75" transform="translate(1572.021484 0)"/>
     <use xlink:href="#DejaVuSans-74" transform="translate(1635.400391 0)"/>
     <use xlink:href="#DejaVuSans-20" transform="translate(1674.609375 0)"/>
     <use xlink:href="#DejaVuSans-6d" transform="translate(1706.396484 0)"/>
     <use xlink:href="#DejaVuSans-6f" transform="translate(1803.808594 0)"/>
     <use xlink:href="#DejaVuSans-6e" transform="translate(1864.990234 0)"/>
     <use xlink:href="#DejaVuSans-6f" transform="translate(1928.369141 0)"/>
     <use xlink:href="#DejaVuSans-74" transform="translate(1989.550781 0)"/>
     <use xlink:href="#DejaVuSans-6f" transform="translate(2028.759766 0)"/>
     <use xlink:href="#DejaVuSans-6e" transform="translate(2089.941406 0)"/>
     <use xlink:href="#DejaVuSans-65" transform="translate(2153.320312 0)"/>
     <use xlink:href="#DejaVuSans-29" transform="translate(2214.84375 0)"/>
    </g>
   </g>
  </g>
  <g id="axes_2">
   <g id="patch_7">
    <path d="M 336.678125 212.2 
L 566.008125 212.2 
L 566.008125 50.64 
L 336.678125 50.64 
z
" style="fill: #ffffff"/>
   </g>
   <g id="matplotlib.axis_3">
    <g id="xtick_6">
     <g id="line2d_13">
      <g>
       <use xlink:href="#m0d2027b73d" x="347.102216" y="212.2" style="stroke: #000000; stroke-width: 0.8"/>
      </g>
     </g>
     <g id="text_14">
      <!-- 2 -->
      <g transform="translate(343.920966 226.798437) scale(0.1 -0.1)">
       <use xlink:href="#DejaVuSans-32"/>
      </g>
     </g>
    </g>
    <g id="xtick_7">
     <g id="line2d_14">
      <g>
       <use xlink:href="#m0d2027b73d" x="399.22267" y="212.2" style="stroke: #000000; stroke-width: 0.8"/>
      </g>
     </g>
     <g id="text_15">
      <!-- 4 -->
      <g transform="translate(396.04142 226.798437) scale(0.1 -0.1)">
       <use xlink:href="#DejaVuSans-34"/>
      </g>
     </g>
    </g>
    <g id="xtick_8">
     <g id="line2d_15">
      <g>
       <use xlink:href="#m0d2027b73d" x="451.343125" y="212.2" style="stroke: #000000; stroke-width: 0.8"/>
      </g>
     </g>
     <g id="text_16">
      <!-- 6 -->
      <g transform="translate(448.161875 226.798437) scale(0.1 -0.1)">
       <use xlink:href="#DejaVuSans-36"/>
      </g>
     </g>
    </g>
    <g id="xtick_9">
     <g id="line2d_16">
      <g>
       <use xlink:href="#m0d2027b73d" x="503.46358" y="212.2" style="stroke: #000000; stroke-width: 0.8"/>
      </g>
     </g>
     <g id="text_17">
      <!-- 8 -->
      <g transform="translate(500.28233 226.798437) scale(0.1 -0.1)">
       <use xlink:href="#DejaVuSans-38"/>
      </g>
     </g>
    </g>
    <g id="xtick_10">
     <g id="line2d_17">
      <g>
       <use xlink:href="#m0d2027b73d" x="555.584034" y="212.2" style="stroke: #000000; stroke-width: 0.8"/>
      </g>
     </g>
     <g id="text_18">
      <!-- 10 -->
      <g transform="translate(549.221534 226.798437) scale(0.1 -0.1)">
       <use xlink:href="#DejaVuSans-31"/>
       <use xlink:href="#DejaVuSans-30" transform="translate(63.623047 0)"/>
      </g>
     </g>
    </g>
    <g id="text_19">
     <!-- k -->
     <g transform="translate(448.447813 240.476562) scale(0.1 -0.1)">
      <use xlink:href="#DejaVuSans-6b"/>
     </g>
    </g>
   </g>
   <g id="matplotlib.axis_4">
    <g id="ytick_6">
     <g id="line2d_18">
      <g>
       <use xlink:href="#m3af88aef6c" x="336.678125" y="201.95374" style="stroke: #000000; stroke-width: 0.8"/>
      </g>
     </g>
     <g id="text_20">
      <!-- 0.325 -->
      <g transform="translate(301.05 205.752958) scale(0.1 -0.1)">
       <defs>
        <path id="DejaVuSans-2e" d="M 684 794 
L 1344 794 
L 1344 0 
L 684 0 
L 684 794 
z
" transform="scale(0.015625)"/>
        <path id="DejaVuSans-33" d="M 2597 2516 
Q 3050 2419 3304 2112 
Q 3559 1806 3559 1356 
Q 3559 666 3084 287 
Q 2609 -91 1734 -91 
Q 1441 -91 1130 -33 
Q 819 25 488 141 
L 488 750 
Q 750 597 1062 519 
Q 1375 441 1716 441 
Q 2309 441 2620 675 
Q 2931 909 2931 1356 
Q 2931 1769 2642 2001 
Q 2353 2234 1838 2234 
L 1294 2234 
L 1294 2753 
L 1863 2753 
Q 2328 2753 2575 2939 
Q 2822 3125 2822 3475 
Q 2822 3834 2567 4026 
Q 2313 4219 1838 4219 
Q 1578 4219 1281 4162 
Q 984 4106 628 3988 
L 628 4550 
Q 988 4650 1302 4700 
Q 1616 4750 1894 4750 
Q 2613 4750 3031 4423 
Q 3450 4097 3450 3541 
Q 3450 3153 3228 2886 
Q 3006 2619 2597 2516 
z
" transform="scale(0.015625)"/>
        <path id="DejaVuSans-35" d="M 691 4666 
L 3169 4666 
L 3169 4134 
L 1269 4134 
L 1269 2991 
Q 1406 3038 1543 3061 
Q 1681 3084 1819 3084 
Q 2600 3084 3056 2656 
Q 3513 2228 3513 1497 
Q 3513 744 3044 326 
Q 2575 -91 1722 -91 
Q 1428 -91 1123 -41 
Q 819 9 494 109 
L 494 744 
Q 775 591 1075 516 
Q 1375 441 1709 441 
Q 2250 441 2565 725 
Q 2881 1009 2881 1497 
Q 2881 1984 2565 2268 
Q 2250 2553 1709 2553 
Q 1456 2553 1204 2497 
Q 953 2441 691 2322 
L 691 4666 
z
" transform="scale(0.015625)"/>
       </defs>
       <use xlink:href="#DejaVuSans-30"/>
       <use xlink:href="#DejaVuSans-2e" transform="translate(63.623047 0)"/>
       <use xlink:href="#DejaVuSans-33" transform="translate(95.410156 0)"/>
       <use xlink:href="#DejaVuSans-32" transform="translate(159.033203 0)"/>
       <use xlink:href="#DejaVuSans-35" transform="translate(222.65625 0)"/>
      </g>
     </g>
    </g>
    <g id="ytick_7">
     <g id="line2d_19">
      <g>
       <use xlink:href="#m3af88aef6c" x="336.678125" y="179.338863" style="stroke: #000000; stroke-width: 0.8"/>
      </g>
     </g>
     <g id="text_21">
      <!-- 0.350 -->
      <g transform="translate(301.05 183.138082) scale(0.1 -0.1)">
       <use xlink:href="#DejaVuSans-30"/>
       <use xlink:href="#DejaVuSans-2e" transform="translate(63.623047 0)"/>
       <use xlink:href="#DejaVuSans-33" transform="translate(95.410156 0)"/>
       <use xlink:href="#DejaVuSans-35" transform="translate(159.033203 0)"/>
       <use xlink:href="#DejaVuSans-30" transform="translate(222.65625 0)"/>
      </g>
     </g>
    </g>
    <g id="ytick_8">
     <g id="line2d_20">
      <g>
       <use xlink:href="#m3af88aef6c" x="336.678125" y="156.723987" style="stroke: #000000; stroke-width: 0.8"/>
      </g>
     </g>
     <g id="text_22">
      <!-- 0.375 -->
      <g transform="translate(301.05 160.523205) scale(0.1 -0.1)">
       <defs>
        <path id="DejaVuSans-37" d="M 525 4666 
L 3525 4666 
L 3525 4397 
L 1831 0 
L 1172 0 
L 2766 4134 
L 525 4134 
L 525 4666 
z
" transform="scale(0.015625)"/>
       </defs>
       <use xlink:href="#DejaVuSans-30"/>
       <use xlink:href="#DejaVuSans-2e" transform="translate(63.623047 0)"/>
       <use xlink:href="#DejaVuSans-33" transform="translate(95.410156 0)"/>
       <use xlink:href="#DejaVuSans-37" transform="translate(159.033203 0)"/>
       <use xlink:href="#DejaVuSans-35" transform="translate(222.65625 0)"/>
      </g>
     </g>
    </g>
    <g id="ytick_9">
     <g id="line2d_21">
      <g>
       <use xlink:href="#m3af88aef6c" x="336.678125" y="134.10911" style="stroke: #000000; stroke-width: 0.8"/>
      </g>
     </g>
     <g id="text_23">
      <!-- 0.400 -->
      <g transform="translate(301.05 137.908329) scale(0.1 -0.1)">
       <use xlink:href="#DejaVuSans-30"/>
       <use xlink:href="#DejaVuSans-2e" transform="translate(63.623047 0)"/>
       <use xlink:href="#DejaVuSans-34" transform="translate(95.410156 0)"/>
       <use xlink:href="#DejaVuSans-30" transform="translate(159.033203 0)"/>
       <use xlink:href="#DejaVuSans-30" transform="translate(222.65625 0)"/>
      </g>
     </g>
    </g>
    <g id="ytick_10">
     <g id="line2d_22">
      <g>
       <use xlink:href="#m3af88aef6c" x="336.678125" y="111.494234" style="stroke: #000000; stroke-width: 0.8"/>
      </g>
     </g>
     <g id="text_24">
      <!-- 0.425 -->
      <g transform="translate(301.05 115.293452) scale(0.1 -0.1)">
       <use xlink:href="#DejaVuSans-30"/>
       <use xlink:href="#DejaVuSans-2e" transform="translate(63.623047 0)"/>
       <use xlink:href="#DejaVuSans-34" transform="translate(95.410156 0)"/>
       <use xlink:href="#DejaVuSans-32" transform="translate(159.033203 0)"/>
       <use xlink:href="#DejaVuSans-35" transform="translate(222.65625 0)"/>
      </g>
     </g>
    </g>
    <g id="ytick_11">
     <g id="line2d_23">
      <g>
       <use xlink:href="#m3af88aef6c" x="336.678125" y="88.879357" style="stroke: #000000; stroke-width: 0.8"/>
      </g>
     </g>
     <g id="text_25">
      <!-- 0.450 -->
      <g transform="translate(301.05 92.678576) scale(0.1 -0.1)">
       <use xlink:href="#DejaVuSans-30"/>
       <use xlink:href="#DejaVuSans-2e" transform="translate(63.623047 0)"/>
       <use xlink:href="#DejaVuSans-34" transform="translate(95.410156 0)"/>
       <use xlink:href="#DejaVuSans-35" transform="translate(159.033203 0)"/>
       <use xlink:href="#DejaVuSans-30" transform="translate(222.65625 0)"/>
      </g>
     </g>
    </g>
    <g id="ytick_12">
     <g id="line2d_24">
      <g>
       <use xlink:href="#m3af88aef6c" x="336.678125" y="66.264481" style="stroke: #000000; stroke-width: 0.8"/>
      </g>
     </g>
     <g id="text_26">
      <!-- 0.475 -->
      <g transform="translate(301.05 70.0637) scale(0.1 -0.1)">
       <use xlink:href="#DejaVuSans-30"/>
       <use xlink:href="#DejaVuSans-2e" transform="translate(63.623047 0)"/>
       <use xlink:href="#DejaVuSans-34" transform="translate(95.410156 0)"/>
       <use xlink:href="#DejaVuSans-37" transform="translate(159.033203 0)"/>
       <use xlink:href="#DejaVuSans-35" transform="translate(222.65625 0)"/>
      </g>
     </g>
    </g>
    <g id="text_27">
     <!-- Score -->
     <g transform="translate(294.970313 145.422344) rotate(-90) scale(0.1 -0.1)">
      <defs>
       <path id="DejaVuSans-53" d="M 3425 4513 
L 3425 3897 
Q 3066 4069 2747 4153 
Q 2428 4238 2131 4238 
Q 1616 4238 1336 4038 
Q 1056 3838 1056 3469 
Q 1056 3159 1242 3001 
Q 1428 2844 1947 2747 
L 2328 2669 
Q 3034 2534 3370 2195 
Q 3706 1856 3706 1288 
Q 3706 609 3251 259 
Q 2797 -91 1919 -91 
Q 1588 -91 1214 -16 
Q 841 59 441 206 
L 441 856 
Q 825 641 1194 531 
Q 1563 422 1919 422 
Q 2459 422 2753 634 
Q 3047 847 3047 1241 
Q 3047 1584 2836 1778 
Q 2625 1972 2144 2069 
L 1759 2144 
Q 1053 2284 737 2584 
Q 422 2884 422 3419 
Q 422 4038 858 4394 
Q 1294 4750 2059 4750 
Q 2388 4750 2728 4690 
Q 3069 4631 3425 4513 
z
" transform="scale(0.015625)"/>
       <path id="DejaVuSans-63" d="M 3122 3366 
L 3122 2828 
Q 2878 2963 2633 3030 
Q 2388 3097 2138 3097 
Q 1578 3097 1268 2742 
Q 959 2388 959 1747 
Q 959 1106 1268 751 
Q 1578 397 2138 397 
Q 2388 397 2633 464 
Q 2878 531 3122 666 
L 3122 134 
Q 2881 22 2623 -34 
Q 2366 -91 2075 -91 
Q 1284 -91 818 406 
Q 353 903 353 1747 
Q 353 2603 823 3093 
Q 1294 3584 2113 3584 
Q 2378 3584 2631 3529 
Q 2884 3475 3122 3366 
z
" transform="scale(0.015625)"/>
      </defs>
      <use xlink:href="#DejaVuSans-53"/>
      <use xlink:href="#DejaVuSans-63" transform="translate(63.476562 0)"/>
      <use xlink:href="#DejaVuSans-6f" transform="translate(118.457031 0)"/>
      <use xlink:href="#DejaVuSans-72" transform="translate(179.638672 0)"/>
      <use xlink:href="#DejaVuSans-65" transform="translate(218.501953 0)"/>
     </g>
    </g>
   </g>
   <g id="line2d_25">
    <path d="M 347.102216 92.654843 
L 373.162443 57.983636 
L 399.22267 123.72004 
L 425.282898 143.589742 
L 451.343125 169.063396 
L 477.403352 178.133198 
L 503.46358 187.844304 
L 529.523807 197.02569 
L 555.584034 204.856364 
" clip-path="url(#p5e8722c7c4)" style="fill: none; stroke: #59a14f; stroke-width: 2; stroke-linecap: square"/>
    <defs>
     <path id="m321c7e4823" d="M 0 3 
C 0.795609 3 1.55874 2.683901 2.12132 2.12132 
C 2.683901 1.55874 3 0.795609 3 0 
C 3 -0.795609 2.683901 -1.55874 2.12132 -2.12132 
C 1.55874 -2.683901 0.795609 -3 0 -3 
C -0.795609 -3 -1.55874 -2.683901 -2.12132 -2.12132 
C -2.683901 -1.55874 -3 -0.795609 -3 0 
C -3 0.795609 -2.683901 1.55874 -2.12132 2.12132 
C -1.55874 2.683901 -0.795609 3 0 3 
z
" style="stroke: #59a14f"/>
    </defs>
    <g clip-path="url(#p5e8722c7c4)">
     <use xlink:href="#m321c7e4823" x="347.102216" y="92.654843" style="fill: #59a14f; stroke: #59a14f"/>
     <use xlink:href="#m321c7e4823" x="373.162443" y="57.983636" style="fill: #59a14f; stroke: #59a14f"/>
     <use xlink:href="#m321c7e4823" x="399.22267" y="123.72004" style="fill: #59a14f; stroke: #59a14f"/>
     <use xlink:href="#m321c7e4823" x="425.282898" y="143.589742" style="fill: #59a14f; stroke: #59a14f"/>
     <use xlink:href="#m321c7e4823" x="451.343125" y="169.063396" style="fill: #59a14f; stroke: #59a14f"/>
     <use xlink:href="#m321c7e4823" x="477.403352" y="178.133198" style="fill: #59a14f; stroke: #59a14f"/>
     <use xlink:href="#m321c7e4823" x="503.46358" y="187.844304" style="fill: #59a14f; stroke: #59a14f"/>
     <use xlink:href="#m321c7e4823" x="529.523807" y="197.02569" style="fill: #59a14f; stroke: #59a14f"/>
     <use xlink:href="#m321c7e4823" x="555.584034" y="204.856364" style="fill: #59a14f; stroke: #59a14f"/>
    </g>
   </g>
   <g id="line2d_26">
    <path d="M 373.162443 212.2 
L 373.162443 50.64 
" clip-path="url(#p5e8722c7c4)" style="fill: none; stroke-dasharray: 5.55,2.4; stroke-dashoffset: 0; stroke: #808080; stroke-opacity: 0.5; stroke-width: 1.5"/>
   </g>
   <g id="patch_8">
    <path d="M 336.678125 212.2 
L 336.678125 50.64 
" style="fill: none; stroke: #000000; stroke-width: 0.8; stroke-linejoin: miter; stroke-linecap: square"/>
   </g>
   <g id="patch_9">
    <path d="M 566.008125 212.2 
L 566.008125 50.64 
" style="fill: none; stroke: #000000; stroke-width: 0.8; stroke-linejoin: miter; stroke-linecap: square"/>
   </g>
   <g id="patch_10">
    <path d="M 336.678125 212.2 
L 566.008125 212.2 
" style="fill: none; stroke: #000000; stroke-width: 0.8; stroke-linejoin: miter; stroke-linecap: square"/>
   </g>
   <g id="patch_11">
    <path d="M 336.678125 50.64 
L 566.008125 50.64 
" style="fill: none; stroke: #000000; stroke-width: 0.8; stroke-linejoin: miter; stroke-linecap: square"/>
   </g>
   <g id="text_28">
    <!-- Silhouette (higher is better) -->
    <g transform="translate(368.037813 44.64) scale(0.12 -0.12)">
     <defs>
      <path id="DejaVuSans-68" d="M 3513 2113 
L 3513 0 
L 2938 0 
L 2938 2094 
Q 2938 2591 2744 2837 
Q 2550 3084 2163 3084 
Q 1697 3084 1428 2787 
Q 1159 2491 1159 1978 
L 1159 0 
L 581 0 
L 581 4863 
L 1159 4863 
L 1159 2956 
Q 1366 3272 1645 3428 
Q 1925 3584 2291 3584 
Q 2894 3584 3203 3211 
Q 3513 2838 3513 2113 
z
" transform="scale(0.015625)"/>
      <path id="DejaVuSans-67" d="M 2906 1791 
Q 2906 2416 2648 2759 
Q 2391 3103 1925 3103 
Q 1463 3103 1205 2759 
Q 947 2416 947 1791 
Q 947 1169 1205 825 
Q 1463 481 1925 481 
Q 2391 481 2648 825 
Q 2906 1169 2906 1791 
z
M 3481 434 
Q 3481 -459 3084 -895 
Q 2688 -1331 1869 -1331 
Q 1566 -1331 1297 -1286 
Q 1028 -1241 775 -1147 
L 775 -588 
Q 1028 -725 1275 -790 
Q 1522 -856 1778 -856 
Q 2344 -856 2625 -561 
Q 2906 -266 2906 331 
L 2906 616 
Q 2728 306 2450 153 
Q 2172 0 1784 0 
Q 1141 0 747 490 
Q 353 981 353 1791 
Q 353 2603 747 3093 
Q 1141 3584 1784 3584 
Q 2172 3584 2450 3431 
Q 2728 3278 2906 2969 
L 2906 3500 
L 3481 3500 
L 3481 434 
z
" transform="scale(0.015625)"/>
     </defs>
     <use xlink:href="#DejaVuSans-53"/>
     <use xlink:href="#DejaVuSans-69" transform="translate(63.476562 0)"/>
     <use xlink:href="#DejaVuSans-6c" transform="translate(91.259766 0)"/>
     <use xlink:href="#DejaVuSans-68" transform="translate(119.042969 0)"/>
     <use xlink:href="#DejaVuSans-6f" transform="translate(182.421875 0)"/>
     <use xlink:href="#DejaVuSans-75" transform="translate(243.603516 0)"/>
     <use xlink:href="#DejaVuSans-65" transform="translate(306.982422 0)"/>
     <use xlink:href="#DejaVuSans-74" transform="translate(368.505859 0)"/>
     <use xlink:href="#DejaVuSans-74" transform="translate(407.714844 0)"/>
     <use xlink:href="#DejaVuSans-65" transform="translate(446.923828 0)"/>
     <use xlink:href="#DejaVuSans-20" transform="translate(508.447266 0)"/>
     <use xlink:href="#DejaVuSans-28" transform="translate(540.234375 0)"/>
     <use xlink:href="#DejaVuSans-68" transform="translate(579.248047 0)"/>
     <use xlink:href="#DejaVuSans-69" transform="translate(642.626953 0)"/>
     <use xlink:href="#DejaVuSans-67" transform="translate(670.410156 0)"/>
     <use xlink:href="#DejaVuSans-68" transform="translate(733.886719 0)"/>
     <use xlink:href="#DejaVuSans-65" transform="translate(797.265625 0)"/>
     <use xlink:href="#DejaVuSans-72" transform="translate(858.789062 0)"/>
     <use xlink:href="#DejaVuSans-20" transform="translate(899.902344 0)"/>
     <use xlink:href="#DejaVuSans-69" transform="translate(931.689453 0)"/>
     <use xlink:href="#DejaVuSans-73" transform="translate(959.472656 0)"/>
     <use xlink:href="#DejaVuSans-20" transform="translate(1011.572266 0)"/>
     <use xlink:href="#DejaVuSans-62" transform="translate(1043.359375 0)"/>
     <use xlink:href="#DejaVuSans-65" transform="translate(1106.835938 0)"/>
     <use xlink:href="#DejaVuSans-74" transform="translate(1168.359375 0)"/>
     <use xlink:href="#DejaVuSans-74" transform="translate(1207.568359 0)"/>
     <use xlink:href="#DejaVuSans-65" transform="translate(1246.777344 0)"/>
     <use xlink:href="#DejaVuSans-72" transform="translate(1308.300781 0)"/>
     <use xlink:href="#DejaVuSans-29" transform="translate(1349.414062 0)"/>
    </g>
   </g>
  </g>
  <g id="axes_3">
   <g id="patch_12">
    <path d="M 620.028125 212.2 
L 849.358125 212.2 
L 849.358125 50.64 
L 620.028125 50.64 
z
" style="fill: #ffffff"/>
   </g>
   <g id="matplotlib.axis_5">
    <g id="xtick_11">
     <g id="line2d_27">
      <g>
       <use xlink:href="#m0d2027b73d" x="630.452216" y="212.2" style="stroke: #000000; stroke-width: 0.8"/>
      </g>
     </g>
     <g id="text_29">
      <!-- 2 -->
      <g transform="translate(627.270966 226.798437) scale(0.1 -0.1)">
       <use xlink:href="#DejaVuSans-32"/>
      </g>
     </g>
    </g>
    <g id="xtick_12">
     <g id="line2d_28">
      <g>
       <use xlink:href="#m0d2027b73d" x="682.57267" y="212.2" style="stroke: #000000; stroke-width: 0.8"/>
      </g>
     </g>
     <g id="text_30">
      <!-- 4 -->
      <g transform="translate(679.39142 226.798437) scale(0.1 -0.1)">
       <use xlink:href="#DejaVuSans-34"/>
      </g>
     </g>
    </g>
    <g id="xtick_13">
     <g id="line2d_29">
      <g>
       <use xlink:href="#m0d2027b73d" x="734.693125" y="212.2" style="stroke: #000000; stroke-width: 0.8"/>
      </g>
     </g>
     <g id="text_31">
      <!-- 6 -->
      <g transform="translate(731.511875 226.798437) scale(0.1 -0.1)">
       <use xlink:href="#DejaVuSans-36"/>
      </g>
     </g>
    </g>
    <g id="xtick_14">
     <g id="line2d_30">
      <g>
       <use xlink:href="#m0d2027b73d" x="786.81358" y="212.2" style="stroke: #000000; stroke-width: 0.8"/>
      </g>
     </g>
     <g id="text_32">
      <!-- 8 -->
      <g transform="translate(783.63233 226.798437) scale(0.1 -0.1)">
       <use xlink:href="#DejaVuSans-38"/>
      </g>
     </g>
    </g>
    <g id="xtick_15">
     <g id="line2d_31">
      <g>
       <use xlink:href="#m0d2027b73d" x="838.934034" y="212.2" style="stroke: #000000; stroke-width: 0.8"/>
      </g>
     </g>
     <g id="text_33">
      <!-- 10 -->
      <g transform="translate(832.571534 226.798437) scale(0.1 -0.1)">
       <use xlink:href="#DejaVuSans-31"/>
       <use xlink:href="#DejaVuSans-30" transform="translate(63.623047 0)"/>
      </g>
     </g>
    </g>
    <g id="text_34">
     <!-- k -->
     <g transform="translate(731.797813 240.476562) scale(0.1 -0.1)">
      <use xlink:href="#DejaVuSans-6b"/>
     </g>
    </g>
   </g>
   <g id="matplotlib.axis_6">
    <g id="ytick_13">
     <g id="line2d_32">
      <g>
       <use xlink:href="#m3af88aef6c" x="620.028125" y="184.727355" style="stroke: #000000; stroke-width: 0.8"/>
      </g>
     </g>
     <g id="text_35">
      <!-- 0.75 -->
      <g transform="translate(590.7625 188.526574) scale(0.1 -0.1)">
       <use xlink:href="#DejaVuSans-30"/>
       <use xlink:href="#DejaVuSans-2e" transform="translate(63.623047 0)"/>
       <use xlink:href="#DejaVuSans-37" transform="translate(95.410156 0)"/>
       <use xlink:href="#DejaVuSans-35" transform="translate(159.033203 0)"/>
      </g>
     </g>
    </g>
    <g id="ytick_14">
     <g id="line2d_33">
      <g>
       <use xlink:href="#m3af88aef6c" x="620.028125" y="150.99236" style="stroke: #000000; stroke-width: 0.8"/>
      </g>
     </g>
     <g id="text_36">
      <!-- 0.80 -->
      <g transform="translate(590.7625 154.791579) scale(0.1 -0.1)">
       <use xlink:href="#DejaVuSans-30"/>
       <use xlink:href="#DejaVuSans-2e" transform="translate(63.623047 0)"/>
       <use xlink:href="#DejaVuSans-38" transform="translate(95.410156 0)"/>
       <use xlink:href="#DejaVuSans-30" transform="translate(159.033203 0)"/>
      </g>
     </g>
    </g>
    <g id="ytick_15">
     <g id="line2d_34">
      <g>
       <use xlink:href="#m3af88aef6c" x="620.028125" y="117.257365" style="stroke: #000000; stroke-width: 0.8"/>
      </g>
     </g>
     <g id="text_37">
      <!-- 0.85 -->
      <g transform="translate(590.7625 121.056584) scale(0.1 -0.1)">
       <use xlink:href="#DejaVuSans-30"/>
       <use xlink:href="#DejaVuSans-2e" transform="translate(63.623047 0)"/>
       <use xlink:href="#DejaVuSans-38" transform="translate(95.410156 0)"/>
       <use xlink:href="#DejaVuSans-35" transform="translate(159.033203 0)"/>
      </g>
     </g>
    </g>
    <g id="ytick_16">
     <g id="line2d_35">
      <g>
       <use xlink:href="#m3af88aef6c" x="620.028125" y="83.522371" style="stroke: #000000; stroke-width: 0.8"/>
      </g>
     </g>
     <g id="text_38">
      <!-- 0.90 -->
      <g transform="translate(590.7625 87.321589) scale(0.1 -0.1)">
       <defs>
        <path id="DejaVuSans-39" d="M 703 97 
L 703 672 
Q 941 559 1184 500 
Q 1428 441 1663 441 
Q 2288 441 2617 861 
Q 2947 1281 2994 2138 
Q 2813 1869 2534 1725 
Q 2256 1581 1919 1581 
Q 1219 1581 811 2004 
Q 403 2428 403 3163 
Q 403 3881 828 4315 
Q 1253 4750 1959 4750 
Q 2769 4750 3195 4129 
Q 3622 3509 3622 2328 
Q 3622 1225 3098 567 
Q 2575 -91 1691 -91 
Q 1453 -91 1209 -44 
Q 966 3 703 97 
z
M 1959 2075 
Q 2384 2075 2632 2365 
Q 2881 2656 2881 3163 
Q 2881 3666 2632 3958 
Q 2384 4250 1959 4250 
Q 1534 4250 1286 3958 
Q 1038 3666 1038 3163 
Q 1038 2656 1286 2365 
Q 1534 2075 1959 2075 
z
" transform="scale(0.015625)"/>
       </defs>
       <use xlink:href="#DejaVuSans-30"/>
       <use xlink:href="#DejaVuSans-2e" transform="translate(63.623047 0)"/>
       <use xlink:href="#DejaVuSans-39" transform="translate(95.410156 0)"/>
       <use xlink:href="#DejaVuSans-30" transform="translate(159.033203 0)"/>
      </g>
     </g>
    </g>
    <g id="text_39">
     <!-- Index -->
     <g transform="translate(584.682813 145.186406) rotate(-90) scale(0.1 -0.1)">
      <defs>
       <path id="DejaVuSans-64" d="M 2906 2969 
L 2906 4863 
L 3481 4863 
L 3481 0 
L 2906 0 
L 2906 525 
Q 2725 213 2448 61 
Q 2172 -91 1784 -91 
Q 1150 -91 751 415 
Q 353 922 353 1747 
Q 353 2572 751 3078 
Q 1150 3584 1784 3584 
Q 2172 3584 2448 3432 
Q 2725 3281 2906 2969 
z
M 947 1747 
Q 947 1113 1208 752 
Q 1469 391 1925 391 
Q 2381 391 2643 752 
Q 2906 1113 2906 1747 
Q 2906 2381 2643 2742 
Q 2381 3103 1925 3103 
Q 1469 3103 1208 2742 
Q 947 2381 947 1747 
z
" transform="scale(0.015625)"/>
       <path id="DejaVuSans-78" d="M 3513 3500 
L 2247 1797 
L 3578 0 
L 2900 0 
L 1881 1375 
L 863 0 
L 184 0 
L 1544 1831 
L 300 3500 
L 978 3500 
L 1906 2253 
L 2834 3500 
L 3513 3500 
z
" transform="scale(0.015625)"/>
      </defs>
      <use xlink:href="#DejaVuSans-49"/>
      <use xlink:href="#DejaVuSans-6e" transform="translate(29.492188 0)"/>
      <use xlink:href="#DejaVuSans-64" transform="translate(92.871094 0)"/>
      <use xlink:href="#DejaVuSans-65" transform="translate(156.347656 0)"/>
      <use xlink:href="#DejaVuSans-78" transform="translate(216.121094 0)"/>
     </g>
    </g>
   </g>
   <g id="line2d_36">
    <path d="M 630.452216 117.932619 
L 656.512443 204.856364 
L 682.57267 70.902278 
L 708.632898 57.983636 
L 734.693125 71.239974 
L 760.753352 119.341649 
L 786.81358 85.875807 
L 812.873807 70.622067 
L 838.934034 86.082204 
" clip-path="url(#p8e1ccf3c16)" style="fill: none; stroke: #e15759; stroke-width: 2; stroke-linecap: square"/>
    <defs>
     <path id="m246ca71a34" d="M 0 3 
C 0.795609 3 1.55874 2.683901 2.12132 2.12132 
C 2.683901 1.55874 3 0.795609 3 0 
C 3 -0.795609 2.683901 -1.55874 2.12132 -2.12132 
C 1.55874 -2.683901 0.795609 -3 0 -3 
C -0.795609 -3 -1.55874 -2.683901 -2.12132 -2.12132 
C -2.683901 -1.55874 -3 -0.795609 -3 0 
C -3 0.795609 -2.683901 1.55874 -2.12132 2.12132 
C -1.55874 2.683901 -0.795609 3 0 3 
z
" style="stroke: #e15759"/>
    </defs>
    <g clip-path="url(#p8e1ccf3c16)">
     <use xlink:href="#m246ca71a34" x="630.452216" y="117.932619" style="fill: #e15759; stroke: #e15759"/>
     <use xlink:href="#m246ca71a34" x="656.512443" y="204.856364" style="fill: #e15759; stroke: #e15759"/>
     <use xlink:href="#m246ca71a34" x="682.57267" y="70.902278" style="fill: #e15759; stroke: #e15759"/>
     <use xlink:href="#m246ca71a34" x="708.632898" y="57.983636" style="fill: #e15759; stroke: #e15759"/>
     <use xlink:href="#m246ca71a34" x="734.693125" y="71.239974" style="fill: #e15759; stroke: #e15759"/>
     <use xlink:href="#m246ca71a34" x="760.753352" y="119.341649" style="fill: #e15759; stroke: #e15759"/>
     <use xlink:href="#m246ca71a34" x="786.81358" y="85.875807" style="fill: #e15759; stroke: #e15759"/>
     <use xlink:href="#m246ca71a34" x="812.873807" y="70.622067" style="fill: #e15759; stroke: #e15759"/>
     <use xlink:href="#m246ca71a34" x="838.934034" y="86.082204" style="fill: #e15759; stroke: #e15759"/>
    </g>
   </g>
   <g id="line2d_37">
    <path d="M 656.512443 212.2 
L 656.512443 50.64 
" clip-path="url(#p8e1ccf3c16)" style="fill: none; stroke-dasharray: 5.55,2.4; stroke-dashoffset: 0; stroke: #808080; stroke-opacity: 0.5; stroke-width: 1.5"/>
   </g>
   <g id="patch_13">
    <path d="M 620.028125 212.2 
L 620.028125 50.64 
" style="fill: none; stroke: #000000; stroke-width: 0.8; stroke-linejoin: miter; stroke-linecap: square"/>
   </g>
   <g id="patch_14">
    <path d="M 849.358125 212.2 
L 849.358125 50.64 
" style="fill: none; stroke: #000000; stroke-width: 0.8; stroke-linejoin: miter; stroke-linecap: square"/>
   </g>
   <g id="patch_15">
    <path d="M 620.028125 212.2 
L 849.358125 212.2 
" style="fill: none; stroke: #000000; stroke-width: 0.8; stroke-linejoin: miter; stroke-linecap: square"/>
   </g>
   <g id="patch_16">
    <path d="M 620.028125 50.64 
L 849.358125 50.64 
" style="fill: none; stroke: #000000; stroke-width: 0.8; stroke-linejoin: miter; stroke-linecap: square"/>
   </g>
   <g id="text_40">
    <!-- Davies-Bouldin (lower is better) -->
    <g transform="translate(639.915625 44.64) scale(0.12 -0.12)">
     <defs>
      <path id="DejaVuSans-44" d="M 1259 4147 
L 1259 519 
L 2022 519 
Q 2988 519 3436 956 
Q 3884 1394 3884 2338 
Q 3884 3275 3436 3711 
Q 2988 4147 2022 4147 
L 1259 4147 
z
M 628 4666 
L 1925 4666 
Q 3281 4666 3915 4102 
Q 4550 3538 4550 2338 
Q 4550 1131 3912 565 
Q 3275 0 1925 0 
L 628 0 
L 628 4666 
z
" transform="scale(0.015625)"/>
      <path id="DejaVuSans-76" d="M 191 3500 
L 800 3500 
L 1894 563 
L 2988 3500 
L 3597 3500 
L 2284 0 
L 1503 0 
L 191 3500 
z
" transform="scale(0.015625)"/>
      <path id="DejaVuSans-2d" d="M 313 2009 
L 1997 2009 
L 1997 1497 
L 313 1497 
L 313 2009 
z
" transform="scale(0.015625)"/>
      <path id="DejaVuSans-42" d="M 1259 2228 
L 1259 519 
L 2272 519 
Q 2781 519 3026 730 
Q 3272 941 3272 1375 
Q 3272 1813 3026 2020 
Q 2781 2228 2272 2228 
L 1259 2228 
z
M 1259 4147 
L 1259 2741 
L 2194 2741 
Q 2656 2741 2882 2914 
Q 3109 3088 3109 3444 
Q 3109 3797 2882 3972 
Q 2656 4147 2194 4147 
L 1259 4147 
z
M 628 4666 
L 2241 4666 
Q 2963 4666 3353 4366 
Q 3744 4066 3744 3513 
Q 3744 3084 3544 2831 
Q 3344 2578 2956 2516 
Q 3422 2416 3680 2098 
Q 3938 1781 3938 1306 
Q 3938 681 3513 340 
Q 3088 0 2303 0 
L 628 0 
L 628 4666 
z
" transform="scale(0.015625)"/>
     </defs>
     <use xlink:href="#DejaVuSans-44"/>
     <use xlink:href="#DejaVuSans-61" transform="translate(77.001953 0)"/>
     <use xlink:href="#DejaVuSans-76" transform="translate(138.28125 0)"/>
     <use xlink:href="#DejaVuSans-69" transform="translate(197.460938 0)"/>
     <use xlink:href="#DejaVuSans-65" transform="translate(225.244141 0)"/>
     <use xlink:href="#DejaVuSans-73" transform="translate(286.767578 0)"/>
     <use xlink:href="#DejaVuSans-2d" transform="translate(338.867188 0)"/>
     <use xlink:href="#DejaVuSans-42" transform="translate(371.326172 0)"/>
     <use xlink:href="#DejaVuSans-6f" transform="translate(439.929688 0)"/>
     <use xlink:href="#DejaVuSans-75" transform="translate(501.111328 0)"/>
     <use xlink:href="#DejaVuSans-6c" transform="translate(564.490234 0)"/>
     <use xlink:href="#DejaVuSans-64" transform="translate(592.273438 0)"/>
     <use xlink:href="#DejaVuSans-69" transform="translate(655.75 0)"/>
     <use xlink:href="#DejaVuSans-6e" transform="translate(683.533203 0)"/>
     <use xlink:href="#DejaVuSans-20" transform="translate(746.912109 0)"/>
     <use xlink:href="#DejaVuSans-28" transform="translate(778.699219 0)"/>
     <use xlink:href="#DejaVuSans-6c" transform="translate(817.712891 0)"/>
     <use xlink:href="#DejaVuSans-6f" transform="translate(845.496094 0)"/>
     <use xlink:href="#DejaVuSans-77" transform="translate(906.677734 0)"/>
     <use xlink:href="#DejaVuSans-65" transform="translate(988.464844 0)"/>
     <use xlink:href="#DejaVuSans-72" transform="translate(1049.988281 0)"/>
     <use xlink:href="#DejaVuSans-20" transform="translate(1091.101562 0)"/>
     <use xlink:href="#DejaVuSans-69" transform="translate(1122.888672 0)"/>
     <use xlink:href="#DejaVuSans-73" transform="translate(1150.671875 0)"/>
     <use xlink:href="#DejaVuSans-20" transform="translate(1202.771484 0)"/>
     <use xlink:href="#DejaVuSans-62" transform="translate(1234.558594 0)"/>
     <use xlink:href="#DejaVuSans-65" transform="translate(1298.035156 0)"/>
     <use xlink:href="#DejaVuSans-74" transform="translate(1359.558594 0)"/>
     <use xlink:href="#DejaVuSans-74" transform="translate(1398.767578 0)"/>
     <use xlink:href="#DejaVuSans-65" transform="translate(1437.976562 0)"/>
     <use xlink:href="#DejaVuSans-72" transform="translate(1499.5 0)"/>
     <use xlink:href="#DejaVuSans-29" transform="translate(1540.613281 0)"/>
    </g>
   </g>
  </g>
  <g id="text_41">
   <!-- Three indicators agree on k=3 for a 3-cluster blob dataset -->
   <g transform="translate(267.896719 15.558281) scale(0.11 -0.11)">
    <defs>
     <path id="DejaVuSans-54" d="M -19 4666 
L 3928 4666 
L 3928 4134 
L 2272 4134 
L 2272 0 
L 1638 0 
L 1638 4134 
L -19 4134 
L -19 4666 
z
" transform="scale(0.015625)"/>
     <path id="DejaVuSans-3d" d="M 678 2906 
L 4684 2906 
L 4684 2381 
L 678 2381 
L 678 2906 
z
M 678 1631 
L 4684 1631 
L 4684 1100 
L 678 1100 
L 678 1631 
z
" transform="scale(0.015625)"/>
     <path id="DejaVuSans-66" d="M 2375 4863 
L 2375 4384 
L 1825 4384 
Q 1516 4384 1395 4259 
Q 1275 4134 1275 3809 
L 1275 3500 
L 2222 3500 
L 2222 3053 
L 1275 3053 
L 1275 0 
L 697 0 
L 697 3053 
L 147 3053 
L 147 3500 
L 697 3500 
L 697 3744 
Q 697 4328 969 4595 
Q 1241 4863 1831 4863 
L 2375 4863 
z
" transform="scale(0.015625)"/>
    </defs>
    <use xlink:href="#DejaVuSans-54"/>
    <use xlink:href="#DejaVuSans-68" transform="translate(61.083984 0)"/>
    <use xlink:href="#DejaVuSans-72" transform="translate(124.462891 0)"/>
    <use xlink:href="#DejaVuSans-65" transform="translate(163.326172 0)"/>
    <use xlink:href="#DejaVuSans-65" transform="translate(224.849609 0)"/>
    <use xlink:href="#DejaVuSans-20" transform="translate(286.373047 0)"/>
    <use xlink:href="#DejaVuSans-69" transform="translate(318.160156 0)"/>
    <use xlink:href="#DejaVuSans-6e" transform="translate(345.943359 0)"/>
    <use xlink:href="#DejaVuSans-64" transform="translate(409.322266 0)"/>
    <use xlink:href="#DejaVuSans-69" transform="translate(472.798828 0)"/>
    <use xlink:href="#DejaVuSans-63" transform="translate(500.582031 0)"/>
    <use xlink:href="#DejaVuSans-61" transform="translate(555.5625 0)"/>
    <use xlink:href="#DejaVuSans-74" transform="translate(616.841797 0)"/>
    <use xlink:href="#DejaVuSans-6f" transform="translate(656.050781 0)"/>
    <use xlink:href="#DejaVuSans-72" transform="translate(717.232422 0)"/>
    <use xlink:href="#DejaVuSans-73" transform="translate(758.345703 0)"/>
    <use xlink:href="#DejaVuSans-20" transform="translate(810.445312 0)"/>
    <use xlink:href="#DejaVuSans-61" transform="translate(842.232422 0)"/>
    <use xlink:href="#DejaVuSans-67" transform="translate(903.511719 0)"/>
    <use xlink:href="#DejaVuSans-72" transform="translate(966.988281 0)"/>
    <use xlink:href="#DejaVuSans-65" transform="translate(1005.851562 0)"/>
    <use xlink:href="#DejaVuSans-65" transform="translate(1067.375 0)"/>
    <use xlink:href="#DejaVuSans-20" transform="translate(1128.898438 0)"/>
    <use xlink:href="#DejaVuSans-6f" transform="translate(1160.685547 0)"/>
    <use xlink:href="#DejaVuSans-6e" transform="translate(1221.867188 0)"/>
    <use xlink:href="#DejaVuSans-20" transform="translate(1285.246094 0)"/>
    <use xlink:href="#DejaVuSans-6b" transform="translate(1317.033203 0)"/>
    <use xlink:href="#DejaVuSans-3d" transform="translate(1374.943359 0)"/>
    <use xlink:href="#DejaVuSans-33" transform="translate(1458.732422 0)"/>
    <use xlink:href="#DejaVuSans-20" transform="translate(1522.355469 0)"/>
    <use xlink:href="#DejaVuSans-66" transform="translate(1554.142578 0)"/>
    <use xlink:href="#DejaVuSans-6f" transform="translate(1589.347656 0)"/>
    <use xlink:href="#DejaVuSans-72" transform="translate(1650.529297 0)"/>
    <use xlink:href="#DejaVuSans-20" transform="translate(1691.642578 0)"/>
    <use xlink:href="#DejaVuSans-61" transform="translate(1723.429688 0)"/>
    <use xlink:href="#DejaVuSans-20" transform="translate(1784.708984 0)"/>
    <use xlink:href="#DejaVuSans-33" transform="translate(1816.496094 0)"/>
    <use xlink:href="#DejaVuSans-2d" transform="translate(1880.119141 0)"/>
    <use xlink:href="#DejaVuSans-63" transform="translate(1916.203125 0)"/>
    <use xlink:href="#DejaVuSans-6c" transform="translate(1971.183594 0)"/>
    <use xlink:href="#DejaVuSans-75" transform="translate(1998.966797 0)"/>
    <use xlink:href="#DejaVuSans-73" transform="translate(2062.345703 0)"/>
    <use xlink:href="#DejaVuSans-74" transform="translate(2114.445312 0)"/>
    <use xlink:href="#DejaVuSans-65" transform="translate(2153.654297 0)"/>
    <use xlink:href="#DejaVuSans-72" transform="translate(2215.177734 0)"/>
    <use xlink:href="#DejaVuSans-20" transform="translate(2256.291016 0)"/>
    <use xlink:href="#DejaVuSans-62" transform="translate(2288.078125 0)"/>
    <use xlink:href="#DejaVuSans-6c" transform="translate(2351.554688 0)"/>
    <use xlink:href="#DejaVuSans-6f" transform="translate(2379.337891 0)"/>
    <use xlink:href="#DejaVuSans-62" transform="translate(2440.519531 0)"/>
    <use xlink:href="#DejaVuSans-20" transform="translate(2503.996094 0)"/>
    <use xlink:href="#DejaVuSans-64" transform="translate(2535.783203 0)"/>
    <use xlink:href="#DejaVuSans-61" transform="translate(2599.259766 0)"/>
    <use xlink:href="#DejaVuSans-74" transform="translate(2660.539062 0)"/>
    <use xlink:href="#DejaVuSans-61" transform="translate(2699.748047 0)"/>
    <use xlink:href="#DejaVuSans-73" transform="translate(2761.027344 0)"/>
    <use xlink:href="#DejaVuSans-65" transform="translate(2813.126953 0)"/>
    <use xlink:href="#DejaVuSans-74" transform="translate(2874.650391 0)"/>
   </g>
  </g>
 </g>
 <defs>
  <clipPath id="p39dacaeb9b">
   <rect x="53.328125" y="50.64" width="229.33" height="161.56"/>
  </clipPath>
  <clipPath id="p5e8722c7c4">
   <rect x="336.678125" y="50.64" width="229.33" height="161.56"/>
  </clipPath>
  <clipPath id="p8e1ccf3c16">
   <rect x="620.028125" y="50.64" width="229.33" height="161.56"/>
  </clipPath>
 </defs>
</svg>
