<?xml version="1.0" encoding="utf-8" standalone="no"?>
<!DOCTYPE svg PUBLIC "-//W3C//DTD SVG 1.1//EN"
  "http://www.w3.org/Graphics/SVG/1.1/DTD/svg11.dtd">
<svg xmlns:xlink="http://www.w3.org/1999/xlink" width="532.46125pt" height="313.49575pt" viewBox="0 0 532.46125 313.49575" xmlns="http://www.w3.org/2000/svg" version="1.1">
 <metadata>
  <rdf:RDF xmlns:dc="http://purl.org/dc/elements/1.1/" xmlns:cc="http://creativecommons.org/ns#" xmlns:rdf="http://www.w3.org/1999/02/22-rdf-syntax-ns#">
   <cc:Work>
    <dc:type rdf:resource="http://purl.org/dc/dcmitype/StillImage"/>
    <dc:date>2026-05-26T10:46:54.078139</dc:date>
    <dc:format>image/svg+xml</dc:format>
    <dc:creator>
     <cc:Agent>
      <dc:title>Matplotlib v3.10.8, https://matplotlib.org/</dc:title>
     </cc:Agent>
    </dc:creator>
   </cc:Work>
  </rdf:RDF>
 </metadata>
 <defs>
  <style type="text/css">*{stroke-linejoin: round; stroke-linecap: butt}</style>
 </defs>
 <g id="figure_1">
  <g id="patch_1">
   <path d="M 0 313.49575 
L 532.46125 313.49575 
L 532.46125 0 
L 0 0 
z
" style="fill: #ffffff"/>
  </g>
  <g id="axes_1">
   <g id="patch_2">
    <path d="M 43.78125 275.9395 
L 525.26125 275.9395 
L 525.26125 35.7555 
L 43.78125 35.7555 
z
" style="fill: #ffffff"/>
   </g>
   <g id="matplotlib.axis_1">
    <g id="xtick_1">
     <g id="line2d_1">
      <path d="M 65.228118 275.9395 
L 65.228118 35.7555 
" clip-path="url(#pcca203f245)" style="fill: none; stroke: #b0b0b0; stroke-opacity: 0.25; stroke-width: 0.8; stroke-linecap: square"/>
     </g>
     <g id="line2d_2">
      <defs>
       <path id="m80a9b043ed" d="M 0 0 
L 0 3.5 
" style="stroke: #000000; stroke-width: 0.8"/>
      </defs>
      <g>
       <use xlink:href="#m80a9b043ed" x="65.228118" y="275.9395" style="stroke: #000000; stroke-width: 0.8"/>
      </g>
     </g>
     <g id="text_1">
      <!-- 0.0 -->
      <g transform="translate(57.276556 290.537937) scale(0.1 -0.1)">
       <defs>
        <path id="DejaVuSans-30" d="M 2034 4250 
Q 1547 4250 1301 3770 
Q 1056 3291 1056 2328 
Q 1056 1369 1301 889 
Q 1547 409 2034 409 
Q 2525 409 2770 889 
Q 3016 1369 3016 2328 
Q 3016 3291 2770 3770 
Q 2525 4250 2034 4250 
z
M 2034 4750 
Q 2819 4750 3233 4129 
Q 3647 3509 3647 2328 
Q 3647 1150 3233 529 
Q 2819 -91 2034 -91 
Q 1250 -91 836 529 
Q 422 1150 422 2328 
Q 422 3509 836 4129 
Q 1250 4750 2034 4750 
z
" transform="scale(0.015625)"/>
        <path id="DejaVuSans-2e" d="M 684 794 
L 1344 794 
L 1344 0 
L 684 0 
L 684 794 
z
" transform="scale(0.015625)"/>
       </defs>
       <use xlink:href="#DejaVuSans-30"/>
       <use xlink:href="#DejaVuSans-2e" transform="translate(63.623047 0)"/>
       <use xlink:href="#DejaVuSans-30" transform="translate(95.410156 0)"/>
      </g>
     </g>
    </g>
    <g id="xtick_2">
     <g id="line2d_3">
      <path d="M 152.945371 275.9395 
L 152.945371 35.7555 
" clip-path="url(#pcca203f245)" style="fill: none; stroke: #b0b0b0; stroke-opacity: 0.25; stroke-width: 0.8; stroke-linecap: square"/>
     </g>
     <g id="line2d_4">
      <g>
       <use xlink:href="#m80a9b043ed" x="152.945371" y="275.9395" style="stroke: #000000; stroke-width: 0.8"/>
      </g>
     </g>
     <g id="text_2">
      <!-- 0.2 -->
      <g transform="translate(144.993808 290.537937) scale(0.1 -0.1)">
       <defs>
        <path id="DejaVuSans-32" d="M 1228 531 
L 3431 531 
L 3431 0 
L 469 0 
L 469 531 
Q 828 903 1448 1529 
Q 2069 2156 2228 2338 
Q 2531 2678 2651 2914 
Q 2772 3150 2772 3378 
Q 2772 3750 2511 3984 
Q 2250 4219 1831 4219 
Q 1534 4219 1204 4116 
Q 875 4013 500 3803 
L 500 4441 
Q 881 4594 1212 4672 
Q 1544 4750 1819 4750 
Q 2544 4750 2975 4387 
Q 3406 4025 3406 3419 
Q 3406 3131 3298 2873 
Q 3191 2616 2906 2266 
Q 2828 2175 2409 1742 
Q 1991 1309 1228 531 
z
" transform="scale(0.015625)"/>
       </defs>
       <use xlink:href="#DejaVuSans-30"/>
       <use xlink:href="#DejaVuSans-2e" transform="translate(63.623047 0)"/>
       <use xlink:href="#DejaVuSans-32" transform="translate(95.410156 0)"/>
      </g>
     </g>
    </g>
    <g id="xtick_3">
     <g id="line2d_5">
      <path d="M 240.662624 275.9395 
L 240.662624 35.7555 
" clip-path="url(#pcca203f245)" style="fill: none; stroke: #b0b0b0; stroke-opacity: 0.25; stroke-width: 0.8; stroke-linecap: square"/>
     </g>
     <g id="line2d_6">
      <g>
       <use xlink:href="#m80a9b043ed" x="240.662624" y="275.9395" style="stroke: #000000; stroke-width: 0.8"/>
      </g>
     </g>
     <g id="text_3">
      <!-- 0.4 -->
      <g transform="translate(232.711061 290.537937) scale(0.1 -0.1)">
       <defs>
        <path id="DejaVuSans-34" d="M 2419 4116 
L 825 1625 
L 2419 1625 
L 2419 4116 
z
M 2253 4666 
L 3047 4666 
L 3047 1625 
L 3713 1625 
L 3713 1100 
L 3047 1100 
L 3047 0 
L 2419 0 
L 2419 1100 
L 313 1100 
L 313 1709 
L 2253 4666 
z
" transform="scale(0.015625)"/>
       </defs>
       <use xlink:href="#DejaVuSans-30"/>
       <use xlink:href="#DejaVuSans-2e" transform="translate(63.623047 0)"/>
       <use xlink:href="#DejaVuSans-34" transform="translate(95.410156 0)"/>
      </g>
     </g>
    </g>
    <g id="xtick_4">
     <g id="line2d_7">
      <path d="M 328.379876 275.9395 
L 328.379876 35.7555 
" clip-path="url(#pcca203f245)" style="fill: none; stroke: #b0b0b0; stroke-opacity: 0.25; stroke-width: 0.8; stroke-linecap: square"/>
     </g>
     <g id="line2d_8">
      <g>
       <use xlink:href="#m80a9b043ed" x="328.379876" y="275.9395" style="stroke: #000000; stroke-width: 0.8"/>
      </g>
     </g>
     <g id="text_4">
      <!-- 0.6 -->
      <g transform="translate(320.428314 290.537937) scale(0.1 -0.1)">
       <defs>
        <path id="DejaVuSans-36" d="M 2113 2584 
Q 1688 2584 1439 2293 
Q 1191 2003 1191 1497 
Q 1191 994 1439 701 
Q 1688 409 2113 409 
Q 2538 409 2786 701 
Q 3034 994 3034 1497 
Q 3034 2003 2786 2293 
Q 2538 2584 2113 2584 
z
M 3366 4563 
L 3366 3988 
Q 3128 4100 2886 4159 
Q 2644 4219 2406 4219 
Q 1781 4219 1451 3797 
Q 1122 3375 1075 2522 
Q 1259 2794 1537 2939 
Q 1816 3084 2150 3084 
Q 2853 3084 3261 2657 
Q 3669 2231 3669 1497 
Q 3669 778 3244 343 
Q 2819 -91 2113 -91 
Q 1303 -91 875 529 
Q 447 1150 447 2328 
Q 447 3434 972 4092 
Q 1497 4750 2381 4750 
Q 2619 4750 2861 4703 
Q 3103 4656 3366 4563 
z
" transform="scale(0.015625)"/>
       </defs>
       <use xlink:href="#DejaVuSans-30"/>
       <use xlink:href="#DejaVuSans-2e" transform="translate(63.623047 0)"/>
       <use xlink:href="#DejaVuSans-36" transform="translate(95.410156 0)"/>
      </g>
     </g>
    </g>
    <g id="xtick_5">
     <g id="line2d_9">
      <path d="M 416.097129 275.9395 
L 416.097129 35.7555 
" clip-path="url(#pcca203f245)" style="fill: none; stroke: #b0b0b0; stroke-opacity: 0.25; stroke-width: 0.8; stroke-linecap: square"/>
     </g>
     <g id="line2d_10">
      <g>
       <use xlink:href="#m80a9b043ed" x="416.097129" y="275.9395" style="stroke: #000000; stroke-width: 0.8"/>
      </g>
     </g>
     <g id="text_5">
      <!-- 0.8 -->
      <g transform="translate(408.145567 290.537937) scale(0.1 -0.1)">
       <defs>
        <path id="DejaVuSans-38" d="M 2034 2216 
Q 1584 2216 1326 1975 
Q 1069 1734 1069 1313 
Q 1069 891 1326 650 
Q 1584 409 2034 409 
Q 2484 409 2743 651 
Q 3003 894 3003 1313 
Q 3003 1734 2745 1975 
Q 2488 2216 2034 2216 
z
M 1403 2484 
Q 997 2584 770 2862 
Q 544 3141 544 3541 
Q 544 4100 942 4425 
Q 1341 4750 2034 4750 
Q 2731 4750 3128 4425 
Q 3525 4100 3525 3541 
Q 3525 3141 3298 2862 
Q 3072 2584 2669 2484 
Q 3125 2378 3379 2068 
Q 3634 1759 3634 1313 
Q 3634 634 3220 271 
Q 2806 -91 2034 -91 
Q 1263 -91 848 271 
Q 434 634 434 1313 
Q 434 1759 690 2068 
Q 947 2378 1403 2484 
z
M 1172 3481 
Q 1172 3119 1398 2916 
Q 1625 2713 2034 2713 
Q 2441 2713 2670 2916 
Q 2900 3119 2900 3481 
Q 2900 3844 2670 4047 
Q 2441 4250 2034 4250 
Q 1625 4250 1398 4047 
Q 1172 3844 1172 3481 
z
" transform="scale(0.015625)"/>
       </defs>
       <use xlink:href="#DejaVuSans-30"/>
       <use xlink:href="#DejaVuSans-2e" transform="translate(63.623047 0)"/>
       <use xlink:href="#DejaVuSans-38" transform="translate(95.410156 0)"/>
      </g>
     </g>
    </g>
    <g id="xtick_6">
     <g id="line2d_11">
      <path d="M 503.814382 275.9395 
L 503.814382 35.7555 
" clip-path="url(#pcca203f245)" style="fill: none; stroke: #b0b0b0; stroke-opacity: 0.25; stroke-width: 0.8; stroke-linecap: square"/>
     </g>
     <g id="line2d_12">
      <g>
       <use xlink:href="#m80a9b043ed" x="503.814382" y="275.9395" style="stroke: #000000; stroke-width: 0.8"/>
      </g>
     </g>
     <g id="text_6">
      <!-- 1.0 -->
      <g transform="translate(495.862819 290.537937) scale(0.1 -0.1)">
       <defs>
        <path id="DejaVuSans-31" d="M 794 531 
L 1825 531 
L 1825 4091 
L 703 3866 
L 703 4441 
L 1819 4666 
L 2450 4666 
L 2450 531 
L 3481 531 
L 3481 0 
L 794 0 
L 794 531 
z
" transform="scale(0.015625)"/>
       </defs>
       <use xlink:href="#DejaVuSans-31"/>
       <use xlink:href="#DejaVuSans-2e" transform="translate(63.623047 0)"/>
       <use xlink:href="#DejaVuSans-30" transform="translate(95.410156 0)"/>
      </g>
     </g>
    </g>
    <g id="text_7">
     <!-- class 1 probability p -->
     <g transform="translate(234.311094 304.216062) scale(0.1 -0.1)">
      <defs>
       <path id="DejaVuSans-63" d="M 3122 3366 
L 3122 2828 
Q 2878 2963 2633 3030 
Q 2388 3097 2138 3097 
Q 1578 3097 1268 2742 
Q 959 2388 959 1747 
Q 959 1106 1268 751 
Q 1578 397 2138 397 
Q 2388 397 2633 464 
Q 2878 531 3122 666 
L 3122 134 
Q 2881 22 2623 -34 
Q 2366 -91 2075 -91 
Q 1284 -91 818 406 
Q 353 903 353 1747 
Q 353 2603 823 3093 
Q 1294 3584 2113 3584 
Q 2378 3584 2631 3529 
Q 2884 3475 3122 3366 
z
" transform="scale(0.015625)"/>
       <path id="DejaVuSans-6c" d="M 603 4863 
L 1178 4863 
L 1178 0 
L 603 0 
L 603 4863 
z
" transform="scale(0.015625)"/>
       <path id="DejaVuSans-61" d="M 2194 1759 
Q 1497 1759 1228 1600 
Q 959 1441 959 1056 
Q 959 750 1161 570 
Q 1363 391 1709 391 
Q 2188 391 2477 730 
Q 2766 1069 2766 1631 
L 2766 1759 
L 2194 1759 
z
M 3341 1997 
L 3341 0 
L 2766 0 
L 2766 531 
Q 2569 213 2275 61 
Q 1981 -91 1556 -91 
Q 1019 -91 701 211 
Q 384 513 384 1019 
Q 384 1609 779 1909 
Q 1175 2209 1959 2209 
L 2766 2209 
L 2766 2266 
Q 2766 2663 2505 2880 
Q 2244 3097 1772 3097 
Q 1472 3097 1187 3025 
Q 903 2953 641 2809 
L 641 3341 
Q 956 3463 1253 3523 
Q 1550 3584 1831 3584 
Q 2591 3584 2966 3190 
Q 3341 2797 3341 1997 
z
" transform="scale(0.015625)"/>
       <path id="DejaVuSans-73" d="M 2834 3397 
L 2834 2853 
Q 2591 2978 2328 3040 
Q 2066 3103 1784 3103 
Q 1356 3103 1142 2972 
Q 928 2841 928 2578 
Q 928 2378 1081 2264 
Q 1234 2150 1697 2047 
L 1894 2003 
Q 2506 1872 2764 1633 
Q 3022 1394 3022 966 
Q 3022 478 2636 193 
Q 2250 -91 1575 -91 
Q 1294 -91 989 -36 
Q 684 19 347 128 
L 347 722 
Q 666 556 975 473 
Q 1284 391 1588 391 
Q 1994 391 2212 530 
Q 2431 669 2431 922 
Q 2431 1156 2273 1281 
Q 2116 1406 1581 1522 
L 1381 1569 
Q 847 1681 609 1914 
Q 372 2147 372 2553 
Q 372 3047 722 3315 
Q 1072 3584 1716 3584 
Q 2034 3584 2315 3537 
Q 2597 3491 2834 3397 
z
" transform="scale(0.015625)"/>
       <path id="DejaVuSans-20" transform="scale(0.015625)"/>
       <path id="DejaVuSans-70" d="M 1159 525 
L 1159 -1331 
L 581 -1331 
L 581 3500 
L 1159 3500 
L 1159 2969 
Q 1341 3281 1617 3432 
Q 1894 3584 2278 3584 
Q 2916 3584 3314 3078 
Q 3713 2572 3713 1747 
Q 3713 922 3314 415 
Q 2916 -91 2278 -91 
Q 1894 -91 1617 61 
Q 1341 213 1159 525 
z
M 3116 1747 
Q 3116 2381 2855 2742 
Q 2594 3103 2138 3103 
Q 1681 3103 1420 2742 
Q 1159 2381 1159 1747 
Q 1159 1113 1420 752 
Q 1681 391 2138 391 
Q 2594 391 2855 752 
Q 3116 1113 3116 1747 
z
" transform="scale(0.015625)"/>
       <path id="DejaVuSans-72" d="M 2631 2963 
Q 2534 3019 2420 3045 
Q 2306 3072 2169 3072 
Q 1681 3072 1420 2755 
Q 1159 2438 1159 1844 
L 1159 0 
L 581 0 
L 581 3500 
L 1159 3500 
L 1159 2956 
Q 1341 3275 1631 3429 
Q 1922 3584 2338 3584 
Q 2397 3584 2469 3576 
Q 2541 3569 2628 3553 
L 2631 2963 
z
" transform="scale(0.015625)"/>
       <path id="DejaVuSans-6f" d="M 1959 3097 
Q 1497 3097 1228 2736 
Q 959 2375 959 1747 
Q 959 1119 1226 758 
Q 1494 397 1959 397 
Q 2419 397 2687 759 
Q 2956 1122 2956 1747 
Q 2956 2369 2687 2733 
Q 2419 3097 1959 3097 
z
M 1959 3584 
Q 2709 3584 3137 3096 
Q 3566 2609 3566 1747 
Q 3566 888 3137 398 
Q 2709 -91 1959 -91 
Q 1206 -91 779 398 
Q 353 888 353 1747 
Q 353 2609 779 3096 
Q 1206 3584 1959 3584 
z
" transform="scale(0.015625)"/>
       <path id="DejaVuSans-62" d="M 3116 1747 
Q 3116 2381 2855 2742 
Q 2594 3103 2138 3103 
Q 1681 3103 1420 2742 
Q 1159 2381 1159 1747 
Q 1159 1113 1420 752 
Q 1681 391 2138 391 
Q 2594 391 2855 752 
Q 3116 1113 3116 1747 
z
M 1159 2969 
Q 1341 3281 1617 3432 
Q 1894 3584 2278 3584 
Q 2916 3584 3314 3078 
Q 3713 2572 3713 1747 
Q 3713 922 3314 415 
Q 2916 -91 2278 -91 
Q 1894 -91 1617 61 
Q 1341 213 1159 525 
L 1159 0 
L 581 0 
L 581 4863 
L 1159 4863 
L 1159 2969 
z
" transform="scale(0.015625)"/>
       <path id="DejaVuSans-69" d="M 603 3500 
L 1178 3500 
L 1178 0 
L 603 0 
L 603 3500 
z
M 603 4863 
L 1178 4863 
L 1178 4134 
L 603 4134 
L 603 4863 
z
" transform="scale(0.015625)"/>
       <path id="DejaVuSans-74" d="M 1172 4494 
L 1172 3500 
L 2356 3500 
L 2356 3053 
L 1172 3053 
L 1172 1153 
Q 1172 725 1289 603 
Q 1406 481 1766 481 
L 2356 481 
L 2356 0 
L 1766 0 
Q 1100 0 847 248 
Q 594 497 594 1153 
L 594 3053 
L 172 3053 
L 172 3500 
L 594 3500 
L 594 4494 
L 1172 4494 
z
" transform="scale(0.015625)"/>
       <path id="DejaVuSans-79" d="M 2059 -325 
Q 1816 -950 1584 -1140 
Q 1353 -1331 966 -1331 
L 506 -1331 
L 506 -850 
L 844 -850 
Q 1081 -850 1212 -737 
Q 1344 -625 1503 -206 
L 1606 56 
L 191 3500 
L 800 3500 
L 1894 763 
L 2988 3500 
L 3597 3500 
L 2059 -325 
z
" transform="scale(0.015625)"/>
      </defs>
      <use xlink:href="#DejaVuSans-63"/>
      <use xlink:href="#DejaVuSans-6c" transform="translate(54.980469 0)"/>
      <use xlink:href="#DejaVuSans-61" transform="translate(82.763672 0)"/>
      <use xlink:href="#DejaVuSans-73" transform="translate(144.042969 0)"/>
      <use xlink:href="#DejaVuSans-73" transform="translate(196.142578 0)"/>
      <use xlink:href="#DejaVuSans-20" transform="translate(248.242188 0)"/>
      <use xlink:href="#DejaVuSans-31" transform="translate(280.029297 0)"/>
      <use xlink:href="#DejaVuSans-20" transform="translate(343.652344 0)"/>
      <use xlink:href="#DejaVuSans-70" transform="translate(375.439453 0)"/>
      <use xlink:href="#DejaVuSans-72" transform="translate(438.916016 0)"/>
      <use xlink:href="#DejaVuSans-6f" transform="translate(477.779297 0)"/>
      <use xlink:href="#DejaVuSans-62" transform="translate(538.960938 0)"/>
      <use xlink:href="#DejaVuSans-61" transform="translate(602.4375 0)"/>
      <use xlink:href="#DejaVuSans-62" transform="translate(663.716797 0)"/>
      <use xlink:href="#DejaVuSans-69" transform="translate(727.193359 0)"/>
      <use xlink:href="#DejaVuSans-6c" transform="translate(754.976562 0)"/>
      <use xlink:href="#DejaVuSans-69" transform="translate(782.759766 0)"/>
      <use xlink:href="#DejaVuSans-74" transform="translate(810.542969 0)"/>
      <use xlink:href="#DejaVuSans-79" transform="translate(849.751953 0)"/>
      <use xlink:href="#DejaVuSans-20" transform="translate(908.931641 0)"/>
      <use xlink:href="#DejaVuSans-70" transform="translate(940.71875 0)"/>
     </g>
    </g>
   </g>
   <g id="matplotlib.axis_2">
    <g id="ytick_1">
     <g id="line2d_13">
      <path d="M 43.78125 265.898073 
L 525.26125 265.898073 
" clip-path="url(#pcca203f245)" style="fill: none; stroke: #b0b0b0; stroke-opacity: 0.25; stroke-width: 0.8; stroke-linecap: square"/>
     </g>
     <g id="line2d_14">
      <defs>
       <path id="m6f82dfdbfc" d="M 0 0 
L -3.5 0 
" style="stroke: #000000; stroke-width: 0.8"/>
      </defs>
      <g>
       <use xlink:href="#m6f82dfdbfc" x="43.78125" y="265.898073" style="stroke: #000000; stroke-width: 0.8"/>
      </g>
     </g>
     <g id="text_8">
      <!-- 0.0 -->
      <g transform="translate(20.878125 269.697292) scale(0.1 -0.1)">
       <use xlink:href="#DejaVuSans-30"/>
       <use xlink:href="#DejaVuSans-2e" transform="translate(63.623047 0)"/>
       <use xlink:href="#DejaVuSans-30" transform="translate(95.410156 0)"/>
      </g>
     </g>
    </g>
    <g id="ytick_2">
     <g id="line2d_15">
      <path d="M 43.78125 222.052851 
L 525.26125 222.052851 
" clip-path="url(#pcca203f245)" style="fill: none; stroke: #b0b0b0; stroke-opacity: 0.25; stroke-width: 0.8; stroke-linecap: square"/>
     </g>
     <g id="line2d_16">
      <g>
       <use xlink:href="#m6f82dfdbfc" x="43.78125" y="222.052851" style="stroke: #000000; stroke-width: 0.8"/>
      </g>
     </g>
     <g id="text_9">
      <!-- 0.1 -->
      <g transform="translate(20.878125 225.85207) scale(0.1 -0.1)">
       <use xlink:href="#DejaVuSans-30"/>
       <use xlink:href="#DejaVuSans-2e" transform="translate(63.623047 0)"/>
       <use xlink:href="#DejaVuSans-31" transform="translate(95.410156 0)"/>
      </g>
     </g>
    </g>
    <g id="ytick_3">
     <g id="line2d_17">
      <path d="M 43.78125 178.20763 
L 525.26125 178.20763 
" clip-path="url(#pcca203f245)" style="fill: none; stroke: #b0b0b0; stroke-opacity: 0.25; stroke-width: 0.8; stroke-linecap: square"/>
     </g>
     <g id="line2d_18">
      <g>
       <use xlink:href="#m6f82dfdbfc" x="43.78125" y="178.20763" style="stroke: #000000; stroke-width: 0.8"/>
      </g>
     </g>
     <g id="text_10">
      <!-- 0.2 -->
      <g transform="translate(20.878125 182.006849) scale(0.1 -0.1)">
       <use xlink:href="#DejaVuSans-30"/>
       <use xlink:href="#DejaVuSans-2e" transform="translate(63.623047 0)"/>
       <use xlink:href="#DejaVuSans-32" transform="translate(95.410156 0)"/>
      </g>
     </g>
    </g>
    <g id="ytick_4">
     <g id="line2d_19">
      <path d="M 43.78125 134.362408 
L 525.26125 134.362408 
" clip-path="url(#pcca203f245)" style="fill: none; stroke: #b0b0b0; stroke-opacity: 0.25; stroke-width: 0.8; stroke-linecap: square"/>
     </g>
     <g id="line2d_20">
      <g>
       <use xlink:href="#m6f82dfdbfc" x="43.78125" y="134.362408" style="stroke: #000000; stroke-width: 0.8"/>
      </g>
     </g>
     <g id="text_11">
      <!-- 0.3 -->
      <g transform="translate(20.878125 138.161627) scale(0.1 -0.1)">
       <defs>
        <path id="DejaVuSans-33" d="M 2597 2516 
Q 3050 2419 3304 2112 
Q 3559 1806 3559 1356 
Q 3559 666 3084 287 
Q 2609 -91 1734 -91 
Q 1441 -91 1130 -33 
Q 819 25 488 141 
L 488 750 
Q 750 597 1062 519 
Q 1375 441 1716 441 
Q 2309 441 2620 675 
Q 2931 909 2931 1356 
Q 2931 1769 2642 2001 
Q 2353 2234 1838 2234 
L 1294 2234 
L 1294 2753 
L 1863 2753 
Q 2328 2753 2575 2939 
Q 2822 3125 2822 3475 
Q 2822 3834 2567 4026 
Q 2313 4219 1838 4219 
Q 1578 4219 1281 4162 
Q 984 4106 628 3988 
L 628 4550 
Q 988 4650 1302 4700 
Q 1616 4750 1894 4750 
Q 2613 4750 3031 4423 
Q 3450 4097 3450 3541 
Q 3450 3153 3228 2886 
Q 3006 2619 2597 2516 
z
" transform="scale(0.015625)"/>
       </defs>
       <use xlink:href="#DejaVuSans-30"/>
       <use xlink:href="#DejaVuSans-2e" transform="translate(63.623047 0)"/>
       <use xlink:href="#DejaVuSans-33" transform="translate(95.410156 0)"/>
      </g>
     </g>
    </g>
    <g id="ytick_5">
     <g id="line2d_21">
      <path d="M 43.78125 90.517187 
L 525.26125 90.517187 
" clip-path="url(#pcca203f245)" style="fill: none; stroke: #b0b0b0; stroke-opacity: 0.25; stroke-width: 0.8; stroke-linecap: square"/>
     </g>
     <g id="line2d_22">
      <g>
       <use xlink:href="#m6f82dfdbfc" x="43.78125" y="90.517187" style="stroke: #000000; stroke-width: 0.8"/>
      </g>
     </g>
     <g id="text_12">
      <!-- 0.4 -->
      <g transform="translate(20.878125 94.316405) scale(0.1 -0.1)">
       <use xlink:href="#DejaVuSans-30"/>
       <use xlink:href="#DejaVuSans-2e" transform="translate(63.623047 0)"/>
       <use xlink:href="#DejaVuSans-34" transform="translate(95.410156 0)"/>
      </g>
     </g>
    </g>
    <g id="ytick_6">
     <g id="line2d_23">
      <path d="M 43.78125 46.671965 
L 525.26125 46.671965 
" clip-path="url(#pcca203f245)" style="fill: none; stroke: #b0b0b0; stroke-opacity: 0.25; stroke-width: 0.8; stroke-linecap: square"/>
     </g>
     <g id="line2d_24">
      <g>
       <use xlink:href="#m6f82dfdbfc" x="43.78125" y="46.671965" style="stroke: #000000; stroke-width: 0.8"/>
      </g>
     </g>
     <g id="text_13">
      <!-- 0.5 -->
      <g transform="translate(20.878125 50.471184) scale(0.1 -0.1)">
       <defs>
        <path id="DejaVuSans-35" d="M 691 4666 
L 3169 4666 
L 3169 4134 
L 1269 4134 
L 1269 2991 
Q 1406 3038 1543 3061 
Q 1681 3084 1819 3084 
Q 2600 3084 3056 2656 
Q 3513 2228 3513 1497 
Q 3513 744 3044 326 
Q 2575 -91 1722 -91 
Q 1428 -91 1123 -41 
Q 819 9 494 109 
L 494 744 
Q 775 591 1075 516 
Q 1375 441 1709 441 
Q 2250 441 2565 725 
Q 2881 1009 2881 1497 
Q 2881 1984 2565 2268 
Q 2250 2553 1709 2553 
Q 1456 2553 1204 2497 
Q 953 2441 691 2322 
L 691 4666 
z
" transform="scale(0.015625)"/>
       </defs>
       <use xlink:href="#DejaVuSans-30"/>
       <use xlink:href="#DejaVuSans-2e" transform="translate(63.623047 0)"/>
       <use xlink:href="#DejaVuSans-35" transform="translate(95.410156 0)"/>
      </g>
     </g>
    </g>
    <g id="text_14">
     <!-- impurity -->
     <g transform="translate(14.798438 176.813906) rotate(-90) scale(0.1 -0.1)">
      <defs>
       <path id="DejaVuSans-6d" d="M 3328 2828 
Q 3544 3216 3844 3400 
Q 4144 3584 4550 3584 
Q 5097 3584 5394 3201 
Q 5691 2819 5691 2113 
L 5691 0 
L 5113 0 
L 5113 2094 
Q 5113 2597 4934 2840 
Q 4756 3084 4391 3084 
Q 3944 3084 3684 2787 
Q 3425 2491 3425 1978 
L 3425 0 
L 2847 0 
L 2847 2094 
Q 2847 2600 2669 2842 
Q 2491 3084 2119 3084 
Q 1678 3084 1418 2786 
Q 1159 2488 1159 1978 
L 1159 0 
L 581 0 
L 581 3500 
L 1159 3500 
L 1159 2956 
Q 1356 3278 1631 3431 
Q 1906 3584 2284 3584 
Q 2666 3584 2933 3390 
Q 3200 3197 3328 2828 
z
" transform="scale(0.015625)"/>
       <path id="DejaVuSans-75" d="M 544 1381 
L 544 3500 
L 1119 3500 
L 1119 1403 
Q 1119 906 1312 657 
Q 1506 409 1894 409 
Q 2359 409 2629 706 
Q 2900 1003 2900 1516 
L 2900 3500 
L 3475 3500 
L 3475 0 
L 2900 0 
L 2900 538 
Q 2691 219 2414 64 
Q 2138 -91 1772 -91 
Q 1169 -91 856 284 
Q 544 659 544 1381 
z
M 1991 3584 
L 1991 3584 
z
" transform="scale(0.015625)"/>
      </defs>
      <use xlink:href="#DejaVuSans-69"/>
      <use xlink:href="#DejaVuSans-6d" transform="translate(27.783203 0)"/>
      <use xlink:href="#DejaVuSans-70" transform="translate(125.195312 0)"/>
      <use xlink:href="#DejaVuSans-75" transform="translate(188.671875 0)"/>
      <use xlink:href="#DejaVuSans-72" transform="translate(252.050781 0)"/>
      <use xlink:href="#DejaVuSans-69" transform="translate(293.164062 0)"/>
      <use xlink:href="#DejaVuSans-74" transform="translate(320.947266 0)"/>
      <use xlink:href="#DejaVuSans-79" transform="translate(360.15625 0)"/>
     </g>
    </g>
   </g>
   <g id="line2d_25">
    <path d="M 65.666705 265.022045 
L 73.345811 249.968054 
L 81.024918 235.451705 
L 88.704025 221.472999 
L 95.286117 209.91917 
L 101.868208 198.760344 
L 108.4503 187.996521 
L 115.032391 177.6277 
L 121.614483 167.653883 
L 128.196575 158.075067 
L 134.778666 148.891255 
L 141.360758 140.102445 
L 147.942849 131.708638 
L 154.524941 123.709833 
L 161.107033 116.106032 
L 167.689124 108.897233 
L 173.174201 103.191638 
L 178.659277 97.760351 
L 184.144353 92.603372 
L 189.62943 87.7207 
L 195.114506 83.112335 
L 200.599582 78.778278 
L 206.084659 74.718528 
L 211.569735 70.933085 
L 217.054811 67.42195 
L 222.539888 64.185123 
L 228.024964 61.222602 
L 233.51004 58.53439 
L 238.995116 56.120484 
L 244.480193 53.980886 
L 249.965269 52.115596 
L 255.450345 50.524613 
L 260.935422 49.207937 
L 266.420498 48.165569 
L 271.905574 47.397508 
L 277.390651 46.903755 
L 282.875727 46.684309 
L 288.360803 46.739171 
L 293.84588 47.068339 
L 299.330956 47.671816 
L 304.816032 48.5496 
L 310.301109 49.701691 
L 315.786185 51.128089 
L 321.271261 52.828795 
L 326.756338 54.803809 
L 332.241414 57.05313 
L 337.72649 59.576758 
L 343.211567 62.374694 
L 348.696643 65.446937 
L 354.181719 68.793487 
L 359.666796 72.414345 
L 365.151872 76.309511 
L 370.636948 80.478984 
L 376.122025 84.922764 
L 381.607101 89.640851 
L 387.092177 94.633247 
L 392.577254 99.899949 
L 398.06233 105.440959 
L 403.547406 111.256276 
L 409.032483 117.345901 
L 415.614574 125.015537 
L 422.196666 133.080175 
L 428.778757 141.539816 
L 435.360849 150.39446 
L 441.942941 159.644106 
L 448.525032 169.288755 
L 455.107124 179.328407 
L 461.689215 189.763061 
L 468.271307 200.592718 
L 474.853399 211.817378 
L 481.43549 223.43704 
L 488.017582 235.451705 
L 495.696689 249.968054 
L 503.375795 265.022045 
L 503.375795 265.022045 
" clip-path="url(#pcca203f245)" style="fill: none; stroke: #7aa6c2; stroke-width: 2.2; stroke-linecap: square"/>
   </g>
   <g id="line2d_26">
    <path d="M 65.666705 263.397195 
L 66.76372 258.530913 
L 68.95775 250.398308 
L 71.151781 243.267314 
L 73.345811 236.744548 
L 76.636857 227.756541 
L 79.927903 219.481251 
L 83.218949 211.760253 
L 86.509995 204.494418 
L 90.898056 195.4 
L 95.286117 186.882794 
L 99.674178 178.863185 
L 104.062239 171.282136 
L 108.4503 164.094143 
L 112.838361 157.263081 
L 118.323437 149.181967 
L 123.808514 141.566487 
L 129.29359 134.379006 
L 134.778666 127.588523 
L 140.263743 121.169101 
L 145.748819 115.098759 
L 151.233895 109.358664 
L 156.718972 103.932538 
L 162.204048 98.806201 
L 167.689124 93.967221 
L 173.174201 89.40464 
L 178.659277 85.108754 
L 184.144353 81.070939 
L 189.62943 77.283509 
L 195.114506 73.739596 
L 200.599582 70.433055 
L 206.084659 67.358384 
L 211.569735 64.510655 
L 217.054811 61.885459 
L 222.539888 59.478856 
L 228.024964 57.287337 
L 233.51004 55.307786 
L 238.995116 53.537454 
L 244.480193 51.973931 
L 249.965269 50.615129 
L 255.450345 49.459261 
L 260.935422 48.504826 
L 266.420498 47.750599 
L 271.905574 47.195623 
L 277.390651 46.839196 
L 282.875727 46.680869 
L 288.360803 46.720446 
L 293.84588 46.957975 
L 299.330956 47.393754 
L 304.816032 48.028332 
L 310.301109 48.862512 
L 315.786185 49.897358 
L 321.271261 51.134205 
L 326.756338 52.574664 
L 332.241414 54.220642 
L 337.72649 56.074354 
L 343.211567 58.138343 
L 348.696643 60.4155 
L 354.181719 62.909096 
L 359.666796 65.622807 
L 365.151872 68.560756 
L 370.636948 71.727553 
L 376.122025 75.128348 
L 381.607101 78.768892 
L 387.092177 82.655608 
L 392.577254 86.795679 
L 398.06233 91.197151 
L 403.547406 95.869062 
L 409.032483 100.821592 
L 414.517559 106.066262 
L 420.002635 111.616165 
L 425.487712 117.486274 
L 430.972788 123.693828 
L 436.457864 130.258835 
L 441.942941 137.20475 
L 447.428017 144.55938 
L 452.913093 152.356159 
L 457.301154 158.939087 
L 461.689215 165.8564 
L 466.077276 173.138957 
L 470.465337 180.824938 
L 474.853399 188.962759 
L 479.24146 197.61578 
L 483.629521 206.870451 
L 486.920566 214.279265 
L 490.211612 222.171901 
L 493.502658 230.662838 
L 496.793704 239.942866 
L 498.987734 246.74112 
L 501.181765 254.293656 
L 502.27878 258.530913 
L 503.375795 263.397195 
L 503.375795 263.397195 
" clip-path="url(#pcca203f245)" style="fill: none; stroke-dasharray: 8.14,3.52; stroke-dashoffset: 0; stroke: #e15759; stroke-width: 2.2"/>
   </g>
   <g id="line2d_27">
    <path d="M 284.52125 275.9395 
L 284.52125 35.7555 
" clip-path="url(#pcca203f245)" style="fill: none; stroke-dasharray: 0.5,0.825; stroke-dashoffset: 0; stroke: #000000; stroke-width: 0.5"/>
   </g>
   <g id="patch_3">
    <path d="M 43.78125 275.9395 
L 43.78125 35.7555 
" style="fill: none; stroke: #000000; stroke-width: 0.8; stroke-linejoin: miter; stroke-linecap: square"/>
   </g>
   <g id="patch_4">
    <path d="M 525.26125 275.9395 
L 525.26125 35.7555 
" style="fill: none; stroke: #000000; stroke-width: 0.8; stroke-linejoin: miter; stroke-linecap: square"/>
   </g>
   <g id="patch_5">
    <path d="M 43.78125 275.9395 
L 525.26125 275.9395 
" style="fill: none; stroke: #000000; stroke-width: 0.8; stroke-linejoin: miter; stroke-linecap: square"/>
   </g>
   <g id="patch_6">
    <path d="M 43.78125 35.7555 
L 525.26125 35.7555 
" style="fill: none; stroke: #000000; stroke-width: 0.8; stroke-linejoin: miter; stroke-linecap: square"/>
   </g>
   <g id="text_15">
    <!-- Both metrics peak at p=0.5 (max impurity) -->
    <g transform="translate(154.716875 16.318125) scale(0.12 -0.12)">
     <defs>
      <path id="DejaVuSans-42" d="M 1259 2228 
L 1259 519 
L 2272 519 
Q 2781 519 3026 730 
Q 3272 941 3272 1375 
Q 3272 1813 3026 2020 
Q 2781 2228 2272 2228 
L 1259 2228 
z
M 1259 4147 
L 1259 2741 
L 2194 2741 
Q 2656 2741 2882 2914 
Q 3109 3088 3109 3444 
Q 3109 3797 2882 3972 
Q 2656 4147 2194 4147 
L 1259 4147 
z
M 628 4666 
L 2241 4666 
Q 2963 4666 3353 4366 
Q 3744 4066 3744 3513 
Q 3744 3084 3544 2831 
Q 3344 2578 2956 2516 
Q 3422 2416 3680 2098 
Q 3938 1781 3938 1306 
Q 3938 681 3513 340 
Q 3088 0 2303 0 
L 628 0 
L 628 4666 
z
" transform="scale(0.015625)"/>
      <path id="DejaVuSans-68" d="M 3513 2113 
L 3513 0 
L 2938 0 
L 2938 2094 
Q 2938 2591 2744 2837 
Q 2550 3084 2163 3084 
Q 1697 3084 1428 2787 
Q 1159 2491 1159 1978 
L 1159 0 
L 581 0 
L 581 4863 
L 1159 4863 
L 1159 2956 
Q 1366 3272 1645 3428 
Q 1925 3584 2291 3584 
Q 2894 3584 3203 3211 
Q 3513 2838 3513 2113 
z
" transform="scale(0.015625)"/>
      <path id="DejaVuSans-65" d="M 3597 1894 
L 3597 1613 
L 953 1613 
Q 991 1019 1311 708 
Q 1631 397 2203 397 
Q 2534 397 2845 478 
Q 3156 559 3463 722 
L 3463 178 
Q 3153 47 2828 -22 
Q 2503 -91 2169 -91 
Q 1331 -91 842 396 
Q 353 884 353 1716 
Q 353 2575 817 3079 
Q 1281 3584 2069 3584 
Q 2775 3584 3186 3129 
Q 3597 2675 3597 1894 
z
M 3022 2063 
Q 3016 2534 2758 2815 
Q 2500 3097 2075 3097 
Q 1594 3097 1305 2825 
Q 1016 2553 972 2059 
L 3022 2063 
z
" transform="scale(0.015625)"/>
      <path id="DejaVuSans-6b" d="M 581 4863 
L 1159 4863 
L 1159 1991 
L 2875 3500 
L 3609 3500 
L 1753 1863 
L 3688 0 
L 2938 0 
L 1159 1709 
L 1159 0 
L 581 0 
L 581 4863 
z
" transform="scale(0.015625)"/>
      <path id="DejaVuSans-3d" d="M 678 2906 
L 4684 2906 
L 4684 2381 
L 678 2381 
L 678 2906 
z
M 678 1631 
L 4684 1631 
L 4684 1100 
L 678 1100 
L 678 1631 
z
" transform="scale(0.015625)"/>
      <path id="DejaVuSans-28" d="M 1984 4856 
Q 1566 4138 1362 3434 
Q 1159 2731 1159 2009 
Q 1159 1288 1364 580 
Q 1569 -128 1984 -844 
L 1484 -844 
Q 1016 -109 783 600 
Q 550 1309 550 2009 
Q 550 2706 781 3412 
Q 1013 4119 1484 4856 
L 1984 4856 
z
" transform="scale(0.015625)"/>
      <path id="DejaVuSans-78" d="M 3513 3500 
L 2247 1797 
L 3578 0 
L 2900 0 
L 1881 1375 
L 863 0 
L 184 0 
L 1544 1831 
L 300 3500 
L 978 3500 
L 1906 2253 
L 2834 3500 
L 3513 3500 
z
" transform="scale(0.015625)"/>
      <path id="DejaVuSans-29" d="M 513 4856 
L 1013 4856 
Q 1481 4119 1714 3412 
Q 1947 2706 1947 2009 
Q 1947 1309 1714 600 
Q 1481 -109 1013 -844 
L 513 -844 
Q 928 -128 1133 580 
Q 1338 1288 1338 2009 
Q 1338 2731 1133 3434 
Q 928 4138 513 4856 
z
" transform="scale(0.015625)"/>
     </defs>
     <use xlink:href="#DejaVuSans-42"/>
     <use xlink:href="#DejaVuSans-6f" transform="translate(68.603516 0)"/>
     <use xlink:href="#DejaVuSans-74" transform="translate(129.785156 0)"/>
     <use xlink:href="#DejaVuSans-68" transform="translate(168.994141 0)"/>
     <use xlink:href="#DejaVuSans-20" transform="translate(232.373047 0)"/>
     <use xlink:href="#DejaVuSans-6d" transform="translate(264.160156 0)"/>
     <use xlink:href="#DejaVuSans-65" transform="translate(361.572266 0)"/>
     <use xlink:href="#DejaVuSans-74" transform="translate(423.095703 0)"/>
     <use xlink:href="#DejaVuSans-72" transform="translate(462.304688 0)"/>
     <use xlink:href="#DejaVuSans-69" transform="translate(503.417969 0)"/>
     <use xlink:href="#DejaVuSans-63" transform="translate(531.201172 0)"/>
     <use xlink:href="#DejaVuSans-73" transform="translate(586.181641 0)"/>
     <use xlink:href="#DejaVuSans-20" transform="translate(638.28125 0)"/>
     <use xlink:href="#DejaVuSans-70" transform="translate(670.068359 0)"/>
     <use xlink:href="#DejaVuSans-65" transform="translate(733.544922 0)"/>
     <use xlink:href="#DejaVuSans-61" transform="translate(795.068359 0)"/>
     <use xlink:href="#DejaVuSans-6b" transform="translate(856.347656 0)"/>
     <use xlink:href="#DejaVuSans-20" transform="translate(914.257812 0)"/>
     <use xlink:href="#DejaVuSans-61" transform="translate(946.044922 0)"/>
     <use xlink:href="#DejaVuSans-74" transform="translate(1007.324219 0)"/>
     <use xlink:href="#DejaVuSans-20" transform="translate(1046.533203 0)"/>
     <use xlink:href="#DejaVuSans-70" transform="translate(1078.320312 0)"/>
     <use xlink:href="#DejaVuSans-3d" transform="translate(1141.796875 0)"/>
     <use xlink:href="#DejaVuSans-30" transform="translate(1225.585938 0)"/>
     <use xlink:href="#DejaVuSans-2e" transform="translate(1289.208984 0)"/>
     <use xlink:href="#DejaVuSans-35" transform="translate(1320.996094 0)"/>
     <use xlink:href="#DejaVuSans-20" transform="translate(1384.619141 0)"/>
     <use xlink:href="#DejaVuSans-28" transform="translate(1416.40625 0)"/>
     <use xlink:href="#DejaVuSans-6d" transform="translate(1455.419922 0)"/>
     <use xlink:href="#DejaVuSans-61" transform="translate(1552.832031 0)"/>
     <use xlink:href="#DejaVuSans-78" transform="translate(1614.111328 0)"/>
     <use xlink:href="#DejaVuSans-20" transform="translate(1673.291016 0)"/>
     <use xlink:href="#DejaVuSans-69" transform="translate(1705.078125 0)"/>
     <use xlink:href="#DejaVuSans-6d" transform="translate(1732.861328 0)"/>
     <use xlink:href="#DejaVuSans-70" transform="translate(1830.273438 0)"/>
     <use xlink:href="#DejaVuSans-75" transform="translate(1893.75 0)"/>
     <use xlink:href="#DejaVuSans-72" transform="translate(1957.128906 0)"/>
     <use xlink:href="#DejaVuSans-69" transform="translate(1998.242188 0)"/>
     <use xlink:href="#DejaVuSans-74" transform="translate(2026.025391 0)"/>
     <use xlink:href="#DejaVuSans-79" transform="translate(2065.234375 0)"/>
     <use xlink:href="#DejaVuSans-29" transform="translate(2124.414062 0)"/>
    </g>
    <!-- and equal 0 when all samples are one class -->
    <g transform="translate(153.598438 29.7555) scale(0.12 -0.12)">
     <defs>
      <path id="DejaVuSans-6e" d="M 3513 2113 
L 3513 0 
L 2938 0 
L 2938 2094 
Q 2938 2591 2744 2837 
Q 2550 3084 2163 3084 
Q 1697 3084 1428 2787 
Q 1159 2491 1159 1978 
L 1159 0 
L 581 0 
L 581 3500 
L 1159 3500 
L 1159 2956 
Q 1366 3272 1645 3428 
Q 1925 3584 2291 3584 
Q 2894 3584 3203 3211 
Q 3513 2838 3513 2113 
z
" transform="scale(0.015625)"/>
      <path id="DejaVuSans-64" d="M 2906 2969 
L 2906 4863 
L 3481 4863 
L 3481 0 
L 2906 0 
L 2906 525 
Q 2725 213 2448 61 
Q 2172 -91 1784 -91 
Q 1150 -91 751 415 
Q 353 922 353 1747 
Q 353 2572 751 3078 
Q 1150 3584 1784 3584 
Q 2172 3584 2448 3432 
Q 2725 3281 2906 2969 
z
M 947 1747 
Q 947 1113 1208 752 
Q 1469 391 1925 391 
Q 2381 391 2643 752 
Q 2906 1113 2906 1747 
Q 2906 2381 2643 2742 
Q 2381 3103 1925 3103 
Q 1469 3103 1208 2742 
Q 947 2381 947 1747 
z
" transform="scale(0.015625)"/>
      <path id="DejaVuSans-71" d="M 947 1747 
Q 947 1113 1208 752 
Q 1469 391 1925 391 
Q 2381 391 2643 752 
Q 2906 1113 2906 1747 
Q 2906 2381 2643 2742 
Q 2381 3103 1925 3103 
Q 1469 3103 1208 2742 
Q 947 2381 947 1747 
z
M 2906 525 
Q 2725 213 2448 61 
Q 2172 -91 1784 -91 
Q 1150 -91 751 415 
Q 353 922 353 1747 
Q 353 2572 751 3078 
Q 1150 3584 1784 3584 
Q 2172 3584 2448 3432 
Q 2725 3281 2906 2969 
L 2906 3500 
L 3481 3500 
L 3481 -1331 
L 2906 -1331 
L 2906 525 
z
" transform="scale(0.015625)"/>
      <path id="DejaVuSans-77" d="M 269 3500 
L 844 3500 
L 1563 769 
L 2278 3500 
L 2956 3500 
L 3675 769 
L 4391 3500 
L 4966 3500 
L 4050 0 
L 3372 0 
L 2619 2869 
L 1863 0 
L 1184 0 
L 269 3500 
z
" transform="scale(0.015625)"/>
     </defs>
     <use xlink:href="#DejaVuSans-61"/>
     <use xlink:href="#DejaVuSans-6e" transform="translate(61.279297 0)"/>
     <use xlink:href="#DejaVuSans-64" transform="translate(124.658203 0)"/>
     <use xlink:href="#DejaVuSans-20" transform="translate(188.134766 0)"/>
     <use xlink:href="#DejaVuSans-65" transform="translate(219.921875 0)"/>
     <use xlink:href="#DejaVuSans-71" transform="translate(281.445312 0)"/>
     <use xlink:href="#DejaVuSans-75" transform="translate(344.921875 0)"/>
     <use xlink:href="#DejaVuSans-61" transform="translate(408.300781 0)"/>
     <use xlink:href="#DejaVuSans-6c" transform="translate(469.580078 0)"/>
     <use xlink:href="#DejaVuSans-20" transform="translate(497.363281 0)"/>
     <use xlink:href="#DejaVuSans-30" transform="translate(529.150391 0)"/>
     <use xlink:href="#DejaVuSans-20" transform="translate(592.773438 0)"/>
     <use xlink:href="#DejaVuSans-77" transform="translate(624.560547 0)"/>
     <use xlink:href="#DejaVuSans-68" transform="translate(706.347656 0)"/>
     <use xlink:href="#DejaVuSans-65" transform="translate(769.726562 0)"/>
     <use xlink:href="#DejaVuSans-6e" transform="translate(831.25 0)"/>
     <use xlink:href="#DejaVuSans-20" transform="translate(894.628906 0)"/>
     <use xlink:href="#DejaVuSans-61" transform="translate(926.416016 0)"/>
     <use xlink:href="#DejaVuSans-6c" transform="translate(987.695312 0)"/>
     <use xlink:href="#DejaVuSans-6c" transform="translate(1015.478516 0)"/>
     <use xlink:href="#DejaVuSans-20" transform="translate(1043.261719 0)"/>
     <use xlink:href="#DejaVuSans-73" transform="translate(1075.048828 0)"/>
     <use xlink:href="#DejaVuSans-61" transform="translate(1127.148438 0)"/>
     <use xlink:href="#DejaVuSans-6d" transform="translate(1188.427734 0)"/>
     <use xlink:href="#DejaVuSans-70" transform="translate(1285.839844 0)"/>
     <use xlink:href="#DejaVuSans-6c" transform="translate(1349.316406 0)"/>
     <use xlink:href="#DejaVuSans-65" transform="translate(1377.099609 0)"/>
     <use xlink:href="#DejaVuSans-73" transform="translate(1438.623047 0)"/>
     <use xlink:href="#DejaVuSans-20" transform="translate(1490.722656 0)"/>
     <use xlink:href="#DejaVuSans-61" transform="translate(1522.509766 0)"/>
     <use xlink:href="#DejaVuSans-72" transform="translate(1583.789062 0)"/>
     <use xlink:href="#DejaVuSans-65" transform="translate(1622.652344 0)"/>
     <use xlink:href="#DejaVuSans-20" transform="translate(1684.175781 0)"/>
     <use xlink:href="#DejaVuSans-6f" transform="translate(1715.962891 0)"/>
     <use xlink:href="#DejaVuSans-6e" transform="translate(1777.144531 0)"/>
     <use xlink:href="#DejaVuSans-65" transform="translate(1840.523438 0)"/>
     <use xlink:href="#DejaVuSans-20" transform="translate(1902.046875 0)"/>
     <use xlink:href="#DejaVuSans-63" transform="translate(1933.833984 0)"/>
     <use xlink:href="#DejaVuSans-6c" transform="translate(1988.814453 0)"/>
     <use xlink:href="#DejaVuSans-61" transform="translate(2016.597656 0)"/>
     <use xlink:href="#DejaVuSans-73" transform="translate(2077.876953 0)"/>
     <use xlink:href="#DejaVuSans-73" transform="translate(2129.976562 0)"/>
    </g>
   </g>
   <g id="legend_1">
    <g id="patch_7">
     <path d="M 180.257187 270.9395 
L 388.785313 270.9395 
Q 390.785313 270.9395 390.785313 268.9395 
L 390.785313 240.58325 
Q 390.785313 238.58325 388.785313 238.58325 
L 180.257187 238.58325 
Q 178.257187 238.58325 178.257187 240.58325 
L 178.257187 268.9395 
Q 178.257187 270.9395 180.257187 270.9395 
z
" style="fill: #ffffff; opacity: 0.8; stroke: #cccccc; stroke-linejoin: miter"/>
    </g>
    <g id="line2d_28">
     <path d="M 182.257187 246.681687 
L 192.257187 246.681687 
L 202.257187 246.681687 
" style="fill: none; stroke: #7aa6c2; stroke-width: 2.2; stroke-linecap: square"/>
    </g>
    <g id="text_16">
     <!-- Gini impurity = 2 p (1 - p) -->
     <g transform="translate(210.257187 250.181687) scale(0.1 -0.1)">
      <defs>
       <path id="DejaVuSans-47" d="M 3809 666 
L 3809 1919 
L 2778 1919 
L 2778 2438 
L 4434 2438 
L 4434 434 
Q 4069 175 3628 42 
Q 3188 -91 2688 -91 
Q 1594 -91 976 548 
Q 359 1188 359 2328 
Q 359 3472 976 4111 
Q 1594 4750 2688 4750 
Q 3144 4750 3555 4637 
Q 3966 4525 4313 4306 
L 4313 3634 
Q 3963 3931 3569 4081 
Q 3175 4231 2741 4231 
Q 1884 4231 1454 3753 
Q 1025 3275 1025 2328 
Q 1025 1384 1454 906 
Q 1884 428 2741 428 
Q 3075 428 3337 486 
Q 3600 544 3809 666 
z
" transform="scale(0.015625)"/>
       <path id="DejaVuSans-2d" d="M 313 2009 
L 1997 2009 
L 1997 1497 
L 313 1497 
L 313 2009 
z
" transform="scale(0.015625)"/>
      </defs>
      <use xlink:href="#DejaVuSans-47"/>
      <use xlink:href="#DejaVuSans-69" transform="translate(77.490234 0)"/>
      <use xlink:href="#DejaVuSans-6e" transform="translate(105.273438 0)"/>
      <use xlink:href="#DejaVuSans-69" transform="translate(168.652344 0)"/>
      <use xlink:href="#DejaVuSans-20" transform="translate(196.435547 0)"/>
      <use xlink:href="#DejaVuSans-69" transform="translate(228.222656 0)"/>
      <use xlink:href="#DejaVuSans-6d" transform="translate(256.005859 0)"/>
      <use xlink:href="#DejaVuSans-70" transform="translate(353.417969 0)"/>
      <use xlink:href="#DejaVuSans-75" transform="translate(416.894531 0)"/>
      <use xlink:href="#DejaVuSans-72" transform="translate(480.273438 0)"/>
      <use xlink:href="#DejaVuSans-69" transform="translate(521.386719 0)"/>
      <use xlink:href="#DejaVuSans-74" transform="translate(549.169922 0)"/>
      <use xlink:href="#DejaVuSans-79" transform="translate(588.378906 0)"/>
      <use xlink:href="#DejaVuSans-20" transform="translate(647.558594 0)"/>
      <use xlink:href="#DejaVuSans-3d" transform="translate(679.345703 0)"/>
      <use xlink:href="#DejaVuSans-20" transform="translate(763.134766 0)"/>
      <use xlink:href="#DejaVuSans-32" transform="translate(794.921875 0)"/>
      <use xlink:href="#DejaVuSans-20" transform="translate(858.544922 0)"/>
      <use xlink:href="#DejaVuSans-70" transform="translate(890.332031 0)"/>
      <use xlink:href="#DejaVuSans-20" transform="translate(953.808594 0)"/>
      <use xlink:href="#DejaVuSans-28" transform="translate(985.595703 0)"/>
      <use xlink:href="#DejaVuSans-31" transform="translate(1024.609375 0)"/>
      <use xlink:href="#DejaVuSans-20" transform="translate(1088.232422 0)"/>
      <use xlink:href="#DejaVuSans-2d" transform="translate(1120.019531 0)"/>
      <use xlink:href="#DejaVuSans-20" transform="translate(1156.103516 0)"/>
      <use xlink:href="#DejaVuSans-70" transform="translate(1187.890625 0)"/>
      <use xlink:href="#DejaVuSans-29" transform="translate(1251.367188 0)"/>
     </g>
    </g>
    <g id="line2d_29">
     <path d="M 182.257187 261.359812 
L 192.257187 261.359812 
L 202.257187 261.359812 
" style="fill: none; stroke-dasharray: 8.14,3.52; stroke-dashoffset: 0; stroke: #e15759; stroke-width: 2.2"/>
    </g>
    <g id="text_17">
     <!-- Entropy / 2 (scaled for comparison) -->
     <g transform="translate(210.257187 264.859812) scale(0.1 -0.1)">
      <defs>
       <path id="DejaVuSans-45" d="M 628 4666 
L 3578 4666 
L 3578 4134 
L 1259 4134 
L 1259 2753 
L 3481 2753 
L 3481 2222 
L 1259 2222 
L 1259 531 
L 3634 531 
L 3634 0 
L 628 0 
L 628 4666 
z
" transform="scale(0.015625)"/>
       <path id="DejaVuSans-2f" d="M 1625 4666 
L 2156 4666 
L 531 -594 
L 0 -594 
L 1625 4666 
z
" transform="scale(0.015625)"/>
       <path id="DejaVuSans-66" d="M 2375 4863 
L 2375 4384 
L 1825 4384 
Q 1516 4384 1395 4259 
Q 1275 4134 1275 3809 
L 1275 3500 
L 2222 3500 
L 2222 3053 
L 1275 3053 
L 1275 0 
L 697 0 
L 697 3053 
L 147 3053 
L 147 3500 
L 697 3500 
L 697 3744 
Q 697 4328 969 4595 
Q 1241 4863 1831 4863 
L 2375 4863 
z
" transform="scale(0.015625)"/>
      </defs>
      <use xlink:href="#DejaVuSans-45"/>
      <use xlink:href="#DejaVuSans-6e" transform="translate(63.183594 0)"/>
      <use xlink:href="#DejaVuSans-74" transform="translate(126.5625 0)"/>
      <use xlink:href="#DejaVuSans-72" transform="translate(165.771484 0)"/>
      <use xlink:href="#DejaVuSans-6f" transform="translate(204.634766 0)"/>
      <use xlink:href="#DejaVuSans-70" transform="translate(265.816406 0)"/>
      <use xlink:href="#DejaVuSans-79" transform="translate(329.292969 0)"/>
      <use xlink:href="#DejaVuSans-20" transform="translate(388.472656 0)"/>
      <use xlink:href="#DejaVuSans-2f" transform="translate(420.259766 0)"/>
      <use xlink:href="#DejaVuSans-20" transform="translate(453.951172 0)"/>
      <use xlink:href="#DejaVuSans-32" transform="translate(485.738281 0)"/>
      <use xlink:href="#DejaVuSans-20" transform="translate(549.361328 0)"/>
      <use xlink:href="#DejaVuSans-28" transform="translate(581.148438 0)"/>
      <use xlink:href="#DejaVuSans-73" transform="translate(620.162109 0)"/>
      <use xlink:href="#DejaVuSans-63" transform="translate(672.261719 0)"/>
      <use xlink:href="#DejaVuSans-61" transform="translate(727.242188 0)"/>
      <use xlink:href="#DejaVuSans-6c" transform="translate(788.521484 0)"/>
      <use xlink:href="#DejaVuSans-65" transform="translate(816.304688 0)"/>
      <use xlink:href="#DejaVuSans-64" transform="translate(877.828125 0)"/>
      <use xlink:href="#DejaVuSans-20" transform="translate(941.304688 0)"/>
      <use xlink:href="#DejaVuSans-66" transform="translate(973.091797 0)"/>
      <use xlink:href="#DejaVuSans-6f" transform="translate(1008.296875 0)"/>
      <use xlink:href="#DejaVuSans-72" transform="translate(1069.478516 0)"/>
      <use xlink:href="#DejaVuSans-20" transform="translate(1110.591797 0)"/>
      <use xlink:href="#DejaVuSans-63" transform="translate(1142.378906 0)"/>
      <use xlink:href="#DejaVuSans-6f" transform="translate(1197.359375 0)"/>
      <use xlink:href="#DejaVuSans-6d" transform="translate(1258.541016 0)"/>
      <use xlink:href="#DejaVuSans-70" transform="translate(1355.953125 0)"/>
      <use xlink:href="#DejaVuSans-61" transform="translate(1419.429688 0)"/>
      <use xlink:href="#DejaVuSans-72" transform="translate(1480.708984 0)"/>
      <use xlink:href="#DejaVuSans-69" transform="translate(1521.822266 0)"/>
      <use xlink:href="#DejaVuSans-73" transform="translate(1549.605469 0)"/>
      <use xlink:href="#DejaVuSans-6f" transform="translate(1601.705078 0)"/>
      <use xlink:href="#DejaVuSans-6e" transform="translate(1662.886719 0)"/>
      <use xlink:href="#DejaVuSans-29" transform="translate(1726.265625 0)"/>
     </g>
    </g>
   </g>
  </g>
 </g>
 <defs>
  <clipPath id="pcca203f245">
   <rect x="43.78125" y="35.7555" width="481.48" height="240.184"/>
  </clipPath>
 </defs>
</svg>
