<?xml version="1.0" encoding="utf-8" standalone="no"?>
<!DOCTYPE svg PUBLIC "-//W3C//DTD SVG 1.1//EN"
  "http://www.w3.org/Graphics/SVG/1.1/DTD/svg11.dtd">
<svg xmlns:xlink="http://www.w3.org/1999/xlink" width="496.495625pt" height="315.034375pt" viewBox="0 0 496.495625 315.034375" xmlns="http://www.w3.org/2000/svg" version="1.1">
 <metadata>
  <rdf:RDF xmlns:dc="http://purl.org/dc/elements/1.1/" xmlns:cc="http://creativecommons.org/ns#" xmlns:rdf="http://www.w3.org/1999/02/22-rdf-syntax-ns#">
   <cc:Work>
    <dc:type rdf:resource="http://purl.org/dc/dcmitype/StillImage"/>
    <dc:date>2026-05-26T09:18:43.432108</dc:date>
    <dc:format>image/svg+xml</dc:format>
    <dc:creator>
     <cc:Agent>
      <dc:title>Matplotlib v3.10.8, https://matplotlib.org/</dc:title>
     </cc:Agent>
    </dc:creator>
   </cc:Work>
  </rdf:RDF>
 </metadata>
 <defs>
  <style type="text/css">*{stroke-linejoin: round; stroke-linecap: butt}</style>
 </defs>
 <g id="figure_1">
  <g id="patch_1">
   <path d="M 0 315.034375 
L 496.495625 315.034375 
L 496.495625 0 
L 0 0 
z
" style="fill: #ffffff"/>
  </g>
  <g id="axes_1">
   <g id="patch_2">
    <path d="M 46.965625 277.478125 
L 489.295625 277.478125 
L 489.295625 22.318125 
L 46.965625 22.318125 
z
" style="fill: #ffffff"/>
   </g>
   <g id="matplotlib.axis_1">
    <g id="xtick_1">
     <g id="line2d_1">
      <path d="M 67.071534 277.478125 
L 67.071534 22.318125 
" clip-path="url(#p872e78178e)" style="fill: none; stroke: #b0b0b0; stroke-opacity: 0.25; stroke-width: 0.8; stroke-linecap: square"/>
     </g>
     <g id="line2d_2">
      <defs>
       <path id="m787e87dc0f" d="M 0 0 
L 0 3.5 
" style="stroke: #000000; stroke-width: 0.8"/>
      </defs>
      <g>
       <use xlink:href="#m787e87dc0f" x="67.071534" y="277.478125" style="stroke: #000000; stroke-width: 0.8"/>
      </g>
     </g>
     <g id="text_1">
      <!-- 0 -->
      <g transform="translate(63.890284 292.076563) scale(0.1 -0.1)">
       <defs>
        <path id="DejaVuSans-30" d="M 2034 4250 
Q 1547 4250 1301 3770 
Q 1056 3291 1056 2328 
Q 1056 1369 1301 889 
Q 1547 409 2034 409 
Q 2525 409 2770 889 
Q 3016 1369 3016 2328 
Q 3016 3291 2770 3770 
Q 2525 4250 2034 4250 
z
M 2034 4750 
Q 2819 4750 3233 4129 
Q 3647 3509 3647 2328 
Q 3647 1150 3233 529 
Q 2819 -91 2034 -91 
Q 1250 -91 836 529 
Q 422 1150 422 2328 
Q 422 3509 836 4129 
Q 1250 4750 2034 4750 
z
" transform="scale(0.015625)"/>
       </defs>
       <use xlink:href="#DejaVuSans-30"/>
      </g>
     </g>
    </g>
    <g id="xtick_2">
     <g id="line2d_3">
      <path d="M 140.183931 277.478125 
L 140.183931 22.318125 
" clip-path="url(#p872e78178e)" style="fill: none; stroke: #b0b0b0; stroke-opacity: 0.25; stroke-width: 0.8; stroke-linecap: square"/>
     </g>
     <g id="line2d_4">
      <g>
       <use xlink:href="#m787e87dc0f" x="140.183931" y="277.478125" style="stroke: #000000; stroke-width: 0.8"/>
      </g>
     </g>
     <g id="text_2">
      <!-- 10 -->
      <g transform="translate(133.821431 292.076563) scale(0.1 -0.1)">
       <defs>
        <path id="DejaVuSans-31" d="M 794 531 
L 1825 531 
L 1825 4091 
L 703 3866 
L 703 4441 
L 1819 4666 
L 2450 4666 
L 2450 531 
L 3481 531 
L 3481 0 
L 794 0 
L 794 531 
z
" transform="scale(0.015625)"/>
       </defs>
       <use xlink:href="#DejaVuSans-31"/>
       <use xlink:href="#DejaVuSans-30" transform="translate(63.623047 0)"/>
      </g>
     </g>
    </g>
    <g id="xtick_3">
     <g id="line2d_5">
      <path d="M 213.296327 277.478125 
L 213.296327 22.318125 
" clip-path="url(#p872e78178e)" style="fill: none; stroke: #b0b0b0; stroke-opacity: 0.25; stroke-width: 0.8; stroke-linecap: square"/>
     </g>
     <g id="line2d_6">
      <g>
       <use xlink:href="#m787e87dc0f" x="213.296327" y="277.478125" style="stroke: #000000; stroke-width: 0.8"/>
      </g>
     </g>
     <g id="text_3">
      <!-- 20 -->
      <g transform="translate(206.933827 292.076563) scale(0.1 -0.1)">
       <defs>
        <path id="DejaVuSans-32" d="M 1228 531 
L 3431 531 
L 3431 0 
L 469 0 
L 469 531 
Q 828 903 1448 1529 
Q 2069 2156 2228 2338 
Q 2531 2678 2651 2914 
Q 2772 3150 2772 3378 
Q 2772 3750 2511 3984 
Q 2250 4219 1831 4219 
Q 1534 4219 1204 4116 
Q 875 4013 500 3803 
L 500 4441 
Q 881 4594 1212 4672 
Q 1544 4750 1819 4750 
Q 2544 4750 2975 4387 
Q 3406 4025 3406 3419 
Q 3406 3131 3298 2873 
Q 3191 2616 2906 2266 
Q 2828 2175 2409 1742 
Q 1991 1309 1228 531 
z
" transform="scale(0.015625)"/>
       </defs>
       <use xlink:href="#DejaVuSans-32"/>
       <use xlink:href="#DejaVuSans-30" transform="translate(63.623047 0)"/>
      </g>
     </g>
    </g>
    <g id="xtick_4">
     <g id="line2d_7">
      <path d="M 286.408724 277.478125 
L 286.408724 22.318125 
" clip-path="url(#p872e78178e)" style="fill: none; stroke: #b0b0b0; stroke-opacity: 0.25; stroke-width: 0.8; stroke-linecap: square"/>
     </g>
     <g id="line2d_8">
      <g>
       <use xlink:href="#m787e87dc0f" x="286.408724" y="277.478125" style="stroke: #000000; stroke-width: 0.8"/>
      </g>
     </g>
     <g id="text_4">
      <!-- 30 -->
      <g transform="translate(280.046224 292.076563) scale(0.1 -0.1)">
       <defs>
        <path id="DejaVuSans-33" d="M 2597 2516 
Q 3050 2419 3304 2112 
Q 3559 1806 3559 1356 
Q 3559 666 3084 287 
Q 2609 -91 1734 -91 
Q 1441 -91 1130 -33 
Q 819 25 488 141 
L 488 750 
Q 750 597 1062 519 
Q 1375 441 1716 441 
Q 2309 441 2620 675 
Q 2931 909 2931 1356 
Q 2931 1769 2642 2001 
Q 2353 2234 1838 2234 
L 1294 2234 
L 1294 2753 
L 1863 2753 
Q 2328 2753 2575 2939 
Q 2822 3125 2822 3475 
Q 2822 3834 2567 4026 
Q 2313 4219 1838 4219 
Q 1578 4219 1281 4162 
Q 984 4106 628 3988 
L 628 4550 
Q 988 4650 1302 4700 
Q 1616 4750 1894 4750 
Q 2613 4750 3031 4423 
Q 3450 4097 3450 3541 
Q 3450 3153 3228 2886 
Q 3006 2619 2597 2516 
z
" transform="scale(0.015625)"/>
       </defs>
       <use xlink:href="#DejaVuSans-33"/>
       <use xlink:href="#DejaVuSans-30" transform="translate(63.623047 0)"/>
      </g>
     </g>
    </g>
    <g id="xtick_5">
     <g id="line2d_9">
      <path d="M 359.521121 277.478125 
L 359.521121 22.318125 
" clip-path="url(#p872e78178e)" style="fill: none; stroke: #b0b0b0; stroke-opacity: 0.25; stroke-width: 0.8; stroke-linecap: square"/>
     </g>
     <g id="line2d_10">
      <g>
       <use xlink:href="#m787e87dc0f" x="359.521121" y="277.478125" style="stroke: #000000; stroke-width: 0.8"/>
      </g>
     </g>
     <g id="text_5">
      <!-- 40 -->
      <g transform="translate(353.158621 292.076563) scale(0.1 -0.1)">
       <defs>
        <path id="DejaVuSans-34" d="M 2419 4116 
L 825 1625 
L 2419 1625 
L 2419 4116 
z
M 2253 4666 
L 3047 4666 
L 3047 1625 
L 3713 1625 
L 3713 1100 
L 3047 1100 
L 3047 0 
L 2419 0 
L 2419 1100 
L 313 1100 
L 313 1709 
L 2253 4666 
z
" transform="scale(0.015625)"/>
       </defs>
       <use xlink:href="#DejaVuSans-34"/>
       <use xlink:href="#DejaVuSans-30" transform="translate(63.623047 0)"/>
      </g>
     </g>
    </g>
    <g id="xtick_6">
     <g id="line2d_11">
      <path d="M 432.633518 277.478125 
L 432.633518 22.318125 
" clip-path="url(#p872e78178e)" style="fill: none; stroke: #b0b0b0; stroke-opacity: 0.25; stroke-width: 0.8; stroke-linecap: square"/>
     </g>
     <g id="line2d_12">
      <g>
       <use xlink:href="#m787e87dc0f" x="432.633518" y="277.478125" style="stroke: #000000; stroke-width: 0.8"/>
      </g>
     </g>
     <g id="text_6">
      <!-- 50 -->
      <g transform="translate(426.271018 292.076563) scale(0.1 -0.1)">
       <defs>
        <path id="DejaVuSans-35" d="M 691 4666 
L 3169 4666 
L 3169 4134 
L 1269 4134 
L 1269 2991 
Q 1406 3038 1543 3061 
Q 1681 3084 1819 3084 
Q 2600 3084 3056 2656 
Q 3513 2228 3513 1497 
Q 3513 744 3044 326 
Q 2575 -91 1722 -91 
Q 1428 -91 1123 -41 
Q 819 9 494 109 
L 494 744 
Q 775 591 1075 516 
Q 1375 441 1709 441 
Q 2250 441 2565 725 
Q 2881 1009 2881 1497 
Q 2881 1984 2565 2268 
Q 2250 2553 1709 2553 
Q 1456 2553 1204 2497 
Q 953 2441 691 2322 
L 691 4666 
z
" transform="scale(0.015625)"/>
       </defs>
       <use xlink:href="#DejaVuSans-35"/>
       <use xlink:href="#DejaVuSans-30" transform="translate(63.623047 0)"/>
      </g>
     </g>
    </g>
    <g id="text_7">
     <!-- fraction of data replaced by extreme outlier (%) -->
     <g transform="translate(148.312656 305.754687) scale(0.1 -0.1)">
      <defs>
       <path id="DejaVuSans-66" d="M 2375 4863 
L 2375 4384 
L 1825 4384 
Q 1516 4384 1395 4259 
Q 1275 4134 1275 3809 
L 1275 3500 
L 2222 3500 
L 2222 3053 
L 1275 3053 
L 1275 0 
L 697 0 
L 697 3053 
L 147 3053 
L 147 3500 
L 697 3500 
L 697 3744 
Q 697 4328 969 4595 
Q 1241 4863 1831 4863 
L 2375 4863 
z
" transform="scale(0.015625)"/>
       <path id="DejaVuSans-72" d="M 2631 2963 
Q 2534 3019 2420 3045 
Q 2306 3072 2169 3072 
Q 1681 3072 1420 2755 
Q 1159 2438 1159 1844 
L 1159 0 
L 581 0 
L 581 3500 
L 1159 3500 
L 1159 2956 
Q 1341 3275 1631 3429 
Q 1922 3584 2338 3584 
Q 2397 3584 2469 3576 
Q 2541 3569 2628 3553 
L 2631 2963 
z
" transform="scale(0.015625)"/>
       <path id="DejaVuSans-61" d="M 2194 1759 
Q 1497 1759 1228 1600 
Q 959 1441 959 1056 
Q 959 750 1161 570 
Q 1363 391 1709 391 
Q 2188 391 2477 730 
Q 2766 1069 2766 1631 
L 2766 1759 
L 2194 1759 
z
M 3341 1997 
L 3341 0 
L 2766 0 
L 2766 531 
Q 2569 213 2275 61 
Q 1981 -91 1556 -91 
Q 1019 -91 701 211 
Q 384 513 384 1019 
Q 384 1609 779 1909 
Q 1175 2209 1959 2209 
L 2766 2209 
L 2766 2266 
Q 2766 2663 2505 2880 
Q 2244 3097 1772 3097 
Q 1472 3097 1187 3025 
Q 903 2953 641 2809 
L 641 3341 
Q 956 3463 1253 3523 
Q 1550 3584 1831 3584 
Q 2591 3584 2966 3190 
Q 3341 2797 3341 1997 
z
" transform="scale(0.015625)"/>
       <path id="DejaVuSans-63" d="M 3122 3366 
L 3122 2828 
Q 2878 2963 2633 3030 
Q 2388 3097 2138 3097 
Q 1578 3097 1268 2742 
Q 959 2388 959 1747 
Q 959 1106 1268 751 
Q 1578 397 2138 397 
Q 2388 397 2633 464 
Q 2878 531 3122 666 
L 3122 134 
Q 2881 22 2623 -34 
Q 2366 -91 2075 -91 
Q 1284 -91 818 406 
Q 353 903 353 1747 
Q 353 2603 823 3093 
Q 1294 3584 2113 3584 
Q 2378 3584 2631 3529 
Q 2884 3475 3122 3366 
z
" transform="scale(0.015625)"/>
       <path id="DejaVuSans-74" d="M 1172 4494 
L 1172 3500 
L 2356 3500 
L 2356 3053 
L 1172 3053 
L 1172 1153 
Q 1172 725 1289 603 
Q 1406 481 1766 481 
L 2356 481 
L 2356 0 
L 1766 0 
Q 1100 0 847 248 
Q 594 497 594 1153 
L 594 3053 
L 172 3053 
L 172 3500 
L 594 3500 
L 594 4494 
L 1172 4494 
z
" transform="scale(0.015625)"/>
       <path id="DejaVuSans-69" d="M 603 3500 
L 1178 3500 
L 1178 0 
L 603 0 
L 603 3500 
z
M 603 4863 
L 1178 4863 
L 1178 4134 
L 603 4134 
L 603 4863 
z
" transform="scale(0.015625)"/>
       <path id="DejaVuSans-6f" d="M 1959 3097 
Q 1497 3097 1228 2736 
Q 959 2375 959 1747 
Q 959 1119 1226 758 
Q 1494 397 1959 397 
Q 2419 397 2687 759 
Q 2956 1122 2956 1747 
Q 2956 2369 2687 2733 
Q 2419 3097 1959 3097 
z
M 1959 3584 
Q 2709 3584 3137 3096 
Q 3566 2609 3566 1747 
Q 3566 888 3137 398 
Q 2709 -91 1959 -91 
Q 1206 -91 779 398 
Q 353 888 353 1747 
Q 353 2609 779 3096 
Q 1206 3584 1959 3584 
z
" transform="scale(0.015625)"/>
       <path id="DejaVuSans-6e" d="M 3513 2113 
L 3513 0 
L 2938 0 
L 2938 2094 
Q 2938 2591 2744 2837 
Q 2550 3084 2163 3084 
Q 1697 3084 1428 2787 
Q 1159 2491 1159 1978 
L 1159 0 
L 581 0 
L 581 3500 
L 1159 3500 
L 1159 2956 
Q 1366 3272 1645 3428 
Q 1925 3584 2291 3584 
Q 2894 3584 3203 3211 
Q 3513 2838 3513 2113 
z
" transform="scale(0.015625)"/>
       <path id="DejaVuSans-20" transform="scale(0.015625)"/>
       <path id="DejaVuSans-64" d="M 2906 2969 
L 2906 4863 
L 3481 4863 
L 3481 0 
L 2906 0 
L 2906 525 
Q 2725 213 2448 61 
Q 2172 -91 1784 -91 
Q 1150 -91 751 415 
Q 353 922 353 1747 
Q 353 2572 751 3078 
Q 1150 3584 1784 3584 
Q 2172 3584 2448 3432 
Q 2725 3281 2906 2969 
z
M 947 1747 
Q 947 1113 1208 752 
Q 1469 391 1925 391 
Q 2381 391 2643 752 
Q 2906 1113 2906 1747 
Q 2906 2381 2643 2742 
Q 2381 3103 1925 3103 
Q 1469 3103 1208 2742 
Q 947 2381 947 1747 
z
" transform="scale(0.015625)"/>
       <path id="DejaVuSans-65" d="M 3597 1894 
L 3597 1613 
L 953 1613 
Q 991 1019 1311 708 
Q 1631 397 2203 397 
Q 2534 397 2845 478 
Q 3156 559 3463 722 
L 3463 178 
Q 3153 47 2828 -22 
Q 2503 -91 2169 -91 
Q 1331 -91 842 396 
Q 353 884 353 1716 
Q 353 2575 817 3079 
Q 1281 3584 2069 3584 
Q 2775 3584 3186 3129 
Q 3597 2675 3597 1894 
z
M 3022 2063 
Q 3016 2534 2758 2815 
Q 2500 3097 2075 3097 
Q 1594 3097 1305 2825 
Q 1016 2553 972 2059 
L 3022 2063 
z
" transform="scale(0.015625)"/>
       <path id="DejaVuSans-70" d="M 1159 525 
L 1159 -1331 
L 581 -1331 
L 581 3500 
L 1159 3500 
L 1159 2969 
Q 1341 3281 1617 3432 
Q 1894 3584 2278 3584 
Q 2916 3584 3314 3078 
Q 3713 2572 3713 1747 
Q 3713 922 3314 415 
Q 2916 -91 2278 -91 
Q 1894 -91 1617 61 
Q 1341 213 1159 525 
z
M 3116 1747 
Q 3116 2381 2855 2742 
Q 2594 3103 2138 3103 
Q 1681 3103 1420 2742 
Q 1159 2381 1159 1747 
Q 1159 1113 1420 752 
Q 1681 391 2138 391 
Q 2594 391 2855 752 
Q 3116 1113 3116 1747 
z
" transform="scale(0.015625)"/>
       <path id="DejaVuSans-6c" d="M 603 4863 
L 1178 4863 
L 1178 0 
L 603 0 
L 603 4863 
z
" transform="scale(0.015625)"/>
       <path id="DejaVuSans-62" d="M 3116 1747 
Q 3116 2381 2855 2742 
Q 2594 3103 2138 3103 
Q 1681 3103 1420 2742 
Q 1159 2381 1159 1747 
Q 1159 1113 1420 752 
Q 1681 391 2138 391 
Q 2594 391 2855 752 
Q 3116 1113 3116 1747 
z
M 1159 2969 
Q 1341 3281 1617 3432 
Q 1894 3584 2278 3584 
Q 2916 3584 3314 3078 
Q 3713 2572 3713 1747 
Q 3713 922 3314 415 
Q 2916 -91 2278 -91 
Q 1894 -91 1617 61 
Q 1341 213 1159 525 
L 1159 0 
L 581 0 
L 581 4863 
L 1159 4863 
L 1159 2969 
z
" transform="scale(0.015625)"/>
       <path id="DejaVuSans-79" d="M 2059 -325 
Q 1816 -950 1584 -1140 
Q 1353 -1331 966 -1331 
L 506 -1331 
L 506 -850 
L 844 -850 
Q 1081 -850 1212 -737 
Q 1344 -625 1503 -206 
L 1606 56 
L 191 3500 
L 800 3500 
L 1894 763 
L 2988 3500 
L 3597 3500 
L 2059 -325 
z
" transform="scale(0.015625)"/>
       <path id="DejaVuSans-78" d="M 3513 3500 
L 2247 1797 
L 3578 0 
L 2900 0 
L 1881 1375 
L 863 0 
L 184 0 
L 1544 1831 
L 300 3500 
L 978 3500 
L 1906 2253 
L 2834 3500 
L 3513 3500 
z
" transform="scale(0.015625)"/>
       <path id="DejaVuSans-6d" d="M 3328 2828 
Q 3544 3216 3844 3400 
Q 4144 3584 4550 3584 
Q 5097 3584 5394 3201 
Q 5691 2819 5691 2113 
L 5691 0 
L 5113 0 
L 5113 2094 
Q 5113 2597 4934 2840 
Q 4756 3084 4391 3084 
Q 3944 3084 3684 2787 
Q 3425 2491 3425 1978 
L 3425 0 
L 2847 0 
L 2847 2094 
Q 2847 2600 2669 2842 
Q 2491 3084 2119 3084 
Q 1678 3084 1418 2786 
Q 1159 2488 1159 1978 
L 1159 0 
L 581 0 
L 581 3500 
L 1159 3500 
L 1159 2956 
Q 1356 3278 1631 3431 
Q 1906 3584 2284 3584 
Q 2666 3584 2933 3390 
Q 3200 3197 3328 2828 
z
" transform="scale(0.015625)"/>
       <path id="DejaVuSans-75" d="M 544 1381 
L 544 3500 
L 1119 3500 
L 1119 1403 
Q 1119 906 1312 657 
Q 1506 409 1894 409 
Q 2359 409 2629 706 
Q 2900 1003 2900 1516 
L 2900 3500 
L 3475 3500 
L 3475 0 
L 2900 0 
L 2900 538 
Q 2691 219 2414 64 
Q 2138 -91 1772 -91 
Q 1169 -91 856 284 
Q 544 659 544 1381 
z
M 1991 3584 
L 1991 3584 
z
" transform="scale(0.015625)"/>
       <path id="DejaVuSans-28" d="M 1984 4856 
Q 1566 4138 1362 3434 
Q 1159 2731 1159 2009 
Q 1159 1288 1364 580 
Q 1569 -128 1984 -844 
L 1484 -844 
Q 1016 -109 783 600 
Q 550 1309 550 2009 
Q 550 2706 781 3412 
Q 1013 4119 1484 4856 
L 1984 4856 
z
" transform="scale(0.015625)"/>
       <path id="DejaVuSans-25" d="M 4653 2053 
Q 4381 2053 4226 1822 
Q 4072 1591 4072 1178 
Q 4072 772 4226 539 
Q 4381 306 4653 306 
Q 4919 306 5073 539 
Q 5228 772 5228 1178 
Q 5228 1588 5073 1820 
Q 4919 2053 4653 2053 
z
M 4653 2450 
Q 5147 2450 5437 2106 
Q 5728 1763 5728 1178 
Q 5728 594 5436 251 
Q 5144 -91 4653 -91 
Q 4153 -91 3862 251 
Q 3572 594 3572 1178 
Q 3572 1766 3864 2108 
Q 4156 2450 4653 2450 
z
M 1428 4353 
Q 1159 4353 1004 4120 
Q 850 3888 850 3481 
Q 850 3069 1003 2837 
Q 1156 2606 1428 2606 
Q 1700 2606 1854 2837 
Q 2009 3069 2009 3481 
Q 2009 3884 1853 4118 
Q 1697 4353 1428 4353 
z
M 4250 4750 
L 4750 4750 
L 1831 -91 
L 1331 -91 
L 4250 4750 
z
M 1428 4750 
Q 1922 4750 2215 4408 
Q 2509 4066 2509 3481 
Q 2509 2891 2217 2550 
Q 1925 2209 1428 2209 
Q 931 2209 642 2551 
Q 353 2894 353 3481 
Q 353 4063 643 4406 
Q 934 4750 1428 4750 
z
" transform="scale(0.015625)"/>
       <path id="DejaVuSans-29" d="M 513 4856 
L 1013 4856 
Q 1481 4119 1714 3412 
Q 1947 2706 1947 2009 
Q 1947 1309 1714 600 
Q 1481 -109 1013 -844 
L 513 -844 
Q 928 -128 1133 580 
Q 1338 1288 1338 2009 
Q 1338 2731 1133 3434 
Q 928 4138 513 4856 
z
" transform="scale(0.015625)"/>
      </defs>
      <use xlink:href="#DejaVuSans-66"/>
      <use xlink:href="#DejaVuSans-72" transform="translate(35.205078 0)"/>
      <use xlink:href="#DejaVuSans-61" transform="translate(76.318359 0)"/>
      <use xlink:href="#DejaVuSans-63" transform="translate(137.597656 0)"/>
      <use xlink:href="#DejaVuSans-74" transform="translate(192.578125 0)"/>
      <use xlink:href="#DejaVuSans-69" transform="translate(231.787109 0)"/>
      <use xlink:href="#DejaVuSans-6f" transform="translate(259.570312 0)"/>
      <use xlink:href="#DejaVuSans-6e" transform="translate(320.751953 0)"/>
      <use xlink:href="#DejaVuSans-20" transform="translate(384.130859 0)"/>
      <use xlink:href="#DejaVuSans-6f" transform="translate(415.917969 0)"/>
      <use xlink:href="#DejaVuSans-66" transform="translate(477.099609 0)"/>
      <use xlink:href="#DejaVuSans-20" transform="translate(512.304688 0)"/>
      <use xlink:href="#DejaVuSans-64" transform="translate(544.091797 0)"/>
      <use xlink:href="#DejaVuSans-61" transform="translate(607.568359 0)"/>
      <use xlink:href="#DejaVuSans-74" transform="translate(668.847656 0)"/>
      <use xlink:href="#DejaVuSans-61" transform="translate(708.056641 0)"/>
      <use xlink:href="#DejaVuSans-20" transform="translate(769.335938 0)"/>
      <use xlink:href="#DejaVuSans-72" transform="translate(801.123047 0)"/>
      <use xlink:href="#DejaVuSans-65" transform="translate(839.986328 0)"/>
      <use xlink:href="#DejaVuSans-70" transform="translate(901.509766 0)"/>
      <use xlink:href="#DejaVuSans-6c" transform="translate(964.986328 0)"/>
      <use xlink:href="#DejaVuSans-61" transform="translate(992.769531 0)"/>
      <use xlink:href="#DejaVuSans-63" transform="translate(1054.048828 0)"/>
      <use xlink:href="#DejaVuSans-65" transform="translate(1109.029297 0)"/>
      <use xlink:href="#DejaVuSans-64" transform="translate(1170.552734 0)"/>
      <use xlink:href="#DejaVuSans-20" transform="translate(1234.029297 0)"/>
      <use xlink:href="#DejaVuSans-62" transform="translate(1265.816406 0)"/>
      <use xlink:href="#DejaVuSans-79" transform="translate(1329.292969 0)"/>
      <use xlink:href="#DejaVuSans-20" transform="translate(1388.472656 0)"/>
      <use xlink:href="#DejaVuSans-65" transform="translate(1420.259766 0)"/>
      <use xlink:href="#DejaVuSans-78" transform="translate(1480.033203 0)"/>
      <use xlink:href="#DejaVuSans-74" transform="translate(1539.212891 0)"/>
      <use xlink:href="#DejaVuSans-72" transform="translate(1578.421875 0)"/>
      <use xlink:href="#DejaVuSans-65" transform="translate(1617.285156 0)"/>
      <use xlink:href="#DejaVuSans-6d" transform="translate(1678.808594 0)"/>
      <use xlink:href="#DejaVuSans-65" transform="translate(1776.220703 0)"/>
      <use xlink:href="#DejaVuSans-20" transform="translate(1837.744141 0)"/>
      <use xlink:href="#DejaVuSans-6f" transform="translate(1869.53125 0)"/>
      <use xlink:href="#DejaVuSans-75" transform="translate(1930.712891 0)"/>
      <use xlink:href="#DejaVuSans-74" transform="translate(1994.091797 0)"/>
      <use xlink:href="#DejaVuSans-6c" transform="translate(2033.300781 0)"/>
      <use xlink:href="#DejaVuSans-69" transform="translate(2061.083984 0)"/>
      <use xlink:href="#DejaVuSans-65" transform="translate(2088.867188 0)"/>
      <use xlink:href="#DejaVuSans-72" transform="translate(2150.390625 0)"/>
      <use xlink:href="#DejaVuSans-20" transform="translate(2191.503906 0)"/>
      <use xlink:href="#DejaVuSans-28" transform="translate(2223.291016 0)"/>
      <use xlink:href="#DejaVuSans-25" transform="translate(2262.304688 0)"/>
      <use xlink:href="#DejaVuSans-29" transform="translate(2357.324219 0)"/>
     </g>
    </g>
   </g>
   <g id="matplotlib.axis_2">
    <g id="ytick_1">
     <g id="line2d_13">
      <path d="M 46.965625 265.879943 
L 489.295625 265.879943 
" clip-path="url(#p872e78178e)" style="fill: none; stroke: #b0b0b0; stroke-opacity: 0.25; stroke-width: 0.8; stroke-linecap: square"/>
     </g>
     <g id="line2d_14">
      <defs>
       <path id="m2c7cf9167f" d="M 0 0 
L -3.5 0 
" style="stroke: #000000; stroke-width: 0.8"/>
      </defs>
      <g>
       <use xlink:href="#m2c7cf9167f" x="46.965625" y="265.879943" style="stroke: #000000; stroke-width: 0.8"/>
      </g>
     </g>
     <g id="text_8">
      <!-- 0 -->
      <g transform="translate(33.603125 269.679162) scale(0.1 -0.1)">
       <use xlink:href="#DejaVuSans-30"/>
      </g>
     </g>
    </g>
    <g id="ytick_2">
     <g id="line2d_15">
      <path d="M 46.965625 214.529822 
L 489.295625 214.529822 
" clip-path="url(#p872e78178e)" style="fill: none; stroke: #b0b0b0; stroke-opacity: 0.25; stroke-width: 0.8; stroke-linecap: square"/>
     </g>
     <g id="line2d_16">
      <g>
       <use xlink:href="#m2c7cf9167f" x="46.965625" y="214.529822" style="stroke: #000000; stroke-width: 0.8"/>
      </g>
     </g>
     <g id="text_9">
      <!-- 100 -->
      <g transform="translate(20.878125 218.329041) scale(0.1 -0.1)">
       <use xlink:href="#DejaVuSans-31"/>
       <use xlink:href="#DejaVuSans-30" transform="translate(63.623047 0)"/>
       <use xlink:href="#DejaVuSans-30" transform="translate(127.246094 0)"/>
      </g>
     </g>
    </g>
    <g id="ytick_3">
     <g id="line2d_17">
      <path d="M 46.965625 163.179701 
L 489.295625 163.179701 
" clip-path="url(#p872e78178e)" style="fill: none; stroke: #b0b0b0; stroke-opacity: 0.25; stroke-width: 0.8; stroke-linecap: square"/>
     </g>
     <g id="line2d_18">
      <g>
       <use xlink:href="#m2c7cf9167f" x="46.965625" y="163.179701" style="stroke: #000000; stroke-width: 0.8"/>
      </g>
     </g>
     <g id="text_10">
      <!-- 200 -->
      <g transform="translate(20.878125 166.97892) scale(0.1 -0.1)">
       <use xlink:href="#DejaVuSans-32"/>
       <use xlink:href="#DejaVuSans-30" transform="translate(63.623047 0)"/>
       <use xlink:href="#DejaVuSans-30" transform="translate(127.246094 0)"/>
      </g>
     </g>
    </g>
    <g id="ytick_4">
     <g id="line2d_19">
      <path d="M 46.965625 111.829581 
L 489.295625 111.829581 
" clip-path="url(#p872e78178e)" style="fill: none; stroke: #b0b0b0; stroke-opacity: 0.25; stroke-width: 0.8; stroke-linecap: square"/>
     </g>
     <g id="line2d_20">
      <g>
       <use xlink:href="#m2c7cf9167f" x="46.965625" y="111.829581" style="stroke: #000000; stroke-width: 0.8"/>
      </g>
     </g>
     <g id="text_11">
      <!-- 300 -->
      <g transform="translate(20.878125 115.628799) scale(0.1 -0.1)">
       <use xlink:href="#DejaVuSans-33"/>
       <use xlink:href="#DejaVuSans-30" transform="translate(63.623047 0)"/>
       <use xlink:href="#DejaVuSans-30" transform="translate(127.246094 0)"/>
      </g>
     </g>
    </g>
    <g id="ytick_5">
     <g id="line2d_21">
      <path d="M 46.965625 60.47946 
L 489.295625 60.47946 
" clip-path="url(#p872e78178e)" style="fill: none; stroke: #b0b0b0; stroke-opacity: 0.25; stroke-width: 0.8; stroke-linecap: square"/>
     </g>
     <g id="line2d_22">
      <g>
       <use xlink:href="#m2c7cf9167f" x="46.965625" y="60.47946" style="stroke: #000000; stroke-width: 0.8"/>
      </g>
     </g>
     <g id="text_12">
      <!-- 400 -->
      <g transform="translate(20.878125 64.278678) scale(0.1 -0.1)">
       <use xlink:href="#DejaVuSans-34"/>
       <use xlink:href="#DejaVuSans-30" transform="translate(63.623047 0)"/>
       <use xlink:href="#DejaVuSans-30" transform="translate(127.246094 0)"/>
      </g>
     </g>
    </g>
    <g id="text_13">
     <!-- estimator drift from clean value -->
     <g transform="translate(14.798438 229.284063) rotate(-90) scale(0.1 -0.1)">
      <defs>
       <path id="DejaVuSans-73" d="M 2834 3397 
L 2834 2853 
Q 2591 2978 2328 3040 
Q 2066 3103 1784 3103 
Q 1356 3103 1142 2972 
Q 928 2841 928 2578 
Q 928 2378 1081 2264 
Q 1234 2150 1697 2047 
L 1894 2003 
Q 2506 1872 2764 1633 
Q 3022 1394 3022 966 
Q 3022 478 2636 193 
Q 2250 -91 1575 -91 
Q 1294 -91 989 -36 
Q 684 19 347 128 
L 347 722 
Q 666 556 975 473 
Q 1284 391 1588 391 
Q 1994 391 2212 530 
Q 2431 669 2431 922 
Q 2431 1156 2273 1281 
Q 2116 1406 1581 1522 
L 1381 1569 
Q 847 1681 609 1914 
Q 372 2147 372 2553 
Q 372 3047 722 3315 
Q 1072 3584 1716 3584 
Q 2034 3584 2315 3537 
Q 2597 3491 2834 3397 
z
" transform="scale(0.015625)"/>
       <path id="DejaVuSans-76" d="M 191 3500 
L 800 3500 
L 1894 563 
L 2988 3500 
L 3597 3500 
L 2284 0 
L 1503 0 
L 191 3500 
z
" transform="scale(0.015625)"/>
      </defs>
      <use xlink:href="#DejaVuSans-65"/>
      <use xlink:href="#DejaVuSans-73" transform="translate(61.523438 0)"/>
      <use xlink:href="#DejaVuSans-74" transform="translate(113.623047 0)"/>
      <use xlink:href="#DejaVuSans-69" transform="translate(152.832031 0)"/>
      <use xlink:href="#DejaVuSans-6d" transform="translate(180.615234 0)"/>
      <use xlink:href="#DejaVuSans-61" transform="translate(278.027344 0)"/>
      <use xlink:href="#DejaVuSans-74" transform="translate(339.306641 0)"/>
      <use xlink:href="#DejaVuSans-6f" transform="translate(378.515625 0)"/>
      <use xlink:href="#DejaVuSans-72" transform="translate(439.697266 0)"/>
      <use xlink:href="#DejaVuSans-20" transform="translate(480.810547 0)"/>
      <use xlink:href="#DejaVuSans-64" transform="translate(512.597656 0)"/>
      <use xlink:href="#DejaVuSans-72" transform="translate(576.074219 0)"/>
      <use xlink:href="#DejaVuSans-69" transform="translate(617.1875 0)"/>
      <use xlink:href="#DejaVuSans-66" transform="translate(644.970703 0)"/>
      <use xlink:href="#DejaVuSans-74" transform="translate(678.425781 0)"/>
      <use xlink:href="#DejaVuSans-20" transform="translate(717.634766 0)"/>
      <use xlink:href="#DejaVuSans-66" transform="translate(749.421875 0)"/>
      <use xlink:href="#DejaVuSans-72" transform="translate(784.626953 0)"/>
      <use xlink:href="#DejaVuSans-6f" transform="translate(823.490234 0)"/>
      <use xlink:href="#DejaVuSans-6d" transform="translate(884.671875 0)"/>
      <use xlink:href="#DejaVuSans-20" transform="translate(982.083984 0)"/>
      <use xlink:href="#DejaVuSans-63" transform="translate(1013.871094 0)"/>
      <use xlink:href="#DejaVuSans-6c" transform="translate(1068.851562 0)"/>
      <use xlink:href="#DejaVuSans-65" transform="translate(1096.634766 0)"/>
      <use xlink:href="#DejaVuSans-61" transform="translate(1158.158203 0)"/>
      <use xlink:href="#DejaVuSans-6e" transform="translate(1219.4375 0)"/>
      <use xlink:href="#DejaVuSans-20" transform="translate(1282.816406 0)"/>
      <use xlink:href="#DejaVuSans-76" transform="translate(1314.603516 0)"/>
      <use xlink:href="#DejaVuSans-61" transform="translate(1373.783203 0)"/>
      <use xlink:href="#DejaVuSans-6c" transform="translate(1435.0625 0)"/>
      <use xlink:href="#DejaVuSans-75" transform="translate(1462.845703 0)"/>
      <use xlink:href="#DejaVuSans-65" transform="translate(1526.224609 0)"/>
     </g>
    </g>
   </g>
   <g id="line2d_23">
    <path d="M 67.071534 265.879943 
L 80.937678 261.312086 
L 94.803822 256.662062 
L 108.669967 251.924716 
L 122.536111 247.479409 
L 136.402255 245.08913 
L 150.268399 240.509894 
L 164.134543 235.700415 
L 178.000688 231.204732 
L 191.866832 226.525211 
L 205.732976 222.00187 
L 219.59912 217.306119 
L 233.465264 212.821273 
L 247.331409 208.206753 
L 261.197553 203.360575 
L 275.063697 201.044108 
L 288.929841 196.646135 
L 302.795986 191.623565 
L 316.66213 187.021981 
L 330.528274 182.745204 
L 344.394418 177.813252 
L 358.260562 173.222986 
L 372.126707 168.709187 
L 385.992851 164.060185 
L 399.858995 159.623501 
L 413.725139 157.250313 
L 427.591283 152.361772 
L 441.457428 147.856701 
L 455.323572 143.427264 
L 469.189716 138.672798 
" clip-path="url(#p872e78178e)" style="fill: none; stroke: #e15759; stroke-width: 2; stroke-linecap: square"/>
    <defs>
     <path id="md0b5be55dc" d="M 0 3 
C 0.795609 3 1.55874 2.683901 2.12132 2.12132 
C 2.683901 1.55874 3 0.795609 3 0 
C 3 -0.795609 2.683901 -1.55874 2.12132 -2.12132 
C 1.55874 -2.683901 0.795609 -3 0 -3 
C -0.795609 -3 -1.55874 -2.683901 -2.12132 -2.12132 
C -2.683901 -1.55874 -3 -0.795609 -3 0 
C -3 0.795609 -2.683901 1.55874 -2.12132 2.12132 
C -1.55874 2.683901 -0.795609 3 0 3 
z
" style="stroke: #e15759"/>
    </defs>
    <g clip-path="url(#p872e78178e)">
     <use xlink:href="#md0b5be55dc" x="67.071534" y="265.879943" style="fill: #e15759; stroke: #e15759"/>
     <use xlink:href="#md0b5be55dc" x="80.937678" y="261.312086" style="fill: #e15759; stroke: #e15759"/>
     <use xlink:href="#md0b5be55dc" x="94.803822" y="256.662062" style="fill: #e15759; stroke: #e15759"/>
     <use xlink:href="#md0b5be55dc" x="108.669967" y="251.924716" style="fill: #e15759; stroke: #e15759"/>
     <use xlink:href="#md0b5be55dc" x="122.536111" y="247.479409" style="fill: #e15759; stroke: #e15759"/>
     <use xlink:href="#md0b5be55dc" x="136.402255" y="245.08913" style="fill: #e15759; stroke: #e15759"/>
     <use xlink:href="#md0b5be55dc" x="150.268399" y="240.509894" style="fill: #e15759; stroke: #e15759"/>
     <use xlink:href="#md0b5be55dc" x="164.134543" y="235.700415" style="fill: #e15759; stroke: #e15759"/>
     <use xlink:href="#md0b5be55dc" x="178.000688" y="231.204732" style="fill: #e15759; stroke: #e15759"/>
     <use xlink:href="#md0b5be55dc" x="191.866832" y="226.525211" style="fill: #e15759; stroke: #e15759"/>
     <use xlink:href="#md0b5be55dc" x="205.732976" y="222.00187" style="fill: #e15759; stroke: #e15759"/>
     <use xlink:href="#md0b5be55dc" x="219.59912" y="217.306119" style="fill: #e15759; stroke: #e15759"/>
     <use xlink:href="#md0b5be55dc" x="233.465264" y="212.821273" style="fill: #e15759; stroke: #e15759"/>
     <use xlink:href="#md0b5be55dc" x="247.331409" y="208.206753" style="fill: #e15759; stroke: #e15759"/>
     <use xlink:href="#md0b5be55dc" x="261.197553" y="203.360575" style="fill: #e15759; stroke: #e15759"/>
     <use xlink:href="#md0b5be55dc" x="275.063697" y="201.044108" style="fill: #e15759; stroke: #e15759"/>
     <use xlink:href="#md0b5be55dc" x="288.929841" y="196.646135" style="fill: #e15759; stroke: #e15759"/>
     <use xlink:href="#md0b5be55dc" x="302.795986" y="191.623565" style="fill: #e15759; stroke: #e15759"/>
     <use xlink:href="#md0b5be55dc" x="316.66213" y="187.021981" style="fill: #e15759; stroke: #e15759"/>
     <use xlink:href="#md0b5be55dc" x="330.528274" y="182.745204" style="fill: #e15759; stroke: #e15759"/>
     <use xlink:href="#md0b5be55dc" x="344.394418" y="177.813252" style="fill: #e15759; stroke: #e15759"/>
     <use xlink:href="#md0b5be55dc" x="358.260562" y="173.222986" style="fill: #e15759; stroke: #e15759"/>
     <use xlink:href="#md0b5be55dc" x="372.126707" y="168.709187" style="fill: #e15759; stroke: #e15759"/>
     <use xlink:href="#md0b5be55dc" x="385.992851" y="164.060185" style="fill: #e15759; stroke: #e15759"/>
     <use xlink:href="#md0b5be55dc" x="399.858995" y="159.623501" style="fill: #e15759; stroke: #e15759"/>
     <use xlink:href="#md0b5be55dc" x="413.725139" y="157.250313" style="fill: #e15759; stroke: #e15759"/>
     <use xlink:href="#md0b5be55dc" x="427.591283" y="152.361772" style="fill: #e15759; stroke: #e15759"/>
     <use xlink:href="#md0b5be55dc" x="441.457428" y="147.856701" style="fill: #e15759; stroke: #e15759"/>
     <use xlink:href="#md0b5be55dc" x="455.323572" y="143.427264" style="fill: #e15759; stroke: #e15759"/>
     <use xlink:href="#md0b5be55dc" x="469.189716" y="138.672798" style="fill: #e15759; stroke: #e15759"/>
    </g>
   </g>
   <g id="line2d_24">
    <path d="M 67.071534 265.879943 
L 80.937678 265.879943 
L 94.803822 265.852151 
L 108.669967 265.782777 
L 122.536111 265.649509 
L 136.402255 265.526106 
L 150.268399 265.425904 
L 164.134543 265.028954 
L 178.000688 265.028954 
L 191.866832 264.956526 
L 205.732976 265.140997 
L 219.59912 264.954812 
L 233.465264 265.028954 
L 247.331409 264.798788 
L 261.197553 264.572598 
L 275.063697 264.476902 
L 288.929841 264.526539 
L 302.795986 263.037776 
L 316.66213 262.923909 
L 330.528274 263.310604 
L 344.394418 262.827902 
L 358.260562 262.800057 
L 372.126707 262.076806 
L 385.992851 261.580455 
L 399.858995 262.109004 
L 413.725139 259.94622 
L 427.591283 257.518041 
L 441.457428 33.916307 
L 455.323572 33.916307 
L 469.189716 33.916307 
" clip-path="url(#p872e78178e)" style="fill: none; stroke: #59a14f; stroke-width: 2; stroke-linecap: square"/>
    <defs>
     <path id="md7feda2779" d="M -3 3 
L 3 3 
L 3 -3 
L -3 -3 
z
" style="stroke: #59a14f; stroke-linejoin: miter"/>
    </defs>
    <g clip-path="url(#p872e78178e)">
     <use xlink:href="#md7feda2779" x="67.071534" y="265.879943" style="fill: #59a14f; stroke: #59a14f; stroke-linejoin: miter"/>
     <use xlink:href="#md7feda2779" x="80.937678" y="265.879943" style="fill: #59a14f; stroke: #59a14f; stroke-linejoin: miter"/>
     <use xlink:href="#md7feda2779" x="94.803822" y="265.852151" style="fill: #59a14f; stroke: #59a14f; stroke-linejoin: miter"/>
     <use xlink:href="#md7feda2779" x="108.669967" y="265.782777" style="fill: #59a14f; stroke: #59a14f; stroke-linejoin: miter"/>
     <use xlink:href="#md7feda2779" x="122.536111" y="265.649509" style="fill: #59a14f; stroke: #59a14f; stroke-linejoin: miter"/>
     <use xlink:href="#md7feda2779" x="136.402255" y="265.526106" style="fill: #59a14f; stroke: #59a14f; stroke-linejoin: miter"/>
     <use xlink:href="#md7feda2779" x="150.268399" y="265.425904" style="fill: #59a14f; stroke: #59a14f; stroke-linejoin: miter"/>
     <use xlink:href="#md7feda2779" x="164.134543" y="265.028954" style="fill: #59a14f; stroke: #59a14f; stroke-linejoin: miter"/>
     <use xlink:href="#md7feda2779" x="178.000688" y="265.028954" style="fill: #59a14f; stroke: #59a14f; stroke-linejoin: miter"/>
     <use xlink:href="#md7feda2779" x="191.866832" y="264.956526" style="fill: #59a14f; stroke: #59a14f; stroke-linejoin: miter"/>
     <use xlink:href="#md7feda2779" x="205.732976" y="265.140997" style="fill: #59a14f; stroke: #59a14f; stroke-linejoin: miter"/>
     <use xlink:href="#md7feda2779" x="219.59912" y="264.954812" style="fill: #59a14f; stroke: #59a14f; stroke-linejoin: miter"/>
     <use xlink:href="#md7feda2779" x="233.465264" y="265.028954" style="fill: #59a14f; stroke: #59a14f; stroke-linejoin: miter"/>
     <use xlink:href="#md7feda2779" x="247.331409" y="264.798788" style="fill: #59a14f; stroke: #59a14f; stroke-linejoin: miter"/>
     <use xlink:href="#md7feda2779" x="261.197553" y="264.572598" style="fill: #59a14f; stroke: #59a14f; stroke-linejoin: miter"/>
     <use xlink:href="#md7feda2779" x="275.063697" y="264.476902" style="fill: #59a14f; stroke: #59a14f; stroke-linejoin: miter"/>
     <use xlink:href="#md7feda2779" x="288.929841" y="264.526539" style="fill: #59a14f; stroke: #59a14f; stroke-linejoin: miter"/>
     <use xlink:href="#md7feda2779" x="302.795986" y="263.037776" style="fill: #59a14f; stroke: #59a14f; stroke-linejoin: miter"/>
     <use xlink:href="#md7feda2779" x="316.66213" y="262.923909" style="fill: #59a14f; stroke: #59a14f; stroke-linejoin: miter"/>
     <use xlink:href="#md7feda2779" x="330.528274" y="263.310604" style="fill: #59a14f; stroke: #59a14f; stroke-linejoin: miter"/>
     <use xlink:href="#md7feda2779" x="344.394418" y="262.827902" style="fill: #59a14f; stroke: #59a14f; stroke-linejoin: miter"/>
     <use xlink:href="#md7feda2779" x="358.260562" y="262.800057" style="fill: #59a14f; stroke: #59a14f; stroke-linejoin: miter"/>
     <use xlink:href="#md7feda2779" x="372.126707" y="262.076806" style="fill: #59a14f; stroke: #59a14f; stroke-linejoin: miter"/>
     <use xlink:href="#md7feda2779" x="385.992851" y="261.580455" style="fill: #59a14f; stroke: #59a14f; stroke-linejoin: miter"/>
     <use xlink:href="#md7feda2779" x="399.858995" y="262.109004" style="fill: #59a14f; stroke: #59a14f; stroke-linejoin: miter"/>
     <use xlink:href="#md7feda2779" x="413.725139" y="259.94622" style="fill: #59a14f; stroke: #59a14f; stroke-linejoin: miter"/>
     <use xlink:href="#md7feda2779" x="427.591283" y="257.518041" style="fill: #59a14f; stroke: #59a14f; stroke-linejoin: miter"/>
     <use xlink:href="#md7feda2779" x="441.457428" y="33.916307" style="fill: #59a14f; stroke: #59a14f; stroke-linejoin: miter"/>
     <use xlink:href="#md7feda2779" x="455.323572" y="33.916307" style="fill: #59a14f; stroke: #59a14f; stroke-linejoin: miter"/>
     <use xlink:href="#md7feda2779" x="469.189716" y="33.916307" style="fill: #59a14f; stroke: #59a14f; stroke-linejoin: miter"/>
    </g>
   </g>
   <g id="line2d_25">
    <path d="M 432.633518 277.478125 
L 432.633518 22.318125 
" clip-path="url(#p872e78178e)" style="fill: none; stroke-dasharray: 1.5,2.475; stroke-dashoffset: 0; stroke: #000000; stroke-width: 1.5"/>
   </g>
   <g id="patch_3">
    <path d="M 46.965625 277.478125 
L 46.965625 22.318125 
" style="fill: none; stroke: #000000; stroke-width: 0.8; stroke-linejoin: miter; stroke-linecap: square"/>
   </g>
   <g id="patch_4">
    <path d="M 489.295625 277.478125 
L 489.295625 22.318125 
" style="fill: none; stroke: #000000; stroke-width: 0.8; stroke-linejoin: miter; stroke-linecap: square"/>
   </g>
   <g id="patch_5">
    <path d="M 46.965625 277.478125 
L 489.295625 277.478125 
" style="fill: none; stroke: #000000; stroke-width: 0.8; stroke-linejoin: miter; stroke-linecap: square"/>
   </g>
   <g id="patch_6">
    <path d="M 46.965625 22.318125 
L 489.295625 22.318125 
" style="fill: none; stroke: #000000; stroke-width: 0.8; stroke-linejoin: miter; stroke-linecap: square"/>
   </g>
   <g id="text_14">
    <!-- Breakdown point: median stays put until ~50% data is contaminated -->
    <g transform="translate(60.27 16.318125) scale(0.12 -0.12)">
     <defs>
      <path id="DejaVuSans-42" d="M 1259 2228 
L 1259 519 
L 2272 519 
Q 2781 519 3026 730 
Q 3272 941 3272 1375 
Q 3272 1813 3026 2020 
Q 2781 2228 2272 2228 
L 1259 2228 
z
M 1259 4147 
L 1259 2741 
L 2194 2741 
Q 2656 2741 2882 2914 
Q 3109 3088 3109 3444 
Q 3109 3797 2882 3972 
Q 2656 4147 2194 4147 
L 1259 4147 
z
M 628 4666 
L 2241 4666 
Q 2963 4666 3353 4366 
Q 3744 4066 3744 3513 
Q 3744 3084 3544 2831 
Q 3344 2578 2956 2516 
Q 3422 2416 3680 2098 
Q 3938 1781 3938 1306 
Q 3938 681 3513 340 
Q 3088 0 2303 0 
L 628 0 
L 628 4666 
z
" transform="scale(0.015625)"/>
      <path id="DejaVuSans-6b" d="M 581 4863 
L 1159 4863 
L 1159 1991 
L 2875 3500 
L 3609 3500 
L 1753 1863 
L 3688 0 
L 2938 0 
L 1159 1709 
L 1159 0 
L 581 0 
L 581 4863 
z
" transform="scale(0.015625)"/>
      <path id="DejaVuSans-77" d="M 269 3500 
L 844 3500 
L 1563 769 
L 2278 3500 
L 2956 3500 
L 3675 769 
L 4391 3500 
L 4966 3500 
L 4050 0 
L 3372 0 
L 2619 2869 
L 1863 0 
L 1184 0 
L 269 3500 
z
" transform="scale(0.015625)"/>
      <path id="DejaVuSans-3a" d="M 750 794 
L 1409 794 
L 1409 0 
L 750 0 
L 750 794 
z
M 750 3309 
L 1409 3309 
L 1409 2516 
L 750 2516 
L 750 3309 
z
" transform="scale(0.015625)"/>
      <path id="DejaVuSans-7e" d="M 4684 2553 
L 4684 1997 
Q 4356 1750 4076 1644 
Q 3797 1538 3494 1538 
Q 3150 1538 2694 1722 
Q 2659 1734 2644 1741 
Q 2622 1750 2575 1766 
Q 2091 1959 1797 1959 
Q 1522 1959 1253 1839 
Q 984 1719 678 1459 
L 678 2016 
Q 1006 2263 1286 2370 
Q 1566 2478 1869 2478 
Q 2213 2478 2672 2291 
Q 2703 2278 2719 2272 
Q 2744 2263 2788 2247 
Q 3272 2053 3566 2053 
Q 3834 2053 4098 2172 
Q 4363 2291 4684 2553 
z
" transform="scale(0.015625)"/>
     </defs>
     <use xlink:href="#DejaVuSans-42"/>
     <use xlink:href="#DejaVuSans-72" transform="translate(68.603516 0)"/>
     <use xlink:href="#DejaVuSans-65" transform="translate(107.466797 0)"/>
     <use xlink:href="#DejaVuSans-61" transform="translate(168.990234 0)"/>
     <use xlink:href="#DejaVuSans-6b" transform="translate(230.269531 0)"/>
     <use xlink:href="#DejaVuSans-64" transform="translate(288.179688 0)"/>
     <use xlink:href="#DejaVuSans-6f" transform="translate(351.65625 0)"/>
     <use xlink:href="#DejaVuSans-77" transform="translate(412.837891 0)"/>
     <use xlink:href="#DejaVuSans-6e" transform="translate(494.625 0)"/>
     <use xlink:href="#DejaVuSans-20" transform="translate(558.003906 0)"/>
     <use xlink:href="#DejaVuSans-70" transform="translate(589.791016 0)"/>
     <use xlink:href="#DejaVuSans-6f" transform="translate(653.267578 0)"/>
     <use xlink:href="#DejaVuSans-69" transform="translate(714.449219 0)"/>
     <use xlink:href="#DejaVuSans-6e" transform="translate(742.232422 0)"/>
     <use xlink:href="#DejaVuSans-74" transform="translate(805.611328 0)"/>
     <use xlink:href="#DejaVuSans-3a" transform="translate(844.820312 0)"/>
     <use xlink:href="#DejaVuSans-20" transform="translate(878.511719 0)"/>
     <use xlink:href="#DejaVuSans-6d" transform="translate(910.298828 0)"/>
     <use xlink:href="#DejaVuSans-65" transform="translate(1007.710938 0)"/>
     <use xlink:href="#DejaVuSans-64" transform="translate(1069.234375 0)"/>
     <use xlink:href="#DejaVuSans-69" transform="translate(1132.710938 0)"/>
     <use xlink:href="#DejaVuSans-61" transform="translate(1160.494141 0)"/>
     <use xlink:href="#DejaVuSans-6e" transform="translate(1221.773438 0)"/>
     <use xlink:href="#DejaVuSans-20" transform="translate(1285.152344 0)"/>
     <use xlink:href="#DejaVuSans-73" transform="translate(1316.939453 0)"/>
     <use xlink:href="#DejaVuSans-74" transform="translate(1369.039062 0)"/>
     <use xlink:href="#DejaVuSans-61" transform="translate(1408.248047 0)"/>
     <use xlink:href="#DejaVuSans-79" transform="translate(1469.527344 0)"/>
     <use xlink:href="#DejaVuSans-73" transform="translate(1528.707031 0)"/>
     <use xlink:href="#DejaVuSans-20" transform="translate(1580.806641 0)"/>
     <use xlink:href="#DejaVuSans-70" transform="translate(1612.59375 0)"/>
     <use xlink:href="#DejaVuSans-75" transform="translate(1676.070312 0)"/>
     <use xlink:href="#DejaVuSans-74" transform="translate(1739.449219 0)"/>
     <use xlink:href="#DejaVuSans-20" transform="translate(1778.658203 0)"/>
     <use xlink:href="#DejaVuSans-75" transform="translate(1810.445312 0)"/>
     <use xlink:href="#DejaVuSans-6e" transform="translate(1873.824219 0)"/>
     <use xlink:href="#DejaVuSans-74" transform="translate(1937.203125 0)"/>
     <use xlink:href="#DejaVuSans-69" transform="translate(1976.412109 0)"/>
     <use xlink:href="#DejaVuSans-6c" transform="translate(2004.195312 0)"/>
     <use xlink:href="#DejaVuSans-20" transform="translate(2031.978516 0)"/>
     <use xlink:href="#DejaVuSans-7e" transform="translate(2063.765625 0)"/>
     <use xlink:href="#DejaVuSans-35" transform="translate(2147.554688 0)"/>
     <use xlink:href="#DejaVuSans-30" transform="translate(2211.177734 0)"/>
     <use xlink:href="#DejaVuSans-25" transform="translate(2274.800781 0)"/>
     <use xlink:href="#DejaVuSans-20" transform="translate(2369.820312 0)"/>
     <use xlink:href="#DejaVuSans-64" transform="translate(2401.607422 0)"/>
     <use xlink:href="#DejaVuSans-61" transform="translate(2465.083984 0)"/>
     <use xlink:href="#DejaVuSans-74" transform="translate(2526.363281 0)"/>
     <use xlink:href="#DejaVuSans-61" transform="translate(2565.572266 0)"/>
     <use xlink:href="#DejaVuSans-20" transform="translate(2626.851562 0)"/>
     <use xlink:href="#DejaVuSans-69" transform="translate(2658.638672 0)"/>
     <use xlink:href="#DejaVuSans-73" transform="translate(2686.421875 0)"/>
     <use xlink:href="#DejaVuSans-20" transform="translate(2738.521484 0)"/>
     <use xlink:href="#DejaVuSans-63" transform="translate(2770.308594 0)"/>
     <use xlink:href="#DejaVuSans-6f" transform="translate(2825.289062 0)"/>
     <use xlink:href="#DejaVuSans-6e" transform="translate(2886.470703 0)"/>
     <use xlink:href="#DejaVuSans-74" transform="translate(2949.849609 0)"/>
     <use xlink:href="#DejaVuSans-61" transform="translate(2989.058594 0)"/>
     <use xlink:href="#DejaVuSans-6d" transform="translate(3050.337891 0)"/>
     <use xlink:href="#DejaVuSans-69" transform="translate(3147.75 0)"/>
     <use xlink:href="#DejaVuSans-6e" transform="translate(3175.533203 0)"/>
     <use xlink:href="#DejaVuSans-61" transform="translate(3238.912109 0)"/>
     <use xlink:href="#DejaVuSans-74" transform="translate(3300.191406 0)"/>
     <use xlink:href="#DejaVuSans-65" transform="translate(3339.400391 0)"/>
     <use xlink:href="#DejaVuSans-64" transform="translate(3400.923828 0)"/>
    </g>
   </g>
   <g id="legend_1">
    <g id="patch_7">
     <path d="M 53.965625 74.3525 
L 218.88125 74.3525 
Q 220.88125 74.3525 220.88125 72.3525 
L 220.88125 29.318125 
Q 220.88125 27.318125 218.88125 27.318125 
L 53.965625 27.318125 
Q 51.965625 27.318125 51.965625 29.318125 
L 51.965625 72.3525 
Q 51.965625 74.3525 53.965625 74.3525 
z
" style="fill: #ffffff; opacity: 0.8; stroke: #cccccc; stroke-linejoin: miter"/>
    </g>
    <g id="line2d_26">
     <path d="M 55.965625 35.416562 
L 65.965625 35.416562 
L 75.965625 35.416562 
" style="fill: none; stroke: #e15759; stroke-width: 2; stroke-linecap: square"/>
     <g>
      <use xlink:href="#md0b5be55dc" x="65.965625" y="35.416562" style="fill: #e15759; stroke: #e15759"/>
     </g>
    </g>
    <g id="text_15">
     <!-- mean drift -->
     <g transform="translate(83.965625 38.916562) scale(0.1 -0.1)">
      <use xlink:href="#DejaVuSans-6d"/>
      <use xlink:href="#DejaVuSans-65" transform="translate(97.412109 0)"/>
      <use xlink:href="#DejaVuSans-61" transform="translate(158.935547 0)"/>
      <use xlink:href="#DejaVuSans-6e" transform="translate(220.214844 0)"/>
      <use xlink:href="#DejaVuSans-20" transform="translate(283.59375 0)"/>
      <use xlink:href="#DejaVuSans-64" transform="translate(315.380859 0)"/>
      <use xlink:href="#DejaVuSans-72" transform="translate(378.857422 0)"/>
      <use xlink:href="#DejaVuSans-69" transform="translate(419.970703 0)"/>
      <use xlink:href="#DejaVuSans-66" transform="translate(447.753906 0)"/>
      <use xlink:href="#DejaVuSans-74" transform="translate(481.208984 0)"/>
     </g>
    </g>
    <g id="line2d_27">
     <path d="M 55.965625 50.094688 
L 65.965625 50.094688 
L 75.965625 50.094688 
" style="fill: none; stroke: #59a14f; stroke-width: 2; stroke-linecap: square"/>
     <g>
      <use xlink:href="#md7feda2779" x="65.965625" y="50.094688" style="fill: #59a14f; stroke: #59a14f; stroke-linejoin: miter"/>
     </g>
    </g>
    <g id="text_16">
     <!-- median drift -->
     <g transform="translate(83.965625 53.594688) scale(0.1 -0.1)">
      <use xlink:href="#DejaVuSans-6d"/>
      <use xlink:href="#DejaVuSans-65" transform="translate(97.412109 0)"/>
      <use xlink:href="#DejaVuSans-64" transform="translate(158.935547 0)"/>
      <use xlink:href="#DejaVuSans-69" transform="translate(222.412109 0)"/>
      <use xlink:href="#DejaVuSans-61" transform="translate(250.195312 0)"/>
      <use xlink:href="#DejaVuSans-6e" transform="translate(311.474609 0)"/>
      <use xlink:href="#DejaVuSans-20" transform="translate(374.853516 0)"/>
      <use xlink:href="#DejaVuSans-64" transform="translate(406.640625 0)"/>
      <use xlink:href="#DejaVuSans-72" transform="translate(470.117188 0)"/>
      <use xlink:href="#DejaVuSans-69" transform="translate(511.230469 0)"/>
      <use xlink:href="#DejaVuSans-66" transform="translate(539.013672 0)"/>
      <use xlink:href="#DejaVuSans-74" transform="translate(572.46875 0)"/>
     </g>
    </g>
    <g id="line2d_28">
     <path d="M 55.965625 64.772812 
L 65.965625 64.772812 
L 75.965625 64.772812 
" style="fill: none; stroke-dasharray: 1.5,2.475; stroke-dashoffset: 0; stroke: #000000; stroke-width: 1.5"/>
    </g>
    <g id="text_17">
     <!-- median breakdown = 50% -->
     <g transform="translate(83.965625 68.272812) scale(0.1 -0.1)">
      <defs>
       <path id="DejaVuSans-3d" d="M 678 2906 
L 4684 2906 
L 4684 2381 
L 678 2381 
L 678 2906 
z
M 678 1631 
L 4684 1631 
L 4684 1100 
L 678 1100 
L 678 1631 
z
" transform="scale(0.015625)"/>
      </defs>
      <use xlink:href="#DejaVuSans-6d"/>
      <use xlink:href="#DejaVuSans-65" transform="translate(97.412109 0)"/>
      <use xlink:href="#DejaVuSans-64" transform="translate(158.935547 0)"/>
      <use xlink:href="#DejaVuSans-69" transform="translate(222.412109 0)"/>
      <use xlink:href="#DejaVuSans-61" transform="translate(250.195312 0)"/>
      <use xlink:href="#DejaVuSans-6e" transform="translate(311.474609 0)"/>
      <use xlink:href="#DejaVuSans-20" transform="translate(374.853516 0)"/>
      <use xlink:href="#DejaVuSans-62" transform="translate(406.640625 0)"/>
      <use xlink:href="#DejaVuSans-72" transform="translate(470.117188 0)"/>
      <use xlink:href="#DejaVuSans-65" transform="translate(508.980469 0)"/>
      <use xlink:href="#DejaVuSans-61" transform="translate(570.503906 0)"/>
      <use xlink:href="#DejaVuSans-6b" transform="translate(631.783203 0)"/>
      <use xlink:href="#DejaVuSans-64" transform="translate(689.693359 0)"/>
      <use xlink:href="#DejaVuSans-6f" transform="translate(753.169922 0)"/>
      <use xlink:href="#DejaVuSans-77" transform="translate(814.351562 0)"/>
      <use xlink:href="#DejaVuSans-6e" transform="translate(896.138672 0)"/>
      <use xlink:href="#DejaVuSans-20" transform="translate(959.517578 0)"/>
      <use xlink:href="#DejaVuSans-3d" transform="translate(991.304688 0)"/>
      <use xlink:href="#DejaVuSans-20" transform="translate(1075.09375 0)"/>
      <use xlink:href="#DejaVuSans-35" transform="translate(1106.880859 0)"/>
      <use xlink:href="#DejaVuSans-30" transform="translate(1170.503906 0)"/>
      <use xlink:href="#DejaVuSans-25" transform="translate(1234.126953 0)"/>
     </g>
    </g>
   </g>
  </g>
 </g>
 <defs>
  <clipPath id="p872e78178e">
   <rect x="46.965625" y="22.318125" width="442.33" height="255.16"/>
  </clipPath>
 </defs>
</svg>
