<?xml version="1.0" encoding="utf-8" standalone="no"?>
<!DOCTYPE svg PUBLIC "-//W3C//DTD SVG 1.1//EN"
  "http://www.w3.org/Graphics/SVG/1.1/DTD/svg11.dtd">
<svg xmlns:xlink="http://www.w3.org/1999/xlink" width="711.595405pt" height="388.8pt" viewBox="0 0 711.595405 388.8" xmlns="http://www.w3.org/2000/svg" version="1.1">
 <metadata>
  <rdf:RDF xmlns:dc="http://purl.org/dc/elements/1.1/" xmlns:cc="http://creativecommons.org/ns#" xmlns:rdf="http://www.w3.org/1999/02/22-rdf-syntax-ns#">
   <cc:Work>
    <dc:type rdf:resource="http://purl.org/dc/dcmitype/StillImage"/>
    <dc:date>2026-05-26T12:58:54.867363</dc:date>
    <dc:format>image/svg+xml</dc:format>
    <dc:creator>
     <cc:Agent>
      <dc:title>Matplotlib v3.10.8, https://matplotlib.org/</dc:title>
     </cc:Agent>
    </dc:creator>
   </cc:Work>
  </rdf:RDF>
 </metadata>
 <defs>
  <style type="text/css">*{stroke-linejoin: round; stroke-linecap: butt}</style>
 </defs>
 <g id="figure_1">
  <g id="patch_1">
   <path d="M 0 388.8 
L 711.595405 388.8 
L 711.595405 0 
L 0 0 
z
" style="fill: #ffffff"/>
  </g>
  <g id="axes_1">
   <g id="patch_2">
    <path d="M 43.513326 134.496 
C 46.700016 134.496 49.756617 132.918034 52.009947 130.109631 
C 54.263278 127.301228 55.529363 123.491682 55.529363 119.52 
C 55.529363 115.548318 54.263278 111.738772 52.009947 108.930369 
C 49.756617 106.121966 46.700016 104.544 43.513326 104.544 
C 40.326635 104.544 37.270034 106.121966 35.016704 108.930369 
C 32.763373 111.738772 31.497288 115.548318 31.497288 119.52 
C 31.497288 123.491682 32.763373 127.301228 35.016704 130.109631 
C 37.270034 132.918034 40.326635 134.496 43.513326 134.496 
z
" clip-path="url(#p7004a6c32e)" style="fill: #7aa6c2; stroke: #000000; stroke-linejoin: miter"/>
   </g>
   <g id="patch_3">
    <path d="M 43.513326 209.376 
C 46.700016 209.376 49.756617 207.798034 52.009947 204.989631 
C 54.263278 202.181228 55.529363 198.371682 55.529363 194.4 
C 55.529363 190.428318 54.263278 186.618772 52.009947 183.810369 
C 49.756617 181.001966 46.700016 179.424 43.513326 179.424 
C 40.326635 179.424 37.270034 181.001966 35.016704 183.810369 
C 32.763373 186.618772 31.497288 190.428318 31.497288 194.4 
C 31.497288 198.371682 32.763373 202.181228 35.016704 204.989631 
C 37.270034 207.798034 40.326635 209.376 43.513326 209.376 
z
" clip-path="url(#p7004a6c32e)" style="fill: #7aa6c2; stroke: #000000; stroke-linejoin: miter"/>
   </g>
   <g id="patch_4">
    <path d="M 43.513326 284.256 
C 46.700016 284.256 49.756617 282.678034 52.009947 279.869631 
C 54.263278 277.061228 55.529363 273.251682 55.529363 269.28 
C 55.529363 265.308318 54.263278 261.498772 52.009947 258.690369 
C 49.756617 255.881966 46.700016 254.304 43.513326 254.304 
C 40.326635 254.304 37.270034 255.881966 35.016704 258.690369 
C 32.763373 261.498772 31.497288 265.308318 31.497288 269.28 
C 31.497288 273.251682 32.763373 277.061228 35.016704 279.869631 
C 37.270034 282.678034 40.326635 284.256 43.513326 284.256 
z
" clip-path="url(#p7004a6c32e)" style="fill: #7aa6c2; stroke: #000000; stroke-linejoin: miter"/>
   </g>
   <g id="patch_5">
    <path d="M 163.673704 216.864 
C 168.453739 216.864 173.038641 214.497051 176.418636 210.284447 
C 179.798632 206.071842 181.69776 200.357522 181.69776 194.4 
C 181.69776 188.442478 179.798632 182.728158 176.418636 178.515553 
C 173.038641 174.302949 168.453739 171.936 163.673704 171.936 
C 158.893668 171.936 154.308767 174.302949 150.928771 178.515553 
C 147.548775 182.728158 145.649647 188.442478 145.649647 194.4 
C 145.649647 200.357522 147.548775 206.071842 150.928771 210.284447 
C 154.308767 214.497051 158.893668 216.864 163.673704 216.864 
z
" clip-path="url(#p7004a6c32e)" style="fill: #e15759; stroke: #000000; stroke-linejoin: miter"/>
   </g>
   <g id="patch_6">
    <path d="M 343.914271 134.496 
C 347.100961 134.496 350.157562 132.918034 352.410893 130.109631 
C 354.664223 127.301228 355.930309 123.491682 355.930309 119.52 
C 355.930309 115.548318 354.664223 111.738772 352.410893 108.930369 
C 350.157562 106.121966 347.100961 104.544 343.914271 104.544 
C 340.72758 104.544 337.670979 106.121966 335.417649 108.930369 
C 333.164319 111.738772 331.898233 115.548318 331.898233 119.52 
C 331.898233 123.491682 333.164319 127.301228 335.417649 130.109631 
C 337.670979 132.918034 340.72758 134.496 343.914271 134.496 
z
" clip-path="url(#p7004a6c32e)" style="fill: #7aa6c2; stroke: #000000; stroke-linejoin: miter"/>
   </g>
   <g id="patch_7">
    <path d="M 343.914271 209.376 
C 347.100961 209.376 350.157562 207.798034 352.410893 204.989631 
C 354.664223 202.181228 355.930309 198.371682 355.930309 194.4 
C 355.930309 190.428318 354.664223 186.618772 352.410893 183.810369 
C 350.157562 181.001966 347.100961 179.424 343.914271 179.424 
C 340.72758 179.424 337.670979 181.001966 335.417649 183.810369 
C 333.164319 186.618772 331.898233 190.428318 331.898233 194.4 
C 331.898233 198.371682 333.164319 202.181228 335.417649 204.989631 
C 337.670979 207.798034 340.72758 209.376 343.914271 209.376 
z
" clip-path="url(#p7004a6c32e)" style="fill: #7aa6c2; stroke: #000000; stroke-linejoin: miter"/>
   </g>
   <g id="patch_8">
    <path d="M 343.914271 284.256 
C 347.100961 284.256 350.157562 282.678034 352.410893 279.869631 
C 354.664223 277.061228 355.930309 273.251682 355.930309 269.28 
C 355.930309 265.308318 354.664223 261.498772 352.410893 258.690369 
C 350.157562 255.881966 347.100961 254.304 343.914271 254.304 
C 340.72758 254.304 337.670979 255.881966 335.417649 258.690369 
C 333.164319 261.498772 331.898233 265.308318 331.898233 269.28 
C 331.898233 273.251682 333.164319 277.061228 335.417649 279.869631 
C 337.670979 282.678034 340.72758 284.256 343.914271 284.256 
z
" clip-path="url(#p7004a6c32e)" style="fill: #7aa6c2; stroke: #000000; stroke-linejoin: miter"/>
   </g>
   <g id="patch_9">
    <path d="M 464.074649 112.032 
C 467.261339 112.032 470.31794 110.454034 472.571271 107.645631 
C 474.824601 104.837228 476.090687 101.027682 476.090687 97.056 
C 476.090687 93.084318 474.824601 89.274772 472.571271 86.466369 
C 470.31794 83.657966 467.261339 82.08 464.074649 82.08 
C 460.887958 82.08 457.831357 83.657966 455.578027 86.466369 
C 453.324697 89.274772 452.058611 93.084318 452.058611 97.056 
C 452.058611 101.027682 453.324697 104.837228 455.578027 107.645631 
C 457.831357 110.454034 460.887958 112.032 464.074649 112.032 
z
" clip-path="url(#p7004a6c32e)" style="fill: #f28e2b; stroke: #000000; stroke-linejoin: miter"/>
   </g>
   <g id="patch_10">
    <path d="M 464.074649 186.912 
C 467.261339 186.912 470.31794 185.334034 472.571271 182.525631 
C 474.824601 179.717228 476.090687 175.907682 476.090687 171.936 
C 476.090687 167.964318 474.824601 164.154772 472.571271 161.346369 
C 470.31794 158.537966 467.261339 156.96 464.074649 156.96 
C 460.887958 156.96 457.831357 158.537966 455.578027 161.346369 
C 453.324697 164.154772 452.058611 167.964318 452.058611 171.936 
C 452.058611 175.907682 453.324697 179.717228 455.578027 182.525631 
C 457.831357 185.334034 460.887958 186.912 464.074649 186.912 
z
" clip-path="url(#p7004a6c32e)" style="fill: #f28e2b; stroke: #000000; stroke-linejoin: miter"/>
   </g>
   <g id="patch_11">
    <path d="M 464.074649 261.792 
C 467.261339 261.792 470.31794 260.214034 472.571271 257.405631 
C 474.824601 254.597228 476.090687 250.787682 476.090687 246.816 
C 476.090687 242.844318 474.824601 239.034772 472.571271 236.226369 
C 470.31794 233.417966 467.261339 231.84 464.074649 231.84 
C 460.887958 231.84 457.831357 233.417966 455.578027 236.226369 
C 453.324697 239.034772 452.058611 242.844318 452.058611 246.816 
C 452.058611 250.787682 453.324697 254.597228 455.578027 257.405631 
C 457.831357 260.214034 460.887958 261.792 464.074649 261.792 
z
" clip-path="url(#p7004a6c32e)" style="fill: #f28e2b; stroke: #000000; stroke-linejoin: miter"/>
   </g>
   <g id="patch_12">
    <path d="M 464.074649 336.672 
C 467.261339 336.672 470.31794 335.094034 472.571271 332.285631 
C 474.824601 329.477228 476.090687 325.667682 476.090687 321.696 
C 476.090687 317.724318 474.824601 313.914772 472.571271 311.106369 
C 470.31794 308.297966 467.261339 306.72 464.074649 306.72 
C 460.887958 306.72 457.831357 308.297966 455.578027 311.106369 
C 453.324697 313.914772 452.058611 317.724318 452.058611 321.696 
C 452.058611 325.667682 453.324697 329.477228 455.578027 332.285631 
C 457.831357 335.094034 460.887958 336.672 464.074649 336.672 
z
" clip-path="url(#p7004a6c32e)" style="fill: #f28e2b; stroke: #000000; stroke-linejoin: miter"/>
   </g>
   <g id="patch_13">
    <path d="M 584.235027 216.864 
C 589.015063 216.864 593.599964 214.497051 596.97996 210.284447 
C 600.359955 206.071842 602.259084 200.357522 602.259084 194.4 
C 602.259084 188.442478 600.359955 182.728158 596.97996 178.515553 
C 593.599964 174.302949 589.015063 171.936 584.235027 171.936 
C 579.454991 171.936 574.87009 174.302949 571.490094 178.515553 
C 568.110099 182.728158 566.21097 188.442478 566.21097 194.4 
C 566.21097 200.357522 568.110099 206.071842 571.490094 210.284447 
C 574.87009 214.497051 579.454991 216.864 584.235027 216.864 
z
" clip-path="url(#p7004a6c32e)" style="fill: #e15759; stroke: #000000; stroke-linejoin: miter"/>
   </g>
   <g id="line2d_1">
    <path d="M 55.529363 119.52 
L 145.649647 194.4 
" clip-path="url(#p7004a6c32e)" style="fill: none; stroke: #000000; stroke-opacity: 0.6; stroke-width: 0.8; stroke-linecap: square"/>
   </g>
   <g id="line2d_2">
    <path d="M 55.529363 194.4 
L 145.649647 194.4 
" clip-path="url(#p7004a6c32e)" style="fill: none; stroke: #000000; stroke-opacity: 0.6; stroke-width: 0.8; stroke-linecap: square"/>
   </g>
   <g id="line2d_3">
    <path d="M 55.529363 269.28 
L 145.649647 194.4 
" clip-path="url(#p7004a6c32e)" style="fill: none; stroke: #000000; stroke-opacity: 0.6; stroke-width: 0.8; stroke-linecap: square"/>
   </g>
   <g id="line2d_4">
    <path d="M 355.930309 119.52 
L 452.058611 97.056 
" clip-path="url(#p7004a6c32e)" style="fill: none; stroke: #000000; stroke-opacity: 0.4; stroke-width: 0.4; stroke-linecap: square"/>
   </g>
   <g id="line2d_5">
    <path d="M 355.930309 119.52 
L 452.058611 171.936 
" clip-path="url(#p7004a6c32e)" style="fill: none; stroke: #000000; stroke-opacity: 0.4; stroke-width: 0.4; stroke-linecap: square"/>
   </g>
   <g id="line2d_6">
    <path d="M 355.930309 119.52 
L 452.058611 246.816 
" clip-path="url(#p7004a6c32e)" style="fill: none; stroke: #000000; stroke-opacity: 0.4; stroke-width: 0.4; stroke-linecap: square"/>
   </g>
   <g id="line2d_7">
    <path d="M 355.930309 119.52 
L 452.058611 321.696 
" clip-path="url(#p7004a6c32e)" style="fill: none; stroke: #000000; stroke-opacity: 0.4; stroke-width: 0.4; stroke-linecap: square"/>
   </g>
   <g id="line2d_8">
    <path d="M 355.930309 194.4 
L 452.058611 97.056 
" clip-path="url(#p7004a6c32e)" style="fill: none; stroke: #000000; stroke-opacity: 0.4; stroke-width: 0.4; stroke-linecap: square"/>
   </g>
   <g id="line2d_9">
    <path d="M 355.930309 194.4 
L 452.058611 171.936 
" clip-path="url(#p7004a6c32e)" style="fill: none; stroke: #000000; stroke-opacity: 0.4; stroke-width: 0.4; stroke-linecap: square"/>
   </g>
   <g id="line2d_10">
    <path d="M 355.930309 194.4 
L 452.058611 246.816 
" clip-path="url(#p7004a6c32e)" style="fill: none; stroke: #000000; stroke-opacity: 0.4; stroke-width: 0.4; stroke-linecap: square"/>
   </g>
   <g id="line2d_11">
    <path d="M 355.930309 194.4 
L 452.058611 321.696 
" clip-path="url(#p7004a6c32e)" style="fill: none; stroke: #000000; stroke-opacity: 0.4; stroke-width: 0.4; stroke-linecap: square"/>
   </g>
   <g id="line2d_12">
    <path d="M 355.930309 269.28 
L 452.058611 97.056 
" clip-path="url(#p7004a6c32e)" style="fill: none; stroke: #000000; stroke-opacity: 0.4; stroke-width: 0.4; stroke-linecap: square"/>
   </g>
   <g id="line2d_13">
    <path d="M 355.930309 269.28 
L 452.058611 171.936 
" clip-path="url(#p7004a6c32e)" style="fill: none; stroke: #000000; stroke-opacity: 0.4; stroke-width: 0.4; stroke-linecap: square"/>
   </g>
   <g id="line2d_14">
    <path d="M 355.930309 269.28 
L 452.058611 246.816 
" clip-path="url(#p7004a6c32e)" style="fill: none; stroke: #000000; stroke-opacity: 0.4; stroke-width: 0.4; stroke-linecap: square"/>
   </g>
   <g id="line2d_15">
    <path d="M 355.930309 269.28 
L 452.058611 321.696 
" clip-path="url(#p7004a6c32e)" style="fill: none; stroke: #000000; stroke-opacity: 0.4; stroke-width: 0.4; stroke-linecap: square"/>
   </g>
   <g id="line2d_16">
    <path d="M 476.090687 97.056 
L 566.21097 194.4 
" clip-path="url(#p7004a6c32e)" style="fill: none; stroke: #000000; stroke-opacity: 0.4; stroke-width: 0.4; stroke-linecap: square"/>
   </g>
   <g id="line2d_17">
    <path d="M 476.090687 171.936 
L 566.21097 194.4 
" clip-path="url(#p7004a6c32e)" style="fill: none; stroke: #000000; stroke-opacity: 0.4; stroke-width: 0.4; stroke-linecap: square"/>
   </g>
   <g id="line2d_18">
    <path d="M 476.090687 246.816 
L 566.21097 194.4 
" clip-path="url(#p7004a6c32e)" style="fill: none; stroke: #000000; stroke-opacity: 0.4; stroke-width: 0.4; stroke-linecap: square"/>
   </g>
   <g id="line2d_19">
    <path d="M 476.090687 321.696 
L 566.21097 194.4 
" clip-path="url(#p7004a6c32e)" style="fill: none; stroke: #000000; stroke-opacity: 0.4; stroke-width: 0.4; stroke-linecap: square"/>
   </g>
   <g id="text_1">
    <!-- Single perceptron -->
    <g transform="translate(42.970077 44.64) scale(0.12 -0.12)">
     <defs>
      <path id="DejaVuSans-Bold-53" d="M 3834 4519 
L 3834 3531 
Q 3450 3703 3084 3790 
Q 2719 3878 2394 3878 
Q 1963 3878 1756 3759 
Q 1550 3641 1550 3391 
Q 1550 3203 1689 3098 
Q 1828 2994 2194 2919 
L 2706 2816 
Q 3484 2659 3812 2340 
Q 4141 2022 4141 1434 
Q 4141 663 3683 286 
Q 3225 -91 2284 -91 
Q 1841 -91 1394 -6 
Q 947 78 500 244 
L 500 1259 
Q 947 1022 1364 901 
Q 1781 781 2169 781 
Q 2563 781 2772 912 
Q 2981 1044 2981 1288 
Q 2981 1506 2839 1625 
Q 2697 1744 2272 1838 
L 1806 1941 
Q 1106 2091 782 2419 
Q 459 2747 459 3303 
Q 459 4000 909 4375 
Q 1359 4750 2203 4750 
Q 2588 4750 2994 4692 
Q 3400 4634 3834 4519 
z
" transform="scale(0.015625)"/>
      <path id="DejaVuSans-Bold-69" d="M 538 3500 
L 1656 3500 
L 1656 0 
L 538 0 
L 538 3500 
z
M 538 4863 
L 1656 4863 
L 1656 3950 
L 538 3950 
L 538 4863 
z
" transform="scale(0.015625)"/>
      <path id="DejaVuSans-Bold-6e" d="M 4056 2131 
L 4056 0 
L 2931 0 
L 2931 347 
L 2931 1631 
Q 2931 2084 2911 2256 
Q 2891 2428 2841 2509 
Q 2775 2619 2662 2680 
Q 2550 2741 2406 2741 
Q 2056 2741 1856 2470 
Q 1656 2200 1656 1722 
L 1656 0 
L 538 0 
L 538 3500 
L 1656 3500 
L 1656 2988 
Q 1909 3294 2193 3439 
Q 2478 3584 2822 3584 
Q 3428 3584 3742 3212 
Q 4056 2841 4056 2131 
z
" transform="scale(0.015625)"/>
      <path id="DejaVuSans-Bold-67" d="M 2919 594 
Q 2688 288 2409 144 
Q 2131 0 1766 0 
Q 1125 0 706 504 
Q 288 1009 288 1791 
Q 288 2575 706 3076 
Q 1125 3578 1766 3578 
Q 2131 3578 2409 3434 
Q 2688 3291 2919 2981 
L 2919 3500 
L 4044 3500 
L 4044 353 
Q 4044 -491 3511 -936 
Q 2978 -1381 1966 -1381 
Q 1638 -1381 1331 -1331 
Q 1025 -1281 716 -1178 
L 716 -306 
Q 1009 -475 1290 -558 
Q 1572 -641 1856 -641 
Q 2406 -641 2662 -400 
Q 2919 -159 2919 353 
L 2919 594 
z
M 2181 2772 
Q 1834 2772 1640 2515 
Q 1447 2259 1447 1791 
Q 1447 1309 1634 1061 
Q 1822 813 2181 813 
Q 2531 813 2725 1069 
Q 2919 1325 2919 1791 
Q 2919 2259 2725 2515 
Q 2531 2772 2181 2772 
z
" transform="scale(0.015625)"/>
      <path id="DejaVuSans-Bold-6c" d="M 538 4863 
L 1656 4863 
L 1656 0 
L 538 0 
L 538 4863 
z
" transform="scale(0.015625)"/>
      <path id="DejaVuSans-Bold-65" d="M 4031 1759 
L 4031 1441 
L 1416 1441 
Q 1456 1047 1700 850 
Q 1944 653 2381 653 
Q 2734 653 3104 758 
Q 3475 863 3866 1075 
L 3866 213 
Q 3469 63 3072 -14 
Q 2675 -91 2278 -91 
Q 1328 -91 801 392 
Q 275 875 275 1747 
Q 275 2603 792 3093 
Q 1309 3584 2216 3584 
Q 3041 3584 3536 3087 
Q 4031 2591 4031 1759 
z
M 2881 2131 
Q 2881 2450 2695 2645 
Q 2509 2841 2209 2841 
Q 1884 2841 1681 2658 
Q 1478 2475 1428 2131 
L 2881 2131 
z
" transform="scale(0.015625)"/>
      <path id="DejaVuSans-Bold-20" transform="scale(0.015625)"/>
      <path id="DejaVuSans-Bold-70" d="M 1656 506 
L 1656 -1331 
L 538 -1331 
L 538 3500 
L 1656 3500 
L 1656 2988 
Q 1888 3294 2169 3439 
Q 2450 3584 2816 3584 
Q 3463 3584 3878 3070 
Q 4294 2556 4294 1747 
Q 4294 938 3878 423 
Q 3463 -91 2816 -91 
Q 2450 -91 2169 54 
Q 1888 200 1656 506 
z
M 2400 2772 
Q 2041 2772 1848 2508 
Q 1656 2244 1656 1747 
Q 1656 1250 1848 986 
Q 2041 722 2400 722 
Q 2759 722 2948 984 
Q 3138 1247 3138 1747 
Q 3138 2247 2948 2509 
Q 2759 2772 2400 2772 
z
" transform="scale(0.015625)"/>
      <path id="DejaVuSans-Bold-72" d="M 3138 2547 
Q 2991 2616 2845 2648 
Q 2700 2681 2553 2681 
Q 2122 2681 1889 2404 
Q 1656 2128 1656 1613 
L 1656 0 
L 538 0 
L 538 3500 
L 1656 3500 
L 1656 2925 
Q 1872 3269 2151 3426 
Q 2431 3584 2822 3584 
Q 2878 3584 2943 3579 
Q 3009 3575 3134 3559 
L 3138 2547 
z
" transform="scale(0.015625)"/>
      <path id="DejaVuSans-Bold-63" d="M 3366 3391 
L 3366 2478 
Q 3138 2634 2908 2709 
Q 2678 2784 2431 2784 
Q 1963 2784 1702 2511 
Q 1441 2238 1441 1747 
Q 1441 1256 1702 982 
Q 1963 709 2431 709 
Q 2694 709 2930 787 
Q 3166 866 3366 1019 
L 3366 103 
Q 3103 6 2833 -42 
Q 2563 -91 2291 -91 
Q 1344 -91 809 395 
Q 275 881 275 1747 
Q 275 2613 809 3098 
Q 1344 3584 2291 3584 
Q 2566 3584 2833 3536 
Q 3100 3488 3366 3391 
z
" transform="scale(0.015625)"/>
      <path id="DejaVuSans-Bold-74" d="M 1759 4494 
L 1759 3500 
L 2913 3500 
L 2913 2700 
L 1759 2700 
L 1759 1216 
Q 1759 972 1856 886 
Q 1953 800 2241 800 
L 2816 800 
L 2816 0 
L 1856 0 
Q 1194 0 917 276 
Q 641 553 641 1216 
L 641 2700 
L 84 2700 
L 84 3500 
L 641 3500 
L 641 4494 
L 1759 4494 
z
" transform="scale(0.015625)"/>
      <path id="DejaVuSans-Bold-6f" d="M 2203 2784 
Q 1831 2784 1636 2517 
Q 1441 2250 1441 1747 
Q 1441 1244 1636 976 
Q 1831 709 2203 709 
Q 2569 709 2762 976 
Q 2956 1244 2956 1747 
Q 2956 2250 2762 2517 
Q 2569 2784 2203 2784 
z
M 2203 3584 
Q 3106 3584 3614 3096 
Q 4122 2609 4122 1747 
Q 4122 884 3614 396 
Q 3106 -91 2203 -91 
Q 1297 -91 786 396 
Q 275 884 275 1747 
Q 275 2609 786 3096 
Q 1297 3584 2203 3584 
z
" transform="scale(0.015625)"/>
     </defs>
     <use xlink:href="#DejaVuSans-Bold-53"/>
     <use xlink:href="#DejaVuSans-Bold-69" transform="translate(72.021484 0)"/>
     <use xlink:href="#DejaVuSans-Bold-6e" transform="translate(106.298828 0)"/>
     <use xlink:href="#DejaVuSans-Bold-67" transform="translate(177.490234 0)"/>
     <use xlink:href="#DejaVuSans-Bold-6c" transform="translate(249.072266 0)"/>
     <use xlink:href="#DejaVuSans-Bold-65" transform="translate(283.349609 0)"/>
     <use xlink:href="#DejaVuSans-Bold-20" transform="translate(351.171875 0)"/>
     <use xlink:href="#DejaVuSans-Bold-70" transform="translate(385.986328 0)"/>
     <use xlink:href="#DejaVuSans-Bold-65" transform="translate(457.568359 0)"/>
     <use xlink:href="#DejaVuSans-Bold-72" transform="translate(525.390625 0)"/>
     <use xlink:href="#DejaVuSans-Bold-63" transform="translate(574.707031 0)"/>
     <use xlink:href="#DejaVuSans-Bold-65" transform="translate(633.984375 0)"/>
     <use xlink:href="#DejaVuSans-Bold-70" transform="translate(701.806641 0)"/>
     <use xlink:href="#DejaVuSans-Bold-74" transform="translate(773.388672 0)"/>
     <use xlink:href="#DejaVuSans-Bold-72" transform="translate(821.191406 0)"/>
     <use xlink:href="#DejaVuSans-Bold-6f" transform="translate(870.507812 0)"/>
     <use xlink:href="#DejaVuSans-Bold-6e" transform="translate(939.208984 0)"/>
    </g>
   </g>
   <g id="text_2">
    <!-- x1 -->
    <g transform="translate(7.2 122.279375) scale(0.1 -0.1)">
     <defs>
      <path id="DejaVuSans-78" d="M 3513 3500 
L 2247 1797 
L 3578 0 
L 2900 0 
L 1881 1375 
L 863 0 
L 184 0 
L 1544 1831 
L 300 3500 
L 978 3500 
L 1906 2253 
L 2834 3500 
L 3513 3500 
z
" transform="scale(0.015625)"/>
      <path id="DejaVuSans-31" d="M 794 531 
L 1825 531 
L 1825 4091 
L 703 3866 
L 703 4441 
L 1819 4666 
L 2450 4666 
L 2450 531 
L 3481 531 
L 3481 0 
L 794 0 
L 794 531 
z
" transform="scale(0.015625)"/>
     </defs>
     <use xlink:href="#DejaVuSans-78"/>
     <use xlink:href="#DejaVuSans-31" transform="translate(59.179688 0)"/>
    </g>
   </g>
   <g id="text_3">
    <!-- x2 -->
    <g transform="translate(7.2 197.159375) scale(0.1 -0.1)">
     <defs>
      <path id="DejaVuSans-32" d="M 1228 531 
L 3431 531 
L 3431 0 
L 469 0 
L 469 531 
Q 828 903 1448 1529 
Q 2069 2156 2228 2338 
Q 2531 2678 2651 2914 
Q 2772 3150 2772 3378 
Q 2772 3750 2511 3984 
Q 2250 4219 1831 4219 
Q 1534 4219 1204 4116 
Q 875 4013 500 3803 
L 500 4441 
Q 881 4594 1212 4672 
Q 1544 4750 1819 4750 
Q 2544 4750 2975 4387 
Q 3406 4025 3406 3419 
Q 3406 3131 3298 2873 
Q 3191 2616 2906 2266 
Q 2828 2175 2409 1742 
Q 1991 1309 1228 531 
z
" transform="scale(0.015625)"/>
     </defs>
     <use xlink:href="#DejaVuSans-78"/>
     <use xlink:href="#DejaVuSans-32" transform="translate(59.179688 0)"/>
    </g>
   </g>
   <g id="text_4">
    <!-- x3 -->
    <g transform="translate(7.2 272.039375) scale(0.1 -0.1)">
     <defs>
      <path id="DejaVuSans-33" d="M 2597 2516 
Q 3050 2419 3304 2112 
Q 3559 1806 3559 1356 
Q 3559 666 3084 287 
Q 2609 -91 1734 -91 
Q 1441 -91 1130 -33 
Q 819 25 488 141 
L 488 750 
Q 750 597 1062 519 
Q 1375 441 1716 441 
Q 2309 441 2620 675 
Q 2931 909 2931 1356 
Q 2931 1769 2642 2001 
Q 2353 2234 1838 2234 
L 1294 2234 
L 1294 2753 
L 1863 2753 
Q 2328 2753 2575 2939 
Q 2822 3125 2822 3475 
Q 2822 3834 2567 4026 
Q 2313 4219 1838 4219 
Q 1578 4219 1281 4162 
Q 984 4106 628 3988 
L 628 4550 
Q 988 4650 1302 4700 
Q 1616 4750 1894 4750 
Q 2613 4750 3031 4423 
Q 3450 4097 3450 3541 
Q 3450 3153 3228 2886 
Q 3006 2619 2597 2516 
z
" transform="scale(0.015625)"/>
     </defs>
     <use xlink:href="#DejaVuSans-78"/>
     <use xlink:href="#DejaVuSans-33" transform="translate(59.179688 0)"/>
    </g>
   </g>
   <g id="text_5">
    <!-- Σ -->
    <g style="fill: #ffffff" transform="translate(159.882454 197.71125) scale(0.12 -0.12)">
     <defs>
      <path id="DejaVuSans-3a3" d="M 1353 531 
L 3634 531 
L 3634 0 
L 628 0 
L 628 531 
L 2125 2481 
L 628 4134 
L 628 4666 
L 3578 4666 
L 3578 4134 
L 1353 4134 
L 2850 2494 
L 1353 531 
z
" transform="scale(0.015625)"/>
     </defs>
     <use xlink:href="#DejaVuSans-3a3"/>
    </g>
   </g>
   <g id="text_6">
    <!-- step -->
    <g transform="translate(153.939641 244.225969) scale(0.09 -0.09)">
     <defs>
      <path id="DejaVuSans-Oblique-73" d="M 3200 3397 
L 3091 2853 
Q 2863 2978 2609 3040 
Q 2356 3103 2088 3103 
Q 1634 3103 1373 2948 
Q 1113 2794 1113 2528 
Q 1113 2219 1719 2053 
Q 1766 2041 1788 2034 
L 1972 1978 
Q 2547 1819 2739 1644 
Q 2931 1469 2931 1166 
Q 2931 609 2489 259 
Q 2047 -91 1331 -91 
Q 1053 -91 747 -37 
Q 441 16 72 128 
L 184 722 
Q 500 559 806 475 
Q 1113 391 1394 391 
Q 1816 391 2080 572 
Q 2344 753 2344 1031 
Q 2344 1331 1650 1516 
L 1591 1531 
L 1394 1581 
Q 956 1697 753 1886 
Q 550 2075 550 2369 
Q 550 2928 970 3256 
Q 1391 3584 2113 3584 
Q 2397 3584 2667 3537 
Q 2938 3491 3200 3397 
z
" transform="scale(0.015625)"/>
      <path id="DejaVuSans-Oblique-74" d="M 2706 3500 
L 2619 3053 
L 1472 3053 
L 1100 1153 
Q 1081 1047 1072 975 
Q 1063 903 1063 863 
Q 1063 663 1183 572 
Q 1303 481 1569 481 
L 2150 481 
L 2053 0 
L 1503 0 
Q 991 0 739 200 
Q 488 400 488 806 
Q 488 878 497 964 
Q 506 1050 525 1153 
L 897 3053 
L 409 3053 
L 500 3500 
L 978 3500 
L 1172 4494 
L 1747 4494 
L 1556 3500 
L 2706 3500 
z
" transform="scale(0.015625)"/>
      <path id="DejaVuSans-Oblique-65" d="M 3078 2063 
Q 3088 2113 3092 2166 
Q 3097 2219 3097 2272 
Q 3097 2653 2873 2875 
Q 2650 3097 2266 3097 
Q 1838 3097 1509 2826 
Q 1181 2556 1013 2059 
L 3078 2063 
z
M 3578 1613 
L 903 1613 
Q 884 1494 878 1425 
Q 872 1356 872 1306 
Q 872 872 1139 634 
Q 1406 397 1894 397 
Q 2269 397 2603 481 
Q 2938 566 3225 728 
L 3116 159 
Q 2806 34 2476 -28 
Q 2147 -91 1806 -91 
Q 1078 -91 686 257 
Q 294 606 294 1247 
Q 294 1794 489 2264 
Q 684 2734 1063 3103 
Q 1306 3334 1642 3459 
Q 1978 3584 2356 3584 
Q 2950 3584 3301 3228 
Q 3653 2872 3653 2272 
Q 3653 2128 3634 1964 
Q 3616 1800 3578 1613 
z
" transform="scale(0.015625)"/>
      <path id="DejaVuSans-Oblique-70" d="M 3175 2156 
Q 3175 2616 2975 2859 
Q 2775 3103 2400 3103 
Q 2144 3103 1911 2972 
Q 1678 2841 1497 2591 
Q 1319 2344 1212 1994 
Q 1106 1644 1106 1300 
Q 1106 863 1306 627 
Q 1506 391 1875 391 
Q 2147 391 2380 519 
Q 2613 647 2778 891 
Q 2956 1147 3065 1494 
Q 3175 1841 3175 2156 
z
M 1394 2969 
Q 1625 3272 1939 3428 
Q 2253 3584 2638 3584 
Q 3175 3584 3472 3232 
Q 3769 2881 3769 2247 
Q 3769 1728 3584 1258 
Q 3400 788 3053 416 
Q 2822 169 2531 39 
Q 2241 -91 1919 -91 
Q 1547 -91 1294 64 
Q 1041 219 916 525 
L 556 -1331 
L -19 -1331 
L 922 3500 
L 1497 3500 
L 1394 2969 
z
" transform="scale(0.015625)"/>
     </defs>
     <use xlink:href="#DejaVuSans-Oblique-73"/>
     <use xlink:href="#DejaVuSans-Oblique-74" transform="translate(52.099609 0)"/>
     <use xlink:href="#DejaVuSans-Oblique-65" transform="translate(91.308594 0)"/>
     <use xlink:href="#DejaVuSans-Oblique-70" transform="translate(152.832031 0)"/>
    </g>
    <!-- function -->
    <g transform="translate(145.291907 254.304) scale(0.09 -0.09)">
     <defs>
      <path id="DejaVuSans-Oblique-66" d="M 3059 4863 
L 2969 4384 
L 2419 4384 
Q 2106 4384 1964 4261 
Q 1822 4138 1753 3809 
L 1691 3500 
L 2638 3500 
L 2553 3053 
L 1606 3053 
L 1013 0 
L 434 0 
L 1031 3053 
L 481 3053 
L 563 3500 
L 1113 3500 
L 1159 3744 
Q 1278 4363 1576 4613 
Q 1875 4863 2516 4863 
L 3059 4863 
z
" transform="scale(0.015625)"/>
      <path id="DejaVuSans-Oblique-75" d="M 428 1388 
L 838 3500 
L 1416 3500 
L 1006 1409 
Q 975 1256 961 1147 
Q 947 1038 947 966 
Q 947 700 1109 554 
Q 1272 409 1569 409 
Q 2031 409 2368 721 
Q 2706 1034 2809 1563 
L 3194 3500 
L 3769 3500 
L 3091 0 
L 2516 0 
L 2631 550 
Q 2388 244 2052 76 
Q 1716 -91 1338 -91 
Q 878 -91 622 161 
Q 366 413 366 863 
Q 366 956 381 1097 
Q 397 1238 428 1388 
z
" transform="scale(0.015625)"/>
      <path id="DejaVuSans-Oblique-6e" d="M 3566 2113 
L 3156 0 
L 2578 0 
L 2988 2091 
Q 3016 2238 3031 2350 
Q 3047 2463 3047 2528 
Q 3047 2791 2881 2937 
Q 2716 3084 2419 3084 
Q 1956 3084 1622 2776 
Q 1288 2469 1184 1941 
L 800 0 
L 225 0 
L 903 3500 
L 1478 3500 
L 1363 2950 
Q 1603 3253 1940 3418 
Q 2278 3584 2650 3584 
Q 3113 3584 3367 3334 
Q 3622 3084 3622 2631 
Q 3622 2519 3608 2391 
Q 3594 2263 3566 2113 
z
" transform="scale(0.015625)"/>
      <path id="DejaVuSans-Oblique-63" d="M 3431 3366 
L 3316 2797 
Q 3109 2947 2876 3022 
Q 2644 3097 2394 3097 
Q 2119 3097 1870 3000 
Q 1622 2903 1453 2725 
Q 1184 2453 1037 2087 
Q 891 1722 891 1331 
Q 891 859 1127 628 
Q 1363 397 1844 397 
Q 2081 397 2348 469 
Q 2616 541 2906 684 
L 2797 116 
Q 2547 13 2283 -39 
Q 2019 -91 1741 -91 
Q 1044 -91 669 257 
Q 294 606 294 1253 
Q 294 1797 489 2255 
Q 684 2713 1069 3078 
Q 1331 3328 1684 3456 
Q 2038 3584 2456 3584 
Q 2700 3584 2940 3529 
Q 3181 3475 3431 3366 
z
" transform="scale(0.015625)"/>
      <path id="DejaVuSans-Oblique-69" d="M 1172 4863 
L 1747 4863 
L 1606 4134 
L 1031 4134 
L 1172 4863 
z
M 909 3500 
L 1484 3500 
L 800 0 
L 225 0 
L 909 3500 
z
" transform="scale(0.015625)"/>
      <path id="DejaVuSans-Oblique-6f" d="M 1625 -91 
Q 1009 -91 651 289 
Q 294 669 294 1325 
Q 294 1706 417 2101 
Q 541 2497 738 2766 
Q 1047 3184 1428 3384 
Q 1809 3584 2291 3584 
Q 2888 3584 3255 3212 
Q 3622 2841 3622 2241 
Q 3622 1825 3500 1412 
Q 3378 1000 3181 728 
Q 2875 309 2494 109 
Q 2113 -91 1625 -91 
z
M 891 1344 
Q 891 869 1089 633 
Q 1288 397 1691 397 
Q 2269 397 2648 901 
Q 3028 1406 3028 2181 
Q 3028 2634 2825 2865 
Q 2622 3097 2228 3097 
Q 1903 3097 1650 2945 
Q 1397 2794 1197 2484 
Q 1050 2253 970 1956 
Q 891 1659 891 1344 
z
" transform="scale(0.015625)"/>
     </defs>
     <use xlink:href="#DejaVuSans-Oblique-66"/>
     <use xlink:href="#DejaVuSans-Oblique-75" transform="translate(35.205078 0)"/>
     <use xlink:href="#DejaVuSans-Oblique-6e" transform="translate(98.583984 0)"/>
     <use xlink:href="#DejaVuSans-Oblique-63" transform="translate(161.962891 0)"/>
     <use xlink:href="#DejaVuSans-Oblique-74" transform="translate(216.943359 0)"/>
     <use xlink:href="#DejaVuSans-Oblique-69" transform="translate(256.152344 0)"/>
     <use xlink:href="#DejaVuSans-Oblique-6f" transform="translate(283.935547 0)"/>
     <use xlink:href="#DejaVuSans-Oblique-6e" transform="translate(345.117188 0)"/>
    </g>
   </g>
   <g id="patch_14">
    <path d="M 183.701045 194.4 
Q 208.735996 194.4 232.652914 194.4 
" style="fill: none; stroke: #000000; stroke-linecap: round"/>
    <path d="M 228.652914 192.4 
L 232.652914 194.4 
L 228.652914 196.4 
" style="fill: none; stroke: #000000; stroke-linecap: round"/>
   </g>
   <g id="text_7">
    <!-- ŷ -->
    <g transform="translate(247.785968 197.655312) scale(0.11 -0.11)">
     <defs>
      <path id="DejaVuSans-177" d="M 1665 5119 
L 2127 5119 
L 2893 3944 
L 2459 3944 
L 1896 4709 
L 1334 3944 
L 899 3944 
L 1665 5119 
z
M 2059 -325 
Q 1816 -950 1584 -1140 
Q 1353 -1331 966 -1331 
L 506 -1331 
L 506 -850 
L 844 -850 
Q 1081 -850 1212 -737 
Q 1344 -625 1503 -206 
L 1606 56 
L 191 3500 
L 800 3500 
L 1894 763 
L 2988 3500 
L 3597 3500 
L 2059 -325 
z
" transform="scale(0.015625)"/>
     </defs>
     <use xlink:href="#DejaVuSans-177"/>
    </g>
   </g>
   <g id="text_8">
    <!-- Multilayer perceptron (1 hidden layer) -->
    <g transform="translate(334.397774 44.64) scale(0.12 -0.12)">
     <defs>
      <path id="DejaVuSans-Bold-4d" d="M 588 4666 
L 2119 4666 
L 3181 2169 
L 4250 4666 
L 5778 4666 
L 5778 0 
L 4641 0 
L 4641 3413 
L 3566 897 
L 2803 897 
L 1728 3413 
L 1728 0 
L 588 0 
L 588 4666 
z
" transform="scale(0.015625)"/>
      <path id="DejaVuSans-Bold-75" d="M 500 1363 
L 500 3500 
L 1625 3500 
L 1625 3150 
Q 1625 2866 1622 2436 
Q 1619 2006 1619 1863 
Q 1619 1441 1641 1255 
Q 1663 1069 1716 984 
Q 1784 875 1895 815 
Q 2006 756 2150 756 
Q 2500 756 2700 1025 
Q 2900 1294 2900 1772 
L 2900 3500 
L 4019 3500 
L 4019 0 
L 2900 0 
L 2900 506 
Q 2647 200 2364 54 
Q 2081 -91 1741 -91 
Q 1134 -91 817 281 
Q 500 653 500 1363 
z
" transform="scale(0.015625)"/>
      <path id="DejaVuSans-Bold-61" d="M 2106 1575 
Q 1756 1575 1579 1456 
Q 1403 1338 1403 1106 
Q 1403 894 1545 773 
Q 1688 653 1941 653 
Q 2256 653 2472 879 
Q 2688 1106 2688 1447 
L 2688 1575 
L 2106 1575 
z
M 3816 1997 
L 3816 0 
L 2688 0 
L 2688 519 
Q 2463 200 2181 54 
Q 1900 -91 1497 -91 
Q 953 -91 614 226 
Q 275 544 275 1050 
Q 275 1666 698 1953 
Q 1122 2241 2028 2241 
L 2688 2241 
L 2688 2328 
Q 2688 2594 2478 2717 
Q 2269 2841 1825 2841 
Q 1466 2841 1156 2769 
Q 847 2697 581 2553 
L 581 3406 
Q 941 3494 1303 3539 
Q 1666 3584 2028 3584 
Q 2975 3584 3395 3211 
Q 3816 2838 3816 1997 
z
" transform="scale(0.015625)"/>
      <path id="DejaVuSans-Bold-79" d="M 78 3500 
L 1197 3500 
L 2138 1125 
L 2938 3500 
L 4056 3500 
L 2584 -331 
Q 2363 -916 2067 -1148 
Q 1772 -1381 1288 -1381 
L 641 -1381 
L 641 -647 
L 991 -647 
Q 1275 -647 1404 -556 
Q 1534 -466 1606 -231 
L 1638 -134 
L 78 3500 
z
" transform="scale(0.015625)"/>
      <path id="DejaVuSans-Bold-28" d="M 2413 -844 
L 1484 -844 
Q 1006 -72 778 623 
Q 550 1319 550 2003 
Q 550 2688 779 3389 
Q 1009 4091 1484 4856 
L 2413 4856 
Q 2013 4116 1813 3408 
Q 1613 2700 1613 2009 
Q 1613 1319 1811 609 
Q 2009 -100 2413 -844 
z
" transform="scale(0.015625)"/>
      <path id="DejaVuSans-Bold-31" d="M 750 831 
L 1813 831 
L 1813 3847 
L 722 3622 
L 722 4441 
L 1806 4666 
L 2950 4666 
L 2950 831 
L 4013 831 
L 4013 0 
L 750 0 
L 750 831 
z
" transform="scale(0.015625)"/>
      <path id="DejaVuSans-Bold-68" d="M 4056 2131 
L 4056 0 
L 2931 0 
L 2931 347 
L 2931 1625 
Q 2931 2084 2911 2256 
Q 2891 2428 2841 2509 
Q 2775 2619 2662 2680 
Q 2550 2741 2406 2741 
Q 2056 2741 1856 2470 
Q 1656 2200 1656 1722 
L 1656 0 
L 538 0 
L 538 4863 
L 1656 4863 
L 1656 2988 
Q 1909 3294 2193 3439 
Q 2478 3584 2822 3584 
Q 3428 3584 3742 3212 
Q 4056 2841 4056 2131 
z
" transform="scale(0.015625)"/>
      <path id="DejaVuSans-Bold-64" d="M 2919 2988 
L 2919 4863 
L 4044 4863 
L 4044 0 
L 2919 0 
L 2919 506 
Q 2688 197 2409 53 
Q 2131 -91 1766 -91 
Q 1119 -91 703 423 
Q 288 938 288 1747 
Q 288 2556 703 3070 
Q 1119 3584 1766 3584 
Q 2128 3584 2408 3439 
Q 2688 3294 2919 2988 
z
M 2181 722 
Q 2541 722 2730 984 
Q 2919 1247 2919 1747 
Q 2919 2247 2730 2509 
Q 2541 2772 2181 2772 
Q 1825 2772 1636 2509 
Q 1447 2247 1447 1747 
Q 1447 1247 1636 984 
Q 1825 722 2181 722 
z
" transform="scale(0.015625)"/>
      <path id="DejaVuSans-Bold-29" d="M 513 -844 
Q 913 -100 1113 609 
Q 1313 1319 1313 2009 
Q 1313 2700 1113 3408 
Q 913 4116 513 4856 
L 1441 4856 
Q 1916 4091 2145 3389 
Q 2375 2688 2375 2003 
Q 2375 1319 2147 623 
Q 1919 -72 1441 -844 
L 513 -844 
z
" transform="scale(0.015625)"/>
     </defs>
     <use xlink:href="#DejaVuSans-Bold-4d"/>
     <use xlink:href="#DejaVuSans-Bold-75" transform="translate(99.511719 0)"/>
     <use xlink:href="#DejaVuSans-Bold-6c" transform="translate(170.703125 0)"/>
     <use xlink:href="#DejaVuSans-Bold-74" transform="translate(204.980469 0)"/>
     <use xlink:href="#DejaVuSans-Bold-69" transform="translate(252.783203 0)"/>
     <use xlink:href="#DejaVuSans-Bold-6c" transform="translate(287.060547 0)"/>
     <use xlink:href="#DejaVuSans-Bold-61" transform="translate(321.337891 0)"/>
     <use xlink:href="#DejaVuSans-Bold-79" transform="translate(385.693359 0)"/>
     <use xlink:href="#DejaVuSans-Bold-65" transform="translate(450.878906 0)"/>
     <use xlink:href="#DejaVuSans-Bold-72" transform="translate(518.701172 0)"/>
     <use xlink:href="#DejaVuSans-Bold-20" transform="translate(568.017578 0)"/>
     <use xlink:href="#DejaVuSans-Bold-70" transform="translate(602.832031 0)"/>
     <use xlink:href="#DejaVuSans-Bold-65" transform="translate(674.414062 0)"/>
     <use xlink:href="#DejaVuSans-Bold-72" transform="translate(742.236328 0)"/>
     <use xlink:href="#DejaVuSans-Bold-63" transform="translate(791.552734 0)"/>
     <use xlink:href="#DejaVuSans-Bold-65" transform="translate(850.830078 0)"/>
     <use xlink:href="#DejaVuSans-Bold-70" transform="translate(918.652344 0)"/>
     <use xlink:href="#DejaVuSans-Bold-74" transform="translate(990.234375 0)"/>
     <use xlink:href="#DejaVuSans-Bold-72" transform="translate(1038.037109 0)"/>
     <use xlink:href="#DejaVuSans-Bold-6f" transform="translate(1087.353516 0)"/>
     <use xlink:href="#DejaVuSans-Bold-6e" transform="translate(1156.054688 0)"/>
     <use xlink:href="#DejaVuSans-Bold-20" transform="translate(1227.246094 0)"/>
     <use xlink:href="#DejaVuSans-Bold-28" transform="translate(1262.060547 0)"/>
     <use xlink:href="#DejaVuSans-Bold-31" transform="translate(1307.763672 0)"/>
     <use xlink:href="#DejaVuSans-Bold-20" transform="translate(1377.34375 0)"/>
     <use xlink:href="#DejaVuSans-Bold-68" transform="translate(1412.158203 0)"/>
     <use xlink:href="#DejaVuSans-Bold-69" transform="translate(1483.349609 0)"/>
     <use xlink:href="#DejaVuSans-Bold-64" transform="translate(1517.626953 0)"/>
     <use xlink:href="#DejaVuSans-Bold-64" transform="translate(1589.208984 0)"/>
     <use xlink:href="#DejaVuSans-Bold-65" transform="translate(1660.791016 0)"/>
     <use xlink:href="#DejaVuSans-Bold-6e" transform="translate(1728.613281 0)"/>
     <use xlink:href="#DejaVuSans-Bold-20" transform="translate(1799.804688 0)"/>
     <use xlink:href="#DejaVuSans-Bold-6c" transform="translate(1834.619141 0)"/>
     <use xlink:href="#DejaVuSans-Bold-61" transform="translate(1868.896484 0)"/>
     <use xlink:href="#DejaVuSans-Bold-79" transform="translate(1933.251953 0)"/>
     <use xlink:href="#DejaVuSans-Bold-65" transform="translate(1998.4375 0)"/>
     <use xlink:href="#DejaVuSans-Bold-72" transform="translate(2066.259766 0)"/>
     <use xlink:href="#DejaVuSans-Bold-29" transform="translate(2115.576172 0)"/>
    </g>
   </g>
   <g id="text_9">
    <!-- non-linear -->
    <g transform="translate(441.265274 356.545969) scale(0.09 -0.09)">
     <defs>
      <path id="DejaVuSans-Oblique-2d" d="M 391 2009 
L 2075 2009 
L 1978 1497 
L 288 1497 
L 391 2009 
z
" transform="scale(0.015625)"/>
      <path id="DejaVuSans-Oblique-6c" d="M 1172 4863 
L 1747 4863 
L 800 0 
L 225 0 
L 1172 4863 
z
" transform="scale(0.015625)"/>
      <path id="DejaVuSans-Oblique-61" d="M 3438 1997 
L 3047 0 
L 2472 0 
L 2578 531 
Q 2325 219 2001 64 
Q 1678 -91 1281 -91 
Q 834 -91 548 182 
Q 263 456 263 884 
Q 263 1497 752 1853 
Q 1241 2209 2100 2209 
L 2900 2209 
L 2931 2363 
Q 2938 2388 2941 2417 
Q 2944 2447 2944 2509 
Q 2944 2788 2717 2942 
Q 2491 3097 2081 3097 
Q 1800 3097 1504 3025 
Q 1209 2953 897 2809 
L 997 3341 
Q 1322 3463 1633 3523 
Q 1944 3584 2234 3584 
Q 2853 3584 3176 3315 
Q 3500 3047 3500 2534 
Q 3500 2431 3484 2292 
Q 3469 2153 3438 1997 
z
M 2816 1759 
L 2241 1759 
Q 1534 1759 1195 1570 
Q 856 1381 856 984 
Q 856 709 1029 553 
Q 1203 397 1509 397 
Q 1978 397 2328 733 
Q 2678 1069 2791 1631 
L 2816 1759 
z
" transform="scale(0.015625)"/>
      <path id="DejaVuSans-Oblique-72" d="M 2853 2969 
Q 2766 3016 2653 3041 
Q 2541 3066 2413 3066 
Q 1953 3066 1609 2717 
Q 1266 2369 1153 1784 
L 800 0 
L 225 0 
L 909 3500 
L 1484 3500 
L 1375 2956 
Q 1603 3259 1920 3421 
Q 2238 3584 2597 3584 
Q 2691 3584 2781 3573 
Q 2872 3563 2963 3538 
L 2853 2969 
z
" transform="scale(0.015625)"/>
     </defs>
     <use xlink:href="#DejaVuSans-Oblique-6e"/>
     <use xlink:href="#DejaVuSans-Oblique-6f" transform="translate(63.378906 0)"/>
     <use xlink:href="#DejaVuSans-Oblique-6e" transform="translate(124.560547 0)"/>
     <use xlink:href="#DejaVuSans-Oblique-2d" transform="translate(187.939453 0)"/>
     <use xlink:href="#DejaVuSans-Oblique-6c" transform="translate(224.023438 0)"/>
     <use xlink:href="#DejaVuSans-Oblique-69" transform="translate(251.806641 0)"/>
     <use xlink:href="#DejaVuSans-Oblique-6e" transform="translate(279.589844 0)"/>
     <use xlink:href="#DejaVuSans-Oblique-65" transform="translate(342.96875 0)"/>
     <use xlink:href="#DejaVuSans-Oblique-61" transform="translate(404.492188 0)"/>
     <use xlink:href="#DejaVuSans-Oblique-72" transform="translate(465.771484 0)"/>
    </g>
    <!-- activation -->
    <g transform="translate(441.787696 366.624) scale(0.09 -0.09)">
     <defs>
      <path id="DejaVuSans-Oblique-76" d="M 459 3500 
L 1069 3500 
L 1581 525 
L 3256 3500 
L 3866 3500 
L 1875 0 
L 1100 0 
L 459 3500 
z
" transform="scale(0.015625)"/>
     </defs>
     <use xlink:href="#DejaVuSans-Oblique-61"/>
     <use xlink:href="#DejaVuSans-Oblique-63" transform="translate(61.279297 0)"/>
     <use xlink:href="#DejaVuSans-Oblique-74" transform="translate(116.259766 0)"/>
     <use xlink:href="#DejaVuSans-Oblique-69" transform="translate(155.46875 0)"/>
     <use xlink:href="#DejaVuSans-Oblique-76" transform="translate(183.251953 0)"/>
     <use xlink:href="#DejaVuSans-Oblique-61" transform="translate(242.431641 0)"/>
     <use xlink:href="#DejaVuSans-Oblique-74" transform="translate(303.710938 0)"/>
     <use xlink:href="#DejaVuSans-Oblique-69" transform="translate(342.919922 0)"/>
     <use xlink:href="#DejaVuSans-Oblique-6f" transform="translate(370.703125 0)"/>
     <use xlink:href="#DejaVuSans-Oblique-6e" transform="translate(431.884766 0)"/>
    </g>
   </g>
   <g id="patch_15">
    <path d="M 604.262368 194.4 
Q 629.29732 194.4 653.214237 194.4 
" style="fill: none; stroke: #000000; stroke-linecap: round"/>
    <path d="M 649.214237 192.4 
L 653.214237 194.4 
L 649.214237 196.4 
" style="fill: none; stroke: #000000; stroke-linecap: round"/>
   </g>
   <g id="text_10">
    <!-- ŷ -->
    <g transform="translate(668.347292 197.655312) scale(0.11 -0.11)">
     <use xlink:href="#DejaVuSans-177"/>
    </g>
   </g>
  </g>
 </g>
 <defs>
  <clipPath id="p7004a6c32e">
   <rect x="13.473231" y="7.2" width="690.922174" height="374.4"/>
  </clipPath>
 </defs>
</svg>
