<?xml version="1.0" encoding="utf-8" standalone="no"?>
<!DOCTYPE svg PUBLIC "-//W3C//DTD SVG 1.1//EN"
  "http://www.w3.org/Graphics/SVG/1.1/DTD/svg11.dtd">
<svg xmlns:xlink="http://www.w3.org/1999/xlink" width="604.620625pt" height="315.034375pt" viewBox="0 0 604.620625 315.034375" xmlns="http://www.w3.org/2000/svg" version="1.1">
 <metadata>
  <rdf:RDF xmlns:dc="http://purl.org/dc/elements/1.1/" xmlns:cc="http://creativecommons.org/ns#" xmlns:rdf="http://www.w3.org/1999/02/22-rdf-syntax-ns#">
   <cc:Work>
    <dc:type rdf:resource="http://purl.org/dc/dcmitype/StillImage"/>
    <dc:date>2026-05-26T11:29:37.333363</dc:date>
    <dc:format>image/svg+xml</dc:format>
    <dc:creator>
     <cc:Agent>
      <dc:title>Matplotlib v3.10.8, https://matplotlib.org/</dc:title>
     </cc:Agent>
    </dc:creator>
   </cc:Work>
  </rdf:RDF>
 </metadata>
 <defs>
  <style type="text/css">*{stroke-linejoin: round; stroke-linecap: butt}</style>
 </defs>
 <g id="figure_1">
  <g id="patch_1">
   <path d="M 0 315.034375 
L 604.620625 315.034375 
L 604.620625 0 
L 0 0 
z
" style="fill: #ffffff"/>
  </g>
  <g id="axes_1">
   <g id="patch_2">
    <path d="M 59.690625 277.478125 
L 597.420625 277.478125 
L 597.420625 22.318125 
L 59.690625 22.318125 
z
" style="fill: #ffffff"/>
   </g>
   <g id="patch_3">
    <path d="M 84.132898 277.478125 
L 90.243466 277.478125 
L 90.243466 196.901907 
L 84.132898 196.901907 
z
" clip-path="url(#p9953cfa9af)" style="fill: #7aa6c2; stroke: #ffffff; stroke-linejoin: miter"/>
   </g>
   <g id="patch_4">
    <path d="M 90.243466 277.478125 
L 96.354034 277.478125 
L 96.354034 95.167613 
L 90.243466 95.167613 
z
" clip-path="url(#p9953cfa9af)" style="fill: #7aa6c2; stroke: #ffffff; stroke-linejoin: miter"/>
   </g>
   <g id="patch_5">
    <path d="M 96.354034 277.478125 
L 102.464602 277.478125 
L 102.464602 51.025033 
L 96.354034 51.025033 
z
" clip-path="url(#p9953cfa9af)" style="fill: #7aa6c2; stroke: #ffffff; stroke-linejoin: miter"/>
   </g>
   <g id="patch_6">
    <path d="M 102.464602 277.478125 
L 108.57517 277.478125 
L 108.57517 34.468601 
L 102.464602 34.468601 
z
" clip-path="url(#p9953cfa9af)" style="fill: #7aa6c2; stroke: #ffffff; stroke-linejoin: miter"/>
   </g>
   <g id="patch_7">
    <path d="M 108.57517 277.478125 
L 114.685739 277.478125 
L 114.685739 46.968945 
L 108.57517 46.968945 
z
" clip-path="url(#p9953cfa9af)" style="fill: #7aa6c2; stroke: #ffffff; stroke-linejoin: miter"/>
   </g>
   <g id="patch_8">
    <path d="M 114.685739 277.478125 
L 120.796307 277.478125 
L 120.796307 60.726438 
L 114.685739 60.726438 
z
" clip-path="url(#p9953cfa9af)" style="fill: #7aa6c2; stroke: #ffffff; stroke-linejoin: miter"/>
   </g>
   <g id="patch_9">
    <path d="M 120.796307 277.478125 
L 126.906875 277.478125 
L 126.906875 85.632246 
L 120.796307 85.632246 
z
" clip-path="url(#p9953cfa9af)" style="fill: #7aa6c2; stroke: #ffffff; stroke-linejoin: miter"/>
   </g>
   <g id="patch_10">
    <path d="M 126.906875 277.478125 
L 133.017443 277.478125 
L 133.017443 108.664188 
L 126.906875 108.664188 
z
" clip-path="url(#p9953cfa9af)" style="fill: #7aa6c2; stroke: #ffffff; stroke-linejoin: miter"/>
   </g>
   <g id="patch_11">
    <path d="M 133.017443 277.478125 
L 139.128011 277.478125 
L 139.128011 138.337679 
L 133.017443 138.337679 
z
" clip-path="url(#p9953cfa9af)" style="fill: #7aa6c2; stroke: #ffffff; stroke-linejoin: miter"/>
   </g>
   <g id="patch_12">
    <path d="M 139.128011 277.478125 
L 145.23858 277.478125 
L 145.23858 156.222421 
L 139.128011 156.222421 
z
" clip-path="url(#p9953cfa9af)" style="fill: #7aa6c2; stroke: #ffffff; stroke-linejoin: miter"/>
   </g>
   <g id="patch_13">
    <path d="M 145.23858 277.478125 
L 151.349148 277.478125 
L 151.349148 177.760015 
L 145.23858 177.760015 
z
" clip-path="url(#p9953cfa9af)" style="fill: #7aa6c2; stroke: #ffffff; stroke-linejoin: miter"/>
   </g>
   <g id="patch_14">
    <path d="M 151.349148 277.478125 
L 157.459716 277.478125 
L 157.459716 196.380071 
L 151.349148 196.380071 
z
" clip-path="url(#p9953cfa9af)" style="fill: #7aa6c2; stroke: #ffffff; stroke-linejoin: miter"/>
   </g>
   <g id="patch_15">
    <path d="M 157.459716 277.478125 
L 163.570284 277.478125 
L 163.570284 211.750512 
L 157.459716 211.750512 
z
" clip-path="url(#p9953cfa9af)" style="fill: #7aa6c2; stroke: #ffffff; stroke-linejoin: miter"/>
   </g>
   <g id="patch_16">
    <path d="M 163.570284 277.478125 
L 169.680852 277.478125 
L 169.680852 222.780227 
L 163.570284 222.780227 
z
" clip-path="url(#p9953cfa9af)" style="fill: #7aa6c2; stroke: #ffffff; stroke-linejoin: miter"/>
   </g>
   <g id="patch_17">
    <path d="M 169.680852 277.478125 
L 175.79142 277.478125 
L 175.79142 234.568976 
L 169.680852 234.568976 
z
" clip-path="url(#p9953cfa9af)" style="fill: #7aa6c2; stroke: #ffffff; stroke-linejoin: miter"/>
   </g>
   <g id="patch_18">
    <path d="M 175.79142 277.478125 
L 181.901989 277.478125 
L 181.901989 240.000814 
L 175.79142 240.000814 
z
" clip-path="url(#p9953cfa9af)" style="fill: #7aa6c2; stroke: #ffffff; stroke-linejoin: miter"/>
   </g>
   <g id="patch_19">
    <path d="M 181.901989 277.478125 
L 188.012557 277.478125 
L 188.012557 248.539948 
L 181.901989 248.539948 
z
" clip-path="url(#p9953cfa9af)" style="fill: #7aa6c2; stroke: #ffffff; stroke-linejoin: miter"/>
   </g>
   <g id="patch_20">
    <path d="M 188.012557 277.478125 
L 194.123125 277.478125 
L 194.123125 253.687149 
L 188.012557 253.687149 
z
" clip-path="url(#p9953cfa9af)" style="fill: #7aa6c2; stroke: #ffffff; stroke-linejoin: miter"/>
   </g>
   <g id="patch_21">
    <path d="M 194.123125 277.478125 
L 200.233693 277.478125 
L 200.233693 258.66831 
L 194.123125 258.66831 
z
" clip-path="url(#p9953cfa9af)" style="fill: #7aa6c2; stroke: #ffffff; stroke-linejoin: miter"/>
   </g>
   <g id="patch_22">
    <path d="M 200.233693 277.478125 
L 206.344261 277.478125 
L 206.344261 262.155123 
L 200.233693 262.155123 
z
" clip-path="url(#p9953cfa9af)" style="fill: #7aa6c2; stroke: #ffffff; stroke-linejoin: miter"/>
   </g>
   <g id="patch_23">
    <path d="M 206.344261 277.478125 
L 212.45483 277.478125 
L 212.45483 264.242467 
L 206.344261 264.242467 
z
" clip-path="url(#p9953cfa9af)" style="fill: #7aa6c2; stroke: #ffffff; stroke-linejoin: miter"/>
   </g>
   <g id="patch_24">
    <path d="M 212.45483 277.478125 
L 218.565398 277.478125 
L 218.565398 267.634401 
L 212.45483 267.634401 
z
" clip-path="url(#p9953cfa9af)" style="fill: #7aa6c2; stroke: #ffffff; stroke-linejoin: miter"/>
   </g>
   <g id="patch_25">
    <path d="M 218.565398 277.478125 
L 224.675966 277.478125 
L 224.675966 268.915271 
L 218.565398 268.915271 
z
" clip-path="url(#p9953cfa9af)" style="fill: #7aa6c2; stroke: #ffffff; stroke-linejoin: miter"/>
   </g>
   <g id="patch_26">
    <path d="M 224.675966 277.478125 
L 230.786534 277.478125 
L 230.786534 270.148702 
L 224.675966 270.148702 
z
" clip-path="url(#p9953cfa9af)" style="fill: #7aa6c2; stroke: #ffffff; stroke-linejoin: miter"/>
   </g>
   <g id="patch_27">
    <path d="M 230.786534 277.478125 
L 236.897102 277.478125 
L 236.897102 271.287253 
L 230.786534 271.287253 
z
" clip-path="url(#p9953cfa9af)" style="fill: #7aa6c2; stroke: #ffffff; stroke-linejoin: miter"/>
   </g>
   <g id="patch_28">
    <path d="M 236.897102 277.478125 
L 243.00767 277.478125 
L 243.00767 271.856528 
L 236.897102 271.856528 
z
" clip-path="url(#p9953cfa9af)" style="fill: #7aa6c2; stroke: #ffffff; stroke-linejoin: miter"/>
   </g>
   <g id="patch_29">
    <path d="M 243.00767 277.478125 
L 249.118239 277.478125 
L 249.118239 272.829041 
L 243.00767 272.829041 
z
" clip-path="url(#p9953cfa9af)" style="fill: #7aa6c2; stroke: #ffffff; stroke-linejoin: miter"/>
   </g>
   <g id="patch_30">
    <path d="M 249.118239 277.478125 
L 255.228807 277.478125 
L 255.228807 274.015032 
L 249.118239 274.015032 
z
" clip-path="url(#p9953cfa9af)" style="fill: #7aa6c2; stroke: #ffffff; stroke-linejoin: miter"/>
   </g>
   <g id="patch_31">
    <path d="M 255.228807 277.478125 
L 261.339375 277.478125 
L 261.339375 274.27595 
L 255.228807 274.27595 
z
" clip-path="url(#p9953cfa9af)" style="fill: #7aa6c2; stroke: #ffffff; stroke-linejoin: miter"/>
   </g>
   <g id="patch_32">
    <path d="M 261.339375 277.478125 
L 267.449943 277.478125 
L 267.449943 274.347109 
L 261.339375 274.347109 
z
" clip-path="url(#p9953cfa9af)" style="fill: #7aa6c2; stroke: #ffffff; stroke-linejoin: miter"/>
   </g>
   <g id="patch_33">
    <path d="M 267.449943 277.478125 
L 273.560511 277.478125 
L 273.560511 274.323389 
L 267.449943 274.323389 
z
" clip-path="url(#p9953cfa9af)" style="fill: #7aa6c2; stroke: #ffffff; stroke-linejoin: miter"/>
   </g>
   <g id="patch_34">
    <path d="M 273.560511 277.478125 
L 279.67108 277.478125 
L 279.67108 275.343341 
L 273.560511 275.343341 
z
" clip-path="url(#p9953cfa9af)" style="fill: #7aa6c2; stroke: #ffffff; stroke-linejoin: miter"/>
   </g>
   <g id="patch_35">
    <path d="M 279.67108 277.478125 
L 285.781648 277.478125 
L 285.781648 275.50938 
L 279.67108 275.50938 
z
" clip-path="url(#p9953cfa9af)" style="fill: #7aa6c2; stroke: #ffffff; stroke-linejoin: miter"/>
   </g>
   <g id="patch_36">
    <path d="M 285.781648 277.478125 
L 291.892216 277.478125 
L 291.892216 275.319622 
L 285.781648 275.319622 
z
" clip-path="url(#p9953cfa9af)" style="fill: #7aa6c2; stroke: #ffffff; stroke-linejoin: miter"/>
   </g>
   <g id="patch_37">
    <path d="M 291.892216 277.478125 
L 298.002784 277.478125 
L 298.002784 275.675419 
L 291.892216 275.675419 
z
" clip-path="url(#p9953cfa9af)" style="fill: #7aa6c2; stroke: #ffffff; stroke-linejoin: miter"/>
   </g>
   <g id="patch_38">
    <path d="M 298.002784 277.478125 
L 304.113352 277.478125 
L 304.113352 275.746578 
L 298.002784 275.746578 
z
" clip-path="url(#p9953cfa9af)" style="fill: #7aa6c2; stroke: #ffffff; stroke-linejoin: miter"/>
   </g>
   <g id="patch_39">
    <path d="M 304.113352 277.478125 
L 310.22392 277.478125 
L 310.22392 275.936337 
L 304.113352 275.936337 
z
" clip-path="url(#p9953cfa9af)" style="fill: #7aa6c2; stroke: #ffffff; stroke-linejoin: miter"/>
   </g>
   <g id="patch_40">
    <path d="M 310.22392 277.478125 
L 316.334489 277.478125 
L 316.334489 276.173535 
L 310.22392 276.173535 
z
" clip-path="url(#p9953cfa9af)" style="fill: #7aa6c2; stroke: #ffffff; stroke-linejoin: miter"/>
   </g>
   <g id="patch_41">
    <path d="M 316.334489 277.478125 
L 322.445057 277.478125 
L 322.445057 276.339574 
L 316.334489 276.339574 
z
" clip-path="url(#p9953cfa9af)" style="fill: #7aa6c2; stroke: #ffffff; stroke-linejoin: miter"/>
   </g>
   <g id="patch_42">
    <path d="M 322.445057 277.478125 
L 328.555625 277.478125 
L 328.555625 276.363294 
L 322.445057 276.363294 
z
" clip-path="url(#p9953cfa9af)" style="fill: #7aa6c2; stroke: #ffffff; stroke-linejoin: miter"/>
   </g>
   <g id="patch_43">
    <path d="M 328.555625 277.478125 
L 334.666193 277.478125 
L 334.666193 276.315854 
L 328.555625 276.315854 
z
" clip-path="url(#p9953cfa9af)" style="fill: #7aa6c2; stroke: #ffffff; stroke-linejoin: miter"/>
   </g>
   <g id="patch_44">
    <path d="M 334.666193 277.478125 
L 340.776761 277.478125 
L 340.776761 276.932569 
L 334.666193 276.932569 
z
" clip-path="url(#p9953cfa9af)" style="fill: #7aa6c2; stroke: #ffffff; stroke-linejoin: miter"/>
   </g>
   <g id="patch_45">
    <path d="M 340.776761 277.478125 
L 346.88733 277.478125 
L 346.88733 276.220975 
L 340.776761 276.220975 
z
" clip-path="url(#p9953cfa9af)" style="fill: #7aa6c2; stroke: #ffffff; stroke-linejoin: miter"/>
   </g>
   <g id="patch_46">
    <path d="M 346.88733 277.478125 
L 352.997898 277.478125 
L 352.997898 276.742811 
L 346.88733 276.742811 
z
" clip-path="url(#p9953cfa9af)" style="fill: #7aa6c2; stroke: #ffffff; stroke-linejoin: miter"/>
   </g>
   <g id="patch_47">
    <path d="M 352.997898 277.478125 
L 359.108466 277.478125 
L 359.108466 276.553052 
L 352.997898 276.553052 
z
" clip-path="url(#p9953cfa9af)" style="fill: #7aa6c2; stroke: #ffffff; stroke-linejoin: miter"/>
   </g>
   <g id="patch_48">
    <path d="M 359.108466 277.478125 
L 365.219034 277.478125 
L 365.219034 276.647931 
L 359.108466 276.647931 
z
" clip-path="url(#p9953cfa9af)" style="fill: #7aa6c2; stroke: #ffffff; stroke-linejoin: miter"/>
   </g>
   <g id="patch_49">
    <path d="M 365.219034 277.478125 
L 371.329602 277.478125 
L 371.329602 276.81397 
L 365.219034 276.81397 
z
" clip-path="url(#p9953cfa9af)" style="fill: #7aa6c2; stroke: #ffffff; stroke-linejoin: miter"/>
   </g>
   <g id="patch_50">
    <path d="M 371.329602 277.478125 
L 377.44017 277.478125 
L 377.44017 276.624212 
L 371.329602 276.624212 
z
" clip-path="url(#p9953cfa9af)" style="fill: #7aa6c2; stroke: #ffffff; stroke-linejoin: miter"/>
   </g>
   <g id="patch_51">
    <path d="M 377.44017 277.478125 
L 383.550739 277.478125 
L 383.550739 276.956289 
L 377.44017 276.956289 
z
" clip-path="url(#p9953cfa9af)" style="fill: #7aa6c2; stroke: #ffffff; stroke-linejoin: miter"/>
   </g>
   <g id="patch_52">
    <path d="M 383.550739 277.478125 
L 389.661307 277.478125 
L 389.661307 276.956289 
L 383.550739 276.956289 
z
" clip-path="url(#p9953cfa9af)" style="fill: #7aa6c2; stroke: #ffffff; stroke-linejoin: miter"/>
   </g>
   <g id="patch_53">
    <path d="M 389.661307 277.478125 
L 395.771875 277.478125 
L 395.771875 276.79025 
L 389.661307 276.79025 
z
" clip-path="url(#p9953cfa9af)" style="fill: #7aa6c2; stroke: #ffffff; stroke-linejoin: miter"/>
   </g>
   <g id="patch_54">
    <path d="M 395.771875 277.478125 
L 401.882443 277.478125 
L 401.882443 277.003729 
L 395.771875 277.003729 
z
" clip-path="url(#p9953cfa9af)" style="fill: #7aa6c2; stroke: #ffffff; stroke-linejoin: miter"/>
   </g>
   <g id="patch_55">
    <path d="M 401.882443 277.478125 
L 407.993011 277.478125 
L 407.993011 276.83769 
L 401.882443 276.83769 
z
" clip-path="url(#p9953cfa9af)" style="fill: #7aa6c2; stroke: #ffffff; stroke-linejoin: miter"/>
   </g>
   <g id="patch_56">
    <path d="M 407.993011 277.478125 
L 414.10358 277.478125 
L 414.10358 276.81397 
L 407.993011 276.81397 
z
" clip-path="url(#p9953cfa9af)" style="fill: #7aa6c2; stroke: #ffffff; stroke-linejoin: miter"/>
   </g>
   <g id="patch_57">
    <path d="M 414.10358 277.478125 
L 420.214148 277.478125 
L 420.214148 277.003729 
L 414.10358 277.003729 
z
" clip-path="url(#p9953cfa9af)" style="fill: #7aa6c2; stroke: #ffffff; stroke-linejoin: miter"/>
   </g>
   <g id="patch_58">
    <path d="M 420.214148 277.478125 
L 426.324716 277.478125 
L 426.324716 277.122328 
L 420.214148 277.122328 
z
" clip-path="url(#p9953cfa9af)" style="fill: #7aa6c2; stroke: #ffffff; stroke-linejoin: miter"/>
   </g>
   <g id="patch_59">
    <path d="M 426.324716 277.478125 
L 432.435284 277.478125 
L 432.435284 277.122328 
L 426.324716 277.122328 
z
" clip-path="url(#p9953cfa9af)" style="fill: #7aa6c2; stroke: #ffffff; stroke-linejoin: miter"/>
   </g>
   <g id="patch_60">
    <path d="M 432.435284 277.478125 
L 438.545852 277.478125 
L 438.545852 277.169767 
L 432.435284 277.169767 
z
" clip-path="url(#p9953cfa9af)" style="fill: #7aa6c2; stroke: #ffffff; stroke-linejoin: miter"/>
   </g>
   <g id="patch_61">
    <path d="M 438.545852 277.478125 
L 444.65642 277.478125 
L 444.65642 277.193487 
L 438.545852 277.193487 
z
" clip-path="url(#p9953cfa9af)" style="fill: #7aa6c2; stroke: #ffffff; stroke-linejoin: miter"/>
   </g>
   <g id="patch_62">
    <path d="M 444.65642 277.478125 
L 450.766989 277.478125 
L 450.766989 277.122328 
L 444.65642 277.122328 
z
" clip-path="url(#p9953cfa9af)" style="fill: #7aa6c2; stroke: #ffffff; stroke-linejoin: miter"/>
   </g>
   <g id="patch_63">
    <path d="M 450.766989 277.478125 
L 456.877557 277.478125 
L 456.877557 277.169767 
L 450.766989 277.169767 
z
" clip-path="url(#p9953cfa9af)" style="fill: #7aa6c2; stroke: #ffffff; stroke-linejoin: miter"/>
   </g>
   <g id="patch_64">
    <path d="M 456.877557 277.478125 
L 462.988125 277.478125 
L 462.988125 277.146048 
L 456.877557 277.146048 
z
" clip-path="url(#p9953cfa9af)" style="fill: #7aa6c2; stroke: #ffffff; stroke-linejoin: miter"/>
   </g>
   <g id="patch_65">
    <path d="M 462.988125 277.478125 
L 469.098693 277.478125 
L 469.098693 277.217207 
L 462.988125 277.217207 
z
" clip-path="url(#p9953cfa9af)" style="fill: #7aa6c2; stroke: #ffffff; stroke-linejoin: miter"/>
   </g>
   <g id="patch_66">
    <path d="M 469.098693 277.478125 
L 475.209261 277.478125 
L 475.209261 277.051168 
L 469.098693 277.051168 
z
" clip-path="url(#p9953cfa9af)" style="fill: #7aa6c2; stroke: #ffffff; stroke-linejoin: miter"/>
   </g>
   <g id="patch_67">
    <path d="M 475.209261 277.478125 
L 481.31983 277.478125 
L 481.31983 277.169767 
L 475.209261 277.169767 
z
" clip-path="url(#p9953cfa9af)" style="fill: #7aa6c2; stroke: #ffffff; stroke-linejoin: miter"/>
   </g>
   <g id="patch_68">
    <path d="M 481.31983 277.478125 
L 487.430398 277.478125 
L 487.430398 277.217207 
L 481.31983 277.217207 
z
" clip-path="url(#p9953cfa9af)" style="fill: #7aa6c2; stroke: #ffffff; stroke-linejoin: miter"/>
   </g>
   <g id="patch_69">
    <path d="M 487.430398 277.478125 
L 493.540966 277.478125 
L 493.540966 277.193487 
L 487.430398 277.193487 
z
" clip-path="url(#p9953cfa9af)" style="fill: #7aa6c2; stroke: #ffffff; stroke-linejoin: miter"/>
   </g>
   <g id="patch_70">
    <path d="M 493.540966 277.478125 
L 499.651534 277.478125 
L 499.651534 277.359526 
L 493.540966 277.359526 
z
" clip-path="url(#p9953cfa9af)" style="fill: #7aa6c2; stroke: #ffffff; stroke-linejoin: miter"/>
   </g>
   <g id="patch_71">
    <path d="M 499.651534 277.478125 
L 505.762102 277.478125 
L 505.762102 277.288366 
L 499.651534 277.288366 
z
" clip-path="url(#p9953cfa9af)" style="fill: #7aa6c2; stroke: #ffffff; stroke-linejoin: miter"/>
   </g>
   <g id="patch_72">
    <path d="M 505.762102 277.478125 
L 511.87267 277.478125 
L 511.87267 277.312086 
L 505.762102 277.312086 
z
" clip-path="url(#p9953cfa9af)" style="fill: #7aa6c2; stroke: #ffffff; stroke-linejoin: miter"/>
   </g>
   <g id="patch_73">
    <path d="M 511.87267 277.478125 
L 517.983239 277.478125 
L 517.983239 277.217207 
L 511.87267 277.217207 
z
" clip-path="url(#p9953cfa9af)" style="fill: #7aa6c2; stroke: #ffffff; stroke-linejoin: miter"/>
   </g>
   <g id="patch_74">
    <path d="M 517.983239 277.478125 
L 524.093807 277.478125 
L 524.093807 277.217207 
L 517.983239 277.217207 
z
" clip-path="url(#p9953cfa9af)" style="fill: #7aa6c2; stroke: #ffffff; stroke-linejoin: miter"/>
   </g>
   <g id="patch_75">
    <path d="M 524.093807 277.478125 
L 530.204375 277.478125 
L 530.204375 277.335806 
L 524.093807 277.335806 
z
" clip-path="url(#p9953cfa9af)" style="fill: #7aa6c2; stroke: #ffffff; stroke-linejoin: miter"/>
   </g>
   <g id="patch_76">
    <path d="M 530.204375 277.478125 
L 536.314943 277.478125 
L 536.314943 277.312086 
L 530.204375 277.312086 
z
" clip-path="url(#p9953cfa9af)" style="fill: #7aa6c2; stroke: #ffffff; stroke-linejoin: miter"/>
   </g>
   <g id="patch_77">
    <path d="M 536.314943 277.478125 
L 542.425511 277.478125 
L 542.425511 277.288366 
L 536.314943 277.288366 
z
" clip-path="url(#p9953cfa9af)" style="fill: #7aa6c2; stroke: #ffffff; stroke-linejoin: miter"/>
   </g>
   <g id="patch_78">
    <path d="M 542.425511 277.478125 
L 548.53608 277.478125 
L 548.53608 277.288366 
L 542.425511 277.288366 
z
" clip-path="url(#p9953cfa9af)" style="fill: #7aa6c2; stroke: #ffffff; stroke-linejoin: miter"/>
   </g>
   <g id="patch_79">
    <path d="M 548.53608 277.478125 
L 554.646648 277.478125 
L 554.646648 277.335806 
L 548.53608 277.335806 
z
" clip-path="url(#p9953cfa9af)" style="fill: #7aa6c2; stroke: #ffffff; stroke-linejoin: miter"/>
   </g>
   <g id="patch_80">
    <path d="M 554.646648 277.478125 
L 560.757216 277.478125 
L 560.757216 277.335806 
L 554.646648 277.335806 
z
" clip-path="url(#p9953cfa9af)" style="fill: #7aa6c2; stroke: #ffffff; stroke-linejoin: miter"/>
   </g>
   <g id="patch_81">
    <path d="M 560.757216 277.478125 
L 566.867784 277.478125 
L 566.867784 277.359526 
L 560.757216 277.359526 
z
" clip-path="url(#p9953cfa9af)" style="fill: #7aa6c2; stroke: #ffffff; stroke-linejoin: miter"/>
   </g>
   <g id="patch_82">
    <path d="M 566.867784 277.478125 
L 572.978352 277.478125 
L 572.978352 277.335806 
L 566.867784 277.335806 
z
" clip-path="url(#p9953cfa9af)" style="fill: #7aa6c2; stroke: #ffffff; stroke-linejoin: miter"/>
   </g>
   <g id="matplotlib.axis_1">
    <g id="xtick_1">
     <g id="line2d_1">
      <path d="M 84.132898 277.478125 
L 84.132898 22.318125 
" clip-path="url(#p9953cfa9af)" style="fill: none; stroke: #b0b0b0; stroke-opacity: 0.25; stroke-width: 0.8; stroke-linecap: square"/>
     </g>
     <g id="line2d_2">
      <defs>
       <path id="ma326dbc427" d="M 0 0 
L 0 3.5 
" style="stroke: #000000; stroke-width: 0.8"/>
      </defs>
      <g>
       <use xlink:href="#ma326dbc427" x="84.132898" y="277.478125" style="stroke: #000000; stroke-width: 0.8"/>
      </g>
     </g>
     <g id="text_1">
      <!-- 0 -->
      <g transform="translate(80.951648 292.076563) scale(0.1 -0.1)">
       <defs>
        <path id="DejaVuSans-30" d="M 2034 4250 
Q 1547 4250 1301 3770 
Q 1056 3291 1056 2328 
Q 1056 1369 1301 889 
Q 1547 409 2034 409 
Q 2525 409 2770 889 
Q 3016 1369 3016 2328 
Q 3016 3291 2770 3770 
Q 2525 4250 2034 4250 
z
M 2034 4750 
Q 2819 4750 3233 4129 
Q 3647 3509 3647 2328 
Q 3647 1150 3233 529 
Q 2819 -91 2034 -91 
Q 1250 -91 836 529 
Q 422 1150 422 2328 
Q 422 3509 836 4129 
Q 1250 4750 2034 4750 
z
" transform="scale(0.015625)"/>
       </defs>
       <use xlink:href="#DejaVuSans-30"/>
      </g>
     </g>
    </g>
    <g id="xtick_2">
     <g id="line2d_3">
      <path d="M 153.967963 277.478125 
L 153.967963 22.318125 
" clip-path="url(#p9953cfa9af)" style="fill: none; stroke: #b0b0b0; stroke-opacity: 0.25; stroke-width: 0.8; stroke-linecap: square"/>
     </g>
     <g id="line2d_4">
      <g>
       <use xlink:href="#ma326dbc427" x="153.967963" y="277.478125" style="stroke: #000000; stroke-width: 0.8"/>
      </g>
     </g>
     <g id="text_2">
      <!-- 50 -->
      <g transform="translate(147.605463 292.076563) scale(0.1 -0.1)">
       <defs>
        <path id="DejaVuSans-35" d="M 691 4666 
L 3169 4666 
L 3169 4134 
L 1269 4134 
L 1269 2991 
Q 1406 3038 1543 3061 
Q 1681 3084 1819 3084 
Q 2600 3084 3056 2656 
Q 3513 2228 3513 1497 
Q 3513 744 3044 326 
Q 2575 -91 1722 -91 
Q 1428 -91 1123 -41 
Q 819 9 494 109 
L 494 744 
Q 775 591 1075 516 
Q 1375 441 1709 441 
Q 2250 441 2565 725 
Q 2881 1009 2881 1497 
Q 2881 1984 2565 2268 
Q 2250 2553 1709 2553 
Q 1456 2553 1204 2497 
Q 953 2441 691 2322 
L 691 4666 
z
" transform="scale(0.015625)"/>
       </defs>
       <use xlink:href="#DejaVuSans-35"/>
       <use xlink:href="#DejaVuSans-30" transform="translate(63.623047 0)"/>
      </g>
     </g>
    </g>
    <g id="xtick_3">
     <g id="line2d_5">
      <path d="M 223.803028 277.478125 
L 223.803028 22.318125 
" clip-path="url(#p9953cfa9af)" style="fill: none; stroke: #b0b0b0; stroke-opacity: 0.25; stroke-width: 0.8; stroke-linecap: square"/>
     </g>
     <g id="line2d_6">
      <g>
       <use xlink:href="#ma326dbc427" x="223.803028" y="277.478125" style="stroke: #000000; stroke-width: 0.8"/>
      </g>
     </g>
     <g id="text_3">
      <!-- 100 -->
      <g transform="translate(214.259278 292.076563) scale(0.1 -0.1)">
       <defs>
        <path id="DejaVuSans-31" d="M 794 531 
L 1825 531 
L 1825 4091 
L 703 3866 
L 703 4441 
L 1819 4666 
L 2450 4666 
L 2450 531 
L 3481 531 
L 3481 0 
L 794 0 
L 794 531 
z
" transform="scale(0.015625)"/>
       </defs>
       <use xlink:href="#DejaVuSans-31"/>
       <use xlink:href="#DejaVuSans-30" transform="translate(63.623047 0)"/>
       <use xlink:href="#DejaVuSans-30" transform="translate(127.246094 0)"/>
      </g>
     </g>
    </g>
    <g id="xtick_4">
     <g id="line2d_7">
      <path d="M 293.638093 277.478125 
L 293.638093 22.318125 
" clip-path="url(#p9953cfa9af)" style="fill: none; stroke: #b0b0b0; stroke-opacity: 0.25; stroke-width: 0.8; stroke-linecap: square"/>
     </g>
     <g id="line2d_8">
      <g>
       <use xlink:href="#ma326dbc427" x="293.638093" y="277.478125" style="stroke: #000000; stroke-width: 0.8"/>
      </g>
     </g>
     <g id="text_4">
      <!-- 150 -->
      <g transform="translate(284.094343 292.076563) scale(0.1 -0.1)">
       <use xlink:href="#DejaVuSans-31"/>
       <use xlink:href="#DejaVuSans-35" transform="translate(63.623047 0)"/>
       <use xlink:href="#DejaVuSans-30" transform="translate(127.246094 0)"/>
      </g>
     </g>
    </g>
    <g id="xtick_5">
     <g id="line2d_9">
      <path d="M 363.473157 277.478125 
L 363.473157 22.318125 
" clip-path="url(#p9953cfa9af)" style="fill: none; stroke: #b0b0b0; stroke-opacity: 0.25; stroke-width: 0.8; stroke-linecap: square"/>
     </g>
     <g id="line2d_10">
      <g>
       <use xlink:href="#ma326dbc427" x="363.473157" y="277.478125" style="stroke: #000000; stroke-width: 0.8"/>
      </g>
     </g>
     <g id="text_5">
      <!-- 200 -->
      <g transform="translate(353.929407 292.076563) scale(0.1 -0.1)">
       <defs>
        <path id="DejaVuSans-32" d="M 1228 531 
L 3431 531 
L 3431 0 
L 469 0 
L 469 531 
Q 828 903 1448 1529 
Q 2069 2156 2228 2338 
Q 2531 2678 2651 2914 
Q 2772 3150 2772 3378 
Q 2772 3750 2511 3984 
Q 2250 4219 1831 4219 
Q 1534 4219 1204 4116 
Q 875 4013 500 3803 
L 500 4441 
Q 881 4594 1212 4672 
Q 1544 4750 1819 4750 
Q 2544 4750 2975 4387 
Q 3406 4025 3406 3419 
Q 3406 3131 3298 2873 
Q 3191 2616 2906 2266 
Q 2828 2175 2409 1742 
Q 1991 1309 1228 531 
z
" transform="scale(0.015625)"/>
       </defs>
       <use xlink:href="#DejaVuSans-32"/>
       <use xlink:href="#DejaVuSans-30" transform="translate(63.623047 0)"/>
       <use xlink:href="#DejaVuSans-30" transform="translate(127.246094 0)"/>
      </g>
     </g>
    </g>
    <g id="xtick_6">
     <g id="line2d_11">
      <path d="M 433.308222 277.478125 
L 433.308222 22.318125 
" clip-path="url(#p9953cfa9af)" style="fill: none; stroke: #b0b0b0; stroke-opacity: 0.25; stroke-width: 0.8; stroke-linecap: square"/>
     </g>
     <g id="line2d_12">
      <g>
       <use xlink:href="#ma326dbc427" x="433.308222" y="277.478125" style="stroke: #000000; stroke-width: 0.8"/>
      </g>
     </g>
     <g id="text_6">
      <!-- 250 -->
      <g transform="translate(423.764472 292.076563) scale(0.1 -0.1)">
       <use xlink:href="#DejaVuSans-32"/>
       <use xlink:href="#DejaVuSans-35" transform="translate(63.623047 0)"/>
       <use xlink:href="#DejaVuSans-30" transform="translate(127.246094 0)"/>
      </g>
     </g>
    </g>
    <g id="xtick_7">
     <g id="line2d_13">
      <path d="M 503.143287 277.478125 
L 503.143287 22.318125 
" clip-path="url(#p9953cfa9af)" style="fill: none; stroke: #b0b0b0; stroke-opacity: 0.25; stroke-width: 0.8; stroke-linecap: square"/>
     </g>
     <g id="line2d_14">
      <g>
       <use xlink:href="#ma326dbc427" x="503.143287" y="277.478125" style="stroke: #000000; stroke-width: 0.8"/>
      </g>
     </g>
     <g id="text_7">
      <!-- 300 -->
      <g transform="translate(493.599537 292.076563) scale(0.1 -0.1)">
       <defs>
        <path id="DejaVuSans-33" d="M 2597 2516 
Q 3050 2419 3304 2112 
Q 3559 1806 3559 1356 
Q 3559 666 3084 287 
Q 2609 -91 1734 -91 
Q 1441 -91 1130 -33 
Q 819 25 488 141 
L 488 750 
Q 750 597 1062 519 
Q 1375 441 1716 441 
Q 2309 441 2620 675 
Q 2931 909 2931 1356 
Q 2931 1769 2642 2001 
Q 2353 2234 1838 2234 
L 1294 2234 
L 1294 2753 
L 1863 2753 
Q 2328 2753 2575 2939 
Q 2822 3125 2822 3475 
Q 2822 3834 2567 4026 
Q 2313 4219 1838 4219 
Q 1578 4219 1281 4162 
Q 984 4106 628 3988 
L 628 4550 
Q 988 4650 1302 4700 
Q 1616 4750 1894 4750 
Q 2613 4750 3031 4423 
Q 3450 4097 3450 3541 
Q 3450 3153 3228 2886 
Q 3006 2619 2597 2516 
z
" transform="scale(0.015625)"/>
       </defs>
       <use xlink:href="#DejaVuSans-33"/>
       <use xlink:href="#DejaVuSans-30" transform="translate(63.623047 0)"/>
       <use xlink:href="#DejaVuSans-30" transform="translate(127.246094 0)"/>
      </g>
     </g>
    </g>
    <g id="xtick_8">
     <g id="line2d_15">
      <path d="M 572.978352 277.478125 
L 572.978352 22.318125 
" clip-path="url(#p9953cfa9af)" style="fill: none; stroke: #b0b0b0; stroke-opacity: 0.25; stroke-width: 0.8; stroke-linecap: square"/>
     </g>
     <g id="line2d_16">
      <g>
       <use xlink:href="#ma326dbc427" x="572.978352" y="277.478125" style="stroke: #000000; stroke-width: 0.8"/>
      </g>
     </g>
     <g id="text_8">
      <!-- 350 -->
      <g transform="translate(563.434602 292.076563) scale(0.1 -0.1)">
       <use xlink:href="#DejaVuSans-33"/>
       <use xlink:href="#DejaVuSans-35" transform="translate(63.623047 0)"/>
       <use xlink:href="#DejaVuSans-30" transform="translate(127.246094 0)"/>
      </g>
     </g>
    </g>
    <g id="text_9">
     <!-- latency (ms) -->
     <g transform="translate(297.222813 305.754687) scale(0.1 -0.1)">
      <defs>
       <path id="DejaVuSans-6c" d="M 603 4863 
L 1178 4863 
L 1178 0 
L 603 0 
L 603 4863 
z
" transform="scale(0.015625)"/>
       <path id="DejaVuSans-61" d="M 2194 1759 
Q 1497 1759 1228 1600 
Q 959 1441 959 1056 
Q 959 750 1161 570 
Q 1363 391 1709 391 
Q 2188 391 2477 730 
Q 2766 1069 2766 1631 
L 2766 1759 
L 2194 1759 
z
M 3341 1997 
L 3341 0 
L 2766 0 
L 2766 531 
Q 2569 213 2275 61 
Q 1981 -91 1556 -91 
Q 1019 -91 701 211 
Q 384 513 384 1019 
Q 384 1609 779 1909 
Q 1175 2209 1959 2209 
L 2766 2209 
L 2766 2266 
Q 2766 2663 2505 2880 
Q 2244 3097 1772 3097 
Q 1472 3097 1187 3025 
Q 903 2953 641 2809 
L 641 3341 
Q 956 3463 1253 3523 
Q 1550 3584 1831 3584 
Q 2591 3584 2966 3190 
Q 3341 2797 3341 1997 
z
" transform="scale(0.015625)"/>
       <path id="DejaVuSans-74" d="M 1172 4494 
L 1172 3500 
L 2356 3500 
L 2356 3053 
L 1172 3053 
L 1172 1153 
Q 1172 725 1289 603 
Q 1406 481 1766 481 
L 2356 481 
L 2356 0 
L 1766 0 
Q 1100 0 847 248 
Q 594 497 594 1153 
L 594 3053 
L 172 3053 
L 172 3500 
L 594 3500 
L 594 4494 
L 1172 4494 
z
" transform="scale(0.015625)"/>
       <path id="DejaVuSans-65" d="M 3597 1894 
L 3597 1613 
L 953 1613 
Q 991 1019 1311 708 
Q 1631 397 2203 397 
Q 2534 397 2845 478 
Q 3156 559 3463 722 
L 3463 178 
Q 3153 47 2828 -22 
Q 2503 -91 2169 -91 
Q 1331 -91 842 396 
Q 353 884 353 1716 
Q 353 2575 817 3079 
Q 1281 3584 2069 3584 
Q 2775 3584 3186 3129 
Q 3597 2675 3597 1894 
z
M 3022 2063 
Q 3016 2534 2758 2815 
Q 2500 3097 2075 3097 
Q 1594 3097 1305 2825 
Q 1016 2553 972 2059 
L 3022 2063 
z
" transform="scale(0.015625)"/>
       <path id="DejaVuSans-6e" d="M 3513 2113 
L 3513 0 
L 2938 0 
L 2938 2094 
Q 2938 2591 2744 2837 
Q 2550 3084 2163 3084 
Q 1697 3084 1428 2787 
Q 1159 2491 1159 1978 
L 1159 0 
L 581 0 
L 581 3500 
L 1159 3500 
L 1159 2956 
Q 1366 3272 1645 3428 
Q 1925 3584 2291 3584 
Q 2894 3584 3203 3211 
Q 3513 2838 3513 2113 
z
" transform="scale(0.015625)"/>
       <path id="DejaVuSans-63" d="M 3122 3366 
L 3122 2828 
Q 2878 2963 2633 3030 
Q 2388 3097 2138 3097 
Q 1578 3097 1268 2742 
Q 959 2388 959 1747 
Q 959 1106 1268 751 
Q 1578 397 2138 397 
Q 2388 397 2633 464 
Q 2878 531 3122 666 
L 3122 134 
Q 2881 22 2623 -34 
Q 2366 -91 2075 -91 
Q 1284 -91 818 406 
Q 353 903 353 1747 
Q 353 2603 823 3093 
Q 1294 3584 2113 3584 
Q 2378 3584 2631 3529 
Q 2884 3475 3122 3366 
z
" transform="scale(0.015625)"/>
       <path id="DejaVuSans-79" d="M 2059 -325 
Q 1816 -950 1584 -1140 
Q 1353 -1331 966 -1331 
L 506 -1331 
L 506 -850 
L 844 -850 
Q 1081 -850 1212 -737 
Q 1344 -625 1503 -206 
L 1606 56 
L 191 3500 
L 800 3500 
L 1894 763 
L 2988 3500 
L 3597 3500 
L 2059 -325 
z
" transform="scale(0.015625)"/>
       <path id="DejaVuSans-20" transform="scale(0.015625)"/>
       <path id="DejaVuSans-28" d="M 1984 4856 
Q 1566 4138 1362 3434 
Q 1159 2731 1159 2009 
Q 1159 1288 1364 580 
Q 1569 -128 1984 -844 
L 1484 -844 
Q 1016 -109 783 600 
Q 550 1309 550 2009 
Q 550 2706 781 3412 
Q 1013 4119 1484 4856 
L 1984 4856 
z
" transform="scale(0.015625)"/>
       <path id="DejaVuSans-6d" d="M 3328 2828 
Q 3544 3216 3844 3400 
Q 4144 3584 4550 3584 
Q 5097 3584 5394 3201 
Q 5691 2819 5691 2113 
L 5691 0 
L 5113 0 
L 5113 2094 
Q 5113 2597 4934 2840 
Q 4756 3084 4391 3084 
Q 3944 3084 3684 2787 
Q 3425 2491 3425 1978 
L 3425 0 
L 2847 0 
L 2847 2094 
Q 2847 2600 2669 2842 
Q 2491 3084 2119 3084 
Q 1678 3084 1418 2786 
Q 1159 2488 1159 1978 
L 1159 0 
L 581 0 
L 581 3500 
L 1159 3500 
L 1159 2956 
Q 1356 3278 1631 3431 
Q 1906 3584 2284 3584 
Q 2666 3584 2933 3390 
Q 3200 3197 3328 2828 
z
" transform="scale(0.015625)"/>
       <path id="DejaVuSans-73" d="M 2834 3397 
L 2834 2853 
Q 2591 2978 2328 3040 
Q 2066 3103 1784 3103 
Q 1356 3103 1142 2972 
Q 928 2841 928 2578 
Q 928 2378 1081 2264 
Q 1234 2150 1697 2047 
L 1894 2003 
Q 2506 1872 2764 1633 
Q 3022 1394 3022 966 
Q 3022 478 2636 193 
Q 2250 -91 1575 -91 
Q 1294 -91 989 -36 
Q 684 19 347 128 
L 347 722 
Q 666 556 975 473 
Q 1284 391 1588 391 
Q 1994 391 2212 530 
Q 2431 669 2431 922 
Q 2431 1156 2273 1281 
Q 2116 1406 1581 1522 
L 1381 1569 
Q 847 1681 609 1914 
Q 372 2147 372 2553 
Q 372 3047 722 3315 
Q 1072 3584 1716 3584 
Q 2034 3584 2315 3537 
Q 2597 3491 2834 3397 
z
" transform="scale(0.015625)"/>
       <path id="DejaVuSans-29" d="M 513 4856 
L 1013 4856 
Q 1481 4119 1714 3412 
Q 1947 2706 1947 2009 
Q 1947 1309 1714 600 
Q 1481 -109 1013 -844 
L 513 -844 
Q 928 -128 1133 580 
Q 1338 1288 1338 2009 
Q 1338 2731 1133 3434 
Q 928 4138 513 4856 
z
" transform="scale(0.015625)"/>
      </defs>
      <use xlink:href="#DejaVuSans-6c"/>
      <use xlink:href="#DejaVuSans-61" transform="translate(27.783203 0)"/>
      <use xlink:href="#DejaVuSans-74" transform="translate(89.0625 0)"/>
      <use xlink:href="#DejaVuSans-65" transform="translate(128.271484 0)"/>
      <use xlink:href="#DejaVuSans-6e" transform="translate(189.794922 0)"/>
      <use xlink:href="#DejaVuSans-63" transform="translate(253.173828 0)"/>
      <use xlink:href="#DejaVuSans-79" transform="translate(308.154297 0)"/>
      <use xlink:href="#DejaVuSans-20" transform="translate(367.333984 0)"/>
      <use xlink:href="#DejaVuSans-28" transform="translate(399.121094 0)"/>
      <use xlink:href="#DejaVuSans-6d" transform="translate(438.134766 0)"/>
      <use xlink:href="#DejaVuSans-73" transform="translate(535.546875 0)"/>
      <use xlink:href="#DejaVuSans-29" transform="translate(587.646484 0)"/>
     </g>
    </g>
   </g>
   <g id="matplotlib.axis_2">
    <g id="ytick_1">
     <g id="line2d_17">
      <path d="M 59.690625 277.478125 
L 597.420625 277.478125 
" clip-path="url(#p9953cfa9af)" style="fill: none; stroke: #b0b0b0; stroke-opacity: 0.25; stroke-width: 0.8; stroke-linecap: square"/>
     </g>
     <g id="line2d_18">
      <defs>
       <path id="m7ea886fb34" d="M 0 0 
L -3.5 0 
" style="stroke: #000000; stroke-width: 0.8"/>
      </defs>
      <g>
       <use xlink:href="#m7ea886fb34" x="59.690625" y="277.478125" style="stroke: #000000; stroke-width: 0.8"/>
      </g>
     </g>
     <g id="text_10">
      <!-- 0 -->
      <g transform="translate(46.328125 281.277344) scale(0.1 -0.1)">
       <use xlink:href="#DejaVuSans-30"/>
      </g>
     </g>
    </g>
    <g id="ytick_2">
     <g id="line2d_19">
      <path d="M 59.690625 230.038491 
L 597.420625 230.038491 
" clip-path="url(#p9953cfa9af)" style="fill: none; stroke: #b0b0b0; stroke-opacity: 0.25; stroke-width: 0.8; stroke-linecap: square"/>
     </g>
     <g id="line2d_20">
      <g>
       <use xlink:href="#m7ea886fb34" x="59.690625" y="230.038491" style="stroke: #000000; stroke-width: 0.8"/>
      </g>
     </g>
     <g id="text_11">
      <!-- 2000 -->
      <g transform="translate(27.240625 233.83771) scale(0.1 -0.1)">
       <use xlink:href="#DejaVuSans-32"/>
       <use xlink:href="#DejaVuSans-30" transform="translate(63.623047 0)"/>
       <use xlink:href="#DejaVuSans-30" transform="translate(127.246094 0)"/>
       <use xlink:href="#DejaVuSans-30" transform="translate(190.869141 0)"/>
      </g>
     </g>
    </g>
    <g id="ytick_3">
     <g id="line2d_21">
      <path d="M 59.690625 182.598858 
L 597.420625 182.598858 
" clip-path="url(#p9953cfa9af)" style="fill: none; stroke: #b0b0b0; stroke-opacity: 0.25; stroke-width: 0.8; stroke-linecap: square"/>
     </g>
     <g id="line2d_22">
      <g>
       <use xlink:href="#m7ea886fb34" x="59.690625" y="182.598858" style="stroke: #000000; stroke-width: 0.8"/>
      </g>
     </g>
     <g id="text_12">
      <!-- 4000 -->
      <g transform="translate(27.240625 186.398076) scale(0.1 -0.1)">
       <defs>
        <path id="DejaVuSans-34" d="M 2419 4116 
L 825 1625 
L 2419 1625 
L 2419 4116 
z
M 2253 4666 
L 3047 4666 
L 3047 1625 
L 3713 1625 
L 3713 1100 
L 3047 1100 
L 3047 0 
L 2419 0 
L 2419 1100 
L 313 1100 
L 313 1709 
L 2253 4666 
z
" transform="scale(0.015625)"/>
       </defs>
       <use xlink:href="#DejaVuSans-34"/>
       <use xlink:href="#DejaVuSans-30" transform="translate(63.623047 0)"/>
       <use xlink:href="#DejaVuSans-30" transform="translate(127.246094 0)"/>
       <use xlink:href="#DejaVuSans-30" transform="translate(190.869141 0)"/>
      </g>
     </g>
    </g>
    <g id="ytick_4">
     <g id="line2d_23">
      <path d="M 59.690625 135.159224 
L 597.420625 135.159224 
" clip-path="url(#p9953cfa9af)" style="fill: none; stroke: #b0b0b0; stroke-opacity: 0.25; stroke-width: 0.8; stroke-linecap: square"/>
     </g>
     <g id="line2d_24">
      <g>
       <use xlink:href="#m7ea886fb34" x="59.690625" y="135.159224" style="stroke: #000000; stroke-width: 0.8"/>
      </g>
     </g>
     <g id="text_13">
      <!-- 6000 -->
      <g transform="translate(27.240625 138.958443) scale(0.1 -0.1)">
       <defs>
        <path id="DejaVuSans-36" d="M 2113 2584 
Q 1688 2584 1439 2293 
Q 1191 2003 1191 1497 
Q 1191 994 1439 701 
Q 1688 409 2113 409 
Q 2538 409 2786 701 
Q 3034 994 3034 1497 
Q 3034 2003 2786 2293 
Q 2538 2584 2113 2584 
z
M 3366 4563 
L 3366 3988 
Q 3128 4100 2886 4159 
Q 2644 4219 2406 4219 
Q 1781 4219 1451 3797 
Q 1122 3375 1075 2522 
Q 1259 2794 1537 2939 
Q 1816 3084 2150 3084 
Q 2853 3084 3261 2657 
Q 3669 2231 3669 1497 
Q 3669 778 3244 343 
Q 2819 -91 2113 -91 
Q 1303 -91 875 529 
Q 447 1150 447 2328 
Q 447 3434 972 4092 
Q 1497 4750 2381 4750 
Q 2619 4750 2861 4703 
Q 3103 4656 3366 4563 
z
" transform="scale(0.015625)"/>
       </defs>
       <use xlink:href="#DejaVuSans-36"/>
       <use xlink:href="#DejaVuSans-30" transform="translate(63.623047 0)"/>
       <use xlink:href="#DejaVuSans-30" transform="translate(127.246094 0)"/>
       <use xlink:href="#DejaVuSans-30" transform="translate(190.869141 0)"/>
      </g>
     </g>
    </g>
    <g id="ytick_5">
     <g id="line2d_25">
      <path d="M 59.690625 87.71959 
L 597.420625 87.71959 
" clip-path="url(#p9953cfa9af)" style="fill: none; stroke: #b0b0b0; stroke-opacity: 0.25; stroke-width: 0.8; stroke-linecap: square"/>
     </g>
     <g id="line2d_26">
      <g>
       <use xlink:href="#m7ea886fb34" x="59.690625" y="87.71959" style="stroke: #000000; stroke-width: 0.8"/>
      </g>
     </g>
     <g id="text_14">
      <!-- 8000 -->
      <g transform="translate(27.240625 91.518809) scale(0.1 -0.1)">
       <defs>
        <path id="DejaVuSans-38" d="M 2034 2216 
Q 1584 2216 1326 1975 
Q 1069 1734 1069 1313 
Q 1069 891 1326 650 
Q 1584 409 2034 409 
Q 2484 409 2743 651 
Q 3003 894 3003 1313 
Q 3003 1734 2745 1975 
Q 2488 2216 2034 2216 
z
M 1403 2484 
Q 997 2584 770 2862 
Q 544 3141 544 3541 
Q 544 4100 942 4425 
Q 1341 4750 2034 4750 
Q 2731 4750 3128 4425 
Q 3525 4100 3525 3541 
Q 3525 3141 3298 2862 
Q 3072 2584 2669 2484 
Q 3125 2378 3379 2068 
Q 3634 1759 3634 1313 
Q 3634 634 3220 271 
Q 2806 -91 2034 -91 
Q 1263 -91 848 271 
Q 434 634 434 1313 
Q 434 1759 690 2068 
Q 947 2378 1403 2484 
z
M 1172 3481 
Q 1172 3119 1398 2916 
Q 1625 2713 2034 2713 
Q 2441 2713 2670 2916 
Q 2900 3119 2900 3481 
Q 2900 3844 2670 4047 
Q 2441 4250 2034 4250 
Q 1625 4250 1398 4047 
Q 1172 3844 1172 3481 
z
" transform="scale(0.015625)"/>
       </defs>
       <use xlink:href="#DejaVuSans-38"/>
       <use xlink:href="#DejaVuSans-30" transform="translate(63.623047 0)"/>
       <use xlink:href="#DejaVuSans-30" transform="translate(127.246094 0)"/>
       <use xlink:href="#DejaVuSans-30" transform="translate(190.869141 0)"/>
      </g>
     </g>
    </g>
    <g id="ytick_6">
     <g id="line2d_27">
      <path d="M 59.690625 40.279956 
L 597.420625 40.279956 
" clip-path="url(#p9953cfa9af)" style="fill: none; stroke: #b0b0b0; stroke-opacity: 0.25; stroke-width: 0.8; stroke-linecap: square"/>
     </g>
     <g id="line2d_28">
      <g>
       <use xlink:href="#m7ea886fb34" x="59.690625" y="40.279956" style="stroke: #000000; stroke-width: 0.8"/>
      </g>
     </g>
     <g id="text_15">
      <!-- 10000 -->
      <g transform="translate(20.878125 44.079175) scale(0.1 -0.1)">
       <use xlink:href="#DejaVuSans-31"/>
       <use xlink:href="#DejaVuSans-30" transform="translate(63.623047 0)"/>
       <use xlink:href="#DejaVuSans-30" transform="translate(127.246094 0)"/>
       <use xlink:href="#DejaVuSans-30" transform="translate(190.869141 0)"/>
       <use xlink:href="#DejaVuSans-30" transform="translate(254.492188 0)"/>
      </g>
     </g>
    </g>
    <g id="text_16">
     <!-- requests -->
     <g transform="translate(14.798438 171.506719) rotate(-90) scale(0.1 -0.1)">
      <defs>
       <path id="DejaVuSans-72" d="M 2631 2963 
Q 2534 3019 2420 3045 
Q 2306 3072 2169 3072 
Q 1681 3072 1420 2755 
Q 1159 2438 1159 1844 
L 1159 0 
L 581 0 
L 581 3500 
L 1159 3500 
L 1159 2956 
Q 1341 3275 1631 3429 
Q 1922 3584 2338 3584 
Q 2397 3584 2469 3576 
Q 2541 3569 2628 3553 
L 2631 2963 
z
" transform="scale(0.015625)"/>
       <path id="DejaVuSans-71" d="M 947 1747 
Q 947 1113 1208 752 
Q 1469 391 1925 391 
Q 2381 391 2643 752 
Q 2906 1113 2906 1747 
Q 2906 2381 2643 2742 
Q 2381 3103 1925 3103 
Q 1469 3103 1208 2742 
Q 947 2381 947 1747 
z
M 2906 525 
Q 2725 213 2448 61 
Q 2172 -91 1784 -91 
Q 1150 -91 751 415 
Q 353 922 353 1747 
Q 353 2572 751 3078 
Q 1150 3584 1784 3584 
Q 2172 3584 2448 3432 
Q 2725 3281 2906 2969 
L 2906 3500 
L 3481 3500 
L 3481 -1331 
L 2906 -1331 
L 2906 525 
z
" transform="scale(0.015625)"/>
       <path id="DejaVuSans-75" d="M 544 1381 
L 544 3500 
L 1119 3500 
L 1119 1403 
Q 1119 906 1312 657 
Q 1506 409 1894 409 
Q 2359 409 2629 706 
Q 2900 1003 2900 1516 
L 2900 3500 
L 3475 3500 
L 3475 0 
L 2900 0 
L 2900 538 
Q 2691 219 2414 64 
Q 2138 -91 1772 -91 
Q 1169 -91 856 284 
Q 544 659 544 1381 
z
M 1991 3584 
L 1991 3584 
z
" transform="scale(0.015625)"/>
      </defs>
      <use xlink:href="#DejaVuSans-72"/>
      <use xlink:href="#DejaVuSans-65" transform="translate(38.863281 0)"/>
      <use xlink:href="#DejaVuSans-71" transform="translate(100.386719 0)"/>
      <use xlink:href="#DejaVuSans-75" transform="translate(163.863281 0)"/>
      <use xlink:href="#DejaVuSans-65" transform="translate(227.242188 0)"/>
      <use xlink:href="#DejaVuSans-73" transform="translate(288.765625 0)"/>
      <use xlink:href="#DejaVuSans-74" transform="translate(340.865234 0)"/>
      <use xlink:href="#DejaVuSans-73" transform="translate(380.074219 0)"/>
     </g>
    </g>
   </g>
   <g id="line2d_29">
    <path d="M 120.975482 277.478125 
L 120.975482 22.318125 
" clip-path="url(#p9953cfa9af)" style="fill: none; stroke-dasharray: 7.4,3.2; stroke-dashoffset: 0; stroke: #59a14f; stroke-width: 2"/>
   </g>
   <g id="line2d_30">
    <path d="M 200.010189 277.478125 
L 200.010189 22.318125 
" clip-path="url(#p9953cfa9af)" style="fill: none; stroke-dasharray: 7.4,3.2; stroke-dashoffset: 0; stroke: #f28e2b; stroke-width: 2"/>
   </g>
   <g id="line2d_31">
    <path d="M 307.05672 277.478125 
L 307.05672 22.318125 
" clip-path="url(#p9953cfa9af)" style="fill: none; stroke-dasharray: 7.4,3.2; stroke-dashoffset: 0; stroke: #e15759; stroke-width: 2"/>
   </g>
   <g id="patch_83">
    <path d="M 59.690625 277.478125 
L 59.690625 22.318125 
" style="fill: none; stroke: #000000; stroke-width: 0.8; stroke-linejoin: miter; stroke-linecap: square"/>
   </g>
   <g id="patch_84">
    <path d="M 597.420625 277.478125 
L 597.420625 22.318125 
" style="fill: none; stroke: #000000; stroke-width: 0.8; stroke-linejoin: miter; stroke-linecap: square"/>
   </g>
   <g id="patch_85">
    <path d="M 59.690625 277.478125 
L 597.420625 277.478125 
" style="fill: none; stroke: #000000; stroke-width: 0.8; stroke-linejoin: miter; stroke-linecap: square"/>
   </g>
   <g id="patch_86">
    <path d="M 59.690625 22.318125 
L 597.420625 22.318125 
" style="fill: none; stroke: #000000; stroke-width: 0.8; stroke-linejoin: miter; stroke-linecap: square"/>
   </g>
   <g id="text_17">
    <!-- Online inference: P99 dominates UX, not the average -->
    <g transform="translate(168.20375 16.318125) scale(0.12 -0.12)">
     <defs>
      <path id="DejaVuSans-4f" d="M 2522 4238 
Q 1834 4238 1429 3725 
Q 1025 3213 1025 2328 
Q 1025 1447 1429 934 
Q 1834 422 2522 422 
Q 3209 422 3611 934 
Q 4013 1447 4013 2328 
Q 4013 3213 3611 3725 
Q 3209 4238 2522 4238 
z
M 2522 4750 
Q 3503 4750 4090 4092 
Q 4678 3434 4678 2328 
Q 4678 1225 4090 567 
Q 3503 -91 2522 -91 
Q 1538 -91 948 565 
Q 359 1222 359 2328 
Q 359 3434 948 4092 
Q 1538 4750 2522 4750 
z
" transform="scale(0.015625)"/>
      <path id="DejaVuSans-69" d="M 603 3500 
L 1178 3500 
L 1178 0 
L 603 0 
L 603 3500 
z
M 603 4863 
L 1178 4863 
L 1178 4134 
L 603 4134 
L 603 4863 
z
" transform="scale(0.015625)"/>
      <path id="DejaVuSans-66" d="M 2375 4863 
L 2375 4384 
L 1825 4384 
Q 1516 4384 1395 4259 
Q 1275 4134 1275 3809 
L 1275 3500 
L 2222 3500 
L 2222 3053 
L 1275 3053 
L 1275 0 
L 697 0 
L 697 3053 
L 147 3053 
L 147 3500 
L 697 3500 
L 697 3744 
Q 697 4328 969 4595 
Q 1241 4863 1831 4863 
L 2375 4863 
z
" transform="scale(0.015625)"/>
      <path id="DejaVuSans-3a" d="M 750 794 
L 1409 794 
L 1409 0 
L 750 0 
L 750 794 
z
M 750 3309 
L 1409 3309 
L 1409 2516 
L 750 2516 
L 750 3309 
z
" transform="scale(0.015625)"/>
      <path id="DejaVuSans-50" d="M 1259 4147 
L 1259 2394 
L 2053 2394 
Q 2494 2394 2734 2622 
Q 2975 2850 2975 3272 
Q 2975 3691 2734 3919 
Q 2494 4147 2053 4147 
L 1259 4147 
z
M 628 4666 
L 2053 4666 
Q 2838 4666 3239 4311 
Q 3641 3956 3641 3272 
Q 3641 2581 3239 2228 
Q 2838 1875 2053 1875 
L 1259 1875 
L 1259 0 
L 628 0 
L 628 4666 
z
" transform="scale(0.015625)"/>
      <path id="DejaVuSans-39" d="M 703 97 
L 703 672 
Q 941 559 1184 500 
Q 1428 441 1663 441 
Q 2288 441 2617 861 
Q 2947 1281 2994 2138 
Q 2813 1869 2534 1725 
Q 2256 1581 1919 1581 
Q 1219 1581 811 2004 
Q 403 2428 403 3163 
Q 403 3881 828 4315 
Q 1253 4750 1959 4750 
Q 2769 4750 3195 4129 
Q 3622 3509 3622 2328 
Q 3622 1225 3098 567 
Q 2575 -91 1691 -91 
Q 1453 -91 1209 -44 
Q 966 3 703 97 
z
M 1959 2075 
Q 2384 2075 2632 2365 
Q 2881 2656 2881 3163 
Q 2881 3666 2632 3958 
Q 2384 4250 1959 4250 
Q 1534 4250 1286 3958 
Q 1038 3666 1038 3163 
Q 1038 2656 1286 2365 
Q 1534 2075 1959 2075 
z
" transform="scale(0.015625)"/>
      <path id="DejaVuSans-64" d="M 2906 2969 
L 2906 4863 
L 3481 4863 
L 3481 0 
L 2906 0 
L 2906 525 
Q 2725 213 2448 61 
Q 2172 -91 1784 -91 
Q 1150 -91 751 415 
Q 353 922 353 1747 
Q 353 2572 751 3078 
Q 1150 3584 1784 3584 
Q 2172 3584 2448 3432 
Q 2725 3281 2906 2969 
z
M 947 1747 
Q 947 1113 1208 752 
Q 1469 391 1925 391 
Q 2381 391 2643 752 
Q 2906 1113 2906 1747 
Q 2906 2381 2643 2742 
Q 2381 3103 1925 3103 
Q 1469 3103 1208 2742 
Q 947 2381 947 1747 
z
" transform="scale(0.015625)"/>
      <path id="DejaVuSans-6f" d="M 1959 3097 
Q 1497 3097 1228 2736 
Q 959 2375 959 1747 
Q 959 1119 1226 758 
Q 1494 397 1959 397 
Q 2419 397 2687 759 
Q 2956 1122 2956 1747 
Q 2956 2369 2687 2733 
Q 2419 3097 1959 3097 
z
M 1959 3584 
Q 2709 3584 3137 3096 
Q 3566 2609 3566 1747 
Q 3566 888 3137 398 
Q 2709 -91 1959 -91 
Q 1206 -91 779 398 
Q 353 888 353 1747 
Q 353 2609 779 3096 
Q 1206 3584 1959 3584 
z
" transform="scale(0.015625)"/>
      <path id="DejaVuSans-55" d="M 556 4666 
L 1191 4666 
L 1191 1831 
Q 1191 1081 1462 751 
Q 1734 422 2344 422 
Q 2950 422 3222 751 
Q 3494 1081 3494 1831 
L 3494 4666 
L 4128 4666 
L 4128 1753 
Q 4128 841 3676 375 
Q 3225 -91 2344 -91 
Q 1459 -91 1007 375 
Q 556 841 556 1753 
L 556 4666 
z
" transform="scale(0.015625)"/>
      <path id="DejaVuSans-58" d="M 403 4666 
L 1081 4666 
L 2241 2931 
L 3406 4666 
L 4084 4666 
L 2584 2425 
L 4184 0 
L 3506 0 
L 2194 1984 
L 872 0 
L 191 0 
L 1856 2491 
L 403 4666 
z
" transform="scale(0.015625)"/>
      <path id="DejaVuSans-2c" d="M 750 794 
L 1409 794 
L 1409 256 
L 897 -744 
L 494 -744 
L 750 256 
L 750 794 
z
" transform="scale(0.015625)"/>
      <path id="DejaVuSans-68" d="M 3513 2113 
L 3513 0 
L 2938 0 
L 2938 2094 
Q 2938 2591 2744 2837 
Q 2550 3084 2163 3084 
Q 1697 3084 1428 2787 
Q 1159 2491 1159 1978 
L 1159 0 
L 581 0 
L 581 4863 
L 1159 4863 
L 1159 2956 
Q 1366 3272 1645 3428 
Q 1925 3584 2291 3584 
Q 2894 3584 3203 3211 
Q 3513 2838 3513 2113 
z
" transform="scale(0.015625)"/>
      <path id="DejaVuSans-76" d="M 191 3500 
L 800 3500 
L 1894 563 
L 2988 3500 
L 3597 3500 
L 2284 0 
L 1503 0 
L 191 3500 
z
" transform="scale(0.015625)"/>
      <path id="DejaVuSans-67" d="M 2906 1791 
Q 2906 2416 2648 2759 
Q 2391 3103 1925 3103 
Q 1463 3103 1205 2759 
Q 947 2416 947 1791 
Q 947 1169 1205 825 
Q 1463 481 1925 481 
Q 2391 481 2648 825 
Q 2906 1169 2906 1791 
z
M 3481 434 
Q 3481 -459 3084 -895 
Q 2688 -1331 1869 -1331 
Q 1566 -1331 1297 -1286 
Q 1028 -1241 775 -1147 
L 775 -588 
Q 1028 -725 1275 -790 
Q 1522 -856 1778 -856 
Q 2344 -856 2625 -561 
Q 2906 -266 2906 331 
L 2906 616 
Q 2728 306 2450 153 
Q 2172 0 1784 0 
Q 1141 0 747 490 
Q 353 981 353 1791 
Q 353 2603 747 3093 
Q 1141 3584 1784 3584 
Q 2172 3584 2450 3431 
Q 2728 3278 2906 2969 
L 2906 3500 
L 3481 3500 
L 3481 434 
z
" transform="scale(0.015625)"/>
     </defs>
     <use xlink:href="#DejaVuSans-4f"/>
     <use xlink:href="#DejaVuSans-6e" transform="translate(78.710938 0)"/>
     <use xlink:href="#DejaVuSans-6c" transform="translate(142.089844 0)"/>
     <use xlink:href="#DejaVuSans-69" transform="translate(169.873047 0)"/>
     <use xlink:href="#DejaVuSans-6e" transform="translate(197.65625 0)"/>
     <use xlink:href="#DejaVuSans-65" transform="translate(261.035156 0)"/>
     <use xlink:href="#DejaVuSans-20" transform="translate(322.558594 0)"/>
     <use xlink:href="#DejaVuSans-69" transform="translate(354.345703 0)"/>
     <use xlink:href="#DejaVuSans-6e" transform="translate(382.128906 0)"/>
     <use xlink:href="#DejaVuSans-66" transform="translate(445.507812 0)"/>
     <use xlink:href="#DejaVuSans-65" transform="translate(480.712891 0)"/>
     <use xlink:href="#DejaVuSans-72" transform="translate(542.236328 0)"/>
     <use xlink:href="#DejaVuSans-65" transform="translate(581.099609 0)"/>
     <use xlink:href="#DejaVuSans-6e" transform="translate(642.623047 0)"/>
     <use xlink:href="#DejaVuSans-63" transform="translate(706.001953 0)"/>
     <use xlink:href="#DejaVuSans-65" transform="translate(760.982422 0)"/>
     <use xlink:href="#DejaVuSans-3a" transform="translate(822.505859 0)"/>
     <use xlink:href="#DejaVuSans-20" transform="translate(856.197266 0)"/>
     <use xlink:href="#DejaVuSans-50" transform="translate(887.984375 0)"/>
     <use xlink:href="#DejaVuSans-39" transform="translate(948.287109 0)"/>
     <use xlink:href="#DejaVuSans-39" transform="translate(1011.910156 0)"/>
     <use xlink:href="#DejaVuSans-20" transform="translate(1075.533203 0)"/>
     <use xlink:href="#DejaVuSans-64" transform="translate(1107.320312 0)"/>
     <use xlink:href="#DejaVuSans-6f" transform="translate(1170.796875 0)"/>
     <use xlink:href="#DejaVuSans-6d" transform="translate(1231.978516 0)"/>
     <use xlink:href="#DejaVuSans-69" transform="translate(1329.390625 0)"/>
     <use xlink:href="#DejaVuSans-6e" transform="translate(1357.173828 0)"/>
     <use xlink:href="#DejaVuSans-61" transform="translate(1420.552734 0)"/>
     <use xlink:href="#DejaVuSans-74" transform="translate(1481.832031 0)"/>
     <use xlink:href="#DejaVuSans-65" transform="translate(1521.041016 0)"/>
     <use xlink:href="#DejaVuSans-73" transform="translate(1582.564453 0)"/>
     <use xlink:href="#DejaVuSans-20" transform="translate(1634.664062 0)"/>
     <use xlink:href="#DejaVuSans-55" transform="translate(1666.451172 0)"/>
     <use xlink:href="#DejaVuSans-58" transform="translate(1739.644531 0)"/>
     <use xlink:href="#DejaVuSans-2c" transform="translate(1808.150391 0)"/>
     <use xlink:href="#DejaVuSans-20" transform="translate(1839.9375 0)"/>
     <use xlink:href="#DejaVuSans-6e" transform="translate(1871.724609 0)"/>
     <use xlink:href="#DejaVuSans-6f" transform="translate(1935.103516 0)"/>
     <use xlink:href="#DejaVuSans-74" transform="translate(1996.285156 0)"/>
     <use xlink:href="#DejaVuSans-20" transform="translate(2035.494141 0)"/>
     <use xlink:href="#DejaVuSans-74" transform="translate(2067.28125 0)"/>
     <use xlink:href="#DejaVuSans-68" transform="translate(2106.490234 0)"/>
     <use xlink:href="#DejaVuSans-65" transform="translate(2169.869141 0)"/>
     <use xlink:href="#DejaVuSans-20" transform="translate(2231.392578 0)"/>
     <use xlink:href="#DejaVuSans-61" transform="translate(2263.179688 0)"/>
     <use xlink:href="#DejaVuSans-76" transform="translate(2324.458984 0)"/>
     <use xlink:href="#DejaVuSans-65" transform="translate(2383.638672 0)"/>
     <use xlink:href="#DejaVuSans-72" transform="translate(2445.162109 0)"/>
     <use xlink:href="#DejaVuSans-61" transform="translate(2486.275391 0)"/>
     <use xlink:href="#DejaVuSans-67" transform="translate(2547.554688 0)"/>
     <use xlink:href="#DejaVuSans-65" transform="translate(2611.03125 0)"/>
    </g>
   </g>
   <g id="legend_1">
    <g id="patch_87">
     <path d="M 490.8925 74.3525 
L 590.420625 74.3525 
Q 592.420625 74.3525 592.420625 72.3525 
L 592.420625 29.318125 
Q 592.420625 27.318125 590.420625 27.318125 
L 490.8925 27.318125 
Q 488.8925 27.318125 488.8925 29.318125 
L 488.8925 72.3525 
Q 488.8925 74.3525 490.8925 74.3525 
z
" style="fill: #ffffff; opacity: 0.8; stroke: #cccccc; stroke-linejoin: miter"/>
    </g>
    <g id="line2d_32">
     <path d="M 492.8925 35.416562 
L 502.8925 35.416562 
L 512.8925 35.416562 
" style="fill: none; stroke-dasharray: 7.4,3.2; stroke-dashoffset: 0; stroke: #59a14f; stroke-width: 2"/>
    </g>
    <g id="text_18">
     <!-- P50 = 26ms -->
     <g transform="translate(520.8925 38.916562) scale(0.1 -0.1)">
      <defs>
       <path id="DejaVuSans-3d" d="M 678 2906 
L 4684 2906 
L 4684 2381 
L 678 2381 
L 678 2906 
z
M 678 1631 
L 4684 1631 
L 4684 1100 
L 678 1100 
L 678 1631 
z
" transform="scale(0.015625)"/>
      </defs>
      <use xlink:href="#DejaVuSans-50"/>
      <use xlink:href="#DejaVuSans-35" transform="translate(60.302734 0)"/>
      <use xlink:href="#DejaVuSans-30" transform="translate(123.925781 0)"/>
      <use xlink:href="#DejaVuSans-20" transform="translate(187.548828 0)"/>
      <use xlink:href="#DejaVuSans-3d" transform="translate(219.335938 0)"/>
      <use xlink:href="#DejaVuSans-20" transform="translate(303.125 0)"/>
      <use xlink:href="#DejaVuSans-32" transform="translate(334.912109 0)"/>
      <use xlink:href="#DejaVuSans-36" transform="translate(398.535156 0)"/>
      <use xlink:href="#DejaVuSans-6d" transform="translate(462.158203 0)"/>
      <use xlink:href="#DejaVuSans-73" transform="translate(559.570312 0)"/>
     </g>
    </g>
    <g id="line2d_33">
     <path d="M 492.8925 50.094688 
L 502.8925 50.094688 
L 512.8925 50.094688 
" style="fill: none; stroke-dasharray: 7.4,3.2; stroke-dashoffset: 0; stroke: #f28e2b; stroke-width: 2"/>
    </g>
    <g id="text_19">
     <!-- P95 = 83ms -->
     <g transform="translate(520.8925 53.594688) scale(0.1 -0.1)">
      <use xlink:href="#DejaVuSans-50"/>
      <use xlink:href="#DejaVuSans-39" transform="translate(60.302734 0)"/>
      <use xlink:href="#DejaVuSans-35" transform="translate(123.925781 0)"/>
      <use xlink:href="#DejaVuSans-20" transform="translate(187.548828 0)"/>
      <use xlink:href="#DejaVuSans-3d" transform="translate(219.335938 0)"/>
      <use xlink:href="#DejaVuSans-20" transform="translate(303.125 0)"/>
      <use xlink:href="#DejaVuSans-38" transform="translate(334.912109 0)"/>
      <use xlink:href="#DejaVuSans-33" transform="translate(398.535156 0)"/>
      <use xlink:href="#DejaVuSans-6d" transform="translate(462.158203 0)"/>
      <use xlink:href="#DejaVuSans-73" transform="translate(559.570312 0)"/>
     </g>
    </g>
    <g id="line2d_34">
     <path d="M 492.8925 64.772812 
L 502.8925 64.772812 
L 512.8925 64.772812 
" style="fill: none; stroke-dasharray: 7.4,3.2; stroke-dashoffset: 0; stroke: #e15759; stroke-width: 2"/>
    </g>
    <g id="text_20">
     <!-- P99 = 160ms -->
     <g transform="translate(520.8925 68.272812) scale(0.1 -0.1)">
      <use xlink:href="#DejaVuSans-50"/>
      <use xlink:href="#DejaVuSans-39" transform="translate(60.302734 0)"/>
      <use xlink:href="#DejaVuSans-39" transform="translate(123.925781 0)"/>
      <use xlink:href="#DejaVuSans-20" transform="translate(187.548828 0)"/>
      <use xlink:href="#DejaVuSans-3d" transform="translate(219.335938 0)"/>
      <use xlink:href="#DejaVuSans-20" transform="translate(303.125 0)"/>
      <use xlink:href="#DejaVuSans-31" transform="translate(334.912109 0)"/>
      <use xlink:href="#DejaVuSans-36" transform="translate(398.535156 0)"/>
      <use xlink:href="#DejaVuSans-30" transform="translate(462.158203 0)"/>
      <use xlink:href="#DejaVuSans-6d" transform="translate(525.78125 0)"/>
      <use xlink:href="#DejaVuSans-73" transform="translate(623.193359 0)"/>
     </g>
    </g>
   </g>
  </g>
 </g>
 <defs>
  <clipPath id="p9953cfa9af">
   <rect x="59.690625" y="22.318125" width="537.73" height="255.16"/>
  </clipPath>
 </defs>
</svg>
