<?xml version="1.0" encoding="utf-8" standalone="no"?>
<!DOCTYPE svg PUBLIC "-//W3C//DTD SVG 1.1//EN"
  "http://www.w3.org/Graphics/SVG/1.1/DTD/svg11.dtd">
<svg xmlns:xlink="http://www.w3.org/1999/xlink" width="568.46125pt" height="347.722375pt" viewBox="0 0 568.46125 347.722375" xmlns="http://www.w3.org/2000/svg" version="1.1">
 <metadata>
  <rdf:RDF xmlns:dc="http://purl.org/dc/elements/1.1/" xmlns:cc="http://creativecommons.org/ns#" xmlns:rdf="http://www.w3.org/1999/02/22-rdf-syntax-ns#">
   <cc:Work>
    <dc:type rdf:resource="http://purl.org/dc/dcmitype/StillImage"/>
    <dc:date>2026-05-26T11:29:39.323907</dc:date>
    <dc:format>image/svg+xml</dc:format>
    <dc:creator>
     <cc:Agent>
      <dc:title>Matplotlib v3.10.8, https://matplotlib.org/</dc:title>
     </cc:Agent>
    </dc:creator>
   </cc:Work>
  </rdf:RDF>
 </metadata>
 <defs>
  <style type="text/css">*{stroke-linejoin: round; stroke-linecap: butt}</style>
 </defs>
 <g id="figure_1">
  <g id="patch_1">
   <path d="M 0 347.722375 
L 568.46125 347.722375 
L 568.46125 0 
L 0 0 
z
" style="fill: #ffffff"/>
  </g>
  <g id="axes_1">
   <g id="patch_2">
    <path d="M 43.78125 310.166125 
L 561.26125 310.166125 
L 561.26125 22.318125 
L 43.78125 22.318125 
z
" style="fill: #ffffff"/>
   </g>
   <g id="matplotlib.axis_1">
    <g id="xtick_1">
     <g id="line2d_1">
      <path d="M 67.296655 310.166125 
L 67.296655 22.318125 
" clip-path="url(#p53b036248e)" style="fill: none; stroke: #b0b0b0; stroke-opacity: 0.25; stroke-width: 0.8; stroke-linecap: square"/>
     </g>
     <g id="line2d_2">
      <defs>
       <path id="m890d9ef2f1" d="M 0 0 
L 0 3.5 
" style="stroke: #000000; stroke-width: 0.8"/>
      </defs>
      <g>
       <use xlink:href="#m890d9ef2f1" x="67.296655" y="310.166125" style="stroke: #000000; stroke-width: 0.8"/>
      </g>
     </g>
     <g id="text_1">
      <!-- $\mathdefault{10^{0}}$ -->
      <g transform="translate(58.496655 324.764563) scale(0.1 -0.1)">
       <defs>
        <path id="DejaVuSans-31" d="M 794 531 
L 1825 531 
L 1825 4091 
L 703 3866 
L 703 4441 
L 1819 4666 
L 2450 4666 
L 2450 531 
L 3481 531 
L 3481 0 
L 794 0 
L 794 531 
z
" transform="scale(0.015625)"/>
        <path id="DejaVuSans-30" d="M 2034 4250 
Q 1547 4250 1301 3770 
Q 1056 3291 1056 2328 
Q 1056 1369 1301 889 
Q 1547 409 2034 409 
Q 2525 409 2770 889 
Q 3016 1369 3016 2328 
Q 3016 3291 2770 3770 
Q 2525 4250 2034 4250 
z
M 2034 4750 
Q 2819 4750 3233 4129 
Q 3647 3509 3647 2328 
Q 3647 1150 3233 529 
Q 2819 -91 2034 -91 
Q 1250 -91 836 529 
Q 422 1150 422 2328 
Q 422 3509 836 4129 
Q 1250 4750 2034 4750 
z
" transform="scale(0.015625)"/>
       </defs>
       <use xlink:href="#DejaVuSans-31" transform="translate(0 0.765625)"/>
       <use xlink:href="#DejaVuSans-30" transform="translate(63.623047 0.765625)"/>
       <use xlink:href="#DejaVuSans-30" transform="translate(128.203125 39.046875) scale(0.7)"/>
      </g>
     </g>
    </g>
    <g id="xtick_2">
     <g id="line2d_3">
      <path d="M 254.143456 310.166125 
L 254.143456 22.318125 
" clip-path="url(#p53b036248e)" style="fill: none; stroke: #b0b0b0; stroke-opacity: 0.25; stroke-width: 0.8; stroke-linecap: square"/>
     </g>
     <g id="line2d_4">
      <g>
       <use xlink:href="#m890d9ef2f1" x="254.143456" y="310.166125" style="stroke: #000000; stroke-width: 0.8"/>
      </g>
     </g>
     <g id="text_2">
      <!-- $\mathdefault{10^{1}}$ -->
      <g transform="translate(245.343456 324.764563) scale(0.1 -0.1)">
       <use xlink:href="#DejaVuSans-31" transform="translate(0 0.684375)"/>
       <use xlink:href="#DejaVuSans-30" transform="translate(63.623047 0.684375)"/>
       <use xlink:href="#DejaVuSans-31" transform="translate(128.203125 38.965625) scale(0.7)"/>
      </g>
     </g>
    </g>
    <g id="xtick_3">
     <g id="line2d_5">
      <path d="M 440.990257 310.166125 
L 440.990257 22.318125 
" clip-path="url(#p53b036248e)" style="fill: none; stroke: #b0b0b0; stroke-opacity: 0.25; stroke-width: 0.8; stroke-linecap: square"/>
     </g>
     <g id="line2d_6">
      <g>
       <use xlink:href="#m890d9ef2f1" x="440.990257" y="310.166125" style="stroke: #000000; stroke-width: 0.8"/>
      </g>
     </g>
     <g id="text_3">
      <!-- $\mathdefault{10^{2}}$ -->
      <g transform="translate(432.190257 324.764563) scale(0.1 -0.1)">
       <defs>
        <path id="DejaVuSans-32" d="M 1228 531 
L 3431 531 
L 3431 0 
L 469 0 
L 469 531 
Q 828 903 1448 1529 
Q 2069 2156 2228 2338 
Q 2531 2678 2651 2914 
Q 2772 3150 2772 3378 
Q 2772 3750 2511 3984 
Q 2250 4219 1831 4219 
Q 1534 4219 1204 4116 
Q 875 4013 500 3803 
L 500 4441 
Q 881 4594 1212 4672 
Q 1544 4750 1819 4750 
Q 2544 4750 2975 4387 
Q 3406 4025 3406 3419 
Q 3406 3131 3298 2873 
Q 3191 2616 2906 2266 
Q 2828 2175 2409 1742 
Q 1991 1309 1228 531 
z
" transform="scale(0.015625)"/>
       </defs>
       <use xlink:href="#DejaVuSans-31" transform="translate(0 0.765625)"/>
       <use xlink:href="#DejaVuSans-30" transform="translate(63.623047 0.765625)"/>
       <use xlink:href="#DejaVuSans-32" transform="translate(128.203125 39.046875) scale(0.7)"/>
      </g>
     </g>
    </g>
    <g id="xtick_4">
     <g id="line2d_7">
      <defs>
       <path id="m4a784095b7" d="M 0 0 
L 0 2 
" style="stroke: #000000; stroke-width: 0.6"/>
      </defs>
      <g>
       <use xlink:href="#m4a784095b7" x="49.18933" y="310.166125" style="stroke: #000000; stroke-width: 0.6"/>
      </g>
     </g>
    </g>
    <g id="xtick_5">
     <g id="line2d_8">
      <g>
       <use xlink:href="#m4a784095b7" x="58.747015" y="310.166125" style="stroke: #000000; stroke-width: 0.6"/>
      </g>
     </g>
    </g>
    <g id="xtick_6">
     <g id="line2d_9">
      <g>
       <use xlink:href="#m4a784095b7" x="123.543147" y="310.166125" style="stroke: #000000; stroke-width: 0.6"/>
      </g>
     </g>
    </g>
    <g id="xtick_7">
     <g id="line2d_10">
      <g>
       <use xlink:href="#m4a784095b7" x="156.445235" y="310.166125" style="stroke: #000000; stroke-width: 0.6"/>
      </g>
     </g>
    </g>
    <g id="xtick_8">
     <g id="line2d_11">
      <g>
       <use xlink:href="#m4a784095b7" x="179.789639" y="310.166125" style="stroke: #000000; stroke-width: 0.6"/>
      </g>
     </g>
    </g>
    <g id="xtick_9">
     <g id="line2d_12">
      <g>
       <use xlink:href="#m4a784095b7" x="197.896965" y="310.166125" style="stroke: #000000; stroke-width: 0.6"/>
      </g>
     </g>
    </g>
    <g id="xtick_10">
     <g id="line2d_13">
      <g>
       <use xlink:href="#m4a784095b7" x="212.691727" y="310.166125" style="stroke: #000000; stroke-width: 0.6"/>
      </g>
     </g>
    </g>
    <g id="xtick_11">
     <g id="line2d_14">
      <g>
       <use xlink:href="#m4a784095b7" x="225.200521" y="310.166125" style="stroke: #000000; stroke-width: 0.6"/>
      </g>
     </g>
    </g>
    <g id="xtick_12">
     <g id="line2d_15">
      <g>
       <use xlink:href="#m4a784095b7" x="236.03613" y="310.166125" style="stroke: #000000; stroke-width: 0.6"/>
      </g>
     </g>
    </g>
    <g id="xtick_13">
     <g id="line2d_16">
      <g>
       <use xlink:href="#m4a784095b7" x="245.593816" y="310.166125" style="stroke: #000000; stroke-width: 0.6"/>
      </g>
     </g>
    </g>
    <g id="xtick_14">
     <g id="line2d_17">
      <g>
       <use xlink:href="#m4a784095b7" x="310.389948" y="310.166125" style="stroke: #000000; stroke-width: 0.6"/>
      </g>
     </g>
    </g>
    <g id="xtick_15">
     <g id="line2d_18">
      <g>
       <use xlink:href="#m4a784095b7" x="343.292036" y="310.166125" style="stroke: #000000; stroke-width: 0.6"/>
      </g>
     </g>
    </g>
    <g id="xtick_16">
     <g id="line2d_19">
      <g>
       <use xlink:href="#m4a784095b7" x="366.63644" y="310.166125" style="stroke: #000000; stroke-width: 0.6"/>
      </g>
     </g>
    </g>
    <g id="xtick_17">
     <g id="line2d_20">
      <g>
       <use xlink:href="#m4a784095b7" x="384.743765" y="310.166125" style="stroke: #000000; stroke-width: 0.6"/>
      </g>
     </g>
    </g>
    <g id="xtick_18">
     <g id="line2d_21">
      <g>
       <use xlink:href="#m4a784095b7" x="399.538528" y="310.166125" style="stroke: #000000; stroke-width: 0.6"/>
      </g>
     </g>
    </g>
    <g id="xtick_19">
     <g id="line2d_22">
      <g>
       <use xlink:href="#m4a784095b7" x="412.047321" y="310.166125" style="stroke: #000000; stroke-width: 0.6"/>
      </g>
     </g>
    </g>
    <g id="xtick_20">
     <g id="line2d_23">
      <g>
       <use xlink:href="#m4a784095b7" x="422.882931" y="310.166125" style="stroke: #000000; stroke-width: 0.6"/>
      </g>
     </g>
    </g>
    <g id="xtick_21">
     <g id="line2d_24">
      <g>
       <use xlink:href="#m4a784095b7" x="432.440616" y="310.166125" style="stroke: #000000; stroke-width: 0.6"/>
      </g>
     </g>
    </g>
    <g id="xtick_22">
     <g id="line2d_25">
      <g>
       <use xlink:href="#m4a784095b7" x="497.236749" y="310.166125" style="stroke: #000000; stroke-width: 0.6"/>
      </g>
     </g>
    </g>
    <g id="xtick_23">
     <g id="line2d_26">
      <g>
       <use xlink:href="#m4a784095b7" x="530.138837" y="310.166125" style="stroke: #000000; stroke-width: 0.6"/>
      </g>
     </g>
    </g>
    <g id="xtick_24">
     <g id="line2d_27">
      <g>
       <use xlink:href="#m4a784095b7" x="553.48324" y="310.166125" style="stroke: #000000; stroke-width: 0.6"/>
      </g>
     </g>
    </g>
    <g id="text_4">
     <!-- latency (ms, log scale) -->
     <g transform="translate(245.915 338.442687) scale(0.1 -0.1)">
      <defs>
       <path id="DejaVuSans-6c" d="M 603 4863 
L 1178 4863 
L 1178 0 
L 603 0 
L 603 4863 
z
" transform="scale(0.015625)"/>
       <path id="DejaVuSans-61" d="M 2194 1759 
Q 1497 1759 1228 1600 
Q 959 1441 959 1056 
Q 959 750 1161 570 
Q 1363 391 1709 391 
Q 2188 391 2477 730 
Q 2766 1069 2766 1631 
L 2766 1759 
L 2194 1759 
z
M 3341 1997 
L 3341 0 
L 2766 0 
L 2766 531 
Q 2569 213 2275 61 
Q 1981 -91 1556 -91 
Q 1019 -91 701 211 
Q 384 513 384 1019 
Q 384 1609 779 1909 
Q 1175 2209 1959 2209 
L 2766 2209 
L 2766 2266 
Q 2766 2663 2505 2880 
Q 2244 3097 1772 3097 
Q 1472 3097 1187 3025 
Q 903 2953 641 2809 
L 641 3341 
Q 956 3463 1253 3523 
Q 1550 3584 1831 3584 
Q 2591 3584 2966 3190 
Q 3341 2797 3341 1997 
z
" transform="scale(0.015625)"/>
       <path id="DejaVuSans-74" d="M 1172 4494 
L 1172 3500 
L 2356 3500 
L 2356 3053 
L 1172 3053 
L 1172 1153 
Q 1172 725 1289 603 
Q 1406 481 1766 481 
L 2356 481 
L 2356 0 
L 1766 0 
Q 1100 0 847 248 
Q 594 497 594 1153 
L 594 3053 
L 172 3053 
L 172 3500 
L 594 3500 
L 594 4494 
L 1172 4494 
z
" transform="scale(0.015625)"/>
       <path id="DejaVuSans-65" d="M 3597 1894 
L 3597 1613 
L 953 1613 
Q 991 1019 1311 708 
Q 1631 397 2203 397 
Q 2534 397 2845 478 
Q 3156 559 3463 722 
L 3463 178 
Q 3153 47 2828 -22 
Q 2503 -91 2169 -91 
Q 1331 -91 842 396 
Q 353 884 353 1716 
Q 353 2575 817 3079 
Q 1281 3584 2069 3584 
Q 2775 3584 3186 3129 
Q 3597 2675 3597 1894 
z
M 3022 2063 
Q 3016 2534 2758 2815 
Q 2500 3097 2075 3097 
Q 1594 3097 1305 2825 
Q 1016 2553 972 2059 
L 3022 2063 
z
" transform="scale(0.015625)"/>
       <path id="DejaVuSans-6e" d="M 3513 2113 
L 3513 0 
L 2938 0 
L 2938 2094 
Q 2938 2591 2744 2837 
Q 2550 3084 2163 3084 
Q 1697 3084 1428 2787 
Q 1159 2491 1159 1978 
L 1159 0 
L 581 0 
L 581 3500 
L 1159 3500 
L 1159 2956 
Q 1366 3272 1645 3428 
Q 1925 3584 2291 3584 
Q 2894 3584 3203 3211 
Q 3513 2838 3513 2113 
z
" transform="scale(0.015625)"/>
       <path id="DejaVuSans-63" d="M 3122 3366 
L 3122 2828 
Q 2878 2963 2633 3030 
Q 2388 3097 2138 3097 
Q 1578 3097 1268 2742 
Q 959 2388 959 1747 
Q 959 1106 1268 751 
Q 1578 397 2138 397 
Q 2388 397 2633 464 
Q 2878 531 3122 666 
L 3122 134 
Q 2881 22 2623 -34 
Q 2366 -91 2075 -91 
Q 1284 -91 818 406 
Q 353 903 353 1747 
Q 353 2603 823 3093 
Q 1294 3584 2113 3584 
Q 2378 3584 2631 3529 
Q 2884 3475 3122 3366 
z
" transform="scale(0.015625)"/>
       <path id="DejaVuSans-79" d="M 2059 -325 
Q 1816 -950 1584 -1140 
Q 1353 -1331 966 -1331 
L 506 -1331 
L 506 -850 
L 844 -850 
Q 1081 -850 1212 -737 
Q 1344 -625 1503 -206 
L 1606 56 
L 191 3500 
L 800 3500 
L 1894 763 
L 2988 3500 
L 3597 3500 
L 2059 -325 
z
" transform="scale(0.015625)"/>
       <path id="DejaVuSans-20" transform="scale(0.015625)"/>
       <path id="DejaVuSans-28" d="M 1984 4856 
Q 1566 4138 1362 3434 
Q 1159 2731 1159 2009 
Q 1159 1288 1364 580 
Q 1569 -128 1984 -844 
L 1484 -844 
Q 1016 -109 783 600 
Q 550 1309 550 2009 
Q 550 2706 781 3412 
Q 1013 4119 1484 4856 
L 1984 4856 
z
" transform="scale(0.015625)"/>
       <path id="DejaVuSans-6d" d="M 3328 2828 
Q 3544 3216 3844 3400 
Q 4144 3584 4550 3584 
Q 5097 3584 5394 3201 
Q 5691 2819 5691 2113 
L 5691 0 
L 5113 0 
L 5113 2094 
Q 5113 2597 4934 2840 
Q 4756 3084 4391 3084 
Q 3944 3084 3684 2787 
Q 3425 2491 3425 1978 
L 3425 0 
L 2847 0 
L 2847 2094 
Q 2847 2600 2669 2842 
Q 2491 3084 2119 3084 
Q 1678 3084 1418 2786 
Q 1159 2488 1159 1978 
L 1159 0 
L 581 0 
L 581 3500 
L 1159 3500 
L 1159 2956 
Q 1356 3278 1631 3431 
Q 1906 3584 2284 3584 
Q 2666 3584 2933 3390 
Q 3200 3197 3328 2828 
z
" transform="scale(0.015625)"/>
       <path id="DejaVuSans-73" d="M 2834 3397 
L 2834 2853 
Q 2591 2978 2328 3040 
Q 2066 3103 1784 3103 
Q 1356 3103 1142 2972 
Q 928 2841 928 2578 
Q 928 2378 1081 2264 
Q 1234 2150 1697 2047 
L 1894 2003 
Q 2506 1872 2764 1633 
Q 3022 1394 3022 966 
Q 3022 478 2636 193 
Q 2250 -91 1575 -91 
Q 1294 -91 989 -36 
Q 684 19 347 128 
L 347 722 
Q 666 556 975 473 
Q 1284 391 1588 391 
Q 1994 391 2212 530 
Q 2431 669 2431 922 
Q 2431 1156 2273 1281 
Q 2116 1406 1581 1522 
L 1381 1569 
Q 847 1681 609 1914 
Q 372 2147 372 2553 
Q 372 3047 722 3315 
Q 1072 3584 1716 3584 
Q 2034 3584 2315 3537 
Q 2597 3491 2834 3397 
z
" transform="scale(0.015625)"/>
       <path id="DejaVuSans-2c" d="M 750 794 
L 1409 794 
L 1409 256 
L 897 -744 
L 494 -744 
L 750 256 
L 750 794 
z
" transform="scale(0.015625)"/>
       <path id="DejaVuSans-6f" d="M 1959 3097 
Q 1497 3097 1228 2736 
Q 959 2375 959 1747 
Q 959 1119 1226 758 
Q 1494 397 1959 397 
Q 2419 397 2687 759 
Q 2956 1122 2956 1747 
Q 2956 2369 2687 2733 
Q 2419 3097 1959 3097 
z
M 1959 3584 
Q 2709 3584 3137 3096 
Q 3566 2609 3566 1747 
Q 3566 888 3137 398 
Q 2709 -91 1959 -91 
Q 1206 -91 779 398 
Q 353 888 353 1747 
Q 353 2609 779 3096 
Q 1206 3584 1959 3584 
z
" transform="scale(0.015625)"/>
       <path id="DejaVuSans-67" d="M 2906 1791 
Q 2906 2416 2648 2759 
Q 2391 3103 1925 3103 
Q 1463 3103 1205 2759 
Q 947 2416 947 1791 
Q 947 1169 1205 825 
Q 1463 481 1925 481 
Q 2391 481 2648 825 
Q 2906 1169 2906 1791 
z
M 3481 434 
Q 3481 -459 3084 -895 
Q 2688 -1331 1869 -1331 
Q 1566 -1331 1297 -1286 
Q 1028 -1241 775 -1147 
L 775 -588 
Q 1028 -725 1275 -790 
Q 1522 -856 1778 -856 
Q 2344 -856 2625 -561 
Q 2906 -266 2906 331 
L 2906 616 
Q 2728 306 2450 153 
Q 2172 0 1784 0 
Q 1141 0 747 490 
Q 353 981 353 1791 
Q 353 2603 747 3093 
Q 1141 3584 1784 3584 
Q 2172 3584 2450 3431 
Q 2728 3278 2906 2969 
L 2906 3500 
L 3481 3500 
L 3481 434 
z
" transform="scale(0.015625)"/>
       <path id="DejaVuSans-29" d="M 513 4856 
L 1013 4856 
Q 1481 4119 1714 3412 
Q 1947 2706 1947 2009 
Q 1947 1309 1714 600 
Q 1481 -109 1013 -844 
L 513 -844 
Q 928 -128 1133 580 
Q 1338 1288 1338 2009 
Q 1338 2731 1133 3434 
Q 928 4138 513 4856 
z
" transform="scale(0.015625)"/>
      </defs>
      <use xlink:href="#DejaVuSans-6c"/>
      <use xlink:href="#DejaVuSans-61" transform="translate(27.783203 0)"/>
      <use xlink:href="#DejaVuSans-74" transform="translate(89.0625 0)"/>
      <use xlink:href="#DejaVuSans-65" transform="translate(128.271484 0)"/>
      <use xlink:href="#DejaVuSans-6e" transform="translate(189.794922 0)"/>
      <use xlink:href="#DejaVuSans-63" transform="translate(253.173828 0)"/>
      <use xlink:href="#DejaVuSans-79" transform="translate(308.154297 0)"/>
      <use xlink:href="#DejaVuSans-20" transform="translate(367.333984 0)"/>
      <use xlink:href="#DejaVuSans-28" transform="translate(399.121094 0)"/>
      <use xlink:href="#DejaVuSans-6d" transform="translate(438.134766 0)"/>
      <use xlink:href="#DejaVuSans-73" transform="translate(535.546875 0)"/>
      <use xlink:href="#DejaVuSans-2c" transform="translate(587.646484 0)"/>
      <use xlink:href="#DejaVuSans-20" transform="translate(619.433594 0)"/>
      <use xlink:href="#DejaVuSans-6c" transform="translate(651.220703 0)"/>
      <use xlink:href="#DejaVuSans-6f" transform="translate(679.003906 0)"/>
      <use xlink:href="#DejaVuSans-67" transform="translate(740.185547 0)"/>
      <use xlink:href="#DejaVuSans-20" transform="translate(803.662109 0)"/>
      <use xlink:href="#DejaVuSans-73" transform="translate(835.449219 0)"/>
      <use xlink:href="#DejaVuSans-63" transform="translate(887.548828 0)"/>
      <use xlink:href="#DejaVuSans-61" transform="translate(942.529297 0)"/>
      <use xlink:href="#DejaVuSans-6c" transform="translate(1003.808594 0)"/>
      <use xlink:href="#DejaVuSans-65" transform="translate(1031.591797 0)"/>
      <use xlink:href="#DejaVuSans-29" transform="translate(1093.115234 0)"/>
     </g>
    </g>
   </g>
   <g id="matplotlib.axis_2">
    <g id="ytick_1">
     <g id="line2d_28">
      <path d="M 43.78125 297.09521 
L 561.26125 297.09521 
" clip-path="url(#p53b036248e)" style="fill: none; stroke: #b0b0b0; stroke-opacity: 0.25; stroke-width: 0.8; stroke-linecap: square"/>
     </g>
     <g id="line2d_29">
      <defs>
       <path id="m7ffc88eddb" d="M 0 0 
L -3.5 0 
" style="stroke: #000000; stroke-width: 0.8"/>
      </defs>
      <g>
       <use xlink:href="#m7ffc88eddb" x="43.78125" y="297.09521" style="stroke: #000000; stroke-width: 0.8"/>
      </g>
     </g>
     <g id="text_5">
      <!-- 0.0 -->
      <g transform="translate(20.878125 300.894428) scale(0.1 -0.1)">
       <defs>
        <path id="DejaVuSans-2e" d="M 684 794 
L 1344 794 
L 1344 0 
L 684 0 
L 684 794 
z
" transform="scale(0.015625)"/>
       </defs>
       <use xlink:href="#DejaVuSans-30"/>
       <use xlink:href="#DejaVuSans-2e" transform="translate(63.623047 0)"/>
       <use xlink:href="#DejaVuSans-30" transform="translate(95.410156 0)"/>
      </g>
     </g>
    </g>
    <g id="ytick_2">
     <g id="line2d_30">
      <path d="M 43.78125 244.756593 
L 561.26125 244.756593 
" clip-path="url(#p53b036248e)" style="fill: none; stroke: #b0b0b0; stroke-opacity: 0.25; stroke-width: 0.8; stroke-linecap: square"/>
     </g>
     <g id="line2d_31">
      <g>
       <use xlink:href="#m7ffc88eddb" x="43.78125" y="244.756593" style="stroke: #000000; stroke-width: 0.8"/>
      </g>
     </g>
     <g id="text_6">
      <!-- 0.2 -->
      <g transform="translate(20.878125 248.555811) scale(0.1 -0.1)">
       <use xlink:href="#DejaVuSans-30"/>
       <use xlink:href="#DejaVuSans-2e" transform="translate(63.623047 0)"/>
       <use xlink:href="#DejaVuSans-32" transform="translate(95.410156 0)"/>
      </g>
     </g>
    </g>
    <g id="ytick_3">
     <g id="line2d_32">
      <path d="M 43.78125 192.417976 
L 561.26125 192.417976 
" clip-path="url(#p53b036248e)" style="fill: none; stroke: #b0b0b0; stroke-opacity: 0.25; stroke-width: 0.8; stroke-linecap: square"/>
     </g>
     <g id="line2d_33">
      <g>
       <use xlink:href="#m7ffc88eddb" x="43.78125" y="192.417976" style="stroke: #000000; stroke-width: 0.8"/>
      </g>
     </g>
     <g id="text_7">
      <!-- 0.4 -->
      <g transform="translate(20.878125 196.217195) scale(0.1 -0.1)">
       <defs>
        <path id="DejaVuSans-34" d="M 2419 4116 
L 825 1625 
L 2419 1625 
L 2419 4116 
z
M 2253 4666 
L 3047 4666 
L 3047 1625 
L 3713 1625 
L 3713 1100 
L 3047 1100 
L 3047 0 
L 2419 0 
L 2419 1100 
L 313 1100 
L 313 1709 
L 2253 4666 
z
" transform="scale(0.015625)"/>
       </defs>
       <use xlink:href="#DejaVuSans-30"/>
       <use xlink:href="#DejaVuSans-2e" transform="translate(63.623047 0)"/>
       <use xlink:href="#DejaVuSans-34" transform="translate(95.410156 0)"/>
      </g>
     </g>
    </g>
    <g id="ytick_4">
     <g id="line2d_34">
      <path d="M 43.78125 140.079359 
L 561.26125 140.079359 
" clip-path="url(#p53b036248e)" style="fill: none; stroke: #b0b0b0; stroke-opacity: 0.25; stroke-width: 0.8; stroke-linecap: square"/>
     </g>
     <g id="line2d_35">
      <g>
       <use xlink:href="#m7ffc88eddb" x="43.78125" y="140.079359" style="stroke: #000000; stroke-width: 0.8"/>
      </g>
     </g>
     <g id="text_8">
      <!-- 0.6 -->
      <g transform="translate(20.878125 143.878578) scale(0.1 -0.1)">
       <defs>
        <path id="DejaVuSans-36" d="M 2113 2584 
Q 1688 2584 1439 2293 
Q 1191 2003 1191 1497 
Q 1191 994 1439 701 
Q 1688 409 2113 409 
Q 2538 409 2786 701 
Q 3034 994 3034 1497 
Q 3034 2003 2786 2293 
Q 2538 2584 2113 2584 
z
M 3366 4563 
L 3366 3988 
Q 3128 4100 2886 4159 
Q 2644 4219 2406 4219 
Q 1781 4219 1451 3797 
Q 1122 3375 1075 2522 
Q 1259 2794 1537 2939 
Q 1816 3084 2150 3084 
Q 2853 3084 3261 2657 
Q 3669 2231 3669 1497 
Q 3669 778 3244 343 
Q 2819 -91 2113 -91 
Q 1303 -91 875 529 
Q 447 1150 447 2328 
Q 447 3434 972 4092 
Q 1497 4750 2381 4750 
Q 2619 4750 2861 4703 
Q 3103 4656 3366 4563 
z
" transform="scale(0.015625)"/>
       </defs>
       <use xlink:href="#DejaVuSans-30"/>
       <use xlink:href="#DejaVuSans-2e" transform="translate(63.623047 0)"/>
       <use xlink:href="#DejaVuSans-36" transform="translate(95.410156 0)"/>
      </g>
     </g>
    </g>
    <g id="ytick_5">
     <g id="line2d_36">
      <path d="M 43.78125 87.740742 
L 561.26125 87.740742 
" clip-path="url(#p53b036248e)" style="fill: none; stroke: #b0b0b0; stroke-opacity: 0.25; stroke-width: 0.8; stroke-linecap: square"/>
     </g>
     <g id="line2d_37">
      <g>
       <use xlink:href="#m7ffc88eddb" x="43.78125" y="87.740742" style="stroke: #000000; stroke-width: 0.8"/>
      </g>
     </g>
     <g id="text_9">
      <!-- 0.8 -->
      <g transform="translate(20.878125 91.539961) scale(0.1 -0.1)">
       <defs>
        <path id="DejaVuSans-38" d="M 2034 2216 
Q 1584 2216 1326 1975 
Q 1069 1734 1069 1313 
Q 1069 891 1326 650 
Q 1584 409 2034 409 
Q 2484 409 2743 651 
Q 3003 894 3003 1313 
Q 3003 1734 2745 1975 
Q 2488 2216 2034 2216 
z
M 1403 2484 
Q 997 2584 770 2862 
Q 544 3141 544 3541 
Q 544 4100 942 4425 
Q 1341 4750 2034 4750 
Q 2731 4750 3128 4425 
Q 3525 4100 3525 3541 
Q 3525 3141 3298 2862 
Q 3072 2584 2669 2484 
Q 3125 2378 3379 2068 
Q 3634 1759 3634 1313 
Q 3634 634 3220 271 
Q 2806 -91 2034 -91 
Q 1263 -91 848 271 
Q 434 634 434 1313 
Q 434 1759 690 2068 
Q 947 2378 1403 2484 
z
M 1172 3481 
Q 1172 3119 1398 2916 
Q 1625 2713 2034 2713 
Q 2441 2713 2670 2916 
Q 2900 3119 2900 3481 
Q 2900 3844 2670 4047 
Q 2441 4250 2034 4250 
Q 1625 4250 1398 4047 
Q 1172 3844 1172 3481 
z
" transform="scale(0.015625)"/>
       </defs>
       <use xlink:href="#DejaVuSans-30"/>
       <use xlink:href="#DejaVuSans-2e" transform="translate(63.623047 0)"/>
       <use xlink:href="#DejaVuSans-38" transform="translate(95.410156 0)"/>
      </g>
     </g>
    </g>
    <g id="ytick_6">
     <g id="line2d_38">
      <path d="M 43.78125 35.402125 
L 561.26125 35.402125 
" clip-path="url(#p53b036248e)" style="fill: none; stroke: #b0b0b0; stroke-opacity: 0.25; stroke-width: 0.8; stroke-linecap: square"/>
     </g>
     <g id="line2d_39">
      <g>
       <use xlink:href="#m7ffc88eddb" x="43.78125" y="35.402125" style="stroke: #000000; stroke-width: 0.8"/>
      </g>
     </g>
     <g id="text_10">
      <!-- 1.0 -->
      <g transform="translate(20.878125 39.201344) scale(0.1 -0.1)">
       <use xlink:href="#DejaVuSans-31"/>
       <use xlink:href="#DejaVuSans-2e" transform="translate(63.623047 0)"/>
       <use xlink:href="#DejaVuSans-30" transform="translate(95.410156 0)"/>
      </g>
     </g>
    </g>
    <g id="text_11">
     <!-- cumulative fraction of requests -->
     <g transform="translate(14.798437 244.439) rotate(-90) scale(0.1 -0.1)">
      <defs>
       <path id="DejaVuSans-75" d="M 544 1381 
L 544 3500 
L 1119 3500 
L 1119 1403 
Q 1119 906 1312 657 
Q 1506 409 1894 409 
Q 2359 409 2629 706 
Q 2900 1003 2900 1516 
L 2900 3500 
L 3475 3500 
L 3475 0 
L 2900 0 
L 2900 538 
Q 2691 219 2414 64 
Q 2138 -91 1772 -91 
Q 1169 -91 856 284 
Q 544 659 544 1381 
z
M 1991 3584 
L 1991 3584 
z
" transform="scale(0.015625)"/>
       <path id="DejaVuSans-69" d="M 603 3500 
L 1178 3500 
L 1178 0 
L 603 0 
L 603 3500 
z
M 603 4863 
L 1178 4863 
L 1178 4134 
L 603 4134 
L 603 4863 
z
" transform="scale(0.015625)"/>
       <path id="DejaVuSans-76" d="M 191 3500 
L 800 3500 
L 1894 563 
L 2988 3500 
L 3597 3500 
L 2284 0 
L 1503 0 
L 191 3500 
z
" transform="scale(0.015625)"/>
       <path id="DejaVuSans-66" d="M 2375 4863 
L 2375 4384 
L 1825 4384 
Q 1516 4384 1395 4259 
Q 1275 4134 1275 3809 
L 1275 3500 
L 2222 3500 
L 2222 3053 
L 1275 3053 
L 1275 0 
L 697 0 
L 697 3053 
L 147 3053 
L 147 3500 
L 697 3500 
L 697 3744 
Q 697 4328 969 4595 
Q 1241 4863 1831 4863 
L 2375 4863 
z
" transform="scale(0.015625)"/>
       <path id="DejaVuSans-72" d="M 2631 2963 
Q 2534 3019 2420 3045 
Q 2306 3072 2169 3072 
Q 1681 3072 1420 2755 
Q 1159 2438 1159 1844 
L 1159 0 
L 581 0 
L 581 3500 
L 1159 3500 
L 1159 2956 
Q 1341 3275 1631 3429 
Q 1922 3584 2338 3584 
Q 2397 3584 2469 3576 
Q 2541 3569 2628 3553 
L 2631 2963 
z
" transform="scale(0.015625)"/>
       <path id="DejaVuSans-71" d="M 947 1747 
Q 947 1113 1208 752 
Q 1469 391 1925 391 
Q 2381 391 2643 752 
Q 2906 1113 2906 1747 
Q 2906 2381 2643 2742 
Q 2381 3103 1925 3103 
Q 1469 3103 1208 2742 
Q 947 2381 947 1747 
z
M 2906 525 
Q 2725 213 2448 61 
Q 2172 -91 1784 -91 
Q 1150 -91 751 415 
Q 353 922 353 1747 
Q 353 2572 751 3078 
Q 1150 3584 1784 3584 
Q 2172 3584 2448 3432 
Q 2725 3281 2906 2969 
L 2906 3500 
L 3481 3500 
L 3481 -1331 
L 2906 -1331 
L 2906 525 
z
" transform="scale(0.015625)"/>
      </defs>
      <use xlink:href="#DejaVuSans-63"/>
      <use xlink:href="#DejaVuSans-75" transform="translate(54.980469 0)"/>
      <use xlink:href="#DejaVuSans-6d" transform="translate(118.359375 0)"/>
      <use xlink:href="#DejaVuSans-75" transform="translate(215.771484 0)"/>
      <use xlink:href="#DejaVuSans-6c" transform="translate(279.150391 0)"/>
      <use xlink:href="#DejaVuSans-61" transform="translate(306.933594 0)"/>
      <use xlink:href="#DejaVuSans-74" transform="translate(368.212891 0)"/>
      <use xlink:href="#DejaVuSans-69" transform="translate(407.421875 0)"/>
      <use xlink:href="#DejaVuSans-76" transform="translate(435.205078 0)"/>
      <use xlink:href="#DejaVuSans-65" transform="translate(494.384766 0)"/>
      <use xlink:href="#DejaVuSans-20" transform="translate(555.908203 0)"/>
      <use xlink:href="#DejaVuSans-66" transform="translate(587.695312 0)"/>
      <use xlink:href="#DejaVuSans-72" transform="translate(622.900391 0)"/>
      <use xlink:href="#DejaVuSans-61" transform="translate(664.013672 0)"/>
      <use xlink:href="#DejaVuSans-63" transform="translate(725.292969 0)"/>
      <use xlink:href="#DejaVuSans-74" transform="translate(780.273438 0)"/>
      <use xlink:href="#DejaVuSans-69" transform="translate(819.482422 0)"/>
      <use xlink:href="#DejaVuSans-6f" transform="translate(847.265625 0)"/>
      <use xlink:href="#DejaVuSans-6e" transform="translate(908.447266 0)"/>
      <use xlink:href="#DejaVuSans-20" transform="translate(971.826172 0)"/>
      <use xlink:href="#DejaVuSans-6f" transform="translate(1003.613281 0)"/>
      <use xlink:href="#DejaVuSans-66" transform="translate(1064.794922 0)"/>
      <use xlink:href="#DejaVuSans-20" transform="translate(1100 0)"/>
      <use xlink:href="#DejaVuSans-72" transform="translate(1131.787109 0)"/>
      <use xlink:href="#DejaVuSans-65" transform="translate(1170.650391 0)"/>
      <use xlink:href="#DejaVuSans-71" transform="translate(1232.173828 0)"/>
      <use xlink:href="#DejaVuSans-75" transform="translate(1295.650391 0)"/>
      <use xlink:href="#DejaVuSans-65" transform="translate(1359.029297 0)"/>
      <use xlink:href="#DejaVuSans-73" transform="translate(1420.552734 0)"/>
      <use xlink:href="#DejaVuSans-74" transform="translate(1472.652344 0)"/>
      <use xlink:href="#DejaVuSans-73" transform="translate(1511.861328 0)"/>
     </g>
    </g>
   </g>
   <g id="line2d_40">
    <path d="M 199.131297 297.082125 
L 207.487036 296.938194 
L 207.5415 296.925109 
L 210.796097 296.794263 
L 223.866154 295.865252 
L 230.113529 295.171765 
L 230.131914 295.158681 
L 232.1625 294.98858 
L 234.187347 294.700718 
L 235.753598 294.543702 
L 237.618694 294.282009 
L 238.036928 294.151162 
L 238.986892 293.994147 
L 239.130402 293.941808 
L 240.437075 293.6932 
L 240.671247 293.627776 
L 244.00322 292.842697 
L 244.112172 292.764189 
L 245.231571 292.476327 
L 245.357738 292.423988 
L 246.396346 292.227718 
L 246.990212 292.123041 
L 247.742316 291.992195 
L 248.86078 291.730501 
L 249.680741 291.573486 
L 250.383261 291.351046 
L 250.883668 291.154777 
L 251.327521 291.02393 
L 251.372054 290.997761 
L 252.312701 290.762237 
L 252.460176 290.644475 
L 253.484495 290.382782 
L 254.087688 290.186512 
L 254.573541 290.055666 
L 254.69637 289.977158 
L 255.403687 289.728549 
L 255.552192 289.650041 
L 256.410207 289.322925 
L 256.557988 289.270586 
L 256.977292 289.008893 
L 258.106783 288.707946 
L 258.531266 288.511676 
L 259.009458 288.367745 
L 260.151162 287.844359 
L 260.258235 287.765851 
L 260.964225 287.543412 
L 261.245583 287.399481 
L 261.913691 287.163957 
L 262.072135 287.098534 
L 262.551197 286.915349 
L 263.119972 286.705994 
L 263.540214 286.431216 
L 264.120812 286.234947 
L 264.796395 285.90783 
L 265.373447 285.606883 
L 265.801871 285.449867 
L 266.109982 285.305936 
L 266.58683 285.122751 
L 267.025154 284.874143 
L 267.031107 284.861058 
L 267.367413 284.717127 
L 267.501151 284.638619 
L 268.246427 284.246079 
L 268.465656 284.167571 
L 269.099654 283.984386 
L 269.243618 283.932047 
L 269.841118 283.6311 
L 270.702839 283.06846 
L 271.575135 282.689005 
L 271.766804 282.558159 
L 272.361504 282.204873 
L 274.058462 281.275863 
L 274.30155 281.105762 
L 275.242558 280.595461 
L 275.321531 280.503868 
L 275.570334 280.373022 
L 275.760094 280.242175 
L 276.577146 279.823466 
L 278.625048 278.528085 
L 279.038079 278.357985 
L 279.247471 278.227138 
L 279.723166 277.991614 
L 280.046556 277.821514 
L 280.252899 277.664498 
L 280.528532 277.546736 
L 281.070937 277.311212 
L 281.241078 277.206535 
L 281.694157 277.010265 
L 281.853522 276.813996 
L 282.104742 276.63081 
L 282.166676 276.552303 
L 282.452575 276.395287 
L 282.795202 276.159763 
L 283.065817 276.015832 
L 283.477727 275.714885 
L 285.699931 274.157811 
L 285.808237 274.079303 
L 286.043065 273.922287 
L 286.161266 273.79144 
L 286.257374 273.699848 
L 286.476819 273.516663 
L 286.748421 273.307308 
L 286.90907 273.163377 
L 287.017864 273.045615 
L 287.386786 272.718499 
L 287.855167 272.443721 
L 287.957602 272.365213 
L 288.12774 272.182028 
L 288.270836 272.090435 
L 289.886273 270.873563 
L 290.002743 270.808139 
L 292.103259 269.394997 
L 292.220121 269.277235 
L 292.408149 269.028626 
L 292.600147 268.819272 
L 293.001549 268.557579 
L 293.5403 268.191208 
L 293.824938 268.008023 
L 294.649978 267.497722 
L 295.163241 266.961251 
L 295.276225 266.81732 
L 295.574056 266.647219 
L 295.724497 266.516373 
L 295.990519 266.333188 
L 296.146293 266.189256 
L 296.403567 265.927563 
L 296.549177 265.809801 
L 296.755032 265.613532 
L 296.836783 265.548108 
L 297.008788 265.404177 
L 297.278363 265.116315 
L 297.456938 264.946214 
L 297.535701 264.880791 
L 297.704333 264.73686 
L 297.863986 264.566759 
L 298.557652 263.964865 
L 298.757309 263.742426 
L 298.953262 263.559241 
L 299.808047 262.721823 
L 299.971591 262.525553 
L 300.11726 262.342368 
L 300.780152 261.766643 
L 300.889041 261.661966 
L 301.033694 261.478781 
L 301.337741 261.073157 
L 301.551981 260.903056 
L 302.409369 260.0133 
L 302.524913 259.921707 
L 303.100336 259.345982 
L 303.209083 259.267474 
L 303.534436 259.018866 
L 303.667068 258.874935 
L 303.959483 258.46931 
L 304.705192 257.684231 
L 304.822137 257.527215 
L 305.055166 257.239353 
L 305.658773 256.493528 
L 305.824716 256.310342 
L 306.01395 256.140242 
L 306.364788 255.786956 
L 306.777104 255.276655 
L 306.946404 255.09347 
L 307.105707 254.923369 
L 307.357445 254.70093 
L 308.083763 253.94202 
L 308.200165 253.785004 
L 308.327924 253.641073 
L 308.822145 253.170025 
L 308.904602 253.065348 
L 309.126506 252.869078 
L 309.302953 252.672809 
L 309.738377 252.03166 
L 312.271705 249.166121 
L 312.399321 248.956767 
L 312.595677 248.786666 
L 312.725294 248.642735 
L 313.231273 247.975418 
L 313.374422 247.726809 
L 313.507577 247.595963 
L 314.468895 246.523021 
L 314.643586 246.352921 
L 314.82873 246.078143 
L 314.992343 245.855704 
L 315.087214 245.79028 
L 315.300147 245.554757 
L 315.374773 245.436995 
L 315.527906 245.293064 
L 315.642585 245.109878 
L 315.911094 244.822016 
L 316.261674 244.455646 
L 316.724537 243.866836 
L 317.40554 242.885487 
L 317.50978 242.728471 
L 317.716357 242.492948 
L 317.851533 242.231254 
L 318.04301 241.982646 
L 318.330804 241.65553 
L 318.474766 241.380752 
L 318.967099 240.818112 
L 319.101402 240.70035 
L 319.288715 240.477911 
L 319.491273 240.216218 
L 319.724033 239.94144 
L 320.082783 239.300292 
L 320.290145 239.025514 
L 320.361923 238.973176 
L 320.520999 238.829244 
L 320.688935 238.606805 
L 320.79301 238.410535 
L 323.935743 234.249615 
L 324.411433 233.516875 
L 324.582182 233.346774 
L 325.552378 231.907462 
L 325.659124 231.776616 
L 325.752651 231.711192 
L 325.909248 231.514923 
L 326.132315 231.148552 
L 326.260679 230.991536 
L 326.471265 230.66442 
L 326.709194 230.507404 
L 327.093881 229.984018 
L 327.21179 229.787748 
L 329.47221 226.424992 
L 329.554823 226.294146 
L 329.875731 225.718421 
L 330.092976 225.456728 
L 330.248843 225.18195 
L 330.423652 224.920257 
L 330.517474 224.737072 
L 330.61099 224.566971 
L 330.750205 224.370701 
L 331.185382 223.821146 
L 331.556309 223.10149 
L 331.739708 222.852882 
L 332.184281 222.067802 
L 332.366362 221.701432 
L 332.816112 220.955607 
L 333.066491 220.419136 
L 333.175465 220.170527 
L 333.45933 219.647141 
L 333.598254 219.463956 
L 333.787384 219.11067 
L 333.877825 218.953655 
L 334.046347 218.757385 
L 334.118687 218.600369 
L 334.366078 218.142406 
L 334.540619 217.841459 
L 334.792666 217.475089 
L 335.537574 216.375978 
L 335.728879 216.088115 
L 335.86108 215.839507 
L 336.051716 215.512391 
L 336.169542 215.289951 
L 336.306223 214.97592 
L 336.438197 214.805819 
L 336.559809 214.674973 
L 336.893727 214.19084 
L 337.043183 213.863724 
L 337.436517 213.222576 
L 337.760529 212.790782 
L 337.899131 212.594513 
L 337.965794 212.437497 
L 338.641516 211.325301 
L 338.761398 211.142116 
L 339.924855 209.113995 
L 340.036677 208.865386 
L 340.180626 208.642947 
L 340.347298 208.381254 
L 340.535132 208.184984 
L 341.084318 207.334482 
L 341.167475 207.177466 
L 341.395001 206.784926 
L 341.528033 206.575572 
L 341.70738 206.222286 
L 341.812939 206.06527 
L 341.961422 205.6989 
L 342.111161 205.411037 
L 342.234629 205.214768 
L 342.386799 204.93999 
L 342.776242 204.338096 
L 342.884462 203.958641 
L 343.248883 203.409085 
L 343.603667 202.820276 
L 343.735603 202.624006 
L 343.936051 202.231466 
L 344.038513 202.035197 
L 344.187836 201.773504 
L 344.291178 201.590318 
L 344.425903 201.315541 
L 344.730512 200.674393 
L 344.908645 200.373446 
L 345.06615 200.177176 
L 346.181562 198.279901 
L 346.300206 198.044377 
L 346.42705 197.848107 
L 346.600054 197.429398 
L 346.703198 197.285467 
L 346.873795 197.023774 
L 347.440403 196.081679 
L 347.629076 195.833071 
L 347.749909 195.623716 
L 347.873486 195.453616 
L 348.028646 195.152669 
L 348.134889 194.877891 
L 348.228949 194.655452 
L 348.643916 193.896542 
L 348.772217 193.634849 
L 349.489737 192.313299 
L 349.565997 192.169367 
L 350.237028 191.10951 
L 350.363117 190.769309 
L 350.871259 189.81413 
L 352.150721 187.354215 
L 352.275491 187.118691 
L 352.820741 186.137342 
L 352.959963 185.810225 
L 353.042818 185.640125 
L 353.153106 185.548532 
L 354.061576 184.187728 
L 354.171335 183.965289 
L 354.380373 183.729765 
L 354.489279 183.520411 
L 354.642079 183.284887 
L 354.780899 183.010109 
L 354.866814 182.800755 
L 355.076629 182.368961 
L 355.420554 181.740898 
L 355.536289 181.557713 
L 355.679142 181.309104 
L 355.779804 181.165173 
L 355.923437 180.838057 
L 356.105506 180.550194 
L 356.218359 180.301586 
L 358.184802 176.611713 
L 358.31329 176.467782 
L 358.603446 176.035989 
L 358.765551 175.61728 
L 358.915137 175.303248 
L 359.097676 174.963047 
L 359.203003 174.806031 
L 359.411542 174.282645 
L 359.942643 173.392889 
L 360.142209 172.987264 
L 360.277943 172.817164 
L 360.569864 172.084423 
L 362.737231 167.884249 
L 362.855625 167.714149 
L 362.955353 167.517879 
L 363.108002 167.230016 
L 363.320479 166.837477 
L 363.486317 166.484191 
L 363.61687 166.314091 
L 363.724936 166.026228 
L 364.401216 164.469154 
L 364.529346 164.312139 
L 364.78688 163.854176 
L 364.899021 163.710244 
L 365.839024 161.512022 
L 365.929999 161.302668 
L 366.066912 160.988636 
L 366.20004 160.818536 
L 366.518348 160.282065 
L 366.714279 159.994203 
L 367.95166 157.652049 
L 368.05439 157.442695 
L 368.181887 157.25951 
L 368.298067 157.023986 
L 368.410715 156.827716 
L 368.521348 156.579108 
L 368.73588 156.094976 
L 368.852939 155.885621 
L 368.977283 155.532336 
L 369.20035 155.100542 
L 369.301255 154.943526 
L 369.62284 154.354717 
L 369.768188 154.001431 
L 372.067431 149.775088 
L 372.222622 149.604987 
L 372.338426 149.447971 
L 372.50681 149.199363 
L 372.9367 148.479707 
L 373.073838 148.087167 
L 373.435252 147.328257 
L 376.208168 141.413994 
L 376.296364 141.256978 
L 376.390728 141.086877 
L 376.482349 140.942946 
L 376.822167 140.327967 
L 377.07532 139.804581 
L 377.165224 139.634481 
L 377.286167 139.346618 
L 377.384025 139.137264 
L 379.217116 135.813762 
L 379.377132 135.604407 
L 379.53295 135.329629 
L 379.649651 135.13336 
L 379.75565 134.91092 
L 379.9327 134.636143 
L 380.218574 134.243603 
L 380.354064 134.047333 
L 380.52373 133.733302 
L 380.625165 133.432355 
L 380.915514 132.738868 
L 381.057678 132.516429 
L 381.200008 132.241651 
L 381.83293 130.828508 
L 381.9632 130.592985 
L 382.07163 130.370545 
L 382.47584 129.572382 
L 382.573677 129.389196 
L 382.67496 129.284519 
L 382.781225 129.140588 
L 383.031649 128.630286 
L 383.165879 128.237747 
L 383.308116 127.976054 
L 383.945493 126.890027 
L 384.176017 126.41898 
L 384.383045 126.091863 
L 385.373407 124.260012 
L 385.572959 123.906726 
L 386.473735 122.074875 
L 386.912696 121.289795 
L 387.103265 120.766409 
L 387.238227 120.517801 
L 391.668623 112.169791 
L 391.858638 111.881929 
L 392.019499 111.672575 
L 392.118671 111.450135 
L 392.784823 110.468786 
L 392.928968 110.285601 
L 393.113818 109.971569 
L 393.288566 109.670622 
L 393.829645 108.62385 
L 393.938575 108.440665 
L 394.161008 108.113549 
L 394.293926 107.812602 
L 394.416272 107.603247 
L 394.796994 106.765829 
L 394.91344 106.569559 
L 395.054732 106.399459 
L 395.205597 106.033089 
L 395.343352 105.823734 
L 395.486418 105.483533 
L 395.611062 105.208755 
L 395.876958 104.698454 
L 396.975234 102.932025 
L 397.14426 102.631078 
L 397.273895 102.460978 
L 397.465218 102.120777 
L 397.57764 101.98993 
L 397.847324 101.597391 
L 397.949913 101.45346 
L 398.07454 101.191766 
L 398.271282 100.890819 
L 399.868014 98.116873 
L 400.294958 97.357963 
L 400.419325 97.187862 
L 400.794509 96.625222 
L 401.104063 96.036413 
L 401.220799 95.853228 
L 401.467707 95.513027 
L 401.584979 95.277503 
L 402.548413 93.746598 
L 402.672529 93.550328 
L 402.804863 93.275551 
L 403.144318 92.647487 
L 403.303973 92.438133 
L 403.424162 92.189524 
L 403.823307 91.404445 
L 404.029851 91.064244 
L 404.180109 90.841805 
L 407.184845 86.458446 
L 407.302778 86.262176 
L 407.95746 85.320081 
L 408.108901 85.058388 
L 408.271786 84.835949 
L 408.567974 84.234055 
L 409.073488 83.527483 
L 409.143171 83.370467 
L 409.30224 83.121859 
L 409.452025 82.873251 
L 409.635375 82.585388 
L 411.141369 80.190896 
L 411.398019 79.889949 
L 411.48024 79.719849 
L 411.602477 79.575918 
L 411.741369 79.327309 
L 411.880066 79.131039 
L 412.190905 78.725415 
L 412.331391 78.450637 
L 412.484856 78.228198 
L 412.804676 77.809489 
L 412.993798 77.560881 
L 413.211687 77.338442 
L 413.367318 77.102918 
L 413.474246 76.893564 
L 413.536802 76.749632 
L 413.716784 76.409431 
L 413.796239 76.239331 
L 415.071028 74.525241 
L 415.208865 74.289717 
L 415.654853 73.700908 
L 415.774585 73.491553 
L 416.156611 73.072845 
L 416.414984 72.732644 
L 416.543128 72.588712 
L 416.861773 72.078411 
L 417.342545 71.398009 
L 417.458767 71.162485 
L 417.63655 70.966215 
L 417.899673 70.743776 
L 418.099352 70.534422 
L 418.347527 70.168051 
L 418.472426 70.050289 
L 418.665785 69.801681 
L 420.603752 67.511866 
L 420.755321 67.302512 
L 421.934633 65.967877 
L 422.108838 65.66693 
L 422.513695 65.143544 
L 422.672133 64.947274 
L 422.866524 64.659412 
L 423.706388 63.599555 
L 423.917885 63.442539 
L 424.263631 63.076169 
L 424.424874 62.892984 
L 424.840399 62.395767 
L 425.123816 62.160243 
L 425.258014 62.042481 
L 425.410056 61.872381 
L 425.613403 61.676111 
L 425.766082 61.519095 
L 425.880305 61.375164 
L 426.347993 60.7471 
L 426.461492 60.603169 
L 426.905812 60.040529 
L 427.051079 59.909682 
L 427.19005 59.739582 
L 427.577399 59.451719 
L 427.827896 59.25545 
L 428.532979 58.705894 
L 428.703014 58.483455 
L 428.928864 58.287185 
L 429.067677 58.195593 
L 429.481888 57.803053 
L 429.844785 57.240413 
L 430.194088 57.004889 
L 430.387684 56.717027 
L 431.008921 56.062794 
L 431.124849 55.945032 
L 431.262107 55.788016 
L 431.450619 55.539408 
L 431.684919 55.343138 
L 431.842454 55.133784 
L 432.046974 54.924429 
L 432.229005 54.793583 
L 432.413213 54.649651 
L 433.011309 54.270196 
L 433.14262 54.073927 
L 433.721815 53.602879 
L 434.453033 53.210339 
L 434.609475 53.079493 
L 434.845347 52.948646 
L 437.082938 51.090625 
L 437.871993 50.449477 
L 438.036214 50.318631 
L 438.831892 49.742906 
L 438.920789 49.677483 
L 440.005122 49.298028 
L 440.108137 49.245689 
L 441.368905 48.303594 
L 441.471372 48.212001 
L 441.846224 48.015732 
L 441.930246 47.924139 
L 442.212944 47.727869 
L 445.56643 45.542732 
L 446.182882 45.2287 
L 446.602236 45.006261 
L 447.510382 44.587552 
L 447.594478 44.535214 
L 447.840651 44.391282 
L 448.141169 44.312775 
L 448.575931 44.077251 
L 449.256838 43.776304 
L 449.610365 43.645457 
L 451.24692 42.873463 
L 452.207017 42.533262 
L 453.22732 42.153807 
L 454.189446 41.865944 
L 455.186237 41.486489 
L 455.352482 41.434151 
L 457.164495 40.688325 
L 457.273177 40.649071 
L 458.463823 40.256532 
L 459.205575 40.086431 
L 459.255595 40.034093 
L 460.153579 39.798569 
L 462.138695 39.275183 
L 463.046111 39.065828 
L 463.440222 38.98732 
L 463.908423 38.81722 
L 470.40229 37.417162 
L 471.867292 37.286315 
L 472.840124 37.142384 
L 474.809523 36.93303 
L 476.781537 36.684421 
L 479.095823 36.501236 
L 480.657393 36.370389 
L 484.809689 36.14795 
L 485.216248 36.108696 
L 493.458315 35.794665 
L 511.434407 35.428294 
L 537.739432 35.402125 
L 537.739432 35.402125 
" clip-path="url(#p53b036248e)" style="fill: none; stroke: #e15759; stroke-width: 2; stroke-linecap: square"/>
   </g>
   <g id="line2d_41">
    <path d="M 67.314666 297.082125 
L 67.392359 297.042871 
L 69.143977 296.611077 
L 69.539655 296.5064 
L 71.414128 296.035353 
L 71.900235 295.865252 
L 72.896491 295.590474 
L 72.992001 295.55122 
L 74.056739 295.276443 
L 74.473623 295.18485 
L 75.279485 294.975496 
L 76.810629 294.569871 
L 76.948377 294.491363 
L 78.569767 294.085739 
L 78.820067 293.915639 
L 79.302144 293.732454 
L 79.464335 293.6932 
L 80.815003 293.47076 
L 80.989134 293.392253 
L 81.595385 293.261406 
L 81.768886 293.169813 
L 83.390699 292.698766 
L 83.478286 292.620258 
L 84.531705 292.266972 
L 85.149666 292.109956 
L 85.242017 292.057618 
L 86.337901 291.665078 
L 86.569331 291.599655 
L 86.99229 291.429554 
L 87.003915 291.41647 
L 87.994692 291.285623 
L 88.809538 291.050099 
L 89.344815 290.893084 
L 89.667591 290.762237 
L 91.553898 290.160343 
L 92.811865 289.859396 
L 94.949551 289.035063 
L 95.096586 288.94347 
L 96.404214 288.511676 
L 96.684145 288.393915 
L 97.248516 288.263068 
L 98.021342 287.949036 
L 98.884971 287.687343 
L 99.118012 287.62192 
L 99.522197 287.451819 
L 99.6494 287.386396 
L 99.978878 287.25555 
L 100.469527 287.033111 
L 100.63758 286.993857 
L 101.214988 286.836841 
L 103.208006 286.195693 
L 103.857011 285.947084 
L 103.97658 285.881661 
L 104.673869 285.619968 
L 105.098459 285.449867 
L 105.704425 285.188174 
L 112.778987 282.231042 
L 113.198189 282.100196 
L 113.314095 282.021688 
L 114.698048 281.302032 
L 114.833216 281.223524 
L 115.291748 281.079593 
L 115.527938 280.935662 
L 116.321176 280.687053 
L 116.835807 280.477699 
L 117.044971 280.386106 
L 117.502371 280.189836 
L 117.646657 280.098244 
L 118.02365 279.888889 
L 118.132792 279.823466 
L 118.815028 279.614112 
L 119.149635 279.404757 
L 119.724134 279.208487 
L 121.170418 278.292562 
L 121.547183 278.14863 
L 121.849467 278.017784 
L 122.22091 277.847683 
L 122.333158 277.769175 
L 123.385106 277.21962 
L 123.751096 277.049519 
L 124.888462 276.591556 
L 125.408796 276.277525 
L 125.868152 276.09434 
L 126.621773 275.793393 
L 126.797044 275.688715 
L 127.318839 275.466276 
L 127.768802 275.191498 
L 129.024007 274.484927 
L 129.348107 274.354081 
L 129.829437 274.01388 
L 130.042975 273.81761 
L 131.298546 273.189546 
L 131.468175 273.0587 
L 131.895621 272.888599 
L 132.37021 272.679245 
L 133.230086 272.260536 
L 135.543578 270.97824 
L 135.602252 270.95207 
L 135.969054 270.821224 
L 137.801953 269.85296 
L 138.356018 269.669774 
L 138.832156 269.408081 
L 139.39178 269.159473 
L 139.50511 269.09405 
L 142.192095 267.55006 
L 142.324727 267.432299 
L 142.735252 267.144436 
L 142.831604 267.079013 
L 143.078069 266.908912 
L 143.322499 266.699558 
L 143.720538 266.529457 
L 144.114295 266.215426 
L 144.439685 266.006071 
L 144.879749 265.652786 
L 145.056059 265.574278 
L 145.456247 265.391092 
L 145.654944 265.312585 
L 146.165885 264.985468 
L 148.410964 263.729341 
L 148.511147 263.650833 
L 148.741227 263.454564 
L 148.992473 263.245209 
L 149.354636 263.009685 
L 149.575107 262.813416 
L 149.937812 262.486299 
L 150.228495 262.290029 
L 151.398832 261.609627 
L 151.961223 261.269426 
L 152.073474 261.204003 
L 152.373733 261.020818 
L 152.46631 260.94231 
L 152.724752 260.759125 
L 153.725369 260.065638 
L 153.961603 259.882453 
L 154.596717 259.489913 
L 154.681082 259.372152 
L 154.866404 259.215136 
L 155.104878 258.888019 
L 155.521602 258.521649 
L 155.756631 258.364633 
L 155.980738 258.207617 
L 156.150349 258.076771 
L 156.268237 257.985178 
L 157.121689 257.422538 
L 157.362051 257.330945 
L 157.582048 257.200099 
L 157.720693 257.082337 
L 158.080921 256.859898 
L 159.023516 256.231834 
L 159.274763 256.048649 
L 159.775109 255.721533 
L 159.884837 255.577602 
L 160.362487 255.302824 
L 160.489495 255.224316 
L 160.606877 255.145808 
L 160.996409 254.936454 
L 161.195262 254.753269 
L 161.422267 254.530829 
L 161.735361 254.30839 
L 163.897876 252.528877 
L 164.536705 252.044745 
L 164.692579 251.913899 
L 164.911304 251.769967 
L 165.73486 251.024142 
L 165.841561 250.945634 
L 166.628512 250.409163 
L 166.834561 250.265232 
L 167.044898 250.068962 
L 167.276506 249.794185 
L 167.688211 249.597915 
L 168.198237 249.192291 
L 168.35898 248.956767 
L 168.714844 248.747412 
L 168.844541 248.681989 
L 169.608908 247.936164 
L 169.896036 247.779148 
L 170.309319 247.347354 
L 172.209507 245.554757 
L 172.531744 245.358487 
L 172.765054 245.175302 
L 174.15739 244.10236 
L 174.263871 243.958429 
L 174.607529 243.749074 
L 174.71186 243.631312 
L 174.977253 243.408873 
L 175.920602 242.41444 
L 176.149144 242.21817 
L 176.278321 242.048069 
L 176.44239 241.891053 
L 178.628693 239.614324 
L 178.989351 239.470392 
L 179.175827 239.208699 
L 179.483719 238.973176 
L 179.682808 238.81616 
L 179.856018 238.685313 
L 180.684246 237.769387 
L 180.8025 237.560033 
L 181.237215 237.115155 
L 181.451014 236.931969 
L 181.710335 236.617938 
L 182.026988 236.330075 
L 183.265182 235.034695 
L 183.534965 234.681409 
L 183.66684 234.498224 
L 184.032839 233.987922 
L 185.150483 232.784134 
L 185.38669 232.561695 
L 185.584412 232.313087 
L 185.689176 232.195325 
L 186.094455 231.855124 
L 186.361828 231.449499 
L 187.124532 230.638251 
L 187.171618 230.612081 
L 187.360368 230.46815 
L 187.91171 229.892426 
L 188.126017 229.73541 
L 191.810497 225.679167 
L 191.978589 225.535236 
L 192.167508 225.286627 
L 192.365243 225.090357 
L 193.376473 223.742638 
L 193.498633 223.598707 
L 193.715224 223.428606 
L 194.980769 221.936956 
L 195.191236 221.77994 
L 195.315912 221.609839 
L 196.613877 220.105104 
L 196.804175 219.856496 
L 197.061746 219.594803 
L 197.185233 219.450871 
L 197.505889 219.097586 
L 197.662367 218.888231 
L 197.855424 218.534946 
L 197.884688 218.508776 
L 207.283994 218.35176 
L 227.461504 217.396581 
L 227.470446 217.383496 
L 230.141016 217.147972 
L 230.151429 217.134888 
L 235.671831 216.703094 
L 237.477062 216.389062 
L 237.618376 216.336724 
L 244.431134 215.551644 
L 244.513009 215.512391 
L 248.701261 214.910496 
L 248.718944 214.897412 
L 249.433473 214.766565 
L 249.55438 214.688057 
L 250.322439 214.531041 
L 250.436629 214.504872 
L 254.118089 213.693624 
L 254.713798 213.562777 
L 255.598352 213.366507 
L 256.877771 213.06556 
L 261.271461 212.11038 
L 261.3895 212.084211 
L 262.013478 211.901026 
L 262.543442 211.757095 
L 262.720077 211.639333 
L 264.33835 211.063608 
L 264.426328 211.024354 
L 265.059513 210.775746 
L 265.326857 210.684153 
L 267.986918 209.938328 
L 268.483283 209.794397 
L 268.849419 209.676635 
L 269.568981 209.519619 
L 269.685174 209.46728 
L 269.818753 209.401857 
L 270.339621 209.192503 
L 270.851533 209.048571 
L 274.517874 207.857868 
L 274.879889 207.753191 
L 275.223736 207.609259 
L 275.507776 207.426074 
L 275.703525 207.347566 
L 276.737786 207.007365 
L 277.408412 206.680249 
L 278.004479 206.536318 
L 279.936842 205.711984 
L 280.076821 205.672731 
L 281.034554 205.214768 
L 281.182393 205.070836 
L 281.361598 204.900736 
L 281.861877 204.730635 
L 282.881681 204.429688 
L 286.74475 202.676345 
L 286.917038 202.610921 
L 289.323368 201.158525 
L 289.397581 201.106186 
L 289.920803 200.870662 
L 291.809776 199.836975 
L 292.15414 199.614536 
L 292.41338 199.470604 
L 292.940103 199.130403 
L 293.055288 198.986472 
L 293.642674 198.685525 
L 294.138555 198.358409 
L 294.327942 198.266816 
L 294.990984 197.9397 
L 295.142214 197.848107 
L 296.161995 197.154621 
L 296.436269 196.98452 
L 296.714697 196.762081 
L 296.962966 196.657404 
L 297.410757 196.330287 
L 297.822698 195.937748 
L 298.083687 195.754563 
L 298.425036 195.610631 
L 298.56304 195.479785 
L 298.819238 195.283515 
L 298.98617 195.087245 
L 299.483314 194.70779 
L 299.99344 194.380674 
L 300.946214 193.700272 
L 301.06185 193.621764 
L 301.449689 193.425494 
L 301.648025 193.268478 
L 302.747138 192.43106 
L 302.867956 192.300214 
L 303.069397 192.117029 
L 303.212983 191.999267 
L 303.69281 191.593643 
L 303.845257 191.50205 
L 304.355481 191.10951 
L 304.539726 191.044087 
L 305.378617 190.54687 
L 305.941154 190.023484 
L 306.110016 189.866468 
L 306.356388 189.670198 
L 306.624265 189.447759 
L 306.858112 189.251489 
L 306.96505 189.146812 
L 307.430368 188.806611 
L 307.627225 188.610341 
L 308.135004 188.243971 
L 308.791805 187.812178 
L 308.879519 187.746754 
L 309.141927 187.5374 
L 309.303066 187.367299 
L 310.515355 186.372866 
L 310.654444 186.281273 
L 311.435586 185.770971 
L 311.525637 185.731717 
L 312.056372 185.483109 
L 312.144985 185.43077 
L 312.308869 185.299924 
L 312.49485 185.142908 
L 313.782609 183.991458 
L 313.886727 183.912951 
L 314.171959 183.638173 
L 314.829488 183.154041 
L 315.120946 183.023194 
L 315.326362 182.918517 
L 315.574239 182.748416 
L 316.251351 182.290453 
L 316.615461 181.819406 
L 316.862931 181.583882 
L 316.94365 181.518459 
L 317.09427 181.374528 
L 317.38452 181.034327 
L 317.598225 180.890395 
L 317.971663 180.432433 
L 318.074073 180.301586 
L 318.35894 180.079147 
L 318.6178 179.856708 
L 318.763439 179.712777 
L 318.925023 179.58193 
L 319.064239 179.437999 
L 320.099916 178.561327 
L 320.399312 178.417396 
L 320.836929 177.972518 
L 321.063312 177.802417 
L 321.241416 177.67157 
L 322.579465 176.415444 
L 322.639453 176.336936 
L 322.78494 176.206089 
L 323.010316 175.970565 
L 323.423462 175.525687 
L 323.572199 175.329417 
L 325.075542 173.759259 
L 325.269043 173.576074 
L 325.758061 173.14428 
L 325.896213 173.000349 
L 326.343119 172.450793 
L 326.460926 172.293778 
L 328.060007 170.723619 
L 328.360566 170.475011 
L 328.474025 170.278741 
L 328.88601 169.846947 
L 329.027135 169.57217 
L 329.195745 169.34973 
L 329.321153 169.153461 
L 329.457932 168.970275 
L 329.727102 168.669328 
L 330.253103 168.119773 
L 330.347932 167.975842 
L 330.633836 167.701064 
L 330.854004 167.426286 
L 331.044882 167.26927 
L 331.929648 166.458022 
L 332.123091 166.314091 
L 332.347935 166.091651 
L 332.558738 165.856128 
L 336.785204 160.988636 
L 336.902479 160.844705 
L 337.049121 160.674605 
L 337.291112 160.29515 
L 337.434117 160.190472 
L 337.617268 159.994203 
L 337.952205 159.601663 
L 338.178375 159.353055 
L 338.317413 159.209123 
L 340.042261 157.311848 
L 340.143299 157.194087 
L 340.364114 156.86697 
L 340.555994 156.605277 
L 340.728946 156.409007 
L 340.889955 156.186568 
L 341.051564 156.016468 
L 343.099014 153.739738 
L 343.203426 153.595807 
L 343.456762 153.242521 
L 343.736829 152.849981 
L 343.946037 152.588288 
L 344.052371 152.483611 
L 344.727609 151.737786 
L 344.854168 151.567685 
L 344.974658 151.371415 
L 346.107752 150.128373 
L 346.230168 149.971357 
L 346.396284 149.735834 
L 346.564353 149.434887 
L 346.770799 149.238617 
L 346.882402 149.173194 
L 347.164079 148.832993 
L 350.12998 145.574914 
L 350.416516 145.221628 
L 350.564979 145.064612 
L 350.928264 144.632819 
L 351.05846 144.475803 
L 351.173298 144.331871 
L 352.688205 142.526189 
L 352.892808 142.329919 
L 353.026181 142.159819 
L 353.263621 141.806533 
L 353.406652 141.636433 
L 353.752594 141.256978 
L 353.868092 141.073793 
L 354.03913 140.825184 
L 354.252509 140.393391 
L 354.720675 139.843835 
L 354.828562 139.752243 
L 354.93812 139.595227 
L 355.054398 139.412041 
L 355.315377 139.09801 
L 355.579163 138.731639 
L 355.698468 138.561539 
L 355.837719 138.326015 
L 356.04326 138.129745 
L 356.18154 137.959645 
L 356.512066 137.645613 
L 356.606673 137.488597 
L 356.688322 137.292328 
L 356.79186 137.135312 
L 356.942325 136.978296 
L 357.053582 136.834365 
L 357.156199 136.742772 
L 357.294042 136.559587 
L 357.428621 136.350232 
L 357.593432 136.140878 
L 357.836767 135.944608 
L 358.016341 135.643661 
L 358.440503 135.146444 
L 358.587039 134.91092 
L 358.741517 134.766989 
L 359.046856 134.452958 
L 359.305158 134.099672 
L 359.592718 133.694048 
L 359.94852 133.340762 
L 360.022071 133.170661 
L 360.249722 133.039815 
L 360.562831 132.568767 
L 360.669348 132.411751 
L 360.793279 132.26782 
L 361.370021 131.391148 
L 361.526749 131.247217 
L 361.695023 131.103286 
L 361.871434 130.920101 
L 362.02964 130.75 
L 362.254072 130.514477 
L 362.706452 129.755567 
L 363.919823 128.119985 
L 364.040468 127.91063 
L 364.257261 127.596599 
L 364.361496 127.439583 
L 364.482451 127.204059 
L 364.864441 126.693758 
L 365.031833 126.405895 
L 365.200698 126.065694 
L 365.362266 125.908678 
L 365.436673 125.751662 
L 365.820817 125.189022 
L 365.945918 125.005837 
L 366.094941 124.770313 
L 366.309438 124.469366 
L 366.640238 123.932896 
L 366.743641 123.788964 
L 367.266759 123.160901 
L 367.408917 122.912293 
L 368.076556 121.917859 
L 368.220487 121.682335 
L 368.52368 121.250541 
L 369.407482 119.902822 
L 369.593692 119.680383 
L 369.90162 119.170081 
L 372.080955 116.291457 
L 372.32144 115.99051 
L 372.420775 115.807325 
L 372.657927 115.571801 
L 372.908384 115.087669 
L 373.07269 114.839061 
L 374.069083 113.425918 
L 374.180797 113.268902 
L 374.396084 112.994125 
L 374.820878 112.483823 
L 374.992723 112.130537 
L 375.201784 111.82959 
L 378.116303 107.904194 
L 378.210258 107.760263 
L 378.333653 107.616332 
L 378.502493 107.341554 
L 378.623291 107.184538 
L 379.197775 106.360205 
L 379.440824 106.020004 
L 379.549592 105.902242 
L 379.674405 105.692888 
L 379.774596 105.522787 
L 379.912248 105.352687 
L 380.060839 105.077909 
L 380.369461 104.724623 
L 380.64281 104.332083 
L 386.839384 95.840143 
L 387.095734 95.591534 
L 387.232276 95.486857 
L 387.584559 95.107402 
L 388.163127 94.348492 
L 388.307217 94.165307 
L 388.439033 93.995207 
L 388.630619 93.785852 
L 388.788542 93.563413 
L 388.933507 93.30172 
L 389.187509 92.948434 
L 389.336346 92.778334 
L 389.483128 92.555895 
L 391.605768 89.755779 
L 391.724518 89.546424 
L 391.927996 89.297816 
L 392.058937 89.1408 
L 392.202672 88.957615 
L 392.31726 88.813684 
L 392.439561 88.617414 
L 392.864243 88.080943 
L 393.032982 87.793081 
L 393.366957 87.413626 
L 393.520078 87.217356 
L 393.638048 87.06034 
L 393.852832 86.890239 
L 393.960281 86.733224 
L 394.148611 86.523869 
L 394.26688 86.379938 
L 395.053004 85.215404 
L 395.200046 84.914457 
L 395.39055 84.757441 
L 395.572808 84.482663 
L 395.829164 84.22097 
L 396.47334 83.396637 
L 396.645567 83.26579 
L 396.803473 83.06952 
L 397.027206 82.886335 
L 397.476044 82.402203 
L 397.631645 82.192849 
L 397.888058 81.996579 
L 398.033593 81.77414 
L 398.240962 81.5517 
L 398.354824 81.394685 
L 398.510673 81.237669 
L 398.642 81.067568 
L 399.640844 79.706764 
L 399.837695 79.510494 
L 400.098158 79.235717 
L 400.230391 78.947854 
L 400.457039 78.790838 
L 401.150738 77.901082 
L 401.248388 77.730981 
L 401.567768 77.39078 
L 401.836475 77.102918 
L 401.948617 76.972071 
L 403.001035 75.820622 
L 403.139639 75.624352 
L 403.651687 75.074797 
L 403.772382 74.904696 
L 404.051796 74.643003 
L 404.184646 74.525241 
L 404.562941 74.119617 
L 404.7119 73.910262 
L 404.832485 73.805585 
L 405.039625 73.6224 
L 405.157411 73.4523 
L 405.911415 72.418612 
L 406.16848 72.222342 
L 406.770473 71.568109 
L 406.931943 71.306416 
L 407.143562 71.083977 
L 407.387966 70.743776 
L 407.586866 70.521337 
L 407.845474 70.233475 
L 407.975834 70.076459 
L 408.208804 69.801681 
L 408.492002 69.63158 
L 408.968513 69.199787 
L 409.139752 69.016602 
L 409.291911 68.859586 
L 409.517891 68.637147 
L 411.158973 66.700618 
L 411.328212 66.530517 
L 411.430366 66.412756 
L 411.573141 66.268824 
L 411.879522 65.8632 
L 412.103093 65.732354 
L 413.130384 64.633243 
L 413.348068 64.358465 
L 413.448515 64.214534 
L 413.717004 64.005179 
L 414.465733 63.377116 
L 414.573629 63.272439 
L 414.915877 62.971491 
L 415.106235 62.670544 
L 417.025089 60.930285 
L 417.178635 60.7471 
L 417.610547 60.354561 
L 417.737401 60.197545 
L 417.897971 60.066698 
L 418.392259 59.713413 
L 418.511203 59.569481 
L 418.896946 59.268534 
L 419.021217 59.111518 
L 420.604514 57.724545 
L 421.099127 57.292752 
L 421.868635 56.664688 
L 422.004724 56.573096 
L 422.526909 56.245979 
L 422.687014 56.062794 
L 423.562591 55.473985 
L 423.691927 55.316969 
L 424.028604 55.120699 
L 424.169177 54.963683 
L 426.342181 53.354271 
L 426.580484 53.197255 
L 426.793472 53.040239 
L 427.014851 52.883223 
L 427.198933 52.804715 
L 427.574671 52.660784 
L 427.721003 52.516853 
L 429.685011 51.012117 
L 430.122453 50.802763 
L 430.225397 50.698086 
L 430.468988 50.488731 
L 431.295611 49.991514 
L 432.232855 49.38962 
L 432.301735 49.337282 
L 432.676196 49.167181 
L 432.823593 49.036335 
L 433.106042 48.748472 
L 433.408116 48.604541 
L 433.547247 48.486779 
L 433.936245 48.303594 
L 434.026017 48.251255 
L 434.238455 48.06807 
L 436.40276 46.903536 
L 436.534913 46.838113 
L 436.996345 46.628758 
L 437.049872 46.57642 
L 437.430403 46.406319 
L 437.602557 46.275473 
L 438.650583 45.830594 
L 439.007638 45.660494 
L 439.736453 45.411885 
L 440.10433 45.124023 
L 440.557227 44.927753 
L 441.293808 44.652976 
L 441.39808 44.561383 
L 441.547963 44.456706 
L 441.854384 44.325859 
L 443.676402 43.619288 
L 444.054654 43.475357 
L 444.608412 43.305256 
L 444.963502 43.069732 
L 445.274306 42.938886 
L 445.413403 42.886547 
L 446.096826 42.637939 
L 447.943961 42.009875 
L 448.06106 41.957537 
L 448.508926 41.800521 
L 449.646806 41.394897 
L 450.092978 41.250965 
L 450.661644 41.041611 
L 451.0123 40.89768 
L 451.248587 40.806087 
L 452.561605 40.531309 
L 454.866769 40.021008 
L 455.069221 39.981754 
L 456.478686 39.693892 
L 456.529337 39.641553 
L 457.306197 39.432199 
L 457.706786 39.288267 
L 460.618132 38.634035 
L 461.658937 38.42468 
L 461.674694 38.411595 
L 462.429843 38.267664 
L 462.575857 38.202241 
L 463.274501 38.071394 
L 469.379622 37.116215 
L 470.258832 36.972284 
L 475.18893 36.318051 
L 478.665784 36.069442 
L 478.897935 36.043273 
L 504.488412 35.441379 
L 525.304234 35.402125 
L 525.304234 35.402125 
" clip-path="url(#p53b036248e)" style="fill: none; stroke: #f28e2b; stroke-width: 2; stroke-linecap: square"/>
   </g>
   <g id="line2d_42">
    <path d="M 67.303068 297.082125 
L 67.641723 296.872771 
L 67.874921 296.70267 
L 68.806653 296.074607 
L 69.090175 295.865252 
L 69.194593 295.825998 
L 70.049097 295.354951 
L 70.926178 294.831564 
L 71.266802 294.674549 
L 71.369416 294.569871 
L 71.792867 294.282009 
L 73.413267 293.143644 
L 74.074283 292.947374 
L 74.222159 292.855782 
L 75.056671 292.423988 
L 75.151527 292.319311 
L 75.438054 292.136126 
L 75.863213 291.848263 
L 76.116442 291.704332 
L 76.282354 291.547316 
L 76.64452 291.377216 
L 77.806926 290.605221 
L 78.153285 290.422036 
L 78.282143 290.317359 
L 78.616062 290.147258 
L 78.726039 290.081835 
L 79.402052 289.741634 
L 79.860086 289.427602 
L 80.110511 289.296756 
L 80.82354 288.851877 
L 80.926476 288.721031 
L 82.008512 287.935952 
L 82.554118 287.582666 
L 82.928102 287.347142 
L 83.795054 286.810671 
L 85.257191 285.633053 
L 85.537962 285.489121 
L 85.722193 285.34519 
L 86.150961 285.031158 
L 87.528831 283.997471 
L 87.839873 283.840455 
L 88.086169 283.604931 
L 88.647589 283.199307 
L 88.780544 283.055376 
L 89.291385 282.70209 
L 89.500616 282.518905 
L 89.739997 282.296466 
L 89.929847 282.126365 
L 90.15283 281.982434 
L 92.531207 280.176752 
L 92.639101 280.019736 
L 94.292013 278.815948 
L 94.42491 278.73744 
L 95.122058 278.200969 
L 95.377089 278.004699 
L 97.5653 276.028916 
L 98.02542 275.597123 
L 98.293882 275.400853 
L 98.959073 274.77279 
L 99.267469 274.484927 
L 99.453496 274.301742 
L 100.8349 273.071784 
L 101.208144 272.86243 
L 101.353358 272.705414 
L 101.630809 272.548398 
L 101.773895 272.391382 
L 102.485066 271.802573 
L 102.667069 271.671726 
L 102.760618 271.606303 
L 103.45626 271.096002 
L 103.634367 270.834309 
L 103.818222 270.638039 
L 103.989549 270.454854 
L 104.089198 270.376346 
L 104.328015 270.180076 
L 104.992479 269.669774 
L 105.261365 269.394997 
L 105.466228 269.185642 
L 107.902886 267.092097 
L 107.956464 267.052844 
L 108.143395 266.908912 
L 108.256003 266.778066 
L 108.557895 266.555627 
L 108.702048 266.42478 
L 108.868895 266.293934 
L 109.048683 266.097664 
L 109.262007 265.940648 
L 109.597607 265.626616 
L 109.868425 265.443431 
L 110.794859 264.448997 
L 111.191962 263.925611 
L 111.528635 263.703172 
L 111.612914 263.624664 
L 111.871824 263.41531 
L 112.196834 263.088193 
L 112.515094 262.774162 
L 112.795724 262.433961 
L 113.06402 262.146098 
L 113.407051 261.779728 
L 113.667778 261.544204 
L 116.482467 258.534734 
L 116.669055 258.207617 
L 116.879497 257.93284 
L 119.917551 254.910284 
L 120.074761 254.70093 
L 120.235964 254.50466 
L 121.282085 253.313957 
L 121.50754 253.117687 
L 121.605247 252.947586 
L 121.889326 252.685893 
L 122.010243 252.476539 
L 122.188907 252.280269 
L 122.541218 251.992407 
L 122.744382 251.769967 
L 122.9127 251.547528 
L 123.035524 251.338174 
L 123.156764 251.168073 
L 123.746763 250.487671 
L 123.841953 250.356825 
L 124.013674 250.212894 
L 124.396904 249.715677 
L 124.507386 249.545576 
L 125.780459 248.09318 
L 126.080736 247.779148 
L 126.375547 247.543624 
L 127.099941 246.562275 
L 127.379592 246.261328 
L 127.894102 245.580926 
L 128.00718 245.450079 
L 128.622542 244.651915 
L 128.782725 244.4949 
L 128.873457 244.416392 
L 129.037484 244.233207 
L 129.180976 244.063106 
L 129.651354 243.53972 
L 130.009096 243.199519 
L 130.712417 242.231254 
L 130.868369 242.048069 
L 130.928223 241.956477 
L 131.091605 241.812546 
L 131.446467 241.354583 
L 131.635324 241.171397 
L 131.784813 241.027466 
L 131.979054 240.844281 
L 132.699845 239.902186 
L 132.907579 239.705916 
L 133.029879 239.601239 
L 133.262291 239.352631 
L 133.423017 239.077853 
L 133.530603 238.868498 
L 133.607324 238.737652 
L 133.837993 238.554467 
L 133.978682 238.358197 
L 135.811355 236.107636 
L 135.982908 235.832859 
L 136.243963 235.636589 
L 136.361407 235.518827 
L 136.684637 235.047779 
L 136.98885 234.537478 
L 138.055816 233.019658 
L 138.153849 232.901896 
L 138.259831 232.718711 
L 138.92259 231.881293 
L 139.270384 231.6196 
L 139.553098 231.200891 
L 139.767086 230.782182 
L 139.970809 230.520489 
L 140.198776 230.258796 
L 140.308289 230.114865 
L 140.588183 229.617648 
L 140.928492 229.316701 
L 141.340863 228.649383 
L 141.608242 228.296098 
L 141.796765 228.060574 
L 142.108163 227.746542 
L 142.286618 227.550272 
L 142.376765 227.380172 
L 143.05205 226.490415 
L 143.164729 226.281061 
L 143.49912 225.836183 
L 143.660691 225.561405 
L 143.918137 225.234289 
L 144.043141 225.038019 
L 144.502713 224.331447 
L 144.74632 223.978162 
L 144.91598 223.755723 
L 145.994249 222.015464 
L 146.839727 220.890183 
L 147.228993 220.366797 
L 147.402077 220.000427 
L 147.881485 219.267686 
L 148.028763 218.927485 
L 148.205946 218.718131 
L 148.785882 217.828374 
L 148.892167 217.632104 
L 149.210838 217.108718 
L 149.332913 216.886279 
L 149.553318 216.506824 
L 149.673124 216.323639 
L 149.871641 216.009607 
L 150.140756 215.564729 
L 150.221327 215.407713 
L 150.877725 214.41328 
L 151.017817 214.230094 
L 151.387153 213.680539 
L 152.310646 212.372073 
L 152.45369 212.201973 
L 153.723249 210.409375 
L 153.946121 210.134598 
L 154.087596 209.872905 
L 154.39514 209.349518 
L 154.546878 209.074741 
L 154.69104 208.865386 
L 155.136192 208.027968 
L 155.330582 207.713937 
L 155.450527 207.517667 
L 155.628242 207.229804 
L 155.728646 207.033535 
L 155.857743 206.771841 
L 156.13942 206.143778 
L 156.292446 205.829746 
L 156.446126 205.620392 
L 156.562112 205.450291 
L 157.033468 204.57362 
L 157.362664 204.089487 
L 157.496946 203.867048 
L 157.945371 202.898784 
L 158.19086 202.480075 
L 158.423287 201.969773 
L 158.561268 201.773504 
L 159.870839 199.182742 
L 159.995444 198.89488 
L 160.250233 198.436917 
L 160.357933 198.240647 
L 160.455964 198.031292 
L 161.229546 196.605065 
L 161.367004 196.382626 
L 161.476162 196.173272 
L 162.009593 195.309684 
L 162.111482 195.139584 
L 162.241292 194.864806 
L 162.748115 193.94888 
L 163.131126 193.268478 
L 163.489831 192.588076 
L 163.581242 192.391806 
L 163.807831 191.973098 
L 164.20735 191.384288 
L 164.314809 191.201103 
L 164.525598 190.769309 
L 164.662224 190.54687 
L 166.395944 187.393469 
L 166.542985 187.157945 
L 166.705317 186.726151 
L 166.846061 186.464458 
L 168.707955 183.010109 
L 168.801551 182.879263 
L 168.945465 182.604485 
L 169.05907 182.4213 
L 169.133747 182.211945 
L 169.251992 181.963337 
L 169.510593 181.335274 
L 169.728836 180.811887 
L 171.970521 176.166835 
L 172.212143 175.656534 
L 172.290845 175.486433 
L 172.645317 174.714439 
L 173.082184 173.785428 
L 173.233248 173.405973 
L 173.855418 172.005915 
L 174.01776 171.665714 
L 174.107618 171.508698 
L 174.264459 171.247005 
L 174.924349 169.833863 
L 175.029795 169.611423 
L 175.121846 169.441323 
L 175.279778 169.140376 
L 175.381936 168.957191 
L 175.494881 168.695498 
L 175.617227 168.473059 
L 176.040509 167.400117 
L 176.146453 167.164593 
L 176.421456 166.641207 
L 176.527934 166.458022 
L 176.712532 166.078567 
L 176.830521 165.803789 
L 176.921117 165.568265 
L 177.016336 165.332742 
L 177.095295 165.162641 
L 177.237012 164.730847 
L 177.472915 164.246715 
L 177.603737 164.011191 
L 177.706844 163.749498 
L 177.803556 163.487805 
L 177.933575 163.226112 
L 178.714613 161.682123 
L 178.825246 161.315753 
L 182.157369 153.347198 
L 182.266308 153.150928 
L 182.941744 151.319077 
L 183.494221 150.272305 
L 183.677167 149.89285 
L 183.832516 149.461056 
L 184.019396 149.147024 
L 184.135071 148.924585 
L 184.273916 148.558215 
L 184.393122 148.231098 
L 184.510689 147.930151 
L 184.791232 147.249749 
L 184.917126 146.935718 
L 185.564353 145.457152 
L 185.687301 145.116951 
L 185.920601 144.475803 
L 186.035498 144.201025 
L 186.235748 143.690723 
L 186.322352 143.507538 
L 186.536729 142.840221 
L 187.732076 139.948512 
L 187.867903 139.608311 
L 188.131538 139.045671 
L 192.711572 127.15172 
L 192.754389 126.98162 
L 193.185451 125.804001 
L 193.29611 125.529223 
L 193.961721 123.932896 
L 194.052367 123.74971 
L 194.184362 123.435679 
L 194.310932 123.082393 
L 194.56453 122.42816 
L 195.210413 120.256108 
L 195.290404 120.099092 
L 196.994034 115.166177 
L 197.109162 114.891399 
L 197.455224 113.91005 
L 197.530568 113.753035 
L 197.89121 112.706262 
L 215.133672 112.575416 
L 239.757099 111.711828 
L 239.761298 111.698744 
L 245.626098 111.306204 
L 248.443427 111.018342 
L 252.515466 110.756649 
L 252.536031 110.743564 
L 254.652883 110.53421 
L 254.84249 110.481871 
L 261.313294 109.840723 
L 263.364758 109.670622 
L 263.461366 109.644453 
L 267.000284 109.147236 
L 267.302702 109.107982 
L 268.56472 108.911712 
L 268.581236 108.898628 
L 271.184151 108.650019 
L 272.237298 108.466834 
L 274.24038 108.270564 
L 275.928246 107.982702 
L 276.735375 107.825686 
L 278.491883 107.577078 
L 278.599593 107.537824 
L 284.583151 106.255528 
L 284.673668 106.190104 
L 285.922135 105.967665 
L 289.146484 105.156417 
L 291.417886 104.593777 
L 291.520061 104.541438 
L 292.113214 104.397507 
L 293.274179 104.135814 
L 293.583174 104.044221 
L 294.698152 103.769443 
L 294.758131 103.717105 
L 295.751855 103.455412 
L 298.718598 102.657248 
L 298.835918 102.604909 
L 300.123659 102.238539 
L 300.189179 102.199285 
L 301.073779 102.003015 
L 301.335599 101.937592 
L 302.82519 101.584306 
L 303.107948 101.492714 
L 303.752558 101.283359 
L 304.536756 101.06092 
L 305.54338 100.629126 
L 305.849635 100.537534 
L 306.729128 100.367433 
L 306.945992 100.315095 
L 307.62512 100.144994 
L 309.886634 99.464592 
L 310.085 99.412254 
L 311.212234 98.993545 
L 311.59722 98.849613 
L 312.155813 98.705682 
L 313.619335 98.077619 
L 313.730179 97.972942 
L 314.372256 97.815926 
L 314.526389 97.776672 
L 315.491779 97.46264 
L 315.872264 97.318709 
L 316.447954 97.148608 
L 316.645624 97.017762 
L 317.744007 96.638307 
L 318.072186 96.50746 
L 318.404358 96.350444 
L 318.522165 96.324275 
L 319.394369 96.088751 
L 319.739529 95.879397 
L 320.19412 95.722381 
L 320.860379 95.408349 
L 320.935225 95.303672 
L 321.772932 94.976556 
L 322.047141 94.806455 
L 322.590764 94.675609 
L 323.077116 94.45317 
L 323.083728 94.440085 
L 323.629213 94.283069 
L 323.711244 94.243815 
L 324.576749 93.969037 
L 324.869729 93.890529 
L 325.133559 93.720429 
L 325.403915 93.576498 
L 325.718023 93.419482 
L 326.785328 92.961519 
L 327.325761 92.765249 
L 327.450337 92.673657 
L 327.468512 92.634403 
L 327.766476 92.503556 
L 327.804687 92.451217 
L 328.429886 92.281117 
L 328.584653 92.189524 
L 329.798562 91.509122 
L 330.457375 91.339022 
L 330.603372 91.286683 
L 330.89952 91.155837 
L 331.509503 90.815636 
L 331.853543 90.619366 
L 331.885141 90.580112 
L 332.297435 90.436181 
L 335.298352 88.94453 
L 335.503059 88.826768 
L 336.22867 88.604329 
L 336.341389 88.486567 
L 337.507805 87.897758 
L 337.903849 87.753827 
L 338.041143 87.688403 
L 338.58532 87.45288 
L 338.618952 87.400541 
L 338.957612 87.243525 
L 339.007445 87.191186 
L 339.301849 87.047255 
L 339.945919 86.680885 
L 340.431078 86.419192 
L 341.466685 85.882721 
L 341.651932 85.73879 
L 342.092578 85.503266 
L 342.249525 85.477097 
L 342.670002 85.306996 
L 344.358785 84.548086 
L 344.794547 84.364901 
L 344.848348 84.338732 
L 345.166518 84.207885 
L 346.028893 83.697584 
L 346.884788 83.148028 
L 346.943329 83.121859 
L 347.359296 82.964843 
L 347.623115 82.729319 
L 348.036975 82.585388 
L 348.140612 82.519965 
L 351.762969 80.347912 
L 352.076248 80.190896 
L 352.293871 80.073135 
L 352.647535 79.903034 
L 357.953167 76.919733 
L 358.052298 76.841225 
L 358.460385 76.618786 
L 359.147558 76.213162 
L 359.404325 76.016892 
L 360.17673 75.572013 
L 360.293066 75.50659 
L 360.860194 75.179474 
L 361.007459 75.035543 
L 362.862429 74.093448 
L 363.00594 74.001855 
L 363.451904 73.766331 
L 363.586656 73.674739 
L 364.427217 73.321453 
L 364.534719 73.25603 
L 365.011967 73.099014 
L 365.130581 73.020506 
L 365.970821 72.614882 
L 366.592929 72.379358 
L 366.757887 72.235427 
L 367.082211 71.973734 
L 368.70152 71.044723 
L 369.192741 70.730691 
L 369.543727 70.573676 
L 370.339675 70.168051 
L 370.591978 70.02412 
L 372.487004 68.89884 
L 372.853163 68.676401 
L 378.034972 65.47066 
L 378.308698 65.339814 
L 378.45159 65.222052 
L 378.912202 64.960359 
L 379.119904 64.855682 
L 379.672181 64.620158 
L 380.246067 64.293042 
L 380.42812 64.188364 
L 380.922031 63.900502 
L 381.040075 63.769655 
L 382.445368 63.063084 
L 382.567824 62.984576 
L 383.073668 62.722883 
L 383.220843 62.644375 
L 383.436469 62.448105 
L 383.564337 62.304174 
L 388.20053 59.79192 
L 388.427566 59.634905 
L 388.528913 59.543312 
L 388.928991 59.320873 
L 389.056423 59.203111 
L 391.341131 57.999323 
L 391.4232 57.9339 
L 392.203316 57.580614 
L 392.604884 57.318921 
L 392.916255 57.17499 
L 393.077688 57.057228 
L 394.32877 56.468418 
L 394.780647 56.21981 
L 395.108093 56.102048 
L 395.591216 55.905778 
L 395.686054 55.814186 
L 396.620966 55.382392 
L 396.963708 55.186122 
L 398.820932 54.440297 
L 399.155916 54.257112 
L 400.3996 53.602879 
L 400.601542 53.485117 
L 402.375517 52.608445 
L 402.785342 52.42526 
L 403.32639 52.215906 
L 403.671699 52.032721 
L 408.955127 49.363451 
L 409.07405 49.311112 
L 410.195642 48.840065 
L 410.773026 48.617626 
L 411.200006 48.395187 
L 411.980483 48.172748 
L 412.055409 48.120409 
L 412.335544 47.963393 
L 412.671388 47.767123 
L 413.209794 47.597023 
L 413.292887 47.544684 
L 413.744788 47.400753 
L 414.948809 46.811943 
L 415.318956 46.641843 
L 416.304315 46.196965 
L 417.301128 45.882933 
L 417.445912 45.81751 
L 418.174547 45.62124 
L 418.326137 45.568901 
L 418.714986 45.372632 
L 422.373218 43.946404 
L 423.451882 43.73705 
L 424.812862 43.292172 
L 425.278077 43.14824 
L 426.81869 42.729531 
L 426.976212 42.677193 
L 427.325804 42.572516 
L 427.829227 42.428584 
L 428.267529 42.271568 
L 429.423436 41.970621 
L 429.714698 41.85286 
L 430.405926 41.669674 
L 431.552012 41.46032 
L 431.851129 41.381812 
L 432.377532 41.250965 
L 432.809588 41.09395 
L 433.596321 40.963103 
L 434.517933 40.819172 
L 436.199904 40.492055 
L 436.248139 40.452802 
L 436.982468 40.256532 
L 437.438825 40.178024 
L 438.238462 40.021008 
L 438.321783 39.968669 
L 441.456926 39.419114 
L 442.447155 39.131251 
L 442.989246 38.98732 
L 444.330686 38.607865 
L 445.992592 38.346172 
L 446.083021 38.320003 
L 450.981104 37.534924 
L 452.77867 37.390992 
L 455.477341 37.168553 
L 457.915887 36.919945 
L 462.735315 36.579744 
L 468.8229 36.17412 
L 472.351552 35.990934 
L 494.890325 35.441379 
L 524.833542 35.402125 
L 524.833542 35.402125 
" clip-path="url(#p53b036248e)" style="fill: none; stroke: #59a14f; stroke-width: 2; stroke-linecap: square"/>
   </g>
   <g id="patch_3">
    <path d="M 43.78125 310.166125 
L 43.78125 22.318125 
" style="fill: none; stroke: #000000; stroke-width: 0.8; stroke-linejoin: miter; stroke-linecap: square"/>
   </g>
   <g id="patch_4">
    <path d="M 561.26125 310.166125 
L 561.26125 22.318125 
" style="fill: none; stroke: #000000; stroke-width: 0.8; stroke-linejoin: miter; stroke-linecap: square"/>
   </g>
   <g id="patch_5">
    <path d="M 43.78125 310.166125 
L 561.26125 310.166125 
" style="fill: none; stroke: #000000; stroke-width: 0.8; stroke-linejoin: miter; stroke-linecap: square"/>
   </g>
   <g id="patch_6">
    <path d="M 43.78125 22.318125 
L 561.26125 22.318125 
" style="fill: none; stroke: #000000; stroke-width: 0.8; stroke-linejoin: miter; stroke-linecap: square"/>
   </g>
   <g id="text_12">
    <!-- Caching dramatically improves the tail (P99) -->
    <g transform="translate(168.550625 16.318125) scale(0.12 -0.12)">
     <defs>
      <path id="DejaVuSans-43" d="M 4122 4306 
L 4122 3641 
Q 3803 3938 3442 4084 
Q 3081 4231 2675 4231 
Q 1875 4231 1450 3742 
Q 1025 3253 1025 2328 
Q 1025 1406 1450 917 
Q 1875 428 2675 428 
Q 3081 428 3442 575 
Q 3803 722 4122 1019 
L 4122 359 
Q 3791 134 3420 21 
Q 3050 -91 2638 -91 
Q 1578 -91 968 557 
Q 359 1206 359 2328 
Q 359 3453 968 4101 
Q 1578 4750 2638 4750 
Q 3056 4750 3426 4639 
Q 3797 4528 4122 4306 
z
" transform="scale(0.015625)"/>
      <path id="DejaVuSans-68" d="M 3513 2113 
L 3513 0 
L 2938 0 
L 2938 2094 
Q 2938 2591 2744 2837 
Q 2550 3084 2163 3084 
Q 1697 3084 1428 2787 
Q 1159 2491 1159 1978 
L 1159 0 
L 581 0 
L 581 4863 
L 1159 4863 
L 1159 2956 
Q 1366 3272 1645 3428 
Q 1925 3584 2291 3584 
Q 2894 3584 3203 3211 
Q 3513 2838 3513 2113 
z
" transform="scale(0.015625)"/>
      <path id="DejaVuSans-64" d="M 2906 2969 
L 2906 4863 
L 3481 4863 
L 3481 0 
L 2906 0 
L 2906 525 
Q 2725 213 2448 61 
Q 2172 -91 1784 -91 
Q 1150 -91 751 415 
Q 353 922 353 1747 
Q 353 2572 751 3078 
Q 1150 3584 1784 3584 
Q 2172 3584 2448 3432 
Q 2725 3281 2906 2969 
z
M 947 1747 
Q 947 1113 1208 752 
Q 1469 391 1925 391 
Q 2381 391 2643 752 
Q 2906 1113 2906 1747 
Q 2906 2381 2643 2742 
Q 2381 3103 1925 3103 
Q 1469 3103 1208 2742 
Q 947 2381 947 1747 
z
" transform="scale(0.015625)"/>
      <path id="DejaVuSans-70" d="M 1159 525 
L 1159 -1331 
L 581 -1331 
L 581 3500 
L 1159 3500 
L 1159 2969 
Q 1341 3281 1617 3432 
Q 1894 3584 2278 3584 
Q 2916 3584 3314 3078 
Q 3713 2572 3713 1747 
Q 3713 922 3314 415 
Q 2916 -91 2278 -91 
Q 1894 -91 1617 61 
Q 1341 213 1159 525 
z
M 3116 1747 
Q 3116 2381 2855 2742 
Q 2594 3103 2138 3103 
Q 1681 3103 1420 2742 
Q 1159 2381 1159 1747 
Q 1159 1113 1420 752 
Q 1681 391 2138 391 
Q 2594 391 2855 752 
Q 3116 1113 3116 1747 
z
" transform="scale(0.015625)"/>
      <path id="DejaVuSans-50" d="M 1259 4147 
L 1259 2394 
L 2053 2394 
Q 2494 2394 2734 2622 
Q 2975 2850 2975 3272 
Q 2975 3691 2734 3919 
Q 2494 4147 2053 4147 
L 1259 4147 
z
M 628 4666 
L 2053 4666 
Q 2838 4666 3239 4311 
Q 3641 3956 3641 3272 
Q 3641 2581 3239 2228 
Q 2838 1875 2053 1875 
L 1259 1875 
L 1259 0 
L 628 0 
L 628 4666 
z
" transform="scale(0.015625)"/>
      <path id="DejaVuSans-39" d="M 703 97 
L 703 672 
Q 941 559 1184 500 
Q 1428 441 1663 441 
Q 2288 441 2617 861 
Q 2947 1281 2994 2138 
Q 2813 1869 2534 1725 
Q 2256 1581 1919 1581 
Q 1219 1581 811 2004 
Q 403 2428 403 3163 
Q 403 3881 828 4315 
Q 1253 4750 1959 4750 
Q 2769 4750 3195 4129 
Q 3622 3509 3622 2328 
Q 3622 1225 3098 567 
Q 2575 -91 1691 -91 
Q 1453 -91 1209 -44 
Q 966 3 703 97 
z
M 1959 2075 
Q 2384 2075 2632 2365 
Q 2881 2656 2881 3163 
Q 2881 3666 2632 3958 
Q 2384 4250 1959 4250 
Q 1534 4250 1286 3958 
Q 1038 3666 1038 3163 
Q 1038 2656 1286 2365 
Q 1534 2075 1959 2075 
z
" transform="scale(0.015625)"/>
     </defs>
     <use xlink:href="#DejaVuSans-43"/>
     <use xlink:href="#DejaVuSans-61" transform="translate(69.824219 0)"/>
     <use xlink:href="#DejaVuSans-63" transform="translate(131.103516 0)"/>
     <use xlink:href="#DejaVuSans-68" transform="translate(186.083984 0)"/>
     <use xlink:href="#DejaVuSans-69" transform="translate(249.462891 0)"/>
     <use xlink:href="#DejaVuSans-6e" transform="translate(277.246094 0)"/>
     <use xlink:href="#DejaVuSans-67" transform="translate(340.625 0)"/>
     <use xlink:href="#DejaVuSans-20" transform="translate(404.101562 0)"/>
     <use xlink:href="#DejaVuSans-64" transform="translate(435.888672 0)"/>
     <use xlink:href="#DejaVuSans-72" transform="translate(499.365234 0)"/>
     <use xlink:href="#DejaVuSans-61" transform="translate(540.478516 0)"/>
     <use xlink:href="#DejaVuSans-6d" transform="translate(601.757812 0)"/>
     <use xlink:href="#DejaVuSans-61" transform="translate(699.169922 0)"/>
     <use xlink:href="#DejaVuSans-74" transform="translate(760.449219 0)"/>
     <use xlink:href="#DejaVuSans-69" transform="translate(799.658203 0)"/>
     <use xlink:href="#DejaVuSans-63" transform="translate(827.441406 0)"/>
     <use xlink:href="#DejaVuSans-61" transform="translate(882.421875 0)"/>
     <use xlink:href="#DejaVuSans-6c" transform="translate(943.701172 0)"/>
     <use xlink:href="#DejaVuSans-6c" transform="translate(971.484375 0)"/>
     <use xlink:href="#DejaVuSans-79" transform="translate(999.267578 0)"/>
     <use xlink:href="#DejaVuSans-20" transform="translate(1058.447266 0)"/>
     <use xlink:href="#DejaVuSans-69" transform="translate(1090.234375 0)"/>
     <use xlink:href="#DejaVuSans-6d" transform="translate(1118.017578 0)"/>
     <use xlink:href="#DejaVuSans-70" transform="translate(1215.429688 0)"/>
     <use xlink:href="#DejaVuSans-72" transform="translate(1278.90625 0)"/>
     <use xlink:href="#DejaVuSans-6f" transform="translate(1317.769531 0)"/>
     <use xlink:href="#DejaVuSans-76" transform="translate(1378.951172 0)"/>
     <use xlink:href="#DejaVuSans-65" transform="translate(1438.130859 0)"/>
     <use xlink:href="#DejaVuSans-73" transform="translate(1499.654297 0)"/>
     <use xlink:href="#DejaVuSans-20" transform="translate(1551.753906 0)"/>
     <use xlink:href="#DejaVuSans-74" transform="translate(1583.541016 0)"/>
     <use xlink:href="#DejaVuSans-68" transform="translate(1622.75 0)"/>
     <use xlink:href="#DejaVuSans-65" transform="translate(1686.128906 0)"/>
     <use xlink:href="#DejaVuSans-20" transform="translate(1747.652344 0)"/>
     <use xlink:href="#DejaVuSans-74" transform="translate(1779.439453 0)"/>
     <use xlink:href="#DejaVuSans-61" transform="translate(1818.648438 0)"/>
     <use xlink:href="#DejaVuSans-69" transform="translate(1879.927734 0)"/>
     <use xlink:href="#DejaVuSans-6c" transform="translate(1907.710938 0)"/>
     <use xlink:href="#DejaVuSans-20" transform="translate(1935.494141 0)"/>
     <use xlink:href="#DejaVuSans-28" transform="translate(1967.28125 0)"/>
     <use xlink:href="#DejaVuSans-50" transform="translate(2006.294922 0)"/>
     <use xlink:href="#DejaVuSans-39" transform="translate(2066.597656 0)"/>
     <use xlink:href="#DejaVuSans-39" transform="translate(2130.220703 0)"/>
     <use xlink:href="#DejaVuSans-29" transform="translate(2193.84375 0)"/>
    </g>
   </g>
   <g id="legend_1">
    <g id="patch_7">
     <path d="M 371.033125 305.166125 
L 554.26125 305.166125 
Q 556.26125 305.166125 556.26125 303.166125 
L 556.26125 260.13175 
Q 556.26125 258.13175 554.26125 258.13175 
L 371.033125 258.13175 
Q 369.033125 258.13175 369.033125 260.13175 
L 369.033125 303.166125 
Q 369.033125 305.166125 371.033125 305.166125 
z
" style="fill: #ffffff; opacity: 0.8; stroke: #cccccc; stroke-linejoin: miter"/>
    </g>
    <g id="line2d_43">
     <path d="M 373.033125 266.230187 
L 383.033125 266.230187 
L 393.033125 266.230187 
" style="fill: none; stroke: #e15759; stroke-width: 2; stroke-linecap: square"/>
    </g>
    <g id="text_13">
     <!-- No cache (P99 = 139ms) -->
     <g transform="translate(401.033125 269.730187) scale(0.1 -0.1)">
      <defs>
       <path id="DejaVuSans-4e" d="M 628 4666 
L 1478 4666 
L 3547 763 
L 3547 4666 
L 4159 4666 
L 4159 0 
L 3309 0 
L 1241 3903 
L 1241 0 
L 628 0 
L 628 4666 
z
" transform="scale(0.015625)"/>
       <path id="DejaVuSans-3d" d="M 678 2906 
L 4684 2906 
L 4684 2381 
L 678 2381 
L 678 2906 
z
M 678 1631 
L 4684 1631 
L 4684 1100 
L 678 1100 
L 678 1631 
z
" transform="scale(0.015625)"/>
       <path id="DejaVuSans-33" d="M 2597 2516 
Q 3050 2419 3304 2112 
Q 3559 1806 3559 1356 
Q 3559 666 3084 287 
Q 2609 -91 1734 -91 
Q 1441 -91 1130 -33 
Q 819 25 488 141 
L 488 750 
Q 750 597 1062 519 
Q 1375 441 1716 441 
Q 2309 441 2620 675 
Q 2931 909 2931 1356 
Q 2931 1769 2642 2001 
Q 2353 2234 1838 2234 
L 1294 2234 
L 1294 2753 
L 1863 2753 
Q 2328 2753 2575 2939 
Q 2822 3125 2822 3475 
Q 2822 3834 2567 4026 
Q 2313 4219 1838 4219 
Q 1578 4219 1281 4162 
Q 984 4106 628 3988 
L 628 4550 
Q 988 4650 1302 4700 
Q 1616 4750 1894 4750 
Q 2613 4750 3031 4423 
Q 3450 4097 3450 3541 
Q 3450 3153 3228 2886 
Q 3006 2619 2597 2516 
z
" transform="scale(0.015625)"/>
      </defs>
      <use xlink:href="#DejaVuSans-4e"/>
      <use xlink:href="#DejaVuSans-6f" transform="translate(74.804688 0)"/>
      <use xlink:href="#DejaVuSans-20" transform="translate(135.986328 0)"/>
      <use xlink:href="#DejaVuSans-63" transform="translate(167.773438 0)"/>
      <use xlink:href="#DejaVuSans-61" transform="translate(222.753906 0)"/>
      <use xlink:href="#DejaVuSans-63" transform="translate(284.033203 0)"/>
      <use xlink:href="#DejaVuSans-68" transform="translate(339.013672 0)"/>
      <use xlink:href="#DejaVuSans-65" transform="translate(402.392578 0)"/>
      <use xlink:href="#DejaVuSans-20" transform="translate(463.916016 0)"/>
      <use xlink:href="#DejaVuSans-28" transform="translate(495.703125 0)"/>
      <use xlink:href="#DejaVuSans-50" transform="translate(534.716797 0)"/>
      <use xlink:href="#DejaVuSans-39" transform="translate(595.019531 0)"/>
      <use xlink:href="#DejaVuSans-39" transform="translate(658.642578 0)"/>
      <use xlink:href="#DejaVuSans-20" transform="translate(722.265625 0)"/>
      <use xlink:href="#DejaVuSans-3d" transform="translate(754.052734 0)"/>
      <use xlink:href="#DejaVuSans-20" transform="translate(837.841797 0)"/>
      <use xlink:href="#DejaVuSans-31" transform="translate(869.628906 0)"/>
      <use xlink:href="#DejaVuSans-33" transform="translate(933.251953 0)"/>
      <use xlink:href="#DejaVuSans-39" transform="translate(996.875 0)"/>
      <use xlink:href="#DejaVuSans-6d" transform="translate(1060.498047 0)"/>
      <use xlink:href="#DejaVuSans-73" transform="translate(1157.910156 0)"/>
      <use xlink:href="#DejaVuSans-29" transform="translate(1210.009766 0)"/>
     </g>
    </g>
    <g id="line2d_44">
     <path d="M 373.033125 280.908313 
L 383.033125 280.908313 
L 393.033125 280.908313 
" style="fill: none; stroke: #f28e2b; stroke-width: 2; stroke-linecap: square"/>
    </g>
    <g id="text_14">
     <!-- Cache 30% hit (P99 = 132ms) -->
     <g transform="translate(401.033125 284.408313) scale(0.1 -0.1)">
      <defs>
       <path id="DejaVuSans-25" d="M 4653 2053 
Q 4381 2053 4226 1822 
Q 4072 1591 4072 1178 
Q 4072 772 4226 539 
Q 4381 306 4653 306 
Q 4919 306 5073 539 
Q 5228 772 5228 1178 
Q 5228 1588 5073 1820 
Q 4919 2053 4653 2053 
z
M 4653 2450 
Q 5147 2450 5437 2106 
Q 5728 1763 5728 1178 
Q 5728 594 5436 251 
Q 5144 -91 4653 -91 
Q 4153 -91 3862 251 
Q 3572 594 3572 1178 
Q 3572 1766 3864 2108 
Q 4156 2450 4653 2450 
z
M 1428 4353 
Q 1159 4353 1004 4120 
Q 850 3888 850 3481 
Q 850 3069 1003 2837 
Q 1156 2606 1428 2606 
Q 1700 2606 1854 2837 
Q 2009 3069 2009 3481 
Q 2009 3884 1853 4118 
Q 1697 4353 1428 4353 
z
M 4250 4750 
L 4750 4750 
L 1831 -91 
L 1331 -91 
L 4250 4750 
z
M 1428 4750 
Q 1922 4750 2215 4408 
Q 2509 4066 2509 3481 
Q 2509 2891 2217 2550 
Q 1925 2209 1428 2209 
Q 931 2209 642 2551 
Q 353 2894 353 3481 
Q 353 4063 643 4406 
Q 934 4750 1428 4750 
z
" transform="scale(0.015625)"/>
      </defs>
      <use xlink:href="#DejaVuSans-43"/>
      <use xlink:href="#DejaVuSans-61" transform="translate(69.824219 0)"/>
      <use xlink:href="#DejaVuSans-63" transform="translate(131.103516 0)"/>
      <use xlink:href="#DejaVuSans-68" transform="translate(186.083984 0)"/>
      <use xlink:href="#DejaVuSans-65" transform="translate(249.462891 0)"/>
      <use xlink:href="#DejaVuSans-20" transform="translate(310.986328 0)"/>
      <use xlink:href="#DejaVuSans-33" transform="translate(342.773438 0)"/>
      <use xlink:href="#DejaVuSans-30" transform="translate(406.396484 0)"/>
      <use xlink:href="#DejaVuSans-25" transform="translate(470.019531 0)"/>
      <use xlink:href="#DejaVuSans-20" transform="translate(565.039062 0)"/>
      <use xlink:href="#DejaVuSans-68" transform="translate(596.826172 0)"/>
      <use xlink:href="#DejaVuSans-69" transform="translate(660.205078 0)"/>
      <use xlink:href="#DejaVuSans-74" transform="translate(687.988281 0)"/>
      <use xlink:href="#DejaVuSans-20" transform="translate(727.197266 0)"/>
      <use xlink:href="#DejaVuSans-28" transform="translate(758.984375 0)"/>
      <use xlink:href="#DejaVuSans-50" transform="translate(797.998047 0)"/>
      <use xlink:href="#DejaVuSans-39" transform="translate(858.300781 0)"/>
      <use xlink:href="#DejaVuSans-39" transform="translate(921.923828 0)"/>
      <use xlink:href="#DejaVuSans-20" transform="translate(985.546875 0)"/>
      <use xlink:href="#DejaVuSans-3d" transform="translate(1017.333984 0)"/>
      <use xlink:href="#DejaVuSans-20" transform="translate(1101.123047 0)"/>
      <use xlink:href="#DejaVuSans-31" transform="translate(1132.910156 0)"/>
      <use xlink:href="#DejaVuSans-33" transform="translate(1196.533203 0)"/>
      <use xlink:href="#DejaVuSans-32" transform="translate(1260.15625 0)"/>
      <use xlink:href="#DejaVuSans-6d" transform="translate(1323.779297 0)"/>
      <use xlink:href="#DejaVuSans-73" transform="translate(1421.191406 0)"/>
      <use xlink:href="#DejaVuSans-29" transform="translate(1473.291016 0)"/>
     </g>
    </g>
    <g id="line2d_45">
     <path d="M 373.033125 295.586437 
L 383.033125 295.586437 
L 393.033125 295.586437 
" style="fill: none; stroke: #59a14f; stroke-width: 2; stroke-linecap: square"/>
    </g>
    <g id="text_15">
     <!-- Cache 70% hit (P99 = 109ms) -->
     <g transform="translate(401.033125 299.086437) scale(0.1 -0.1)">
      <defs>
       <path id="DejaVuSans-37" d="M 525 4666 
L 3525 4666 
L 3525 4397 
L 1831 0 
L 1172 0 
L 2766 4134 
L 525 4134 
L 525 4666 
z
" transform="scale(0.015625)"/>
      </defs>
      <use xlink:href="#DejaVuSans-43"/>
      <use xlink:href="#DejaVuSans-61" transform="translate(69.824219 0)"/>
      <use xlink:href="#DejaVuSans-63" transform="translate(131.103516 0)"/>
      <use xlink:href="#DejaVuSans-68" transform="translate(186.083984 0)"/>
      <use xlink:href="#DejaVuSans-65" transform="translate(249.462891 0)"/>
      <use xlink:href="#DejaVuSans-20" transform="translate(310.986328 0)"/>
      <use xlink:href="#DejaVuSans-37" transform="translate(342.773438 0)"/>
      <use xlink:href="#DejaVuSans-30" transform="translate(406.396484 0)"/>
      <use xlink:href="#DejaVuSans-25" transform="translate(470.019531 0)"/>
      <use xlink:href="#DejaVuSans-20" transform="translate(565.039062 0)"/>
      <use xlink:href="#DejaVuSans-68" transform="translate(596.826172 0)"/>
      <use xlink:href="#DejaVuSans-69" transform="translate(660.205078 0)"/>
      <use xlink:href="#DejaVuSans-74" transform="translate(687.988281 0)"/>
      <use xlink:href="#DejaVuSans-20" transform="translate(727.197266 0)"/>
      <use xlink:href="#DejaVuSans-28" transform="translate(758.984375 0)"/>
      <use xlink:href="#DejaVuSans-50" transform="translate(797.998047 0)"/>
      <use xlink:href="#DejaVuSans-39" transform="translate(858.300781 0)"/>
      <use xlink:href="#DejaVuSans-39" transform="translate(921.923828 0)"/>
      <use xlink:href="#DejaVuSans-20" transform="translate(985.546875 0)"/>
      <use xlink:href="#DejaVuSans-3d" transform="translate(1017.333984 0)"/>
      <use xlink:href="#DejaVuSans-20" transform="translate(1101.123047 0)"/>
      <use xlink:href="#DejaVuSans-31" transform="translate(1132.910156 0)"/>
      <use xlink:href="#DejaVuSans-30" transform="translate(1196.533203 0)"/>
      <use xlink:href="#DejaVuSans-39" transform="translate(1260.15625 0)"/>
      <use xlink:href="#DejaVuSans-6d" transform="translate(1323.779297 0)"/>
      <use xlink:href="#DejaVuSans-73" transform="translate(1421.191406 0)"/>
      <use xlink:href="#DejaVuSans-29" transform="translate(1473.291016 0)"/>
     </g>
    </g>
   </g>
  </g>
 </g>
 <defs>
  <clipPath id="p53b036248e">
   <rect x="43.78125" y="22.318125" width="517.48" height="287.848"/>
  </clipPath>
 </defs>
</svg>
